<?xml version="1.0" encoding="UTF-8"?>
<svg version="1.1" viewBox="0 0 100 100" xmlns="http://www.w3.org/2000/svg">
  <g>
    <path d="m67.859 12.5c0 6.9023-5.5977 12.5-12.504 12.5-6.9023 0-12.5-5.5977-12.5-12.5s5.5977-12.5 12.5-12.5c6.9062 0 12.504 5.5977 12.504 12.5"/>
    <path d="m92.859 28.57c0 5.918-4.7969 10.715-10.715 10.715s-10.715-4.7969-10.715-10.715c0-5.918 4.7969-10.715 10.715-10.715s10.715 4.7969 10.715 10.715"/>
    <path d="m96.43 58.926c0 4.9336-3.9961 8.9297-8.9297 8.9297-4.9297 0-8.9258-3.9961-8.9258-8.9297 0-4.9297 3.9961-8.9258 8.9258-8.9258 4.9336 0 8.9297 3.9961 8.9297 8.9258"/>
    <path d="m78.574 85.715c0 3.9453-3.1992 7.1406-7.1445 7.1406-3.9453 0-7.1445-3.1953-7.1445-7.1406 0-3.9453 3.1992-7.1445 7.1445-7.1445 3.9453 0 7.1445 3.1992 7.1445 7.1445"/>
    <path d="m46.43 92.855c0 3.9453-3.1992 7.1445-7.1445 7.1445-3.9453 0-7.1445-3.1992-7.1445-7.1445 0-3.9453 3.1992-7.1406 7.1445-7.1406 3.9453 0 7.1445 3.1953 7.1445 7.1406"/>
    <path d="m17.855 73.215c0 7.1406-10.715 7.1406-10.715 0 0-7.1445 10.715-7.1445 10.715 0"/>
    <path d="m10.711 42.855c0 4.7617-7.1406 4.7617-7.1406 0s7.1406-4.7617 7.1406 0"/>
    <path d="m28.57 17.855c0 4.7617-7.1445 4.7617-7.1445 0s7.1445-4.7617 7.1445 0"/>
  </g>
</svg>
