<svg viewBox="0 0 14 14" xmlns="http://www.w3.org/2000/svg">
<path d="M11.9583 5.25H11.0833V4.08332C11.0833 1.83176 9.25159 0 7 0C4.74841 0 2.91668 1.83176 2.91668 4.08332V5.25H2.04168C1.88046 5.25 1.75 5.38046 1.75 5.54168V12.8334C1.75 13.4768 2.27322 14 2.91668 14H11.0834C11.7268 14 12.25 13.4768 12.25 12.8333V5.54168C12.25 5.38046 12.1195 5.25 11.9583 5.25ZM7.8733 11.3428C7.88241 11.4251 7.85594 11.5077 7.80068 11.5696C7.74542 11.6313 7.66623 11.6667 7.58335 11.6667H6.41668C6.3338 11.6667 6.25461 11.6313 6.19935 11.5696C6.14409 11.5078 6.11759 11.4251 6.12672 11.3428L6.31072 9.68825C6.01193 9.47092 5.83335 9.12712 5.83335 8.75C5.83335 8.10657 6.35657 7.58332 7.00003 7.58332C7.64348 7.58332 8.1667 8.10655 8.1667 8.75C8.1667 9.12712 7.98812 9.47092 7.68934 9.68825L7.8733 11.3428ZM9.33332 5.25H4.66668V4.08332C4.66668 2.79675 5.71342 1.75 7 1.75C8.28658 1.75 9.33332 2.79675 9.33332 4.08332V5.25Z" />
</svg>
