<svg viewBox="0 0 170 32" xmlns="http://www.w3.org/2000/svg">
<path d="M101.465 4.92866C101.289 5.13654 101.164 5.22774 101.12 5.34844L101.465 4.92866ZM99.0009 29.7774L98.7637 30.169C98.5347 30.0886 98.2908 29.9933 98.2949 29.6996C98.3016 29.2705 98.4864 28.0983 98.4864 27.6691C98.4904 25.0901 98.4891 22.5124 98.4971 19.9334C98.5052 17.3155 98.5253 14.6989 98.5333 12.081C98.5373 10.8364 98.7182 9.59317 98.5266 8.34456C98.4757 8.0133 98.5829 7.65655 98.6137 7.34541C98.2801 6.96318 97.8769 6.97659 97.4937 6.96989C96.1594 6.94843 94.8613 7.14558 93.5845 7.58547C93.405 8.43844 93.401 9.25386 93.4171 10.0693C93.4425 11.3192 93.5028 12.5692 93.5095 13.8191C93.5122 14.3864 93.8016 16.2694 93.5377 16.484C93.3193 17.8278 93.2469 19.2803 93.7024 20.73C93.8163 21.0948 93.8404 21.4999 93.831 21.8861C93.8284 22.031 93.6408 22.2214 93.4894 22.2992C93.2858 22.4038 93.1291 22.2509 93.0353 22.0578C93.0179 22.0229 92.9937 21.9894 92.9857 21.9518C92.6133 20.2901 91.7693 18.827 90.9333 17.3866C89.8777 15.568 88.7724 13.7628 87.3483 12.1923C86.1614 10.8834 85.2156 9.41345 84.3609 7.82151C84.1184 7.76921 83.8585 7.67935 83.5932 7.66058C82.8537 7.60827 82.1129 7.55328 81.3734 7.55463C79.8823 7.55865 78.4194 7.36016 76.9645 7.06243C76.7823 7.02488 76.5961 7.00878 76.3442 6.97257C76.3281 7.25957 76.304 7.48489 76.3054 7.7102C76.3174 9.38931 76.4246 11.0738 76.3255 12.7462C76.1995 14.8612 76.4835 16.9507 76.5278 19.0523C76.5813 21.63 76.6001 24.209 76.6309 26.788C76.639 27.4519 76.6215 28.1171 76.6497 28.7809C76.6644 29.1296 76.7421 29.4757 76.8051 29.8203C76.8627 30.1328 77.0837 30.287 77.3798 30.3112C77.6102 30.3313 77.8487 30.3219 78.0791 30.2924C79.3558 30.1275 80.6299 29.9638 81.9226 30.1181C82.1022 30.1395 82.3058 30.0658 82.4799 29.9933C82.7988 29.8592 83.1042 29.6929 83.4526 29.5226C83.6039 28.5623 83.5236 27.5927 83.4485 26.623C83.3534 25.3771 83.2449 24.1325 83.1552 22.8853C83.048 21.406 82.9448 19.9254 82.8618 18.4434C82.8336 17.9378 82.8671 18.5239 82.8859 18.0156C82.8899 17.9042 82.922 17.7634 82.9944 17.6923C83.0922 17.5971 83.2396 17.518 83.3722 17.5073C83.4418 17.5019 83.5731 17.6481 83.5905 17.7406C83.624 17.9284 83.6066 18.1269 83.5946 18.3187C83.5611 18.8591 83.7433 18.2167 84.1184 18.6016C84.3099 18.7961 84.4761 19.0174 84.6757 19.2011C85.5626 20.0206 86.4427 20.8481 87.3564 21.638C88.1964 22.3636 88.7443 23.3104 89.3806 24.1902C90.2702 25.4214 91.1182 26.6834 91.9809 27.9333C92.1136 28.1251 92.277 28.3115 92.3494 28.5261C92.5356 29.0814 92.9469 29.3147 93.476 29.4153C93.9744 29.5092 94.4687 29.6232 94.9711 29.6889C95.7682 29.7935 98.2774 30.1596 99.2045 29.6741C99.1054 29.9853 99.1013 30.1368 99.0411 30.1637C98.7624 30.287 96.7556 30.3595 96.4595 30.389C94.9993 30.5365 93.614 30.0979 92.2824 29.9169C90.9976 27.5149 89.4838 25.4321 88.0155 23.3225C87.6391 22.782 87.1876 22.2817 86.708 21.8298C85.9122 21.0814 85.0669 20.3867 84.2376 19.6759C84.1264 19.5807 83.9831 19.5257 83.8826 19.468C83.5905 19.5767 83.616 19.7926 83.6133 19.9763C83.6093 20.2486 83.6321 20.5222 83.6508 20.7958C83.8049 22.9349 83.9657 25.074 84.113 27.2145C84.1666 27.9923 84.1907 28.7729 84.2242 29.5534C84.2456 30.0591 84.1291 30.271 83.612 30.3782C83.1967 30.4641 82.8993 30.6451 82.6889 31.0381C82.4933 31.0247 82.2951 31.0421 82.1142 30.9952C81.0706 30.7243 80.0324 30.7471 78.982 30.9643C78.1354 31.14 77.2807 31.1856 76.4246 31.0005C75.8633 30.8798 75.6663 30.5647 75.7936 29.9826C75.8512 29.7197 75.949 29.4542 75.949 29.1913C75.9517 27.59 75.9035 25.9873 75.9276 24.3873C75.9597 22.2764 75.8526 20.1721 75.7561 18.0652C75.6181 15.0624 75.6047 12.0555 75.5297 9.05C75.515 8.46794 75.3274 5.84466 75.9008 5.80711C76.1687 5.78968 76.3429 5.68775 76.5036 5.52011C77.065 4.93269 77.6196 4.33722 78.2358 3.68006C78.2506 3.67872 78.3846 3.62507 78.4743 3.66665C79.948 4.33722 81.5261 4.58801 83.1029 4.84015C84.1787 5.01181 85.2625 5.1352 86.3409 5.29614C86.7013 5.34978 86.7977 5.39672 87.1219 5.21299C87.3242 5.09899 88.8314 7.05036 89.0149 7.36284C89.6472 8.43978 90.2863 9.5127 90.9186 10.5883C91.2147 11.0926 91.492 11.6089 91.7974 12.1078C92.0399 12.5035 92.3119 12.883 92.553 13.2424C92.979 13.1848 92.8946 12.8884 92.8893 12.6899C92.8491 11.2066 92.7888 9.72326 92.7285 8.23995C92.7111 7.81213 92.6722 7.38698 92.6441 6.99537C93.3648 6.3771 93.3287 6.34357 93.9985 5.75883C94.3482 5.45305 94.5451 5.05473 95.4949 4.33453C95.5432 4.00327 95.8473 3.84099 96.2009 3.7337C97.2928 4.23127 98.5105 4.0596 99.6908 4.29296C100.229 4.39891 100.759 4.3399 101.269 4.03814C101.822 3.71224 102.125 3.8772 102.235 4.52766C102.333 5.10167 102.381 5.68641 102.424 6.26981C102.669 9.54489 102.692 12.8226 102.593 16.1044C102.543 17.742 102.509 19.3849 102.789 21.0144C102.869 21.473 102.838 21.9505 102.874 22.4172C102.937 23.234 103.029 24.0494 103.075 24.8675C103.094 25.2068 103.032 25.5515 102.988 25.8921C102.981 25.9391 102.869 26.0007 102.802 26.0048C102.739 26.0088 102.647 25.9605 102.611 25.9069L99.0009 29.7774ZM85.6255 8.04012C85.8586 8.54439 86.0033 8.99636 86.2552 9.3759C86.7696 10.1538 87.347 10.8887 87.8882 11.6491C88.8809 13.0413 89.8669 14.4387 90.8543 15.8335C91.1704 16.8488 91.8858 17.6561 92.3105 18.6151C92.3882 18.7921 92.4967 18.9611 92.8397 18.8833C92.9174 18.0692 92.9375 17.2216 92.9616 16.3753C92.983 15.631 92.987 14.8813 92.3413 14.3301C92.2569 14.259 92.2234 14.1303 92.1618 14.031C90.6815 11.6545 89.2038 9.27666 87.7154 6.90551C87.6029 6.72714 87.4207 6.59303 87.217 6.38247C86.6772 6.94575 86.1976 7.44331 85.6255 8.04012ZM86.2083 6.09412C85.5733 5.86478 84.961 5.82187 84.3555 5.74944C82.9314 5.57778 81.4953 5.4839 80.1074 5.07082C79.7376 4.96085 79.3438 4.93134 78.9646 4.85088C78.6444 4.78248 78.347 4.79455 78.0885 5.0212C77.7281 5.33503 77.286 5.59253 77.2311 6.18934C79.885 6.82102 82.5322 6.78883 85.162 6.91356C85.7139 6.94038 85.9792 6.57961 86.2083 6.09412ZM94.8827 6.31809C94.9952 6.34357 95.1064 6.40124 95.2069 6.38783C96.5586 6.20141 97.9117 6.15044 99.2728 6.27919C99.4845 6.29931 99.7698 6.24298 99.9159 6.10887C100.188 5.85808 100.475 5.559 100.318 5.05071C99.1523 4.86027 97.9666 4.70872 96.773 4.63093C96.5881 4.61886 96.3831 4.67384 96.2117 4.75029C95.9089 4.88574 95.1453 5.81248 94.8827 6.31809Z" />
<path d="M0.227685 24.5175C-0.54129 23.3829 0.884127 22.4333 0.884127 22.4333C1.85271 22.3703 2.8146 22.2282 3.78185 22.1557C4.48518 22.1034 4.73972 22.2966 5.00766 22.9604C5.54085 24.2788 7.17392 24.6999 8.28853 23.8107C8.58192 23.5773 8.7199 23.2608 8.79493 22.9121C8.97444 22.0779 8.79894 21.28 8.49082 20.5101C8.4091 20.3063 8.22422 20.1279 8.0514 19.9817C7.41506 19.4399 6.69565 19.0724 5.84629 18.9906C5.03177 18.9128 4.21457 18.8257 3.44291 18.5293C2.56006 18.1886 1.76965 17.7447 1.18823 16.9387C1.18823 16.9387 -1.12271 14.538 1.42268 10.0801C2.67126 7.87923 4.51599 6.40262 6.81086 5.43298C6.91804 5.38738 7.03995 5.36458 7.13506 5.30155C8.34345 4.84019 8.90478 4.79325 9.8372 4.87909C10.4186 4.93273 10.9947 5.04002 11.5761 5.10708C12.5032 5.21437 13.4329 5.3002 14.3613 5.41018C14.7418 5.45578 15.1182 5.53893 15.4826 5.60196C15.8014 6.12367 15.7371 6.63599 15.7546 7.13355C15.7733 7.6794 15.7599 7.65794 15.768 8.20379C15.7746 8.70537 15.768 9.0648 15.768 9.84669C14.9869 10.3939 14.7042 10.6353 14.3157 11.0604C14.0424 11.3608 13.603 11.5097 13.2815 11.7002C13.1408 11.6586 13.0497 11.6559 12.9962 11.6116C11.8963 10.6983 10.7964 11.153 9.72466 11.6465C9.22228 11.8772 9.15664 12.8281 9.60141 13.1607C10.0033 13.4624 10.4401 13.732 10.8929 13.9493C12.0865 14.5246 13.2936 15.0718 14.502 15.615C16.8236 16.6597 18.0789 18.5346 18.6603 20.9393C18.6871 21.052 18.7193 21.1713 18.7112 21.2853C18.6148 22.4883 18.6362 23.7021 18.3803 24.8917C18.2785 25.3651 18.0588 25.7701 17.7507 26.1282C17.0299 26.9624 16.2141 27.6839 15.2147 28.1667C13.9513 28.777 13.1904 29.1713 11.2372 29.1713C10.2016 29.3134 9.59605 29.5629 8.89272 29.7185C7.87725 29.8754 7.1632 29.7721 6.33796 29.532C5.70295 29.347 5.08402 29.1069 4.45035 28.9138C1.88085 27.5632 0.998 25.6521 0.227685 24.5175ZM0.838578 23.5559C0.855994 23.8201 0.833219 23.9851 0.880108 24.1272C1.44813 25.856 2.61767 27.0791 4.22127 27.8449C5.0934 28.262 6.05528 28.4953 6.9877 28.777C7.67094 28.9835 8.36623 28.9929 9.05616 28.7461C9.60677 28.549 10.1748 28.4055 10.7227 28.203C11.7918 27.8087 12.8153 27.3071 13.591 26.4501C14.6801 25.2471 15.1316 23.8268 14.6681 22.2335C14.3305 21.0707 13.8294 19.9683 13.031 19.0268C12.0061 17.8171 10.862 16.8059 9.2464 16.4411C8.72928 16.3244 8.2202 16.0589 7.77409 15.7625C6.85507 15.1509 6.57776 13.8004 7.13908 12.8522C7.58118 12.1052 8.14116 11.4641 8.90746 11.0215C9.79968 10.5079 10.7468 10.186 11.7784 10.1203C12.0771 10.1015 12.3732 10.0505 12.7175 10.0076C12.7175 9.55164 12.7175 8.59674 12.7175 8.20513C12.1937 7.97043 11.907 8.00395 11.3256 7.91007C10.1614 7.72097 9.00659 7.63514 7.87323 8.09247C7.08014 8.41166 6.29241 8.75902 5.47654 9.00713C4.26279 9.37461 3.17766 10.0693 2.40198 11.0229C2.28543 11.165 1.59014 12.8348 1.5687 13.1419C1.52449 13.8004 1.41866 14.4871 1.55129 15.1174C1.77769 16.1903 2.40064 17.0218 3.4898 17.4309C4.33648 17.7487 5.21531 17.8895 6.09815 18.0478C6.66618 18.1497 7.24626 18.304 7.75935 18.5574C8.38364 18.8659 8.9999 19.2669 9.34955 19.8972C9.91624 20.9219 10.0971 22.0283 9.77289 23.1763C9.46878 24.2533 8.7266 24.9212 7.66156 25.1478C6.34064 25.4295 5.18985 25.0714 4.33112 23.973C4.14356 23.7329 3.98548 23.4714 3.77381 23.1616C2.82666 23.3789 1.83664 23.1012 0.838578 23.5559ZM11.9258 7.22475C12.601 7.40044 12.83 7.23012 13.2293 6.4214C12.7322 6.30607 12.2446 6.19073 11.7556 6.07673C10.2043 5.71462 8.67034 5.80179 7.18195 6.34496C6.56838 6.56893 6.00572 6.93238 5.42028 7.23145C4.51465 7.96908 4.1717 7.76255 3.80864 8.39557C3.75506 8.49213 3.67602 8.57528 3.44291 8.8824C3.82874 8.77377 3.97476 8.74695 4.11007 8.6933C5.15234 8.27352 6.18791 7.83229 7.23822 7.42995L11.9258 7.22475ZM13.7879 10.2464C14.5649 9.78634 14.9052 9.28877 14.8436 8.54041C14.8114 8.15282 14.8463 7.76121 14.8168 7.37362C14.8047 7.20597 14.7096 7.04369 14.6386 6.83716C14.1416 7.07186 13.7129 7.24352 13.5401 7.72499C13.6781 8.05492 13.9085 8.29767 13.8107 8.7094C13.7089 9.14661 13.7879 9.62674 13.7879 10.2464Z" />
<path d="M59.1964 21.9679C58.7435 22.1423 58.3899 22.2911 58.0268 22.4118C57.8071 22.4856 57.5753 22.5366 57.3436 22.5647C57.0582 22.5996 56.8158 22.3421 56.8506 22.0524C56.8734 21.8593 56.9256 21.6702 56.9645 21.4784C57.0194 21.2102 57.0917 20.946 57.1279 20.6751C57.1935 20.1748 57.2645 19.5498 57.1868 18.611C57.3114 18.7545 57.0944 18.5668 57.1868 18.611C57.3865 18.4622 57.6222 18.1658 57.8125 18.0639C58.5935 17.5167 58.0951 17.5636 58.8279 17.2028C59.4536 16.8112 58.9847 17.2028 59.8448 16.366C60.0725 16.3056 60.2092 16.2211 60.2855 16.2573C61.1108 16.6557 62.003 16.7442 62.8912 16.8407C64.0915 16.9708 65.2946 17.0795 66.4949 17.2002C66.6101 17.2122 66.7254 17.2377 66.8352 17.2726C67.1005 17.3571 67.3282 17.6897 67.2023 17.9123C66.6543 18.8739 66.9772 19.8006 67.2827 20.7341C66.9986 21.3349 66.5606 21.7668 65.9858 22.0471C65.6228 22.2241 65.4205 22.4695 65.4969 22.8732C65.7125 24.0078 65.3361 25.0485 64.9369 26.0584C64.7279 26.5868 64.3715 27.0965 63.9683 27.5015C62.4491 29.0264 60.6325 30.0389 58.5198 30.5057C55.803 31.1065 53.2335 30.7216 50.8609 29.2812C49.481 28.4443 48.3289 27.3298 47.4876 25.931C47.288 25.5997 47.1245 25.2363 47.0133 24.8661C46.5351 23.2796 46.3689 21.6595 46.5444 20.0045C46.7065 18.4863 46.941 16.9856 47.4554 15.5412C47.4822 15.4674 47.5224 15.395 47.5304 15.3199C47.6778 13.913 48.4361 12.875 49.4542 11.9536C49.97 11.4869 50.3799 10.9008 50.814 10.3482C51.2976 9.73266 51.7719 9.05672 52.4203 8.59805C52.9602 8.21582 52.577 8.44114 53.358 7.58146C53.5644 7.47685 54.7634 6.53537 54.9991 6.40796C56.5786 5.55767 56.1566 5.61802 57.7348 4.76506C58.2144 4.50487 59.049 4.07839 59.5326 3.82625C59.8233 3.6747 60.3927 3.66934 61.096 3.74846C61.7217 3.82625 61.7927 3.94964 62.2441 4.06229C63.1497 4.2876 64.0366 4.5907 64.7319 5.28274C65.0333 5.58315 65.3857 5.83395 65.7286 6.09145C66.361 6.56487 66.7079 7.21667 66.7923 7.97576C66.8915 8.8636 66.9263 9.75948 66.9384 10.6527C66.9424 10.9719 66.6798 11.1663 66.3985 11.3554C65.6643 11.853 64.9463 12.3841 64.3809 13.0869C64.3072 13.107 64.2322 13.1499 64.1585 13.1445C62.7947 13.0466 61.4323 13.0547 60.0725 13.2102C59.5742 13.2666 59.2901 13.0882 59.0731 12.6215C58.7261 11.8758 58.4756 11.7766 57.6879 11.967C57.2739 12.0676 56.8466 12.1843 56.4768 12.3868C55.4479 12.9514 54.5035 13.6448 53.6849 14.4937C53.3902 14.7995 53.2 14.7794 52.8088 15.7182C52.8195 15.7852 52.6989 16.0588 52.652 16.1098C52.4176 16.8917 52.5998 17.1036 52.5341 17.797C52.3948 19.2709 52.723 20.6643 53.2026 22.0404C53.8095 23.7825 56.099 24.7991 57.5553 24.492C57.708 24.4598 57.8607 24.4249 58.0067 24.3726C59.1267 23.9689 59.4402 23.3802 59.1964 21.9679ZM56.5987 6.55682C56.947 6.61852 57.0623 6.66412 57.1734 6.65339C58.69 6.5233 60.2011 6.59036 61.719 6.69362C62.7411 6.76336 63.4766 7.27031 64.1559 7.91809C64.3622 8.11389 64.4774 8.45589 64.531 8.7496C64.6489 9.39871 64.6971 10.0612 64.7842 10.7157C64.8083 10.8954 64.8739 11.0684 64.9114 11.2119C65.0293 11.2307 65.0682 11.2468 65.1017 11.2401C65.1753 11.224 65.2571 11.2119 65.3187 11.1704C65.9282 10.7586 66.1573 10.1632 66.097 9.4537C66.0649 9.06745 65.9658 8.68657 65.9215 8.29898C65.8586 7.73301 65.6107 7.2502 65.245 6.83712C64.3756 5.85406 63.3654 5.09632 62.0271 4.8643C61.6493 4.79858 61.2635 4.69531 60.9178 4.53169C60.4396 4.30504 60.0256 4.36405 59.5969 4.6296C58.8346 5.10034 58.063 5.55365 57.3007 6.02439C57.1118 6.14241 56.9444 6.29396 56.5987 6.55682ZM65.7795 17.8734C65.4674 17.8265 65.2812 17.7849 65.0936 17.7715C63.8169 17.6816 62.5348 17.6441 61.2662 17.4925C60.3458 17.3829 59.6843 17.8551 58.9673 18.3576C58.8146 18.4649 58.6404 18.5802 58.7623 18.8699C59.9318 18.9731 61.1228 19.1287 62.3178 19.1676C63.1256 19.1931 63.9388 19.0643 64.748 18.9825C65.324 18.9235 65.6094 18.548 65.7795 17.8734ZM62.9247 26.6566C62.9166 26.678 62.9622 26.7183 63.0185 26.8054C63.6883 26.5238 64.0929 26.0276 64.3407 25.3396C64.8043 24.0494 64.9248 23.6967 64.7694 22.6787C64.535 21.9746 64.5551 21.1565 64.5551 21.1565C64.5444 20.777 64.4747 20.3974 64.4332 20.0179C64.1652 19.9602 63.9736 19.8717 63.7888 19.8851C62.421 19.983 61.0679 19.8073 59.7121 19.684C59.4027 19.6558 59.0865 19.6692 58.777 19.6987C58.5171 19.7242 58.2613 19.7993 57.984 19.857C57.9531 20.2231 57.9183 20.5316 57.9063 20.8414C57.8982 21.0305 57.9263 21.2223 57.9371 21.3926C58.0201 21.4221 58.0617 21.4543 58.0884 21.4449C58.4153 21.3336 58.7435 21.2236 59.0664 21.0975C59.6639 20.8628 60.0913 21.0707 60.1623 21.6876C60.244 22.3931 60.177 23.0958 59.9064 23.7584C59.8206 23.9689 59.6867 24.1942 59.5098 24.3257C58.5774 25.0244 57.5392 25.4804 56.3522 25.2739C55.7453 25.1679 55.1264 24.9681 54.5879 24.6744C53.5483 24.1057 52.7297 23.3131 52.3412 22.1248C51.7598 20.3505 51.5495 18.5587 51.8161 16.7013C51.95 15.7745 52.2903 14.9631 52.9267 14.3019C53.5469 13.6568 54.2329 13.0761 54.8893 12.4659C55.7226 11.6934 56.7354 11.3434 57.8379 11.1623C58.3296 11.0818 58.7623 11.1891 59.199 11.3662C59.5407 11.5043 59.5393 11.8651 59.6974 12.1226C59.7563 12.2178 59.8474 12.2942 59.9868 12.4498C60.3646 12.4042 60.7812 12.3358 61.2005 12.3103C61.589 12.2875 61.9789 12.3184 62.3687 12.3157C62.7921 12.313 63.2154 12.2996 63.6883 12.2902C64.0822 11.1154 63.9643 10.0747 63.7566 9.03526C63.6361 8.43175 63.2743 8.07903 62.6594 7.98246C62.4317 7.94625 62.1731 7.93284 61.9936 7.81214C61.6172 7.55732 61.1978 7.5077 60.7772 7.44198C59.4174 7.22606 58.0603 7.30116 56.6992 7.46076C55.7038 7.57744 54.8049 7.9087 54.0024 8.4921C53.2455 9.04197 52.5395 9.65085 51.9206 10.363C51.2306 11.1583 50.526 11.9455 49.7731 12.6805C49.1635 13.2746 48.7737 13.9573 48.5633 14.77C48.3664 15.5251 48.1279 16.2694 47.9323 17.0258C47.359 19.2414 47.1178 21.4556 47.6725 23.7342C47.9712 24.9641 48.5687 25.9686 49.402 26.8645C51.2896 28.8976 53.6622 29.8163 56.4005 29.8445C57.3798 29.8539 58.3805 29.756 59.262 29.3509C60.5535 28.7581 62.6259 28.3008 63.0506 26.8242" />
<path d="M126.648 10.9652C127.355 9.51945 127.987 8.22927 128.62 6.93774C130.605 6.59575 132.558 6.25644 134.513 5.92652C134.613 5.90909 134.729 5.98017 134.897 6.02711C134.911 6.28729 134.951 6.55284 134.935 6.81436C134.804 8.98433 135.125 11.0953 135.688 13.1848C135.932 14.0887 136.086 15.0128 136.079 15.9596C136.072 16.8703 136.252 17.7501 136.69 18.5561C136.936 19.0094 137.254 19.3943 137.865 19.4077C138.189 18.9504 138.223 18.4247 138.229 17.9432C138.251 16.421 138.225 14.8974 138.173 13.3752C138.145 12.5518 138.229 11.5701 138.152 9.84803C139.089 8.28291 139.756 7.13221 139.598 6.90019C139.736 6.79692 139.841 6.66817 139.972 6.62794C141.096 6.28997 143.341 6.39458 144.51 6.31009C144.806 6.28863 145.13 6.36373 145.409 6.47371C145.623 6.55954 145.596 6.78217 145.386 7.02089C145.3 7.02626 145.155 7.03967 145.009 7.04504C144.504 7.06247 142.906 6.75669 142.402 6.78217C141.467 6.82777 140.796 7.26499 140.355 8.10588C140.049 8.69196 139.665 9.23781 139.33 9.80914C139.199 10.0331 139.104 10.2785 139.002 10.4945C139.117 10.5937 139.172 10.6836 139.23 10.6862C140.47 10.7278 141.711 10.7587 142.973 10.7922C143.668 9.66564 144.301 8.55516 144.676 7.31461C144.731 7.13087 144.799 6.93774 144.91 6.78619C145.016 6.64269 145.192 6.44554 145.328 6.45225C145.63 6.467 145.626 6.73523 145.608 6.98468C145.597 7.13623 145.612 7.29851 145.655 7.4447C146.329 9.75549 146.285 12.1468 146.472 14.5152C146.63 16.5162 146.462 18.4904 146.186 20.4645C146.115 20.9661 146.032 21.4664 145.939 21.9653C145.674 23.3963 145.035 24.9547 144.009 25.9753C143.072 26.9074 142.662 27.4211 141.589 28.8695C140.363 30.0148 139.589 30.4601 138.316 30.8826C137.2 31.2527 136.075 31.5129 134.885 31.525C133.669 31.537 132.57 31.2017 131.567 30.5634C130.944 30.1677 130.351 29.7144 129.797 29.2262C128.992 28.5154 128.462 27.6289 128.182 26.5681C127.84 25.2766 127.647 23.9716 127.585 22.6426C127.439 19.5231 127.303 16.4035 127.15 13.2854C127.107 12.4713 127.131 11.6398 126.648 10.9652ZM138.749 11.613C138.734 11.9335 138.69 12.132 138.724 12.3144C138.878 13.1298 138.844 13.9452 138.799 14.766C138.773 15.2327 138.8 15.7021 138.82 16.1702C138.856 17.0272 138.856 17.3598 138.856 18.5333C138.813 18.7103 138.778 18.8458 138.699 19.3943C138.622 19.7859 138.622 19.7859 138.543 20.1762C138.366 20.5168 138.438 20.781 138.287 21.1378C138.014 21.7815 137.744 22.4307 137.428 23.0529C137.152 23.5961 136.673 23.9354 136.103 24.1446C135.37 24.4156 134.726 24.2975 134.183 23.7114C133.618 23.0999 133.18 22.4092 132.96 21.6058C132.507 19.9482 132.103 18.2798 131.957 16.5618C131.88 15.6699 131.851 14.7714 131.734 13.8849C131.659 13.3109 131.485 12.7462 131.311 12.191C131.262 12.0314 131.082 11.841 130.925 11.7981C129.821 11.4936 128.719 11.3032 127.693 12.1682C127.693 12.5987 127.673 13.0279 127.697 13.453C127.741 14.2322 127.832 15.0088 127.864 15.788C127.965 18.206 128.053 20.6241 128.136 23.0422C128.172 24.1057 128.387 25.1371 128.708 26.1403C128.897 26.7277 129.125 27.3419 129.492 27.8261C130.898 29.6849 132.706 30.8678 135.129 30.841C136.593 30.8249 138.035 30.6076 139.195 29.6393C139.967 28.9956 140.63 28.2137 141.297 27.4546C141.487 27.2387 141.568 26.8926 141.617 26.5936C141.836 25.2471 142.07 23.9019 142.216 22.5473C142.476 20.1427 142.67 17.7299 142.907 15.3226C142.94 14.99 142.992 12.3345 142.386 11.7511C142.255 11.625 142.049 11.5191 141.87 11.5097C140.864 11.4587 139.857 11.4359 138.749 11.613ZM133.879 7.6566C132.952 8.67319 132.262 9.77829 131.655 10.8727C131.811 11.2348 131.972 11.5043 132.044 11.7981C132.324 12.9353 132.541 14.0847 132.557 15.2609C132.582 17.2284 133.022 19.1274 133.554 21.0023C133.741 21.6635 134.084 22.3032 134.463 22.8826C134.981 23.6739 135.711 23.7825 136.469 23.2112C136.798 22.9631 137.105 22.6131 137.277 22.2416C137.546 21.6582 137.914 21.0681 137.747 20.3291C137.613 20.2553 137.484 20.1748 137.348 20.1105C136.476 19.6987 135.952 18.9973 135.732 18.0786C135.587 17.4751 135.433 16.8569 135.424 16.2426C135.405 14.9819 135.165 13.7588 134.892 12.5451C134.601 11.2495 134.316 9.95935 134.291 8.62491C134.287 8.32047 134.319 7.99189 133.879 7.6566ZM127.577 10.9089C127.74 10.9397 127.849 10.9813 127.958 10.9786C128.613 10.9612 129.275 10.87 129.922 10.9263C130.539 10.98 130.937 10.823 131.27 10.2826C131.918 9.22842 132.632 8.21452 133.313 7.17915C133.35 7.12282 133.333 7.03163 133.341 6.95652C133.276 6.92031 133.204 6.84252 133.15 6.85459C131.977 7.09332 130.805 7.33607 129.634 7.58954C129.144 7.69549 128.826 8.012 128.617 8.46531C128.31 9.13454 127.979 9.79304 127.671 10.4609C127.612 10.587 127.61 10.7426 127.577 10.9089Z" />
<path d="M39.1802 11.8007C39.3717 15.1656 39.5727 18.6338 39.7656 22.102C39.8111 22.9201 39.8286 23.7409 39.858 24.5604C39.8996 25.6896 39.8044 26.8242 40.0228 27.9481C40.0603 28.1385 39.9585 28.4497 39.8111 28.5677C38.9926 29.2275 38.1406 29.8458 37.2979 30.4761C36.9322 30.7497 36.5664 30.8637 36.1056 30.6384C35.8403 30.5097 35.5014 30.4748 35.2 30.4882C33.2548 30.5781 31.3176 30.7578 29.4126 31.1923C28.9222 31.3036 28.5511 31.0689 28.4654 30.5861C28.4319 30.3984 28.4466 30.1985 28.4667 30.0067C28.7708 27.083 28.6195 24.154 28.5538 21.2276C28.4989 18.8082 28.3877 16.3887 28.3247 13.9693C28.302 13.111 28.3582 12.2527 28.3609 11.393C28.3636 10.4582 28.4333 9.51269 28.0702 8.61815C27.9309 8.27213 28.0206 7.96635 28.2805 7.77725C28.8003 7.40039 29.15 6.88807 29.5157 6.3838C29.868 5.8983 30.3423 5.70384 30.9317 5.72261C33.0029 5.78833 35.0499 5.38867 37.1197 5.40476C37.5605 5.40878 37.8043 5.38599 38.2732 5.38599C38.9765 5.5429 38.9604 5.62739 39.1333 6.0123C39.2404 6.25102 39.2136 6.92696 39.211 7.1858C39.1936 9.13851 39.2163 9.74605 39.1802 11.8007ZM36.5196 29.5829C36.4887 28.675 36.4633 27.8985 36.4378 27.1233C36.4043 26.1094 36.3695 25.0941 36.3387 24.0802C36.265 21.6595 36.194 19.2387 36.119 16.8179C36.0507 14.593 35.9676 12.3667 35.9167 10.1417C35.9033 9.57304 35.7439 9.08084 35.3969 8.54438C33.3753 8.48135 31.3256 8.34053 29.2786 8.82603C29.2371 9.01915 29.1808 9.16802 29.1781 9.31822C29.158 10.2946 29.1473 11.2709 29.1393 12.2459C29.1352 12.7153 29.1433 13.1834 29.1513 13.6528C29.1607 14.1598 29.0281 14.7391 29.229 15.1562C29.4715 15.6618 29.1419 16.0253 29.1795 16.4638C29.2839 17.7071 29.3054 18.9584 29.3643 20.2057C29.4166 21.2973 29.5251 22.3877 29.5211 23.4794C29.5157 25.3141 29.4367 27.1474 29.4005 28.9821C29.3938 29.3228 29.3228 29.6943 29.6899 30.0094C31.7409 29.9223 33.8402 29.8364 35.9395 29.7385C36.127 29.7291 36.3079 29.642 36.5196 29.5829ZM29.8292 7.62033C30.0744 7.66057 30.2566 7.72628 30.4334 7.71421C31.8267 7.61765 33.2186 7.62033 34.6118 7.72494C35.1115 7.76249 35.6193 7.72763 36.1203 7.68605C36.2972 7.6713 36.5195 7.58681 36.6254 7.45537C36.8853 7.13484 37.1237 6.78346 37.1371 6.32881C36.9791 6.28724 36.8665 6.22822 36.7594 6.23493C34.7887 6.35295 32.818 6.48036 30.8473 6.60106C30.2378 6.63996 30.0101 7.0423 29.8292 7.62033Z" />
<path d="M163.153 19.629C163.214 20.3331 163.218 21.0399 163.348 21.7239C163.605 23.0825 163.534 24.4451 163.53 25.8104C163.529 26.1229 163.533 26.4354 163.532 26.7478C163.53 27.582 163.506 27.1368 163.683 28.5597C163.713 29.3121 163.639 29.2531 163.58 30.1664C162.768 30.5031 163.24 30.2992 162.768 30.5031C162.208 30.6412 162.208 30.6412 161.368 30.8035C161.28 30.7512 160.813 30.8531 160.736 30.8933C160.11 31.0502 159.881 30.9429 159.344 30.9805C158.06 31.069 156.94 31.2004 155.656 31.2849C155.394 31.3024 155.456 31.2849 155.03 31.2849C155.03 31.128 154.952 30.7378 155.03 30.5031C155.006 29.9331 154.991 29.3966 154.978 28.8521C154.948 27.7175 154.833 26.595 154.604 25.4818C154.153 23.2931 153.974 21.0708 153.972 18.8445C153.969 16.2239 153.806 13.6153 153.605 11.0055C153.52 9.91781 153.569 8.81941 153.552 7.72504C153.546 7.26636 153.707 6.88146 154.06 6.59311C154.453 6.27258 154.859 5.96814 155.261 5.65833C155.684 5.33109 156.181 5.26672 156.694 5.23453C158.07 5.14736 159.416 5.38206 160.765 5.58189C162.432 5.82866 163.999 6.37182 165.564 7.01423C166.877 7.55337 167.87 8.33124 168.813 9.36258C169.666 10.2974 169.978 11.2751 169.819 12.4553C169.647 13.7361 169.324 14.9833 168.876 16.1971C168.689 16.7013 168.397 17.0487 167.859 17.2351C166.381 17.7461 165.11 18.6929 163.66 19.271C163.492 19.3394 163.352 19.4869 163.153 19.629ZM160.823 30.3314C161.087 29.9183 161.116 29.5991 161.084 29.229C160.918 27.3205 160.749 25.518 160.342 23.6485C160.114 22.6037 160.042 21.4731 160.149 20.4243C160.169 20.2339 160.243 20.0461 160.316 19.8664C160.442 19.558 160.654 19.3595 161.014 19.3353C161.323 19.3152 161.639 19.2924 161.932 19.2079C163.599 18.7265 165.095 17.8963 166.49 16.881C167.141 16.4076 167.588 15.7733 167.618 14.9203C167.661 13.6636 167.574 12.4365 167.121 11.2362C166.81 10.4127 166.293 9.84002 165.533 9.45377C164.48 8.91866 163.367 8.53911 162.188 8.48412C160.784 8.41975 159.397 8.26284 158.016 8.02411C157.671 7.96376 157.321 7.93292 156.973 7.88732C156.11 7.776 155.275 7.90743 154.48 8.12068C154.225 8.51497 154.23 8.91061 154.234 9.2982C154.24 9.88294 154.258 10.469 154.297 11.0524C154.431 13.0762 154.687 15.0919 154.627 17.1265C154.612 17.6334 154.623 18.1417 154.623 18.6487C154.62 20.643 154.757 22.6292 155.133 24.5873C155.384 25.8922 155.566 27.1985 155.603 28.5275C155.621 29.1807 155.661 29.4838 155.739 30.5017C157.377 30.4548 159.194 30.3797 160.823 30.3314ZM154.978 6.96193C155.336 7.0035 155.569 7.08665 155.779 7.04508C156.371 6.9284 156.939 7.03569 157.518 7.11884C159.021 7.3361 160.512 7.60702 162.045 7.63518C163.506 7.662 164.875 8.15957 166.14 8.88915C166.503 9.09837 166.825 9.40549 167.11 9.71798C167.945 10.6353 168.162 11.7874 168.23 12.9703C168.257 13.4397 168.266 13.8956 168.565 14.2993C168.991 13.496 169.302 12.0462 169.158 11.3716C169.103 11.1101 169.004 10.8325 168.844 10.6246C167.934 9.45512 167.07 8.22126 165.489 7.85915C165.339 7.82428 165.197 7.74918 165.059 7.6781C163.337 6.78624 161.495 6.33025 159.576 6.15053C158.994 6.09555 158.415 5.97484 157.834 5.97082C157.216 5.9668 156.595 6.04056 155.981 6.12907C155.585 6.18808 155.282 6.43888 154.978 6.96193Z" />
<path d="M98.8641 29.6474C99.6437 28.5155 100.366 28.1963 101.001 27.4224C101.983 26.2248 102.773 25.3262 102.437 25.8077C102.496 25.9324 102.988 26.0558 102.97 26.096C102.362 27.4573 100.703 29.3 99.4642 30.1758C99.3383 30.2643 99.2017 30.3649 99.057 30.3891C98.9324 30.4105 98.7904 30.3314 98.6189 30.2871C98.7328 30.0149 98.8185 29.8124 98.9029 29.6098C98.9016 29.6098 98.8641 29.6474 98.8641 29.6474Z" />
<path d="M68.5232 0.712192L68.573 0.638428L68.6 0.724262L68.5232 0.712192Z" />
<path d="M60.9155 0.679958L60.8401 0.628997L60.929 0.603516L60.9155 0.679958Z" />
<path d="M45.4446 0.402317L45.5187 0.380859L45.5092 0.441212L45.4446 0.402317Z" />
<path d="M13.7731 0.0858269C13.7477 0.0777806 13.7222 0.068395 13.6968 0.0603487C13.7316 0.040233 13.7678 0.0201157 13.8026 0C13.7932 0.028162 13.7839 0.0576649 13.7731 0.0858269Z" />
<path d="M60.8084 23.4379L60.7275 23.3963L60.8111 23.3601L60.8084 23.4379Z" />
<path d="M157.673 15.6418C157.665 15.7129 157.523 15.7907 157.428 15.8215C157.384 15.8363 157.282 15.7638 157.247 15.7048C157.187 15.6083 157.128 15.4929 157.124 15.3829C157.095 14.6037 156.823 12.9622 156.831 12.183C156.836 11.6599 157.087 11.4172 157.641 11.3944C158.689 11.3528 159.745 11.2455 160.76 11.6532C160.974 11.739 161.213 11.7699 161.442 11.8061C162.364 11.9496 162.858 12.5746 163.163 13.3766C163.394 13.9814 163.218 14.542 162.79 14.994C162.263 15.5506 161.605 15.8805 160.827 15.914C159.856 15.957 158.882 15.9194 157.923 16.1514C157.605 16.2292 157.302 16.1165 157.151 15.5667C157.46 15.4956 157.714 15.4031 157.971 15.3856C158.787 15.332 159.603 15.3025 160.42 15.273C161.015 15.2515 161.58 15.1375 162.082 14.7969C162.739 14.3516 162.818 13.8607 162.34 13.2183C162.27 13.1245 162.203 13.0158 162.106 12.9595C161.809 12.7851 161.514 12.5598 161.189 12.4901C160.642 12.3734 160.096 12.0247 159.453 12.3587C159.453 12.5826 159.432 12.8079 159.457 13.0292C159.507 13.4946 159.609 13.9546 159.633 14.42C159.641 14.5756 159.747 15.6404 159.619 15.7504C159.481 15.8671 159.233 15.6404 159.182 15.3387" />
<path d="M58.9818 12.4391C58.9818 12.4391 57.3568 12.6859 56.8785 13.1298C56.4003 13.5724 56.0948 13.5724 56.0948 13.5724L55.1168 14.7687C55.1168 14.7687 54.3653 15.5211 54.0103 16.5846C53.6566 17.6482 53.5682 18.7452 53.6566 19.1704C53.745 19.5968 54.0987 19.9509 54.4979 21.1029C54.8971 22.255 55.1168 22.5648 55.4719 22.6976C55.8255 22.8303 56.0881 23.3588 56.5985 23.3601C57.1089 23.3614 57.1532 23.5586 57.9061 23.4379C58.659 23.3172 59.8781 22.8934 59.5431 23.0959C59.2082 23.2984 58.7608 25.6079 55.9153 24.6463C52.5085 23.4942 51.6672 19.4413 52.199 17.2378C52.7295 15.0343 53.4061 13.2519 54.9427 12.8187C56.4793 12.3855 57.9958 11.4896 58.3053 11.5781C58.6147 11.6666 58.9818 12.4391 58.9818 12.4391Z" />
<path d="M85.0722 20.3855C85.0722 20.3855 84.8954 21.7227 85.0722 22.4308C85.249 23.1389 85.2115 25.9151 85.6255 26.4462C86.0394 26.9773 85.6255 28.8683 85.6255 28.8683C85.6255 28.8683 83.4686 30.7714 83.612 30.3771C84.0112 29.2814 83.3025 19.5782 83.3025 19.5782L83.7741 18.9009L85.0722 20.3855Z" />
</svg>
