<svg viewBox="0 0 58 58" xmlns="http://www.w3.org/2000/svg">
<path d="M51.6704 52.5582C42.7836 59.8139 15.0351 59.8139 6.32961 52.5582C-2.55719 45.3026 -1.65038 14.2846 6.32961 6.12197C14.3096 -2.04066 43.6904 -2.04066 51.6704 6.12197C59.6504 14.2846 60.5572 45.3027 51.6704 52.5582Z" class="border"/>
<path d="M50.231 51.0625C41.9084 57.8575 15.9217 57.8575 7.769 51.0625C-0.553554 44.2675 0.295672 15.2189 7.769 7.57458C15.2423 -0.0697818 42.7577 -0.0697818 50.231 7.57458C57.7043 15.2189 58.5536 44.2676 50.231 51.0625Z" class="bkg"/>
<path d="M41.7475 37.9957C39.0564 34.9598 36.2675 32.0007 33.4226 29.0904C36.2395 25.9289 39.0285 22.7395 41.6916 19.4453C42.5584 18.3706 41.0136 16.7724 40.056 17.7145C39.5527 18.2031 39.0564 18.7125 38.5602 19.2081C38.8607 18.7125 39.1613 18.224 39.4619 17.7215C39.9581 16.905 38.9795 15.6906 38.2666 16.4583C37.4348 17.3516 36.596 18.238 35.7642 19.1313C36.0857 18.5171 36.4073 17.896 36.7288 17.2749C37.1412 16.4653 36.0088 15.5999 35.4077 16.2001C32.9403 18.6637 30.4589 21.1273 27.9915 23.6188C25.5031 21.1482 23.0007 18.7056 20.5193 16.2629C19.9112 15.6627 18.7858 16.5421 19.2052 17.3447C19.5267 17.9658 19.8552 18.5799 20.1838 19.1941C19.345 18.3078 18.4992 17.4284 17.6604 16.5421C16.9405 15.7813 15.9689 17.0027 16.4721 17.8192C16.7797 18.3147 17.0802 18.8033 17.3878 19.2988C16.8845 18.8033 16.3883 18.3008 15.885 17.8122C14.9134 16.884 13.3826 18.4962 14.2633 19.557C16.9544 22.8302 19.7644 25.9917 22.6022 29.1253C19.7853 32.0635 17.0103 35.0435 14.3472 38.1073C13.5154 39.0635 14.9693 40.557 15.85 39.6986C16.4372 39.1333 17.0034 38.54 17.5835 37.9608C17.6534 38.1004 17.7373 38.219 17.8421 38.3167C16.9335 39.6148 18.4153 41.1851 19.5617 40.2569C19.7085 40.1382 19.8343 39.9917 19.9671 39.8591C19.3869 41.1013 21.1204 42.7275 22.1689 41.6457C23.7416 40.0266 25.2095 38.3586 26.6005 36.6627C27.0758 36.1323 27.5581 35.6019 28.0334 35.0784C28.5157 35.6019 28.998 36.1253 29.4803 36.6557C30.8853 38.3446 32.3671 39.9917 33.9468 41.6038C35.0023 42.6786 36.7218 41.0316 36.1347 39.7963C36.2675 39.9358 36.4003 40.0754 36.5331 40.208C37.7004 41.1153 39.1683 39.5311 38.2526 38.2399C38.3575 38.1422 38.4413 38.0166 38.5112 37.877C39.0914 38.4493 39.6715 39.0355 40.2587 39.5939C41.1394 40.4453 42.5863 38.9448 41.7475 37.9957Z" class="ico"/>
</svg>
