<!--
  - Copyright (c) TIKI Inc.
  - MIT license. See LICENSE file in root directory.
  -->

<svg width="34" height="29" viewBox="0 0 34 29" xmlns="http://www.w3.org/2000/svg">
  <path
    d="M30.3879 5.52385H26.1487V4.14289C26.1474 3.04459 25.7023 1.99127 24.9109 1.21454C24.1192 0.438057 23.0458 0.0012626 21.9265 0H12.0747C10.9554 0.001233 9.88188 0.438026 9.09027 1.21454C8.29893 1.99133 7.85377 3.04459 7.85248 4.14289V5.52385H3.61331C2.57224 5.52355 1.58135 5.96403 0.895263 6.73247C0.208838 7.50094 -0.105921 8.52283 0.031683 9.53544L0.547523 13.2813C0.620721 13.8278 0.787223 14.3581 1.04011 14.8503V25.4585C1.04106 26.3977 1.42212 27.2981 2.09912 27.9621C2.77612 28.6261 3.69407 28.9994 4.65126 29H29.3507C30.3076 28.9988 31.225 28.6255 31.9017 27.9615C32.5784 27.2975 32.9591 26.3975 32.96 25.4585V14.8503C33.2129 14.359 33.3794 13.8294 33.4526 13.2835L33.9685 9.53362C34.1057 8.52102 33.7907 7.49982 33.1049 6.73161C32.4188 5.96344 31.4282 5.52299 30.3875 5.5233L30.3879 5.52385ZM9.25997 4.14289C9.25997 3.41049 9.55653 2.70795 10.0843 2.18981C10.6124 1.67195 11.3284 1.38096 12.0748 1.38096H21.9266C22.673 1.38096 23.389 1.67195 23.917 2.18981C24.4448 2.70798 24.7414 3.41051 24.7414 4.14289V5.52385H23.334V4.14289C23.334 3.77669 23.1857 3.42528 22.9218 3.16635C22.6579 2.90743 22.2998 2.76193 21.9266 2.76193H12.0748C11.7016 2.76193 11.3434 2.90743 11.0795 3.16635C10.8156 3.42528 10.6674 3.77669 10.6674 4.14289V5.52385H9.25997V4.14289ZM21.9266 5.52385H12.0748V4.14289H21.9266V5.52385ZM1.95274 7.64367C2.37182 7.1739 2.97717 6.90449 3.61331 6.90479H30.3877C31.0226 6.90449 31.627 7.17297 32.0461 7.6412C32.4649 8.10974 32.6578 8.73272 32.5748 9.35044L32.0596 13.1025C31.9428 13.9628 31.5114 14.7525 30.8464 15.3246C30.1813 15.8971 29.3271 16.213 28.4424 16.2145H26.4208V14.7645C26.4208 14.5814 26.3467 14.4057 26.2148 14.2763C26.0828 14.1468 25.9037 14.074 25.7171 14.074H22.8115C22.4229 14.074 22.1078 14.3832 22.1078 14.7645V16.2145H11.8925V14.7645C11.8925 14.5814 11.8184 14.4057 11.6864 14.2763C11.5545 14.1468 11.3754 14.074 11.1888 14.074H8.28323C7.89463 14.074 7.57953 14.3832 7.57953 14.7645V16.2145H5.55923C4.67425 16.213 3.81976 15.8964 3.15474 15.3237C2.48937 14.751 2.05866 13.9606 1.94213 13.0996L1.42566 9.35163V9.35193C1.34178 8.73451 1.53373 8.11183 1.95218 7.64364L1.95274 7.64367ZM25.014 15.4578V18.3538L23.5158 18.3535V15.4578L25.014 15.4578ZM10.4864 15.4578V18.3538L8.98822 18.3535V15.4578L10.4864 15.4578ZM29.3504 27.619H4.65093C4.06692 27.6183 3.5074 27.3905 3.09459 26.9855C2.68179 26.5805 2.44964 26.0311 2.44901 25.4584V16.5358C3.33551 17.2207 4.43071 17.594 5.55944 17.5956H7.57975V19.0456C7.57975 19.2287 7.65389 19.4044 7.78583 19.5339C7.91777 19.6633 8.09684 19.7361 8.28345 19.7361H11.189C11.3757 19.7361 11.5544 19.6633 11.6867 19.5339C11.8186 19.4044 11.8927 19.2287 11.8927 19.0456V17.5956H22.1089V19.0456C22.1089 19.2287 22.183 19.4044 22.3149 19.5339C22.4469 19.6633 22.626 19.7361 22.8126 19.7361H25.7182C25.9048 19.7361 26.0838 19.6633 26.2158 19.5339C26.3477 19.4044 26.4219 19.2287 26.4219 19.0456V17.5956H28.4422C29.5706 17.594 30.666 17.2207 31.5526 16.5358V25.4584C31.552 26.0311 31.3198 26.5804 30.907 26.9855C30.4942 27.3905 29.9344 27.6183 29.3507 27.619H29.3504Z"/>
</svg>
