<!--
  - Copyright (c) TIKI Inc.
  - MIT license. See LICENSE file in root directory.
  -->

<svg viewBox="0 0 32 37" xmlns="http://www.w3.org/2000/svg">
  <path
    d="M17.4826 17.7147C17.4826 16.6003 18.3047 15.7051 19.346 15.7051C20.3691 15.7051 21.2095 16.6003 21.2095 17.7147C21.2095 18.8291 20.3874 19.7242 19.346 19.7242C18.323 19.7242 17.4826 18.8291 17.4826 17.7147Z"/>
  <path
    d="M10.8145 17.7147C10.8145 16.6003 11.6366 15.7051 12.6779 15.7051C13.7192 15.7051 14.5596 16.6003 14.5413 17.7147C14.5413 18.8291 13.7192 19.7242 12.6779 19.7242C11.6548 19.7242 10.8145 18.8291 10.8145 17.7147Z"/>
  <path fill-rule="evenodd" clip-rule="evenodd"
        d="M3.74513 0.505859H28.2255C30.2899 0.505859 31.9706 2.1866 31.9889 4.25099V36.7332L28.0428 33.3169L25.8323 31.289L23.4939 29.1333L24.4621 32.4765H3.74513C1.68074 32.4765 0 30.7957 0 28.7314V4.25099C0 2.1866 1.68074 0.505859 3.74513 0.505859ZM19.9679 22.7026C20.516 23.3786 21.1737 24.1641 21.1737 24.1641C24.9988 24.043 26.5774 21.6753 26.7328 21.4421C26.7415 21.4292 26.7457 21.4238 26.7457 21.4238C26.7457 15.596 24.115 10.8643 24.115 10.8643C21.5025 8.90957 18.9997 8.96438 18.9997 8.96438L18.7439 9.25668C21.8496 10.1884 23.2929 11.5586 23.2929 11.5586C21.3929 10.5355 19.5295 10.024 17.7939 9.82301C16.4786 9.67686 15.218 9.7134 14.1036 9.85955C14.0079 9.85955 13.9262 9.87347 13.834 9.88916C13.8206 9.89145 13.807 9.89377 13.793 9.89609C13.1536 9.96917 11.6008 10.1884 9.646 11.047C8.97005 11.3393 8.56813 11.5586 8.56813 11.5586C8.56813 11.5586 10.0662 10.1153 13.3546 9.1836L13.1719 8.96438C13.1719 8.96438 10.6873 8.90957 8.0566 10.8643C8.0566 10.8643 5.42587 15.596 5.42587 21.4238C5.42587 21.4238 6.96046 24.0545 10.9979 24.1824C10.9979 24.1824 11.6738 23.3786 12.2219 22.6843C9.90176 21.9901 9.02485 20.5469 9.02485 20.5469C9.02485 20.5469 9.20754 20.6748 9.53638 20.8575C9.54767 20.8575 9.55897 20.8644 9.57457 20.8741C9.58421 20.88 9.5955 20.887 9.60946 20.894C9.63686 20.9123 9.66427 20.926 9.69167 20.9397C9.71908 20.9534 9.74648 20.9671 9.77388 20.9853C10.2306 21.2411 10.6873 21.4421 11.1075 21.6065C11.8565 21.917 12.7517 22.1911 13.793 22.392C15.1632 22.6478 16.7709 22.7391 18.5247 22.4103C19.3833 22.2459 20.2602 22.0084 21.1737 21.6247C21.8131 21.3872 22.5256 21.0401 23.2746 20.5469C23.2746 20.5469 22.3612 22.0267 19.9679 22.7026Z"/>
</svg>
