<!--
  - Copyright (c) TIKI Inc.
  - MIT license. See LICENSE file in root directory.
  -->

<svg viewBox="0 0 38 37" xmlns="http://www.w3.org/2000/svg">
  <path
    d="M12.3953 29.493C12.3953 29.6419 12.2234 29.761 12.0068 29.761C11.7602 29.7833 11.5884 29.6642 11.5884 29.493C11.5884 29.3441 11.7602 29.225 11.9769 29.225C12.201 29.2027 12.3953 29.3218 12.3953 29.493ZM10.0716 29.158C10.0193 29.3069 10.1688 29.4781 10.3929 29.5228C10.5872 29.5972 10.8113 29.5228 10.8561 29.3739C10.901 29.225 10.759 29.0538 10.5349 28.9868C10.3406 28.9347 10.1239 29.0091 10.0716 29.158ZM13.3741 29.0315C13.1574 29.0836 13.0079 29.225 13.0304 29.3962C13.0528 29.5451 13.247 29.6419 13.4712 29.5898C13.6879 29.5377 13.8373 29.3962 13.8149 29.2474C13.7925 29.1059 13.5907 29.0091 13.3741 29.0315ZM18.2903 0.505859C7.9273 0.505859 0 8.34445 0 18.6694C0 26.9248 5.21513 33.9892 12.6643 36.4755C13.6206 36.6467 13.9568 36.0587 13.9568 35.5748C13.9568 35.1133 13.9344 32.5674 13.9344 31.0041C13.9344 31.0041 8.70434 32.1208 7.60602 28.7858C7.60602 28.7858 6.75427 26.6196 5.52894 26.0613C5.52894 26.0613 3.81796 24.8926 5.64848 24.9149C5.64848 24.9149 7.50889 25.0638 8.53249 26.8355C10.1688 29.7089 12.9108 28.8826 13.9792 28.3913C14.1511 27.2002 14.6367 26.3739 15.1747 25.8826C10.9981 25.4211 6.78416 24.8181 6.78416 17.657C6.78416 15.6098 7.35199 14.5826 8.54744 13.2724C8.35318 12.7885 7.7181 10.7935 8.7417 8.2179C10.3032 7.73404 13.8971 10.2278 13.8971 10.2278C15.3914 9.81093 16.9977 9.59505 18.5892 9.59505C20.1806 9.59505 21.787 9.81093 23.2813 10.2278C23.2813 10.2278 26.8751 7.72659 28.4367 8.2179C29.4603 10.801 28.8252 12.7885 28.6309 13.2724C29.8264 14.59 30.5586 15.6173 30.5586 17.657C30.5586 24.8405 26.1579 25.4137 21.9813 25.8826C22.6686 26.4707 23.2514 27.5873 23.2514 29.3367C23.2514 31.8453 23.229 34.9495 23.229 35.5599C23.229 36.0438 23.5727 36.6319 24.5216 36.4606C31.9931 33.9892 37.0588 26.9248 37.0588 18.6694C37.0588 8.34445 28.6533 0.505859 18.2903 0.505859ZM7.26233 26.1804C7.1652 26.2548 7.18762 26.4261 7.31463 26.5675C7.43418 26.6866 7.60602 26.7387 7.70315 26.6419C7.80028 26.5675 7.77787 26.3963 7.65085 26.2548C7.53131 26.1357 7.35946 26.0836 7.26233 26.1804ZM6.45541 25.5774C6.40311 25.6742 6.47782 25.7933 6.62725 25.8678C6.7468 25.9422 6.89623 25.9199 6.94853 25.8156C7.00083 25.7189 6.92611 25.5998 6.77668 25.5253C6.62725 25.4807 6.50771 25.503 6.45541 25.5774ZM8.87619 28.2275C8.75664 28.3243 8.80147 28.5476 8.97332 28.689C9.14516 28.8603 9.36184 28.8826 9.45897 28.7635C9.5561 28.6667 9.51127 28.4434 9.36184 28.302C9.19746 28.1307 8.97332 28.1084 8.87619 28.2275ZM8.02443 27.1332C7.90489 27.2077 7.90489 27.4012 8.02443 27.5724C8.14398 27.7437 8.34571 27.8181 8.44284 27.7437C8.56238 27.6469 8.56238 27.4533 8.44284 27.2821C8.33823 27.1109 8.14398 27.0365 8.02443 27.1332Z"/>
</svg>
