<!--
  - Copyright (c) TIKI Inc.
  - MIT license. See LICENSE file in root directory.
  -->

<svg
  viewBox="0 0 80 80"
  fill="none"
  xmlns="http://www.w3.org/2000/svg"
  class="group"
>
  <path
    fill-rule="evenodd"
    clip-rule="evenodd"
    d="M25.4231 27.2077C25.9111 27.1195 26.4085 27.0585 26.9139 27.0265C25.8 25.289 24.0248 22.8664 21.5092 20.3894C21.3896 20.27 21.4067 20.1506 21.4409 20.0824C21.4579 20.0312 21.5263 19.8947 21.6972 19.8947C22.4956 19.8283 23.4539 19.8104 24.5074 19.9155C25.0637 19.971 25.6465 20.0608 26.2463 20.1958C28.0476 20.6015 30.0021 21.4154 31.8514 22.9349C32.0522 23.0999 32.2518 23.2732 32.4498 23.4552C32.6575 23.6461 32.8635 23.8467 33.0674 24.0572C33.7489 24.7609 34.4067 25.5764 35.0267 26.5202C35.0661 26.5801 35.1052 26.6404 35.1442 26.7013C34.7488 26.7655 34.2504 26.861 33.6664 27H39.848H46.0297C45.4137 26.852 44.8879 26.7514 44.4717 26.6847C44.509 26.6267 44.5463 26.5691 44.5838 26.5119C45.2051 25.5657 45.8653 24.7481 46.55 24.0428C46.7442 23.8427 46.9404 23.6517 47.1383 23.4692C47.3563 23.2682 47.5763 23.0777 47.7978 22.8973C49.6304 21.4041 51.5673 20.5966 53.3541 20.19C53.9646 20.051 54.5576 19.9589 55.123 19.9022C55.6551 19.8489 56.1627 19.8269 56.6373 19.8269C57.0987 19.8269 57.5258 19.844 57.9188 19.8781C58.0897 19.8952 58.158 20.0146 58.1751 20.0658L58.1765 20.0713C58.1939 20.1403 58.2232 20.2566 58.1068 20.3728C55.5801 22.8494 53.809 25.2716 52.699 27.009C53.2048 27.0278 53.7032 27.0754 54.1926 27.1503C55.2791 25.535 56.8784 23.4432 59.0295 21.3281C59.4908 20.8846 59.6275 20.2193 59.4224 19.6222C59.2003 19.0252 58.6706 18.6157 58.0214 18.5646C57.4652 18.5187 56.8375 18.4946 56.1568 18.5131C57.3855 17.0228 58.9511 15.6405 60.9436 14.5895C61.5075 14.2995 61.8492 13.7195 61.8492 13.0883C61.8492 12.4571 61.5075 11.8942 60.9436 11.6042C58.8591 10.5294 55.3392 9.67649 50.3671 11.7236C48.933 12.3153 47.6055 13.2417 46.4073 14.4733C45.4474 10.51 43.9308 6.30682 41.535 2.88707C41.1421 2.32412 40.5099 2 39.8264 2C39.1429 2 38.5107 2.32412 38.1177 2.88707C35.7157 6.31573 34.1975 10.5319 33.238 14.5042C32.0278 13.2489 30.6846 12.3063 29.2321 11.707C24.26 9.65988 20.7401 10.5128 18.6556 11.5876C18.0917 11.8776 17.75 12.4405 17.75 13.0717C17.75 13.7029 18.0917 14.2829 18.6556 14.5729C20.6677 15.632 22.2453 17.0276 23.4804 18.5311C22.779 18.51 22.1324 18.5342 21.5605 18.5812C20.9283 18.6323 20.3815 19.0418 20.1765 19.6388C19.9543 20.2359 20.1081 20.8841 20.5694 21.3447C22.7357 23.4829 24.3384 25.5896 25.4231 27.2077ZM39.1771 3.63768C39.1129 3.72938 39.0494 3.82173 38.9866 3.91471C34.7489 12.5069 36.6587 18.9492 39.2551 20.1228L39.2956 19.5367C39.3298 19.0591 39.364 18.5644 39.3981 18.0697C39.4836 17.0802 39.569 16.1079 39.6715 15.1184C39.6886 15.0502 39.7399 14.999 39.7911 14.999C39.8595 14.999 39.9278 15.0502 39.9278 15.1184L39.9422 15.2574C40.0399 16.199 40.1361 17.1266 40.2012 18.0697C40.2353 18.5467 40.2695 19.0407 40.3036 19.5347L40.3037 19.5367C40.3224 19.7983 40.3412 20.065 40.3599 20.334C41.3829 20.3266 42.3371 19.8425 43.1312 19.2388C43.7817 17.9246 44.5111 16.7518 45.3107 15.7316C44.3971 11.6129 42.898 7.14912 40.4415 3.63768C40.2877 3.43297 40.0656 3.31355 39.8093 3.31355C39.553 3.31355 39.3138 3.43297 39.1771 3.63768ZM43.101 26.3754C42.7766 26.3503 42.4421 26.3277 42.1002 26.3084C42.5457 24.3056 43.5888 20.6013 45.6715 17.4932C45.8353 17.2488 46.0055 17.008 46.1824 16.7721C46.3684 16.524 46.5617 16.2812 46.7627 16.045C47.884 14.727 49.2418 13.615 50.8797 12.9348C52.93 12.1159 54.6729 11.8089 56.1594 11.8089C57.9535 11.8089 59.3546 12.2695 60.3456 12.7812C60.5165 12.8665 60.5335 13.0201 60.5335 13.0883C60.5335 13.1565 60.5165 13.3271 60.3285 13.4124C58.3394 14.4611 56.588 15.8984 55.1182 17.6722C54.854 17.9911 54.5989 18.3208 54.3532 18.661C52.2674 18.9494 49.8963 19.6965 47.6302 21.3443C47.2118 21.6485 46.797 21.9835 46.3882 22.3519C45.2247 23.4004 44.1101 24.7202 43.101 26.3754ZM33.9369 17.5473C36.0018 20.6307 37.0389 24.3001 37.4888 26.3129C37.1428 26.3334 36.8045 26.3573 36.4768 26.3836C35.4793 24.7435 34.3774 23.433 33.2263 22.3896C32.828 22.0286 32.4238 21.6995 32.016 21.3999C29.7421 19.7291 27.3563 18.9721 25.2547 18.6799C25.004 18.3325 24.7434 17.9962 24.4735 17.6713C23.0087 15.9085 21.2658 14.4806 19.2878 13.447C19.0998 13.3447 19.0828 13.1911 19.0828 13.1229C19.0828 13.0376 19.0998 12.9011 19.2707 12.8158C21.099 11.8605 24.2258 11.127 28.7196 12.9864C30.3758 13.6724 31.7449 14.7975 32.8722 16.1301C33.0547 16.3457 33.2308 16.5669 33.4008 16.7924C33.5868 17.0392 33.7654 17.2912 33.9369 17.5473Z"
    class="fill-[#707DA6] group-hover:fill-[#A4A4A4]"
  />
  <path
    d="M52.699 27.009C53.2048 27.0278 53.7032 27.0754 54.1926 27.1503C55.2791 25.535 56.8784 23.4432 59.0295 21.3281C59.4908 20.8846 59.6275 20.2193 59.4224 19.6222C59.2003 19.0252 58.6706 18.6157 58.0214 18.5646C57.4652 18.5187 56.8375 18.4946 56.1568 18.5131L54.3532 18.661C52.2674 18.9494 49.8963 19.6965 47.6302 21.3443C47.2118 21.6485 46.797 21.9835 46.3882 22.3519C45.2247 23.4004 44.1101 24.7202 43.101 26.3754L44.4717 26.6847C44.509 26.6267 44.5463 26.5691 44.5838 26.5119C45.2051 25.5657 45.8653 24.7481 46.55 24.0428C46.7442 23.8427 46.9404 23.6516 47.1383 23.4692C47.3563 23.2682 47.5763 23.0777 47.7978 22.8973C49.6304 21.4041 51.5673 20.5966 53.3541 20.19C53.9646 20.051 54.5576 19.9589 55.123 19.9022C55.6551 19.8489 56.1627 19.8269 56.6373 19.8269C57.0987 19.8269 57.5258 19.844 57.9188 19.8781C58.0897 19.8952 58.158 20.0146 58.1751 20.0658L58.1765 20.0713C58.1939 20.1403 58.2232 20.2566 58.1068 20.3728C55.5801 22.8494 53.809 25.2716 52.699 27.009Z"
    class="fill-[#666666] group-hover:fill-[#A4A4A4]"
  />
  <path
    d="M26.9139 27.0265C26.4085 27.0585 25.9111 27.1195 25.4231 27.2077C24.3384 25.5896 22.7357 23.4829 20.5694 21.3447C20.1081 20.8841 19.9543 20.2359 20.1765 19.6388C20.3815 19.0418 20.9283 18.6323 21.5605 18.5812C22.1324 18.5342 22.779 18.51 23.4804 18.5311L25.2547 18.6799C27.3563 18.9721 29.7421 19.7291 32.016 21.3999C32.4238 21.6995 32.828 22.0286 33.2263 22.3896C34.3774 23.433 35.4793 24.7435 36.4768 26.3836L35.1442 26.7013C35.1052 26.6404 35.0661 26.5801 35.0267 26.5202C34.4067 25.5764 33.7489 24.7609 33.0674 24.0572C32.8635 23.8467 32.6575 23.6461 32.4498 23.4552C32.2518 23.2732 32.0522 23.0998 31.8514 22.9349C30.0021 21.4154 28.0476 20.6015 26.2463 20.1958C25.6465 20.0607 25.0637 19.9709 24.5074 19.9155C23.4539 19.8104 22.4956 19.8283 21.6971 19.8947C21.5263 19.8947 21.4579 20.0312 21.4409 20.0824C21.4067 20.1506 21.3896 20.27 21.5092 20.3894C24.0248 22.8664 25.8 25.2889 26.9139 27.0265Z"
    class="fill-[#666666] group-hover:fill-[#A4A4A4]"
  />
  <path
    d="M39.04 23.9554C39.0741 22.966 39.1254 21.9936 39.1937 21.0042C39.2144 20.7155 39.2351 20.4205 39.2557 20.1232C36.6593 18.9496 34.7496 12.5072 38.9872 3.91504C36.6421 7.3842 35.1968 11.7254 34.3071 15.7383C35.4353 17.1828 36.4229 18.9314 37.2464 20.9534C38.1088 23.0697 38.6048 25.0221 38.8649 26.254C38.928 26.2524 38.9913 26.2509 39.0548 26.2495C38.9809 25.4844 39.0001 24.7251 39.04 23.9554Z"
    class="fill-[#F1F1F1] group-hover:fill-[#282828]"
  />
  <path
    d="M40.7426 26.2531C41.0066 25.0218 41.5044 23.0806 42.3541 20.97C42.599 20.3686 42.8585 19.7913 43.1318 19.2391C42.3378 19.8428 41.3836 20.3269 40.3605 20.3344L40.4065 20.9992L40.4069 21.0042C40.4325 21.4989 40.4581 21.9893 40.4838 22.4798C40.5094 22.9702 40.535 23.4607 40.5607 23.9554C40.6005 24.7248 40.6197 25.4839 40.5459 26.2488C40.6116 26.25 40.6772 26.2515 40.7426 26.2531Z"
    class="fill-[#F1F1F1] group-hover:fill-[#282828]"
  />
  <path
    fill-rule="evenodd"
    clip-rule="evenodd"
    d="M23.9023 17.016C24.0974 17.229 24.288 17.4476 24.4741 17.6716C24.7441 17.9966 25.0046 18.3329 25.2554 18.6802C27.3569 18.9724 29.7428 19.7294 32.0166 21.4002C32.4244 21.6999 32.8286 22.0289 33.2269 22.39C34.378 23.4333 35.4799 24.7438 36.4775 26.3839C36.8052 26.3576 37.1435 26.3337 37.4894 26.3133C37.3292 25.5963 37.0944 24.6692 36.7653 23.6332C36.619 23.6499 36.4726 23.668 36.3263 23.6875C32.3793 19.0986 27.6976 17.478 23.9386 17.0174C23.9265 17.0174 23.9144 17.0168 23.9023 17.016Z"
    class="fill-[#F1F1F1] group-hover:fill-[#282828]"
  />
  <path
    d="M46.3888 22.3522C46.7976 21.9838 47.2124 21.6489 47.6308 21.3446C49.897 19.6968 52.268 18.9497 54.3538 18.6614C54.5996 18.3211 54.8547 17.9914 55.1189 17.6725C55.2192 17.5514 55.3209 17.4319 55.4239 17.3139C55.5147 17.2084 55.6072 17.1038 55.7013 17.0003C55.6776 17.0003 55.6501 17.004 55.6206 17.0079C55.5866 17.0125 55.55 17.0174 55.5134 17.0174C51.7544 17.478 47.0727 19.0986 43.1257 23.6875C43.0227 23.6738 42.9198 23.6608 42.8168 23.6485C42.4905 24.6802 42.2583 25.6007 42.1009 26.3087C42.4428 26.328 42.7773 26.3507 43.1016 26.3757C44.1108 24.7206 45.2254 23.4008 46.3888 22.3522Z"
    class="fill-[#F1F1F1] group-hover:fill-[#282828]"
  />
  <path
    fill-rule="evenodd"
    clip-rule="evenodd"
    d="M64.1664 67.638C60.9561 69.8761 57.449 72.0603 53.6113 74.2017C49.1661 71.1894 45.1804 68.3074 41.5984 65.5778C45.7327 63.4187 49.9278 61.0671 53.9153 58.5843C58.8221 62.2875 62.7345 65.0214 64.424 66.1914C64.5867 66.3007 64.7661 66.366 64.9453 66.3874C65.1414 66.4086 65.3428 66.3804 65.5216 66.3028L65.7382 64.4001L65.7214 64.3837C63.8691 63.1098 60.3216 60.6219 55.9257 57.3181C59.5244 54.9971 62.9115 52.5682 65.8871 50.0837V46.6709C63.0716 44.6888 59.7711 42.0873 56.3597 39.1222C59.324 36.9675 61.8296 34.908 63.8878 32.949C63.4655 32.3294 63.0098 31.732 62.5261 31.1566C60.3231 33.281 57.6332 35.4512 54.6409 37.6005C52.1355 35.3616 49.6128 32.9523 47.2017 30.4767C48.7979 29.3341 50.3455 28.1598 51.8164 26.9614H48.203C47.3682 27.5971 46.5122 28.2251 45.6392 28.8445C45.0508 28.219 44.4722 27.5907 43.9057 26.9614H40.9172C41.8381 28.0207 42.7978 29.0802 43.7856 30.1321C40.0056 32.6966 36.0009 35.086 32.1576 37.2055C29.8031 34.8726 27.7289 32.654 25.9463 30.5499C27.9572 29.3765 29.6216 28.2788 31.5334 26.9614H27.5383C26.5781 27.5815 25.6019 28.1817 24.5177 28.8072C24.1328 28.3223 23.7615 27.8411 23.4074 27.3671C22.646 27.5653 21.9134 27.8327 21.2169 28.1621C21.6394 28.741 22.0831 29.323 22.5402 29.9084C20.8028 30.8492 18.7523 31.8902 16.1317 33.1587C15.5421 34.1503 15.0311 35.1911 14.5986 36.2755C14.7329 36.264 14.8616 36.2306 14.9901 36.1696C18.9016 34.3082 21.7008 32.9017 23.9744 31.662C25.8246 33.8649 27.8989 36.0999 30.1186 38.3124C25.6158 40.7201 21.4473 42.7144 18.2507 44.1334C17.0473 42.7142 16.0572 41.4646 15.2638 40.3956C15.0087 40.0516 14.5883 39.8952 14.1867 39.954V42.679C14.7507 43.4087 15.3901 44.2063 16.1102 45.0647C15.3797 45.3713 14.7342 45.6335 14.1867 45.8461V48.2153C15.0251 47.9125 16.2016 47.4473 17.6397 46.8345C19.6582 49.1192 22.1874 51.7703 25.3225 54.7324C20.6905 57.0622 16.7415 58.9257 14.1867 60.1045V62.5442C16.7879 61.3589 21.4787 59.1693 27.0473 56.3531C30.0135 59.0685 33.4677 62.0295 37.488 65.1972C32.6774 67.6226 28.0449 69.7615 24.021 71.5188C20.6353 68.7669 17.2974 65.8564 14.1867 62.8123V65.9039C16.6125 68.192 19.1483 70.4024 21.7185 72.5168C20.0309 73.2354 18.483 73.8729 17.116 74.4206C17.6464 75.0366 18.2381 75.6002 18.8816 76.1023C20.3211 75.5172 21.929 74.8463 23.667 74.0981C25.6838 75.7107 27.7087 77.2614 29.7047 78.7417H33.4843C31.0221 76.9633 28.4917 75.0699 25.9695 73.0782C30.038 71.2822 34.6537 69.1269 39.4139 66.7017C42.9848 69.4589 46.9762 72.3629 51.4215 75.4026C49.3272 76.526 47.1402 77.6383 44.8575 78.7417H49.8633C51.1068 78.1022 52.32 77.4594 53.5038 76.8131C54.3291 77.3661 55.17 77.9234 56.026 78.4848C56.9739 78.2906 57.8821 77.9902 58.7371 77.5969C57.6987 76.9234 56.6826 76.2564 55.6879 75.5957C59.0842 73.6703 62.2227 71.7073 65.1204 69.7013C65.1327 69.6188 65.1453 69.5364 65.1579 69.4539C65.1958 69.2064 65.2337 68.9588 65.2621 68.7113L65.3866 67.595C65.0107 67.371 64.5405 67.3783 64.1664 67.638ZM29.1704 55.2679C32.159 57.9777 35.6354 60.9221 39.6725 64.0788C43.8069 61.9417 48.0189 59.612 52.0288 57.1401C48.7331 54.6183 45.0944 51.7295 41.427 48.6319C38.6398 50.2308 35.6623 51.8688 32.4946 53.5406C31.3661 54.1329 30.2543 54.7087 29.1704 55.2679ZM64.4508 48.3763C61.5038 46.293 58.0505 43.5519 54.495 40.4429C51.2847 42.6754 47.6102 45.0142 43.4769 47.437C43.6661 47.5946 43.8537 47.7522 44.0423 47.9107C44.2007 48.0439 44.36 48.1777 44.5215 48.3126C47.8518 51.0762 51.0972 53.6312 54.0448 55.8794C57.8199 53.4744 61.365 50.9547 64.4508 48.3763ZM52.7705 38.9046C50.2651 36.6493 47.748 34.24 45.3481 31.7643C41.6017 34.3342 37.653 36.7179 33.8377 38.8318C36.1975 41.0932 38.8097 43.4472 41.6685 45.8991C45.5057 43.6587 49.2977 41.2976 52.7705 38.9046ZM31.7819 39.9607C27.2849 42.3904 23.0829 44.4123 19.7745 45.8922C21.7985 48.1494 24.3164 50.751 27.4176 53.6528C31.2392 51.6983 35.4236 49.4731 39.6129 47.083C36.945 44.7843 34.2936 42.392 31.7819 39.9607Z"
    class="fill-[#F5F2EB] group-hover:fill-[#2F2F2F]"
  />
  <path
    d="M27.75 26.5C20.2942 26.5 14.25 32.5442 14.25 40V65.5332C14.25 72.9891 20.2942 79.0332 27.75 79.0332H52.2096C59.6654 79.0332 65.7096 72.9891 65.7096 65.5332V40C65.7096 32.5442 59.6654 26.5 52.2096 26.5H27.75Z"
    class="stroke-[#666666] group-hover:stroke-[#A4A4A4]"
  />
  <path
    d="M41.4291 58.0107L41.4292 58.0108L52.1263 69.1074L52.2165 69.0209L52.1265 69.1076L52.1263 69.1075C52.223 69.2082 52.3417 69.2853 52.4729 69.3325L52.4747 69.3354L52.5198 69.3487C52.9146 69.4653 53.3381 69.3017 53.5521 68.9503L53.5522 68.9502C53.7659 68.5984 53.7162 68.147 53.4314 67.8502L53.431 67.8499L43.3296 57.4063C45.6379 54.7608 46.5196 51.1566 45.6883 47.7407L45.6883 47.7407C44.8473 44.2873 42.3632 41.4675 39.0434 40.1984L39.0434 40.1984C35.723 38.9294 31.9914 39.3729 29.0616 41.3855C26.1317 43.398 24.3783 46.7217 24.3711 50.2759C24.3639 53.8298 26.1041 57.1606 29.0257 59.1846C31.9468 61.2083 35.6756 61.6673 39 60.4128C39.2341 60.3355 39.4267 60.1661 39.5332 59.9437C39.6402 59.7204 39.6513 59.4632 39.5642 59.2315L39.5642 59.2314C39.4768 58.9995 39.2986 58.8138 39.0709 58.7167C38.8439 58.6198 38.5873 58.6196 38.3603 58.7162C36.5161 59.4206 34.4904 59.4922 32.6012 58.9195L32.6005 58.9193C30.0557 58.1643 27.974 56.3255 26.9109 53.8935L26.7963 53.9435L26.9109 53.8934C25.8477 51.4614 25.9115 48.6842 27.0853 46.3039L27.0853 46.3039C28.259 43.9234 30.4234 42.182 32.9998 41.5449C35.5762 40.9077 38.3024 41.4394 40.4503 42.9985L40.4504 42.9985C42.5984 44.5574 43.9493 46.9845 44.1423 49.6316C44.3353 52.2786 43.3506 54.8761 41.4514 56.73C41.0924 57.078 41.0825 57.6505 41.4291 58.0107ZM38.9988 40.3152L38.9988 40.3152L38.9988 40.3152Z"
    class="stoke-width fill-black stroke-[0.25] group-hover:fill-white group-hover:stroke-white"
  />
</svg>
