<svg width="1440" height="480" viewBox="0 0 1440 480" fill="none" xmlns="http://www.w3.org/2000/svg">
<g clip-path="url(#clip0_184_1285)">
<path d="M342.489 308.639C273.112 308.194 234.101 341.904 180.58 307.71C77.452 241.823 90.4096 136.112 124.834 82.5798C156.85 32.793 249.852 -8.69396 356.967 25.1288C446.06 53.2609 559.817 78.1548 612.342 255.497C664.868 432.838 552.714 413.748 497.977 384.992C443.241 356.235 411.865 309.084 342.489 308.639Z" fill="#FFE68F" fill-opacity="0.3"/>
<path d="M1330.98 343.752C1283.92 464.238 1188.09 502.615 1134.64 466.941C979.673 363.523 920.563 413.532 849.656 351.745C778.75 289.957 860.122 133.756 959.074 95.5503C1035.56 66.0184 1157.67 15.2374 1205.6 102.112C1265.51 210.704 1389.82 193.144 1330.98 343.752Z" fill="#FFE68F" fill-opacity="0.3"/>
</g>
<defs>
<clipPath id="clip0_184_1285">
<rect width="1440" height="480" fill="white"/>
</clipPath>
</defs>
</svg>
