<svg width="360" height="570" viewBox="0 0 360 570" fill="none" xmlns="http://www.w3.org/2000/svg">
<g clip-path="url(#clip0_201_1970)">
<path d="M117.893 178.318C82.4091 178.091 62.456 195.332 35.0815 177.843C-17.6651 144.144 -11.0377 90.0756 6.56917 62.6958C22.9444 37.2314 70.5119 16.0121 125.298 33.3114C170.867 47.7001 229.049 60.4326 255.915 151.137C282.78 241.842 225.417 232.078 197.421 217.37C169.424 202.662 153.377 178.546 117.893 178.318Z" fill="#FFE68F" fill-opacity="0.3"/>
<path d="M398.29 435.613C371.528 504.121 317.041 525.942 286.647 505.658C198.536 446.855 164.926 475.29 124.608 440.158C84.2908 405.025 130.559 316.209 186.823 294.485C230.313 277.694 299.742 248.82 326.995 298.216C361.061 359.962 431.743 349.977 398.29 435.613Z" fill="#FFE68F" fill-opacity="0.3"/>
</g>
<defs>
<clipPath id="clip0_201_1970">
<rect width="360" height="570" fill="white"/>
</clipPath>
</defs>
</svg>
