<svg viewBox="0 0 198 46" xmlns="http://www.w3.org/2000/svg">
<path d="M184.55 30.8145C185.239 30.7761 185.744 30.7544 186.247 30.7181C188.448 30.5583 190.649 30.3924 192.848 30.2316C193.02 30.2192 193.194 30.2337 193.366 30.2243C193.79 30.2015 194.292 30.1787 194.423 30.6444C194.504 30.9328 194.265 31.3103 193.974 31.6775C194.515 32.6691 195.053 33.6627 195.6 34.6512C195.749 34.9219 195.954 35.1636 196.085 35.4416C196.368 36.039 196.645 36.6189 197.388 36.7734C197.483 36.7931 197.545 36.9767 197.699 37.1914C197.224 37.6032 196.816 38.0865 196.301 38.3811C194.694 39.298 193.155 40.3684 191.337 40.8559C190.92 40.968 190.513 41.0001 190.037 40.8684C189.22 40.6412 188.346 40.5448 187.495 40.5334C184.701 40.4971 181.906 40.4805 179.114 40.5396C177.015 40.5842 174.919 40.7781 172.82 40.8622C171.828 40.9016 170.83 40.8653 169.84 40.7958C169.656 40.7833 169.367 40.4649 169.348 40.2668C169.286 39.6237 169.318 38.9703 169.331 38.322C169.344 37.6353 169.419 36.9466 169.393 36.261C169.304 33.8816 169.249 31.498 169.051 29.1269C168.894 27.2382 168.514 25.3691 168.299 23.4834C168.158 22.2553 168.145 21.0127 168.054 19.7774C167.962 18.5389 167.849 17.3015 167.735 16.0651C167.614 14.7613 167.561 13.4451 167.335 12.16C167.061 10.6031 166.683 9.0597 166.257 7.53601C166.068 6.86181 166.058 6.10775 165.499 5.53934C165.232 5.26759 165.542 4.9865 165.733 4.73549C166.583 3.61529 167.773 2.85708 168.751 1.87482C169.211 1.41222 169.658 0.930942 170.067 0.421663C170.406 -0.000488863 170.834 -0.110433 171.258 0.112571C172.275 0.646744 173.395 0.624962 174.472 0.708977C177.255 0.925758 180.047 1.03259 182.836 1.17469C183.834 1.22552 184.835 1.23381 185.834 1.29086C187.003 1.35828 188.17 1.48274 189.34 1.52838C189.704 1.5429 190.075 1.37902 190.556 1.27115C190.985 1.91423 191.832 1.79806 192.589 1.92149C192.892 1.97024 193.214 1.89245 193.518 1.93705C193.77 1.97336 194.197 2.07397 194.217 2.20051C194.267 2.50442 194.146 2.8467 194.047 3.15891C194.013 3.26782 193.854 3.35909 193.732 3.41406C193.155 3.67441 193.106 4.12664 193.145 4.69815C193.341 7.52045 194.06 10.1851 195.447 12.6599C195.514 12.7782 195.569 12.9026 195.634 13.0364C195.378 13.5229 195.137 13.916 194.451 13.7812C194.167 13.7251 193.79 13.917 193.512 14.0882C192.359 14.8008 191.387 15.726 190.518 16.7622C190.362 16.9478 190.204 17.1304 190.04 17.3077C189.319 18.0877 189.175 18.0732 188.721 17.1304C188.508 16.6875 188.163 16.563 187.711 16.6024C186.647 16.6947 185.581 16.7767 184.517 16.8731C182.697 17.0381 180.893 17.2963 179.153 17.8803C178.441 18.1188 177.735 18.3709 176.917 18.6551C176.977 19.6737 177.036 20.6632 177.093 21.6527C177.113 21.9887 177.282 22.1786 177.62 22.135C179.181 21.9307 180.713 22.1423 182.249 22.3933C182.822 22.4866 183.42 22.4275 184.006 22.4534C184.707 22.4846 184.727 22.5831 184.957 23.2718C185.358 24.4771 185.819 25.6636 186.305 26.8378C186.429 27.1375 186.739 27.3595 186.97 27.624C187.004 28.041 186.819 28.2909 186.455 28.5337C185.947 28.8728 185.487 29.3002 185.069 29.7493C184.853 29.9754 184.775 30.3322 184.55 30.8145ZM175.368 17.5577C176.448 17.2745 177.498 17.1449 178.412 16.7196C179.354 16.2809 180.317 16.1512 181.303 16.0185C182.942 15.7975 184.585 15.6098 186.224 15.3826C186.69 15.3183 187.143 15.169 187.651 15.0476C187.575 14.5788 187.555 14.1971 187.449 13.8413C186.904 12.0148 186.565 10.155 186.426 8.25481C186.333 6.97799 186.264 6.92508 185.044 6.83796C183.323 6.71453 181.603 6.58798 179.884 6.45729C178.27 6.3349 176.658 6.16999 175.043 6.09012C173.429 6.01025 171.811 6.00714 170.194 5.98432C169.201 5.9698 168.209 5.9812 167.086 5.9812C167.216 6.41788 167.294 6.70622 167.386 6.98939C167.588 7.60758 167.832 8.21435 167.995 8.84188C168.158 9.47044 168.211 10.1291 168.374 10.7576C168.505 11.2597 168.731 11.7378 168.95 12.3197C168.87 12.3902 168.677 12.5583 168.621 12.607C168.861 15.2644 169.077 17.7662 169.316 20.2659C169.495 22.1184 169.682 23.9709 169.908 25.8172C170.042 26.9062 170.362 27.9788 170.419 29.0689C170.572 32.0291 170.643 34.9935 170.719 37.9569C170.746 38.9941 170.968 39.3042 172.011 39.4484C172.351 39.4951 172.7 39.4909 173.045 39.4899C174.802 39.4837 176.559 39.4609 178.317 39.4629C181.666 39.4671 185.014 39.4878 188.363 39.493C188.761 39.4941 189.16 39.4422 189.546 39.4163C189.586 37.9859 189.268 35.9021 188.948 35.173C188.523 35.2829 188.009 35.5899 187.735 35.4447C187.387 35.2591 187.234 34.7083 186.939 34.2177C185.654 34.2177 184.254 34.06 182.912 34.2675C181.848 34.4324 180.858 34.2374 179.845 34.1585C179.174 34.1067 178.505 33.8505 177.866 33.6078C177.23 33.3672 176.878 32.89 176.963 32.1526C177.007 31.7771 176.979 31.3933 176.981 31.0137C176.986 30.132 176.983 30.1248 177.813 29.8675C178.272 29.7244 178.733 29.5449 179.204 29.491C180.616 29.3313 181.674 27.5815 180.385 26.2124C179.972 26.2912 179.744 26.8907 179.188 26.5972C178.663 26.3192 178.835 25.8607 178.886 25.3597C178.445 25.4572 178.086 25.5568 177.721 25.6139C176.783 25.7601 176.191 25.2799 176.087 24.3702C175.86 22.3839 175.603 20.4008 175.37 18.4145C175.339 18.123 175.368 17.8222 175.368 17.5577ZM188.67 6.54545C189.567 5.51652 190.607 4.32475 191.797 2.95976C190.068 2.76683 188.543 2.5376 187.01 2.43907C184.602 2.28348 182.187 2.22333 179.777 2.10716C178.782 2.05841 177.791 1.94017 176.796 1.90075C174.975 1.82815 173.153 1.77939 171.331 1.75242C171.05 1.74827 170.74 1.86963 170.491 2.01484C170.199 2.18599 169.932 2.42351 169.701 2.67452C169.142 3.2813 168.447 3.79265 168.135 4.67948C168.355 4.71786 168.483 4.7552 168.614 4.76142C172.057 4.93983 175.504 5.08608 178.945 5.29975C181.594 5.46467 184.239 5.69286 186.881 5.94594C187.418 5.99884 187.931 6.29029 188.67 6.54545ZM187.796 8.23614C187.972 10.9516 188.414 13.4866 189.423 15.8795C190.866 14.6317 192.255 13.4327 193.661 12.217C193.331 11.073 192.962 9.89259 192.651 8.6977C192.345 7.52148 192.098 6.33076 191.799 5.028C190.374 6.12953 189.669 7.87415 187.796 8.23614ZM190.555 33.6825C190.284 35.3711 190.706 36.9528 190.864 38.5502C190.941 39.3291 191.282 39.4816 191.991 39.1227C192.845 38.6892 193.687 38.2286 194.523 37.7588C195.303 37.32 195.441 37.0659 195.041 36.3129C194.306 34.9292 193.477 33.5943 192.628 32.137C191.866 32.7054 191.19 33.2095 190.555 33.6825ZM191.125 31.6682C191.091 31.5665 191.058 31.4638 191.025 31.3622C187.574 31.7356 184.123 32.109 180.672 32.4824C180.668 32.5757 180.663 32.6691 180.659 32.7624C181.038 32.8216 181.417 32.9253 181.797 32.9326C184.032 32.9751 186.269 33.0207 188.505 33.0114C189.593 33.0062 190.381 32.3507 191.125 31.6682ZM181.849 25.3183C182.109 26.3679 182.352 27.3512 182.59 28.3086C183.674 28.5388 184.712 28.9361 185.294 27.5566C184.786 26.4198 184.266 25.2529 183.707 23.9999C183.003 24.4999 182.431 24.9054 181.849 25.3183ZM180.064 30.7595C181.353 31.4493 182.434 31.0479 183.551 30.912C183.071 29.8541 182.727 29.6373 181.928 29.9287C181.357 30.1372 180.813 30.4224 180.064 30.7595ZM180.106 23.2573C179.223 23.0011 178.472 23.2697 177.721 23.3849C177.613 23.4015 177.434 23.6908 177.465 23.7396C177.56 23.8858 177.758 24.0871 177.887 24.0674C178.523 23.975 179.153 23.8329 179.775 23.6722C179.889 23.6421 179.96 23.4471 180.106 23.2573ZM180.724 23.3257C181.445 24.0404 181.453 24.0393 181.972 23.3257C181.523 23.3257 181.123 23.3257 180.724 23.3257ZM178.696 31.1361C178.623 31.1278 178.548 31.1184 178.474 31.1101C178.474 31.3539 178.474 31.5966 178.474 31.8404C178.504 31.8455 178.536 31.8497 178.566 31.8549C178.609 31.6153 178.653 31.3757 178.696 31.1361Z" />
<path d="M23.9604 41.862C24.6751 41.556 25.3845 41.2356 26.1063 40.9482C27.0989 40.5531 28.1018 40.1848 29.0985 39.7979C29.4533 39.66 29.8069 39.6019 29.9708 40.0261C30.1274 40.4317 29.9666 40.7698 29.559 40.9627C29.4657 41.0074 29.3724 41.0613 29.2738 41.082C26.9921 41.5768 24.9748 42.7312 22.8797 43.6803C20.9994 44.5318 19.0536 44.9789 17.0042 44.9914C15.5553 44.9996 14.1043 44.9882 12.6585 44.9115C12.1088 44.8824 11.9273 45.148 11.8724 45.679C11.5488 45.3481 11.3673 45.0484 11.1038 44.926C10.8404 44.8026 10.495 44.8347 10.1849 44.8358C7.53183 44.8482 5.21897 43.8711 3.03886 42.4491C2.19253 41.8963 1.78908 41.0934 1.50905 40.1942C1.27361 39.438 1.11285 38.658 0.867043 37.906C0.664797 37.2879 0.388913 36.6946 0.142069 36.0919C-0.149373 35.3783 -2.20572e-05 35.0298 0.660649 34.6522C2.15623 33.7986 3.8551 33.6202 5.47618 33.1939C6.19079 33.0062 6.34532 33.2157 6.63262 33.976C6.88672 34.6491 7.16157 35.3265 7.52872 35.9415C8.20392 37.07 9.40495 37.4103 10.5676 37.7318C11.1588 37.8957 11.7925 37.9517 12.4086 37.9693C14.5306 38.0284 16.4639 36.2651 16.5064 33.8007C16.5188 33.0954 16.2544 32.4782 15.6155 32.1587C14.6032 31.6515 13.5764 31.1495 12.5102 30.7751C10.1963 29.964 8.12302 28.8044 6.45111 26.9799C5.70851 26.1698 4.94723 25.3774 4.18907 24.5818C3.65804 24.0248 3.45476 23.2988 3.42053 22.5955C3.29711 20.074 3.35726 17.5536 4.36331 15.1773C4.62778 14.5529 5.06236 14.001 5.41395 13.4119C5.65561 13.0074 5.87445 12.5894 6.13063 12.1952C6.25509 12.0044 6.4117 11.7949 6.60565 11.6932C9.83952 10.0046 13.0775 8.32534 16.3238 6.66163C16.8725 6.38054 17.4543 6.15649 18.0372 5.95527C18.2841 5.87022 18.6035 5.82874 18.8421 5.9086C22.218 7.04022 25.7236 7.27566 29.2386 7.46858C29.5424 7.48518 29.8443 7.54015 30.2187 7.58579C29.8443 9.74945 30.4147 11.7949 30.6035 13.8683C30.6315 14.1774 30.6304 14.4896 30.6221 14.7997C30.591 15.9013 30.3338 16.0589 29.1826 15.5766C28.5478 16.1108 27.8488 16.6615 27.1964 17.2621C26.6363 17.7786 26.6467 17.8046 25.8709 17.2662C25.4685 17.6106 25.037 17.7019 24.478 17.4727C22.4649 16.647 20.3304 16.4427 18.1928 16.5848C17.0136 16.6636 15.8561 17.0743 14.6945 17.3347C14.6675 18.8407 15.4827 19.6664 16.5064 20.381C17.7976 21.2834 19.3036 21.7128 20.7411 22.2688C22.9191 23.11 25.1553 23.7655 27.4588 24.2312C29.2863 24.6005 30.9208 25.535 31.8553 27.2236C32.8468 29.017 33.3955 30.9618 33.2928 33.0674C33.187 35.2217 32.7307 37.2941 32.0679 39.3322C32.0067 39.5189 31.8864 39.6994 31.7547 39.8467C31.4954 40.1371 31.1366 40.2284 30.8202 40.0147C30.4738 39.7814 30.3566 39.4007 30.6149 39.02C31.1905 38.1716 31.4187 37.2017 31.6593 36.2299C32.1561 34.2166 32.21 32.1764 31.7371 30.1797C31.3191 28.4154 30.3711 26.9177 28.5934 26.1874C27.6465 25.7985 26.6612 25.4645 25.6624 25.2487C23.7022 24.8245 21.8021 24.225 19.9487 23.4782C18.7736 23.0042 17.6203 22.4711 16.4794 21.9182C14.96 21.1828 13.8606 20.0647 13.4405 18.373C13.4094 18.2464 13.3285 18.1323 13.2715 18.0151C11.6742 18.6105 11.0789 20.1072 11.8288 21.5894C12.3474 22.6152 13.1978 23.3288 14.1863 23.8423C15.2006 24.3692 16.3145 24.5963 17.4554 24.7561C18.5392 24.9075 19.6002 25.2332 20.6695 25.4852C22.0977 25.8213 23.2552 26.6511 24.2643 27.6448C25.3917 28.7546 26.1157 30.1725 26.2951 31.7335C26.4548 33.1234 26.5274 34.5879 26.264 35.9467C25.8927 37.8604 25.2787 39.7513 24.0009 41.3216C23.92 41.4212 23.8754 41.5498 23.8142 41.665C23.8609 41.7282 23.9107 41.7946 23.9604 41.862ZM24.5257 15.7986C24.6045 14.8713 24.7051 14.055 24.7228 13.2356C24.7269 13.0271 24.5153 12.719 24.3193 12.6195C23.5269 12.216 22.7314 11.7783 21.8851 11.5324C19.762 10.9174 17.584 10.5398 15.3665 10.518C14.9569 10.5139 14.515 10.9464 14.1396 10.8811C13.6386 10.7939 13.2072 10.7919 12.7384 10.9589C12.2208 11.1435 11.6753 11.2524 11.1588 11.4401C9.80425 11.9328 8.43001 12.3757 7.36174 13.4368C6.34117 14.4502 5.58509 15.5621 5.15363 16.9789C4.71906 18.402 4.70454 19.8427 4.6309 21.2741C4.56659 22.5208 4.91508 23.7344 5.90349 24.6503C6.3837 25.0952 6.80997 25.6035 7.31507 26.0153C8.2174 26.7527 9.13528 27.4788 10.0947 28.1395C11.6421 29.2058 13.4862 29.6113 15.1892 30.3322C17.1432 31.1589 18.254 32.2117 17.6753 34.7653C17.1795 36.9508 15.7347 38.3386 13.6635 39.1186C12.8162 39.438 11.9491 39.3167 11.1069 39.2067C9.3645 38.9785 7.72786 38.4371 6.59217 36.9829C6.19494 36.4747 5.93046 35.8606 5.63176 35.2808C5.30505 34.6471 5.16711 34.5413 4.50436 34.7176C3.77317 34.9126 3.05027 35.1429 2.3367 35.3928C1.76211 35.5951 1.67188 35.7787 1.85546 36.4321C2.19876 37.6561 2.53687 38.8852 2.96211 40.0821C3.12702 40.5468 3.44335 41.0343 3.83021 41.3299C5.24593 42.4138 6.88465 43.0953 8.63537 43.3266C10.4431 43.5652 12.2789 43.6274 14.1054 43.6761C15.5169 43.7135 16.9368 43.6678 18.3422 43.5423C19.0796 43.477 19.9166 43.3318 20.4912 42.92C21.4609 42.225 22.3912 41.389 23.1006 40.4348C24.9146 37.9942 25.4612 35.1761 25.0038 32.1992C24.8721 31.3394 24.5184 30.4567 24.0559 29.7151C22.7159 27.5659 20.5762 26.5847 18.171 26.3658C16.7729 26.2383 15.4713 25.9209 14.1883 25.4469C12.3017 24.7509 10.8736 23.6151 10.2492 21.5614C9.62067 19.4942 10.9068 17.2559 12.7322 16.6086C13.761 16.2446 14.82 15.95 15.8841 15.7063C16.9192 15.4698 17.9802 15.1856 19.0256 15.198C20.6011 15.2177 22.2045 15.2022 23.7375 15.7218C23.9231 15.7872 24.1378 15.7654 24.5257 15.7986ZM14.6353 8.9736C15.1353 8.9736 15.6404 8.92694 16.1351 8.98191C18.5257 9.24744 20.9361 9.44658 23.167 10.4641C23.9999 10.8437 24.8057 10.9547 25.6033 10.4195C26.3034 9.9486 27.0367 9.49637 27.2202 8.5473C26.012 8.40313 24.8586 8.26829 23.7063 8.12826C22.4099 7.9706 21.0927 7.90733 19.8243 7.62624C17.8516 7.1875 16.2066 7.87933 14.6353 8.9736ZM25.8346 16.7424C26.9164 15.9199 27.8737 15.2094 28.8081 14.4688C28.9813 14.3319 29.1483 14.0871 29.1711 13.8766C29.3392 12.3674 29.0374 10.9132 28.6329 9.26299C28.2149 9.66959 27.9193 9.93926 27.6444 10.2276C27.2431 10.6487 26.8811 11.1124 26.4538 11.5044C26.1198 11.8115 26.0182 12.134 25.9964 12.5821C25.9435 13.6733 25.789 14.7593 25.705 15.8504C25.6852 16.117 25.7807 16.3929 25.8346 16.7424Z" />
<path d="M41.1619 11.7607C42.1109 10.9288 42.923 10.2495 43.6925 9.52443C44.0068 9.22779 44.3024 8.86579 44.4766 8.47476C44.8116 7.72381 44.9382 7.56925 45.8405 7.55888C46.7719 7.54954 47.7043 7.58585 48.6367 7.61386C49.5961 7.6429 50.5554 7.68647 51.52 7.72381C51.6019 8.33992 51.1871 8.38451 50.8178 8.42911C49.6884 8.56395 48.5568 8.67702 47.4263 8.79734C47.221 8.81912 47.0125 8.84608 46.8071 8.84089C46.0614 8.82222 45.5065 9.07427 45.1124 9.76403C44.85 10.2235 44.4196 10.5876 43.8803 11.2047C45.3447 11.1809 46.5696 11.4869 47.781 10.8386C48.7342 11.5522 49.6116 11.5294 50.6062 10.7401C51.4142 10.098 52.2304 9.46739 53.0467 8.83675C53.3174 8.62827 53.5663 8.47164 53.5601 8.02563C53.5539 7.59933 53.9542 7.40123 54.3763 7.42509C54.8379 7.45205 54.9955 7.73729 55.0245 8.19056C55.1718 10.4911 55.3326 12.7917 55.5151 15.0902C55.7091 17.5256 55.9196 19.961 56.154 22.3933C56.2059 22.9264 56.3905 23.4461 56.5066 23.9429C57.5054 23.9429 58.387 23.9429 59.2479 23.9429C59.2479 22.636 59.2489 21.4079 59.2468 20.1799C59.2468 19.9724 59.2261 19.766 59.2302 19.5586C59.2769 17.3213 59.4926 15.0694 59.3111 12.8508C59.2084 11.5937 59.7177 10.9983 60.4582 10.1914C61.5597 8.99129 62.714 7.88353 64.0281 6.93447C64.5374 6.56729 65.0487 6.17626 65.6762 6.78823C65.783 6.89299 66.0703 6.83593 66.2715 6.8183C67.6074 6.70628 68.9412 6.57559 70.277 6.47083C71.0217 6.41274 71.5921 6.79964 71.839 7.43961C72.1055 8.13144 72.2902 8.89379 72.314 9.6323C72.4084 12.4888 72.3918 15.3495 72.4779 18.206C72.5691 21.2389 73.0898 24.2251 73.5399 27.2206C73.8625 29.3656 73.9766 31.5406 74.2234 33.6981C74.2877 34.2633 74.5615 34.8048 74.6227 35.3701C74.6642 35.7487 74.6217 36.2393 74.4101 36.5266C73.4704 37.8003 72.4893 39.047 71.4438 40.2357C71.1959 40.5178 70.6452 40.5323 70.08 40.7211C69.8331 41.3538 69.1963 41.4233 68.4122 41.4451C66.5588 41.497 64.7324 41.8403 62.9163 42.223C61.7723 42.4637 60.619 42.6618 59.4636 42.8371C58.583 42.9709 58.3715 42.6535 58.3269 41.7832C58.2231 39.7544 58.0282 37.7298 57.857 35.7041C57.8166 35.228 57.7243 34.7571 57.6465 34.226C57.4235 34.2063 57.2223 34.1451 57.0387 34.1783C56.1934 34.3328 55.3585 34.5392 54.5101 34.6751C54.0392 34.7508 53.8515 34.978 53.8557 35.4302C53.8588 35.7061 53.808 35.9841 53.8235 36.2579C53.8868 37.3553 53.7986 38.4973 54.0797 39.5387C54.452 40.9192 53.7997 41.7096 52.861 42.4118C52.2864 42.8412 51.6154 43.142 50.9164 43.5424C50.8966 43.7892 50.9361 44.118 50.8282 44.3888C50.7276 44.6408 50.5119 44.925 50.2744 45.0256C49.9456 45.1646 49.7122 44.9043 49.5597 44.5941C49.0712 43.5974 48.6097 43.4542 47.5134 43.6814C46.4078 43.9106 45.2773 44.0413 44.1499 44.1388C43.76 44.173 43.3347 44.0185 42.9572 43.8701C42.7695 43.7965 42.506 43.5081 42.5351 43.3702C42.6263 42.9366 42.3691 42.7738 42.1285 42.5197C41.9688 42.3516 41.8889 42.0353 41.8993 41.7895C41.976 39.9339 42.0849 38.0783 42.1814 36.2237C42.3297 33.3703 42.5257 30.5179 42.6108 27.6624C42.7052 24.4937 42.7249 21.3229 42.7269 18.1521C42.728 16.3629 42.6274 14.5747 42.5724 12.7668C42.1617 12.4743 41.724 12.1621 41.1619 11.7607ZM43.8906 12.6921C43.8243 17.7445 43.8045 22.6993 43.6822 27.652C43.5598 32.6079 43.3337 37.5607 43.1522 42.5259C44.0192 43.0093 44.1292 43.0881 44.8645 43.0217C46.1693 42.9024 47.4668 42.7074 48.7705 42.5715C49.2994 42.5166 49.484 42.2178 49.4861 41.7449C49.4871 41.5042 49.4726 41.2626 49.4415 41.024C49.2693 39.6912 49.0754 38.3604 48.9177 37.0255C48.8451 36.4104 48.9955 35.7207 48.7653 35.1854C48.477 34.5133 48.786 34.1316 49.1096 33.7032C49.4664 33.2313 49.8232 33.2603 50.2941 33.6732C50.4756 33.8319 50.7525 33.9947 50.9713 33.976C51.8965 33.8982 52.8175 33.7551 53.7385 33.6306C55.0038 33.4595 56.2681 33.278 57.5334 33.1089C58.3798 32.9959 58.6183 33.1618 58.862 34.0113C58.9191 34.2094 58.9761 34.4106 58.9969 34.615C59.1514 36.0847 59.2966 37.5565 59.446 39.0273C59.5217 39.7731 59.5995 40.5189 59.6876 41.3787C62.3459 41.3652 64.8672 40.6776 67.5057 40.411C67.4445 40.0199 67.3813 39.7586 67.3667 39.4941C67.2247 36.9145 67.0587 34.3349 66.9685 31.7532C66.9197 30.3768 67.0276 28.9953 67.0266 27.6168C67.0234 24.2676 67.1137 20.9277 67.401 17.5858C67.5711 15.6067 67.4321 13.6018 67.4321 11.5501C66.5194 11.2898 65.6233 11.0554 64.6857 11.2359C63.5344 11.4578 62.3925 11.7213 61.2444 11.9588C60.8617 12.0376 60.6294 12.216 60.6086 12.6413C60.5702 13.4296 60.4696 14.2158 60.4582 15.0041C60.4344 16.589 60.4354 18.1759 60.4613 19.7608C60.4779 20.7939 60.5215 21.8301 60.62 22.858C60.6999 23.694 60.842 23.7759 61.6707 23.7116C62.3427 23.6598 63.0117 23.582 63.6734 23.5177C63.8342 24.0809 63.6465 24.363 63.2067 24.4657C62.907 24.5362 62.5875 24.5269 62.2878 24.5985C61.7661 24.7229 61.2454 24.7748 60.9467 25.3951C60.6999 25.9085 60.117 25.9386 59.7488 25.4925C59.4677 25.1534 59.2022 25.0393 58.7842 25.0673C57.271 25.1679 55.7547 25.2291 54.2415 25.3287C53.2821 25.3919 52.3269 25.5174 51.3675 25.5776C50.405 25.6388 50.1696 25.4106 50.1561 24.4885C50.1416 23.528 50.1323 22.5665 50.125 21.6061C50.1094 19.5015 50.0545 17.4001 49.6904 15.3184C49.5909 14.7489 49.5473 14.1702 49.4975 13.7563C49.0038 13.4649 48.4749 13.3373 48.367 13.051C48.1388 12.4442 47.7115 12.3519 47.2293 12.3809C46.1682 12.4432 45.1093 12.5739 43.8906 12.6921ZM68.8281 40.4245C69.2139 40.3218 69.5728 40.3197 69.8082 40.1486C71.1451 39.1798 72.091 37.8708 72.8813 36.4436C72.9768 36.2714 73.0379 36.0484 73.0265 35.8544C72.9809 35.0309 72.9073 34.2073 72.8326 33.3858C72.7486 32.4596 72.6604 31.5334 72.5609 30.6081C72.3399 28.5586 72.1211 26.508 71.8805 24.4605C71.7114 23.0271 71.4138 21.604 71.3401 20.1674C71.2105 17.6553 71.2074 15.1358 71.1555 12.6195C71.1327 11.5201 71.1202 10.4196 71.0995 9.31906C71.0902 8.83883 71.0518 8.36481 70.5384 7.95511C69.9711 8.73718 69.2679 9.39374 68.9847 10.3428C68.8872 10.6685 68.7752 11.0046 68.7648 11.3385C68.7379 12.3011 68.7711 13.2657 68.7597 14.2293C68.7482 15.2634 68.7565 16.3006 68.6788 17.3306C68.4879 19.8936 68.0326 22.4338 68.2452 25.0289C68.3489 26.2902 68.1467 27.5732 68.1809 28.8438C68.2442 31.1848 68.3645 33.5248 68.491 35.8638C68.5709 37.3325 68.7057 38.7971 68.8281 40.4245ZM53.7571 9.93309C53.6742 9.88123 53.5902 9.82937 53.5072 9.77751C52.6432 10.5399 51.7699 11.2929 50.9257 12.077C50.8012 12.1932 50.7566 12.4587 50.7691 12.6486C50.8572 13.9503 50.9651 15.251 51.0761 16.5516C51.1404 17.3068 51.2472 18.0587 51.2897 18.8149C51.3779 20.3998 51.4339 21.9867 51.5106 23.5716C51.5189 23.7355 51.5729 23.8973 51.603 24.0446C52.7034 24.0446 53.7468 24.0446 54.8928 24.0446C54.4873 19.2526 54.4199 14.5695 53.7571 9.93309ZM50.6965 42.3102C51.4204 41.9648 51.9017 41.7231 52.3943 41.5053C52.8465 41.3051 52.9575 40.9701 52.916 40.5012C52.8486 39.7482 52.8434 38.9889 52.7905 38.2338C52.72 37.2122 52.6297 36.1915 52.5405 35.0734C52.0272 35.1429 51.5594 35.2103 51.0896 35.2684C50.1561 35.3836 50.0099 35.5848 50.1406 36.5328C50.292 37.625 50.4527 38.7162 50.5668 39.8125C50.6446 40.5572 50.6477 41.3082 50.6965 42.3102ZM61.7827 10.5731C63.8632 10.3376 65.643 9.819 67.4819 10.3625C68.2369 9.57318 68.6601 8.64279 69.1994 7.52466C68.3718 7.65638 67.765 7.72485 67.1718 7.8545C66.4281 8.01734 65.6969 8.17085 64.9377 7.94162C64.7873 7.89598 64.5706 7.87524 64.4513 7.95095C63.438 8.58781 62.5937 9.39893 61.7827 10.5731Z" />
<path d="M91.7991 11.2711C92.7315 10.8106 92.801 10.5254 92.2326 9.89784C91.6829 9.29107 91.7451 9.02242 92.3456 8.48099C93.6016 7.35145 94.9396 6.33912 96.3688 5.43985C96.6457 5.26559 96.9143 4.98139 97.0398 4.68578C97.1892 4.33105 97.2193 3.91616 97.6995 3.87985C98.328 3.83318 98.9648 3.34879 99.585 3.8394C99.9729 4.14642 100.394 4.15679 100.848 4.17442C102.329 4.23251 103.809 4.31964 105.289 4.39847C105.496 4.40988 105.714 4.39847 105.904 4.46278C106.4 4.62977 106.82 4.63288 107.223 4.20762C107.376 4.04581 107.703 4.04789 108.038 3.94935C108.103 4.39951 108.088 4.75942 108.213 5.06022C108.553 5.8817 108.932 6.6897 109.335 7.48214C110.086 8.955 110.911 10.3916 111.621 11.8841C112.538 13.8103 113.399 15.7634 114.236 17.7258C114.856 19.18 115.6 20.5585 116.464 21.8799C117.646 23.6888 118.756 25.5454 119.968 27.3336C120.623 28.2993 121.389 29.1975 122.181 30.0563C122.488 30.3893 123.002 30.5314 123.448 30.7751C123.697 31.3363 123.338 31.7398 123.007 32.1318C121.873 33.473 120.733 34.8099 119.577 36.1334C119.309 36.4415 118.988 36.7122 118.662 36.9611C118.029 37.4466 117.484 37.9755 117.227 38.7721C117.013 39.4339 116.626 39.5978 116.034 39.2368C115.468 38.8914 114.875 38.8551 114.256 38.797C111.817 38.5699 109.461 39.0231 107.122 39.6268C106.893 39.6859 106.668 39.7907 106.463 39.912C105.511 40.4794 104.664 40.2077 104.469 39.1207C104.359 38.5056 104.099 38.0212 103.793 37.5347C102.565 35.5816 101.309 33.6462 100.082 31.6931C99.6846 31.0614 99.1276 30.7938 98.4224 30.9058C97.2359 31.0956 96.0576 31.3394 94.8255 31.5696C94.3349 33.0373 93.9014 34.4894 93.3631 35.9032C92.7584 37.4922 92.438 39.1456 92.0563 40.7885C91.9878 41.0852 91.8986 41.4005 91.7265 41.6411C91.6124 41.8019 91.2898 41.9658 91.1384 41.9108C90.9289 41.8351 90.7277 41.581 90.6416 41.358C90.5659 41.1609 90.652 40.9016 90.6613 40.7616C90.0494 40.7937 89.4903 40.8414 88.9313 40.8487C87.8672 40.8632 86.7958 40.774 85.741 40.8756C84.1365 41.0302 82.5092 41.1298 81.0147 41.8579C80.6724 42.0249 80.2679 42.0975 79.9568 41.7645C79.628 41.4119 79.8365 41.0271 80.0045 40.7055C80.5594 39.6372 81.1806 38.6031 81.7241 37.5306C83.061 34.8908 84.513 32.305 85.4765 29.489C85.7099 28.8065 86.0034 28.1406 86.3239 27.4944C87.749 24.6171 88.8307 21.605 89.8917 18.5825C90.542 16.7311 91.2348 14.8942 91.8883 13.0437C92.0905 12.4764 92.4006 11.881 91.7991 11.2711ZM94.0964 9.47569C90.9683 19.9454 86.884 29.9578 82.1701 39.7658C85.1633 39.6258 88.0269 39.4909 91.0036 39.352C91.0741 39.1248 91.1788 38.8043 91.2732 38.4807C91.4278 37.9517 91.5533 37.4134 91.7296 36.8927C92.2813 35.2611 92.8767 33.6441 93.4056 32.0053C93.723 31.0241 93.9522 30.0138 94.2115 29.0139C94.3152 28.6125 94.3463 28.1271 94.9323 28.2007C95.4893 28.2702 95.5017 28.6903 95.4519 29.1436C95.427 29.3635 95.4945 29.5927 95.5214 29.8323C96.5938 29.7306 97.5864 29.5958 98.5831 29.5522C99.752 29.5014 100.747 29.9236 101.389 30.9411C102.786 33.1545 104.173 35.3742 105.522 37.6167C105.792 38.0668 106.085 38.2836 106.587 38.2276C106.861 38.1975 107.136 38.1664 107.403 38.1042C109.051 37.7204 110.723 37.5057 112.413 37.4964C113.514 37.4901 114.616 37.5928 115.717 37.6281C116.032 37.6385 116.35 37.5835 116.877 37.541C116.577 36.9757 116.47 36.4343 116.156 36.2517C115.413 35.8192 115.109 35.1501 114.913 34.421C114.03 31.1309 112.41 28.1499 110.985 25.0922C109.983 22.9389 108.841 20.8572 108.013 18.6178C107.406 16.9759 106.665 15.391 106.215 13.6816C105.753 11.9308 105.202 10.1852 104.083 8.74445C100.692 8.32852 97.4049 9.00271 94.0964 9.47569ZM107.198 6.62954C107.092 6.62436 106.985 6.61917 106.879 6.61294C106.591 7.10874 106.275 7.59105 106.027 8.10551C105.935 8.2974 105.939 8.58575 106.006 8.79423C106.449 10.1654 106.898 11.5367 107.39 12.8913C108.022 14.6359 108.736 16.3515 109.345 18.1044C110.023 20.0575 110.789 21.9639 111.83 23.7541C111.985 24.0218 112.101 24.3111 112.233 24.5922C112.947 26.118 113.664 27.6427 114.37 29.1726C114.856 30.2285 115.338 31.2875 115.795 32.3569C116.146 33.1794 116.451 34.0206 116.785 34.8494C116.844 34.9967 116.957 35.2518 117.027 35.2445C117.632 35.1896 117.592 35.8617 118.055 36.1376C119.225 34.6492 120.379 33.1805 121.535 31.7097C120.893 30.9224 120.285 30.2628 119.776 29.5336C118.814 28.1499 117.862 26.7548 116.99 25.3131C115.191 22.3394 113.431 19.347 112.055 16.1388C110.971 13.6122 109.901 11.0709 108.488 8.6988C108.073 8.00179 107.629 7.3193 107.198 6.62954ZM95.4219 7.75493C95.9767 7.93126 96.0255 7.95512 96.4082 7.88874C99.0353 7.43651 101.688 7.534 104.335 7.49459C104.556 7.49147 104.868 7.45932 104.978 7.31722C105.347 6.84114 105.644 6.30904 105.966 5.80184C105.808 5.70434 105.754 5.6421 105.697 5.64002C103.359 5.54875 101.02 5.45644 98.6827 5.38695C98.4659 5.38072 98.2015 5.46888 98.0314 5.60372C97.1446 6.30696 96.2827 7.04028 95.4219 7.75493Z" />
<path d="M151.198 27.8844C151.885 28.5783 152.518 29.2463 153.181 29.8821C154.445 31.0957 155.715 32.3041 157.01 33.4844C157.411 33.8495 157.907 34.1068 158.347 34.4325C159.096 34.9863 159.086 35.4095 158.326 35.9375C157.107 36.7849 155.869 37.6002 154.463 38.1167C154.27 38.1872 154.071 38.2723 153.912 38.3978C152.64 39.4132 151.136 39.6466 149.576 39.7202C148.646 39.7648 147.705 39.7814 146.791 39.9422C145.746 40.1258 145.008 39.6819 144.279 39.0481C143.135 38.0545 141.869 37.2579 140.313 36.7579C140.313 37.3927 140.313 37.9455 140.313 38.5554C140.62 38.5793 140.851 38.5865 141.081 38.6187C141.589 38.6892 141.723 38.9568 141.493 39.3976C141.245 39.8758 140.797 39.9349 140.342 39.9318C139.308 39.9246 138.272 39.8468 137.239 39.8821C135.971 39.9256 134.684 39.9422 133.444 40.1766C132.123 40.4266 130.658 38.9714 131.091 37.3844C131.305 36.5982 131.378 35.7684 131.47 34.9532C131.594 33.8568 131.642 32.7511 131.779 31.6568C132.042 29.5523 131.907 27.453 131.759 25.3526C131.645 23.7356 131.483 22.1216 131.419 20.5025C131.29 17.228 131.214 13.9524 131.112 10.6769C131.106 10.4736 131.073 10.2713 131.055 10.0877C130.973 10.0151 130.929 9.94045 130.871 9.93008C129.959 9.76204 129.911 9.71745 129.88 8.95094C129.845 8.08486 129.943 7.95832 130.754 7.71146C131.719 7.41689 132.292 6.59748 133.021 5.98759C133.995 5.17233 134.939 4.31765 135.95 3.55321C136.705 2.98274 136.76 3.04705 137.483 3.68494C137.653 3.83534 137.895 3.91936 138.118 3.99404C141.834 5.24285 145.484 6.66489 148.991 8.41261C150.431 9.13037 151.801 10.0442 153.065 11.043C154.562 12.2244 155.194 14.0022 155.587 15.7925C155.925 17.3328 156.046 18.9228 156.212 20.4973C156.391 22.1953 155.712 23.6121 154.565 24.7956C153.753 25.6337 152.844 26.3794 151.979 27.1667C151.755 27.371 151.532 27.5774 151.198 27.8844ZM132.406 9.84503C132.406 10.5203 132.454 11.1737 132.397 11.8178C132.217 13.8778 132.277 15.9325 132.466 17.9852C132.591 19.3522 132.867 20.7006 132.745 22.0926C132.683 22.8041 132.709 23.552 132.86 24.2479C133.382 26.6398 133.24 29.0482 133.105 31.4515C132.991 33.4803 132.744 35.5018 132.572 37.5275C132.542 37.8864 132.592 38.2515 132.604 38.5679C134.783 38.5679 136.828 38.5679 138.984 38.5679C138.926 37.3471 138.87 36.1968 138.811 34.9635C139.094 34.6803 139.485 34.4034 140.007 34.7219C141.502 35.6325 143.014 36.5194 144.472 37.486C145.328 38.0534 146.157 38.5191 147.236 38.4486C148.268 38.3812 149.307 38.4351 150.341 38.404C150.837 38.3895 151.332 38.3013 151.926 38.236C151.377 37.6489 150.906 37.2133 150.518 36.7123C150.099 36.1698 149.772 35.5589 149.383 34.9915C148.508 33.7157 147.689 32.3933 146.717 31.1963C145.786 30.0523 144.712 29.0202 143.654 27.9871C143.352 27.6926 142.765 27.6438 142.881 27.0433C142.987 26.4967 143.495 26.4562 143.915 26.3286C146.048 25.6824 147.999 24.7966 148.965 22.5801C148.979 22.549 149.004 22.5241 149.026 22.4971C149.875 21.4537 150.154 20.1872 150.172 18.9176C150.22 15.6338 148.538 13.3332 145.67 11.9651C143.622 10.987 141.415 10.3896 139.14 10.1396C137.637 9.97468 136.121 9.9166 134.625 9.70397C133.886 9.5961 133.211 9.70189 132.406 9.84503ZM156.985 35.1492C156.483 34.6627 156.077 34.2499 155.65 33.8589C154.868 33.1432 154.083 32.4275 153.281 31.7346C152.525 31.0822 151.712 30.491 150.985 29.8095C150.487 29.3418 150.063 28.7827 149.655 28.2299C149.287 27.7309 149.317 27.1802 149.669 26.9292C150.531 26.3151 151.424 25.7405 152.262 25.0943C153.928 23.8102 155.084 22.2648 154.76 19.987C154.642 19.1687 154.631 18.3347 154.519 17.5143C154.208 15.2365 153.507 13.0895 151.567 11.6954C150.069 10.6178 148.405 9.76412 146.788 8.85759C146.193 8.5236 145.518 8.33586 144.886 8.06307C143.434 7.43451 142.012 6.72401 140.529 6.18258C139.341 5.74902 138.124 5.36525 136.827 5.29368C136.191 5.25842 135.649 5.39844 135.194 5.7708C134.502 6.33713 133.863 6.96776 133.218 7.58802C133.065 7.73427 132.977 7.94587 132.814 8.19688C133.088 8.26429 133.248 8.32653 133.412 8.34001C135.441 8.50804 137.471 8.65014 139.497 8.84203C140.282 8.91671 141.064 9.06503 141.833 9.24447C142.432 9.3845 142.996 9.68218 143.597 9.80665C145.247 10.151 146.73 10.8055 148.073 11.8427C150.835 13.9742 151.983 16.7083 151.405 20.1727C151.2 21.4008 150.665 22.4743 149.997 23.4794C149.02 24.9501 147.977 26.3753 146.187 26.981C145.944 27.063 145.735 27.2424 145.448 27.4146C145.665 27.6967 145.825 27.9125 145.992 28.122C146.721 29.0368 147.489 29.9236 148.175 30.8696C149.427 32.5955 150.639 34.3495 151.846 36.1065C152.158 36.5608 152.393 37.0701 152.695 37.6126C154.031 36.9457 155.567 36.3368 156.985 35.1492Z" />
<path d="M190.931 12.7025C190.841 12.5853 190.789 12.5148 190.735 12.4442C190.809 12.3986 190.88 12.3342 190.961 12.3156C190.995 12.3073 191.098 12.4048 191.09 12.4328C191.068 12.5127 191.005 12.5822 190.931 12.7025Z" />
<path d="M191.964 35.453C191.927 35.3741 191.876 35.3026 191.863 35.2248C191.859 35.1989 191.991 35.1221 191.998 35.1294C192.057 35.1895 192.102 35.2653 192.152 35.3358C192.1 35.3669 192.049 35.399 191.964 35.453Z" />
<path d="M97.6528 22.2242C99.1297 22.1247 100.368 21.4308 101.685 21.8788C101.893 22.7273 101.862 22.7615 101.215 22.8974C100.209 23.109 99.2168 23.3922 98.2056 23.5685C97.6434 23.667 97.0461 23.6701 96.4787 23.6038C96.0265 23.5509 95.8751 23.1837 96.0421 22.7408C97.0512 20.0544 97.268 17.2518 97.2804 14.417C97.2815 14.2459 97.2597 14.0519 97.3313 13.9088C97.4308 13.7086 97.5874 13.4234 97.7544 13.3985C97.9826 13.3632 98.273 13.495 98.4815 13.636C98.6277 13.7356 98.6817 13.97 98.775 14.1411C99.528 13.9876 100.227 13.8082 100.937 13.7097C101.849 13.5831 102.145 13.7511 102.343 14.6598C102.54 15.5642 102.578 16.5019 102.716 17.4209C102.951 18.9819 103.074 20.5699 103.786 22.0821C103.503 22.3912 103.233 22.6879 102.912 23.0405C102.424 22.5613 102.151 22.0655 102.068 21.4826C101.847 19.9164 101.663 18.344 101.434 16.7788C101.347 16.1803 101.176 15.5943 101.028 14.9377C100.531 15.0176 100.158 15.056 99.7945 15.139C98.5987 15.4117 98.5157 15.5673 98.4006 16.7912C98.272 18.1614 98.0687 19.5254 97.8882 20.8904C97.8353 21.2918 97.7492 21.688 97.6528 22.2242Z" />
<path d="M136.455 19.2433C136.86 19.2765 137.192 19.3035 137.593 19.3367C137.813 18.6656 137.601 17.9966 137.521 17.34C137.46 16.8328 137.247 16.3442 137.187 15.8381C137.155 15.5684 137.22 15.1919 137.395 15.0166C137.661 14.749 138.062 14.8081 138.307 15.1224C138.605 15.502 138.98 15.5165 139.412 15.5259C140.753 15.5549 142.1 15.5777 143.374 16.0901C143.628 16.1928 143.882 16.2996 144.126 16.4272C144.829 16.7934 145.474 17.312 145.467 18.1293C145.458 19.1074 145.116 20.0243 144.16 20.5575C142.515 21.4734 140.759 21.8748 138.887 21.6632C138.018 21.5646 137.201 21.297 136.658 20.5201C136.381 20.1239 136.374 20.1291 136.455 19.2433ZM140.698 16.6409C140.685 16.6824 140.671 16.7228 140.658 16.7643C140.247 16.81 139.821 16.8037 139.432 16.9209C139.209 16.9884 138.918 17.2321 138.88 17.4375C138.664 18.5753 138.857 19.6312 139.751 20.4569C139.862 20.5596 140.083 20.6405 140.219 20.6052C141.414 20.293 142.665 20.1187 143.683 19.3356C144.478 18.7237 144.391 17.7372 143.457 17.3877C142.569 17.0537 141.62 16.8826 140.698 16.6409Z" />
</svg>
