<svg width="14" height="15" viewBox="0 0 14 15" fill="none" xmlns="http://www.w3.org/2000/svg">
<g id="Group 312">
<path id="Vector" d="M7.58328 11C7.58328 11.3222 7.32213 11.5833 6.99998 11.5833C6.67784 11.5833 6.41669 11.3222 6.41669 11C6.41669 10.6779 6.67784 10.4167 6.99998 10.4167C7.32213 10.4167 7.58328 10.6779 7.58328 11Z" fill="#C71B29"/>
<path id="Vector_2" d="M7 9.25005C6.7585 9.25005 6.5625 9.05405 6.5625 8.81255V3.85425C6.5625 3.61275 6.7585 3.41675 7 3.41675C7.2415 3.41675 7.4375 3.61275 7.4375 3.85425V8.81255C7.4375 9.05405 7.2415 9.25005 7 9.25005Z" fill="#C71B29"/>
<path id="Vector_3" d="M7 14.5C3.14005 14.5 0 11.36 0 7.5C0 3.64005 3.14005 0.5 7 0.5C10.86 0.5 14 3.64005 14 7.5C14 11.36 10.86 14.5 7 14.5ZM7 1.375C3.62251 1.375 0.875 4.12251 0.875 7.5C0.875 10.8775 3.62251 13.625 7 13.625C10.3775 13.625 13.125 10.8775 13.125 7.5C13.125 4.12251 10.3775 1.375 7 1.375Z" fill="#C71B29"/>
</g>
</svg>
