<svg width="14" height="15" viewBox="0 0 14 15" fill="none" xmlns="http://www.w3.org/2000/svg">
<g id="cancel">
<path id="Vector" d="M7.07234 14.4638C5.68802 14.4636 4.33485 14.053 3.1839 13.2838C2.03295 12.5146 1.13591 11.4214 0.606182 10.1425C0.0764556 8.86351 -0.0621659 7.45621 0.207843 6.09848C0.477852 4.74075 1.14437 3.49356 2.12312 2.5146C3.44221 1.23352 5.21241 0.522912 7.05115 0.536351C8.8899 0.549789 10.6495 1.28619 11.9497 2.58642C13.25 3.88664 13.9864 5.64626 13.9998 7.48501C14.0132 9.32375 13.3026 11.0939 12.0216 12.413C11.3732 13.0651 10.6019 13.5821 9.75235 13.9341C8.90282 14.2861 7.99191 14.4662 7.07234 14.4638ZM7.07234 1.28413C3.66476 1.28413 0.892653 4.05624 0.892653 7.46382C0.892653 10.8714 3.66476 13.6435 7.07234 13.6435C10.4799 13.6435 13.252 10.8714 13.252 7.46382C13.252 4.05624 10.4799 1.28413 7.07234 1.28413Z" fill="#505C59"/>
<path id="Vector_2" d="M9.51304 10.3147C9.4592 10.3148 9.40587 10.3042 9.35613 10.2836C9.30638 10.263 9.2612 10.2328 9.22319 10.1946L4.34152 5.31296C4.2668 5.2356 4.22546 5.13199 4.22639 5.02445C4.22733 4.91691 4.27047 4.81404 4.34651 4.73799C4.42256 4.66194 4.52543 4.61881 4.63297 4.61787C4.74051 4.61694 4.84412 4.65828 4.92148 4.73299L9.80316 9.61467C9.86046 9.67205 9.89947 9.74513 9.91526 9.82467C9.93105 9.90421 9.9229 9.98664 9.89185 10.0616C9.86081 10.1365 9.80825 10.2005 9.74082 10.2455C9.6734 10.2906 9.59413 10.3147 9.51304 10.3147Z" fill="#505C59"/>
<path id="Vector_3" d="M4.63164 10.3147C4.55055 10.3147 4.47128 10.2906 4.40386 10.2455C4.33643 10.2005 4.28387 10.1365 4.25283 10.0616C4.22178 9.98664 4.21363 9.90421 4.22942 9.82467C4.24521 9.74513 4.28422 9.67205 4.34152 9.61467L9.2232 4.73299C9.30056 4.65828 9.40417 4.61694 9.51171 4.61787C9.61925 4.61881 9.72212 4.66194 9.79817 4.73799C9.87422 4.81404 9.91735 4.91691 9.91829 5.02445C9.91922 5.13199 9.87788 5.2356 9.80316 5.31296L4.92149 10.1946C4.88348 10.2328 4.8383 10.263 4.78855 10.2836C4.73881 10.3042 4.68548 10.3148 4.63164 10.3147Z" fill="#505C59"/>
</g>
</svg>
