<svg width="10" height="12" viewBox="0 0 4 9" fill="none" xmlns="http://www.w3.org/2000/svg">
<path d="M4 4.50409C3.99923 4.59225 3.96425 4.67666 3.90243 4.73952L0.57251 8.06944C0.509707 8.1301 0.425592 8.16366 0.338283 8.16291C0.250973 8.16215 0.167454 8.12713 0.105715 8.06539C0.0439755 8.00365 0.00895495 7.92013 0.00819626 7.83282C0.00743756 7.74551 0.0410015 7.6614 0.101659 7.59859L3.19616 4.50409L0.101659 1.4096C0.0698545 1.37888 0.0444864 1.34214 0.0270346 1.30151C0.00958281 1.26088 0.000396785 1.21719 1.25728e-05 1.17297C-0.000371639 1.12876 0.00805356 1.08491 0.0247967 1.04399C0.0415399 1.00306 0.0662656 0.965884 0.0975311 0.934619C0.128797 0.903353 0.165976 0.878627 0.2069 0.861884C0.247823 0.845141 0.291671 0.836716 0.335886 0.8371C0.3801 0.837484 0.423796 0.846671 0.464422 0.864122C0.505048 0.881574 0.541792 0.906942 0.57251 0.938746L3.90243 4.26867C3.96425 4.33153 3.99923 4.41594 4 4.50409Z" fill="#505C59"/>
</svg>
