<svg viewBox="0 0 100 100" xmlns="http://www.w3.org/2000/svg">
    <path d="M50 100C22.4297 100 0 77.5703 0 50C0 22.4297 22.4297 0 50 0C77.5703 0 100 22.4297 100 50C100 77.5703 77.5703 100 50 100ZM50 7.14264C26.3687 7.14264 7.14264 26.3687 7.14264 50C7.14264 73.6313 26.3687 92.8574 50 92.8574C73.6313 92.8574 92.8574 73.6313 92.8574 50C92.8574 26.3687 73.6313 7.14264 50 7.14264Z"
          fill="currentColor"/>
    <path d="M50 7.14264C26.3687 7.14264 7.14264 26.3687 7.14264 50C7.14264 73.6313 26.3687 92.8574 50 92.8574C73.6313 92.8574 92.8574 73.6313 92.8574 50C92.8574 26.3687 73.6313 7.14264 50 7.14264Z"
          fill="white" class="background"/>
    <path d="M29.6186 70.3819C30.316 71.08 31.2292 71.4287 32.1432 71.4287C33.0572 71.4287 33.9712 71.08 34.6685 70.3819L50.0007 55.0498L65.3326 70.3817C66.0299 71.0798 66.9439 71.4284 67.8579 71.4284C68.7719 71.4284 69.6852 71.0798 70.3825 70.3817C71.7779 68.987 71.7779 66.7272 70.3825 65.3318L55.0506 49.9999L70.3825 34.668C71.7779 33.2733 71.7771 31.0127 70.3825 29.6181C68.9878 28.2226 66.728 28.2226 65.3326 29.6181L50.0007 44.95L34.6685 29.6178C33.2739 28.2224 31.0133 28.2232 29.6186 29.6178C28.2232 31.0125 28.2232 33.2723 29.6186 34.6677L44.9508 49.9999L29.6186 65.332C28.2232 66.7267 28.2232 68.9873 29.6186 70.3819Z"
          fill="currentColor"/>
</svg>
