<svg width="12" height="8" viewBox="0 0 8 5" fill="none" xmlns="http://www.w3.org/2000/svg">
<path d="M3.65882 4.5C3.57067 4.49923 3.48626 4.46425 3.4234 4.40243L0.0934749 1.07251C0.0328176 1.00971 -0.000746108 0.925592 1.2588e-05 0.838283C0.000771284 0.750973 0.0357917 0.667454 0.0975312 0.605715C0.159271 0.543975 0.242789 0.508955 0.330099 0.508196C0.417408 0.507438 0.501523 0.541001 0.564326 0.601659L3.65882 3.69616L6.75332 0.601659C6.78404 0.569855 6.82078 0.544486 6.86141 0.527035C6.90204 0.509583 6.94573 0.500397 6.98994 0.500013C7.03416 0.499628 7.07801 0.508054 7.11893 0.524797C7.15985 0.54154 7.19703 0.566266 7.2283 0.597531C7.25956 0.628797 7.28429 0.665976 7.30103 0.7069C7.31778 0.747823 7.3262 0.791671 7.32582 0.835886C7.32543 0.8801 7.31625 0.923796 7.2988 0.964422C7.28134 1.00505 7.25598 1.04179 7.22417 1.07251L3.89425 4.40243C3.83139 4.46425 3.74698 4.49923 3.65882 4.5Z" fill="#00B272"/>
</svg>
