<svg width="14" height="15" viewBox="0 0 14 15" fill="none" xmlns="http://www.w3.org/2000/svg">
<g id="Group">
<g id="Group_2">
<path id="Vector" d="M6.95679 14.5C6.73027 14.5 6.54663 14.3164 6.54663 14.0898C6.54663 13.8633 6.73027 13.6797 6.95679 13.6797C10.3643 13.6797 13.1365 10.9075 13.1365 7.5C13.1365 4.0925 10.3643 1.32031 6.95679 1.32031C6.73027 1.32031 6.54663 1.13667 6.54663 0.910156C6.54663 0.683641 6.73027 0.5 6.95679 0.5C8.82655 0.5 10.5844 1.22814 11.9066 2.55023C13.2287 3.87236 13.9568 5.63023 13.9568 7.5C13.9568 9.36977 13.2287 11.1276 11.9066 12.4498C10.5844 13.7719 8.82655 14.5 6.95679 14.5Z" fill="#505C59"/>
</g>
<g id="Group_3">
<path id="Vector_2" d="M10.2517 11.2051C10.1467 11.2051 10.0418 11.165 9.9617 11.0849L6.66678 7.79001C6.58986 7.71309 6.54663 7.60877 6.54663 7.5V3.38135C6.54663 3.15483 6.73027 2.97119 6.95679 2.97119C7.1833 2.97119 7.36694 3.15483 7.36694 3.38135V7.33011L10.5417 10.5049C10.7019 10.6651 10.7019 10.9248 10.5417 11.085C10.4617 11.165 10.3567 11.2051 10.2517 11.2051Z" fill="#505C59"/>
</g>
<g id="Group_4">
<path id="Vector_3" d="M4.57377 1.76484C4.62442 1.76484 4.67593 1.7554 4.72583 1.73547C4.72731 1.7349 4.87332 1.67673 5.0305 1.6276C5.19844 1.57513 5.39699 1.51896 5.39898 1.51841C5.61699 1.45684 5.74376 1.23018 5.68218 1.0122C5.62063 0.794215 5.39414 0.667395 5.17599 0.729001C5.16746 0.731407 4.96479 0.788719 4.78583 0.844637C4.5971 0.903618 4.4282 0.97102 4.42111 0.973864C4.21087 1.05803 4.10868 1.29663 4.19277 1.5069C4.25691 1.66727 4.41094 1.76484 4.57377 1.76484Z" fill="#505C59"/>
<path id="Vector_4" d="M2.91749 1.78146C2.91032 1.78671 2.7406 1.91135 2.59259 2.02638C2.4364 2.14773 2.30182 2.27004 2.29618 2.27518C2.12873 2.42765 2.11662 2.68692 2.269 2.85443C2.34994 2.94335 2.46098 2.98853 2.57249 2.98853C2.67098 2.98853 2.76978 2.95328 2.84836 2.88183C2.84954 2.88076 2.96589 2.77516 3.09593 2.67413C3.23489 2.56615 3.4012 2.444 3.40287 2.4428C3.5855 2.30876 3.62487 2.05208 3.49086 1.86946C3.35679 1.68683 3.10012 1.64742 2.91749 1.78146Z" fill="#505C59"/>
<path id="Vector_5" d="M1.73843 3.43984C1.54891 3.31572 1.29473 3.36871 1.17059 3.55821C1.16572 3.56562 1.05038 3.74179 0.952001 3.90143C0.848231 4.06978 0.765024 4.23146 0.761524 4.23827C0.658083 4.43974 0.737516 4.68685 0.93893 4.79034C0.998923 4.82116 1.06293 4.83576 1.12604 4.83576C1.27485 4.83576 1.41846 4.7545 1.49119 4.61307C1.49188 4.61168 1.5639 4.47198 1.65028 4.33184C1.74265 4.18203 1.85566 4.00938 1.85678 4.00766C1.98092 3.81816 1.9279 3.56395 1.73843 3.43984Z" fill="#505C59"/>
<path id="Vector_6" d="M0.371166 7.0695C0.387408 7.07138 0.403514 7.07234 0.419455 7.07234C0.624615 7.07234 0.80183 6.91867 0.826303 6.70993C0.826494 6.70837 0.844787 6.55382 0.876889 6.39083C0.910904 6.2182 0.956295 6.01695 0.95676 6.01493C1.00669 5.79399 0.868057 5.5744 0.647092 5.52447C0.4261 5.47451 0.206584 5.6132 0.156627 5.83413C0.154658 5.84277 0.108283 6.04824 0.0720528 6.23226C0.0338536 6.42621 0.0124708 6.60679 0.0115958 6.61436C-0.0148183 6.83935 0.146154 7.04314 0.371166 7.0695Z" fill="#505C59"/>
<path id="Vector_7" d="M0.937823 8.90679C0.93744 8.90529 0.900444 8.75419 0.873456 8.59026C0.844854 8.41663 0.816882 8.21221 0.816608 8.21018C0.785956 7.98575 0.579538 7.82852 0.354718 7.85928C0.13028 7.88993 -0.0268097 8.09671 0.00381531 8.32115C0.00501844 8.32992 0.0335653 8.53858 0.0640262 8.72356C0.0961552 8.91869 0.139413 9.09536 0.141245 9.10279C0.187265 9.28985 0.354827 9.41506 0.539206 9.41506C0.571663 9.41506 0.604612 9.41118 0.637534 9.40308C0.857515 9.34894 0.991964 9.12677 0.937823 8.90679Z" fill="#505C59"/>
<path id="Vector_8" d="M1.64057 10.6517C1.55299 10.4991 1.45518 10.3174 1.4542 10.3156C1.34687 10.1161 1.09807 10.0414 0.898708 10.1486C0.699208 10.2559 0.624477 10.5047 0.731802 10.7041C0.735985 10.712 0.835817 10.8974 0.929141 11.06C1.02758 11.2315 1.12993 11.3818 1.13425 11.3881C1.21363 11.5044 1.34231 11.567 1.47328 11.567C1.55288 11.567 1.63335 11.5439 1.70404 11.4957C1.89115 11.368 1.93936 11.1129 1.8118 10.9258C1.8109 10.9244 1.72252 10.7945 1.64057 10.6517Z" fill="#505C59"/>
<path id="Vector_9" d="M3.33729 12.5106C3.336 12.5097 3.20773 12.419 3.08094 12.3139C2.94545 12.2016 2.79022 12.0657 2.78869 12.0643C2.61837 11.9151 2.35917 11.9321 2.2099 12.1025C2.06061 12.2729 2.0777 12.532 2.24805 12.6813C2.25472 12.6871 2.41315 12.8259 2.55753 12.9455C2.70978 13.0717 2.85831 13.1766 2.86457 13.181C2.9364 13.2316 3.01884 13.2559 3.10046 13.2559C3.22928 13.2559 3.3561 13.1954 3.436 13.0822C3.56651 12.8971 3.52232 12.6412 3.33729 12.5106Z" fill="#505C59"/>
<path id="Vector_10" d="M5.32116 13.4609C5.31963 13.4605 5.16916 13.4209 5.01226 13.3664C4.84604 13.3087 4.65305 13.2357 4.65111 13.235C4.43933 13.1548 4.20256 13.2616 4.12233 13.4734C4.04216 13.6853 4.14891 13.922 4.36077 14.0022C4.36908 14.0053 4.56607 14.0798 4.7432 14.1413C4.92996 14.2062 5.1058 14.2524 5.11319 14.2544C5.14805 14.2635 5.18302 14.2679 5.21742 14.2679C5.39939 14.2679 5.56562 14.1459 5.61391 13.9616C5.67138 13.7424 5.5403 13.5183 5.32116 13.4609Z" fill="#505C59"/>
</g>
</g>
</svg>
