<svg width="200" height="200" viewBox="0 0 200 200" fill="none" xmlns="http://www.w3.org/2000/svg">
<circle cx="100" cy="100" r="100" fill="#FFB822"/>
<path fill-rule="evenodd" clip-rule="evenodd" d="M123.92 83.2053C123.017 82.4488 122.072 81.74 121.086 81.0835C123.742 77.1258 127.593 72.4037 132.032 70.0466C127.536 68.6413 120.003 68.3096 112.339 77.0088C111.081 76.6412 109.788 76.3472 108.465 76.1322C107.927 76.0446 107.383 75.9702 106.835 75.9092L99.4711 75.0901C98.2271 74.9422 96.9682 74.8783 95.7249 74.883C95.5866 74.8835 95.4483 74.8849 95.3102 74.8872C89.5666 61.9819 81.175 60.4177 76.0473 60.8902C80.6963 64.8159 83.7473 71.9586 85.3586 76.6414C84.2449 77.0274 83.1515 77.4757 82.0828 77.9851C80.6318 73.7328 77.6049 66.3853 73.1699 63.1054C72.154 62.3542 71.6963 61.0743 72.0064 59.8527C72.3164 58.6234 73.3337 57.7119 74.5916 57.5241C75.3029 57.4196 76.1042 57.3395 76.9761 57.3124C75.5523 55.3943 73.8634 53.4674 71.8612 51.6166C70.5672 50.4163 70.1534 48.5947 70.8074 46.9752C71.469 45.3403 73.0385 44.3123 74.8345 44.3208C80.2302 44.3921 89.6303 45.8978 96.0408 54.4628C99.616 41.9778 103.124 36.0988 105.524 33.3438C106.357 32.3872 107.629 31.8942 108.903 32.0191C110.178 32.1516 111.309 32.8873 111.927 33.991C115.119 39.6847 116.604 46.7655 116.367 55.0884C123.677 49.9885 131.675 50.195 137.429 51.4398C139.172 51.8146 140.474 53.1828 140.75 54.9285C141.017 56.6589 140.202 58.3401 138.671 59.2155C135.115 61.245 132.209 63.5985 129.856 65.9621C131.535 66.2019 132.999 66.6284 134.178 67.0712C135.369 67.5167 136.164 68.6274 136.207 69.8936C136.25 71.152 135.525 72.3066 134.368 72.8218C130.232 74.6844 126.433 79.4368 123.92 83.2053ZM122.018 66.4378C123.082 66.1498 124.116 65.9654 125.111 65.8634C127.979 62.545 131.831 59.0688 136.917 56.1633C137.284 55.956 137.291 55.6356 137.267 55.4602C137.236 55.2772 137.127 54.965 136.689 54.8674C132.382 53.9393 126.642 53.6613 121.113 56.3747C120.989 56.4908 120.845 56.5908 120.685 56.6698C120.287 56.8697 111.186 61.5185 109.237 73.7076C109.102 74.5624 108.352 75.1832 107.5 75.1863C107.408 75.1866 107.309 75.1794 107.216 75.1645C106.249 75.0156 105.593 74.1103 105.751 73.1562C105.797 72.8672 105.846 72.5819 105.899 72.3002C105.869 72.4105 105.835 72.5206 105.799 72.6304C105.488 73.5698 104.462 74.0848 103.517 73.7756C102.809 73.5417 102.347 72.9256 102.283 72.2318C102.202 71.3395 102.291 70.462 102.434 69.5996C102.576 68.7294 102.811 67.8742 103.053 67.019C103.296 66.1638 103.584 65.3083 103.896 64.4605C104.215 63.6126 104.557 62.7647 104.991 61.9316C105.06 61.8016 105.221 61.7476 105.359 61.8158C105.436 61.8613 105.482 61.9221 105.498 61.9906C105.732 62.9052 105.873 63.8047 105.992 64.6967C106.103 65.5964 106.183 66.4885 106.232 67.3732L106.233 67.3823C106.274 68.2715 106.315 69.1532 106.25 70.0277C106.225 70.4123 106.189 70.7955 106.133 71.1766C107.414 65.5573 110.054 61.4765 112.623 58.6623C113.19 52.2096 112.976 43.0608 108.848 35.7036C108.771 35.5666 108.64 35.5289 108.548 35.5216C108.464 35.5143 108.318 35.5225 108.203 35.6526C106.25 37.8989 102.384 43.9312 98.4342 59.1549C99.9939 62.7118 101.135 67.3654 100.329 72.7372C100.215 73.5042 99.5991 74.079 98.856 74.1933C98.9022 74.3023 98.9481 74.4117 98.9937 74.5217L108.863 75.6423C112.842 70.8188 117.257 67.7263 122.018 66.4378ZM74.7942 47.8527C79.7281 47.9218 86.0196 49.1741 91.0051 54.0469C91.0224 54.066 91.0413 54.086 91.0597 54.1046C91.1743 54.2237 97.5688 60.8678 97.0204 70.3769C94.2385 65.2786 90.7453 61.6238 86.6028 59.4777C84.8703 58.5777 83.1606 58.0175 81.5458 57.6914C79.695 54.828 77.3206 51.8729 74.2767 49.0598C73.9686 48.7711 74.0289 48.4582 74.0973 48.2977C74.1657 48.1297 74.3413 47.8544 74.7787 47.8528L74.7942 47.8527Z" fill="#30E542"/>
<path d="M122.018 66.4378C123.082 66.1498 124.116 65.9654 125.111 65.8634C127.979 62.545 131.831 59.0688 136.917 56.1633C137.284 55.956 137.291 55.6356 137.267 55.4602C137.236 55.2772 137.127 54.965 136.689 54.8674C132.382 53.9393 126.642 53.6613 121.113 56.3747C120.989 56.4908 120.845 56.5908 120.685 56.6698C120.287 56.8697 111.186 61.5185 109.237 73.7076C109.102 74.5624 108.352 75.1832 107.5 75.1863C107.408 75.1866 107.309 75.1794 107.216 75.1645C106.249 75.0156 105.593 74.1103 105.751 73.1562C105.797 72.8672 105.846 72.5819 105.899 72.3002C105.869 72.4105 105.835 72.5206 105.799 72.6304C105.488 73.5698 104.462 74.0848 103.517 73.7756C102.809 73.5417 102.347 72.9256 102.283 72.2318C102.202 71.3395 102.291 70.462 102.434 69.5996C102.576 68.7294 102.811 67.8742 103.053 67.019C103.296 66.1638 103.584 65.3083 103.896 64.4605C104.215 63.6126 104.557 62.7647 104.991 61.9316C105.06 61.8016 105.221 61.7476 105.359 61.8158C105.436 61.8613 105.482 61.9221 105.498 61.9906C105.732 62.9052 105.873 63.8047 105.992 64.6967C106.103 65.5964 106.183 66.4885 106.232 67.3732L106.233 67.3823C106.274 68.2715 106.315 69.1532 106.25 70.0277C106.225 70.4123 106.189 70.7955 106.133 71.1766C107.414 65.5573 110.054 61.4765 112.623 58.6623C113.19 52.2096 112.976 43.0608 108.848 35.7036C108.771 35.5666 108.64 35.5289 108.548 35.5216C108.464 35.5143 108.318 35.5225 108.203 35.6526C106.25 37.8989 102.384 43.9312 98.4342 59.1549C99.9939 62.7118 101.135 67.3654 100.329 72.7372C100.215 73.5042 99.5991 74.079 98.856 74.1933C98.9022 74.3023 98.9481 74.4117 98.9937 74.5217L108.863 75.6423C112.842 70.8188 117.257 67.7263 122.018 66.4378Z" fill="#30E542"/>
<path d="M91.0051 54.0469C86.0196 49.1741 79.7281 47.9218 74.7942 47.8527L74.7787 47.8528C74.3413 47.8544 74.1657 48.1297 74.0973 48.2977C74.0289 48.4582 73.9686 48.7711 74.2767 49.0598C77.3206 51.8729 79.695 54.828 81.5458 57.6914C83.1606 58.0175 84.8703 58.5777 86.6028 59.4777C90.7453 61.6238 94.2385 65.2786 97.0204 70.3769C97.5688 60.8678 91.1743 54.2237 91.0597 54.1046C91.0413 54.086 91.0224 54.066 91.0051 54.0469Z" fill="#30E542"/>
<path d="M95.3102 74.8872C89.5666 61.9819 81.175 60.4177 76.0473 60.8902C80.6963 64.8159 83.7473 71.9586 85.3586 76.6414C85.4801 76.5993 85.6019 76.5579 85.724 76.5172C88.7991 75.4931 92.0246 74.9414 95.3102 74.8872Z" fill="#30E542"/>
<path d="M112.339 77.0088C115.015 77.791 118.768 79.688 121.086 81.0835C123.742 77.1258 127.593 72.4037 132.032 70.0466C127.536 68.6413 120.003 68.3096 112.339 77.0088Z" fill="#30E542"/>
<path fill-rule="evenodd" clip-rule="evenodd" d="M123.92 83.2053C123.017 82.4488 122.072 81.74 121.086 81.0835C123.742 77.1258 127.593 72.4037 132.032 70.0466C127.536 68.6413 120.003 68.3096 112.339 77.0088C110.569 76.4916 108.73 76.12 106.835 75.9092L99.4711 75.0901C98.2271 74.9422 96.9682 74.8783 95.7249 74.883C95.5866 74.8835 95.4483 74.8849 95.3102 74.8872C89.5666 61.9819 81.175 60.4177 76.0473 60.8902C80.6963 64.8159 83.7473 71.9586 85.3586 76.6414C84.2449 77.0274 83.1515 77.4757 82.0828 77.9851C80.6318 73.7328 77.6049 66.3853 73.1699 63.1054C72.154 62.3542 71.6963 61.0743 72.0064 59.8527C72.3164 58.6234 73.3337 57.7119 74.5916 57.5241C75.3029 57.4196 76.1042 57.3395 76.9761 57.3124C75.5523 55.3943 73.8634 53.4674 71.8612 51.6166C70.5672 50.4163 70.1534 48.5947 70.8074 46.9752C71.469 45.3403 73.0385 44.3123 74.8345 44.3208C80.2302 44.3921 89.6303 45.8978 96.0408 54.4628C99.616 41.9778 103.124 36.0988 105.524 33.3438C106.357 32.3872 107.629 31.8942 108.903 32.0191C110.178 32.1516 111.309 32.8873 111.927 33.991C115.119 39.6847 116.604 46.7655 116.367 55.0884C123.677 49.9885 131.675 50.195 137.429 51.4398C139.172 51.8146 140.474 53.1828 140.75 54.9285C141.017 56.6589 140.202 58.3401 138.671 59.2155C135.115 61.245 132.209 63.5985 129.856 65.9621C131.535 66.2019 132.999 66.6284 134.178 67.0712C135.369 67.5167 136.164 68.6274 136.207 69.8936C136.25 71.152 135.525 72.3066 134.368 72.8218C130.232 74.6844 126.433 79.4368 123.92 83.2053ZM122.018 66.4378C123.082 66.1498 124.116 65.9654 125.111 65.8634C127.979 62.545 131.831 59.0688 136.917 56.1633C137.284 55.956 137.291 55.6356 137.267 55.4602C137.236 55.2772 137.127 54.965 136.689 54.8674C132.382 53.9393 126.642 53.6613 121.113 56.3747C120.989 56.4908 120.845 56.5908 120.685 56.6698C120.287 56.8697 111.186 61.5185 109.237 73.7076C109.102 74.5624 108.352 75.1832 107.5 75.1863C107.408 75.1866 107.309 75.1794 107.216 75.1645C106.249 75.0156 105.593 74.1103 105.751 73.1562C105.797 72.8672 105.846 72.5819 105.899 72.3002C105.869 72.4105 105.835 72.5206 105.799 72.6304C105.488 73.5698 104.462 74.0848 103.517 73.7756C102.809 73.5417 102.347 72.9256 102.283 72.2318C102.202 71.3395 102.291 70.462 102.434 69.5996C102.576 68.7294 102.811 67.8742 103.053 67.019C103.296 66.1638 103.584 65.3083 103.896 64.4605C104.215 63.6126 104.557 62.7647 104.991 61.9316C105.06 61.8016 105.221 61.7476 105.359 61.8158C105.436 61.8613 105.482 61.9221 105.498 61.9906C105.732 62.9052 105.873 63.8047 105.992 64.6967C106.103 65.5964 106.183 66.4885 106.232 67.3732L106.233 67.3823C106.274 68.2715 106.315 69.1532 106.25 70.0277C106.225 70.4123 106.189 70.7955 106.133 71.1766C107.414 65.5573 110.054 61.4765 112.623 58.6623C113.19 52.2096 112.976 43.0608 108.848 35.7036C108.771 35.5666 108.64 35.5289 108.548 35.5216C108.464 35.5143 108.318 35.5225 108.203 35.6526C106.25 37.8989 102.384 43.9312 98.4342 59.1549C99.9939 62.7118 101.135 67.3654 100.329 72.7372C100.215 73.5042 99.5991 74.079 98.856 74.1933C98.9022 74.3023 98.9481 74.4117 98.9937 74.5217L108.863 75.6423C112.842 70.8188 117.257 67.7263 122.018 66.4378ZM74.7942 47.8527C79.7281 47.9218 86.0196 49.1741 91.0051 54.0469C91.0224 54.066 91.0413 54.086 91.0597 54.1046C91.1743 54.2237 97.5688 60.8678 97.0204 70.3769C94.2385 65.2786 90.7453 61.6238 86.6028 59.4777C84.8703 58.5777 83.1606 58.0175 81.5458 57.6914C79.695 54.828 77.3206 51.8729 74.2767 49.0598C73.9686 48.7711 74.0289 48.4582 74.0973 48.2977C74.1657 48.1297 74.3413 47.8544 74.7787 47.8528L74.7942 47.8527Z" fill="#00133F"/>
<path fill-rule="evenodd" clip-rule="evenodd" d="M99.0759 56.7582C99.0754 56.7644 99.0753 56.7678 99.0753 56.7678C101.833 52.061 108.047 36.9869 108.642 35.5391C108.609 35.529 108.577 35.5239 108.548 35.5216C108.464 35.5143 108.318 35.5225 108.203 35.6526C106.356 37.7771 102.798 43.288 99.0759 56.7582Z" fill="#7BEE86"/>
<path d="M85.3586 76.6414C85.4801 76.5993 85.6019 76.5579 85.724 76.5172C88.7991 75.4931 92.0246 74.9414 95.3102 74.8872C94.4972 73.0604 93.6311 71.4609 92.7288 70.0622C89.4403 70.2811 86.2762 70.7361 83.2833 71.3967C84.1361 73.277 84.826 75.0936 85.3586 76.6414Z" fill="#2CD246"/>
<path fill-rule="evenodd" clip-rule="evenodd" d="M125.384 75.5149C122.829 74.3836 120.092 73.4021 117.213 72.5865C115.613 73.699 113.979 75.1471 112.339 77.0088C115.015 77.791 118.768 79.688 121.086 81.0835C122.291 79.2872 123.743 77.3335 125.384 75.5149Z" fill="#2CD246"/>
<path d="M78.8515 53.9595C79.8545 55.208 80.7487 56.4582 81.5458 57.6914C83.1606 58.0175 84.8703 58.5777 86.6028 59.4777C90.7453 61.6238 94.2385 65.2786 97.0204 70.3769C97.0546 69.7836 97.0618 69.2014 97.0451 68.6313C93.3751 59.1501 84.5558 55.4129 78.8515 53.9595Z" fill="#2CD246"/>
<path d="M98.4342 59.1549C99.9939 62.7118 101.135 67.3654 100.329 72.7372C100.215 73.5042 99.5991 74.079 98.856 74.1933C98.9022 74.3023 98.9481 74.4117 98.9937 74.5217L108.863 75.6423C112.842 70.8188 117.257 67.7263 122.018 66.4378C123.082 66.1498 124.116 65.9654 125.111 65.8634C125.954 64.888 126.882 63.8989 127.901 62.9147C118.057 63.0279 113.528 68.2769 111.926 70.7788C111.288 70.6398 110.64 70.5108 109.987 70.3877C109.68 71.426 109.425 72.5317 109.237 73.7076C109.102 74.5624 108.352 75.1832 107.5 75.1863C107.408 75.1866 107.309 75.1794 107.216 75.1645C106.249 75.0156 105.593 74.1103 105.751 73.1562C105.797 72.8672 105.846 72.5819 105.899 72.3002C105.869 72.4105 105.835 72.5206 105.799 72.6304C105.488 73.5698 104.462 74.0848 103.517 73.7756C102.809 73.5417 102.347 72.9256 102.283 72.2318C102.202 71.3395 102.291 70.462 102.434 69.5996C102.555 68.8617 102.742 68.1345 102.944 67.4091C101.983 64.5863 100.592 61.1161 99.4361 58.3358C99.2916 57.9883 99.1508 57.6515 99.0149 57.3282L98.957 57.1904C98.783 57.8276 98.6087 58.4823 98.4342 59.1549Z" fill="#2CD246"/>
<path d="M106.173 66.4861C106.196 66.7827 106.216 67.0784 106.232 67.3732L106.233 67.3823C106.274 68.2715 106.315 69.1532 106.25 70.0277C106.225 70.4123 106.189 70.7955 106.133 71.1766C107.414 65.5573 110.054 61.4765 112.623 58.6623C112.696 57.8333 112.756 56.9598 112.797 56.0512C110.009 58.6035 107.707 62.984 106.173 66.4861Z" fill="#2CD246"/>
<path fill-rule="evenodd" clip-rule="evenodd" d="M99.0759 56.7582C99.0363 56.9014 98.9966 57.0454 98.957 57.1904C99.8297 53.995 100.694 51.2391 101.531 48.8639C100.732 51.1313 99.9082 53.7457 99.0759 56.7582Z" fill="#2CD246"/>
<path d="M97.4499 169.6C95.961 169.605 94.4563 169.527 92.936 169.357L92.2527 169.284C70.8916 166.907 55.4533 147.697 57.8442 126.46L60.5023 102.834C61.5642 93.4323 66.237 85.0088 73.6749 79.1075C81.1126 73.2061 90.4122 70.532 99.872 71.5874L107.235 72.4065C126.761 74.5761 140.866 92.1284 138.675 111.534L136.017 135.16C133.797 154.887 116.96 169.527 97.4499 169.6ZM95.7249 74.883C88.5257 74.9099 81.5965 77.3234 75.8804 81.8605C69.1848 87.1793 64.9693 94.7696 64.0113 103.233L61.3532 126.859C59.1776 146.165 73.2125 163.634 92.6386 165.796L93.3219 165.87C112.748 168.032 130.325 154.083 132.5 134.777L135.158 111.151C137.126 93.6757 124.425 77.8647 106.835 75.9092L99.4711 75.0901C98.2271 74.9422 96.9682 74.8783 95.7249 74.883Z" fill="#00133F"/>
<path d="M95.7249 74.883C88.5257 74.9099 81.5965 77.3234 75.8804 81.8605C69.1848 87.1793 64.9693 94.7696 64.0113 103.233L61.3532 126.859C59.1776 146.165 73.2125 163.634 92.6386 165.796L93.3219 165.87C112.748 168.032 130.325 154.083 132.5 134.777L135.158 111.151C137.126 93.6757 124.425 77.8647 106.835 75.9092L99.4711 75.0901C98.2271 74.9422 96.9682 74.8783 95.7249 74.883Z" fill="#FFD225"/>
<path fill-rule="evenodd" clip-rule="evenodd" d="M87.9946 113.679C91.5106 111.795 95.155 109.781 98.8022 107.675C95.1445 104.485 91.5093 101.165 88.0657 97.7912C81.9001 101.163 76.1391 103.969 71.6031 106.022C73.8662 108.577 76.5798 111.45 79.8104 114.607C79.8263 117.394 81.2597 119.673 83.2683 119.892C83.8788 119.959 84.4787 119.827 85.0355 119.536C89.0078 123.157 93.5949 127.074 98.884 131.26C104.552 128.295 110.327 125.062 115.825 121.631C115.137 121.099 114.439 120.555 113.732 120C114.186 119.173 114.502 118.183 114.62 117.103C114.631 117.002 114.64 116.902 114.647 116.803C115.996 117.869 117.312 118.896 118.589 119.882C123.764 116.544 128.625 113.048 132.856 109.47C128.815 106.579 124.081 102.775 119.206 98.4603C114.805 101.558 109.767 104.804 104.1 108.166C104.356 108.382 104.611 108.599 104.866 108.816C105.086 109.003 105.308 109.192 105.532 109.381C106.538 110.226 107.538 111.057 108.53 111.872C107.836 112.52 107.264 113.438 106.903 114.523C105.052 113.005 103.174 111.435 101.289 109.824C97.468 112.043 93.3857 114.316 89.0427 116.636C88.3013 117.03 87.5652 117.419 86.836 117.802C87.4077 116.905 87.8092 115.777 87.9451 114.527C87.9763 114.241 87.9925 113.957 87.9946 113.679ZM117.994 145.308C123.256 142.336 128.064 139.305 132.466 136.199C132.979 135.839 133.623 135.829 134.139 136.14L133.968 137.689C133.929 138.033 133.877 138.376 133.825 138.72C133.808 138.834 133.79 138.948 133.774 139.062C129.801 141.846 125.498 144.57 120.841 147.242C123.358 148.934 125.974 150.656 128.697 152.407C128.14 153.271 127.545 154.113 126.911 154.916C123.756 152.884 120.733 150.889 117.847 148.932C112.233 152.034 106.135 155.078 99.5075 158.078C103.346 160.727 106.908 163.105 109.986 165.159L110.503 165.504C110.78 165.686 110.973 165.937 111.082 166.219C109.932 166.62 108.751 166.952 107.547 167.231C104.208 165.001 100.361 162.422 96.2206 159.539C91.7073 161.524 86.964 163.487 81.975 165.443C80.6146 164.96 79.2847 164.4 78.0158 163.764C78.1383 163.672 78.2686 163.588 78.4218 163.527C83.6332 161.524 88.576 159.507 93.2732 157.475C88.0554 153.78 82.4752 149.644 76.94 145.164C71.377 147.588 66.7866 149.428 63.8359 150.53C63.3107 149.639 62.8237 148.726 62.3826 147.789C65.0191 146.811 69.1805 145.163 74.2684 142.97C69.5718 139.059 64.9587 134.911 60.6749 130.587C60.4986 130.626 60.3221 130.649 60.1455 130.627C59.8 130.583 59.477 130.424 59.2305 130.173C59.2453 130.036 59.2563 129.9 59.2673 129.765C59.2783 129.629 59.2893 129.494 59.3041 129.356L59.6904 125.961C60.143 125.921 60.6041 126.079 60.9432 126.429C61.0458 126.54 61.1517 126.648 61.2566 126.755C61.3093 126.809 61.3616 126.862 61.4132 126.915C64.4013 125.546 71.0285 122.455 79.2096 118.29C74.9114 114.18 71.4437 110.501 68.6763 107.33C66.2319 108.384 64.339 109.124 63.1969 109.509C62.9746 109.586 62.7444 109.603 62.5294 109.581C62.1685 109.544 61.8379 109.377 61.5913 109.126L61.8587 106.776C61.9659 106.707 62.0808 106.645 62.2034 106.599C63.1386 106.291 64.6407 105.698 66.5794 104.874C65.1298 103.125 63.9189 101.558 62.9237 100.204C62.8003 100.045 62.7228 99.8619 62.6761 99.6789L62.6877 99.6015C62.7438 99.2295 62.8007 98.8518 62.8711 98.4807C62.9703 98.3202 63.1002 98.1746 63.2609 98.0597C63.9498 97.5613 64.9174 97.7101 65.4189 98.3947C66.5067 99.8781 67.8641 101.612 69.5139 103.582C73.8967 101.612 79.6117 98.8451 85.7853 95.5038C82.7418 92.4336 79.898 89.3321 77.3614 86.2751C74.2441 87.9954 70.4064 89.9473 65.0436 92.5303C64.8674 92.6149 64.691 92.6613 64.5069 92.6774C65.0998 91.1724 65.8005 89.7281 66.6088 88.3521C70.2018 86.5918 73.013 85.1473 75.395 83.8416C74.5851 82.792 73.8061 81.7499 73.0807 80.7151C73.0688 80.6957 73.0589 80.6782 73.049 80.6606C73.0396 80.6439 73.0301 80.6272 73.0189 80.6086C73.7838 79.9421 74.5797 79.3136 75.4063 78.7232C75.4758 78.7992 75.5451 78.8753 75.6067 78.9588C76.3706 80.0469 77.2116 81.1726 78.1062 82.3135C82.0245 80.0253 84.9134 77.982 89.0866 75.0302L89.1688 74.9721C90.072 74.328 91.0442 73.6454 92.0929 72.9092C93.1288 72.8521 94.1649 72.8557 95.2166 72.9052C95.5414 73.5752 95.345 74.3922 94.7174 74.8293C93.3395 75.7955 92.0995 76.6698 90.9589 77.475C86.7948 80.4198 83.8861 82.4749 80.0649 84.7318C82.5089 87.6517 85.3526 90.7303 88.5809 93.9678C93.85 91.0266 99.3406 87.7108 104.523 84.1519C101.695 81.1037 99.0351 78.0092 96.6749 74.9669C96.2122 74.3813 96.2553 73.565 96.729 73.0216C96.8057 73.0289 96.8825 73.0344 96.9593 73.0398C97.0361 73.0452 97.1128 73.0507 97.1896 73.058L99.2859 73.2942C101.63 76.2985 104.267 79.355 107.064 82.3651C110.065 80.2106 112.919 77.9801 115.535 75.6971C116.58 76.0289 117.595 76.4064 118.579 76.83C118.503 77.0973 118.358 77.3419 118.137 77.5333C115.375 79.9694 112.36 82.3454 109.207 84.6303C112.512 88.0657 115.971 91.4091 119.406 94.516C123.508 91.5334 127.196 88.5218 130.217 85.5737C130.88 86.3722 131.505 87.2014 132.084 88.061C129.262 90.7795 125.827 93.6377 121.762 96.6277C126.606 100.889 131.287 104.609 135.235 107.394C135.43 107.218 135.622 107.039 135.813 106.862C135.913 106.768 136.014 106.674 136.114 106.582C136.466 106.245 136.934 106.121 137.379 106.18C137.352 107.073 137.301 107.973 137.197 108.874L136.945 111.133C136.639 111.332 136.286 111.425 135.925 111.388C135.779 111.373 135.633 111.328 135.495 111.268C131.257 114.914 126.374 118.48 121.167 121.878C127.194 126.463 132.058 129.915 134.598 131.683L134.621 131.706L134.324 134.346C134.079 134.454 133.802 134.493 133.534 134.464C133.288 134.434 133.042 134.344 132.819 134.192C130.502 132.568 125.139 128.774 118.411 123.635C112.944 127.081 107.193 130.344 101.524 133.34C106.435 137.128 111.9 141.128 117.994 145.308ZM116.842 96.3258C113.407 93.1959 109.956 89.8525 106.665 86.4171C101.529 89.9832 96.1151 93.2912 90.8842 96.2247C94.1196 99.3628 97.7009 102.629 101.62 106.032C106.881 102.923 112.08 99.6464 116.842 96.3258ZM81.5745 120.539C73.7534 124.543 67.1952 127.633 63.6862 129.249C68.0236 133.565 72.6903 137.689 77.4253 141.585C82.9421 139.146 89.2934 136.178 95.8888 132.812C90.3768 128.416 85.6411 124.307 81.5745 120.539ZM80.0967 143.749C85.701 148.228 91.3349 152.349 96.5525 156.014C103.211 153.044 109.347 150.039 114.992 146.974C108.898 142.756 103.425 138.726 98.5293 134.9C92.003 138.265 85.6746 141.256 80.0967 143.749Z" fill="#F0C423"/>
<path fill-rule="evenodd" clip-rule="evenodd" d="M95.7249 74.883C88.5257 74.9099 81.5965 77.3234 75.8804 81.8605C73.7113 83.5836 71.8025 85.545 70.1804 87.6973C72.3134 85.6781 77.2933 81.5871 84.9698 78.9266L84.9701 78.9951C85.1426 79.9861 87.1017 80.4747 89.3489 80.0849C91.5963 79.7027 93.273 78.5903 93.1003 77.5993C93.061 77.3707 92.9221 77.1653 92.7065 76.9982C99.7598 75.8901 108.345 76.2022 118.396 79.4767C114.904 77.6165 111.007 76.3731 106.835 75.9092L99.4711 75.0901C98.2271 74.9422 96.9682 74.8783 95.7249 74.883Z" fill="#F5D972"/>
<path d="M97.4499 169.6C95.961 169.605 94.4563 169.527 92.936 169.357L92.2527 169.284C70.8916 166.907 55.4533 147.697 57.8442 126.46L60.5023 102.834C61.5642 93.4323 66.237 85.0088 73.6749 79.1075C81.1126 73.2061 90.4122 70.532 99.872 71.5874L107.235 72.4065C126.761 74.5761 140.866 92.1284 138.675 111.534L136.017 135.16C133.797 154.887 116.96 169.527 97.4499 169.6ZM95.7249 74.883C88.5257 74.9099 81.5965 77.3234 75.8804 81.8605C69.1848 87.1793 64.9693 94.7696 64.0113 103.233L61.3532 126.859C59.1776 146.165 73.2125 163.634 92.6386 165.796L93.3219 165.87C112.748 168.032 130.325 154.083 132.5 134.777L135.158 111.151C137.126 93.6757 124.425 77.8647 106.835 75.9092L99.4711 75.0901C98.2271 74.9422 96.9682 74.8783 95.7249 74.883Z" fill="#00133F"/>
<path d="M111.211 110.861C113.446 111.104 114.968 113.898 114.62 117.103C114.271 120.308 112.17 122.711 109.943 122.467C107.709 122.224 106.186 119.43 106.535 116.225C106.883 113.02 108.977 110.617 111.211 110.861Z" fill="#00133F"/>
<path d="M111.16 115.555C111.286 114.372 110.76 113.352 109.977 113.263C109.194 113.182 108.46 114.07 108.326 115.246C108.2 116.429 108.726 117.449 109.51 117.537C110.293 117.626 111.026 116.738 111.16 115.555Z" fill="#FFE68F"/>
<path d="M87.9451 114.527C88.2937 111.322 86.7711 108.529 84.5368 108.285C82.3024 108.042 80.2085 110.445 79.8599 113.65C79.5113 116.855 81.0339 119.649 83.2683 119.892C85.5027 120.135 87.5965 117.732 87.9451 114.527Z" fill="#00133F"/>
<path d="M84.4786 112.982C84.6046 111.799 84.0788 110.779 83.2955 110.69C82.5121 110.609 81.7786 111.497 81.6449 112.673C81.5188 113.855 82.0447 114.876 82.8281 114.964C83.6114 115.053 84.3449 114.165 84.4786 112.982Z" fill="#FFE68F"/>
<path d="M96.7383 126.682C96.6309 126.682 96.5234 126.675 96.4235 126.668C94.7038 126.537 93.2179 125.284 92.2349 123.144C91.4146 121.339 91.0377 119.083 91.206 116.946C91.2572 116.298 91.8311 115.815 92.476 115.866L102.334 116.622C102.648 116.644 102.941 116.796 103.141 117.031C103.349 117.267 103.45 117.579 103.421 117.885C103.084 122.135 100.184 126.669 96.7383 126.682Z" fill="#00133F"/>
<path d="M92.9629 121.808C93.9656 121.072 95.3152 120.671 96.7511 120.795C98.3482 120.934 99.7176 121.692 100.574 122.756C99.4824 124.469 97.9976 125.619 96.5003 125.503C94.9109 125.387 93.6615 123.85 92.9629 121.808Z" fill="#F47DA2"/>
</svg>
