<svg width="14" height="15" viewBox="0 0 14 15" fill="none" xmlns="http://www.w3.org/2000/svg">
<g id="cancel">
<path id="Vector" d="M7.07231 14.4638C5.68799 14.4636 4.33482 14.0529 3.18387 13.2837C2.03292 12.5146 1.13588 11.4214 0.606151 10.1424C0.0764251 8.86348 -0.0621964 7.45617 0.207813 6.09845C0.477822 4.74072 1.14434 3.49353 2.12309 2.51457C3.44218 1.23349 5.21238 0.522882 7.05112 0.53632C8.88987 0.549758 10.6495 1.28616 11.9497 2.58639C13.2499 3.88661 13.9863 5.64623 13.9998 7.48498C14.0132 9.32372 13.3026 11.0939 12.0215 12.413C11.3731 13.0651 10.6019 13.5821 9.75232 13.9341C8.90279 14.2861 7.99188 14.4662 7.07231 14.4638ZM7.07231 1.2841C3.66473 1.2841 0.892623 4.05621 0.892623 7.46379C0.892623 10.8714 3.66473 13.6435 7.07231 13.6435C10.4799 13.6435 13.252 10.8714 13.252 7.46379C13.252 4.05621 10.4799 1.2841 7.07231 1.2841Z" fill="#C71B29"/>
<path id="Vector_2" d="M9.51301 10.3146C9.45917 10.3147 9.40584 10.3041 9.3561 10.2835C9.30635 10.2629 9.26117 10.2327 9.22316 10.1946L4.34148 5.31289C4.26677 5.23554 4.22543 5.13193 4.22636 5.02439C4.2273 4.91685 4.27043 4.81398 4.34648 4.73793C4.42253 4.66188 4.5254 4.61875 4.63294 4.61781C4.74048 4.61688 4.84409 4.65822 4.92145 4.73293L9.80312 9.61461C9.86043 9.67199 9.89944 9.74507 9.91523 9.82461C9.93102 9.90415 9.92287 9.98658 9.89182 10.0615C9.86078 10.1364 9.80822 10.2004 9.74079 10.2455C9.67337 10.2905 9.5941 10.3146 9.51301 10.3146Z" fill="#C71B29"/>
<path id="Vector_3" d="M4.63161 10.3146C4.55052 10.3146 4.47125 10.2905 4.40383 10.2455C4.3364 10.2004 4.28384 10.1364 4.2528 10.0615C4.22175 9.98658 4.2136 9.90415 4.22939 9.82461C4.24518 9.74507 4.28419 9.67199 4.34149 9.61461L9.22317 4.73293C9.30053 4.65822 9.40414 4.61688 9.51168 4.61781C9.61922 4.61875 9.72209 4.66188 9.79814 4.73793C9.87419 4.81398 9.91732 4.91685 9.91825 5.02439C9.91919 5.13193 9.87785 5.23554 9.80313 5.31289L4.92145 10.1946C4.88345 10.2327 4.83827 10.2629 4.78852 10.2835C4.73878 10.3041 4.68545 10.3147 4.63161 10.3146Z" fill="#C71B29"/>
</g>
</svg>
