<svg width="12" height="8" viewBox="0 0 10 6" fill="none" xmlns="http://www.w3.org/2000/svg">
<path d="M5.18212 5.62769C5.0663 5.62668 4.9554 5.58072 4.87281 5.4995L0.497811 1.1245C0.418117 1.04199 0.37402 0.931476 0.375017 0.816765C0.376013 0.702054 0.422025 0.592324 0.503141 0.511207C0.584257 0.430091 0.693987 0.38408 0.808698 0.383083C0.923409 0.382086 1.03392 0.426184 1.11644 0.505878L5.18212 4.57157L9.24781 0.505878C9.28817 0.464092 9.33644 0.430763 9.38982 0.407834C9.4432 0.384905 9.50061 0.372836 9.5587 0.372331C9.61679 0.371826 9.6744 0.382896 9.72817 0.404893C9.78193 0.426891 9.83078 0.459377 9.87186 0.500455C9.91294 0.541533 9.94542 0.590381 9.96742 0.644148C9.98942 0.697915 10.0005 0.755525 9.99998 0.813616C9.99948 0.871707 9.98741 0.929116 9.96448 0.982493C9.94155 1.03587 9.90822 1.08415 9.86644 1.1245L5.49144 5.4995C5.40885 5.58072 5.29795 5.62668 5.18212 5.62769Z" fill="#939EAE"/>
</svg>
