<svg width="116" height="96" viewBox="0 0 116 96" fill="none" xmlns="http://www.w3.org/2000/svg">
<g opacity="0.3">
<path opacity="0.3" d="M29.1998 95.8165C38.8946 95.8165 46.7537 94.9382 46.7537 93.8547C46.7537 92.7712 38.8946 91.8929 29.1998 91.8929C19.5051 91.8929 11.646 92.7712 11.646 93.8547C11.646 94.9382 19.5051 95.8165 29.1998 95.8165Z" fill="#11276B"/>
</g>
<path d="M23.28 89.6069C23.2629 89.641 23.2288 89.6752 23.1947 89.7093C23.1947 89.7093 23.2458 89.7263 23.3482 89.7775C23.4505 89.8287 23.6211 89.914 23.7917 90.0163C24.0647 90.1699 24.3888 90.3916 24.6959 90.6646C24.8494 90.8011 24.9859 90.9546 25.0712 91.1252C25.6853 92.1828 24.9518 93.6499 23.587 93.6499H18.4352C17.3946 93.6499 16.6098 92.7287 16.7634 91.7052C16.8316 91.3128 16.934 90.9034 17.1046 90.5622C17.531 89.7434 17.7528 88.8563 17.8552 87.9351C18.0599 86.0245 18.1452 83.0733 17.2751 80.5485H26.2141C26.2141 80.5485 26.2141 82.2886 25.6853 84.4551C25.2929 86.0245 24.6447 87.7987 23.5017 89.3169C23.4335 89.4022 23.3653 89.5046 23.28 89.6069Z" fill="#FFD225"/>
<g opacity="0.3">
<path opacity="0.3" d="M20.261 86.2122C19.2203 89.061 23.5022 89.2999 23.5022 89.2999C23.4681 89.3169 23.2634 89.4363 23.2634 89.6069C23.2634 89.6581 23.2804 89.7093 23.3316 89.7605C23.3998 89.8457 23.5363 89.914 23.7751 89.9993C23.6728 89.9993 19.698 89.8799 19.4592 91.5517C19.2545 92.9676 24.014 92.8311 25.0546 91.0911C25.6687 92.1487 24.9352 93.6158 23.5704 93.6158H18.4186C17.378 93.6158 16.5932 92.6946 16.7468 91.6711C16.815 91.2787 16.9174 90.8693 17.088 90.5281C17.5144 89.7093 17.7362 88.8222 17.8386 87.901C18.0433 85.9904 18.1286 83.0392 17.2585 80.5144H26.1975C26.1975 80.5144 26.1975 82.2544 25.6687 84.4209C25.7028 84.4209 21.3016 83.3633 20.261 86.2122Z" fill="#11276B"/>
</g>
<path d="M23.6047 94.2811H18.4529C17.7705 94.2811 17.1222 93.9911 16.6616 93.4622C16.2181 92.9334 16.0134 92.251 16.1158 91.5687C16.2011 91.0398 16.3375 90.5963 16.5252 90.221C16.8834 89.5386 17.1052 88.7369 17.2075 87.8327C17.4122 85.905 17.4805 83.1244 16.6616 80.7361C16.5934 80.5314 16.6275 80.3097 16.7469 80.1391C16.8664 79.9685 17.0711 79.8661 17.2928 79.8661H26.2318C26.5901 79.8661 26.8971 80.1561 26.8971 80.5314C26.8971 80.7532 26.863 85.7515 24.2018 89.4704C24.4918 89.641 24.8159 89.8628 25.14 90.1528C25.8906 90.801 26.1636 91.8246 25.8053 92.7628C25.4642 93.684 24.5941 94.2811 23.6047 94.2811ZM18.1799 81.1797C18.794 83.568 18.7258 86.1439 18.5211 87.9692C18.4017 89.0269 18.1287 89.9992 17.7023 90.8181C17.5828 91.0569 17.4805 91.381 17.4293 91.7563C17.3781 92.0634 17.4634 92.3534 17.6681 92.5922C17.8728 92.8311 18.1458 92.9505 18.4529 92.9505H23.6047C24.27 92.9505 24.5088 92.4387 24.5771 92.2852C24.6965 91.961 24.6794 91.4834 24.2871 91.1251C23.6559 90.5792 22.9565 90.2892 22.9565 90.2892C22.7688 90.204 22.6153 90.0334 22.5641 89.8286C22.5129 89.6239 22.5641 89.4022 22.7006 89.2486C24.9524 86.5704 25.4471 82.6979 25.5495 81.1626H18.1799V81.1797Z" fill="#11276B"/>
<path d="M39.095 89.6069C39.0779 89.641 39.0438 89.6752 39.0097 89.7093C39.0097 89.7093 39.0608 89.7263 39.1632 89.7775C39.2656 89.8287 39.4361 89.914 39.6067 90.0163C39.8797 90.1699 40.2038 90.3916 40.5109 90.6646C40.6644 90.8011 40.8009 90.9546 40.8862 91.1252C41.5003 92.1828 40.7668 93.6499 39.402 93.6499H34.2843C33.2437 93.6499 32.459 92.7287 32.6125 91.7052C32.6807 91.3128 32.7831 90.9034 32.9537 90.5622C33.3802 89.7434 33.6019 88.8563 33.7043 87.9351C33.909 86.0245 33.9943 83.0733 33.1243 80.5485H42.0633C42.0633 80.5485 42.0633 82.2886 41.5344 84.4551C41.1421 86.0245 40.4938 87.7987 39.3509 89.3169C39.2656 89.4022 39.1803 89.5046 39.095 89.6069Z" fill="#FFD225"/>
<g opacity="0.3">
<path opacity="0.3" d="M36.0926 86.2122C35.052 89.061 39.3338 89.2999 39.3338 89.2999C39.2997 89.3169 39.095 89.4363 39.095 89.6069C39.095 89.6581 39.112 89.7093 39.1632 89.7605C39.2314 89.8457 39.3679 89.914 39.6067 89.9993C39.5044 89.9993 35.5296 89.8799 35.2908 91.5517C35.0861 92.9676 39.8456 92.8311 40.8862 91.0911C41.5003 92.1487 40.7668 93.6158 39.402 93.6158H34.2843C33.2437 93.6158 32.459 92.6946 32.6125 91.6711C32.6807 91.2787 32.7831 90.8693 32.9537 90.5281C33.3802 89.7093 33.6019 88.8222 33.7043 87.901C33.909 85.9904 33.9943 83.0392 33.1243 80.5144H42.0633C42.0633 80.5144 42.0633 82.2544 41.5344 84.4209C41.5344 84.4209 37.1332 83.3633 36.0926 86.2122Z" fill="#11276B"/>
</g>
<path d="M39.4358 94.2811H34.2839C33.6015 94.2811 32.9533 93.9911 32.4927 93.4622C32.0492 92.9334 31.8445 92.251 31.9468 91.5687C32.0321 91.0398 32.1686 90.5963 32.3562 90.221C32.7145 89.5386 32.9362 88.7369 33.0386 87.8327C33.2433 85.905 33.3115 83.1244 32.4927 80.7361C32.4245 80.5314 32.4586 80.3097 32.578 80.1391C32.6974 79.9685 32.9021 79.8661 33.1239 79.8661H42.0629C42.4211 79.8661 42.7282 80.1561 42.7282 80.5314C42.7282 80.7532 42.6941 85.7515 40.0328 89.4704C40.3228 89.641 40.647 89.8628 40.9711 90.1528C41.7217 90.801 41.9946 91.8246 41.6364 92.7628C41.2952 93.684 40.4252 94.2811 39.4358 94.2811ZM34.011 81.1797C34.6251 83.568 34.5569 86.1439 34.3521 87.9692C34.2327 89.0269 33.9598 89.9992 33.5333 90.8181C33.4139 91.0569 33.3115 91.381 33.2604 91.7563C33.2092 92.0634 33.2945 92.3534 33.4992 92.5922C33.7039 92.8311 33.9768 92.9505 34.2839 92.9505H39.4358C40.1011 92.9505 40.3399 92.4387 40.4081 92.2852C40.5275 91.961 40.5105 91.4834 40.1181 91.1251C39.4869 90.5792 38.7875 90.2892 38.7875 90.2892C38.5999 90.204 38.4463 90.0334 38.3952 89.8286C38.344 89.6239 38.3952 89.4022 38.5316 89.2486C40.7834 86.5704 41.2781 82.6979 41.3805 81.1626H34.011V81.1797Z" fill="#11276B"/>
<path d="M0.694158 78.7404C1.46182 82.0669 4.5154 79.4739 4.5154 79.4739C3.95245 81.7257 6.01661 82.664 7.17663 80.4292C8.33665 78.1945 10.8785 74.7486 10.8785 74.7486V60.9989C8.149 63.6089 1.10358 73.725 0.677099 77.8704C0.64298 78.1945 0.64298 78.5016 0.694158 78.7404Z" fill="#FFD225"/>
<g opacity="0.3">
<path opacity="0.3" d="M0.694711 78.7405C1.46237 82.067 4.51596 79.474 4.51596 79.474C3.95301 81.7258 6.01716 82.6641 7.17718 80.4293C8.3372 78.1946 10.879 74.7486 10.879 74.7486V65.5197C10.879 65.5197 8.7125 71.6098 6.61423 75.5334C5.01067 78.5358 1.90591 79.0987 0.660593 77.8705C0.643534 78.1946 0.643534 78.5016 0.694711 78.7405Z" fill="#11276B"/>
</g>
<path d="M5.59007 82.3739C5.3683 82.3739 5.16359 82.3397 4.993 82.2715C4.29357 82.0156 3.93533 81.4015 3.81592 80.7191C3.18473 81.0262 2.40001 81.248 1.64941 81.0091C0.84763 80.7532 0.318798 80.0368 0.0629106 78.9109C-0.807105 75.1408 7.58599 63.2506 10.4519 60.5382C10.6396 60.3505 10.9296 60.2993 11.1684 60.4188C11.4072 60.5211 11.5608 60.7599 11.5608 61.0329V74.7825C11.5608 74.919 11.5096 75.0555 11.4243 75.1749C11.4072 75.209 8.89954 78.6038 7.77364 80.7703C7.14245 81.9474 6.28949 82.3739 5.59007 82.3739ZM4.5324 78.8085C4.65182 78.8085 4.77123 78.8426 4.87358 78.9109C5.11241 79.0644 5.23183 79.3544 5.16359 79.6273C4.97594 80.395 5.18065 80.9238 5.45359 81.0262C5.72654 81.1285 6.18714 80.8897 6.59656 80.1221C7.63716 78.1261 9.68426 75.2773 10.2302 74.5267V62.6706C8.69483 64.4618 6.63067 67.3106 4.95888 70.023C2.41707 74.1343 1.05234 77.3414 1.34235 78.5867C1.49588 79.235 1.7347 79.6103 2.05883 79.7297C2.70707 79.9515 3.76474 79.235 4.08886 78.962C4.22534 78.8597 4.37887 78.8085 4.5324 78.8085Z" fill="#11276B"/>
<path d="M61.3226 48.1532C61.1008 48.1703 60.8961 48.2897 60.7596 48.4603L51.7354 59.1734C51.2748 59.7193 50.4048 59.4975 50.2512 58.8151L48.1871 49.6032C48.1188 49.3132 48.2212 49.0062 48.4259 48.8014C48.7841 48.4603 49.3812 47.8803 50.1489 47.1638C50.1659 47.1467 50.1659 47.1467 50.1659 47.1467C52.793 44.7414 57.3819 40.7837 60.9814 39.1289C66.355 36.6553 66.4403 39.5042 62.3291 43.6837C62.3291 43.6837 61.0155 44.929 62.9944 45.3896C63.3356 45.4749 63.6256 45.6114 63.8303 45.7649C64.7685 46.4985 64.2227 47.8461 61.3226 48.1532Z" fill="#FFD225"/>
<g opacity="0.3">
<path opacity="0.3" d="M61.3226 48.1531C61.1008 48.1701 60.8961 48.2895 60.7597 48.4601L51.7354 59.1732C51.2748 59.7191 50.4048 59.4974 50.2512 58.815L48.1871 49.6031C48.1188 49.3131 48.2212 49.006 48.4259 48.8013C48.7841 48.4601 49.3812 47.8801 50.1489 47.1636C50.1659 47.1466 50.1659 47.1466 50.1659 47.1466C50.1659 47.1466 51.8036 46.8395 52.6395 51.6843C52.8272 52.7761 54.1919 53.1855 54.9425 52.3667C56.4607 50.6949 58.5078 48.4431 59.7873 47.1466C59.7873 47.1466 62.5679 46.8736 63.8303 45.7648C64.7685 46.4983 64.2227 47.846 61.3226 48.1531Z" fill="#11276B"/>
</g>
<g opacity="0.7">
<path opacity="0.7" d="M48.7495 50.7291C48.6812 50.4391 48.7665 50.132 48.9883 49.9273C50.5236 48.4431 56.8696 42.4213 61.5609 40.2548C63.3521 39.4189 64.5633 39.1971 65.2115 39.4018C65.4333 38.0371 64.1027 37.6788 60.9979 39.1118C56.3067 41.2783 49.9607 47.2831 48.4253 48.7843C48.2036 48.989 48.1183 49.2961 48.1865 49.5861L50.2507 58.798C50.3189 59.071 50.4724 59.2586 50.6942 59.361L48.7495 50.7291Z" fill="white"/>
</g>
<path d="M51.0869 60.1287C50.9675 60.1287 50.848 60.1117 50.7286 60.0775C50.1657 59.9411 49.7392 59.4975 49.6027 58.9346L47.5386 49.7226C47.4192 49.2109 47.5727 48.682 47.965 48.3067C49.7563 46.5667 55.9999 40.6984 60.7082 38.5148C63.2841 37.3207 64.9389 37.2183 65.6213 38.1907C66.0989 38.856 66.3548 40.5278 62.7894 44.1273L62.7724 44.1443C62.67 44.2467 62.5677 44.4173 62.5506 44.4855C62.5847 44.5196 62.7212 44.639 63.1306 44.7243C64.2565 44.9973 64.9559 45.7308 64.8877 46.5838C64.8195 47.7267 63.4889 48.5456 61.3735 48.7673C61.3223 48.7673 61.2712 48.8015 61.2371 48.8356L52.2298 59.5658C51.9569 59.9411 51.5304 60.1287 51.0869 60.1287ZM48.8351 49.4497L50.8992 58.6616C50.9163 58.764 50.9845 58.7981 51.0357 58.8152C51.0869 58.8322 51.1722 58.8322 51.2233 58.7469L60.2306 48.0167C60.4865 47.7097 60.8447 47.522 61.2371 47.4879C62.96 47.3173 63.5571 46.7544 63.5742 46.5326C63.5742 46.4132 63.3524 46.1743 62.8235 46.0379C61.9535 45.8332 61.4247 45.4237 61.2712 44.8608C61.0494 44.042 61.7318 43.3425 61.8512 43.2231C64.3759 40.6643 64.7001 39.2142 64.5295 38.9754C64.4442 38.856 63.6424 38.6342 61.2541 39.7431C56.6311 41.8754 50.1486 48.0509 48.8862 49.2791C48.8351 49.3132 48.818 49.3815 48.8351 49.4497Z" fill="#11276B"/>
<path d="M37.5245 35.6147C37.5245 35.6147 33.7886 34.9494 29.9674 34.9494C26.1461 34.9494 22.4102 35.6147 22.4102 35.6147C22.4102 35.6147 22.4102 30.5822 23.6384 24.5604C24.5425 20.142 26.0949 15.1778 28.8073 11.3054C29.1144 10.8619 29.6432 10.6572 30.1379 10.7083C30.5303 10.7425 30.9056 10.9472 31.1444 11.3054C37.5075 20.4491 37.5245 35.6147 37.5245 35.6147Z" fill="#30E542"/>
<g opacity="0.3">
<path opacity="0.3" d="M37.5245 35.6148C37.5245 35.6148 33.7886 34.9495 29.9674 34.9495C26.1461 34.9495 22.4102 35.6148 22.4102 35.6148C22.4102 35.6148 22.4102 30.5823 23.6384 24.5605L24.4231 24.9187C24.4231 24.9187 26.982 28.8423 29.9674 28.3305C32.9356 27.8358 35.5116 20.5175 30.1209 10.7085C30.5132 10.7426 30.8885 10.9473 31.1274 11.3055C37.5075 20.4492 37.5245 35.6148 37.5245 35.6148Z" fill="#11276B"/>
</g>
<g opacity="0.7">
<path opacity="0.7" d="M30.4791 11.8685C30.6497 11.6126 30.8885 11.442 31.1615 11.3567C31.1444 11.3397 31.1444 11.3226 31.1273 11.3056C30.5644 10.5038 29.3532 10.5038 28.7902 11.3056C22.3931 20.4322 22.3931 35.6148 22.3931 35.6148C22.3931 35.6148 23.0584 35.4954 24.099 35.3589C24.2013 32.0836 24.969 19.7328 30.4791 11.8685Z" fill="white"/>
</g>
<path d="M29.3021 34.9495C29.1315 33.96 29.1486 32.9877 29.1998 31.9983C29.2509 31.0088 29.3021 30.0364 29.3533 29.047C29.3874 28.5523 29.4215 28.0576 29.4557 27.5799C29.4898 27.0852 29.5239 26.5905 29.558 26.1128C29.6262 25.1234 29.7286 24.151 29.831 23.1616C29.831 23.0934 29.8992 23.0422 29.9674 23.0422C30.0186 23.0422 30.0698 23.0934 30.0868 23.1616C30.1892 24.151 30.2745 25.1234 30.3598 26.1128C30.3939 26.6076 30.428 27.1023 30.4621 27.5799C30.4963 28.0746 30.5304 28.5694 30.5645 29.047C30.6327 30.0364 30.6839 31.0088 30.718 31.9983C30.7692 32.9877 30.7863 33.96 30.6157 34.9495C30.5474 35.3077 30.2063 35.5636 29.848 35.4954C29.558 35.4271 29.3362 35.2054 29.3021 34.9495Z" fill="#11276B"/>
<path d="M37.5243 36.28C37.4902 36.28 37.439 36.28 37.4049 36.263C37.3707 36.263 33.6689 35.5977 29.95 35.5977C26.2311 35.5977 22.5463 36.2459 22.4952 36.263C22.3075 36.2971 22.1028 36.2459 21.9493 36.1265C21.7957 36.0071 21.7104 35.8194 21.7104 35.6147C21.7104 34.9835 21.7957 20.125 28.227 10.9302C28.6194 10.3672 29.2506 10.0431 29.933 10.0431C30.6153 10.0431 31.2465 10.3672 31.6389 10.9302C38.0702 20.125 38.1555 34.9835 38.1555 35.6147C38.1555 35.8024 38.0702 35.99 37.9166 36.1265C37.8313 36.2118 37.6778 36.28 37.5243 36.28ZM29.95 11.3566C29.6941 11.3566 29.4724 11.4761 29.3188 11.6808C23.9452 19.3744 23.1605 31.6399 23.0581 34.83C24.3717 34.6253 27.1182 34.2841 29.95 34.2841C32.7818 34.2841 35.5283 34.6423 36.8419 34.83C36.7395 31.6399 35.9548 19.3744 30.5812 11.6808C30.4447 11.4761 30.2059 11.3566 29.95 11.3566Z" fill="#11276B"/>
<path d="M28.5856 35.7512C28.5856 35.7512 26.8455 35.4783 22.1884 36.1948C21.1648 36.3483 19.9878 36.553 18.6571 36.826C18.6571 36.826 18.5718 35.9048 18.2307 34.4889C17.7701 32.6294 16.8489 29.917 15.0577 27.3411C14.6482 26.744 14.1706 26.147 13.6588 25.584C12.4647 24.2534 10.9805 23.0251 9.15521 22.0698C8.42166 21.6775 8.4046 20.6369 9.15521 20.2616C10.9635 19.3233 14.3071 18.4021 19.1519 20.4151C24.1843 22.4963 26.6579 28.2964 27.7838 32.1347C28.2444 33.7383 28.4832 35.0006 28.5685 35.5124C28.5856 35.6489 28.5856 35.7512 28.5856 35.7512Z" fill="#30E542"/>
<g opacity="0.3">
<path opacity="0.3" d="M27.7676 32.1176C27.2558 32.1518 26.7441 32.2029 26.2323 32.2712C22.2916 27.6823 17.6174 26.0617 13.8644 25.6011C13.7962 25.6011 13.7279 25.584 13.6768 25.584C14.1885 26.147 14.6491 26.744 15.0756 27.3411C16.8668 29.917 17.788 32.6294 18.2486 34.4889C18.6068 35.9048 18.6751 36.826 18.6751 36.826C20.0057 36.553 21.1657 36.3483 22.2063 36.1948C26.8635 35.4783 28.6035 35.7512 28.6035 35.7512C28.6035 35.7512 28.3817 34.2159 27.7676 32.1176Z" fill="#11276B"/>
</g>
<path d="M18.6575 37.4742C18.521 37.4742 18.3845 37.423 18.2651 37.3377C18.1116 37.2183 18.0263 37.0477 18.0092 36.8771C17.9922 36.7748 16.9857 26.9317 8.84847 22.6328C8.28552 22.3428 7.94434 21.7627 7.94434 21.1316C7.94434 20.5004 8.28552 19.9374 8.84847 19.6474C10.9297 18.5727 14.4439 17.7197 19.4081 19.7668C22.7517 21.1486 25.5152 24.3557 27.4088 29.0129C28.8077 32.4929 29.2512 35.5124 29.2683 35.6489C29.3024 35.8536 29.2341 36.0583 29.0806 36.2118C28.9271 36.3654 28.7224 36.4336 28.5176 36.3995C28.5006 36.3995 25.8735 36.0412 18.811 37.4742C18.7428 37.4742 18.7086 37.4742 18.6575 37.4742ZM13.625 19.8521C11.8338 19.8521 10.435 20.3127 9.44554 20.8245C9.27495 20.9098 9.25789 21.0633 9.25789 21.1316C9.25789 21.1998 9.27495 21.3704 9.4626 21.4557C13.1133 23.3834 15.9621 26.6246 17.7363 30.8553C18.6575 33.0729 19.0669 35.0177 19.2204 36.0071C23.8776 35.103 26.5388 34.9836 27.8012 35.0177C27.2723 32.3223 25.0888 23.554 18.8963 20.978C16.8492 20.1592 15.1092 19.8521 13.625 19.8521Z" fill="#11276B"/>
<path d="M26.3852 35.2735C26.3852 35.2735 24.7134 35.3929 22.1886 36.1947C20.9433 36.5871 19.5103 37.133 17.958 37.9177C17.958 37.9177 17.4803 36.9112 16.4738 35.3418C15.382 33.6359 13.6591 31.2988 11.2367 28.9105C10.6567 28.3305 11.0149 27.341 11.8337 27.2728C12.7038 27.2046 13.8126 27.1875 15.0579 27.341C17.9409 27.6993 21.5233 28.9617 24.5087 32.5441C25.174 33.3288 25.7881 34.2329 26.3852 35.2735Z" fill="#30E542"/>
<g opacity="0.3">
<path opacity="0.3" d="M26.3855 35.2735C26.3855 35.2735 24.7137 35.3929 22.1889 36.1947C20.9436 36.5871 19.5106 37.133 17.9583 37.9177C17.9583 37.9177 17.4806 36.9112 16.4741 35.3418C17.0541 35.0176 17.6341 34.7447 18.2312 34.4718C18.8624 34.1988 19.4936 33.9429 20.1248 33.7211C21.5577 33.2094 23.0248 32.817 24.526 32.5441C25.1743 33.3288 25.7884 34.2329 26.3855 35.2735Z" fill="#11276B"/>
</g>
<path d="M17.9583 38.5659C17.8901 38.5659 17.8048 38.5489 17.7365 38.5318C17.566 38.4806 17.4295 38.3442 17.3612 38.1906C17.3442 38.1395 15.263 33.8064 10.7594 29.3711C10.2988 28.9275 10.1623 28.2622 10.367 27.6651C10.5888 27.0681 11.1176 26.6587 11.7658 26.6075C15.4847 26.3004 22.4107 26.9657 26.9655 34.9323C27.0849 35.137 27.0849 35.3759 26.9826 35.5635C26.8802 35.7512 26.6755 35.8877 26.4538 35.9047C26.4196 35.9047 22.786 36.2118 18.2654 38.4806C18.163 38.5489 18.0607 38.5659 17.9583 38.5659ZM13.1476 27.8699C12.687 27.8699 12.2606 27.8869 11.8682 27.921C11.6976 27.9381 11.6294 28.0575 11.6123 28.1087C11.5953 28.1769 11.5611 28.2963 11.6806 28.4157C15.4165 32.0835 17.4977 35.6318 18.2313 37.0136C21.319 35.5465 23.9119 34.9494 25.2937 34.7276C21.626 28.9958 16.5424 27.8699 13.1476 27.8699Z" fill="#11276B"/>
<path d="M31.3149 35.7512C31.3149 35.7512 33.055 35.4783 37.7121 36.1948C38.7357 36.3483 39.9127 36.553 41.2434 36.8259C41.2434 36.8259 41.3287 35.9048 41.6698 34.4888C42.1304 32.6294 43.0516 29.917 44.8428 27.3411C45.2523 26.744 45.7299 26.1469 46.2417 25.584C47.4358 24.2534 48.92 23.0251 50.7453 22.0698C51.4788 21.6774 51.4959 20.6368 50.7453 20.2615C48.937 19.3233 45.5934 18.4021 40.7486 20.4151C35.7162 22.4963 33.2426 28.2964 32.1167 32.1347C31.6561 33.7382 31.4173 35.0006 31.332 35.5124C31.332 35.6489 31.3149 35.7512 31.3149 35.7512Z" fill="#30E542"/>
<g opacity="0.3">
<path opacity="0.3" d="M32.1508 32.1176C32.6626 32.1517 33.1744 32.2029 33.6862 32.2711C37.6268 27.6822 42.301 26.0616 46.054 25.601C46.1223 25.601 46.1905 25.584 46.2417 25.584C45.7299 26.1469 45.2693 26.744 44.8428 27.3411C43.0516 29.917 42.1304 32.6294 41.6698 34.4888C41.3116 35.9047 41.2434 36.8259 41.2434 36.8259C39.9127 36.553 38.7527 36.3483 37.7121 36.1948C33.055 35.4783 31.3149 35.7512 31.3149 35.7512C31.3149 35.7512 31.5196 34.2159 32.1508 32.1176Z" fill="#11276B"/>
</g>
<path d="M41.2434 37.4743C41.1923 37.4743 41.1581 37.4743 41.107 37.4572C34.0445 36.0413 31.4344 36.3825 31.4003 36.3825C31.1956 36.4166 30.9909 36.3484 30.8374 36.1948C30.6838 36.0413 30.6156 35.8366 30.6497 35.6319C30.6668 35.5125 31.0933 32.4759 32.5092 28.9959C34.4027 24.3387 37.1663 21.1316 40.5099 19.7498C45.4741 17.7027 48.9883 18.5557 51.0695 19.6304C51.6325 19.9204 51.9736 20.4834 51.9736 21.1146C51.9736 21.7457 51.6325 22.3258 51.0695 22.6158C42.9152 26.9147 41.9088 36.7578 41.9088 36.8601C41.8917 37.0478 41.7893 37.2184 41.6529 37.3207C41.5335 37.4401 41.3799 37.4743 41.2434 37.4743ZM32.3727 35.0348C33.7204 35.0348 36.3304 35.1883 40.6805 36.0413C40.834 35.0348 41.2434 33.1071 42.1646 30.8894C43.9388 26.6588 46.7877 23.4005 50.4383 21.4899C50.626 21.3875 50.643 21.234 50.643 21.1657C50.643 21.0804 50.626 20.944 50.4554 20.8587C48.63 19.9034 45.5082 19.1698 41.0217 21.0293C34.8122 23.6052 32.6456 32.3736 32.1168 35.0689C32.2021 35.0348 32.2874 35.0348 32.3727 35.0348Z" fill="#11276B"/>
<path d="M33.5156 35.2736C33.5156 35.2736 35.1874 35.393 37.7122 36.1947C38.9575 36.5871 40.3905 37.133 41.9428 37.9177C41.9428 37.9177 42.4205 36.9112 43.427 35.3418C44.5188 33.6359 46.2417 31.2988 48.6641 28.9105C49.2441 28.3305 48.8859 27.3411 48.0671 27.2728C47.197 27.2046 46.0882 27.1875 44.8429 27.3411C41.9599 27.6993 38.3775 28.9617 35.3921 32.5441C34.7439 33.3288 34.1127 34.2329 33.5156 35.2736Z" fill="#30E542"/>
<g opacity="0.3">
<path opacity="0.3" d="M33.5156 35.2737C33.5156 35.2737 35.1874 35.3931 37.7122 36.1949C38.9575 36.5872 40.3905 37.1331 41.9428 37.9178C41.9428 37.9178 42.4205 36.9113 43.427 35.3419C42.847 35.0178 42.267 34.7448 41.6699 34.4719C41.0387 34.1989 40.4075 33.9431 39.7763 33.7213C38.3434 33.2095 36.8763 32.8172 35.3751 32.5442C34.7439 33.3289 34.1127 34.2331 33.5156 35.2737Z" fill="#11276B"/>
</g>
<path d="M41.9599 38.5661C41.8575 38.5661 41.7552 38.549 41.6699 38.4979C37.1492 36.2119 33.5156 35.9219 33.4815 35.9219C33.2598 35.9049 33.055 35.7684 32.9527 35.5807C32.8503 35.3931 32.8503 35.1372 32.9697 34.9496C37.5075 26.9829 44.4335 26.3176 48.1694 26.6247C48.8006 26.6759 49.3465 27.0853 49.5512 27.6824C49.773 28.2794 49.6194 28.9277 49.1589 29.3883C44.6552 33.8407 42.5911 38.1567 42.557 38.2079C42.4887 38.3614 42.3352 38.4979 42.1817 38.549C42.0964 38.5661 42.0281 38.5661 41.9599 38.5661ZM34.6074 34.7448C35.9721 34.9666 38.5651 35.5637 41.6699 37.0308C42.4034 35.649 44.5017 32.1007 48.2206 28.433C48.34 28.3136 48.323 28.1941 48.2888 28.1259C48.2718 28.0747 48.2035 27.9383 48.0329 27.9383C44.7576 27.6653 38.7869 28.2112 34.6074 34.7448Z" fill="#11276B"/>
<path d="M28.9779 84.967H31.1273C42.2499 84.967 51.2742 75.9427 51.2742 64.8201V53.9535C51.2742 42.8309 42.2499 33.8066 31.1273 33.8066H28.9779C17.8553 33.8066 8.83105 42.8309 8.83105 53.9535V64.8201C8.83105 75.9597 17.8553 84.967 28.9779 84.967Z" fill="#FFD225"/>
<g opacity="0.7">
<mask id="mask0_51_369" style="mask-type:alpha" maskUnits="userSpaceOnUse" x="8" y="34" width="43" height="51">
<rect x="8" y="34" width="42.5935" height="50.8514" rx="21.2967" fill="#C4C4C4"/>
</mask>
<g mask="url(#mask0_51_369)">
<g opacity="0.7">
<path opacity="0.7" d="M49.2889 47.6651C49.2246 47.6651 49.1603 47.649 49.096 47.6329C37.7485 43.3254 27.1724 35.5621 20.2932 29.808C12.8514 23.5878 8.01345 18.2998 7.96523 18.2515C7.77236 18.0265 7.78843 17.689 7.99738 17.4961C8.20633 17.3032 8.55993 17.3193 8.75281 17.5283C8.80103 17.5765 13.5908 22.8163 20.9843 29.0044C27.7993 34.6942 38.2628 42.3771 49.4657 46.6364C49.7389 46.7489 49.8836 47.0543 49.771 47.3276C49.7068 47.5365 49.4978 47.6651 49.2889 47.6651Z" fill="#E89933"/>
</g>
<g opacity="0.7">
<path opacity="0.7" d="M2.90297 47.6653C2.67795 47.6653 2.48507 47.5367 2.40471 47.3117C2.30827 47.0384 2.43685 46.717 2.72617 46.6205C15.0381 42.0237 26.6106 33.071 34.1649 26.3525C42.3461 19.0715 47.6823 12.803 47.7466 12.7387C47.9395 12.5137 48.277 12.4815 48.502 12.6744C48.727 12.8673 48.7592 13.2048 48.5663 13.4298C48.5181 13.4941 43.1336 19.8108 34.8882 27.1401C27.2535 33.939 15.5524 42.988 3.07977 47.6331C3.01548 47.6492 2.95119 47.6653 2.90297 47.6653Z" fill="#E89933"/>
</g>
<g opacity="0.7">
<path opacity="0.7" d="M49.2889 63.6902C49.2246 63.6902 49.1603 63.6741 49.096 63.658C37.7485 59.3505 27.1724 51.5872 20.2932 45.8331C12.8514 39.6129 8.01345 34.3249 7.96523 34.2766C7.77236 34.0516 7.78843 33.7141 7.99738 33.5212C8.2224 33.3283 8.55993 33.3444 8.75281 33.5533C8.80103 33.6016 13.5908 38.8414 20.9843 45.0134C27.7993 50.7032 38.2628 58.3861 49.4657 62.6454C49.7389 62.7579 49.8836 63.0633 49.771 63.3366C49.7068 63.5616 49.4978 63.6902 49.2889 63.6902Z" fill="#E89933"/>
</g>
<g opacity="0.7">
<path opacity="0.7" d="M2.90188 63.6899C2.69294 63.6899 2.48399 63.5613 2.40362 63.3363C2.29111 63.0631 2.43577 62.7416 2.70901 62.6452C13.9119 58.3858 24.3754 50.7029 31.1903 45.0131C38.5839 38.8411 43.3736 33.6013 43.4219 33.5531C43.6147 33.3281 43.9683 33.312 44.1773 33.5209C44.4023 33.7138 44.4184 34.0674 44.2094 34.2764C44.1612 34.3246 39.3232 39.6126 31.8815 45.8328C25.0183 51.587 14.4423 59.3502 3.07869 63.6578C3.03047 63.6899 2.96618 63.6899 2.90188 63.6899Z" fill="#E89933"/>
</g>
<g opacity="0.7">
<path opacity="0.7" d="M2.90199 79.7307C2.67697 79.7307 2.4841 79.6021 2.40373 79.3771C2.30729 79.1039 2.43588 78.7824 2.72519 78.686C9.52406 76.1464 20.4858 70.5852 34.1479 58.434C42.3451 51.153 47.6813 44.8845 47.7295 44.8202C47.9224 44.5952 48.2599 44.563 48.485 44.7559C48.71 44.9488 48.7421 45.2863 48.5492 45.5113C48.501 45.5756 43.1166 51.8923 34.8711 59.2216C27.2526 65.9883 15.5514 75.0374 3.0788 79.6825C3.0145 79.7146 2.95021 79.7307 2.90199 79.7307Z" fill="#E89933"/>
</g>
<g opacity="0.7">
<path opacity="0.7" d="M49.2886 79.7307C49.2243 79.7307 49.16 79.7146 49.0957 79.6986C36.623 75.0535 24.938 66.0044 17.3194 59.2216C9.07396 51.8923 3.68951 45.5756 3.64129 45.5113C3.44842 45.2863 3.48056 44.9488 3.70559 44.7559C3.93061 44.563 4.26814 44.5952 4.46102 44.8202C4.50923 44.8845 9.86154 51.153 18.0427 58.434C31.7208 70.5852 42.6826 76.1625 49.4654 78.686C49.7386 78.7824 49.8833 79.1039 49.7868 79.3771C49.7064 79.586 49.4975 79.7307 49.2886 79.7307Z" fill="#E89933"/>
</g>
<g opacity="0.7">
<path opacity="0.7" d="M2.90199 93.2642C2.67697 93.2642 2.4841 93.1356 2.40373 92.9106C2.30729 92.6374 2.43588 92.3159 2.72519 92.2195C15.0371 87.6226 26.6096 78.67 34.1639 71.9515C42.3451 64.6704 47.6813 58.4019 47.7456 58.3376C47.9385 58.1126 48.276 58.0805 48.501 58.2733C48.7261 58.4662 48.7582 58.8038 48.5653 59.0288C48.5171 59.0931 43.1327 65.4097 34.8872 72.739C27.2526 79.5218 15.5514 88.5709 3.0788 93.216C3.0145 93.2481 2.95021 93.2642 2.90199 93.2642Z" fill="#E89933"/>
</g>
<g opacity="0.7">
<path opacity="0.7" d="M49.2886 93.2645C49.2243 93.2645 49.16 93.2484 49.0957 93.2323C36.623 88.5872 24.938 79.5382 17.3194 72.7554C9.07396 65.4261 3.68951 59.1094 3.64129 59.0451C3.44842 58.8201 3.48056 58.4825 3.70559 58.2897C3.93061 58.0968 4.26814 58.1289 4.46102 58.354C4.50923 58.4183 9.86154 64.6867 18.0427 71.9678C31.7208 84.1189 42.6826 89.6963 49.4654 92.2197C49.7386 92.3162 49.8833 92.6376 49.7868 92.9109C49.7064 93.1198 49.4975 93.2645 49.2886 93.2645Z" fill="#E89933"/>
</g>
<g opacity="0.7">
<path opacity="0.7" d="M49.2889 63.6902C49.2246 63.6902 49.1603 63.6741 49.096 63.658C37.7485 59.3505 27.1724 51.5872 20.2932 45.8331C12.8514 39.6129 8.01345 34.3249 7.96523 34.2766C7.77236 34.0516 7.78843 33.7141 7.99738 33.5212C8.2224 33.3283 8.55993 33.3444 8.75281 33.5533C8.80103 33.6016 13.5908 38.8414 20.9843 45.0134C27.7993 50.7032 38.2628 58.3861 49.4657 62.6454C49.7389 62.7579 49.8836 63.0633 49.771 63.3366C49.7068 63.5616 49.4978 63.6902 49.2889 63.6902Z" fill="#E89933"/>
</g>
</g>
</g>
<g opacity="0.3">
<path opacity="0.3" d="M28.9779 81.8961H31.1273C42.2499 81.8961 51.2742 72.8718 51.2742 61.7493V64.8199C51.2742 75.9424 42.2499 84.9667 31.1273 84.9667H28.9779C17.8553 84.9667 8.83105 75.9424 8.83105 64.8199V61.7493C8.83105 72.8718 17.8553 81.8961 28.9779 81.8961Z" fill="#11276B"/>
</g>
<g opacity="0.7">
<path opacity="0.7" d="M28.9775 33.8235H31.1269C34.2999 33.8235 37.3194 34.5571 39.9806 35.8706C40.6971 36.1436 41.3283 36.5018 41.8059 36.8771C47.4866 40.4425 51.2737 46.7543 51.2737 53.9533V56.0686C51.2737 49.0573 47.6913 42.8648 42.2495 39.2654C41.5159 39.6748 40.1682 39.6577 38.7523 39.146C37.0294 38.5148 35.8523 37.3889 35.9205 36.5018C34.3852 36.1265 32.7816 35.9218 31.144 35.9218H28.9945C17.872 35.9218 8.84768 44.9461 8.84768 56.0686V53.9533C8.83062 42.8307 17.8549 33.8235 28.9775 33.8235Z" fill="white"/>
</g>
<path d="M24.6104 58.9515C26.2497 58.9515 27.5787 57.3858 27.5787 55.4544C27.5787 53.523 26.2497 51.9573 24.6104 51.9573C22.971 51.9573 21.6421 53.523 21.6421 55.4544C21.6421 57.3858 22.971 58.9515 24.6104 58.9515Z" fill="#11276B"/>
<path d="M25.5829 55.898C26.2048 55.898 26.7088 55.3023 26.7088 54.5674C26.7088 53.8325 26.2048 53.2368 25.5829 53.2368C24.9611 53.2368 24.457 53.8325 24.457 54.5674C24.457 55.3023 24.9611 55.898 25.5829 55.898Z" fill="white"/>
<path d="M41.2432 58.9515C42.8825 58.9515 44.2115 57.3858 44.2115 55.4544C44.2115 53.523 42.8825 51.9573 41.2432 51.9573C39.6038 51.9573 38.2749 53.523 38.2749 55.4544C38.2749 57.3858 39.6038 58.9515 41.2432 58.9515Z" fill="#11276B"/>
<path d="M42.2328 55.898C42.8547 55.898 43.3587 55.3023 43.3587 54.5674C43.3587 53.8325 42.8547 53.2368 42.2328 53.2368C41.611 53.2368 41.1069 53.8325 41.1069 54.5674C41.1069 55.3023 41.611 55.898 42.2328 55.898Z" fill="white"/>
<path d="M32.9702 65.3145C36.7914 65.3145 37.2179 62.0904 37.1838 60.3674C37.1667 59.7703 36.7402 59.3097 36.2285 59.3097H32.9702H29.7119C29.2001 59.3097 28.7736 59.7703 28.7566 60.3674C28.7054 62.0904 29.1489 65.3145 32.9702 65.3145Z" fill="#11276B"/>
<path d="M28.8237 61.6639C28.8237 61.6639 30.9391 60.7086 32.5256 61.6639C34.1121 62.6192 34.1462 65.1951 34.1462 65.1951C34.1462 65.1951 29.2161 66.1505 28.8237 61.6639Z" fill="#F47DA2"/>
<path d="M32.9698 65.98C31.5027 65.98 30.3256 65.5364 29.4897 64.6835C28.2785 63.4552 28.0738 61.6469 28.1079 60.3675C28.125 59.4122 28.8414 58.6616 29.7115 58.6616H36.2281C37.0981 58.6616 37.8146 59.4122 37.8316 60.3675C37.8657 61.664 37.644 63.4552 36.4498 64.6835C35.6139 65.5364 34.4368 65.98 32.9698 65.98ZM29.6944 59.9751C29.5579 59.9751 29.4044 60.1457 29.4044 60.3846C29.3873 61.2375 29.4897 62.807 30.4279 63.7623C31.008 64.3593 31.8609 64.6664 32.9698 64.6664C34.0786 64.6664 34.9316 64.3593 35.5116 63.7623C36.4498 62.807 36.5522 61.2375 36.5351 60.3846C36.5351 60.1457 36.3816 59.9751 36.2451 59.9751H29.6944Z" fill="#11276B"/>
<path d="M31.11 85.6662H28.9605C17.4798 85.6662 8.13135 76.3178 8.13135 64.837V53.9703C8.13135 42.4895 17.4798 33.1411 28.9605 33.1411H31.11C42.5908 33.1411 51.9392 42.4895 51.9392 53.9703V64.837C51.9392 76.3178 42.6078 85.6662 31.11 85.6662ZM28.9776 34.5059C18.2474 34.5059 9.5302 43.2401 9.5302 53.9533V64.82C9.5302 75.5501 18.2645 84.2674 28.9776 84.2674H31.1271C41.8572 84.2674 50.5745 75.5331 50.5745 64.82V53.9533C50.5745 43.2231 41.8402 34.5059 31.1271 34.5059H28.9776Z" fill="#11276B"/>
<path d="M80.0369 29.1663C79.8492 29.1663 79.6787 29.0981 79.5422 28.9445C79.3034 28.6716 79.3204 28.2622 79.5934 28.0063L84.5405 23.588C84.8134 23.3491 85.2229 23.3662 85.4787 23.6392C85.7176 23.9121 85.7005 24.3215 85.4276 24.5774L80.4804 28.9957C80.344 29.1151 80.1904 29.1663 80.0369 29.1663Z" fill="#11276B"/>
<path d="M76.0784 32.6976C75.8907 32.6976 75.7202 32.6293 75.5837 32.4758C75.3449 32.2029 75.3619 31.7934 75.6349 31.5375L76.9996 30.3093C77.2725 30.0705 77.682 30.0875 77.9378 30.3605C78.1767 30.6334 78.1596 31.0428 77.8867 31.2987L76.5219 32.527C76.3855 32.6464 76.2319 32.6976 76.0784 32.6976Z" fill="#11276B"/>
<path d="M85.1878 32.6464C85.0001 32.6464 84.8295 32.5781 84.6931 32.4246C84.4542 32.1517 84.4713 31.7423 84.7442 31.4864L88.6167 28.0233C88.8896 27.7845 89.299 27.8016 89.5549 28.0745C89.7937 28.3475 89.7767 28.7569 89.5037 29.0128L85.6313 32.4758C85.5119 32.5952 85.3413 32.6464 85.1878 32.6464Z" fill="#11276B"/>
<path d="M95.2698 35.0687C95.0822 35.0687 94.9116 35.0004 94.7751 34.8469C94.5363 34.574 94.5533 34.1645 94.8263 33.9087L98.6987 30.4457C98.9716 30.2068 99.381 30.2239 99.6369 30.4968C99.8758 30.7698 99.8587 31.1792 99.5858 31.4351L95.6963 34.8981C95.5769 35.0175 95.4233 35.0687 95.2698 35.0687Z" fill="#11276B"/>
<path d="M81.5208 35.9217C81.3331 35.9217 81.1625 35.8535 81.0261 35.6999C80.7872 35.427 80.8043 35.0176 81.0772 34.7617L82.442 33.5334C82.7149 33.2946 83.1243 33.3117 83.3802 33.5846C83.619 33.8575 83.602 34.267 83.329 34.5228L81.9643 35.7511C81.8449 35.8705 81.6743 35.9217 81.5208 35.9217Z" fill="#11276B"/>
<path d="M115.093 0.677765L110.93 28.1771L110.743 28.0918L101.548 24.0147L95.1675 28.1771L91.7557 18.5728L82.1685 14.0351L115.093 0.677765Z" fill="white"/>
<g opacity="0.3">
<path opacity="0.3" d="M110.743 28.0915L101.531 24.0144L95.1675 28.1768L91.7557 18.5896L82.1685 14.0519C82.1685 14.0519 91.8069 16.7984 99.1423 12.9259L115.093 0.69455L104.124 15.4848C102.042 18.2825 102.486 22.2402 105.164 24.475C106.495 25.5668 108.286 26.795 110.743 28.0915Z" fill="#11276B"/>
</g>
<path d="M95.1671 28.8252C95.1159 28.8252 95.0647 28.8252 95.0135 28.8081C94.6553 28.7228 94.4335 28.3646 94.5188 28.0234L96.0882 21.3192C96.1053 21.2168 96.1565 21.1145 96.2418 21.0292L110.077 5.35183L92.1476 19.1015C91.8576 19.3233 91.4482 19.2721 91.2264 18.9821C91.0046 18.6921 91.0558 18.2826 91.3458 18.0609L114.683 0.14879C114.956 -0.0559192 115.331 -0.021802 115.57 0.217026C115.809 0.472913 115.809 0.848216 115.587 1.1041L97.3506 21.7798L95.8153 28.3305C95.7471 28.6205 95.4741 28.8252 95.1671 28.8252Z" fill="#11276B"/>
<path d="M101.548 24.6798C101.446 24.6798 101.343 24.6627 101.241 24.5945L96.4301 22.0527C96.106 21.8821 95.9866 21.4897 96.1572 21.1656C96.3278 20.8415 96.7201 20.7221 97.0443 20.8927L101.855 23.4345C102.179 23.6051 102.298 23.9974 102.128 24.3216C102.008 24.5433 101.787 24.6798 101.548 24.6798Z" fill="#11276B"/>
<path d="M95.1676 28.8253C95.0994 28.8253 95.0311 28.8082 94.9629 28.7911C94.7752 28.7229 94.6217 28.5694 94.5535 28.3817L91.2269 19.0504L81.8785 14.6321C81.6397 14.5126 81.4862 14.2738 81.5032 14.0179C81.5032 13.762 81.6738 13.5232 81.9127 13.4209L114.837 0.0465026C115.059 -0.0387931 115.314 -0.00467484 115.502 0.131798C115.69 0.28533 115.775 0.507099 115.741 0.745927L111.578 28.2452C111.544 28.45 111.425 28.6205 111.237 28.7229C111.05 28.8253 110.845 28.8253 110.657 28.74L101.599 24.7311L95.5258 28.7229C95.4235 28.7911 95.3041 28.8253 95.1676 28.8253ZM101.548 23.3493C101.633 23.3493 101.735 23.3663 101.821 23.4004L110.418 27.2046L114.274 1.7183L83.8233 14.0862L92.0458 17.9756C92.1993 18.0439 92.3187 18.1804 92.387 18.351L95.5258 27.1535L101.189 23.4516C101.292 23.3834 101.411 23.3493 101.548 23.3493Z" fill="#11276B"/>
</svg>
