<svg width="99" height="95" viewBox="0 0 99 95" fill="none" xmlns="http://www.w3.org/2000/svg">
<path opacity="0.3" d="M37.5101 91.0865C49.1711 91.0865 58.6242 90.0549 58.6242 88.7824C58.6242 87.5099 49.1711 86.4784 37.5101 86.4784C25.8492 86.4784 16.3961 87.5099 16.3961 88.7824C16.3961 90.0549 25.8492 91.0865 37.5101 91.0865Z" fill="#11276B"/>
<path d="M43.1924 84.7981C43.209 84.8343 43.2438 84.8712 43.2785 84.9082C43.2785 84.9082 43.2236 84.9238 43.1131 84.9727C43.0026 85.0217 42.8184 85.1033 42.6336 85.2026C42.3382 85.3509 41.9859 85.5681 41.6495 85.8392C41.4813 85.9747 41.3304 86.1288 41.233 86.3027C40.5391 87.3776 41.2551 88.9352 42.7001 88.9926L48.1551 89.2093C49.2569 89.253 50.1259 88.3274 50.0056 87.2558C49.9496 86.8446 49.8581 86.4142 49.6916 86.052C49.2739 85.1819 49.0757 84.2494 49.0054 83.2864C48.8677 81.2895 48.8994 78.2147 49.9249 75.6238L40.4601 75.2479C40.4601 75.2479 40.3881 77.0587 40.8585 79.3355C41.2091 80.9853 41.8221 82.8589 42.9696 84.4869C43.0383 84.5786 43.1063 84.688 43.1924 84.7981Z" fill="#FFD225"/>
<g opacity="0.3">
<path opacity="0.3" d="M46.5293 81.3925C47.5133 84.401 42.9697 84.4694 42.9697 84.4694C43.0051 84.4886 43.217 84.6215 43.2099 84.799C43.2078 84.8523 43.1876 84.9048 43.1313 84.9559C43.0555 85.0418 42.9082 85.1071 42.6518 85.1858C42.7602 85.1901 46.9737 85.233 47.1575 86.9829C47.3157 88.465 42.2819 88.1227 41.252 86.2682C40.558 87.343 41.274 88.9006 42.719 88.958L48.174 89.1747C49.2758 89.2185 50.1448 88.2929 50.0245 87.2212C49.9685 86.81 49.877 86.3797 49.7105 86.0174C49.2928 85.1473 49.0947 84.2149 49.0244 83.2519C48.8866 81.255 48.9183 78.1801 49.9439 75.5893L40.479 75.2133C40.479 75.2133 40.4071 77.0241 40.8774 79.301C40.8413 79.2995 45.5452 78.384 46.5293 81.3925Z" fill="#11276B"/>
</g>
<path d="M42.655 89.6488L48.1099 89.8655C48.8324 89.8942 49.5308 89.6196 50.0403 89.0887C50.5318 88.557 50.7768 87.8555 50.6966 87.1411C50.6282 86.5872 50.502 86.1198 50.3188 85.7214C49.9677 84.9962 49.766 84.1525 49.695 83.2073C49.558 81.1926 49.6007 78.296 50.5664 75.845C50.6471 75.6349 50.6202 75.4026 50.5008 75.2201C50.3814 75.0375 50.1689 74.9224 49.9341 74.9131L40.4692 74.5371C40.0899 74.522 39.7528 74.8109 39.7373 75.2015C39.7281 75.4323 39.5576 80.6353 42.2216 84.6174C41.9075 84.7827 41.5552 84.9998 41.2 85.288C40.3784 85.9311 40.0471 86.9848 40.3876 87.9762C40.7108 88.9492 41.6073 89.6072 42.655 89.6488ZM48.9405 76.2427C48.1915 78.7023 48.1573 81.3859 48.2986 83.294C48.3813 84.3997 48.6301 85.4231 49.0478 86.2932C49.1644 86.5468 49.2594 86.8884 49.298 87.2811C49.3395 87.6028 49.2372 87.901 49.0106 88.141C48.784 88.3809 48.49 88.4937 48.1649 88.4808L42.71 88.2641C42.0055 88.2361 41.7738 87.6934 41.7079 87.5308C41.5948 87.1885 41.6327 86.6921 42.0629 86.3358C42.7538 85.7943 43.5064 85.5219 43.5064 85.5219C43.7086 85.441 43.8782 85.2699 43.9408 85.0591C44.0035 84.8482 43.9585 84.6152 43.8203 84.4497C41.5468 81.5678 41.183 77.5171 41.1381 75.915L48.9412 76.225L48.9405 76.2427Z" fill="#11276B"/>
<path d="M26.446 84.1331C26.4627 84.1693 26.4974 84.2063 26.5321 84.2432C26.5321 84.2432 26.4772 84.2588 26.3667 84.3078C26.2563 84.3567 26.0721 84.4383 25.8872 84.5377C25.5919 84.686 25.2395 84.9031 24.9031 85.1742C24.7349 85.3098 24.5841 85.4638 24.4867 85.6378C23.7927 86.7126 24.5088 88.2702 25.9538 88.3276L31.3726 88.5429C32.4744 88.5867 33.3434 87.661 33.2231 86.5894C33.1671 86.1782 33.0757 85.7478 32.9091 85.3856C32.4914 84.5155 32.2933 83.583 32.223 82.6201C32.0852 80.6231 32.1169 77.5483 33.1425 74.9575L23.6776 74.5815C23.6776 74.5815 23.6057 76.3923 24.0761 78.6691C24.4266 80.3189 25.0397 82.1925 26.1871 83.8206C26.2739 83.9129 26.36 84.023 26.446 84.1331Z" fill="#FFD225"/>
<g opacity="0.3">
<path opacity="0.3" d="M29.7654 80.7264C30.7495 83.7349 26.2059 83.8034 26.2059 83.8034C26.2413 83.8226 26.4531 83.9555 26.446 84.133C26.4439 84.1862 26.4237 84.2388 26.3674 84.2899C26.2917 84.3758 26.1443 84.4411 25.8879 84.5198C25.9963 84.5241 30.2099 84.567 30.3936 86.3168C30.5519 87.7989 25.518 87.4567 24.4881 85.6021C23.7941 86.677 24.5102 88.2346 25.9552 88.292L31.374 88.5073C32.4758 88.551 33.3448 87.6254 33.2245 86.5537C33.1685 86.1426 33.0771 85.7122 32.9105 85.3499C32.4928 84.4799 32.2947 83.5474 32.2244 82.5844C32.0866 80.5875 32.1183 77.5127 33.1439 74.9218L23.679 74.5458C23.679 74.5458 23.6071 76.3566 24.0775 78.6335C24.0775 78.6335 28.7814 77.7179 29.7654 80.7264Z" fill="#11276B"/>
</g>
<path d="M25.8921 88.9828L31.347 89.1995C32.0695 89.2282 32.7679 88.9537 33.2774 88.4227C33.7689 87.891 34.0139 87.1895 33.9337 86.4751C33.8653 85.9212 33.7391 85.4539 33.5559 85.0554C33.2048 84.3302 33.0032 83.4865 32.9322 82.5413C32.7951 80.5266 32.8378 77.63 33.8035 75.1791C33.8842 74.9689 33.8573 74.7367 33.7379 74.5541C33.6185 74.3716 33.406 74.2565 33.1712 74.2471L23.7063 73.8711C23.327 73.8561 22.9899 74.145 22.9744 74.5355C22.9652 74.7663 22.7947 79.9693 25.4588 83.9514C25.1446 84.1167 24.7923 84.3339 24.4371 84.6221C23.6155 85.2651 23.2842 86.3188 23.6248 87.3103C23.9479 88.2833 24.8444 88.9412 25.8921 88.9828ZM32.1776 75.5768C31.4286 78.0364 31.3944 80.7199 31.5357 82.6281C31.6184 83.7338 31.8672 84.7572 32.2849 85.6273C32.4015 85.8808 32.4965 86.2224 32.5351 86.6152C32.5766 86.9369 32.4743 87.2351 32.2477 87.475C32.0211 87.7149 31.7271 87.8277 31.402 87.8148L25.9471 87.5981C25.2426 87.5701 25.0109 87.0275 24.945 86.8648C24.832 86.5225 24.8698 86.0262 25.3 85.6699C25.9909 85.1283 26.7435 84.8559 26.7435 84.8559C26.9457 84.7751 27.1153 84.604 27.178 84.3931C27.2406 84.1822 27.1956 83.9493 27.0574 83.7838C24.7839 80.9018 24.4201 76.8511 24.3752 75.2491L32.1783 75.559L32.1776 75.5768Z" fill="#11276B"/>
<path d="M30.3413 28.0109C30.3413 28.0109 34.3245 27.4757 38.3705 27.6364C42.4166 27.7972 46.3448 28.6467 46.3448 28.6467C46.3448 28.6467 46.5529 23.4096 45.5013 17.0911C44.7266 12.4551 43.2881 7.2237 40.5762 3.07971C40.2694 2.60522 39.718 2.36994 39.192 2.40239C38.7752 2.42139 38.3693 2.61864 38.1016 2.98141C30.9863 12.2293 30.3413 28.0109 30.3413 28.0109Z" fill="#30E542"/>
<g opacity="0.3">
<path opacity="0.3" d="M30.3409 28.0111C30.3409 28.0111 34.3241 27.4759 38.3702 27.6366C42.4162 27.7973 46.3445 28.6468 46.3445 28.6468C46.3445 28.6468 46.5525 23.4097 45.5009 17.0913L44.6552 17.4311C44.6552 17.4311 41.7836 21.4066 38.6438 20.7485C35.5214 20.1088 33.0964 12.3845 39.2097 2.40328C38.7929 2.42228 38.387 2.61953 38.1194 2.9823C30.9859 12.2295 30.3409 28.0111 30.3409 28.0111Z" fill="#11276B"/>
</g>
<g opacity="0.7">
<path opacity="0.7" d="M38.7827 3.5951C38.6126 3.32163 38.3668 3.13406 38.0813 3.03381C38.1001 3.01678 38.1008 2.99903 38.1195 2.98199C38.7488 2.17128 40.0312 2.22223 40.5941 3.08029C46.9904 12.8472 46.3627 28.6472 46.3627 28.6472C46.3627 28.6472 45.6632 28.495 44.567 28.3092C44.5941 24.8963 44.2918 12.0109 38.7827 3.5951Z" fill="white"/>
</g>
<path d="M39.0749 27.6642C39.2964 26.6417 39.3185 25.6291 39.3052 24.5973C39.292 23.5655 39.278 22.5514 39.2647 21.5196C39.249 21.0033 39.2333 20.487 39.217 19.9885C39.2013 19.4723 39.1856 18.956 39.1692 18.4575C39.1379 17.4249 39.0697 16.4087 39.0022 15.3747C39.005 15.3037 38.9349 15.2476 38.8627 15.2447C38.8085 15.2426 38.7522 15.2937 38.7313 15.364C38.582 16.3893 38.4515 17.3977 38.3203 18.4238C38.2637 18.9372 38.2071 19.4505 38.1513 19.9462C38.0947 20.4596 38.0381 20.973 37.9822 21.4686C37.8691 22.4954 37.7747 23.5052 37.6977 24.5334C37.6026 25.561 37.5443 26.5721 37.684 27.609C37.7415 27.9847 38.0922 28.2653 38.4743 28.2094C38.7842 28.1506 39.0282 27.9291 39.0749 27.6642Z" fill="#11276B"/>
<path d="M30.3139 28.7032C30.3501 28.7046 30.4043 28.7068 30.4411 28.6905C30.4772 28.6919 34.4243 28.1552 38.362 28.3117C42.2997 28.4681 46.1744 29.2977 46.2279 29.3176C46.4252 29.361 46.644 29.3163 46.8116 29.1985C46.9791 29.0807 47.0771 28.889 47.0856 28.676C47.1117 28.0191 47.6356 12.5528 41.2061 2.71345C40.8139 2.1111 40.159 1.74725 39.4365 1.71855C38.714 1.68985 38.0322 2.0006 37.5935 2.56994C30.4038 11.8682 29.6992 27.3274 29.6731 27.9843C29.6654 28.1796 29.7479 28.3784 29.9048 28.5269C29.9916 28.6193 30.1514 28.6967 30.3139 28.7032ZM39.3641 3.0848C39.635 3.09556 39.8649 3.22916 40.019 3.44866C45.3907 11.6812 45.7146 24.4786 45.6911 27.8027C44.3087 27.5344 41.4147 27.0638 38.4163 26.9447C35.4179 26.8256 32.495 27.0829 31.0964 27.2229C31.3366 23.9074 32.6746 11.1761 38.6824 3.39556C38.8353 3.18827 39.0932 3.07404 39.3641 3.0848Z" fill="#11276B"/>
<path d="M39.8 28.5294C39.8 28.5294 41.6537 28.3185 46.5552 29.26C47.6326 29.4628 48.8705 29.7254 50.2681 30.0654C50.2681 30.0654 50.3965 29.1103 50.8163 27.6512C51.3808 25.7355 52.4684 22.9515 54.4714 20.3462C54.9296 19.742 55.46 19.1408 56.0252 18.5765C57.3446 17.242 58.9668 16.0262 60.939 15.1088C61.732 14.7313 61.793 13.6491 61.0138 13.227C59.1379 12.1745 55.6357 11.0752 50.4227 12.9663C45.0082 14.9205 42.1493 20.8524 40.7985 24.7995C40.2445 26.4489 39.9394 27.7525 39.828 28.2815C39.8043 28.4228 39.8 28.5294 39.8 28.5294Z" fill="#30E542"/>
<g opacity="0.3">
<path opacity="0.3" d="M40.8164 24.7819C41.3569 24.839 41.8967 24.9138 42.4357 25.0063C46.7979 20.3965 51.8141 18.9066 55.807 18.5851C55.8792 18.588 55.9522 18.5731 56.0063 18.5753C55.4412 19.1396 54.9288 19.7416 54.4526 20.345C52.4495 22.9503 51.362 25.7343 50.7974 27.65C50.3596 29.1084 50.2492 30.0642 50.2492 30.0642C48.8516 29.7242 47.6318 29.4623 46.5363 29.2588C41.6348 28.3173 39.7812 28.5282 39.7812 28.5282C39.7812 28.5282 40.0795 26.9397 40.8164 24.7819Z" fill="#11276B"/>
</g>
<path d="M50.2413 30.7397C50.3858 30.7455 50.5324 30.698 50.6623 30.6142C50.8298 30.4964 50.9272 30.3225 50.9523 30.1457C50.9746 30.0399 52.4472 19.8388 61.2409 15.7073C61.8489 15.4292 62.2341 14.8399 62.2602 14.1831C62.2863 13.5262 61.9483 12.926 61.3643 12.6005C59.205 11.3946 55.5194 10.3591 50.1785 12.2807C46.5811 13.578 43.5224 16.7993 41.3249 21.5662C39.6999 25.129 39.1054 28.2526 39.0817 28.3939C39.0371 28.6055 39.1009 28.8214 39.2571 28.9876C39.4133 29.1539 39.6273 29.2335 39.8454 29.2066C39.8635 29.2073 42.66 28.945 50.0787 30.7333C50.1509 30.7362 50.1871 30.7376 50.2413 30.7397ZM56.2982 12.6127C58.1948 12.688 59.6569 13.2262 60.6834 13.8004C60.8605 13.8963 60.8722 14.0568 60.8694 14.1278C60.8666 14.1988 60.8415 14.3756 60.6393 14.4565C56.6941 16.309 53.5437 19.5623 51.4903 23.8904C50.4232 26.1595 49.9093 28.1661 49.7058 29.1893C44.8121 28.0525 41.9992 27.8163 40.6612 27.7987C41.3326 25.016 44.0071 15.9829 50.6703 13.5627C52.8717 12.7966 54.7268 12.5502 56.2982 12.6127Z" fill="#11276B"/>
<path d="M42.1495 28.1243C42.1495 28.1243 43.9147 28.3188 46.5549 29.2594C47.8572 29.7201 49.3519 30.3485 50.9632 31.2304C50.9632 31.2304 51.5105 30.2031 52.6411 28.6121C53.8677 26.8828 55.7886 24.5231 58.4522 22.1396C59.0904 21.5604 58.7519 20.5156 57.8877 20.4102C56.9694 20.3026 55.796 20.2382 54.4711 20.3456C51.4037 20.5971 47.5583 21.7602 44.2492 25.3627C43.5124 26.1514 42.8247 27.0664 42.1495 28.1243Z" fill="#30E542"/>
<g opacity="0.3">
<path opacity="0.3" d="M42.1491 28.1242C42.1491 28.1242 43.9143 28.3188 46.5545 29.2594C47.8568 29.7201 49.3515 30.3484 50.9628 31.2304C50.9628 31.2304 51.5102 30.203 52.6408 28.6121C52.04 28.2504 51.4372 27.942 50.8163 27.6328C50.1592 27.3222 49.5015 27.0294 48.8423 26.772C47.3462 26.1792 45.809 25.7091 44.2308 25.362C43.512 26.1513 42.8244 27.0664 42.1491 28.1242Z" fill="#11276B"/>
</g>
<path d="M50.9361 31.905C51.0084 31.9078 51.0994 31.8937 51.1723 31.8788C51.3551 31.8327 51.5052 31.6964 51.5838 31.5395C51.604 31.487 53.9868 27.0653 58.9387 22.6389C59.4447 22.1967 59.6167 21.5101 59.4246 20.8801C59.2145 20.2495 58.6715 19.8011 57.9872 19.7206C54.0622 19.2446 46.7013 19.6457 41.5492 27.7447C41.4143 27.9527 41.4044 28.2013 41.5051 28.4009C41.6057 28.6005 41.8168 28.7511 42.0509 28.7782C42.087 28.7796 45.9217 29.252 50.6145 31.8033C50.7201 31.8786 50.8277 31.9006 50.9361 31.905ZM56.472 20.9762C56.9597 20.9956 57.4105 21.0313 57.8245 21.0833C58.0045 21.1082 58.0718 21.2354 58.0877 21.2893C58.103 21.3611 58.1342 21.4868 58.0028 21.606C53.8954 25.2658 51.5451 28.8708 50.7113 30.278C47.5026 28.6213 44.7817 27.8909 43.3278 27.602C47.4483 21.7913 52.8775 20.8334 56.472 20.9762Z" fill="#11276B"/>
<path d="M36.9102 28.4143C36.9102 28.4143 35.079 28.0571 30.1183 28.6068C29.0282 28.7235 27.7734 28.887 26.3532 29.1151C26.3532 29.1151 26.301 28.1529 25.9983 26.665C25.5874 24.7106 24.7242 21.8491 22.9341 19.0931C22.5253 18.4545 22.0442 17.8131 21.5256 17.2057C20.3162 15.7708 18.7955 14.4301 16.9023 13.3592C16.1418 12.92 16.1668 11.8364 16.977 11.4774C18.9305 10.577 22.5089 9.75902 27.5555 12.0576C32.7979 14.4352 35.1772 20.5752 36.2107 24.6169C36.6321 26.3051 36.8328 27.6289 36.902 28.165C36.8963 28.3071 36.9102 28.4143 36.9102 28.4143Z" fill="#30E542"/>
<g opacity="0.3">
<path opacity="0.3" d="M36.1752 24.5976C35.6319 24.6116 35.0879 24.6433 34.5432 24.6928C30.5604 19.7516 25.6783 17.8684 21.7235 17.2313C21.6512 17.2284 21.5797 17.2078 21.5255 17.2056C22.0441 17.813 22.5071 18.4537 22.934 19.093C24.7241 21.849 25.5874 24.7105 25.9982 26.6649C26.319 28.1535 26.3532 29.115 26.3532 29.115C27.7733 28.8869 29.0101 28.7227 30.1182 28.6067C35.079 28.0569 36.9101 28.4142 36.9101 28.4142C36.9101 28.4142 36.7568 26.8078 36.1752 24.5976Z" fill="#11276B"/>
</g>
<path d="M26.3263 29.7896C26.3804 29.7918 26.4166 29.7932 26.4715 29.7776C34.008 28.6012 36.7574 29.066 36.7936 29.0674C37.0089 29.1116 37.2285 29.0492 37.3974 28.8958C37.5663 28.7425 37.647 28.5324 37.6194 28.3179C37.6062 28.1929 37.2802 25.015 35.9249 21.3338C34.1124 16.4076 31.3188 12.9538 27.8357 11.3752C22.664 9.03607 18.9079 9.77591 16.6598 10.8068C16.0517 11.0849 15.6672 11.6564 15.6411 12.3133C15.615 12.9701 15.9523 13.5881 16.5364 13.9136C24.9926 18.7303 25.6514 29.016 25.6472 29.1225C25.6575 29.3185 25.7588 29.5004 25.8991 29.6126C26.0206 29.7419 26.1818 29.7839 26.3263 29.7896ZM35.8197 27.6241C34.3928 27.5674 31.6228 27.6174 26.9816 28.3221C26.8606 27.2682 26.5068 25.2449 25.6231 22.8983C23.9194 18.4209 21.0377 14.9103 17.2512 12.7684C17.0568 12.654 17.0451 12.4935 17.0479 12.4225C17.0514 12.3337 17.0751 12.1924 17.2593 12.1108C19.2315 11.1935 22.5673 10.5614 27.2409 12.6852C33.7092 15.627 35.6407 24.8431 36.0892 27.6703C36.0003 27.6312 35.91 27.6277 35.8197 27.6241Z" fill="#11276B"/>
<path d="M34.5998 27.8244C34.5998 27.8244 32.8247 27.8784 30.1183 28.6066C28.7835 28.9625 27.2437 29.4703 25.5675 30.2217C25.5675 30.2217 25.1034 29.1542 24.1025 27.4786C23.0171 25.6574 21.2893 23.1527 18.8232 20.5654C18.233 19.9374 18.6532 18.9228 19.5231 18.8863C20.4471 18.8519 21.6219 18.8807 22.9341 19.0929C25.9719 19.587 29.7129 21.0514 32.7257 24.905C33.3797 25.7489 34.0106 26.7164 34.5998 27.8244Z" fill="#30E542"/>
<g opacity="0.3">
<path opacity="0.3" d="M34.5999 27.8246C34.5999 27.8246 32.8248 27.8785 30.1184 28.6067C28.7836 28.9627 27.2437 29.4705 25.5676 30.2218C25.5676 30.2218 25.1034 29.1543 24.1026 27.4787C24.7301 27.1658 25.3556 26.9062 25.999 26.6472C26.6787 26.3897 27.3575 26.15 28.035 25.9457C29.5735 25.4734 31.1431 25.1268 32.7439 24.9059C33.3798 25.7491 34.0107 26.7166 34.5999 27.8246Z" fill="#11276B"/>
</g>
<path d="M25.5231 30.8957C25.6315 30.9 25.7405 30.8866 25.833 30.8369C30.7141 28.6481 34.5734 28.4992 34.6095 28.5006C34.8451 28.4922 35.0675 28.3588 35.1836 28.1678C35.2997 27.9768 35.3103 27.7105 35.1916 27.5102C30.7163 19.0288 23.4103 18.0451 19.4419 18.2075C18.7715 18.2342 18.1765 18.6373 17.9351 19.2501C17.6756 19.8621 17.8114 20.5431 18.28 21.0418C22.8645 25.8648 24.8717 30.4431 24.9057 30.4978C24.9716 30.6604 25.1285 30.8089 25.289 30.8686C25.3786 30.89 25.4508 30.8928 25.5231 30.8957ZM33.4661 27.2283C32.0119 27.4017 29.2417 27.914 25.8936 29.3101C25.174 27.8413 23.099 24.0604 19.313 20.0871C19.1915 19.9579 19.2145 19.8343 19.2534 19.7647C19.2736 19.7122 19.3515 19.573 19.5321 19.5802C23.0114 19.4339 29.3108 20.2531 33.4661 27.2283Z" fill="#11276B"/>
<path d="M37.35 79.7296L35.0741 79.6392C23.2972 79.1714 14.1151 69.4005 14.5749 57.8256L15.0241 46.517C15.4839 34.9421 25.4121 25.9304 37.189 26.3983L39.4649 26.4887C51.2418 26.9565 60.4239 36.7273 59.9641 48.3022L59.5149 59.6108C59.0544 71.2035 49.1269 80.1974 37.35 79.7296Z" fill="#FFD225"/>
<g opacity="0.7">
<mask id="mask0_178_1123" style="mask-type:alpha" maskUnits="userSpaceOnUse" x="15" y="26" width="46" height="54">
<rect width="45.1348" height="52.9612" rx="22.5674" transform="matrix(-0.999212 -0.0396926 -0.0396926 0.999212 61.6695 27.5724)" fill="#C4C4C4"/>
</mask>
<g mask="url(#mask0_178_1123)">
<g opacity="0.7">
<path opacity="0.7" d="M17.3871 40.0567C17.4551 40.0594 17.5239 40.0454 17.5926 40.0314C29.7858 36.0259 41.3049 28.3918 48.8267 22.693C56.9634 16.5328 62.3046 11.2332 62.3577 11.1851C62.5712 10.959 62.5681 10.6071 62.3549 10.3976C62.1416 10.1881 61.7665 10.1899 61.5537 10.3993C61.5006 10.4474 56.2125 15.6988 48.1281 21.8276C40.6771 27.4622 29.2804 35.0174 17.2424 38.9788C16.9484 39.0844 16.7826 39.3961 16.8905 39.6852C16.9499 39.9054 17.1658 40.0479 17.3871 40.0567Z" fill="#E89933"/>
</g>
<g opacity="0.7">
<path opacity="0.7" d="M57.5157 39.1855C57.7093 39.1932 57.8802 39.0749 57.9581 38.8593C58.0516 38.5974 57.9533 38.281 57.7081 38.1775C47.2916 33.2951 37.6792 24.2104 31.4381 17.4315C24.6794 10.0851 20.3295 3.81872 20.2766 3.75412C20.1194 3.52913 19.8302 3.48639 19.6291 3.6659C19.4281 3.84541 19.3874 4.17191 19.5447 4.3969C19.5837 4.46095 23.9732 10.7757 30.7854 18.1711C37.0925 25.0308 46.8118 34.2135 57.3648 39.1482C57.4195 39.166 57.4742 39.1838 57.5157 39.1855Z" fill="#E89933"/>
</g>
<g opacity="0.7">
<path opacity="0.7" d="M16.6451 56.7301C16.7034 56.7325 16.7622 56.7214 16.821 56.7104C27.2501 53.5456 37.0936 47.4862 43.5195 42.9604C50.4709 38.0682 55.031 33.8556 55.0763 33.8173C55.2585 33.6376 55.2551 33.357 55.072 33.1895C54.8744 33.0214 54.5679 33.0225 54.3861 33.1889C54.3408 33.2272 49.826 37.4015 42.92 42.2555C36.5544 46.7303 26.8156 52.727 16.5193 55.8571C16.2679 55.9406 16.1267 56.1887 16.2197 56.4194C16.2705 56.6084 16.4557 56.7226 16.6451 56.7301Z" fill="#E89933"/>
</g>
<g opacity="0.7">
<path opacity="0.7" d="M65.84 58.6841C66.0612 58.6929 66.2878 58.5679 66.3822 58.3371C66.5126 58.0575 66.3727 57.7169 66.0874 57.605C54.4015 52.7012 43.6401 44.2658 36.6594 38.0579C29.086 31.3239 24.2311 25.6696 24.182 25.6174C23.9871 25.3751 23.6134 25.3435 23.3835 25.5522C23.1373 25.7434 23.1056 26.1107 23.3182 26.337C23.3673 26.3892 28.2713 32.0957 35.8937 38.8819C42.9228 45.1587 53.8001 53.6825 65.6541 58.6432C65.7038 58.6787 65.7719 58.6814 65.84 58.6841Z" fill="#E89933"/>
</g>
<g opacity="0.7">
<path opacity="0.7" d="M65.1772 75.3775C65.4155 75.387 65.625 75.2613 65.7194 75.0305C65.8328 74.7502 65.71 74.4102 65.4076 74.2977C58.3138 71.3689 46.937 65.1205 32.9736 51.9005C24.5951 43.9785 19.2041 37.2307 19.1557 37.1618C18.9608 36.9195 18.6047 36.8718 18.3585 37.0631C18.1122 37.2544 18.0642 37.6043 18.2592 37.8465C18.3076 37.9155 23.7476 44.7155 32.1752 52.6897C39.9622 60.052 51.9776 69.9613 64.992 75.3199C65.0588 75.356 65.1262 75.3755 65.1772 75.3775Z" fill="#E89933"/>
</g>
<g opacity="0.7">
<path opacity="0.7" d="M15.9966 73.4239C16.0568 73.4263 16.1176 73.4144 16.1783 73.4026C28.0179 69.755 39.2751 62.1801 46.6457 56.46C54.6224 50.2794 59.8851 44.8887 59.9325 44.8336C60.121 44.6416 60.1028 44.3416 59.8989 44.1626C59.695 43.9835 59.3779 43.9994 59.1894 44.1914C59.142 44.2465 53.9111 49.5957 45.9963 55.736C32.7643 65.9824 22.3063 70.5113 15.8678 72.4926C15.6087 72.5678 15.4619 72.8469 15.5426 73.0924C15.6105 73.2803 15.801 73.4161 15.9966 73.4239Z" fill="#E89933"/>
</g>
<g opacity="0.7">
<path opacity="0.7" d="M64.6177 89.4615C64.856 89.4709 65.0655 89.3452 65.1599 89.1144C65.2733 88.8341 65.1505 88.4942 64.8481 88.3817C52.0019 83.08 40.1187 73.2765 32.3977 65.967C24.0363 58.0458 18.6452 51.2979 18.5798 51.2283C18.3849 50.986 18.0288 50.9384 17.7826 51.1296C17.5364 51.3209 17.4884 51.6708 17.6833 51.9131C17.7317 51.982 23.1718 58.782 31.5993 66.7562C39.4027 74.136 51.4181 84.0452 64.4325 89.4038C64.4993 89.44 64.5667 89.4594 64.6177 89.4615Z" fill="#E89933"/>
</g>
<g opacity="0.7">
<path opacity="0.7" d="M15.502 87.5105C15.57 87.5132 15.6388 87.4992 15.7075 87.4852C29.1059 83.1758 41.8525 74.2502 50.1997 67.512C59.2332 60.2315 65.1955 53.8844 65.2492 53.8195C65.4628 53.5934 65.4427 53.2408 65.2124 53.0306C64.9821 52.8204 64.6234 52.8397 64.4099 53.0658C64.3562 53.1306 58.4298 59.4289 49.4664 66.662C34.4813 78.732 22.6441 84.0751 15.3579 86.4159C15.0646 86.5047 14.8982 86.8332 14.989 87.1216C15.0655 87.3424 15.2807 87.5017 15.502 87.5105Z" fill="#E89933"/>
</g>
<g opacity="0.7">
<path opacity="0.7" d="M16.6425 56.73C16.7005 56.7323 16.7589 56.7213 16.8174 56.7103C27.1895 53.5444 36.9798 47.485 43.3712 42.9595C50.2851 38.0675 54.8208 33.8554 54.8659 33.8171C55.0472 33.6374 55.0438 33.3569 54.8618 33.1895C54.6653 33.0215 54.3605 33.0227 54.1797 33.1891C54.1347 33.2273 49.6439 37.4012 42.7751 42.2549C36.4438 46.7295 26.7575 52.7262 16.5175 55.8573C16.2675 55.9408 16.127 56.1889 16.2194 56.4195C16.27 56.6084 16.4541 56.7226 16.6425 56.73Z" fill="#E89933"/>
</g>
</g>
</g>
<path d="M34.8714 54.1402L39.8807 54.3244C40.5336 54.3484 41.0821 53.8468 41.1056 53.204L41.1049 53.2237C41.1065 53.1801 41.1066 53.1367 41.1057 53.0936C41.1093 53.0564 41.1124 53.0192 41.1138 52.9817C41.1669 51.534 39.5593 50.2996 37.523 50.2248C35.4868 50.1499 33.7931 51.2628 33.74 52.7104C33.7386 52.748 33.739 52.7854 33.7398 52.8227C33.7359 52.8657 33.7327 52.9088 33.7311 52.9525L33.7318 52.9328C33.7083 53.5757 34.2185 54.1162 34.8714 54.1402Z" fill="#102770"/>
<path d="M37.5427 50.1371C38.54 50.1767 39.468 50.4895 40.1573 51.0187C40.8587 51.5572 41.2303 52.2554 41.2035 52.9845C41.202 53.0245 41.1987 53.0633 41.1956 53.0966C41.1963 53.1358 41.1962 53.1721 41.1952 53.2069L41.1953 53.2069L41.1946 53.2265C41.1946 53.2265 41.1946 53.2265 41.1946 53.2266L41.1944 53.2266C41.1587 53.9073 40.5723 54.4374 39.8779 54.4119L34.8686 54.2277C34.8673 54.2276 34.8659 54.2276 34.8647 54.2275C34.5265 54.2141 34.2136 54.0723 33.983 53.828C33.756 53.5876 33.6355 53.276 33.6425 52.9489L33.6423 52.9489C33.6423 52.9483 33.6424 52.9479 33.6424 52.9474L33.643 52.9293C33.643 52.9293 33.643 52.9292 33.643 52.9292L33.6431 52.9292C33.6447 52.8945 33.6473 52.8582 33.6509 52.8191C33.6502 52.7856 33.6498 52.7465 33.6512 52.7068C33.706 51.2129 35.4446 50.06 37.5267 50.1365C37.532 50.1367 37.5374 50.1369 37.5427 50.1371ZM41.0165 53.2089C41.0176 53.1733 41.0177 53.1359 41.0168 53.0948L41.0168 53.0897L41.0172 53.0847C41.0203 53.0529 41.0236 53.0153 41.025 52.9779C41.0496 52.3067 40.7025 51.6601 40.0475 51.1572C39.3876 50.6505 38.496 50.3509 37.5358 50.3127C37.5306 50.3125 37.5255 50.3123 37.5203 50.3121C35.5365 50.2392 33.8809 51.3164 33.8297 52.7132C33.8283 52.7504 33.8289 52.7883 33.8296 52.8204L33.8297 52.8254L33.8292 52.8304C33.8254 52.8712 33.8228 52.9084 33.8213 52.9438C33.8129 53.2283 33.9166 53.4995 34.1137 53.7084C34.3119 53.9183 34.581 54.0402 34.8717 54.0518C34.8728 54.0518 34.8739 54.0519 34.875 54.0519L39.8843 54.2361C40.4842 54.2582 40.9902 53.7981 41.0165 53.2089Z" fill="#0F227A"/>
<path d="M37.8044 54.5208C38.8501 54.5599 39.7979 54.3415 40.471 53.9635C40.3826 53.1606 39.2675 52.4911 37.8792 52.4392C36.4909 52.3873 35.3307 52.9717 35.1849 53.7659C35.8292 54.1931 36.7587 54.4817 37.8044 54.5208Z" fill="#DC427A"/>
<path d="M37.5641 49.5906C38.6767 49.6348 39.718 49.9885 40.4983 50.5876C41.3442 51.237 41.7917 52.0955 41.7584 53.0049C41.7569 53.0458 41.7541 53.084 41.7511 53.118C41.7514 53.149 41.7513 53.1787 41.7506 53.2077C41.7506 53.2142 41.7504 53.2207 41.7502 53.2273L41.7495 53.2464C41.7495 53.2465 41.7495 53.2467 41.7495 53.2469L41.7495 53.2469C41.7491 53.2566 41.7486 53.2663 41.7478 53.2759C41.686 54.2441 40.8484 54.9947 39.8577 54.9583L34.8484 54.7741C34.8465 54.774 34.8446 54.774 34.8428 54.7739C34.357 54.7546 33.9074 54.5509 33.5761 54.1999C33.2548 53.8594 33.082 53.4198 33.0866 52.9571C33.0865 52.9476 33.0867 52.938 33.087 52.9284C33.0871 52.9275 33.0871 52.9266 33.0871 52.9258L33.0877 52.9097C33.0877 52.9093 33.0878 52.909 33.0878 52.9088L33.0878 52.9085C33.088 52.9022 33.0883 52.896 33.0887 52.8897C33.0902 52.8606 33.0923 52.8307 33.0948 52.7997C33.0944 52.7654 33.0944 52.7271 33.0959 52.6863C33.1293 51.777 33.6384 50.9537 34.5297 50.3681C35.356 49.8252 36.4274 49.5489 37.5466 49.59C37.5523 49.5901 37.5583 49.5904 37.5641 49.5906ZM40.4612 53.1876C40.4618 53.1623 40.4619 53.1351 40.4613 53.1049C40.4608 53.0807 40.4617 53.0565 40.464 53.0324C40.4663 53.0084 40.4688 52.9808 40.4697 52.9574C40.4877 52.4663 40.2165 51.9801 39.706 51.5882C39.1339 51.1489 38.3505 50.8905 37.5 50.8585C35.8508 50.7979 34.4241 51.6565 34.3846 52.7336C34.3837 52.7568 34.3842 52.7847 34.3847 52.809C34.3852 52.8331 34.3844 52.8573 34.3821 52.8813C34.3793 52.9114 34.3774 52.9384 34.3762 52.9635C34.373 53.1022 34.4241 53.2344 34.5202 53.3363C34.6178 53.4397 34.7502 53.4997 34.8932 53.5053C34.8938 53.5054 34.8943 53.5054 34.8949 53.5054L39.9042 53.6896C40.1982 53.7004 40.4464 53.4758 40.4612 53.1876Z" fill="#0F227A"/>
<path d="M14.9174 47.4723C16.8872 47.7537 20.4303 48.7354 22.0929 49.8993C24.2034 51.3766 24.8122 53.6738 26.3138 55.1754C26.9469 55.8085 28.6353 57.919 30.9568 58.341C32.989 58.7105 33.7274 59.9696 35.5081 60.2776C36.5727 60.3181 37.0438 60.346 36.3384 60.346C36.036 60.346 35.7615 60.3214 35.5081 60.2776C33.6425 60.2065 29.9539 60.0966 27.5801 60.0294L19.6659 53.276L14.3898 50.7435L14.9174 47.4723Z" fill="#FFE890"/>
<g opacity="0.3">
<path opacity="0.3" d="M37.477 76.5341L35.2011 76.4437C23.4242 75.9759 14.2421 66.205 14.7019 54.6302L14.5749 57.8257C14.1151 69.4006 23.2973 79.1714 35.0741 79.6392L37.35 79.7296C49.1269 80.1975 59.0552 71.1858 59.515 59.6109L59.6419 56.4153C59.1821 67.9902 49.2539 77.0019 37.477 76.5341Z" fill="#11276B"/>
</g>
<g opacity="0.7">
<path opacity="0.7" d="M39.465 26.5062L37.1891 26.4158C33.8295 26.2823 30.602 26.9187 27.73 28.1737C26.96 28.4276 26.2769 28.7739 25.7556 29.1444C19.5934 32.6158 15.3225 39.0251 15.0249 46.5168L14.9375 48.7181C15.2273 41.4217 19.2765 35.1281 25.1873 31.6111C25.947 32.068 27.3747 32.107 28.8951 31.6339C30.7455 31.0495 32.0384 29.9274 32.0028 29.0013C33.6439 28.6754 35.3503 28.5298 37.0843 28.5987L39.3602 28.6891C51.1371 29.1569 60.3192 38.9277 59.8594 50.5026L59.9469 48.3012C60.4247 36.7271 51.2419 26.974 39.465 26.5062Z" fill="white"/>
</g>
<path d="M35.0637 80.3676L37.3396 80.458C49.4958 80.9409 59.7807 71.6055 60.2553 59.6578L60.7045 48.3492C61.1791 36.4015 51.6672 26.2797 39.511 25.7968L37.2351 25.7064C25.0789 25.2235 14.7941 34.5589 14.3194 46.5066L13.8702 57.8152C13.3956 69.7629 22.8895 79.884 35.0637 80.3676ZM39.4365 27.2163C50.7979 27.6677 59.6669 37.1238 59.224 48.2726L58.7748 59.5812C58.3312 70.7478 48.7228 79.4521 37.3794 79.0015L35.1035 78.9111C23.742 78.4598 14.8731 69.0037 15.3159 57.8548L15.7652 46.5463C16.2087 35.3797 25.8172 26.6753 37.1606 27.1259L39.4365 27.2163Z" fill="#11276B"/>
<path d="M42.7376 46.6359C42.6486 48.8767 44.0546 50.752 45.8777 50.8244C47.7009 50.8968 49.2508 49.139 49.3399 46.8981C49.4289 44.6573 48.0233 42.7817 46.2001 42.7093C44.3769 42.6369 42.8266 44.3951 42.7376 46.6359Z" fill="#000072"/>
<path d="M24.8966 45.8554C24.8076 48.0962 26.2136 49.9715 28.0367 50.0439C29.8599 50.1163 31.4098 48.3585 31.4988 46.1177C31.5879 43.8769 30.1822 42.0013 28.3591 41.9288C26.5359 41.8564 24.9856 43.6146 24.8966 45.8554Z" fill="#000072"/>
<path d="M44.1384 47.6462C44.1084 48.4017 44.5821 49.0337 45.1969 49.0581C45.8112 49.0825 46.3336 48.4901 46.3636 47.7346C46.3936 46.9795 45.9199 46.3475 45.3055 46.3231C44.6908 46.2987 44.1684 46.8911 44.1384 47.6462Z" fill="white"/>
<path d="M29.7409 47.0739C29.7109 47.8294 29.1885 48.4218 28.5738 48.3974C27.9594 48.373 27.4857 47.741 27.5157 46.9855C27.5457 46.2304 28.0681 45.638 28.6825 45.6624C29.2972 45.6868 29.7709 46.3188 29.7409 47.0739Z" fill="white"/>
<path d="M42.7705 40.3707C42.3815 40.3553 42.0754 40.0354 42.0844 39.6509C42.1281 37.7909 43.7008 36.3147 45.5901 36.36C45.6086 36.3605 45.6272 36.3611 45.6456 36.3618C47.5088 36.4358 48.9805 37.9736 48.9373 39.8154C48.9281 40.2037 48.6009 40.5108 48.2065 40.5013C48.2026 40.5012 48.1987 40.5011 48.1949 40.5009C47.806 40.4855 47.4998 40.1656 47.5088 39.7811C47.5212 39.2557 47.325 38.7568 46.9563 38.3762C46.5877 37.9956 46.0908 37.7793 45.5571 37.7661C44.4554 37.7397 43.5383 38.6005 43.5128 39.6851C43.5037 40.0734 43.1765 40.3805 42.7821 40.371C42.7782 40.371 42.7743 40.3709 42.7705 40.3707Z" fill="#0F227A"/>
<path d="M25.8564 39.6988C25.4675 39.6833 25.1613 39.3634 25.1703 38.9789C25.2141 37.119 26.7867 35.6427 28.6761 35.6881C29.5913 35.7093 30.4435 36.0815 31.0757 36.7342C31.7079 37.3868 32.0444 38.2425 32.0232 39.1434C32.0141 39.5317 31.6869 39.8388 31.2925 39.8293C31.2886 39.8293 31.2847 39.8291 31.2809 39.829C30.8919 39.8135 30.5858 39.4936 30.5948 39.1091C30.6072 38.5838 30.411 38.0848 30.0423 37.7042C29.6737 37.3237 29.1767 37.1069 28.643 37.0942C27.5413 37.0677 26.6243 37.9286 26.5987 39.0132C26.5896 39.4015 26.2625 39.7086 25.868 39.6991C25.8641 39.699 25.8602 39.6989 25.8564 39.6988Z" fill="#0F227A"/>
<path d="M3.66177 46.2145C3.93868 41.5511 7.9261 44.6333 7.9261 44.6333C6.86752 41.6405 9.07218 40.0454 10.8148 42.9246C12.5575 45.8037 16.1115 50.1293 16.1115 50.1293L18.6189 68.9244C15.0014 65.7698 5.04762 53.0083 3.8008 47.4064C3.70242 46.9685 3.64642 46.5487 3.66177 46.2145Z" fill="#FFD225"/>
<g opacity="0.3">
<path opacity="0.3" d="M3.66218 46.2146C3.93909 41.5512 7.92651 44.6334 7.92651 44.6334C6.86793 41.6405 9.07259 40.0455 10.8153 42.9247C12.5579 45.8038 16.1119 50.1294 16.1119 50.1294L17.7949 62.7449C17.7949 62.7449 14.1907 54.7481 11.0602 49.7024C8.66701 45.841 4.99089 45.5416 3.78157 47.4091C3.70283 46.9686 3.64683 46.5488 3.66218 46.2146Z" fill="#11276B"/>
</g>
<path d="M8.63407 40.5068C8.37882 40.5404 8.14943 40.618 7.96553 40.7371C7.20719 41.1928 6.90686 42.0865 6.89386 43.0374C6.11139 42.7132 5.16777 42.5288 4.34741 42.9689C3.47126 43.4401 2.99325 44.4995 2.90406 46.0773C2.59023 51.3625 14.4187 66.3451 18.2119 69.619C18.4621 69.8471 18.8052 69.8731 19.0583 69.6737C19.3145 69.4977 19.4477 69.148 19.3979 68.7748L16.8905 49.9798C16.8656 49.7933 16.7818 49.6145 16.6618 49.4642C16.636 49.4201 13.1307 45.1593 11.4397 42.3683C10.4986 40.8548 9.43908 40.401 8.63407 40.5068ZM8.06693 45.5406C8.20437 45.5225 8.33559 45.4578 8.44095 45.349C8.68783 45.103 8.77239 44.6885 8.64407 44.3257C8.2881 43.3048 8.42728 42.5509 8.72276 42.3697C9.01824 42.1885 9.59192 42.4452 10.2031 43.4326C11.7648 46.0033 14.6405 49.5877 15.4057 50.5311L17.5678 66.7377C15.474 64.5216 12.5787 60.9399 10.1599 57.4853C6.48467 52.2502 4.32906 48.0729 4.43574 46.3267C4.49424 45.4173 4.70068 44.8682 5.05195 44.6559C5.75762 44.2546 7.10561 45.0739 7.52844 45.3979C7.70418 45.5171 7.89022 45.5639 8.06693 45.5406Z" fill="#11276B"/>
<g opacity="0.7">
<path opacity="0.7" d="M50.7671 56.1178C50.8316 56.3208 50.9571 56.51 51.1006 56.6092C52.1146 57.3402 56.2713 60.2874 58.6406 60.9545C59.5479 61.2149 60.0556 61.1638 60.2278 60.9225C60.7285 61.7891 60.3559 62.2434 58.7882 61.8025C56.4189 61.1355 52.2675 58.1996 51.2482 57.4572C51.1047 57.358 50.9792 57.1688 50.9147 56.9658L48.8276 50.5348C48.7683 50.3431 48.7662 50.1939 48.8152 50.0899L50.7671 56.1178Z" fill="white"/>
</g>
<path d="M61.3618 54.1143C60.0314 54.476 57.1576 54.12 55.887 53.8968L55.0312 61.6363C56.6668 61.8741 60.3883 62.0564 62.1896 60.8842L64.4412 59.419C64.7993 59.6059 65.8441 59.9929 67.1581 60.0451C67.9816 60.0778 69.4594 59.1865 70.7741 58.2318C71.4779 58.001 72.2088 57.4612 72.7766 56.6407C74.1728 54.6232 72.3731 52.997 71.2987 52.4361C71.7391 50.5534 71.9628 46.7619 69.3349 46.6575C66.05 46.527 67.528 50.7316 67.5074 51.249C67.4869 51.7664 65.8444 51.7012 64.1609 52.6708C62.4773 53.6404 63.0247 53.6621 61.3618 54.1143Z" fill="#FFD225"/>
<path d="M71.2987 52.4361C71.7391 50.5534 71.9628 46.7619 69.3349 46.6575C66.05 46.527 67.528 50.7316 67.5074 51.249C67.4869 51.7664 65.8444 51.7012 64.1609 52.6708C62.4773 53.6404 63.0247 53.6621 61.3618 54.1143C60.0314 54.476 57.1576 54.12 55.887 53.8968L55.0312 61.6363C56.6668 61.8741 60.3883 62.0564 62.1896 60.8842C63.9909 59.712 64.4412 59.419 64.4412 59.419C64.7993 59.6059 65.8441 59.9929 67.1581 60.0451C68.472 60.0973 71.4512 57.7972 72.7766 56.6407M71.2987 52.4361C72.3731 52.997 74.1728 54.6232 72.7766 56.6407M71.2987 52.4361C70.5756 52.2346 68.9911 52.5517 68.438 55.4319C67.7467 59.032 71.0314 59.1625 72.7766 56.6407" stroke="#11276B" stroke-width="2"/>
<path d="M66.9871 53.8606C65.1965 56.291 59.5152 59.8176 57.2247 59.7266L57.142 61.808C57.6775 61.6556 58.6263 61.7627 60.3342 61.4137C62.0422 61.0646 62.5105 59.9367 63.5883 59.4583L66.3138 57.482C66.5589 55.7545 68.7777 51.4302 66.9871 53.8606Z" fill="#B79E3A"/>
<path d="M72.7766 56.6404C74.1728 54.623 72.373 52.9968 71.2987 52.4359C70.5756 52.2344 68.9911 52.5515 68.438 55.4316C67.7466 59.0318 71.0314 59.1623 72.7766 56.6404Z" fill="#FFD225" stroke="#11276B" stroke-width="2"/>
<rect x="0.260925" y="0.653205" width="3.2235" height="35.2336" rx="1.5" transform="matrix(0.921014 0.38953 -0.399163 0.91688 72.2903 41.9272)" fill="#D9D9D9" stroke="#11276B"/>
<rect width="0.627155" height="34.3212" rx="0.313577" transform="matrix(0.921014 0.38953 -0.399163 0.91688 75.186 43.494)" fill="#B9BFD8"/>
<ellipse cx="78.3447" cy="32.9777" rx="10.7632" ry="11.2908" fill="white"/>
<path fill-rule="evenodd" clip-rule="evenodd" d="M72.2283 45.154C79.4789 48.2206 87.8745 44.9231 90.9804 37.7888C94.0862 30.6546 90.7263 22.3852 83.4757 19.3187C76.225 16.2521 67.8294 19.5496 64.7236 26.6839C61.6177 33.8181 64.9776 42.0875 72.2283 45.154ZM73.8347 41.4631C79.0137 43.6535 85.0106 41.2982 87.2291 36.2023C89.4476 31.1064 87.0476 25.1997 81.8686 23.0093C76.6896 20.8189 70.6927 23.1743 68.4742 28.2702C66.2557 33.366 68.6557 39.2727 73.8347 41.4631Z" fill="#B5002B"/>
<rect width="24.2663" height="4.1357" transform="matrix(0.997769 -0.116108 0.11988 0.988179 65.6392 31.5478)" fill="#B5002B"/>
<path d="M21.5607 59.2133C21.6137 59.2477 27.1195 62.6958 37.0378 63.0898C46.9529 63.4836 52.7131 60.4824 52.7705 60.4531C53.0424 60.3076 53.3813 60.3173 53.6442 60.4878C53.9072 60.6583 54.0631 60.956 54.0504 61.2756L53.8831 65.4896C53.7658 68.4407 41.4859 69.2656 36.8003 69.0795L36.76 69.0779C32.1132 68.8933 19.9376 67.097 20.0548 64.1458L20.2222 59.9318C20.2349 59.6123 20.414 59.3278 20.6897 59.1787C20.9641 59.0296 21.2984 59.0429 21.5607 59.2133Z" fill="#A8A8A8"/>
<path d="M60.0749 61.5134L60.0749 61.5134M60.0749 61.5134L60.4529 50.9166C60.631 51.1375 60.4216 53.5132 60.2821 53.7456C60.2789 53.7507 60.2644 53.7697 60.2402 53.8014C59.7544 54.438 55.3596 60.1968 60.0749 61.5134M60.0749 61.5134L60.0749 61.5134M60.0749 61.5134L60.092 61.5293L60.2606 61.6863M14.1314 62.9214L13.8928 63.132L13.4597 75.49L13.4595 75.4947C13.4591 75.503 13.4589 75.5103 13.4587 75.5165C13.4593 75.5173 13.46 75.5181 13.4607 75.5189C13.4746 75.536 13.4982 75.562 13.5357 75.5961C13.6121 75.6653 13.7399 75.7623 13.9474 75.8817C14.8131 76.3798 16.7257 77.0814 20.8391 77.9072L20.8393 77.9072C25.5515 78.854 31.2297 79.3271 36.0437 79.5183L36.1307 79.5218C40.9405 79.7128 46.6552 79.6917 51.4277 79.1223L51.4277 79.1223C55.5938 78.6254 57.556 78.0782 58.4585 77.6504C58.6748 77.5479 58.8098 77.4614 58.8914 77.3985C58.9315 77.3675 58.9571 77.3435 58.9723 77.3276C58.9731 77.3268 58.9738 77.3261 58.9745 77.3253C58.9748 77.3199 58.975 77.3137 58.9753 77.3066L59.4453 62.3635C58.1554 61.9117 57.349 61.0909 57.0459 59.9993C56.7431 58.909 57.0036 57.747 57.3613 56.7987C57.964 55.2007 59.0924 53.6473 59.3723 53.2884C59.3814 53.2379 59.3916 53.174 59.4025 53.0971C59.4352 52.8648 59.4668 52.5619 59.4893 52.2539C59.5006 52.0991 59.5092 51.9482 59.5147 51.8088C58.3759 51.7088 57.5365 51.8207 56.6091 52.0033C56.3819 52.048 56.1462 52.0979 55.8978 52.1505C54.8851 52.3648 53.663 52.6235 51.9596 52.756C51.124 52.8634 50.6375 53.3967 50.3078 54.095C50.1408 54.4486 50.0312 54.815 49.9531 55.13C49.9212 55.2587 49.8963 55.3713 49.873 55.4766C49.8676 55.5013 49.8622 55.5255 49.8568 55.5495C49.8437 55.6082 49.8288 55.6742 49.8132 55.7337L49.8131 55.7342C49.8084 55.7524 49.8004 55.7829 49.7888 55.8205C49.5152 57.3725 48.467 58.3847 47.2261 59.0165C45.983 59.6494 44.4554 59.9556 43.0123 60.104C41.5544 60.2539 40.1004 60.2502 38.9617 60.2165C38.4719 60.202 38.0347 60.1817 37.6821 60.1654C37.6243 60.1627 37.5688 60.1601 37.5157 60.1577C37.3246 60.149 37.1699 60.1424 37.0486 60.1392C36.9883 60.1376 36.9414 60.137 36.9058 60.1371C36.8701 60.1373 36.8572 60.1382 36.8595 60.138L36.7381 60.148L36.6171 60.1283C36.5577 60.1186 36.3992 60.1034 36.1618 60.0806C35.1167 59.9802 32.5438 59.733 30.179 59.1661C28.6967 58.8108 27.1576 58.3057 25.9426 57.567C24.7709 56.8547 23.734 55.8167 23.5551 54.345C23.5398 54.2967 23.5253 54.2477 23.5104 54.1969C23.4338 53.9375 23.3442 53.6341 23.0697 53.1734C22.7165 52.5805 22.0706 51.8035 20.8441 51.0759C18.5863 49.7366 17.1921 49.3438 16.3462 49.3056C15.7817 49.2801 15.4388 49.4103 15.1953 49.5737C15.194 49.5911 15.1927 49.6096 15.1914 49.6291C15.1751 49.8811 15.1698 50.2195 15.1743 50.574C15.1787 50.9263 15.1926 51.2751 15.2119 51.5438C15.2206 51.666 15.2298 51.7623 15.2383 51.8305L15.2627 51.8754C15.3081 51.9595 15.3682 52.071 15.4383 52.2053C15.5784 52.4738 15.7587 52.8331 15.9488 53.2553C16.3255 54.0919 16.7555 55.208 16.9774 56.3746C17.196 57.5237 17.2377 58.8511 16.6899 60.0185C16.2129 61.035 15.3505 61.8037 14.0812 62.2376L14.0951 62.4268L14.1314 62.9214ZM13.9386 62.9102L13.938 62.9122C13.9391 62.9082 13.9398 62.9055 13.9394 62.9069L13.9391 62.9081L13.9386 62.9102Z" fill="#FAFF00" stroke="#11276B" stroke-width="2"/>
<path d="M37.3923 67.369C30.4068 67.369 23.2072 65.288 20.9323 64.0394L20.9323 64.7677C23.0734 65.8429 28.7809 68.6384 36.0875 69.1378C43.3942 69.6372 51.1115 68.0492 53.433 65.2001L52.9054 64.1449C49.0011 65.5167 40.9051 67.369 37.3923 67.369Z" fill="#DDE04F"/>
<path d="M21.5522 58.3018C21.6052 58.3361 27.111 61.7842 37.0293 62.1782C46.9444 62.5721 52.7046 59.5709 52.762 59.5415C53.0339 59.396 53.3728 59.4058 53.6357 59.5762C53.8987 59.7467 54.0547 60.0445 54.042 60.3641L53.8746 64.5781C53.7573 67.5292 41.4775 68.354 36.7918 68.1679L36.7516 68.1663C32.1047 67.9817 19.9291 66.1855 20.0463 63.2343L20.2137 59.0203C20.2264 58.7007 20.4055 58.4163 20.6812 58.2672C20.9556 58.118 21.2899 58.1313 21.5522 58.3018Z" fill="#A8A8A8"/>
<path d="M38.2378 66.3607C30.8935 66.3607 23.3241 64.2503 20.9323 62.984L20.9323 63.7227C23.1834 64.813 29.1841 67.6481 36.866 68.1546C44.548 68.6611 51.0412 66.4662 53.3275 65.3055L53.2219 62.8785C50.3728 66.1497 41.9311 66.3607 38.2378 66.3607Z" fill="#8E8E8E"/>
<path d="M52.8837 64.6057L53.0433 60.5892C53.0029 60.6085 52.9562 60.6305 52.9034 60.6549C52.7054 60.7462 52.4204 60.8714 52.0515 61.018C51.3137 61.3111 50.2399 61.6898 48.8544 62.0532C46.0829 62.7802 42.065 63.4461 36.998 63.2448C27.8279 62.8805 22.3068 59.9605 21.2134 59.3265L21.0539 63.3413L21.0539 63.3415C21.0537 63.3466 21.0529 63.3657 21.074 63.4098C21.098 63.46 21.1501 63.5406 21.2566 63.6474C21.4767 63.8683 21.8505 64.1234 22.4017 64.3932C23.498 64.9299 25.0679 65.4166 26.8477 65.8312C30.395 66.6576 34.5379 67.1446 36.7996 67.2345L36.8398 67.2361C39.1212 67.3267 43.2995 67.1702 46.906 66.6279C48.7155 66.3559 50.3203 65.9953 51.4563 65.5473C52.0274 65.322 52.4205 65.0974 52.6574 64.8947C52.772 64.7967 52.8304 64.7204 52.8583 64.6723C52.8828 64.6301 52.8835 64.611 52.8837 64.6059L52.8837 64.6057Z" stroke="#11276B" stroke-width="2"/>
<path d="M21.1576 66.3214C21.2105 66.3558 26.7163 69.8039 36.6347 70.1979C46.5498 70.5917 52.31 67.5905 52.3674 67.5612C52.6392 67.4157 52.9781 67.4254 53.2411 67.5959C53.504 67.7664 53.66 68.0641 53.6473 68.3837L53.4799 72.5977C53.3627 75.5488 41.0828 76.3737 36.3971 76.1876L36.3569 76.186C31.7101 76.0014 19.5345 74.2051 19.6517 71.2539L19.8191 67.0399C19.8318 66.7204 20.0109 66.4359 20.2865 66.2868C20.561 66.1377 20.8952 66.151 21.1576 66.3214Z" fill="#A8A8A8"/>
<path d="M37.8432 74.3804C30.4989 74.3804 22.9294 72.2699 20.5376 71.0037L20.5376 71.7423C22.7887 72.8327 28.7894 75.6677 36.4714 76.1742C44.1534 76.6807 50.6465 74.4859 52.9328 73.3251L52.8273 70.8981C49.9782 74.1693 41.5364 74.3804 37.8432 74.3804Z" fill="#8E8E8E"/>
<path d="M52.4891 72.6254L52.6486 68.6089C52.6082 68.6282 52.5616 68.6501 52.5087 68.6745C52.3107 68.7658 52.0258 68.8911 51.6569 69.0376C50.9191 69.3308 49.8453 69.7094 48.4598 70.0729C45.6882 70.7999 41.6703 71.4657 36.6033 71.2645C27.4332 70.9002 21.9122 67.9802 20.8187 67.3462L20.6593 71.361L20.6593 71.3612C20.659 71.3662 20.6583 71.3853 20.6794 71.4294C20.7034 71.4796 20.7555 71.5603 20.8619 71.6671C21.082 71.8879 21.4559 72.143 22.007 72.4129C23.1033 72.9496 24.6732 73.4362 26.453 73.8509C30.0004 74.6773 34.1433 75.1643 36.405 75.2541L36.4452 75.2557C38.7266 75.3463 42.9049 75.1898 46.5114 74.6476C48.3209 74.3755 49.9257 74.015 51.0617 73.5669C51.6328 73.3417 52.0258 73.117 52.2628 72.9143C52.3774 72.8163 52.4357 72.7401 52.4636 72.692C52.4881 72.6497 52.4889 72.6306 52.4891 72.6256L52.4891 72.6254Z" stroke="#11276B" stroke-width="2"/>
<path d="M36.2329 78.7068C22.0508 78.4535 15.5154 73.6066 13.8622 71.1093C13.8622 73.4308 13.5456 74.8026 13.7567 75.3302C14.2288 76.5099 20.6157 78.3903 36.2329 79.2345C48.7267 79.9098 56.4227 78.1793 58.7091 77.2296L58.8146 74.0639C57.1966 75.7874 50.415 78.9601 36.2329 78.7068Z" fill="#DDE04F"/>
</svg>
