<svg viewBox="0 0 42 42" xmlns="http://www.w3.org/2000/svg">
  <path
    d="M21 0C9.42047 0 0 9.42047 0 21C0 32.5795 9.42047 42 21 42C32.5795 42 42 32.5795 42 21C42 9.42047 32.5795 0 21 0ZM21 38.5946C11.2986 38.5946 3.40536 30.7021 3.40536 21C3.40536 11.2986 11.2985 3.40536 21 3.40536C30.702 3.40536 38.5946 11.2985 38.5946 21C38.5946 30.702 30.702 38.5946 21 38.5946Z"/>
  <path
    d="M31.4896 14.0955C30.8431 13.4139 29.7653 13.3838 29.0826 14.032L18.2125 24.3407L13.0278 19.0175C12.3712 18.3438 11.2945 18.329 10.6202 18.9857C9.94649 19.6418 9.9323 20.7196 10.5884 21.3934L16.9451 27.9198C17.2783 28.2621 17.721 28.4346 18.1649 28.4346C18.586 28.4346 19.0072 28.2791 19.3369 27.9675L31.4261 16.5027C32.1083 15.8556 32.1372 14.7778 31.4896 14.0955Z"/>
</svg>
