<svg viewBox="0 0 38 38" xmlns="http://www.w3.org/2000/svg">
  <g>
    <path
      d="M30.7708 -0.0742188H23.8934C22.2893 -0.0742188 20.9844 1.2307 20.9844 2.83452V9.71224C20.9844 11.3161 22.2893 12.621 23.8934 12.621H30.7708C32.3747 12.621 33.6796 11.3161 33.6796 9.71224V2.83452C33.6799 1.2307 32.3749 -0.0742188 30.7708 -0.0742188ZM31.4533 9.71224C31.4533 10.0883 31.1471 10.3944 30.7708 10.3944H23.8934C23.5171 10.3944 23.2112 10.0883 23.2112 9.71224V2.83452C23.2112 2.4585 23.5171 2.15235 23.8934 2.15235H30.7708C31.1471 2.15235 31.4533 2.4585 31.4533 2.83452V9.71224Z"/>
    <path
      d="M25.4421 15.4004C24.9077 15.4004 24.4041 15.5329 23.962 15.7669C23.3923 14.9134 22.4208 14.3503 21.32 14.3503C20.7515 14.3503 20.2174 14.5005 19.7553 14.7635C19.1769 13.9781 18.246 13.4675 17.198 13.4675C16.868 13.4675 16.5497 13.518 16.2502 13.6119V12.621H16.5146C18.1187 12.621 19.4237 11.3161 19.4237 9.71195V2.83452C19.4237 1.2307 18.1187 -0.0742188 16.5146 -0.0742188H9.63719C8.03337 -0.0742188 6.72845 1.2307 6.72845 2.83452V9.71224C6.72845 11.3161 8.03337 12.621 9.63719 12.621H9.90189V19.5175C9.72968 19.345 9.5363 19.1911 9.32408 19.0592C8.64017 18.6345 7.83826 18.4866 7.052 18.6379C6.20631 18.6719 5.44759 19.0409 4.95473 19.6622C4.43694 20.3148 4.25719 21.1898 4.46101 22.063L5.92422 28.3244C6.7586 33.5484 10.8337 37.4568 11.0073 37.6212C11.2141 37.8168 11.488 37.9259 11.7727 37.9259H24.2943C24.6691 37.9259 25.0185 37.7371 25.2246 37.424C27.4422 34.0505 28.6149 30.1337 28.6152 26.0969L28.6164 18.5747C28.6164 18.5747 28.6164 18.5747 28.6164 18.5744C28.6164 16.8242 27.1923 15.4004 25.4421 15.4004ZM12.2404 35.6993C11.3431 34.7449 8.69902 31.6631 8.11716 27.9388C8.11281 27.9112 8.10759 27.884 8.10121 27.8573L6.62901 21.5565C6.58001 21.346 6.60466 21.1646 6.69888 21.046C6.79281 20.9274 6.95401 20.8654 7.16913 20.8448C7.27726 20.8346 7.3222 20.8219 7.42251 20.8158C7.67503 20.8004 7.93393 20.8169 8.14905 20.9506C8.36417 21.0843 8.51405 21.2936 8.57175 21.54L9.84159 26.9748C9.9477 27.4285 10.3252 27.7683 10.7873 27.8263L10.8766 27.8373C11.1935 27.877 11.5121 27.7787 11.7516 27.5674C11.991 27.356 12.1282 27.0519 12.1282 26.7327V9.03934C12.1282 8.51662 12.5532 8.0916 13.0759 8.0916C13.5983 8.0916 14.0236 8.51662 14.0236 9.03934V19.479C14.0236 20.0936 14.522 20.5923 15.1369 20.5923C15.7518 20.5923 16.2502 20.0936 16.2502 19.479V16.6418C16.2502 16.1191 16.6752 15.6941 17.198 15.6941C17.7204 15.6941 18.1457 16.1191 18.1457 16.6418V19.6057C18.1457 20.2206 18.6441 20.719 19.259 20.719C19.8739 20.719 20.3723 20.2206 20.3723 19.6057V17.5246C20.3723 17.0022 20.7976 16.5769 21.32 16.5769C21.8427 16.5769 22.2677 17.0022 22.2677 17.5246V20.3832C22.2677 20.9979 22.7661 21.4965 23.381 21.4965C23.9959 21.4965 24.4943 20.9979 24.4943 20.3832V18.5747C24.4943 18.052 24.9196 17.6267 25.4421 17.6267C25.9648 17.6267 26.3898 18.052 26.3898 18.5744L26.3886 26.0966C26.3883 29.4994 25.4542 32.8065 23.6823 35.6993H12.2404ZM8.95502 9.71224V2.83452C8.95502 2.4585 9.26117 2.15235 9.63719 2.15235H16.5146C16.8909 2.15235 17.1971 2.4585 17.1971 2.83452V9.71224C17.1971 10.0883 16.8909 10.3944 16.5146 10.3944H16.2502V9.03905C16.2502 7.28882 14.8261 5.86474 13.0759 5.86474C11.3257 5.86474 9.9016 7.28882 9.9016 9.03905V10.3944H9.63719C9.26117 10.3944 8.95502 10.0883 8.95502 9.71224Z"/>
  </g>
</svg>
