<svg viewBox="0 0 42 42" xmlns="http://www.w3.org/2000/svg">
<path d="M21 33.0996C22.1326 33.0996 23.0508 32.1814 23.0508 31.0488C23.0508 29.9162 22.1326 28.998 21 28.998C19.8674 28.998 18.9492 29.9162 18.9492 31.0488C18.9492 32.1814 19.8674 33.0996 21 33.0996Z" />
<path d="M21 0C9.39389 0 0 9.39233 0 21C0 32.6061 9.39233 42 21 42C32.6061 42 42 32.6077 42 21C42 9.39389 32.6077 0 21 0ZM21 38.7188C11.2074 38.7188 3.28125 30.794 3.28125 21C3.28125 11.2074 11.206 3.28125 21 3.28125C30.7926 3.28125 38.7188 11.206 38.7188 21C38.7188 30.7926 30.794 38.7188 21 38.7188Z" />
<path d="M21 10.541C17.3814 10.541 14.4375 13.485 14.4375 17.1035C14.4375 18.0096 15.172 18.7441 16.0781 18.7441C16.9842 18.7441 17.7188 18.0096 17.7188 17.1035C17.7188 15.2942 19.1907 13.8223 21 13.8223C22.8093 13.8223 24.2812 15.2942 24.2812 17.1035C24.2812 18.9128 22.8093 20.3848 21 20.3848C20.0939 20.3848 19.3594 21.1193 19.3594 22.0254V26.127C19.3594 27.0331 20.0939 27.7676 21 27.7676C21.9061 27.7676 22.6406 27.0331 22.6406 26.127V23.4584C25.4679 22.7281 27.5625 20.1558 27.5625 17.1035C27.5625 13.485 24.6186 10.541 21 10.541Z" />
</svg>
