<svg viewBox="0 0 45 45" xmlns="http://www.w3.org/2000/svg">
  <g>
    <path
      d="M37.1767 24.0888C37.1767 23.3479 36.5758 22.7471 35.8346 22.7471C35.0934 22.7471 34.4926 23.3479 34.4926 24.0888C34.4926 30.6531 29.1525 35.9932 22.5882 35.9932C16.0242 35.9932 10.6841 30.6531 10.6841 24.0888C10.6841 23.3479 10.0833 22.7471 9.34205 22.7471C8.60082 22.7471 8 23.3479 8 24.0888C8 31.6807 13.8289 37.935 21.2461 38.6148V42.2276H16.2659C15.5246 42.2276 14.9238 42.8284 14.9238 43.5696C14.9238 44.3109 15.5246 44.9117 16.2659 44.9117H28.9108C29.6517 44.9117 30.2525 44.3109 30.2525 43.5696C30.2525 42.8284 29.6517 42.2276 28.9108 42.2276H23.9302V38.6148C31.3477 37.9353 37.1767 31.6807 37.1767 24.0888Z"/>
    <path
      d="M22.5888 32.6823C27.327 32.6823 31.1818 28.8275 31.1818 24.0893V8.50481C31.1818 3.76695 27.327 -0.0878906 22.5888 -0.0878906C17.8509 -0.0878906 13.9961 3.76695 13.9961 8.50481V24.0893C13.9961 28.8275 17.8509 32.6823 22.5888 32.6823ZM16.6799 8.50481C16.6799 5.24667 19.3307 2.59621 22.5888 2.59621C25.8469 2.59621 28.4977 5.24667 28.4977 8.50481V24.0893C28.4977 27.3474 25.8469 29.9982 22.5888 29.9982C19.3307 29.9982 16.6799 27.3474 16.6799 24.0893V8.50481Z"/>
  </g>
</svg>
