<svg viewBox="0 0 49 49" xmlns="http://www.w3.org/2000/svg">
  <path
    d="M41.3535 9.87197C41.2186 9.48916 40.8569 9.23296 40.4508 9.23296C38.071 9.23296 35.7534 9.6108 33.6044 10.3352C35.2507 7.13027 37.2866 5.0715 37.3107 5.04729C37.5853 4.77396 37.6679 4.36196 37.5201 4.00384C37.3721 3.64571 37.023 3.4121 36.6355 3.4121C33.79 3.4121 31.0878 4.4211 28.8494 6.28817C28.4651 4.90402 27.8994 3.56599 27.2059 2.41909C26.5387 1.31544 25.5288 0 24.5067 0C23.405 0 22.3826 1.32348 21.7188 2.43373C21.0485 3.55499 20.5023 4.87751 20.1299 6.26032C17.898 4.41124 15.2089 3.41201 12.3776 3.41201C11.9905 3.41201 11.6419 3.64552 11.4938 4.00317C11.3458 4.36081 11.428 4.77281 11.7017 5.04652C11.7265 5.07131 13.7651 7.13285 15.4119 10.3413C13.2577 9.6129 10.9336 9.23286 8.54694 9.23286C8.14096 9.23286 7.77921 9.48897 7.64426 9.87187C7.50942 10.2548 7.63067 10.6811 7.94697 10.9356C7.95788 10.9444 9.06019 11.8361 10.4708 13.3894C10.8261 13.7808 11.4314 13.8099 11.8227 13.4545C12.214 13.0993 12.2432 12.4939 11.8878 12.1027C11.6301 11.819 11.382 11.5558 11.1475 11.3142C13.1055 11.5691 14.957 12.1113 16.6376 12.9018C16.7719 13.0239 16.9384 13.1049 17.1165 13.1363C19.4179 14.3074 21.3704 15.959 22.7933 17.9922H21.7461C19.9199 17.9922 18.1912 18.4171 16.653 19.1723C16.3534 18.5169 16.0144 17.8578 15.6408 17.2074C15.3777 16.7491 14.793 16.5908 14.3343 16.8541C13.876 17.1173 13.7179 17.7023 13.9811 18.1606C14.3625 18.8249 14.7028 19.4975 14.9986 20.163C12.0644 22.2694 10.1493 25.7097 10.1493 29.5892V37.4032C10.1491 43.7977 15.3514 49 21.746 49H27.2631C33.6576 49 38.86 43.7977 38.86 37.4031V29.5891C38.86 25.7053 36.9406 22.2615 34.0009 20.1557C36.4209 14.7132 41.0048 10.9727 41.0508 10.9356C41.367 10.6811 41.4883 10.2548 41.3535 9.87197ZM34.3358 5.59863C33.3067 6.95082 31.9904 8.95925 31.0056 11.4225C30.824 11.5148 30.6441 11.6097 30.4662 11.7077C28.6191 12.7247 27.0044 14.0257 25.6842 15.5479C26.5785 10.5726 29.9985 6.64132 34.3358 5.59863ZM24.474 1.99101C25.0947 2.52685 26.6361 4.70907 27.2551 7.85627C26.0618 9.23248 25.1355 10.8271 24.5066 12.56C23.8732 10.8147 22.9383 9.20961 21.7327 7.82679C22.319 4.74515 23.797 2.508 24.474 1.99101ZM18.5316 11.7077C18.3601 11.6132 18.1865 11.5219 18.0115 11.4327C17.0262 8.96489 15.7078 6.95264 14.6773 5.59863C19.0214 6.64304 22.4455 10.5851 23.3334 15.5716C22.0094 14.0392 20.3881 12.7298 18.5316 11.7077ZM24.5394 20.3157L29.7336 25.5099L24.5394 30.7041L19.3452 25.5099L24.5394 20.3157ZM26.837 19.9062H27.2631C29.5237 19.9062 31.6056 20.6851 33.2553 21.9884L31.0872 24.1564L26.837 19.9062ZM24.5395 33.411L29.9157 38.7872L24.5395 44.1635L19.1633 38.7872L24.5395 33.411ZM17.8098 37.4338L12.6156 32.2396L17.9918 26.8634L23.186 32.0576L17.8098 37.4338ZM21.746 19.9062H22.2419L17.9918 24.1563L15.793 21.9576C17.4363 20.6729 19.5032 19.9062 21.746 19.9062ZM12.0632 29.589C12.0632 27.1807 12.9472 24.9751 14.4076 23.2791L16.6383 25.5099L12.0632 30.0849V29.589ZM13.232 42.0117C12.4868 40.6405 12.0633 39.0703 12.0633 37.4031V34.3943L16.4563 38.7873L13.232 42.0117ZM21.6252 47.0778C21.6231 47.0799 21.6213 47.0823 21.6192 47.0844C18.6964 47.0466 16.0819 45.7076 14.3297 43.6209L17.8098 40.1408L23.1861 45.517L21.6252 47.0778ZM27.2631 47.0859H24.324L31.2692 40.1408L34.7115 43.5831C32.9339 45.7218 30.255 47.0859 27.2631 47.0859ZM36.946 37.4031C36.946 39.0519 36.5313 40.6056 35.8014 41.9659L32.6227 38.7872L36.946 34.4639V37.4031ZM34.6336 23.3169C36.0747 25.0079 36.946 27.1984 36.946 29.5891V31.757L31.2692 37.4338L25.8929 32.0576L31.0872 26.8633L32.2847 28.0607C32.4716 28.2475 32.7165 28.341 32.9614 28.341C33.2063 28.341 33.4512 28.2475 33.6381 28.0607C34.0118 27.687 34.0118 27.081 33.6381 26.7072L32.4407 25.5098L34.6336 23.3169ZM32.3469 19.1676C30.8109 18.4153 29.0856 17.9922 27.2631 17.9922H26.2044C27.6256 15.9616 29.5751 14.3116 31.8728 13.1408C32.0666 13.1117 32.2474 13.0231 32.3901 12.8879C34.061 12.1058 35.9001 11.5688 37.8441 11.3151C36.2048 13.0009 33.9141 15.737 32.3469 19.1676Z"/>
  <path
    d="M13.8402 14.4733L13.829 14.4583C13.5124 14.0349 12.9129 13.9483 12.4895 14.2649C12.0662 14.5814 11.9796 15.1811 12.2961 15.6044L12.3073 15.6195C12.4953 15.8709 12.783 16.0035 13.0745 16.0035C13.2739 16.0035 13.4749 15.9415 13.6468 15.8129C14.0701 15.4964 14.1567 14.8966 13.8402 14.4733Z"/>
  <path
    d="M35.8015 28.8683C35.6236 28.6904 35.3767 28.5879 35.125 28.5879C34.8732 28.588 34.6264 28.6904 34.4484 28.8683C34.2704 29.0463 34.168 29.2932 34.168 29.5449C34.168 29.7966 34.2703 30.0435 34.4484 30.2215C34.6264 30.3995 34.8732 30.502 35.125 30.502C35.3767 30.502 35.6236 30.3996 35.8015 30.2215C35.9795 30.0435 36.082 29.7966 36.082 29.5449C36.082 29.2932 35.9796 29.0463 35.8015 28.8683Z"/>
  <path
    d="M25.1804 25.0422C25.0025 24.8642 24.7556 24.7617 24.5039 24.7617C24.2522 24.7617 24.0053 24.8641 23.8273 25.0422C23.6493 25.2201 23.5469 25.4671 23.5469 25.7198C23.5469 25.9715 23.6492 26.2174 23.8273 26.3963C24.0053 26.5743 24.2522 26.6768 24.5039 26.6768C24.7556 26.6768 25.0016 26.5744 25.1804 26.3963C25.3584 26.2174 25.4609 25.9715 25.4609 25.7198C25.4609 25.4671 25.3585 25.2212 25.1804 25.0422Z"/>
  <path
    d="M25.1804 38.2727C25.0025 38.0947 24.7556 37.9922 24.5039 37.9922C24.2522 37.9922 24.0053 38.0946 23.8273 38.2727C23.6493 38.4506 23.5469 38.6975 23.5469 38.9492C23.5469 39.202 23.6492 39.4478 23.8273 39.6258C24.0054 39.8038 24.2522 39.9062 24.5039 39.9062C24.7556 39.9062 25.0025 39.8048 25.1804 39.6258C25.3584 39.4478 25.4609 39.2009 25.4609 38.9492C25.4609 38.6975 25.3585 38.4507 25.1804 38.2727Z"/>
  <path
    d="M18.4617 31.7053C18.2838 31.5273 18.0369 31.4248 17.7852 31.4248C17.5335 31.4248 17.2865 31.5272 17.1085 31.7053C16.9305 31.8832 16.8281 32.1301 16.8281 32.3818C16.8281 32.6336 16.9304 32.8804 17.1085 33.0585C17.2866 33.2365 17.5335 33.3389 17.7852 33.3389C18.0369 33.3389 18.2838 33.2366 18.4617 33.0585C18.6397 32.8804 18.7422 32.6336 18.7422 32.3818C18.7422 32.1301 18.6398 31.8832 18.4617 31.7053Z"/>
  <path
    d="M31.9774 31.7053C31.7994 31.5273 31.5524 31.4248 31.3008 31.4248C31.0491 31.4248 30.8022 31.5272 30.6243 31.7053C30.4462 31.8832 30.3438 32.1301 30.3438 32.3818C30.3438 32.6336 30.4462 32.8804 30.6243 33.0585C30.8022 33.2365 31.0491 33.3389 31.3008 33.3389C31.5525 33.3389 31.7994 33.2366 31.9774 33.0585C32.1554 32.8804 32.2578 32.6336 32.2578 32.3818C32.2578 32.1301 32.1555 31.8832 31.9774 31.7053Z"/>
  <path
    d="M31.9735 43.5325C31.7955 43.3545 31.5486 43.252 31.2969 43.252C31.0442 43.252 30.7983 43.3544 30.6193 43.5325C30.4413 43.7104 30.3398 43.9573 30.3398 44.209C30.3398 44.4607 30.4413 44.7076 30.6193 44.8856C30.7983 45.0636 31.0442 45.166 31.2969 45.166C31.5486 45.166 31.7945 45.0637 31.9735 44.8856C32.1514 44.7066 32.2539 44.4607 32.2539 44.209C32.2539 43.9573 32.1515 43.7104 31.9735 43.5325Z"/>
  <path
    d="M18.4578 43.5325C18.2799 43.3545 18.0329 43.252 17.7812 43.252C17.5285 43.252 17.2825 43.3535 17.1037 43.5325C16.9257 43.7104 16.8242 43.9564 16.8242 44.209C16.8242 44.4607 16.9257 44.7076 17.1037 44.8856C17.2825 45.0636 17.5285 45.166 17.7812 45.166C18.0329 45.166 18.2799 45.0637 18.4578 44.8856C18.6358 44.7076 18.7372 44.4607 18.7372 44.209C18.7372 43.9564 18.6358 43.7104 18.4578 43.5325Z"/>
</svg>
