<?xml version="1.0" encoding="UTF-8"?>
<svg version="1.1" viewBox="0 0 100 100" xmlns="http://www.w3.org/2000/svg">
 <g>
  <path d="m64.879 73.32c0.85156-0.12891 1.4766-0.85937 1.4766-1.7188 0-0.85937-0.625-1.5898-1.4766-1.7227h-0.23828l-20.152-0.87891-10.078-0.32812c-2.7344-0.10547-5.3711-1.0625-7.5391-2.7305-4.3281-3.332-6.0508-9.0547-4.2812-14.223 1.7656-5.0547 6.5469-8.4297 11.898-8.4102l20.172-0.12109 10.078-0.1875c1.4414-0.085938 2.8867-0.023438 4.3125 0.19141 1.3125 0.25391 2.5742 0.71094 3.75 1.3477 4.9688 2.7266 7.6406 8.3242 6.6406 13.902-1.0859 5.8945-5.8008 10.445-11.73 11.32-0.82813 0.21484-1.3828 0.98438-1.332 1.8398-0.011718 0.4375 0.15234 0.86719 0.45703 1.1836 0.30469 0.31641 0.72266 0.5 1.1641 0.50391h0.25c3.8594-0.28125 7.5273-1.7812 10.473-4.2891 2.9453-2.5078 5.0156-5.8867 5.9062-9.6484 0.89844-3.9102 0.52734-8.0039-1.0586-11.688-1.582-3.6875-4.2969-6.7734-7.75-8.8125-1.7617-1.0156-3.6602-1.7656-5.6406-2.2227-1.8672-0.34375-3.7695-0.50391-5.668-0.46875l-10.082-0.16016h-1c0.87109-3.0977 0.78906-6.3867-0.23047-9.4414 2.0781-0.42578 3.9883-1.4414 5.5-2.9297 2.1602-2.1289 3.375-5.0391 3.3633-8.0742-0.007812-3.0352-1.2383-5.9375-3.4141-8.0547-2.1367-2.0703-5.0234-3.1836-8-3.0898-2.8438 0.078125-5.5352 1.3086-7.457 3.4102-1.8008 1.9609-2.7148 4.5742-2.5312 7.2305 0 0.32031 0.76953 0.55859 1.6992 0.55078 0.92969-0.011718 1.6992-0.17187 1.7383-0.35937v-0.058594l0.003906-0.003906c0.70313-2.8789 3.4688-4.7617 6.4102-4.3594 2.3672 0.34375 4.125 2.375 4.125 4.7695 0 2.3945-1.7578 4.4258-4.125 4.7695-2.9219 0.38672-5.6602-1.4961-6.3398-4.3594-0.070313-0.19141-0.85938-0.35156-1.7891-0.35938-0.92969-0.011719-1.7109 0.23047-1.75 0.55859v0.089843h-0.003906c-0.15234 2.668 0.79688 5.2812 2.6211 7.2305 1.2031 1.2734 2.7109 2.2148 4.3789 2.7422-1.1133 3.1328-1.2383 6.5312-0.34766 9.7383l-13-0.070312c-4.168 0.035156-8.2109 1.3945-11.555 3.8789-3.3398 2.4883-5.8047 5.9727-7.0352 9.9531-1.1758 3.9336-1.0703 8.1406 0.30078 12.012 1.375 3.8711 3.9453 7.2031 7.3359 9.5156 3.3359 2.25 7.293 3.3828 11.312 3.2422l5.6484-0.19141c-0.49219 3.2734-0.86719 6.5508-1.1211 9.8281-1.6016 0.070312-3.1992 0.12891-4.8008 0.23047l-4 0.26953 0.003906 0.003906c-1.7969 0.11328-3.5391 0.67969-5.0625 1.6367-2.9297 1.8555-4.6797 5.1055-4.6172 8.5703 0 0.42188 0.76172 0.73047 1.6914 0.71875 0.92969-0.011718 1.6992-0.21875 1.7383-0.46875v-0.070312c0.45703-1.9375 1.8477-3.5234 3.707-4.2305 0.83984-0.29688 1.7383-0.39844 2.6211-0.29688l4 0.28125c5.2852 0.33203 10.578 0.5 15.871 0.5h0.089844c5.332 0 10.668-0.16016 16-0.48047l4-0.26953v-0.003906c0.87109-0.089844 1.75 0.019531 2.5703 0.32031 1.8398 0.73438 3.1953 2.3281 3.6289 4.2617 0.070313 0.23828 0.85938 0.44922 1.8008 0.46094 0.94141 0.011719 1.6992-0.30078 1.7305-0.71875v-0.11328c0.015625-3.4883-1.7891-6.7305-4.7617-8.5586-1.5352-0.93359-3.2734-1.4727-5.0703-1.5703l-4-0.26953c-1.5781-0.10156-3.1602-0.14844-4.7383-0.21875-0.28906-3.5391-0.69922-7.0898-1.25-10.629zm-9.668 10.68c-1.6016 0-3.1992-0.070312-4.8008-0.070312h-0.078125c-1.5898 0-3.1797 0-4.7617 0.078124-0.27344-3.2617-0.64844-6.5156-1.1211-9.7695h0.26953l11.699-0.5c-0.52734 3.3711-0.91797 6.8008-1.207 10.262z"/>
  <path d="m42.379 55.602c0 5.332-8 5.332-8 0 0-5.3359 8-5.3359 8 0"/>
  <path d="m66.379 55.602c0 5.332-8 5.332-8 0 0-5.3359 8-5.3359 8 0"/>
 </g>
</svg>
