<?xml version="1.0" standalone="no"?>
<!DOCTYPE svg PUBLIC "-//W3C//DTD SVG 1.1//EN" "http://www.w3.org/Graphics/SVG/1.1/DTD/svg11.dtd" >
<svg xmlns="http://www.w3.org/2000/svg" xmlns:xlink="http://www.w3.org/1999/xlink" version="1.1">
<metadata>
Created by FontForge 20170731 at Thu Jan 19 16:18:02 2017
 By Aleksey,,,
Copyright 2016 The Nunito Project Authors (contact@sansoxygen.com)
</metadata>
<defs>
<font id="NunitoSans-BlackItalic" horiz-adv-x="600" >
  <font-face 
    font-family="Nunito Sans Black"
    font-weight="900"
    font-style="italic"
    font-stretch="normal"
    units-per-em="1000"
    panose-1="0 0 10 0 0 0 0 0 0 0"
    ascent="800"
    descent="-200"
    x-height="491"
    cap-height="705"
    bbox="-368 -281 1365 1084"
    underline-thickness="50"
    underline-position="-150"
    slope="-4.541"
    unicode-range="U+000D-FB02"
  />
<missing-glyph horiz-adv-x="443" 
d="M363 705v-885h-281v885h281zM295 646h-146v-29h57v-33h-58v-29h147v29h-59v33h59v29zM236 532h-88v-92h147v30h-59v62zM206 501v-31h-29v31h29zM295 416h-147v-30h58v-32h-58v-30h88v62h59v30zM295 363h-29v-59h-118v-30h147v89zM295 255h-89v-50h30v20h30v-41h-89v71
h-29v-100h147v100zM295 101h-147v-100h147v100zM266 72v-41h-89v41h89zM295 -19h-147v-29h62l-62 -42v-29h147v29h-91l62 42h29v29z" />
    <glyph glyph-name="fi" unicode="fi" horiz-adv-x="676" 
d="M480 739h187l-12 -163h-187zM293 492h351l-39 -492h-178l29 361h-173l-29 -361h-178l29 361h-92l10 131h92l1 10q8 96 74 147t193 58l55 4l-2 -129l-60 -3q-40 -2 -59 -16t-22 -49z" />
    <glyph glyph-name="fl" unicode="fl" horiz-adv-x="675" 
d="M293 492h118l-10 -131h-118l-29 -361h-178l29 361h-92l10 131h92l1 10q8 96 74 147t193 58l62 4l3 -129l-72 -3q-39 -1 -58.5 -15.5t-22.5 -49.5zM427 0l56 705h178l-56 -705h-178z" />
    <glyph glyph-name=".notdef" horiz-adv-x="443" 
d="M363 705v-885h-281v885h281zM295 646h-146v-29h57v-33h-58v-29h147v29h-59v33h59v29zM236 532h-88v-92h147v30h-59v62zM206 501v-31h-29v31h29zM295 416h-147v-30h58v-32h-58v-30h88v62h59v30zM295 363h-29v-59h-118v-30h147v89zM295 255h-89v-50h30v20h30v-41h-89v71
h-29v-100h147v100zM295 101h-147v-100h147v100zM266 72v-41h-89v41h89zM295 -19h-147v-29h62l-62 -42v-29h147v29h-91l62 42h29v29z" />
    <glyph glyph-name=".null" horiz-adv-x="0" 
 />
    <glyph glyph-name="nonmarkingreturn" unicode="&#xd;" horiz-adv-x="286" 
 />
    <glyph glyph-name="NULL" horiz-adv-x="0" 
 />
    <glyph glyph-name="NULL" horiz-adv-x="0" 
 />
    <glyph glyph-name="space" unicode=" " horiz-adv-x="286" 
 />
    <glyph glyph-name="exclam" unicode="!" horiz-adv-x="272" 
d="M83 244l-19 462l217 -1l-91 -461h-107zM39 182h185l-15 -182h-185z" />
    <glyph glyph-name="quotedbl" unicode="&#x22;" horiz-adv-x="487" 
d="M87 398l-19 307h203l-65 -307h-119zM306 398l-19 307h203l-65 -307h-119z" />
    <glyph glyph-name="numbersign" unicode="#" 
d="M562 447h-69l-50 -181h81l-7 -107h-104l-44 -159h-114l44 159h-88l-44 -159h-115l44 159h-48l8 107h70l50 181h-82l7 107h105l42 151h114l-42 -151h88l42 151h115l-42 -151h47zM329 266l50 181h-88l-50 -181h88z" />
    <glyph glyph-name="dollar" unicode="$" 
d="M266 457.5q31 -17.5 98 -37.5q68 -21 111.5 -41.5t75 -60t31.5 -102.5q0 -89 -60 -148t-162 -73l-8 -110h-140l8 109q-69 6 -119.5 23t-89.5 48l67 130q47 -33 99 -48t114 -15q107 0 107 69q0 28 -29 43.5t-93 35.5q-69 21 -114 42t-78 62t-33 105q0 86 61.5 146
t160.5 75l9 110h140l-9 -111q58 -8 106 -26t77 -44l-67 -130q-98 64 -197 64q-45 0 -71 -18t-26 -48q0 -32 31 -49.5z" />
    <glyph glyph-name="percent" unicode="%" horiz-adv-x="964" 
d="M313 -32l-104 70l460 699l104 -70zM97.5 338q-48.5 51 -48.5 146q0 109 51.5 171.5t140.5 62.5q88 0 136.5 -51.5t48.5 -145.5q0 -112 -50 -173t-141 -61q-89 0 -137.5 51zM283 536q0 38 -9.5 55.5t-31.5 17.5q-27 0 -38.5 -35t-11.5 -105q0 -39 9.5 -56.5t31.5 -17.5
q50 0 50 141zM602.5 44.5q-48.5 51.5 -48.5 146.5q0 108 51.5 170.5t140.5 62.5q88 0 136.5 -51.5t48.5 -145.5q0 -112 -50 -173t-141 -61q-89 0 -137.5 51.5zM788 242q0 38 -9.5 56t-31.5 18q-27 0 -38.5 -35.5t-11.5 -105.5q0 -39 9.5 -56.5t31.5 -17.5q50 0 50 141z" />
    <glyph glyph-name="ampersand" unicode="&#x26;" horiz-adv-x="702" 
d="M537 0l-54 57q-94 -65 -205 -65q-77 0 -135.5 25.5t-91 71t-32.5 102.5q0 73 38.5 123.5t107.5 84.5q-47 60 -47 130q0 54 27 95t75.5 64t109.5 23q92 0 146.5 -44t54.5 -117q0 -120 -134 -185l95 -98q42 75 56 170h144q-22 -160 -101 -272l159 -165h-213zM292 578.5
q-18 -17.5 -18 -48.5q0 -16 8 -33t29 -42q44 18 62 39t18 50q0 23 -14 37.5t-39 14.5q-28 0 -46 -17.5zM391 157l-140 149q-60 -38 -60 -101q0 -36 26 -58t69 -22q53 0 105 32z" />
    <glyph glyph-name="quotesingle" unicode="'" horiz-adv-x="268" 
d="M87 398l-19 307h203l-65 -307h-119z" />
    <glyph glyph-name="parenleft" unicode="(" horiz-adv-x="398" 
d="M123 6.5q-26 92.5 -26 188.5q0 150 46.5 277t142.5 252l111 -53q-63 -133 -91 -248.5t-28 -253.5q0 -73 12.5 -148t41.5 -171l-120 -48q-63 112 -89 204.5z" />
    <glyph glyph-name="parenright" unicode=")" horiz-adv-x="398" 
d="M4 -145q63 133 91 248.5t28 253.5q0 72 -13 147t-42 172l120 48q63 -112 89.5 -204.5t26.5 -188.5q0 -150 -46.5 -277t-142.5 -252z" />
    <glyph glyph-name="asterisk" unicode="*" horiz-adv-x="455" 
d="M449 579v-120l-110 8l62 -91l-104 -60l-48 101l-49 -100l-102 59l62 92l-111 -8v119l111 -8l-61 92l102 60l48 -100l48 100l104 -61l-62 -91z" />
    <glyph glyph-name="plus" unicode="+" 
d="M551 347l-8 -119h-185l-15 -184h-118l15 184h-184l9 119h184l15 185h118l-15 -185h184z" />
    <glyph glyph-name="comma" unicode="," horiz-adv-x="272" 
d="M224 182l-9 -109q-5 -66 -32.5 -119.5t-86.5 -108.5l-63 53q58 53 75 102h-84l15 182h185z" />
    <glyph glyph-name="hyphen" unicode="-" horiz-adv-x="446" 
d="M59 199l11 139h321l-12 -139h-320z" />
    <glyph glyph-name="period" unicode="." horiz-adv-x="272" 
d="M39 182h185l-15 -182h-185z" />
    <glyph glyph-name="slash" unicode="/" horiz-adv-x="349" 
d="M84 -82l-126 45l322 807l126 -45z" />
    <glyph glyph-name="zero" unicode="0" 
d="M103.5 73q-65.5 81 -65.5 236q0 126 34 217t98.5 139t153.5 48q125 0 190.5 -81.5t65.5 -235.5q0 -126 -34 -217t-98.5 -139t-154.5 -48q-124 0 -189.5 81zM375.5 205q27.5 74 27.5 216q0 80 -20 116.5t-62 36.5q-51 0 -78.5 -75t-27.5 -215q0 -80 20 -116.5t62 -36.5
q51 0 78.5 74z" />
    <glyph glyph-name="one" unicode="1" 
d="M422 146h152l-12 -146h-486l11 146h151l28 352l-117 -63l-67 131l254 139h130z" />
    <glyph glyph-name="two" unicode="2" horiz-adv-x="601" 
d="M282 146h266l-11 -146h-497l10 136l250 238q77 75 77 133q0 65 -84 65q-82 0 -180 -63l-47 130q97 75 252 75q112 0 176 -54.5t64 -151.5q0 -55 -28 -104t-99 -117z" />
    <glyph glyph-name="three" unicode="3" 
d="M519 304q31 -38 31 -93q0 -63 -32.5 -112.5t-95.5 -78t-151 -28.5q-77 0 -144.5 20t-114.5 55l67 130q96 -63 194 -63q52 0 78.5 20t26.5 58q0 39 -25 56t-79 17h-106l11 142h89q57 0 84.5 19t27.5 58q0 68 -88 68q-43 0 -89.5 -16.5t-89.5 -46.5l-47 130q45 35 111 55
t140 20q70 0 124.5 -22.5t85.5 -64t31 -95.5q0 -62 -31.5 -105.5t-91.5 -66.5q53 -18 84 -56z" />
    <glyph glyph-name="four" unicode="4" 
d="M586 259l-11 -140h-92l-9 -119h-179l9 119h-286l10 136l351 450h150l-35 -446h92zM198 259h118l13 170z" />
    <glyph glyph-name="five" unicode="5" 
d="M467.5 434.5q49.5 -26.5 77 -74t27.5 -108.5q0 -123 -75.5 -191.5t-207.5 -68.5q-75 0 -142.5 19.5t-115.5 55.5l67 130q84 -63 189 -63q53 0 82.5 25.5t29.5 71.5q0 43 -27.5 67t-78.5 24q-32 0 -62.5 -9t-54.5 -26h-101l33 418h464l-11 -139h-286l-10 -120q37 15 89 15
q64 0 113.5 -26.5z" />
    <glyph glyph-name="six" unicode="6" 
d="M469 433.5q47 -27.5 73.5 -77t26.5 -111.5q0 -73 -32 -131t-88.5 -90.5t-128.5 -32.5q-136 0 -210 82.5t-74 234.5q0 123 39 215t111 141.5t170 49.5q68 0 133 -20t113 -55l-67 -130q-42 31 -86 47t-83 16q-119 0 -143 -174q24 29 61.5 46t78.5 17q59 0 106 -27.5z
M373.5 160q23.5 28 23.5 74q0 41 -22.5 64.5t-60.5 23.5q-39 0 -63.5 -27t-24.5 -72q0 -41 24 -66t63 -25q37 0 60.5 28z" />
    <glyph glyph-name="seven" unicode="7" 
d="M76 705h521l-10 -137l-342 -568h-195l338 559h-324z" />
    <glyph glyph-name="eight" unicode="8" 
d="M575 204q0 -63 -35.5 -111t-100.5 -74.5t-149 -26.5q-126 0 -199.5 53.5t-73.5 144.5q0 65 37 111t101 64q-45 22 -69 60t-24 88q0 93 71 147t194 54q122 0 188.5 -48.5t66.5 -139.5q0 -55 -32.5 -100t-85.5 -64q111 -38 111 -158zM387.5 445.5q23.5 19.5 23.5 58.5
q0 37 -20.5 54t-63.5 17q-94 0 -94 -76q0 -35 23 -54t63 -19q45 0 68.5 19.5zM376.5 152q28.5 21 28.5 63q0 72 -101 72q-58 0 -87 -21t-29 -60q0 -35 27.5 -55t77.5 -20q55 0 83.5 21z" />
    <glyph glyph-name="nine" unicode="9" 
d="M506.5 631.5q73.5 -82.5 73.5 -234.5q0 -123 -39 -215t-111 -141.5t-170 -49.5q-68 0 -132.5 20t-113.5 55l68 130q42 -31 86 -47t83 -16q60 0 96.5 44t46.5 131q-24 -30 -61.5 -47t-79.5 -17q-59 0 -105.5 27.5t-73 77t-26.5 111.5q0 73 32 131t88.5 90.5t128.5 32.5
q136 0 209.5 -82.5zM365.5 410q24.5 27 24.5 72q0 41 -22 66t-57 25q-41 0 -66.5 -28t-25.5 -74q0 -41 22.5 -64.5t60.5 -23.5q39 0 63.5 27z" />
    <glyph glyph-name="colon" unicode=":" horiz-adv-x="272" 
d="M62 492h185l-14 -182h-185zM39 182h185l-15 -182h-185z" />
    <glyph glyph-name="semicolon" unicode=";" horiz-adv-x="272" 
d="M64 492h184l-14 -182h-185zM39 182h185l-9 -109q-5 -66 -32.5 -119.5t-86.5 -108.5l-63 53q58 53 75 102h-84z" />
    <glyph glyph-name="less" unicode="&#x3c;" 
d="M568 545l-10 -130l-341 -127l321 -127l-11 -130l-473 191l11 133z" />
    <glyph glyph-name="equal" unicode="=" 
d="M558 447l-9 -119h-486l8 119h487zM542 247l-8 -119h-486l9 119h485z" />
    <glyph glyph-name="greater" unicode="&#x3e;" 
d="M80 545l473 -190l-11 -133l-503 -191l11 130l341 127l-321 127z" />
    <glyph glyph-name="question" unicode="?" horiz-adv-x="478" 
d="M187 298q4 48 24 79t55 65q26 25 38 42t12 39q0 24 -17 36.5t-46 12.5q-38 0 -83.5 -16t-92.5 -47l-47 130q98 75 244 75q67 0 118 -21t78.5 -58.5t27.5 -87.5q0 -39 -16.5 -70t-39.5 -53t-61 -51q-39 -30 -59 -50.5t-27 -45.5l-10 -39h-103zM125 0l15 182h184l-14 -182
h-185z" />
    <glyph glyph-name="at" unicode="@" horiz-adv-x="944" 
d="M251 -107.5q-101 53.5 -155 149.5t-54 219q0 142 57.5 243.5t159 154.5t231.5 53q132 0 227 -47.5t145 -131.5t50 -194q0 -83 -25.5 -145.5t-73 -96.5t-111.5 -34q-52 0 -86.5 22.5t-44.5 59.5h-2q-28 -39 -59.5 -60.5t-82.5 -21.5q-78 0 -119.5 50.5t-41.5 132.5
q0 72 27 130t74.5 91t107.5 33q39 0 68 -14.5t44 -44.5h3l10 51h124l-41 -222q-5 -33 -5 -53q0 -28 10.5 -42t35.5 -14q16 0 32.5 18t28 58t11.5 102q0 130 -78.5 200t-227.5 70q-94 0 -167.5 -40.5t-114.5 -119t-41 -188.5q0 -96 38 -167.5t110.5 -111t171.5 -39.5
q69 0 118.5 15t70.5 42h161q-38 -72 -129 -116.5t-221 -44.5q-135 0 -236 53.5zM537.5 208.5q29.5 47.5 29.5 110.5q0 41 -18 62t-50 21q-50 0 -78 -48t-28 -109q0 -37 16 -60.5t46 -23.5q53 0 82.5 47.5z" />
    <glyph glyph-name="A" unicode="A" horiz-adv-x="761" 
d="M586 0l-52 146h-313l-74 -146h-188l384 705h146l275 -705h-178zM291 284h195l-81 226z" />
    <glyph glyph-name="B" unicode="B" horiz-adv-x="695" 
d="M632 303.5q30 -44.5 30 -103.5q0 -96 -71.5 -148t-192.5 -52h-353l55 705h331q116 0 177.5 -49.5t61.5 -128.5q0 -58 -30 -98.5t-92 -64.5q54 -16 84 -60.5zM468.5 443.5q24.5 15.5 24.5 54.5q0 34 -22.5 51t-72.5 17h-129l-11 -138h128q58 0 82.5 15.5zM466.5 156
q25.5 17 25.5 59q0 37 -23.5 55.5t-74.5 18.5h-147l-12 -150h147q59 0 84.5 17z" />
    <glyph glyph-name="C" unicode="C" horiz-adv-x="678" 
d="M214.5 32.5q-77.5 41.5 -119 118t-41.5 180.5q0 115 47 202t132.5 134t198.5 47q71 0 133.5 -20t110.5 -57l-67 -131q-43 32 -83.5 47t-84.5 15q-96 0 -148 -63t-52 -174q0 -95 41 -144.5t121 -49.5q79 0 182 61l47 -130q-36 -35 -100.5 -56t-133.5 -21
q-106 0 -183.5 41.5z" />
    <glyph glyph-name="D" unicode="D" horiz-adv-x="773" 
d="M100 705h287q106 0 184.5 -40.5t121.5 -115t43 -175.5q0 -118 -47 -202t-135.5 -128t-212.5 -44h-296zM324 148q117 0 173 54.5t56 172.5q0 89 -49 135.5t-142 46.5h-90l-32 -409h84z" />
    <glyph glyph-name="E" unicode="E" horiz-adv-x="597" 
d="M591 563h-322l-11 -134h302l-11 -141h-302l-12 -146h323l-12 -142h-501l56 705h502z" />
    <glyph glyph-name="F" unicode="F" horiz-adv-x="578" 
d="M580 561h-309l-10 -130h289l-11 -144h-290l-23 -287h-181l56 705h490z" />
    <glyph glyph-name="G" unicode="G" horiz-adv-x="744" 
d="M700 398l-27 -351q-52 -27 -122.5 -41.5t-151.5 -14.5q-106 0 -183.5 41.5t-119.5 119t-42 181.5q0 115 47 201t133.5 133t202.5 47q162 0 259 -77l-67 -130q-46 34 -89 49t-101 13q-96 -2 -147.5 -64.5t-51.5 -172.5q0 -98 46 -149.5t140 -51.5q42 0 90 12l10 129h-125
l11 126h288z" />
    <glyph glyph-name="H" unicode="H" horiz-adv-x="776" 
d="M568 705h180l-56 -705h-180l23 285h-287l-23 -285h-180l56 705h180l-22 -274h287z" />
    <glyph glyph-name="I" unicode="I" horiz-adv-x="312" 
d="M45 0l55 705h184l-55 -705h-184z" />
    <glyph glyph-name="J" unicode="J" horiz-adv-x="397" 
d="M-15 136l74 4q46 2 65 20t23 62l37 483h185l-37 -480q-8 -111 -69.5 -167t-182.5 -64l-86 -5z" />
    <glyph glyph-name="K" unicode="K" horiz-adv-x="698" 
d="M775 705l-336 -343l292 -362h-213l-264 317l-25 -317h-184l55 705h184l-24 -305l293 305h222z" />
    <glyph glyph-name="L" unicode="L" horiz-adv-x="572" 
d="M45 0l56 705h184l-45 -556h300l-11 -149h-484z" />
    <glyph glyph-name="M" unicode="M" horiz-adv-x="842" 
d="M670 705h142l-56 -705h-160l30 370l-156 -253h-118l-116 241l-29 -358h-160l56 705h145l177 -394z" />
    <glyph glyph-name="N" unicode="N" horiz-adv-x="757" 
d="M557 705h172l-56 -705h-137l-287 396l-33 -396h-171l56 705h134l290 -398z" />
    <glyph glyph-name="O" unicode="O" horiz-adv-x="796" 
d="M218 31.5q-79 41.5 -121.5 118t-42.5 181.5q0 114 44 201.5t125 135t188 47.5q106 0 185 -41.5t121.5 -118.5t42.5 -181q0 -114 -44.5 -201t-125.5 -135t-187 -48t-185 41.5zM529 196q47 64 47 178q0 95 -43 147t-120 52q-82 0 -129 -64.5t-47 -177.5q0 -96 42.5 -147.5
t121.5 -51.5q81 0 128 64z" />
    <glyph glyph-name="P" unicode="P" horiz-adv-x="677" 
d="M606.5 648.5q63.5 -56.5 63.5 -154.5q0 -115 -67 -177t-193 -62h-161l-20 -255h-184l56 705h329q113 0 176.5 -56.5zM499 484q0 42 -23.5 62t-71.5 20h-130l-14 -173h132q107 0 107 91z" />
    <glyph glyph-name="Q" unicode="Q" horiz-adv-x="796" 
d="M644 -28l70 -127l-163 -71l-99 183q-18 33 -67 34q-101 1 -175.5 43.5t-115 119t-40.5 177.5q0 114 44 201.5t125 135t188 47.5q108 0 186.5 -41t120.5 -117.5t42 -182.5q0 -118 -46.5 -206t-131.5 -136q38 -16 62 -60zM529.5 196.5q46.5 64.5 46.5 177.5q0 95 -42.5 147
t-120.5 52q-82 0 -129 -64.5t-47 -177.5q0 -96 42.5 -147.5t121.5 -51.5q82 0 128.5 64.5z" />
    <glyph glyph-name="R" unicode="R" horiz-adv-x="707" 
d="M680 0h-199l-111 225q-19 39 -69 39h-55l-20 -264h-181l55 705h343q111 0 173 -56.5t62 -150.5q0 -95 -44.5 -150t-138.5 -71q29 -8 48.5 -27t35.5 -50zM406 402q49 0 74.5 22t25.5 63q0 40 -21.5 59.5t-66.5 19.5h-149l-12 -164h149z" />
    <glyph glyph-name="S" unicode="S" horiz-adv-x="664" 
d="M156 11.5q-77 20.5 -133 56.5l68 130q107 -66 231 -66q57 0 87 15t30 44q0 31 -33 48.5t-102 37.5q-74 22 -121 43t-81 62.5t-34 107.5q0 67 37.5 118t106.5 78.5t161 27.5q77 0 147 -21t112 -56l-66 -130q-43 31 -95.5 48.5t-102.5 17.5q-54 0 -85.5 -17.5t-31.5 -48.5
q0 -32 32.5 -49t103.5 -38q73 -22 119.5 -42.5t80.5 -60.5t34 -105q0 -106 -80 -163.5t-227 -57.5q-81 0 -158 20.5z" />
    <glyph glyph-name="T" unicode="T" horiz-adv-x="632" 
d="M204 0l44 556h-212l12 149h608l-12 -149h-211l-43 -556h-186z" />
    <glyph glyph-name="U" unicode="U" horiz-adv-x="745" 
d="M62 267q0 14 2 42l32 396h180l-31 -403q-1 -11 -1 -31q0 -71 33 -105t102 -34q56 0 88 33.5t39 114.5l34 425h181l-33 -413q-11 -149 -91.5 -225t-226.5 -76q-308 0 -308 276z" />
    <glyph glyph-name="V" unicode="V" horiz-adv-x="743" 
d="M614 705h187l-376 -705h-146l-266 705h191l168 -476z" />
    <glyph glyph-name="W" unicode="W" horiz-adv-x="1121" 
d="M969 705h175l-307 -705h-146l-117 423l-183 -423h-147l-196 705h186l111 -447l193 447h126l115 -455z" />
    <glyph glyph-name="X" unicode="X" horiz-adv-x="686" 
d="M747 705l-293 -351l243 -354h-210l-145 218l-175 -218h-217l299 358l-239 347h210l140 -211l171 211h216z" />
    <glyph glyph-name="Y" unicode="Y" horiz-adv-x="650" 
d="M751 705l-328 -391l-25 -314h-184l25 315l-266 390h204l163 -244l200 244h211z" />
    <glyph glyph-name="Z" unicode="Z" horiz-adv-x="617" 
d="M607 705l-10 -132l-344 -429h322l-11 -144h-531l10 135l342 426h-309l11 144h520z" />
    <glyph glyph-name="bracketleft" unicode="[" horiz-adv-x="396" 
d="M69 -180l70 885h275l-10 -131h-101l-50 -623h103l-11 -131h-276z" />
    <glyph glyph-name="backslash" unicode="\" horiz-adv-x="348" 
d="M214 -82l-197 818l133 34l197 -818z" />
    <glyph glyph-name="bracketright" unicode="]" horiz-adv-x="396" 
d="M259 -180h-276l10 131h103l47 623h-101l10 131h275z" />
    <glyph glyph-name="asciicircum" unicode="^" 
d="M549 144h-128l-101 332l-153 -332h-132l230 488h132z" />
    <glyph glyph-name="underscore" unicode="_" horiz-adv-x="500" 
d="M-10 -101l8 101h466l-8 -101h-466z" />
    <glyph glyph-name="grave" unicode="`" horiz-adv-x="300" 
d="M121 556l-137 206h159l86 -206h-108z" />
    <glyph glyph-name="a" unicode="a" horiz-adv-x="552" 
d="M455.5 456.5q52.5 -47.5 52.5 -146.5q0 -12 -2 -36l-21 -274h-167l5 62q-18 -33 -51 -51.5t-76 -18.5q-49 0 -88 19.5t-61.5 52.5t-22.5 74q0 57 28 91.5t89 50.5t162 16h36l1 7q2 37 -16.5 54t-62.5 17q-35 0 -78 -13.5t-80 -34.5l-36 117q41 27 105 44t125 17
q106 0 158.5 -47.5zM305.5 137q23.5 26 26.5 66l1 11h-27q-59 0 -85 -13t-26 -43q0 -21 14.5 -34t38.5 -13q34 0 57.5 26z" />
    <glyph glyph-name="b" unicode="b" horiz-adv-x="625" 
d="M496.5 475.5q47.5 -28.5 73.5 -81.5t26 -126q0 -80 -29.5 -143t-83 -98t-123.5 -35q-95 0 -147 68l-5 -60h-175l54 705h178l-21 -263q24 30 60.5 46t82.5 16q62 0 109.5 -28.5zM393.5 159q26.5 36 26.5 96q0 57 -25 87.5t-71 30.5q-44 0 -70.5 -36t-26.5 -94
q0 -59 24.5 -89.5t69.5 -30.5q46 0 72.5 36z" />
    <glyph glyph-name="c" unicode="c" horiz-adv-x="500" 
d="M156 22q-61 30 -94 84.5t-33 126.5q0 85 35 146t99.5 93t150.5 32q120 0 197 -59l-55 -120q-30 21 -64.5 33t-66.5 12q-54 0 -83.5 -34.5t-29.5 -98.5q0 -54 27 -82.5t72 -28.5q67 0 134 46l35 -121q-34 -28 -82.5 -43.5t-98.5 -15.5q-82 0 -143 30z" />
    <glyph glyph-name="d" unicode="d" horiz-adv-x="625" 
d="M609 705l-56 -705h-176l4 54q-24 -30 -60.5 -46t-81.5 -16q-62 0 -109.5 28.5t-74 81.5t-26.5 126q0 80 30 143t83.5 98t123.5 35q93 0 143 -64l22 265h178zM372 159q26 36 26 94q0 59 -24 89.5t-69 30.5q-46 0 -73 -36t-27 -97q0 -56 25 -86.5t71 -30.5q45 0 71 36z" />
    <glyph glyph-name="e" unicode="e" horiz-adv-x="535" 
d="M445.5 442q60.5 -62 60.5 -177q0 -26 -3 -53h-303q12 -90 109 -90q71 0 138 46l36 -117q-33 -28 -82.5 -43.5t-104.5 -15.5q-79 0 -139.5 30t-94 84.5t-33.5 127.5q0 78 33.5 139.5t91 96t128.5 34.5q103 0 163.5 -62zM231.5 363.5q-21.5 -20.5 -29.5 -67.5h159
q-3 88 -73 88q-35 0 -56.5 -20.5z" />
    <glyph glyph-name="f" unicode="f" horiz-adv-x="394" 
d="M293 492h118l-10 -131h-118l-29 -361h-178l29 361h-92l10 131h92l1 10q8 96 74 147t193 58l62 4l3 -129l-72 -3q-39 -1 -58.5 -15.5t-22.5 -49.5z" />
    <glyph glyph-name="g" unicode="g" horiz-adv-x="629" 
d="M596 492l-33 -425q-11 -133 -85.5 -194t-210.5 -61q-71 0 -134 15.5t-112 43.5l55 121q102 -50 197 -50q52 0 80.5 24.5t32.5 80.5l2 24q-52 -57 -147 -57q-62 0 -110 28t-74.5 79t-26.5 119q0 74 30 134.5t84.5 95t124.5 34.5q95 0 148 -66l4 54h175zM376.5 179
q27.5 32 27.5 85q0 55 -25 82t-72 27t-74 -33t-27 -91q0 -48 26 -75t71 -27q46 0 73.5 32z" />
    <glyph glyph-name="h" unicode="h" horiz-adv-x="605" 
d="M520 457.5q42 -46.5 42 -136.5q0 -22 -1 -34l-23 -287h-178l23 281q3 42 -13.5 64.5t-51.5 22.5q-39 0 -60.5 -25.5t-24.5 -68.5l-22 -274h-178l54 705h178l-21 -260q27 28 66 43.5t86 15.5q82 0 124 -46.5z" />
    <glyph glyph-name="i" unicode="i" horiz-adv-x="281" 
d="M33 0l39 492h178l-39 -492h-178zM87 738h186l-13 -161h-185z" />
    <glyph glyph-name="j" unicode="j" horiz-adv-x="281" 
d="M213 29q-6 -76 -29 -119.5t-75.5 -66t-147.5 -27.5l-53 -3l-4 126l60 4q35 2 50.5 15.5t18.5 44.5l39 489h178zM85 738h186l-13 -161h-185z" />
    <glyph glyph-name="k" unicode="k" horiz-adv-x="580" 
d="M623 491l-211 -238l179 -253h-213l-151 211l-16 -211h-178l54 705h178l-32 -416l175 202h215z" />
    <glyph glyph-name="l" unicode="l" horiz-adv-x="281" 
d="M33 0l56 705h178l-56 -705h-178z" />
    <glyph glyph-name="m" unicode="m" horiz-adv-x="897" 
d="M813 457q41 -47 41 -137q0 -20 -1 -31l-23 -289h-178l23 285q3 40 -11 61.5t-43 21.5q-37 0 -56.5 -25t-23.5 -80l-21 -263h-178l23 283q6 85 -54 85q-36 0 -56 -25t-24 -80l-20 -263h-178l39 491h173l-4 -47q28 31 64 45.5t83 14.5q48 0 83.5 -20t54.5 -57
q32 38 75 57.5t93 19.5q78 0 119 -47z" />
    <glyph glyph-name="n" unicode="n" horiz-adv-x="605" 
d="M520 457.5q42 -46.5 42 -136.5q0 -22 -1 -34l-23 -287h-178l23 281q3 42 -13.5 64.5t-51.5 22.5q-39 0 -60.5 -25.5t-24.5 -68.5l-22 -274h-178l39 492h173l-4 -52q26 30 66 47t89 17q82 0 124 -46.5z" />
    <glyph glyph-name="o" unicode="o" 
d="M156 22q-61 30 -94 85.5t-33 128.5q0 83 34 143.5t95.5 92.5t143.5 32t143 -30t94 -85t33 -128q0 -84 -34 -144.5t-95.5 -92.5t-143.5 -32t-143 30zM372.5 163q23.5 40 23.5 102q0 55 -22.5 81.5t-68.5 26.5q-53 0 -76.5 -39.5t-23.5 -100.5q0 -56 22.5 -83t68.5 -27
q53 0 76.5 40z" />
    <glyph glyph-name="p" unicode="p" horiz-adv-x="625" 
d="M496.5 475.5q47.5 -28.5 73.5 -81.5t26 -126q0 -80 -29.5 -143t-83 -98t-123.5 -35q-93 0 -146 66l-19 -238h-178l54 672h175l-4 -53q24 31 61 48t84 17q62 0 109.5 -28.5zM393.5 159q26.5 36 26.5 96q0 57 -25 87.5t-71 30.5q-44 0 -70.5 -36t-26.5 -94
q0 -59 24.5 -89.5t69.5 -30.5q46 0 72.5 36z" />
    <glyph glyph-name="q" unicode="q" horiz-adv-x="625" 
d="M592 492l-53 -672h-178l18 231q-23 -28 -59.5 -43.5t-80.5 -15.5q-62 0 -109.5 28.5t-73.5 81.5t-26 126q0 80 29.5 143t83 98t123.5 35q95 0 146 -67l5 55h175zM372.5 159q26.5 36 26.5 94q0 59 -24 89.5t-70 30.5t-72.5 -36t-26.5 -96q0 -57 24.5 -87.5t70.5 -30.5
q45 0 71.5 36z" />
    <glyph glyph-name="r" unicode="r" horiz-adv-x="419" 
d="M443 506l-2 -147l-108 -11q-56 -6 -77 -28t-26 -73l-19 -247h-178l39 491h170l-6 -63q56 68 168 76z" />
    <glyph glyph-name="s" unicode="s" horiz-adv-x="490" 
d="M116 6.5q-57 14.5 -113 44.5l55 121q41 -26 91 -41.5t96 -15.5q31 0 45.5 8t14.5 20q0 16 -20 25t-65 22q-53 14 -89 29t-62.5 44.5t-26.5 77.5t28 85t79 57.5t117 20.5q57 0 112.5 -15.5t94.5 -43.5l-54 -116q-37 25 -77.5 38.5t-79.5 13.5q-32 0 -48 -7.5t-16 -20.5
q0 -16 20.5 -26t65.5 -22q54 -15 89.5 -30t62 -44.5t26.5 -77.5q0 -76 -59.5 -118.5t-161.5 -42.5q-68 0 -125 14.5z" />
    <glyph glyph-name="t" unicode="t" horiz-adv-x="405" 
d="M270 199l-1 -14q0 -65 71 -65q17 0 46 3l-19 -126q-31 -5 -60 -5q-216 0 -216 179q0 19 1 29l13 161h-92l10 131h92l11 143h178l-11 -143h118l-10 -131h-118z" />
    <glyph glyph-name="u" unicode="u" 
d="M567 492l-39 -492h-173l5 56q-26 -30 -66 -47t-87 -17q-80 0 -122 45.5t-42 132.5q0 11 2 35l22 287h178l-22 -277l-1 -15q0 -35 16 -53.5t47 -18.5q37 0 58 25.5t24 68.5l22 270h178z" />
    <glyph glyph-name="v" unicode="v" horiz-adv-x="541" 
d="M405 491h177l-258 -491h-147l-176 491h180l90 -276z" />
    <glyph glyph-name="w" unicode="w" horiz-adv-x="872" 
d="M727 492h176l-245 -492h-146l-80 241l-110 -241h-147l-167 492h176l88 -279l126 279h115l85 -284z" />
    <glyph glyph-name="x" unicode="x" horiz-adv-x="549" 
d="M593 492l-215 -239l188 -253h-205l-93 131l-112 -131h-211l229 255l-178 237h205l83 -116l98 116h211z" />
    <glyph glyph-name="y" unicode="y" horiz-adv-x="541" 
d="M405 491h177l-353 -671h-180l115 215l-163 456h180l90 -276z" />
    <glyph glyph-name="z" unicode="z" horiz-adv-x="519" 
d="M499 492l-11 -117l-242 -244h233l-10 -131h-443l11 125l234 236h-216l10 131h434z" />
    <glyph glyph-name="braceleft" unicode="{" horiz-adv-x="433" 
d="M291.5 305.5q-28.5 -33.5 -63.5 -41.5q33 -8 56.5 -43t19.5 -81l-11 -146q-1 -24 8 -33.5t29 -9.5h63l-11 -131h-120q-73 0 -111.5 41t-33.5 104l13 153l1 16q0 30 -12 43.5t-40 16.5l-46 4l10 127l46 5q33 3 46.5 20t16.5 56l13 154q6 74 43.5 109.5t99.5 35.5h143
l-10 -131h-62q-20 0 -30.5 -9.5t-12.5 -33.5l-12 -147q-4 -45 -32.5 -78.5z" />
    <glyph glyph-name="bar" unicode="|" horiz-adv-x="301" 
d="M35 -180l70 885h163l-70 -885h-163z" />
    <glyph glyph-name="braceright" unicode="}" horiz-adv-x="433" 
d="M402 325l-11 -127l-46 -4q-31 -3 -45.5 -20.5t-17.5 -55.5l-13 -153q-6 -75 -45.5 -110t-109.5 -35h-131l10 131h63q20 0 31 9.5t12 33.5l11 146q4 46 32.5 80t63.5 42q-33 8 -56.5 42t-19.5 80l12 147q2 24 -8 33.5t-30 9.5h-62l10 131h121q73 0 111 -41.5t33 -103.5
l-13 -154l-1 -16q0 -30 12 -43.5t40 -16.5z" />
    <glyph glyph-name="asciitilde" unicode="~" 
d="M550 312q-19 -51 -61.5 -81.5t-88.5 -30.5q-29 0 -56 10t-62 28q-27 13 -43 19.5t-30 6.5q-43 0 -68 -58l-83 58q20 51 61.5 81.5t87.5 30.5q28 0 54.5 -9.5t63.5 -27.5q27 -14 43 -20t30 -6q22 0 39 13.5t30 43.5z" />
    <glyph glyph-name="uni00A0" unicode="&#xa0;" horiz-adv-x="286" 
 />
    <glyph glyph-name="exclamdown" unicode="&#xa1;" horiz-adv-x="272" 
d="M48 310l14 182h185l-14 -182h-185zM81 248h107l23 -427l-219 -1z" />
    <glyph glyph-name="cent" unicode="&#xa2;" 
d="M522 51q-30 -25 -71 -40t-86 -18l-8 -108h-140l9 125q-73 26 -113.5 84.5t-40.5 138.5q0 103 51 170.5t142 89.5l9 118h140l-8 -110q87 -10 147 -56l-55 -120q-30 21 -64.5 33t-66.5 12q-54 0 -83.5 -34.5t-29.5 -98.5q0 -55 27 -83t73 -28q67 0 133 46z" />
    <glyph glyph-name="sterling" unicode="&#xa3;" 
d="M276 146h289l-11 -146h-534l11 146h63l12 155h-62l7 104h64l8 108q7 91 75 146t179 55q70 0 133.5 -19.5t105.5 -55.5l-67 -130q-98 63 -168 63q-35 0 -54.5 -18.5t-21.5 -53.5l-8 -95h153l-8 -104h-153z" />
    <glyph glyph-name="currency" unicode="&#xa4;" 
d="M497 103l55 -57l-60 -59l-53 55q-64 -45 -141 -45q-76 0 -138 43l-53 -54l-60 60l53 55q-45 66 -45 144q0 80 45 144l-53 55l61 61l53 -55q62 43 137 43t136 -42l54 57l66 -66l-55 -57q42 -65 42 -140q0 -79 -44 -142zM372 166.5q31 32.5 31 78.5t-31.5 78.5t-74.5 32.5
t-73.5 -33t-30.5 -78q0 -46 30.5 -78.5t75.5 -32.5q42 0 73 32.5z" />
    <glyph glyph-name="yen" unicode="&#xa5;" 
d="M666 705l-220 -295h105l-9 -105h-146l-4 -50h147l-9 -105h-146l-12 -150h-184l12 150h-145l9 105h144l4 50h-145l9 105h101l-171 295h197l113 -217l153 217h197z" />
    <glyph glyph-name="brokenbar" unicode="&#xa6;" horiz-adv-x="301" 
d="M79 371l26 334h163l-26 -334h-163zM36 -180l26 334h163l-26 -334h-163z" />
    <glyph glyph-name="section" unicode="&#xa7;" horiz-adv-x="597" 
d="M488 82q22 -38 22 -76q0 -93 -70.5 -143t-187.5 -50q-68 0 -127 15.5t-100 44.5l55 121q37 -25 81 -39t85 -14q43 0 67 14t24 39q0 17 -11 29.5t-38 25.5l-138 71q-61 31 -90.5 71.5t-29.5 95.5q0 96 83 157q-23 37 -23 76q0 61 34 104t92 65.5t131 22.5q63 0 113 -14
t97 -44l-54 -116q-30 22 -69 34.5t-77 12.5q-94 0 -94 -51q0 -33 47 -57l139 -71q121 -63 121 -166q0 -98 -82 -158zM395 168l5 -3q9 15 9 30q0 54 -63 88l-142 79l-3 2q-13 -21 -13 -34q0 -25 17 -48t47 -38z" />
    <glyph glyph-name="dieresis" unicode="&#xa8;" horiz-adv-x="300" 
d="M11 732h157l-12 -149h-157zM209 732h157l-12 -149h-157z" />
    <glyph glyph-name="copyright" unicode="&#xa9;" horiz-adv-x="815" 
d="M226 42.5q-82 47.5 -129 129t-47 181.5t47 181.5t129 128.5t182 47t181.5 -47t128.5 -128.5t47 -181.5t-47 -181.5t-129 -129t-181 -47.5q-100 0 -182 47.5zM554.5 101q64.5 38 101 104t36.5 148t-36.5 148t-101 103.5t-146.5 37.5t-147 -37.5t-101.5 -103.5t-36.5 -148
t36.5 -148t101.5 -104t147 -38t146.5 38zM261.5 195.5q-60.5 58.5 -60.5 157.5q0 98 60.5 156.5t163.5 58.5q47 0 87.5 -11.5t69.5 -33.5l-37 -107q-14 10 -41.5 20t-51.5 10q-43 0 -67 -24t-24 -69t24 -69.5t67 -24.5q24 0 51.5 10t41.5 20l37 -107q-60 -45 -157 -45
q-103 0 -163.5 58.5z" />
    <glyph glyph-name="ordfeminine" unicode="&#xaa;" horiz-adv-x="343" 
d="M320.5 677q34.5 -33 34.5 -100q0 -17 -1 -26l-12 -147h-135l4 51q-13 -30 -34.5 -43t-51.5 -13q-39 0 -66.5 28.5t-27.5 65.5q0 47 37.5 68t117.5 21h33l1 8q0 10 -8 13.5t-29 3.5q-23 0 -49 -5t-47 -15l-16 99q61 24 139 24q76 0 110.5 -33zM203.5 496.5
q9.5 7.5 10.5 20.5v4h-37q-6 0 -12 -5t-6 -12q0 -15 22 -15q13 0 22.5 7.5z" />
    <glyph glyph-name="guillemotleft" unicode="&#xab;" horiz-adv-x="558" 
d="M157 62l-96 161l7 86l117 163l114 -55l-83 -151l57 -153zM395 62l-96 161l7 86l117 163l114 -55l-83 -151l57 -153z" />
    <glyph glyph-name="logicalnot" unicode="&#xac;" 
d="M561 446l-25 -317h-123l14 198h-365l11 119h488z" />
    <glyph glyph-name="uni00AD" unicode="&#xad;" horiz-adv-x="446" 
d="M59 199l11 139h321l-12 -139h-320z" />
    <glyph glyph-name="registered" unicode="&#xae;" horiz-adv-x="815" 
d="M598.5 663q81.5 -47 128.5 -128.5t47 -181.5t-47 -181.5t-129 -129t-181 -47.5q-100 0 -181.5 47.5t-129 129t-47.5 181.5t47 181.5t129 128.5t182 47t181.5 -47zM680.5 239.5q20.5 52.5 20.5 113.5q0 82 -37 148t-101.5 103.5t-145.5 37.5t-146 -37.5t-102 -103.5
t-37 -148q0 -64 22 -117.5t62 -93.5l33 423h202q80 0 122.5 -34.5t42.5 -95.5q0 -52 -26.5 -88t-74.5 -50q23 -3 41 -17t26 -35l41 -97q37 39 57.5 91.5zM459.5 399q8.5 8 8.5 26q0 13 -9 18.5t-29 5.5h-37l-4 -58h43q19 0 27.5 8zM306.5 83.5q51.5 -20.5 110.5 -20.5
t110.5 21t89.5 58h-167l-51 136q-1 4 -2.5 6t-2.5 2h-12l-11 -144h-155q39 -38 90.5 -58.5z" />
    <glyph glyph-name="macron" unicode="&#xaf;" horiz-adv-x="300" 
d="M20 604l8 106h319l-9 -106h-318z" />
    <glyph glyph-name="degree" unicode="&#xb0;" horiz-adv-x="369" 
d="M129.5 424.5q-35.5 19.5 -56 54.5t-20.5 78t20.5 78t56.5 55t79 20q44 0 80 -20t56.5 -55t20.5 -78t-20.5 -78t-56.5 -54.5t-80 -19.5t-79.5 19.5zM255 509q19 19 19 48q0 30 -19 49t-46 19t-45.5 -19t-18.5 -49q0 -29 18.5 -48t45.5 -19t46 19z" />
    <glyph glyph-name="plusminus" unicode="&#xb1;" 
d="M372 401h185l-10 -120h-185l-10 -131h-119l11 131h-185l10 120h184l11 131h118zM37 0l9 119h488l-9 -119h-488z" />
    <glyph glyph-name="uni00B2" unicode="&#xb2;" horiz-adv-x="380" 
d="M225 399h141l-9 -117h-313l9 110l137 130q32 29 32 51q0 13 -10.5 18.5t-33.5 5.5q-51 0 -105 -31l-10 109q27 15 69 24.5t81 9.5q72 0 117 -33t45 -88q0 -39 -19.5 -72t-76.5 -77z" />
    <glyph glyph-name="uni00B3" unicode="&#xb3;" horiz-adv-x="380" 
d="M355 464.5q18 -23.5 18 -54.5q0 -60 -48.5 -96.5t-131.5 -36.5q-46 0 -91 9t-74 25l27 108q66 -30 129 -30q50 0 50 29q0 19 -37 19h-81l9 114h64q24 0 34 5.5t10 16.5q0 24 -44 24q-60 0 -116 -31l-10 109q27 16 68.5 25t81.5 9q73 0 117.5 -31.5t44.5 -85.5
q0 -33 -18.5 -57t-53.5 -36q34 -11 52 -34.5z" />
    <glyph glyph-name="acute" unicode="&#xb4;" horiz-adv-x="300" 
d="M229 556h-108l110 206h177z" />
    <glyph glyph-name="uni00B5" unicode="&#xb5;" 
d="M567 492l-39 -492h-173l5 56q-26 -30 -66 -47t-87 -17h-1l-14 -172h-178l53 672h178l-22 -277l-1 -15q0 -35 16 -53.5t47 -18.5q36 0 57.5 25.5t24.5 68.5l22 270h178z" />
    <glyph glyph-name="paragraph" unicode="&#xb6;" horiz-adv-x="648" 
d="M550 -180h-114l63 784h-101l-63 -784h-113l34 428q-62 1 -110 26.5t-75 73t-27 110.5q0 74 30 130t86.5 86.5t133.5 30.5h326z" />
    <glyph glyph-name="periodcentered" unicode="&#xb7;" horiz-adv-x="272" 
d="M52 360h185l-15 -182h-184z" />
    <glyph glyph-name="cedilla" unicode="&#xb8;" horiz-adv-x="300" 
d="M220.5 -58q23.5 -18 23.5 -50q0 -39 -36.5 -64.5t-102.5 -25.5q-28 0 -56 4.5t-48 12.5l17 64q46 -14 82 -14q39 0 39 22q0 17 -29 17q-10 0 -33 -5l-18 22l20 95h91l-14 -60h3q38 0 61.5 -18z" />
    <glyph glyph-name="uni00B9" unicode="&#xb9;" horiz-adv-x="380" 
d="M305 399h82l-9 -117h-315l9 117h82l12 149l-71 -34l-46 103l175 88h105z" />
    <glyph glyph-name="ordmasculine" unicode="&#xba;" horiz-adv-x="386" 
d="M83.5 438.5q-46.5 39.5 -46.5 103.5q0 79 51.5 123.5t138.5 44.5q80 0 126 -39t46 -105q0 -77 -52.5 -122t-137.5 -45q-79 0 -125.5 39.5zM247.5 524.5q11.5 13.5 11.5 35.5q0 18 -10.5 28.5t-27.5 10.5q-20 0 -30.5 -12.5t-10.5 -35.5q0 -17 10 -28.5t26 -11.5
q20 0 31.5 13.5z" />
    <glyph glyph-name="guillemotright" unicode="&#xbb;" horiz-adv-x="550" 
d="M136 60l-112 54l84 152l-57 152l118 52l94 -161l-7 -86zM374 60l-112 54l84 152l-57 152l118 52l94 -161l-7 -86z" />
    <glyph glyph-name="onequarter" unicode="&#xbc;" horiz-adv-x="970" 
d="M672 737l104 -71l-460 -698l-104 71l160 243h-309l9 117h82l12 149l-71 -34l-46 103l175 88h105l-24 -306h82l-8 -107zM962 162l-7 -106h-59l-4 -56h-131l4 56h-184l8 102l219 265h117l-20 -261h57zM707 162h67l7 86z" />
    <glyph glyph-name="onehalf" unicode="&#xbd;" horiz-adv-x="970" 
d="M672 737l104 -71l-460 -698l-104 71l160 243h-309l9 117h82l12 149l-71 -34l-46 103l175 88h105l-24 -306h82l-8 -107zM793 117h141l-9 -117h-313l9 110l137 130q32 29 32 51q0 13 -10.5 18.5t-33.5 5.5q-51 0 -105 -31l-10 109q27 15 69 24.5t81 9.5q72 0 117 -33
t45 -88q0 -39 -19.5 -72t-76.5 -77z" />
    <glyph glyph-name="threequarters" unicode="&#xbe;" horiz-adv-x="970" 
d="M355 464.5q18 -23.5 18 -54.5q0 -60 -48.5 -96.5t-131.5 -36.5q-46 0 -91 9t-74 25l27 108q66 -30 129 -30q50 0 50 29q0 19 -37 19h-81l9 114h64q24 0 34 5.5t10 16.5q0 24 -44 24q-60 0 -116 -31l-10 109q27 16 68.5 25t81.5 9q73 0 117.5 -31.5t44.5 -85.5
q0 -33 -18.5 -57t-53.5 -36q34 -11 52 -34.5zM316 -32l-104 71l460 698l104 -71zM962 162l-7 -106h-59l-4 -56h-131l4 56h-184l8 102l219 265h117l-20 -261h57zM707 162h67l7 86z" />
    <glyph glyph-name="questiondown" unicode="&#xbf;" horiz-adv-x="478" 
d="M155 310l14 182h185l-15 -182h-184zM88.5 -167.5q-50.5 20.5 -78 57.5t-27.5 85q0 42 17.5 73t42 50.5t63.5 44.5q34 20 52.5 36t24.5 36l11 39h103l-4 -60q-4 -46 -25 -73t-57 -56q-25 -20 -36 -33t-11 -31q0 -23 17 -35t47 -12q38 0 83.5 16t92.5 47l47 -130
q-97 -75 -245 -75q-67 0 -117.5 20.5z" />
    <glyph glyph-name="Agrave" unicode="&#xc0;" horiz-adv-x="761" 
d="M586 0l-52 146h-313l-74 -146h-188l384 705h146l275 -705h-178zM291 284h195l-81 226zM367 765l-138 157h150l96 -157h-108z" />
    <glyph glyph-name="Aacute" unicode="&#xc1;" horiz-adv-x="761" 
d="M586 0l-52 146h-313l-74 -146h-188l384 705h146l275 -705h-178zM291 284h195l-81 226zM475 765h-108l111 157h168z" />
    <glyph glyph-name="Acircumflex" unicode="&#xc2;" horiz-adv-x="761" 
d="M586 0l-52 146h-313l-74 -146h-188l384 705h146l275 -705h-178zM291 284h195l-81 226zM363 765h-128l149 157h98l125 -157h-129l-47 78z" />
    <glyph glyph-name="Atilde" unicode="&#xc3;" horiz-adv-x="761" 
d="M586 0l-52 146h-313l-74 -146h-188l384 705h146l275 -705h-178zM291 284h195l-81 226zM282.5 886.5q35.5 37.5 87.5 37.5q18 0 34.5 -7t37.5 -21q21 -12 31.5 -17t22.5 -5q39 0 44 47h73q-5 -82 -41 -120t-88 -38q-18 0 -33 7t-38 21q-19 12 -30.5 17.5t-23.5 5.5
q-39 0 -44 -48h-72q4 83 39.5 120.5z" />
    <glyph glyph-name="Adieresis" unicode="&#xc4;" horiz-adv-x="761" 
d="M586 0l-52 146h-313l-74 -146h-188l384 705h146l275 -705h-178zM291 284h195l-81 226zM256 919h157l-12 -150h-157zM454 919h157l-12 -150h-157z" />
    <glyph glyph-name="Aring" unicode="&#xc5;" horiz-adv-x="761" 
d="M532 146h-301l-71 -146l-279 -152l451 857l3 5q-24 30 -24 70q0 46 33 78t80 32t79.5 -32t32.5 -78q0 -48 -35 -81l-2 -4l277 -695l-139 -144zM382 779l29 42q-13 -4 -21 -15t-8 -26v-1zM465 782q0 15 -11 28zM299 284h183l-78 216z" />
    <glyph glyph-name="AE" unicode="&#xc6;" horiz-adv-x="1004" 
d="M996 564h-370l20 -135h320l-11 -141h-289l22 -147h276l-11 -141h-410l-21 146h-282l-98 -146h-203l505 705h564zM332 284h170l-31 209z" />
    <glyph glyph-name="Ccedilla" unicode="&#xc7;" horiz-adv-x="678" 
d="M538 14q-60 -21 -126 -23l-7 -31h3q38 0 61.5 -18t23.5 -50q0 -39 -36.5 -64.5t-102.5 -25.5q-28 0 -56 4.5t-48 12.5l17 64q46 -14 82 -14q39 0 39 22q0 17 -29 17q-10 0 -33 -5l-18 22l15 72q-127 20 -198 108.5t-71 225.5q0 115 47 202t132.5 134t198.5 47
q71 0 133.5 -20t110.5 -57l-67 -131q-43 32 -83.5 47t-84.5 15q-96 0 -148 -63t-52 -174q0 -95 41 -144.5t121 -49.5q79 0 182 61l47 -130q-34 -33 -94 -54z" />
    <glyph glyph-name="Egrave" unicode="&#xc8;" horiz-adv-x="597" 
d="M591 563h-322l-11 -134h302l-11 -141h-302l-12 -146h323l-12 -142h-501l56 705h502zM320 765l-138 157h150l96 -157h-108z" />
    <glyph glyph-name="Eacute" unicode="&#xc9;" horiz-adv-x="597" 
d="M591 563h-322l-11 -134h302l-11 -141h-302l-12 -146h323l-12 -142h-501l56 705h502zM428 765h-108l111 157h168z" />
    <glyph glyph-name="Ecircumflex" unicode="&#xca;" horiz-adv-x="597" 
d="M591 563h-322l-11 -134h302l-11 -141h-302l-12 -146h323l-12 -142h-501l56 705h502zM316 765h-128l149 157h98l125 -157h-129l-47 78z" />
    <glyph glyph-name="Edieresis" unicode="&#xcb;" horiz-adv-x="597" 
d="M591 563h-322l-11 -134h302l-11 -141h-302l-12 -146h323l-12 -142h-501l56 705h502zM209 919h157l-12 -150h-157zM407 919h157l-12 -150h-157z" />
    <glyph glyph-name="Igrave" unicode="&#xcc;" horiz-adv-x="312" 
d="M45 0l55 705h184l-55 -705h-184zM143 765l-138 157h150l96 -157h-108z" />
    <glyph glyph-name="Iacute" unicode="&#xcd;" horiz-adv-x="312" 
d="M45 0l55 705h184l-55 -705h-184zM251 765h-108l111 157h168z" />
    <glyph glyph-name="Icircumflex" unicode="&#xce;" horiz-adv-x="312" 
d="M45 0l55 705h184l-55 -705h-184zM139 765h-128l149 157h98l125 -157h-129l-47 78z" />
    <glyph glyph-name="Idieresis" unicode="&#xcf;" horiz-adv-x="312" 
d="M45 0l55 705h184l-55 -705h-184zM32 919h157l-12 -150h-157zM230 919h157l-12 -150h-157z" />
    <glyph glyph-name="Eth" unicode="&#xd0;" horiz-adv-x="809" 
d="M608 664.5q79 -40.5 121.5 -115t42.5 -175.5q0 -118 -47 -202t-135.5 -128t-212.5 -44h-296l22 286h-82l11 139h82l22 280h287q106 0 185 -40.5zM533 202.5q56 54.5 56 172.5q0 89 -49 135.5t-142 46.5h-89l-11 -132h184l-12 -139h-183l-11 -138h85q116 0 172 54.5z" />
    <glyph glyph-name="Ntilde" unicode="&#xd1;" horiz-adv-x="757" 
d="M557 705h172l-56 -705h-137l-287 396l-33 -396h-171l56 705h134l290 -398zM280.5 886.5q35.5 37.5 87.5 37.5q18 0 34.5 -7t37.5 -21q21 -12 31.5 -17t22.5 -5q39 0 44 47h73q-5 -82 -41 -120t-88 -38q-18 0 -33 7t-38 21q-19 12 -30.5 17.5t-23.5 5.5q-39 0 -44 -48h-72
q4 83 39.5 120.5z" />
    <glyph glyph-name="Ograve" unicode="&#xd2;" horiz-adv-x="796" 
d="M218 31.5q-79 41.5 -121.5 118t-42.5 181.5q0 114 44 201.5t125 135t188 47.5q106 0 185 -41.5t121.5 -118.5t42.5 -181q0 -114 -44.5 -201t-125.5 -135t-187 -48t-185 41.5zM529 196q47 64 47 178q0 95 -43 147t-120 52q-82 0 -129 -64.5t-47 -177.5q0 -96 42.5 -147.5
t121.5 -51.5q81 0 128 64zM385 765l-138 157h150l96 -157h-108z" />
    <glyph glyph-name="Oacute" unicode="&#xd3;" horiz-adv-x="796" 
d="M218 31.5q-79 41.5 -121.5 118t-42.5 181.5q0 114 44 201.5t125 135t188 47.5q106 0 185 -41.5t121.5 -118.5t42.5 -181q0 -114 -44.5 -201t-125.5 -135t-187 -48t-185 41.5zM529 196q47 64 47 178q0 95 -43 147t-120 52q-82 0 -129 -64.5t-47 -177.5q0 -96 42.5 -147.5
t121.5 -51.5q81 0 128 64zM493 765h-108l111 157h168z" />
    <glyph glyph-name="Ocircumflex" unicode="&#xd4;" horiz-adv-x="796" 
d="M218 31.5q-79 41.5 -121.5 118t-42.5 181.5q0 114 44 201.5t125 135t188 47.5q106 0 185 -41.5t121.5 -118.5t42.5 -181q0 -114 -44.5 -201t-125.5 -135t-187 -48t-185 41.5zM529 196q47 64 47 178q0 95 -43 147t-120 52q-82 0 -129 -64.5t-47 -177.5q0 -96 42.5 -147.5
t121.5 -51.5q81 0 128 64zM381 765h-128l149 157h98l125 -157h-129l-47 78z" />
    <glyph glyph-name="Otilde" unicode="&#xd5;" horiz-adv-x="796" 
d="M218 31.5q-79 41.5 -121.5 118t-42.5 181.5q0 114 44 201.5t125 135t188 47.5q106 0 185 -41.5t121.5 -118.5t42.5 -181q0 -114 -44.5 -201t-125.5 -135t-187 -48t-185 41.5zM529 196q47 64 47 178q0 95 -43 147t-120 52q-82 0 -129 -64.5t-47 -177.5q0 -96 42.5 -147.5
t121.5 -51.5q81 0 128 64zM300.5 886.5q35.5 37.5 87.5 37.5q18 0 34.5 -7t37.5 -21q21 -12 31.5 -17t22.5 -5q39 0 44 47h73q-5 -82 -41 -120t-88 -38q-18 0 -33 7t-38 21q-19 12 -30.5 17.5t-23.5 5.5q-39 0 -44 -48h-72q4 83 39.5 120.5z" />
    <glyph glyph-name="Odieresis" unicode="&#xd6;" horiz-adv-x="796" 
d="M218 31.5q-79 41.5 -121.5 118t-42.5 181.5q0 114 44 201.5t125 135t188 47.5q106 0 185 -41.5t121.5 -118.5t42.5 -181q0 -114 -44.5 -201t-125.5 -135t-187 -48t-185 41.5zM529 196q47 64 47 178q0 95 -43 147t-120 52q-82 0 -129 -64.5t-47 -177.5q0 -96 42.5 -147.5
t121.5 -51.5q81 0 128 64zM274 919h157l-12 -150h-157zM472 919h157l-12 -150h-157z" />
    <glyph glyph-name="multiply" unicode="&#xd7;" 
d="M529 438l-144 -147l141 -153l-91 -84l-136 148l-144 -148l-77 84l144 147l-141 153l91 84l136 -148l144 148z" />
    <glyph glyph-name="Oslash" unicode="&#xd8;" horiz-adv-x="796" 
d="M735 516q25 -64 25 -142q0 -114 -44.5 -201t-125.5 -135t-187 -48q-78 0 -142 23l-58 -88l-111 68l58 87q-47 45 -71.5 108.5t-24.5 142.5q0 114 44 201.5t125 135t188 47.5q79 0 143 -23l58 88l109 -68l-57 -87q46 -45 71 -109zM252 234l218 330q-27 9 -57 9
q-82 0 -129 -64.5t-47 -177.5q0 -55 15 -97zM529 196q47 64 47 178q0 56 -15 96l-216 -330q27 -8 56 -8q81 0 128 64z" />
    <glyph glyph-name="Ugrave" unicode="&#xd9;" horiz-adv-x="745" 
d="M62 267q0 14 2 42l32 396h180l-31 -403q-1 -11 -1 -31q0 -71 33 -105t102 -34q56 0 88 33.5t39 114.5l34 425h181l-33 -413q-11 -149 -91.5 -225t-226.5 -76q-308 0 -308 276zM359 765l-138 157h150l96 -157h-108z" />
    <glyph glyph-name="Uacute" unicode="&#xda;" horiz-adv-x="745" 
d="M62 267q0 14 2 42l32 396h180l-31 -403q-1 -11 -1 -31q0 -71 33 -105t102 -34q56 0 88 33.5t39 114.5l34 425h181l-33 -413q-11 -149 -91.5 -225t-226.5 -76q-308 0 -308 276zM467 765h-108l111 157h168z" />
    <glyph glyph-name="Ucircumflex" unicode="&#xdb;" horiz-adv-x="745" 
d="M62 267q0 14 2 42l32 396h180l-31 -403q-1 -11 -1 -31q0 -71 33 -105t102 -34q56 0 88 33.5t39 114.5l34 425h181l-33 -413q-11 -149 -91.5 -225t-226.5 -76q-308 0 -308 276zM355 765h-128l149 157h98l125 -157h-129l-47 78z" />
    <glyph glyph-name="Udieresis" unicode="&#xdc;" horiz-adv-x="745" 
d="M62 267q0 14 2 42l32 396h180l-31 -403q-1 -11 -1 -31q0 -71 33 -105t102 -34q56 0 88 33.5t39 114.5l34 425h181l-33 -413q-11 -149 -91.5 -225t-226.5 -76q-308 0 -308 276zM248 919h157l-12 -150h-157zM446 919h157l-12 -150h-157z" />
    <glyph glyph-name="Yacute" unicode="&#xdd;" horiz-adv-x="650" 
d="M751 705l-328 -391l-25 -314h-184l25 315l-266 390h204l163 -244l200 244h211zM420 765h-108l111 157h168z" />
    <glyph glyph-name="Thorn" unicode="&#xde;" horiz-adv-x="679" 
d="M601 515.5q60 -52.5 60 -144.5q0 -108 -63 -165.5t-179 -57.5h-182l-12 -148h-180l56 705h180l-11 -137h167q104 0 164 -52.5zM490 361q0 35 -18 51.5t-57 16.5h-156l-11 -143h156q86 0 86 75z" />
    <glyph glyph-name="germandbls" unicode="&#xdf;" horiz-adv-x="703" 
d="M67 430q11 140 87.5 212t217.5 72q105 0 164 -38t59 -104q0 -43 -20 -74.5t-56 -66.5q-24 -25 -34.5 -39.5t-10.5 -30.5q0 -15 15 -23t50 -20q43 -14 71 -28.5t49 -43.5t21 -77q0 -80 -60 -128.5t-166 -48.5q-57 0 -110 15.5t-94 43.5l56 121q41 -25 83.5 -38.5
t80.5 -13.5q49 0 49 31q0 16 -16 25t-54 22q-41 13 -69.5 27t-49 40.5t-20.5 69.5q0 39 19.5 70t54.5 68q22 23 33 38.5t11 29.5q0 24 -15.5 36t-49.5 12q-106 0 -116 -128l-36 -461h-178z" />
    <glyph glyph-name="agrave" unicode="&#xe0;" horiz-adv-x="552" 
d="M455.5 456.5q52.5 -47.5 52.5 -146.5q0 -12 -2 -36l-21 -274h-167l5 62q-18 -33 -51 -51.5t-76 -18.5q-49 0 -88 19.5t-61.5 52.5t-22.5 74q0 57 28 91.5t89 50.5t162 16h36l1 7q2 37 -16.5 54t-62.5 17q-35 0 -78 -13.5t-80 -34.5l-36 117q41 27 105 44t125 17
q106 0 158.5 -47.5zM305.5 137q23.5 26 26.5 66l1 11h-27q-59 0 -85 -13t-26 -43q0 -21 14.5 -34t38.5 -13q34 0 57.5 26zM252 556l-137 206h159l86 -206h-108z" />
    <glyph glyph-name="aacute" unicode="&#xe1;" horiz-adv-x="552" 
d="M455.5 456.5q52.5 -47.5 52.5 -146.5q0 -12 -2 -36l-21 -274h-167l5 62q-18 -33 -51 -51.5t-76 -18.5q-49 0 -88 19.5t-61.5 52.5t-22.5 74q0 57 28 91.5t89 50.5t162 16h36l1 7q2 37 -16.5 54t-62.5 17q-35 0 -78 -13.5t-80 -34.5l-36 117q41 27 105 44t125 17
q106 0 158.5 -47.5zM305.5 137q23.5 26 26.5 66l1 11h-27q-59 0 -85 -13t-26 -43q0 -21 14.5 -34t38.5 -13q34 0 57.5 26zM360 556h-108l110 206h177z" />
    <glyph glyph-name="acircumflex" unicode="&#xe2;" horiz-adv-x="552" 
d="M455.5 456.5q52.5 -47.5 52.5 -146.5q0 -12 -2 -36l-21 -274h-167l5 62q-18 -33 -51 -51.5t-76 -18.5q-49 0 -88 19.5t-61.5 52.5t-22.5 74q0 57 28 91.5t89 50.5t162 16h36l1 7q2 37 -16.5 54t-62.5 17q-35 0 -78 -13.5t-80 -34.5l-36 117q41 27 105 44t125 17
q106 0 158.5 -47.5zM305.5 137q23.5 26 26.5 66l1 11h-27q-59 0 -85 -13t-26 -43q0 -21 14.5 -34t38.5 -13q34 0 57.5 26zM257 556h-137l151 206h102l119 -206h-130l-48 106z" />
    <glyph glyph-name="atilde" unicode="&#xe3;" horiz-adv-x="552" 
d="M455.5 456.5q52.5 -47.5 52.5 -146.5q0 -12 -2 -36l-21 -274h-167l5 62q-18 -33 -51 -51.5t-76 -18.5q-49 0 -88 19.5t-61.5 52.5t-22.5 74q0 57 28 91.5t89 50.5t162 16h36l1 7q2 37 -16.5 54t-62.5 17q-35 0 -78 -13.5t-80 -34.5l-36 117q41 27 105 44t125 17
q106 0 158.5 -47.5zM305.5 137q23.5 26 26.5 66l1 11h-27q-59 0 -85 -13t-26 -43q0 -21 14.5 -34t38.5 -13q34 0 57.5 26zM168 702q35 38 82 38q21 0 39.5 -7.5t41.5 -21.5q17 -10 29 -15.5t23 -5.5q37 0 44 47h73q-6 -82 -40.5 -119.5t-81.5 -37.5q-21 0 -39 7.5t-41 21.5
q-19 11 -30.5 16t-22.5 5q-36 0 -44 -47h-72q4 81 39 119z" />
    <glyph glyph-name="adieresis" unicode="&#xe4;" horiz-adv-x="552" 
d="M455.5 456.5q52.5 -47.5 52.5 -146.5q0 -12 -2 -36l-21 -274h-167l5 62q-18 -33 -51 -51.5t-76 -18.5q-49 0 -88 19.5t-61.5 52.5t-22.5 74q0 57 28 91.5t89 50.5t162 16h36l1 7q2 37 -16.5 54t-62.5 17q-35 0 -78 -13.5t-80 -34.5l-36 117q41 27 105 44t125 17
q106 0 158.5 -47.5zM305.5 137q23.5 26 26.5 66l1 11h-27q-59 0 -85 -13t-26 -43q0 -21 14.5 -34t38.5 -13q34 0 57.5 26zM142 732h157l-12 -149h-157zM340 732h157l-12 -149h-157z" />
    <glyph glyph-name="aring" unicode="&#xe5;" horiz-adv-x="552" 
d="M455.5 456.5q52.5 -47.5 52.5 -146.5q0 -12 -2 -36l-21 -274h-167l5 62q-18 -33 -51 -51.5t-76 -18.5q-49 0 -88 19.5t-61.5 52.5t-22.5 74q0 57 28 91.5t89 50.5t162 16h36l1 7q2 37 -16.5 54t-62.5 17q-35 0 -78 -13.5t-80 -34.5l-36 117q41 27 105 44t125 17
q106 0 158.5 -47.5zM305.5 137q23.5 26 26.5 66l1 11h-27q-59 0 -85 -13t-26 -43q0 -21 14.5 -34t38.5 -13q34 0 57.5 26zM234.5 581q-32.5 32 -32.5 79q0 46 32.5 78t79.5 32t80 -32t33 -78q0 -47 -33 -79t-80 -32t-79.5 32zM344 629q12 13 12 31t-12 30.5t-30 12.5
t-29.5 -12.5t-11.5 -30.5t11.5 -31t29.5 -13t30 13z" />
    <glyph glyph-name="ae" unicode="&#xe6;" horiz-adv-x="831" 
d="M701.5 476.5q47.5 -27.5 74.5 -81.5t27 -131q0 -25 -3 -52h-298q12 -90 107 -90q67 0 134 46l36 -117q-33 -28 -82.5 -43.5t-102.5 -15.5q-67 0 -117 24t-81 68q-30 -44 -78 -68t-106 -24q-56 0 -99 19t-66 52t-23 75q0 57 28 91.5t89 50.5t162 16h33l1 7q2 37 -16.5 54
t-62.5 17q-33 0 -76 -13.5t-79 -34.5l-36 117q41 27 104.5 44t124.5 17q100 0 148 -54q62 54 149 54q61 0 108.5 -27.5zM533.5 363.5q-21.5 -20.5 -29.5 -67.5h153q-1 45 -19.5 66.5t-47.5 21.5q-35 0 -56.5 -20.5zM303 136q23 25 26 65l1 13h-24q-59 0 -85 -13.5t-26 -46.5
q0 -19 14.5 -31t38.5 -12q32 0 55 25z" />
    <glyph glyph-name="ccedilla" unicode="&#xe7;" horiz-adv-x="500" 
d="M400 8.5q-47 -15.5 -97 -16.5l-7 -32h3q38 0 61.5 -18t23.5 -50q0 -39 -36.5 -64.5t-102.5 -25.5q-28 0 -56 4.5t-48 12.5l17 64q46 -14 82 -14q39 0 39 22q0 17 -29 17q-10 0 -33 -5l-18 22l16 76q-87 21 -136.5 82.5t-49.5 149.5q0 85 35 146t99.5 93t150.5 32
q120 0 197 -59l-55 -120q-30 21 -64.5 33t-66.5 12q-54 0 -83.5 -34.5t-29.5 -98.5q0 -54 27 -82.5t72 -28.5q67 0 134 46l35 -121q-33 -27 -80 -42.5z" />
    <glyph glyph-name="egrave" unicode="&#xe8;" horiz-adv-x="535" 
d="M445.5 442q60.5 -62 60.5 -177q0 -26 -3 -53h-303q12 -90 109 -90q71 0 138 46l36 -117q-33 -28 -82.5 -43.5t-104.5 -15.5q-79 0 -139.5 30t-94 84.5t-33.5 127.5q0 78 33.5 139.5t91 96t128.5 34.5q103 0 163.5 -62zM231.5 363.5q-21.5 -20.5 -29.5 -67.5h159
q-3 88 -73 88q-35 0 -56.5 -20.5zM247 556l-137 206h159l86 -206h-108z" />
    <glyph glyph-name="eacute" unicode="&#xe9;" horiz-adv-x="535" 
d="M445.5 442q60.5 -62 60.5 -177q0 -26 -3 -53h-303q12 -90 109 -90q71 0 138 46l36 -117q-33 -28 -82.5 -43.5t-104.5 -15.5q-79 0 -139.5 30t-94 84.5t-33.5 127.5q0 78 33.5 139.5t91 96t128.5 34.5q103 0 163.5 -62zM231.5 363.5q-21.5 -20.5 -29.5 -67.5h159
q-3 88 -73 88q-35 0 -56.5 -20.5zM355 556h-108l110 206h177z" />
    <glyph glyph-name="ecircumflex" unicode="&#xea;" horiz-adv-x="535" 
d="M445.5 442q60.5 -62 60.5 -177q0 -26 -3 -53h-303q12 -90 109 -90q71 0 138 46l36 -117q-33 -28 -82.5 -43.5t-104.5 -15.5q-79 0 -139.5 30t-94 84.5t-33.5 127.5q0 78 33.5 139.5t91 96t128.5 34.5q103 0 163.5 -62zM231.5 363.5q-21.5 -20.5 -29.5 -67.5h159
q-3 88 -73 88q-35 0 -56.5 -20.5zM252 556h-137l151 206h102l119 -206h-130l-48 106z" />
    <glyph glyph-name="edieresis" unicode="&#xeb;" horiz-adv-x="535" 
d="M445.5 442q60.5 -62 60.5 -177q0 -26 -3 -53h-303q12 -90 109 -90q71 0 138 46l36 -117q-33 -28 -82.5 -43.5t-104.5 -15.5q-79 0 -139.5 30t-94 84.5t-33.5 127.5q0 78 33.5 139.5t91 96t128.5 34.5q103 0 163.5 -62zM231.5 363.5q-21.5 -20.5 -29.5 -67.5h159
q-3 88 -73 88q-35 0 -56.5 -20.5zM137 732h157l-12 -149h-157zM335 732h157l-12 -149h-157z" />
    <glyph glyph-name="igrave" unicode="&#xec;" horiz-adv-x="281" 
d="M33 0l39 492h178l-39 -492h-178zM112 556l-137 206h159l86 -206h-108z" />
    <glyph glyph-name="iacute" unicode="&#xed;" horiz-adv-x="281" 
d="M33 0l39 492h178l-39 -492h-178zM220 556h-108l110 206h177z" />
    <glyph glyph-name="icircumflex" unicode="&#xee;" horiz-adv-x="281" 
d="M33 0l39 492h178l-39 -492h-178zM117 556h-137l151 206h102l119 -206h-130l-48 106z" />
    <glyph glyph-name="idieresis" unicode="&#xef;" horiz-adv-x="281" 
d="M33 0l39 492h178l-39 -492h-178zM2 732h157l-12 -149h-157zM200 732h157l-12 -149h-157z" />
    <glyph glyph-name="eth" unicode="&#xf0;" horiz-adv-x="608" 
d="M520 539q32 -49 48 -106t16 -116q0 -167 -78 -246t-209 -79q-82 0 -143 27.5t-94 77.5t-33 118q0 73 34 127.5t92.5 83.5t129.5 29q84 0 129 -39q-13 46 -46 86l-185 -45l-16 87l109 26q-46 22 -102 27l47 120q144 -16 238 -102l126 30l15 -87zM370.5 156
q23.5 31 23.5 79q0 41 -23 66t-68 25q-52 0 -76 -31.5t-24 -76.5q0 -40 23.5 -66.5t67.5 -26.5q53 0 76.5 31z" />
    <glyph glyph-name="ntilde" unicode="&#xf1;" horiz-adv-x="605" 
d="M520 457.5q42 -46.5 42 -136.5q0 -22 -1 -34l-23 -287h-178l23 281q3 42 -13.5 64.5t-51.5 22.5q-39 0 -60.5 -25.5t-24.5 -68.5l-22 -274h-178l39 492h173l-4 -52q26 30 66 47t89 17q82 0 124 -46.5zM192 702q35 38 82 38q21 0 39.5 -7.5t41.5 -21.5q17 -10 29 -15.5
t23 -5.5q37 0 44 47h73q-6 -82 -40.5 -119.5t-81.5 -37.5q-21 0 -39 7.5t-41 21.5q-19 11 -30.5 16t-22.5 5q-36 0 -44 -47h-72q4 81 39 119z" />
    <glyph glyph-name="ograve" unicode="&#xf2;" 
d="M156 22q-61 30 -94 85.5t-33 128.5q0 83 34 143.5t95.5 92.5t143.5 32t143 -30t94 -85t33 -128q0 -84 -34 -144.5t-95.5 -92.5t-143.5 -32t-143 30zM372.5 163q23.5 40 23.5 102q0 55 -22.5 81.5t-68.5 26.5q-53 0 -76.5 -39.5t-23.5 -100.5q0 -56 22.5 -83t68.5 -27
q53 0 76.5 40zM271 556l-137 206h159l86 -206h-108z" />
    <glyph glyph-name="oacute" unicode="&#xf3;" 
d="M156 22q-61 30 -94 85.5t-33 128.5q0 83 34 143.5t95.5 92.5t143.5 32t143 -30t94 -85t33 -128q0 -84 -34 -144.5t-95.5 -92.5t-143.5 -32t-143 30zM372.5 163q23.5 40 23.5 102q0 55 -22.5 81.5t-68.5 26.5q-53 0 -76.5 -39.5t-23.5 -100.5q0 -56 22.5 -83t68.5 -27
q53 0 76.5 40zM379 556h-108l110 206h177z" />
    <glyph glyph-name="ocircumflex" unicode="&#xf4;" 
d="M156 22q-61 30 -94 85.5t-33 128.5q0 83 34 143.5t95.5 92.5t143.5 32t143 -30t94 -85t33 -128q0 -84 -34 -144.5t-95.5 -92.5t-143.5 -32t-143 30zM372.5 163q23.5 40 23.5 102q0 55 -22.5 81.5t-68.5 26.5q-53 0 -76.5 -39.5t-23.5 -100.5q0 -56 22.5 -83t68.5 -27
q53 0 76.5 40zM276 556h-137l151 206h102l119 -206h-130l-48 106z" />
    <glyph glyph-name="otilde" unicode="&#xf5;" 
d="M156 22q-61 30 -94 85.5t-33 128.5q0 83 34 143.5t95.5 92.5t143.5 32t143 -30t94 -85t33 -128q0 -84 -34 -144.5t-95.5 -92.5t-143.5 -32t-143 30zM372.5 163q23.5 40 23.5 102q0 55 -22.5 81.5t-68.5 26.5q-53 0 -76.5 -39.5t-23.5 -100.5q0 -56 22.5 -83t68.5 -27
q53 0 76.5 40zM187 702q35 38 82 38q21 0 39.5 -7.5t41.5 -21.5q17 -10 29 -15.5t23 -5.5q37 0 44 47h73q-6 -82 -40.5 -119.5t-81.5 -37.5q-21 0 -39 7.5t-41 21.5q-19 11 -30.5 16t-22.5 5q-36 0 -44 -47h-72q4 81 39 119z" />
    <glyph glyph-name="odieresis" unicode="&#xf6;" 
d="M156 22q-61 30 -94 85.5t-33 128.5q0 83 34 143.5t95.5 92.5t143.5 32t143 -30t94 -85t33 -128q0 -84 -34 -144.5t-95.5 -92.5t-143.5 -32t-143 30zM372.5 163q23.5 40 23.5 102q0 55 -22.5 81.5t-68.5 26.5q-53 0 -76.5 -39.5t-23.5 -100.5q0 -56 22.5 -83t68.5 -27
q53 0 76.5 40zM161 732h157l-12 -149h-157zM359 732h157l-12 -149h-157z" />
    <glyph glyph-name="divide" unicode="&#xf7;" 
d="M244 410l9 129h128l-10 -129h-127zM551 347l-8 -119h-487l9 119h486zM213 29l11 129h127l-10 -129h-128z" />
    <glyph glyph-name="oslash" unicode="&#xf8;" 
d="M550 367.5q22 -47.5 22 -106.5q0 -84 -34 -144.5t-95.5 -92.5t-143.5 -32q-57 0 -105 15l-50 -76l-76 47l47 70q-42 33 -64 81t-22 107q0 83 34 143.5t95.5 92.5t143.5 32q58 0 105 -15l51 76l75 -47l-46 -70q41 -33 63 -80.5zM207 187l123 185q-16 2 -25 2
q-55 0 -79 -39.5t-24 -101.5q0 -24 5 -46zM376.5 162q24.5 40 24.5 103q0 24 -5 46l-124 -187q14 -2 24 -2q56 0 80.5 40z" />
    <glyph glyph-name="ugrave" unicode="&#xf9;" 
d="M567 492l-39 -492h-173l5 56q-26 -30 -66 -47t-87 -17q-80 0 -122 45.5t-42 132.5q0 11 2 35l22 287h178l-22 -277l-1 -15q0 -35 16 -53.5t47 -18.5q37 0 58 25.5t24 68.5l22 270h178zM269 556l-137 206h159l86 -206h-108z" />
    <glyph glyph-name="uacute" unicode="&#xfa;" 
d="M567 492l-39 -492h-173l5 56q-26 -30 -66 -47t-87 -17q-80 0 -122 45.5t-42 132.5q0 11 2 35l22 287h178l-22 -277l-1 -15q0 -35 16 -53.5t47 -18.5q37 0 58 25.5t24 68.5l22 270h178zM377 556h-108l110 206h177z" />
    <glyph glyph-name="ucircumflex" unicode="&#xfb;" 
d="M567 492l-39 -492h-173l5 56q-26 -30 -66 -47t-87 -17q-80 0 -122 45.5t-42 132.5q0 11 2 35l22 287h178l-22 -277l-1 -15q0 -35 16 -53.5t47 -18.5q37 0 58 25.5t24 68.5l22 270h178zM274 556h-137l151 206h102l119 -206h-130l-48 106z" />
    <glyph glyph-name="udieresis" unicode="&#xfc;" 
d="M567 492l-39 -492h-173l5 56q-26 -30 -66 -47t-87 -17q-80 0 -122 45.5t-42 132.5q0 11 2 35l22 287h178l-22 -277l-1 -15q0 -35 16 -53.5t47 -18.5q37 0 58 25.5t24 68.5l22 270h178zM159 732h157l-12 -149h-157zM357 732h157l-12 -149h-157z" />
    <glyph glyph-name="yacute" unicode="&#xfd;" horiz-adv-x="541" 
d="M405 491h177l-353 -671h-180l115 215l-163 456h180l90 -276zM350 556h-108l110 206h177z" />
    <glyph glyph-name="thorn" unicode="&#xfe;" horiz-adv-x="625" 
d="M496.5 475.5q47.5 -28.5 73.5 -81.5t26 -126q0 -80 -29.5 -143t-83 -98t-123.5 -35q-93 0 -146 66l-19 -238h-178l70 885h178l-21 -263q24 30 60.5 46t82.5 16q62 0 109.5 -28.5zM393.5 159q26.5 36 26.5 96q0 57 -25 87.5t-71 30.5q-44 0 -70.5 -36t-26.5 -94
q0 -59 24.5 -89.5t69.5 -30.5q46 0 72.5 36z" />
    <glyph glyph-name="ydieresis" unicode="&#xff;" horiz-adv-x="541" 
d="M405 491h177l-353 -671h-180l115 215l-163 456h180l90 -276zM132 732h157l-12 -149h-157zM330 732h157l-12 -149h-157z" />
    <glyph glyph-name="Amacron" unicode="&#x100;" horiz-adv-x="761" 
d="M586 0l-52 146h-313l-74 -146h-188l384 705h146l275 -705h-178zM291 284h195l-81 226zM265 790l8 107h319l-9 -107h-318z" />
    <glyph glyph-name="amacron" unicode="&#x101;" horiz-adv-x="552" 
d="M455.5 456.5q52.5 -47.5 52.5 -146.5q0 -12 -2 -36l-21 -274h-167l5 62q-18 -33 -51 -51.5t-76 -18.5q-49 0 -88 19.5t-61.5 52.5t-22.5 74q0 57 28 91.5t89 50.5t162 16h36l1 7q2 37 -16.5 54t-62.5 17q-35 0 -78 -13.5t-80 -34.5l-36 117q41 27 105 44t125 17
q106 0 158.5 -47.5zM305.5 137q23.5 26 26.5 66l1 11h-27q-59 0 -85 -13t-26 -43q0 -21 14.5 -34t38.5 -13q34 0 57.5 26zM151 604l8 106h319l-9 -106h-318z" />
    <glyph glyph-name="Abreve" unicode="&#x102;" horiz-adv-x="761" 
d="M586 0l-52 146h-313l-74 -146h-188l384 705h146l275 -705h-178zM291 284h195l-81 226zM313 803.5q-50 30.5 -67 79.5l81 32q14 -18 42.5 -29.5t64.5 -11.5q33 0 62 11t44 30l74 -32q-18 -48 -67.5 -79t-115.5 -31q-68 0 -118 30.5z" />
    <glyph glyph-name="abreve" unicode="&#x103;" horiz-adv-x="552" 
d="M455.5 456.5q52.5 -47.5 52.5 -146.5q0 -12 -2 -36l-21 -274h-167l5 62q-18 -33 -51 -51.5t-76 -18.5q-49 0 -88 19.5t-61.5 52.5t-22.5 74q0 57 28 91.5t89 50.5t162 16h36l1 7q2 37 -16.5 54t-62.5 17q-35 0 -78 -13.5t-80 -34.5l-36 117q41 27 105 44t125 17
q106 0 158.5 -47.5zM305.5 137q23.5 26 26.5 66l1 11h-27q-59 0 -85 -13t-26 -43q0 -21 14.5 -34t38.5 -13q34 0 57.5 26zM194.5 615.5q-51.5 39.5 -68.5 112.5l79 32q20 -39 50.5 -57.5t66.5 -18.5q67 0 116 76l75 -33q-19 -73 -74.5 -112t-124.5 -39q-68 0 -119.5 39.5z
" />
    <glyph glyph-name="Aogonek" unicode="&#x104;" horiz-adv-x="761" 
d="M733 -100l11 -79q-50 -19 -99 -19q-59 0 -95 30t-36 77q0 68 66 109l-46 128h-313l-74 -146h-188l384 705h146l275 -705h-63q-30 0 -52.5 -18.5t-22.5 -44.5q0 -22 13.5 -34.5t37.5 -12.5q25 0 56 10zM291 284h195l-81 226z" />
    <glyph glyph-name="aogonek" unicode="&#x105;" horiz-adv-x="552" 
d="M408.5 -16.5q-21.5 -16.5 -21.5 -46.5q0 -22 14 -34.5t37 -12.5q26 0 57 10l10 -79q-50 -19 -98 -19q-60 0 -95.5 30t-35.5 78q0 53 42 90l5 62q-18 -34 -51.5 -52t-80.5 -18q-46 0 -84.5 19t-60.5 52.5t-22 74.5q0 57 28 91.5t89 50.5t162 16h36l1 7q2 37 -16.5 54
t-62.5 17q-35 0 -78 -13.5t-80 -34.5l-36 117q41 27 105 44t125 17q106 0 158.5 -47.5t52.5 -146.5q0 -12 -2 -36l-21 -274h-18q-37 0 -58.5 -16.5zM305.5 137q23.5 26 26.5 66l1 11h-27q-59 0 -85 -13.5t-26 -46.5q0 -19 14.5 -31t38.5 -12q34 0 57.5 26z" />
    <glyph glyph-name="Cacute" unicode="&#x106;" horiz-adv-x="678" 
d="M214.5 32.5q-77.5 41.5 -119 118t-41.5 180.5q0 115 47 202t132.5 134t198.5 47q71 0 133.5 -20t110.5 -57l-67 -131q-43 32 -83.5 47t-84.5 15q-96 0 -148 -63t-52 -174q0 -95 41 -144.5t121 -49.5q79 0 182 61l47 -130q-36 -35 -100.5 -56t-133.5 -21
q-106 0 -183.5 41.5zM493 765h-108l111 157h168z" />
    <glyph glyph-name="cacute" unicode="&#x107;" horiz-adv-x="500" 
d="M156 22q-61 30 -94 84.5t-33 126.5q0 85 35 146t99.5 93t150.5 32q120 0 197 -59l-55 -120q-30 21 -64.5 33t-66.5 12q-54 0 -83.5 -34.5t-29.5 -98.5q0 -54 27 -82.5t72 -28.5q67 0 134 46l35 -121q-34 -28 -82.5 -43.5t-98.5 -15.5q-82 0 -143 30zM378 556h-108
l110 206h177z" />
    <glyph glyph-name="Ccircumflex" unicode="&#x108;" horiz-adv-x="678" 
d="M214.5 32.5q-77.5 41.5 -119 118t-41.5 180.5q0 115 47 202t132.5 134t198.5 47q71 0 133.5 -20t110.5 -57l-67 -131q-43 32 -83.5 47t-84.5 15q-96 0 -148 -63t-52 -174q0 -95 41 -144.5t121 -49.5q79 0 182 61l47 -130q-36 -35 -100.5 -56t-133.5 -21
q-106 0 -183.5 41.5zM381 765h-128l149 157h98l125 -157h-129l-47 78z" />
    <glyph glyph-name="ccircumflex" unicode="&#x109;" horiz-adv-x="500" 
d="M156 22q-61 30 -94 84.5t-33 126.5q0 85 35 146t99.5 93t150.5 32q120 0 197 -59l-55 -120q-30 21 -64.5 33t-66.5 12q-54 0 -83.5 -34.5t-29.5 -98.5q0 -54 27 -82.5t72 -28.5q67 0 134 46l35 -121q-34 -28 -82.5 -43.5t-98.5 -15.5q-82 0 -143 30zM275 556h-137
l151 206h102l119 -206h-130l-48 106z" />
    <glyph glyph-name="Cdotaccent" unicode="&#x10a;" horiz-adv-x="678" 
d="M214.5 32.5q-77.5 41.5 -119 118t-41.5 180.5q0 115 47 202t132.5 134t198.5 47q71 0 133.5 -20t110.5 -57l-67 -131q-43 32 -83.5 47t-84.5 15q-96 0 -148 -63t-52 -174q0 -95 41 -144.5t121 -49.5q79 0 182 61l47 -130q-36 -35 -100.5 -56t-133.5 -21
q-106 0 -183.5 41.5zM359 924h186l-13 -160h-185z" />
    <glyph glyph-name="cdotaccent" unicode="&#x10b;" horiz-adv-x="500" 
d="M156 22q-61 30 -94 84.5t-33 126.5q0 85 35 146t99.5 93t150.5 32q120 0 197 -59l-55 -120q-30 21 -64.5 33t-66.5 12q-54 0 -83.5 -34.5t-29.5 -98.5q0 -54 27 -82.5t72 -28.5q67 0 134 46l35 -121q-34 -28 -82.5 -43.5t-98.5 -15.5q-82 0 -143 30zM245 738h186
l-13 -161h-185z" />
    <glyph glyph-name="Ccaron" unicode="&#x10c;" horiz-adv-x="678" 
d="M214.5 32.5q-77.5 41.5 -119 118t-41.5 180.5q0 115 47 202t132.5 134t198.5 47q71 0 133.5 -20t110.5 -57l-67 -131q-43 32 -83.5 47t-84.5 15q-96 0 -148 -63t-52 -174q0 -95 41 -144.5t121 -49.5q79 0 182 61l47 -130q-36 -35 -100.5 -56t-133.5 -21
q-106 0 -183.5 41.5zM509 922h128l-149 -157h-98l-125 157h129l55 -78z" />
    <glyph glyph-name="ccaron" unicode="&#x10d;" horiz-adv-x="500" 
d="M156 22q-61 30 -94 84.5t-33 126.5q0 85 35 146t99.5 93t150.5 32q120 0 197 -59l-55 -120q-30 21 -64.5 33t-66.5 12q-54 0 -83.5 -34.5t-29.5 -98.5q0 -54 27 -82.5t72 -28.5q67 0 134 46l35 -121q-34 -28 -82.5 -43.5t-98.5 -15.5q-82 0 -143 30zM389 762h137
l-151 -206h-102l-119 206h130l48 -105z" />
    <glyph glyph-name="Dcaron" unicode="&#x10e;" horiz-adv-x="773" 
d="M100 705h287q106 0 184.5 -40.5t121.5 -115t43 -175.5q0 -118 -47 -202t-135.5 -128t-212.5 -44h-296zM324 148q117 0 173 54.5t56 172.5q0 89 -49 135.5t-142 46.5h-90l-32 -409h84zM497 922h128l-149 -157h-98l-125 157h129l55 -78z" />
    <glyph glyph-name="dcaron" unicode="&#x10f;" horiz-adv-x="625" 
d="M431 705h178l-56 -705h-176l4 54q-24 -30 -60.5 -46t-81.5 -16q-62 0 -109.5 28.5t-74 81.5t-26.5 126q0 80 30 143t83.5 98t123.5 35q93 0 143 -64zM632 705h83l-41 -195h-57zM372 159q26 36 26 94q0 59 -24 89.5t-69 30.5q-46 0 -73 -36t-27 -97q0 -56 25 -86.5
t71 -30.5q45 0 71 36z" />
    <glyph glyph-name="Dcroat" unicode="&#x110;" horiz-adv-x="809" 
d="M608 664.5q79 -40.5 121.5 -115t42.5 -175.5q0 -118 -47 -202t-135.5 -128t-212.5 -44h-296l22 286h-82l11 139h82l22 280h287q106 0 185 -40.5zM533 202.5q56 54.5 56 172.5q0 89 -49 135.5t-142 46.5h-89l-11 -132h184l-12 -139h-183l-11 -138h85q116 0 172 54.5z" />
    <glyph glyph-name="dcroat" unicode="&#x111;" horiz-adv-x="625" 
d="M677 524h-82l-41 -524h-175l4 56q-24 -31 -61 -47.5t-83 -16.5q-62 0 -109.5 29.5t-74 85.5t-26.5 133q0 72 30 132.5t84 96t123 35.5q93 0 143 -64l7 84h-182l8 122h184l5 59h178l-5 -59h82zM373.5 159q24.5 36 24.5 106q0 108 -95 108q-44 0 -71 -35.5t-27 -96.5
q0 -59 25.5 -88.5t70.5 -29.5q48 0 72.5 36z" />
    <glyph glyph-name="Emacron" unicode="&#x112;" horiz-adv-x="597" 
d="M591 563h-322l-11 -134h302l-11 -141h-302l-12 -146h323l-12 -142h-501l56 705h502zM218 790l8 107h319l-9 -107h-318z" />
    <glyph glyph-name="emacron" unicode="&#x113;" horiz-adv-x="535" 
d="M445.5 442q60.5 -62 60.5 -177q0 -26 -3 -53h-303q12 -90 109 -90q71 0 138 46l36 -117q-33 -28 -82.5 -43.5t-104.5 -15.5q-79 0 -139.5 30t-94 84.5t-33.5 127.5q0 78 33.5 139.5t91 96t128.5 34.5q103 0 163.5 -62zM231.5 363.5q-21.5 -20.5 -29.5 -67.5h159
q-3 88 -73 88q-35 0 -56.5 -20.5zM146 604l8 106h319l-9 -106h-318z" />
    <glyph glyph-name="Ebreve" unicode="&#x114;" horiz-adv-x="597" 
d="M591 563h-322l-11 -134h302l-11 -141h-302l-12 -146h323l-12 -142h-501l56 705h502zM266 803.5q-50 30.5 -67 79.5l81 32q14 -18 42.5 -29.5t64.5 -11.5q33 0 62 11t44 30l74 -32q-18 -48 -67.5 -79t-115.5 -31q-68 0 -118 30.5z" />
    <glyph glyph-name="ebreve" unicode="&#x115;" horiz-adv-x="535" 
d="M445.5 442q60.5 -62 60.5 -177q0 -26 -3 -53h-303q12 -90 109 -90q71 0 138 46l36 -117q-33 -28 -82.5 -43.5t-104.5 -15.5q-79 0 -139.5 30t-94 84.5t-33.5 127.5q0 78 33.5 139.5t91 96t128.5 34.5q103 0 163.5 -62zM231.5 363.5q-21.5 -20.5 -29.5 -67.5h159
q-3 88 -73 88q-35 0 -56.5 -20.5zM189.5 615.5q-51.5 39.5 -68.5 112.5l79 32q20 -39 50.5 -57.5t66.5 -18.5q67 0 116 76l75 -33q-19 -73 -74.5 -112t-124.5 -39q-68 0 -119.5 39.5z" />
    <glyph glyph-name="Edotaccent" unicode="&#x116;" horiz-adv-x="597" 
d="M591 563h-322l-11 -134h302l-11 -141h-302l-12 -146h323l-12 -142h-501l56 705h502zM294 924h186l-13 -160h-185z" />
    <glyph glyph-name="edotaccent" unicode="&#x117;" horiz-adv-x="535" 
d="M445.5 442q60.5 -62 60.5 -177q0 -26 -3 -53h-303q12 -90 109 -90q71 0 138 46l36 -117q-33 -28 -82.5 -43.5t-104.5 -15.5q-79 0 -139.5 30t-94 84.5t-33.5 127.5q0 78 33.5 139.5t91 96t128.5 34.5q103 0 163.5 -62zM231.5 363.5q-21.5 -20.5 -29.5 -67.5h159
q-3 88 -73 88q-35 0 -56.5 -20.5zM222 738h186l-13 -161h-185z" />
    <glyph glyph-name="Eogonek" unicode="&#x118;" horiz-adv-x="597" 
d="M269 563l-11 -134h302l-11 -141h-302l-12 -146h323l-12 -142h-24q-27 0 -47 -18t-20 -45q0 -22 13.5 -34.5t37.5 -12.5q25 0 56 10l11 -79q-50 -19 -99 -19q-59 0 -95 30t-36 78q0 56 44 90h-342l56 705h500l-11 -142h-321z" />
    <glyph glyph-name="eogonek" unicode="&#x119;" horiz-adv-x="535" 
d="M445.5 442q60.5 -62 60.5 -177q0 -24 -3 -53h-303q12 -90 109 -90q71 0 138 46l36 -117q-16 -18 -61 -36q-41 -17 -58.5 -35t-17.5 -43q0 -22 13.5 -34.5t37.5 -12.5q25 0 56 10l11 -79q-50 -19 -99 -19q-59 0 -95 30t-36 78q0 51 36 83q-110 8 -175.5 72.5t-65.5 168.5
q0 78 33.5 139.5t91 96t128.5 34.5q103 0 163.5 -62zM202 296h159q-3 88 -73 88q-72 0 -86 -88z" />
    <glyph glyph-name="Ecaron" unicode="&#x11a;" horiz-adv-x="597" 
d="M591 563h-322l-11 -134h302l-11 -141h-302l-12 -146h323l-12 -142h-501l56 705h502zM444 922h128l-149 -157h-98l-125 157h129l55 -78z" />
    <glyph glyph-name="ecaron" unicode="&#x11b;" horiz-adv-x="535" 
d="M445.5 442q60.5 -62 60.5 -177q0 -26 -3 -53h-303q12 -90 109 -90q71 0 138 46l36 -117q-33 -28 -82.5 -43.5t-104.5 -15.5q-79 0 -139.5 30t-94 84.5t-33.5 127.5q0 78 33.5 139.5t91 96t128.5 34.5q103 0 163.5 -62zM231.5 363.5q-21.5 -20.5 -29.5 -67.5h159
q-3 88 -73 88q-35 0 -56.5 -20.5zM366 762h137l-151 -206h-102l-119 206h130l48 -105z" />
    <glyph glyph-name="Gcircumflex" unicode="&#x11c;" horiz-adv-x="744" 
d="M700 398l-27 -351q-52 -27 -122.5 -41.5t-151.5 -14.5q-106 0 -183.5 41.5t-119.5 119t-42 181.5q0 115 47 201t133.5 133t202.5 47q162 0 259 -77l-67 -130q-46 34 -89 49t-101 13q-96 -2 -147.5 -64.5t-51.5 -172.5q0 -98 46 -149.5t140 -51.5q42 0 90 12l10 129h-125
l11 126h288zM396 765h-128l149 157h98l125 -157h-129l-47 78z" />
    <glyph glyph-name="gcircumflex" unicode="&#x11d;" horiz-adv-x="629" 
d="M596 492l-33 -425q-11 -133 -85.5 -194t-210.5 -61q-71 0 -134 15.5t-112 43.5l55 121q102 -50 197 -50q52 0 80.5 24.5t32.5 80.5l2 24q-52 -57 -147 -57q-62 0 -110 28t-74.5 79t-26.5 119q0 74 30 134.5t84.5 95t124.5 34.5q95 0 148 -66l4 54h175zM376.5 179
q27.5 32 27.5 85q0 55 -25 82t-72 27t-74 -33t-27 -91q0 -48 26 -75t71 -27q46 0 73.5 32zM291 556h-137l151 206h102l119 -206h-130l-48 106z" />
    <glyph glyph-name="Gbreve" unicode="&#x11e;" horiz-adv-x="744" 
d="M700 398l-27 -351q-52 -27 -122.5 -41.5t-151.5 -14.5q-106 0 -183.5 41.5t-119.5 119t-42 181.5q0 115 47 201t133.5 133t202.5 47q162 0 259 -77l-67 -130q-46 34 -89 49t-101 13q-96 -2 -147.5 -64.5t-51.5 -172.5q0 -98 46 -149.5t140 -51.5q42 0 90 12l10 129h-125
l11 126h288zM346 803.5q-50 30.5 -67 79.5l81 32q14 -18 42.5 -29.5t64.5 -11.5q33 0 62 11t44 30l74 -32q-18 -48 -67.5 -79t-115.5 -31q-68 0 -118 30.5z" />
    <glyph glyph-name="gbreve" unicode="&#x11f;" horiz-adv-x="629" 
d="M596 492l-33 -425q-11 -133 -85.5 -194t-210.5 -61q-71 0 -134 15.5t-112 43.5l55 121q102 -50 197 -50q52 0 80.5 24.5t32.5 80.5l2 24q-52 -57 -147 -57q-62 0 -110 28t-74.5 79t-26.5 119q0 74 30 134.5t84.5 95t124.5 34.5q95 0 148 -66l4 54h175zM376.5 179
q27.5 32 27.5 85q0 55 -25 82t-72 27t-74 -33t-27 -91q0 -48 26 -75t71 -27q46 0 73.5 32zM228.5 615.5q-51.5 39.5 -68.5 112.5l79 32q20 -39 50.5 -57.5t66.5 -18.5q67 0 116 76l75 -33q-19 -73 -74.5 -112t-124.5 -39q-68 0 -119.5 39.5z" />
    <glyph glyph-name="Gdotaccent" unicode="&#x120;" horiz-adv-x="744" 
d="M700 398l-27 -351q-52 -27 -122.5 -41.5t-151.5 -14.5q-106 0 -183.5 41.5t-119.5 119t-42 181.5q0 115 47 201t133.5 133t202.5 47q162 0 259 -77l-67 -130q-46 34 -89 49t-101 13q-96 -2 -147.5 -64.5t-51.5 -172.5q0 -98 46 -149.5t140 -51.5q42 0 90 12l10 129h-125
l11 126h288zM374 924h186l-13 -160h-185z" />
    <glyph glyph-name="gdotaccent" unicode="&#x121;" horiz-adv-x="629" 
d="M596 492l-33 -425q-11 -133 -85.5 -194t-210.5 -61q-71 0 -134 15.5t-112 43.5l55 121q102 -50 197 -50q52 0 80.5 24.5t32.5 80.5l2 24q-52 -57 -147 -57q-62 0 -110 28t-74.5 79t-26.5 119q0 74 30 134.5t84.5 95t124.5 34.5q95 0 148 -66l4 54h175zM376.5 179
q27.5 32 27.5 85q0 55 -25 82t-72 27t-74 -33t-27 -91q0 -48 26 -75t71 -27q46 0 73.5 32zM261 738h186l-13 -161h-185z" />
    <glyph glyph-name="Gcommaaccent" unicode="&#x122;" horiz-adv-x="744" 
d="M700 398l-27 -351q-52 -27 -122.5 -41.5t-151.5 -14.5q-106 0 -183.5 41.5t-119.5 119t-42 181.5q0 115 47 201t133.5 133t202.5 47q162 0 259 -77l-67 -130q-46 34 -89 49t-101 13q-96 -2 -147.5 -64.5t-51.5 -172.5q0 -98 46 -149.5t140 -51.5q42 0 90 12l10 129h-125
l11 126h288zM480 -63l-5 -67q-4 -49 -21 -85t-55 -66l-58 41q29 25 38 51h-78l10 126h169z" />
    <glyph glyph-name="gcommaaccent" unicode="&#x123;" horiz-adv-x="629" 
d="M596 492l-33 -425q-11 -133 -85.5 -194t-210.5 -61q-71 0 -134 15.5t-112 43.5l55 121q102 -50 197 -50q52 0 80.5 24.5t32.5 80.5l2 24q-52 -57 -147 -57q-62 0 -110 28t-74.5 79t-26.5 119q0 74 30 134.5t84.5 95t124.5 34.5q95 0 148 -66l4 54h175zM376.5 179
q27.5 32 27.5 85q0 55 -25 82t-72 27t-74 -33t-27 -91q0 -48 26 -75t71 -27q46 0 73.5 32zM436 711l-10 -126h-169l5 67q4 49 21 85t55 66l58 -41q-29 -22 -39 -51h79z" />
    <glyph glyph-name="Hcircumflex" unicode="&#x124;" horiz-adv-x="776" 
d="M568 705h180l-56 -705h-180l23 285h-287l-23 -285h-180l56 705h180l-22 -274h287zM371 765h-128l149 157h98l125 -157h-129l-47 78z" />
    <glyph glyph-name="hcircumflex" unicode="&#x125;" horiz-adv-x="605" 
d="M520 457.5q42 -46.5 42 -136.5q0 -22 -1 -34l-23 -287h-178l23 281q3 42 -13.5 64.5t-51.5 22.5q-39 0 -60.5 -25.5t-24.5 -68.5l-22 -274h-178l54 705h178l-21 -260q27 28 66 43.5t86 15.5q82 0 124 -46.5zM126 765h-128l149 157h98l125 -157h-129l-47 78z" />
    <glyph glyph-name="Hbar" unicode="&#x126;" horiz-adv-x="848" 
d="M862 637l-10 -134h-60l-41 -503h-180l23 285h-286l-23 -285h-181l40 503h-106l10 134h107l5 68h181l-5 -68h286l5 68h181l-5 -68h59zM605 431l6 72h-286l-6 -72h286z" />
    <glyph glyph-name="hbar" unicode="&#x127;" horiz-adv-x="605" 
d="M520 457.5q42 -46.5 42 -136.5q0 -22 -1 -34l-23 -287h-178l23 281q3 42 -13.5 64.5t-51.5 22.5q-39 0 -60.5 -25.5t-24.5 -68.5l-22 -274h-178l41 524h-83l9 122h83l5 59h178l-5 -59h183l-9 -122h-184l-6 -79q26 28 65 43.5t86 15.5q82 0 124 -46.5z" />
    <glyph glyph-name="Itilde" unicode="&#x128;" horiz-adv-x="312" 
d="M45 0l55 705h184l-55 -705h-184zM58.5 886.5q35.5 37.5 87.5 37.5q18 0 34.5 -7t37.5 -21q21 -12 31.5 -17t22.5 -5q39 0 44 47h73q-5 -82 -41 -120t-88 -38q-18 0 -33 7t-38 21q-19 12 -30.5 17.5t-23.5 5.5q-39 0 -44 -48h-72q4 83 39.5 120.5z" />
    <glyph glyph-name="itilde" unicode="&#x129;" horiz-adv-x="281" 
d="M33 0l39 492h178l-39 -492h-178zM28 702q35 38 82 38q21 0 39.5 -7.5t41.5 -21.5q17 -10 29 -15.5t23 -5.5q37 0 44 47h73q-6 -82 -40.5 -119.5t-81.5 -37.5q-21 0 -39 7.5t-41 21.5q-19 11 -30.5 16t-22.5 5q-36 0 -44 -47h-72q4 81 39 119z" />
    <glyph glyph-name="Imacron" unicode="&#x12a;" horiz-adv-x="312" 
d="M45 0l55 705h184l-55 -705h-184zM41 790l8 107h319l-9 -107h-318z" />
    <glyph glyph-name="imacron" unicode="&#x12b;" horiz-adv-x="281" 
d="M33 0l39 492h178l-39 -492h-178zM11 604l8 106h319l-9 -106h-318z" />
    <glyph glyph-name="Ibreve" unicode="&#x12c;" horiz-adv-x="312" 
d="M45 0l55 705h184l-55 -705h-184zM89 803.5q-50 30.5 -67 79.5l81 32q14 -18 42.5 -29.5t64.5 -11.5q33 0 62 11t44 30l74 -32q-18 -48 -67.5 -79t-115.5 -31q-68 0 -118 30.5z" />
    <glyph glyph-name="ibreve" unicode="&#x12d;" horiz-adv-x="281" 
d="M33 0l39 492h178l-39 -492h-178zM54.5 615.5q-51.5 39.5 -68.5 112.5l79 32q20 -39 50.5 -57.5t66.5 -18.5q67 0 116 76l75 -33q-19 -73 -74.5 -112t-124.5 -39q-68 0 -119.5 39.5z" />
    <glyph glyph-name="Iogonek" unicode="&#x12e;" horiz-adv-x="312" 
d="M233 -100l10 -79q-48 -19 -98 -19q-60 0 -95.5 30.5t-35.5 79.5q0 54 39 88h-8l55 705h184l-55 -705h-17q-42 0 -64 -17.5t-22 -45.5q0 -22 13.5 -34.5t37.5 -12.5q25 0 56 10z" />
    <glyph glyph-name="iogonek" unicode="&#x12f;" horiz-adv-x="281" 
d="M86 738h186l-12 -161h-186zM135 -17.5q-22 -17.5 -22 -45.5q0 -22 14 -34.5t38 -12.5q25 0 56 10l10 -79q-50 -19 -98 -19q-60 0 -95.5 30.5t-35.5 79.5q0 54 39 88h-8l39 492h178l-39 -492h-12q-42 0 -64 -17.5z" />
    <glyph glyph-name="Idotaccent" unicode="&#x130;" horiz-adv-x="312" 
d="M45 0l55 705h184l-55 -705h-184zM117 924h186l-13 -160h-185z" />
    <glyph glyph-name="dotlessi" unicode="&#x131;" horiz-adv-x="281" 
d="M33 0l39 492h178l-39 -492h-178z" />
    <glyph glyph-name="Jcircumflex" unicode="&#x134;" horiz-adv-x="397" 
d="M-15 136l74 4q46 2 65 20t23 62l37 483h185l-37 -480q-8 -111 -69.5 -167t-182.5 -64l-86 -5zM224 765h-128l149 157h98l125 -157h-129l-47 78z" />
    <glyph glyph-name="jcircumflex" unicode="&#x135;" horiz-adv-x="281" 
d="M213 29q-6 -76 -29 -119.5t-75.5 -66t-147.5 -27.5l-53 -3l-4 126l60 4q35 2 50.5 15.5t18.5 44.5l39 489h178zM115 556h-137l151 206h102l119 -206h-130l-48 106z" />
    <glyph glyph-name="Kcommaaccent" unicode="&#x136;" horiz-adv-x="698" 
d="M775 705l-336 -343l292 -362h-213l-264 317l-25 -317h-184l55 705h184l-24 -305l293 305h222zM411 -63l-5 -67q-4 -49 -21 -85t-55 -66l-58 41q29 25 38 51h-78l10 126h169z" />
    <glyph glyph-name="kcommaaccent" unicode="&#x137;" horiz-adv-x="580" 
d="M623 491l-211 -238l179 -253h-213l-151 211l-16 -211h-178l54 705h178l-32 -416l175 202h215zM350 -63l-5 -67q-4 -49 -21 -85t-55 -66l-58 41q29 25 38 51h-78l10 126h169z" />
    <glyph glyph-name="kgreenlandic" unicode="&#x138;" horiz-adv-x="580" 
d="M623 491l-211 -238l179 -253h-213l-150 210l-17 -210h-178l39 492h178l-16 -202l174 201h215z" />
    <glyph glyph-name="Lacute" unicode="&#x139;" horiz-adv-x="572" 
d="M45 0l56 705h184l-45 -556h300l-11 -149h-484zM250 765h-108l111 157h168z" />
    <glyph glyph-name="lacute" unicode="&#x13a;" horiz-adv-x="281" 
d="M33 0l56 705h178l-56 -705h-178zM236 765h-108l111 157h168z" />
    <glyph glyph-name="Lcommaaccent" unicode="&#x13b;" horiz-adv-x="572" 
d="M45 0l56 705h184l-45 -556h300l-11 -149h-484zM374 -63l-5 -67q-4 -49 -21 -85t-55 -66l-58 41q29 25 38 51h-78l10 126h169z" />
    <glyph glyph-name="lcommaaccent" unicode="&#x13c;" horiz-adv-x="281" 
d="M33 0l56 705h178l-56 -705h-178zM201 -63l-5 -67q-4 -49 -21 -85t-55 -66l-58 41q29 25 38 51h-78l10 126h169z" />
    <glyph glyph-name="Lcaron" unicode="&#x13d;" horiz-adv-x="572" 
d="M45 0l56 705h184l-45 -556h300l-11 -149h-484zM438 510h-81l15 195h108z" />
    <glyph glyph-name="lcaron" unicode="&#x13e;" horiz-adv-x="281" 
d="M33 0l56 705h178l-56 -705h-178zM330 510h-58l16 195h83z" />
    <glyph glyph-name="Ldot" unicode="&#x13f;" horiz-adv-x="572" 
d="M45 0l56 705h184l-45 -556h300l-11 -149h-484zM330 432h185l-13 -158h-185z" />
    <glyph glyph-name="ldot" unicode="&#x140;" horiz-adv-x="417" 
d="M33 0l56 705h178l-56 -705h-178zM265 431h185l-13 -158h-185z" />
    <glyph glyph-name="Lslash" unicode="&#x141;" horiz-adv-x="609" 
d="M276 149h300l-11 -149h-484l18 225l-56 -31l-57 117l125 69l26 325h184l-18 -219l152 84l57 -118l-221 -122z" />
    <glyph glyph-name="lslash" unicode="&#x142;" horiz-adv-x="378" 
d="M409 396l-124 -68l-26 -328h-178l18 225l-58 -32l-56 117l126 70l26 325h178l-18 -222l57 31z" />
    <glyph glyph-name="Nacute" unicode="&#x143;" horiz-adv-x="757" 
d="M557 705h172l-56 -705h-137l-287 396l-33 -396h-171l56 705h134l290 -398zM473 765h-108l111 157h168z" />
    <glyph glyph-name="nacute" unicode="&#x144;" horiz-adv-x="605" 
d="M520 457.5q42 -46.5 42 -136.5q0 -22 -1 -34l-23 -287h-178l23 281q3 42 -13.5 64.5t-51.5 22.5q-39 0 -60.5 -25.5t-24.5 -68.5l-22 -274h-178l39 492h173l-4 -52q26 30 66 47t89 17q82 0 124 -46.5zM384 556h-108l110 206h177z" />
    <glyph glyph-name="Ncommaaccent" unicode="&#x145;" horiz-adv-x="757" 
d="M557 705h172l-56 -705h-137l-287 396l-33 -396h-171l56 705h134l290 -398zM439 -63l-5 -67q-4 -49 -21 -85t-55 -66l-58 41q29 25 38 51h-78l10 126h169z" />
    <glyph glyph-name="ncommaaccent" unicode="&#x146;" horiz-adv-x="605" 
d="M520 457.5q42 -46.5 42 -136.5q0 -22 -1 -34l-23 -287h-178l23 281q3 42 -13.5 64.5t-51.5 22.5q-39 0 -60.5 -25.5t-24.5 -68.5l-22 -274h-178l39 492h173l-4 -52q26 30 66 47t89 17q82 0 124 -46.5zM365 -63l-5 -67q-4 -49 -21 -85t-55 -66l-58 41q29 25 38 51h-78
l10 126h169z" />
    <glyph glyph-name="Ncaron" unicode="&#x147;" horiz-adv-x="757" 
d="M557 705h172l-56 -705h-137l-287 396l-33 -396h-171l56 705h134l290 -398zM489 922h128l-149 -157h-98l-125 157h129l55 -78z" />
    <glyph glyph-name="ncaron" unicode="&#x148;" horiz-adv-x="605" 
d="M520 457.5q42 -46.5 42 -136.5q0 -22 -1 -34l-23 -287h-178l23 281q3 42 -13.5 64.5t-51.5 22.5q-39 0 -60.5 -25.5t-24.5 -68.5l-22 -274h-178l39 492h173l-4 -52q26 30 66 47t89 17q82 0 124 -46.5zM395 762h137l-151 -206h-102l-119 206h130l48 -105z" />
    <glyph glyph-name="napostrophe" unicode="&#x149;" horiz-adv-x="605" 
d="M273 762l-5 -67q-4 -49 -21 -85t-55 -66l-57 41q29 23 38 51h-79l10 126h169zM520 457.5q42 -46.5 42 -136.5q0 -22 -1 -34l-23 -287h-178l23 281q3 42 -13.5 64.5t-51.5 22.5q-39 0 -60.5 -25.5t-24.5 -68.5l-22 -274h-178l39 492h173l-4 -52q26 30 66 47t89 17
q82 0 124 -46.5z" />
    <glyph glyph-name="Eng" unicode="&#x14a;" horiz-adv-x="757" 
d="M729 705l-52 -654q-10 -115 -71 -171.5t-180 -62.5l-87 -5l-10 137l81 4q42 2 66.5 24t26.5 60l1 8l-255 351l-33 -396h-171l56 705h134l290 -398l32 398h172z" />
    <glyph glyph-name="eng" unicode="&#x14b;" horiz-adv-x="605" 
d="M519.5 457.5q42.5 -46.5 42.5 -137.5q0 -22 -1 -33l-19 -244q-7 -81 -32 -127.5t-78.5 -69t-148.5 -28.5l-47 -3l-5 125l58 4q39 3 53.5 16.5t17.5 47.5l23 273q3 42 -13.5 64.5t-51.5 22.5q-39 0 -60.5 -25.5t-24.5 -68.5l-22 -274h-178l39 492h173l-4 -51
q26 30 66 46.5t89 16.5q81 0 123.5 -46.5z" />
    <glyph glyph-name="Omacron" unicode="&#x14c;" horiz-adv-x="796" 
d="M218 31.5q-79 41.5 -121.5 118t-42.5 181.5q0 114 44 201.5t125 135t188 47.5q106 0 185 -41.5t121.5 -118.5t42.5 -181q0 -114 -44.5 -201t-125.5 -135t-187 -48t-185 41.5zM529 196q47 64 47 178q0 95 -43 147t-120 52q-82 0 -129 -64.5t-47 -177.5q0 -96 42.5 -147.5
t121.5 -51.5q81 0 128 64zM283 790l8 107h319l-9 -107h-318z" />
    <glyph glyph-name="omacron" unicode="&#x14d;" 
d="M156 22q-61 30 -94 85.5t-33 128.5q0 83 34 143.5t95.5 92.5t143.5 32t143 -30t94 -85t33 -128q0 -84 -34 -144.5t-95.5 -92.5t-143.5 -32t-143 30zM372.5 163q23.5 40 23.5 102q0 55 -22.5 81.5t-68.5 26.5q-53 0 -76.5 -39.5t-23.5 -100.5q0 -56 22.5 -83t68.5 -27
q53 0 76.5 40zM170 604l8 106h319l-9 -106h-318z" />
    <glyph glyph-name="Obreve" unicode="&#x14e;" horiz-adv-x="796" 
d="M218 31.5q-79 41.5 -121.5 118t-42.5 181.5q0 114 44 201.5t125 135t188 47.5q106 0 185 -41.5t121.5 -118.5t42.5 -181q0 -114 -44.5 -201t-125.5 -135t-187 -48t-185 41.5zM529 196q47 64 47 178q0 95 -43 147t-120 52q-82 0 -129 -64.5t-47 -177.5q0 -96 42.5 -147.5
t121.5 -51.5q81 0 128 64zM331 803.5q-50 30.5 -67 79.5l81 32q14 -18 42.5 -29.5t64.5 -11.5q33 0 62 11t44 30l74 -32q-18 -48 -67.5 -79t-115.5 -31q-68 0 -118 30.5z" />
    <glyph glyph-name="obreve" unicode="&#x14f;" 
d="M156 22q-61 30 -94 85.5t-33 128.5q0 83 34 143.5t95.5 92.5t143.5 32t143 -30t94 -85t33 -128q0 -84 -34 -144.5t-95.5 -92.5t-143.5 -32t-143 30zM372.5 163q23.5 40 23.5 102q0 55 -22.5 81.5t-68.5 26.5q-53 0 -76.5 -39.5t-23.5 -100.5q0 -56 22.5 -83t68.5 -27
q53 0 76.5 40zM213.5 615.5q-51.5 39.5 -68.5 112.5l79 32q20 -39 50.5 -57.5t66.5 -18.5q67 0 116 76l75 -33q-19 -73 -74.5 -112t-124.5 -39q-68 0 -119.5 39.5z" />
    <glyph glyph-name="Ohungarumlaut" unicode="&#x150;" horiz-adv-x="796" 
d="M218 31.5q-79 41.5 -121.5 118t-42.5 181.5q0 114 44 201.5t125 135t188 47.5q106 0 185 -41.5t121.5 -118.5t42.5 -181q0 -114 -44.5 -201t-125.5 -135t-187 -48t-185 41.5zM529 196q47 64 47 178q0 95 -43 147t-120 52q-82 0 -129 -64.5t-47 -177.5q0 -96 42.5 -147.5
t121.5 -51.5q81 0 128 64zM409 765h-86l84 157h117zM555 765h-86l84 157h117z" />
    <glyph glyph-name="ohungarumlaut" unicode="&#x151;" 
d="M156 22q-61 30 -94 85.5t-33 128.5q0 83 34 143.5t95.5 92.5t143.5 32t143 -30t94 -85t33 -128q0 -84 -34 -144.5t-95.5 -92.5t-143.5 -32t-143 30zM372.5 163q23.5 40 23.5 102q0 55 -22.5 81.5t-68.5 26.5q-53 0 -76.5 -39.5t-23.5 -100.5q0 -56 22.5 -83t68.5 -27
q53 0 76.5 40zM289 556h-73l43 206h126zM435 556h-74l43 206h127z" />
    <glyph glyph-name="OE" unicode="&#x152;" horiz-adv-x="1044" 
d="M715 563l-11 -134h302l-11 -141h-302l-11 -146h322l-12 -142h-589q-106 0 -185 40.5t-121.5 115t-42.5 175.5q0 118 47 202t135.5 128t212.5 44h600l-12 -142h-322zM536 563h-71q-116 0 -172 -57t-56 -176q0 -90 49 -139t141 -49h75z" />
    <glyph glyph-name="oe" unicode="&#x153;" horiz-adv-x="896" 
d="M809.5 442q58.5 -62 58.5 -177q0 -24 -3 -53h-297q12 -90 106 -90q67 0 134 46l36 -117q-33 -28 -82 -43.5t-102 -15.5q-58 0 -103.5 19.5t-77.5 55.5q-64 -75 -189 -75q-78 0 -137 30.5t-91.5 85.5t-32.5 128q0 83 33.5 143.5t94 92.5t139.5 32q128 0 192 -69
q63 69 166 69q97 0 155.5 -62zM599.5 363.5q-21.5 -20.5 -29.5 -67.5h152q-1 45 -19 66.5t-47 21.5q-35 0 -56.5 -20.5zM369 163.5q23 40.5 23 101.5q0 55 -21.5 81.5t-65.5 26.5q-53 0 -76.5 -39.5t-23.5 -100.5q0 -56 22.5 -83t68.5 -27q50 0 73 40.5z" />
    <glyph glyph-name="Racute" unicode="&#x154;" horiz-adv-x="707" 
d="M680 0h-199l-111 225q-19 39 -69 39h-55l-20 -264h-181l55 705h343q111 0 173 -56.5t62 -150.5q0 -95 -44.5 -150t-138.5 -71q29 -8 48.5 -27t35.5 -50zM406 402q49 0 74.5 22t25.5 63q0 40 -21.5 59.5t-66.5 19.5h-149l-12 -164h149zM452 765h-108l111 157h168z" />
    <glyph glyph-name="racute" unicode="&#x155;" horiz-adv-x="419" 
d="M443 506l-2 -147l-108 -11q-56 -6 -77 -28t-26 -73l-19 -247h-178l39 491h170l-6 -63q56 68 168 76zM320 556h-108l110 206h177z" />
    <glyph glyph-name="Rcommaaccent" unicode="&#x156;" horiz-adv-x="707" 
d="M680 0h-199l-111 225q-19 39 -69 39h-55l-20 -264h-181l55 705h343q111 0 173 -56.5t62 -150.5q0 -95 -44.5 -150t-138.5 -71q29 -8 48.5 -27t35.5 -50zM406 402q49 0 74.5 22t25.5 63q0 40 -21.5 59.5t-66.5 19.5h-149l-12 -164h149zM418 -63l-5 -67q-4 -49 -21 -85
t-55 -66l-58 41q29 25 38 51h-78l10 126h169z" />
    <glyph glyph-name="rcommaaccent" unicode="&#x157;" horiz-adv-x="419" 
d="M443 506l-2 -147l-108 -11q-56 -6 -77 -28t-26 -73l-19 -247h-178l39 491h170l-6 -63q56 68 168 76zM201 -63l-5 -67q-4 -49 -21 -85t-55 -66l-58 41q29 25 38 51h-78l10 126h169z" />
    <glyph glyph-name="Rcaron" unicode="&#x158;" horiz-adv-x="707" 
d="M680 0h-199l-111 225q-19 39 -69 39h-55l-20 -264h-181l55 705h343q111 0 173 -56.5t62 -150.5q0 -95 -44.5 -150t-138.5 -71q29 -8 48.5 -27t35.5 -50zM406 402q49 0 74.5 22t25.5 63q0 40 -21.5 59.5t-66.5 19.5h-149l-12 -164h149zM468 922h128l-149 -157h-98
l-125 157h129l55 -78z" />
    <glyph glyph-name="rcaron" unicode="&#x159;" horiz-adv-x="419" 
d="M443 506l-2 -147l-108 -11q-56 -6 -77 -28t-26 -73l-19 -247h-178l39 491h170l-6 -63q56 68 168 76zM331 762h137l-151 -206h-102l-119 206h130l48 -105z" />
    <glyph glyph-name="Sacute" unicode="&#x15a;" horiz-adv-x="664" 
d="M156 11.5q-77 20.5 -133 56.5l68 130q107 -66 231 -66q57 0 87 15t30 44q0 31 -33 48.5t-102 37.5q-74 22 -121 43t-81 62.5t-34 107.5q0 67 37.5 118t106.5 78.5t161 27.5q77 0 147 -21t112 -56l-66 -130q-43 31 -95.5 48.5t-102.5 17.5q-54 0 -85.5 -17.5t-31.5 -48.5
q0 -32 32.5 -49t103.5 -38q73 -22 119.5 -42.5t80.5 -60.5t34 -105q0 -106 -80 -163.5t-227 -57.5q-81 0 -158 20.5zM431 765h-108l111 157h168z" />
    <glyph glyph-name="sacute" unicode="&#x15b;" horiz-adv-x="490" 
d="M116 6.5q-57 14.5 -113 44.5l55 121q41 -26 91 -41.5t96 -15.5q31 0 45.5 8t14.5 20q0 16 -20 25t-65 22q-53 14 -89 29t-62.5 44.5t-26.5 77.5t28 85t79 57.5t117 20.5q57 0 112.5 -15.5t94.5 -43.5l-54 -116q-37 25 -77.5 38.5t-79.5 13.5q-32 0 -48 -7.5t-16 -20.5
q0 -16 20.5 -26t65.5 -22q54 -15 89.5 -30t62 -44.5t26.5 -77.5q0 -76 -59.5 -118.5t-161.5 -42.5q-68 0 -125 14.5zM333 556h-108l110 206h177z" />
    <glyph glyph-name="Scircumflex" unicode="&#x15c;" horiz-adv-x="664" 
d="M156 11.5q-77 20.5 -133 56.5l68 130q107 -66 231 -66q57 0 87 15t30 44q0 31 -33 48.5t-102 37.5q-74 22 -121 43t-81 62.5t-34 107.5q0 67 37.5 118t106.5 78.5t161 27.5q77 0 147 -21t112 -56l-66 -130q-43 31 -95.5 48.5t-102.5 17.5q-54 0 -85.5 -17.5t-31.5 -48.5
q0 -32 32.5 -49t103.5 -38q73 -22 119.5 -42.5t80.5 -60.5t34 -105q0 -106 -80 -163.5t-227 -57.5q-81 0 -158 20.5zM319 765h-128l149 157h98l125 -157h-129l-47 78z" />
    <glyph glyph-name="scircumflex" unicode="&#x15d;" horiz-adv-x="490" 
d="M116 6.5q-57 14.5 -113 44.5l55 121q41 -26 91 -41.5t96 -15.5q31 0 45.5 8t14.5 20q0 16 -20 25t-65 22q-53 14 -89 29t-62.5 44.5t-26.5 77.5t28 85t79 57.5t117 20.5q57 0 112.5 -15.5t94.5 -43.5l-54 -116q-37 25 -77.5 38.5t-79.5 13.5q-32 0 -48 -7.5t-16 -20.5
q0 -16 20.5 -26t65.5 -22q54 -15 89.5 -30t62 -44.5t26.5 -77.5q0 -76 -59.5 -118.5t-161.5 -42.5q-68 0 -125 14.5zM230 556h-137l151 206h102l119 -206h-130l-48 106z" />
    <glyph glyph-name="Scedilla" unicode="&#x15e;" horiz-adv-x="664" 
d="M283.5 458q32.5 -17 103.5 -38q73 -22 119.5 -42.5t80.5 -60.5t34 -105q0 -100 -72 -157.5t-206 -62.5l-7 -32h3q38 0 61.5 -18t23.5 -50q0 -39 -36.5 -64.5t-102.5 -25.5q-28 0 -56 4.5t-48 12.5l17 64q46 -14 82 -14q39 0 39 22q0 17 -29 17q-10 0 -33 -5l-18 22l15 69
q-66 7 -126 26t-105 48l68 130q107 -66 231 -66q57 0 87 15t30 44q0 31 -33 48.5t-102 37.5q-74 22 -121 43t-81 62.5t-34 107.5q0 67 37.5 118t106.5 78.5t161 27.5q77 0 147 -21t112 -56l-66 -130q-43 31 -95.5 48.5t-102.5 17.5q-54 0 -85.5 -17.5t-31.5 -48.5
q0 -32 32.5 -49z" />
    <glyph glyph-name="scedilla" unicode="&#x15f;" horiz-adv-x="490" 
d="M218.5 327q20.5 -10 65.5 -22q54 -15 89.5 -30t62 -44.5t26.5 -77.5q0 -73 -54 -114.5t-148 -46.5l-7 -32h3q38 0 61.5 -18t23.5 -50q0 -39 -36.5 -64.5t-102.5 -25.5q-28 0 -56 4.5t-48 12.5l17 64q46 -14 82 -14q39 0 39 22q0 17 -29 17q-11 0 -33 -5l-18 22l15 71
q-87 12 -168 55l55 121q41 -26 91 -41.5t96 -15.5q31 0 45.5 8t14.5 20q0 16 -20 25t-65 22q-53 14 -89 29t-62.5 44.5t-26.5 77.5t28 85t79 57.5t117 20.5q57 0 112.5 -15.5t94.5 -43.5l-54 -116q-37 25 -77.5 38.5t-79.5 13.5q-32 0 -48 -7.5t-16 -20.5q0 -16 20.5 -26z
" />
    <glyph glyph-name="Scaron" unicode="&#x160;" horiz-adv-x="664" 
d="M156 11.5q-77 20.5 -133 56.5l68 130q107 -66 231 -66q57 0 87 15t30 44q0 31 -33 48.5t-102 37.5q-74 22 -121 43t-81 62.5t-34 107.5q0 67 37.5 118t106.5 78.5t161 27.5q77 0 147 -21t112 -56l-66 -130q-43 31 -95.5 48.5t-102.5 17.5q-54 0 -85.5 -17.5t-31.5 -48.5
q0 -32 32.5 -49t103.5 -38q73 -22 119.5 -42.5t80.5 -60.5t34 -105q0 -106 -80 -163.5t-227 -57.5q-81 0 -158 20.5zM447 922h128l-149 -157h-98l-125 157h129l55 -78z" />
    <glyph glyph-name="scaron" unicode="&#x161;" horiz-adv-x="490" 
d="M116 6.5q-57 14.5 -113 44.5l55 121q41 -26 91 -41.5t96 -15.5q31 0 45.5 8t14.5 20q0 16 -20 25t-65 22q-53 14 -89 29t-62.5 44.5t-26.5 77.5t28 85t79 57.5t117 20.5q57 0 112.5 -15.5t94.5 -43.5l-54 -116q-37 25 -77.5 38.5t-79.5 13.5q-32 0 -48 -7.5t-16 -20.5
q0 -16 20.5 -26t65.5 -22q54 -15 89.5 -30t62 -44.5t26.5 -77.5q0 -76 -59.5 -118.5t-161.5 -42.5q-68 0 -125 14.5zM344 762h137l-151 -206h-102l-119 206h130l48 -105z" />
    <glyph glyph-name="uni0162" unicode="&#x162;" horiz-adv-x="632" 
d="M656 705l-12 -149h-211l-43 -556h-58l-9 -40h3q38 0 61.5 -18t23.5 -50q0 -39 -36.5 -64.5t-102.5 -25.5q-28 0 -56 4.5t-48 12.5l17 64q46 -14 82 -14q39 0 39 22q0 17 -29 17q-10 0 -33 -5l-18 22l16 75h-38l44 556h-212l12 149h608z" />
    <glyph glyph-name="uni0163" unicode="&#x163;" horiz-adv-x="405" 
d="M270 199l-1 -14q0 -65 71 -65q17 0 46 3l-19 -126q-31 -5 -60 -5q-15 0 -39 2l-8 -34h3q38 0 61.5 -18t23.5 -50q0 -39 -36.5 -64.5t-102.5 -25.5q-28 0 -56 4.5t-48 12.5l17 64q46 -14 82 -14q39 0 39 22q0 17 -29 17q-10 0 -33 -5l-18 22l19 89q-91 40 -91 157
q0 19 1 29l13 161h-92l10 131h92l11 143h178l-11 -143h118l-10 -131h-118z" />
    <glyph glyph-name="Tcaron" unicode="&#x164;" horiz-adv-x="632" 
d="M204 0l44 556h-212l12 149h608l-12 -149h-211l-43 -556h-186zM427 922h128l-149 -157h-98l-125 157h129l55 -78z" />
    <glyph glyph-name="tcaron" unicode="&#x165;" horiz-adv-x="405" 
d="M354 705h134l-52 -175h-100zM293 492h118l-10 -131h-118l-13 -162l-1 -14q0 -65 71 -65q17 0 46 3l-19 -126q-31 -5 -60 -5q-216 0 -216 179q0 19 1 29l13 161h-92l10 131h92l11 143h178z" />
    <glyph glyph-name="Tbar" unicode="&#x166;" horiz-adv-x="632" 
d="M644 556h-211l-10 -131h133l-11 -139h-133l-22 -286h-186l23 286h-133l11 139h133l10 131h-212l12 149h608z" />
    <glyph glyph-name="tbar" unicode="&#x167;" horiz-adv-x="415" 
d="M288 361l-2 -23h97l-9 -121h-98l-1 -18l-1 -14q0 -65 71 -65q18 0 46 3l-19 -126q-31 -5 -60 -5q-216 0 -216 179q0 19 1 29l1 17h-71l9 121h72l2 23h-92l10 131h92l11 143h178l-11 -143h118l-10 -131h-118z" />
    <glyph glyph-name="Utilde" unicode="&#x168;" horiz-adv-x="745" 
d="M62 267q0 14 2 42l32 396h180l-31 -403q-1 -11 -1 -31q0 -71 33 -105t102 -34q56 0 88 33.5t39 114.5l34 425h181l-33 -413q-11 -149 -91.5 -225t-226.5 -76q-308 0 -308 276zM274.5 886.5q35.5 37.5 87.5 37.5q18 0 34.5 -7t37.5 -21q21 -12 31.5 -17t22.5 -5
q39 0 44 47h73q-5 -82 -41 -120t-88 -38q-18 0 -33 7t-38 21q-19 12 -30.5 17.5t-23.5 5.5q-39 0 -44 -48h-72q4 83 39.5 120.5z" />
    <glyph glyph-name="utilde" unicode="&#x169;" 
d="M567 492l-39 -492h-173l5 56q-26 -30 -66 -47t-87 -17q-80 0 -122 45.5t-42 132.5q0 11 2 35l22 287h178l-22 -277l-1 -15q0 -35 16 -53.5t47 -18.5q37 0 58 25.5t24 68.5l22 270h178zM185 702q35 38 82 38q21 0 39.5 -7.5t41.5 -21.5q17 -10 29 -15.5t23 -5.5
q37 0 44 47h73q-6 -82 -40.5 -119.5t-81.5 -37.5q-21 0 -39 7.5t-41 21.5q-19 11 -30.5 16t-22.5 5q-36 0 -44 -47h-72q4 81 39 119z" />
    <glyph glyph-name="Umacron" unicode="&#x16a;" horiz-adv-x="745" 
d="M62 267q0 14 2 42l32 396h180l-31 -403q-1 -11 -1 -31q0 -71 33 -105t102 -34q56 0 88 33.5t39 114.5l34 425h181l-33 -413q-11 -149 -91.5 -225t-226.5 -76q-308 0 -308 276zM257 790l8 107h319l-9 -107h-318z" />
    <glyph glyph-name="umacron" unicode="&#x16b;" 
d="M567 492l-39 -492h-173l5 56q-26 -30 -66 -47t-87 -17q-80 0 -122 45.5t-42 132.5q0 11 2 35l22 287h178l-22 -277l-1 -15q0 -35 16 -53.5t47 -18.5q37 0 58 25.5t24 68.5l22 270h178zM168 604l8 106h319l-9 -106h-318z" />
    <glyph glyph-name="Ubreve" unicode="&#x16c;" horiz-adv-x="745" 
d="M62 267q0 14 2 42l32 396h180l-31 -403q-1 -11 -1 -31q0 -71 33 -105t102 -34q56 0 88 33.5t39 114.5l34 425h181l-33 -413q-11 -149 -91.5 -225t-226.5 -76q-308 0 -308 276zM305 803.5q-50 30.5 -67 79.5l81 32q14 -18 42.5 -29.5t64.5 -11.5q33 0 62 11t44 30l74 -32
q-18 -48 -67.5 -79t-115.5 -31q-68 0 -118 30.5z" />
    <glyph glyph-name="ubreve" unicode="&#x16d;" 
d="M567 492l-39 -492h-173l5 56q-26 -30 -66 -47t-87 -17q-80 0 -122 45.5t-42 132.5q0 11 2 35l22 287h178l-22 -277l-1 -15q0 -35 16 -53.5t47 -18.5q37 0 58 25.5t24 68.5l22 270h178zM211.5 615.5q-51.5 39.5 -68.5 112.5l79 32q20 -39 50.5 -57.5t66.5 -18.5
q67 0 116 76l75 -33q-19 -73 -74.5 -112t-124.5 -39q-68 0 -119.5 39.5z" />
    <glyph glyph-name="Uring" unicode="&#x16e;" horiz-adv-x="745" 
d="M62 267q0 14 2 42l32 396h180l-31 -403q-1 -11 -1 -31q0 -71 33 -105t102 -34q56 0 88 33.5t39 114.5l34 425h181l-33 -413q-11 -149 -91.5 -225t-226.5 -76q-308 0 -308 276zM341.5 792q-32.5 32 -32.5 79q0 46 32.5 78t79.5 32t80 -32t33 -78q0 -47 -33 -79t-80 -32
t-79.5 32zM451 839.5q12 12.5 12 31.5q0 18 -12 30.5t-30 12.5t-29.5 -12.5t-11.5 -30.5q0 -19 11.5 -31.5t29.5 -12.5t30 12.5z" />
    <glyph glyph-name="uring" unicode="&#x16f;" 
d="M567 492l-39 -492h-173l5 56q-26 -30 -66 -47t-87 -17q-80 0 -122 45.5t-42 132.5q0 11 2 35l22 287h178l-22 -277l-1 -15q0 -35 16 -53.5t47 -18.5q37 0 58 25.5t24 68.5l22 270h178zM251.5 581q-32.5 32 -32.5 79q0 46 32.5 78t79.5 32t80 -32t33 -78q0 -47 -33 -79
t-80 -32t-79.5 32zM361 629q12 13 12 31t-12 30.5t-30 12.5t-29.5 -12.5t-11.5 -30.5t11.5 -31t29.5 -13t30 13z" />
    <glyph glyph-name="Uhungarumlaut" unicode="&#x170;" horiz-adv-x="745" 
d="M62 267q0 14 2 42l32 396h180l-31 -403q-1 -11 -1 -31q0 -71 33 -105t102 -34q56 0 88 33.5t39 114.5l34 425h181l-33 -413q-11 -149 -91.5 -225t-226.5 -76q-308 0 -308 276zM383 765h-86l84 157h117zM529 765h-86l84 157h117z" />
    <glyph glyph-name="uhungarumlaut" unicode="&#x171;" 
d="M567 492l-39 -492h-173l5 56q-26 -30 -66 -47t-87 -17q-80 0 -122 45.5t-42 132.5q0 11 2 35l22 287h178l-22 -277l-1 -15q0 -35 16 -53.5t47 -18.5q37 0 58 25.5t24 68.5l22 270h178zM287 556h-73l43 206h126zM433 556h-74l43 206h127z" />
    <glyph glyph-name="Uogonek" unicode="&#x172;" horiz-adv-x="745" 
d="M721 705l-33 -413q-9 -120 -62.5 -193.5t-157.5 -99.5q-27 -6 -43 -22t-16 -40q0 -22 13.5 -34.5t37.5 -12.5q25 0 56 10l10 -79q-48 -19 -98 -19q-59 0 -95 30t-36 78q0 49 34 82q-269 15 -269 276q0 13 2 41l32 396h180l-31 -403q-1 -11 -1 -31q0 -71 33 -105t102 -34
q56 0 88 33.5t39 114.5l34 425h181z" />
    <glyph glyph-name="uogonek" unicode="&#x173;" 
d="M538 -100l11 -79q-50 -19 -99 -19q-59 0 -95 30t-36 78q0 54 42 90h-6l5 56q-26 -30 -66 -47t-87 -17q-80 0 -122 45.5t-42 132.5q0 11 2 35l22 287h178l-22 -277l-1 -15q0 -35 16 -53.5t47 -18.5q37 0 58 25.5t24 68.5l22 270h178l-39 -492h-18q-37 0 -58 -17.5
t-21 -45.5q0 -22 14 -34.5t37 -12.5q25 0 56 10z" />
    <glyph glyph-name="Wcircumflex" unicode="&#x174;" horiz-adv-x="1121" 
d="M969 705h175l-307 -705h-146l-117 423l-183 -423h-147l-196 705h186l111 -447l193 447h126l115 -455zM543 765h-128l149 157h98l125 -157h-129l-47 78z" />
    <glyph glyph-name="wcircumflex" unicode="&#x175;" horiz-adv-x="872" 
d="M727 492h176l-245 -492h-146l-80 241l-110 -241h-147l-167 492h176l88 -279l126 279h115l85 -284zM412 556h-137l151 206h102l119 -206h-130l-48 106z" />
    <glyph glyph-name="Ycircumflex" unicode="&#x176;" horiz-adv-x="650" 
d="M751 705l-328 -391l-25 -314h-184l25 315l-266 390h204l163 -244l200 244h211zM308 765h-128l149 157h98l125 -157h-129l-47 78z" />
    <glyph glyph-name="ycircumflex" unicode="&#x177;" horiz-adv-x="541" 
d="M405 491h177l-353 -671h-180l115 215l-163 456h180l90 -276zM247 556h-137l151 206h102l119 -206h-130l-48 106z" />
    <glyph glyph-name="Ydieresis" unicode="&#x178;" horiz-adv-x="650" 
d="M751 705l-328 -391l-25 -314h-184l25 315l-266 390h204l163 -244l200 244h211zM201 919h157l-12 -150h-157zM399 919h157l-12 -150h-157z" />
    <glyph glyph-name="Zacute" unicode="&#x179;" horiz-adv-x="617" 
d="M607 705l-10 -132l-344 -429h322l-11 -144h-531l10 135l342 426h-309l11 144h520zM406 765h-108l111 157h168z" />
    <glyph glyph-name="zacute" unicode="&#x17a;" horiz-adv-x="519" 
d="M499 492l-11 -117l-242 -244h233l-10 -131h-443l11 125l234 236h-216l10 131h434zM348 556h-108l110 206h177z" />
    <glyph glyph-name="Zdotaccent" unicode="&#x17b;" horiz-adv-x="617" 
d="M607 705l-10 -132l-344 -429h322l-11 -144h-531l10 135l342 426h-309l11 144h520zM272 924h186l-13 -160h-185z" />
    <glyph glyph-name="zdotaccent" unicode="&#x17c;" horiz-adv-x="519" 
d="M499 492l-11 -117l-242 -244h233l-10 -131h-443l11 125l234 236h-216l10 131h434zM215 738h186l-13 -161h-185z" />
    <glyph glyph-name="Zcaron" unicode="&#x17d;" horiz-adv-x="617" 
d="M607 705l-10 -132l-344 -429h322l-11 -144h-531l10 135l342 426h-309l11 144h520zM422 922h128l-149 -157h-98l-125 157h129l55 -78z" />
    <glyph glyph-name="zcaron" unicode="&#x17e;" horiz-adv-x="519" 
d="M499 492l-11 -117l-242 -244h233l-10 -131h-443l11 125l234 236h-216l10 131h434zM359 762h137l-151 -206h-102l-119 206h130l48 -105z" />
    <glyph glyph-name="uni018F" unicode="&#x18f;" horiz-adv-x="777" 
d="M577 672.5q78 -41.5 120.5 -118t42.5 -180.5q0 -115 -44 -202t-124 -134t-183 -47q-160 0 -247.5 86t-87.5 247q0 13 2 45l4 57h494q-13 69 -57.5 106t-114.5 37q-60 0 -103.5 -14t-100.5 -48l-47 130q49 35 118.5 56t144.5 21q105 0 183 -41.5zM491 173q42 41 58 114
h-318q0 -76 42 -115.5t113 -39.5q63 0 105 41z" />
    <glyph glyph-name="florin" unicode="&#x192;" 
d="M489 553.5q-21 -17.5 -30 -51.5l-1 -4h103l-8 -99h-124l-110 -381q-31 -109 -100.5 -156t-148.5 -47h-83l12 138h54q40 0 61 17.5t30 51.5l111 377h-103l7 99h125l2 8q29 109 98.5 156.5t149.5 47.5h82l-12 -139h-54q-40 0 -61 -17.5z" />
    <glyph glyph-name="Ohorn" unicode="&#x1a0;" horiz-adv-x="796" 
d="M753.5 678.5q-35.5 -42.5 -89.5 -52.5q47 -45 71.5 -109t24.5 -143q0 -114 -44.5 -201t-125.5 -135t-187 -48t-185 41.5t-121.5 118t-42.5 181.5q0 115 45 202t128 134.5t194 47.5q35 0 81 -6q36 -4 54 -4q46 0 64.5 21.5t21.5 76.5l3 22h152l-4 -43q-4 -61 -39.5 -103.5
zM529 196q47 64 47 178q0 95 -43 147t-120 52q-82 0 -129 -64.5t-47 -177.5q0 -96 42.5 -147.5t121.5 -51.5q81 0 128 64z" />
    <glyph glyph-name="ohorn" unicode="&#x1a1;" 
d="M633 616l-4 -43q-4 -56 -33.5 -98t-76.5 -56q26 -31 39.5 -72t13.5 -86q0 -84 -34 -144.5t-95.5 -92.5t-143.5 -32t-143 30t-94 85.5t-33 128.5q0 83 34 143.5t95.5 92.5t143.5 32q16 0 58 -4q36 -4 44 -4q29 0 50 20t26 78l1 22h152zM372.5 163q23.5 40 23.5 102
q0 55 -22.5 81.5t-68.5 26.5q-53 0 -76.5 -39.5t-23.5 -100.5q0 -56 22.5 -83t68.5 -27q53 0 76.5 40z" />
    <glyph glyph-name="Uhorn" unicode="&#x1af;" horiz-adv-x="745" 
d="M841 825l-3 -43q-5 -59 -37 -100t-86 -54l-27 -336q-12 -149 -92 -225t-226 -76q-308 0 -308 276q0 14 2 42l32 396h180l-31 -403q-1 -11 -1 -31q0 -71 33 -105t102 -34q56 0 88 33.5t39 114.5l34 425h53q49 0 69.5 21.5t24.5 76.5l2 22h152z" />
    <glyph glyph-name="uhorn" unicode="&#x1b0;" horiz-adv-x="628" 
d="M687 616l-4 -43q-4 -56 -37.5 -97.5t-84.5 -55.5l-33 -420h-173l5 56q-26 -30 -66 -47t-87 -17q-80 0 -122 45.5t-42 132.5q0 11 2 35l22 287h178l-22 -277l-1 -15q0 -35 16 -53.5t47 -18.5q37 0 58 25.5t24 68.5l22 270h50q48 0 70 23t24 79l1 22h153z" />
    <glyph glyph-name="uni01C4" unicode="&#x1c4;" horiz-adv-x="1375" 
d="M100 705h287q106 0 184.5 -40.5t121.5 -115t43 -175.5q0 -118 -47 -202t-135.5 -128t-212.5 -44h-296zM324 148q117 0 173 54.5t56 172.5q0 89 -49 135.5t-142 46.5h-90l-32 -409h84zM1365 705l-10 -132l-344 -429h322l-11 -144h-531l10 135l342 426h-309l11 144h520z
M1180 922h128l-149 -157h-98l-125 157h129l55 -78z" />
    <glyph glyph-name="uni01C5" unicode="&#x1c5;" horiz-adv-x="1292" 
d="M100 705h287q106 0 184.5 -40.5t121.5 -115t43 -175.5q0 -118 -47 -202t-135.5 -128t-212.5 -44h-296zM324 148q117 0 173 54.5t56 172.5q0 89 -49 135.5t-142 46.5h-90l-32 -409h84zM1272 492l-11 -117l-242 -244h233l-10 -131h-443l11 125l234 236h-216l10 131h434z
M1132 762h137l-151 -206h-102l-119 206h130l48 -105z" />
    <glyph glyph-name="uni01C6" unicode="&#x1c6;" horiz-adv-x="1144" 
d="M609 705l-56 -705h-176l4 54q-24 -30 -60.5 -46t-81.5 -16q-62 0 -109.5 28.5t-74 81.5t-26.5 126q0 80 30 143t83.5 98t123.5 35q93 0 143 -64l22 265h178zM372 159q26 36 26 94q0 59 -24 89.5t-69 30.5q-46 0 -73 -36t-27 -97q0 -56 25 -86.5t71 -30.5q45 0 71 36z
M1124 492l-11 -117l-242 -244h233l-10 -131h-443l11 125l234 236h-216l10 131h434zM984 762h137l-151 -206h-102l-119 206h130l48 -105z" />
    <glyph glyph-name="uni01C7" unicode="&#x1c7;" horiz-adv-x="974" 
d="M45 0l56 705h184l-45 -556h270l-11 -149h-454zM561 136l75 4q45 2 64.5 20.5t22.5 61.5l37 483h186l-38 -480q-8 -111 -69.5 -167t-182.5 -64l-85 -5z" />
    <glyph glyph-name="uni01C8" unicode="&#x1c8;" horiz-adv-x="853" 
d="M45 0l56 705h184l-45 -556h300l-11 -149h-484zM785 29q-6 -76 -29 -119.5t-75.5 -66t-147.5 -27.5l-53 -3l-4 126l60 4q35 2 50.5 15.5t18.5 44.5l39 489h178zM657 738h186l-13 -161h-185z" />
    <glyph glyph-name="uni01C9" unicode="&#x1c9;" horiz-adv-x="562" 
d="M33 0l56 705h178l-56 -705h-178zM494 29q-6 -76 -29 -119.5t-75.5 -66t-147.5 -27.5l-53 -3l-4 126l60 4q35 2 50.5 15.5t18.5 44.5l39 489h178zM366 738h186l-13 -161h-185z" />
    <glyph glyph-name="uni01CA" unicode="&#x1ca;" horiz-adv-x="1154" 
d="M557 705h172l-56 -705h-137l-287 396l-33 -396h-171l56 705h134l290 -398zM742 136l74 4q46 2 65 20t23 62l37 483h185l-37 -480q-8 -111 -69.5 -167t-182.5 -64l-86 -5z" />
    <glyph glyph-name="uni01CB" unicode="&#x1cb;" horiz-adv-x="1038" 
d="M557 705h172l-56 -705h-137l-287 396l-33 -396h-171l56 705h134l290 -398zM970 29q-6 -76 -29 -119.5t-75.5 -66t-147.5 -27.5l-53 -3l-4 126l60 4q35 2 50.5 15.5t18.5 44.5l39 489h178zM842 738h186l-13 -161h-185z" />
    <glyph glyph-name="uni01CC" unicode="&#x1cc;" horiz-adv-x="886" 
d="M520 457.5q42 -46.5 42 -136.5q0 -22 -1 -34l-23 -287h-178l23 281q3 42 -13.5 64.5t-51.5 22.5q-39 0 -60.5 -25.5t-24.5 -68.5l-22 -274h-178l39 492h173l-4 -52q26 30 66 47t89 17q82 0 124 -46.5zM818 29q-6 -76 -29 -119.5t-75.5 -66t-147.5 -27.5l-53 -3l-4 126
l60 4q35 2 50.5 15.5t18.5 44.5l39 489h178zM690 738h186l-13 -161h-185z" />
    <glyph glyph-name="uni01CE" unicode="&#x1ce;" horiz-adv-x="552" 
d="M455.5 456.5q52.5 -47.5 52.5 -146.5q0 -12 -2 -36l-21 -274h-167l5 62q-18 -33 -51 -51.5t-76 -18.5q-49 0 -88 19.5t-61.5 52.5t-22.5 74q0 57 28 91.5t89 50.5t162 16h36l1 7q2 37 -16.5 54t-62.5 17q-35 0 -78 -13.5t-80 -34.5l-36 117q41 27 105 44t125 17
q106 0 158.5 -47.5zM305.5 137q23.5 26 26.5 66l1 11h-27q-59 0 -85 -13t-26 -43q0 -21 14.5 -34t38.5 -13q34 0 57.5 26zM371 762h137l-151 -206h-102l-119 206h130l48 -105z" />
    <glyph glyph-name="Gcaron" unicode="&#x1e6;" horiz-adv-x="744" 
d="M700 398l-27 -351q-52 -27 -122.5 -41.5t-151.5 -14.5q-106 0 -183.5 41.5t-119.5 119t-42 181.5q0 115 47 201t133.5 133t202.5 47q162 0 259 -77l-67 -130q-46 34 -89 49t-101 13q-96 -2 -147.5 -64.5t-51.5 -172.5q0 -98 46 -149.5t140 -51.5q42 0 90 12l10 129h-125
l11 126h288zM524 922h128l-149 -157h-98l-125 157h129l55 -78z" />
    <glyph glyph-name="gcaron" unicode="&#x1e7;" horiz-adv-x="629" 
d="M596 492l-33 -425q-11 -133 -85.5 -194t-210.5 -61q-71 0 -134 15.5t-112 43.5l55 121q102 -50 197 -50q52 0 80.5 24.5t32.5 80.5l2 24q-52 -57 -147 -57q-62 0 -110 28t-74.5 79t-26.5 119q0 74 30 134.5t84.5 95t124.5 34.5q95 0 148 -66l4 54h175zM376.5 179
q27.5 32 27.5 85q0 55 -25 82t-72 27t-74 -33t-27 -91q0 -48 26 -75t71 -27q46 0 73.5 32zM405 762h137l-151 -206h-102l-119 206h130l48 -105z" />
    <glyph glyph-name="uni01EA" unicode="&#x1ea;" horiz-adv-x="796" 
d="M449.5 -22.5q-17.5 -16.5 -17.5 -40.5q0 -22 13.5 -34.5t37.5 -12.5q25 0 56 10l11 -79q-50 -19 -99 -19q-59 0 -95 30t-36 77q0 51 35 83q-92 7 -159.5 50.5t-104.5 117.5t-37 171q0 114 44 201.5t125 135t188 47.5q108 0 186.5 -41t120.5 -118t42 -182
q0 -100 -33 -178.5t-92 -128t-135 -66.5q-33 -7 -50.5 -23.5zM529 196q47 64 47 178q0 95 -43 147t-120 52q-82 0 -129 -64.5t-47 -177.5q0 -96 42.5 -147.5t121.5 -51.5q81 0 128 64z" />
    <glyph glyph-name="uni01EB" unicode="&#x1eb;" 
d="M335 -22q-17 -16 -17 -41q0 -22 14 -34.5t38 -12.5q25 0 56 10l10 -79q-50 -19 -98 -19q-60 0 -95.5 30t-35.5 78q0 52 41 85q-102 13 -160.5 77.5t-58.5 163.5q0 83 34 143.5t95.5 92.5t143.5 32t143 -30t94 -85t33 -128q0 -208 -190 -259q-30 -8 -47 -24zM372.5 163
q23.5 40 23.5 102q0 55 -22.5 81.5t-68.5 26.5q-53 0 -76.5 -39.5t-23.5 -100.5q0 -56 22.5 -83t68.5 -27q53 0 76.5 40z" />
    <glyph glyph-name="Aringacute" unicode="&#x1fa;" horiz-adv-x="761" 
d="M534 146h-313l-74 -146h-188l383 703q-31 33 -31 77q0 46 33 78t80 32q25 0 48 -10l62 68h167l-172 -130q7 -17 7 -38q0 -27 -11 -49.5t-31 -37.5l270 -693h-178zM394 810.5q-12 -12.5 -12 -30.5q0 -19 11.5 -31.5t30.5 -12.5q18 0 29.5 12.5t11.5 31.5q0 18 -11.5 30.5
t-29.5 12.5t-30 -12.5zM291 284h195l-81 226z" />
    <glyph glyph-name="aringacute" unicode="&#x1fb;" horiz-adv-x="552" 
d="M229.5 577.5q-29.5 28.5 -29.5 71.5q0 33 17 60.5t45 44t61 16.5q16 0 34 -5l55 90l214 33l-202 -193q2 -16 2 -25q0 -33 -17 -61t-45.5 -44t-60.5 -16q-44 0 -73.5 28.5zM280.5 628.5q10.5 -12.5 28.5 -12.5t31.5 12.5t14.5 31.5q2 18 -8.5 30.5t-29.5 12.5
q-18 0 -30.5 -12.5t-14.5 -30.5q-2 -19 8.5 -31.5zM455.5 456.5q52.5 -47.5 52.5 -146.5q0 -12 -2 -36l-21 -274h-167l5 62q-18 -33 -51 -51.5t-76 -18.5q-49 0 -88 19t-61.5 52.5t-22.5 74.5q0 57 28 91.5t89 50.5t162 16h36l1 7q2 37 -16.5 54t-62.5 17q-35 0 -78 -13.5
t-80 -34.5l-36 117q41 27 105 44t125 17q106 0 158.5 -47.5zM305.5 137q23.5 26 26.5 66l1 11h-27q-59 0 -85 -13.5t-26 -46.5q0 -19 14.5 -31t38.5 -12q34 0 57.5 26z" />
    <glyph glyph-name="AEacute" unicode="&#x1fc;" horiz-adv-x="1004" 
d="M996 564h-370l20 -135h320l-11 -141h-289l22 -147h276l-11 -141h-410l-21 146h-282l-98 -146h-203l505 705h564zM332 284h170l-31 209zM602 765h-108l111 157h168z" />
    <glyph glyph-name="aeacute" unicode="&#x1fd;" horiz-adv-x="831" 
d="M701.5 476.5q47.5 -27.5 74.5 -81.5t27 -131q0 -25 -3 -52h-298q12 -90 107 -90q67 0 134 46l36 -117q-33 -28 -82.5 -43.5t-102.5 -15.5q-67 0 -117 24t-81 68q-30 -44 -78 -68t-106 -24q-56 0 -99 19t-66 52t-23 75q0 57 28 91.5t89 50.5t162 16h33l1 7q2 37 -16.5 54
t-62.5 17q-33 0 -76 -13.5t-79 -34.5l-36 117q41 27 104.5 44t124.5 17q100 0 148 -54q62 54 149 54q61 0 108.5 -27.5zM533.5 363.5q-21.5 -20.5 -29.5 -67.5h153q-1 45 -19.5 66.5t-47.5 21.5q-35 0 -56.5 -20.5zM303 136q23 25 26 65l1 13h-24q-59 0 -85 -13.5t-26 -46.5
q0 -19 14.5 -31t38.5 -12q32 0 55 25zM495 556h-108l110 206h177z" />
    <glyph glyph-name="Oslashacute" unicode="&#x1fe;" horiz-adv-x="796" 
d="M735 516q25 -64 25 -142q0 -114 -44.5 -201t-125.5 -135t-187 -48q-78 0 -142 23l-58 -88l-111 68l58 87q-47 45 -71.5 108.5t-24.5 142.5q0 114 44 201.5t125 135t188 47.5q79 0 143 -23l58 88l109 -68l-57 -87q46 -45 71 -109zM252 234l218 330q-27 9 -57 9
q-82 0 -129 -64.5t-47 -177.5q0 -55 15 -97zM529 196q47 64 47 178q0 56 -15 96l-216 -330q27 -8 56 -8q81 0 128 64zM493 765h-108l111 157h168z" />
    <glyph glyph-name="oslashacute" unicode="&#x1ff;" 
d="M550 367.5q22 -47.5 22 -106.5q0 -84 -34 -144.5t-95.5 -92.5t-143.5 -32q-57 0 -105 15l-50 -76l-76 47l47 70q-42 33 -64 81t-22 107q0 83 34 143.5t95.5 92.5t143.5 32q58 0 105 -15l51 76l75 -47l-46 -70q41 -33 63 -80.5zM207 187l123 185q-16 2 -25 2
q-55 0 -79 -39.5t-24 -101.5q0 -24 5 -46zM376.5 162q24.5 40 24.5 103q0 24 -5 46l-124 -187q14 -2 24 -2q56 0 80.5 40zM379 556h-108l110 206h177z" />
    <glyph glyph-name="uni0200" unicode="&#x200;" horiz-adv-x="761" 
d="M586 0l-52 146h-313l-74 -146h-188l384 705h146l275 -705h-178zM291 284h195l-81 226zM305 765l-86 157h108l64 -157h-86zM451 765l-86 157h108l64 -157h-86z" />
    <glyph glyph-name="uni0201" unicode="&#x201;" horiz-adv-x="552" 
d="M455.5 456.5q52.5 -47.5 52.5 -146.5q0 -12 -2 -36l-21 -274h-167l5 62q-18 -33 -51 -51.5t-76 -18.5q-49 0 -88 19.5t-61.5 52.5t-22.5 74q0 57 28 91.5t89 50.5t162 16h36l1 7q2 37 -16.5 54t-62.5 17q-35 0 -78 -13.5t-80 -34.5l-36 117q41 27 105 44t125 17
q106 0 158.5 -47.5zM305.5 137q23.5 26 26.5 66l1 11h-27q-59 0 -85 -13t-26 -43q0 -21 14.5 -34t38.5 -13q34 0 57.5 26zM197 556l-60 206h118l15 -206h-73zM342 556l-59 206h117l16 -206h-74z" />
    <glyph glyph-name="uni0202" unicode="&#x202;" horiz-adv-x="761" 
d="M586 0l-52 146h-313l-74 -146h-188l384 705h146l275 -705h-178zM291 284h195l-81 226zM541 885q50 -30 67 -80l-81 -32q-14 18 -42.5 29.5t-64.5 11.5q-33 0 -62 -11t-44 -30l-74 32q18 48 67.5 79t115.5 31q68 0 118 -30z" />
    <glyph glyph-name="uni0203" unicode="&#x203;" horiz-adv-x="552" 
d="M455.5 456.5q52.5 -47.5 52.5 -146.5q0 -12 -2 -36l-21 -274h-167l5 62q-18 -33 -51 -51.5t-76 -18.5q-49 0 -88 19.5t-61.5 52.5t-22.5 74q0 57 28 91.5t89 50.5t162 16h36l1 7q2 37 -16.5 54t-62.5 17q-35 0 -78 -13.5t-80 -34.5l-36 117q41 27 105 44t125 17
q106 0 158.5 -47.5zM305.5 137q23.5 26 26.5 66l1 11h-27q-59 0 -85 -13t-26 -43q0 -21 14.5 -34t38.5 -13q34 0 57.5 26zM433.5 715.5q51.5 -39.5 68.5 -112.5l-79 -32q-19 39 -50 57.5t-67 18.5q-67 0 -116 -76l-74 33q19 73 74 112t124 39q68 0 119.5 -39.5z" />
    <glyph glyph-name="uni0204" unicode="&#x204;" horiz-adv-x="597" 
d="M591 563h-322l-11 -134h302l-11 -141h-302l-12 -146h323l-12 -142h-501l56 705h502zM258 765l-86 157h108l64 -157h-86zM404 765l-86 157h108l64 -157h-86z" />
    <glyph glyph-name="uni0205" unicode="&#x205;" horiz-adv-x="535" 
d="M445.5 442q60.5 -62 60.5 -177q0 -26 -3 -53h-303q12 -90 109 -90q71 0 138 46l36 -117q-33 -28 -82.5 -43.5t-104.5 -15.5q-79 0 -139.5 30t-94 84.5t-33.5 127.5q0 78 33.5 139.5t91 96t128.5 34.5q103 0 163.5 -62zM231.5 363.5q-21.5 -20.5 -29.5 -67.5h159
q-3 88 -73 88q-35 0 -56.5 -20.5zM192 556l-60 206h118l15 -206h-73zM337 556l-59 206h117l16 -206h-74z" />
    <glyph glyph-name="uni0206" unicode="&#x206;" horiz-adv-x="597" 
d="M591 563h-322l-11 -134h302l-11 -141h-302l-12 -146h323l-12 -142h-501l56 705h502zM494 885q50 -30 67 -80l-81 -32q-14 18 -42.5 29.5t-64.5 11.5q-33 0 -62 -11t-44 -30l-74 32q18 48 67.5 79t115.5 31q68 0 118 -30z" />
    <glyph glyph-name="uni0207" unicode="&#x207;" horiz-adv-x="535" 
d="M445.5 442q60.5 -62 60.5 -177q0 -26 -3 -53h-303q12 -90 109 -90q71 0 138 46l36 -117q-33 -28 -82.5 -43.5t-104.5 -15.5q-79 0 -139.5 30t-94 84.5t-33.5 127.5q0 78 33.5 139.5t91 96t128.5 34.5q103 0 163.5 -62zM231.5 363.5q-21.5 -20.5 -29.5 -67.5h159
q-3 88 -73 88q-35 0 -56.5 -20.5zM428.5 715.5q51.5 -39.5 68.5 -112.5l-79 -32q-19 39 -50 57.5t-67 18.5q-67 0 -116 -76l-74 33q19 73 74 112t124 39q68 0 119.5 -39.5z" />
    <glyph glyph-name="uni0208" unicode="&#x208;" horiz-adv-x="312" 
d="M45 0l55 705h184l-55 -705h-184zM81 765l-86 157h108l64 -157h-86zM227 765l-86 157h108l64 -157h-86z" />
    <glyph glyph-name="uni0209" unicode="&#x209;" horiz-adv-x="281" 
d="M33 0l39 492h178l-39 -492h-178zM57 556l-60 206h118l15 -206h-73zM202 556l-59 206h117l16 -206h-74z" />
    <glyph glyph-name="uni020A" unicode="&#x20a;" horiz-adv-x="312" 
d="M45 0l55 705h184l-55 -705h-184zM317 885q50 -30 67 -80l-81 -32q-14 18 -42.5 29.5t-64.5 11.5q-33 0 -62 -11t-44 -30l-74 32q18 48 67.5 79t115.5 31q68 0 118 -30z" />
    <glyph glyph-name="uni020B" unicode="&#x20b;" horiz-adv-x="281" 
d="M33 0l39 492h178l-39 -492h-178zM293.5 715.5q51.5 -39.5 68.5 -112.5l-79 -32q-19 39 -50 57.5t-67 18.5q-67 0 -116 -76l-74 33q19 73 74 112t124 39q68 0 119.5 -39.5z" />
    <glyph glyph-name="uni020C" unicode="&#x20c;" horiz-adv-x="796" 
d="M218 31.5q-79 41.5 -121.5 118t-42.5 181.5q0 114 44 201.5t125 135t188 47.5q106 0 185 -41.5t121.5 -118.5t42.5 -181q0 -114 -44.5 -201t-125.5 -135t-187 -48t-185 41.5zM529 196q47 64 47 178q0 95 -43 147t-120 52q-82 0 -129 -64.5t-47 -177.5q0 -96 42.5 -147.5
t121.5 -51.5q81 0 128 64zM323 765l-86 157h108l64 -157h-86zM469 765l-86 157h108l64 -157h-86z" />
    <glyph glyph-name="uni020D" unicode="&#x20d;" 
d="M156 22q-61 30 -94 85.5t-33 128.5q0 83 34 143.5t95.5 92.5t143.5 32t143 -30t94 -85t33 -128q0 -84 -34 -144.5t-95.5 -92.5t-143.5 -32t-143 30zM372.5 163q23.5 40 23.5 102q0 55 -22.5 81.5t-68.5 26.5q-53 0 -76.5 -39.5t-23.5 -100.5q0 -56 22.5 -83t68.5 -27
q53 0 76.5 40zM216 556l-60 206h118l15 -206h-73zM361 556l-59 206h117l16 -206h-74z" />
    <glyph glyph-name="uni020E" unicode="&#x20e;" horiz-adv-x="796" 
d="M218 31.5q-79 41.5 -121.5 118t-42.5 181.5q0 114 44 201.5t125 135t188 47.5q106 0 185 -41.5t121.5 -118.5t42.5 -181q0 -114 -44.5 -201t-125.5 -135t-187 -48t-185 41.5zM529 196q47 64 47 178q0 95 -43 147t-120 52q-82 0 -129 -64.5t-47 -177.5q0 -96 42.5 -147.5
t121.5 -51.5q81 0 128 64zM559 885q50 -30 67 -80l-81 -32q-14 18 -42.5 29.5t-64.5 11.5q-33 0 -62 -11t-44 -30l-74 32q18 48 67.5 79t115.5 31q68 0 118 -30z" />
    <glyph glyph-name="uni020F" unicode="&#x20f;" 
d="M156 22q-61 30 -94 85.5t-33 128.5q0 83 34 143.5t95.5 92.5t143.5 32t143 -30t94 -85t33 -128q0 -84 -34 -144.5t-95.5 -92.5t-143.5 -32t-143 30zM372.5 163q23.5 40 23.5 102q0 55 -22.5 81.5t-68.5 26.5q-53 0 -76.5 -39.5t-23.5 -100.5q0 -56 22.5 -83t68.5 -27
q53 0 76.5 40zM452.5 715.5q51.5 -39.5 68.5 -112.5l-79 -32q-19 39 -50 57.5t-67 18.5q-67 0 -116 -76l-74 33q19 73 74 112t124 39q68 0 119.5 -39.5z" />
    <glyph glyph-name="uni0210" unicode="&#x210;" horiz-adv-x="707" 
d="M680 0h-199l-111 225q-19 39 -69 39h-55l-20 -264h-181l55 705h343q111 0 173 -56.5t62 -150.5q0 -95 -44.5 -150t-138.5 -71q29 -8 48.5 -27t35.5 -50zM406 402q49 0 74.5 22t25.5 63q0 40 -21.5 59.5t-66.5 19.5h-149l-12 -164h149zM282 765l-86 157h108l64 -157h-86z
M428 765l-86 157h108l64 -157h-86z" />
    <glyph glyph-name="uni0211" unicode="&#x211;" horiz-adv-x="419" 
d="M443 506l-2 -147l-108 -11q-56 -6 -77 -28t-26 -73l-19 -247h-178l39 491h170l-6 -63q56 68 168 76zM157 556l-60 206h118l15 -206h-73zM302 556l-59 206h117l16 -206h-74z" />
    <glyph glyph-name="uni0212" unicode="&#x212;" horiz-adv-x="707" 
d="M680 0h-199l-111 225q-19 39 -69 39h-55l-20 -264h-181l55 705h343q111 0 173 -56.5t62 -150.5q0 -95 -44.5 -150t-138.5 -71q29 -8 48.5 -27t35.5 -50zM406 402q49 0 74.5 22t25.5 63q0 40 -21.5 59.5t-66.5 19.5h-149l-12 -164h149zM518 885q50 -30 67 -80l-81 -32
q-14 18 -42.5 29.5t-64.5 11.5q-33 0 -62 -11t-44 -30l-74 32q18 48 67.5 79t115.5 31q68 0 118 -30z" />
    <glyph glyph-name="uni0213" unicode="&#x213;" horiz-adv-x="419" 
d="M443 506l-2 -147l-108 -11q-56 -6 -77 -28t-26 -73l-19 -247h-178l39 491h170l-6 -63q56 68 168 76zM393.5 715.5q51.5 -39.5 68.5 -112.5l-79 -32q-19 39 -50 57.5t-67 18.5q-67 0 -116 -76l-74 33q19 73 74 112t124 39q68 0 119.5 -39.5z" />
    <glyph glyph-name="uni0214" unicode="&#x214;" horiz-adv-x="745" 
d="M62 267q0 14 2 42l32 396h180l-31 -403q-1 -11 -1 -31q0 -71 33 -105t102 -34q56 0 88 33.5t39 114.5l34 425h181l-33 -413q-11 -149 -91.5 -225t-226.5 -76q-308 0 -308 276zM297 765l-86 157h108l64 -157h-86zM443 765l-86 157h108l64 -157h-86z" />
    <glyph glyph-name="uni0215" unicode="&#x215;" 
d="M567 492l-39 -492h-173l5 56q-26 -30 -66 -47t-87 -17q-80 0 -122 45.5t-42 132.5q0 11 2 35l22 287h178l-22 -277l-1 -15q0 -35 16 -53.5t47 -18.5q37 0 58 25.5t24 68.5l22 270h178zM214 556l-60 206h118l15 -206h-73zM359 556l-59 206h117l16 -206h-74z" />
    <glyph glyph-name="uni0216" unicode="&#x216;" horiz-adv-x="745" 
d="M62 267q0 14 2 42l32 396h180l-31 -403q-1 -11 -1 -31q0 -71 33 -105t102 -34q56 0 88 33.5t39 114.5l34 425h181l-33 -413q-11 -149 -91.5 -225t-226.5 -76q-308 0 -308 276zM533 885q50 -30 67 -80l-81 -32q-14 18 -42.5 29.5t-64.5 11.5q-33 0 -62 -11t-44 -30l-74 32
q18 48 67.5 79t115.5 31q68 0 118 -30z" />
    <glyph glyph-name="uni0217" unicode="&#x217;" 
d="M567 492l-39 -492h-173l5 56q-26 -30 -66 -47t-87 -17q-80 0 -122 45.5t-42 132.5q0 11 2 35l22 287h178l-22 -277l-1 -15q0 -35 16 -53.5t47 -18.5q37 0 58 25.5t24 68.5l22 270h178zM450.5 715.5q51.5 -39.5 68.5 -112.5l-79 -32q-19 39 -50 57.5t-67 18.5
q-67 0 -116 -76l-74 33q19 73 74 112t124 39q68 0 119.5 -39.5z" />
    <glyph glyph-name="Scommaaccent" unicode="&#x218;" horiz-adv-x="664" 
d="M156 11.5q-77 20.5 -133 56.5l68 130q107 -66 231 -66q57 0 87 15t30 44q0 31 -33 48.5t-102 37.5q-74 22 -121 43t-81 62.5t-34 107.5q0 67 37.5 118t106.5 78.5t161 27.5q77 0 147 -21t112 -56l-66 -130q-43 31 -95.5 48.5t-102.5 17.5q-54 0 -85.5 -17.5t-31.5 -48.5
q0 -32 32.5 -49t103.5 -38q73 -22 119.5 -42.5t80.5 -60.5t34 -105q0 -106 -80 -163.5t-227 -57.5q-81 0 -158 20.5zM389 -63l-5 -67q-4 -49 -21 -85t-55 -66l-58 41q29 25 38 51h-78l10 126h169z" />
    <glyph glyph-name="scommaaccent" unicode="&#x219;" horiz-adv-x="490" 
d="M116 6.5q-57 14.5 -113 44.5l55 121q41 -26 91 -41.5t96 -15.5q31 0 45.5 8t14.5 20q0 16 -20 25t-65 22q-53 14 -89 29t-62.5 44.5t-26.5 77.5t28 85t79 57.5t117 20.5q57 0 112.5 -15.5t94.5 -43.5l-54 -116q-37 25 -77.5 38.5t-79.5 13.5q-32 0 -48 -7.5t-16 -20.5
q0 -16 20.5 -26t65.5 -22q54 -15 89.5 -30t62 -44.5t26.5 -77.5q0 -76 -59.5 -118.5t-161.5 -42.5q-68 0 -125 14.5zM306 -63l-5 -67q-4 -49 -21 -85t-55 -66l-58 41q29 25 38 51h-78l10 126h169z" />
    <glyph glyph-name="uni021A" unicode="&#x21a;" horiz-adv-x="632" 
d="M204 0l44 556h-212l12 149h608l-12 -149h-211l-43 -556h-186zM376 -63l-5 -67q-4 -49 -21 -85t-55 -66l-58 41q29 25 38 51h-78l10 126h169z" />
    <glyph glyph-name="uni021B" unicode="&#x21b;" horiz-adv-x="405" 
d="M270 199l-1 -14q0 -65 71 -65q17 0 46 3l-19 -126q-31 -5 -60 -5q-216 0 -216 179q0 19 1 29l13 161h-92l10 131h92l11 143h178l-11 -143h118l-10 -131h-118zM313 -63l-5 -67q-4 -49 -21 -85t-55 -66l-58 41q29 25 38 51h-78l10 126h169z" />
    <glyph glyph-name="uni0227" unicode="&#x227;" horiz-adv-x="552" 
d="M455.5 456.5q52.5 -47.5 52.5 -146.5q0 -12 -2 -36l-21 -274h-167l5 62q-18 -33 -51 -51.5t-76 -18.5q-49 0 -88 19.5t-61.5 52.5t-22.5 74q0 57 28 91.5t89 50.5t162 16h36l1 7q2 37 -16.5 54t-62.5 17q-35 0 -78 -13.5t-80 -34.5l-36 117q41 27 105 44t125 17
q106 0 158.5 -47.5zM305.5 137q23.5 26 26.5 66l1 11h-27q-59 0 -85 -13t-26 -43q0 -21 14.5 -34t38.5 -13q34 0 57.5 26zM227 738h186l-13 -161h-185z" />
    <glyph glyph-name="uni0228" unicode="&#x228;" horiz-adv-x="597" 
d="M269 563l-11 -134h302l-11 -141h-302l-12 -146h323l-12 -142h-197l-9 -40h3q38 0 61.5 -18t23.5 -50q0 -39 -36.5 -64.5t-102.5 -25.5q-28 0 -56 4.5t-48 12.5l17 64q46 -14 82 -14q39 0 39 22q0 17 -29 17q-10 0 -33 -5l-18 22l16 75h-214l56 705h502l-12 -142h-322z
" />
    <glyph glyph-name="uni022A" unicode="&#x22a;" horiz-adv-x="796" 
d="M218 31.5q-79 41.5 -121.5 118t-42.5 181.5q0 114 44 201.5t125 135t188 47.5q106 0 185 -41.5t121.5 -118.5t42.5 -181q0 -114 -44.5 -201t-125.5 -135t-187 -48t-185 41.5zM529 196q47 64 47 178q0 95 -43 147t-120 52q-82 0 -129 -64.5t-47 -177.5q0 -96 42.5 -147.5
t121.5 -51.5q81 0 128 64zM274 919h157l-12 -150h-157zM472 919h157l-12 -150h-157zM296 950l8 107h319l-9 -107h-318z" />
    <glyph glyph-name="uni022B" unicode="&#x22b;" 
d="M156 22q-61 30 -94 85.5t-33 128.5q0 83 34 143.5t95.5 92.5t143.5 32t143 -30t94 -85t33 -128q0 -84 -34 -144.5t-95.5 -92.5t-143.5 -32t-143 30zM372.5 163q23.5 40 23.5 102q0 55 -22.5 81.5t-68.5 26.5q-53 0 -76.5 -39.5t-23.5 -100.5q0 -56 22.5 -83t68.5 -27
q53 0 76.5 40zM161 732h157l-12 -149h-157zM359 732h157l-12 -149h-157zM185 793l8 106h319l-9 -106h-318z" />
    <glyph glyph-name="uni022C" unicode="&#x22c;" horiz-adv-x="796" 
d="M218 31.5q-79 41.5 -121.5 118t-42.5 181.5q0 114 44 201.5t125 135t188 47.5q106 0 185 -41.5t121.5 -118.5t42.5 -181q0 -114 -44.5 -201t-125.5 -135t-187 -48t-185 41.5zM529 196q47 64 47 178q0 95 -43 147t-120 52q-82 0 -129 -64.5t-47 -177.5q0 -96 42.5 -147.5
t121.5 -51.5q81 0 128 64zM300.5 886.5q35.5 37.5 87.5 37.5q18 0 34.5 -7t37.5 -21q21 -12 31.5 -17t22.5 -5q39 0 44 47h73q-5 -82 -41 -120t-88 -38q-18 0 -33 7t-38 21q-19 12 -30.5 17.5t-23.5 5.5q-39 0 -44 -48h-72q4 83 39.5 120.5zM296 950l8 107h319l-9 -107h-318
z" />
    <glyph glyph-name="uni022D" unicode="&#x22d;" 
d="M156 22q-61 30 -94 85.5t-33 128.5q0 83 34 143.5t95.5 92.5t143.5 32t143 -30t94 -85t33 -128q0 -84 -34 -144.5t-95.5 -92.5t-143.5 -32t-143 30zM372.5 163q23.5 40 23.5 102q0 55 -22.5 81.5t-68.5 26.5q-53 0 -76.5 -39.5t-23.5 -100.5q0 -56 22.5 -83t68.5 -27
q53 0 76.5 40zM187 702q35 38 82 38q21 0 39.5 -7.5t41.5 -21.5q17 -10 29 -15.5t23 -5.5q37 0 44 47h73q-6 -82 -40.5 -119.5t-81.5 -37.5q-21 0 -39 7.5t-41 21.5q-19 11 -30.5 16t-22.5 5q-36 0 -44 -47h-72q4 81 39 119zM185 793l8 106h319l-9 -106h-318z" />
    <glyph glyph-name="uni0230" unicode="&#x230;" horiz-adv-x="796" 
d="M218 31.5q-79 41.5 -121.5 118t-42.5 181.5q0 114 44 201.5t125 135t188 47.5q106 0 185 -41.5t121.5 -118.5t42.5 -181q0 -114 -44.5 -201t-125.5 -135t-187 -48t-185 41.5zM529 196q47 64 47 178q0 95 -43 147t-120 52q-82 0 -129 -64.5t-47 -177.5q0 -96 42.5 -147.5
t121.5 -51.5q81 0 128 64zM359 924h186l-13 -160h-185zM296 950l8 107h319l-9 -107h-318z" />
    <glyph glyph-name="uni0231" unicode="&#x231;" 
d="M156 22q-61 30 -94 85.5t-33 128.5q0 83 34 143.5t95.5 92.5t143.5 32t143 -30t94 -85t33 -128q0 -84 -34 -144.5t-95.5 -92.5t-143.5 -32t-143 30zM372.5 163q23.5 40 23.5 102q0 55 -22.5 81.5t-68.5 26.5q-53 0 -76.5 -39.5t-23.5 -100.5q0 -56 22.5 -83t68.5 -27
q53 0 76.5 40zM246 738h186l-13 -161h-185zM185 793l8 106h319l-9 -106h-318z" />
    <glyph glyph-name="uni0232" unicode="&#x232;" horiz-adv-x="650" 
d="M751 705l-328 -391l-25 -314h-184l25 315l-266 390h204l163 -244l200 244h211zM210 790l8 107h319l-9 -107h-318z" />
    <glyph glyph-name="uni0233" unicode="&#x233;" horiz-adv-x="541" 
d="M405 491h177l-353 -671h-180l115 215l-163 456h180l90 -276zM141 604l8 106h319l-9 -106h-318z" />
    <glyph glyph-name="uni0237" unicode="&#x237;" horiz-adv-x="281" 
d="M213 29q-6 -76 -29 -119.5t-75.5 -66t-147.5 -27.5l-53 -3l-4 126l60 4q35 2 50.5 15.5t18.5 44.5l39 489h178z" />
    <glyph glyph-name="uni0259" unicode="&#x259;" horiz-adv-x="535" 
d="M438 438.5q68 -65.5 68 -176.5q0 -78 -33.5 -139.5t-91.5 -96t-130 -34.5q-102 0 -162.5 62.5t-60.5 178.5q0 24 3 51h307q-12 90 -104 90q-40 0 -74 -11.5t-71 -34.5l-36 117q36 28 90 43.5t109 15.5q118 0 186 -65.5zM306 132.5q22 20.5 29 67.5h-157
q-1 -45 17.5 -66.5t51.5 -21.5q37 0 59 20.5z" />
    <glyph glyph-name="uni02BB" unicode="&#x2bb;" horiz-adv-x="300" 
d="M271 711l-10 -126h-169l5 67q4 49 21 85t55 66l58 -41q-29 -22 -39 -51h79z" />
    <glyph glyph-name="uni02BC" unicode="&#x2bc;" horiz-adv-x="300" 
d="M273 762l-5 -67q-4 -49 -21 -85t-55 -66l-57 41q29 23 38 51h-79l10 126h169z" />
    <glyph glyph-name="uni02BE" unicode="&#x2be;" horiz-adv-x="300" 
d="M179 616q19 0 31.5 12t12.5 33q0 17 -10 29.5t-27 12.5l5 67q43 0 73 -29.5t30 -74.5q0 -53 -35 -85t-85 -32z" />
    <glyph glyph-name="uni02BF" unicode="&#x2bf;" horiz-adv-x="300" 
d="M186 703q-19 0 -31.5 -12t-12.5 -33q0 -17 10 -29.5t27 -12.5l-5 -67q-43 0 -73 29.5t-30 74.5q0 53 35 85t85 32z" />
    <glyph glyph-name="circumflex" unicode="&#x2c6;" horiz-adv-x="300" 
d="M126 556h-137l151 206h102l119 -206h-130l-48 106z" />
    <glyph glyph-name="caron" unicode="&#x2c7;" horiz-adv-x="300" 
d="M240 762h137l-151 -206h-102l-119 206h130l48 -105z" />
    <glyph glyph-name="uni02C8" unicode="&#x2c8;" horiz-adv-x="300" 
d="M122 556l16 206h106l-16 -206h-106z" />
    <glyph glyph-name="uni02C9" unicode="&#x2c9;" horiz-adv-x="300" 
d="M20 604l8 106h319l-9 -106h-318z" />
    <glyph glyph-name="uni02CA" unicode="&#x2ca;" horiz-adv-x="300" 
d="M229 556h-108l110 206h177z" />
    <glyph glyph-name="uni02CB" unicode="&#x2cb;" horiz-adv-x="300" 
d="M121 556l-137 206h159l86 -206h-108z" />
    <glyph glyph-name="uni02CC" unicode="&#x2cc;" horiz-adv-x="300" 
d="M57 -270l16 206h106l-16 -206h-106z" />
    <glyph glyph-name="breve" unicode="&#x2d8;" horiz-adv-x="300" 
d="M63.5 615.5q-51.5 39.5 -68.5 112.5l79 32q20 -39 50.5 -57.5t66.5 -18.5q67 0 116 76l75 -33q-19 -73 -74.5 -112t-124.5 -39q-68 0 -119.5 39.5z" />
    <glyph glyph-name="dotaccent" unicode="&#x2d9;" horiz-adv-x="300" 
d="M96 738h186l-13 -161h-185z" />
    <glyph glyph-name="ring" unicode="&#x2da;" horiz-adv-x="300" 
d="M103.5 581q-32.5 32 -32.5 79q0 46 32.5 78t79.5 32t80 -32t33 -78q0 -47 -33 -79t-80 -32t-79.5 32zM213 629q12 13 12 31t-12 30.5t-30 12.5t-29.5 -12.5t-11.5 -30.5t11.5 -31t29.5 -13t30 13z" />
    <glyph glyph-name="ogonek" unicode="&#x2db;" horiz-adv-x="300" 
d="M-14 -168q-36 30 -36 78q0 54 43 90.5t124 46.5l15 -37q-35 -11 -52.5 -30.5t-17.5 -42.5q0 -22 14 -34.5t37 -12.5q25 0 56 10l11 -79q-50 -19 -98 -19q-60 0 -96 30z" />
    <glyph glyph-name="tilde" unicode="&#x2dc;" horiz-adv-x="300" 
d="M37 702q35 38 82 38q21 0 39.5 -7.5t41.5 -21.5q17 -10 29 -15.5t23 -5.5q37 0 44 47h73q-6 -82 -40.5 -119.5t-81.5 -37.5q-21 0 -39 7.5t-41 21.5q-19 11 -30.5 16t-22.5 5q-36 0 -44 -47h-72q4 81 39 119z" />
    <glyph glyph-name="hungarumlaut" unicode="&#x2dd;" horiz-adv-x="300" 
d="M139 556h-73l43 206h126zM285 556h-74l43 206h127z" />
    <glyph glyph-name="gravecomb" unicode="&#x300;" horiz-adv-x="0" 
d="M-179 556l-137 206h159l86 -206h-108z" />
    <glyph glyph-name="acutecomb" unicode="&#x301;" horiz-adv-x="0" 
d="M-71 556h-108l110 206h177z" />
    <glyph glyph-name="uni0302" unicode="&#x302;" horiz-adv-x="0" 
d="M-174 556h-137l151 206h102l119 -206h-130l-48 106z" />
    <glyph glyph-name="tildecomb" unicode="&#x303;" horiz-adv-x="0" 
d="M-263 702q35 38 82 38q21 0 39.5 -7.5t41.5 -21.5q17 -10 29 -15.5t23 -5.5q37 0 44 47h73q-6 -82 -40.5 -119.5t-81.5 -37.5q-21 0 -39 7.5t-41 21.5q-19 11 -30.5 16t-22.5 5q-36 0 -44 -47h-72q4 81 39 119z" />
    <glyph glyph-name="uni0304" unicode="&#x304;" horiz-adv-x="0" 
d="M-280 604l8 106h319l-9 -106h-318z" />
    <glyph glyph-name="uni0306" unicode="&#x306;" horiz-adv-x="0" 
d="M-236.5 615.5q-51.5 39.5 -68.5 112.5l79 32q20 -39 50.5 -57.5t66.5 -18.5q67 0 116 76l75 -33q-19 -73 -74.5 -112t-124.5 -39q-68 0 -119.5 39.5z" />
    <glyph glyph-name="uni0307" unicode="&#x307;" horiz-adv-x="0" 
d="M-204 738h186l-13 -161h-185z" />
    <glyph glyph-name="uni0308" unicode="&#x308;" horiz-adv-x="0" 
d="M-289 732h157l-12 -149h-157zM-91 732h157l-12 -149h-157z" />
    <glyph glyph-name="hookabovecomb" unicode="&#x309;" horiz-adv-x="0" 
d="M-81 556h-84l2 25q1 21 11 34t29 28q11 8 16.5 14.5t5.5 13.5q0 21 -28 21q-23 0 -47 -9l-18 66q48 15 96 15q52 0 80.5 -21t28.5 -51q0 -26 -14.5 -42t-40.5 -33q-18 -11 -26.5 -19.5t-9.5 -19.5z" />
    <glyph glyph-name="uni030A" unicode="&#x30a;" horiz-adv-x="0" 
d="M-196.5 581q-32.5 32 -32.5 79q0 46 32.5 78t79.5 32t80 -32t33 -78q0 -47 -33 -79t-80 -32t-79.5 32zM-87 629q12 13 12 31t-12 30.5t-30 12.5t-29.5 -12.5t-11.5 -30.5t11.5 -31t29.5 -13t30 13z" />
    <glyph glyph-name="uni030B" unicode="&#x30b;" horiz-adv-x="0" 
d="M-161 556h-73l43 206h126zM-15 556h-74l43 206h127z" />
    <glyph glyph-name="uni030C" unicode="&#x30c;" horiz-adv-x="0" 
d="M-60 762h137l-151 -206h-102l-119 206h130l48 -105z" />
    <glyph glyph-name="uni030F" unicode="&#x30f;" horiz-adv-x="0" 
d="M-234 556l-60 206h118l15 -206h-73zM-89 556l-59 206h117l16 -206h-74z" />
    <glyph glyph-name="uni0311" unicode="&#x311;" horiz-adv-x="0" 
d="M2.5 715.5q51.5 -39.5 68.5 -112.5l-79 -32q-19 39 -50 57.5t-67 18.5q-67 0 -116 -76l-74 33q19 73 74 112t124 39q68 0 119.5 -39.5z" />
    <glyph glyph-name="uni0312" unicode="&#x312;" horiz-adv-x="0" 
d="M-29 711l-10 -126h-169l5 67q4 49 21 85t55 66l58 -41q-29 -22 -39 -51h79z" />
    <glyph glyph-name="uni031B" unicode="&#x31b;" horiz-adv-x="0" 
d="M-131 481l1 15q44 0 65.5 19.5t26.5 78.5l1 22h153l-4 -43q-5 -62 -44 -106t-97 -52z" />
    <glyph glyph-name="dotbelowcomb" unicode="&#x323;" horiz-adv-x="0" 
d="M-252 -57h157l-12 -148h-157z" />
    <glyph glyph-name="uni0324" unicode="&#x324;" horiz-adv-x="0" 
d="M-351 -56h157l-12 -150h-157zM-153 -56h157l-12 -150h-157z" />
    <glyph glyph-name="uni0326" unicode="&#x326;" horiz-adv-x="0" 
d="M-90 -63l-5 -67q-4 -49 -21 -85t-55 -66l-58 41q29 25 38 51h-78l10 126h169z" />
    <glyph glyph-name="uni0327" unicode="&#x327;" horiz-adv-x="0" 
d="M-79.5 -58q23.5 -18 23.5 -50q0 -39 -36.5 -64.5t-102.5 -25.5q-28 0 -56 4.5t-48 12.5l17 64q46 -14 82 -14q39 0 39 22q0 17 -29 17q-11 0 -33 -5l-18 22l20 95h91l-14 -60h3q38 0 61.5 -18z" />
    <glyph glyph-name="uni0328" unicode="&#x328;" horiz-adv-x="0" 
d="M-314 -168q-36 30 -36 78q0 54 43 90.5t124 46.5l15 -37q-35 -11 -52.5 -30.5t-17.5 -42.5q0 -22 14 -34.5t37 -12.5q25 0 56 10l11 -79q-50 -19 -98 -19q-60 0 -96 30z" />
    <glyph glyph-name="uni032E" unicode="&#x32e;" horiz-adv-x="0" 
d="M-299.5 -193.5q-51.5 39.5 -68.5 112.5l79 32q19 -39 50 -57.5t67 -18.5q67 0 116 76l75 -32q-19 -73 -74.5 -112.5t-124.5 -39.5q-68 0 -119.5 39.5z" />
    <glyph glyph-name="uni0331" unicode="&#x331;" horiz-adv-x="0" 
d="M-342 -181l7 99h319l-8 -99h-318z" />
    <glyph glyph-name="uni0335" unicode="&#x335;" horiz-adv-x="0" 
d="M-313 201l8 95h319l-8 -95h-319z" />
    <glyph glyph-name="uni0394" unicode="&#x394;" horiz-adv-x="761" 
d="M722 136l129 -136l-841 -6l-65 -10l390 721l99 146zM407 511l-194 -361h326z" />
    <glyph glyph-name="Sigma" unicode="&#x3a3;" horiz-adv-x="614" 
d="M602 705l-11 -146h-311l159 -241l-11 -110l-191 -242h307l-11 -146h-520l10 132l253 320l-204 301l10 132h520z" />
    <glyph glyph-name="uni03A9" unicode="&#x3a9;" horiz-adv-x="824" 
d="M775 365q-23 -50 -59.5 -99t-97.5 -120h138l-11 -146h-301l11 142q67 101 100 157.5t46 92t13 67.5q0 56 -44 85t-131 29q-95 0 -146 -36.5t-51 -106.5q0 -37 23.5 -97.5t88.5 -190.5l-11 -142h-302l12 146h139q-78 113 -106 174t-28 120q0 83 46.5 145t132.5 96t202 34
q169 0 264 -67t95 -186q0 -47 -23 -97z" />
    <glyph glyph-name="uni03BC" unicode="&#x3bc;" 
d="M567 492l-39 -492h-173l5 56q-26 -30 -66 -47t-87 -17h-1l-14 -172h-178l53 672h178l-22 -277l-1 -15q0 -35 16 -53.5t47 -18.5q36 0 57.5 25.5t24.5 68.5l22 270h178z" />
    <glyph glyph-name="pi" unicode="&#x3c0;" horiz-adv-x="630" 
d="M510 142q17 -19 60 -22l41 -4l-14 -126l-43 2q-125 5 -180 50.5t-55 149.5q0 12 2 38l10 131h-42q-9 -93 -30 -180t-63 -181l-182 -1q41 118 64 199t34 163h-98l10 131h593l-10 -131h-98l-12 -151q-4 -49 13 -68z" />
    <glyph glyph-name="uni1E08" unicode="&#x1e08;" horiz-adv-x="678" 
d="M664 922l-171 -157h-108l111 157h168zM538 14q-60 -21 -126 -23l-7 -31h3q38 0 61.5 -18t23.5 -50q0 -39 -36.5 -64.5t-102.5 -25.5q-28 0 -56 4.5t-48 12.5l17 64q46 -14 82 -14q39 0 39 22q0 17 -29 17q-10 0 -33 -5l-18 22l15 72q-127 20 -198 108.5t-71 225.5
q0 115 47 202t132.5 134t198.5 47q71 0 133.5 -20t110.5 -57l-67 -131q-43 32 -83.5 47t-84.5 15q-96 0 -148 -63t-52 -174q0 -95 41 -144.5t121 -49.5q79 0 182 61l47 -130q-34 -33 -94 -54z" />
    <glyph glyph-name="uni1E09" unicode="&#x1e09;" horiz-adv-x="500" 
d="M557 762l-179 -206h-108l110 206h177zM241.5 335.5q-29.5 -34.5 -29.5 -98.5q0 -54 27 -82.5t72 -28.5q67 0 134 46l35 -121q-33 -27 -80 -42.5t-97 -16.5l-7 -32h3q38 0 61.5 -18t23.5 -50q0 -39 -36.5 -64.5t-102.5 -25.5q-28 0 -56 4.5t-48 12.5l17 64q46 -14 82 -14
q39 0 39 22q0 17 -29 17q-10 0 -33 -5l-18 22l16 76q-87 21 -136.5 82.5t-49.5 149.5q0 85 35 146t99.5 93t150.5 32q120 0 197 -59l-55 -120q-30 21 -64.5 33t-66.5 12q-54 0 -83.5 -34.5z" />
    <glyph glyph-name="uni1E0C" unicode="&#x1e0c;" horiz-adv-x="773" 
d="M100 705h287q106 0 184.5 -40.5t121.5 -115t43 -175.5q0 -118 -47 -202t-135.5 -128t-212.5 -44h-296zM324 148q117 0 173 54.5t56 172.5q0 89 -49 135.5t-142 46.5h-90l-32 -409h84zM284 -57h157l-12 -148h-157z" />
    <glyph glyph-name="uni1E0D" unicode="&#x1e0d;" horiz-adv-x="625" 
d="M609 705l-56 -705h-176l4 54q-24 -30 -60.5 -46t-81.5 -16q-62 0 -109.5 28.5t-74 81.5t-26.5 126q0 80 30 143t83.5 98t123.5 35q93 0 143 -64l22 265h178zM372 159q26 36 26 94q0 59 -24 89.5t-69 30.5q-46 0 -73 -36t-27 -97q0 -56 25 -86.5t71 -30.5q45 0 71 36z
M211 -57h157l-12 -148h-157z" />
    <glyph glyph-name="uni1E0E" unicode="&#x1e0e;" horiz-adv-x="773" 
d="M100 705h287q106 0 184.5 -40.5t121.5 -115t43 -175.5q0 -118 -47 -202t-135.5 -128t-212.5 -44h-296zM324 148q117 0 173 54.5t56 172.5q0 89 -49 135.5t-142 46.5h-90l-32 -409h84zM194 -181l7 99h319l-8 -99h-318z" />
    <glyph glyph-name="uni1E0F" unicode="&#x1e0f;" horiz-adv-x="625" 
d="M609 705l-56 -705h-176l4 54q-24 -30 -60.5 -46t-81.5 -16q-62 0 -109.5 28.5t-74 81.5t-26.5 126q0 80 30 143t83.5 98t123.5 35q93 0 143 -64l22 265h178zM372 159q26 36 26 94q0 59 -24 89.5t-69 30.5q-46 0 -73 -36t-27 -97q0 -56 25 -86.5t71 -30.5q45 0 71 36z
M121 -181l7 99h319l-8 -99h-318z" />
    <glyph glyph-name="uni1E14" unicode="&#x1e14;" horiz-adv-x="597" 
d="M591 563h-322l-11 -134h302l-11 -141h-302l-12 -146h323l-12 -142h-501l56 705h502zM218 790l8 107h319l-9 -107h-318zM333 925l-138 157h150l96 -157h-108z" />
    <glyph glyph-name="uni1E15" unicode="&#x1e15;" horiz-adv-x="535" 
d="M445.5 442q60.5 -62 60.5 -177q0 -26 -3 -53h-303q12 -90 109 -90q71 0 138 46l36 -117q-33 -28 -82.5 -43.5t-104.5 -15.5q-79 0 -139.5 30t-94 84.5t-33.5 127.5q0 78 33.5 139.5t91 96t128.5 34.5q103 0 163.5 -62zM231.5 363.5q-21.5 -20.5 -29.5 -67.5h159
q-3 88 -73 88q-35 0 -56.5 -20.5zM146 604l8 106h319l-9 -106h-318zM262 745l-137 206h159l86 -206h-108z" />
    <glyph glyph-name="uni1E16" unicode="&#x1e16;" horiz-adv-x="597" 
d="M591 563h-322l-11 -134h302l-11 -141h-302l-12 -146h323l-12 -142h-501l56 705h502zM218 790l8 107h319l-9 -107h-318zM441 925h-108l111 157h168z" />
    <glyph glyph-name="uni1E17" unicode="&#x1e17;" horiz-adv-x="535" 
d="M445.5 442q60.5 -62 60.5 -177q0 -26 -3 -53h-303q12 -90 109 -90q71 0 138 46l36 -117q-33 -28 -82.5 -43.5t-104.5 -15.5q-79 0 -139.5 30t-94 84.5t-33.5 127.5q0 78 33.5 139.5t91 96t128.5 34.5q103 0 163.5 -62zM231.5 363.5q-21.5 -20.5 -29.5 -67.5h159
q-3 88 -73 88q-35 0 -56.5 -20.5zM146 604l8 106h319l-9 -106h-318zM370 745h-108l110 206h177z" />
    <glyph glyph-name="uni1E1C" unicode="&#x1e1c;" horiz-adv-x="597" 
d="M266 803.5q-50 30.5 -67 79.5l81 32q14 -18 42.5 -29.5t64.5 -11.5q33 0 62 11t44 30l74 -32q-18 -48 -67.5 -79t-115.5 -31q-68 0 -118 30.5zM269 563l-11 -134h302l-11 -141h-302l-12 -146h323l-12 -142h-197l-9 -40h3q38 0 61.5 -18t23.5 -50q0 -39 -36.5 -64.5
t-102.5 -25.5q-28 0 -56 4.5t-48 12.5l17 64q46 -14 82 -14q39 0 39 22q0 17 -29 17q-10 0 -33 -5l-18 22l16 75h-214l56 705h502l-12 -142h-322z" />
    <glyph glyph-name="uni1E1D" unicode="&#x1e1d;" horiz-adv-x="535" 
d="M189.5 615.5q-51.5 39.5 -68.5 112.5l79 32q20 -39 50.5 -57.5t66.5 -18.5q67 0 116 76l75 -33q-19 -73 -74.5 -112t-124.5 -39q-68 0 -119.5 39.5zM445.5 442q60.5 -62 60.5 -177q0 -26 -3 -53h-303q12 -90 109 -90q71 0 138 46l36 -117q-30 -25 -74.5 -40.5
t-95.5 -18.5l-7 -32h3q38 0 61.5 -18t23.5 -50q0 -39 -36.5 -64.5t-102.5 -25.5q-28 0 -56 4.5t-48 12.5l17 64q46 -14 82 -14q39 0 39 22q0 17 -29 17q-10 0 -33 -5l-18 22l16 74q-91 18 -143.5 80.5t-52.5 154.5q0 78 33.5 139.5t91 96t128.5 34.5q103 0 163.5 -62z
M231.5 363.5q-21.5 -20.5 -29.5 -67.5h159q-3 88 -73 88q-35 0 -56.5 -20.5z" />
    <glyph glyph-name="uni1E20" unicode="&#x1e20;" horiz-adv-x="744" 
d="M700 398l-27 -351q-52 -27 -122.5 -41.5t-151.5 -14.5q-106 0 -183.5 41.5t-119.5 119t-42 181.5q0 115 47 201t133.5 133t202.5 47q162 0 259 -77l-67 -130q-46 34 -89 49t-101 13q-96 -2 -147.5 -64.5t-51.5 -172.5q0 -98 46 -149.5t140 -51.5q42 0 90 12l10 129h-125
l11 126h288zM298 790l8 107h319l-9 -107h-318z" />
    <glyph glyph-name="uni1E21" unicode="&#x1e21;" horiz-adv-x="629" 
d="M596 492l-33 -425q-11 -133 -85.5 -194t-210.5 -61q-71 0 -134 15.5t-112 43.5l55 121q102 -50 197 -50q52 0 80.5 24.5t32.5 80.5l2 24q-52 -57 -147 -57q-62 0 -110 28t-74.5 79t-26.5 119q0 74 30 134.5t84.5 95t124.5 34.5q95 0 148 -66l4 54h175zM376.5 179
q27.5 32 27.5 85q0 55 -25 82t-72 27t-74 -33t-27 -91q0 -48 26 -75t71 -27q46 0 73.5 32zM185 604l8 106h319l-9 -106h-318z" />
    <glyph glyph-name="uni1E24" unicode="&#x1e24;" horiz-adv-x="776" 
d="M568 705h180l-56 -705h-180l23 285h-287l-23 -285h-180l56 705h180l-22 -274h287zM286 -57h157l-12 -148h-157z" />
    <glyph glyph-name="uni1E25" unicode="&#x1e25;" horiz-adv-x="605" 
d="M520 457.5q42 -46.5 42 -136.5q0 -22 -1 -34l-23 -287h-178l23 281q3 42 -13.5 64.5t-51.5 22.5q-39 0 -60.5 -25.5t-24.5 -68.5l-22 -274h-178l54 705h178l-21 -260q27 28 66 43.5t86 15.5q82 0 124 -46.5zM203 -57h157l-12 -148h-157z" />
    <glyph glyph-name="uni1E2A" unicode="&#x1e2a;" horiz-adv-x="776" 
d="M568 705h180l-56 -705h-180l23 285h-287l-23 -285h-180l56 705h180l-22 -274h287zM238.5 -193.5q-51.5 39.5 -68.5 112.5l79 32q19 -39 50 -57.5t67 -18.5q67 0 116 76l75 -32q-19 -73 -74.5 -112.5t-124.5 -39.5q-68 0 -119.5 39.5z" />
    <glyph glyph-name="uni1E2B" unicode="&#x1e2b;" horiz-adv-x="605" 
d="M520 457.5q42 -46.5 42 -136.5q0 -22 -1 -34l-23 -287h-178l23 281q3 42 -13.5 64.5t-51.5 22.5q-39 0 -60.5 -25.5t-24.5 -68.5l-22 -274h-178l54 705h178l-21 -260q27 28 66 43.5t86 15.5q82 0 124 -46.5zM155.5 -193.5q-51.5 39.5 -68.5 112.5l79 32q19 -39 50 -57.5
t67 -18.5q67 0 116 76l75 -32q-19 -73 -74.5 -112.5t-124.5 -39.5q-68 0 -119.5 39.5z" />
    <glyph glyph-name="uni1E2E" unicode="&#x1e2e;" horiz-adv-x="312" 
d="M45 0l55 705h184l-55 -705h-184zM32 919h157l-12 -150h-157zM230 919h157l-12 -150h-157zM264 925h-108l111 157h168z" />
    <glyph glyph-name="uni1E2F" unicode="&#x1e2f;" horiz-adv-x="281" 
d="M33 0l39 492h178l-39 -492h-178zM2 732h157l-12 -149h-157zM200 732h157l-12 -149h-157zM235 745h-108l110 206h177z" />
    <glyph glyph-name="uni1E36" unicode="&#x1e36;" horiz-adv-x="572" 
d="M45 0l56 705h184l-45 -556h300l-11 -149h-484zM212 -57h157l-12 -148h-157z" />
    <glyph glyph-name="uni1E37" unicode="&#x1e37;" horiz-adv-x="281" 
d="M33 0l56 705h178l-56 -705h-178zM39 -57h157l-12 -148h-157z" />
    <glyph glyph-name="uni1E3A" unicode="&#x1e3a;" horiz-adv-x="572" 
d="M45 0l56 705h184l-45 -556h300l-11 -149h-484zM122 -181l7 99h319l-8 -99h-318z" />
    <glyph glyph-name="uni1E3B" unicode="&#x1e3b;" horiz-adv-x="281" 
d="M33 0l56 705h178l-56 -705h-178zM-51 -181l7 99h319l-8 -99h-318z" />
    <glyph glyph-name="uni1E42" unicode="&#x1e42;" horiz-adv-x="842" 
d="M670 705h142l-56 -705h-160l30 370l-156 -253h-118l-116 241l-29 -358h-160l56 705h145l177 -394zM319 -57h157l-12 -148h-157z" />
    <glyph glyph-name="uni1E43" unicode="&#x1e43;" horiz-adv-x="897" 
d="M813 457q41 -47 41 -137q0 -20 -1 -31l-23 -289h-178l23 285q3 40 -11 61.5t-43 21.5q-37 0 -56.5 -25t-23.5 -80l-21 -263h-178l23 283q6 85 -54 85q-36 0 -56 -25t-24 -80l-20 -263h-178l39 491h173l-4 -47q28 31 64 45.5t83 14.5q48 0 83.5 -20t54.5 -57
q32 38 75 57.5t93 19.5q78 0 119 -47zM348 -57h157l-12 -148h-157z" />
    <glyph glyph-name="uni1E44" unicode="&#x1e44;" horiz-adv-x="757" 
d="M557 705h172l-56 -705h-137l-287 396l-33 -396h-171l56 705h134l290 -398zM339 924h186l-13 -160h-185z" />
    <glyph glyph-name="uni1E45" unicode="&#x1e45;" horiz-adv-x="605" 
d="M520 457.5q42 -46.5 42 -136.5q0 -22 -1 -34l-23 -287h-178l23 281q3 42 -13.5 64.5t-51.5 22.5q-39 0 -60.5 -25.5t-24.5 -68.5l-22 -274h-178l39 492h173l-4 -52q26 30 66 47t89 17q82 0 124 -46.5zM251 738h186l-13 -161h-185z" />
    <glyph glyph-name="uni1E46" unicode="&#x1e46;" horiz-adv-x="757" 
d="M557 705h172l-56 -705h-137l-287 396l-33 -396h-171l56 705h134l290 -398zM277 -57h157l-12 -148h-157z" />
    <glyph glyph-name="uni1E47" unicode="&#x1e47;" horiz-adv-x="605" 
d="M520 457.5q42 -46.5 42 -136.5q0 -22 -1 -34l-23 -287h-178l23 281q3 42 -13.5 64.5t-51.5 22.5q-39 0 -60.5 -25.5t-24.5 -68.5l-22 -274h-178l39 492h173l-4 -52q26 30 66 47t89 17q82 0 124 -46.5zM203 -57h157l-12 -148h-157z" />
    <glyph glyph-name="uni1E48" unicode="&#x1e48;" horiz-adv-x="757" 
d="M557 705h172l-56 -705h-137l-287 396l-33 -396h-171l56 705h134l290 -398zM187 -181l7 99h319l-8 -99h-318z" />
    <glyph glyph-name="uni1E49" unicode="&#x1e49;" horiz-adv-x="605" 
d="M520 457.5q42 -46.5 42 -136.5q0 -22 -1 -34l-23 -287h-178l23 281q3 42 -13.5 64.5t-51.5 22.5q-39 0 -60.5 -25.5t-24.5 -68.5l-22 -274h-178l39 492h173l-4 -52q26 30 66 47t89 17q82 0 124 -46.5zM113 -181l7 99h319l-8 -99h-318z" />
    <glyph glyph-name="uni1E4C" unicode="&#x1e4c;" horiz-adv-x="796" 
d="M218 31.5q-79 41.5 -121.5 118t-42.5 181.5q0 114 44 201.5t125 135t188 47.5q106 0 185 -41.5t121.5 -118.5t42.5 -181q0 -114 -44.5 -201t-125.5 -135t-187 -48t-185 41.5zM529 196q47 64 47 178q0 95 -43 147t-120 52q-82 0 -129 -64.5t-47 -177.5q0 -96 42.5 -147.5
t121.5 -51.5q81 0 128 64zM300.5 886.5q35.5 37.5 87.5 37.5q18 0 34.5 -7t37.5 -21q21 -12 31.5 -17t22.5 -5q39 0 44 47h73q-5 -82 -41 -120t-88 -38q-18 0 -33 7t-38 21q-19 12 -30.5 17.5t-23.5 5.5q-39 0 -44 -48h-72q4 83 39.5 120.5zM506 925h-108l111 157h168z" />
    <glyph glyph-name="uni1E4D" unicode="&#x1e4d;" 
d="M156 22q-61 30 -94 85.5t-33 128.5q0 83 34 143.5t95.5 92.5t143.5 32t143 -30t94 -85t33 -128q0 -84 -34 -144.5t-95.5 -92.5t-143.5 -32t-143 30zM372.5 163q23.5 40 23.5 102q0 55 -22.5 81.5t-68.5 26.5q-53 0 -76.5 -39.5t-23.5 -100.5q0 -56 22.5 -83t68.5 -27
q53 0 76.5 40zM187 702q35 38 82 38q21 0 39.5 -7.5t41.5 -21.5q17 -10 29 -15.5t23 -5.5q37 0 44 47h73q-6 -82 -40.5 -119.5t-81.5 -37.5q-21 0 -39 7.5t-41 21.5q-19 11 -30.5 16t-22.5 5q-36 0 -44 -47h-72q4 81 39 119zM394 745h-108l110 206h177z" />
    <glyph glyph-name="uni1E4E" unicode="&#x1e4e;" horiz-adv-x="796" 
d="M218 31.5q-79 41.5 -121.5 118t-42.5 181.5q0 114 44 201.5t125 135t188 47.5q106 0 185 -41.5t121.5 -118.5t42.5 -181q0 -114 -44.5 -201t-125.5 -135t-187 -48t-185 41.5zM529 196q47 64 47 178q0 95 -43 147t-120 52q-82 0 -129 -64.5t-47 -177.5q0 -96 42.5 -147.5
t121.5 -51.5q81 0 128 64zM300.5 886.5q35.5 37.5 87.5 37.5q18 0 34.5 -7t37.5 -21q21 -12 31.5 -17t22.5 -5q39 0 44 47h73q-5 -82 -41 -120t-88 -38q-18 0 -33 7t-38 21q-19 12 -30.5 17.5t-23.5 5.5q-39 0 -44 -48h-72q4 83 39.5 120.5zM287 1079h157l-12 -150h-157z
M485 1079h157l-12 -150h-157z" />
    <glyph glyph-name="uni1E4F" unicode="&#x1e4f;" 
d="M156 22q-61 30 -94 85.5t-33 128.5q0 83 34 143.5t95.5 92.5t143.5 32t143 -30t94 -85t33 -128q0 -84 -34 -144.5t-95.5 -92.5t-143.5 -32t-143 30zM372.5 163q23.5 40 23.5 102q0 55 -22.5 81.5t-68.5 26.5q-53 0 -76.5 -39.5t-23.5 -100.5q0 -56 22.5 -83t68.5 -27
q53 0 76.5 40zM187 702q35 38 82 38q21 0 39.5 -7.5t41.5 -21.5q17 -10 29 -15.5t23 -5.5q37 0 44 47h73q-6 -82 -40.5 -119.5t-81.5 -37.5q-21 0 -39 7.5t-41 21.5q-19 11 -30.5 16t-22.5 5q-36 0 -44 -47h-72q4 81 39 119zM176 921h157l-12 -149h-157zM374 921h157
l-12 -149h-157z" />
    <glyph glyph-name="uni1E50" unicode="&#x1e50;" horiz-adv-x="796" 
d="M218 31.5q-79 41.5 -121.5 118t-42.5 181.5q0 114 44 201.5t125 135t188 47.5q106 0 185 -41.5t121.5 -118.5t42.5 -181q0 -114 -44.5 -201t-125.5 -135t-187 -48t-185 41.5zM529 196q47 64 47 178q0 95 -43 147t-120 52q-82 0 -129 -64.5t-47 -177.5q0 -96 42.5 -147.5
t121.5 -51.5q81 0 128 64zM283 790l8 107h319l-9 -107h-318zM398 925l-138 157h150l96 -157h-108z" />
    <glyph glyph-name="uni1E51" unicode="&#x1e51;" 
d="M156 22q-61 30 -94 85.5t-33 128.5q0 83 34 143.5t95.5 92.5t143.5 32t143 -30t94 -85t33 -128q0 -84 -34 -144.5t-95.5 -92.5t-143.5 -32t-143 30zM372.5 163q23.5 40 23.5 102q0 55 -22.5 81.5t-68.5 26.5q-53 0 -76.5 -39.5t-23.5 -100.5q0 -56 22.5 -83t68.5 -27
q53 0 76.5 40zM170 604l8 106h319l-9 -106h-318zM286 745l-137 206h159l86 -206h-108z" />
    <glyph glyph-name="uni1E52" unicode="&#x1e52;" horiz-adv-x="796" 
d="M218 31.5q-79 41.5 -121.5 118t-42.5 181.5q0 114 44 201.5t125 135t188 47.5q106 0 185 -41.5t121.5 -118.5t42.5 -181q0 -114 -44.5 -201t-125.5 -135t-187 -48t-185 41.5zM529 196q47 64 47 178q0 95 -43 147t-120 52q-82 0 -129 -64.5t-47 -177.5q0 -96 42.5 -147.5
t121.5 -51.5q81 0 128 64zM283 790l8 107h319l-9 -107h-318zM506 925h-108l111 157h168z" />
    <glyph glyph-name="uni1E53" unicode="&#x1e53;" 
d="M156 22q-61 30 -94 85.5t-33 128.5q0 83 34 143.5t95.5 92.5t143.5 32t143 -30t94 -85t33 -128q0 -84 -34 -144.5t-95.5 -92.5t-143.5 -32t-143 30zM372.5 163q23.5 40 23.5 102q0 55 -22.5 81.5t-68.5 26.5q-53 0 -76.5 -39.5t-23.5 -100.5q0 -56 22.5 -83t68.5 -27
q53 0 76.5 40zM170 604l8 106h319l-9 -106h-318zM394 745h-108l110 206h177z" />
    <glyph glyph-name="uni1E5A" unicode="&#x1e5a;" horiz-adv-x="707" 
d="M680 0h-199l-111 225q-19 39 -69 39h-55l-20 -264h-181l55 705h343q111 0 173 -56.5t62 -150.5q0 -95 -44.5 -150t-138.5 -71q29 -8 48.5 -27t35.5 -50zM406 402q49 0 74.5 22t25.5 63q0 40 -21.5 59.5t-66.5 19.5h-149l-12 -164h149zM256 -57h157l-12 -148h-157z" />
    <glyph glyph-name="uni1E5B" unicode="&#x1e5b;" horiz-adv-x="419" 
d="M443 506l-2 -147l-108 -11q-56 -6 -77 -28t-26 -73l-19 -247h-178l39 491h170l-6 -63q56 68 168 76zM39 -57h157l-12 -148h-157z" />
    <glyph glyph-name="uni1E5E" unicode="&#x1e5e;" horiz-adv-x="707" 
d="M680 0h-199l-111 225q-19 39 -69 39h-55l-20 -264h-181l55 705h343q111 0 173 -56.5t62 -150.5q0 -95 -44.5 -150t-138.5 -71q29 -8 48.5 -27t35.5 -50zM406 402q49 0 74.5 22t25.5 63q0 40 -21.5 59.5t-66.5 19.5h-149l-12 -164h149zM166 -181l7 99h319l-8 -99h-318z
" />
    <glyph glyph-name="uni1E5F" unicode="&#x1e5f;" horiz-adv-x="419" 
d="M443 506l-2 -147l-108 -11q-56 -6 -77 -28t-26 -73l-19 -247h-178l39 491h170l-6 -63q56 68 168 76zM-51 -181l7 99h319l-8 -99h-318z" />
    <glyph glyph-name="uni1E60" unicode="&#x1e60;" horiz-adv-x="664" 
d="M156 11.5q-77 20.5 -133 56.5l68 130q107 -66 231 -66q57 0 87 15t30 44q0 31 -33 48.5t-102 37.5q-74 22 -121 43t-81 62.5t-34 107.5q0 67 37.5 118t106.5 78.5t161 27.5q77 0 147 -21t112 -56l-66 -130q-43 31 -95.5 48.5t-102.5 17.5q-54 0 -85.5 -17.5t-31.5 -48.5
q0 -32 32.5 -49t103.5 -38q73 -22 119.5 -42.5t80.5 -60.5t34 -105q0 -106 -80 -163.5t-227 -57.5q-81 0 -158 20.5zM297 924h186l-13 -160h-185z" />
    <glyph glyph-name="uni1E61" unicode="&#x1e61;" horiz-adv-x="490" 
d="M116 6.5q-57 14.5 -113 44.5l55 121q41 -26 91 -41.5t96 -15.5q31 0 45.5 8t14.5 20q0 16 -20 25t-65 22q-53 14 -89 29t-62.5 44.5t-26.5 77.5t28 85t79 57.5t117 20.5q57 0 112.5 -15.5t94.5 -43.5l-54 -116q-37 25 -77.5 38.5t-79.5 13.5q-32 0 -48 -7.5t-16 -20.5
q0 -16 20.5 -26t65.5 -22q54 -15 89.5 -30t62 -44.5t26.5 -77.5q0 -76 -59.5 -118.5t-161.5 -42.5q-68 0 -125 14.5zM200 738h186l-13 -161h-185z" />
    <glyph glyph-name="uni1E62" unicode="&#x1e62;" horiz-adv-x="664" 
d="M156 11.5q-77 20.5 -133 56.5l68 130q107 -66 231 -66q57 0 87 15t30 44q0 31 -33 48.5t-102 37.5q-74 22 -121 43t-81 62.5t-34 107.5q0 67 37.5 118t106.5 78.5t161 27.5q77 0 147 -21t112 -56l-66 -130q-43 31 -95.5 48.5t-102.5 17.5q-54 0 -85.5 -17.5t-31.5 -48.5
q0 -32 32.5 -49t103.5 -38q73 -22 119.5 -42.5t80.5 -60.5t34 -105q0 -106 -80 -163.5t-227 -57.5q-81 0 -158 20.5zM227 -57h157l-12 -148h-157z" />
    <glyph glyph-name="uni1E63" unicode="&#x1e63;" horiz-adv-x="490" 
d="M116 6.5q-57 14.5 -113 44.5l55 121q41 -26 91 -41.5t96 -15.5q31 0 45.5 8t14.5 20q0 16 -20 25t-65 22q-53 14 -89 29t-62.5 44.5t-26.5 77.5t28 85t79 57.5t117 20.5q57 0 112.5 -15.5t94.5 -43.5l-54 -116q-37 25 -77.5 38.5t-79.5 13.5q-32 0 -48 -7.5t-16 -20.5
q0 -16 20.5 -26t65.5 -22q54 -15 89.5 -30t62 -44.5t26.5 -77.5q0 -76 -59.5 -118.5t-161.5 -42.5q-68 0 -125 14.5zM144 -57h157l-12 -148h-157z" />
    <glyph glyph-name="uni1E64" unicode="&#x1e64;" horiz-adv-x="664" 
d="M156 11.5q-77 20.5 -133 56.5l68 130q107 -66 231 -66q57 0 87 15t30 44q0 31 -33 48.5t-102 37.5q-74 22 -121 43t-81 62.5t-34 107.5q0 67 37.5 118t106.5 78.5t161 27.5q77 0 147 -21t112 -56l-66 -130q-43 31 -95.5 48.5t-102.5 17.5q-54 0 -85.5 -17.5t-31.5 -48.5
q0 -32 32.5 -49t103.5 -38q73 -22 119.5 -42.5t80.5 -60.5t34 -105q0 -106 -80 -163.5t-227 -57.5q-81 0 -158 20.5zM464 765h-108l111 157h168zM171 921h186l-13 -160h-185z" />
    <glyph glyph-name="uni1E65" unicode="&#x1e65;" horiz-adv-x="490" 
d="M116 6.5q-57 14.5 -113 44.5l55 121q41 -26 91 -41.5t96 -15.5q31 0 45.5 8t14.5 20q0 16 -20 25t-65 22q-53 14 -89 29t-62.5 44.5t-26.5 77.5t28 85t79 57.5t117 20.5q57 0 112.5 -15.5t94.5 -43.5l-54 -116q-37 25 -77.5 38.5t-79.5 13.5q-32 0 -48 -7.5t-16 -20.5
q0 -16 20.5 -26t65.5 -22q54 -15 89.5 -30t62 -44.5t26.5 -77.5q0 -76 -59.5 -118.5t-161.5 -42.5q-68 0 -125 14.5zM355 556h-108l110 206h177zM96 759h186l-13 -161h-185z" />
    <glyph glyph-name="uni1E66" unicode="&#x1e66;" horiz-adv-x="664" 
d="M156 11.5q-77 20.5 -133 56.5l68 130q107 -66 231 -66q57 0 87 15t30 44q0 31 -33 48.5t-102 37.5q-74 22 -121 43t-81 62.5t-34 107.5q0 67 37.5 118t106.5 78.5t161 27.5q77 0 147 -21t112 -56l-66 -130q-43 31 -95.5 48.5t-102.5 17.5q-54 0 -85.5 -17.5t-31.5 -48.5
q0 -32 32.5 -49t103.5 -38q73 -22 119.5 -42.5t80.5 -60.5t34 -105q0 -106 -80 -163.5t-227 -57.5q-81 0 -158 20.5zM447 922h128l-149 -157h-98l-125 157h129l55 -78zM310 1084h186l-13 -160h-185z" />
    <glyph glyph-name="uni1E67" unicode="&#x1e67;" horiz-adv-x="490" 
d="M116 6.5q-57 14.5 -113 44.5l55 121q41 -26 91 -41.5t96 -15.5q31 0 45.5 8t14.5 20q0 16 -20 25t-65 22q-53 14 -89 29t-62.5 44.5t-26.5 77.5t28 85t79 57.5t117 20.5q57 0 112.5 -15.5t94.5 -43.5l-54 -116q-37 25 -77.5 38.5t-79.5 13.5q-32 0 -48 -7.5t-16 -20.5
q0 -16 20.5 -26t65.5 -22q54 -15 89.5 -30t62 -44.5t26.5 -77.5q0 -76 -59.5 -118.5t-161.5 -42.5q-68 0 -125 14.5zM344 762h137l-151 -206h-102l-119 206h130l48 -105zM215 927h186l-13 -161h-185z" />
    <glyph glyph-name="uni1E68" unicode="&#x1e68;" horiz-adv-x="664" 
d="M156 11.5q-77 20.5 -133 56.5l68 130q107 -66 231 -66q57 0 87 15t30 44q0 31 -33 48.5t-102 37.5q-74 22 -121 43t-81 62.5t-34 107.5q0 67 37.5 118t106.5 78.5t161 27.5q77 0 147 -21t112 -56l-66 -130q-43 31 -95.5 48.5t-102.5 17.5q-54 0 -85.5 -17.5t-31.5 -48.5
q0 -32 32.5 -49t103.5 -38q73 -22 119.5 -42.5t80.5 -60.5t34 -105q0 -106 -80 -163.5t-227 -57.5q-81 0 -158 20.5zM227 -57h157l-12 -148h-157zM297 924h186l-13 -160h-185z" />
    <glyph glyph-name="uni1E69" unicode="&#x1e69;" horiz-adv-x="490" 
d="M116 6.5q-57 14.5 -113 44.5l55 121q41 -26 91 -41.5t96 -15.5q31 0 45.5 8t14.5 20q0 16 -20 25t-65 22q-53 14 -89 29t-62.5 44.5t-26.5 77.5t28 85t79 57.5t117 20.5q57 0 112.5 -15.5t94.5 -43.5l-54 -116q-37 25 -77.5 38.5t-79.5 13.5q-32 0 -48 -7.5t-16 -20.5
q0 -16 20.5 -26t65.5 -22q54 -15 89.5 -30t62 -44.5t26.5 -77.5q0 -76 -59.5 -118.5t-161.5 -42.5q-68 0 -125 14.5zM144 -57h157l-12 -148h-157zM200 738h186l-13 -161h-185z" />
    <glyph glyph-name="uni1E6C" unicode="&#x1e6c;" horiz-adv-x="632" 
d="M204 0l44 556h-212l12 149h608l-12 -149h-211l-43 -556h-186zM214 -57h157l-12 -148h-157z" />
    <glyph glyph-name="uni1E6D" unicode="&#x1e6d;" horiz-adv-x="405" 
d="M270 199l-1 -14q0 -65 71 -65q17 0 46 3l-19 -126q-31 -5 -60 -5q-216 0 -216 179q0 19 1 29l13 161h-92l10 131h92l11 143h178l-11 -143h118l-10 -131h-118zM151 -57h157l-12 -148h-157z" />
    <glyph glyph-name="uni1E6E" unicode="&#x1e6e;" horiz-adv-x="632" 
d="M204 0l44 556h-212l12 149h608l-12 -149h-211l-43 -556h-186zM124 -181l7 99h319l-8 -99h-318z" />
    <glyph glyph-name="uni1E6F" unicode="&#x1e6f;" horiz-adv-x="405" 
d="M270 199l-1 -14q0 -65 71 -65q17 0 46 3l-19 -126q-31 -5 -60 -5q-216 0 -216 179q0 19 1 29l13 161h-92l10 131h92l11 143h178l-11 -143h118l-10 -131h-118zM61 -181l7 99h319l-8 -99h-318z" />
    <glyph glyph-name="uni1E78" unicode="&#x1e78;" horiz-adv-x="745" 
d="M62 267q0 14 2 42l32 396h180l-31 -403q-1 -11 -1 -31q0 -71 33 -105t102 -34q56 0 88 33.5t39 114.5l34 425h181l-33 -413q-11 -149 -91.5 -225t-226.5 -76q-308 0 -308 276zM274.5 886.5q35.5 37.5 87.5 37.5q18 0 34.5 -7t37.5 -21q21 -12 31.5 -17t22.5 -5
q39 0 44 47h73q-5 -82 -41 -120t-88 -38q-18 0 -33 7t-38 21q-19 12 -30.5 17.5t-23.5 5.5q-39 0 -44 -48h-72q4 83 39.5 120.5zM480 925h-108l111 157h168z" />
    <glyph glyph-name="uni1E79" unicode="&#x1e79;" 
d="M567 492l-39 -492h-173l5 56q-26 -30 -66 -47t-87 -17q-80 0 -122 45.5t-42 132.5q0 11 2 35l22 287h178l-22 -277l-1 -15q0 -35 16 -53.5t47 -18.5q37 0 58 25.5t24 68.5l22 270h178zM185 702q35 38 82 38q21 0 39.5 -7.5t41.5 -21.5q17 -10 29 -15.5t23 -5.5
q37 0 44 47h73q-6 -82 -40.5 -119.5t-81.5 -37.5q-21 0 -39 7.5t-41 21.5q-19 11 -30.5 16t-22.5 5q-36 0 -44 -47h-72q4 81 39 119zM392 745h-108l110 206h177z" />
    <glyph glyph-name="uni1E7A" unicode="&#x1e7a;" horiz-adv-x="745" 
d="M62 267q0 14 2 42l32 396h180l-31 -403q-1 -11 -1 -31q0 -71 33 -105t102 -34q56 0 88 33.5t39 114.5l34 425h181l-33 -413q-11 -149 -91.5 -225t-226.5 -76q-308 0 -308 276zM257 790l8 107h319l-9 -107h-318zM261 1079h157l-12 -150h-157zM459 1079h157l-12 -150h-157z
" />
    <glyph glyph-name="uni1E7B" unicode="&#x1e7b;" 
d="M567 492l-39 -492h-173l5 56q-26 -30 -66 -47t-87 -17q-80 0 -122 45.5t-42 132.5q0 11 2 35l22 287h178l-22 -277l-1 -15q0 -35 16 -53.5t47 -18.5q37 0 58 25.5t24 68.5l22 270h178zM168 604l8 106h319l-9 -106h-318zM174 921h157l-12 -149h-157zM372 921h157l-12 -149
h-157z" />
    <glyph glyph-name="Wgrave" unicode="&#x1e80;" horiz-adv-x="1121" 
d="M969 705h175l-307 -705h-146l-117 423l-183 -423h-147l-196 705h186l111 -447l193 447h126l115 -455zM547 765l-138 157h150l96 -157h-108z" />
    <glyph glyph-name="wgrave" unicode="&#x1e81;" horiz-adv-x="872" 
d="M727 492h176l-245 -492h-146l-80 241l-110 -241h-147l-167 492h176l88 -279l126 279h115l85 -284zM407 556l-137 206h159l86 -206h-108z" />
    <glyph glyph-name="Wacute" unicode="&#x1e82;" horiz-adv-x="1121" 
d="M969 705h175l-307 -705h-146l-117 423l-183 -423h-147l-196 705h186l111 -447l193 447h126l115 -455zM655 765h-108l111 157h168z" />
    <glyph glyph-name="wacute" unicode="&#x1e83;" horiz-adv-x="872" 
d="M727 492h176l-245 -492h-146l-80 241l-110 -241h-147l-167 492h176l88 -279l126 279h115l85 -284zM515 556h-108l110 206h177z" />
    <glyph glyph-name="Wdieresis" unicode="&#x1e84;" horiz-adv-x="1121" 
d="M969 705h175l-307 -705h-146l-117 423l-183 -423h-147l-196 705h186l111 -447l193 447h126l115 -455zM436 919h157l-12 -150h-157zM634 919h157l-12 -150h-157z" />
    <glyph glyph-name="wdieresis" unicode="&#x1e85;" horiz-adv-x="872" 
d="M727 492h176l-245 -492h-146l-80 241l-110 -241h-147l-167 492h176l88 -279l126 279h115l85 -284zM297 732h157l-12 -149h-157zM495 732h157l-12 -149h-157z" />
    <glyph glyph-name="uni1E8E" unicode="&#x1e8e;" horiz-adv-x="650" 
d="M751 705l-328 -391l-25 -314h-184l25 315l-266 390h204l163 -244l200 244h211zM286 924h186l-13 -160h-185z" />
    <glyph glyph-name="uni1E8F" unicode="&#x1e8f;" horiz-adv-x="541" 
d="M405 491h177l-353 -671h-180l115 215l-163 456h180l90 -276zM217 738h186l-13 -161h-185z" />
    <glyph glyph-name="uni1E92" unicode="&#x1e92;" horiz-adv-x="617" 
d="M607 705l-10 -132l-344 -429h322l-11 -144h-531l10 135l342 426h-309l11 144h520zM202 -57h157l-12 -148h-157z" />
    <glyph glyph-name="uni1E93" unicode="&#x1e93;" horiz-adv-x="519" 
d="M499 492l-11 -117l-242 -244h233l-10 -131h-443l11 125l234 236h-216l10 131h434zM155 -57h157l-12 -148h-157z" />
    <glyph glyph-name="uni1E97" unicode="&#x1e97;" horiz-adv-x="405" 
d="M270 199l-1 -14q0 -65 71 -65q17 0 46 3l-19 -126q-31 -5 -60 -5q-216 0 -216 179q0 19 1 29l13 161h-92l10 131h92l11 143h178l-11 -143h118l-10 -131h-118zM55 849h157l-12 -150h-157zM253 849h157l-12 -150h-157z" />
    <glyph glyph-name="uni1E9E" unicode="&#x1e9e;" horiz-adv-x="719" 
d="M652 309.5q36 -43.5 36 -108.5q0 -58 -30.5 -105t-85.5 -74.5t-125 -27.5q-55 0 -97.5 12t-90.5 42l57 128q73 -48 129 -48q34 0 51.5 19.5t17.5 57.5q0 44 -25.5 62t-88.5 18h-90l12 142h86q37 0 56.5 18.5t19.5 53.5q0 33 -26 52.5t-68 19.5q-58 0 -91 -29t-38 -85
l-36 -457h-180l36 448q11 125 94 194.5t225 69.5q79 0 137 -24.5t89 -68.5t31 -101q0 -53 -25.5 -91.5t-77.5 -59.5q62 -14 98 -57.5z" />
    <glyph glyph-name="uni1EA0" unicode="&#x1ea0;" horiz-adv-x="761" 
d="M586 0l-52 146h-313l-74 -146h-188l384 705h146l275 -705h-178zM291 284h195l-81 226zM279 -57h157l-12 -148h-157z" />
    <glyph glyph-name="uni1EA1" unicode="&#x1ea1;" horiz-adv-x="552" 
d="M455.5 456.5q52.5 -47.5 52.5 -146.5q0 -12 -2 -36l-21 -274h-167l5 62q-18 -33 -51 -51.5t-76 -18.5q-49 0 -88 19.5t-61.5 52.5t-22.5 74q0 57 28 91.5t89 50.5t162 16h36l1 7q2 37 -16.5 54t-62.5 17q-35 0 -78 -13.5t-80 -34.5l-36 117q41 27 105 44t125 17
q106 0 158.5 -47.5zM305.5 137q23.5 26 26.5 66l1 11h-27q-59 0 -85 -13t-26 -43q0 -21 14.5 -34t38.5 -13q34 0 57.5 26zM174 -57h157l-12 -148h-157z" />
    <glyph glyph-name="uni1EA2" unicode="&#x1ea2;" horiz-adv-x="761" 
d="M586 0l-52 146h-313l-74 -146h-188l384 705h146l275 -705h-178zM291 284h195l-81 226zM462 765h-82l2 23q1 18 13 27t32 18q12 5 18 9t6 9q0 12 -25 12q-28 0 -61 -11l-17 58q46 16 99 16q50 0 79 -17.5t29 -42.5q0 -21 -13.5 -32.5t-39.5 -22.5q-20 -9 -29 -15.5
t-10 -16.5z" />
    <glyph glyph-name="uni1EA3" unicode="&#x1ea3;" horiz-adv-x="552" 
d="M455.5 456.5q52.5 -47.5 52.5 -146.5q0 -12 -2 -36l-21 -274h-167l5 62q-18 -33 -51 -51.5t-76 -18.5q-49 0 -88 19.5t-61.5 52.5t-22.5 74q0 57 28 91.5t89 50.5t162 16h36l1 7q2 37 -16.5 54t-62.5 17q-35 0 -78 -13.5t-80 -34.5l-36 117q41 27 105 44t125 17
q106 0 158.5 -47.5zM305.5 137q23.5 26 26.5 66l1 11h-27q-59 0 -85 -13t-26 -43q0 -21 14.5 -34t38.5 -13q34 0 57.5 26zM350 556h-84l2 25q1 21 11 34t29 28q11 8 16.5 14.5t5.5 13.5q0 21 -28 21q-23 0 -47 -9l-18 66q48 15 96 15q52 0 80.5 -21t28.5 -51
q0 -26 -14.5 -42t-40.5 -33q-18 -11 -26.5 -19.5t-9.5 -19.5z" />
    <glyph glyph-name="uni1EA4" unicode="&#x1ea4;" horiz-adv-x="761" 
d="M586 0l-52 146h-313l-74 -146h-188l384 705h146l275 -705h-178zM291 284h195l-81 226zM527 873l70 141h150l-137 -141h-83zM235 765l148 135h98l126 -135h-125l-54 60l-66 -60h-127z" />
    <glyph glyph-name="uni1EA5" unicode="&#x1ea5;" horiz-adv-x="552" 
d="M455.5 456.5q52.5 -47.5 52.5 -146.5q0 -12 -2 -36l-21 -274h-167l5 62q-18 -33 -51 -51.5t-76 -18.5q-49 0 -88 19.5t-61.5 52.5t-22.5 74q0 57 28 91.5t89 50.5t162 16h36l1 7q2 37 -16.5 54t-62.5 17q-35 0 -78 -13.5t-80 -34.5l-36 117q41 27 105 44t125 17
q106 0 158.5 -47.5zM305.5 137q23.5 26 26.5 66l1 11h-27q-59 0 -85 -13t-26 -43q0 -21 14.5 -34t38.5 -13q34 0 57.5 26zM495 664h-83l71 141h149zM247 556h-127l148 135h98l126 -135h-125l-53 60z" />
    <glyph glyph-name="uni1EA6" unicode="&#x1ea6;" horiz-adv-x="761" 
d="M586 0l-52 146h-313l-74 -146h-188l384 705h146l275 -705h-178zM291 284h195l-81 226zM569 873l-111 141h132l61 -141h-82zM235 765l148 135h98l126 -135h-125l-54 60l-66 -60h-127z" />
    <glyph glyph-name="uni1EA7" unicode="&#x1ea7;" horiz-adv-x="552" 
d="M455.5 456.5q52.5 -47.5 52.5 -146.5q0 -12 -2 -36l-21 -274h-167l5 62q-18 -33 -51 -51.5t-76 -18.5q-49 0 -88 19.5t-61.5 52.5t-22.5 74q0 57 28 91.5t89 50.5t162 16h36l1 7q2 37 -16.5 54t-62.5 17q-35 0 -78 -13.5t-80 -34.5l-36 117q41 27 105 44t125 17
q106 0 158.5 -47.5zM305.5 137q23.5 26 26.5 66l1 11h-27q-59 0 -85 -13t-26 -43q0 -21 14.5 -34t38.5 -13q34 0 57.5 26zM454 664l-111 141h132l62 -141h-83zM120 556l148 135h98l126 -135h-125l-53 60l-67 -60h-127z" />
    <glyph glyph-name="uni1EA8" unicode="&#x1ea8;" horiz-adv-x="761" 
d="M586 0l-52 146h-313l-74 -146h-188l384 705h146l275 -705h-178zM291 284h195l-81 226zM528 895q2 20 16.5 30.5t33 18t18.5 10.5q0 5 -17 5q-29 0 -69 -9l-17 54q44 16 103 16q48 0 76 -15t28 -40q0 -21 -13.5 -32t-38.5 -21q-18 -7 -27.5 -13t-10.5 -17l-1 -7h-83z
M235 765l148 135h98l126 -135h-125l-54 60l-66 -60h-127z" />
    <glyph glyph-name="uni1EA9" unicode="&#x1ea9;" horiz-adv-x="552" 
d="M455.5 456.5q52.5 -47.5 52.5 -146.5q0 -12 -2 -36l-21 -274h-167l5 62q-18 -33 -51 -51.5t-76 -18.5q-49 0 -88 19.5t-61.5 52.5t-22.5 74q0 57 28 91.5t89 50.5t162 16h36l1 7q2 37 -16.5 54t-62.5 17q-35 0 -78 -13.5t-80 -34.5l-36 117q41 27 105 44t125 17
q106 0 158.5 -47.5zM305.5 137q23.5 26 26.5 66l1 11h-27q-59 0 -85 -13t-26 -43q0 -21 14.5 -34t38.5 -13q34 0 57.5 26zM413 686q2 20 16.5 30.5t33 18t18.5 10.5q0 5 -16 5q-29 0 -70 -9l-16 54q44 16 102 16q48 0 76 -15t28 -40q0 -21 -13.5 -32t-38.5 -21
q-18 -7 -27.5 -13t-10.5 -17l-1 -7h-83zM120 556l148 135h98l126 -135h-125l-53 60l-67 -60h-127z" />
    <glyph glyph-name="uni1EAA" unicode="&#x1eaa;" horiz-adv-x="761" 
d="M586 0l-52 146h-313l-74 -146h-188l384 705h146l275 -705h-178zM291 284h195l-81 226zM424 931q-39 13 -61 13q-15 0 -24.5 -4.5t-12.5 -20.5h-72q2 48 38 77.5t81 29.5q19 0 37 -4t41 -12q37 -13 60 -13q17 0 25.5 4t11.5 21h72q-1 -47 -37 -77t-81 -30q-32 0 -78 16z
M235 765l148 135h98l126 -135h-125l-54 60l-66 -60h-127z" />
    <glyph glyph-name="uni1EAB" unicode="&#x1eab;" horiz-adv-x="552" 
d="M455.5 456.5q52.5 -47.5 52.5 -146.5q0 -12 -2 -36l-21 -274h-167l5 62q-18 -33 -51 -51.5t-76 -18.5q-49 0 -88 19.5t-61.5 52.5t-22.5 74q0 57 28 91.5t89 50.5t162 16h36l1 7q2 37 -16.5 54t-62.5 17q-35 0 -78 -13.5t-80 -34.5l-36 117q41 27 105 44t125 17
q106 0 158.5 -47.5zM305.5 137q23.5 26 26.5 66l1 11h-27q-59 0 -85 -13t-26 -43q0 -21 14.5 -34t38.5 -13q34 0 57.5 26zM177 787.5q36 29.5 81 29.5q20 0 36.5 -3.5t43.5 -11.5q39 -13 63 -13q14 0 21.5 4.5t10.5 19.5h72q-1 -47 -37 -77t-81 -30q-19 0 -37 4t-41 12
q-37 13 -60 13q-16 0 -25.5 -4.5t-12.5 -20.5h-72q2 48 38 77.5zM120 556l148 135h98l126 -135h-125l-53 60l-67 -60h-127z" />
    <glyph glyph-name="uni1EAC" unicode="&#x1eac;" horiz-adv-x="761" 
d="M586 0l-52 146h-313l-74 -146h-188l384 705h146l275 -705h-178zM291 284h195l-81 226zM279 -57h157l-12 -148h-157zM363 765h-128l149 157h98l125 -157h-129l-47 78z" />
    <glyph glyph-name="uni1EAD" unicode="&#x1ead;" horiz-adv-x="552" 
d="M455.5 456.5q52.5 -47.5 52.5 -146.5q0 -12 -2 -36l-21 -274h-167l5 62q-18 -33 -51 -51.5t-76 -18.5q-49 0 -88 19.5t-61.5 52.5t-22.5 74q0 57 28 91.5t89 50.5t162 16h36l1 7q2 37 -16.5 54t-62.5 17q-35 0 -78 -13.5t-80 -34.5l-36 117q41 27 105 44t125 17
q106 0 158.5 -47.5zM305.5 137q23.5 26 26.5 66l1 11h-27q-59 0 -85 -13t-26 -43q0 -21 14.5 -34t38.5 -13q34 0 57.5 26zM174 -57h157l-12 -148h-157zM257 556h-137l151 206h102l119 -206h-130l-48 106z" />
    <glyph glyph-name="uni1EAE" unicode="&#x1eae;" horiz-adv-x="761" 
d="M586 0l-52 146h-313l-74 -146h-188l384 705h146l275 -705h-178zM291 284h195l-81 226zM379 873l106 141h156l-162 -141h-100zM311 788.5q-49 28.5 -66 81.5l60 24q16 -23 52 -36t78 -13q32 0 69 14t54 35l55 -24q-23 -52 -73 -81t-112 -29q-68 0 -117 28.5z" />
    <glyph glyph-name="uni1EAF" unicode="&#x1eaf;" horiz-adv-x="552" 
d="M455.5 456.5q52.5 -47.5 52.5 -146.5q0 -12 -2 -36l-21 -274h-167l5 62q-18 -33 -51 -51.5t-76 -18.5q-49 0 -88 19.5t-61.5 52.5t-22.5 74q0 57 28 91.5t89 50.5t162 16h36l1 7q2 37 -16.5 54t-62.5 17q-35 0 -78 -13.5t-80 -34.5l-36 117q41 27 105 44t125 17
q106 0 158.5 -47.5zM305.5 137q23.5 26 26.5 66l1 11h-27q-59 0 -85 -13t-26 -43q0 -21 14.5 -34t38.5 -13q34 0 57.5 26zM365 664h-101l107 141h155zM196 579.5q-49 28.5 -66 81.5l60 24q16 -23 52.5 -36t77.5 -13q32 0 69.5 14t53.5 35l55 -24q-23 -52 -73 -81t-111 -29
q-69 0 -118 28.5z" />
    <glyph glyph-name="uni1EB0" unicode="&#x1eb0;" horiz-adv-x="761" 
d="M586 0l-52 146h-313l-74 -146h-188l384 705h146l275 -705h-178zM291 284h195l-81 226zM379 873l-131 141h138l93 -141h-100zM311 788.5q-49 28.5 -66 81.5l60 24q16 -23 52 -36t78 -13q32 0 69 14t54 35l55 -24q-23 -52 -73 -81t-112 -29q-68 0 -117 28.5z" />
    <glyph glyph-name="uni1EB1" unicode="&#x1eb1;" horiz-adv-x="552" 
d="M455.5 456.5q52.5 -47.5 52.5 -146.5q0 -12 -2 -36l-21 -274h-167l5 62q-18 -33 -51 -51.5t-76 -18.5q-49 0 -88 19.5t-61.5 52.5t-22.5 74q0 57 28 91.5t89 50.5t162 16h36l1 7q2 37 -16.5 54t-62.5 17q-35 0 -78 -13.5t-80 -34.5l-36 117q41 27 105 44t125 17
q106 0 158.5 -47.5zM305.5 137q23.5 26 26.5 66l1 11h-27q-59 0 -85 -13t-26 -43q0 -21 14.5 -34t38.5 -13q34 0 57.5 26zM264 664l-131 141h138l94 -141h-101zM196 579.5q-49 28.5 -66 81.5l60 24q16 -23 52.5 -36t77.5 -13q32 0 69.5 14t53.5 35l55 -24q-23 -52 -73 -81
t-111 -29q-69 0 -118 28.5z" />
    <glyph glyph-name="uni1EB2" unicode="&#x1eb2;" horiz-adv-x="761" 
d="M586 0l-52 146h-313l-74 -146h-188l384 705h146l275 -705h-178zM291 284h195l-81 226zM390 895q2 20 16.5 30.5t33 18t18.5 10.5q0 5 -17 5q-30 0 -70 -9l-16 54q44 16 102 16q49 0 77 -15t28 -40q0 -21 -13.5 -31.5t-38.5 -21.5q-18 -6 -28 -12.5t-11 -17.5l-1 -7h-82z
M311 788.5q-49 28.5 -66 81.5l60 24q16 -23 52 -36t78 -13q32 0 69 14t54 35l55 -24q-23 -52 -73 -81t-112 -29q-68 0 -117 28.5z" />
    <glyph glyph-name="uni1EB3" unicode="&#x1eb3;" horiz-adv-x="552" 
d="M455.5 456.5q52.5 -47.5 52.5 -146.5q0 -12 -2 -36l-21 -274h-167l5 62q-18 -33 -51 -51.5t-76 -18.5q-49 0 -88 19.5t-61.5 52.5t-22.5 74q0 57 28 91.5t89 50.5t162 16h36l1 7q2 37 -16.5 54t-62.5 17q-35 0 -78 -13.5t-80 -34.5l-36 117q41 27 105 44t125 17
q106 0 158.5 -47.5zM305.5 137q23.5 26 26.5 66l1 11h-27q-59 0 -85 -13t-26 -43q0 -21 14.5 -34t38.5 -13q34 0 57.5 26zM275 686q2 20 16.5 30.5t33 18t18.5 10.5q0 5 -17 5q-30 0 -70 -9l-16 54q44 16 103 16q48 0 76 -15t28 -40q0 -21 -13.5 -31.5t-38.5 -21.5
q-18 -6 -28 -12.5t-11 -17.5l-1 -7h-82zM196 579.5q-49 28.5 -66 81.5l60 24q16 -23 52.5 -36t77.5 -13q32 0 69.5 14t53.5 35l55 -24q-23 -52 -73 -81t-111 -29q-69 0 -118 28.5z" />
    <glyph glyph-name="uni1EB4" unicode="&#x1eb4;" horiz-adv-x="761" 
d="M586 0l-52 146h-313l-74 -146h-188l384 705h146l275 -705h-178zM291 284h195l-81 226zM423 924q-15 5 -31 8.5t-30 3.5q-32 0 -37 -23h-72q2 47 38 76t81 29q32 0 78 -14q15 -5 31 -8.5t29 -3.5q17 0 25.5 4t11.5 19h72q-1 -46 -37 -75.5t-81 -29.5q-32 0 -78 14z
M311 788.5q-49 28.5 -66 81.5l60 24q16 -23 52 -36t78 -13q32 0 69 14t54 35l55 -24q-23 -52 -73 -81t-112 -29q-68 0 -117 28.5z" />
    <glyph glyph-name="uni1EB5" unicode="&#x1eb5;" horiz-adv-x="552" 
d="M455.5 456.5q52.5 -47.5 52.5 -146.5q0 -12 -2 -36l-21 -274h-167l5 62q-18 -33 -51 -51.5t-76 -18.5q-49 0 -88 19.5t-61.5 52.5t-22.5 74q0 57 28 91.5t89 50.5t162 16h36l1 7q2 37 -16.5 54t-62.5 17q-35 0 -78 -13.5t-80 -34.5l-36 117q41 27 105 44t125 17
q106 0 158.5 -47.5zM305.5 137q23.5 26 26.5 66l1 11h-27q-59 0 -85 -13t-26 -43q0 -21 14.5 -34t38.5 -13q34 0 57.5 26zM308 715q-15 5 -31 8.5t-30 3.5t-24 -4.5t-13 -18.5h-72q2 47 38 76t81 29q32 0 78 -14q15 -5 31 -8.5t30 -3.5q16 0 24.5 4t11.5 19h72
q-1 -46 -37 -75.5t-81 -29.5q-32 0 -78 14zM196 579.5q-49 28.5 -66 81.5l60 24q16 -23 52.5 -36t77.5 -13q32 0 69.5 14t53.5 35l55 -24q-23 -52 -73 -81t-111 -29q-69 0 -118 28.5z" />
    <glyph glyph-name="uni1EB6" unicode="&#x1eb6;" horiz-adv-x="761" 
d="M586 0l-52 146h-313l-74 -146h-188l384 705h146l275 -705h-178zM291 284h195l-81 226zM279 -57h157l-12 -148h-157zM313 803.5q-50 30.5 -67 79.5l81 32q14 -18 42.5 -29.5t64.5 -11.5q33 0 62 11t44 30l74 -32q-18 -48 -67.5 -79t-115.5 -31q-68 0 -118 30.5z" />
    <glyph glyph-name="uni1EB7" unicode="&#x1eb7;" horiz-adv-x="552" 
d="M455.5 456.5q52.5 -47.5 52.5 -146.5q0 -12 -2 -36l-21 -274h-167l5 62q-18 -33 -51 -51.5t-76 -18.5q-49 0 -88 19.5t-61.5 52.5t-22.5 74q0 57 28 91.5t89 50.5t162 16h36l1 7q2 37 -16.5 54t-62.5 17q-35 0 -78 -13.5t-80 -34.5l-36 117q41 27 105 44t125 17
q106 0 158.5 -47.5zM305.5 137q23.5 26 26.5 66l1 11h-27q-59 0 -85 -13t-26 -43q0 -21 14.5 -34t38.5 -13q34 0 57.5 26zM174 -57h157l-12 -148h-157zM194.5 615.5q-51.5 39.5 -68.5 112.5l79 32q20 -39 50.5 -57.5t66.5 -18.5q67 0 116 76l75 -33q-19 -73 -74.5 -112
t-124.5 -39q-68 0 -119.5 39.5z" />
    <glyph glyph-name="uni1EB8" unicode="&#x1eb8;" horiz-adv-x="597" 
d="M591 563h-322l-11 -134h302l-11 -141h-302l-12 -146h323l-12 -142h-501l56 705h502zM231 -57h157l-12 -148h-157z" />
    <glyph glyph-name="uni1EB9" unicode="&#x1eb9;" horiz-adv-x="535" 
d="M445.5 442q60.5 -62 60.5 -177q0 -26 -3 -53h-303q12 -90 109 -90q71 0 138 46l36 -117q-33 -28 -82.5 -43.5t-104.5 -15.5q-79 0 -139.5 30t-94 84.5t-33.5 127.5q0 78 33.5 139.5t91 96t128.5 34.5q103 0 163.5 -62zM231.5 363.5q-21.5 -20.5 -29.5 -67.5h159
q-3 88 -73 88q-35 0 -56.5 -20.5zM197 -57h157l-12 -148h-157z" />
    <glyph glyph-name="uni1EBA" unicode="&#x1eba;" horiz-adv-x="597" 
d="M591 563h-322l-11 -134h302l-11 -141h-302l-12 -146h323l-12 -142h-501l56 705h502zM415 765h-82l2 23q1 18 13 27t32 18q12 5 18 9t6 9q0 12 -25 12q-28 0 -61 -11l-17 58q46 16 99 16q50 0 79 -17.5t29 -42.5q0 -21 -13.5 -32.5t-39.5 -22.5q-20 -9 -29 -15.5
t-10 -16.5z" />
    <glyph glyph-name="uni1EBB" unicode="&#x1ebb;" horiz-adv-x="535" 
d="M445.5 442q60.5 -62 60.5 -177q0 -26 -3 -53h-303q12 -90 109 -90q71 0 138 46l36 -117q-33 -28 -82.5 -43.5t-104.5 -15.5q-79 0 -139.5 30t-94 84.5t-33.5 127.5q0 78 33.5 139.5t91 96t128.5 34.5q103 0 163.5 -62zM231.5 363.5q-21.5 -20.5 -29.5 -67.5h159
q-3 88 -73 88q-35 0 -56.5 -20.5zM345 556h-84l2 25q1 21 11 34t29 28q11 8 16.5 14.5t5.5 13.5q0 21 -28 21q-23 0 -47 -9l-18 66q48 15 96 15q52 0 80.5 -21t28.5 -51q0 -26 -14.5 -42t-40.5 -33q-18 -11 -26.5 -19.5t-9.5 -19.5z" />
    <glyph glyph-name="uni1EBC" unicode="&#x1ebc;" horiz-adv-x="597" 
d="M591 563h-322l-11 -134h302l-11 -141h-302l-12 -146h323l-12 -142h-501l56 705h502zM235.5 886.5q35.5 37.5 87.5 37.5q18 0 34.5 -7t37.5 -21q21 -12 31.5 -17t22.5 -5q39 0 44 47h73q-5 -82 -41 -120t-88 -38q-18 0 -33 7t-38 21q-19 12 -30.5 17.5t-23.5 5.5
q-39 0 -44 -48h-72q4 83 39.5 120.5z" />
    <glyph glyph-name="uni1EBD" unicode="&#x1ebd;" horiz-adv-x="535" 
d="M445.5 442q60.5 -62 60.5 -177q0 -26 -3 -53h-303q12 -90 109 -90q71 0 138 46l36 -117q-33 -28 -82.5 -43.5t-104.5 -15.5q-79 0 -139.5 30t-94 84.5t-33.5 127.5q0 78 33.5 139.5t91 96t128.5 34.5q103 0 163.5 -62zM231.5 363.5q-21.5 -20.5 -29.5 -67.5h159
q-3 88 -73 88q-35 0 -56.5 -20.5zM163 702q35 38 82 38q21 0 39.5 -7.5t41.5 -21.5q17 -10 29 -15.5t23 -5.5q37 0 44 47h73q-6 -82 -40.5 -119.5t-81.5 -37.5q-21 0 -39 7.5t-41 21.5q-19 11 -30.5 16t-22.5 5q-36 0 -44 -47h-72q4 81 39 119z" />
    <glyph glyph-name="uni1EBE" unicode="&#x1ebe;" horiz-adv-x="597" 
d="M591 563h-322l-11 -134h302l-11 -141h-302l-12 -146h323l-12 -142h-501l56 705h502zM480 873l70 141h150l-137 -141h-83zM188 765l148 135h98l126 -135h-125l-54 60l-66 -60h-127z" />
    <glyph glyph-name="uni1EBF" unicode="&#x1ebf;" horiz-adv-x="535" 
d="M445.5 442q60.5 -62 60.5 -177q0 -26 -3 -53h-303q12 -90 109 -90q71 0 138 46l36 -117q-33 -28 -82.5 -43.5t-104.5 -15.5q-79 0 -139.5 30t-94 84.5t-33.5 127.5q0 78 33.5 139.5t91 96t128.5 34.5q103 0 163.5 -62zM231.5 363.5q-21.5 -20.5 -29.5 -67.5h159
q-3 88 -73 88q-35 0 -56.5 -20.5zM490 664h-83l71 141h149zM242 556h-127l148 135h98l126 -135h-125l-53 60z" />
    <glyph glyph-name="uni1EC0" unicode="&#x1ec0;" horiz-adv-x="597" 
d="M591 563h-322l-11 -134h302l-11 -141h-302l-12 -146h323l-12 -142h-501l56 705h502zM522 873l-111 141h132l61 -141h-82zM188 765l148 135h98l126 -135h-125l-54 60l-66 -60h-127z" />
    <glyph glyph-name="uni1EC1" unicode="&#x1ec1;" horiz-adv-x="535" 
d="M445.5 442q60.5 -62 60.5 -177q0 -26 -3 -53h-303q12 -90 109 -90q71 0 138 46l36 -117q-33 -28 -82.5 -43.5t-104.5 -15.5q-79 0 -139.5 30t-94 84.5t-33.5 127.5q0 78 33.5 139.5t91 96t128.5 34.5q103 0 163.5 -62zM231.5 363.5q-21.5 -20.5 -29.5 -67.5h159
q-3 88 -73 88q-35 0 -56.5 -20.5zM449 664l-111 141h132l62 -141h-83zM115 556l148 135h98l126 -135h-125l-53 60l-67 -60h-127z" />
    <glyph glyph-name="uni1EC2" unicode="&#x1ec2;" horiz-adv-x="597" 
d="M591 563h-322l-11 -134h302l-11 -141h-302l-12 -146h323l-12 -142h-501l56 705h502zM481 895q2 20 16.5 30.5t33 18t18.5 10.5q0 5 -17 5q-29 0 -69 -9l-17 54q44 16 103 16q48 0 76 -15t28 -40q0 -21 -13.5 -32t-38.5 -21q-18 -7 -27.5 -13t-10.5 -17l-1 -7h-83z
M188 765l148 135h98l126 -135h-125l-54 60l-66 -60h-127z" />
    <glyph glyph-name="uni1EC3" unicode="&#x1ec3;" horiz-adv-x="535" 
d="M445.5 442q60.5 -62 60.5 -177q0 -26 -3 -53h-303q12 -90 109 -90q71 0 138 46l36 -117q-33 -28 -82.5 -43.5t-104.5 -15.5q-79 0 -139.5 30t-94 84.5t-33.5 127.5q0 78 33.5 139.5t91 96t128.5 34.5q103 0 163.5 -62zM231.5 363.5q-21.5 -20.5 -29.5 -67.5h159
q-3 88 -73 88q-35 0 -56.5 -20.5zM408 686q2 20 16.5 30.5t33 18t18.5 10.5q0 5 -16 5q-29 0 -70 -9l-16 54q44 16 102 16q48 0 76 -15t28 -40q0 -21 -13.5 -32t-38.5 -21q-18 -7 -27.5 -13t-10.5 -17l-1 -7h-83zM115 556l148 135h98l126 -135h-125l-53 60l-67 -60h-127z
" />
    <glyph glyph-name="uni1EC4" unicode="&#x1ec4;" horiz-adv-x="597" 
d="M591 563h-322l-11 -134h302l-11 -141h-302l-12 -146h323l-12 -142h-501l56 705h502zM377 931q-39 13 -61 13q-15 0 -24.5 -4.5t-12.5 -20.5h-72q2 48 38 77.5t81 29.5q19 0 37 -4t41 -12q37 -13 60 -13q17 0 25.5 4t11.5 21h72q-1 -47 -37 -77t-81 -30q-32 0 -78 16z
M188 765l148 135h98l126 -135h-125l-54 60l-66 -60h-127z" />
    <glyph glyph-name="uni1EC5" unicode="&#x1ec5;" horiz-adv-x="535" 
d="M445.5 442q60.5 -62 60.5 -177q0 -26 -3 -53h-303q12 -90 109 -90q71 0 138 46l36 -117q-33 -28 -82.5 -43.5t-104.5 -15.5q-79 0 -139.5 30t-94 84.5t-33.5 127.5q0 78 33.5 139.5t91 96t128.5 34.5q103 0 163.5 -62zM231.5 363.5q-21.5 -20.5 -29.5 -67.5h159
q-3 88 -73 88q-35 0 -56.5 -20.5zM172 787.5q36 29.5 81 29.5q20 0 36.5 -3.5t43.5 -11.5q39 -13 63 -13q14 0 21.5 4.5t10.5 19.5h72q-1 -47 -37 -77t-81 -30q-19 0 -37 4t-41 12q-37 13 -60 13q-16 0 -25.5 -4.5t-12.5 -20.5h-72q2 48 38 77.5zM115 556l148 135h98
l126 -135h-125l-53 60l-67 -60h-127z" />
    <glyph glyph-name="uni1EC6" unicode="&#x1ec6;" horiz-adv-x="597" 
d="M591 563h-322l-11 -134h302l-11 -141h-302l-12 -146h323l-12 -142h-501l56 705h502zM231 -57h157l-12 -148h-157zM316 765h-128l149 157h98l125 -157h-129l-47 78z" />
    <glyph glyph-name="uni1EC7" unicode="&#x1ec7;" horiz-adv-x="535" 
d="M445.5 442q60.5 -62 60.5 -177q0 -26 -3 -53h-303q12 -90 109 -90q71 0 138 46l36 -117q-33 -28 -82.5 -43.5t-104.5 -15.5q-79 0 -139.5 30t-94 84.5t-33.5 127.5q0 78 33.5 139.5t91 96t128.5 34.5q103 0 163.5 -62zM231.5 363.5q-21.5 -20.5 -29.5 -67.5h159
q-3 88 -73 88q-35 0 -56.5 -20.5zM197 -57h157l-12 -148h-157zM252 556h-137l151 206h102l119 -206h-130l-48 106z" />
    <glyph glyph-name="uni1EC8" unicode="&#x1ec8;" horiz-adv-x="312" 
d="M45 0l55 705h184l-55 -705h-184zM238 765h-82l2 23q1 18 13 27t32 18q12 5 18 9t6 9q0 12 -25 12q-28 0 -61 -11l-17 58q46 16 99 16q50 0 79 -17.5t29 -42.5q0 -21 -13.5 -32.5t-39.5 -22.5q-20 -9 -29 -15.5t-10 -16.5z" />
    <glyph glyph-name="uni1EC9" unicode="&#x1ec9;" horiz-adv-x="281" 
d="M33 0l39 492h178l-39 -492h-178zM210 556h-84l2 25q1 21 11 34t29 28q11 8 16.5 14.5t5.5 13.5q0 21 -28 21q-23 0 -47 -9l-18 66q48 15 96 15q52 0 80.5 -21t28.5 -51q0 -26 -14.5 -42t-40.5 -33q-18 -11 -26.5 -19.5t-9.5 -19.5z" />
    <glyph glyph-name="uni1ECA" unicode="&#x1eca;" horiz-adv-x="312" 
d="M45 0l55 705h184l-55 -705h-184zM54 -57h157l-12 -148h-157z" />
    <glyph glyph-name="uni1ECB" unicode="&#x1ecb;" horiz-adv-x="281" 
d="M33 0l39 492h178l-39 -492h-178zM87 738h186l-13 -161h-185zM39 -57h157l-12 -148h-157z" />
    <glyph glyph-name="uni1ECC" unicode="&#x1ecc;" horiz-adv-x="796" 
d="M218 31.5q-79 41.5 -121.5 118t-42.5 181.5q0 114 44 201.5t125 135t188 47.5q106 0 185 -41.5t121.5 -118.5t42.5 -181q0 -114 -44.5 -201t-125.5 -135t-187 -48t-185 41.5zM529 196q47 64 47 178q0 95 -43 147t-120 52q-82 0 -129 -64.5t-47 -177.5q0 -96 42.5 -147.5
t121.5 -51.5q81 0 128 64zM297 -57h157l-12 -148h-157z" />
    <glyph glyph-name="uni1ECD" unicode="&#x1ecd;" 
d="M156 22q-61 30 -94 85.5t-33 128.5q0 83 34 143.5t95.5 92.5t143.5 32t143 -30t94 -85t33 -128q0 -84 -34 -144.5t-95.5 -92.5t-143.5 -32t-143 30zM372.5 163q23.5 40 23.5 102q0 55 -22.5 81.5t-68.5 26.5q-53 0 -76.5 -39.5t-23.5 -100.5q0 -56 22.5 -83t68.5 -27
q53 0 76.5 40zM198 -57h157l-12 -148h-157z" />
    <glyph glyph-name="uni1ECE" unicode="&#x1ece;" horiz-adv-x="796" 
d="M218 31.5q-79 41.5 -121.5 118t-42.5 181.5q0 114 44 201.5t125 135t188 47.5q106 0 185 -41.5t121.5 -118.5t42.5 -181q0 -114 -44.5 -201t-125.5 -135t-187 -48t-185 41.5zM529 196q47 64 47 178q0 95 -43 147t-120 52q-82 0 -129 -64.5t-47 -177.5q0 -96 42.5 -147.5
t121.5 -51.5q81 0 128 64zM480 765h-82l2 23q1 18 13 27t32 18q12 5 18 9t6 9q0 12 -25 12q-28 0 -61 -11l-17 58q46 16 99 16q50 0 79 -17.5t29 -42.5q0 -21 -13.5 -32.5t-39.5 -22.5q-20 -9 -29 -15.5t-10 -16.5z" />
    <glyph glyph-name="uni1ECF" unicode="&#x1ecf;" 
d="M156 22q-61 30 -94 85.5t-33 128.5q0 83 34 143.5t95.5 92.5t143.5 32t143 -30t94 -85t33 -128q0 -84 -34 -144.5t-95.5 -92.5t-143.5 -32t-143 30zM372.5 163q23.5 40 23.5 102q0 55 -22.5 81.5t-68.5 26.5q-53 0 -76.5 -39.5t-23.5 -100.5q0 -56 22.5 -83t68.5 -27
q53 0 76.5 40zM369 556h-84l2 25q1 21 11 34t29 28q11 8 16.5 14.5t5.5 13.5q0 21 -28 21q-23 0 -47 -9l-18 66q48 15 96 15q52 0 80.5 -21t28.5 -51q0 -26 -14.5 -42t-40.5 -33q-18 -11 -26.5 -19.5t-9.5 -19.5z" />
    <glyph glyph-name="uni1ED0" unicode="&#x1ed0;" horiz-adv-x="796" 
d="M218 31.5q-79 41.5 -121.5 118t-42.5 181.5q0 114 44 201.5t125 135t188 47.5q106 0 185 -41.5t121.5 -118.5t42.5 -181q0 -114 -44.5 -201t-125.5 -135t-187 -48t-185 41.5zM529 196q47 64 47 178q0 95 -43 147t-120 52q-82 0 -129 -64.5t-47 -177.5q0 -96 42.5 -147.5
t121.5 -51.5q81 0 128 64zM545 873l70 141h150l-137 -141h-83zM253 765l148 135h98l126 -135h-125l-54 60l-66 -60h-127z" />
    <glyph glyph-name="uni1ED1" unicode="&#x1ed1;" 
d="M156 22q-61 30 -94 85.5t-33 128.5q0 83 34 143.5t95.5 92.5t143.5 32t143 -30t94 -85t33 -128q0 -84 -34 -144.5t-95.5 -92.5t-143.5 -32t-143 30zM372.5 163q23.5 40 23.5 102q0 55 -22.5 81.5t-68.5 26.5q-53 0 -76.5 -39.5t-23.5 -100.5q0 -56 22.5 -83t68.5 -27
q53 0 76.5 40zM514 664h-83l71 141h149zM266 556h-127l148 135h98l126 -135h-125l-53 60z" />
    <glyph glyph-name="uni1ED2" unicode="&#x1ed2;" horiz-adv-x="796" 
d="M218 31.5q-79 41.5 -121.5 118t-42.5 181.5q0 114 44 201.5t125 135t188 47.5q106 0 185 -41.5t121.5 -118.5t42.5 -181q0 -114 -44.5 -201t-125.5 -135t-187 -48t-185 41.5zM529 196q47 64 47 178q0 95 -43 147t-120 52q-82 0 -129 -64.5t-47 -177.5q0 -96 42.5 -147.5
t121.5 -51.5q81 0 128 64zM587 873l-111 141h132l61 -141h-82zM253 765l148 135h98l126 -135h-125l-54 60l-66 -60h-127z" />
    <glyph glyph-name="uni1ED3" unicode="&#x1ed3;" 
d="M156 22q-61 30 -94 85.5t-33 128.5q0 83 34 143.5t95.5 92.5t143.5 32t143 -30t94 -85t33 -128q0 -84 -34 -144.5t-95.5 -92.5t-143.5 -32t-143 30zM372.5 163q23.5 40 23.5 102q0 55 -22.5 81.5t-68.5 26.5q-53 0 -76.5 -39.5t-23.5 -100.5q0 -56 22.5 -83t68.5 -27
q53 0 76.5 40zM473 664l-111 141h132l62 -141h-83zM139 556l148 135h98l126 -135h-125l-53 60l-67 -60h-127z" />
    <glyph glyph-name="uni1ED4" unicode="&#x1ed4;" horiz-adv-x="796" 
d="M218 31.5q-79 41.5 -121.5 118t-42.5 181.5q0 114 44 201.5t125 135t188 47.5q106 0 185 -41.5t121.5 -118.5t42.5 -181q0 -114 -44.5 -201t-125.5 -135t-187 -48t-185 41.5zM529 196q47 64 47 178q0 95 -43 147t-120 52q-82 0 -129 -64.5t-47 -177.5q0 -96 42.5 -147.5
t121.5 -51.5q81 0 128 64zM546 895q2 20 16.5 30.5t33 18t18.5 10.5q0 5 -17 5q-29 0 -69 -9l-17 54q44 16 103 16q48 0 76 -15t28 -40q0 -21 -13.5 -32t-38.5 -21q-18 -7 -27.5 -13t-10.5 -17l-1 -7h-83zM253 765l148 135h98l126 -135h-125l-54 60l-66 -60h-127z" />
    <glyph glyph-name="uni1ED5" unicode="&#x1ed5;" 
d="M156 22q-61 30 -94 85.5t-33 128.5q0 83 34 143.5t95.5 92.5t143.5 32t143 -30t94 -85t33 -128q0 -84 -34 -144.5t-95.5 -92.5t-143.5 -32t-143 30zM372.5 163q23.5 40 23.5 102q0 55 -22.5 81.5t-68.5 26.5q-53 0 -76.5 -39.5t-23.5 -100.5q0 -56 22.5 -83t68.5 -27
q53 0 76.5 40zM432 686q2 20 16.5 30.5t33 18t18.5 10.5q0 5 -16 5q-29 0 -70 -9l-16 54q44 16 102 16q48 0 76 -15t28 -40q0 -21 -13.5 -32t-38.5 -21q-18 -7 -27.5 -13t-10.5 -17l-1 -7h-83zM139 556l148 135h98l126 -135h-125l-53 60l-67 -60h-127z" />
    <glyph glyph-name="uni1ED6" unicode="&#x1ed6;" horiz-adv-x="796" 
d="M218 31.5q-79 41.5 -121.5 118t-42.5 181.5q0 114 44 201.5t125 135t188 47.5q106 0 185 -41.5t121.5 -118.5t42.5 -181q0 -114 -44.5 -201t-125.5 -135t-187 -48t-185 41.5zM529 196q47 64 47 178q0 95 -43 147t-120 52q-82 0 -129 -64.5t-47 -177.5q0 -96 42.5 -147.5
t121.5 -51.5q81 0 128 64zM442 931q-39 13 -61 13q-15 0 -24.5 -4.5t-12.5 -20.5h-72q2 48 38 77.5t81 29.5q19 0 37 -4t41 -12q37 -13 60 -13q17 0 25.5 4t11.5 21h72q-1 -47 -37 -77t-81 -30q-32 0 -78 16zM253 765l148 135h98l126 -135h-125l-54 60l-66 -60h-127z" />
    <glyph glyph-name="uni1ED7" unicode="&#x1ed7;" 
d="M156 22q-61 30 -94 85.5t-33 128.5q0 83 34 143.5t95.5 92.5t143.5 32t143 -30t94 -85t33 -128q0 -84 -34 -144.5t-95.5 -92.5t-143.5 -32t-143 30zM372.5 163q23.5 40 23.5 102q0 55 -22.5 81.5t-68.5 26.5q-53 0 -76.5 -39.5t-23.5 -100.5q0 -56 22.5 -83t68.5 -27
q53 0 76.5 40zM196 787.5q36 29.5 81 29.5q20 0 36.5 -3.5t43.5 -11.5q39 -13 63 -13q14 0 21.5 4.5t10.5 19.5h72q-1 -47 -37 -77t-81 -30q-19 0 -37 4t-41 12q-37 13 -60 13q-16 0 -25.5 -4.5t-12.5 -20.5h-72q2 48 38 77.5zM139 556l148 135h98l126 -135h-125l-53 60
l-67 -60h-127z" />
    <glyph glyph-name="uni1ED8" unicode="&#x1ed8;" horiz-adv-x="796" 
d="M218 31.5q-79 41.5 -121.5 118t-42.5 181.5q0 114 44 201.5t125 135t188 47.5q106 0 185 -41.5t121.5 -118.5t42.5 -181q0 -114 -44.5 -201t-125.5 -135t-187 -48t-185 41.5zM529 196q47 64 47 178q0 95 -43 147t-120 52q-82 0 -129 -64.5t-47 -177.5q0 -96 42.5 -147.5
t121.5 -51.5q81 0 128 64zM297 -57h157l-12 -148h-157zM381 765h-128l149 157h98l125 -157h-129l-47 78z" />
    <glyph glyph-name="uni1ED9" unicode="&#x1ed9;" 
d="M156 22q-61 30 -94 85.5t-33 128.5q0 83 34 143.5t95.5 92.5t143.5 32t143 -30t94 -85t33 -128q0 -84 -34 -144.5t-95.5 -92.5t-143.5 -32t-143 30zM372.5 163q23.5 40 23.5 102q0 55 -22.5 81.5t-68.5 26.5q-53 0 -76.5 -39.5t-23.5 -100.5q0 -56 22.5 -83t68.5 -27
q53 0 76.5 40zM198 -57h157l-12 -148h-157zM276 556h-137l151 206h102l119 -206h-130l-48 106z" />
    <glyph glyph-name="uni1EDA" unicode="&#x1eda;" horiz-adv-x="796" 
d="M753.5 678.5q-35.5 -42.5 -89.5 -52.5q47 -45 71.5 -109t24.5 -143q0 -114 -44.5 -201t-125.5 -135t-187 -48t-185 41.5t-121.5 118t-42.5 181.5q0 115 45 202t128 134.5t194 47.5q35 0 81 -6q36 -4 54 -4q46 0 64.5 21.5t21.5 76.5l3 22h152l-4 -43q-4 -61 -39.5 -103.5
zM529 196q47 64 47 178q0 95 -43 147t-120 52q-82 0 -129 -64.5t-47 -177.5q0 -96 42.5 -147.5t121.5 -51.5q81 0 128 64zM493 765h-108l111 157h168z" />
    <glyph glyph-name="uni1EDB" unicode="&#x1edb;" 
d="M633 616l-4 -43q-4 -56 -33.5 -98t-76.5 -56q26 -31 39.5 -72t13.5 -86q0 -84 -34 -144.5t-95.5 -92.5t-143.5 -32t-143 30t-94 85.5t-33 128.5q0 83 34 143.5t95.5 92.5t143.5 32q16 0 58 -4q36 -4 44 -4q29 0 50 20t26 78l1 22h152zM372.5 163q23.5 40 23.5 102
q0 55 -22.5 81.5t-68.5 26.5q-53 0 -76.5 -39.5t-23.5 -100.5q0 -56 22.5 -83t68.5 -27q53 0 76.5 40zM379 556h-108l110 206h177z" />
    <glyph glyph-name="uni1EDC" unicode="&#x1edc;" horiz-adv-x="796" 
d="M753.5 678.5q-35.5 -42.5 -89.5 -52.5q47 -45 71.5 -109t24.5 -143q0 -114 -44.5 -201t-125.5 -135t-187 -48t-185 41.5t-121.5 118t-42.5 181.5q0 115 45 202t128 134.5t194 47.5q35 0 81 -6q36 -4 54 -4q46 0 64.5 21.5t21.5 76.5l3 22h152l-4 -43q-4 -61 -39.5 -103.5
zM529 196q47 64 47 178q0 95 -43 147t-120 52q-82 0 -129 -64.5t-47 -177.5q0 -96 42.5 -147.5t121.5 -51.5q81 0 128 64zM385 765l-138 157h150l96 -157h-108z" />
    <glyph glyph-name="uni1EDD" unicode="&#x1edd;" 
d="M633 616l-4 -43q-4 -56 -33.5 -98t-76.5 -56q26 -31 39.5 -72t13.5 -86q0 -84 -34 -144.5t-95.5 -92.5t-143.5 -32t-143 30t-94 85.5t-33 128.5q0 83 34 143.5t95.5 92.5t143.5 32q16 0 58 -4q36 -4 44 -4q29 0 50 20t26 78l1 22h152zM372.5 163q23.5 40 23.5 102
q0 55 -22.5 81.5t-68.5 26.5q-53 0 -76.5 -39.5t-23.5 -100.5q0 -56 22.5 -83t68.5 -27q53 0 76.5 40zM271 556l-137 206h159l86 -206h-108z" />
    <glyph glyph-name="uni1EDE" unicode="&#x1ede;" horiz-adv-x="796" 
d="M753.5 678.5q-35.5 -42.5 -89.5 -52.5q47 -45 71.5 -109t24.5 -143q0 -114 -44.5 -201t-125.5 -135t-187 -48t-185 41.5t-121.5 118t-42.5 181.5q0 115 45 202t128 134.5t194 47.5q35 0 81 -6q36 -4 54 -4q46 0 64.5 21.5t21.5 76.5l3 22h152l-4 -43q-4 -61 -39.5 -103.5
zM529 196q47 64 47 178q0 95 -43 147t-120 52q-82 0 -129 -64.5t-47 -177.5q0 -96 42.5 -147.5t121.5 -51.5q81 0 128 64zM480 765h-82l2 23q1 18 13 27t32 18q12 5 18 9t6 9q0 12 -25 12q-28 0 -61 -11l-17 58q46 16 99 16q50 0 79 -17.5t29 -42.5q0 -21 -13.5 -32.5
t-39.5 -22.5q-20 -9 -29 -15.5t-10 -16.5z" />
    <glyph glyph-name="uni1EDF" unicode="&#x1edf;" 
d="M633 616l-4 -43q-4 -56 -33.5 -98t-76.5 -56q26 -31 39.5 -72t13.5 -86q0 -84 -34 -144.5t-95.5 -92.5t-143.5 -32t-143 30t-94 85.5t-33 128.5q0 83 34 143.5t95.5 92.5t143.5 32q16 0 58 -4q36 -4 44 -4q29 0 50 20t26 78l1 22h152zM372.5 163q23.5 40 23.5 102
q0 55 -22.5 81.5t-68.5 26.5q-53 0 -76.5 -39.5t-23.5 -100.5q0 -56 22.5 -83t68.5 -27q53 0 76.5 40zM369 556h-84l2 25q1 21 11 34t29 28q11 8 16.5 14.5t5.5 13.5q0 21 -28 21q-23 0 -47 -9l-18 66q48 15 96 15q52 0 80.5 -21t28.5 -51q0 -26 -14.5 -42t-40.5 -33
q-18 -11 -26.5 -19.5t-9.5 -19.5z" />
    <glyph glyph-name="uni1EE0" unicode="&#x1ee0;" horiz-adv-x="796" 
d="M753.5 678.5q-35.5 -42.5 -89.5 -52.5q47 -45 71.5 -109t24.5 -143q0 -114 -44.5 -201t-125.5 -135t-187 -48t-185 41.5t-121.5 118t-42.5 181.5q0 115 45 202t128 134.5t194 47.5q35 0 81 -6q36 -4 54 -4q46 0 64.5 21.5t21.5 76.5l3 22h152l-4 -43q-4 -61 -39.5 -103.5
zM529 196q47 64 47 178q0 95 -43 147t-120 52q-82 0 -129 -64.5t-47 -177.5q0 -96 42.5 -147.5t121.5 -51.5q81 0 128 64zM300.5 886.5q35.5 37.5 87.5 37.5q18 0 34.5 -7t37.5 -21q21 -12 31.5 -17t22.5 -5q39 0 44 47h73q-5 -82 -41 -120t-88 -38q-18 0 -33 7t-38 21
q-19 12 -30.5 17.5t-23.5 5.5q-39 0 -44 -48h-72q4 83 39.5 120.5z" />
    <glyph glyph-name="uni1EE1" unicode="&#x1ee1;" 
d="M633 616l-4 -43q-4 -56 -33.5 -98t-76.5 -56q26 -31 39.5 -72t13.5 -86q0 -84 -34 -144.5t-95.5 -92.5t-143.5 -32t-143 30t-94 85.5t-33 128.5q0 83 34 143.5t95.5 92.5t143.5 32q16 0 58 -4q36 -4 44 -4q29 0 50 20t26 78l1 22h152zM372.5 163q23.5 40 23.5 102
q0 55 -22.5 81.5t-68.5 26.5q-53 0 -76.5 -39.5t-23.5 -100.5q0 -56 22.5 -83t68.5 -27q53 0 76.5 40zM187 702q35 38 82 38q21 0 39.5 -7.5t41.5 -21.5q17 -10 29 -15.5t23 -5.5q37 0 44 47h73q-6 -82 -40.5 -119.5t-81.5 -37.5q-21 0 -39 7.5t-41 21.5q-19 11 -30.5 16
t-22.5 5q-36 0 -44 -47h-72q4 81 39 119z" />
    <glyph glyph-name="uni1EE2" unicode="&#x1ee2;" horiz-adv-x="796" 
d="M753.5 678.5q-35.5 -42.5 -89.5 -52.5q47 -45 71.5 -109t24.5 -143q0 -114 -44.5 -201t-125.5 -135t-187 -48t-185 41.5t-121.5 118t-42.5 181.5q0 115 45 202t128 134.5t194 47.5q35 0 81 -6q36 -4 54 -4q46 0 64.5 21.5t21.5 76.5l3 22h152l-4 -43q-4 -61 -39.5 -103.5
zM529 196q47 64 47 178q0 95 -43 147t-120 52q-82 0 -129 -64.5t-47 -177.5q0 -96 42.5 -147.5t121.5 -51.5q81 0 128 64zM297 -57h157l-12 -148h-157z" />
    <glyph glyph-name="uni1EE3" unicode="&#x1ee3;" 
d="M633 616l-4 -43q-4 -56 -33.5 -98t-76.5 -56q26 -31 39.5 -72t13.5 -86q0 -84 -34 -144.5t-95.5 -92.5t-143.5 -32t-143 30t-94 85.5t-33 128.5q0 83 34 143.5t95.5 92.5t143.5 32q16 0 58 -4q36 -4 44 -4q29 0 50 20t26 78l1 22h152zM372.5 163q23.5 40 23.5 102
q0 55 -22.5 81.5t-68.5 26.5q-53 0 -76.5 -39.5t-23.5 -100.5q0 -56 22.5 -83t68.5 -27q53 0 76.5 40zM198 -57h157l-12 -148h-157z" />
    <glyph glyph-name="uni1EE4" unicode="&#x1ee4;" horiz-adv-x="745" 
d="M62 267q0 14 2 42l32 396h180l-31 -403q-1 -11 -1 -31q0 -71 33 -105t102 -34q56 0 88 33.5t39 114.5l34 425h181l-33 -413q-11 -149 -91.5 -225t-226.5 -76q-308 0 -308 276zM270 -57h157l-12 -148h-157z" />
    <glyph glyph-name="uni1EE5" unicode="&#x1ee5;" 
d="M567 492l-39 -492h-173l5 56q-26 -30 -66 -47t-87 -17q-80 0 -122 45.5t-42 132.5q0 11 2 35l22 287h178l-22 -277l-1 -15q0 -35 16 -53.5t47 -18.5q37 0 58 25.5t24 68.5l22 270h178zM196 -57h157l-12 -148h-157z" />
    <glyph glyph-name="uni1EE6" unicode="&#x1ee6;" horiz-adv-x="745" 
d="M62 267q0 14 2 42l32 396h180l-31 -403q-1 -11 -1 -31q0 -71 33 -105t102 -34q56 0 88 33.5t39 114.5l34 425h181l-33 -413q-11 -149 -91.5 -225t-226.5 -76q-308 0 -308 276zM454 765h-82l2 23q1 18 13 27t32 18q12 5 18 9t6 9q0 12 -25 12q-28 0 -61 -11l-17 58
q46 16 99 16q50 0 79 -17.5t29 -42.5q0 -21 -13.5 -32.5t-39.5 -22.5q-20 -9 -29 -15.5t-10 -16.5z" />
    <glyph glyph-name="uni1EE7" unicode="&#x1ee7;" 
d="M567 492l-39 -492h-173l5 56q-26 -30 -66 -47t-87 -17q-80 0 -122 45.5t-42 132.5q0 11 2 35l22 287h178l-22 -277l-1 -15q0 -35 16 -53.5t47 -18.5q37 0 58 25.5t24 68.5l22 270h178zM367 556h-84l2 25q1 21 11 34t29 28q11 8 16.5 14.5t5.5 13.5q0 21 -28 21
q-23 0 -47 -9l-18 66q48 15 96 15q52 0 80.5 -21t28.5 -51q0 -26 -14.5 -42t-40.5 -33q-18 -11 -26.5 -19.5t-9.5 -19.5z" />
    <glyph glyph-name="uni1EE8" unicode="&#x1ee8;" horiz-adv-x="745" 
d="M841 825l-3 -43q-5 -59 -37 -100t-86 -54l-27 -336q-12 -149 -92 -225t-226 -76q-308 0 -308 276q0 14 2 42l32 396h180l-31 -403q-1 -11 -1 -31q0 -71 33 -105t102 -34q56 0 88 33.5t39 114.5l34 425h53q49 0 69.5 21.5t24.5 76.5l2 22h152zM467 765h-108l111 157h168z
" />
    <glyph glyph-name="uni1EE9" unicode="&#x1ee9;" horiz-adv-x="628" 
d="M687 616l-4 -43q-4 -56 -37.5 -97.5t-84.5 -55.5l-33 -420h-173l5 56q-26 -30 -66 -47t-87 -17q-80 0 -122 45.5t-42 132.5q0 11 2 35l22 287h178l-22 -277l-1 -15q0 -35 16 -53.5t47 -18.5q37 0 58 25.5t24 68.5l22 270h50q48 0 70 23t24 79l1 22h153zM378 556h-108
l110 206h177z" />
    <glyph glyph-name="uni1EEA" unicode="&#x1eea;" horiz-adv-x="745" 
d="M841 825l-3 -43q-5 -59 -37 -100t-86 -54l-27 -336q-12 -149 -92 -225t-226 -76q-308 0 -308 276q0 14 2 42l32 396h180l-31 -403q-1 -11 -1 -31q0 -71 33 -105t102 -34q56 0 88 33.5t39 114.5l34 425h53q49 0 69.5 21.5t24.5 76.5l2 22h152zM359 765l-138 157h150
l96 -157h-108z" />
    <glyph glyph-name="uni1EEB" unicode="&#x1eeb;" horiz-adv-x="628" 
d="M687 616l-4 -43q-4 -56 -37.5 -97.5t-84.5 -55.5l-33 -420h-173l5 56q-26 -30 -66 -47t-87 -17q-80 0 -122 45.5t-42 132.5q0 11 2 35l22 287h178l-22 -277l-1 -15q0 -35 16 -53.5t47 -18.5q37 0 58 25.5t24 68.5l22 270h50q48 0 70 23t24 79l1 22h153zM270 556l-137 206
h159l86 -206h-108z" />
    <glyph glyph-name="uni1EEC" unicode="&#x1eec;" horiz-adv-x="745" 
d="M841 825l-3 -43q-5 -59 -37 -100t-86 -54l-27 -336q-12 -149 -92 -225t-226 -76q-308 0 -308 276q0 14 2 42l32 396h180l-31 -403q-1 -11 -1 -31q0 -71 33 -105t102 -34q56 0 88 33.5t39 114.5l34 425h53q49 0 69.5 21.5t24.5 76.5l2 22h152zM454 765h-82l2 23
q1 18 13 27t32 18q12 5 18 9t6 9q0 12 -25 12q-28 0 -61 -11l-17 58q46 16 99 16q50 0 79 -17.5t29 -42.5q0 -21 -13.5 -32.5t-39.5 -22.5q-20 -9 -29 -15.5t-10 -16.5z" />
    <glyph glyph-name="uni1EED" unicode="&#x1eed;" horiz-adv-x="628" 
d="M687 616l-4 -43q-4 -56 -37.5 -97.5t-84.5 -55.5l-33 -420h-173l5 56q-26 -30 -66 -47t-87 -17q-80 0 -122 45.5t-42 132.5q0 11 2 35l22 287h178l-22 -277l-1 -15q0 -35 16 -53.5t47 -18.5q37 0 58 25.5t24 68.5l22 270h50q48 0 70 23t24 79l1 22h153zM368 556h-84l2 25
q1 21 11 34t29 28q11 8 16.5 14.5t5.5 13.5q0 21 -28 21q-23 0 -47 -9l-18 66q48 15 96 15q52 0 80.5 -21t28.5 -51q0 -26 -14.5 -42t-40.5 -33q-18 -11 -26.5 -19.5t-9.5 -19.5z" />
    <glyph glyph-name="uni1EEE" unicode="&#x1eee;" horiz-adv-x="745" 
d="M841 825l-3 -43q-5 -59 -37 -100t-86 -54l-27 -336q-12 -149 -92 -225t-226 -76q-308 0 -308 276q0 14 2 42l32 396h180l-31 -403q-1 -11 -1 -31q0 -71 33 -105t102 -34q56 0 88 33.5t39 114.5l34 425h53q49 0 69.5 21.5t24.5 76.5l2 22h152zM274.5 886.5
q35.5 37.5 87.5 37.5q18 0 34.5 -7t37.5 -21q21 -12 31.5 -17t22.5 -5q39 0 44 47h73q-5 -82 -41 -120t-88 -38q-18 0 -33 7t-38 21q-19 12 -30.5 17.5t-23.5 5.5q-39 0 -44 -48h-72q4 83 39.5 120.5z" />
    <glyph glyph-name="uni1EEF" unicode="&#x1eef;" horiz-adv-x="628" 
d="M687 616l-4 -43q-4 -56 -37.5 -97.5t-84.5 -55.5l-33 -420h-173l5 56q-26 -30 -66 -47t-87 -17q-80 0 -122 45.5t-42 132.5q0 11 2 35l22 287h178l-22 -277l-1 -15q0 -35 16 -53.5t47 -18.5q37 0 58 25.5t24 68.5l22 270h50q48 0 70 23t24 79l1 22h153zM186 702
q35 38 82 38q21 0 39.5 -7.5t41.5 -21.5q17 -10 29 -15.5t23 -5.5q37 0 44 47h73q-6 -82 -40.5 -119.5t-81.5 -37.5q-21 0 -39 7.5t-41 21.5q-19 11 -30.5 16t-22.5 5q-36 0 -44 -47h-72q4 81 39 119z" />
    <glyph glyph-name="uni1EF0" unicode="&#x1ef0;" horiz-adv-x="745" 
d="M841 825l-3 -43q-5 -59 -37 -100t-86 -54l-27 -336q-12 -149 -92 -225t-226 -76q-308 0 -308 276q0 14 2 42l32 396h180l-31 -403q-1 -11 -1 -31q0 -71 33 -105t102 -34q56 0 88 33.5t39 114.5l34 425h53q49 0 69.5 21.5t24.5 76.5l2 22h152zM270 -57h157l-12 -148h-157z
" />
    <glyph glyph-name="uni1EF1" unicode="&#x1ef1;" horiz-adv-x="628" 
d="M687 616l-4 -43q-4 -56 -37.5 -97.5t-84.5 -55.5l-33 -420h-173l5 56q-26 -30 -66 -47t-87 -17q-80 0 -122 45.5t-42 132.5q0 11 2 35l22 287h178l-22 -277l-1 -15q0 -35 16 -53.5t47 -18.5q37 0 58 25.5t24 68.5l22 270h50q48 0 70 23t24 79l1 22h153zM197 -57h157
l-12 -148h-157z" />
    <glyph glyph-name="Ygrave" unicode="&#x1ef2;" horiz-adv-x="650" 
d="M751 705l-328 -391l-25 -314h-184l25 315l-266 390h204l163 -244l200 244h211zM312 765l-138 157h150l96 -157h-108z" />
    <glyph glyph-name="ygrave" unicode="&#x1ef3;" horiz-adv-x="541" 
d="M405 491h177l-353 -671h-180l115 215l-163 456h180l90 -276zM242 556l-137 206h159l86 -206h-108z" />
    <glyph glyph-name="uni1EF4" unicode="&#x1ef4;" horiz-adv-x="650" 
d="M751 705l-328 -391l-25 -314h-184l25 315l-266 390h204l163 -244l200 244h211zM224 -57h157l-12 -148h-157z" />
    <glyph glyph-name="uni1EF5" unicode="&#x1ef5;" horiz-adv-x="541" 
d="M405 491h177l-353 -671h-180l115 215l-163 456h180l90 -276zM333 -57h157l-12 -148h-157z" />
    <glyph glyph-name="uni1EF6" unicode="&#x1ef6;" horiz-adv-x="650" 
d="M751 705l-328 -391l-25 -314h-184l25 315l-266 390h204l163 -244l200 244h211zM407 765h-82l2 23q1 18 13 27t32 18q12 5 18 9t6 9q0 12 -25 12q-28 0 -61 -11l-17 58q46 16 99 16q50 0 79 -17.5t29 -42.5q0 -21 -13.5 -32.5t-39.5 -22.5q-20 -9 -29 -15.5t-10 -16.5z
" />
    <glyph glyph-name="uni1EF7" unicode="&#x1ef7;" horiz-adv-x="541" 
d="M405 491h177l-353 -671h-180l115 215l-163 456h180l90 -276zM340 556h-84l2 25q1 21 11 34t29 28q11 8 16.5 14.5t5.5 13.5q0 21 -28 21q-23 0 -47 -9l-18 66q48 15 96 15q52 0 80.5 -21t28.5 -51q0 -26 -14.5 -42t-40.5 -33q-18 -11 -26.5 -19.5t-9.5 -19.5z" />
    <glyph glyph-name="uni1EF8" unicode="&#x1ef8;" horiz-adv-x="650" 
d="M751 705l-328 -391l-25 -314h-184l25 315l-266 390h204l163 -244l200 244h211zM227.5 886.5q35.5 37.5 87.5 37.5q18 0 34.5 -7t37.5 -21q21 -12 31.5 -17t22.5 -5q39 0 44 47h73q-5 -82 -41 -120t-88 -38q-18 0 -33 7t-38 21q-19 12 -30.5 17.5t-23.5 5.5q-39 0 -44 -48
h-72q4 83 39.5 120.5z" />
    <glyph glyph-name="uni1EF9" unicode="&#x1ef9;" horiz-adv-x="541" 
d="M405 491h177l-353 -671h-180l115 215l-163 456h180l90 -276zM158 702q35 38 82 38q21 0 39.5 -7.5t41.5 -21.5q17 -10 29 -15.5t23 -5.5q37 0 44 47h73q-6 -82 -40.5 -119.5t-81.5 -37.5q-21 0 -39 7.5t-41 21.5q-19 11 -30.5 16t-22.5 5q-36 0 -44 -47h-72q4 81 39 119z
" />
    <glyph glyph-name="uni2007" unicode="&#x2007;" 
 />
    <glyph glyph-name="uni2008" unicode="&#x2008;" horiz-adv-x="272" 
 />
    <glyph glyph-name="uni2009" unicode="&#x2009;" horiz-adv-x="200" 
 />
    <glyph glyph-name="uni200A" unicode="&#x200a;" horiz-adv-x="100" 
 />
    <glyph glyph-name="uni200B" unicode="&#x200b;" horiz-adv-x="0" 
 />
    <glyph glyph-name="uni2010" unicode="&#x2010;" horiz-adv-x="446" 
d="M59 199l11 139h321l-12 -139h-320z" />
    <glyph glyph-name="figuredash" unicode="&#x2012;" 
d="M60 218l8 101h475l-8 -101h-475z" />
    <glyph glyph-name="endash" unicode="&#x2013;" horiz-adv-x="500" 
d="M-2 218l7 101h500l-7 -101h-500z" />
    <glyph glyph-name="emdash" unicode="&#x2014;" horiz-adv-x="1000" 
d="M-2 218l7 101h1000l-7 -101h-1000z" />
    <glyph glyph-name="uni2015" unicode="&#x2015;" horiz-adv-x="1000" 
d="M-2 218l7 101h1000l-7 -101h-1000z" />
    <glyph glyph-name="quoteleft" unicode="&#x2018;" horiz-adv-x="272" 
d="M254 558l-15 -182h-184l8 115q5 64 32.5 116t86.5 107l62 -54q-58 -53 -75 -102h85z" />
    <glyph glyph-name="quoteright" unicode="&#x2019;" horiz-adv-x="272" 
d="M264 705l-9 -115q-5 -63 -32 -115t-86 -107l-62 53q57 54 74 102h-84l14 182h185z" />
    <glyph glyph-name="quotesinglbase" unicode="&#x201a;" horiz-adv-x="272" 
d="M224 182l-9 -109q-5 -66 -32.5 -119.5t-86.5 -108.5l-63 53q58 53 75 102h-84l15 182h185z" />
    <glyph glyph-name="quotedblleft" unicode="&#x201c;" horiz-adv-x="495" 
d="M254 558l-15 -182h-184l8 115q5 64 32.5 116t86.5 107l62 -54q-58 -53 -75 -102h85zM477 558l-15 -182h-184l8 115q5 64 32.5 116t86.5 107l62 -54q-58 -53 -75 -102h85z" />
    <glyph glyph-name="quotedblright" unicode="&#x201d;" horiz-adv-x="495" 
d="M264 705l-9 -115q-5 -63 -32 -115t-86 -107l-62 53q57 54 74 102h-84l14 182h185zM487 705l-9 -115q-5 -63 -32 -115t-86 -107l-62 53q57 54 74 102h-84l14 182h185z" />
    <glyph glyph-name="quotedblbase" unicode="&#x201e;" horiz-adv-x="495" 
d="M224 182l-9 -109q-5 -66 -32.5 -119.5t-86.5 -108.5l-63 53q58 53 75 102h-84l15 182h185zM447 182l-9 -109q-5 -66 -32.5 -119.5t-86.5 -108.5l-63 53q58 53 75 102h-84l15 182h185z" />
    <glyph glyph-name="dagger" unicode="&#x2020;" horiz-adv-x="370" 
d="M287 713l-9 -120h100l-9 -111h-100l-25 -317h-130l25 317h-100l9 111h100l9 120h130z" />
    <glyph glyph-name="daggerdbl" unicode="&#x2021;" horiz-adv-x="370" 
d="M287 713l-9 -118h100l-9 -112h-100l-7 -89h100l-9 -110h-100l-9 -120h-130l9 120h-100l9 110h100l7 89h-100l9 112h100l9 118h130z" />
    <glyph glyph-name="bullet" unicode="&#x2022;" horiz-adv-x="524" 
d="M173 111.5q-42 23.5 -66.5 64t-24.5 89.5q0 46 23.5 87t65 66t92.5 25q48 0 89.5 -23.5t66.5 -64t25 -90.5q0 -48 -24.5 -88.5t-66 -64.5t-90.5 -24q-48 0 -90 23.5z" />
    <glyph glyph-name="ellipsis" unicode="&#x2026;" horiz-adv-x="815" 
d="M39 182h185l-15 -182h-185zM311 182h184l-14 -182h-185zM582 182h185l-14 -182h-185z" />
    <glyph glyph-name="perthousand" unicode="&#x2030;" horiz-adv-x="1365" 
d="M313 -32l-104 70l460 699l104 -70zM97.5 338q-48.5 51 -48.5 146q0 109 51.5 171.5t140.5 62.5q88 0 136.5 -51.5t48.5 -145.5q0 -112 -50 -173t-141 -61q-89 0 -137.5 51zM283 536q0 38 -9.5 55.5t-31.5 17.5q-27 0 -38.5 -35t-11.5 -105q0 -39 9.5 -56.5t31.5 -17.5
q50 0 50 141zM602.5 44.5q-48.5 51.5 -48.5 146.5q0 108 51.5 170.5t140.5 62.5q88 0 136.5 -51.5t48.5 -145.5q0 -112 -50 -173t-141 -61q-89 0 -137.5 51.5zM1003.5 44.5q-48.5 51.5 -48.5 146.5q0 108 51.5 170.5t140.5 62.5q88 0 136.5 -51.5t48.5 -145.5
q0 -112 -50 -173t-141 -61q-89 0 -137.5 51.5zM788 242q0 38 -9.5 56t-31.5 18q-27 0 -38.5 -35.5t-11.5 -105.5q0 -39 9.5 -56.5t31.5 -17.5q50 0 50 141zM1189 242q0 38 -9.5 56t-31.5 18q-27 0 -38.5 -35.5t-11.5 -105.5q0 -39 9.5 -56.5t31.5 -17.5q50 0 50 141z" />
    <glyph glyph-name="minute" unicode="&#x2032;" horiz-adv-x="268" 
d="M87 398l-19 307h203l-65 -307h-119z" />
    <glyph glyph-name="second" unicode="&#x2033;" horiz-adv-x="487" 
d="M87 398l-19 307h203l-65 -307h-119zM307 398l-20 307h204l-66 -307h-118z" />
    <glyph glyph-name="guilsinglleft" unicode="&#x2039;" horiz-adv-x="320" 
d="M157 62l-96 161l7 86l117 163l114 -55l-83 -151l57 -153z" />
    <glyph glyph-name="guilsinglright" unicode="&#x203a;" horiz-adv-x="312" 
d="M136 60l-112 54l84 152l-57 152l118 52l94 -161l-7 -86z" />
    <glyph glyph-name="fraction" unicode="&#x2044;" horiz-adv-x="210" 
d="M-64 -32l-104 71l460 698l104 -71z" />
    <glyph glyph-name="uni2070" unicode="&#x2070;" horiz-adv-x="380" 
d="M77.5 329q-45.5 50 -45.5 142q0 112 49.5 175.5t135.5 63.5q81 0 125.5 -51t44.5 -144q0 -110 -48.5 -173t-132.5 -63q-83 0 -128.5 50zM243 530q0 72 -27 72q-40 0 -40 -148q0 -67 30 -67q37 0 37 143z" />
    <glyph glyph-name="uni2074" unicode="&#x2074;" horiz-adv-x="380" 
d="M394 444l-7 -106h-59l-4 -56h-131l4 56h-184l8 102l219 265h117l-20 -261h57zM139 444h67l7 86z" />
    <glyph glyph-name="uni2075" unicode="&#x2075;" horiz-adv-x="380" 
d="M344.5 531q35.5 -33 35.5 -92q0 -50 -24.5 -87t-66.5 -56t-93 -19q-44 0 -88.5 9t-75.5 25l27 108q59 -28 120 -28q34 0 48 7t14 22q0 16 -13.5 23t-43.5 7q-28 0 -66 -7h-61l21 262h296l-9 -116h-166l-3 -35q24 10 59 10q54 0 89.5 -33z" />
    <glyph glyph-name="uni2076" unicode="&#x2076;" horiz-adv-x="380" 
d="M342 521.5q35 -33.5 35 -95.5q0 -66 -45 -107t-119 -41q-85 0 -132 47t-47 132q0 117 59.5 184.5t162.5 67.5q33 0 66.5 -9t62.5 -25l-28 -109q-50 30 -103 30q-63 0 -75 -58q26 17 64 17q64 0 99 -33.5zM251 419q0 39 -39 39q-40 0 -40 -43q0 -17 9.5 -27t26.5 -10
q43 0 43 41z" />
    <glyph glyph-name="uni2077" unicode="&#x2077;" horiz-adv-x="380" 
d="M62 705h331l-9 -122l-177 -302l-170 1l182 301h-168z" />
    <glyph glyph-name="uni2078" unicode="&#x2078;" horiz-adv-x="380" 
d="M363.5 465q18.5 -24 18.5 -59q0 -59 -49.5 -94t-135.5 -35q-80 0 -127.5 33t-47.5 86q0 43 23 70t66 36q-31 12 -47 35.5t-16 52.5q0 55 48 87t127 32q75 0 118.5 -31t43.5 -80q0 -36 -19.5 -62.5t-55.5 -36.5q35 -10 53.5 -34zM255 577q0 15 -8.5 21.5t-27.5 6.5
q-41 0 -41 -29t36 -29q41 0 41 30zM249 414q0 13 -11.5 21t-33.5 8q-49 0 -49 -33q0 -30 45 -30q49 0 49 34z" />
    <glyph glyph-name="uni2079" unicode="&#x2079;" horiz-adv-x="380" 
d="M338 662q47 -47 47 -132q0 -117 -59.5 -184.5t-162.5 -67.5q-33 0 -66.5 9t-62.5 25l28 109q50 -30 103 -30q63 0 75 58q-26 -17 -64 -17q-64 0 -99 33.5t-35 95.5q0 66 45 107t119 41q85 0 132 -47zM247 572q0 17 -9.5 27t-26.5 10q-43 0 -43 -41q0 -39 39 -39
q40 0 40 43z" />
    <glyph glyph-name="uni2080" unicode="&#x2080;" horiz-adv-x="380" 
d="M55.5 47q-45.5 50 -45.5 142q0 112 49.5 175.5t135.5 63.5q81 0 125.5 -51t44.5 -144q0 -110 -48.5 -173t-132.5 -63q-83 0 -128.5 50zM221 248q0 72 -27 72q-40 0 -40 -148q0 -67 30 -67q37 0 37 143z" />
    <glyph glyph-name="uni2081" unicode="&#x2081;" horiz-adv-x="380" 
d="M283 117h82l-9 -117h-315l9 117h82l12 149l-71 -34l-46 103l175 88h105z" />
    <glyph glyph-name="uni2082" unicode="&#x2082;" horiz-adv-x="380" 
d="M203 117h141l-9 -117h-313l9 110l137 130q32 29 32 51q0 13 -10.5 18.5t-33.5 5.5q-51 0 -105 -31l-10 109q27 15 69 24.5t81 9.5q72 0 117 -33t45 -88q0 -39 -19.5 -72t-76.5 -77z" />
    <glyph glyph-name="uni2083" unicode="&#x2083;" horiz-adv-x="380" 
d="M333 182.5q18 -23.5 18 -54.5q0 -60 -48.5 -96.5t-131.5 -36.5q-46 0 -91 9t-74 25l27 108q66 -30 129 -30q50 0 50 29q0 19 -37 19h-81l9 114h64q24 0 34 5.5t10 16.5q0 24 -44 24q-60 0 -116 -31l-10 109q27 16 68.5 25t81.5 9q73 0 117.5 -31.5t44.5 -85.5
q0 -33 -18.5 -57t-53.5 -36q34 -11 52 -34.5z" />
    <glyph glyph-name="uni2084" unicode="&#x2084;" horiz-adv-x="380" 
d="M372 162l-7 -106h-59l-4 -56h-131l4 56h-184l8 102l219 265h117l-20 -261h57zM117 162h67l7 86z" />
    <glyph glyph-name="uni2085" unicode="&#x2085;" horiz-adv-x="380" 
d="M322.5 249q35.5 -33 35.5 -92q0 -50 -24.5 -87t-66.5 -56t-93 -19q-44 0 -88.5 9t-75.5 25l27 108q59 -28 120 -28q34 0 48 7t14 22q0 16 -13.5 23t-43.5 7q-28 0 -66 -7h-61l21 262h296l-9 -116h-166l-3 -35q24 10 59 10q54 0 89.5 -33z" />
    <glyph glyph-name="uni2086" unicode="&#x2086;" horiz-adv-x="380" 
d="M320 239.5q35 -33.5 35 -95.5q0 -66 -45 -107t-119 -41q-85 0 -132 47t-47 132q0 117 59.5 184.5t162.5 67.5q33 0 66.5 -9t62.5 -25l-28 -109q-50 30 -103 30q-63 0 -75 -58q26 17 64 17q64 0 99 -33.5zM229 137q0 39 -39 39q-40 0 -40 -43q0 -17 9.5 -27t26.5 -10
q43 0 43 41z" />
    <glyph glyph-name="uni2087" unicode="&#x2087;" horiz-adv-x="380" 
d="M40 423h331l-9 -122l-177 -302l-170 1l182 301h-168z" />
    <glyph glyph-name="uni2088" unicode="&#x2088;" horiz-adv-x="380" 
d="M341.5 183q18.5 -24 18.5 -59q0 -59 -49.5 -94t-135.5 -35q-80 0 -127.5 33t-47.5 86q0 43 23 70t66 36q-31 12 -47 35.5t-16 52.5q0 55 48 87t127 32q75 0 118.5 -31t43.5 -80q0 -36 -19.5 -62.5t-55.5 -36.5q35 -10 53.5 -34zM233 295q0 15 -8.5 21.5t-27.5 6.5
q-41 0 -41 -29t36 -29q41 0 41 30zM227 132q0 13 -11.5 21t-33.5 8q-49 0 -49 -33q0 -30 45 -30q49 0 49 34z" />
    <glyph glyph-name="uni2089" unicode="&#x2089;" horiz-adv-x="380" 
d="M316 380q47 -47 47 -132q0 -117 -59.5 -184.5t-162.5 -67.5q-33 0 -66.5 9t-62.5 25l28 109q50 -30 103 -30q63 0 75 58q-26 -17 -64 -17q-64 0 -99 33.5t-35 95.5q0 66 45 107t119 41q85 0 132 -47zM225 290q0 17 -9.5 27t-26.5 10q-43 0 -43 -41q0 -39 39 -39
q40 0 40 43z" />
    <glyph glyph-name="colonmonetary" unicode="&#x20a1;" 
d="M265 497q-36 -72 -36 -176q0 -90 33.5 -137.5t98.5 -47.5q29 0 68.5 15.5t82.5 46.5l46 -130q-39 -34 -97 -55.5t-112 -21.5q-41 0 -73 7l-57 -121l-101 39l59 123q-18 11 -35 28l-65 -137l-101 39l96 201q-28 72 -28 158q0 102 34 185.5t99 136t154 62.5l52 108h115
l-53 -112q29 -5 46 -10l58 122h118l-80 -169l16 -14l-67 -130q-48 34 -84 48t-73 14q-78 0 -114 -72z" />
    <glyph glyph-name="franc" unicode="&#x20a3;" 
d="M616 499l-12 -141h-18q-62 0 -91.5 -24t-34.5 -84l-20 -250h-168l23 285h-83l-23 -285h-172l55 705h445l-11 -146h-273l-10 -127h83l5 60h154l-5 -67q20 42 53.5 58t88.5 16h14z" />
    <glyph glyph-name="lira" unicode="&#x20a4;" 
d="M276 146h289l-11 -146h-534l11 146h63l6 77h-62l7 105h64l3 50h-62l9 105h62l2 30q8 91 75.5 146t178.5 55q70 0 133.5 -19.5t105.5 -55.5l-67 -130q-98 63 -168 63q-35 0 -54.5 -18.5t-21.5 -53.5l-1 -17h153l-9 -105h-153l-4 -50h153l-8 -105h-154z" />
    <glyph glyph-name="uni20A6" unicode="&#x20a6;" 
d="M589 381h-75l-4 -51h76l-9 -104h-75l-18 -226h-144l-87 332l-27 -332h-148l18 226h-75l9 104h74l4 51h-75l9 104h75l17 220h144l84 -364l28 364h150l-17 -220h76z" />
    <glyph glyph-name="peseta" unicode="&#x20a7;" horiz-adv-x="1200" 
d="M1149 254q36 -31 36 -89q0 -50 -26.5 -89.5t-75 -61.5t-112.5 -22q-114 0 -191 40l-5 -36q-33 -4 -63 -4q-106 0 -160 41.5t-54 129.5q0 10 2 36l13 162h-51q-30 -68 -89 -107t-133 -39h-15l-17 -215h-177l55 705h192q93 0 150.5 -58.5t59.5 -154.5h35l11 143h178
l-11 -143h94l-10 -131h-94l-13 -163q-3 -40 13 -59t53 -19q10 0 36 2l23 50q39 -25 82.5 -38.5t84.5 -13.5q22 0 37 7.5t16 19.5q2 12 -4.5 19.5t-26 13.5t-60.5 14q-73 15 -109 52t-36 92q0 49 26.5 87t74 58.5t108.5 20.5q56 0 107 -15.5t91 -43.5l-55 -116
q-39 23 -77.5 35.5t-70.5 12.5q-18 0 -30 -9t-12 -23q0 -13 16.5 -21.5t63.5 -19.5q84 -19 120 -50zM303 382.5q18 29.5 18 93.5q0 49 -13.5 69.5t-45.5 20.5h-12l-17 -213h12q40 0 58 29.5z" />
    <glyph glyph-name="uni20A9" unicode="&#x20a9;" 
d="M589 381h-73l-11 -51h81l-9 -104h-95l-48 -226h-85l-39 389l-98 -389h-85l-13 226h-93l9 104h78l-3 51h-72l9 104h57l-13 220h124l6 -340l79 340h80l23 -344l63 344h124l-47 -220h61z" />
    <glyph glyph-name="dong" unicode="&#x20ab;" 
d="M632 536h-65l-43 -536h-176l5 64q-23 -34 -58.5 -53.5t-76.5 -19.5q-56 0 -98 28.5t-65 81t-23 122.5q0 84 26.5 148t75 99t111.5 35q43 0 79 -19t56 -52l8 102h-135l8 100h135l6 69h178l-5 -69h65zM346.5 164q23.5 40 23.5 101q0 49 -20 78t-53 29q-41 0 -65 -37
t-24 -101q0 -48 21.5 -79t56.5 -31q37 0 60.5 40zM26 -160l8 100h485l-8 -100h-485z" />
    <glyph glyph-name="Euro" unicode="&#x20ac;" 
d="M435.5 149.5q33.5 13.5 87.5 48.5l46 -130q-41 -35 -100 -56t-107 -21q-102 0 -168.5 60.5t-86.5 171.5h-86l8 105h70q0 26 3 50h-69l9 105h78q30 111 102 171t178 60q61 0 120 -21t94 -56l-67 -130q-49 35 -80.5 48.5t-61.5 13.5q-71 0 -103 -86h138l-9 -105h-150
q-2 -32 -2 -50h148l-8 -105h-136q8 -45 30.5 -66t61.5 -21q27 0 60.5 13.5z" />
    <glyph glyph-name="uni20AD" unicode="&#x20ad;" 
d="M576 302h-133l160 -302h-194l-151 295l-23 -295h-176l24 302h-56l8 100h55l24 303h176l-23 -292l192 292h199l-208 -303h134z" />
    <glyph glyph-name="uni20B1" unicode="&#x20b1;" 
d="M598 485h-63v-10q0 -14 -2 -40h61l-8 -105h-88q-32 -54 -86.5 -84.5t-127.5 -30.5h-12l-17 -215h-177l26 330h-74l7 105h75l4 50h-74l7 105h75l9 115h180q71 0 122 -30t76 -85h95zM368 476q0 50 -15.5 70t-55.5 20l-17 -213h12q76 0 76 123z" />
    <glyph glyph-name="uni20B2" unicode="&#x20b2;" 
d="M320 398h259l-28 -355q-108 -41 -164 -49l-8 -109h-140l9 119q-99 27 -155 112t-56 212q0 103 33 184t92.5 131t138.5 65l9 112h140l-9 -113q100 -17 154 -70l-67 -130q-48 34 -83.5 48t-73.5 14q-67 0 -108 -66t-41 -182q0 -92 34.5 -141t99.5 -49q16 0 38 7l11 134h-95
z" />
    <glyph glyph-name="uni20B5" unicode="&#x20b5;" 
d="M558 68q-30 -27 -74 -46t-89 -27l-8 -110h-140l9 118q-101 28 -156.5 114.5t-55.5 210.5q0 98 31.5 179t91 134t141.5 68l9 111h140l-9 -113q100 -17 155 -70l-67 -130q-48 34 -84 48t-73 14q-78 0 -114 -72t-36 -176q0 -90 33.5 -137.5t98.5 -47.5q29 0 68.5 15.5
t82.5 46.5z" />
    <glyph glyph-name="uni20B9" unicode="&#x20b9;" 
d="M498 601q16 -24 23 -51h83l-7 -104h-77q-14 -63 -58.5 -106.5t-109.5 -60.5q33 -6 57 -23.5t43 -49.5l127 -206h-221l-133 225q-12 20 -26.5 29t-35.5 9h-141l12 140h204q68 0 96 43h-297l8 104h301q-18 51 -92 51h-205l8 104h559l-7 -104h-111z" />
    <glyph glyph-name="uni20BA" unicode="&#x20ba;" 
d="M581 66q-98 -75 -256 -75q-114 0 -223 47l16 209l-66 -36l9 120l67 36l3 48l-66 -36l10 119l66 35l13 172h184l-5 -68l155 84l-10 -119l-155 -84l-4 -48l156 84l-10 -120l-155 -84l-16 -203q15 -6 30.5 -8.5t44.5 -2.5q27 0 69 13.5t96 46.5z" />
    <glyph glyph-name="uni20BC" unicode="&#x20bc;" 
d="M504.5 640.5q37.5 -48.5 55.5 -136.5t18 -225q0 -105 -13 -279h-178q23 285 23 401q0 112 -22 149l-21 -271h-128l21 273q-20 -26 -33.5 -86t-25 -166.5t-27.5 -299.5h-178q19 239 51.5 385t84.5 222.5t134 96.5l10 116h140l-10 -116q61 -15 98.5 -63.5z" />
    <glyph glyph-name="uni20BD" unicode="&#x20bd;" 
d="M276 293l-3 -50h150l-8 -105h-150l-10 -138h-177l11 138h-75l8 105h75l4 50h-75l9 105h74l24 307h240q115 0 177.5 -52.5t62.5 -146.5q0 -64 -30.5 -112.5t-85 -74.5t-125.5 -26h-96zM284 398h52q108 0 108 88q0 46 -26.5 66.5t-89.5 20.5h-31z" />
    <glyph glyph-name="uni2113" unicode="&#x2113;" 
d="M200 32.5q-42 50.5 -42 124.5v6l-49 -41l-55 57l104 90v246q0 56 23 100.5t64.5 69.5t95.5 25q68 0 105 -36t37 -104q0 -67 -33 -125t-94 -124l-34 -34v-98q0 -36 16.5 -55.5t39.5 -19.5q33 0 72 33l41 -95q-67 -70 -165 -70q-84 0 -126 50.5zM333 414q25 31 40.5 68.5
t15.5 66.5q0 19 -6 29.5t-23 10.5q-18 0 -28 -12.5t-10 -35.5v-138q8 6 11 11z" />
    </font>
</defs>
</svg>
