<svg viewBox="0 0 125 121" xmlns="http://www.w3.org/2000/svg">
<path d="M77.2214 10.7697C87.9226 14.1269 96.0867 25.2925 104.069 33.9807L107.398 38.8902C109.215 41.8443 109.546 41.8918 110.967 45.1091C114.244 52.5305 113.816 58.4132 112.634 66.1607C111.109 76.1535 105.62 87.3464 99.0778 93.4141C95.1312 97.0746 90.6001 100.796 85.9841 103.254C78.0139 107.499 68.1143 108.802 59.2518 109.825C51.5621 110.714 41.6892 107.447 34.5686 103.185C27.7546 99.1064 22.3184 93.4576 17.7784 86.2198C9.20805 72.5563 9.55315 52.4622 14.8802 38.9541C18.9339 28.6749 25.09 21.1337 34.5705 17.606C39.9591 15.6009 45.7824 14.5322 51.3263 13.0467C59.7587 10.7872 68.1857 7.93502 77.2214 10.7697Z" class="bkg"/>
<path d="M38.6254 66.2178L43.7454 85.326C44.2164 87.0839 46.0287 88.1275 47.7834 87.6573L63.7069 83.3906L57.7335 61.0978L38.6254 66.2178Z" class="ico"/>
<path d="M79.7976 41.5317L69.7212 44.2317C70.3119 43.5443 70.8015 42.8875 71.1168 42.332C72.9948 39.0605 71.8684 34.8567 68.6063 32.9626C65.4354 31.1157 61.0868 32.2877 59.2656 35.4654C58.2547 37.2211 56.1035 43.8425 57.6194 47.4744L57.3901 47.5358C56.8838 43.6335 51.7101 38.9747 49.9599 37.9589C46.7907 36.1183 42.4404 37.284 40.6192 40.4617C38.7444 43.7323 39.8708 47.9361 43.1266 49.8319C43.6806 50.1545 44.4331 50.4786 45.2882 50.7785L35.2119 53.4784C33.4571 53.9486 32.4103 55.7617 32.8805 57.5165L34.1605 62.2935C34.396 63.1725 35.3006 63.6947 36.1795 63.4592L56.8801 57.9125L55.1734 51.5431L61.5428 49.8364L63.2494 56.2058L83.95 50.6591C84.8289 50.4236 85.3512 49.5191 85.1156 48.6401L83.8356 43.8631C83.3655 42.1083 81.5556 41.0607 79.7976 41.5317ZM54.104 48.3037C54.104 48.3037 53.9984 48.4446 53.543 48.5666C51.3423 49.1563 46.529 47.9952 44.7861 46.9809C43.0916 45.9945 42.5045 43.8034 43.4788 42.1019C43.9512 41.279 44.7123 40.6928 45.6231 40.4487C46.5308 40.2055 47.483 40.3326 48.3036 40.8091C51.0286 42.3932 54.6404 47.3373 54.104 48.3037ZM61.4633 46.4444C61.0111 46.5656 60.85 46.4995 60.8492 46.4963C59.9015 45.9276 60.5572 39.84 62.1252 37.1056C63.0613 35.4656 65.3048 34.8576 66.95 35.8128C68.6477 36.7984 69.2348 38.9894 68.2573 40.6918C67.255 42.4417 63.6671 45.8539 61.4633 46.4444Z" class="ico"/>
<path d="M64.1029 59.3906L70.0763 81.6835L85.9997 77.4168C87.7577 76.9458 88.8021 75.1367 88.3311 73.3788L83.2111 54.2706L64.1029 59.3906Z" class="ico"/>
</svg>
