<svg viewBox="0 0 20 20" xmlns="http://www.w3.org/2000/svg">
<path d="M11.8323 10.0163L19.6199 2.22846C20.1267 1.7219 20.1267 0.902849 19.6199 0.396282C19.1134 -0.110284 18.2943 -0.110284 17.7877 0.396282L9.9999 8.18412L2.21229 0.396282C1.70548 -0.110284 0.88667 -0.110284 0.380103 0.396282C-0.126701 0.902849 -0.126701 1.7219 0.380103 2.22846L8.16771 10.0163L0.380103 17.8041C-0.126701 18.3107 -0.126701 19.1298 0.380103 19.6363C0.632556 19.889 0.964494 20.016 1.2962 20.016C1.6279 20.016 1.9596 19.889 2.21229 19.6363L9.9999 11.8485L17.7877 19.6363C18.0404 19.889 18.3721 20.016 18.7038 20.016C19.0355 20.016 19.3672 19.889 19.6199 19.6363C20.1267 19.1298 20.1267 18.3107 19.6199 17.8041L11.8323 10.0163Z" />
</svg>
