<?xml version="1.0" encoding="utf-8"?>
<svg version="1.1" xmlns="http://www.w3.org/2000/svg" viewBox="0 0 638 638" class="icon">
<g>
	<rect style="fill:#5F5DF9" width="638" height="638"/>
</g>
<g>
	<g>
		<path style="fill:#FFFFFF" d="M320.2,563.6c-94.6,0-172.2-76.8-172.2-171.2V245.6c0-94.4,77.5-171.2,172.2-171.2c84,0,155.5,60,169.4,142.7
			c2.2,13.3-6.6,25.9-19.9,28.2c-13.3,2.2-25.8-6.7-28.1-20.1c-10-59-60.3-101.9-120.4-101.9c-67.6,0-122.2,54.9-122.2,122.3v146.8
			c0,67.5,54.5,122.3,122.2,122.3c60,0,110.6-42.9,120.5-101.9c2.2-13.3,14.8-22.3,28.1-20.1c13.3,2.2,21.9,14.9,19.7,28.1
			C475.6,503.6,404.2,563.6,320.2,563.6z"/>
	</g>
	<g style="opacity:0.5">
		<path style="fill:#FFFFFF" d="M265.8,341c-13.5,0-23.5-11-23.5-24.5v-70.8c0-43.6,35.1-79,78.8-79c29.8,0,56.7,16.6,70.3,43.3
			c6.1,12,1.3,26.8-10.7,32.9c-12,6.1-26.8,1.4-33-10.7c-5.2-10.3-16.1-16.6-27.5-16.6c-16.7,0-30.8,13.5-30.8,30.1v70.8
			C289.4,330,279.3,341,265.8,341z"/>
	</g>
</g>
</svg>
