<!--
  - Copyright (c) TIKI Inc.
  - MIT license. See LICENSE file in root directory.
  -->

<svg preserveAspectRatio="none" viewBox="0 0 390 632" xmlns="http://www.w3.org/2000/svg">
  <path
    d="M256.182 28.2469C238.613 36.5536 219.358 45.6573 194.526 54.0572C148.183 69.7335 111.17 69.7806 72.1133 69.8304H72.1132C53.5024 69.8541 34.4276 69.8784 13.658 71.5946C9.31697 71.9533 4.73498 72.4199 0 72.9977V631.573C36.3591 632.231 63.1935 623.096 94.551 612.42C115.412 605.319 138.275 597.536 167.275 591.501C221.397 580.238 262.815 586.188 306.521 592.466L306.522 592.467C327.347 595.458 348.692 598.525 372.178 599.839C377.794 600.153 383.784 600.349 390 600.4V0.291345C388.129 0.178511 386.229 0.081259 384.299 0H353.903C312.56 1.59163 286.957 13.6964 256.182 28.2469Z"/>
</svg>
