<!--
  - Copyright (c) TIKI Inc.
  - MIT license. See LICENSE file in root directory.
  -->

<svg preserveAspectRatio="none" viewBox="0 0 1728 1212" xmlns="http://www.w3.org/2000/svg">
  <path
    d="M0 457.257V334.091C0.330942 333.798 0.664224 333.505 0.999826 333.213V329H6.06004C76.331 272.939 232.851 242.797 342.271 233.755C409.788 228.176 471.796 228.097 532.296 228.02C659.26 227.858 779.579 227.705 930.229 176.745C1010.95 149.439 1073.55 119.845 1130.66 92.8422C1230.92 45.4379 1314.29 6.01938 1449.21 0.984762C1568.02 -3.44863 1659.36 7.88515 1728 29.0673V1211.86C1706.26 1208.72 1685.41 1205.14 1666.03 1201.31C1591 1186.5 1523.67 1167.01 1457.97 1148C1320.09 1108.1 1189.43 1070.29 1010.12 1082.17C914.034 1088.53 836.924 1103.29 766.565 1116.76C643.049 1140.4 540.34 1160.05 392.32 1123.33C178.461 1070.26 58.0169 991.034 0 909.478V655.783C0.330319 655.383 0.663596 654.983 0.999826 654.583V458.367C0.663661 457.996 0.330389 457.626 0 457.257Z"/>
</svg>
