<?xml version="1.0" encoding="UTF-8"?>
<svg version="1.1" viewBox="0 0 100 100" xmlns="http://www.w3.org/2000/svg" class="icon">
 <g>
  <path d="m90.625 87.5h-3.125v-43.75c-0.003906-0.41016-0.082031-0.81641-0.24219-1.1953-0.15625-0.37891-0.38281-0.72266-0.67187-1.0156l-34.375-34.375c-1.2227-1.2188-3.1992-1.2188-4.4219 0l-34.375 34.375c-0.25 0.26172-0.45312 0.5625-0.60156 0.89063-0.042969 0.097656-0.070312 0.19531-0.10156 0.29297v0.003906c-0.09375 0.26563-0.15234 0.54297-0.17188 0.82422 0 0.070313-0.039062 0.125-0.039062 0.19531l0.003906 43.754h-3.1289c-1.7266 0-3.125 1.3984-3.125 3.125s1.3984 3.125 3.125 3.125h81.25c1.7266 0 3.125-1.3984 3.125-3.125s-1.3984-3.125-3.125-3.125zm-46.875 0v-12.5h12.5v12.5zm18.75 0v-15.625c0-0.82812-0.32812-1.625-0.91406-2.2109-0.58594-0.58594-1.3828-0.91406-2.2109-0.91406h-18.75c-1.7266 0-3.125 1.3984-3.125 3.125v15.625h-18.75v-40.625h46.875c1.7266 0 3.125-1.3984 3.125-3.125s-1.3984-3.125-3.125-3.125h-42.457l26.832-26.832 31.25 31.25v42.457z"/>
  <path d="m34.375 53.125h-6.25c-1.7266 0-3.125 1.3984-3.125 3.125s1.3984 3.125 3.125 3.125h6.25c1.7266 0 3.125-1.3984 3.125-3.125s-1.3984-3.125-3.125-3.125z"/>
  <path d="m75 56.25c0-0.82812-0.32812-1.625-0.91406-2.2109-0.58594-0.58594-1.3828-0.91406-2.2109-0.91406h-6.25c-1.7266 0-3.125 1.3984-3.125 3.125s1.3984 3.125 3.125 3.125h6.25c0.82812 0 1.625-0.32812 2.2109-0.91406 0.58594-0.58594 0.91406-1.3828 0.91406-2.2109z"/>
 </g>
</svg>
