<!--
  - Copyright (c) TIKI Inc.
  - MIT license. See LICENSE file in root directory.
  -->

<svg viewBox="0 0 206 206" xmlns="http://www.w3.org/2000/svg">
<path fill-rule="evenodd" d="M103 201C157.124 201 201 157.124 201 103C201 48.8761 157.124 5 103 5C48.8761 5 5 48.8761 5 103C5 157.124 48.8761 201 103 201ZM103 206C159.885 206 206 159.885 206 103C206 46.1147 159.885 0 103 0C46.1147 0 0 46.1147 0 103C0 159.885 46.1147 206 103 206Z" />
<path d="M46.0791 91.362L51.7539 103.634C52.0894 104.362 52.8231 104.828 53.6327 104.828C54.4404 104.828 55.1741 104.362 55.5114 103.634L61.1862 91.362C68.4461 88.3644 73.266 81.2648 73.266 73.4263C73.266 62.714 64.4589 54 53.6348 54C42.8104 54 34 62.7139 34 73.4263C34 81.2649 38.8169 88.3658 46.0791 91.362ZM53.6298 57.5C62.1772 57.5 69.9995 64.9673 69.9995 73.4251C69.9995 79.8458 66.0924 86.3009 59.9995 88.5C59.481 88.6869 58.2292 89.5026 57.9995 90L53.6327 100.5L48.9995 90C48.7698 89.5026 48.0179 88.6869 47.4995 88.5C41.406 86.2989 37.4995 79.8454 37.4995 73.4251C37.4991 64.9688 45.0824 57.5 53.6298 57.5ZM46.297 74.4028C45.4907 73.6049 45.4907 72.3109 46.297 71.513C47.1034 70.7151 48.411 70.7151 49.2173 71.513L52.9612 75.2178L60.0889 68.1645C60.8952 67.3666 62.2029 67.3666 63.0092 68.1645C63.8155 68.9624 63.8155 70.2564 63.0092 71.0543L54.4213 79.5525C54.0335 79.9362 53.5087 80.1505 52.9612 80.1505C52.4136 80.1505 51.8888 79.9349 51.5011 79.5525L46.297 74.4028ZM95.7633 78.0477L99.9957 73.8594L95.7633 69.6712C94.9569 68.8733 94.9569 67.5793 95.7633 66.7814C96.5696 65.9836 97.8773 65.9835 98.6835 66.7814L102.916 70.9683L107.148 66.7801C107.955 65.9821 109.262 65.9821 110.069 66.7801C110.875 67.578 110.875 68.872 110.069 69.6698L105.836 73.8581L110.069 78.0463C110.875 78.8442 110.875 80.1382 110.069 80.9361C109.665 81.3359 109.137 81.5341 108.609 81.5341C108.08 81.5341 107.551 81.3341 107.148 80.9361L102.916 76.7497L98.6837 80.9379C97.8773 81.7358 96.5697 81.7358 95.7634 80.9379C94.9557 80.1395 94.9556 78.8456 95.7633 78.0477Z" />
<path d="M59.5943 132.688C62.2793 130.981 64.0892 128.19 64.5524 125.043C65.016 121.895 64.0868 118.701 62.0074 116.293C59.9276 113.885 56.9032 112.501 53.7217 112.501C50.5402 112.501 47.516 113.885 45.436 116.293C43.3567 118.701 42.4274 121.895 42.891 125.043C43.3541 128.19 45.1639 130.981 47.8491 132.688C45.4911 133.804 43.4983 135.567 42.1019 137.771C40.7061 139.975 39.9638 142.53 39.9624 145.14V149.893C39.9624 150.731 40.6414 151.41 41.4791 151.41C42.3168 151.41 42.9958 150.731 42.9958 149.893V145.14C42.9958 141.304 45.0419 137.76 48.3634 135.843C51.685 133.925 55.777 133.925 59.0985 135.843C62.42 137.76 64.4661 141.304 64.4661 145.14V149.893C64.4661 150.731 65.145 151.41 65.9828 151.41C66.8205 151.41 67.4995 150.731 67.4995 149.893V145.14C67.4965 142.528 66.7518 139.972 65.3524 137.768C63.953 135.563 61.9558 133.801 59.5943 132.688ZM45.8081 123.454C45.8081 121.355 46.6418 119.342 48.1261 117.858C49.6104 116.374 51.6231 115.54 53.7221 115.54C55.8211 115.54 57.8339 116.374 59.3181 117.858C60.8023 119.342 61.6361 121.355 61.6361 123.454C61.6361 125.553 60.8024 127.566 59.3181 129.05C57.8338 130.534 55.8211 131.368 53.7221 131.368C51.624 131.365 49.6129 130.53 48.1296 129.046C46.6462 127.563 45.8112 125.552 45.8081 123.454Z" />
<path d="M109.094 132.688C111.779 130.981 113.589 128.19 114.052 125.043C114.516 121.895 113.587 118.701 111.507 116.293C109.428 113.885 106.403 112.501 103.222 112.501C100.04 112.501 97.016 113.885 94.936 116.293C92.8567 118.701 91.9274 121.895 92.391 125.043C92.8541 128.19 94.6639 130.981 97.3491 132.688C94.9911 133.804 92.9983 135.567 91.6019 137.771C90.2061 139.975 89.4638 142.53 89.4624 145.14V149.893C89.4624 150.731 90.1414 151.41 90.9791 151.41C91.8168 151.41 92.4958 150.731 92.4958 149.893V145.14C92.4958 141.304 94.5419 137.76 97.8634 135.843C101.185 133.925 105.277 133.925 108.598 135.843C111.92 137.76 113.966 141.304 113.966 145.14V149.893C113.966 150.731 114.645 151.41 115.483 151.41C116.321 151.41 117 150.731 117 149.893V145.14C116.996 142.528 116.252 139.972 114.852 137.768C113.453 135.563 111.456 133.801 109.094 132.688ZM95.3081 123.454C95.3081 121.355 96.1418 119.342 97.6261 117.858C99.1104 116.374 101.123 115.54 103.222 115.54C105.321 115.54 107.334 116.374 108.818 117.858C110.302 119.342 111.136 121.355 111.136 123.454C111.136 125.553 110.302 127.566 108.818 129.05C107.334 130.534 105.321 131.368 103.222 131.368C101.124 131.365 99.1129 130.53 97.6296 129.046C96.1462 127.563 95.3112 125.552 95.3081 123.454Z" />
<path d="M158.131 132.688C160.816 130.981 162.626 128.19 163.09 125.043C163.553 121.895 162.624 118.701 160.545 116.293C158.465 113.885 155.44 112.501 152.259 112.501C149.077 112.501 146.053 113.885 143.973 116.293C141.894 118.701 140.965 121.895 141.428 125.043C141.891 128.19 143.701 130.981 146.386 132.688C144.028 133.804 142.035 135.567 140.639 137.771C139.243 139.975 138.501 142.53 138.5 145.14V149.893C138.5 150.731 139.178 151.41 140.016 151.41C140.854 151.41 141.533 150.731 141.533 149.893V145.14C141.533 141.304 143.579 137.76 146.901 135.843C150.222 133.925 154.314 133.925 157.636 135.843C160.957 137.76 163.003 141.304 163.003 145.14V149.893C163.003 150.731 163.682 151.41 164.52 151.41C165.358 151.41 166.037 150.731 166.037 149.893V145.14C166.034 142.528 165.289 139.972 163.889 137.768C162.49 135.563 160.493 133.801 158.131 132.688ZM144.345 123.454C144.345 121.355 145.179 119.342 146.663 117.858C148.147 116.374 150.16 115.54 152.259 115.54C154.358 115.54 156.371 116.374 157.855 117.858C159.339 119.342 160.173 121.355 160.173 123.454C160.173 125.553 159.34 127.566 157.855 129.05C156.371 130.534 154.358 131.368 152.259 131.368C150.161 131.365 148.15 130.53 146.667 129.046C145.183 127.563 144.348 125.552 144.345 123.454Z" />
<path fill-rule="evenodd" d="M95.8126 91.362L101.487 103.634C101.823 104.362 102.557 104.828 103.366 104.828C104.174 104.828 104.908 104.362 105.245 103.634L110.92 91.362C118.18 88.3644 123 81.2648 123 73.4263C123 62.714 114.192 54 103.368 54C92.5439 54 83.7335 62.7139 83.7335 73.4263C83.7335 81.2649 88.5504 88.3658 95.8126 91.362ZM119.733 73.4251C119.733 64.9673 111.911 57.5 103.363 57.5C94.8159 57.5 87.2326 64.9688 87.233 73.4251C87.233 79.8454 91.1395 86.2989 97.233 88.5C97.7514 88.6869 98.5033 89.5026 98.733 90L103.366 100.5L107.733 90C107.963 89.5026 109.215 88.6869 109.733 88.5C115.826 86.3009 119.733 79.8458 119.733 73.4251ZM95.7633 78.0477L99.9957 73.8594L95.7633 69.6712C94.9569 68.8733 94.9569 67.5793 95.7633 66.7814C96.5696 65.9836 97.8773 65.9835 98.6835 66.7814L102.916 70.9683L107.148 66.7801C107.955 65.9821 109.262 65.9821 110.069 66.7801C110.875 67.578 110.875 68.872 110.069 69.6698L105.836 73.8581L110.069 78.0463C110.875 78.8442 110.875 80.1382 110.069 80.9361C109.665 81.3359 109.137 81.5341 108.609 81.5341C108.08 81.5341 107.551 81.3341 107.148 80.9361L102.916 76.7497L98.6837 80.9379C97.8773 81.7358 96.5697 81.7358 95.7634 80.9379C94.9557 80.1395 94.9556 78.8456 95.7633 78.0477Z" />
<path fill-rule="evenodd" d="M144.651 91.362L150.326 103.634C150.662 104.362 151.395 104.828 152.205 104.828C153.013 104.828 153.746 104.362 154.084 103.634L159.758 91.362C167.018 88.3644 171.838 81.2648 171.838 73.4263C171.838 62.714 163.031 54 152.207 54C141.383 54 132.572 62.7139 132.572 73.4263C132.572 81.2649 137.389 88.3658 144.651 91.362ZM168.572 73.4251C168.572 64.9673 160.749 57.5 152.202 57.5C143.655 57.5 136.071 64.9688 136.072 73.4251C136.072 79.8454 139.978 86.2989 146.072 88.5C146.59 88.6869 147.342 89.5026 147.572 90L152.205 100.5L156.572 90C156.801 89.5026 158.053 88.6869 158.572 88.5C164.665 86.3009 168.572 79.8458 168.572 73.4251ZM144.869 74.4028C144.063 73.6049 144.063 72.3109 144.869 71.513C145.676 70.7151 146.983 70.7151 147.79 71.513L151.533 75.2178L158.661 68.1645C159.467 67.3666 160.775 67.3666 161.581 68.1645C162.388 68.9624 162.388 70.2564 161.581 71.0543L152.994 79.5525C152.606 79.9362 152.081 80.1505 151.533 80.1505C150.986 80.1505 150.461 79.9349 150.073 79.5525L144.869 74.4028Z" />
</svg>
