<!--
  - Copyright (c) TIKI Inc.
  - MIT license. See LICENSE file in root directory.
  -->

<svg viewBox="0 0 206 206" xmlns="http://www.w3.org/2000/svg">
  <path
    d="M102.238 143.693L98.6875 142.04C66.8471 126.707 54.0574 108.508 52.2343 93.5583C51.2497 85.488 53.4327 78.321 57.5683 72.9578L57.6924 72.8087C61.8595 67.4879 67.9499 63.9886 74.7669 63.1799C84.0846 62.0757 94.721 65.9736 103.5 77.1133C112.278 65.9736 122.915 62.0749 132.232 63.1811C139.265 64.0148 145.524 67.7074 149.694 73.3039C153.825 78.8487 155.9 86.2505 154.628 94.5621C152.285 109.868 138.444 128.401 104.633 143.754C103.84 144.115 102.958 144.065 102.24 143.692L102.238 143.693ZM129.133 72.3238C130.624 72.3073 131.848 73.4853 131.865 74.9559C131.881 76.4265 130.687 77.6344 129.197 77.6508L128.914 77.6548C127.424 77.6712 126.2 76.4933 126.183 75.0227C126.166 73.5521 127.36 72.3442 128.851 72.3278L129.133 72.3238ZM144.299 97.0955C143.856 98.502 142.338 99.2881 140.912 98.8508C139.487 98.4135 138.69 96.9152 139.133 95.5086C140.176 92.2095 140.387 88.6361 139.452 85.5214C138.681 82.9511 137.092 80.6769 134.499 79.1552C133.213 78.4061 132.786 76.7671 133.546 75.4983C134.305 74.2295 135.966 73.8088 137.252 74.558C141.131 76.8322 143.499 80.2101 144.641 84.0172C145.892 88.1805 145.642 92.8485 144.299 97.0952L144.299 97.0955ZM102.795 138.055L103.501 138.386C134.514 124.043 147.184 107.378 149.268 93.7698C150.313 86.9415 148.654 80.919 145.33 76.4592C142.046 72.0521 137.123 69.1454 131.595 68.4898C123.32 67.5081 113.617 71.5727 105.766 83.1202C105.573 83.4145 105.316 83.676 105.002 83.8836C103.763 84.7025 102.084 84.3753 101.254 83.1519C93.3964 71.5802 83.6852 67.5081 75.4025 68.4896C70.0352 69.1265 65.2421 71.8788 61.9648 76.0608L61.866 76.1974C58.5489 80.4986 56.8061 86.314 57.6132 92.9331C59.2462 106.317 71.1803 122.846 101.06 137.235L102.795 138.058L102.795 138.055Z"/>

  <path fill-rule="evenodd"
        d="M103 201C157.124 201 201 157.124 201 103C201 48.8761 157.124 5 103 5C48.8761 5 5 48.8761 5 103C5 157.124 48.8761 201 103 201ZM103 206C159.885 206 206 159.885 206 103C206 46.1147 159.885 0 103 0C46.1147 0 0 46.1147 0 103C0 159.885 46.1147 206 103 206Z"/>
</svg>
