<!--
  - Copyright (c) TIKI Inc.
  - MIT license. See LICENSE file in root directory.
  -->

<svg viewBox="0 0 206 206" xmlns="http://www.w3.org/2000/svg">
  <path fill-rule="evenodd"
        d="M103 201C157.124 201 201 157.124 201 103C201 48.8761 157.124 5 103 5C48.8761 5 5 48.8761 5 103C5 157.124 48.8761 201 103 201ZM103 206C159.885 206 206 159.885 206 103C206 46.1147 159.885 0 103 0C46.1147 0 0 46.1147 0 103C0 159.885 46.1147 206 103 206Z"/>
  <path
    d="M125 76.5C125 78.9853 122.985 81 120.5 81C118.015 81 116 78.9854 116 76.5C116 74.0146 118.015 72 120.5 72C122.985 72 125 74.0146 125 76.5Z"/>
  <path
    d="M107 76.5C107 78.9853 104.985 81 102.5 81C100.015 81 98 78.9854 98 76.5C98 74.0146 100.015 72 102.5 72C104.985 72 107 74.0146 107 76.5Z"/>
  <path
    d="M89 76.5C89 78.9853 86.9854 81 84.5 81C82.0146 81 80 78.9854 80 76.5C80 74.0146 82.0146 72 84.5 72C86.9854 72 89 74.0146 89 76.5Z"/>
  <path
    d="M152.38 60.4928V90.3701C152.38 96.7063 147.224 101.862 140.887 101.863H90.4476C86.112 106.528 81.6634 111.804 81.6164 111.861L79.7379 114.09L68.7348 101.863H64.4928C58.1553 101.863 53 96.7071 53 90.3701V60.4928C53 54.1553 58.1558 49 64.4928 49H140.887C147.225 49 152.38 54.1558 152.38 60.4928ZM140.887 98C144.425 98 148.5 93.9079 148.5 90.3701V60.4928C148.5 56.9551 144.425 53 140.887 53H64.4928C60.9551 53 57 56.955 57 60.4928V90.3701C57 93.9078 60.955 98 64.4928 98H71L79.7379 108L88.5 98H140.887Z"/>
  <path
    d="M76.6319 139.187C79.3169 137.48 81.1268 134.689 81.59 131.542C82.0536 128.394 81.1244 125.2 79.045 122.792C76.9652 120.384 73.9408 119 70.7593 119C67.5778 119 64.5536 120.384 62.4736 122.792C60.3943 125.2 59.465 128.394 59.9286 131.542C60.3917 134.689 62.2015 137.48 64.8867 139.187C62.5287 140.303 60.5359 142.066 59.1395 144.27C57.7437 146.474 57.0014 149.029 57 151.639V156.392C57 157.23 57.679 157.909 58.5167 157.909C59.3544 157.909 60.0334 157.23 60.0334 156.392V151.639C60.0334 147.803 62.0795 144.259 65.401 142.342C68.7226 140.424 72.8145 140.424 76.1361 142.342C79.4576 144.259 81.5037 147.803 81.5037 151.639V156.392C81.5037 157.23 82.1826 157.909 83.0204 157.909C83.8581 157.909 84.5371 157.23 84.5371 156.392V151.639C84.5341 149.027 83.7894 146.471 82.39 144.266C80.9906 142.062 78.9934 140.3 76.6319 139.187ZM62.8457 129.953C62.8457 127.854 63.6794 125.841 65.1637 124.357C66.648 122.873 68.6607 122.039 70.7597 122.039C72.8587 122.039 74.8715 122.873 76.3557 124.357C77.8399 125.841 78.6737 127.854 78.6737 129.953C78.6737 132.052 77.84 134.065 76.3557 135.549C74.8714 137.033 72.8587 137.867 70.7597 137.867C68.6616 137.864 66.6505 137.029 65.1672 135.545C63.6838 134.062 62.8488 132.051 62.8457 129.953Z"/>
  <path
    d="M101.132 134.187C103.817 132.48 105.627 129.689 106.09 126.542C106.554 123.394 105.624 120.2 103.545 117.792C101.465 115.384 98.4408 114 95.2593 114C92.0778 114 89.0536 115.384 86.9736 117.792C84.8943 120.2 83.965 123.394 84.4286 126.542C84.8917 129.689 86.7015 132.48 89.3867 134.187C87.0287 135.303 85.0359 137.066 83.6395 139.27C82.2437 141.474 81.5014 144.029 81.5 146.639V151.392C81.5 152.23 82.179 152.909 83.0167 152.909C83.8544 152.909 84.5334 152.23 84.5334 151.392V146.639C84.5334 142.803 86.5795 139.259 89.901 137.342C93.2226 135.424 97.3145 135.424 100.636 137.342C103.958 139.259 106.004 142.803 106.004 146.639V151.392C106.004 152.23 106.683 152.909 107.52 152.909C108.358 152.909 109.037 152.23 109.037 151.392V146.639C109.034 144.027 108.289 141.471 106.89 139.266C105.491 137.062 103.493 135.3 101.132 134.187ZM87.3457 124.953C87.3457 122.854 88.1794 120.841 89.6637 119.357C91.148 117.873 93.1607 117.039 95.2597 117.039C97.3587 117.039 99.3715 117.873 100.856 119.357C102.34 120.841 103.174 122.854 103.174 124.953C103.174 127.052 102.34 129.065 100.856 130.549C99.3714 132.033 97.3587 132.867 95.2597 132.867C93.1616 132.864 91.1505 132.029 89.6672 130.545C88.1838 129.062 87.3488 127.051 87.3457 124.953Z"/>
  <path
    d="M125.632 139.187C128.317 137.48 130.127 134.689 130.59 131.542C131.054 128.394 130.124 125.2 128.045 122.792C125.965 120.384 122.941 119 119.759 119C116.578 119 113.554 120.384 111.474 122.792C109.394 125.2 108.465 128.394 108.929 131.542C109.392 134.689 111.202 137.48 113.887 139.187C111.529 140.303 109.536 142.066 108.14 144.27C106.744 146.474 106.001 149.029 106 151.639V156.392C106 157.23 106.679 157.909 107.517 157.909C108.354 157.909 109.033 157.23 109.033 156.392V151.639C109.033 147.803 111.079 144.259 114.401 142.342C117.723 140.424 121.815 140.424 125.136 142.342C128.458 144.259 130.504 147.803 130.504 151.639V156.392C130.504 157.23 131.183 157.909 132.02 157.909C132.858 157.909 133.537 157.23 133.537 156.392V151.639C133.534 149.027 132.789 146.471 131.39 144.266C129.991 142.062 127.993 140.3 125.632 139.187ZM111.846 129.953C111.846 127.854 112.679 125.841 114.164 124.357C115.648 122.873 117.661 122.039 119.76 122.039C121.859 122.039 123.871 122.873 125.356 124.357C126.84 125.841 127.674 127.854 127.674 129.953C127.674 132.052 126.84 134.065 125.356 135.549C123.871 137.033 121.859 137.867 119.76 137.867C117.662 137.864 115.65 137.029 114.167 135.545C112.684 134.062 111.849 132.051 111.846 129.953Z"/>
</svg>
