<?xml version="1.0" encoding="UTF-8"?>
<svg viewBox="0 0 60 80" version="1.1" xmlns="http://www.w3.org/2000/svg" class="icon">
    <g>
        <path d="M51.014989,-0.000182999999 C54.5191194,-0.000182999999 57.3840734,2.78859417 57.5069806,6.26692945 L57.511089,6.499817 L57.507182,25.077817 C57.995462,26.198917 58.413422,27.355117 58.761082,28.538717 C58.772801,28.566061 58.780613,28.597311 58.788425,28.628561 C59.5023512,31.0769302 59.9167403,33.6517468 59.976268,36.3161226 L59.983725,36.984061 L59.983725,72.941061 C59.983725,73.007471 59.972006,73.073875 59.972006,73.140281 C59.975912,73.159812 59.983725,73.171531 59.983725,73.191062 C59.983725,73.222312 59.972006,73.249656 59.9681,73.277 C59.7960404,76.9319447 56.8363017,79.8722005 53.1654877,79.9956632 L52.9251,79.9997 L7.0701,79.9997 C3.2927,79.9997 0.20678,77.0114 0.031,73.277 C0.026777,73.24565 0.011152,73.222212 0.011152,73.190962 C0.011152,73.171431 0.022871,73.159712 0.022871,73.140181 L0.015546375,73.0405695 L0.011152,72.940961 L0.00724500001,36.987961 C0.00724500001,34.085561 0.429105,31.284761 1.202545,28.628561 C1.210358,28.597311 1.222076,28.569967 1.229889,28.538717 C1.511137,27.588717 1.832385,26.661245 2.19963364,25.754253 L2.483789,25.077817 L2.483789,6.499817 C2.483789,2.913917 5.397889,-0.000182999999 8.983789,-0.000182999999 C11.772789,-0.000182999999 14.167349,1.574117 14.940789,3.913917 C15.839289,6.648217 17.968189,8.062307 21.429089,8.253717 C24.147789,7.441227 27.022789,6.999817 29.999389,6.999817 C32.975989,6.999817 35.850989,7.441217 38.565789,8.253717 C42.030689,8.062317 44.155649,6.644417 45.057989,3.913917 C45.831389,1.574017 48.225889,-0.000182999999 51.014989,-0.000182999999 Z M15.2622,60.9214 L2.0118,60.9214 L2.0118,72.1914 L57.9808,72.1914 L57.9808,60.9214 L44.7308,60.9214 L44.7308,64.5542 C44.7308,67.5738 42.2308,70.0347 39.1527,70.0347 C37.2582,70.0347 35.5824,69.0972 34.5746,67.6753 C33.5668,69.10111 31.891,70.0347 29.9965,70.0347 C28.102,70.0347 26.4262,69.0972 25.4184,67.6753 C24.4106,69.10111 22.7348,70.0347 20.8403,70.0347 C17.7661,70.0347 15.2622,67.5776 15.2622,64.5542 L15.2622,64.5542 L15.2622,60.9214 Z M30.000038,46.344 C25.8672,46.344 22.3594,48.801 21.6602,52.1838 C21.644575,52.250206 21.640669,52.31661 21.640669,52.38692 C21.640669,54.3412748 23.1807835,55.9445267 25.1105374,56.0459286 L25.304769,56.05102 L34.699269,56.05102 L34.8934915,56.0459289 C36.8231609,55.9445329 38.363369,54.3413716 38.363369,52.38692 C38.363369,52.320513 38.355557,52.2502 38.343838,52.1838 C37.640718,48.801 34.132938,46.344 30.000038,46.344 Z M30,48.344 C33.0938,48.344 35.8008,50.1174 36.3594,52.4846 C36.3114402,53.3072961 35.660703,53.9732008 34.8415216,54.044651 L34.6953,54.051 L25.3008,54.051 L25.1552006,54.044651 C24.3393435,53.9732008 23.6885778,53.3072961 23.6406,52.4846 C24.19529,50.1174 26.9062,48.344 30,48.344 Z M39.5745,34.3043 C38.3671364,35.3447545 37.027376,36.172176 35.5816653,36.7689161 L35.1448,36.941 C33.483634,37.56209 31.741434,37.87459 29.999234,37.87459 C28.257034,37.87459 26.510934,37.566 24.854734,36.941 C23.241434,36.3355 21.749234,35.4449 20.425034,34.3043 C16.745034,31.1324 12.620334,28.4098 2.968034,29.7379 C2.3987015,31.8576917 2.06897421,34.0726868 2.01797336,36.3587764 L2.011004,36.984 L2.01491,49.769 C2.11648,49.749469 2.22194,49.73775 2.33132,49.753375 C12.54272,51.308075 16.72242,48.511275 20.76932,44.976075 C21.82792,44.050275 23.03492,43.288595 24.35522,42.710475 C27.94512,41.140175 32.06232,41.140175 35.64822,42.710475 C36.96852,43.288575 38.17162,44.050295 39.23412,44.976075 C43.28112,48.511175 47.46112,51.311975 57.67212,49.753375 C57.74504,49.7429583 57.8162222,49.7464306 57.8856667,49.7545324 L57.98853,49.769 L57.98853,36.984 C57.98853,34.4801 57.65259,32.0504 57.0315,29.7379 C47.3792,28.4098 43.2542,31.1324 39.5745,34.3043 Z M30.00076,8.999 C22.68376,8.999 16.01596,11.8232 11.02376,16.4404 C22.14096,16.4091 25.9027,22.59274 26.06676,22.8779 C26.1341438,22.9921625 26.1773569,23.1196044 26.194752,23.2503411 L26.20348,23.38181 L26.20348,35.27681 C28.5459432,36.0169416 31.0426878,36.0558959 33.4014761,35.3936729 L33.79328,35.27681 L33.79328,23.37881 C33.79328,23.20302 33.840156,23.02724 33.93,22.8749 C34.0917534,22.5974534 37.761389,16.5707612 48.5205877,16.4394293 L48.973,16.4374 C43.98076,11.8232 37.31776,8.999 30.00076,8.999 Z" />
        <path d="M8.9958,18.519 C19.4058,17.77291 23.4368,22.5932 24.2028,23.6792 L24.2028,34.4522 C23.32389,33.99517 22.4919,33.4483 21.7301,32.7881 C17.9645,29.542 13.4489,26.5029 3.6211,27.6358 C4.8281,24.2491 6.668,21.1631 8.9961,18.5186 L8.9958,18.519 Z" />
        <path d="M50.9998,18.519 C53.3318,21.1674 55.1717,24.2534 56.3748,27.6401 C46.5467,26.5073 42.0308,29.5463 38.2658,32.7924 C37.50408,33.44865 36.672,33.9994 35.7931,34.4565 L35.7931,23.6795 C36.56654,22.5818 40.5978,17.7693 51.0001,18.5193 L50.9998,18.519 Z" />
        <path d="M17.2618,60.9214 L24.418,60.9214 L24.418,64.5542 C24.418,66.4722 22.8125,68.0347 20.8399,68.0347 C18.8673,68.0347 17.2618,66.4722 17.2618,64.5542 L17.2618,60.9214 Z" />
        <path d="M26.422,60.9214 L33.5782,60.9214 L33.5782,64.5542 C33.5782,66.4722 31.9727,68.0347 30.0001,68.0347 C28.0275,68.0347 26.422,66.4722 26.422,64.5542 L26.418094,60.9214 L26.422,60.9214 Z" />
        <path d="M35.5782,60.9214 L42.7344,60.9214 L42.7344,64.5542 C42.7344,66.4722 41.1289,68.0347 39.1563,68.0347 C37.1837,68.0347 35.5782,66.4722 35.5782,64.5542 L35.5782,60.9214 Z" />
        <path d="M52.9262,77.9994 L7.0712,77.9994 C4.7157,77.9994 2.747,76.3744 2.1884,74.1908 L57.8094,74.1908 C57.25081,76.3744 55.2821,77.9994 52.9266,77.9994 L52.9262,77.9994 Z" />
        <path d="M46.9574,4.5424 C47.44959,3.0463 49.1176,1.9994 51.016,1.9994 C53.4965,1.9994 55.516,4.0189 55.516,6.4994 L55.516,21.2534 C54.57069,19.7261 53.4926,18.2886 52.3012,16.9604 C52.26995,16.917431 52.2387,16.882274 52.19964,16.84321 C49.39884,13.76121 45.96524,11.26901 42.10964,9.55801 C44.48464,8.6791 46.14874,6.99551 46.95734,4.54241 L46.9574,4.5424 Z" />
        <path d="M4.485,6.4999 C4.485,4.0194 6.5045,1.9999 8.985,1.9999 C10.8795,1.9999 12.5475,3.0468 13.0436,4.5429 C13.85219,6.9999 15.5163,8.6835 17.8952,9.5624 C14.0397,11.2733 10.6061,13.7616 7.8052,16.8476 C7.766137,16.886663 7.734887,16.921819 7.70364,16.96479 C6.50834,18.29289 5.43414,19.73039 4.48884,21.25779 L4.485,6.4999 Z" />
        <path d="M10.77,35.539 C7.2856,35.539 4.4497,38.3749 4.4497,41.8593 C4.4497,42.41008 4.89892,42.8593 5.4497,42.8593 C6.00048,42.8593 6.4497,42.41008 6.4497,41.8593 C6.4497,39.4765 8.3872,37.539 10.77,37.539 C13.1528,37.539 15.0903,39.4765 15.0903,41.8593 C15.0903,42.41008 15.53952,42.8593 16.0903,42.8593 C16.64108,42.8593 17.0903,42.41008 17.0903,41.8593 C17.0903,38.3749 14.2544,35.539 10.77,35.539 Z" />
        <path d="M43.91,42.859 C44.46078,42.859 44.91,42.40978 44.91,41.859 C44.91,39.4762 46.8475,37.5387 49.2303,37.5387 C51.6131,37.5387 53.5506,39.4762 53.5506,41.859 C53.5506,42.40978 53.99982,42.859 54.5506,42.859 C55.10138,42.859 55.5506,42.40978 55.5506,41.859 C55.5506,38.3746 52.7147,35.5387 49.2303,35.5387 C45.7459,35.5387 42.91,38.3746 42.91,41.859 C42.91,42.41369 43.35922,42.859 43.91,42.859 L43.91,42.859 Z" />
    </g>
</svg>
