<!--
  - Copyright (c) TIKI Inc.
  - MIT license. See LICENSE file in root directory.
  -->

<svg viewBox="0 0 206 206" xmlns="http://www.w3.org/2000/svg">
  <path
    d="M157.547 125.19H151.905V68.7619C151.905 66.687 150.218 65 148.143 65H57.857C55.7821 65 54.0951 66.687 54.0951 68.7619V125.19H48.4522C47.4144 125.19 46.5713 126.034 46.5713 127.071C46.5713 136.405 54.1665 144 63.4999 144H142.5C151.833 144 159.428 136.405 159.428 127.071C159.428 126.034 158.585 125.19 157.547 125.19ZM57.857 68.7619H148.143V125.19H144.381V74.4048C144.381 73.3669 143.538 72.5238 142.5 72.5238H76.6665V76.2857H140.619V125.19H65.3808V76.2857H72.9046V72.5238H63.4999C62.462 72.5238 61.6189 73.3669 61.6189 74.4048V125.19H57.857V68.7619ZM142.5 140.238H63.4999C56.877 140.238 51.3829 135.325 50.4667 128.952H155.531C154.617 135.325 149.123 140.238 142.5 140.238Z"/>
  <path d="M74.7854 132.714H131.214V136.476H74.7854V132.714Z"/>
  <path
    d="M88.63 111.588L91.0374 108.698L81.4864 100.739L91.0382 92.7783L88.6308 89.8889L77.3451 99.2937C76.916 99.6514 76.6675 100.18 76.6675 100.739C76.6675 101.297 76.916 101.826 77.3443 102.183L88.63 111.588Z"/>
  <path
    d="M117.37 111.588L128.656 102.183C129.084 101.826 129.332 101.297 129.332 100.738C129.332 100.18 129.084 99.6511 128.656 99.2942L117.37 89.8894L114.963 92.7788L124.513 100.738L114.962 108.699L117.37 111.588Z"/>
  <path d="M93.8744 111.037L108.919 86.5845L112.123 88.5561L97.0787 113.009L93.8744 111.037Z"/>
  <path fill-rule="evenodd"
        d="M103 201C157.124 201 201 157.124 201 103C201 48.8761 157.124 5 103 5C48.8761 5 5 48.8761 5 103C5 157.124 48.8761 201 103 201ZM103 206C159.885 206 206 159.885 206 103C206 46.1147 159.885 0 103 0C46.1147 0 0 46.1147 0 103C0 159.885 46.1147 206 103 206Z"/>
</svg>
