<?xml version="1.0" encoding="UTF-8"?>
<svg xmlns="http://www.w3.org/2000/svg" viewBox="0 0 100 100" class="icon">
 <g>
   <path d="m20.031 83.277c0.17578 3.7344 3.2617 6.7227 7.0391 6.7227h45.855c3.7812 0 6.8672-2.9883 7.043-6.7227 0.003906-0.027344 0.015625-0.054688 0.015625-0.085938 0-0.019531-0.007813-0.03125-0.011719-0.050781 0-0.066406 0.011719-0.13281 0.011719-0.19922v-35.957c0-2.9023-0.42188-5.7031-1.1953-8.3555-0.007812-0.03125-0.015624-0.0625-0.027343-0.089844-0.34766-1.1836-0.76562-2.3398-1.2539-3.4609l0.003907-18.578c0-3.5859-2.9141-6.5-6.4961-6.5-2.7891 0-5.1836 1.5742-5.957 3.9141-0.90234 2.7305-3.0273 4.1484-6.4922 4.3398-2.7148-0.8125-5.5898-1.2539-8.5664-1.2539s-5.8516 0.44141-8.5703 1.2539c-3.4609-0.19141-5.5898-1.6055-6.4883-4.3398-0.77344-2.3398-3.168-3.9141-5.957-3.9141-3.5859 0-6.5 2.9141-6.5 6.5v18.578c-0.48828 1.1211-0.90234 2.2734-1.2539 3.4609-0.007813 0.03125-0.019531 0.058594-0.027344 0.089844-0.77344 2.6562-1.1953 5.457-1.1953 8.3594l0.003907 35.953c0 0.066406 0.007812 0.13281 0.011719 0.19922 0 0.019531-0.011719 0.03125-0.011719 0.050781 0 0.03125 0.015625 0.054688 0.019531 0.085938zm8.9648-54.758c10.41-0.74609 14.441 4.0742 15.207 5.1602v10.773c-0.87891-0.45703-1.7109-1.0039-2.4727-1.6641-3.7656-3.2461-8.2812-6.2852-18.109-5.1523 1.207-3.3867 3.0469-6.4727 5.375-9.1172zm42.004 0c2.332 2.6484 4.1719 5.7344 5.375 9.1211-9.8281-1.1328-14.344 1.9062-18.109 5.1523-0.76172 0.65625-1.5938 1.207-2.4727 1.6641v-10.777c0.77344-1.0977 4.8047-5.9102 15.207-5.1602zm-15.855 18.422c1.6133-0.60547 3.1016-1.4922 4.4297-2.6367 3.6797-3.1719 7.8047-5.8945 17.457-4.5664 0.62109 2.3125 0.95703 4.7422 0.95703 7.2461v12.785c-0.10156-0.015625-0.20703-0.03125-0.31641-0.015625-10.211 1.5586-14.391-1.2422-18.438-4.7773-1.0625-0.92578-2.2656-1.6875-3.5859-2.2656-3.5859-1.5703-7.7031-1.5703-11.293 0-1.3203 0.57812-2.5273 1.3398-3.5859 2.2656-4.0469 3.5352-8.2266 6.332-18.438 4.7773-0.10938-0.015625-0.21484-0.003906-0.31641 0.015625l-0.003906-12.785c0-2.5078 0.33594-4.9336 0.95703-7.2461 9.6523-1.3281 13.777 1.3945 17.457 4.5664 1.3242 1.1406 2.8164 2.0312 4.4297 2.6367 1.6562 0.625 3.4023 0.93359 5.1445 0.93359s3.4844-0.3125 5.1445-0.93359zm-33.133 14.789c0.003906 0 0.007812 0.003906 0.015625 0.003906 2.0781 0.31641 3.9297 0.46094 5.6016 0.46094 7.2109 0 10.992-2.6836 14.453-5.707 0.90625-0.79297 1.9414-1.4453 3.0742-1.9414 3.0781-1.3438 6.6094-1.3477 9.6914 0 1.1328 0.49609 2.1641 1.1484 3.0703 1.9375 4.2656 3.7266 9.0117 6.9297 20.055 5.2461 0.003906 0 0.007813-0.003907 0.015625-0.003907v7.1953h-55.977zm15.25 9.1914h7.1562v3.6328c0 1.918-1.6055 3.4805-3.5781 3.4805s-3.5781-1.5625-3.5781-3.4805zm9.1602 0h7.1562v3.6328c0 1.918-1.6055 3.4805-3.5781 3.4805s-3.5781-1.5625-3.5781-3.4805l-0.003906-3.6328zm9.1562 0h7.1562v3.6328c0 1.918-1.6055 3.4805-3.5781 3.4805s-3.5781-1.5625-3.5781-3.4805zm-20.316 0v3.6328c0 3.0234 2.5039 5.4805 5.5781 5.4805 1.8945 0 3.5703-0.93359 4.5781-2.3594 1.0078 1.4219 2.6836 2.3594 4.5781 2.3594 1.8945 0 3.5703-0.93359 4.5781-2.3594 1.0078 1.4219 2.6836 2.3594 4.5781 2.3594 3.0781 0 5.5781-2.4609 5.5781-5.4805v-3.6328h13.25v11.27h-55.969v-11.27zm37.664 17.078h-45.855c-2.3555 0-4.3242-1.625-4.8828-3.8086h55.621c-0.55859 2.1836-2.5273 3.8086-4.8828 3.8086zm-5.9688-73.457c0.49219-1.4961 2.1602-2.543 4.0586-2.543 2.4805 0 4.5 2.0195 4.5 4.5v14.754c-0.94531-1.5273-2.0234-2.9648-3.2148-4.293-0.03125-0.042969-0.0625-0.078126-0.10156-0.11719-2.8008-3.082-6.2344-5.5742-10.09-7.2852 2.375-0.87891 4.0391-2.5625 4.8477-5.0156zm2.0156 11.895c-11.109-0.035156-14.879 6.1562-15.043 6.4375-0.089844 0.15234-0.13672 0.32812-0.13672 0.50391v11.898c-2.4727 0.78125-5.1172 0.78125-7.5898 0v-11.895c0-0.17578-0.046875-0.35156-0.13672-0.50391-0.16406-0.28516-3.9258-6.4688-15.043-6.4375 4.9922-4.6172 11.66-7.4414 18.977-7.4414s13.98 2.8242 18.973 7.4375zm-44.488-9.9375c0-2.4805 2.0195-4.5 4.5-4.5 1.8945 0 3.5625 1.0469 4.0586 2.543 0.80859 2.457 2.4727 4.1406 4.8516 5.0195-3.8555 1.7109-7.2891 4.1992-10.09 7.2852-0.039063 0.039063-0.070313 0.074219-0.10156 0.11719-1.1953 1.3281-2.2695 2.7656-3.2148 4.293z"/>
   <path d="m30.77 45.539c-3.4844 0-6.3203 2.8359-6.3203 6.3203 0 0.55078 0.44922 1 1 1s1-0.44922 1-1c0-2.3828 1.9375-4.3203 4.3203-4.3203 2.3828 0 4.3203 1.9375 4.3203 4.3203 0 0.55078 0.44922 1 1 1 0.55078 0 1-0.44922 1-1 0-3.4844-2.8359-6.3203-6.3203-6.3203z"/>
   <path d="m63.91 52.859c0.55078 0 1-0.44922 1-1 0-2.3828 1.9375-4.3203 4.3203-4.3203 2.3828 0 4.3203 1.9375 4.3203 4.3203 0 0.55078 0.44922 1 1 1s1-0.44922 1-1c0-3.4844-2.8359-6.3203-6.3203-6.3203s-6.3203 2.8359-6.3203 6.3203c0 0.55469 0.44922 1 1 1z"/>
   <path d="m50 56.344c-4.1328 0-7.6406 2.457-8.3398 5.8398-0.015625 0.066406-0.019531 0.13281-0.019531 0.20312 0 2.0195 1.6445 3.6641 3.6641 3.6641h9.3945c2.0195 0 3.6641-1.6445 3.6641-3.6641 0-0.066407-0.007812-0.13672-0.019531-0.20312-0.70312-3.3828-4.2109-5.8398-8.3438-5.8398zm4.6953 7.707h-9.3945c-0.88281 0-1.6094-0.69531-1.6602-1.5664 0.55469-2.3672 3.2656-4.1406 6.3594-4.1406s5.8008 1.7734 6.3594 4.1406c-0.050781 0.87109-0.77734 1.5664-1.6641 1.5664z"/>
 </g>
</svg>
