<!--
  - Copyright (c) TIKI Inc.
  - MIT license. See LICENSE file in root directory.
  -->

<svg viewBox="0 0 206 206" xmlns="http://www.w3.org/2000/svg">
  <path
    d="M103.856 148.13L96.9155 147.12L93.8123 140.832C93.2997 139.795 91.6041 139.795 91.0822 140.832L87.9822 147.12L81.0479 148.13C80.4776 148.214 80.0044 148.614 79.826 149.162C79.648 149.71 79.7956 150.312 80.2076 150.715L85.2279 155.611L84.0449 162.512C83.969 162.952 84.0914 163.404 84.3795 163.747C84.6682 164.089 85.0929 164.286 85.5403 164.286C85.787 164.287 86.0297 164.226 86.2471 164.11L92.4533 160.849L98.6596 164.11C99.1707 164.38 99.7905 164.336 100.258 163.996C100.726 163.657 100.96 163.081 100.862 162.512L99.6758 155.601L104.708 150.715C105.12 150.312 105.268 149.71 105.09 149.162C104.911 148.614 104.438 148.214 103.868 148.13L103.856 148.13ZM96.9853 153.997C96.6294 154.345 96.4671 154.847 96.5515 155.338L97.3523 160.006L93.1601 157.804C92.7188 157.567 92.1879 157.567 91.7466 157.804L87.5544 160.006L88.3552 155.338C88.4386 154.846 88.2753 154.345 87.9184 153.997L84.5271 150.681L89.2137 150.002C89.7086 149.93 90.1363 149.619 90.3573 149.171L92.4533 144.924L94.5493 149.171C94.7702 149.619 95.1979 149.93 95.6929 150.002L100.379 150.681L96.9853 153.997Z"/>
  <path
    d="M62.6319 153.995C65.3169 152.288 67.1268 149.497 67.59 146.35C68.0536 143.202 67.1244 140.008 65.045 137.6C62.9652 135.192 59.9408 133.808 56.7593 133.808C53.5778 133.808 50.5536 135.192 48.4736 137.6C46.3943 140.008 45.465 143.202 45.9286 146.35C46.3917 149.497 48.2015 152.288 50.8867 153.995C48.5287 155.111 46.5359 156.874 45.1395 159.078C43.7437 161.282 43.0014 163.837 43 166.447V171.2C43 172.038 43.679 172.717 44.5167 172.717C45.3544 172.717 46.0334 172.038 46.0334 171.2V166.456C46.0334 162.621 48.0795 159.077 51.401 157.159C54.7226 155.242 58.8146 155.242 62.1361 157.159C65.4576 159.077 67.5037 162.621 67.5037 166.456V171.209C67.5037 172.047 68.1826 172.726 69.0204 172.726C69.8581 172.726 70.5371 172.047 70.5371 171.209V166.456C70.5356 163.843 69.7919 161.285 68.392 159.079C66.9927 156.872 64.9949 155.109 62.6319 153.995ZM48.8457 144.761C48.8467 142.662 49.6809 140.65 51.1652 139.166C52.6501 137.683 54.6632 136.85 56.7618 136.85C58.8604 136.851 60.873 137.685 62.3568 139.169C63.8406 140.653 64.6742 142.666 64.6737 144.765C64.6732 146.864 63.8395 148.876 62.3552 150.361C60.8714 151.844 58.8582 152.678 56.7597 152.678C54.6611 152.675 52.6494 151.84 51.1661 150.355C49.6823 148.871 48.8483 146.86 48.8457 144.761Z"/>
  <path
    d="M103.856 98.2254L96.9156 97.2184L93.8124 90.9241C93.3028 89.8867 91.6042 89.8867 91.0823 90.9241L87.9822 97.2123L81.048 98.2254C80.4767 98.3083 80.002 98.7088 79.8235 99.2578C79.6451 99.8073 79.7942 100.41 80.2077 100.813L85.228 105.709L84.0419 112.619C83.9438 113.188 84.1779 113.764 84.6456 114.103C85.1132 114.443 85.733 114.487 86.2442 114.217L92.4536 110.944L98.6598 114.208C99.1709 114.478 99.7908 114.434 100.258 114.094C100.726 113.755 100.96 113.179 100.862 112.61L99.6761 105.7L104.708 100.813C105.121 100.411 105.271 99.8089 105.094 99.2599C104.914 98.7063 104.433 98.3043 103.856 98.2254ZM96.9885 104.092C96.6315 104.44 96.4682 104.941 96.5517 105.433L97.3525 110.101L93.1603 107.911C92.7179 107.678 92.1891 107.678 91.7467 107.911L87.5546 110.113L88.3554 105.445C88.4388 104.953 88.2755 104.452 87.9186 104.104L84.5273 100.798L89.2138 100.118C89.7088 100.046 90.1365 99.7356 90.3574 99.2871L92.4534 95.0405L94.5495 99.2871C94.7704 99.7355 95.1981 100.046 95.693 100.118L100.377 100.798L96.9885 104.092Z"/>
  <path
    d="M133.277 98.2254L126.339 97.2184L123.236 90.9241C122.723 89.8867 121.025 89.8867 120.506 90.9241L117.403 97.2123L110.471 98.2254C109.9 98.3083 109.425 98.7088 109.247 99.2578C109.068 99.8073 109.218 100.41 109.631 100.813L114.654 105.709L113.468 112.619C113.371 113.188 113.605 113.762 114.071 114.101C114.538 114.44 115.157 114.485 115.668 114.217L121.874 110.944L128.083 114.208C128.594 114.476 129.213 114.431 129.679 114.092C130.146 113.753 130.379 113.179 130.282 112.61L129.096 105.7L134.132 100.813C134.546 100.41 134.694 99.8064 134.515 99.2569C134.336 98.7073 133.86 98.3074 133.288 98.2255L133.277 98.2254ZM126.409 104.092C126.052 104.44 125.889 104.941 125.972 105.433L126.773 110.101L122.581 107.911C122.14 107.679 121.612 107.679 121.17 107.911L116.978 110.113L117.779 105.445C117.862 104.953 117.699 104.452 117.342 104.104L113.951 100.798L118.638 100.118C119.131 100.046 119.558 99.7351 119.778 99.2871L121.874 95.0405L123.97 99.2871C124.191 99.7355 124.619 100.046 125.114 100.118L129.8 100.798L126.409 104.092Z"/>
  <path
    d="M163.923 99.2598C163.747 98.7133 163.277 98.3129 162.709 98.2254L155.769 97.2184L152.654 90.9241C152.144 89.8867 150.446 89.8867 149.924 90.9241L146.821 97.2123L139.892 98.2254C139.321 98.3083 138.846 98.7088 138.668 99.2578C138.489 99.8073 138.639 100.41 139.052 100.813L144.072 105.709L142.886 112.619C142.788 113.188 143.022 113.764 143.49 114.103C143.958 114.443 144.577 114.487 145.089 114.217L151.295 110.944L157.501 114.208C158.012 114.478 158.632 114.434 159.1 114.094C159.567 113.755 159.801 113.179 159.703 112.61L158.517 105.7L163.553 100.813C163.961 100.407 164.104 99.8058 163.923 99.2598ZM155.83 104.092C155.471 104.439 155.307 104.941 155.39 105.433L156.194 110.101L152.002 107.911C151.559 107.678 151.03 107.678 150.588 107.911L146.396 110.113L147.197 105.445C147.28 104.953 147.117 104.452 146.76 104.104L143.369 100.798L148.055 100.118C148.55 100.047 148.978 99.7356 149.199 99.2871L151.295 95.0405L153.391 99.2871C153.612 99.7356 154.039 100.047 154.534 100.118L159.218 100.798L155.83 104.092Z"/>
  <path
    d="M62.6319 104.088C65.3169 102.382 67.1268 99.5909 67.59 96.4434C68.0536 93.2958 67.1244 90.1021 65.045 87.694C62.9652 85.2861 59.9408 83.9018 56.7593 83.9018C53.5778 83.9018 50.5536 85.286 48.4736 87.694C46.3943 90.102 45.465 93.2956 45.9286 96.4434C46.3917 99.5909 48.2015 102.382 50.8867 104.088C48.5287 105.205 46.5359 106.968 45.1395 109.172C43.7437 111.376 43.0014 113.931 43 116.54V121.294C43 122.131 43.679 122.81 44.5167 122.81C45.3544 122.81 46.0334 122.131 46.0334 121.294V116.54C46.0334 112.705 48.0795 109.161 51.401 107.244C54.7226 105.326 58.8146 105.326 62.1361 107.244C65.4576 109.161 67.5037 112.705 67.5037 116.54V121.294C67.5037 122.131 68.1826 122.81 69.0204 122.81C69.8581 122.81 70.5371 122.131 70.5371 121.294V116.54C70.5341 113.929 69.7894 111.373 68.39 109.168C66.9906 106.964 64.9934 105.202 62.6319 104.088ZM48.8457 94.867C48.8457 92.7678 49.6794 90.7552 51.1637 89.2709C52.648 87.7867 54.6607 86.953 56.7597 86.953C58.8587 86.953 60.8715 87.7866 62.3557 89.2709C63.8399 90.7553 64.6737 92.768 64.6737 94.867C64.6737 96.966 63.84 98.9788 62.3557 100.463C60.8714 101.947 58.8587 102.781 56.7597 102.781C54.6616 102.778 52.6505 101.943 51.1672 100.459C49.6838 98.976 48.8488 96.9651 48.8457 94.867Z"/>
  <path
    d="M103.856 48.3236L96.9155 47.3135L93.8123 41.0253C93.2997 39.991 91.6041 39.991 91.0822 41.0253L87.9912 47.3135L81.0479 48.3236C80.4776 48.4076 80.0044 48.807 79.826 49.3555C79.648 49.9035 79.7956 50.5051 80.2076 50.9081L85.2279 55.8039L84.0449 62.714C83.9468 63.2832 84.1809 63.8591 84.6485 64.1983C85.1162 64.5381 85.736 64.582 86.2471 64.3126L92.4534 61.0518L98.6597 64.3126C99.1708 64.582 99.7911 64.5371 100.258 64.1973C100.726 63.8586 100.962 63.2838 100.865 62.714L99.6789 55.8039L104.708 50.9081C105.12 50.5051 105.268 49.9035 105.09 49.3555C104.911 48.807 104.438 48.4076 103.868 48.3237L103.856 48.3236ZM96.9853 54.1902C96.6294 54.5385 96.4671 55.04 96.5515 55.5309L97.3523 60.1992L93.1601 57.9969C92.7178 57.7638 92.189 57.7638 91.7466 57.9969L87.5544 60.1992L88.3552 55.5309C88.4386 55.0394 88.2753 54.5379 87.9184 54.1902L84.5271 50.8838L89.2137 50.2043C89.7096 50.1315 90.1378 49.818 90.3573 49.3671L92.4533 45.1204L94.5493 49.3671C94.7702 49.8155 95.1979 50.1264 95.6929 50.1982L100.379 50.8838L96.9853 54.1902Z"/>
  <path
    d="M133.277 48.3236L126.339 47.3135L123.236 41.0253C122.723 39.991 121.028 39.991 120.506 41.0253L117.412 47.3135L110.472 48.3236C109.901 48.4076 109.428 48.807 109.25 49.3555C109.072 49.9035 109.219 50.5051 109.631 50.9081L114.655 55.8039L113.468 62.714C113.371 63.2827 113.605 63.857 114.072 64.1963C114.538 64.535 115.157 64.5805 115.668 64.3125L121.874 61.0517L128.083 64.3125C128.594 64.5805 129.212 64.536 129.679 64.1973C130.147 63.8585 130.383 63.2837 130.285 62.7139L129.096 55.8039L134.132 50.908C134.544 50.5046 134.691 49.9025 134.512 49.3539C134.333 48.8059 133.859 48.4065 133.288 48.3236L133.277 48.3236ZM126.409 54.1902C126.052 54.538 125.889 55.0395 125.972 55.5309L126.773 60.1992L122.581 57.9969C122.14 57.7648 121.612 57.7648 121.17 57.9969L116.978 60.1992L117.779 55.5309C117.862 55.0394 117.699 54.5379 117.342 54.1902L113.951 50.8838L118.638 50.2043C119.132 50.1305 119.559 49.817 119.778 49.3671L121.874 45.1204L123.97 49.3671C124.191 49.8155 124.619 50.1264 125.114 50.1982L129.8 50.8838L126.409 54.1902Z"/>
  <path
    d="M62.6319 54.1866C65.3169 52.4798 67.1268 49.6891 67.59 46.5415C68.0536 43.394 67.1244 40.2003 65.045 37.7922C62.9652 35.3843 59.9408 34 56.7593 34C53.5778 34 50.5536 35.3842 48.4736 37.7922C46.3943 40.2002 45.465 43.3938 45.9286 46.5415C46.3917 49.6891 48.2015 52.4799 50.8867 54.1866C48.5287 55.3034 46.5359 57.0658 45.1395 59.27C43.7437 61.4742 43.0014 64.0293 43 66.6386V71.3919C43 72.2297 43.679 72.9087 44.5167 72.9087C45.3544 72.9087 46.0334 72.2297 46.0334 71.3919V66.6386C46.0334 62.8034 48.0795 59.2594 51.401 57.3418C54.7226 55.4243 58.8146 55.4243 62.1361 57.3418C65.4576 59.2594 67.5037 62.8034 67.5037 66.6386V71.3919C67.5037 72.2297 68.1826 72.9087 69.0204 72.9087C69.8581 72.9087 70.5371 72.2297 70.5371 71.3919V66.6386C70.5341 64.0273 69.7894 61.4712 68.39 59.2665C66.9906 57.0623 64.9934 55.3003 62.6319 54.1866ZM48.8457 44.953C48.8457 42.8539 49.6794 40.8412 51.1637 39.357C52.648 37.8727 54.6607 37.039 56.7597 37.039C58.8587 37.039 60.8715 37.8727 62.3557 39.357C63.8399 40.8413 64.6737 42.854 64.6737 44.953C64.6737 47.052 63.84 49.0648 62.3557 50.549C60.8714 52.0333 58.8587 52.867 56.7597 52.867C54.6616 52.864 52.6505 52.0288 51.1672 50.5454C49.6838 49.062 48.8488 47.0511 48.8457 44.953Z"/>
  <path fill-rule="evenodd"
        d="M103 201C157.124 201 201 157.124 201 103C201 48.8761 157.124 5 103 5C48.8761 5 5 48.8761 5 103C5 157.124 48.8761 201 103 201ZM103 206C159.885 206 206 159.885 206 103C206 46.1147 159.885 0 103 0C46.1147 0 0 46.1147 0 103C0 159.885 46.1147 206 103 206Z"/>
</svg>
