<!--
  - Copyright (c) TIKI Inc.
  - MIT license. See LICENSE file in root directory.
  -->

<svg viewBox="0 0 206 206" xmlns="http://www.w3.org/2000/svg">
  <path
    d="M119.69 99.7992V88.8841C119.69 81.5382 113.324 75.562 105.5 75.562C97.683 75.562 91.3224 81.5379 91.3224 88.8841V99.7878C89.1221 101.501 87.8206 104.142 87.7928 106.952V122.017C87.8878 124.602 88.9921 127.045 90.8632 128.809C92.7343 130.574 95.2195 131.517 97.777 131.433H113.224C115.78 131.517 118.266 130.574 120.137 128.809C122.008 127.045 123.111 124.602 123.207 122.017V106.952C123.18 104.149 121.884 101.512 119.69 99.7992H119.69ZM100.675 97.5343V88.8842C100.852 87.2667 101.81 85.8424 103.232 85.081C104.654 84.3198 106.357 84.3198 107.779 85.081C109.201 85.8423 110.158 87.2666 110.337 88.8842V97.5343H100.675ZM94.2813 88.8842C94.2813 83.189 99.3136 78.5558 105.5 78.5558C111.692 78.5558 116.731 83.189 116.731 88.8842V98.1307C116.663 98.1067 116.588 98.0984 116.519 98.0754C116.186 97.9699 115.847 97.8812 115.505 97.8101C115.311 97.7673 115.123 97.712 114.926 97.6807L114.927 97.6796C114.492 97.6138 114.056 97.5752 113.617 97.5627C113.509 97.5585 113.404 97.5345 113.296 97.5345V88.8843C113.117 86.1946 111.594 83.7833 109.257 82.4874C106.92 81.1925 104.091 81.1925 101.754 82.4874C99.4178 83.7833 97.8946 86.1943 97.716 88.8843V97.5345C97.62 97.5355 97.5282 97.5564 97.4332 97.5595H97.4322C96.9781 97.57 96.524 97.6097 96.075 97.6786C95.8893 97.7089 95.7118 97.7611 95.5291 97.7997C95.174 97.8718 94.8242 97.9626 94.4795 98.0722C94.4155 98.0931 94.3453 98.1015 94.2813 98.1234L94.2813 88.8842ZM120.247 122.018C120.151 123.809 119.358 125.49 118.043 126.693C116.728 127.896 114.995 128.524 113.224 128.44H97.7768C96.0048 128.524 94.2718 127.896 92.9561 126.693C91.6403 125.49 90.8475 123.81 90.7516 122.018V106.954C90.7877 104.846 91.8703 102.9 93.6301 101.774C94.8583 100.948 96.302 100.515 97.7768 100.53H113.224C114.707 100.525 116.158 100.965 117.393 101.794C119.153 102.908 120.228 104.854 120.247 106.954L120.247 122.018Z"/>
  <path
    d="M109.21 112.2V110.372C109.131 108.509 107.669 107.042 105.893 107.042C104.117 107.042 102.655 108.509 102.576 110.372V112.201V112.2C101.214 113.187 100.396 114.808 100.385 116.545C100.497 118.529 101.571 120.315 103.23 121.275C104.888 122.234 106.899 122.234 108.558 121.275C110.216 120.315 111.29 118.529 111.402 116.545C111.391 114.808 110.572 113.186 109.21 112.2H109.21ZM105.898 118.959C104.542 119.044 103.372 117.968 103.276 116.545C103.307 115.62 103.842 114.797 104.65 114.429C105.15 114.176 105.468 113.644 105.468 113.062V110.372C105.468 110.232 105.651 110.077 105.898 110.077C106.139 110.077 106.319 110.232 106.319 110.372V113.062C106.319 113.645 106.637 114.177 107.138 114.43C107.946 114.797 108.481 115.621 108.511 116.545C108.418 117.966 107.253 119.042 105.898 118.959H105.898Z"/>
  <path
    d="M166.521 82.2927C165.332 82.2969 164.177 82.6887 163.23 83.4077C162.283 84.1267 161.597 85.1343 161.274 86.2785H139.172C137.324 82.7784 134.94 79.5888 132.104 76.8262H149.191C149.588 76.8273 149.968 76.6699 150.248 76.3896C150.529 76.1093 150.686 75.7289 150.686 75.333V67.6408C152.397 67.1562 153.766 65.8714 154.358 64.1948C154.951 62.5181 154.692 60.6581 153.665 59.2066C152.638 57.7551 150.97 56.8923 149.191 56.8923C147.413 56.8923 145.746 57.7551 144.719 59.2066C143.692 60.6582 143.433 62.5182 144.025 64.1948C144.618 65.8714 145.987 67.1563 147.698 67.6408V73.8386H128.648C126.301 72.0474 123.753 70.5364 121.053 69.3392V59.6713C122.766 59.1858 124.135 57.9009 124.727 56.2243C125.319 54.5466 125.061 52.6865 124.034 51.2351C123.007 49.7825 121.339 48.9197 119.56 48.9197C117.781 48.9197 116.112 49.7825 115.086 51.2351C114.058 52.6866 113.8 54.5466 114.393 56.2243C114.985 57.9009 116.354 59.1858 118.065 59.6713V68.1649V68.1639C114.597 66.9687 110.971 66.2883 107.305 66.1465V47.7474C109.016 47.2628 110.385 45.978 110.978 44.3014C111.57 42.6248 111.311 40.7658 110.284 39.3143C109.257 37.8628 107.589 37 105.811 37C104.032 37 102.365 37.8628 101.338 39.3143C100.311 40.7659 100.052 42.6248 100.645 44.3014C101.237 45.978 102.606 47.263 104.317 47.7474V66.1465C94.8498 66.5331 85.8744 70.4667 79.1754 77.1661C72.4752 83.8641 68.541 92.8381 68.1542 102.304H49.7522C49.2676 100.593 47.9826 99.2235 46.3046 98.6305C44.6277 98.0386 42.7674 98.2971 41.3157 99.3245C39.8629 100.351 39 102.019 39 103.798C39 105.576 39.8629 107.244 41.3157 108.272C42.7675 109.298 44.6278 109.556 46.3046 108.965C47.9825 108.372 49.2674 107.002 49.7522 105.291H68.1542C68.2959 108.957 68.9764 112.582 70.1718 116.05H61.678C61.1923 114.34 59.9073 112.971 58.2304 112.379C56.5546 111.787 54.6943 112.046 53.2426 113.072C51.7908 114.098 50.9279 115.767 50.9279 117.545C50.9279 119.322 51.7908 120.989 53.2426 122.017C54.6944 123.043 56.5547 123.302 58.2304 122.71C59.9073 122.118 61.1924 120.749 61.678 119.038H71.3473C72.5448 121.737 74.0559 124.284 75.8474 126.631V145.678H69.6486C69.164 143.967 67.879 142.599 66.2021 142.006C64.5252 141.414 62.6649 141.672 61.2132 142.7C59.7615 143.726 58.8985 145.394 58.8985 147.171C58.8985 148.95 59.7615 150.617 61.2132 151.644C62.665 152.671 64.5253 152.93 66.2021 152.337C67.879 151.745 69.1641 150.377 69.6486 148.666H77.3421C77.7381 148.666 78.1185 148.508 78.3988 148.228C78.6792 147.948 78.8365 147.568 78.8355 147.171V130.086C81.5982 132.922 84.7883 135.306 88.2893 137.153V159.253C86.578 159.737 85.2096 161.022 84.6176 162.699C84.0246 164.375 84.283 166.234 85.3106 167.686C86.3372 169.137 88.0048 170 89.7838 170C91.5618 170 93.2292 169.137 94.2559 167.686C95.2835 166.234 95.5419 164.375 94.95 162.699C94.357 161.022 92.9886 159.737 91.2772 159.253V138.571C95.4158 140.304 99.8324 141.28 104.317 141.451V149.785C102.606 150.269 101.236 151.554 100.643 153.232C100.051 154.909 100.31 156.769 101.337 158.22C102.364 159.673 104.033 160.535 105.812 160.535C107.59 160.535 109.258 159.673 110.286 158.22C111.312 156.768 111.571 154.908 110.979 153.232C110.386 151.554 109.016 150.27 107.305 149.785V141.451C116.773 141.064 125.749 137.131 132.449 130.431C139.149 123.732 143.083 114.758 143.47 105.291H151.805C152.29 107.002 153.575 108.371 155.252 108.964C156.929 109.555 158.788 109.297 160.24 108.27C161.691 107.243 162.554 105.576 162.554 103.798C162.554 102.019 161.691 100.352 160.24 99.3257C158.788 98.2982 156.929 98.0398 155.252 98.6327C153.575 99.2246 152.29 100.593 151.805 102.304H143.47C143.299 97.821 142.324 93.405 140.589 89.266H161.275C161.65 90.5769 162.5 91.6992 163.661 92.4151C164.821 93.1299 166.206 93.3863 167.545 93.1341C168.886 92.8809 170.082 92.1369 170.901 91.048C171.72 89.9591 172.104 88.6034 171.976 87.2467C171.848 85.8899 171.217 84.6291 170.208 83.7132C169.199 82.7972 167.884 82.2908 166.521 82.2929L166.521 82.2927ZM146.702 62.3962C146.696 61.4167 147.267 60.5258 148.158 60.1184C149.049 59.712 150.095 59.8652 150.832 60.5102C151.57 61.1552 151.859 62.1722 151.575 63.109C151.289 64.0458 150.482 64.7283 149.51 64.8544C149.306 64.7679 149.077 64.7679 148.873 64.8544C147.635 64.696 146.705 63.6446 146.702 62.3963L146.702 62.3962ZM117.068 54.4268V54.4258C117.067 53.4182 117.674 52.5105 118.605 52.124C119.536 51.7384 120.608 51.951 121.32 52.6637C122.033 53.3754 122.247 54.4466 121.861 55.3783C121.476 56.3088 120.568 56.9163 119.56 56.9163C118.184 56.9152 117.07 55.8013 117.068 54.4258L117.068 54.4268ZM56.4328 120.036H56.4317C55.4239 120.036 54.5151 119.43 54.1295 118.498C53.7439 117.568 53.9576 116.495 54.6694 115.784C55.3822 115.071 56.4536 114.857 57.3854 115.244C58.3161 115.629 58.9226 116.538 58.9226 117.546C58.9205 118.92 57.8064 120.034 56.4318 120.036L56.4328 120.036ZM64.4034 149.665V149.664C63.4237 149.669 62.5327 149.099 62.1252 148.208C61.7187 147.317 61.8719 146.271 62.517 145.533C63.1622 144.797 64.1793 144.506 65.1162 144.792C66.0532 145.077 66.7368 145.885 66.8619 146.856C66.7754 147.059 66.7754 147.288 66.8619 147.491C66.7035 148.73 65.6519 149.66 64.4034 149.664L64.4034 149.665ZM92.2732 164.5C92.2732 165.508 91.6657 166.417 90.735 166.801C89.8043 167.187 88.733 166.973 88.02 166.26C87.3082 165.547 87.0946 164.476 87.4812 163.546C87.8668 162.615 88.7756 162.009 89.7834 162.009C91.1581 162.011 92.2722 163.125 92.2732 164.5L92.2732 164.5ZM103.32 42.5035C103.32 41.4959 103.928 40.5872 104.859 40.2027C105.79 39.8172 106.862 40.0308 107.574 40.7435C108.286 41.4563 108.499 42.5275 108.113 43.4581C107.727 44.3886 106.818 44.9951 105.811 44.9951C104.436 44.993 103.321 43.879 103.32 42.5036L103.32 42.5035ZM44.5044 106.291C43.4966 106.291 42.5889 105.683 42.2033 104.753C41.8177 103.822 42.0313 102.751 42.7431 102.038C43.456 101.326 44.5273 101.113 45.4581 101.499C46.3887 101.883 46.9963 102.792 46.9963 103.799C46.9953 105.175 45.8801 106.29 44.5045 106.291L44.5044 106.291ZM108.301 155.03C108.301 156.038 107.694 156.946 106.763 157.331C105.833 157.717 104.761 157.503 104.048 156.791C103.335 156.079 103.123 155.007 103.508 154.077C103.893 153.146 104.802 152.539 105.81 152.539C107.185 152.54 108.3 153.655 108.301 155.03L108.301 155.03ZM105.81 138.501C96.604 138.501 87.7767 134.844 81.2673 128.336C74.7587 121.828 71.1028 113.001 71.1028 103.798C71.1028 94.5951 74.7587 85.768 81.2684 79.2607C87.7769 72.7524 96.6051 69.0967 105.81 69.0967C115.014 69.0967 123.843 72.7521 130.351 79.2607C136.86 85.7683 140.517 94.594 140.517 103.798C140.507 112.998 136.847 121.819 130.34 128.325C123.833 134.831 115.011 138.49 105.809 138.501L105.81 138.501ZM157.051 101.306H157.05C158.058 101.306 158.967 101.914 159.351 102.844C159.737 103.776 159.523 104.847 158.81 105.559C158.097 106.272 157.026 106.484 156.095 106.099C155.165 105.712 154.558 104.804 154.558 103.797C154.56 102.421 155.674 101.308 157.05 101.307L157.051 101.306ZM166.519 90.2611C165.512 90.2621 164.603 89.6546 164.217 88.7241C163.832 87.7935 164.044 86.7213 164.757 86.0095C165.47 85.2968 166.541 85.0832 167.473 85.4687C168.404 85.8553 169.01 86.764 169.01 87.7716C169.008 89.146 167.894 90.26 166.519 90.261L166.519 90.2611Z"/>
  <path fill-rule="evenodd"
        d="M103 201C157.124 201 201 157.124 201 103C201 48.8761 157.124 5 103 5C48.8761 5 5 48.8761 5 103C5 157.124 48.8761 201 103 201ZM103 206C159.885 206 206 159.885 206 103C206 46.1147 159.885 0 103 0C46.1147 0 0 46.1147 0 103C0 159.885 46.1147 206 103 206Z"/>
</svg>
