<svg xmlns="http://www.w3.org/2000/svg" viewBox="0 0 130.02 130.02" class="icon">
  <defs>
    <radialGradient id="radial-gradient" cx="157.41" cy="188.91" r="65.02"
                    gradientTransform="matrix(0, -1.98, -1.84, 0, 382.87, 452.02)" gradientUnits="userSpaceOnUse">
      <stop offset="0" stop-color="#fd5"/>
      <stop offset="0.1" stop-color="#fd5"/>
      <stop offset="0.5" stop-color="#ff543e"/>
      <stop offset="1" stop-color="#c837ab"/>
    </radialGradient>
    <radialGradient id="radial-gradient-2" cx="140.6" cy="292.01" r="69.93"
                    gradientTransform="matrix(0.17, 0.87, 3.58, -0.72, -1098.72, 92.45)" gradientUnits="userSpaceOnUse">
      <stop offset="0" stop-color="#3771c8"/>
      <stop offset="0.13" stop-color="#3771c8"/>
      <stop offset="1" stop-color="#60f" stop-opacity="0"/>
    </radialGradient>
  </defs>
  <g>
    <path style="fill:url(#radial-gradient)" d="M130,0H0V130H130"/>
    <path style="fill:url(#radial-gradient-2)" d="M130,0H0V130H130Z"/>
    <path style="fill:#fff"
          d="M65,17c-13,0-14.67.06-19.79.29a35,35,0,0,0-11.65,2.23,24.59,24.59,0,0,0-14,14,35,35,0,0,0-2.23,11.65C17.06,50.33,17,52,17,65s.06,14.67.29,19.79a35,35,0,0,0,2.23,11.65,24.59,24.59,0,0,0,14,14,35,35,0,0,0,11.65,2.23c5.12.23,6.75.29,19.79.29s14.67-.06,19.79-.29a35,35,0,0,0,11.65-2.23,24.59,24.59,0,0,0,14-14,35.55,35.55,0,0,0,2.23-11.65c.23-5.12.29-6.75.29-19.79s-.06-14.67-.29-19.79a35.55,35.55,0,0,0-2.23-11.65,23.57,23.57,0,0,0-5.54-8.51,23.38,23.38,0,0,0-8.5-5.53,35.15,35.15,0,0,0-11.66-2.23C79.66,17.06,78,17,65,17Zm-4.3,8.65H65c12.82,0,14.34.05,19.4.28a26.39,26.39,0,0,1,8.91,1.65,15.89,15.89,0,0,1,9.11,9.11,26.39,26.39,0,0,1,1.65,8.91c.23,5.06.28,6.58.28,19.39s0,14.33-.28,19.39a26.39,26.39,0,0,1-1.65,8.91,15.91,15.91,0,0,1-9.11,9.1,26.58,26.58,0,0,1-8.91,1.66c-5.06.23-6.58.28-19.4.28s-14.33,0-19.39-.28a26.71,26.71,0,0,1-8.92-1.66,15.91,15.91,0,0,1-9.11-9.1,26.65,26.65,0,0,1-1.65-8.91c-.23-5.06-.28-6.59-.28-19.4s.05-14.33.28-19.39a26.78,26.78,0,0,1,1.65-8.92,15.89,15.89,0,0,1,9.11-9.11,26.52,26.52,0,0,1,8.92-1.65c4.43-.2,6.14-.26,15.09-.27Zm29.93,8a5.76,5.76,0,1,0,5.76,5.76,5.76,5.76,0,0,0-5.76-5.76ZM65,40.35A24.65,24.65,0,1,0,89.65,65,24.65,24.65,0,0,0,65,40.35ZM65,49A16,16,0,1,1,49,65,16,16,0,0,1,65,49Z"/>
  </g>
</svg>
