<!--
  - Copyright (c) TIKI Inc.
  - MIT license. See LICENSE file in root directory.
  -->

<svg preserveAspectRatio="none" viewBox="0 0 389 1070" xmlns="http://www.w3.org/2000/svg">
  <path
    d="M256.182 47.8352C238.613 61.9023 219.358 77.3193 194.526 91.5443C148.183 118.092 111.17 118.171 72.1135 118.256C53.5027 118.296 34.4277 118.337 13.6581 121.243C9.31706 121.851 4.73503 122.641 0 123.619V1069.55C36.3591 1070.66 63.1935 1055.19 94.551 1037.12C115.412 1025.09 138.275 1011.91 167.275 1001.69C221.397 982.616 262.815 992.692 306.521 1003.32L306.522 1003.32C327.347 1008.39 348.692 1013.58 372.178 1015.81C377.794 1016.34 383.784 1016.67 390 1016.76V0.493368C388.129 0.302294 386.229 0.137606 384.299 0L353.903 0C312.56 2.69538 286.957 23.1944 256.182 47.8352Z"/>
</svg>
