<!--
  - Copyright (c) TIKI Inc.
  - MIT license. See LICENSE file in root directory.
  -->

<svg viewBox="0 0 1200 389" xmlns="http://www.w3.org/2000/svg">
  <path
    d="M625.861 52.3204C633.308 43.7619 645.269 39.8205 645.382 25.7439C654.183 21.5773 664.338 18.4242 674.494 18.3116C693.225 18.0863 711.956 19.7755 730.687 20.789C734.749 21.0142 738.924 21.9151 742.986 22.0278C753.029 22.4782 758.332 28.334 757.993 38.4691C757.203 59.8654 756.527 81.1491 755.849 102.545C755.737 106.487 756.414 110.541 756.865 116.847C765.779 108.063 772.775 100.744 778.191 91.9599C786.315 78.8969 794.327 65.8339 803.128 53.2213C806.175 48.8295 811.253 45.6763 815.54 42.0727C818.7 39.37 822.988 37.5682 825.132 34.3025C833.03 22.4782 842.96 18.762 856.388 23.8296C859.434 24.9557 863.158 25.0683 866.43 24.8431C883.807 23.3791 900.845 25.1809 918.11 26.5322C928.378 27.3205 938.985 25.4061 949.366 24.3926C960.311 23.3791 962.455 25.9692 958.505 35.9917C957.828 37.6808 957.828 39.4826 957.264 41.1718C955.572 46.0141 954.443 51.1943 951.848 55.5862C941.693 72.5906 931.199 89.3698 920.818 106.262C910.211 123.491 899.491 140.608 888.772 157.838C881.325 169.887 873.877 182.05 865.866 195C875.344 208.513 884.823 222.365 894.752 235.878C909.76 256.486 925.218 276.756 940 297.477C943.047 301.756 948.801 306.261 944.626 313.13C952.863 323.04 942.821 330.585 941.241 339.256C940 346.125 937.63 352.657 935.599 360.427C933.907 362.679 930.973 365.833 928.942 369.436C926.911 373.152 923.864 373.152 920.366 373.152C899.717 372.927 879.068 372.364 858.419 372.815C844.201 373.152 830.096 375.067 815.879 375.968C811.591 376.193 807.19 375.179 805.047 374.954C784.059 347.026 764.312 320.675 744.566 294.437C741.97 318.873 745.017 342.634 749.756 366.283C743.324 370.45 737.231 373.152 729.671 372.477C720.757 371.576 711.617 370.675 702.703 371.013C690.404 371.463 678.104 372.815 665.805 374.278C658.809 375.179 651.926 378.445 646.397 370.788C645.269 369.324 642.222 369.436 640.191 368.535C633.421 365.607 632.97 363.355 633.534 355.585C634.324 345.112 634.211 334.639 633.872 324.166C632.744 279.572 631.39 235.09 630.149 190.495C630.149 189.369 630.036 188.243 630.036 187.117C631.954 147.027 628.117 107.05 627.44 67.0726C627.553 62.1177 626.538 57.2753 625.861 52.3204ZM728.43 347.477C728.43 341.621 728.543 337.567 728.43 333.4C727.979 312.454 727.527 291.621 727.076 270.675C726.963 266.959 727.076 263.13 727.414 259.414C728.43 250.405 732.718 248.378 740.052 254.009C744.114 257.162 747.612 261.329 750.659 265.608C768.713 291.396 786.767 317.184 804.37 343.31C807.98 348.603 811.591 351.643 818.023 350.855C820.618 350.517 823.326 350.855 825.921 350.517C847.248 348.378 868.574 346.801 890.013 349.842C890.916 349.954 891.818 349.166 893.398 348.603C892.495 346.576 892.044 344.774 891.029 343.423C879.632 327.207 868.461 310.765 856.5 295C842.057 275.856 826.711 257.5 811.93 238.581C809.334 235.202 806.626 230.923 806.513 226.982C806.513 221.576 804.934 218.198 800.871 214.707C794.778 209.414 795.117 207.049 800.42 200.631C805.949 193.986 811.365 187.342 816.782 180.698C830.661 164.032 841.606 144.888 858.08 130.361C859.66 128.897 860.224 126.307 861.239 124.28C860.675 123.829 860.111 123.379 859.547 122.816C856.726 125.068 853.792 127.095 851.084 129.46C837.092 141.847 823.1 154.347 809.109 166.734C806.626 168.987 804.144 172.59 800.759 169.099C796.584 164.933 800.872 162.568 803.58 160.203C818.813 147.478 834.046 134.752 849.279 122.027C858.757 114.144 868.687 106.712 877.375 98.0409C885.951 89.7076 893.285 80.1356 901.071 71.014C902.312 69.5501 902.877 67.4105 904.569 63.9195C893.285 63.9195 883.581 63.6942 873.99 64.0321C858.531 64.5951 842.509 60.6537 828.178 70.0005C818.926 69.7753 814.186 76.3068 809.673 82.7257C791.28 108.739 773.114 134.865 754.721 160.878C751.787 165.045 747.725 168.536 744.114 172.252C743.437 173.041 742.196 173.266 741.068 173.829C738.811 172.365 736.667 171.014 734.636 169.775C731.815 171.014 729.22 172.252 724.706 174.279C723.804 155.698 723.014 138.694 722.224 121.689C721.434 104.572 720.757 87.3428 720.08 70.5636C710.263 65.2708 661.63 65.6087 647.638 70.6762C646.961 104.685 645.946 138.356 645.72 172.027C645.494 196.351 646.284 220.788 646.623 245.112C646.848 264.932 646.736 284.752 647.526 304.572C648.09 318.648 648.202 332.837 652.49 347.702C677.54 347.477 702.139 347.477 728.43 347.477Z"/>
  <path
    d="M266.709 149.146C262.871 195.838 260.388 241.394 264.677 287.063C265.355 294.561 266.596 302.059 267.386 309.557C268.176 317.736 266.935 324.325 259.711 330.46C250.794 337.958 240.185 344.32 234.992 356.135C233.074 360.679 227.995 362.27 222.464 362.042C191.763 360.565 161.062 359.202 130.361 357.953C130.023 357.953 129.571 357.839 129.233 357.725C122.686 351.931 120.655 344.888 121.67 336.027C123.025 322.962 123.364 309.67 123.815 296.492C124.379 279.111 124.718 261.729 124.944 244.347C125.169 219.922 125.169 195.384 125.395 170.959C125.734 141.421 126.411 144.261 98.6449 142.33C79.344 140.967 59.7045 143.921 40.1779 144.602C33.4057 144.829 26.6334 144.261 19.9741 144.034C14.782 143.921 12.7503 140.853 12.6375 135.968C12.6375 135.627 12.6375 135.173 12.6375 134.832C15.5721 108.589 8.4613 82.9147 8.00981 56.8991C7.89694 51.1052 8.68699 47.4699 14.1048 43.9481C22.5701 38.4951 30.3582 31.7924 37.3562 24.6353C44.0155 17.819 50.562 16.4557 60.156 17.5918C78.6667 19.6367 97.629 19.6367 116.253 19.1822C146.953 18.5006 177.767 17.0237 208.468 15.5469C250.117 13.6156 291.653 11.3435 333.303 9.4122C342.897 8.95778 353.168 7.02648 359.94 18.2734C353.281 39.5175 357.683 61.6705 358.473 83.8235C358.812 94.7296 360.505 105.636 360.956 116.655C361.295 123.699 361.295 130.288 353.619 135.173C348.202 138.581 344.703 145.284 339.962 149.942C338.156 151.759 334.093 153.804 332.738 153.009C324.837 148.124 315.921 148.692 307.568 148.351C294.362 147.556 280.931 148.692 266.709 149.146ZM138.037 340.117C152.258 341.821 164.335 343.297 176.413 344.661C177.767 344.774 179.234 344.206 180.702 343.979C189.167 342.729 197.745 341.48 206.21 340.457C213.096 339.662 220.094 339.435 228.22 338.753C228.22 332.619 228.446 327.734 228.22 322.849C227.769 311.943 226.527 301.036 226.527 290.017C226.527 271.499 227.43 252.981 227.43 234.464C227.317 205.835 226.753 177.207 226.301 148.578C226.076 135.287 227.995 133.128 241.539 133.469C246.731 133.583 252.036 133.242 257.228 133.128C259.034 133.128 260.84 133.355 262.533 133.696C266.483 134.378 270.434 135.855 274.384 135.968C289.396 136.195 304.408 135.855 319.42 135.855C323.483 135.855 327.434 135.855 331.384 135.855C334.319 116.201 329.804 54.5134 325.289 44.4025C293.459 45.0842 261.969 45.993 230.478 46.2202C200.454 46.3338 170.431 44.7434 140.407 45.5386C104.063 46.4474 67.7183 49.174 31.374 51.1053C30.0195 51.2189 28.6651 52.0141 26.8591 52.6957C23.5859 76.0984 23.1345 99.3874 26.6335 122.676C27.5364 128.584 30.1324 131.538 36.1145 131.197C38.7106 131.083 41.3066 131.765 44.0155 131.651C74.3777 131.197 104.74 130.629 135.102 130.402C138.262 130.402 141.31 131.878 145.26 132.787C142.777 140.967 139.391 148.01 138.827 155.167C137.134 175.048 135.892 195.156 135.779 215.151C135.553 236.282 136.908 257.526 137.359 278.656C137.585 299.332 137.811 320.122 138.037 340.117ZM190.86 354.999C191.199 354.431 191.537 353.863 191.763 353.408C190.183 352.499 188.603 351.477 187.023 350.568C186.684 351.136 186.345 351.704 186.007 352.386C187.587 353.181 189.167 354.09 190.86 354.999Z"/>
  <path
    d="M1147.31 364.314C1142.92 366.46 1139.65 367.589 1136.95 369.509C1133.69 371.768 1130.99 371.994 1127.61 369.961C1126.03 369.057 1124.01 368.606 1122.21 368.606C1105.32 368.832 1088.55 369.622 1071.66 369.283C1057.37 369.057 1042.51 371.542 1028.67 362.846C1028.33 356.634 1027.99 350.31 1027.76 343.985C1026.98 310.217 1026.86 276.449 1025.4 242.681C1023.49 200.33 1020.45 157.979 1017.75 115.627C1017.41 110.432 1015.61 105.35 1014.82 100.268C1014.14 95.8634 1013.02 91.233 1013.69 86.9414C1016.06 71.8078 1016.28 71.8078 1011.44 60.4012C1014.14 54.8673 1016.62 49.4463 1019.21 44.1383C1019.55 43.4607 1019.89 42.7831 1020.45 42.2184C1028.33 34.7646 1035.87 27.0849 1044.2 20.3087C1047.35 17.8241 1052.3 16.6947 1056.58 16.4688C1066.6 16.13 1076.62 16.8076 1086.75 16.9206C1095.3 17.0335 1103.86 17.1464 1112.41 16.6947C1120.86 16.2429 1129.3 15.0006 1137.74 13.9842C1147.53 12.7419 1149.22 14.6618 1146.63 24.0356C1146.07 25.8426 1145.06 27.8754 1145.39 29.4565C1150.68 52.3827 1146.86 75.7606 1148.88 98.9126C1152.04 134.488 1152.82 170.176 1155.64 205.751C1157.55 230.823 1161.27 255.782 1163.97 280.741C1164.87 288.985 1165.09 297.23 1165.66 305.474C1165.77 308.072 1164.87 311.686 1166.22 313.154C1172.97 320.495 1167.46 325.69 1163.4 330.659C1160.14 334.612 1158 338.452 1157.78 343.647C1157.66 345.905 1155.86 349.632 1154.29 349.971C1146.07 352.117 1145.96 357.764 1147.31 364.314ZM1124.91 356.973C1125.25 355.279 1125.7 354.15 1125.7 353.133C1124.12 316.768 1122.66 280.289 1120.63 243.923C1118.94 213.544 1116.13 183.276 1114.55 152.896C1113.54 133.358 1113.99 113.82 1113.76 94.2823C1113.65 82.6498 1112.3 71.2431 1107.46 60.1753C1105.66 59.7236 1103.86 58.7072 1102.17 58.8201C1081.68 59.6106 1061.08 60.5142 1040.6 61.5306C1035.64 61.7565 1034.97 65.5963 1034.97 69.662C1035.08 82.4239 1035.19 95.1857 1035.19 107.948C1035.19 113.143 1034.63 118.451 1035.08 123.646C1036.66 143.41 1038.8 163.174 1040.26 182.938C1041.5 200.895 1041.27 218.852 1039.81 236.921C1038.46 252.507 1041.95 268.431 1041.16 284.129C1040.26 303.215 1043.86 321.511 1047.35 339.92C1048.48 345.68 1049.83 351.439 1050.95 357.086C1076.05 356.973 1100.03 356.973 1124.91 356.973Z"/>
  <path
    d="M421.456 340.984C432.251 334.212 430.433 325.972 430.092 317.958C428.842 289.175 427.706 260.391 426.342 231.721C425.66 217.16 424.297 202.599 424.297 188.039C424.41 168.85 425.774 149.774 426.342 130.585C427.024 109.929 427.365 89.3857 427.933 68.7295C428.16 59.3609 428.046 49.9923 428.501 40.6237C428.615 38.2533 429.751 35.5443 431.455 33.8511C437.592 27.7559 444.41 22.4508 450.319 16.2426C455.091 11.1632 459.977 8.34138 467.023 9.13151C481.909 10.8246 496.908 12.8564 511.794 13.4207C522.248 13.8722 532.816 12.0663 543.384 11.2761C564.065 9.80875 563.384 9.80873 563.838 29.5619C564.634 73.1317 566.224 116.589 567.588 160.158C568.611 191.651 569.747 223.143 571.111 254.635C571.792 270.325 573.27 286.014 574.633 301.704C575.201 308.138 573.951 313.217 568.838 317.845C563.838 322.36 560.088 328.117 555.543 333.083C551.225 337.937 543.611 338.727 540.43 345.386C539.748 346.854 535.771 347.418 533.384 347.644C506.567 349.224 479.863 346.515 453.159 345.386C447.932 345.161 442.591 345.499 437.364 344.822C432.933 344.258 428.501 342.677 421.456 340.984ZM529.407 338.84C529.407 324.505 529.521 311.75 529.407 298.995C529.18 277.21 529.066 255.425 528.498 233.753C527.93 211.629 526.453 189.506 526.112 167.495C525.657 134.761 525.885 102.141 525.771 69.4068C525.771 65.4562 525.316 61.6184 524.976 57.5549C521.226 57.3292 519.067 57.1034 516.794 57.2163C497.135 58.1193 477.477 59.1352 457.932 56.4262C455.773 56.0875 453.387 56.3133 451.114 56.6519C442.137 58.0064 440.66 60.0382 440.887 69.2939C441.796 106.091 442.819 142.888 443.273 179.686C443.614 204.067 443.273 228.561 443.046 252.942C442.819 275.065 442.137 297.189 441.91 319.312C441.796 323.376 442.478 327.439 442.819 331.39C471.113 342 499.522 338.05 529.407 338.84Z"/>
</svg>
