<?xml version="1.0" encoding="UTF-8"?>
<svg xmlns="http://www.w3.org/2000/svg" viewBox="0 0 171.13 79.29" class="logo">
  <g>
    <path d="M50.2,22.79H34.7V79.16H16V22.79H.74V7.18H50.2Z"/>
    <path d="M75.15,11.43a9.38,9.38,0,0,1-2.82,6.91,9.8,9.8,0,0,1-13.78,0,9.46,9.46,0,0,1-2.81-6.89,9.38,9.38,0,0,1,2.81-6.87,9.83,9.83,0,0,1,13.76,0A9.33,9.33,0,0,1,75.15,11.43ZM74.09,79.16H56.74V30.23H74.09Z"/>
    <path d="M146.55,79.16H122.29l-19-19.93V79.16H85.9V0h17.35V47.84l18.09-17.61h23.73L120.55,52.8Z"/>
    <path d="M170.91,11.43a9.41,9.41,0,0,1-2.81,6.91,9.4,9.4,0,0,1-6.92,2.82,9.29,9.29,0,0,1-6.86-2.84,9.42,9.42,0,0,1-2.81-6.89,9.34,9.34,0,0,1,2.81-6.87,9.34,9.34,0,0,1,6.86-2.81,9.44,9.44,0,0,1,6.89,2.81A9.29,9.29,0,0,1,170.91,11.43Zm-1,67.73H152.51V30.23h17.35Z"/>
  </g>
</svg>
