<!--
  - Copyright (c) TIKI Inc.
  - MIT license. See LICENSE file in root directory.
  -->

<svg preserveAspectRatio="none" viewBox="0 0 1728 1006" xmlns="http://www.w3.org/2000/svg">
<path d="M895.349 126.211C978.163 108.062 1043.8 82.4265 1103.68 59.0357C1208.81 17.9726 1296.23 -16.1731 1427.81 9.24619C1805.38 82.189 1872.11 315.133 1822.58 466.433C1870.35 615.251 1784.1 743.352 1713.41 802.695C1575.44 922.065 1214.27 1114.06 873.378 927.073C594.014 773.836 480.772 789.248 341.035 808.266C310.261 812.454 278.201 816.817 242.799 819.592C-19.7857 840.176 -92.7962 801.683 -85.9918 710.966C-82.2834 661.525 -53.2269 614.873 -5 574.319V370.878C-219.135 70.156 125.595 39.1393 316.051 63.591C382.411 72.1106 442.507 86.8619 501.14 101.254C624.188 131.458 740.797 160.081 895.349 126.211Z" />
</svg>
