<!--
  - Copyright (c) TIKI Inc.
  - MIT license. See LICENSE file in root directory.
  -->

<svg preserveAspectRatio="none" viewBox="0 0 390 785" xmlns="http://www.w3.org/2000/svg">
  <path
    d="M247.837 46.2459C280.15 39.1644 305.759 29.1618 329.126 20.035C350.149 11.8235 369.357 4.321 390 0.292725V756.278C336.401 782.989 265.832 798.381 193.545 766.82C141.79 744.223 107.101 736.086 79.0665 735H65.8213C47.1991 735.727 31.092 739.418 13.7349 743.397L13.7339 743.397L13.7316 743.398C9.25889 744.423 4.70316 745.467 0 746.484V19.795C7.63219 20.2413 14.9719 20.9355 21.8029 21.8125C47.6956 25.1367 71.144 30.8924 94.022 36.5081C142.034 48.2933 187.533 59.4616 247.837 46.2459Z"/>
</svg>
