<svg viewBox="0 0 94 89" xmlns="http://www.w3.org/2000/svg">
<path d="M70.3741 7.00293C78.4806 12.1289 82.7583 23.1252 87.4345 32.0413L89.0997 36.8188C89.9481 39.6525 90.2111 39.7646 90.6732 42.7276C91.7391 49.5623 90.0813 54.3122 87.3868 60.4315C83.9115 68.3242 76.8909 76.3303 70.1358 79.8836C66.0607 82.0272 61.4885 84.0916 57.1261 85.0975C49.5937 86.8343 41.1175 85.723 33.5609 84.6105C27.0042 83.6452 19.5628 78.7768 14.6181 73.6956C9.88653 68.8333 6.64233 62.9819 4.49153 56.0197C0.431305 42.8768 5.16973 26.4053 12.569 16.4568C18.1995 8.8864 24.9621 4.03451 33.5847 3.2214C38.4857 2.75924 43.5387 3.16411 48.453 3.16411C55.9277 3.16411 63.5293 2.67476 70.3741 7.00293Z" class="button-fill"/>
<path d="M2.10268 56.7576C-2.25015 42.6675 2.81674 25.3796 10.5628 14.9648C16.4654 7.02865 23.805 1.63251 33.3498 0.732443C36.8467 0.402693 40.526 0.497137 43.9965 0.586218C45.5343 0.625692 47.031 0.664114 48.4527 0.664114C49.1388 0.664114 49.8365 0.658872 50.544 0.653562C57.2541 0.603185 64.8406 0.546231 71.71 4.88994C76.2587 7.76619 79.6 12.1971 82.3416 16.827C84.1167 19.8247 85.7516 23.1165 87.2975 26.2287C88.1029 27.8503 88.884 29.4231 89.6483 30.8802C89.7054 30.9892 89.7545 31.1023 89.795 31.2185L91.4601 35.996C91.4723 36.031 91.4838 36.0663 91.4944 36.1017C91.7123 36.8295 91.8989 37.3897 92.0656 37.8901C92.4904 39.1655 92.7862 40.0536 93.1431 42.3424C94.3221 49.9023 92.4225 55.1984 89.6746 61.439C86.0111 69.759 78.6352 78.2374 71.2995 82.0961C67.16 84.2735 62.3635 86.4554 57.6876 87.5336C49.6253 89.3926 40.6874 88.1867 33.1965 87.0838C25.8882 86.0079 17.9745 80.7296 12.8262 75.4391C7.77551 70.2489 4.35028 64.0331 2.10268 56.7576ZM14.5748 17.9488C7.52225 27.4311 3.11231 43.086 6.87992 55.2818C8.93393 61.9307 11.9971 67.4177 16.4096 71.9521C21.1505 76.8239 28.1199 81.2825 33.9248 82.1371C41.5472 83.2593 49.5616 84.2761 56.5642 82.6614C60.6131 81.7278 64.9609 79.7808 68.9718 77.671C75.1462 74.4232 81.8114 66.8894 85.0986 59.4241C87.7397 53.426 89.1556 49.2223 88.2028 43.1128C87.9124 41.2503 87.7512 40.7686 87.3874 39.6809C87.2193 39.1784 87.0079 38.5467 86.7206 37.5897L85.1341 33.0379C84.291 31.4247 83.4879 29.8054 82.6883 28.1935C81.2037 25.2004 79.7315 22.2324 78.0393 19.3746C75.4464 14.9959 72.5956 11.3657 69.0378 9.11595C63.4747 5.59823 57.3809 5.62622 50.4635 5.65799C49.8009 5.66103 49.1307 5.66411 48.4527 5.66411C46.7488 5.66411 45.1006 5.62089 43.4871 5.57859C40.1784 5.49183 37.0159 5.40891 33.8192 5.71036C26.1187 6.43651 19.9332 10.7442 14.5748 17.9488Z" class="button-outline"/>
<path d="M38.498 55.1509C38.498 47.1149 39.2157 39.146 38.0127 31.176C40.0303 32.5211 41.1419 32.1471 43.4998 33C48.1568 34.6844 58.9999 45 58.9999 45C58.9999 45 54.4006 48.5027 52.9999 50C52.9999 50 45.9999 56 40.3589 58.9804C37.6687 59.4955 38.498 57.0985 38.498 55.1509Z" class="play-fill"/>
<path d="M36.6715 29.0663C37.5066 28.5354 38.5762 28.547 39.3995 29.0959C40.0798 29.5494 40.5491 29.6954 41.1653 29.8308C41.2931 29.8589 41.4399 29.8882 41.6037 29.9209C42.277 30.0551 43.2378 30.2467 44.3503 30.6491C45.8674 31.1978 47.6597 32.3413 49.3476 33.5571C51.0932 34.8145 52.9405 36.308 54.6122 37.7241C56.2886 39.1441 57.8132 40.5076 58.9175 41.5147C59.4703 42.0188 59.9194 42.4351 60.2312 42.7263C60.3872 42.8719 60.5089 42.9863 60.5922 43.0649L60.688 43.1554L60.7222 43.1878C60.7224 43.188 60.7231 43.1887 59 45L60.7231 43.1887C61.2537 43.6935 61.5363 44.4056 61.4962 45.1369C61.4561 45.8682 61.0973 46.5451 60.5147 46.9888L60.4665 47.0256L60.3225 47.1361C60.197 47.2325 60.0153 47.3725 59.7926 47.5454C59.3466 47.8916 58.7388 48.3677 58.0896 48.8886C56.7308 49.9786 55.3808 51.1145 54.8256 51.7079C54.7629 51.7749 54.6966 51.8384 54.6269 51.8981L53 50C54.6269 51.8981 54.6271 51.898 54.6269 51.8981L54.626 51.8989L54.6196 51.9045L54.6021 51.9194L54.5375 51.9743C54.4815 52.0218 54.4001 52.0906 54.2953 52.1786C54.0857 52.3545 53.7822 52.6072 53.4012 52.9189C52.6399 53.5419 51.5658 54.4032 50.311 55.3604C47.8276 57.2544 44.5351 59.6015 41.5268 61.1909C41.3077 61.3066 41.0725 61.3892 40.8291 61.4358C39.9144 61.611 38.7148 61.6662 37.6346 61.0095C36.4606 60.2957 36.0785 59.1531 35.9533 58.3977C35.8345 57.68 35.8824 56.9397 35.9172 56.4618C35.9283 56.3093 35.939 56.1726 35.9489 56.0472C35.9772 55.6878 35.9981 55.4224 35.9981 55.1509C35.9981 52.8233 36.0534 50.5575 36.1076 48.3325C36.2477 42.5889 36.3811 37.1162 35.5408 31.5492C35.3931 30.5707 35.8364 29.5972 36.6715 29.0663ZM51.2803 48.1806C52.1522 47.2788 53.7218 45.9824 54.9609 44.9884C55.0224 44.9391 55.0835 44.8902 55.1442 44.8417C54.1171 43.9113 52.8027 42.7441 51.3804 41.5392C49.7592 40.1659 48.0225 38.7647 46.4253 37.6141C44.7703 36.4221 43.4609 35.6444 42.6496 35.3509C41.9876 35.1115 41.5048 35.0047 40.951 34.8922C41.3281 39.5853 41.2131 44.2916 41.1016 48.8567C41.0495 50.9909 40.9981 53.0942 40.9981 55.1509C40.9981 55.3477 40.9912 55.5515 40.981 55.7505C43.1309 54.4473 45.3873 52.8273 47.2787 51.3847C48.4789 50.4693 49.5075 49.6444 50.2349 49.0492C50.5983 48.7519 50.8858 48.5125 51.081 48.3487C51.165 48.2782 51.2319 48.2217 51.2803 48.1806Z" class="play-outline"/>
</svg>
