<!--
  - Copyright (c) TIKI Inc.
  - MIT license. See LICENSE file in root directory.
  -->

<svg preserveAspectRatio="none" viewBox="0 0 390 522" xmlns="http://www.w3.org/2000/svg">
  <path
    d="M390 23.1885C356.639 62.8252 283.707 145.175 194.8 141.513C108.42 137.955 53.4718 68.0285 3.09057 3.91309L3.08702 3.90856L3.05967 3.87375C2.31071 2.92063 1.56276 1.9688 0.815737 1.01848C0.544023 0.67283 0.272104 0.333351 0 0V499.279C10.9297 504.262 30.9775 504.238 64.9014 498.475C72.8026 497.132 79.9204 495.501 86.7528 493.935L86.753 493.935C117.777 486.824 142.919 481.061 208.824 509.836C284.844 543.027 358.065 499.73 390 469.863L390 356.437V213.379L390 23.1885Z"/>
</svg>
