<!--
  - Copyright (c) TIKI Inc.
  - MIT license. See LICENSE file in root directory.
  -->

<svg preserveAspectRatio="none" viewBox="0 0 1728 1018" xmlns="http://www.w3.org/2000/svg">
  <path
    d="M1101.68 58.0357C1041.8 81.4265 976.163 107.062 893.349 125.211C738.797 159.081 622.189 130.458 499.14 100.254C440.507 85.8619 380.411 71.1106 314.052 62.591C218.132 50.2764 83.0825 52.0309 0 95.2217V922.299C50.4267 939.844 136.987 938.057 276.563 914.345C311.57 908.398 343.106 901.17 373.377 894.232L373.38 894.231L373.382 894.231C510.842 862.724 622.24 837.191 914.252 964.686C1260.12 1115.7 1592.92 909.358 1728 777.048V143.499C1663.56 84.5812 1566.16 35.3599 1425.81 8.24615C1402.11 3.66705 1379.84 1.02094 1358.64 0H1318.25C1240.52 3.80566 1175.46 29.2171 1101.68 58.0357Z"/>
</svg>
