<!--
  - Copyright (c) TIKI Inc.
  - MIT license. See LICENSE file in root directory.
  -->

<svg preserveAspectRatio="none" viewBox="0 0 1728 1412" xmlns="http://www.w3.org/2000/svg">
  <g>
    <path
      d="M937.9 173.896C1189.5 106.106 1296.43 -35.74 1524.96 15.3544C1965.3 113.806 2025.92 449.606 1955.76 647.424C1890.5 831.404 1596.03 1050.82 1173.87 1054.28C822.736 1057.16 385.617 1094.51 15.0856 605.19C-355.445 115.873 69.9683 62.3937 297.366 95.6692C524.765 128.945 686.305 241.687 937.9 173.896Z"/>
    <path
      d="M843.12 813.262C1095.26 730.605 1192.03 621.937 1431.4 620.159C1892.65 616.733 1985.77 825.908 1931.9 965.357C1881.8 1095.05 1599.58 1282.92 1166.37 1349.86C806.049 1405.54 360.597 1496.82 -64.886 1235.26C-490.369 973.701 -58.4215 873.719 178.156 860.522C414.733 847.324 590.984 895.919 843.12 813.262Z"/>
    <rect x="-70" y="302" width="1724" height="794"/>
  </g>
</svg>
