<svg viewBox="0 0 58 58" xmlns="http://www.w3.org/2000/svg">
<path d="M51.6704 52.5582C42.7836 59.8139 15.0351 59.8139 6.32961 52.5582C-2.55719 45.3026 -1.65038 14.2846 6.32961 6.12197C14.3096 -2.04066 43.6904 -2.04066 51.6704 6.12197C59.6504 14.2846 60.5572 45.3027 51.6704 52.5582Z" class="border"/>
<path d="M50.231 51.0625C41.9084 57.8575 15.9217 57.8575 7.769 51.0625C-0.553555 44.2675 0.295672 15.2189 7.769 7.57458C15.2423 -0.0697818 42.7577 -0.0697818 50.231 7.57458C57.7043 15.2189 58.5536 44.2676 50.231 51.0625Z" class="bkg"/>
<path d="M46.2499 19.9821C46.6689 19.4026 46.128 18.349 45.45 18.8607C45.3205 18.9586 45.2063 19.0639 45.0768 19.1542C44.8482 19.1016 44.5968 19.1693 44.3759 19.4026C43.9493 19.8616 43.5227 20.3282 43.0961 20.7873C42.7761 21.0657 42.4486 21.3442 42.1362 21.6377C42.7 20.8174 43.2027 19.9745 43.5532 19.1016C43.7208 18.8833 43.896 18.6726 44.0636 18.4468C44.3302 18.1007 44.254 17.619 44.0179 17.333C44.0179 16.8589 43.5989 16.4149 43.1418 16.716C42.6619 17.032 42.1972 17.3632 41.7401 17.7018C41.961 17.4083 42.1819 17.1073 42.4029 16.8138C43.1799 15.7978 41.8849 14.3303 41.024 15.3388C37.6874 19.2746 34.3964 23.2557 31.1588 27.2894C29.6581 29.1633 28.1879 31.0597 26.7405 32.9712C23.48 29.517 20.0291 26.3186 16.3725 23.3309C15.7402 22.8117 14.7346 23.6771 15.0013 24.4598C15.2146 25.0618 15.466 25.6488 15.7326 26.2283C15.5574 26.0853 15.3898 25.9348 15.2146 25.7918C14.6813 25.3553 13.7824 26.0853 14.0338 26.7626C14.27 27.3722 14.5366 27.9667 14.8184 28.5537C14.3766 28.2527 13.9424 27.9442 13.4853 27.6507C12.9825 27.3271 12.3122 27.9893 12.655 28.5387C12.8226 28.8021 12.9978 29.0579 13.173 29.3138C12.8454 29.0354 12.5255 28.7494 12.1979 28.4785C11.5199 27.9065 10.5448 28.93 11.238 29.5095C12.3579 30.5856 13.4929 31.6467 14.6356 32.7003C17.0048 35.1236 19.2444 37.7124 21.6212 40.1131C21.6212 40.241 21.6669 40.3689 21.766 40.4818C22.0402 40.843 22.3297 41.1967 22.6268 41.5354C22.7106 41.8138 22.9315 42.0471 23.1905 42.16C23.998 43.0405 24.8436 43.8834 25.6892 44.7488C26.0091 45.08 26.5195 45.0875 26.8395 44.7488C30.1152 41.3322 33.3223 37.8629 36.4761 34.3183C39.2643 31.1802 42.6695 28.0495 44.6349 24.2416C44.6959 24.1211 44.6882 23.9932 44.6501 23.8803C45.3434 23.0977 46.0366 22.3075 46.7298 21.5323C47.3164 20.9152 46.8517 20.0949 46.2499 19.9821ZM25.3388 34.7548C23.9523 33.4378 22.543 32.1359 21.1261 30.8565C20.41 30.0287 19.732 29.1783 19.1226 28.3054C21.3013 30.3298 23.381 32.467 25.3769 34.6946C25.3616 34.7247 25.354 34.7398 25.3388 34.7548ZM33.9394 30.6157C34.4193 29.9685 34.8992 29.3289 35.3792 28.6817C35.661 28.3656 35.9429 28.042 36.2247 27.7259C35.4782 28.7042 34.7164 29.6675 33.9394 30.6157Z" class="ico"/>
</svg>
