<svg viewBox="0 0 146 134" xmlns="http://www.w3.org/2000/svg">
<path d="M43.7504 15.8787C41.2081 17.2773 41.2853 17.0492 38.3766 18.7228L37.5282 19.2445C34.9788 20.9549 33.2863 21.9278 30.014 23.3914C26.3781 25.4648 24.2657 27.6076 21.8156 30.6485L21.6189 30.8928C16.1207 37.7163 10.7617 44.367 7.39583 52.5933C4.58084 59.4731 3.35971 67.3934 1.74353 74.635C0.0150757 82.3796 -0.754181 92.4305 0.972763 100.232C4.60335 116.633 21.268 127.57 36.396 131.614C47.3104 134.531 58.8335 134.16 70.0208 133.65C78.4347 133.266 86.9759 132.352 95.135 130.159C112.755 125.424 125.315 110.769 134.476 95.6102C142.57 82.2178 147.302 67.907 145.685 52.1731C144.274 38.4542 137.092 27.1152 127.058 17.9471C121.279 12.6672 115.049 7.76817 108.495 3.50041C106.243 2.03382 103.982 0.406656 101.237 0.17153C86.3451 -1.1039 69.5734 4.99532 55.8258 9.86729C51.3614 11.4494 47.8101 13.6453 43.7504 15.8787Z" class="bkg"/>
<path d="M67.2376 66.9017C65.4229 66.9017 63.9902 68.4851 63.9902 70.4167C63.9902 72.3484 65.4547 73.9317 67.2376 73.9317C69.0523 73.9317 70.4849 72.3484 70.4849 70.4167C70.5168 68.4851 69.0523 66.9017 67.2376 66.9017ZM78.858 66.9017C77.0433 66.9017 75.6106 68.4851 75.6106 70.4167C75.6106 72.3484 77.0751 73.9317 78.858 73.9317C80.6727 73.9317 82.1053 72.3484 82.1053 70.4167C82.1053 68.4851 80.6727 66.9017 78.858 66.9017Z" class="ico"/>
<path d="M94.3308 40.3334H51.6696C48.072 40.3334 45.1431 43.2468 45.1431 46.8568V89.6701C45.1431 93.2801 48.072 96.1934 51.6696 96.1934H87.7725L86.0851 90.3351L90.1602 94.1034L94.0125 97.6501L100.857 103.667V46.8568C100.857 43.2468 97.9284 40.3334 94.3308 40.3334ZM82.0418 81.6901C82.0418 81.6901 80.8957 80.3284 79.9406 79.1251C84.1112 77.9534 85.7031 75.3568 85.7031 75.3568C84.3978 76.2118 83.1561 76.8134 82.0418 77.2251C80.45 77.8901 78.9218 78.3334 77.4255 78.5868C74.3692 79.1568 71.5676 78.9984 69.1798 78.5551C67.3651 78.2068 65.8051 77.7001 64.4998 77.1934C63.7676 76.9084 62.9716 76.5601 62.1757 76.1168C62.0802 76.0534 61.9847 76.0218 61.8892 75.9584C61.8255 75.9268 61.7937 75.8951 61.7618 75.8634C61.1888 75.5468 60.8704 75.3251 60.8704 75.3251C60.8704 75.3251 62.3986 77.8584 66.4418 79.0618C65.4867 80.2651 64.3088 81.6901 64.3088 81.6901C57.2729 81.4684 54.5986 76.8768 54.5986 76.8768C54.5986 66.6801 59.1831 58.4151 59.1831 58.4151C63.7676 54.9951 68.1292 55.0901 68.1292 55.0901L68.4476 55.4701C62.7169 57.1168 60.0745 59.6184 60.0745 59.6184C60.0745 59.6184 60.7749 59.2384 61.9529 58.7001C65.3594 57.2118 68.0655 56.8001 69.1798 56.7051C69.3708 56.6734 69.53 56.6418 69.721 56.6418C71.6631 56.3884 73.8598 56.3251 76.152 56.5784C79.1765 56.9268 82.4239 57.8134 85.7349 59.6184C85.7349 59.6184 83.2198 57.2434 77.8076 55.5968L78.2533 55.0901C78.2533 55.0901 82.6149 54.9951 87.1994 58.4151C87.1994 58.4151 91.7839 66.6801 91.7839 76.8768C91.7839 76.8768 89.0778 81.4684 82.0418 81.6901Z" class="ico"/>
</svg>
