<svg viewBox="0 0 142 161" xmlns="http://www.w3.org/2000/svg">
<path d="M126.587 133.001C126.216 130.996 126.98 128.979 128.225 127.094C125.804 123.918 119.467 122.453 115.92 122.384C107.564 122.221 102.255 126.211 95.6697 130.455C89.2649 134.583 86.0897 142.367 78.9126 145.575C60.5741 153.774 38.7707 134.058 28.8173 121.419C13.3693 101.802 8.61256 75.0951 19.1656 52.089C29.7651 28.9814 54.6846 19.5435 78.4067 17.0013C107.513 13.8819 110.768 1.69515 131.687 21.9391C143.615 33.4821 151.296 50.5729 153.972 67.4363C157.743 91.2054 162.527 123.475 143.313 130.116C141.508 130.74 127.236 136.516 126.587 133.001Z" class="bkg"/>
<path d="M73.2019 101.6V72.7842H63.6264V101.511H73.2019V101.6ZM68.3694 68.8466C71.6805 68.8466 73.8283 66.6094 73.8283 63.9247C73.7388 61.1505 71.77 59.0027 68.4589 59.0027C65.2373 58.9132 63 61.061 63 63.9247C63 66.6094 65.1478 68.8466 68.3694 68.8466Z" class="ico"/>
<path d="M78.4814 101.6H87.9674V85.4918C87.9674 84.5969 88.0569 83.7914 88.3254 83.165C89.0413 81.4647 90.6521 79.6749 93.2473 79.6749C96.7374 79.6749 98.0798 82.2701 98.0798 86.1182V101.511H107.566V85.0443C107.566 76.1848 102.912 72.0682 96.5585 72.0682C91.368 72.0682 89.1308 74.9319 87.8779 76.9007H87.9674V72.6947H78.4814C78.5709 75.4689 78.4814 101.6 78.4814 101.6Z" class="ico"/>
</svg>
