<svg viewBox="-30 0 170 224" xmlns="http://www.w3.org/2000/svg">
<path d="M26.7504 60.8784C24.2081 62.277 24.2853 62.0489 21.3766 63.7225L20.5282 64.2442C17.9788 65.9546 16.2863 66.9275 13.014 68.3911C9.37814 70.4645 7.26572 72.6073 4.81563 75.6482L4.61886 75.8924C-0.879303 82.716 -6.23825 89.3667 -9.60417 97.593C-12.4192 104.473 -13.6403 112.393 -15.2565 119.635C-16.9849 127.379 -17.7542 137.43 -16.0272 145.231C-12.3967 161.632 4.26803 172.57 19.396 176.613C30.3104 179.531 41.8335 179.16 53.0208 178.65C61.4347 178.266 69.9759 177.352 78.135 175.159C95.7551 170.424 108.315 155.769 117.476 140.61C125.57 127.218 130.302 112.907 128.685 97.1728C127.274 83.4539 120.092 72.1149 110.058 62.9468C104.279 57.6669 98.049 52.7679 91.495 48.5001C89.2427 47.0335 86.9822 45.4064 84.2369 45.1712C69.3451 43.8958 52.5734 49.995 38.8258 54.867C34.3614 56.4491 30.8101 58.645 26.7504 60.8784Z" class="bkg"/>
<path d="M72.7751 111.791C70.1181 112.688 68.208 114.761 67.3529 117.226L49.2729 116.474C49.2181 116.258 49.1974 116.041 49.1251 115.827C48.9908 115.429 48.7994 115.07 48.6157 114.705L62.4578 101.6C64.5542 102.804 67.1188 103.169 69.5832 102.337C74.144 100.798 76.6024 95.8331 75.0625 91.2723C73.5227 86.7114 68.5582 84.2531 63.9974 85.7929C59.4366 87.3328 56.9783 92.2971 58.5181 96.8579C58.6524 97.2555 58.8438 97.6149 59.0275 97.9792L45.1853 111.085C43.089 109.881 40.5244 109.515 38.06 110.347C33.4992 111.887 31.0408 116.852 32.5807 121.412C34.1205 125.973 39.085 128.432 43.6458 126.892C46.3028 125.995 48.2129 123.922 49.068 121.457L67.148 122.209C67.2028 122.425 67.2236 122.642 67.2959 122.856C68.8357 127.417 73.8002 129.875 78.361 128.335C82.9218 126.796 85.3802 121.831 83.8403 117.27C82.3004 112.71 77.3359 110.251 72.7751 111.791Z" class="ico"/>
</svg>
