<svg viewBox="0 0 141 138" xmlns="http://www.w3.org/2000/svg">
<path d="M55.973 5.6465C49.9764 9.03299 44.7331 12.9528 40.1133 18.0859C39.8288 18.4976 39.5941 19.0417 39.5123 19.2623C38.5557 20.4701 38.3581 20.3754 37.7169 21.347C37.1464 22.2114 36.6223 23.1015 36.1525 24.003C35.5275 25.2027 35.4999 26.1514 35.154 27.4491C34.3512 30.461 32.9695 32.7995 31.4262 35.4843C30.1769 37.6576 28.3065 39.1709 26.2007 40.46C24.2481 41.6554 21.7364 41.877 19.9767 43.3345C9.64787 51.8897 5.94336 65.4543 2.36958 77.7951C-0.572922 87.956 -0.915359 98.6183 2.13658 108.86C4.19403 115.764 10.3589 121.252 15.6831 125.67C22.3502 131.202 30.0015 134.438 38.3992 136.311C45.0678 137.798 51.7046 138.161 58.5192 137.941C66.9683 137.669 75.5903 137.061 83.8814 135.319C99.1031 132.121 112.709 124.636 124.238 114.222C133.682 105.692 140.856 96.1395 140.996 82.8549C141.162 67.168 135.922 49.8784 126.568 37.3166C118.601 26.6183 107.248 17.7893 96.2463 10.471C89.9335 6.2718 82.2431 0.594286 74.4121 0.0487634C67.8 -0.411856 61.6112 2.46234 55.973 5.6465Z" class="bkg"/>
<path d="M63.6092 40.8245L64.2782 43.4093C61.7805 44.0332 59.3721 45.0137 57.142 46.3507L55.7594 44.0778C58.2124 42.6071 60.8885 41.493 63.6092 40.8245ZM77.3462 40.8245L76.7218 43.4093C79.2195 44.0332 81.6279 45.0137 83.858 46.3507L85.2406 44.0778C82.7876 42.6071 80.1115 41.493 77.3462 40.8245ZM46.0364 53.7486C44.5646 56.1998 43.4495 58.8737 42.7805 61.6368L45.412 62.2608C46.0364 59.7651 47.0176 57.3585 48.3556 55.1302L46.0364 53.7486ZM44.6538 68.5C44.6538 67.2076 44.743 65.9152 44.966 64.6228L42.3345 64.2217C41.8885 67.0739 41.8885 69.9261 42.3345 72.7783L44.966 72.3772C44.743 71.0848 44.6538 69.7479 44.6538 68.5ZM85.2406 92.9222L83.858 90.6493C81.6279 91.9863 79.2195 93.0113 76.6772 93.6353L77.3016 96.2201C80.1115 95.4625 82.7876 94.3483 85.2406 92.9222ZM96.3462 68.5C96.3462 69.7924 96.257 71.0848 96.034 72.3772L98.6655 72.7783C99.1115 69.9261 99.1115 67.0739 98.6655 64.2217L96.034 64.6228C96.3016 65.9152 96.3462 67.163 96.3462 68.5ZM98.1749 75.3186L95.588 74.6947C94.9636 77.2349 93.9824 79.6415 92.6444 81.8698L94.919 83.2514C96.3908 80.7557 97.5059 78.0817 98.1749 75.3186ZM74.358 94.0364C71.7711 94.4375 69.1843 94.4375 66.5974 94.0364L66.196 96.6658C69.0505 97.1114 71.9049 97.1114 74.7594 96.6658L74.358 94.0364ZM91.3063 83.7862C89.7453 85.8808 87.9167 87.708 85.8204 89.2678L87.4261 91.407C89.7453 89.7134 91.7523 87.6634 93.4918 85.3905L91.3063 83.7862ZM85.8204 47.6431C87.9167 49.2029 89.7453 51.0301 91.3063 53.1247L93.4472 51.5203C91.7523 49.2029 89.7007 47.1974 87.4261 45.5039L85.8204 47.6431ZM49.6491 53.1693C51.2101 51.0747 53.0387 49.2475 55.135 47.6876L53.5739 45.5485C51.2547 47.242 49.2477 49.292 47.5528 51.5649L49.6491 53.1693ZM94.9636 53.7486L92.689 55.1302C94.027 57.3585 95.0528 59.7651 95.6772 62.3053L98.2641 61.6814C97.5059 58.8737 96.3908 56.1998 94.9636 53.7486ZM66.5974 42.9636C69.1843 42.5625 71.7711 42.5625 74.358 42.9636L74.7594 40.3342C71.9049 39.8886 69.0505 39.8886 66.196 40.3342L66.5974 42.9636ZM51.0763 92.12L45.5458 93.4124L46.8392 87.8862L44.2077 87.2623L42.9143 92.7885C42.5575 94.2146 43.4495 95.6853 44.9214 95.9973C45.3228 96.0864 45.7242 96.0864 46.1256 95.9973L51.6561 94.7494L51.0763 92.12ZM44.7876 84.9003L47.3744 85.5242L48.2664 81.6916C46.973 79.5524 45.9918 77.1904 45.3674 74.7392L42.7805 75.3632C43.3603 77.7252 44.2523 79.998 45.412 82.1372L44.7876 84.9003ZM57.2312 90.6939L53.3955 91.5852L54.02 94.1701L56.8298 93.5016C58.9707 94.6603 61.2453 95.5516 63.6092 96.131L64.2336 93.5461C61.8251 92.9668 59.4613 92.0309 57.2312 90.6939ZM70.5223 45.3256C57.7218 45.3256 47.3298 55.7095 47.3298 68.5C47.3298 72.8675 48.5786 77.1458 50.8979 80.8002L48.6678 90.3374L58.1678 88.1091C69.0059 94.9277 83.3228 91.6744 90.1467 80.8448C96.9707 70.0152 93.7148 55.7095 82.8768 48.8909C79.1303 46.5735 74.8932 45.3256 70.5223 45.3256Z" class="ico"/>
</svg>
