<svg viewBox="0 0 149 142" xmlns="http://www.w3.org/2000/svg">
<path d="M114.077 6.84838C127.802 15.6181 135.045 34.431 142.963 49.6852L145.782 57.8587C147.219 62.7068 147.664 62.8985 148.447 67.9677C150.251 79.6608 147.445 87.7872 142.882 98.2564C136.998 111.759 125.111 125.457 113.673 131.536C106.773 135.203 99.0317 138.735 91.6454 140.456C78.8916 143.427 64.5399 141.526 51.7451 139.623C40.6436 137.971 28.0438 129.642 19.6716 120.949C11.6601 112.63 6.16713 102.62 2.52543 90.7085C-4.34927 68.2229 3.67374 40.0428 16.202 23.0225C25.7356 10.0707 37.1858 1.76987 51.7855 0.378767C60.0838 -0.411929 68.6394 0.280743 76.9602 0.280743C89.6163 0.280743 102.487 -0.556447 114.077 6.84838Z" class="bkg"/>
<path d="M74.5 105C93.5538 105 109 89.5538 109 70.5C109 51.4462 93.5538 36 74.5 36C55.4462 36 40 51.4462 40 70.5C40 89.5538 55.4462 105 74.5 105Z" class="ico"/>
<path d="M90.6384 53.3566C83.4218 56.2189 60.1883 65.7194 51.3882 69.3429C50.2311 69.8301 50.292 71.4744 51.4796 71.8703L61.5281 75.0676L61.6097 75.317L65.2128 86.3646C65.4868 87.1563 66.4612 87.4608 67.1007 86.9127L72.7205 82.2836C76.0255 84.7334 80.0221 87.6975 82.5691 89.5923C83.8176 90.5058 85.5533 89.8054 85.8578 88.3134C86.2879 86.0925 86.9053 82.9152 87.5961 79.3598L87.5972 79.3541L87.598 79.3497C89.3034 70.5733 91.4554 59.4976 92.3436 54.8182C92.5568 53.7829 91.5824 52.9608 90.6384 53.3566ZM67.0093 78.0212C67.0093 78.0212 66.4917 87.1867 66.1567 87.1258C65.7304 87.0649 65.365 86.7604 65.2128 86.3341L61.5283 75.0676L84.2137 61.5172C84.3355 61.4259 84.4877 61.6086 84.3659 61.7304L67.0093 78.0212Z" class="bkg"/>
<path d="M66.1567 87.1258C66.4917 87.1867 67.0093 78.0212 67.0093 78.0212L84.3659 61.7304C84.4877 61.6086 84.3355 61.4259 84.2137 61.5172L61.5283 75.0676L65.2128 86.3341C65.365 86.7604 65.7304 87.0649 66.1567 87.1258Z" class="bkg" fill-opacity="0.8"/>
</svg>
