<svg viewBox="0 0 147 135" xmlns="http://www.w3.org/2000/svg">
<path d="M44.3627 16.1276C41.8204 17.5262 41.8976 17.2981 38.9889 18.9717L38.1405 19.4935C35.5911 21.2039 33.8986 22.1767 30.6263 23.6403C26.9904 25.7137 24.878 27.8565 22.4279 30.8975L22.2312 31.1417C16.733 37.9652 11.3741 44.616 8.00813 52.8423C5.19315 59.722 3.97202 67.6424 2.35583 74.8839C0.62738 82.6286 -0.141876 92.6795 1.58507 100.481C5.21565 116.881 21.8803 127.819 37.0083 131.863C47.9227 134.78 59.4458 134.409 70.6331 133.899C79.047 133.515 87.5882 132.601 95.7473 130.408C113.367 125.673 125.927 111.018 135.089 95.8591C143.182 82.4668 147.914 68.1559 146.297 52.4221C144.887 38.7031 137.704 27.3641 127.67 18.1961C121.891 12.9161 115.661 8.01713 109.107 3.74937C106.855 2.28278 104.595 0.655619 101.849 0.420492C86.9574 -0.85494 70.1857 5.24428 56.4381 10.1163C51.9737 11.6984 48.4224 13.8943 44.3627 16.1276Z" class="bkg"/>
<path d="M98.9726 52.5224C95.6547 52.5224 92.5933 51.4241 90.135 49.5714C87.3155 47.4475 85.2898 44.332 84.5744 40.7411C84.3972 39.8539 84.3019 38.9383 84.2928 38H74.8147V63.8771L74.8033 78.0512C74.8033 81.8406 72.3336 85.0537 68.9101 86.1838C67.9165 86.5116 66.8434 86.6671 65.7261 86.6058C64.2999 86.5275 62.9634 86.0975 61.8018 85.4032C59.3298 83.926 57.6538 81.2461 57.6084 78.1805C57.5368 73.3893 61.4134 69.483 66.2053 69.483C67.1512 69.483 68.0596 69.6373 68.9101 69.9175V62.8447V60.3021C68.013 60.1694 67.1001 60.1002 66.1769 60.1002C60.932 60.1002 56.0266 62.2785 52.5201 66.203C49.8699 69.1687 48.2802 72.9525 48.0349 76.92C47.7135 82.1322 49.6223 87.0869 53.3241 90.7424C53.868 91.2791 54.4392 91.7772 55.0364 92.2366C58.2102 94.6771 62.0902 96 66.1769 96C67.1001 96 68.013 95.9319 68.9101 95.7992C72.7276 95.2342 76.25 93.4881 79.0297 90.7424C82.4453 87.3694 84.3325 82.8913 84.353 78.125L84.3041 56.9585C85.9336 58.2145 87.7152 59.2538 89.6274 60.0604C92.6013 61.3141 95.7546 61.9495 98.9999 61.9484V55.0718V52.5201C99.0021 52.5224 98.9749 52.5224 98.9726 52.5224V52.5224Z" class="ico"/>
</svg>
