<svg viewBox="0 0 129 134" xmlns="http://www.w3.org/2000/svg">
<path d="M26.7504 15.8784C24.2081 17.277 24.2853 17.0489 21.3766 18.7225L20.5282 19.2442C17.9788 20.9546 16.2863 21.9275 13.014 23.3911C9.37814 25.4645 7.26572 27.6073 4.81563 30.6482L4.61886 30.8924C-0.879303 37.716 -6.23825 44.3667 -9.60417 52.593C-12.4192 59.4728 -13.6403 67.3931 -15.2565 74.6347C-16.9849 82.3793 -17.7542 92.4302 -16.0272 100.231C-12.3967 116.632 4.26803 127.57 19.396 131.613C30.3104 134.531 41.8335 134.16 53.0208 133.65C61.4347 133.266 69.9759 132.352 78.135 130.159C95.7551 125.424 108.315 110.769 117.476 95.6098C125.57 82.2175 130.302 67.9067 128.685 52.1728C127.274 38.4539 120.092 27.1149 110.058 17.9468C104.279 12.6669 98.049 7.76787 91.495 3.5001C89.2427 2.03351 86.9822 0.406351 84.2369 0.171225C69.3451 -1.10421 52.5734 4.99501 38.8258 9.86699C34.3614 11.4491 30.8101 13.645 26.7504 15.8784Z" class="bkg"/>
<path d="M81.9726 52.5224C78.6547 52.5224 75.5933 51.4241 73.135 49.5714C70.3155 47.4475 68.2898 44.332 67.5744 40.7411C67.3972 39.8539 67.3019 38.9383 67.2928 38H57.8147V63.8771L57.8033 78.0512C57.8033 81.8406 55.3336 85.0537 51.9101 86.1838C50.9165 86.5116 49.8434 86.6671 48.7261 86.6058C47.2999 86.5275 45.9634 86.0975 44.8018 85.4032C42.3298 83.926 40.6538 81.2461 40.6084 78.1805C40.5368 73.3893 44.4134 69.483 49.2053 69.483C50.1512 69.483 51.0596 69.6373 51.9101 69.9175V62.8447V60.3021C51.013 60.1694 50.1001 60.1002 49.1769 60.1002C43.932 60.1002 39.0266 62.2785 35.5201 66.203C32.8699 69.1687 31.2802 72.9525 31.0349 76.92C30.7135 82.1322 32.6223 87.0869 36.3241 90.7424C36.868 91.2791 37.4392 91.7772 38.0364 92.2366C41.2102 94.6771 45.0902 96 49.1769 96C50.1001 96 51.013 95.9319 51.9101 95.7992C55.7276 95.2342 59.25 93.4881 62.0297 90.7424C65.4453 87.3694 67.3325 82.8913 67.353 78.125L67.3041 56.9585C68.9336 58.2145 70.7152 59.2538 72.6274 60.0604C75.6013 61.3141 78.7546 61.9495 81.9999 61.9484V55.0718V52.5201C82.0021 52.5224 81.9749 52.5224 81.9726 52.5224V52.5224Z" class="ico"/>
</svg>
