<svg viewBox="0 0 47 47" xmlns="http://www.w3.org/2000/svg">
  <path
    d="M23.1009 32.3312C23.5142 32.3312 23.8493 32.6663 23.8493 33.0797L23.8493 34.676C23.8493 35.0894 23.5142 35.4244 23.1009 35.4244C22.6875 35.4244 22.3525 35.0894 22.3525 34.676L22.3525 33.0797C22.3525 32.6663 22.6875 32.3312 23.1009 32.3312Z"/>
  <path
    d="M0.453112 21.6078C0.745211 21.3157 1.13342 21.1549 1.54659 21.1549C1.54669 21.1549 1.54678 21.1549 1.54687 21.1549L3.46809 21.1551C3.49241 21.1551 3.50912 21.1278 3.51426 21.1024C4.04237 18.5121 5.22664 16.0701 6.9392 14.0403C8.59448 12.0784 10.7145 10.5355 13.0786 9.56642C13.4599 7.95667 14.2651 6.29698 15.8529 5.04937C17.3901 3.8415 18.9383 3.60907 19.0034 3.59971C19.2179 3.56914 19.4357 3.63303 19.5996 3.77523C19.7636 3.91742 19.8577 4.1236 19.8577 4.3406L19.8577 8.38205L22.5738 8.38205C23.245 6.07887 25.3736 4.39054 27.8906 4.39054C30.461 4.39054 32.6275 6.15093 33.2493 8.5292C36.9498 9.03326 40.3544 10.8261 42.8806 13.6135C45.537 16.5448 47 20.3393 47 24.2983C47 33.1843 42.3867 40.4145 40.9727 42.4187C40.5359 43.0379 39.8206 43.4076 39.0591 43.4076L35.8737 43.4076C34.5806 43.4076 33.5286 42.3556 33.5286 41.0626L33.5286 40.0266C32.7226 40.1508 31.9036 40.2144 31.0838 40.2144L23.8492 40.2144L23.8492 41.0626C23.8492 42.3556 22.7972 43.4076 21.5042 43.4076L18.0051 43.4076C16.9067 43.4076 15.9424 42.628 15.7122 41.554L15.3282 39.7617C10.4093 38.5639 6.45442 35.113 4.50787 30.6349L1.54669 30.6349C0.693803 30.6349 1.5112e-06 29.9411 1.58577e-06 29.0882L2.14409e-06 22.7017C2.18023e-06 22.2884 0.16083 21.9 0.453112 21.6078ZM27.8906 5.88747C25.6622 5.88747 23.8493 7.70046 23.8493 9.92892C23.8493 10.4988 23.9713 11.0601 24.2011 11.5754L31.5802 11.5754C31.81 11.06 31.9321 10.4988 31.9321 9.92892C31.9321 7.70037 30.1191 5.88747 27.8906 5.88747ZM1.49684 29.088C1.49684 29.1156 1.51915 29.138 1.54678 29.138L3.94525 29.138C3.53758 27.8616 3.2867 26.5194 3.21491 25.1353C3.19343 24.7225 3.51077 24.3705 3.92359 24.3491C4.33639 24.3282 4.68835 24.645 4.70973 25.0578C5.0268 31.1707 9.1874 36.39 14.9756 38.1161L13.9299 33.2366C13.8432 32.8324 14.1007 32.4346 14.5049 32.348C14.9088 32.2612 15.3069 32.5188 15.3935 32.923L17.1758 41.2402C17.2591 41.6287 17.6079 41.9107 18.0051 41.9107L21.5043 41.9107C21.972 41.9107 22.3525 41.5302 22.3525 41.0625L22.3525 37.8692C22.3525 37.4559 22.6876 37.1208 23.101 37.1208C23.5143 37.1208 23.8494 37.4559 23.8494 37.8692L23.8494 38.7174L31.084 38.7174C31.9051 38.7174 32.7248 38.6468 33.5288 38.5098L33.5288 33.0795C33.5288 32.6662 33.8639 32.3311 34.2772 32.3311C34.6906 32.3311 35.0256 32.6662 35.0256 33.0795L35.0256 41.0626C35.0256 41.5303 35.4061 41.9108 35.8738 41.9108L39.0591 41.9108C39.3389 41.9108 39.5906 41.7814 39.7496 41.5559C41.0993 39.6426 45.5032 32.7437 45.5032 24.2982C45.5032 20.7115 44.1779 17.2739 41.7715 14.6186C39.5693 12.1885 36.631 10.5931 33.4265 10.0691C33.4136 10.582 33.3295 11.0891 33.1786 11.5752L33.4788 11.5752C33.8921 11.5752 34.2272 11.9103 34.2272 12.3236C34.2272 12.737 33.8921 13.072 33.4788 13.072L22.3025 13.072C21.8891 13.072 21.5541 12.737 21.5541 12.3236C21.5541 11.9103 21.8891 11.5752 22.3025 11.5752L22.6028 11.5752C22.438 11.0447 22.3524 10.4894 22.3524 9.92874C22.3524 9.91194 22.3535 9.89551 22.3537 9.8788L19.8578 9.8788L19.8578 11.5253C19.8578 11.9386 19.5227 12.2737 19.1094 12.2737C18.696 12.2737 18.3609 11.9386 18.3609 11.5253L18.3609 5.32329C16.9409 5.86067 14.2696 7.51127 14.2696 12.3237C14.2696 12.7371 13.9346 13.0721 13.5212 13.0721C13.1079 13.0721 12.7728 12.7371 12.7728 12.3237C12.7728 12.0067 12.7843 11.6719 12.8105 11.3259C11.0052 12.2053 9.3855 13.4622 8.08317 15.0057C6.53181 16.8445 5.45907 19.0561 4.9809 21.4015C4.8332 22.1262 4.19686 22.6522 3.46781 22.6521L1.54659 22.6519C1.54155 22.6519 1.52594 22.6519 1.51134 22.6665C1.49675 22.6811 1.49675 22.6965 1.49675 22.7017L1.49675 29.088L1.49684 29.088Z"/>
  <path
    d="M8.03034 21.6419C8.49483 20.3957 9.72445 19.5583 11.0897 19.5583C12.4549 19.5583 13.6844 20.3956 14.1491 21.6419C14.2935 22.0292 14.0966 22.4602 13.7093 22.6046C13.322 22.7492 12.891 22.5521 12.7467 22.1648C12.4992 21.5011 11.8333 21.0552 11.0897 21.0552C10.3462 21.0552 9.6802 21.5011 9.43281 22.1648C9.32054 22.466 9.03506 22.652 8.73148 22.652C8.64455 22.652 8.55624 22.6367 8.47014 22.6046C8.08285 22.4602 7.88594 22.0291 8.03034 21.6419Z"/>
  <path
    d="M27.1423 24.8689L27.1423 28.6936C25.6741 28.5151 24.6476 27.8349 24.6476 27.217C24.6476 26.8037 24.3125 26.4686 23.8992 26.4686C23.4858 26.4686 23.1508 26.8037 23.1508 27.217C23.1508 28.7471 24.8521 29.9773 27.1423 30.1995L27.1423 30.2855C27.1423 30.6989 27.4773 31.0339 27.8907 31.0339C28.304 31.0339 28.6391 30.6989 28.6391 30.2855L28.6391 30.1995C30.9293 29.9773 32.6306 28.7471 32.6306 27.217C32.6306 25.0316 30.4716 24.2429 28.6391 23.7275L28.6391 19.9029C30.1073 20.0814 31.1338 20.7616 31.1338 21.3795C31.1338 21.7928 31.4688 22.1279 31.8822 22.1279C32.2956 22.1279 32.6306 21.7928 32.6306 21.3795C32.6306 19.8494 30.9293 18.6192 28.6391 18.397L28.6391 18.311C28.6391 17.8976 28.304 17.5626 27.8907 17.5626C27.4773 17.5626 27.1423 17.8976 27.1423 18.311L27.1423 18.397C24.8521 18.6192 23.1508 19.8494 23.1508 21.3795C23.1508 23.565 25.3099 24.3536 27.1423 24.8689ZM28.6391 25.2945C30.4824 25.8727 31.1338 26.3982 31.1338 27.217C31.1338 27.8349 30.1073 28.5151 28.6391 28.6936L28.6391 25.2945ZM27.1423 19.9028L27.1423 23.3019C25.299 22.7237 24.6476 22.1982 24.6476 21.3794C24.6476 20.7615 25.6742 20.0813 27.1423 19.9028Z"/>
</svg>
