<svg viewBox="0 0 33 33" xmlns="http://www.w3.org/2000/svg">
<path d="M16.5 33C7.40179 33 0 25.5982 0 16.5C0 7.40179 7.40179 0 16.5 0C25.5982 0 33 7.40179 33 16.5C33 25.5982 25.5982 33 16.5 33ZM16.5 2.35707C8.70168 2.35707 2.35707 8.70168 2.35707 16.5C2.35707 24.2983 8.70168 30.6429 16.5 30.6429C24.2983 30.6429 30.6429 24.2983 30.6429 16.5C30.6429 8.70168 24.2983 2.35707 16.5 2.35707Z"/>
<path d="M22.3932 23.5715C22.0915 23.5715 21.7899 23.4564 21.5598 23.2261L9.7742 11.4404C9.31371 10.98 9.31371 10.2342 9.7742 9.77398C10.2344 9.31375 10.9804 9.31349 11.4407 9.77398L23.2263 21.5596C23.6868 22.0201 23.6868 22.7658 23.2263 23.2261C22.9962 23.4564 22.6948 23.5715 22.3932 23.5715Z" />
<path d="M10.6073 23.5715C10.3057 23.5715 10.0043 23.4564 9.7742 23.226C9.31371 22.7658 9.31371 22.0198 9.7742 21.5596L21.5598 9.77395C22.0203 9.31347 22.766 9.31347 23.2263 9.77395C23.6865 10.2342 23.6868 10.9802 23.2263 11.4404L11.4407 23.226C11.2105 23.4564 10.9089 23.5715 10.6073 23.5715Z" />
</svg>
