<svg width="114" height="110" viewBox="0 0 114 110" fill="none" xmlns="http://www.w3.org/2000/svg">
<path d="M32.167 30.5974C31.9799 30.3581 31.7059 30.2268 31.417 30.3502C31.2156 30.0105 30.8406 29.8869 30.4797 29.8636C30.3787 29.8713 30.2634 29.7786 30.2058 29.7323C29.9752 29.547 29.7155 29.516 29.4557 29.4851C29.0949 29.4618 28.6764 29.3922 28.2872 29.1682L28.2295 29.1219C27.8111 29.0523 27.4218 28.8283 26.9023 28.7664C26.5849 28.6891 26.2675 28.6118 25.9936 28.4805C25.7196 28.3492 25.4022 28.2719 25.099 28.295C24.5361 28.2871 24.0024 28.1249 23.5412 27.7542C23.426 27.6616 23.2673 27.6229 23.1662 27.6306C23.0075 27.592 22.8922 27.4993 22.7193 27.3603C22.7627 27.3063 22.7919 27.1519 22.8353 27.0979C23.1243 26.9745 23.4701 27.2525 23.8459 27.021C23.7883 26.9747 23.774 26.8744 23.774 26.8744C23.6588 26.7817 23.5001 26.7431 23.399 26.7508C23.0958 26.7738 22.8219 26.6425 22.5479 26.5112C22.5194 26.3105 22.6205 26.3028 22.6781 26.3492C23.0532 26.4728 23.5008 26.388 23.8901 26.612C24.2793 26.8359 24.7554 26.9519 25.1738 27.0215C25.5489 27.1451 25.9816 27.315 26.4 27.3846C26.4577 27.431 26.5153 27.4773 26.6164 27.4696C26.2698 27.5467 25.8513 27.4771 25.4044 27.2068C25.3034 27.2145 25.2023 27.2222 25.0578 27.2839C25.0721 27.3842 25.0286 27.4382 25.0429 27.5386C25.0571 27.6389 25.1147 27.6852 25.1724 27.7316C25.2876 27.8242 25.4463 27.8629 25.6485 27.8475C25.7929 27.7858 25.9082 27.8785 26.0235 27.9711C26.1388 28.0638 26.2975 28.1024 26.4996 28.0871C26.8028 28.064 27.0625 28.095 27.3365 28.2263C27.6539 28.3036 27.6973 28.2495 27.8133 27.9871L27.8567 27.9331C28.0588 27.9178 28.2752 28.0027 28.4773 27.9874C28.5784 27.9797 28.6502 28.1263 28.7655 28.219C28.6644 28.2267 28.621 28.2807 28.52 28.2884C28.3755 28.3501 28.3755 28.3501 28.404 28.5508C28.5626 28.5894 28.7071 28.5277 28.8658 28.5664C29.0245 28.605 29.154 28.798 29.3419 28.6823C29.3135 28.4816 29.2416 28.3349 29.2708 28.1806C29.3718 28.1729 29.4587 28.0648 29.5597 28.0572C29.7042 27.9955 29.8487 27.9338 30.065 28.0187C30.2237 28.0574 30.3824 28.096 30.5119 28.289C30.8001 28.5207 30.9588 28.5593 31.2335 28.3356C31.2769 28.2816 31.3204 28.2275 31.4356 28.3202C31.5509 28.4129 31.652 28.4052 31.753 28.3975C31.9551 28.3821 32.1138 28.4208 32.1857 28.5674C32.4163 28.7528 32.6326 28.8377 32.8924 28.8687C33.2532 28.892 33.6282 29.0156 33.9456 29.0929C34.1043 29.1315 34.3064 29.1161 34.5662 29.1471C34.7249 29.1857 34.9412 29.2707 35.0999 29.3094C35.3739 29.4407 35.677 29.4176 35.951 29.5489C36.0087 29.5952 36.1097 29.5875 36.2108 29.5799C36.615 29.5491 36.9182 29.5261 37.3074 29.75C37.3651 29.7963 37.3651 29.7963 37.4661 29.7887C37.8127 29.7116 38.1009 29.9432 38.4617 29.9665C38.8225 29.9898 39.1399 30.0671 39.4431 30.044C39.6018 30.0826 39.8039 30.0673 40.0202 30.1523C40.3376 30.2295 40.655 30.3068 40.9724 30.3841C41.0735 30.3764 41.1888 30.4691 41.2322 30.4151C41.6798 30.3303 42.1559 30.4462 42.632 30.5622C42.9928 30.5855 43.3536 30.6087 43.6852 30.7864C44.0895 30.7556 44.4645 30.8792 44.8253 30.9025C45.3448 30.9644 45.8067 30.98 46.3262 31.0419C46.5859 31.0729 46.8023 31.1578 47.0186 31.2428C47.1773 31.2815 47.336 31.3201 47.4947 31.3587C47.7545 31.3897 47.9566 31.3743 48.1871 31.5597C48.3024 31.6523 48.5045 31.6369 48.6198 31.7296C48.8219 31.7142 48.9664 31.6525 49.1109 31.5908C49.313 31.5755 49.4283 31.6681 49.6304 31.6527C50.0346 31.622 50.4096 31.7456 50.7704 31.7689C51.2323 31.7845 51.6073 31.9081 52.0258 31.9777C52.1126 31.8697 52.2571 31.808 52.3439 31.6999C52.4158 31.8466 52.43 31.9469 52.5887 31.9856C52.6898 31.9779 52.7474 32.0242 52.7908 31.9702C52.8919 31.9625 52.9787 31.8545 53.0221 31.8005C53.2819 31.8314 53.4982 31.9164 53.8156 31.9937C53.8733 32.04 53.8875 32.1404 53.9017 32.2407C54.0028 32.233 54.1472 32.1713 54.2483 32.1636C54.5372 32.0402 54.8546 32.1175 55.1286 32.2488C55.0852 32.3028 55.0994 32.4032 55.056 32.4572C55.056 32.4572 55.056 32.4572 54.9984 32.4109C55.0418 32.3569 55.0276 32.2565 55.071 32.2025C55.1144 32.1485 55.1578 32.0945 55.1436 31.9941C55.4033 32.0251 55.7207 32.1024 55.9805 32.1333C56.3989 32.2029 56.8174 32.2725 57.2793 32.2881C57.6401 32.3114 58.0151 32.435 58.4193 32.4043C58.6791 32.4352 58.9965 32.5125 59.2562 32.5435C59.516 32.5744 59.7757 32.6054 60.0789 32.5823C60.3821 32.5593 60.5984 32.6442 60.8582 32.6752C61.1179 32.7062 61.3919 32.8375 61.6374 32.7681L61.7385 32.7604C61.969 32.9457 62.1569 32.83 62.3448 32.7143C62.4893 32.6526 62.648 32.6912 62.7633 32.7839C62.9362 32.9229 63.0949 32.9615 63.297 32.9461C63.3981 32.9384 63.4557 32.9848 63.5567 32.9771C63.7731 33.0621 63.9894 33.147 64.1915 33.1317C64.8989 33.0779 65.5914 33.2788 66.2553 33.279C66.3564 33.2713 66.5151 33.3099 66.6738 33.3486C67.0488 33.4722 67.3662 33.5495 67.6694 33.5264C68.0736 33.4957 68.5063 33.6656 68.8963 33.5345C68.9397 33.4805 68.9974 33.5269 69.055 33.5732C69.4877 33.7431 69.9353 33.6584 70.3829 33.5736C70.4264 33.5196 70.3687 33.4733 70.3111 33.4269C70.0947 33.342 69.9218 33.203 69.7055 33.118C69.7489 33.064 69.7347 32.9636 69.7347 32.9636C69.8791 32.9019 69.9944 32.9946 70.1389 32.9329C70.2834 32.8712 70.3844 32.8635 70.5289 32.8018C70.5723 32.7478 70.5147 32.7015 70.5581 32.6474C70.7168 32.6861 70.8755 32.7247 70.9908 32.8174C71.1495 32.856 71.2647 32.9487 71.4234 32.9873C71.38 33.0414 71.38 33.0414 71.3366 33.0954C71.2356 33.1031 71.1345 33.1107 71.0911 33.1648C70.9466 33.2265 70.8456 33.2342 70.7153 33.3962C70.773 33.4425 70.7729 33.4425 70.7729 33.4425C71.0327 33.4735 71.249 33.5585 71.422 33.6974C71.4796 33.7438 71.6383 33.7824 71.6817 33.7284C71.9272 33.659 72.1436 33.744 72.4033 33.7749C72.562 33.8136 72.6631 33.8059 72.7933 33.6439C72.7072 33.3968 72.3899 33.3195 72.1593 33.1342C72.4048 33.0648 72.5927 32.9491 72.8525 32.9801C73.0112 33.0187 73.2567 32.9493 73.4588 32.934C73.5599 32.9263 73.6033 32.8723 73.5891 32.7719C73.5748 32.6716 73.5172 32.6252 73.4595 32.5789C73.3443 32.4863 73.2432 32.4939 73.1421 32.5016C72.9834 32.463 72.8247 32.4243 72.666 32.3857C72.7095 32.3317 72.7529 32.2777 72.6952 32.2313C72.8539 32.27 72.955 32.2623 73.0703 32.3549C73.4019 32.5326 73.6908 32.4092 73.9506 32.4401C74.0516 32.4324 74.2395 32.3167 74.3406 32.3091C74.369 32.5097 74.4843 32.6024 74.6572 32.7414C74.6138 32.7954 74.5704 32.8494 74.5128 32.8031C74.3107 32.8185 74.152 32.7798 74.0509 32.7875C73.9499 32.7952 73.9064 32.8492 73.8054 32.8569C73.8338 33.0576 73.9491 33.1502 74.1512 33.1349C74.3099 33.1735 74.5697 33.2045 74.7718 33.1891C75.0315 33.2201 75.1902 33.2587 75.4642 33.39C75.4784 33.4904 75.3774 33.498 75.3197 33.4517C74.9013 33.3821 74.4971 33.4128 74.0494 33.4976C74.0636 33.5979 74.0779 33.6983 74.0779 33.6983C74.4095 33.8759 74.7269 33.9532 75.0443 34.0305C75.6214 34.1387 76.1843 34.1466 76.8049 34.2009C76.906 34.1932 77.007 34.1855 77.0647 34.2318C77.3529 34.4635 77.5408 34.3478 77.7863 34.2784C77.8297 34.2244 77.8873 34.2707 77.9308 34.2167C78.1186 34.101 78.2773 34.1396 78.436 34.1782C78.5947 34.2169 78.7392 34.1552 78.8118 33.9468C79.2737 33.9624 79.779 33.924 80.2408 33.9396C80.27 33.7852 80.2124 33.7389 80.1113 33.7465C80.0537 33.7002 79.9526 33.7079 79.8516 33.7156C79.6495 33.731 79.4765 33.592 79.3613 33.4993C79.4623 33.4916 79.5492 33.3836 79.7079 33.4223C80.0687 33.4455 80.4871 33.5151 80.8479 33.5384C80.949 33.5307 81.0066 33.577 81.0066 33.577C81.0351 33.7777 80.8329 33.7931 80.8037 33.9475C80.818 34.0478 80.8899 34.1945 80.9041 34.2948C81.1346 34.4801 81.3802 34.4108 81.6399 34.4417C81.6399 34.4417 81.6975 34.488 81.7118 34.5884C81.8271 34.681 81.8847 34.7274 82.0292 34.6657C82.2605 34.4959 82.4768 34.5809 82.7508 34.7122C83.1835 34.8822 83.6888 34.8437 84.1072 34.9133C84.1072 34.9133 84.1072 34.9133 84.1648 34.9597C84.4972 34.7823 84.9733 34.8982 85.3775 34.8674C85.4786 34.8597 85.522 34.8057 85.638 34.5433C85.3783 34.5124 85.2053 34.3734 84.9022 34.3965C84.599 34.4195 84.3392 34.3885 84.1087 34.2032C84.051 34.1569 83.8924 34.1183 83.7913 34.1259C83.5315 34.095 83.3294 34.1104 83.1273 34.1257C82.9686 34.0871 82.9686 34.0871 82.738 33.9018C82.8391 33.8941 82.8825 33.8401 82.9836 33.8324C83.301 33.9097 83.6041 33.8866 83.8639 33.9176C83.965 33.9099 84.0226 33.9562 84.1236 33.9485C84.3976 34.0798 84.6574 34.1108 84.9463 33.9874C85.0908 33.9257 85.2495 33.9643 85.3648 34.057C85.4658 34.0493 85.5811 34.142 85.6822 34.1343C85.9419 34.1652 86.1583 34.2502 86.3312 34.3892C86.3596 34.5899 86.2152 34.6516 86.1426 34.86C86.2578 34.9526 86.3873 35.1456 86.5603 35.2846C86.6755 35.3773 86.8485 35.5163 86.9638 35.6089C86.9346 35.7633 86.8335 35.771 86.7324 35.7787C86.6314 35.7863 86.588 35.8404 86.6022 35.9407C86.573 36.0951 86.6741 36.0874 86.8328 36.126C86.8328 36.126 86.8328 36.126 86.8904 36.1723C86.7459 36.234 86.6015 36.2957 86.5146 36.4038C86.5431 36.6045 86.6007 36.6508 86.8028 36.6354C87.0626 36.6664 87.2355 36.8054 87.4084 36.9444C87.5237 37.037 87.5522 37.2377 87.35 37.2531C87.1479 37.2685 87.1622 37.3688 87.1906 37.5695C87.2048 37.6698 87.219 37.7702 87.2767 37.8165C87.1172 38.1329 86.7998 38.0556 86.4967 38.0787C86.4533 38.1327 86.4099 38.1867 86.4241 38.2871C86.5394 38.3797 86.597 38.4261 86.6689 38.5727C86.7265 38.6191 86.7265 38.6191 86.8276 38.6114C86.856 38.8121 86.8845 39.0128 86.9129 39.2134C87.2303 39.2907 87.2303 39.2907 87.3606 39.1287C87.5193 39.1673 87.6637 39.1056 87.8224 39.1443C88.0245 39.1289 88.1832 39.1675 88.3127 39.3605C88.428 39.4532 88.5867 39.4918 88.6443 39.5382C88.8607 39.6231 89.0194 39.6618 89.2357 39.7468C89.25 39.8471 89.3218 39.9938 89.3937 40.1405C89.4364 40.4415 89.4364 40.4415 89.6385 40.4261C89.9559 40.5034 90.3167 40.5267 90.6049 40.7583C90.6625 40.8047 90.6625 40.8047 90.7778 40.8973C90.518 40.8664 90.3593 40.8277 90.2006 40.7891C89.9409 40.7581 89.7246 40.6732 89.4356 40.7966C89.2911 40.8583 89.2043 40.9663 89.2762 41.1129C89.348 41.2596 89.3331 41.5143 89.506 41.6533L89.5636 41.6997C89.6063 42.0007 89.7358 42.1937 89.9956 42.2246C90.2119 42.3096 90.3848 42.4486 90.688 42.4256C90.8901 42.4102 91.0488 42.4488 91.2217 42.5878C91.2502 42.7885 91.1918 43.0972 91.3213 43.2902C91.3789 43.3366 91.2487 43.4986 91.2195 43.653C91.4501 43.8383 91.4351 44.093 91.5212 44.34C91.5354 44.4404 91.593 44.4867 91.7517 44.5253C91.8386 44.4173 91.6514 44.178 91.7817 44.0159C91.9119 43.8539 91.9988 43.7458 92.129 43.5838C92.403 43.7151 92.6919 43.5917 92.9801 43.8233C93.0378 43.8697 93.1965 43.9083 93.2107 44.0087C93.3402 44.2017 93.4555 44.2943 93.6718 44.3793C93.7871 44.472 93.8882 44.4643 93.9892 44.4566C94.2782 44.3332 94.5379 44.3641 94.8119 44.4954C95.1435 44.6731 95.4467 44.65 95.7356 44.5266C96.0672 44.7042 96.3412 44.8355 96.6152 44.9668C96.7305 45.0595 96.8892 45.0982 96.976 44.9901C97.265 44.8667 97.5247 44.8977 97.7845 44.9286C97.64 44.9903 97.5531 45.0984 97.4087 45.1601C97.3069 45.5228 97.3069 45.5228 96.9169 45.6539C96.6863 45.4686 96.3832 45.4916 96.08 45.5147C95.8779 45.5301 95.7192 45.4914 95.5028 45.4064C95.2723 45.2211 95.0267 45.2905 94.767 45.2596C94.6659 45.2672 94.5791 45.3753 94.5933 45.4756C94.6076 45.576 94.6794 45.7226 94.6936 45.823C94.6502 45.877 94.6068 45.931 94.5492 45.8847C94.4197 45.6917 94.3044 45.599 94.1749 45.406C94.0162 45.3674 93.8575 45.3287 93.6988 45.2901C93.4824 45.2051 93.2803 45.2205 93.2077 45.4289C93.1643 45.4829 93.1643 45.4829 93.1209 45.5369C92.9622 45.4982 92.8611 45.5059 92.7024 45.4673C92.5438 45.4286 92.4861 45.3823 92.3274 45.3437C92.1395 45.4594 91.9951 45.5211 91.7495 45.5905C91.8498 45.9379 92.1238 46.0691 92.2675 46.3625C92.4547 46.6018 92.7287 46.7331 93.0026 46.8644C93.1471 46.8027 93.2482 46.7951 93.4069 46.8337C93.32 46.9417 93.2766 46.9957 93.1898 47.1038C93.103 47.2118 93.1314 47.4125 93.2901 47.4511C93.3477 47.4975 93.4488 47.4898 93.5065 47.5361C93.6075 47.5284 93.7378 47.3664 93.7235 47.266C93.7093 47.1657 93.6517 47.1194 93.5798 46.9727C93.7243 46.911 93.8545 46.7489 94.0424 46.6332C94.2011 46.6719 94.3164 46.7645 94.4459 46.9575C94.6038 47.3512 94.8921 47.5829 95.3105 47.6525C95.4692 47.6911 95.5845 47.7838 95.5553 47.9381C95.3098 48.0075 95.0642 48.0769 94.9482 48.3393C94.9048 48.3933 94.9048 48.3933 94.8614 48.4473C94.7603 48.455 94.6016 48.4164 94.6308 48.262C94.6024 48.0613 94.4728 47.8683 94.2273 47.9377C94.1981 48.0921 94.1113 48.2001 94.0821 48.3545C93.9953 48.4625 93.8942 48.4702 93.8074 48.5782C93.8074 48.5782 93.8074 48.5782 93.764 48.6322C93.8358 48.7789 94.1675 48.9565 94.2685 48.9488C94.4706 48.9335 94.6727 48.9181 94.8748 48.9027C94.9325 48.949 94.9901 48.9954 95.1054 49.088C95.2207 49.1807 95.3936 49.3197 95.5815 49.204C95.6249 49.15 95.7402 49.2426 95.7978 49.2889C95.8555 49.3353 95.9708 49.4279 96.0284 49.4743C96.3742 49.7522 96.7493 49.8759 97.1535 49.8451C97.3556 49.8297 97.673 49.907 97.9328 49.938C98.6544 49.9845 99.3902 50.1314 100.126 50.2783C100.285 50.317 100.443 50.3556 100.559 50.4482C100.833 50.5795 101.092 50.6105 101.41 50.6878C101.569 50.7265 101.785 50.8114 102.001 50.8964C102.174 51.0354 102.333 51.074 102.492 51.1127C102.65 51.1513 102.809 51.1899 102.924 51.2826C102.982 51.3289 102.982 51.3289 103.083 51.3213C103.242 51.3599 103.386 51.2982 103.501 51.3909C103.689 51.6302 103.963 51.7615 104.063 52.1089C104.019 52.1629 103.933 52.2709 103.889 52.3249L103.788 52.3326C103.673 52.2399 103.558 52.1473 103.428 51.9543C103.284 51.661 102.953 51.4833 102.679 51.352C102.232 51.0817 101.813 51.0121 101.322 51.1509C101.279 51.2049 101.235 51.2589 101.192 51.3129C100.976 51.228 100.73 51.2973 100.456 51.166C100.399 51.1197 100.355 51.1737 100.254 51.1814C99.9509 51.2045 99.6335 51.1272 99.3019 50.9496C99.2443 50.9032 99.1866 50.8569 99.1432 50.9109C98.84 50.934 98.4793 50.9107 98.1619 50.8334C97.6858 50.7175 97.2239 50.7019 96.762 50.6863C96.4588 50.7094 96.1415 50.6321 95.8241 50.5548C95.5067 50.4775 95.1751 50.2999 94.8719 50.3229C94.7424 50.1299 94.4969 50.1993 94.2805 50.1143C93.9631 50.0371 93.2699 50.1912 92.9234 50.2683C92.7789 50.33 92.7931 50.4303 92.7497 50.4843C92.4173 50.6617 92.3732 51.0708 92.1127 51.3949C92.0259 51.5029 92.0977 51.6496 92.2564 51.6883C92.4151 51.7269 92.5162 51.7192 92.6749 51.7579C92.6891 51.8582 92.7033 51.9586 92.7175 52.0589C92.7318 52.1592 92.746 52.2596 92.7602 52.3599C92.6876 52.5683 92.4279 52.5374 92.24 52.6531C92.2684 52.8538 92.4271 52.8924 92.5424 52.9851C92.4121 53.1471 92.1816 52.9618 91.9937 53.0775C91.9211 53.2859 92.2093 53.5175 92.0356 53.7336C91.9061 53.5406 91.6606 53.61 91.4585 53.6254C91.3574 53.633 91.213 53.6947 91.2414 53.8954C91.2556 53.9958 91.2698 54.0961 91.2841 54.1965C91.1972 54.3045 91.1104 54.4125 91.0812 54.5669C90.9944 54.6749 91.0663 54.8216 91.2249 54.8602C91.4413 54.9452 91.6434 54.9298 91.8597 55.0148C92.1195 55.0458 92.2205 55.0381 92.5387 54.7603C92.7835 55.046 93.0724 54.9226 93.3898 54.9999C93.5051 55.0925 93.6062 55.0848 93.7214 55.1775L93.7357 55.2778C93.6922 55.3319 93.6922 55.3319 93.6922 55.3319C93.6346 55.2855 93.4759 55.2469 93.4182 55.2005C93.3748 55.2546 93.2738 55.2623 93.187 55.3703C93.1001 55.4783 93.0567 55.5323 92.9699 55.6404C92.7962 55.8564 92.5073 55.9798 92.2333 55.8485C92.3201 55.7405 92.3493 55.5861 92.3208 55.3854C92.3066 55.2851 92.1479 55.2464 92.1045 55.3005C92.0611 55.3545 92.0177 55.4085 92.0319 55.5089C92.0027 55.6632 92.1614 55.7019 92.2767 55.7945C92.2333 55.8485 92.1322 55.8562 92.0888 55.9102C91.9878 55.9179 91.9443 55.9719 91.7999 56.0336C91.6554 56.0953 91.6262 56.2497 91.7991 56.3887C91.9721 56.5277 92.1307 56.5663 92.3763 56.4969C92.4773 56.4892 92.5207 56.4352 92.6652 56.3735C92.7947 56.5665 92.9676 56.7055 93.2566 56.5821C93.4729 56.6671 93.6751 56.6517 93.8914 56.7367C94.1077 56.8217 94.3098 56.8063 94.5119 56.7909C94.8585 56.7138 95.277 56.7834 95.6812 56.7527C95.8833 56.7373 96.042 56.776 96.2441 56.7606C96.7494 56.7222 97.2113 56.7378 97.7166 56.6993C97.8176 56.6917 97.9187 56.684 98.0197 56.6763C98.1642 56.6146 98.2652 56.6069 98.3805 56.6995C98.6545 56.8308 99.0153 56.8541 99.3185 56.8311C99.6217 56.808 99.8814 56.8389 100.185 56.8159C100.314 57.0089 100.487 57.1479 100.617 57.3409C100.558 57.6496 100.428 57.8117 100.067 57.7884C99.865 57.8038 99.6629 57.8191 99.5042 57.7805C98.7683 57.6336 98.0175 57.7414 97.3101 57.7952C96.9635 57.8723 96.6604 57.8954 96.2996 57.8721C96.0398 57.8411 95.7943 57.9105 95.5922 57.9259C95.4911 57.9336 95.289 57.9489 95.1303 57.9103C94.4521 57.8097 93.8457 57.8559 93.2394 57.902C93.0373 57.9173 92.8352 57.9327 92.6188 57.8477C92.3014 57.7705 91.9983 57.7935 91.7812 58.0636C91.8096 58.2643 91.9541 58.2026 92.0694 58.2952C92.026 58.3492 91.9968 58.5036 91.9534 58.5576C92.0687 58.6503 92.1839 58.7429 92.2992 58.8356C92.4721 58.9746 92.7319 59.0055 92.8621 58.8435C92.9924 58.6814 93.2521 58.7124 93.4108 58.751C93.7282 58.8283 93.988 58.8593 94.2477 58.8903C94.6085 58.9135 94.9259 58.9908 95.2433 59.0681C95.3444 59.0604 95.4597 59.1531 95.5607 59.1454C95.7628 59.13 96.0226 59.161 96.2247 59.1456C96.4845 59.1766 96.73 59.1072 96.9321 59.0918C97.3797 59.007 97.8416 59.0226 98.2166 59.1462C98.2743 59.1926 98.3754 59.1849 98.3754 59.1849C99.0393 59.1851 99.7175 59.2857 100.367 59.1855C100.569 59.1702 100.829 59.2011 101.002 59.3401C101.117 59.4328 101.377 59.4637 101.579 59.4483C101.651 59.595 101.449 59.6104 101.406 59.6644C101.42 59.7648 101.333 59.8728 101.29 59.9268C100.727 59.9189 100.178 60.0114 99.615 60.0035C99.5139 60.0111 99.4563 59.9648 99.4129 60.0188C99.2684 60.0805 99.1097 60.0419 99.0086 60.0496C98.7489 60.0186 98.5468 60.034 98.3013 60.1034C98.1568 60.1651 98.0557 60.1728 97.897 60.1341C97.796 60.1418 97.6807 60.0491 97.5362 60.1108C97.2907 60.1802 97.0025 59.9486 96.6701 60.126C96.4388 60.2957 96.1649 60.1644 95.8617 60.1875C95.6596 60.2029 95.3998 60.1719 95.14 60.1409C94.8803 60.11 94.5771 60.1331 94.274 60.1561C94.1729 60.1638 94.0142 60.1252 93.8989 60.0325C93.8271 59.8858 93.726 59.8935 93.5673 59.8549C93.1054 59.8393 92.7446 59.816 92.2828 59.8004C92.1241 59.7618 91.9796 59.8235 91.7775 59.8388C91.4743 59.8619 91.2145 59.8309 90.9398 60.0547C90.8964 60.1087 90.7954 60.1164 90.6509 60.1781C90.6075 60.2321 90.5641 60.2861 90.5207 60.3402C90.5783 60.3865 90.5349 60.4405 90.5925 60.4868C90.7654 60.6258 91.0252 60.6568 91.2415 60.7417C91.4579 60.8267 91.6742 60.9117 91.8763 60.8963C91.9339 60.9426 91.9774 60.8886 92.035 60.935C92.2656 61.1203 92.5111 61.0509 92.7566 60.9815C92.8143 61.0278 92.8143 61.0278 92.8719 61.0742C93.1167 61.3598 93.3473 61.5452 93.7223 61.6688C93.9386 61.7537 94.0973 61.7924 94.3571 61.8233C94.5592 61.808 94.7179 61.8466 94.8766 61.8852C95.0645 61.7695 95.036 61.5688 95.1663 61.4068C95.7434 61.515 96.2345 61.3763 96.8116 61.4845C96.9127 61.4768 97.0137 61.4691 97.1148 61.4614C97.2593 61.3997 97.418 61.4384 97.5767 61.477C97.8364 61.508 98.0385 61.4926 98.2841 61.4232C98.4862 61.4079 98.5872 61.4002 98.8178 61.5855C98.7167 61.5932 98.6733 61.6472 98.6157 61.6009C98.3125 61.6239 97.9517 61.6006 97.6485 61.6237C97.5475 61.6314 97.3888 61.5927 97.2443 61.6544C96.9553 61.7778 96.7532 61.7932 96.4793 61.6619C96.4216 61.6156 96.3782 61.6696 96.3782 61.6696C96.3348 61.7236 96.2337 61.7313 96.248 61.8317C96.2046 61.8857 96.3198 61.9783 96.4351 62.071C96.4351 62.071 96.4928 62.1173 96.5362 62.0633C96.7817 61.9939 96.998 62.0789 97.272 62.2102C97.3731 62.2025 97.5318 62.2411 97.6328 62.2335C97.7339 62.2258 97.7773 62.1718 97.8349 62.2181C97.9936 62.2567 98.1958 62.2414 98.2968 62.2337C98.5423 62.1643 98.8455 62.1412 99.0618 62.2262C99.4945 62.3961 99.8411 62.3191 100.26 62.3887C100.086 62.6048 99.8404 62.6741 99.5372 62.6972C99.3785 62.6586 99.234 62.7202 99.0895 62.7819C98.9451 62.8436 98.743 62.859 98.6277 62.7664C98.4113 62.6814 98.2092 62.6968 97.9929 62.6118C97.6897 62.6349 97.3865 62.6579 97.0549 62.4803C97.0549 62.4803 97.0549 62.4803 96.9973 62.4339C96.5931 62.4647 96.1312 62.4491 95.7554 62.6805C95.712 62.7346 95.712 62.7346 95.6686 62.7886C95.6252 62.8426 95.6828 62.8889 95.6394 62.9429C95.4081 63.1127 95.4366 63.3134 95.5226 63.5604C95.6522 63.7534 95.8251 63.8924 96.0706 63.823C96.2577 64.0623 96.5025 64.348 96.8633 64.3712C96.7765 64.4793 96.7331 64.5333 96.6897 64.5873C96.5594 64.7493 96.6171 64.7957 96.7466 64.9887C96.5587 65.1044 96.4284 65.2665 96.5722 65.5598C96.644 65.7065 96.4996 65.7682 96.5138 65.8685C96.528 65.9689 96.5422 66.0692 96.5999 66.1155C96.6575 66.1619 96.7586 66.1542 96.8596 66.1465C97.0041 66.0848 97.0909 65.9768 97.2354 65.9151C97.4517 66 97.466 66.1004 97.4944 66.3011C97.3642 66.4631 97.2773 66.5711 97.061 66.4862C96.9599 66.4939 96.8012 66.4552 96.7002 66.4629C96.4546 66.5323 96.3678 66.6403 96.4539 66.8873C96.4681 66.9877 96.4824 67.088 96.4966 67.1884C96.5108 67.2887 96.4674 67.3427 96.424 67.3967C96.3805 67.4508 96.3229 67.4044 96.2219 67.4121C96.1927 67.5665 96.1492 67.6205 96.1201 67.7748C96.0766 67.8289 96.0767 67.8289 95.9756 67.8366C95.8745 67.8442 95.7735 67.8519 95.7159 67.8056C95.4995 67.7206 95.2974 67.736 95.1529 67.7977L95.0953 67.7514C95.0953 67.7514 95.0953 67.7514 94.9942 67.7591C94.9942 67.7591 94.9942 67.7591 95.0519 67.8054L95.1095 67.8517C95.0227 67.9597 95.0369 68.0601 95.1088 68.2068C95.3251 68.2918 95.5998 68.068 95.8446 68.3537C95.7578 68.4617 95.7001 68.4153 95.5991 68.423C95.498 68.4307 95.4404 68.3844 95.3393 68.3921C95.0796 68.3611 94.7764 68.3842 94.5167 68.3532C94.2569 68.3223 94.0114 68.3917 93.8377 68.6077C93.4627 68.4841 93.1595 68.5072 92.7987 68.4839C92.5966 68.4993 92.351 68.5686 92.2208 68.7307C92.1774 68.7847 92.1916 68.8851 92.1916 68.8851C92.2058 68.9854 92.2635 69.0317 92.3645 69.0241C92.4656 69.0164 92.5666 69.0087 92.7253 69.0473C92.7396 69.1476 92.7104 69.302 92.7822 69.4487C92.6812 69.4564 92.5943 69.5644 92.4933 69.5721C92.1901 69.5952 92.1325 69.5488 92.1909 69.2401C92.1909 69.2401 92.1766 69.1398 92.119 69.0934C91.9745 69.1551 91.8301 69.2168 91.6856 69.2785C91.6422 69.3326 91.5987 69.3866 91.5411 69.3402C91.2813 69.3093 91.1077 69.5253 90.9774 69.6874C90.9482 69.8417 91.0059 69.8881 91.1646 69.9267C91.2222 69.9731 91.2223 69.9731 91.3233 69.9654C91.7275 69.9346 92.1025 70.0582 92.4491 69.9812C92.4491 69.9812 92.5068 70.0275 92.5502 69.9735C92.521 70.1279 92.3907 70.2899 92.1886 70.3052C92.0299 70.2666 91.8712 70.228 91.7702 70.2356C91.6115 70.197 91.4094 70.2124 91.2215 70.3281C91.1781 70.3821 91.077 70.3898 91.0336 70.4438C90.5717 70.4282 90.1383 70.6133 89.6765 70.5978C89.5462 70.7598 89.4594 70.8678 89.4444 71.1225C89.6316 71.3619 89.8194 71.2461 90.0215 71.2308C90.2955 71.3621 90.5119 71.4471 90.7424 71.6324C90.6556 71.7404 90.5111 71.8021 90.4677 71.8561C90.3809 71.9641 90.3951 72.0645 90.5104 72.1572C90.741 72.3425 91.1594 72.4121 91.2612 72.0493C91.2904 71.895 91.4349 71.8333 91.637 71.8179C91.5501 71.9259 91.5067 71.98 91.4775 72.1343C91.6071 72.3273 91.7223 72.42 91.8518 72.613C91.8084 72.667 91.765 72.721 91.6639 72.7287C91.5195 72.7904 91.4184 72.7981 91.2163 72.8135C91.1153 72.8212 91.0718 72.8752 90.9274 72.9369C90.7829 72.9986 90.8405 73.0449 90.8547 73.1452C90.869 73.2456 90.8256 73.2996 90.7821 73.3536C90.6519 73.5157 90.6803 73.7163 90.7522 73.863C90.9685 73.948 91.1415 74.087 91.3436 74.0716C91.5457 74.0563 91.7044 74.0949 91.9065 74.0795C92.0937 74.3189 92.0068 74.4269 91.8332 74.643C91.6168 74.558 91.4005 74.473 91.1841 74.388C91.0973 74.4961 91.1115 74.5964 91.0105 74.6041C90.9671 74.6581 90.866 74.6658 90.8226 74.7198C90.7215 74.7275 90.6639 74.6811 90.6062 74.6348C90.3899 74.5498 90.3465 74.6039 90.0718 74.8276C90.1721 75.175 90.5044 74.9976 90.6774 75.1365C90.6624 75.3913 90.4026 75.3603 90.33 75.5687C90.2148 75.476 90.0561 75.4374 89.9984 75.391C89.7244 75.2597 89.4789 75.3291 89.4205 75.6379C89.3771 75.6919 89.3914 75.7922 89.449 75.8386C89.4775 76.0392 89.4625 76.294 89.3899 76.5023C89.4475 76.5487 89.5628 76.6413 89.6638 76.6336C89.8659 76.6182 90.0246 76.6569 90.1691 76.5952C90.5591 76.4641 91.021 76.4797 91.396 76.6033C91.6415 76.5339 91.6131 76.3332 91.6999 76.2252C91.801 76.2175 91.9455 76.1558 92.1042 76.1944C92.1618 76.2408 92.1618 76.2408 92.1618 76.2408C92.8101 76.8507 92.6806 76.6577 93.3446 76.658C93.5324 76.5422 93.6619 76.7352 93.864 76.7199C94.0662 76.7045 94.2106 76.6428 94.4127 76.6274C94.7159 76.6044 95.0191 76.5813 95.3507 76.759C95.2923 77.0677 95.4937 77.4073 95.4353 77.7161C94.9877 77.8008 94.5977 77.9319 94.1508 77.6616C94.0355 77.569 93.9344 77.5767 93.79 77.6384C93.7465 77.6924 93.6889 77.646 93.5878 77.6537C93.111 77.8928 92.5481 77.885 92.0862 77.8694C91.9852 77.8771 91.9275 77.8307 91.8265 77.8384C91.6678 77.7997 91.5091 77.7611 91.3504 77.7225C90.8586 78.2163 90.238 78.1621 89.5598 78.0615C89.5164 78.1155 89.4296 78.2235 89.2851 78.2852C89.2417 78.3393 89.0972 78.401 88.9961 78.4086C89.0104 78.509 89.0246 78.6094 89.0388 78.7097C89.2118 78.8487 89.327 78.9413 89.4423 79.034C89.2544 79.1497 89.0523 79.1651 88.8502 79.1804C88.6481 79.1958 88.446 79.2112 88.3449 79.2189C88.2438 79.2266 88.2438 79.2266 88.0133 79.0412C88.0567 78.9872 88.0859 78.8329 88.1293 78.7789C87.9998 78.5859 87.8554 78.6476 87.6967 78.6089C87.5522 78.6706 87.4511 78.6783 87.2782 78.5393C87.1629 78.4467 86.9608 78.462 86.8598 78.4697C86.7153 78.5314 86.5708 78.5931 86.4263 78.6548C86.5558 78.8478 86.6711 78.9405 86.8732 78.9251C86.9743 78.9174 87.0753 78.9097 87.1764 78.902C87.2774 78.8944 87.4361 78.933 87.5514 79.0257C87.6809 79.2187 87.8396 79.2573 88.0994 79.2883C88.3876 79.5199 88.6466 79.9059 89.1803 80.0682C88.8338 80.1453 88.6174 80.0603 88.3576 80.0293C88.1555 80.0447 87.8673 79.8131 87.636 79.9828C87.7655 80.1758 87.9385 80.3148 88.0971 80.3534C88.3569 80.3844 88.5733 80.4694 88.5725 80.8244C88.5576 81.0791 88.4849 81.2875 88.2394 81.3569C88.2394 81.3569 88.196 81.4109 88.1384 81.3646C88.2387 81.7119 88.2095 81.8663 87.9782 82.036C87.8913 82.144 87.7469 82.2058 87.7035 82.2598C87.66 82.3138 87.5156 82.3755 87.4722 82.4295C87.4287 82.4835 87.4287 82.4835 87.3853 82.5375C87.443 82.5839 87.5148 82.7305 87.5724 82.7769C87.6301 82.8232 87.7454 82.9159 87.803 82.9622C87.7738 83.1166 87.7304 83.1706 87.5717 83.1319C87.413 83.0933 87.2685 83.155 87.1098 83.1163C87.0088 83.124 86.8643 83.1857 86.7198 83.2474C86.6622 83.2011 86.6046 83.1548 86.5469 83.1084C86.374 82.9694 86.1577 82.8845 85.9698 83.0002C85.8253 83.0619 85.6232 83.0773 85.4645 83.0386C85.2047 83.0077 84.945 82.9767 84.6853 82.9458C84.6276 82.8994 84.5842 82.9534 84.4689 82.8608C84.7002 82.691 84.9742 82.8224 85.234 82.8533C85.2774 82.7993 85.2631 82.6989 85.3065 82.6449C85.1336 82.5059 84.9749 82.4673 84.7728 82.4827C84.513 82.4517 84.1957 82.3744 83.9359 82.3435C83.7772 82.3048 83.6761 82.3125 83.474 82.3279C83.2719 82.3432 83.0122 82.3123 82.8535 82.2737C82.7959 82.2273 82.7382 82.181 82.6805 82.1346C82.8108 81.9726 83.0129 81.9572 83.1282 82.0499C83.3445 82.1349 83.5467 82.1195 83.7488 82.1041C83.9509 82.0888 84.2106 82.1197 84.5138 82.0967C84.6006 81.9886 84.5864 81.8883 84.6156 81.7339C84.6014 81.6336 84.5295 81.4869 84.3851 81.5486C84.1395 81.618 83.8221 81.5407 83.5332 81.6641C83.4897 81.7181 83.2876 81.7335 83.23 81.6872C83.0137 81.6022 82.7105 81.6252 82.5084 81.6406C81.7868 81.5941 81.0651 81.5475 80.3435 81.501C79.9827 81.4777 79.5785 81.5085 79.2177 81.4852C79.1166 81.4929 79.0156 81.5005 78.8711 81.5623C78.8277 81.6163 78.6256 81.6317 78.5822 81.6857C78.4811 81.6934 78.4377 81.7474 78.2932 81.8091C78.3074 81.9094 78.4227 82.0021 78.3793 82.0561C78.3935 82.1564 78.3501 82.2105 78.3209 82.3648C78.5373 82.4498 78.6525 82.5424 78.8689 82.6274C78.2191 82.7275 77.5985 82.6733 76.9488 82.7734C76.9346 82.6731 76.8193 82.5804 76.8051 82.4801C76.7332 82.3334 76.6755 82.2871 76.5311 82.3488C76.2279 82.3718 75.9248 82.3949 75.6216 82.418C75.5205 82.4257 75.3184 82.441 75.2173 82.4487C74.7555 82.4331 74.2936 82.4176 73.8175 82.3016C73.7599 82.2553 73.7165 82.3093 73.6588 82.263C73.0525 82.3091 72.4611 82.1005 71.884 81.9922C71.884 81.9922 71.884 81.9922 71.8263 81.9459C72.2163 81.8148 72.5771 81.8381 72.8945 81.9154C73.0532 81.954 73.2119 81.9927 73.3564 81.931C73.4574 81.9233 73.5151 81.9696 73.6162 81.9619C73.7172 81.9543 73.8325 82.0469 73.9335 82.0392C74.2367 82.0162 74.5541 82.0935 74.9149 82.1167C74.9726 82.1631 75.016 82.109 75.016 82.109C75.1896 81.893 75.4494 81.9239 75.6807 81.7542C75.6807 81.7542 75.6807 81.7542 75.7241 81.7002C75.5078 81.6152 75.2772 81.4299 75.0609 81.3449C74.8446 81.26 74.599 81.3293 74.3969 81.3447C74.2524 81.4064 74.0937 81.3678 73.9785 81.2751C73.8489 81.0821 73.6468 81.0975 73.4881 81.0588C72.8099 80.9583 72.1602 81.0584 71.482 80.9578C71.2799 80.9732 71.0635 80.8882 70.8472 80.8033C70.5732 80.672 70.27 80.695 69.9092 80.6718C69.6495 80.6408 69.3897 80.6098 69.1734 80.5249C68.957 80.4399 68.7983 80.4012 68.5962 80.4166C68.4952 80.4243 68.3507 80.486 68.2354 80.3933C68.0909 80.455 67.9757 80.3624 67.8746 80.3701C67.7159 80.3314 67.6149 80.3391 67.4562 80.3005C67.3551 80.3082 67.2975 80.2618 67.2106 80.3699C67.1672 80.4239 67.0085 80.3852 66.9509 80.3389C66.8932 80.2926 66.8932 80.2926 66.8356 80.2462C66.7922 80.3003 66.7922 80.3003 66.7488 80.3543C66.6477 80.362 66.489 80.3233 66.388 80.331C66.2869 80.3387 66.2435 80.3927 66.1424 80.4004C66.0414 80.4081 65.9837 80.3617 65.9261 80.3154C65.9119 80.2151 65.8542 80.1687 65.8108 80.2228C65.349 80.2072 64.8729 80.0912 64.411 80.0757C64.2089 80.091 63.9925 80.006 63.8773 79.9134C63.6609 79.8284 63.4012 79.7975 63.1414 79.7665C62.6219 79.7046 62.059 79.6967 61.4961 79.6888C61.3374 79.6502 61.1353 79.6655 60.9766 79.6269C60.6015 79.5033 60.2983 79.5263 59.9375 79.503C59.6778 79.4721 59.418 79.4411 59.0572 79.4179C58.0182 79.294 57.0368 79.2165 55.9978 79.0927C55.637 79.0694 55.262 78.9458 54.9012 78.9225C54.5838 78.8452 54.324 78.8143 54.0209 78.8373C53.7611 78.8064 53.5448 78.7214 53.285 78.6905C53.1555 78.4975 52.8957 78.4665 52.7228 78.3275C52.6652 78.2812 52.6652 78.2812 52.6076 78.2349C52.2902 78.1576 51.9151 78.0339 51.5977 77.9567C51.3237 77.8253 50.9195 77.8561 50.6021 77.7788C50.2413 77.7555 49.9381 77.7786 49.6208 77.7013C49.4621 77.6627 49.2023 77.6317 49.0002 77.6471C48.7981 77.6624 48.6394 77.6238 48.4373 77.6392C48.3796 77.5929 48.3362 77.6469 48.2786 77.6005C48.0914 77.3612 47.7448 77.4383 47.4851 77.4073C47.0666 77.3377 46.7492 77.2604 46.3308 77.1908C46.071 77.1599 45.8113 77.1289 45.6092 77.1443C45.5081 77.152 45.4071 77.1597 45.3494 77.1133C45.0178 76.9357 44.5994 76.8661 44.2385 76.8428C43.7767 76.8272 43.4016 76.7036 42.969 76.5337C42.7092 76.5027 42.4495 76.4718 42.2474 76.4871C42.0452 76.5025 41.7421 76.5256 41.5257 76.4406C41.093 76.2706 40.6888 76.3014 40.2846 76.3321C40.1259 76.2935 39.9672 76.2548 39.7651 76.2702C39.4477 76.1929 39.0869 76.1697 38.7695 76.0924C38.5097 76.0614 38.1489 76.0381 37.8892 76.0072C37.8166 76.2156 37.8166 76.2156 38.0329 76.3005C38.6243 76.5091 39.158 76.6714 39.7209 76.6793C39.822 76.6716 39.8796 76.7179 39.9807 76.7102C40.3123 76.8879 40.6731 76.9111 41.0339 76.9344L41.135 76.9267C41.4666 77.1044 41.7698 77.0813 42.1882 77.1509C42.2459 77.1972 42.3035 77.2436 42.3611 77.2899C42.1733 77.4056 41.9711 77.421 41.7548 77.336C41.5961 77.2974 41.5385 77.251 41.3798 77.2124C41.3221 77.1661 41.2645 77.1197 41.1634 77.1274C41.0047 77.0888 40.7592 77.1582 40.6439 77.0655C40.4852 77.0269 40.3123 76.8879 40.1536 76.8492C39.7351 76.7796 39.2591 76.6637 38.8406 76.5941C38.7396 76.6018 38.6385 76.6095 38.5232 76.5168C38.3645 76.4782 38.2058 76.4395 38.0613 76.5012C37.6713 76.6323 37.6137 76.586 37.3547 76.2C37.2536 76.2076 37.1526 76.2153 36.9939 76.1767C37.0373 76.1227 36.9797 76.0764 36.9654 75.976C36.6481 75.8987 36.4175 75.7134 36.1577 75.6824C36.0567 75.6901 35.898 75.6515 35.7827 75.5588C35.6816 75.5665 35.624 75.5202 35.5229 75.5279C35.4219 75.5355 35.3351 75.6436 35.2198 75.5509C34.9458 75.4196 34.7437 75.435 34.4697 75.3037C34.0804 75.0797 33.6478 74.9098 33.2001 74.9945C33.0272 74.8556 32.7532 74.7243 32.5511 74.7396C32.4501 74.7473 32.2914 74.7087 32.2337 74.6623C32.0608 74.5233 31.9021 74.4847 31.6858 74.3997C31.4694 74.3148 31.3107 74.2761 31.1228 74.3918C30.9784 74.4535 30.8631 74.3609 30.7044 74.3222C30.5891 74.2296 30.4738 74.1369 30.3294 74.1986C30.0838 74.268 30.0262 74.2217 29.7814 73.936C29.9259 73.8743 30.1714 73.8049 30.3159 73.7432C30.4603 73.6815 30.4895 73.5272 30.3308 73.4885C30.2156 73.3959 29.9992 73.3109 29.8839 73.2182C29.6676 73.1332 29.4513 73.0483 29.2492 73.0636C29.0328 72.9787 28.8307 72.994 28.5133 72.9168C28.4415 72.7701 28.4706 72.6157 28.3988 72.4691C28.1824 72.3841 27.9227 72.3531 27.7206 72.3685C27.5185 72.3839 27.475 72.4379 27.5611 72.6849C27.5611 72.6849 27.6188 72.7312 27.5754 72.7852C27.4885 72.8933 27.2864 72.9086 27.4736 73.148C27.6323 73.1866 27.892 73.2176 28.1226 73.4029C28.2379 73.4956 28.44 73.4802 28.5987 73.5188C28.6997 73.5111 28.815 73.6038 28.8869 73.7505C28.5837 73.7735 28.2521 73.5959 27.9489 73.619C27.9055 73.673 27.8187 73.781 27.7753 73.835C27.5589 73.7501 27.3568 73.7654 27.1405 73.6804C26.8665 73.5491 26.7078 73.5105 26.4765 73.6802C26.2601 73.5953 26.2317 73.3946 26.1598 73.2479C25.3371 73.209 24.6013 73.0621 23.9096 72.5062C23.8954 72.4058 23.8235 72.2592 23.8093 72.1588C23.8527 72.1048 23.8819 71.9505 23.9253 71.8964C23.9545 71.7421 24.099 71.6804 24.2577 71.719C24.4598 71.7037 24.6185 71.7423 24.8206 71.7269C24.8348 71.8273 24.8491 71.9276 24.9067 71.9739C24.9643 72.0203 25.0796 72.1129 25.1373 72.1593C25.4255 72.3909 25.7863 72.4142 26.1179 72.5918C26.3919 72.7231 26.7384 72.646 27.0274 72.5226L27.0708 72.4686C26.7968 72.3373 26.5805 72.2523 26.2631 72.1751C26.2639 71.82 26.0333 71.6347 25.6725 71.6114C25.4127 71.5805 25.153 71.5495 24.9224 71.3642C24.7495 71.2252 24.5331 71.1402 24.2442 71.2636C24.3744 71.1016 24.4179 71.0476 24.4179 71.0476C24.4613 70.9935 24.5189 71.0399 24.62 71.0322C24.6058 70.9318 24.6492 70.8778 24.6349 70.7775C24.6784 70.7235 24.6207 70.6771 24.6207 70.6771C24.5055 70.5845 24.5054 70.5845 24.4478 70.5381C24.0585 70.3142 23.6116 70.0439 23.2658 69.7659C23.0929 69.6269 22.8765 69.542 22.6744 69.5573C22.5876 69.6654 22.6018 69.7657 22.7171 69.8584C22.8466 70.0514 22.9185 70.198 23.0914 70.337C22.8601 70.5068 22.6722 70.6225 22.4409 70.7922C22.3833 70.7459 22.3256 70.6996 22.268 70.6532C22.0951 70.5142 22.0232 70.3676 21.8645 70.3289C21.6482 70.2439 21.5187 70.0509 21.4326 69.8039C21.4183 69.7036 21.3607 69.6572 21.3465 69.5569C21.4909 69.4952 21.5778 69.3872 21.7222 69.3255C21.708 69.2251 21.708 69.2251 21.708 69.2251C21.5927 69.1325 21.5209 68.9858 21.4056 68.8931C21.3479 68.8468 21.2327 68.7541 21.2184 68.6538C21.0747 68.3604 20.9018 68.2215 20.5844 68.1442C20.5709 67.6888 20.3119 67.3028 20.7169 66.917C20.5731 66.6236 20.3284 66.338 20.4301 65.9752C20.4593 65.8209 20.4309 65.6202 20.3156 65.5275C20.0708 65.2418 20.1292 64.9331 20.1876 64.6244C20.1876 64.6244 20.231 64.5704 20.1734 64.5241C20.2744 64.5164 20.4331 64.555 20.4908 64.6014C20.7648 64.7327 21.0679 64.7096 21.3134 64.6402C21.4871 64.4241 21.6031 64.1618 21.4594 63.8684C21.2431 63.7834 21.0844 63.7448 20.9114 63.6058C20.8538 63.5595 20.7385 63.4668 20.7243 63.3665C20.6666 63.3201 20.7535 63.2121 20.7393 63.1118C20.6098 62.9188 20.3934 62.8338 20.1913 62.8491C20.0326 62.8105 19.8163 62.7255 19.701 62.6329C19.4562 62.3472 19.1388 62.2699 18.8648 62.1386C18.3887 62.0227 17.8692 61.9608 17.3789 61.7445C17.2202 61.7059 17.0615 61.6672 16.9605 61.6749C16.2388 61.6284 15.5464 61.4274 14.7963 61.1802C14.58 61.0952 14.3345 61.1646 14.0605 61.0333C13.8442 60.9484 13.6278 60.8634 13.3247 60.8864C13.2236 60.8941 13.166 60.8478 13.0649 60.8555C12.8486 60.7705 12.5888 60.7396 12.3148 60.6083C12.3006 60.5079 12.4593 60.5465 12.4593 60.5465C12.6614 60.5312 12.8778 60.6161 13.0365 60.6548C13.0941 60.7011 13.1375 60.6471 13.2386 60.6394C13.4699 60.4697 13.8307 60.493 14.1339 60.4699C14.336 60.4545 14.5523 60.5395 14.7544 60.5241C14.8555 60.5165 14.9131 60.5628 14.9423 60.4084C14.9281 60.3081 14.9139 60.2077 14.8562 60.1614C14.7986 60.1151 14.7986 60.1151 14.6975 60.1227C14.4812 60.0378 14.2648 59.9528 14.0051 59.9218C13.6877 59.8446 13.3561 59.6669 13.0095 59.744C13.0095 59.744 12.9519 59.6977 12.8508 59.7054C12.7932 59.659 12.7355 59.6127 12.6202 59.52C12.7213 59.5124 12.7647 59.4583 12.8081 59.4043C12.9092 59.3966 13.0102 59.3889 13.1113 59.3813C13.6308 59.4432 14.1503 59.5051 14.684 59.6674C15.0591 59.791 15.4633 59.7602 15.8817 59.8298C16.3002 59.8994 16.661 59.9227 17.0795 59.9923C17.2382 60.031 17.3826 59.9693 17.5413 60.0079C17.6424 60.0002 17.7726 59.8382 17.7584 59.7378C17.7442 59.6375 17.7157 59.4368 17.7015 59.3364C17.846 59.2747 17.9328 59.1667 17.861 59.02C17.7172 58.7267 17.7756 58.418 17.6319 58.1246L17.6176 58.0243C17.6468 57.8699 17.7194 57.6615 17.7486 57.5072C17.9507 57.4918 17.965 57.5921 17.9792 57.6925C18.0653 57.9395 18.2958 58.1248 18.5698 58.2561C18.5698 58.2561 18.6275 58.3025 18.6851 58.3488C18.6417 58.4028 18.6125 58.5572 18.5257 58.6652C18.5833 58.7115 18.6409 58.7578 18.6986 58.8042C18.7562 58.8505 18.7705 58.9509 18.8715 58.9432C19.1455 59.0745 19.4629 59.1518 19.7369 59.2831C19.8956 59.3217 20.0108 59.4144 20.1261 59.507C20.3567 59.6923 20.6164 59.7233 20.862 59.6539C21.2085 59.5768 21.5694 59.6001 21.8441 59.3764C21.8875 59.3224 22.0028 59.415 22.0896 59.307C21.8014 59.0753 21.7438 59.029 21.4264 58.9517C20.9503 58.8358 20.4742 58.7198 19.9981 58.6039C19.897 58.6116 19.8394 58.5653 19.7241 58.4726C19.7533 58.3183 19.912 58.3569 19.9696 58.4032C20.287 58.4805 20.6621 58.6041 21.0229 58.6274C21.4413 58.697 21.8021 58.7203 22.2064 58.6895C22.4085 58.6742 22.6106 58.6588 22.8269 58.7438C23.0433 58.8287 23.2312 58.713 23.2461 58.4583C23.2319 58.358 23.2177 58.2576 23.1458 58.1109C23.0739 57.9643 22.9587 57.8716 22.8434 57.7789C22.7857 57.7326 22.7281 57.6863 22.6271 57.694C21.9631 57.6938 21.4293 57.5315 20.838 57.3229C20.6216 57.2379 20.4053 57.153 20.1455 57.122C20.1605 56.8673 20.4929 56.6899 20.4502 56.3889C20.3926 56.3425 20.3349 56.2962 20.2196 56.2035C20.0467 56.0645 19.8304 55.9796 19.8453 55.7249C19.8311 55.6245 19.7735 55.5782 19.7158 55.5319C19.6006 55.4392 19.5429 55.3929 19.4276 55.3002C19.4134 55.1999 19.3992 55.0995 19.3849 54.9992C19.3999 54.7445 19.3281 54.5978 19.0683 54.5668C18.9096 54.5282 18.8377 54.3815 18.6499 54.4972C18.563 54.6053 18.6349 54.7519 18.6491 54.8523C18.6491 54.8523 18.6491 54.8523 18.6633 54.9526C18.4612 54.968 18.3459 54.8753 18.1296 54.7904C18.0143 54.6977 17.8122 54.7131 17.7254 54.8211C17.5809 54.8828 17.4507 55.0449 17.2628 55.1606C17.2485 55.0602 17.1909 55.0139 17.1767 54.9136C17.408 54.7438 17.6827 54.5201 17.914 54.3503C18.1019 54.2346 18.2464 54.1729 18.4769 54.3582C18.4769 54.3582 18.5346 54.4046 18.6356 54.3969C18.679 54.3429 18.6648 54.2425 18.7082 54.1885C18.968 54.2195 19.2712 54.1964 19.5743 54.1734C19.6612 54.0653 19.474 53.826 19.6619 53.7103C20.0369 53.8339 20.513 53.9498 20.8881 54.0734C21.0468 54.1121 21.1478 54.1044 21.2923 54.0427C21.2781 53.9424 21.1628 53.8497 21.1051 53.8034C20.8888 53.7184 20.6148 53.5871 20.3985 53.5021C20.3409 53.4558 20.2256 53.3631 20.2256 53.3631C20.1829 53.0621 19.8655 52.9848 19.6492 52.8998C19.3752 52.7685 19.1446 52.5832 18.9141 52.3979C18.8564 52.3516 18.7988 52.3052 18.7411 52.2589C18.655 52.0119 18.4387 51.9269 18.3668 51.7802C18.67 51.7572 18.9155 51.6878 19.1753 51.7187C19.435 51.7497 19.6229 51.634 19.7966 51.4179C19.566 51.2326 19.3355 51.0473 19.206 50.8543C19.2928 50.7463 19.3504 50.7926 19.4515 50.7849C19.8842 50.9548 20.3603 51.0708 20.6769 51.5031C20.778 51.4954 20.9225 51.4337 21.0811 51.4724C21.1395 51.1637 20.9524 50.9243 20.8229 50.7313C20.6934 50.5383 20.477 50.4533 20.2607 50.3684C19.8422 50.2988 19.4096 50.1288 18.9335 50.0129C18.5584 49.8893 18.1976 49.866 17.8226 49.7424C17.2889 49.5801 16.8128 49.4642 16.3367 49.3483C16.1203 49.2633 15.9616 49.2246 15.7311 49.0393C15.8321 49.0316 15.9332 49.0239 16.0342 49.0163C16.4527 49.0859 16.8712 49.1555 17.3472 49.2714C17.8233 49.3873 18.2994 49.5033 18.7613 49.5188C18.92 49.5575 19.0787 49.5961 19.1947 49.3337C19.2381 49.2797 19.3392 49.272 19.4402 49.2644C19.8729 49.4343 20.2771 49.4036 20.6088 49.5812L20.6664 49.6275C21.013 49.5504 21.3446 49.7281 21.6478 49.705C21.7488 49.6973 21.8933 49.6356 22.052 49.6743C22.1531 49.6666 22.3552 49.6512 22.4562 49.6435C22.5573 49.6358 22.6583 49.6281 22.7017 49.5741C22.7452 49.5201 22.731 49.4198 22.8178 49.3118C22.4862 49.1341 22.1111 49.0105 21.7503 48.9872C21.7069 49.0412 21.7211 49.1416 21.6777 49.1956C21.5909 49.3036 21.4898 49.3113 21.4322 49.265C21.3169 49.1723 21.245 49.0257 21.1298 48.933C21.1155 48.8327 21.2024 48.7246 21.1881 48.6243C21.1739 48.5239 21.1597 48.4236 21.0878 48.2769C21.5931 48.2385 22.0692 48.3544 22.4876 48.424C22.4734 48.3237 22.4592 48.2233 22.445 48.123C22.272 47.984 21.9689 48.007 21.8828 47.76C22.2294 47.683 22.576 47.6059 22.8934 47.6832C23.2107 47.7605 23.5139 47.7374 23.7879 47.8687C23.7879 47.8687 23.8455 47.915 23.889 47.861C24.1345 47.7916 24.4519 47.8689 24.7116 47.8999C24.8419 47.7378 24.8419 47.7378 24.9437 47.3751C25.2034 47.406 25.4055 47.3907 25.6653 47.4216C25.8098 47.3599 25.7955 47.2596 25.8247 47.1052C25.5657 46.7192 25.1765 46.4953 24.7438 46.3253C24.2535 46.109 23.734 46.0471 23.2002 45.8849C23.0415 45.8462 22.9405 45.8539 22.8252 45.7612C22.5655 45.7303 22.2915 45.599 22.0317 45.568C21.7143 45.4907 21.4546 45.4598 21.224 45.2745C21.1087 45.1818 21.0077 45.1895 20.8924 45.0968C20.8347 45.0505 20.6761 45.0119 20.6184 44.9655C20.5031 44.8729 20.4313 44.7262 20.4889 44.7725C20.59 44.7648 20.691 44.7572 20.691 44.7572C21.1237 44.9271 21.2247 44.9194 21.7016 44.6803C21.8311 44.8733 21.9464 44.9659 22.0182 45.1126C22.1769 45.1513 22.3214 45.0896 22.4082 44.9815C22.4951 44.8735 22.5961 44.8658 22.7548 44.9045C22.9135 44.9431 23.0722 44.9818 23.2743 44.9664C23.4764 44.951 23.6786 44.9356 23.9383 44.9666C24.1404 44.9512 24.3568 45.0362 24.6165 45.0672C24.8186 45.0518 25.0207 45.0364 25.1794 45.0751C25.2805 45.0674 25.3815 45.0597 25.4392 45.106C25.5979 45.1447 25.6413 45.0906 25.7281 44.9826C25.6855 44.6816 25.3681 44.6043 25.1951 44.4653C25.2243 44.3109 25.3396 44.4036 25.383 44.3496C25.4264 44.2956 25.5133 44.1875 25.6143 44.1798C25.499 44.0872 25.4272 43.9405 25.2543 43.8015C25.3987 43.7398 25.5432 43.6781 25.6443 43.6704C25.6443 43.6704 25.6877 43.6164 25.6734 43.5161C25.6016 43.3694 25.5439 43.3231 25.3852 43.2844C25.1689 43.1994 25.0102 43.1608 24.7939 43.0758C24.6644 42.8828 24.5783 42.6358 24.4922 42.3888C25.0985 42.3427 25.6899 42.5513 26.2962 42.5052C26.6144 42.2274 26.6144 42.2274 26.4564 41.8337C26.5575 41.826 26.6585 41.8183 26.7162 41.8646C26.9325 41.9496 27.1346 41.9343 27.2933 41.9729C27.4954 41.9575 27.5246 41.8032 27.4528 41.6565C27.4385 41.5561 27.3809 41.5098 27.3667 41.4095C27.598 41.2397 27.8869 41.1163 28.0748 41.0006C28.0464 40.7999 28.0755 40.6456 28.1047 40.4912C28.1916 40.3832 28.3069 40.4758 28.4513 40.4141C28.6969 40.3447 28.726 40.1904 28.5965 39.9974C28.5389 39.951 28.4236 39.8584 28.3083 39.7657C28.3518 39.7117 28.3952 39.6577 28.4386 39.6037C28.482 39.5497 28.5254 39.4957 28.5688 39.4416C28.5112 39.3953 28.5546 39.3413 28.497 39.295C28.1654 39.1173 27.8772 38.8857 27.4879 38.6617C27.4303 38.6154 27.3726 38.5691 27.2715 38.5767C27.0118 38.5458 26.7378 38.4145 26.5649 38.2755C26.1756 38.0515 25.8874 37.8199 25.4548 37.6499C25.2384 37.565 25.0797 37.5263 24.9353 37.588C24.7331 37.6034 24.531 37.6188 24.3289 37.6341C24.2279 37.6418 24.1702 37.5955 24.0692 37.6032C24.0407 37.4025 24.0699 37.2481 23.9404 37.0551C23.8251 36.9625 23.7098 36.8698 23.5654 36.9315C23.3198 37.0009 23.0601 36.9699 22.7861 36.8386C22.7285 36.7923 22.6274 36.8 22.4687 36.7614C22.4111 36.715 22.2524 36.6764 22.1947 36.63C22.1513 36.6841 22.1079 36.7381 22.0211 36.8461C22.0787 36.8924 22.0353 36.9465 22.0929 36.9928C22.2801 37.2321 22.2801 37.2321 22.1498 37.3942C22.063 37.5022 22.0196 37.5562 21.8751 37.6179C22.1199 37.9036 22.3362 37.9886 22.697 38.0118C23.0579 38.0351 23.0579 38.0351 23.3603 38.3671C23.3169 38.4211 23.2592 38.3748 23.2158 38.4288C23.1582 38.3825 23.1005 38.3361 23.0429 38.2898C22.9276 38.1971 22.7689 38.1585 22.6821 38.2665C22.6387 38.3206 22.5376 38.3282 22.4366 38.3359C22.3355 38.3436 22.2344 38.3513 22.0757 38.3127C21.8018 38.1813 21.4844 38.1041 21.2246 38.0731C20.7485 37.9572 20.3159 37.7872 19.869 37.5169C19.7537 37.4243 19.595 37.3856 19.5665 37.1849C19.711 37.1232 19.8989 37.0075 20.101 36.9921C20.3031 36.9768 20.5194 37.0617 20.7073 36.946C20.6931 36.8457 20.7365 36.7917 20.7657 36.6373C20.7081 36.591 20.7081 36.591 20.6504 36.5447C20.5352 36.452 20.3765 36.4134 20.3188 36.367C20.2035 36.2744 20.0883 36.1817 20.074 36.0814C20.1032 35.927 20.2185 36.0196 20.3196 36.012C20.6369 36.0893 20.8967 36.1202 21.2141 36.1975C21.2717 36.2438 21.3728 36.2361 21.4162 36.1821C21.4454 36.0278 21.4312 35.9274 21.3593 35.7808C21.2875 35.6341 21.1722 35.5414 21.2014 35.3871C21.1587 35.086 21.0292 34.893 20.8128 34.808L20.7552 34.7617C20.7844 34.6074 20.8712 34.4993 20.9723 34.4916C21.1744 34.4763 21.3331 34.5149 21.5352 34.4995C21.6363 34.4918 21.7373 34.4842 21.7807 34.4301C21.8968 34.1678 22.1131 34.2527 22.3586 34.1833C22.4163 34.2297 22.4305 34.33 22.5458 34.4227C22.661 34.5153 22.8774 34.6003 22.9784 34.5926C23.4403 34.6082 23.8588 34.6778 24.2046 34.9558C24.2622 35.0021 24.3057 34.9481 24.4067 34.9404C24.3925 34.8401 24.4359 34.7861 24.4651 34.6317C24.4075 34.5854 24.4075 34.5854 24.3498 34.539C24.2922 34.4927 24.2345 34.4464 24.1335 34.4541C23.9171 34.3691 23.7008 34.2841 23.5279 34.1451C23.1244 33.8208 22.6049 33.7589 22.1722 33.589C21.8548 33.5117 21.5232 33.334 21.3218 32.9944C21.4229 32.9867 21.4663 32.9327 21.5239 32.979C21.5674 32.925 21.625 32.9713 21.6684 32.9173C21.6542 32.8169 21.64 32.7166 21.6257 32.6162C21.7268 32.6086 21.7844 32.6549 21.8855 32.6472C21.8855 32.6472 21.9866 32.6395 21.9723 32.5392C21.9723 32.5392 21.9581 32.4388 21.9005 32.3925C21.6841 32.3075 21.4678 32.2226 21.2949 32.0836C21.3241 31.9292 21.4109 31.8212 21.5696 31.8598C21.887 31.9371 22.1902 31.914 22.4215 31.7443C22.4649 31.6903 22.5659 31.6826 22.6236 31.7289C22.7823 31.7676 22.8833 31.7599 23.042 31.7985C23.1581 31.5362 23.158 31.5361 23.5189 31.5594C23.6491 31.3974 23.7359 31.2893 23.9815 31.22C24.1544 31.3589 24.1536 31.714 24.5002 31.6369C24.5871 31.5289 24.5728 31.4285 24.6597 31.3205C24.7031 31.2665 24.6889 31.1662 24.6312 31.1198C24.4441 30.8805 24.2712 30.7415 24.0406 30.5562C23.81 30.3709 23.536 30.2396 23.2763 30.2086C23.3055 30.0542 23.3923 29.9462 23.4649 29.7378C23.3931 29.5912 23.3354 29.5448 23.2635 29.3982L23.307 29.3441C23.6101 29.3211 23.813 28.9507 24.1012 29.1823C24.1154 29.2827 24.1873 29.4293 24.3026 29.522C24.3602 29.5683 24.4613 29.5606 24.5623 29.5529L24.6634 29.5453C24.6492 29.4449 24.5915 29.3986 24.5481 29.4526C24.4905 29.4063 24.4328 29.3599 24.3752 29.3136C24.6207 29.2442 24.6207 29.2442 24.6784 29.2906C25.01 29.4682 25.2697 29.4991 25.6163 29.4221C26.266 29.3219 26.8574 29.5305 27.4054 29.7931C27.5207 29.8858 27.6794 29.9244 27.7804 29.9168L27.8815 29.9091C28.1697 30.1407 28.5163 30.0636 28.7902 30.1949C28.9489 30.2336 29.0642 30.3263 29.1945 30.1642C29.3532 30.2029 29.5987 30.1335 29.7282 30.3265C29.8435 30.4191 29.9588 30.5118 30.0598 30.5041C30.1609 30.4964 30.2185 30.5427 30.2185 30.5427C30.5067 30.7744 30.8817 30.898 31.2283 30.8209C31.4739 30.7515 31.676 30.7362 31.8639 30.6205C32.0802 30.7054 32.1087 30.9061 32.2382 31.0991C31.8489 30.8752 32.0368 30.7594 32.167 30.5974C32.4844 30.6747 32.8595 30.7983 33.0608 31.138C33.4935 31.3079 33.9412 31.2232 34.302 31.2464C34.5041 31.2311 34.5475 31.1771 34.519 30.9764C34.4038 30.8837 34.3895 30.7834 34.2308 30.7447C34.0145 30.6597 33.986 30.459 33.8708 30.3664C33.7704 30.019 33.4531 29.9417 33.1499 29.9648C33.0488 29.9725 32.9478 29.9802 32.8467 29.9879C32.7457 29.9955 32.7022 30.0495 32.6588 30.1036C32.5286 30.2656 32.3983 30.4277 32.167 30.5974ZM83.959 78.1832L84.0601 78.1755C83.9591 78.1832 83.959 78.1832 83.959 78.1832C83.959 78.1832 83.9014 78.1369 83.959 78.1832C83.9156 78.2372 83.9156 78.2372 83.959 78.1832ZM82.962 78.7155C82.9185 78.7695 82.9185 78.7695 82.962 78.7155C82.9185 78.7695 82.9185 78.7695 82.962 78.7155C83.1064 78.6538 83.2509 78.5921 83.3812 78.43C83.2951 78.183 83.0929 78.1984 82.9343 78.1597C82.7756 78.1211 82.6311 78.1828 82.5443 78.2908C82.6304 78.5378 82.8467 78.6228 82.962 78.7155ZM83.7891 35.1911C84.063 35.3224 84.4381 35.446 84.7413 35.423C84.9 35.4616 85.0444 35.3999 85.1597 35.4926C85.3184 35.5312 85.4337 35.6239 85.5924 35.6625C85.5781 35.5622 85.6216 35.5081 85.6073 35.4078C85.4344 35.2688 85.2757 35.2302 85.1028 35.0912C84.8288 34.9599 84.5833 35.0293 84.2801 35.0523C84.1356 35.114 83.9335 35.1294 83.7891 35.1911C83.7022 35.2991 83.6012 35.3068 83.5001 35.3145C83.5001 35.3145 83.4567 35.3685 83.5143 35.4148C83.5143 35.4148 83.5143 35.4148 83.572 35.4612C83.673 35.4535 83.7741 35.4458 83.8175 35.3918C83.7599 35.3455 83.8033 35.2914 83.7891 35.1911ZM28.2603 35.1037C28.0582 35.1191 27.8995 35.0805 27.7408 35.0418C27.4669 34.9105 27.1637 34.9336 26.8463 34.8563C26.6876 34.8177 26.6008 34.9257 26.5424 35.2344C26.8164 35.3657 27.1338 35.443 27.3501 35.528C27.6675 35.6052 27.8981 35.7906 28.0994 36.1303C28.0994 36.1303 28.1571 36.1766 28.2147 36.2229C28.3015 36.1149 28.3884 36.0068 28.4752 35.8988C28.6773 35.8834 28.8936 35.9684 29.1392 35.899C29.3847 35.8296 29.5861 36.1693 29.774 36.0536C29.89 35.7912 29.89 35.7912 29.5442 35.5132C29.5876 35.4592 29.631 35.4052 29.732 35.3975C29.8331 35.3898 29.8907 35.4362 29.9918 35.4285C30.0928 35.4208 30.2231 35.2587 30.1512 35.1121C30.0794 34.9654 29.9641 34.8727 29.863 34.8804C29.7043 34.8418 29.6033 34.8495 29.5022 34.8572C29.3001 34.8725 29.098 34.8879 28.8816 34.8029C28.6653 34.7179 28.4632 34.7333 28.3045 34.6947C28.0298 34.9184 28.1885 34.9571 28.2603 35.1037ZM83.3343 52.519C83.2908 52.573 83.1898 52.5807 83.1321 52.5344C82.8582 52.4031 82.6703 52.5188 82.439 52.6885C82.4966 52.7348 82.5108 52.8352 82.5685 52.8815C82.6261 52.9278 82.7848 52.9665 82.8859 52.9588C83.3912 52.9204 83.8096 52.99 84.2281 53.0596C84.2857 53.1059 84.3868 53.0982 84.4302 53.0442C84.7333 53.0211 85.1376 52.9904 85.4407 52.9673C85.6863 52.8979 85.946 52.9289 86.22 53.0602C86.3353 53.1529 86.5374 53.1375 86.6385 53.1298C86.884 53.0604 87.0861 53.0451 87.3166 53.2304C87.417 53.5777 87.417 53.5777 87.7486 53.7554C88.0226 53.8867 88.2247 53.8713 88.3407 53.6089C88.3841 53.5549 88.3265 53.5086 88.3699 53.4545C88.2404 53.2615 88.0675 53.1226 87.9956 52.9759C87.8661 52.7829 87.7074 52.7442 87.5053 52.7596C87.3608 52.8213 87.1587 52.8367 86.9858 52.6977C86.9281 52.6514 86.8271 52.659 86.726 52.6667C86.0763 52.7669 85.4557 52.7126 84.8209 52.5581C84.7206 52.2107 84.5477 52.0717 84.2587 52.1951C84.2153 52.2491 84.1577 52.2028 84.1 52.1565C83.8837 52.0715 83.6382 52.1409 83.4361 52.1562C83.335 52.1639 83.2482 52.272 83.1471 52.2796C83.2047 52.326 83.2766 52.4727 83.3343 52.519ZM82.0606 74.8791C81.9738 74.9871 81.9304 75.0411 81.8435 75.1491C81.7567 75.2572 81.6556 75.2649 81.5688 75.3729C81.8862 75.4502 82.0883 75.4348 82.3915 75.4117C82.5068 75.5044 82.7231 75.5894 82.8384 75.682C83.1707 75.5046 83.4597 75.3812 83.8489 75.6052C84.0076 75.6438 84.1087 75.6361 84.2532 75.5744C84.2966 75.5204 84.4411 75.4587 84.4845 75.4047C84.6432 75.4433 84.8019 75.482 84.9606 75.5207C85.1769 75.6056 85.3648 75.4899 85.495 75.3278C85.5819 75.2198 85.6687 75.1118 85.7555 75.0037C85.8424 74.8957 85.7705 74.749 85.7563 74.6487C86.0018 74.5793 86.2039 74.564 86.4203 74.6489C86.579 74.6876 86.6658 74.5795 86.7668 74.5718C86.8103 74.5178 86.7961 74.4175 86.8395 74.3635C86.7384 74.3712 86.6231 74.2785 86.5655 74.2322C86.4644 74.2398 86.4068 74.1935 86.3057 74.2012C85.8439 74.1856 85.4396 74.2164 85.0354 74.2471C84.7323 74.2702 84.4291 74.2932 84.0683 74.27C83.8085 74.239 83.5488 74.208 83.3609 74.3238C83.3175 74.3778 83.2598 74.3314 83.1587 74.3391C83.0577 74.3468 83.0001 74.3005 82.899 74.3082C82.3937 74.3466 81.8308 74.3387 81.3255 74.3771C81.3397 74.4775 81.354 74.5778 81.354 74.5778C81.5703 74.6628 81.7866 74.7478 81.9453 74.7864C81.9453 74.7864 82.0464 74.7787 82.0606 74.8791ZM23.3017 66.4161C23.2148 66.5241 23.128 66.6322 23.0846 66.6862C23.1849 67.0336 23.3721 67.2729 23.7471 67.3965C24.1221 67.5201 24.4971 67.6437 24.9014 67.613C24.9014 67.613 24.9448 67.559 25.0459 67.5513C25.0893 67.4973 25.075 67.3969 25.1185 67.3429C25.0466 67.1962 24.989 67.1499 24.9313 67.1036C25.1192 66.9879 25.3071 66.8721 25.4373 66.7101C25.5242 66.6021 25.611 66.494 25.4381 66.355C25.2794 66.3164 25.1783 66.3241 24.9762 66.3395C24.673 66.3625 24.6154 66.3162 24.5151 65.9688C24.5585 65.9148 24.6453 65.8068 24.6888 65.7528C24.1984 65.5365 23.8092 65.3125 23.2463 65.3046C23.2755 65.1503 23.3046 64.9959 23.2328 64.8492C23.1182 64.4015 22.4408 63.9459 21.9931 64.0307C21.791 64.046 21.6465 64.1077 21.6174 64.2621C21.6892 64.4088 21.7611 64.5554 21.8906 64.7484C22.0635 64.8874 22.2222 64.9261 22.3951 65.0651C22.1638 65.2348 21.8614 64.9028 21.6443 65.1729C21.788 65.4662 21.788 65.4662 22.0044 65.5512C22.2784 65.6825 22.5958 65.7598 22.8697 65.8911C22.8548 66.1458 22.9124 66.1921 23.3017 66.4161ZM24.4599 37.1171C24.7773 37.1943 24.9645 37.4337 25.2534 37.3103L25.3545 37.3026C25.6718 37.3799 25.9458 37.5112 26.2056 37.5421C26.3643 37.5808 26.523 37.6194 26.624 37.6117C26.7251 37.604 26.7685 37.55 26.913 37.4883L27.014 37.4806C27.0717 37.527 27.187 37.6196 27.2588 37.7663C27.3599 37.7586 27.5043 37.6969 27.5478 37.6429C27.663 37.7356 27.7207 37.7819 27.836 37.8745C27.9512 37.9672 28.0523 37.9595 28.1676 38.0522C28.2686 38.0445 28.312 37.9905 28.4131 37.9828C28.6729 38.0138 28.976 37.9907 29.2066 38.176C29.3795 38.315 29.5382 38.3536 29.7545 38.4386C29.9424 38.3229 30.0869 38.2612 30.2748 38.1455C30.4193 38.0838 30.3766 37.7827 30.2179 37.7441C30.0016 37.6591 29.8286 37.5201 29.5689 37.4892C29.3668 37.5045 29.2081 37.4659 29.0928 37.3733C28.8765 37.2883 28.6743 37.3037 28.5156 37.265C28.3569 37.2264 28.1406 37.1414 27.9243 37.0564C27.8666 37.0101 27.7656 37.0178 27.6645 37.0255C27.4624 37.0408 27.2027 37.0099 26.9863 36.9249C26.8276 36.8863 26.6113 36.8013 26.4668 36.863C26.2213 36.9324 25.9765 36.6467 25.731 36.7161C25.731 36.7161 25.6733 36.6698 25.5723 36.6774C25.1972 36.5538 24.8222 36.4302 24.4614 36.4069C24.3027 36.3683 24.1582 36.43 24.0714 36.538C24.2009 36.731 24.3304 36.924 24.4599 37.1171ZM37.7072 31.8496C37.7798 31.6412 37.8524 31.4328 37.925 31.2244C37.6945 31.0391 37.4781 30.9542 37.1607 30.8769C36.8433 30.7996 36.5694 30.6683 36.2954 30.537C36.0214 30.4057 35.6606 30.3824 35.4151 30.4518C35.2706 30.5135 35.1695 30.5212 35.0685 30.5289C35.0393 30.6832 35.0101 30.8376 34.9809 30.9919C35.0528 31.1386 35.1681 31.2313 35.1823 31.3316C35.2399 31.378 35.2976 31.4243 35.3552 31.4706C35.6292 31.6019 35.8597 31.7872 36.1771 31.8645C36.7109 32.0268 37.2738 32.0347 37.7072 31.8496ZM80.6436 34.6189C80.3696 34.4876 80.1533 34.4026 79.8501 34.4257C79.648 34.4411 79.4459 34.4564 79.3448 34.4641C79.0416 34.4872 78.7243 34.4099 78.4211 34.433C78.32 34.4406 78.2766 34.4947 78.2332 34.5487C78.1898 34.6027 78.305 34.6953 78.3627 34.7417C78.4203 34.788 78.579 34.8266 78.6367 34.873C78.8672 35.0583 79.127 35.0893 79.4444 35.1665C79.8052 35.1898 80.2094 35.1591 80.5702 35.1823C80.83 35.2133 80.8592 35.0589 80.7873 34.9123C80.7154 34.7656 80.7012 34.6652 80.6436 34.6189ZM84.5638 72.0009C84.6356 72.1475 84.7943 72.1862 84.8954 72.1785C85.4583 72.1864 86.1223 72.1866 86.6852 72.1945C86.8873 72.1792 87.0894 72.1638 87.335 72.0944C87.436 72.0867 87.4795 72.0327 87.4076 71.886C87.3499 71.8397 87.2923 71.7933 87.2346 71.747C86.9315 71.7701 86.6141 71.6928 86.2967 71.6155C86.138 71.5769 85.9793 71.5382 85.8782 71.5459C85.7195 71.5073 85.5751 71.569 85.5025 71.7773C85.459 71.8313 85.459 71.8313 85.4156 71.8854C85.1125 71.9084 84.8669 71.9778 84.5638 72.0009ZM27.7827 70.2845C27.7684 70.1842 27.8119 70.1302 27.7542 70.0838C27.6966 70.0375 27.6247 69.8908 27.5671 69.8445C27.3941 69.7055 27.2354 69.6669 27.0191 69.5819C26.8028 69.4969 26.6875 69.4043 26.4712 69.3193C26.2548 69.2343 25.9951 69.2034 25.793 69.2187C25.7495 69.2727 25.7061 69.3268 25.6627 69.3808C25.6193 69.4348 25.6769 69.4811 25.7346 69.5274C25.7922 69.5738 25.8499 69.6201 25.9509 69.6124C26.2825 69.7901 26.5999 69.8673 26.8881 70.099C27.061 70.238 27.3208 70.2689 27.4795 70.3076C27.5948 70.4002 27.6816 70.2922 27.7827 70.2845ZM16.789 60.8258C16.7748 60.7255 16.7748 60.7255 16.7172 60.6791C16.3713 60.4012 15.9671 60.4319 15.5921 60.3083C15.3323 60.2773 15.0726 60.2464 14.827 60.3158C14.8555 60.5164 14.9273 60.6631 15.086 60.7018C15.4611 60.8254 15.8795 60.895 16.2261 60.8179C16.3272 60.8102 16.3848 60.8566 16.4859 60.8489C16.5869 60.8412 16.688 60.8335 16.789 60.8258ZM86.2742 68.5744C86.1589 68.4818 86.0436 68.3891 85.8849 68.3504C85.6828 68.3658 85.4665 68.2809 85.2786 68.3966C85.0907 68.5123 84.9028 68.628 84.6573 68.6974C84.7868 68.8904 84.9021 68.9831 85.1476 68.9137C85.2486 68.906 85.3355 68.7979 85.4365 68.7903C86.0279 68.9989 86.0279 68.9989 86.2742 68.5744ZM26.8642 33.1814C26.576 32.9497 26.4899 32.7027 26.2302 32.6718C25.9128 32.5945 25.552 32.5712 25.2346 32.4939C25.2346 32.4939 25.1478 32.6019 25.2054 32.6483C25.263 32.6946 25.3207 32.7409 25.3783 32.7873C25.6523 32.9186 25.9263 33.0499 26.2003 33.1812C26.2579 33.2275 26.3013 33.1735 26.3589 33.2198C26.46 33.2121 26.6045 33.1504 26.8642 33.1814ZM91.8471 61.0507C91.6308 60.9657 91.4721 60.9271 91.3568 60.8344C91.1263 60.6491 90.8665 60.6181 90.621 60.6875C90.5775 60.7415 90.4907 60.8495 90.4039 60.9576C90.6202 61.0425 90.8508 61.2279 91.0671 61.3128C91.2835 61.3978 91.4856 61.3825 91.6735 61.2667C91.6593 61.1664 91.7027 61.1124 91.8471 61.0507ZM89.9201 50.6995C89.7614 50.6609 89.5885 50.5219 89.4298 50.4833C89.3722 50.4369 89.2711 50.4446 89.2277 50.4986C89.0256 50.514 88.9387 50.622 88.8519 50.7301C88.8085 50.7841 88.8661 50.8304 88.8227 50.8844C88.938 50.9771 89.0967 51.0157 89.212 51.1084C89.8034 51.317 89.8034 51.317 89.9201 50.6995ZM86.1479 80.6538C85.7586 80.4299 85.3686 80.5609 85.2234 80.9777C85.18 81.0317 85.2377 81.0781 85.2377 81.0781C85.2953 81.1244 85.3529 81.1707 85.3963 81.1167C85.5408 81.055 85.7429 81.0396 85.9159 81.1786C85.9735 81.2249 86.0746 81.2173 86.118 81.1632C86.219 81.1556 86.2482 81.0012 86.234 80.9008C86.2198 80.8005 86.2055 80.7002 86.1479 80.6538ZM89.5587 57.8776C89.5729 57.978 89.4284 58.0397 89.5003 58.1863C89.5722 58.333 89.7309 58.3717 89.7885 58.418C89.9472 58.4566 90.0483 58.449 90.1493 58.4413C90.4091 58.4722 90.4959 58.3642 90.5251 58.2098C90.2803 57.9242 89.9629 57.8469 89.5587 57.8776ZM87.2664 49.6335C87.2949 49.8342 87.5112 49.9192 87.6123 49.9115C87.872 49.9425 88.1318 49.9734 88.3339 49.958C88.4349 49.9504 88.4784 49.8963 88.5218 49.8423C88.5652 49.7883 88.4499 49.6957 88.4499 49.6957C88.3923 49.6493 88.3923 49.6493 88.3346 49.603C88.0172 49.5257 87.7575 49.4948 87.4401 49.4175C87.4543 49.5178 87.3533 49.5255 87.2664 49.6335ZM25.0564 69.4269C25.1574 69.4192 25.2585 69.4115 25.3595 69.4038C25.3887 69.2495 25.4322 69.1955 25.4179 69.0951C25.3026 69.0024 25.1874 68.9098 25.0721 68.8171C24.8992 68.6781 24.697 68.6935 24.5092 68.8092C24.4657 68.8632 24.4223 68.9173 24.48 68.9636C24.6529 69.1026 24.8258 69.2416 25.0564 69.4269ZM87.9845 58.3016C88.3303 58.5796 88.5182 58.4639 89.0092 58.3251C89.1103 58.3174 89.1537 58.2634 89.1395 58.1631C88.9232 58.0781 88.6492 57.9468 88.4037 58.0162C88.245 57.9775 88.1005 58.0392 87.9845 58.3016ZM90.4046 60.6025C90.4338 60.4482 90.4196 60.3478 90.3043 60.2552C90.088 60.1702 89.8859 60.1856 89.698 60.3013C89.6546 60.3553 89.6688 60.4556 89.7264 60.502C89.8993 60.641 90.1733 60.7723 90.4046 60.6025ZM86.39 54.6194C86.3757 54.5191 86.3757 54.5191 86.3181 54.4727C86.0299 54.2411 85.6833 54.3182 85.4378 54.3875C85.4378 54.3875 85.3944 54.4416 85.3509 54.4956C85.3509 54.4956 85.3652 54.5959 85.4662 54.5882C85.726 54.6192 85.9423 54.7042 86.2021 54.7351C86.2455 54.6811 86.3465 54.6734 86.39 54.6194ZM88.2385 74.8656C88.368 75.0586 88.5268 75.0973 88.6278 75.0896C88.7723 75.0279 88.9744 75.0125 89.1188 74.9508C89.2199 74.9431 89.148 74.7964 89.0904 74.7501C89.0327 74.7038 88.9751 74.6575 88.9751 74.6575C88.773 74.6728 88.6143 74.6342 88.4699 74.6959C88.3112 74.6573 88.3254 74.7576 88.2385 74.8656ZM27.0401 31.9002C27.0543 32.0005 27.112 32.0469 27.0686 32.1009C27.0686 32.1009 27.0252 32.1549 26.9241 32.1626L26.9817 32.2089C27.0828 32.2012 27.2849 32.1858 27.386 32.1781C27.5589 32.3171 27.5589 32.3171 27.6457 32.2091C27.6891 32.1551 27.7325 32.1011 27.8336 32.0934C27.7183 32.0007 27.603 31.9081 27.5454 31.8617C27.3867 31.8231 27.2422 31.8848 27.0401 31.9002ZM29.1248 28.9524C29.3554 29.1377 29.6294 29.269 29.8749 29.1996C29.9325 29.2459 30.0194 29.1379 30.0194 29.1379C30.0052 29.0376 29.9909 28.9372 29.9333 28.8909C29.6593 28.7596 29.3561 28.7826 29.1248 28.9524ZM85.186 78.1913C85.0849 78.199 84.8828 78.2144 84.7817 78.2221C84.7383 78.2761 84.7383 78.2761 84.5938 78.3378C84.7091 78.4304 84.7233 78.5308 84.781 78.5771C84.8386 78.6234 84.8962 78.6698 84.9539 78.7161C85.0115 78.7624 85.1126 78.7548 85.2137 78.7471C85.3147 78.7394 85.4015 78.6313 85.2862 78.5387C85.3154 78.3843 85.2436 78.2377 85.186 78.1913ZM87.3764 45.3652C87.4917 45.4579 87.6069 45.5506 87.7656 45.5892C87.8233 45.6355 87.9678 45.5738 88.0112 45.5198C88.0546 45.4658 88.0404 45.3654 87.9827 45.3191C87.9109 45.1724 87.8532 45.1261 87.6945 45.0875C87.5935 45.0952 87.449 45.1569 87.3764 45.3652ZM82.0205 52.6189C81.9052 52.5262 81.7465 52.4876 81.7465 52.4876C81.6455 52.4953 81.501 52.557 81.3566 52.6187C81.3131 52.6727 81.3273 52.773 81.3416 52.8734C81.3558 52.9737 81.4569 52.9661 81.5003 52.912C81.5437 52.858 81.6447 52.8503 81.7024 52.8967C81.8611 52.9353 81.9913 52.7733 82.0205 52.6189ZM25.8559 32.1931C25.8851 32.0387 25.8709 31.9384 25.6979 31.7994C25.6403 31.7531 25.5684 31.6064 25.424 31.6681C25.2795 31.7298 25.2937 31.8301 25.2645 31.9845C25.2645 31.9845 25.3222 32.0308 25.2788 32.0849C25.5385 32.1158 25.7114 32.2548 25.8559 32.1931ZM88.5053 50.8071C88.3901 50.7145 88.3324 50.6682 88.2171 50.5755C88.1019 50.4828 88.015 50.5909 87.9282 50.6989C87.8848 50.7529 87.8414 50.8069 87.899 50.8533C87.9132 50.9536 88.1296 51.0386 88.173 50.9846C88.274 50.9769 88.3609 50.8689 88.5053 50.8071ZM81.399 80.66C81.6872 80.8917 81.9469 80.9226 82.1925 80.8532L82.2793 80.7452C82.2651 80.6449 82.2074 80.5985 82.164 80.6525C81.9043 80.6216 81.7022 80.637 81.399 80.66ZM80.3744 52.8962C80.4321 52.9426 80.3887 52.9966 80.4463 53.0429C80.5039 53.0892 80.6626 53.1279 80.7203 53.1742C80.8213 53.1665 80.8647 53.1125 80.8939 52.9582C80.8797 52.8578 80.8221 52.8115 80.7644 52.7652C80.6057 52.7265 80.4613 52.7882 80.3744 52.8962ZM84.5589 53.5922C84.6023 53.5382 84.5881 53.4379 84.5305 53.3916C84.3718 53.3529 84.2273 53.4146 84.0828 53.4763L84.0971 53.5767C84.1689 53.7233 84.4287 53.7543 84.5589 53.5922ZM21.9894 65.8059C22.0036 65.9063 21.9602 65.9603 22.0179 66.0066C22.0755 66.0529 22.1908 66.1456 22.2484 66.1919C22.4071 66.2306 22.5082 66.2229 22.5808 66.0145C22.4079 65.8755 22.1915 65.7905 21.9894 65.8059ZM20.7431 68.1828C20.8299 68.0748 20.7581 67.9281 20.7004 67.8818C20.6428 67.8355 20.5851 67.7891 20.4841 67.7968C20.4407 67.8508 20.3688 67.7042 20.3254 67.7582C20.2243 67.7659 20.2385 67.8662 20.2528 67.9665C20.4115 68.0052 20.5702 68.0438 20.7431 68.1828ZM82.0061 80.2588C82.179 80.3978 82.3377 80.4365 82.5398 80.4211C82.6409 80.4134 82.7419 80.4057 82.7711 80.2514C82.3961 80.1277 82.3961 80.1278 82.0061 80.2588ZM82.3705 71.6606C82.4708 72.0079 82.5284 72.0542 82.7305 72.0389C82.8316 72.0312 82.8608 71.8768 82.8031 71.8305C82.6736 71.6375 82.5726 71.6452 82.3705 71.6606ZM85.8106 55.5763C85.58 55.391 85.4213 55.3524 85.2334 55.4681C85.19 55.5221 85.1466 55.5761 85.2042 55.6224C85.2619 55.6687 85.3195 55.7151 85.3195 55.7151C85.5216 55.6997 85.6661 55.638 85.8106 55.5763ZM87.5627 80.5462C87.7356 80.6852 87.9235 80.5695 88.0103 80.4615C88.0537 80.4074 87.9819 80.2608 87.8808 80.2685C87.7221 80.2298 87.5777 80.2915 87.5342 80.3455C87.5485 80.4459 87.5627 80.5462 87.5627 80.5462ZM25.817 71.5497C26.0191 71.5343 26.0625 71.4803 25.9906 71.3337C25.9764 71.2333 25.8611 71.1406 25.76 71.1483C25.76 71.1483 25.659 71.156 25.6156 71.21C25.7309 71.3027 25.8027 71.4494 25.817 71.5497ZM24.5512 34.8787C24.4359 34.786 24.4217 34.6857 24.364 34.6394C24.3064 34.593 24.2054 34.6007 24.1619 34.6548C24.1185 34.7088 24.1185 34.7088 24.0751 34.7628C24.0893 34.8631 24.147 34.9095 24.248 34.9018C24.3057 34.9481 24.4067 34.9404 24.5512 34.8787ZM91.8701 50.0441C91.7548 49.9514 91.6538 49.9591 91.567 50.0671L91.5812 50.1675C91.6965 50.2602 91.7975 50.2525 91.8844 50.1444C91.9278 50.0904 91.8701 50.0441 91.8701 50.0441ZM86.9232 68.8293C86.8513 68.6826 86.7937 68.6363 86.6926 68.644C86.5916 68.6517 86.5482 68.7057 86.6058 68.7521C86.6635 68.7984 86.6777 68.8987 86.6777 68.8987C86.7787 68.891 86.8798 68.8833 86.9232 68.8293ZM22.5421 36.1979C22.5421 36.1979 22.5278 36.0976 22.5421 36.1979C22.5278 36.0976 22.4702 36.0513 22.4126 36.0049C22.3549 35.9586 22.2973 35.9123 22.2104 36.0203L22.167 36.0743C22.2247 36.1206 22.2823 36.167 22.3399 36.2133C22.3399 36.2133 22.3976 36.2596 22.441 36.2056C22.4987 36.2519 22.4986 36.2519 22.5421 36.1979ZM83.7128 78.6076C83.8715 78.6463 84.0301 78.6849 84.117 78.5769C83.9875 78.3839 83.9875 78.3839 83.7128 78.6076ZM81.1474 35.2906C81.2918 35.2289 81.3353 35.1749 81.3787 35.1209C81.3068 34.9742 81.2058 34.9819 81.0613 35.0436C81.1189 35.0899 81.0755 35.1439 81.1474 35.2906ZM91.0797 55.277C91.0797 55.277 91.1374 55.3233 91.094 55.3773C91.1374 55.3233 91.195 55.3697 91.2384 55.3156C91.3395 55.308 91.3971 55.3543 91.4263 55.1999L91.4121 55.0996C91.3545 55.0532 91.2534 55.0609 91.1523 55.0686C91.1666 55.1689 91.1232 55.223 91.0797 55.277ZM59.2032 78.646C59.275 78.7927 59.3327 78.839 59.4337 78.8314C59.5348 78.8237 59.6358 78.816 59.564 78.6693C59.4487 78.5767 59.29 78.538 59.2032 78.646ZM24.1588 29.2286C24.2883 29.4217 24.4328 29.3599 24.5915 29.3986C24.4186 29.2596 24.361 29.2133 24.1588 29.2286ZM81.0419 78.8615L81.0561 78.9618C81.1138 79.0082 81.1714 79.0545 81.2724 79.0468C81.2724 79.0468 81.3159 78.9928 81.2582 78.9465C81.244 78.8461 81.1863 78.7998 81.0419 78.8615ZM20.5337 37.1621C20.476 37.1158 20.5194 37.0617 20.5194 37.0617C20.5194 37.0617 20.4618 37.0154 20.4184 37.0694L20.375 37.1234C20.4326 37.1698 20.4326 37.1698 20.5337 37.1621ZM23.5661 36.5765C23.6095 36.5225 23.6672 36.5688 23.7106 36.5148L23.6964 36.4144C23.6387 36.3681 23.5953 36.4221 23.5953 36.4221C23.5519 36.4761 23.5519 36.4761 23.5661 36.5765ZM84.7385 50.5358C84.6375 50.5435 84.5364 50.5511 84.493 50.6052C84.493 50.6052 84.5072 50.7055 84.4638 50.7595C84.5214 50.8059 84.5649 50.7518 84.5649 50.7518C84.6517 50.6438 84.6951 50.5898 84.7385 50.5358ZM23.3841 68.4384L23.4275 68.3844L23.3264 68.392C23.3264 68.392 23.283 68.4461 23.3841 68.4384C23.3406 68.4924 23.3841 68.4384 23.3841 68.4384ZM88.8774 52.351C88.8632 52.2506 88.8632 52.2506 88.8632 52.2506L88.7621 52.2583C88.7621 52.2583 88.7187 52.3123 88.7763 52.3586C88.7763 52.3586 88.7763 52.3586 88.8774 52.351ZM81.2769 76.9165L81.3203 76.8625C81.3203 76.8625 81.2627 76.8161 81.2192 76.8702C81.2192 76.8702 81.1758 76.9242 81.2769 76.9165C81.2335 76.9705 81.2769 76.9165 81.2769 76.9165ZM23.2403 68.145C23.2837 68.091 23.2837 68.091 23.2403 68.145C23.2837 68.091 23.2837 68.091 23.2837 68.091C23.2261 68.0447 23.2261 68.0447 23.2403 68.145C23.2261 68.0447 23.2837 68.091 23.2403 68.145ZM25.9503 35.3809C25.9937 35.3269 25.9937 35.3269 25.9503 35.3809C25.9937 35.3269 25.9937 35.3269 25.9503 35.3809ZM36.3972 30.1742C36.3972 30.1742 36.3395 30.1279 36.383 30.0739L36.3395 30.1279C36.2961 30.1819 36.3395 30.1279 36.3972 30.1742ZM25.3155 35.2263C25.3589 35.1723 25.3589 35.1723 25.3155 35.2263C25.2578 35.18 25.2578 35.18 25.2578 35.18L25.3155 35.2263ZM25.0991 35.1413C25.0415 35.095 25.0415 35.095 25.0991 35.1413C25.0415 35.095 25.0415 35.095 25.0991 35.1413C25.0415 35.095 25.0415 35.095 25.0991 35.1413ZM83.9877 50.6436C84.0311 50.5896 84.0311 50.5896 83.9877 50.6436C83.9301 50.5973 83.9301 50.5973 83.9301 50.5973C83.9301 50.5973 83.9301 50.5973 83.9877 50.6436ZM86.0108 35.7321C86.0108 35.7321 86.0542 35.6781 86.0108 35.7321V35.7321ZM36.1082 30.2976C36.0506 30.2513 36.0506 30.2513 36.1082 30.2976C36.0506 30.2513 36.0506 30.2513 36.1082 30.2976C36.0506 30.2513 36.0072 30.3053 36.1082 30.2976C36.0072 30.3053 36.1082 30.2976 36.1082 30.2976Z" fill="#00133F"/>
</svg>
