<svg viewBox="0 0 375 170" xmlns="http://www.w3.org/2000/svg">
<path d="M89.9044 -309.814C94.5913 -304.323 95.832 -296.799 95.3677 -288.828C108.398 -283.361 130.374 -290.039 141.342 -296.076C167.182 -310.298 176.343 -331.878 188.957 -356.484C201.224 -380.416 197.135 -409.861 213.393 -432.338C254.936 -489.769 356.559 -467.768 409.401 -446.576C491.412 -413.686 553.302 -340.231 561.816 -251.145C570.368 -161.665 510.899 -88.843 442.867 -39.259C359.392 21.5799 256.239 37.5216 156.386 12.3462C99.45 -2.00891 37.7575 -25.3842 -0.317805 -72.3426C-53.9852 -138.531 -3.10965 -217.306 43.8721 -271.507C48.2846 -276.597 81.6874 -319.442 89.9044 -309.814Z"/>
</svg>
