<svg viewBox="0 0 375 315" xmlns="http://www.w3.org/2000/svg">
<path d="M404.397 -267.896C412.796 -254.912 412.999 -256.015 422.428 -240.88L425.096 -236.337C432.76 -222.142 438.249 -213.339 449.89 -197.912C461.722 -179.064 466.286 -164.533 470.21 -145.558L470.525 -144.034C479.332 -101.456 487.916 -59.9564 483.333 -18.4371C479.5 16.2863 465.678 50.188 455.368 82.687C444.343 117.444 423.166 158.118 395.901 182.699C338.582 234.377 233.993 226.004 153.547 195.943C95.5067 174.255 42.732 138.185 -8.1341 102.592C-46.3905 75.8229 -83.9347 46.6495 -116.548 13.7429C-186.977 -57.3212 -209.394 -151.025 -214.734 -236.433C-219.452 -311.888 -206.244 -380.738 -159.948 -435.925C-119.58 -484.044 -58.1803 -505.72 11.1554 -510.536C51.0861 -513.309 92.1822 -513.271 133.232 -509.849C147.339 -508.673 161.88 -508.086 175.25 -500.727C247.776 -460.81 310.893 -387.093 362.944 -327.154C379.847 -307.689 390.984 -288.628 404.397 -267.896Z"/>
</svg>
