<svg viewBox="0 0 375 208" xmlns="http://www.w3.org/2000/svg">
<path d="M316.712 -222.173C327.595 -217.08 327.265 -217.911 339.717 -211.816L343.349 -209.916C354.262 -203.687 361.507 -200.144 375.515 -194.814C391.08 -187.263 400.123 -179.459 410.611 -168.385L411.454 -167.495C434.99 -142.645 457.931 -118.425 472.34 -88.4665C484.39 -63.4117 489.618 -34.5674 496.536 -8.19519C503.935 20.0091 507.229 56.6125 499.836 85.0231C484.294 144.751 412.955 184.583 348.195 199.31C301.472 209.935 252.144 208.584 204.254 206.725C168.235 205.326 131.672 201.999 96.7441 194.013C21.3153 176.767 -32.4508 123.398 -71.669 68.192C-106.317 19.42 -126.573 -32.6972 -119.65 -89.9966C-113.613 -139.958 -82.8643 -181.252 -39.9111 -214.641C-15.1742 -233.869 11.4958 -251.71 39.5524 -267.252C49.1939 -272.593 58.8707 -278.519 70.6229 -279.376C134.372 -284.02 206.169 -261.808 265.02 -244.066C284.131 -238.304 299.334 -230.307 316.712 -222.173Z"/>
</svg>
