<svg viewBox="0 0 70 120" xmlns="http://www.w3.org/2000/svg">
<path d="M74.3238 4.89112C79.5655 7.82457 84.1488 11.22 88.187 15.6664C88.4357 16.023 88.6409 16.4943 88.7123 16.6854C89.5485 17.7316 89.7213 17.6496 90.2818 18.4913C90.7804 19.24 91.2386 20.011 91.6492 20.7919C92.1956 21.8311 92.2197 22.6529 92.522 23.777C93.2237 26.3859 94.4315 28.4116 95.7805 30.7372C96.8726 32.6198 98.5076 33.9307 100.348 35.0473C102.055 36.0828 104.251 36.2748 105.789 37.5373C114.817 44.948 118.056 56.6979 121.18 67.3877C123.752 76.1893 124.051 85.4252 121.383 94.2968C119.585 100.277 114.196 105.031 109.542 108.858C103.714 113.65 97.0259 116.453 89.6854 118.075C83.8562 119.363 78.0548 119.678 72.0981 119.488C64.7125 119.252 57.1758 118.725 49.9285 117.216C36.6228 114.446 24.7294 107.962 14.6521 98.9418C6.39679 91.5523 0.125897 83.2781 0.00327135 71.7707C-0.141529 58.1824 4.43839 43.2058 12.6155 32.3244C19.5795 23.0573 29.5031 15.4095 39.1201 9.07018C44.6382 5.43276 51.3605 0.514783 58.2057 0.0422399C63.9855 -0.356758 69.3952 2.13293 74.3238 4.89112Z"/>
</svg>
