<svg viewBox="0 0 95 137" xmlns="http://www.w3.org/2000/svg">
<path d="M44.943 16.1885C42.3314 17.6144 42.4107 17.3819 39.4227 19.0881L38.5512 19.6201C35.9323 21.3638 34.1937 22.3557 30.8322 23.8479C27.0972 25.9618 24.9272 28.1464 22.4103 31.2467L22.208 31.4958C16.56 38.4525 11.055 45.233 7.5974 53.6198C4.70567 60.6338 3.45125 68.7088 1.791 76.0917C0.0154266 83.9874 -0.774796 94.2346 0.999237 102.188C4.72879 118.909 21.8477 130.06 37.3881 134.183C48.6001 137.157 60.4373 136.779 71.9295 136.258C80.5728 135.867 89.3468 134.935 97.7283 132.7C115.829 127.872 128.731 112.931 138.142 97.4762C146.456 83.8225 151.317 69.2323 149.656 53.1914C148.207 39.2047 140.829 27.6444 130.521 18.2973C124.585 12.9143 118.185 7.91973 111.453 3.56867C109.139 2.07345 106.817 0.414531 103.997 0.174816C88.6988 -1.12551 71.47 5.09276 57.3476 10.0598C52.7614 11.6728 49.1133 13.9116 44.943 16.1885Z" />
</svg>
