<!--
  - Copyright (c) TIKI Inc.
  - MIT license. See LICENSE file in root directory.
  -->

<svg viewBox="0 0 339 76" xmlns="http://www.w3.org/2000/svg">
  <path fill-rule="evenodd" clip-rule="evenodd"
        d="M105.619 11.8144C104.376 7.19526 100.734 3.55322 96.1145 2.30959C87.6756 0 53.9201 0 53.9201 0C53.9201 0 20.1645 0 11.7256 2.22076C7.19526 3.46439 3.46439 7.19526 2.22076 11.8144C0 20.2533 0 37.7529 0 37.7529C0 37.7529 0 55.3414 2.22076 63.6914C3.46439 68.3106 7.10643 71.9526 11.7256 73.1963C20.2533 75.5059 53.9201 75.5059 53.9201 75.5059C53.9201 75.5059 87.6756 75.5059 96.1145 73.2851C100.734 72.0415 104.376 68.3994 105.619 63.7802C107.84 55.3414 107.84 37.8418 107.84 37.8418C107.84 37.8418 107.929 20.2533 105.619 11.8144ZM43.1719 53.9202L71.2423 37.7531L43.1719 21.5859V53.9202Z"/>
  <path fill-rule="evenodd" clip-rule="evenodd"
        d="M301.401 23.8946C302.823 25.2271 303.889 27.359 304.51 30.3793C305.132 33.3107 305.399 37.4857 305.488 42.9044V50.3661C305.488 57.3837 304.599 62.6247 302.912 65.9114C301.224 69.1982 298.648 70.8859 295.006 70.8859C292.963 70.8859 291.186 70.353 289.498 69.4647C287.81 68.4875 286.567 67.2439 285.767 65.6449H285.501L284.435 70.0865H275.641V2.93066H285.945V27.892H286.034C286.922 26.1154 288.255 24.6053 289.942 23.5393C291.63 22.3845 293.496 21.8515 295.45 21.8515C297.937 21.8515 299.98 22.5622 301.401 23.8946ZM294.295 57.739C294.562 55.7848 294.739 53.1199 294.739 49.6555H294.828V43.4373C294.828 39.7953 294.739 36.9527 294.473 34.9096C294.206 32.9553 293.851 31.5341 293.229 30.6458C292.696 29.8463 291.808 29.4021 290.742 29.4021C289.765 29.4021 288.788 29.8463 287.899 30.6458C287.011 31.5341 286.389 32.6 286.034 33.8437V60.6704C286.478 61.4699 287.1 62.0917 287.81 62.5359C288.521 62.98 289.321 63.1577 290.209 63.1577C291.275 63.1577 292.163 62.7135 292.874 61.9141C293.496 61.1146 294.029 59.6933 294.295 57.739Z"/>
  <path
    d="M118.588 5.3291L130.669 49.1225H130.758V70.0865H141.24V49.1225L153.498 5.3291H142.927L138.486 25.2271C137.242 31.0899 136.443 35.1761 136.087 37.6634H135.821C135.288 34.199 134.489 30.024 133.423 25.1383L129.159 5.3291H118.588Z"/>
  <path fill-rule="evenodd" clip-rule="evenodd"
        d="M320.854 59.2501C320.676 57.74 320.588 55.4304 320.588 52.4102V49.8341H338.442V41.7505C338.442 36.776 338.087 32.8675 337.288 30.0249C336.488 27.2712 335.156 25.1392 333.201 23.8068C331.247 22.4743 328.405 21.7637 324.763 21.7637C319.522 21.7637 315.791 23.3626 313.57 26.6493C311.349 29.9361 310.283 35.0882 310.283 42.1947V50.4559C310.283 57.3847 311.349 62.448 313.481 65.7347C315.613 69.0215 319.255 70.7092 324.496 70.7092C328.849 70.7092 332.224 69.6433 334.623 67.5113C337.021 65.3794 338.176 62.0927 338.176 57.74C338.176 57.0294 338.176 56.4964 338.087 56.0522L328.938 55.5192C328.849 58.4506 328.582 60.4937 327.96 61.7374C327.339 62.981 326.273 63.6028 324.674 63.6028C323.43 63.6028 322.542 63.2475 322.009 62.5368C321.387 61.915 321.032 60.7602 320.854 59.2501ZM320.854 33.4005C321.032 31.8903 321.387 30.8244 321.92 30.1137C322.453 29.4031 323.252 29.0478 324.496 29.1366C325.562 29.1366 326.45 29.4919 326.983 30.1137C327.516 30.7355 327.96 31.8015 328.138 33.4005C328.316 34.9994 328.405 37.309 328.405 40.3292V43.7048H320.588V40.3292C320.588 37.2202 320.676 34.9106 320.854 33.4005Z"/>
  <path fill-rule="evenodd" clip-rule="evenodd"
        d="M156.609 68.7541C154.477 67.3328 152.967 65.112 152.079 62.003C151.19 58.9827 150.746 54.8965 150.746 49.922V43.0821C150.746 38.0187 151.279 33.9325 152.256 30.8235C153.322 27.7144 154.921 25.4936 157.053 24.0724C159.274 22.6511 162.116 21.9404 165.67 21.9404C169.134 21.9404 171.977 22.6511 174.108 24.0724C176.24 25.4936 177.751 27.8032 178.728 30.8235C179.705 33.8437 180.238 37.9299 180.238 43.0821V49.922C180.238 54.9853 179.794 58.9827 178.816 62.0918C177.839 65.112 176.329 67.4216 174.197 68.8429C172.065 70.2642 169.134 70.9748 165.492 70.9748C161.761 70.886 158.741 70.1754 156.609 68.7541ZM168.601 61.2923C169.223 59.7822 169.489 57.2061 169.489 53.7417V38.9959C169.489 35.6203 169.223 33.1331 168.601 31.5341C167.979 29.9352 167.002 29.2245 165.492 29.2245C164.071 29.2245 163.005 30.024 162.472 31.5341C161.85 33.1331 161.583 35.6203 161.583 38.9959V53.7417C161.583 57.2061 161.85 59.7822 162.472 61.2923C163.005 62.8024 164.071 63.6019 165.581 63.6019C167.002 63.6019 167.979 62.8913 168.601 61.2923Z"/>
  <path
    d="M214.614 70.1757V22.8291H203.954V60.4044C203.599 61.2927 202.977 62.0033 202.089 62.5363C201.201 63.1581 200.312 63.4246 199.424 63.4246C198.358 63.4246 197.559 62.9805 197.114 62.0921C196.67 61.2038 196.404 59.6937 196.404 57.5618V22.8291H185.744V58.1836C185.744 62.6251 186.455 65.823 187.965 67.8661C189.475 69.9092 191.785 70.9752 194.894 70.9752C199.424 70.9752 202.888 68.7544 205.109 64.4017H205.376L206.264 70.1757H214.614Z"/>
  <path
    d="M269.245 70.1757V22.8291H258.585V60.4044C258.23 61.2927 257.608 62.0033 256.72 62.5363C255.831 63.1581 254.943 63.4246 254.055 63.4246C252.989 63.4246 252.189 62.9805 251.745 62.0921C251.301 61.2038 251.035 59.6937 251.035 57.5618V22.8291H240.375V58.1836C240.375 62.6251 241.086 65.823 242.596 67.8661C244.106 69.9092 246.415 70.9752 249.525 70.9752C254.055 70.9752 257.519 68.7544 259.74 64.4017H260.007L260.895 70.1757H269.245Z"/>
  <path d="M233.001 13.9457H243.572V5.3291H212.037V13.9457H222.608V70.0865H233.001V13.9457Z" />
</svg>
