<svg viewBox="0 0 83 117" xmlns="http://www.w3.org/2000/svg">
<path d="M22.0952 53.6585L22.1473 53.6857C22.1401 53.6546 22.1434 53.6408 22.1329 53.6236L22.0952 53.6585Z" class="pineapple"/>
<path d="M17.8358 62.7939C16.8916 63.4907 16.1437 64.4692 15.5549 65.4566C15.143 66.1346 14.6839 66.9479 14.5081 67.7412C14.4322 68.1188 14.2004 70.6723 15.1329 69.4743C15.6624 68.7952 15.5915 66.77 16.1043 65.7937C16.6748 64.6993 17.4538 63.7136 18.3935 62.9131C18.1989 62.4413 18.0248 61.9451 17.9095 61.4484C18.3281 61.4755 19.53 61.3536 19.4851 61.3575C17.9422 61.251 17.0353 60.7548 17.8358 62.7939Z" class="pineapple"/>
<path d="M13.1641 70.7758C13.2401 70.7647 13.3128 70.7675 13.3855 70.7703C13.3744 70.6943 13.3633 70.6182 13.3384 70.5389L13.1641 70.7758Z" class="pineapple"/>
<path d="M14.4729 71.002C14.7767 70.9576 13.8143 70.8146 13.6585 70.7918C13.6402 70.6848 13.6325 70.595 13.628 70.4913L13.4129 70.7768L13.2045 71.0346C13.2771 71.0374 13.3497 71.0402 13.4257 71.0291C13.404 71.6689 13.8691 72.2349 13.7849 72.8303C13.72 73.2838 13.2609 73.7307 13.134 74.1986C13.2892 74.1625 13.5071 74.1709 13.7288 74.2241C14.2733 72.5665 13.9623 72.5798 13.6951 71.0058C13.9473 70.9931 14.2135 70.9837 14.4729 71.002Z" class="pineapple"/>
<path d="M13.2687 77.8512C13.2172 77.5164 13.1761 77.1987 13.1495 76.9431C13.149 77.2508 13.17 77.6516 13.2687 77.8512Z" class="pineapple"/>
<path d="M13.7129 80.6407C13.9319 80.7666 14.0439 80.5442 13.9917 80.5171C13.8287 80.4633 13.6691 80.3956 13.5061 80.3419C13.429 80.2354 13.3309 80.0946 13.2882 79.9671C13.5322 79.8058 13.3842 78.7735 13.2545 77.8482C13.1558 77.6486 13.1453 77.265 13.1353 76.9401C13.1126 76.7294 13.1076 76.567 13.1309 76.4699C13.1347 76.5149 13.1297 76.7189 13.1353 76.9401C13.1619 77.1957 13.2029 77.5133 13.2545 77.8482C13.3038 77.948 13.3664 77.9923 13.4596 77.9707C13.8111 77.8499 13.5938 76.8009 13.5117 76.532C14.0495 77.1009 14.1177 77.7329 14.3455 78.4325C14.1105 77.7018 14.1099 76.9102 13.4968 76.0447C13.4923 75.9411 13.4569 75.8446 13.4491 75.7548L13.3321 75.8147C13.3111 75.7803 13.29 75.7459 13.2689 75.7115C13.2845 75.5247 13.3449 75.334 13.3881 75.1538C13.1797 75.0451 13.0156 74.8738 12.9346 74.7225C12.9008 74.8023 12.867 74.8821 12.847 74.9653C12.6219 75.6589 11.6372 79.7614 12.9434 80.0602L12.8408 80.1822C12.9134 80.185 12.9861 80.1877 13.0554 80.2044L12.8469 80.4622C12.975 80.4782 13.103 80.4943 13.245 80.5137C13.74 81.688 12.6744 82.341 12.5436 83.4969C12.5608 83.4864 12.5746 83.4897 12.5918 83.4792C12.7792 83.5535 12.9422 83.6073 13.1085 83.6472C13.2105 82.7335 14.2739 81.479 13.7129 80.6407Z" class="pineapple"/>
<path d="M12.4585 83.975C12.2655 84.7788 13.0498 90.2441 13.7279 89.1902C13.5854 89.112 13.4429 89.0339 13.2833 88.9662C13.4291 89.0305 13.5716 89.1087 13.7279 89.1902C14.2662 88.352 12.6996 85.3521 13.05 84.0143C12.8421 83.9644 12.6414 83.9456 12.4585 83.975Z" class="pineapple"/>
<path d="M14.8713 94.9907C14.6773 94.5776 14.5104 94.1125 14.399 93.6607C14.9678 93.8558 14.7261 94.6187 15.0892 94.999C15.6669 95.035 15.3564 94.3742 15.1741 94.0959C15.1696 93.9922 15.1131 93.8614 15.026 93.7965C14.9689 93.6069 14.7694 93.3391 14.6297 93.1883L14.4966 93.3763C14.4412 93.3629 14.3857 93.3496 14.3336 93.3225C14.3685 93.3602 14.4173 93.4012 14.4489 93.4528L14.3602 93.5781C14.1401 92.6018 14.4939 90.5172 13.6174 89.955C13.8148 89.9878 13.9146 89.9384 13.8957 89.7727C13.766 89.5803 13.5725 89.5925 13.3291 89.8126C13.2632 89.7821 13.1939 89.7654 13.1312 89.7211C13.1417 89.7383 13.1456 89.7832 13.1495 89.8281C13.0736 89.8392 12.9837 89.8469 12.9111 89.8441C12.9704 89.9024 13.0297 89.9606 13.0924 90.0049C13.0037 90.1302 13.007 90.1164 13.155 90.0493C14.0493 90.6597 13.5885 92.0296 13.6839 92.976C13.7531 93.7255 13.9394 94.4152 14.1878 95.0904C14.394 94.964 14.6252 94.9169 14.8713 94.9907Z" class="pineapple"/>
<path d="M15.009 95.2729C14.7191 95.3205 14.4557 95.2573 14.2123 95.111C14.4463 95.7241 14.7318 96.3057 15.0727 96.9006C15.422 96.9111 15.7779 96.8939 16.1266 96.8457C15.7242 96.324 15.305 95.8716 15.009 95.2729Z" class="pineapple"/>
<path d="M12.9009 89.8267C12.877 89.8651 12.8909 89.8684 12.922 89.8612C12.9148 89.8301 12.9148 89.8301 12.9009 89.8267Z" class="pineapple"/>
<path d="M13.1071 89.7007C13.1071 89.7007 13.1321 89.7217 13.1463 89.7251C13.1497 89.7109 13.1355 89.7075 13.1071 89.7007Z" class="pineapple"/>
<path d="M19.8703 101.951C18.9638 101.147 18.4011 100.133 17.8656 99.0662C18.6329 99.778 18.8979 100.384 19.9158 100.174C21.0545 99.9488 22.5038 97.453 20.6631 98.4037C20.0439 98.7241 19.9623 99.6134 19.2461 99.5441C18.343 99.4592 17.4632 97.8115 16.891 97.2638C16.9165 97.4018 16.9282 97.5366 16.9121 97.6646C17.1083 97.9463 17.2358 98.27 17.4149 98.5622C17.151 98.4402 16.7297 98.4857 16.544 98.2212C16.4475 98.2567 16.3893 98.316 16.3521 98.4097C17.3827 99.5512 18.0835 100.907 19.1734 102.107C19.4284 102.388 22.6649 105.026 22.0329 103.262C21.9015 102.893 20.1596 102.211 19.8703 101.951Z" class="pineapple"/>
<path d="M51.5684 91.6618C50.3842 92.5649 48.9755 90.9221 48.5925 89.8921C48.394 89.3754 48.6707 88.6502 48.4417 88.1995C48.1423 87.6146 47.7399 87.0929 47.5403 88.2909C45.3548 90.0677 42.9663 93.7893 40.1279 90.836C39.3423 90.0171 38.8884 86.5954 38.299 86.4246C38.477 86.2328 38.309 86.0166 38.2442 86.1036C38.1588 86.215 38.0767 86.3126 37.9914 86.424C37.8949 86.4595 37.8162 86.5432 37.7896 86.6541C36.1668 88.3461 34.4176 91.2977 32.1335 89.2103C30.8956 88.0776 30.4139 86.1151 29.8739 84.5783C29.742 84.5173 29.6998 84.4485 29.7858 84.3958C29.4193 84.0294 29.0822 84.5788 29.1332 84.8549C27.7045 85.8605 25.8306 88.0492 23.9462 86.9226C22.9589 86.3339 22.057 82.3355 21.2886 82.6055C20.024 83.0495 23.169 87.3517 23.9324 87.6522C26.3684 88.6181 27.399 86.095 29.1876 85.1171C29.5285 86.8114 30.696 89.2757 32.2261 90.2293C34.4969 91.6392 35.415 89.6461 36.6979 88.2097C36.6597 88.1859 36.6214 88.162 36.597 88.1415C36.6386 88.1515 36.6974 88.151 36.7389 88.1609C37.0777 87.7878 37.4441 87.4214 37.7724 87.0311C37.7524 87.4807 37.7851 88.0163 37.9309 88.447C38.0944 88.5596 38.1892 88.7143 38.3406 88.9998C38.2818 89.0003 38.2125 88.9837 38.1537 88.9843C38.7552 90.4479 39.7481 91.9908 41.3808 92.456C44.2199 93.2693 45.8205 90.3261 47.5192 88.623C47.4393 90.4215 49.9567 93.7962 51.88 92.0737C51.8107 92.0571 51.7414 92.0404 51.686 92.0271C51.702 91.8991 51.6593 91.7715 51.5684 91.6618Z" class="pineapple"/>
<path d="M47.5053 84.5299C46.9004 83.813 45.6315 80.4888 44.8692 80.3058C43.3274 79.9504 46.5861 84.5731 46.9913 85.0222C48.7276 86.9487 49.9047 86.0146 51.207 84.0698C51.1931 84.0665 50.9852 84.0166 50.9121 83.955C49.8276 85.1752 48.879 86.1349 47.5053 84.5299Z" class="pineapple"/>
<path d="M57.7381 80.4339C57.6428 80.587 58.7072 81.2822 58.9644 81.4319C58.4932 82.0517 57.6283 82.3571 57.2336 83.0246C56.8355 83.706 57.0384 84.6928 56.7723 85.4351C55.0968 86.6747 53.8911 85.2859 53.6267 83.6394C53.5679 83.2735 53.7863 82.6076 53.6799 82.3182C53.4986 81.791 53.0041 80.6755 52.7474 82.0504C52.539 82.3082 52.2922 82.5422 52.0245 82.7418C51.6475 83.091 51.2849 83.5024 50.9428 83.8893C51.057 83.9021 51.1712 83.9148 51.2887 83.9137C51.6951 83.381 52.2401 82.8815 52.7092 82.3931C52.9347 84.3235 53.9232 87.595 56.5111 85.9735C56.0188 87.2918 55.0735 88.2376 54.1499 89.2765C54.0113 89.2432 53.3349 89.0076 53.3338 89.2565C53.3393 89.4777 53.9264 89.4134 54.0617 89.4606C54.0589 89.5332 54.0977 89.6158 54.1537 89.6879C53.5655 90.0011 52.9074 90.6054 52.3441 90.9979C52.4073 91.101 52.5155 91.2002 52.6374 91.3028C52.9279 90.9474 54.2873 90.2916 54.3317 89.8625C54.4775 89.9268 54.6017 89.898 54.6976 89.8038C54.8018 89.8581 54.8922 89.9091 54.9964 89.9634C53.673 91.1409 53.8366 90.887 53.4207 92.6195C53.0847 94.0193 52.2964 95.1054 51.2164 96.0628C51.2918 95.6265 51.2863 94.3059 50.8827 94.3996C49.7406 94.6385 50.7257 95.7252 50.9281 96.2868C50.698 96.4514 49.5787 97.2675 49.6125 97.5541C49.6313 97.7199 49.7305 98.3447 50.1048 98.068C51.4691 99.4069 49.0115 98.7144 48.7287 99.8925C48.5036 99.8532 46.5621 100.003 46.6048 100.13C46.4113 100.143 45.6163 100.157 45.7061 100.516C45.7782 100.826 48.0146 100.425 48.4127 100.476C47.2783 102.271 45.8585 102.384 44.1255 103.376C44.136 103.393 44.1327 103.407 44.1432 103.424L44.1571 103.427L44.1676 103.444C44.1537 103.441 44.1537 103.441 44.1399 103.438C44.1399 103.438 44.1399 103.438 44.1432 103.424C44.1155 103.417 44.0878 103.411 44.0567 103.418C43.7335 103.604 43.0011 103.663 43.3626 104.233C42.3591 104.139 41.3662 102.23 41.0358 102.385C39.8239 102.915 42.46 105.307 43.9646 104.656C43.8526 105.612 42.2371 105.136 41.696 105.314C40.8689 105.584 40.2319 106.223 39.3176 106.429C38.8037 106.554 34.5897 106.217 36.1204 107.23C37.1466 107.901 39.7356 107.13 40.6404 106.658C41.1771 106.377 41.6822 105.677 42.1883 105.461C42.8425 105.179 44.1049 105.965 44.1814 104.547C46.1861 103.401 47.8022 102.47 49.0281 100.477C49.0419 100.481 49.0419 100.481 49.0591 100.47L49.0586 100.411C49.6219 99.286 51.5018 99.2096 50.28 97.9488C51.9005 96.7547 53.577 94.8997 53.9485 92.8634C54.0145 92.5275 53.8272 91.3538 53.9868 91.055C54.2452 90.5893 55.0596 90.433 55.4144 89.9318L54.9415 89.6424C56.2621 88.5375 57.0001 86.8677 57.4758 85.2522C57.5895 85.2062 57.6028 85.1508 57.519 85.072C57.8107 83.0019 57.8706 83.1189 59.3863 81.4452C59.1147 81.2334 57.8507 80.2704 57.7381 80.4339ZM42.1191 104.345C42.602 104.227 42.8542 104.214 43.2279 104.611C42.8642 104.539 42.4933 104.435 42.1191 104.345ZM44.4403 104.14C44.2352 104.018 43.8976 103.775 44.1615 103.531C44.4609 103.749 44.5873 103.956 44.4403 104.14Z" class="pineapple"/>
<path d="M50.8951 83.9676C50.916 83.9428 50.9368 83.918 50.9577 83.8932C50.9295 83.8865 50.912 83.8972 50.8838 83.8904C50.8489 83.9118 50.8703 83.9468 50.8951 83.9676Z" class="pineapple"/>
<path d="M43.6412 36.5051C43.8319 37.6649 44.1013 38.741 44.0536 39.9169C44.3752 39.9208 44.6829 39.9214 45.0077 39.9114C44.8398 38.9622 44.4767 37.1161 43.6412 36.5051Z" class="pineapple"/>
<path d="M40.8394 57.6442C39.1407 58.6144 38.6151 59.3384 37.3849 57.5626C36.733 56.6146 36.3904 55.477 35.8931 54.4341C36.3699 54.402 37.8513 53.8487 38.2188 53.5998C38.4284 53.4595 36.7186 53.6208 36.6044 53.6081C35.3731 53.5471 36.1193 53.8581 35.4518 53.0969C35.1863 52.7986 34.7761 50.7213 34.4301 52.5292C34.3774 52.8097 34.9911 54.1003 35.2173 54.2572C34.5853 54.6919 36.4613 57.5022 36.8776 58.0272C38.3262 59.87 39.3607 59.5907 41.0844 57.9669C40.8898 57.8615 40.7989 57.7518 40.8394 57.6442Z" class="pineapple"/>
<path d="M43.7016 40.3458C43.568 40.4749 43.4654 40.5969 43.5087 40.7832C43.5364 40.7898 43.5641 40.7965 43.5918 40.8031C43.6079 40.6751 43.6412 40.5365 43.6988 40.4184C43.7022 40.4045 43.695 40.3735 43.7016 40.3458Z" class="pineapple"/>
<path d="M41.2527 36.5623C41.3275 36.8001 41.399 37.0518 41.4567 37.3002C41.4739 37.2896 41.4944 37.2652 41.5116 37.2547C41.796 36.9858 41.5898 36.7458 41.2527 36.5623Z" class="pineapple"/>
<path d="M58.0495 31.623L58.0461 31.6368C58.2047 31.5869 58.3527 31.5198 58.4869 31.4494C58.3422 31.5027 58.1975 31.5559 58.0495 31.623Z" class="pineapple"/>
<path d="M39.506 33.1522C39.5908 33.3485 39.6723 33.5586 39.7571 33.7549C34.8392 29.1444 25.1261 31.1372 25.1261 31.1372C31.459 31.0742 35.7111 33.2675 38.5457 36.1759C38.8013 36.1493 38.9942 36.0783 39.0724 35.9359C39.2005 35.9519 39.339 35.9852 39.4671 36.0013C39.476 36.2086 39.8458 36.5612 40.0426 36.1687C40.1119 36.1854 40.8115 36.324 41.2667 36.5652C40.9102 35.4242 40.4368 34.3431 39.506 33.1522Z" class="pineapple"/>
<path d="M46.0931 53.8334L46.0792 53.8301C46.2284 53.8805 46.3708 53.9587 46.4995 54.0336C46.388 53.9482 46.2422 53.8839 46.0931 53.8334Z" class="pineapple"/>
<path d="M55.64 40.0738C55.6572 40.0633 55.6882 40.0561 55.7021 40.0594C55.0246 40.0727 54.3338 40.1414 53.6264 40.2795C54.3272 40.1692 55.0008 40.111 55.64 40.0738Z" class="pineapple"/>
<path d="M73.1429 32.6805C73.052 32.5707 72.9611 32.4609 72.884 32.3545C72.9489 32.2674 73.0592 32.2353 73.1978 32.2685C69.0189 25.7393 59.5287 26.8035 54.1748 30.9713C57.7846 26.9859 61.8351 23.9124 65.7686 23.8304C65.7686 23.8304 59.7174 18.5668 51.8747 29.012C54.1234 25.5061 56.6515 23.4011 60.529 21.7812C62.7777 20.8405 67.78 18.9922 69.0767 22.3231C70.5232 16.9682 65.5825 16.911 61.5531 17.4536C61.7471 17.8667 60.9138 18.2237 61.0974 17.5202C56.9344 18.192 51.5217 20.8945 49.8218 25.0453C49.559 25.7737 47.9971 32.8306 47.9555 32.8207C47.2842 32.7475 48.9774 26.7922 49.1549 26.1751C50.0658 23.0517 50.3952 19.8473 49.9945 16.5702C49.6053 13.4279 48.4639 9.69452 45.7491 7.75295C43.6657 4.95153 36.7657 5.36217 36.7657 5.36217C38.5176 5.63608 39.9096 6.61518 41.0356 7.97016C41.2047 7.93745 41.5041 8.15589 41.3294 8.33385C41.7108 8.82118 42.0512 9.35729 42.3711 9.91779C42.5391 9.76755 42.8423 9.29799 43.1478 9.42994C43.277 9.56355 43.2537 9.66057 43.0641 9.71767C43.1456 9.92779 43.2132 10.1346 43.298 10.3308C43.1999 10.5565 43.007 10.6274 42.7192 10.5437C43.3424 11.734 43.8524 13.0291 44.2931 14.3076C44.3524 14.3658 44.3701 14.414 44.3463 14.4523C44.5276 14.9795 44.7055 15.5206 44.8624 16.0273C45.1368 16.1665 45.3497 16.3788 45.5044 16.6505C45.3591 16.6449 45.2 16.6361 45.0548 16.6305C46.403 21.0291 45.6755 25.2813 44.9779 29.7753C44.8266 27.6575 44.5184 25.7659 44.1049 24.0688C43.8449 23.9918 43.861 23.8637 44.019 23.755C44.019 23.755 44.019 23.755 44.0328 23.7584C42.4463 17.5435 39.3784 14.0807 36.8509 12.2134C36.4911 12.1857 35.93 12.0803 35.9705 11.6063C35.501 11.3031 35.0735 11.0685 34.681 10.8717C34.6062 11.0003 34.5036 11.1223 34.3905 11.2271C35.2204 11.9833 35.2952 12.5876 35.3579 13.3649C35.5292 13.5672 35.5375 13.7158 35.3933 13.8278C35.6949 16.8465 38.1985 18.752 39.2645 21.4558C39.3438 21.4309 39.4613 21.4298 39.5406 21.4048C40.054 21.5867 40.5563 21.6926 41.0502 21.6499C41.8352 22.0436 39.6132 21.7741 39.3637 21.7142C39.8921 23.1163 40.3228 24.8028 40.6997 26.6522C40.901 26.7299 41.1022 26.8075 41.3001 26.899C41.2613 27.1828 41.7802 27.5859 41.2081 27.771C41.11 27.6302 40.9808 27.4966 40.8344 27.3735C40.9985 28.2777 41.1559 29.2097 41.2928 30.166C41.6887 30.7155 43.7981 33.7137 43.2132 34.3795C43.1139 34.4876 41.7297 31.0331 41.3444 30.5009C41.3588 30.563 41.3594 30.6217 41.3738 30.6838C38.8015 26.6217 33.5558 23.1932 28.7836 22.3116C25.0642 21.624 22.1529 24.8977 20.518 27.862C24.7331 23.5528 33.3656 26.1232 37.3095 29.723C38.7149 31.0131 40.3991 33.6454 41.3698 35.4029C42.0661 36.6547 42.3782 38.2248 42.5988 39.6263C43.0035 39.6502 43.3644 39.7954 43.7591 39.8608C43.9366 38.8774 43.8185 37.3539 43.5192 36.4025C43.4393 36.3687 43.497 36.2506 43.5491 36.2778C43.594 36.2739 43.6217 36.2805 43.6117 36.3221C44.7255 37.1172 45.0343 38.7011 45.4157 39.9213C45.5886 39.9335 45.755 39.9734 45.8941 40.0655C45.8841 40.1071 45.888 40.152 45.878 40.1935C45.74 40.219 45.6019 40.2445 45.4672 40.2562C45.5709 41.3511 45.0774 41.4526 45.0597 40.305C44.7454 40.3321 44.4205 40.3421 44.0502 40.2972C44.0485 40.4873 44.0019 40.6814 43.9587 40.8615C44.0557 40.8848 44.1527 40.9081 44.2497 40.9314C44.2531 41.284 44.11 41.5135 43.8068 41.6166C43.7497 41.7935 43.6864 42.7897 43.3155 42.686C42.9862 42.5923 43.3039 41.8184 43.3644 41.6277C43.3366 41.6211 43.3056 41.6283 43.2779 41.6216C43.2058 41.3111 43.1199 40.9973 43.0478 40.6869C42.953 40.5322 42.8859 40.3842 42.8532 40.2151C42.7806 40.2123 42.7113 40.1957 42.6525 40.1962C42.6936 40.5139 42.3338 40.4862 42.2622 40.2345C41.3103 40.4751 41.1446 39.761 42.0976 39.6379C41.8337 38.783 41.6502 38.0207 41.4601 37.2862C40.8802 37.748 39.7875 36.9873 39.1671 36.8237C40.3169 38.1405 41.2483 39.3901 41.4755 41.1304C41.1529 40.6425 40.7709 40.0964 40.3196 39.5337C39.294 39.2875 38.3216 38.8196 37.3104 38.6355C38.0466 39.3545 38.4879 39.9588 38.234 40.1618C38.2135 40.1861 33.5361 35.4282 32.9978 35.1671C33.3765 35.3605 35.8762 37.2212 37.3104 38.6355C37.5139 38.5817 37.7079 38.6283 37.8853 38.7441C38.5284 38.7519 38.9675 38.7547 39.6156 38.9249C39.7237 39.0242 39.8523 39.099 40.0153 39.1528C36.5887 35.0468 30.0208 29.9817 23.6119 33.3539C23.6119 33.3539 35.1122 37.2284 38.9568 46.4331C35.1792 42.8732 28.3496 41.9522 28.3496 41.9522C29.0598 42.4745 29.7422 42.9901 30.3936 43.5129C30.5023 43.3044 30.729 43.1537 31.2202 43.1836C31.136 43.4126 30.9092 43.5634 30.4285 43.5506C33.1173 45.6618 35.3177 47.6704 37.0135 49.3381L35.9214 49.0027C35.9214 49.0027 31.6875 45.0841 29.3412 48.8745C29.3412 48.8745 30.4467 47.6886 32.0639 48.7071L32.3128 50.5405C31.7329 50.6358 30.6474 50.2727 30.0935 50.5648C30.5321 49.7759 29.5042 49.2947 29.3041 50.0675C28.7447 48.3062 23.5516 52.6592 23.1745 53.7414C23.2272 53.8273 23.2932 53.8578 23.3863 53.8362C24.5251 51.4124 27.0992 51.2533 29.2536 50.5831C29.2237 50.7078 29.2286 50.8703 29.2126 50.9983C28.9575 51.0837 28.9747 51.8061 28.9592 51.9929C28.1276 52.5262 26.6506 53.5496 25.7403 53.8002C24.9885 54.0009 22.955 53.5567 23.9474 54.6744C23.5726 54.5258 23.0553 54.2991 22.7282 54.074C22.6678 53.8982 22.6074 53.7225 22.5331 53.5434L22.2725 53.774L22.1683 53.7197C22.1722 53.7646 22.1899 53.8128 22.1938 53.8578L21.9676 54.0673C22.0785 54.0939 22.1894 54.1205 22.2936 54.1749C22.762 55.46 21.0728 55.5969 20.2905 56.5964C19.7577 57.2894 19.0547 58.264 18.9111 59.1677C18.8495 59.6073 18.9094 61.9231 19.7676 60.9124C19.9899 60.6579 19.7843 59.0108 19.9423 58.5357C20.1574 57.8837 20.6752 57.0699 21.1648 56.5571C21.7741 55.9118 23.2493 55.445 22.8596 54.4427C23.0714 54.5375 24.3881 55.22 24.4269 54.9361C26.0757 55.2732 27.7001 53.0246 29.0002 52.3106C29.365 53.9666 28.8166 56.3122 31.3569 55.8666C32.3232 55.6881 33.9016 54.7916 34.6849 54.2761C34.7082 54.1791 34.6694 54.0965 34.5757 54.0593C32.4673 55.2096 29.2185 56.4087 29.8584 52.7658C29.4393 52.6798 29.1682 52.5268 29.0362 52.0994C29.1394 51.6697 29.2392 51.2539 29.339 50.8381C29.477 50.8126 29.6045 50.7699 29.7426 50.7444C30.2277 50.8609 30.6989 50.974 31.1873 51.0766C31.5078 50.9629 32.025 50.8232 32.3538 50.8582L32.5844 52.5846C35.0682 49.0764 39.598 53.5937 41.3432 55.7277C41.3432 55.7277 41.657 55.2753 42.0706 54.7736C42.2619 55.2592 42.5856 56.2311 43.2154 56.2943C43.0707 56.3475 42.9194 56.4285 42.8961 56.5255C42.8007 56.312 41.5078 57.4236 41.2046 57.5267C41.367 57.5217 41.5367 57.5477 41.6925 57.5705C42.0633 57.3077 42.5923 56.9363 42.8828 56.5809C43.0901 57.6714 44.5742 59.9772 45.831 60.1763C47.1432 60.3886 48.2587 58.7948 49.2478 58.094C49.6281 59.1967 49.6081 60.3793 49.0342 61.4875C49.0342 61.4875 50.1314 61.2524 50.8222 60.4508C50.7008 60.407 50.5794 60.3632 50.4685 60.3366C50.4973 60.0943 50.4846 59.8421 50.3266 59.5843C50.6382 59.6297 50.9259 59.7135 51.2242 59.8144C51.7947 58.3535 50.6881 56.8566 49.9857 55.6913C49.8033 55.7794 49.637 55.7395 49.4973 55.5887C49.6171 55.4562 49.7413 55.4274 49.856 55.4989C48.8443 53.7902 48.551 53.1188 48.551 53.1188C48.551 53.1188 52.7068 53.1489 53.7063 55.7634C53.3332 56.1576 53.6115 56.3417 53.9048 56.6466C53.9325 57.0197 53.9191 57.4416 53.8232 57.9023C53.8232 57.9023 53.9884 57.4582 54.0722 56.8041C55.3245 57.6324 56.517 60.176 56.365 61.664C56.1178 61.4727 55.9553 61.4777 55.8639 61.6756C55.9038 61.8757 56.0496 61.94 56.3218 61.8441C56.2991 61.9999 56.5447 62.0149 56.5436 61.8974C57.1778 62.0643 57.8015 62.214 58.4252 62.3637C58.1308 62.6741 57.8397 62.9707 57.5559 63.2984C56.9865 62.678 55.7236 62.1989 54.8759 62.4939C55.3205 62.3514 56.7293 62.8947 57.1412 63.3161C56.7647 63.3577 54.2694 63.7994 55.1603 64.0573C55.6803 64.2114 56.9438 63.6498 57.5032 63.5789C58.2133 64.834 58.5626 65.944 58.2138 67.458C58.144 67.7491 56.484 71.0006 57.702 70.0177C59.3857 70.7589 59.3425 71.3056 58.0296 72.5003C58.7714 74.9064 58.3156 76.4387 57.5072 78.7073C57.3465 78.5221 54.5761 80.2318 54.0771 80.112C52.8541 79.8331 52.2848 77.7469 51.9472 76.7717C51.5985 75.7206 50.8673 73.6981 50.8013 75.8664C50.7708 77.0317 52.0148 79.1773 52.848 79.9196C53.449 79.8587 53.9552 80.0095 54.3665 80.3721C54.4791 80.575 53.7938 80.4985 53.6242 80.4724C54.8023 81.1216 56.4461 79.464 57.4402 78.9257C57.1762 79.9031 57.3486 80.223 58.0882 79.4624C58.5883 78.9668 58.845 77.5919 58.9526 76.8994C59.2115 75.3931 59.0708 74.0254 58.5802 72.5884C59.9313 71.0511 59.3713 70.6968 57.8562 69.8641C59.179 68.6278 59.6254 64.6306 58.0548 63.4181C58.4617 62.9441 58.8338 62.4324 59.1781 61.9141C58.2594 62.016 57.4311 61.8026 56.5208 61.6867C56.6268 59.7186 55.9189 56.8662 54.0761 55.7496C53.973 53.9805 52.9009 51.7296 48.2278 51.4728C48.4718 51.3115 48.7645 51.1912 49.1093 51.0981C48.9951 51.0853 47.078 50.5225 47.4251 50.298C47.872 50.0242 49.9531 50.7582 49.6859 51.0166C50.6362 50.9662 51.9285 51.2617 53.7119 52.3201C53.7119 52.3201 52.3725 50.3275 50.4239 49.3468C51.9701 49.4394 53.7087 49.7687 55.6269 50.449C55.7782 50.3681 56.1874 50.4956 56.2201 50.6647C56.5427 50.7861 56.8759 50.9247 57.2196 51.0805C57.2196 51.0805 55.5255 46.291 49.7088 46.8298C51.7523 46.1329 53.9488 46.2644 55.8958 46.7024C55.8576 46.6786 55.8193 46.6547 55.7777 46.6448C56.1154 46.1541 57.1022 46.3177 57.095 47.0196C59.9656 47.8845 62.0806 49.2716 62.0806 49.2716C58.629 45.4529 55.8 43.4986 53.491 42.7977C58.0343 40.297 63.9941 41.361 68.6532 43.0803C64.7586 39.9467 59.3439 37.2838 54.3587 39.1215C60.573 36.3769 66.612 37.0495 66.612 37.0495C63.4481 35.8796 60.69 35.2176 58.3022 34.967C58.3898 35.0906 58.4153 35.2287 58.4064 35.3878C58.3488 35.5059 58.305 35.6273 58.2473 35.7454C57.1463 36.3019 55.9088 36.3274 54.7241 36.0724L54.6931 36.0796L54.7102 36.069C54.794 35.7813 54.8638 35.4902 54.9475 35.2025C55.467 35.2979 55.8956 35.2835 56.1633 35.0839C56.1556 34.9941 56.155 34.9353 56.1406 34.8732C56.0231 34.8743 55.8917 34.8721 55.7742 34.8732C56.5869 34.1742 57.3287 33.6486 57.9624 33.3903C57.9485 33.3869 57.1851 33.0864 57.3986 32.9911C57.6603 32.878 58.3937 32.9368 58.6138 33.1802C63.2542 31.802 73.2705 31.1719 74.6353 36.6006C74.6353 36.6006 74.576 34.7101 73.3675 32.6611C73.3187 32.62 73.2255 32.6417 73.1429 32.6805ZM54.9184 24.0259C55.663 24.5271 54.3962 24.0031 54.4306 23.9821C54.4821 23.9505 54.7455 24.0137 54.9184 24.0259ZM44.2677 7.93975C44.2051 7.89539 44.1458 7.83718 44.0831 7.79283C44.2628 7.77731 44.5738 7.76401 44.2677 7.93975ZM44.5243 13.1611C44.7876 13.2243 45.0371 13.2842 45.3004 13.3474C44.863 13.5209 44.8353 13.5142 44.5243 13.1611ZM45.3691 16.2369C45.7345 15.7529 46.4175 15.9608 46.7202 15.4325C46.4912 15.3482 46.2556 15.2917 45.9923 15.2285C46.2418 15.2883 46.4912 15.3482 46.7407 15.4081C46.7374 15.422 46.7374 15.422 46.7202 15.4325C46.9492 15.5168 47.1887 15.6182 47.4182 15.7613C47.3317 16.1216 47.2452 16.482 47.162 16.8285C46.5555 16.6682 46.0544 16.3134 45.3691 16.2369ZM38.1708 15.0808C38.534 14.7282 38.2186 13.9049 39.1217 14.7227C38.9914 15.2044 38.9914 15.2044 38.1708 15.0808ZM31.8704 25.5737C32.1016 25.5266 30.1235 25.4622 30.429 24.8613C31.0383 24.216 32.8295 25.3642 31.8704 25.5737ZM28.4102 35.1653C28.7367 34.9651 28.9796 35.0527 29.1248 35.4248C28.8116 35.5694 28.5687 35.4818 28.4102 35.1653ZM29.5162 34.0382C29.4514 34.1253 28.7223 33.8037 29.3965 33.8043C29.5839 33.8785 29.5639 33.9617 29.5162 34.0382ZM32.2357 48.9682C32.1659 48.8928 32.2003 48.8717 32.325 48.9017C32.3949 48.9771 32.3605 48.9982 32.2357 48.9682ZM35.0792 50.2517L35.948 50.3576C35.668 50.3637 35.3703 50.3216 35.0792 50.2517ZM48.5831 56.1608C48.6241 56.112 48.7173 56.0904 48.7827 56.0621C49.0959 56.2839 49.0443 56.682 48.6158 56.6964C48.4084 56.7052 48.5593 56.1991 48.5831 56.1608ZM47.2724 58.6899C47.421 58.6816 47.5696 58.6733 47.7076 58.6478C48.4744 58.9345 47.1194 59.3275 47.2724 58.6899ZM47.93 54.7288C48.1513 54.7233 48.3215 54.8081 48.4545 54.9866C48.5088 55.2488 47.5126 54.8191 47.93 54.7288ZM50.1589 47.6414C50.3496 47.7019 50.5437 47.7484 50.7482 47.8122C50.8807 47.9319 51.0271 48.055 51.1596 48.1748C50.9511 48.4326 50.5536 48.4398 49.9987 48.2479C49.8961 48.0034 49.8906 47.7822 50.1589 47.6414ZM52.3865 23.5207C52.8234 23.6549 52.2191 23.7297 51.9962 23.559C52.0611 23.4719 52.2235 23.467 52.3865 23.5207ZM50.5586 25.4567C51.6979 25.6568 50.8679 26.3664 50.8752 26.3975C50.8962 26.4318 49.5163 25.2798 50.5586 25.4567ZM47.5516 23.3277C47.6791 23.285 47.7867 23.3255 47.8743 23.4491C47.7983 23.4602 47.7085 23.468 47.6326 23.479C47.4973 23.4319 47.4657 23.3804 47.5516 23.3277ZM44.9862 30.2903C45.3122 30.3979 45.3028 30.4982 44.9718 30.5947C44.5316 30.4744 44.5444 30.3602 44.9862 30.2903ZM44.4446 29.3101C44.8227 29.4448 44.8582 29.5413 44.5616 29.6167C44.4607 29.5485 44.3459 29.477 44.2484 29.3949C44.3105 29.3805 44.372 29.3073 44.4446 29.3101ZM43.2584 22.2825C42.8276 22.4283 42.6297 22.3369 42.658 22.0358C42.8648 21.9682 43.086 21.9627 43.2939 22.0126C43.3221 22.078 43.3471 22.1573 43.3615 22.2193C43.3271 22.2404 43.2928 22.2615 43.2584 22.2825ZM42.0884 30.5769C41.9742 30.5641 41.8495 30.5342 41.7214 30.5181C41.7419 30.4937 41.7486 30.466 41.7447 30.4211C41.8822 30.3368 42.4709 30.0824 42.5258 30.4033C42.4482 30.6046 42.3035 30.6578 42.0884 30.5769ZM43.4528 29.717C43.5215 29.6749 42.2392 30.0707 42.5159 29.712C42.7775 29.5989 43.0608 29.579 43.3658 29.6522L43.5249 29.661L43.4528 29.717ZM46.6676 35.9269C46.4409 34.2454 45.7934 31.9352 44.1541 31.1313C44.24 31.4451 45.2495 35.1175 44.7211 35.1812C44.4173 35.2255 43.7416 31.0176 43.6224 30.476C43.7405 30.5337 43.8725 30.5946 43.9905 30.6523L44.0249 30.6312C44.0354 30.6484 44.0321 30.6623 44.0426 30.6795C45.5816 31.474 46.2696 32.9437 46.6238 34.5825C47.5879 34.5354 47.7165 34.6102 48.1506 35.1835C47.7986 35.2456 47.4499 35.2938 47.0978 35.3559C46.9864 35.2705 46.8611 35.1818 46.7497 35.0964C46.9952 36.2108 46.7945 37.6577 46.9104 38.5797C46.7812 37.7132 46.7934 36.8073 46.6676 35.9269ZM46.0865 41.0351C46.0499 41.1876 45.9645 41.299 45.6396 41.309C45.6762 41.1565 45.8032 41.0551 46.0865 41.0351ZM38.255 44.2271C36.7853 41.2506 35.2154 37.5316 32.7683 35.3905C34.2496 36.6695 35.5762 38.4098 36.6013 40.063C37.0154 40.7194 37.4057 41.4141 37.7511 42.1127C38.005 42.6427 38.4207 44.5748 38.255 44.2271ZM39.7383 51.971C39.5898 51.9793 38.7095 48.0741 38.5254 47.6195C38.4107 47.548 38.3098 47.4798 38.1917 47.4221L38.363 47.258C38.3314 47.2065 38.2998 47.1549 38.2682 47.1034C38.3203 47.1305 38.3724 47.1577 38.4245 47.1849L38.5787 47.0313C38.6629 47.1688 38.7333 47.303 38.7865 47.4477C39.9496 48.3425 40.234 49.5394 40.6143 50.6421C40.2412 49.5705 39.902 48.7854 39.0305 48.0192C39.1968 48.4256 40.3532 51.9134 39.7383 51.971ZM39.6732 40.6391C40.1477 41.4713 41.9189 46.7337 41.2459 46.8506C41.3218 46.8395 39.4592 41.0422 39.0578 40.2715C38.9569 40.2034 38.8422 40.1318 38.7274 40.0603L38.8505 39.914C38.7978 39.828 38.7452 39.7421 38.6892 39.67C38.7657 39.7177 38.856 39.7687 38.9325 39.8164L39.0556 39.67C39.1432 39.7937 39.2275 39.9311 39.3289 40.0581C42.1319 41.8156 42.276 44.2688 43.25 46.7453C42.3292 44.4135 42.0199 42.0379 39.6732 40.6391ZM44.9812 53.6399C44.9402 53.6887 44.913 53.7408 44.872 53.7896C44.7506 53.7458 44.1646 53.5611 44.2766 53.3388C44.4058 53.106 44.9358 53.585 44.9812 53.6399C45.3649 53.6294 45.7319 53.6881 46.0651 53.8267L46.0789 53.8301C46.2281 53.8805 46.36 53.9415 46.4853 54.0302C46.3428 53.952 46.2142 53.8772 46.0651 53.8267C45.753 53.7225 45.3826 53.6776 44.9812 53.6399ZM48.1159 48.0306C47.1562 48.9142 44.9691 52.347 44.7013 52.1801C44.0582 51.8059 47.1313 48.835 48.1159 48.0306C48.229 47.9258 48.3183 47.8593 48.3837 47.831C48.3355 47.8487 48.2462 47.9153 48.1159 48.0306ZM45.0823 48.9441C44.677 49.228 42.3324 51.7288 42.308 51.7083C41.5612 51.3385 44.6559 48.8271 45.0684 48.5744C46.2404 47.8442 47.4257 47.7916 48.4879 47.5189C47.2051 47.8559 46.1778 48.1663 45.0823 48.9441ZM55.6914 40.0424C55.6742 40.053 55.6604 40.0496 55.6293 40.0568C55.7779 40.0485 55.9265 40.0402 56.0751 40.0319C56.0013 40.2781 52.4543 41.7427 51.9669 42.1241C51.5173 42.4706 47.698 46.2299 47.5655 46.1101C46.485 45.1765 54.5028 40.4754 55.6293 40.0568C54.9901 40.094 54.3165 40.1522 53.6191 40.2486C52.1488 40.5114 50.6636 41.0197 49.3973 41.6539C49.2437 41.8662 49.1855 41.9256 48.9981 41.8513C48.5712 42.042 45.522 44.2417 45.4943 44.2351C44.7198 43.8586 48.2575 41.7614 48.609 41.6406C48.5846 41.6201 48.5707 41.6167 48.5463 41.5962C48.6494 41.533 48.7703 41.5181 48.9017 41.5203C50.4335 40.8179 52.0895 40.4531 53.6363 40.2381C54.3198 40.1383 55.0278 40.059 55.6914 40.0424ZM50.9126 36.2569C51.258 36.589 51.4409 36.9261 51.5002 37.3507C51.1682 37.3296 50.8494 37.2531 50.5578 37.1245C50.4508 36.7763 50.881 36.5718 50.9126 36.2569ZM54.1841 38.2001C54.0338 38.3986 54.0953 38.6919 53.5354 38.7041C52.3047 37.9689 52.3047 37.9689 51.9992 37.4705C52.7171 37.7161 53.4523 37.9512 54.1841 38.2001ZM53.5942 35.7719C54.0001 35.5468 54.0694 35.5634 54.3599 35.941C54.1104 35.8811 53.8576 35.8351 53.5942 35.7719ZM57.7501 31.7709C56.9412 32.1484 52.0042 37.2665 52.2786 37.4056C51.299 36.9066 56.3696 32.3923 57.26 31.8584C57.0599 31.8984 56.8597 31.9383 56.6563 31.992C55.3423 32.3363 54.1343 32.9112 53.0011 33.7239C52.5925 34.0216 52.1601 34.3575 51.7969 34.7101C51.3789 35.1082 51.059 35.6471 50.6476 36.0174C50.6648 36.0068 49.3636 37.3363 49.7373 36.6344C50.641 34.9457 52.3053 33.6302 53.9946 32.7604C54.7996 32.3379 55.7626 32.1733 56.6701 31.9954C56.8875 31.9449 57.1081 31.8806 57.3221 31.844C57.3049 31.8546 57.2877 31.8651 57.2705 31.8756C57.55 31.8108 57.8155 31.7426 58.0706 31.6572L58.0739 31.6434C58.208 31.573 58.3666 31.5231 58.5113 31.4698C58.3771 31.5403 58.2324 31.5935 58.0706 31.6572C58.065 31.8025 57.9652 31.8518 57.7501 31.7709ZM68.6763 28.6327C68.8359 28.7003 68.9817 28.7646 69.1447 28.8184C68.9352 28.9587 68.7101 28.9193 68.4939 28.7208C68.4584 28.6244 68.5271 28.5822 68.6763 28.6327ZM66.9432 28.891C67.0424 28.7829 67.2637 28.7774 67.4993 28.8339C68.4074 29.0812 66.8301 29.3622 66.9432 28.891ZM67.8074 31.8249C67.8784 31.6514 68.0226 31.5394 68.2365 31.5028C68.4888 31.8565 68.4716 31.867 67.8074 31.8249ZM67.3778 30.2559C67.8358 30.058 68.2859 30.1368 68.735 30.4644C69.1009 30.7721 67.2259 30.6446 67.3778 30.2559Z" class="pineapple"/>
<path d="M56.6563 31.9922C56.8564 31.9523 57.0704 31.9157 57.2601 31.8586C57.2772 31.848 57.2944 31.8375 57.3116 31.827C57.0804 31.8741 56.8598 31.9384 56.6563 31.9922Z" class="pineapple"/>
<path d="M48.1158 48.0308C48.2429 47.9292 48.3494 47.8521 48.3839 47.831C48.3184 47.8593 48.2151 47.9225 48.1158 48.0308Z" class="pineapple"/>
<path d="M45.9924 15.2283C46.2558 15.2915 46.4914 15.348 46.7204 15.4323C46.7237 15.4185 46.7237 15.4184 46.7409 15.4079C46.4914 15.348 46.2419 15.2882 45.9924 15.2283Z" class="pineapple"/>
<path d="M23.6029 59.5903C22.9709 59.292 22.2187 55.7694 21.6288 57.0057C21.0117 58.2941 23.0951 60.3626 24.1595 60.3249C25.815 60.2678 27.7499 57.9472 28.4379 57.2182C27.7466 57.961 24.6968 60.1021 23.6029 59.5903Z" class="pineapple"/>
<path d="M53.4498 59.3371C53.3633 59.331 51.8781 57.6406 51.9291 58.6496C52.0366 60.5224 54.7631 60.0335 55.1712 58.5776C55.2078 58.4252 53.6848 59.3349 53.4498 59.3371Z" class="pineapple"/>
<path d="M30.5914 60.0949C30.4711 58.7028 29.552 57.2802 29.5835 59.5305C29.5929 60.1631 29.9982 60.9786 30.3108 61.5081C32.1231 64.523 35.4046 62.3936 37.1754 60.2681C35.8659 61.8154 30.853 64.0129 30.5914 60.0949Z" class="pineapple"/>
<path d="M45.1466 61.3164C43.8421 62.2932 40.0915 67.1098 39.6187 62.7893C39.551 62.2161 39.5262 59.5716 38.6485 61.0906C38.2504 61.772 39.0398 64.1016 39.5876 64.6288C41.8517 66.7993 43.8715 62.8427 45.2869 61.526C45.2858 61.4085 45.2436 61.3397 45.1466 61.3164Z" class="pineapple"/>
<path d="M54.1506 66.2486C53.1604 65.7324 53.0097 62.574 52.2091 62.7336C51.3065 63.8069 49.0129 66.2174 48.3732 65.8293C48.3837 65.8465 48.3771 65.8742 48.3876 65.8914C48.076 65.8459 47.4451 65.6652 47.5721 65.1973C47.4152 65.057 47.3237 64.8885 47.2872 64.6745C46.9429 64.0935 46.5704 61.2483 45.6895 61.6818C44.9565 62.0482 46.4062 64.7415 46.6795 65.1296C49.0539 68.3674 50.557 64.9756 52.0284 62.9981C51.7772 64.2277 53.2618 67.6917 55.0293 67.0458C54.695 66.7897 54.9533 66.6904 55.215 66.5774C55.378 66.6311 55.5238 66.6955 55.6868 66.7492C55.8038 66.6894 55.9102 66.6123 56.02 66.5214C55.9213 66.3218 55.9302 66.1627 56.0122 66.0651C55.3758 66.3961 54.6961 66.5408 54.1506 66.2486Z" class="pineapple"/>
<path d="M52.2064 62.7471C52.4115 62.5032 52.5518 62.3463 52.5823 62.2803C52.4454 62.4234 52.319 62.5836 52.2064 62.7471Z" class="pineapple"/>
<path d="M55.9985 66.0615C56.0673 66.0194 56.1361 65.9772 56.205 65.935C56.1256 65.96 56.0568 66.0021 55.9985 66.0615Z" class="pineapple"/>
<path d="M57.5198 64.6091C57.2753 65.0781 56.7858 65.5909 56.2186 65.9385C56.329 65.9064 56.4742 65.9119 56.6267 65.9485C57.0214 65.6475 57.5531 65.2034 57.7421 64.7211C57.6928 64.6213 57.6268 64.5908 57.5198 64.6091Z" class="pineapple"/>
<path d="M23.7195 61.6706C24.178 60.4321 22.9677 61.5049 22.69 61.746C22.2237 62.1618 21.9338 62.9424 21.4126 63.4036C21.0251 63.7357 19.2582 65.1732 18.8701 64.3472C18.7044 63.9995 18.7033 63.5156 18.4998 63.2029C18.5347 63.2406 18.2941 65.2203 19.2986 65.0657C19.2581 67.0055 18.7098 68.9847 19.3501 70.8974C19.9477 72.6825 20.2886 72.1781 21.6957 71.0793C22.2928 70.6069 26.3572 67.5368 24.653 67.5528C23.8025 67.5539 20.9179 70.7167 20.1883 71.4357C19.2559 69.3356 19.6129 67.2373 19.5437 65.0219C21.1592 64.7647 22.441 63.5772 23.4356 62.3647C23.2083 63.9226 23.767 67.8239 26.1825 67.3483C26.1742 67.1997 26.1105 67.0378 26.0744 66.8826C26.0911 66.8133 26.1354 66.7506 26.187 66.719C26.0905 66.7545 26.0146 66.7656 25.942 66.7628C23.7726 66.5793 24.5023 61.4628 23.7195 61.6706Z" class="pineapple"/>
<path d="M26.3864 66.6201C26.7279 66.5408 27.2368 66.619 27.3787 66.6384C27.8594 66.2847 31.0739 63.6409 31.0251 63.5999C30.7557 63.2567 27.7147 65.9715 26.3864 66.6201Z" class="pineapple"/>
<path d="M26.19 66.705C26.2555 66.6767 26.321 66.6484 26.4004 66.6234C26.3071 66.645 26.2416 66.6733 26.19 66.705Z" class="pineapple"/>
<path d="M47.6204 67.7444C47.5682 67.7173 45.9893 69.6543 45.7769 69.8672C45.9255 69.8589 46.0746 69.9093 46.1999 69.998C46.3668 69.7303 47.8809 67.8803 47.6204 67.7444Z" class="pineapple"/>
<path d="M45.493 70.1946C44.3049 71.7857 42.8474 71.5678 41.895 69.9174C41.6067 69.4084 41.0712 65.7765 40.4154 66.2494C40.3893 66.4191 36.3759 69.3989 35.7367 69.8024C33.7331 71.0659 32.3932 67.9152 32.0196 66.4183C31.8937 65.9044 32.0601 64.8449 31.7618 64.3776C31.0494 63.2538 30.9552 64.2572 30.9186 65.1426C30.8542 66.7542 32.0539 69.3289 33.4415 70.2043C35.8342 71.7168 38.7471 67.8865 40.3366 66.3331C39.0814 69.6085 43.3496 73.8725 45.992 70.3144C45.8123 70.3299 45.646 70.29 45.493 70.1946Z" class="pineapple"/>
<path d="M51.8725 72.8693C51.6912 73.075 51.4445 73.3089 51.1296 73.2773C51.2339 73.3316 51.9557 73.6221 51.4135 73.6826C51.3968 73.7519 51.3802 73.8212 51.3497 73.8871C51.8021 73.8345 52.0793 73.5346 52.3249 73.1831C52.3005 73.1626 52.29 73.1454 52.2656 73.1249C52.1231 73.0467 51.9668 72.9652 51.8725 72.8693Z" class="pineapple"/>
<path d="M49.4166 71.2535C49.3506 71.2231 49.2675 71.2031 49.2048 71.1587L49.4166 71.2535C49.1777 70.8444 48.4571 66.6404 47.8777 68.6268C47.4458 70.1209 49.2436 72.7072 50.313 73.5649C50.3263 73.5094 50.3396 73.454 50.3701 73.388C50.4832 73.2832 50.6102 73.1818 50.6817 73.067C50.0685 72.568 49.803 71.9033 49.4166 71.2535Z" class="pineapple"/>
<path d="M52.5612 72.932C53.5819 71.9163 54.6075 69.9638 55.1293 69.1948C54.3314 70.3812 53.1949 71.5743 52.1637 72.5727C52.3406 72.6298 52.4697 72.7634 52.5612 72.932Z" class="pineapple"/>
<path d="M28.7217 74.5392C27.1932 75.5942 26.2347 75.8625 25.631 73.7973C25.2723 72.4213 25.7835 70.9023 25.4359 69.6022C24.7624 67.0952 24.4352 70.9011 24.5804 72.0061C24.7672 73.4874 25.214 76.1452 27.1223 76.1342C28.0764 76.1286 32.8571 71.662 32.8465 71.6448C32.7035 71.5078 29.1409 74.2587 28.7217 74.5392Z" class="pineapple"/>
<path d="M41.8353 73.0987C41.3014 72.5748 37.3312 79.4054 35.1758 75.1942C34.9225 74.7229 33.8215 70.1491 33.4162 72.2652C33.0769 74.0454 34.9418 76.7797 36.6288 77.1407C36.8184 77.0836 37.0053 77.0991 37.1821 77.1562C37.9522 77.0625 42.4423 73.6841 41.8353 73.0987Z" class="pineapple"/>
<path d="M46.0161 78.7636C44.6634 79.0252 44.1501 77.744 43.7371 76.4722C43.5236 75.8346 42.2924 71.3761 42.202 73.8903C42.1321 76.0137 43.9953 80.404 46.5212 79.1633C48.1972 78.3489 49.4075 75.8104 50.4747 74.9672C49.2289 75.9434 47.645 78.4509 46.0161 78.7636Z" class="pineapple"/>
<path d="M18.9417 72.3529C18.4915 72.2742 16.713 74.3098 16.3404 74.7628C15.8121 73.7272 14.9312 71.9619 14.858 71.1675C14.9367 72.1831 14.9561 74.24 15.7688 75.0067C16.627 75.8283 16.4823 75.5151 17.6111 74.5987C18.0435 74.2628 20.244 72.6068 18.9417 72.3529Z" class="pineapple"/>
<path d="M42.5867 82.7923C42.6183 82.8438 42.6499 82.8954 42.6366 82.9508C42.6016 82.9131 42.5495 82.886 42.5146 82.8483C42.2125 83.0689 41.9347 83.3101 41.6675 83.5684C41.7124 83.5645 41.7573 83.5607 41.8022 83.5568C41.7356 83.834 41.561 84.0119 41.2123 84.0602C37.0836 88.3755 36.9946 78.1812 36.0266 78.1834C36.6802 77.4755 34.9056 78.8232 35.445 78.4689C34.854 78.8548 34.2719 79.4479 33.7751 79.9297C32.8498 80.7923 32.0465 81.7575 31.0269 82.5242C31.2454 82.5913 31.471 82.6894 31.6861 82.7704C31.823 82.6274 31.9461 82.481 32.0487 82.359C33.2329 81.0895 34.4277 79.8371 35.6258 78.5709C35.4805 80.7641 36.5426 85.2553 39.3628 85.5365C40.7227 85.6723 44.48 81.1946 44.2261 81.031C44.1113 80.9595 42.8406 82.5894 42.5867 82.7923Z" class="pineapple"/>
<path d="M25.9389 78.1956C24.146 79.8028 22.1756 82.027 21.0697 78.7565C20.7176 77.7192 20.7781 76.7956 20.7715 75.724C20.7693 75.1225 20.7616 72.4674 19.9543 74.1206C19.2657 75.5238 20.0601 79.4817 21.1661 80.5533C23.0815 82.4056 24.8207 79.4956 26.2089 78.2311C26.1191 78.2389 26.0326 78.2328 25.9389 78.1956Z" class="pineapple"/>
<path d="M28.0676 80.3186C27.7145 79.5302 27.6979 78.5002 27.235 77.8027C26.9229 77.332 26.1723 76.1844 26.353 77.7523C26.3153 77.7872 26.2742 77.836 26.2365 77.8709C26.2504 77.8742 26.2504 77.8742 26.2642 77.8775C26.272 77.9674 26.2659 78.0539 26.2703 78.1575C26.308 78.1226 26.3457 78.0877 26.3834 78.0527C26.6584 79.7165 27.939 82.4425 29.6404 83.232C30.1172 83.1999 30.1671 82.992 30.1338 82.7641C29.2601 82.4958 28.4452 81.1275 28.0676 80.3186Z" class="pineapple"/>
<path d="M16.5188 77.1952C16.4367 77.2927 16.3791 77.4108 16.3214 77.5289C16.394 77.5317 16.4667 77.5344 16.5326 77.5649C16.5326 77.5649 16.6967 77.0033 16.5188 77.1952Z" class="pineapple"/>
<path d="M21.0254 81.0767C20.2958 81.7957 19.4564 82.9721 18.5195 82.6007C17.8254 82.3168 17.1546 80.4701 16.8824 79.8331C16.9163 79.7532 16.8847 79.7017 16.7943 79.6507C16.5155 79.0414 16.3929 78.5136 16.4628 77.8561C16.3869 77.8672 16.3176 77.8505 16.1995 77.7929C16.0753 78.1881 16.1351 79.038 16.2255 79.4555C15.7238 79.7748 14.9393 80.9058 14.5706 81.4036C14.468 81.1591 14.3777 80.7417 14.203 80.5532C14.0284 80.3647 14.2789 81.6414 14.3039 81.7207C14.2523 81.7523 14.2113 81.8011 14.1703 81.8499L14.3399 81.876C14.3859 81.9896 14.494 82.0888 14.5401 82.2025C14.6604 82.1288 14.784 82.0412 14.8938 81.9503L15.008 81.963L14.9658 81.8943C15.5214 81.412 16.0253 80.9612 16.5875 80.4512C16.899 81.2296 17.5676 83.2077 18.469 83.4827C19.1764 83.7111 19.8911 83.2377 20.4782 82.8069C20.6567 82.6739 21.7034 81.8551 21.6314 81.5446C21.5915 81.3445 21.3337 80.7696 21.0254 81.0767Z" class="pineapple"/>
<path d="M14.5369 82.216L14.5645 82.2227L14.5573 82.1918L14.5369 82.216Z" class="pineapple"/>
<path d="M21.5713 89.8558C21.7088 89.7715 22.0199 89.7582 22.235 89.8392C22.4307 89.6956 22.623 89.5659 22.8326 89.4256C23.107 89.1983 23.3782 88.9849 23.6737 88.792C23.636 88.8269 21.9666 89.6135 21.5713 89.8558Z" class="pineapple"/>
<path d="M21.5518 89.8807C21.4999 89.9126 21.448 89.9444 21.3927 89.9902C21.4206 89.9969 21.4625 90.0069 21.4904 90.0136C21.4971 89.9857 21.5038 89.9578 21.5105 89.9299C21.5312 89.9053 21.5345 89.8914 21.5518 89.8807Z" class="pineapple"/>
<path d="M19.8323 90.5672C19.9947 90.5622 20.1083 90.5162 20.1666 90.4569C19.9348 90.4453 19.7336 90.3676 19.5628 90.224C19.5761 90.1686 19.6172 90.1198 19.6826 90.0915C18.9591 89.2583 18.647 88.0547 18.4813 86.9741C18.4148 86.5184 18.5828 86.0017 18.468 85.5637C18.3815 85.1912 17.7024 83.5624 17.5444 84.7704C17.3781 84.7305 15.3351 87.3183 15.3994 87.539C14.8965 87.7408 14.3599 86.923 13.9851 86.7744C13.9025 86.8132 13.8548 86.8897 13.8487 86.9762C14.718 87.5074 14.8422 88.2115 15.9172 87.8245C16.4616 87.6327 17.1069 86.4097 17.5732 85.9939C17.8925 87.2286 18.0993 88.2603 18.5533 89.4833C18.6126 89.5416 18.6409 89.607 18.6348 89.6935C19.0095 90.575 20.1128 91.3528 21.0447 90.8289C20.6544 90.8672 20.197 90.7574 19.8323 90.5672Z" class="pineapple"/>
<path d="M15.3997 87.539C15.4143 87.5425 15.4178 87.5279 15.3997 87.539C15.4032 87.5243 15.3997 87.539 15.3997 87.539Z" class="pineapple"/>
<path d="M28.705 94.3974C27.0002 95.0876 26.7851 94.6402 26.1365 92.9453C25.7856 92.0256 25.8356 90.3519 25.2307 89.635C24.4058 88.6748 24.3021 89.4121 24.5266 90.4921C24.648 90.5359 24.6835 90.6324 24.6397 90.7538C24.6364 90.7676 24.6192 90.7782 24.6159 90.792C24.7855 91.1845 24.8448 91.6092 25.0006 91.9984C25.0976 92.0217 25.1913 92.0588 25.2711 92.0927C25.1775 92.0555 25.0943 92.0356 25.0006 91.9984C25.4674 93.1072 25.9297 95.2117 27.232 95.4657C28.0979 95.6442 32.6402 92.293 32.4622 92.1183C32.3508 92.033 29.1425 94.2239 28.705 94.3974Z" class="pineapple"/>
<path d="M36.1753 96.557C36.4348 96.5753 36.6943 96.5937 36.9399 96.6086C36.9842 96.546 37.0424 96.4867 37.1006 96.4273C38.1102 95.3358 39.3005 94.7126 40.4154 93.7929C39.5029 94.5413 37.2892 95.1533 36.1753 96.557Z" class="pineapple"/>
<path d="M35.418 95.8033C35.3159 95.9841 35.0787 95.7512 35.0299 95.7102C35.057 95.6581 35.0704 95.6026 35.0942 95.5644C35.1496 95.5777 35.2189 95.5943 35.2744 95.6076C34.8663 95.2312 34.5165 94.429 34.3214 93.8984C34.1512 93.4471 33.9439 91.9902 33.476 91.8632C32.294 91.5355 33.2165 93.3107 33.4039 93.7515C33.9167 94.9739 34.6141 95.9768 35.5188 96.9709C35.5765 96.8528 35.6341 96.7347 35.7162 96.6372C35.7162 96.6372 35.7162 96.6372 35.7023 96.6338C35.719 96.5645 35.7323 96.5091 35.7456 96.4537C35.7456 96.4537 35.7456 96.4537 35.7594 96.457C35.7905 96.4498 35.8249 96.4287 35.8592 96.4076C35.6813 96.233 35.541 96.0234 35.418 95.8033Z" class="pineapple"/>
<path d="M44.1438 99.144C42.9757 99.5525 42.021 101.332 40.5041 101.055C39.5484 100.885 37.0248 98.6958 36.9317 97.6181C36.8663 97.6463 36.8042 97.6608 36.7282 97.6718L36.7249 97.6857C36.9 99.7652 39.8266 101.802 41.6212 101.47C42.9707 101.222 46.5111 98.3196 44.1438 99.144Z" class="pineapple"/>
<path d="M34.5126 98.4149C34.7444 98.4265 34.9761 98.4382 35.2079 98.4498C35.2517 98.3284 35.3581 98.2514 35.6248 98.3007C35.7079 98.3207 35.7739 98.3512 35.826 98.3783C36.2873 97.4337 34.6191 98.3378 34.5126 98.4149Z" class="pineapple"/>
<path d="M34.5123 98.4152C32.5031 99.8239 31.6194 100.697 30.1946 98.4489C30.1741 98.4733 30.1431 98.4805 30.1226 98.5049C30.0843 98.4811 30.0322 98.4539 29.9973 98.4162C30.035 98.3813 30.0832 98.3636 30.1209 98.3286C29.5316 97.4249 29.3498 96.4725 28.888 95.5261C29.3603 96.4897 29.2577 99.1768 30.6991 100.256C32.0917 101.294 34.642 99.707 35.6959 98.5527C35.3112 98.4457 34.9131 98.3942 34.5123 98.4152Z" class="pineapple"/>
<path d="M27.2741 95.9593C25.9596 96.2448 23.6239 97.4872 22.3244 96.7941C21.5705 96.3933 20.2406 92.1017 20.4374 92.0756C19.516 92.2502 21.464 97.2033 22.5151 97.5875C23.3755 97.9113 25.0171 97.4844 25.9103 97.2444C26.2861 97.1441 27.0257 97.1164 27.2647 96.7926C27.2852 96.7682 28.078 95.7858 27.2741 95.9593Z" class="pineapple"/>
<path d="M19.2361 92.2564C18.9833 92.2104 18.4477 92.6095 18.2237 92.6877C17.5657 92.9255 16.7379 93.5037 16.1819 93.9273C15.8276 93.3878 15.7206 92.6732 15.3597 92.1615C15.2594 92.1521 15.1907 92.1942 15.143 92.2707C15.8892 93.6811 15.2466 94.465 16.8449 94.2183C17.7115 94.0892 18.69 93.3713 19.5549 93.0658C20.3233 92.7959 19.6031 92.3152 19.2361 92.2564Z" class="pineapple"/>
<path d="M30.4827 101.831C30.1833 101.979 29.9399 102.199 29.651 102.364C29.8273 102.362 30.0036 102.361 30.1661 102.356C30.2176 102.324 30.2725 102.279 30.3241 102.247C30.4272 102.184 30.5198 102.103 30.6091 102.037C30.5425 101.948 30.4971 101.893 30.4827 101.831Z" class="pineapple"/>
<path d="M29.1417 102.593C27.3265 103.682 26.1135 104.461 24.7176 102.338C24.3001 101.695 23.5551 98.2036 22.907 99.1328C22.3476 99.9366 23.733 102.409 24.3688 103.119C26.5564 105.608 28.1044 103.678 30.1662 102.356C30.0038 102.361 29.8275 102.362 29.6512 102.364C29.4826 102.455 29.2963 102.499 29.1417 102.593Z" class="pineapple"/>
<path d="M37.2971 104.097C35.5314 105.285 34.7147 105.573 33.3077 103.74C32.9562 103.861 32.6103 103.837 32.2527 103.677C33.469 105.45 34.7563 106.316 36.7095 105.202C38.2879 104.305 40.1734 102.984 41.5661 101.823C40.8492 102.428 38.4858 103.297 37.2971 104.097ZM35.579 105.209C35.5491 105.334 35.5225 105.444 35.5064 105.572C35.0058 105.276 35.0091 105.263 35.579 105.209Z" class="pineapple"/>
<path d="M31.2465 101.457C31.0652 101.296 30.9033 101.36 30.7436 101.659C30.8955 101.636 31.1029 101.627 31.4 101.611C31.4921 101.838 31.4072 102.008 31.17 102.142C31.3252 102.472 31.5187 102.827 31.7321 103.098C31.9511 102.857 32.2017 102.668 32.5011 102.52C32.322 102.228 31.7382 101.179 31.2465 101.457Z" class="pineapple"/>
<path d="M21.5077 65.0239C21.4899 64.9756 21.455 64.9379 21.4373 64.8897L21.383 64.9939C21.3103 64.9912 21.2238 64.9851 21.1512 64.9823C21.19 65.0649 21.2183 65.1303 21.2743 65.2024L21.2233 65.2928C21.2543 65.2855 21.282 65.2922 21.3131 65.285C21.4755 65.6465 21.5924 67.7853 21.863 67.8796C22.5183 68.0808 21.7383 65.6509 21.6524 65.3371C21.7494 65.3604 21.8464 65.3837 21.9401 65.4208C22.2594 65.5561 22.7179 66.1499 22.7645 66.3223C22.5366 65.6227 22.2356 65.2279 21.5077 65.0239Z" class="pineapple"/>
<path d="M27.2083 61.7311C26.9832 60.9588 26.8108 60.2725 26.2792 59.6172C26.1827 59.6526 26.1073 59.7225 26.084 59.8195L26.0702 59.8162C26.0702 59.8162 26.084 59.8195 26.0807 59.8334C25.967 60.2458 25.8827 63.04 26.1948 62.7778C26.6029 62.4213 26.2448 60.7376 26.3224 60.1699C26.4238 60.2969 26.5114 60.4205 26.6096 60.5613C26.8058 60.843 27.1479 61.5554 27.2083 61.7311Z" class="pineapple"/>
<path d="M23.7988 75.9962C23.6452 75.842 23.3686 75.1014 23.0337 74.7864C22.9118 74.6839 22.8103 74.5569 22.685 74.4682C22.1689 75.0919 22.3407 75.7195 22.5824 76.4225C22.5963 76.4258 22.6134 76.4153 22.6273 76.4186C22.5319 76.5716 22.8574 76.6204 22.9849 76.2112C23.0886 75.8404 22.4061 75.3248 22.751 74.8652C23.1485 75.2244 23.4218 75.6125 23.7988 75.9962Z" class="pineapple"/>
<path d="M17.6601 69.5093C17.3924 68.6095 17.1169 67.9863 16.5326 67.2451C16.5032 67.0621 16.4428 66.8864 16.348 66.7317L16.1694 66.8647C16.1206 66.8237 16.0752 66.7688 16.0125 66.7245C16.0408 66.7899 16.0691 66.8553 16.0974 66.9207L15.9188 67.0538L15.9432 67.0743C16.0441 67.1425 16.145 67.2107 16.2393 67.3066C16.3224 67.693 16.3434 70.6591 16.4853 70.6785C17.0464 70.7838 16.7937 68.1726 16.69 67.8106C17.0814 68.2563 17.5321 69.1267 17.6601 69.5093Z" class="pineapple"/>
<path d="M27.5591 68.8804C27.5447 68.8183 27.5303 68.7562 27.502 68.6908L27.3856 68.8094C27.3163 68.7928 27.247 68.7762 27.1915 68.7629C27.2198 68.8283 27.2342 68.8904 27.2486 68.9525L27.1355 69.0572C27.1771 69.0672 27.2325 69.0805 27.2741 69.0905C27.3362 69.4426 27.4581 72.1103 27.7519 72.1076C28.1356 72.097 27.9549 71.2621 27.915 71.062C27.8312 70.9832 27.7786 70.8973 27.8052 70.7864C27.8252 70.7033 27.8451 70.6201 27.8756 70.5541C27.7919 70.109 27.7498 69.6738 27.635 69.2358C28.4267 69.6017 28.6124 70.2326 29.1674 70.7909C28.9589 69.9493 28.3541 69.2325 27.5591 68.8804Z" class="pineapple"/>
<path d="M37.7594 63.9412C37.6973 63.9556 37.6352 63.97 37.5731 63.9844L37.4711 63.7987C37.4029 63.8996 37.3347 64.0005 37.256 64.0842C36.1178 64.368 34.8549 64.9884 34.2145 66.0073C34.3942 65.9918 34.5705 65.9902 34.7434 66.0024C35.3699 65.3465 36.0945 64.8315 36.9383 64.4917C36.5502 65.1314 36.3046 65.8494 36.0762 66.5568C36.1144 66.5806 36.1388 66.6011 36.1771 66.625C36.3257 65.8838 36.8457 64.9385 37.3486 64.3703C37.4761 64.3276 37.6036 64.2849 37.7311 64.2422L37.6291 64.0565C37.6773 64.0388 37.7184 63.99 37.7594 63.9412Z" class="pineapple"/>
<path d="M45.5465 65.9421C45.46 65.936 45.3873 65.9332 45.3114 65.9443L45.2449 65.855C45.2382 65.8828 45.2282 65.9243 45.2077 65.9487C44.8862 65.9448 44.5923 65.9476 44.2713 66.0025C43.7641 66.1006 42.3115 66.778 43.3837 66.8302C43.8472 66.8535 44.4776 66.2425 45.0619 66.2509C44.8385 66.7543 44.513 67.0719 44.2269 67.531C44.3528 67.312 45.083 66.6517 45.3696 66.2514C45.4145 66.2476 45.4594 66.2437 45.5043 66.2398L45.4378 66.1505C45.4821 66.0879 45.516 66.0081 45.5465 65.9421Z" class="pineapple"/>
<path d="M50.4509 62.487L50.4748 62.4487C50.416 62.4493 50.34 62.4604 50.278 62.4748L50.1904 62.3511C50.1771 62.4066 50.1499 62.4587 50.1089 62.5075C49.7014 62.5563 48.2006 62.5185 48.1258 63.0136C48.057 63.4222 49.6182 62.9028 49.9115 62.8412C49.7513 63.0813 49.494 63.298 49.2218 63.3939C49.2772 63.4073 49.3188 63.4172 49.3743 63.4305C49.7391 63.2543 49.9935 63.1101 50.2325 62.7864C50.3256 62.7647 50.4049 62.7398 50.4981 62.7182L50.3999 62.5773C50.4032 62.5635 50.4271 62.5252 50.4509 62.487Z" class="pineapple"/>
<path d="M43.4971 59.3958C43.4383 59.3964 43.3796 59.3969 43.3069 59.3942L43.2532 59.1907C43.1811 59.2467 43.109 59.3027 43.0475 59.3758C42.6322 59.3348 39.8846 60.1558 40.5671 60.6714C40.6785 60.7568 42.2768 59.7772 42.7015 59.7179C42.3118 60.1814 41.7695 60.9747 41.6819 61.584C41.754 61.1615 42.6738 60.0777 43.1334 59.6896C43.2337 59.6991 43.3202 59.7052 43.41 59.6974L43.3529 59.5078C43.3873 59.4867 43.4078 59.4623 43.4455 59.4274L43.4971 59.3958Z" class="pineapple"/>
<path d="M47.4643 72.4269C47.4127 72.4585 47.3783 72.4796 47.3301 72.4973L47.1799 72.3293C47.1289 72.4197 47.0917 72.5134 47.0546 72.6071C46.6238 72.7529 45.2971 73.5778 45.2921 74.1483C45.3043 74.7082 46.6044 73.2613 46.8212 73.152C46.6737 73.6443 46.4425 74.4244 46.4924 74.9494C46.4646 74.5763 47.0097 73.3439 47.2575 72.861C47.3573 72.8117 47.4571 72.7623 47.5674 72.7302L47.4172 72.5622C47.4133 72.5173 47.4371 72.479 47.4643 72.4269Z" class="pineapple"/>
<path d="M37.4426 70.6955C37.4454 70.6229 37.4515 70.5364 37.4232 70.471L37.3373 70.5237C37.2536 70.445 37.1111 70.3668 37.0102 70.2986C37.0595 70.3984 37.1266 70.5464 37.1139 70.6606L37.0141 70.7099C37.0385 70.7305 37.0629 70.751 37.0872 70.7715C36.8549 71.8004 37.274 72.9858 37.4659 71.3314C37.8623 71.9396 37.6699 72.4358 37.5374 73.049C37.5806 72.8688 37.9887 72.5123 37.9565 72.0355C37.931 71.531 37.6782 71.1186 37.4426 70.6955Z" class="pineapple"/>
<path d="M30.7088 78.8422C31.2832 78.1592 30.9401 77.3293 30.4572 76.715C30.4178 76.5736 30.3818 76.4184 30.3596 76.2665L30.1534 76.3929C30.1218 76.3413 30.073 76.3003 30.0414 76.2487C30.0558 76.3108 30.0702 76.3729 30.0675 76.4455L29.8784 76.5614C29.9449 76.6507 30.0286 76.7294 30.1124 76.8081C30.1362 77.1363 30.1456 79.2347 30.4533 79.2353C30.6534 79.1954 30.7282 79.0668 30.6745 78.8633C30.6917 78.8528 30.7055 78.8561 30.7088 78.8422Z" class="pineapple"/>
<path d="M33.5913 58.1619C33.3973 58.1153 33.369 58.0499 33.5171 57.9828C33.323 57.5698 32.9 57.0725 32.5619 56.7714C32.5402 56.6783 32.522 56.5713 32.5175 56.4676L32.3318 56.5696C32.283 56.5286 32.2375 56.4737 32.206 56.4221C32.2032 56.4948 32.2143 56.5707 32.2287 56.6328L32.074 56.7276C32.0951 56.762 32.13 56.7997 32.1544 56.8202C32.1788 56.8407 32.2032 56.8612 32.2276 56.8817C32.2203 57.2171 32.1859 59.4369 32.5418 59.4198C32.9843 59.4087 32.6633 57.6313 32.6528 57.2476C33.1251 57.8447 33.476 58.398 33.8901 59.0545C33.9079 59.1027 33.6518 58.3376 33.5913 58.1619Z" class="pineapple"/>
<path d="M40.3075 78.3022C40.2931 78.2402 40.2893 78.1952 40.2748 78.1332L40.1512 78.2207C40.0852 78.1903 40.0226 78.1459 39.9533 78.1293C39.9644 78.2052 39.9788 78.2673 39.9899 78.3433L39.8662 78.4309C39.9045 78.4547 39.9599 78.468 39.9982 78.4918C40.0054 78.8893 39.4537 81.6153 39.6411 81.6896C40.2515 81.8947 40.2898 78.9869 40.3003 78.6377C40.4395 78.7297 40.5925 78.8251 40.735 78.9032C41.1557 79.1655 41.6325 79.8662 41.5638 80.2748C41.7384 79.364 41.061 78.6443 40.3075 78.3022Z" class="pineapple"/>
<path d="M50.9484 78.6725L50.9927 78.6098C50.9306 78.6242 50.8685 78.6387 50.7926 78.6498L50.7011 78.4812C50.6567 78.5439 50.6091 78.6204 50.5647 78.683C50.0258 78.7296 47.2339 80.3461 48.0566 80.7048C48.1503 80.742 49.7919 79.2158 50.3158 79.0484C50.002 79.5007 49.4298 80.4188 49.3832 80.9793C49.3333 81.5537 50.1976 81.5559 50.1112 81.1833C50.104 81.1523 49.3405 81.5847 49.5346 80.8984C49.722 80.2397 50.3202 79.5185 50.7161 78.9685C50.792 78.9574 50.8713 78.9325 50.9611 78.9247L50.8663 78.7701C50.8868 78.7457 50.9245 78.7107 50.9484 78.6725Z" class="pineapple"/>
<path d="M54.2348 75.1807C54.7359 74.8026 56.6359 74.2765 57.4109 74.7117C56.7861 74.8109 56.2178 75.041 55.6396 75.3126C55.6784 75.3952 55.7 75.4884 55.6906 75.5887C55.583 75.5483 55.4583 75.5183 55.3508 75.4778C55.1961 75.5726 54.5779 76.0106 54.8152 76.2435C54.9965 76.4042 56.3526 75.3958 56.6109 75.2966C57.162 75.0771 57.7624 74.9573 58.3534 74.9379C57.147 73.8568 55.419 74.2776 54.2348 75.1807Z" class="pineapple"/>
<path d="M50.7103 68.6762C50.6894 68.701 50.6686 68.7258 50.6477 68.7506C50.6686 68.7258 50.6894 68.701 50.7103 68.6762Z" class="pineapple"/>
<path d="M50.7095 68.6763C51.2811 68.066 53.0757 67.7345 53.9195 68.1276C53.7992 68.2013 53.6961 68.2645 53.5652 68.321C53.2731 68.5001 51.1652 69.7092 51.4346 70.0524C51.6481 70.3235 54.1429 68.3571 54.5693 68.1076C53.4461 67.4129 51.5949 67.6136 50.7095 68.6763Z" class="pineapple"/>
<path d="M56.9229 64.0407L57.1923 64.0174L56.9584 63.7707C56.8691 63.8372 56.8597 63.9375 56.9229 64.0407Z" class="pineapple"/>
<path d="M53.0861 86.8665C53.0379 86.8842 52.9758 86.8986 52.9309 86.9025L52.8289 86.7168C52.7674 86.79 52.723 86.8526 52.6753 86.9291C52.2301 87.0128 50.4139 87.6176 50.6517 88.2757C50.7299 88.4997 52.0793 87.519 52.382 87.3571C52.1375 87.8261 51.796 88.6383 51.8115 89.1844C51.8182 88.7902 52.5057 87.636 52.83 87.2008C52.9198 87.193 53.0096 87.1853 53.1028 87.1636L52.9974 86.9918C53.0213 86.9535 53.0451 86.9153 53.0861 86.8665Z" class="pineapple"/>
<path d="M44.376 85.2297C44.3139 85.2442 44.2551 85.2447 44.193 85.2591L44.0982 85.1044C44.0644 85.1843 44.02 85.2469 43.9757 85.3096C43.6929 85.3883 40.6653 86.2154 41.2447 86.7942C41.36 86.9245 43.3681 85.7647 43.7439 85.6644C43.4584 86.1822 43.0398 86.8879 42.9034 87.4562C42.9799 87.1374 43.7611 86.0203 44.0993 85.5884C44.1924 85.5668 44.2856 85.5452 44.3787 85.5236L44.2839 85.3689C44.2939 85.3273 44.3349 85.2785 44.376 85.2297Z" class="pineapple"/>
<path d="M33.8389 82.2905C33.8383 82.2317 33.8549 82.1624 33.8682 82.107L33.703 82.1846C33.6542 82.1436 33.6055 82.1025 33.56 82.0476C33.5434 82.1169 33.5406 82.1896 33.5206 82.2727L33.3898 82.3293C33.4247 82.367 33.4491 82.3875 33.4874 82.4113C33.397 82.7268 32.8503 84.8823 33.2001 84.9516C33.5777 85.0275 33.7978 83.0722 33.7978 82.7057C34.1964 83.1825 34.3444 84.2148 34.238 84.6583C34.2779 84.492 34.3489 84.3185 34.3782 84.135C34.4864 83.5013 34.3101 82.77 33.8389 82.2905Z" class="pineapple"/>
<path d="M24.9543 83.764C24.839 83.2672 25.012 82.5465 24.3634 81.9511C24.3661 81.8784 24.3656 81.8197 24.3545 81.7437L24.217 81.828C24.1682 81.787 24.1056 81.7426 24.0396 81.7121C24.0507 81.7881 24.0651 81.8502 24.0485 81.9195L23.9143 81.9899L23.9908 82.0375C24.0047 82.0409 24.0152 82.0581 24.0291 82.0614C23.9969 82.3175 23.6903 84.6332 24.0661 84.5329C24.4764 84.4115 24.3262 82.7777 24.329 82.3386C24.793 82.7871 24.8174 83.1741 24.9543 83.764Z" class="pineapple"/>
<path d="M17.7473 76.9034C17.7639 76.8341 17.7667 76.7615 17.7556 76.6855L17.6043 76.7665C17.5522 76.7393 17.5034 76.6983 17.4546 76.6572C17.4551 76.716 17.4524 76.7886 17.4529 76.8474L17.3016 76.9283C17.3504 76.9694 17.3886 76.9932 17.4374 77.0342C17.3891 77.4184 17.582 78.8133 18.0677 78.9885C18.6226 79.1803 17.8476 77.6457 17.8388 77.4384C18.1814 77.8431 18.1841 78.1369 18.3443 78.6298C18.3942 78.7884 18.4092 78.1763 18.4092 78.1763C18.3111 77.669 18.0722 77.2599 17.7473 76.9034Z" class="pineapple"/>
<path d="M15.2198 84.9893C15.1006 84.8141 14.9792 84.0374 14.7131 83.6803C14.6593 83.4769 14.5745 83.2806 14.5379 83.0666L14.3283 83.2069C14.2934 83.1692 14.2585 83.1315 14.2236 83.0938C14.2413 83.142 14.259 83.1903 14.2596 83.249L14.0672 83.3787C14.1127 83.4336 14.1753 83.478 14.2241 83.519C14.2895 83.4907 14.3516 83.4763 14.417 83.448C14.4076 83.5484 14.3949 83.6626 14.3716 83.7596C14.4752 84.1216 14.1509 84.9233 14.4026 85.2182C14.906 85.8081 14.7702 84.2364 14.7552 84.1156C14.9997 84.3795 15.0374 84.711 15.2198 84.9893Z" class="pineapple"/>
<path d="M16.5539 91.217C16.3959 90.9592 16.3404 90.213 15.9662 89.7567C15.9341 89.6464 15.9158 89.5394 15.9147 89.4219L15.729 89.5239C15.6835 89.469 15.6519 89.4174 15.6064 89.3625C15.6037 89.4352 15.6147 89.5111 15.612 89.5837L15.4606 89.6647C15.485 89.6852 15.4922 89.7162 15.5166 89.7367C15.5549 89.7606 15.5759 89.795 15.6142 89.8188C15.9252 90.5384 16.2766 92.2498 16.0122 90.2368C16.2955 90.5833 16.3432 90.8733 16.5539 91.217Z" class="pineapple"/>
<path d="M20.6115 87.7492C20.4762 87.3356 20.2894 86.9536 20.0577 86.5755C20.0499 86.4857 20.0488 86.3681 20.0688 86.285L19.8792 86.3421C19.8509 86.2767 19.8088 86.2079 19.7805 86.1425C19.7639 86.2118 19.7544 86.3121 19.7206 86.392L19.5792 86.4313C19.6042 86.5106 19.6463 86.5794 19.7056 86.6376C19.9462 87.5895 20.5073 88.7942 20.0804 87.1526C20.2561 87.4586 20.4435 87.8994 20.6398 88.181C20.7518 88.3252 20.6076 87.7043 20.6115 87.7492Z" class="pineapple"/>
<path d="M27.7348 88.6675C27.7203 88.6054 27.7093 88.5294 27.6948 88.4673L27.5884 88.5444C27.5119 88.4967 27.4526 88.4385 27.3794 88.377C27.3838 88.4806 27.3849 88.5982 27.3894 88.7018L27.3345 88.7473C27.3622 88.7539 27.3866 88.7745 27.411 88.795C27.5036 89.081 27.5018 91.1035 27.9814 90.9987C28.385 90.905 27.8561 89.4442 27.8251 89.0849C27.9016 89.1326 27.9781 89.1803 28.0546 89.228C28.5697 89.5861 29.1967 90.4549 29.3802 90.8507C28.9494 89.8971 28.5946 89.2989 27.7348 88.6675Z" class="pineapple"/>
<path d="M37.5097 90.6914C37.5546 90.6875 37.5856 90.6803 37.6339 90.6626L37.5535 90.57C37.5807 90.5179 37.5973 90.4486 37.6106 90.3932L37.6206 90.3516C37.5585 90.366 37.4792 90.3909 37.4033 90.402L37.3123 90.2923L37.2685 90.4137C36.7541 90.4807 34.3529 92.1178 35.1573 92.3695C35.251 92.4067 36.6958 90.9065 37.1748 90.743C37.054 91.1244 36.4141 93.3015 37.3433 93.2167C36.683 93.2195 37.3849 91.0279 37.5097 90.6914Z" class="pineapple"/>
<path d="M37.3745 93.2092C37.4333 93.2086 37.4955 93.1942 37.5782 93.1554C37.4955 93.1942 37.4333 93.2086 37.3745 93.2092Z" class="pineapple"/>
<path d="M46.75 92.0736C47.1864 91.7825 48.1011 92.0021 48.2114 92.7029C48.1421 92.6862 48.0556 92.6801 47.9863 92.6635C47.6886 92.6213 43.825 92.7787 44.4132 93.5649C44.3816 93.5133 47.8849 92.903 48.411 92.9706C48.6505 91.9727 47.5162 91.5685 46.75 92.0736Z" class="pineapple"/>
<path d="M47.4996 96.4018C46.2344 97.5199 45.8541 98.2495 44.375 97.2056C43.3727 96.4959 42.8821 95.0589 41.8454 94.3703C40.1861 93.2831 40.4122 94.5394 41.6064 95.427C41.5548 95.4586 41.5171 95.4935 41.4656 95.5251C41.3757 95.5329 41.2754 95.5234 41.1961 95.5484C40.9649 95.5955 38.3315 97.1622 39.295 97.4227C39.3366 97.4327 40.7992 95.9808 41.22 95.8766C40.9001 96.4155 40.8673 97.3457 41.2765 97.8397C40.9444 97.4522 41.1617 96.3024 41.5515 95.8389C41.6723 95.8239 41.8071 95.8123 41.9279 95.7973L41.8886 95.6559C43.1648 96.8125 44.3311 99.1593 46.276 98.2628C47.0815 97.8992 50.3343 93.8133 50.418 93.8921C50.2678 93.7241 47.8356 96.1013 47.4996 96.4018Z" class="pineapple"/>
<path d="M30.763 96.3276C31.1755 97.9071 31.2171 95.7183 31.0486 95.0769C31.6268 95.5382 31.67 96.0909 31.7282 96.7645C31.721 96.7334 31.8951 96.1303 31.8408 95.868C31.527 94.1217 30.3683 94.7963 30.763 96.3276Z" class="pineapple"/>
<path d="M22.7086 92.3862C22.7152 92.3585 22.7219 92.3307 22.7286 92.303L22.6942 92.3241C22.6981 92.369 22.6881 92.4106 22.6642 92.4488C22.5611 92.512 22.468 92.5336 22.371 92.5104C22.3443 94.0871 22.5145 94.5383 22.6604 92.7704C22.8067 92.8935 22.9359 93.0271 23.0274 93.1956C23.1765 93.2461 23.1976 93.2804 23.0906 93.2987C23.2552 93.5288 23.4487 94.2495 23.4498 94.3671C23.431 93.4684 23.3095 93.0581 22.7086 92.3862Z" class="pineapple"/>
<path d="M17.1647 94.72L17.0721 94.8004C16.9573 94.7289 16.8082 94.6785 16.6901 94.6208C16.7599 94.6962 16.8686 94.8542 16.8559 94.9684L16.7633 95.0488C16.7877 95.0693 16.8292 95.0793 16.8536 95.0998C16.9545 95.9009 17.5366 96.7735 17.3415 95.5101C17.4319 95.5611 17.505 95.6226 17.5577 95.7085C17.9131 95.9991 18.1065 96.3533 18.4309 96.651C18.1764 96.4287 17.6104 95.428 17.1879 94.9895C17.2112 94.8925 17.2035 94.8026 17.1647 94.72Z" class="pineapple"/>
<path d="M26.4438 100.275C26.4316 101.181 27.0802 101.41 26.8624 100.302C26.7105 100.324 26.5652 100.319 26.4438 100.275Z" class="pineapple"/>
<path d="M27.4934 99.7498C27.2245 99.4654 27.0665 99.2076 26.7123 99.0346C26.7084 98.9897 26.7012 98.9587 26.6973 98.9138L26.6219 98.9836C26.5593 98.9393 26.4689 98.8883 26.3891 98.8544C26.3796 98.9548 26.3497 99.0795 26.368 99.1865L26.3819 99.1898C26.4417 99.3068 26.4395 99.4382 26.4096 99.563C26.5443 99.5513 26.6552 99.5779 26.7766 99.6217C26.7655 99.5458 26.7649 99.487 26.7677 99.4144C27.3032 99.7481 27.7357 100.512 27.7678 100.988C27.7329 100.584 27.7662 100.079 27.4934 99.7498Z" class="pineapple"/>
<path d="M37.0109 100.099L37.0159 99.8954C36.8951 99.9104 36.7986 99.9459 36.6955 100.009C36.3944 99.9808 33.1634 100.495 34.0332 101.085C34.1968 101.198 35.7391 100.146 36.3107 100.269C35.9609 100.566 35.4918 101.054 35.4065 101.532C35.4625 101.238 36.2614 100.535 36.6467 100.334C36.7609 100.347 36.8889 100.363 36.9965 100.404L37.0048 100.186C37.0497 100.182 37.098 100.164 37.129 100.157C37.0908 100.133 37.0492 100.123 37.0109 100.099Z" class="pineapple"/>
<path d="M23.1595 102.844C22.66 102.299 22.4266 100.278 21.2846 100.517C21.2685 101.012 21.3622 101.782 21.7286 102.148C22.3185 102.744 21.676 100.963 21.6466 100.78C21.6782 100.832 21.7237 100.886 21.7553 100.938C22.2414 101.538 22.6495 102.281 23.1595 102.844Z" class="pineapple"/>
<path d="M29.2708 103.826C28.7286 104.253 28.774 104.674 29.3966 104.34C29.7165 104.168 29.9017 103.64 30.2909 103.485C30.3147 103.446 30.3391 103.467 30.3363 103.54C30.5365 103.866 30.6157 104.941 31.2627 104.627C30.5054 104.973 31.0138 102.427 29.2708 103.826Z" class="pineapple"/>
<path d="M40.3546 104.977C40.2819 104.974 40.1921 104.982 40.1228 104.965L40.109 104.962L40.1056 104.976C39.6666 104.973 36.634 104.905 37.0271 105.527C37.1008 105.647 39.7591 105.259 40.0873 105.235C40.0568 105.301 40.0158 105.35 39.9609 105.395C39.9199 105.444 39.4387 105.739 39.5318 105.718C39.8184 105.684 40.1866 105.494 40.3119 105.216L40.3706 105.215L40.3357 105.178C40.3523 105.108 40.3518 105.05 40.3546 104.977Z" class="pineapple"/>
<path d="M40.3543 104.979L40.37 104.983L40.3581 104.963L40.3543 104.979Z" class="pineapple"/>
<path d="M56.1952 54.6752C56.1431 54.648 55.586 54.2211 55.5145 54.3359C55.4906 54.3741 59.0231 59.8101 58.5679 59.9354C59.1817 59.7602 56.8311 55.0184 56.1952 54.6752Z" class="pineapple"/>
<path d="M59.6826 63.3545C59.5445 63.38 59.6564 67.9217 59.4756 68.5526C59.4524 68.6496 59.3481 68.9617 59.5111 69.0155C60.2534 69.2816 60.3933 63.2026 59.6826 63.3545Z" class="pineapple"/>
<path d="M60.3038 70.9648C60.1968 70.9831 60.2836 78.7436 59.9821 78.6566C60.4638 78.7868 60.8415 74.0989 60.8049 73.5184C60.8132 73.3005 60.6281 70.8961 60.3038 70.9648Z" class="pineapple"/>
<path d="M19.1134 55.6983C18.8606 56.0187 16.6429 59.151 17.4806 59.2641C17.2245 59.232 20.5881 54.0734 20.8309 54.5275C20.5881 54.0734 19.2808 55.4893 19.1134 55.6983Z" class="pineapple"/>
<path d="M26.2791 49.297C25.7929 49.4295 20.0155 52.3083 20.9346 52.998C20.6247 52.7624 27.5792 48.5829 27.8608 49.1196C27.7705 48.7021 26.5308 49.2255 26.2791 49.297Z" class="pineapple"/>
<path d="M27.8604 49.1201C27.857 49.1339 27.8708 49.1372 27.8675 49.151C27.8708 49.1372 27.8741 49.1234 27.8604 49.1201Z" class="pineapple"/>
<path d="M16.4243 60.4909C15.7995 60.2237 11.7122 70.4123 11.308 71.5466C11.4261 71.6043 11.5408 71.6758 11.6589 71.7334C11.7399 71.5183 11.8485 71.3099 11.9295 71.0948C12.312 70.2338 16.7574 60.6295 16.4243 60.4909Z" class="pineapple"/>
<path d="M11.7184 80.6456C11.9696 79.0494 11.438 77.6612 11.3815 76.0646C11.3344 74.734 11.575 73.4872 11.5595 72.2082C11.463 72.2436 11.325 72.2691 11.1731 72.2913C11.1842 72.3673 11.1847 72.426 11.213 72.4915C11.6249 74.0122 11.1242 76.2813 11.3304 77.9872C11.4313 78.7883 10.5291 86.1501 11.4943 85.8541C10.8118 86.0714 11.6369 81.1683 11.7184 80.6456Z" class="pineapple"/>
<path d="M10.3275 81.6163C9.74985 81.5802 9.93166 83.2656 9.92611 83.4108C9.99096 84.0567 10.9044 90.755 11.802 90.2522C11.3275 90.5194 9.82248 81.583 10.3275 81.6163Z" class="pineapple"/>
<path d="M12.333 88.2834C11.6987 87.7501 12.3362 90.4683 12.6373 90.8631C12.7143 90.9695 12.7232 88.6117 12.333 88.2834Z" class="pineapple"/>
<path d="M12.6824 97.8806C12.3814 97.1194 11.6292 91.398 11.5843 91.4019C10.71 91.4412 11.7477 96.2783 11.9406 96.9403C12.3187 98.1744 12.949 99.3957 13.7812 100.387C14.019 100.679 16.3324 102.949 16.5886 102.248C16.4538 102.626 12.9551 98.5764 12.6824 97.8806Z" class="pineapple"/>
<path d="M15.5406 99.9592C15.4685 100.015 15.4258 100.254 15.4474 100.347C15.6182 100.857 19.0736 104.355 19.3065 104.117C19.3337 104.065 15.6503 99.8682 15.5406 99.9592Z" class="pineapple"/>
<path d="M20.8339 105.144C20.8527 105.309 20.9198 105.457 21.0351 105.588C21.3328 105.63 21.62 105.655 21.9 105.649C21.8723 105.642 21.8479 105.622 21.8235 105.601C21.7331 105.55 20.8954 105.07 20.8339 105.144Z" class="pineapple"/>
<path d="M22.7788 106.079C22.5038 106.248 21.8906 106.115 21.5824 106.056C24.4153 108.055 28.5988 108.825 31.9911 108.921C31.9773 108.918 32.4408 108.941 32.734 108.879C31.2455 109.035 23.5084 106.46 22.7788 106.079Z" class="pineapple"/>
<path d="M32.7443 108.897C32.9102 108.878 32.9929 108.839 32.999 108.752C32.9963 108.825 32.8825 108.871 32.7443 108.897Z" class="pineapple"/>
<path d="M59.8796 79.8774C60.1003 79.8131 59.0501 84.3103 58.8638 84.72C58.2201 86.1193 57.5631 87.574 56.9261 88.9456C56.1804 90.5256 54.9019 91.6992 54.3131 93.4195C53.6938 95.2058 53.5092 96.8911 52.3238 98.4096C51.5449 99.3953 50.8346 100.705 49.9404 101.561C48.7002 102.758 46.9322 103.712 45.5345 104.71C44.1163 105.733 42.7763 106.98 41.2739 107.865C41.3565 107.826 37.4241 109.125 37.7706 108.475C37.2434 109.39 40.9218 108.66 41.0837 108.596C42.9393 107.766 44.6136 106.043 46.2236 104.832C49.1692 102.636 51.8021 100.644 53.4581 97.348C54.2454 95.7779 54.2 93.8907 55.0566 92.3373C55.4951 91.5484 56.3029 91.0534 56.7315 90.3061C57.1667 89.531 57.2077 88.7493 57.5321 87.9477C58.1774 86.3582 59.3439 85.0405 59.8607 83.3762C59.854 83.4039 60.566 79.705 59.8796 79.8774Z" class="pineapple"/>
<path d="M63.5079 69.3427C61.1825 67.7041 59.0601 66.5712 52.3147 65.2151C46.7942 64.1308 42.3385 64.968 38.4047 63.8575C34.5236 62.7611 30.9875 60.7981 25.8468 59.1386C20.4955 57.4226 16.3773 57.8424 13.9474 58.4889C11.4648 59.1214 12.7711 61.6153 13.258 62.5356C13.7448 63.4559 13.6768 67.4998 15.5076 71.8267C17.4783 76.4733 22.4123 77.8518 26.9901 77.6115C31.582 77.3187 35.0061 70.2248 35.8325 69.0357C36.6729 67.7941 37.126 67.577 37.8244 67.7077C38.5896 67.7999 39.0172 68.3094 39.1525 69.6997C39.2595 71.1952 39.1658 79.125 43.1859 81.387C47.2061 83.649 52.2285 84.487 56.0517 81.1672C59.5798 78.1069 61.2938 74.4476 62.137 73.8273C63.0084 73.1017 65.5983 70.8055 63.5079 69.3427Z" class="frames"/>
<path opacity="0.4" d="M60.1212 71.8768C59.5081 73.7436 56.6961 79.8167 52.6963 81.0581C48.6964 82.2995 43.6018 80.2574 42.2232 76.5593C41.1349 73.6725 41.4802 69.6465 41.6364 68.2215C41.8772 66.4806 42.4882 66.3058 44.1275 66.2937C47.129 66.2517 54.0435 66.9761 57.6539 68.4513C60.7135 69.666 60.5546 70.4697 60.1212 71.8768Z" class="lens"/>
<path opacity="0.4" d="M15.9936 61.8019C15.7631 63.7148 15.5971 70.4405 18.6688 73.2946C21.7405 76.1487 27.1671 76.5308 30.0945 73.8172C32.3506 71.7137 33.8155 67.9313 34.2348 66.5768C34.7388 64.9065 34.3356 64.5163 32.7884 63.7632C30.1011 62.4226 24.8908 60.1802 19.6889 59.8019C16.4281 59.5488 16.1639 60.3242 15.9936 61.8019Z" class="lens"/>
</svg>
