<?xml version="1.0" encoding="UTF-8"?><svg xmlns="http://www.w3.org/2000/svg" width="106" height="106" viewBox="0 0 106 106" fill="none" version="1.2" baseProfile="tiny-ps"><title>bimi</title><rect width="106" height="106" fill="#FFE68F"></rect><path d="M36.0322 14.0651C40.5528 14.1291 47.4497 15.5838 51.4365 23.0589C54.2044 12.3051 56.947 7.7445 58.5871 5.85228C59.2699 5.06071 60.5612 5.18554 61.0724 6.10232C64.0466 11.4412 64.3466 17.9466 63.8697 23.2335C69.2506 17.9983 75.6997 18.1739 79.8401 19.0716C81.4129 19.4116 81.7448 21.48 80.3544 22.2797C70.39 28.0078 67.4053 37.0979 67.4053 37.0979L44.0804 34.4297C44.0804 34.4297 43.2181 24.8948 34.8068 17.0689C33.6308 15.9872 34.4228 14.0441 36.0322 14.0651Z" fill="#30E542"></path><path d="M67.5115 37.2661L67.3925 37.2503L43.9487 34.5664L43.9375 34.4476C43.9264 34.3503 42.9834 24.8751 34.7075 17.1785C34.1222 16.6349 33.9409 15.8357 34.2352 15.0997C34.5348 14.3528 35.219 13.8908 36.0346 13.9094C40.8739 13.9776 47.4308 15.5579 51.3892 22.6548C54.0671 12.3661 56.7178 7.78421 58.4816 5.75102C58.8365 5.33897 59.3757 5.13158 59.9215 5.18897C60.4726 5.24634 60.9381 5.55261 61.2045 6.02717C63.6514 10.4223 64.6125 16.0822 64.0548 22.8556C69.3397 17.9234 75.5561 17.9864 79.8802 18.9266C80.6748 19.0965 81.2441 19.6997 81.3658 20.4936C81.4877 21.2767 81.134 22.0131 80.4388 22.4102C70.6414 28.0403 67.5863 37.0551 67.5542 37.1471L67.5115 37.2661ZM44.2125 34.3061L67.305 36.9481C67.6952 35.8765 70.9851 27.504 80.2812 22.1622C80.8686 21.8249 81.1687 21.2076 81.0637 20.5488C80.9585 19.8791 80.4759 19.3729 79.8057 19.224C75.4762 18.2839 69.2166 18.2372 63.9648 23.3477L63.6795 23.6244L63.7158 23.2297C64.3381 16.3479 63.4037 10.6124 60.9352 6.18491C60.7176 5.79123 60.3332 5.54409 59.8794 5.49716C59.431 5.45021 58.9834 5.62484 58.693 5.96098C56.9346 7.99415 54.2679 12.6193 51.5747 23.108L51.4788 23.4759L51.2993 23.1415C47.4322 15.8929 40.8588 14.2911 36.0249 14.2229C36.0142 14.2229 36.0033 14.2229 35.9925 14.223C35.3175 14.2255 34.7519 14.6059 34.5003 15.2284C34.2543 15.8508 34.4026 16.5203 34.9012 16.9778C42.7597 24.2761 44.0785 33.1771 44.2125 34.3061Z" fill="#000072"></path><path d="M62.1574 31.5589C61.6007 31.4367 61.0331 31.3254 60.4602 31.2195L65.5797 22.5103L65.3023 21.9818C64.8177 22.3619 64.3332 22.7745 63.8651 23.2356C63.9532 22.2571 64.0141 21.2301 64.0372 20.1816C60.809 22.0095 58.2927 27.8609 57.2179 30.7183C57.1585 30.713 57.1045 30.7025 57.0451 30.6973C56.7911 30.6712 56.5426 30.6452 56.294 30.6191C55.4075 27.5313 53.1188 22.1142 52.2416 20.064C51.9697 21.0053 51.698 21.9952 51.4265 23.0555C51.1491 22.5323 50.8556 22.0471 50.5514 21.5834L50.3208 21.9897L52.7936 30.3945C52.4641 30.3849 52.1346 30.3754 51.8105 30.3712C47.99 19.7395 35.2145 19.0042 35.2145 19.0042L45.3312 30.7684C44.6726 30.8575 44.0141 30.9572 43.3718 31.0731C43.9466 33.119 44.065 34.4264 44.065 34.4264L67.3898 37.0946C67.3898 37.0946 67.8492 35.7094 68.9918 33.6839L69.2513 33.7262C70.3347 31.7119 72.9946 28.1459 74.6283 26.0105C66.8445 25.6346 63.3493 29.6846 62.1574 31.5589Z" fill="#000072"></path><path d="M67.4126 38.3493C67.364 38.3495 67.3153 38.3443 67.2668 38.3391L43.9419 35.6709C43.3583 35.6029 42.8975 35.1344 42.8467 34.5457C42.8409 34.4592 41.8993 25.3676 33.9649 17.9831C33.0545 17.1327 32.7634 15.8422 33.2235 14.6948C33.6889 13.5366 34.7933 12.8083 36.0571 12.8143C39.8541 12.8648 46.4685 13.9315 50.9794 19.9996C53.4952 11.1544 55.9638 6.98929 57.6523 5.03746C58.2385 4.35973 59.1337 4.01049 60.0305 4.09898C60.9274 4.19287 61.7233 4.71407 62.1583 5.49603C64.4039 9.52982 65.449 14.5463 65.2822 20.4428C70.4263 16.8297 76.0543 16.976 80.1027 17.8577C81.3297 18.1234 82.2461 19.0926 82.4397 20.3294C82.6279 21.5554 82.0546 22.7465 80.9768 23.3667C71.5783 28.7684 68.6188 37.4099 68.5868 37.4965C68.4213 38.0051 67.9418 38.3473 67.4126 38.3493ZM45.1805 33.3101L66.5981 35.7585C67.6794 33.1874 71.2873 26.0674 79.7426 21.2043C80.0014 21.0574 80.0059 20.8305 79.9893 20.7062C79.9672 20.5766 79.8907 20.3553 79.5827 20.2862C75.5179 19.4044 69.6418 19.3509 64.7397 24.1251C64.3684 24.4885 63.8072 24.5825 63.3364 24.3573C62.8657 24.132 62.583 23.6414 62.6351 23.1223C63.0499 18.5436 62.9279 11.978 59.9918 6.7093C59.9374 6.61223 59.8455 6.58556 59.7806 6.5804C59.7212 6.57523 59.6186 6.58102 59.538 6.67319C58.1614 8.26718 55.434 12.5521 52.6501 23.3762C52.5224 23.8739 52.1025 24.243 51.5951 24.3042C51.0823 24.3656 50.5898 24.1081 50.3505 23.6551C46.7335 16.8758 40.5657 15.3805 36.0288 15.3165L36.018 15.3165C35.7101 15.3177 35.5867 15.5127 35.5385 15.6318C35.4904 15.7455 35.448 15.9672 35.6648 16.1717C42.7971 22.8081 44.7057 30.5612 45.1805 33.3101Z" fill="#000072"></path><path d="M42.8753 37.9697C42.1149 35.3733 39.7114 28.1571 35.6278 25.1138C34.9399 24.603 35.2221 23.5211 36.0696 23.3935C39.9235 22.8224 47.4112 23.4427 52.0454 35.0116C52.2526 35.535 51.9794 36.1251 51.4453 36.2946L44.0875 38.6136C43.5751 38.7831 43.0285 38.488 42.8753 37.9697Z" fill="#30E542"></path><path d="M43.8025 38.8175C43.6241 38.8183 43.4404 38.7757 43.278 38.6845C43.0129 38.5395 42.8176 38.3025 42.7355 38.0164C41.9039 35.1662 39.5391 28.2146 35.5422 25.2413C35.1793 24.9669 35.021 24.5245 35.1329 24.0863C35.2446 23.6427 35.5944 23.3225 36.0478 23.256C40.0798 22.6572 47.541 23.3802 52.186 34.9652C52.3004 35.2567 52.2909 35.5809 52.157 35.8624C52.023 36.144 51.7861 36.3503 51.4895 36.4432L44.1316 38.7623C44.0238 38.8005 43.9158 38.8172 43.8025 38.8175ZM43.016 37.9343C43.0762 38.1501 43.2226 38.3226 43.4175 38.43C43.6123 38.5318 43.8339 38.5526 44.0442 38.487L51.402 36.1679C51.6178 36.0969 51.7954 35.9449 51.8919 35.7391C51.9883 35.5334 51.9982 35.2902 51.911 35.0798C47.3423 23.6835 40.0379 22.9654 36.0921 23.5477C35.6926 23.6086 35.4832 23.9012 35.4194 24.1555C35.3395 24.4799 35.4542 24.8038 35.7195 25.0028C39.7815 28.0299 42.1789 35.0516 43.016 37.9343Z" fill="#000072"></path><path d="M42.8744 37.6789C43.0276 38.1971 43.5741 38.4922 44.0866 38.3282L51.4444 36.009C51.9785 35.8395 52.2571 35.2441 52.0445 34.7261C51.4775 33.3177 50.8734 32.0716 50.2373 30.9717C46.9324 31.0814 43.7856 31.531 40.8882 32.2606C41.874 34.4618 42.5406 36.5237 42.8744 37.6789Z" fill="#000072"></path><path d="M43.8063 39.918C43.4445 39.9193 43.0877 39.8288 42.763 39.6571C42.2326 39.3727 41.8528 38.904 41.6833 38.3264C41.0594 36.1833 38.7208 28.9776 34.8864 26.1226C34.1715 25.5902 33.8494 24.6836 34.0676 23.8181C34.2858 22.9472 35.0016 22.3014 35.8869 22.1684C37.9488 21.8634 41.0866 21.8515 44.3388 23.5524C48.0725 25.4999 51.057 29.2013 53.1995 34.5596C53.4286 35.1315 53.4094 35.78 53.1468 36.3323C52.8843 36.8845 52.3998 37.3079 51.8172 37.4938L44.4594 39.8128C44.2491 39.8839 44.0277 39.9171 43.8063 39.918ZM36.9112 24.5531C40.7905 27.8512 43.0887 34.3545 43.9911 37.3557L50.7825 35.2117C46.7382 25.3861 40.6148 24.2096 36.9112 24.5531Z" fill="#000072"></path><path d="M67.6269 42.8943C68.9195 40.5171 72.8051 33.9797 77.4417 31.8763C78.2234 31.522 78.1815 30.4036 77.381 30.0986C73.7358 28.7181 66.2899 27.7301 59.2971 38.0513C58.9802 38.5173 59.123 39.1545 59.6101 39.4335L66.3052 43.2669C66.7707 43.5407 67.3695 43.3656 67.6269 42.8943Z" fill="#30E542"></path><path d="M66.7791 43.5447C66.5847 43.5454 66.3955 43.4975 66.2277 43.3955L59.5325 39.5621C59.2619 39.4065 59.0774 39.1532 59.006 38.8507C58.9346 38.5484 58.9983 38.224 59.1701 37.9693C66.1737 27.6373 73.6139 28.5171 77.4268 29.9618C77.8541 30.1224 78.1309 30.5104 78.1489 30.9697C78.1614 31.4235 77.9145 31.8244 77.4993 32.0097C72.9651 34.0642 69.1705 40.3527 67.7545 42.9628C67.6097 43.2281 67.3727 43.4181 67.0814 43.5003C66.9789 43.5277 66.8817 43.5443 66.7791 43.5447ZM72.7638 29.3958C68.9563 29.4101 64.0918 31.228 59.4138 38.1359C59.2849 38.3256 59.2426 38.5635 59.292 38.7848C59.3415 39.0062 59.4825 39.1949 59.6775 39.3076L66.3726 43.1409C66.562 43.2482 66.789 43.2798 66.9993 43.2196C67.2152 43.1593 67.3874 43.0182 67.4947 42.8232C68.9268 40.1914 72.759 33.8379 77.3795 31.7454C77.6814 31.6092 77.864 31.3166 77.8573 30.9815C77.8509 30.7168 77.7038 30.3823 77.3253 30.2432C76.1245 29.783 74.5623 29.389 72.7638 29.3958Z" fill="#000072"></path><path d="M64.2896 32.4158C62.7282 33.7132 61.147 35.4539 59.5841 37.7564C59.2671 38.2224 59.41 38.8596 59.8971 39.1388L66.5923 42.972C67.0631 43.2404 67.6566 43.0707 67.914 42.5942C68.7132 41.132 70.4947 38.0882 72.8288 35.4747C70.2479 34.2144 67.3708 33.1823 64.2896 32.4158Z" fill="#000072"></path><path d="M66.7815 44.6402C66.3981 44.6416 66.0251 44.5404 65.6841 44.347L58.989 40.5138C58.4586 40.2077 58.0732 39.6957 57.9359 39.0965C57.7986 38.4971 57.915 37.8591 58.2587 37.3497C61.492 32.5765 65.1964 29.5903 69.259 28.4834C72.7983 27.5189 75.863 28.1937 77.8154 28.9321C78.6537 29.2478 79.213 30.0346 79.2433 30.9316C79.2737 31.8231 78.7637 32.6411 77.9496 33.0062C73.5987 34.9789 69.778 41.5269 68.7161 43.4818C68.4318 44.007 67.9525 44.3871 67.3753 44.5515C67.1811 44.6117 66.9814 44.6394 66.7815 44.6402ZM60.4882 38.5032L66.6691 42.0412C68.1818 39.3011 71.816 33.44 76.3058 31.0399C72.7587 29.9238 66.5257 29.7636 60.4882 38.5032Z" fill="#000072"></path><path d="M48.936 100.154L48.4552 100.102C34.0778 98.4913 23.7298 85.5227 25.3444 71.1417L27.2149 54.4036C28.6778 41.3202 40.4644 31.8996 53.5451 33.3634L58.7266 33.9437C71.8018 35.4076 81.2165 47.2017 79.7536 60.2904L77.8831 77.0286C76.2685 91.4096 63.3079 101.764 48.936 100.154Z" fill="#FFD225"></path><path d="M51.967 100.469C50.9571 100.473 49.9415 100.417 48.915 100.302L48.434 100.25C34.0028 98.6345 23.5734 85.5688 25.1932 71.1283L27.0636 54.3903C27.7741 48.0216 30.9229 42.3138 35.9251 38.3175C40.9273 34.3212 47.1907 32.5088 53.55 33.2252L58.7315 33.8056C71.8661 35.28 81.3568 47.171 79.8886 60.3139L78.0182 77.052C76.5187 90.4599 65.1445 100.419 51.967 100.469ZM50.7529 33.3655C45.4387 33.3855 40.3257 35.1828 36.115 38.5492C31.172 42.4966 28.0608 48.1393 27.3608 54.427L25.4904 71.165C23.8915 85.4433 34.2015 98.3634 48.4762 99.9634L48.957 100.016C63.2263 101.61 76.1384 91.299 77.7373 77.0153L79.6077 60.2771C81.0601 47.2911 71.6889 35.5509 58.711 34.092L53.5295 33.5117C52.5947 33.4071 51.6711 33.362 50.7529 33.3655Z" fill="#000072"></path><path d="M76.6107 77.9069C73.5136 80.1072 70.13 82.2546 66.4276 84.36C62.1392 81.3984 58.294 78.565 54.8383 75.8814C58.8267 73.7587 62.874 71.4467 66.7209 69.0058C71.4549 72.6466 75.2292 75.3343 76.8592 76.4847C77.0162 76.5922 77.1893 76.6564 77.3622 76.6773C77.5513 76.6982 77.7456 76.6704 77.9181 76.5941L78.1271 74.7236C78.1217 74.7182 78.1162 74.7128 78.1108 74.7074C76.3239 73.455 72.9015 71.009 68.6605 67.761C72.3239 65.3531 75.76 62.8273 78.7422 60.2436C78.8396 60.2865 78.9424 60.3186 79.045 60.329C79.299 60.355 79.5472 60.2892 79.7627 60.148L79.9403 58.5477C80.0135 57.9097 80.0489 57.2719 80.0681 56.6395C79.7547 56.5975 79.4256 56.6852 79.1781 56.9239C78.9735 57.1139 78.769 57.3092 78.5591 57.4991C75.7812 55.5262 72.4875 52.8906 69.0791 49.8718C71.939 47.7535 74.3563 45.7286 76.3419 43.8026C75.9346 43.1936 75.4948 42.6062 75.0283 42.0404C72.9028 44.129 70.3077 46.2627 67.4209 48.3757C65.0039 46.1746 62.57 43.8059 60.244 41.372C62.463 39.7533 64.5845 38.07 66.5277 36.3441C66.6838 36.2085 66.7857 36.0352 66.839 35.8459C66.1466 35.5457 65.4327 35.2783 64.6973 35.0432C62.8564 36.6606 60.8479 38.2408 58.7365 39.7672C56.768 37.6347 54.9128 35.4693 53.2631 33.3408L51.788 33.1735C51.6799 33.1631 51.5719 33.1581 51.4638 33.1477C51.1305 33.5327 51.1002 34.111 51.4258 34.5259C53.0866 36.6813 54.958 38.8736 56.9483 41.0332C53.3016 43.5545 49.438 45.9036 45.7303 47.9873C43.4586 45.6937 41.4576 43.5126 39.7378 41.444C42.4267 39.845 44.4734 38.3891 47.4036 36.3028C48.2062 35.7324 49.0788 35.1129 50.0484 34.4284C50.49 34.1187 50.6282 33.5399 50.3996 33.0653C49.6596 33.0302 48.9305 33.0276 48.2016 33.0681C47.4636 33.5897 46.7795 34.0733 46.144 34.5296C43.1762 36.643 41.1348 38.099 38.3595 39.7307C37.7301 38.9224 37.1383 38.1249 36.6007 37.354C36.5574 37.2948 36.5086 37.2409 36.4597 37.1871C35.878 37.6054 35.318 38.0507 34.7798 38.5229C34.796 38.5498 34.8069 38.5714 34.8233 38.5983C35.3337 39.3314 35.8818 40.0697 36.4518 40.8133C34.7756 41.7383 32.7974 42.7617 30.2692 44.0088C29.7004 44.9837 29.2074 46.0069 28.7901 47.0731C28.9197 47.0618 29.0438 47.0289 29.1678 46.9689C32.9414 45.139 35.6419 43.7561 37.8354 42.5373C39.6204 44.7031 41.6215 46.9004 43.7631 49.0755C39.4189 51.4427 35.3975 53.4033 32.3134 54.7985C31.1525 53.4032 30.1973 52.1746 29.4319 51.1237C29.079 50.6386 28.3981 50.5332 27.9134 50.8863C27.8003 50.9677 27.7088 51.0708 27.6391 51.1846C27.5861 51.4657 27.544 51.7523 27.5018 52.0335C27.5347 52.1631 27.5892 52.2926 27.6761 52.4057C28.3764 53.365 29.2285 54.475 30.2485 55.7142C28.8843 56.2975 27.8273 56.7176 27.1693 56.9363C27.083 56.9689 27.0021 57.0126 26.9267 57.0615L26.7386 58.7266C26.912 58.9043 27.1447 59.0223 27.3986 59.0484C27.5499 59.064 27.7119 59.0525 27.8683 58.998C28.672 58.7248 30.004 58.201 31.724 57.4541C33.6713 59.7002 36.1115 62.3067 39.136 65.2189C33.3792 68.1696 28.7158 70.3596 26.6132 71.3294C26.5047 71.2164 26.3909 71.1034 26.2824 70.9849C26.0439 70.7371 25.7194 70.6248 25.4009 70.6531L25.1291 73.0589C25.1082 73.2535 25.0981 73.4427 25.0773 73.6374C25.2508 73.8151 25.478 73.9278 25.7212 73.9592C25.8454 73.975 25.9696 73.9583 26.0937 73.9308C29.108 76.9944 32.3541 79.9328 35.659 82.7034C32.0788 84.2571 29.1506 85.4246 27.2953 86.1179C27.6057 86.7814 27.9484 87.4286 28.318 88.0595C30.3943 87.2789 33.6244 85.9752 37.5389 84.2581C41.4339 87.4319 45.3605 90.3623 49.0321 92.9802C45.7268 94.4193 42.2488 95.8484 38.5816 97.2673C38.4738 97.3109 38.3821 97.3706 38.296 97.4358C39.1888 97.8863 40.1247 98.2828 41.0819 98.625C44.5925 97.2391 47.9303 95.8485 51.1061 94.4423C54.0192 96.4849 56.7265 98.3121 59.0764 99.892C59.9236 99.6943 60.7544 99.4587 61.5634 99.1746C61.487 98.9751 61.3514 98.7972 61.1564 98.6682C58.9095 97.1582 56.2727 95.3901 53.419 93.4068C58.0826 91.2816 62.3735 89.1255 66.324 86.9273C68.3545 88.3139 70.4822 89.7272 72.7019 91.167C73.148 90.598 73.5671 90.0019 73.959 89.3898C72.0425 88.1487 70.2016 86.9289 68.4311 85.7305C71.7076 83.8374 74.7356 81.9076 77.531 79.9353C77.5784 79.6109 77.6312 79.2865 77.6678 78.9621L77.7879 77.8646C77.4252 77.6444 76.9716 77.6515 76.6107 77.9069ZM52.9802 74.4077C49.0854 71.3042 45.7315 68.4094 42.8483 65.7452C43.894 65.1955 44.9666 64.6294 46.0552 64.0471C49.1113 62.4035 51.9839 60.7931 54.6729 59.2212C58.211 62.2666 61.7213 65.1067 64.9009 67.5859C61.0324 70.0161 56.9688 72.3067 52.9802 74.4077ZM67.2802 51.1701C70.7104 54.2268 74.0419 56.9216 76.8851 58.9699C73.908 61.5049 70.4878 63.982 66.8459 66.3465C64.0022 64.1361 60.8711 61.6242 57.6583 58.9073C57.3169 58.6168 56.9864 58.3316 56.6504 58.0464C60.6381 55.6644 64.1831 53.365 67.2802 51.1701ZM58.4557 42.638C60.771 45.0718 63.1995 47.4405 65.6166 49.6579C62.2661 52.0105 58.6078 54.3318 54.9058 56.5344C52.1478 54.1238 49.6277 51.8095 47.351 49.5863C51.0319 47.508 54.8413 45.1644 58.4557 42.638ZM33.7835 56.5276C36.9754 55.0727 41.0292 53.085 45.3677 50.6961C47.7909 53.0864 50.3489 55.4384 52.9227 57.6985C48.881 60.0482 44.8441 62.2359 41.1573 64.1574C38.1653 61.3046 35.7361 58.7468 33.7835 56.5276ZM28.2126 72.9825C30.6818 71.8383 35.2966 69.6485 40.8001 66.8122C43.6616 69.4818 46.994 72.3929 50.8726 75.5072C46.2316 77.8917 41.7624 79.9945 37.8804 81.7222C34.5485 78.9626 31.2647 76.0405 28.2126 72.9825ZM51.3396 91.9447C47.6682 89.3484 43.7038 86.4289 39.7602 83.2554C43.6852 81.4896 48.1383 79.3707 52.7307 76.9863C56.1757 79.697 60.0265 82.552 64.315 85.5406C60.3429 87.7118 56.0249 89.841 51.3396 91.9447Z" fill="#F0C423"></path><path d="M79.3798 65.7623C78.9469 69.8394 78.277 72.6849 78.277 72.6849C78.277 72.6849 79.4243 70.3943 79.3798 65.7623Z" fill="white"></path><path d="M77.8414 73.8626L78.1285 72.6511C78.1338 72.6241 78.7981 69.7628 79.2312 65.7458L79.523 65.761C79.5673 70.376 78.4525 72.6552 78.4043 72.7527L77.8414 73.8626Z" fill="#000072"></path><path d="M69.3284 38.6593C69.3284 38.6593 56.591 29.3852 44.5502 34.4187C32.5093 39.452 31.9447 44.4042 31.9447 44.4042C31.9447 44.4042 35.7839 39.9153 43.1893 37.3312C43.1895 37.3474 43.1895 37.3636 43.1896 37.3798C43.311 38.0819 44.6895 38.428 46.2708 38.1517C47.8522 37.8809 49.0321 37.093 48.9106 36.3909C48.8829 36.2288 48.7852 36.0833 48.6335 35.965C54.1984 35.0848 61.1181 35.4695 69.3284 38.6593Z" fill="#F5D972"></path><path d="M51.9709 101.57C50.9232 101.574 49.8645 101.518 48.7947 101.398L48.3138 101.346C33.2828 99.6624 22.4193 86.0526 24.1016 71.0067L25.9721 54.2686C26.7193 47.608 30.0074 41.6403 35.2411 37.4594C40.4749 33.2784 47.0188 31.3839 53.6753 32.1316L58.8568 32.712C72.5965 34.2489 82.5213 46.6842 80.9799 60.4326L79.1094 77.1708C77.5473 91.1462 65.6994 101.518 51.9709 101.57ZM50.7569 34.4663C45.6911 34.4855 40.8153 36.1954 36.7931 39.4098C32.0817 43.1779 29.1153 48.5554 28.4412 54.5511L26.5708 71.2892C25.0399 84.9673 34.9158 97.3433 48.5854 98.8751L49.0662 98.9274C62.7358 100.459 75.104 90.5772 76.6349 76.899L78.5054 60.161C79.8899 47.7803 70.9528 36.5789 58.5745 35.1935L53.3931 34.6132C52.5177 34.5084 51.6319 34.4632 50.7569 34.4663Z" fill="#000072"></path><path d="M59.0436 34.6813C58.9789 34.6815 58.9087 34.6764 58.8438 34.6659C58.1629 34.5604 57.7014 33.919 57.8124 33.2431C59.3896 23.2828 66.9039 19.4824 67.222 19.3299C67.8419 19.025 68.5827 19.2816 68.8875 19.8965C69.1922 20.5114 68.9358 21.2581 68.3213 21.563C68.041 21.7047 61.6374 24.9982 60.2657 33.6337C60.1708 34.2393 59.6431 34.6791 59.0436 34.6813Z" fill="#000072"></path><path d="M53.862 33.8816C53.835 33.8817 53.808 33.8819 53.7756 33.8765C53.0895 33.8305 52.5689 33.2433 52.6148 32.5569C53.0993 24.9677 47.5504 20.0439 47.4963 19.9954C46.9761 19.5435 46.9245 18.7601 47.3763 18.2396C47.828 17.7191 48.6108 17.6675 49.131 18.1195C49.3966 18.3509 55.6607 23.9151 55.0999 32.7205C55.059 33.3746 54.5101 33.8792 53.862 33.8816Z" fill="#000072"></path><path d="M57.6344 25.3327C57.7988 25.9807 57.8984 26.618 57.9819 27.2499C58.0598 27.8873 58.1162 28.5194 58.151 29.1461C58.1803 29.7783 58.2097 30.405 58.1635 31.0266C58.1227 31.6483 58.0439 32.2646 57.8463 32.8706C57.6274 33.5362 56.9051 33.901 56.2401 33.682C55.7425 33.5162 55.4168 33.0798 55.3718 32.5881C55.3153 31.9561 55.3779 31.3344 55.4781 30.7233C55.5785 30.1069 55.7436 29.5011 55.9141 28.8952C56.0847 28.2892 56.2876 27.6832 56.5068 27.0825C56.7314 26.4819 56.9722 25.881 57.2777 25.2909C57.326 25.1988 57.4393 25.1605 57.5367 25.2089C57.5907 25.241 57.6234 25.2842 57.6344 25.3327Z" fill="#000072"></path><path d="M45.2825 62.5531C45.5278 60.2824 44.4564 58.3031 42.8841 58.1308C41.3119 57.9584 39.8385 59.6608 39.5933 61.9315C39.348 64.2021 40.4194 66.1814 41.9917 66.3538C43.5639 66.5261 45.0373 64.8237 45.2825 62.5531Z" fill="#000072"></path><path d="M42.8434 61.4584C42.9321 60.6203 42.562 59.8975 42.0108 59.8347C41.4597 59.7773 40.9434 60.4063 40.8494 61.239C40.7607 62.0772 41.1308 62.7999 41.6819 62.8628C42.2331 62.9255 42.7494 62.2966 42.8434 61.4584Z" fill="white"></path><path d="M41.7507 63.0128C41.7183 63.0129 41.6913 63.0129 41.6587 63.0077C41.0211 62.9398 40.5969 62.1523 40.696 61.2223C40.7429 60.7898 40.8982 60.3946 41.1348 60.1072C41.3874 59.8036 41.7002 59.6511 42.0136 59.6877C42.6512 59.7556 43.0755 60.5431 42.9764 61.4732C42.9294 61.9058 42.7743 62.3009 42.5376 62.5882C42.3119 62.8647 42.0369 63.0117 41.7507 63.0128ZM41.9282 59.9745C41.7338 59.9753 41.5343 60.0841 41.3622 60.2902C41.1634 60.5342 41.0295 60.8751 40.9877 61.2537C40.9095 61.9944 41.2253 62.6634 41.6902 62.7157C41.9009 62.7365 42.1273 62.6276 42.3101 62.3998C42.509 62.156 42.6428 61.8149 42.6846 61.4364C42.7628 60.6956 42.447 60.0266 41.9823 59.9743C41.9715 59.9744 41.9499 59.9744 41.9282 59.9745Z" fill="#000072"></path><path d="M48.3988 64.3329C48.1825 67.1118 49.3877 70.1827 51.3057 70.3268C53.2239 70.4763 55.1199 67.6478 55.3364 64.8688L48.3988 64.3329Z" fill="#000072"></path><path d="M48.8135 67.7114C49.5192 67.1899 50.4687 66.9052 51.4793 66.9934C52.6031 67.0919 53.5666 67.6286 54.169 68.3831C53.4012 69.5967 52.3563 70.4114 51.3027 70.3289C50.1843 70.2466 49.3052 69.1581 48.8135 67.7114Z" fill="#F47DA2"></path><path d="M51.4554 70.5018C51.4014 70.502 51.342 70.5022 51.2879 70.497C50.1749 70.4093 49.2151 69.413 48.6525 67.7667L48.6143 67.6533L48.7112 67.5827C49.4815 67.0123 50.469 66.7438 51.4901 66.8372C52.6195 66.9355 53.637 67.4668 54.2937 68.2859L54.3642 68.3775L54.3052 68.475C53.4836 69.7699 52.4547 70.4981 51.4554 70.5018ZM49.0037 67.7707C49.5222 69.2227 50.3628 70.0951 51.3137 70.1726C52.1998 70.2395 53.1859 69.5818 53.9645 68.4007C53.3678 67.7003 52.4586 67.2497 51.4645 67.1615C50.5675 67.0785 49.6986 67.2979 49.0037 67.7707Z" fill="#000072"></path><path d="M51.4704 71.1639C51.3949 71.1643 51.3192 71.1592 51.2489 71.154C50.0388 71.0613 48.9932 70.1735 48.3015 68.6576C47.7243 67.379 47.4591 65.7804 47.5775 64.2669C47.6135 63.8074 48.0174 63.4653 48.4712 63.5015L55.4077 64.0373C55.6291 64.0527 55.8348 64.16 55.9759 64.327C56.1223 64.494 56.1933 64.7153 56.1725 64.9316C55.9354 67.9426 53.8953 71.1549 51.4704 71.1639ZM49.2176 65.228C49.2483 66.2005 49.4625 67.1833 49.8166 67.9656C50.2358 68.8881 50.805 69.4479 51.3722 69.489C52.5554 69.5872 53.9525 67.7068 54.3876 65.6246L49.2176 65.228Z" fill="#000072"></path><path d="M64.0527 64.3777C64.298 62.1071 63.2266 60.1278 61.6543 59.9554C60.0821 59.7829 58.6088 61.4855 58.3635 63.7561C58.1182 66.0268 59.1896 68.006 60.7618 68.1784C62.3286 68.3508 63.8074 66.6484 64.0527 64.3777Z" fill="#000072"></path><path d="M61.619 63.2814C61.7076 62.4433 61.3377 61.7205 60.7864 61.6577C60.2352 61.6003 59.7191 62.2293 59.6249 63.062C59.5362 63.9002 59.9063 64.6229 60.4575 64.6858C61.0088 64.7485 61.5249 64.1196 61.619 63.2814Z" fill="white"></path><path d="M60.5282 64.838C60.4958 64.8381 60.4635 64.8382 60.4364 64.833C59.7988 64.7651 59.3745 63.9776 59.4736 63.0475C59.5206 62.6149 59.6757 62.2198 59.9124 61.9325C60.1651 61.6288 60.4724 61.4763 60.7913 61.5129C61.4289 61.5808 61.8531 62.3684 61.754 63.2983C61.6601 64.1851 61.1332 64.8358 60.5282 64.838ZM60.7058 61.7997C60.5114 61.8004 60.3119 61.9093 60.1453 62.1154C59.9463 62.3593 59.8126 62.7003 59.7708 63.0788C59.6926 63.8196 60.0084 64.4887 60.4731 64.5409C60.9324 64.5932 61.3894 64.0078 61.4676 63.267C61.5459 62.5263 61.23 61.8572 60.7707 61.805C60.7437 61.8051 60.7275 61.7997 60.7058 61.7997Z" fill="#000072"></path></svg>