<svg width="113" height="113" viewBox="0 0 113 113" fill="none" xmlns="http://www.w3.org/2000/svg">
<g clip-path="url(#clip0_1205_9181)">
<rect width="113" height="113" fill="#FFE68F"/>
<path d="M69.2422 77.8128C43.9552 77.3756 29.8687 88.2349 10.2284 76.8281C-27.6158 54.849 -23.3068 20.3346 -10.9698 2.97381C0.504154 -13.1725 34.2378 -26.3482 73.4099 -14.8375C105.991 -5.26347 147.549 3.35532 167.386 61.5688C187.224 119.782 146.273 113.068 126.211 103.434C106.149 93.8006 94.5292 78.25 69.2422 77.8128Z" fill="#6B184E"/>
<path d="M81.9727 60.4513C82.3033 60.7172 82.5934 61.0167 82.8653 61.3402C83.032 61.5379 83.3077 61.6349 83.4445 61.8652C83.6238 62.1676 83.9429 62.3433 84.1308 62.6399C84.2513 62.8299 84.4161 62.9797 84.6147 63.0872C84.9675 63.2782 85.0744 63.6833 85.3848 63.9079C85.621 64.2141 85.861 64.5155 86.2041 64.7142C86.4721 65.0521 86.7901 65.3439 87.0754 65.6645C87.8099 66.492 88.5193 67.3415 89.2364 68.1843C89.2548 68.2063 89.2499 68.2486 89.2557 68.2812C89.3348 68.5701 89.5092 68.7765 89.7868 68.8956C90.1261 69.2901 90.2957 69.7806 90.4962 70.2423C90.6919 70.6925 90.7969 71.1888 90.7767 71.6975C90.7565 72.2005 90.7989 72.7102 90.7333 73.2065C90.6591 73.7728 90.4875 74.3276 90.1232 74.7893C90.0307 74.9065 89.9979 75.0178 89.9921 75.1522C89.7984 75.1301 89.7858 75.3144 89.7367 75.4133C89.6085 75.6705 89.2866 75.7838 89.2451 76.0958C88.8769 76.2234 88.6919 76.5901 88.3641 76.7706C87.8755 77.192 87.3839 77.6095 86.8094 77.9148C86.5964 78.1087 86.3178 78.2373 86.2012 78.5262C85.9361 78.7758 85.46 78.8373 85.4725 79.3354C85.5072 80.3069 85.5246 81.2792 85.4725 82.2507C85.4176 82.3447 85.3501 82.4628 85.2952 82.5569C85.2007 82.6413 85.2817 82.8026 85.2672 82.9216C85.2614 82.984 85.2566 83.0474 85.2508 83.1098C85.2075 83.1175 85.1361 83.1117 85.1265 83.1338C84.9848 83.439 84.8508 83.7472 84.7159 84.0553C84.4807 84.0649 84.5067 84.2338 84.5106 84.3884L84.5183 84.398C84.3197 84.47 84.1935 84.612 84.1202 84.8069L84.1154 84.8088C83.9111 84.7819 83.8831 85.0459 83.7019 85.0584C83.5824 85.2792 83.3665 85.3761 83.1544 85.4721C82.7399 85.6593 82.3583 85.9338 81.8792 85.953C81.6228 85.9981 81.3125 85.8311 81.1226 86.1411C80.6098 86.1373 80.0961 86.1344 79.5833 86.1306C79.4647 85.7697 79.1707 86.0039 78.9625 85.9482C78.3534 85.9117 77.8878 85.5326 77.3673 85.284C77.0801 85.1467 76.8141 84.9921 76.6608 84.6984C76.575 84.589 76.5876 84.4028 76.3678 84.3999L81.9727 60.4513Z" fill="#152B6B"/>
<path d="M79.7752 80.0617C79.78 80.0203 79.7838 79.9778 79.7886 79.9364C79.9712 79.9133 80.0076 79.8034 79.9607 79.6434C79.9665 79.6048 79.9722 79.5663 79.977 79.5287C80.2753 79.3417 80.325 79.0438 80.3279 78.7258C80.304 78.5098 80.5028 78.3749 80.5258 78.1763C80.8327 78.1465 80.7017 77.9209 80.7112 77.7571C80.7093 77.4399 80.8805 77.1681 80.9503 76.8674C81.0535 76.4259 81.2428 76.0047 81.2792 75.544C81.6396 75.4244 81.4034 75.1305 81.4589 74.9223C81.37 74.3459 81.8107 74.0663 82.1673 73.8205C82.5383 73.5651 82.8376 73.2345 83.1951 72.9694C83.3902 72.8248 83.5785 72.6465 83.7716 72.5019C84.2831 72.1202 84.5862 71.6084 84.8367 71.0465C84.8453 71.0262 84.8386 70.9906 84.8511 70.9829C85.0222 70.8816 85.0853 70.7188 84.9562 70.58C84.8549 70.472 84.701 70.4575 84.5059 70.4836C84.2267 70.5202 84.0355 70.7747 83.7487 70.7245C83.7506 70.5703 83.6818 70.5048 83.5278 70.5443L83.5412 70.5308L83.5259 70.5424C83.569 70.3766 83.4934 70.3158 83.3376 70.3274C83.3777 70.0787 83.1951 70.1385 83.0642 70.1279C82.7735 69.7019 82.4542 69.3028 82.045 68.9838C82.0115 68.9577 82.0163 68.8816 82.0029 68.8286C82.0058 67.0251 82.0086 65.2207 82.0106 63.4173C82.0106 63.3161 82.0096 63.2139 82.0125 63.1127C82.0144 63.0587 82.0058 62.9932 82.0708 62.9672C82.1597 62.9305 82.1731 63.0077 82.2132 63.0597C82.6033 63.5677 83.0125 64.0573 83.3892 64.5778C83.852 65.2169 84.3912 65.801 84.8358 66.4584C85.2029 67.0001 85.6551 67.4733 86.0203 68.0228C86.29 68.4286 86.5892 68.845 86.9439 69.1948C87.0711 69.3202 87.2011 69.4426 87.2709 69.5997C87.4315 69.9592 87.748 70.1915 87.9583 70.5154C88.2767 71.0041 88.5205 71.5091 88.575 72.0846C88.6553 72.928 88.2853 73.6576 87.8111 74.2871C87.4927 74.7092 87.029 75.036 86.5806 75.3522C86.201 75.6201 85.788 75.8563 85.4515 76.1666C84.6742 76.8828 83.8242 77.5325 83.2812 78.4848C83.0995 78.8038 82.8901 79.0978 82.7678 79.4545C82.6167 79.893 82.3748 80.2969 82.0517 80.6285C81.7945 80.8926 81.4952 81.0979 81.1405 81.2569C80.4856 81.5509 79.8422 81.4208 79.1873 81.361C79.1968 81.2743 79.2073 81.1885 79.2169 81.1017C79.3985 81.0902 79.3708 80.9919 79.3077 80.8791C79.4138 80.6853 79.6251 80.5436 79.5974 80.2844C79.7705 80.3036 79.803 80.2092 79.7733 80.0636L79.7752 80.0617Z" fill="#FDD025"/>
<path d="M79.2396 81.3952C79.8969 81.4547 80.5418 81.5842 81.2002 81.2916C81.5562 81.1334 81.8566 80.9291 82.1147 80.6663C82.4381 80.3363 82.6819 79.9344 82.8335 79.498C82.9564 79.1431 83.1665 78.8506 83.3489 78.5331C83.894 77.5854 84.7471 76.939 85.5273 76.2263C85.8651 75.9174 86.2807 75.6825 86.6607 75.4158C87.1108 75.1012 87.5762 74.776 87.8958 74.3559C88.3718 73.7296 88.7432 73.0035 88.6626 72.1642C88.6079 71.5907 88.3632 71.0881 88.0436 70.6027C87.8325 70.2814 87.5139 70.0493 87.3536 69.6915C87.2835 69.5361 87.153 69.4143 87.0254 69.2887C86.6693 68.9405 86.369 68.5252 86.0983 68.1223C85.7317 67.5756 85.2778 67.1047 84.9093 66.5656C84.4631 65.9115 83.9228 65.3302 83.4573 64.6943C83.0792 64.1763 82.6675 63.6891 82.2769 63.1836C82.2366 63.1308 82.2232 63.0541 82.1339 63.0915C82.0696 63.1184 82.0773 63.1826 82.0754 63.2364C82.0725 63.3371 82.0735 63.4387 82.0735 63.5395C82.0706 65.334 82.0677 67.1296 82.0658 68.9242C81.8873 68.9184 81.9247 68.7832 81.9257 68.6786C81.9295 66.6577 81.9353 64.6367 81.9439 62.6167C81.9439 62.5256 81.895 62.4057 82.0216 62.3501C82.1752 62.2829 82.2213 62.4096 82.3086 62.4959C82.9621 63.1472 83.6809 63.7418 84.2702 64.4468C85.1003 65.4396 86.0839 66.2875 86.8958 67.285C87.51 68.0389 88.2067 68.7295 88.7326 69.5563C88.8497 69.7395 89.0205 69.8872 89.1616 70.057C89.3987 70.3428 89.485 70.6852 89.6155 71.0132C89.6357 71.1456 89.5205 71.3451 89.7844 71.3585C89.8593 72.052 89.8545 72.7465 89.7892 73.4399C89.4898 73.4687 89.6549 73.7018 89.6117 73.8437C89.5896 74.2897 89.2854 74.6139 89.0349 74.9113C88.6943 75.316 88.3248 75.7179 87.8709 76.0239C87.4025 76.3395 86.9582 76.6924 86.5072 77.033C85.8536 77.526 85.2001 78.0218 84.6684 78.6328C84.1886 79.1844 83.6848 79.7599 83.5696 80.5377C83.5542 80.6432 83.4957 80.7679 83.6224 80.8408C83.7347 80.906 83.799 80.7929 83.8825 80.7449C84.1262 80.6058 84.3767 80.4773 84.6915 80.3085C84.6819 80.9674 84.773 81.5851 84.6156 82.2105C84.5139 82.6153 84.4036 83.0172 84.1675 83.3567C83.8182 83.8584 83.3777 84.2439 82.799 84.5106C81.9401 84.9067 81.0601 84.9518 80.1608 84.8252C79.6205 84.7494 79.1378 84.4972 78.6762 84.1845C78.4142 84.007 78.2549 83.7615 78.0313 83.5677C77.9018 83.4565 77.919 83.3164 77.9843 83.2397C78.4401 82.6968 78.7588 82.0724 79.0946 81.4566C79.1148 81.4202 79.1906 81.4134 79.2405 81.3923L79.2396 81.3952Z" fill="#EAC32B"/>
<path d="M45.0922 75.1178C44.6019 75.2162 43.9129 75.336 43.0771 75.4205C42.9165 75.4363 42.6667 75.4855 42.3463 75.4809C41.4827 75.467 40.6117 75.5626 39.7565 75.4298C39.0925 75.3267 38.41 75.337 37.7646 75.1187C37.6328 74.8077 37.3635 74.9562 37.1452 74.9339C37.0802 74.9302 37.0162 74.9265 36.9512 74.9219C36.8416 74.6526 36.6113 74.7269 36.4061 74.7306C36.3634 74.7269 36.3206 74.7241 36.2779 74.7204C36.0662 74.4734 35.7941 74.3656 35.4719 74.3759C35.431 74.3703 35.3893 74.3647 35.3484 74.3591C35.3001 74.0954 35.0995 74.1827 34.937 74.1808C34.3093 73.9069 33.7206 73.5624 33.1736 73.1547C32.9944 73.021 32.8273 73.0405 32.6434 73.0415C32.4502 73.073 32.1912 72.9031 32.0946 73.2235C32.0296 73.2262 31.9655 73.23 31.9005 73.2327C31.6823 73.1167 31.4594 73.2262 31.244 73.2402C30.7667 73.2699 30.2913 73.1603 29.8158 73.2346C29.4741 73.2717 29.1714 73.1139 28.877 72.995C28.3226 72.7712 27.7608 72.5372 27.329 72.098C26.9882 71.7507 26.5035 71.7321 26.1005 71.526C25.2991 71.1155 24.6677 70.55 24.364 69.6744C24.4299 69.3178 24.1681 69.0318 24.1495 68.6919C24.1495 68.6808 24.0687 68.6733 24.0251 68.665L24 68.08C24.0037 67.4615 24.0065 66.8449 24.0102 66.2274L24.0279 65.9052C24.2999 65.8541 24.2182 65.6535 24.2071 65.4817L24.2331 65.2988C24.3724 65.2969 24.4522 65.2533 24.3742 65.0982C24.3854 65.0369 24.3956 64.9757 24.4067 64.9144C24.5702 64.9218 24.5962 64.8299 24.5655 64.6961C24.8775 64.1919 25.2935 63.8093 25.8275 63.541C25.9909 63.4592 25.9241 63.2336 25.8702 63.1138C25.6278 62.5771 25.7318 62.0153 25.7096 61.4618C25.8488 61.4154 25.8916 61.3021 25.8943 61.173C25.8999 60.8982 25.8962 60.6224 25.8971 60.3475C25.9389 60.2797 25.9853 60.2045 26.0281 60.1367C26.1525 60.0531 26.0986 59.8953 26.0884 59.7551C26.0912 59.7179 26.0949 59.6808 26.0977 59.6436C26.2723 59.6279 26.2695 59.509 26.2509 59.3808C26.2509 59.2796 26.263 59.184 26.3419 59.106C26.4905 58.962 26.5936 58.7977 26.6901 58.6064C26.7988 58.3937 27.0792 58.2777 27.2705 58.0957C27.5686 57.8115 27.928 57.6026 28.3328 57.4884C28.7145 57.4884 29.0952 57.4893 29.4769 57.4902C29.6654 57.467 29.7972 57.5756 29.9217 57.6899C30.113 57.8663 30.4045 57.8756 30.5735 58.0864C30.5865 58.2015 30.6098 58.3055 30.7621 58.2953C30.7704 58.3362 30.7797 58.378 30.7881 58.4188C30.7964 58.6138 31.0081 58.7104 31.0221 58.9026C31.0518 59.002 31.1892 59.041 31.1697 59.1673C31.1883 59.3864 31.1075 59.6353 31.3545 59.7876L31.3499 60.5704C31.0982 60.7505 31.179 61.018 31.1679 61.2622C31.1688 61.5761 31.0796 61.8964 31.231 62.201C31.1484 62.4601 31.283 62.6291 31.5625 62.6161L31.7538 62.63C31.855 62.9467 32.1132 62.7721 32.3045 62.8064C32.349 62.8064 32.3936 62.8064 32.4372 62.8074C32.727 63.0897 33.1114 63.202 33.4615 63.3747L33.5831 63.41C33.5506 63.5855 33.6751 63.5874 33.7911 63.5985C34.0911 63.9022 34.4328 64.1771 34.6733 64.5216C34.8154 64.7249 34.9305 64.945 35.1218 65.1122C35.1348 65.4074 35.34 65.2784 35.4868 65.2774C35.6149 65.283 35.7431 65.2895 35.8712 65.2951C35.8805 65.4455 36.0031 65.4771 36.1089 65.4799C36.4024 65.4882 36.6986 65.5375 36.9911 65.4622C37.1211 65.504 37.2734 65.5523 37.4034 65.5941C37.4526 65.6331 37.5297 65.6266 37.6021 65.6312C39.0071 65.7065 40.412 65.7176 41.8179 65.6312C41.9285 65.6247 42.052 65.648 42.065 65.4827C42.1894 65.4771 42.3147 65.4706 42.4392 65.465C42.7131 65.4836 43.0112 65.6052 43.209 65.2895C43.2693 65.2858 43.3297 65.2812 43.3901 65.2774C43.5869 65.2496 43.8581 65.4595 43.9528 65.1029C44.1367 65.036 44.3205 64.9701 44.5035 64.9032C44.6985 68.3075 44.8925 71.7126 45.0875 75.1169L45.0922 75.1178Z" fill="#152B6B"/>
<path d="M44.5071 66.5793C44.5127 67.8747 44.5183 69.1711 44.5238 70.4674C44.4542 70.6522 44.4904 70.8444 44.4876 71.0329C44.4848 71.1991 44.4041 71.2994 44.2508 71.2985C43.858 71.2957 43.5033 71.4823 43.1179 71.5046C42.9508 71.5139 42.7697 71.4842 42.6174 71.5381C41.9405 71.7776 41.2338 71.6969 40.5689 71.6114C39.9347 71.5297 39.281 71.5074 38.657 71.3143C38.3245 71.2112 37.9549 71.1713 37.6439 71.0617C37.2353 70.9178 36.8202 70.7358 36.4144 70.5621C35.5592 70.1972 34.7234 69.8146 33.9471 69.2927C33.7168 69.1376 33.4355 69.0048 33.0993 69.003C32.8235 69.0011 32.674 69.2296 32.4298 69.2259C32.3118 69.2537 32.1401 69.1432 32.0964 69.3577C32.0286 69.3577 31.9599 69.3577 31.8921 69.3577C31.8485 69.1432 31.6758 69.2537 31.5588 69.2259C31.1957 69.0828 30.8623 68.7885 30.7908 68.4774C30.7063 68.105 30.5874 67.7113 30.6079 67.3074C30.6227 67.0195 30.541 66.7484 30.463 66.467C30.3924 66.2116 30.2262 65.9869 30.2114 65.7204C30.1974 65.4669 30.0609 65.323 29.8381 65.2403C29.5121 64.6376 29.2205 64.0053 28.6253 63.6106C28.3588 63.4342 28.0589 63.307 27.7738 63.1584C27.7877 62.8891 27.8193 62.5938 27.6976 62.3663C27.3847 61.7841 27.7413 61.264 27.8249 60.732C27.8639 60.4822 27.9456 60.1479 28.1814 59.9399C28.4702 59.6854 28.6782 59.3428 29.0348 59.1617C29.1026 59.1273 29.1156 59.0596 29.1054 58.9881C29.1602 58.9816 29.215 58.976 29.2707 58.9695C29.618 59.106 29.761 59.4273 29.8093 59.7365C29.8715 60.133 29.8195 60.5332 29.7146 60.9455C29.5818 61.4711 29.6078 62.0301 29.7981 62.5808C29.9885 63.1315 30.2782 63.5744 30.7499 63.9059C30.7518 64.035 30.8029 64.1102 30.9468 64.1046C31.1539 64.0972 31.361 64.0972 31.569 64.0944C31.633 64.0991 31.6971 64.1028 31.7612 64.1074C31.816 64.2913 31.9488 64.3229 32.115 64.2885C32.1558 64.2931 32.1976 64.2969 32.2385 64.3015C32.3016 64.5336 32.4985 64.5921 32.6935 64.6516C32.7455 64.6636 32.8114 64.6423 32.8384 64.7129C32.8086 64.8744 32.9173 64.8624 33.0194 64.8577C33.4596 65.2895 33.7948 65.8058 34.169 66.2896C34.3028 66.4623 34.4671 66.5357 34.6909 66.5682C35.1469 66.6341 35.5917 66.7781 36.0597 66.7502C36.056 66.9016 36.1488 66.9331 36.277 66.9322C36.589 66.9304 36.901 66.9322 37.213 66.9331C37.3913 66.9359 37.5696 66.9387 37.7479 66.9415C37.7516 67.0826 37.8249 67.1272 37.9633 67.1263C39.0135 67.1207 40.0638 67.1216 41.1131 67.1207C41.2357 67.1235 41.3592 67.1235 41.4818 67.1309C41.622 67.1402 41.7288 67.1142 41.7278 66.9424C41.9052 66.9387 42.0826 66.9341 42.2599 66.9304C42.4401 66.9304 42.6193 66.9304 42.7994 66.9304C42.9489 66.896 43.1792 67.0418 43.2108 66.7446C43.3399 66.7372 43.468 66.7289 43.5971 66.7214C43.741 66.7261 43.9221 66.8189 43.9593 66.5691C44.0893 66.5561 44.2202 66.5431 44.3502 66.5311C44.3892 66.5942 44.4468 66.5923 44.5081 66.5766L44.5071 66.5793Z" fill="#FDD025"/>
<path d="M29.8382 65.2402C30.062 65.3229 30.1976 65.4677 30.2115 65.7203C30.2263 65.9868 30.3916 66.2115 30.4631 66.4669C30.5411 66.7483 30.6229 67.0194 30.608 67.3073C30.5876 67.7112 30.7064 68.105 30.7909 68.4773C30.8615 68.7884 31.1949 69.0828 31.5589 69.2258C31.622 69.3911 31.7177 69.4756 31.8922 69.3576C31.96 69.3576 32.0287 69.3576 32.0965 69.3576C32.272 69.4765 32.3658 69.3892 32.4299 69.2258C32.6741 69.2295 32.8246 69.0011 33.0994 69.0029C33.4356 69.0048 33.7169 69.1385 33.9472 69.2926C34.7235 69.8145 35.5593 70.1971 36.4145 70.562C36.8203 70.7357 37.2354 70.9177 37.644 71.0616C37.9541 71.1712 38.3246 71.2111 38.6571 71.3142C39.2811 71.5073 39.9348 71.5287 40.5691 71.6113C41.2349 71.6977 41.9406 71.7776 42.6176 71.538C42.7689 71.4841 42.95 71.5148 43.1181 71.5046C43.5034 71.4823 43.8591 71.2956 44.251 71.2984C44.4042 71.2993 44.485 71.2 44.4878 71.0328C44.4905 70.8443 44.4543 70.6521 44.524 70.4673C44.6958 70.5175 44.6809 70.6558 44.6818 70.7923C44.6837 71.2065 44.7153 71.6216 44.6883 72.0339C44.6642 72.4127 44.8601 72.7405 44.8796 73.1036C44.9047 73.5725 44.81 73.6933 44.3475 73.7248C43.913 73.7546 43.4765 73.7481 43.0401 73.7573C42.8432 73.801 42.5665 73.5642 42.4616 73.9236C41.5311 73.9245 40.5895 74.0118 39.6748 73.8929C39.179 73.8288 38.6543 73.801 38.1556 73.6292C37.8325 73.5178 37.4768 73.4518 37.1351 73.3729C36.8017 73.2949 36.4805 73.1101 36.1582 73.0321C35.7348 72.929 35.4088 72.6839 35.0411 72.5047C34.4478 72.2159 33.8841 71.8723 33.3956 71.4182C33.2174 71.252 33.0316 71.3077 32.8171 71.3792C32.4782 71.4916 32.1615 71.7098 31.7771 71.6596C31.1373 71.6596 30.4984 71.6596 29.8586 71.6587C29.5819 71.7321 29.385 71.5213 29.1501 71.4507C28.9802 71.3996 29.0201 71.2 29.1241 71.1313C29.581 70.8313 29.7927 70.3429 29.9663 69.8879C30.114 69.5016 30.3025 69.0753 30.2236 68.6222C30.5356 68.6018 30.4278 68.3464 30.3991 68.2183C30.3443 67.9703 30.6266 67.6351 30.2236 67.4744C30.2189 67.3853 30.2106 67.2962 30.2115 67.207C30.218 66.6016 30.0694 66.0286 29.8503 65.4696C29.8205 65.3944 29.8103 65.3182 29.8382 65.2402Z" fill="#EAC32B"/>
<path d="M26.8444 70.1684C26.368 70.0988 26.0978 69.7338 25.8944 69.3791C25.4106 68.5378 25.2323 67.6064 25.38 66.6416C25.4961 65.8867 25.8025 65.2264 26.472 64.7742C26.7051 64.6163 26.9354 64.6618 27.175 64.6609C27.1137 64.9107 27.3858 65.0407 27.3895 65.2747C27.3951 65.5858 27.5483 65.8802 27.6569 66.1476C27.7962 66.493 27.8315 66.8505 27.903 67.1913C28.0367 67.8293 28.0051 68.497 27.7702 69.12C27.6532 69.4293 27.5789 69.7877 27.2502 69.9781C27.1824 70.0171 27.1861 70.0914 27.1638 70.1526C27.057 70.1573 26.9512 70.1629 26.8444 70.1675V70.1684Z" fill="#FDD025"/>
<path d="M28.0746 70.0412C28.0969 69.98 28.0932 69.9057 28.1609 69.8667C28.4897 69.6763 28.564 69.3188 28.681 69.0086C28.9159 68.3856 28.9465 67.7179 28.8137 67.0799C28.7422 66.7391 28.707 66.3807 28.5677 66.0362C28.459 65.7688 28.3067 65.4744 28.3002 65.1633C28.2956 64.9293 28.0244 64.7993 28.0857 64.5495C28.5147 64.53 28.8407 64.712 29.0301 65.0909C29.096 65.2237 29.2771 65.3026 29.2325 65.4893C29.2762 65.6295 29.1174 65.8644 29.4183 65.8839C29.669 66.4104 29.5808 67.0019 29.7368 67.5507C29.8036 67.7857 29.8417 68.0773 29.6792 68.3243C29.6616 68.3512 29.6439 68.3874 29.6467 68.4171C29.6894 68.8935 29.5056 69.2863 29.2455 69.6735C29.0988 69.8927 28.9651 70.0626 28.6856 70.0515C28.4822 70.0487 28.2789 70.045 28.0755 70.0422L28.0746 70.0412Z" fill="#EAC32B"/>
<g opacity="0.3">
<path opacity="0.3" d="M62.5538 99.9236C72.2486 99.9236 80.1077 99.0453 80.1077 97.9618C80.1077 96.8783 72.2486 96 62.5538 96C52.8591 96 45 96.8783 45 97.9618C45 99.0453 52.8591 99.9236 62.5538 99.9236Z" fill="#11276B"/>
</g>
<path d="M68.2073 93.6147C68.2242 93.6484 68.258 93.6821 68.2917 93.7158C68.2917 93.7158 68.2411 93.7326 68.1398 93.7832C68.0385 93.8338 67.8697 93.918 67.7008 94.0192C67.4307 94.1709 67.1099 94.39 66.806 94.6597C66.6541 94.7945 66.519 94.9462 66.4346 95.1148C65.8269 96.1598 66.5528 97.6094 67.9034 97.6094H73.002C74.0318 97.6094 74.8084 96.6992 74.6565 95.6879C74.589 95.3002 74.4877 94.8957 74.3188 94.5586C73.8968 93.7495 73.6773 92.873 73.576 91.9628C73.3734 90.075 73.289 87.1589 74.15 84.6643H65.3035C65.3035 84.6643 65.3035 86.3836 65.8269 88.5242C66.2152 90.075 66.8567 91.828 67.9878 93.3281C68.0554 93.4124 68.1229 93.5135 68.2073 93.6147Z" fill="#FFD225"/>
<g opacity="0.3">
<path opacity="0.3" d="M71.1947 90.2604C72.2245 93.0753 67.9869 93.3113 67.9869 93.3113C68.0207 93.3281 68.2233 93.4461 68.2233 93.6147C68.2233 93.6652 68.2064 93.7158 68.1558 93.7664C68.0882 93.8506 67.9532 93.9181 67.7168 94.0024C67.8181 94.0024 71.7518 93.8844 71.9881 95.5362C72.1907 96.9352 67.4805 96.8004 66.4506 95.0811C65.8428 96.1262 66.5688 97.5757 67.9194 97.5757H73.018C74.0478 97.5757 74.8244 96.6655 74.6725 95.6542C74.605 95.2665 74.5037 94.862 74.3348 94.5249C73.9128 93.7158 73.6933 92.8393 73.592 91.9291C73.3894 90.0413 73.305 87.1252 74.166 84.6306H65.3195C65.3195 84.6306 65.3195 86.3499 65.8428 88.4906C65.8091 88.4906 70.1648 87.4455 71.1947 90.2604Z" fill="#11276B"/>
</g>
<path d="M67.8855 98.2331H72.9841C73.6594 98.2331 74.3009 97.9466 74.7567 97.424C75.1957 96.9015 75.3983 96.2273 75.297 95.5531C75.2126 95.0306 75.0775 94.5923 74.8918 94.2215C74.5373 93.5473 74.3178 92.755 74.2165 91.8617C74.0139 89.957 73.9464 87.2095 74.7567 84.8498C74.8243 84.6475 74.7905 84.4284 74.6723 84.2598C74.5541 84.0913 74.3516 83.9901 74.1321 83.9901H65.2855C64.931 83.9901 64.6271 84.2767 64.6271 84.6475C64.6271 84.8666 64.6609 89.8053 67.2946 93.4798C67.0076 93.6484 66.6868 93.8675 66.366 94.1541C65.6232 94.7946 65.3531 95.8059 65.7076 96.733C66.0453 97.6432 66.9063 98.2331 67.8855 98.2331ZM73.2542 85.288C72.6464 87.6478 72.7139 90.193 72.9165 91.9965C73.0347 93.0416 73.3048 94.0024 73.7269 94.8114C73.8451 95.0474 73.9464 95.3677 73.997 95.7385C74.0477 96.0419 73.9633 96.3284 73.7607 96.5644C73.5581 96.8004 73.2879 96.9184 72.9841 96.9184H67.8855C67.2271 96.9184 66.9907 96.4127 66.9232 96.261C66.805 95.9407 66.8219 95.4688 67.2102 95.1148C67.8348 94.5754 68.527 94.2889 68.527 94.2889C68.7127 94.2046 68.8647 94.0361 68.9153 93.8338C68.966 93.6315 68.9153 93.4124 68.7803 93.2607C66.5517 90.6144 66.0622 86.7882 65.9609 85.2711H73.2542V85.288Z" fill="#11276B"/>
<path d="M52.5547 93.6147C52.5716 93.6484 52.6053 93.6821 52.6391 93.7158C52.6391 93.7158 52.5884 93.7326 52.4871 93.7832C52.3858 93.8338 52.217 93.918 52.0482 94.0192C51.7781 94.1709 51.4573 94.39 51.1534 94.6597C51.0015 94.7945 50.8664 94.9462 50.782 95.1148C50.1742 96.1598 50.9002 97.6094 52.2508 97.6094H57.3156C58.3454 97.6094 59.122 96.6992 58.9701 95.6879C58.9026 95.3002 58.8013 94.8957 58.6324 94.5586C58.2104 93.7495 57.9909 92.873 57.8896 91.9628C57.687 90.075 57.6026 87.1589 58.4636 84.6643H49.6171C49.6171 84.6643 49.6171 86.3836 50.1404 88.5242C50.5288 90.075 51.1703 91.828 52.3014 93.3281C52.3858 93.4124 52.4703 93.5135 52.5547 93.6147Z" fill="#FFD225"/>
<g opacity="0.3">
<path opacity="0.3" d="M55.526 90.2604C56.5559 93.0753 52.3183 93.3113 52.3183 93.3113C52.3521 93.3281 52.5547 93.4461 52.5547 93.6147C52.5547 93.6652 52.5378 93.7158 52.4871 93.7664C52.4196 93.8506 52.2845 93.9181 52.0482 94.0024C52.1495 94.0024 56.0832 93.8844 56.3195 95.5362C56.5221 96.9352 51.8118 96.8004 50.782 95.0811C50.1742 96.1262 50.9002 97.5757 52.2508 97.5757H57.3156C58.3454 97.5757 59.122 96.6655 58.9701 95.6542C58.9026 95.2665 58.8013 94.862 58.6324 94.5249C58.2104 93.7158 57.9909 92.8393 57.8896 91.9291C57.687 90.0413 57.6026 87.1252 58.4636 84.6306H49.6171C49.6171 84.6306 49.6171 86.3499 50.1404 88.4906C50.1404 88.4906 54.4962 87.4455 55.526 90.2604Z" fill="#11276B"/>
</g>
<path d="M52.2175 98.2331H57.3161C57.9914 98.2331 58.6329 97.9466 59.0888 97.424C59.5277 96.9015 59.7303 96.2273 59.629 95.5531C59.5446 95.0306 59.4095 94.5923 59.2238 94.2215C58.8693 93.5473 58.6498 92.755 58.5485 91.8617C58.3459 89.957 58.2784 87.2095 59.0888 84.8498C59.1563 84.6475 59.1225 84.4284 59.0044 84.2598C58.8862 84.0913 58.6836 83.9901 58.4641 83.9901H49.6176C49.263 83.9901 48.9592 84.2767 48.9592 84.6475C48.9592 84.8666 48.9929 89.8053 51.6266 93.4798C51.3396 93.6484 51.0188 93.8675 50.6981 94.1541C49.9552 94.7946 49.6851 95.8059 50.0396 96.733C50.3773 97.6432 51.2383 98.2331 52.2175 98.2331ZM57.5862 85.288C56.9784 87.6478 57.046 90.193 57.2486 91.9965C57.3667 93.0416 57.6369 94.0024 58.0589 94.8114C58.1771 95.0474 58.2784 95.3677 58.3291 95.7385C58.3797 96.0419 58.2953 96.3284 58.0927 96.5644C57.8901 96.8004 57.62 96.9184 57.3161 96.9184H52.2175C51.5591 96.9184 51.3227 96.4127 51.2552 96.261C51.137 95.9407 51.1539 95.4688 51.5422 95.1148C52.1669 94.5754 52.8591 94.2889 52.8591 94.2889C53.0448 94.2046 53.1967 94.0361 53.2474 93.8338C53.298 93.6315 53.2474 93.4124 53.1123 93.2607C50.8838 90.6144 50.3942 86.7882 50.2929 85.2711H57.5862V85.288Z" fill="#11276B"/>
<path d="M54.1092 40.2666C54.1092 40.2666 57.8065 39.6092 61.5882 39.6092C65.3699 39.6092 69.0673 40.2666 69.0673 40.2666C69.0673 40.2666 69.0673 35.2942 67.8517 29.3442C66.9569 24.9786 65.4206 20.0736 62.7362 16.2473C62.4324 15.8091 61.909 15.6068 61.4194 15.6574C61.0311 15.6911 60.6597 15.8934 60.4233 16.2473C54.1261 25.282 54.1092 40.2666 54.1092 40.2666Z" fill="#30E542"/>
<g opacity="0.3">
<path opacity="0.3" d="M54.1092 40.2667C54.1092 40.2667 57.8065 39.6093 61.5882 39.6093C65.3699 39.6093 69.0673 40.2667 69.0673 40.2667C69.0673 40.2667 69.0673 35.2943 67.8517 29.3442L67.0751 29.6982C67.0751 29.6982 64.5427 33.575 61.5882 33.0693C58.6506 32.5805 56.1013 25.3495 61.4363 15.6575C61.048 15.6912 60.6766 15.8934 60.4402 16.2474C54.1261 25.282 54.1092 40.2667 54.1092 40.2667Z" fill="#11276B"/>
</g>
<g opacity="0.7">
<path opacity="0.7" d="M61.0817 16.8037C60.9129 16.5508 60.6765 16.3823 60.4064 16.298C60.4233 16.2811 60.4233 16.2643 60.4402 16.2474C60.9973 15.4552 62.196 15.4552 62.7531 16.2474C69.0841 25.2652 69.0841 40.2667 69.0841 40.2667C69.0841 40.2667 68.4257 40.1487 67.3958 40.0139C67.2945 36.7776 66.5348 24.5741 61.0817 16.8037Z" fill="white"/>
</g>
<path d="M62.2467 39.6094C62.4155 38.6317 62.3986 37.671 62.348 36.6933C62.2973 35.7157 62.2467 34.7549 62.196 33.7773C62.1623 33.2885 62.1285 32.7997 62.0947 32.3277C62.061 31.8389 62.0272 31.3501 61.9934 30.8781C61.9259 29.9005 61.8246 28.9397 61.7233 27.9621C61.7233 27.8947 61.6558 27.8441 61.5882 27.8441C61.5376 27.8441 61.4869 27.8947 61.4701 27.9621C61.3688 28.9397 61.2843 29.9005 61.1999 30.8781C61.1662 31.3669 61.1324 31.8558 61.0986 32.3277C61.0649 32.8165 61.0311 33.3053 60.9973 33.7773C60.9298 34.7549 60.8792 35.7157 60.8454 36.6933C60.7947 37.671 60.7779 38.6317 60.9467 39.6094C61.0142 39.9633 61.3519 40.2162 61.7064 40.1487C61.9934 40.0813 62.2129 39.8622 62.2467 39.6094Z" fill="#11276B"/>
<path d="M54.1094 40.924C54.1431 40.924 54.1938 40.924 54.2276 40.9071C54.2613 40.9071 57.9249 40.2497 61.6053 40.2497C65.2857 40.2497 68.9324 40.8903 68.983 40.9071C69.1688 40.9408 69.3713 40.8903 69.5233 40.7723C69.6752 40.6543 69.7596 40.4689 69.7596 40.2666C69.7596 39.6429 69.6752 24.9617 63.3104 15.8765C62.9221 15.3203 62.2975 15 61.6222 15C60.9469 15 60.3222 15.3203 59.9339 15.8765C53.5691 24.9617 53.4847 39.6429 53.4847 40.2666C53.4847 40.452 53.5691 40.6374 53.7211 40.7723C53.8055 40.8565 53.9574 40.924 54.1094 40.924ZM61.6053 16.2979C61.8585 16.2979 62.078 16.4159 62.23 16.6181C67.548 24.22 68.3246 36.3392 68.4259 39.4912C67.1259 39.289 64.4078 38.9519 61.6053 38.9519C58.8028 38.9519 56.0846 39.3058 54.7847 39.4912C54.886 36.3392 55.6626 24.22 60.9806 16.6181C61.1157 16.4159 61.3521 16.2979 61.6053 16.2979Z" fill="#11276B"/>
<path d="M62.9554 40.4015C62.9554 40.4015 64.6774 40.1318 69.2864 40.8397C70.2994 40.9914 71.4643 41.1937 72.7811 41.4634C72.7811 41.4634 72.8655 40.5532 73.2032 39.1542C73.659 37.3169 74.5707 34.6369 76.3434 32.0917C76.7485 31.5017 77.2213 30.9118 77.7277 30.3555C78.9095 29.0408 80.3783 27.8272 82.1848 26.8833C82.9107 26.4956 82.9276 25.4674 82.1848 25.0966C80.3952 24.1695 77.0862 23.2593 72.2915 25.2483C67.3111 27.3047 64.8631 33.0356 63.7489 36.8281C63.293 38.4125 63.0567 39.6598 62.9723 40.1655C62.9554 40.3004 62.9554 40.4015 62.9554 40.4015Z" fill="#30E542"/>
<g opacity="0.3">
<path opacity="0.3" d="M63.7647 36.8112C64.2712 36.845 64.7777 36.8955 65.2842 36.9629C69.1841 32.4288 73.8099 30.8275 77.5241 30.3724C77.5917 30.3724 77.6592 30.3555 77.7098 30.3555C77.2034 30.9118 76.7475 31.5017 76.3255 32.0917C74.5528 34.6369 73.6411 37.3169 73.1853 39.1542C72.8307 40.5532 72.7632 41.4634 72.7632 41.4634C71.4464 41.1937 70.2983 40.9914 69.2685 40.8397C64.6595 40.1318 62.9375 40.4015 62.9375 40.4015C62.9375 40.4015 63.1569 38.8845 63.7647 36.8112Z" fill="#11276B"/>
</g>
<path d="M72.781 42.1039C72.916 42.1039 73.0511 42.0533 73.1693 41.969C73.3212 41.851 73.4056 41.6825 73.4225 41.5139C73.4394 41.4128 74.4355 31.6871 82.4885 27.4394C83.0456 27.1529 83.3833 26.5798 83.3833 25.9562C83.3833 25.3325 83.0456 24.7763 82.4885 24.4897C80.4288 23.4278 76.951 22.585 72.0381 24.6077C68.7291 25.973 65.9941 29.1419 64.1201 33.7435C62.7358 37.182 62.2968 40.1655 62.2799 40.3003C62.2462 40.5026 62.3137 40.7048 62.4656 40.8565C62.6176 41.0082 62.8202 41.0757 63.0228 41.0419C63.0396 41.0419 65.6396 40.688 72.629 42.1039C72.6965 42.1039 72.7303 42.1039 72.781 42.1039ZM77.7614 24.692C79.534 24.692 80.9184 25.1471 81.8976 25.6528C82.0664 25.737 82.0833 25.8887 82.0833 25.9562C82.0833 26.0236 82.0664 26.1921 81.8807 26.2764C78.2678 28.1811 75.4484 31.3837 73.6926 35.5639C72.781 37.7551 72.3758 39.6766 72.2238 40.6543C67.6149 39.7609 64.9812 39.6429 63.7318 39.6766C64.2552 37.0135 66.4162 28.3497 72.5446 25.8045C74.5705 24.9954 76.2926 24.692 77.7614 24.692Z" fill="#11276B"/>
<path d="M65.1328 39.9294C65.1328 39.9294 66.7873 40.0474 69.286 40.8396C70.5184 41.2273 71.9366 41.7667 73.4729 42.542C73.4729 42.542 73.9456 41.5476 74.9417 39.9968C76.0222 38.3113 77.7273 36.0021 80.1247 33.6423C80.6987 33.0692 80.3442 32.0915 79.5338 32.0241C78.6728 31.9567 77.5754 31.9398 76.343 32.0915C73.4898 32.4455 69.9444 33.6928 66.9899 37.2325C66.3315 38.0079 65.7237 38.9012 65.1328 39.9294Z" fill="#30E542"/>
<g opacity="0.3">
<path opacity="0.3" d="M65.1323 39.9295C65.1323 39.9295 66.7868 40.0475 69.2855 40.8397C70.5179 41.2274 71.936 41.7668 73.4724 42.5421C73.4724 42.5421 73.9451 41.5476 74.9412 39.9969C74.3672 39.6767 73.7931 39.407 73.2022 39.1373C72.5776 38.8676 71.9529 38.6148 71.3283 38.3956C69.9101 37.89 68.4582 37.5023 66.9725 37.2326C66.331 38.008 65.7232 38.9013 65.1323 39.9295Z" fill="#11276B"/>
</g>
<path d="M73.4727 43.1826C73.5403 43.1826 73.6247 43.1658 73.6922 43.1489C73.861 43.0983 73.9961 42.9635 74.0636 42.8118C74.0805 42.7612 76.1402 38.4799 80.5972 34.0974C81.0531 33.6592 81.1881 33.0018 80.9855 32.4118C80.766 31.8219 80.2427 31.4174 79.6011 31.3668C75.9207 31.0634 69.0663 31.7208 64.5587 39.5924C64.4405 39.7946 64.4405 40.0306 64.5418 40.216C64.6431 40.4014 64.8457 40.5363 65.0651 40.5531C65.0989 40.5531 68.6949 40.8565 73.1688 43.0983C73.2701 43.1658 73.3714 43.1826 73.4727 43.1826ZM78.2336 32.6141C78.6895 32.6141 79.1115 32.631 79.4998 32.6647C79.6687 32.6815 79.7362 32.7995 79.7531 32.8501C79.77 32.9175 79.8037 33.0355 79.6856 33.1535C75.9882 36.7775 73.9286 40.2834 73.2026 41.6487C70.1468 40.1992 67.5807 39.6092 66.2132 39.3901C69.8429 33.7266 74.874 32.6141 78.2336 32.6141Z" fill="#11276B"/>
<path d="M60.2544 40.4015C60.2544 40.4015 58.5324 40.1318 53.9234 40.8398C52.9104 40.9915 51.7455 41.1937 50.4287 41.4634C50.4287 41.4634 50.3442 40.5532 50.0066 39.1542C49.5508 37.3169 48.6391 34.6369 46.8664 32.0917C46.4612 31.5017 45.9885 30.9118 45.482 30.3556C44.3002 29.0408 42.8314 27.8272 41.025 26.8833C40.299 26.4956 40.2821 25.4674 41.025 25.0966C42.8146 24.1695 46.1236 23.2593 50.9183 25.2483C55.8987 27.3047 58.3466 33.0356 59.4609 36.8281C59.9167 38.4125 60.1531 39.6599 60.2375 40.1655C60.2375 40.3004 60.2544 40.4015 60.2544 40.4015Z" fill="#30E542"/>
<g opacity="0.3">
<path opacity="0.3" d="M59.4271 36.8112C58.9207 36.845 58.4142 36.8955 57.9077 36.9629C54.0078 32.4288 49.3819 30.8275 45.6677 30.3724C45.6002 30.3724 45.5327 30.3555 45.482 30.3555C45.9885 30.9118 46.4443 31.5017 46.8664 32.0917C48.6391 34.6369 49.5508 37.3169 50.0066 39.1542C50.3611 40.5532 50.4287 41.4634 50.4287 41.4634C51.7455 41.1937 52.8935 40.9914 53.9234 40.8397C58.5324 40.1318 60.2544 40.4015 60.2544 40.4015C60.2544 40.4015 60.0518 38.8845 59.4271 36.8112Z" fill="#11276B"/>
</g>
<path d="M50.4283 42.104C50.479 42.104 50.5128 42.104 50.5634 42.0871C57.5528 40.6881 60.1359 41.0252 60.1697 41.0252C60.3723 41.0589 60.5748 40.9915 60.7268 40.8398C60.8787 40.6881 60.9463 40.4858 60.9125 40.2836C60.8956 40.1656 60.4735 37.1653 59.0723 33.7267C57.1983 29.1251 54.4633 25.9563 51.1543 24.591C46.2414 22.5683 42.7636 23.4111 40.7039 24.473C40.1468 24.7595 39.8091 25.3158 39.8091 25.9394C39.8091 26.5631 40.1468 27.1362 40.7039 27.4227C48.7738 31.6703 49.7699 41.396 49.7699 41.4972C49.7868 41.6826 49.8881 41.8511 50.0232 41.9523C50.1413 42.0703 50.2933 42.104 50.4283 42.104ZM59.2073 39.6936C57.8736 39.6936 55.2906 39.8453 50.9855 40.6881C50.8335 39.6936 50.4283 37.7889 49.5167 35.5977C47.7609 31.4175 44.9415 28.1981 41.3286 26.3103C41.1428 26.2091 41.126 26.0574 41.126 25.99C41.126 25.9057 41.1429 25.7709 41.3117 25.6866C43.1181 24.7427 46.2077 24.0179 50.6478 25.8552C56.7931 28.4004 58.9372 37.0642 59.4606 39.7273C59.3762 39.6936 59.2918 39.6936 59.2073 39.6936Z" fill="#11276B"/>
<path d="M58.0763 39.9296C58.0763 39.9296 56.4218 40.0476 53.9231 40.8398C52.6907 41.2275 51.2726 41.7669 49.7362 42.5422C49.7362 42.5422 49.2635 41.5477 48.2674 39.997C47.187 38.3115 45.4818 36.0022 43.0845 33.6425C42.5104 33.0694 42.865 32.0917 43.6754 32.0243C44.5364 31.9569 45.6337 31.94 46.8662 32.0917C49.7194 32.4457 53.2647 33.693 56.2192 37.2327C56.8607 38.0081 57.4854 38.9014 58.0763 39.9296Z" fill="#30E542"/>
<g opacity="0.3">
<path opacity="0.3" d="M58.0763 39.9297C58.0763 39.9297 56.4218 40.0477 53.9231 40.8399C52.6907 41.2276 51.2726 41.767 49.7362 42.5423C49.7362 42.5423 49.2635 41.5478 48.2674 39.9971C48.8415 39.6769 49.4155 39.4072 50.0064 39.1375C50.631 38.8678 51.2557 38.6149 51.8803 38.3958C53.2985 37.8902 54.7504 37.5025 56.2361 37.2328C56.8607 38.0081 57.4854 38.9015 58.0763 39.9297Z" fill="#11276B"/>
</g>
<path d="M49.7198 43.1828C49.8211 43.1828 49.9224 43.1659 50.0068 43.1153C54.4808 40.8567 58.0768 40.5701 58.1105 40.5701C58.33 40.5533 58.5326 40.4184 58.6339 40.233C58.7352 40.0476 58.7352 39.7948 58.617 39.6094C54.1262 31.7378 47.2718 31.0804 43.5745 31.3838C42.9499 31.4344 42.4096 31.8389 42.207 32.4289C41.9876 33.0188 42.1395 33.6593 42.5953 34.1144C47.0524 38.5138 49.0952 42.7782 49.1289 42.8288C49.1965 42.9805 49.3484 43.1153 49.5004 43.1659C49.5848 43.1828 49.6523 43.1828 49.7198 43.1828ZM56.9963 39.4071C55.6457 39.6262 53.0795 40.2162 50.0068 41.6658C49.2809 40.3005 47.2043 36.7945 43.5239 33.1705C43.4057 33.0525 43.4226 32.9345 43.4564 32.8671C43.4732 32.8166 43.5408 32.6817 43.7096 32.6817C46.9511 32.412 52.86 32.9514 56.9963 39.4071Z" fill="#11276B"/>
<path d="M62.5671 89.0302H60.4399C49.4324 89.0302 40.5015 80.1135 40.5015 69.1236V58.3866C40.5015 47.3967 49.4324 38.4801 60.4399 38.4801H62.5671C73.5747 38.4801 82.5056 47.3967 82.5056 58.3866V69.1236C82.5056 80.1304 73.5747 89.0302 62.5671 89.0302Z" fill="#FFD225"/>
<g opacity="0.7">
<mask id="mask0_1205_9181" style="mask-type:alpha" maskUnits="userSpaceOnUse" x="41" y="38" width="43" height="51">
<rect width="42.153" height="50.2448" rx="21.0765" transform="matrix(-1 0 0 1 83.3285 38.6711)" fill="#C4C4C4"/>
</mask>
<g mask="url(#mask0_1205_9181)">
<g opacity="0.7">
<path opacity="0.7" d="M42.4668 52.1732C42.5304 52.1732 42.5941 52.1574 42.6577 52.1415C53.8879 47.8853 64.3545 40.2147 71.1626 34.5292C78.5274 28.3831 83.3154 23.1582 83.3631 23.1106C83.554 22.8882 83.538 22.5547 83.3313 22.3641C83.1245 22.1736 82.7745 22.1894 82.5836 22.3959C82.5359 22.4435 77.7957 27.6208 70.4786 33.7351C63.7341 39.3571 53.3788 46.9483 42.2918 51.1568C42.0214 51.268 41.8783 51.5697 41.9896 51.8397C42.0532 52.0462 42.26 52.1732 42.4668 52.1732Z" fill="#E89933"/>
</g>
<g opacity="0.7">
<path opacity="0.7" d="M88.3733 52.1734C88.596 52.1734 88.7868 52.0463 88.8664 51.824C88.9618 51.554 88.8346 51.2364 88.5482 51.1411C76.3637 46.5991 64.9108 37.7532 57.4346 31.1149C49.3381 23.9207 44.0571 17.727 43.9934 17.6635C43.8026 17.4411 43.4685 17.4094 43.2458 17.5999C43.0231 17.7905 42.9913 18.124 43.1822 18.3463C43.2299 18.4099 48.5587 24.6512 56.7188 31.893C64.2745 38.6108 75.8547 47.552 88.1983 52.1416C88.2619 52.1575 88.3255 52.1734 88.3733 52.1734Z" fill="#E89933"/>
</g>
<g opacity="0.7">
<path opacity="0.7" d="M42.4668 68.0072C42.5304 68.0072 42.5941 67.9913 42.6577 67.9755C53.8879 63.7193 64.3545 56.0486 71.1626 50.3632C78.5274 44.2171 83.3154 38.9922 83.3631 38.9445C83.554 38.7222 83.538 38.3887 83.3313 38.1981C83.1086 38.0075 82.7745 38.0234 82.5836 38.2299C82.5359 38.2775 77.7957 43.4548 70.4786 49.5532C63.7341 55.1752 53.3788 62.7664 42.2918 66.9749C42.0214 67.0861 41.8783 67.3878 41.9896 67.6578C42.0532 67.8802 42.26 68.0072 42.4668 68.0072Z" fill="#E89933"/>
</g>
<g opacity="0.7">
<path opacity="0.7" d="M88.3734 68.0069C88.5802 68.0069 88.787 67.8798 88.8666 67.6575C88.9779 67.3875 88.8347 67.0699 88.5643 66.9746C77.4773 62.7661 67.122 55.1748 60.3776 49.5529C53.0605 43.4545 48.3203 38.2772 48.2725 38.2295C48.0816 38.0072 47.7317 37.9913 47.5249 38.1978C47.3022 38.3884 47.2863 38.7377 47.4931 38.9442C47.5408 38.9918 52.3287 44.2168 59.6936 50.3628C66.4858 56.0483 76.9524 63.7189 88.1985 67.9751C88.2462 68.0069 88.3098 68.0069 88.3734 68.0069Z" fill="#E89933"/>
</g>
<g opacity="0.7">
<path opacity="0.7" d="M88.3739 83.8563C88.5966 83.8563 88.7874 83.7292 88.867 83.5069C88.9624 83.2369 88.8352 82.9193 88.5488 82.824C81.8203 80.3148 70.9719 74.8199 57.4512 62.8137C49.3387 55.6194 44.0577 49.4258 44.01 49.3622C43.8191 49.1399 43.485 49.1081 43.2623 49.2987C43.0396 49.4893 43.0078 49.8228 43.1987 50.0451C43.2464 50.1087 48.5752 56.35 56.7354 63.5918C64.2752 70.2778 75.8553 79.219 88.1989 83.8087C88.2625 83.8404 88.3262 83.8563 88.3739 83.8563Z" fill="#E89933"/>
</g>
<g opacity="0.7">
<path opacity="0.7" d="M42.467 83.8563C42.5306 83.8563 42.5942 83.8404 42.6578 83.8245C55.0015 79.2349 66.5657 70.2937 74.1055 63.5918C82.2656 56.35 87.5944 50.1087 87.6421 50.0451C87.833 49.8228 87.8012 49.4893 87.5785 49.2987C87.3558 49.1081 87.0218 49.1399 86.8309 49.3622C86.7832 49.4258 81.4862 55.6194 73.3897 62.8137C59.853 74.8199 49.0046 80.3307 42.292 82.824C42.0216 82.9193 41.8784 83.2369 41.9738 83.5069C42.0534 83.7134 42.2602 83.8563 42.467 83.8563Z" fill="#E89933"/>
</g>
<g opacity="0.7">
<path opacity="0.7" d="M88.3739 97.2284C88.5966 97.2284 88.7874 97.1013 88.867 96.879C88.9624 96.609 88.8352 96.2914 88.5488 96.1961C76.3643 91.6541 64.9114 82.8082 57.4352 76.1699C49.3387 68.9757 44.0577 62.782 43.994 62.7184C43.8032 62.4961 43.4691 62.4643 43.2464 62.6549C43.0237 62.8455 42.9919 63.179 43.1828 63.4013C43.2305 63.4649 48.5593 69.7062 56.7194 76.948C64.2751 83.6499 75.8553 92.5911 88.1989 97.1808C88.2625 97.2125 88.3262 97.2284 88.3739 97.2284Z" fill="#E89933"/>
</g>
<g opacity="0.7">
<path opacity="0.7" d="M42.467 97.2286C42.5306 97.2286 42.5942 97.2127 42.6578 97.1969C55.0015 92.6072 66.5657 83.666 74.1055 76.9642C82.2656 69.7223 87.5944 63.481 87.6421 63.4175C87.833 63.1951 87.8012 62.8616 87.5785 62.671C87.3558 62.4805 87.0218 62.5122 86.8309 62.7346C86.7832 62.7981 81.4862 68.9918 73.3897 76.186C59.853 88.1922 49.0046 93.703 42.292 96.1963C42.0216 96.2916 41.8784 96.6093 41.9738 96.8792C42.0534 97.0857 42.2602 97.2286 42.467 97.2286Z" fill="#E89933"/>
</g>
<g opacity="0.7">
<path opacity="0.7" d="M42.4668 68.0072C42.5304 68.0072 42.5941 67.9913 42.6577 67.9755C53.8879 63.7193 64.3545 56.0486 71.1626 50.3632C78.5274 44.2171 83.3154 38.9922 83.3631 38.9445C83.554 38.7222 83.538 38.3887 83.3313 38.1981C83.1086 38.0075 82.7745 38.0234 82.5836 38.2299C82.5359 38.2775 77.7957 43.4548 70.4786 49.5532C63.7341 55.1752 53.3788 62.7664 42.2918 66.9749C42.0214 67.0861 41.8783 67.3878 41.9896 67.6578C42.0532 67.8802 42.26 68.0072 42.4668 68.0072Z" fill="#E89933"/>
</g>
</g>
</g>
<g opacity="0.3">
<path opacity="0.3" d="M62.5671 85.9959H60.4399C49.4324 85.9959 40.5015 77.0792 40.5015 66.0894V69.1234C40.5015 80.1132 49.4324 89.0299 60.4399 89.0299H62.5671C73.5747 89.0299 82.5056 80.1132 82.5056 69.1234V66.0894C82.5056 77.0792 73.5747 85.9959 62.5671 85.9959Z" fill="#11276B"/>
</g>
<g opacity="0.7">
<path opacity="0.7" d="M62.5676 38.4968H60.4404C57.3002 38.4968 54.312 39.2216 51.6783 40.5195C50.9692 40.7892 50.3446 41.1432 49.8719 41.514C44.2499 45.0368 40.502 51.2734 40.502 58.3865V60.4766C40.502 53.5489 44.0473 47.4303 49.4329 43.8738C50.1589 44.2783 51.4926 44.2615 52.8939 43.7558C54.599 43.1321 55.7639 42.0197 55.6964 41.1432C57.2158 40.7723 58.8028 40.5701 60.4235 40.5701H62.5508C73.5583 40.5701 82.4892 49.4867 82.4892 60.4766V58.3865C82.5061 47.3966 73.5752 38.4968 62.5676 38.4968Z" fill="white"/>
</g>
<path d="M60.4572 89.721H62.5845C73.9465 89.721 83.1982 80.4841 83.1982 69.1403V58.4032C83.1982 47.0594 73.9465 37.8225 62.5845 37.8225H60.4572C49.0952 37.8225 39.8435 47.0594 39.8435 58.4032V69.1403C39.8435 80.4841 49.0783 89.721 60.4572 89.721ZM62.5676 39.171C73.1868 39.171 81.8139 47.801 81.8139 58.3864V69.1234C81.8139 79.7256 73.1699 88.3388 62.5676 88.3388H60.4404C49.8211 88.3388 41.1941 79.7088 41.1941 69.1234V58.3864C41.1941 47.7842 49.838 39.171 60.4404 39.171H62.5676V39.171Z" fill="#11276B"/>
<path d="M52.6228 61.4336C54.2426 61.4336 55.5557 59.8866 55.5557 57.9782C55.5557 56.0699 54.2426 54.5228 52.6228 54.5228C51.003 54.5228 49.6899 56.0699 49.6899 57.9782C49.6899 59.8866 51.003 61.4336 52.6228 61.4336Z" fill="#11276B"/>
<path d="M53.584 59.4046C54.1984 59.4046 54.6965 58.816 54.6965 58.0899C54.6965 57.3638 54.1984 56.7751 53.584 56.7751C52.9696 56.7751 52.4716 57.3638 52.4716 58.0899C52.4716 58.816 52.9696 59.4046 53.584 59.4046Z" fill="white"/>
<path d="M69.0575 61.4336C70.6773 61.4336 71.9904 59.8866 71.9904 57.9782C71.9904 56.0699 70.6773 54.5228 69.0575 54.5228C67.4377 54.5228 66.1246 56.0699 66.1246 57.9782C66.1246 59.8866 67.4377 61.4336 69.0575 61.4336Z" fill="#11276B"/>
<path d="M68.0592 59.4046C68.6736 59.4046 69.1717 58.816 69.1717 58.0899C69.1717 57.3638 68.6736 56.7751 68.0592 56.7751C67.4448 56.7751 66.9468 57.3638 66.9468 58.0899C66.9468 58.816 67.4448 59.4046 68.0592 59.4046Z" fill="white"/>
<path d="M60.8826 67.7209C64.6583 67.7209 65.0797 64.5352 65.046 62.8328C65.0291 62.2428 64.6077 61.7877 64.1021 61.7877H60.8826H57.6632C57.1575 61.7877 56.7362 62.2428 56.7193 62.8328C56.6687 64.5352 57.107 67.7209 60.8826 67.7209Z" fill="#11276B"/>
<path d="M61.1102 67.928C62.1092 67.925 63.0051 67.6134 63.633 67.121C63.5182 66.1483 62.429 65.3876 61.1026 65.3916C59.7762 65.3956 58.6915 66.1627 58.5825 67.1361C59.2134 67.6248 60.1111 67.931 61.1102 67.928Z" fill="#F47DA2"/>
</g>
<defs>
<clipPath id="clip0_1205_9181">
<rect width="113" height="113" fill="white"/>
</clipPath>
</defs>
</svg>
