<?xml version="1.0" standalone="no"?>
<!DOCTYPE svg PUBLIC "-//W3C//DTD SVG 1.1//EN" "http://www.w3.org/Graphics/SVG/1.1/DTD/svg11.dtd" >
<svg xmlns="http://www.w3.org/2000/svg" xmlns:xlink="http://www.w3.org/1999/xlink" version="1.1">
<metadata>
Created by FontForge 20170731 at Fri Feb  9 18:47:01 2018
 By Aleksey,,,
(c) 2018 Microsoft Corporation. All Rights Reserved.
</metadata>
<defs>
<font id="Gadugi-Bold" horiz-adv-x="1634" >
  <font-face 
    font-family="Gadugi"
    font-weight="700"
    font-stretch="normal"
    units-per-em="2048"
    panose-1="2 11 8 2 4 2 4 2 2 3"
    ascent="1638"
    descent="-410"
    x-height="1024"
    cap-height="1434"
    bbox="-419 -489 2752 1958"
    underline-thickness="119"
    underline-position="-355"
    unicode-range="U+000D-104FB"
  />
<missing-glyph horiz-adv-x="1322" 
d="M166 0v1398h990v-1398h-990zM314 148h694v1102h-694v-1102z" />
    <glyph glyph-name=".notdef" horiz-adv-x="1322" 
d="M166 0v1398h990v-1398h-990zM314 148h694v1102h-694v-1102z" />
    <glyph glyph-name=".null" horiz-adv-x="0" 
 />
    <glyph glyph-name="uni000D" unicode="&#xd;" horiz-adv-x="0" 
 />
    <glyph glyph-name="space" unicode=" " horiz-adv-x="565" 
 />
    <glyph glyph-name="exclam" unicode="!" horiz-adv-x="670" 
d="M500 1434l-39 -988h-256l-37 988h332zM336 -23q-80 0 -132 48.5t-52 117.5q0 72 52.5 118t131.5 46q80 0 131 -46.5t51 -117.5q0 -72 -50.5 -119t-131.5 -47z" />
    <glyph glyph-name="quotedbl" unicode="&#x22;" horiz-adv-x="1010" 
d="M834 1452l-31 -444h-201l-31 444h263zM438 1452l-30 -442h-203l-29 442h262z" />
    <glyph glyph-name="numbersign" unicode="#" horiz-adv-x="1213" 
d="M1176 1069l-39 -180h-185l-55 -248h207l-45 -180h-199l-78 -346h-200l73 346h-229l-74 -346h-200l71 346h-186l37 180h188l53 248h-202l34 180h205l74 356h205l-74 -356h229l76 356h203l-74 -356h185zM750 889h-232l-55 -248h231z" />
    <glyph glyph-name="dollar" unicode="$" horiz-adv-x="1178" 
d="M674 8v-217h-146v211q-203 1 -378 92v277q58 -47 173 -87t205 -46v364q-234 87 -319.5 188.5t-85.5 247.5q0 157 111 267.5t294 128.5v186h146v-182q211 -10 315 -68v-270q-140 85 -315 104v-379q219 -79 314 -180.5t95 -245.5q0 -166 -106 -267.5t-303 -123.5zM528 883
v317q-139 -25 -139 -145q0 -103 139 -172zM674 545v-303q143 22 143 143q0 98 -143 160z" />
    <glyph glyph-name="percent" unicode="%" horiz-adv-x="1776" 
d="M430 707q-153 0 -246.5 97t-93.5 261q0 179 99.5 284t265.5 105q159 0 248.5 -95t89.5 -267q0 -177 -99 -281t-264 -104zM449 1278q-146 0 -146 -203q0 -192 139 -192q142 0 142 200q0 195 -135 195zM1477 1434l-934 -1434h-244l932 1434h246zM1323 -20q-153 0 -246.5 97
t-93.5 261q0 179 99.5 284t265.5 105q160 0 249 -94t89 -266q0 -177 -99 -282t-264 -105zM1339 551q-145 0 -145 -203q0 -192 141 -192q142 0 142 200q0 93 -38 144t-100 51z" />
    <glyph glyph-name="ampersand" unicode="&#x26;" horiz-adv-x="1740" 
d="M1479 -23q-53 0 -100.5 14t-90 38t-80.5 56.5t-72 69.5q-37 -30 -89 -62t-117.5 -57.5t-144.5 -42t-169 -16.5q-117 0 -216.5 28t-171.5 83.5t-112.5 137.5t-40.5 190q0 85 30.5 151.5t79.5 116.5t111 86t126 60q-31 24 -62.5 55.5t-56.5 69t-40.5 81.5t-15.5 93
q0 79 32 140t89.5 103t137.5 64t176 22q92 0 168.5 -23t131.5 -64t85 -98.5t30 -126.5q0 -111 -66.5 -192.5t-187.5 -132.5q48 -22 92 -50t86 -64t82 -81.5t79 -104.5q82 103 117.5 219.5t35.5 242.5q0 38 -4.5 73t-14.5 65h269q11 -32 16 -62t5 -71q0 -97 -20.5 -189
t-57.5 -176t-89.5 -159t-115.5 -140q49 -51 101 -78.5t98 -27.5q48 0 98 10.5t87 29.5v-238q-55 -22 -108.5 -32.5t-119.5 -10.5zM632 216q59 0 111 11.5t98 30.5t85.5 44t72.5 52q-51 80 -101 135.5t-99 95t-97.5 66.5t-97.5 49q-41 -20 -78.5 -44.5t-66.5 -57t-46.5 -74
t-17.5 -95.5q0 -48 17 -87t48.5 -67t75 -43.5t96.5 -15.5zM817 1124q0 29 -11 52t-30 38.5t-43 24t-51 8.5q-33 0 -60.5 -10t-48 -27t-31.5 -40.5t-11 -50.5q0 -56 35 -103t87 -76q33 12 62.5 28t52 38t36 51t13.5 67z" />
    <glyph glyph-name="quotesingle" unicode="'" horiz-adv-x="600" 
d="M430 1452l-31 -442h-200l-29 442h260z" />
    <glyph glyph-name="parenleft" unicode="(" horiz-adv-x="756" 
d="M739 -326h-258q-323 356 -323 875q0 501 323 885h256q-303 -402 -303 -885t305 -875z" />
    <glyph glyph-name="parenright" unicode=")" horiz-adv-x="756" 
d="M274 -326h-256q306 390 306 875q0 481 -306 885h258q324 -385 324 -885q0 -515 -326 -875z" />
    <glyph glyph-name="asterisk" unicode="*" horiz-adv-x="932" 
d="M864 1053l-274 -37l196 -211l-182 -125l-137 254l-137 -254l-183 125l197 211l-274 37l71 202l252 -108l-43 287h234l-43 -287l250 108z" />
    <glyph glyph-name="plus" unicode="+" horiz-adv-x="1448" 
d="M1212 485h-385v-385h-202v385h-387v203h387v387h202v-387h385v-203z" />
    <glyph glyph-name="comma" unicode="," horiz-adv-x="555" 
d="M432 252l-147 -506h-246l102 506h291z" />
    <glyph glyph-name="hyphen" unicode="-" horiz-adv-x="828" 
d="M690 436h-547v221h547v-221z" />
    <glyph glyph-name="period" unicode="." horiz-adv-x="555" 
d="M274 -25q-78 0 -130 48t-52 118q0 72 53.5 118t133.5 46q81 0 132.5 -46.5t51.5 -117.5q0 -73 -52.5 -119.5t-136.5 -46.5z" />
    <glyph glyph-name="slash" unicode="/" horiz-adv-x="908" 
d="M932 1434l-699 -1672h-282l696 1672h285z" />
    <glyph glyph-name="zero" unicode="0" horiz-adv-x="1178" 
d="M581 -25q-512 0 -512 719q0 373 138.5 568.5t401.5 195.5q500 0 500 -731q0 -364 -136.5 -558t-391.5 -194zM595 1217q-205 0 -205 -515q0 -485 201 -485q196 0 196 500t-192 500z" />
    <glyph glyph-name="one" unicode="1" horiz-adv-x="1178" 
d="M832 1466v-1466h-315v1110q-26 -23 -61.5 -43.5t-75.5 -37t-83 -28t-85 -16.5v266q123 36 232 92t197 123h191z" />
    <glyph glyph-name="two" unicode="2" horiz-adv-x="1178" 
d="M429 262h608v-262h-954v108q0 110 37 197.5t93 157t122.5 123t126.5 96.5q63 45 110.5 86t80 81.5t48.5 82t16 88.5q0 92 -52 139t-159 47q-185 0 -354 -147v278q187 121 422 121q109 0 195.5 -28.5t146.5 -81.5t91.5 -128.5t31.5 -168.5q0 -99 -30.5 -176t-81 -140
t-116.5 -115.5t-137 -101.5q-48 -34 -92.5 -67.5t-78.5 -66t-54 -63.5t-20 -59z" />
    <glyph glyph-name="three" unicode="3" horiz-adv-x="1178" 
d="M117 47v275q144 -105 336 -105q121 0 188.5 52t67.5 145q0 96 -83.5 148t-229.5 52h-133v242h123q280 0 280 186q0 175 -215 175q-144 0 -280 -93v258q151 76 352 76q220 0 342.5 -99t122.5 -257q0 -281 -285 -352v-5q152 -19 240 -110.5t88 -224.5q0 -201 -147 -318
t-406 -117q-222 0 -361 72z" />
    <glyph glyph-name="four" unicode="4" horiz-adv-x="1178" 
d="M952 1434v-904h172v-236h-172v-294h-288v294h-625v247q83 93 172 203.5t172 227.5t154.5 235.5t121.5 226.5h293zM322 530h342v501q-35 -65 -76 -131.5t-86 -131t-91 -125t-89 -113.5z" />
    <glyph glyph-name="five" unicode="5" horiz-adv-x="1178" 
d="M142 37v270q147 -90 313 -90q125 0 195.5 59.5t70.5 161.5q0 213 -301 213q-111 0 -256 -17l54 800h759v-258h-518l-20 -287q77 6 133 6q221 0 346 -116t125 -312q0 -217 -149 -354.5t-404 -137.5q-207 0 -348 62z" />
    <glyph glyph-name="six" unicode="6" horiz-adv-x="1178" 
d="M1110 477q0 -106 -37 -198t-103 -159.5t-157 -106t-199 -38.5q-121 0 -216.5 45t-161.5 130.5t-101 209.5t-35 281q0 185 45.5 335.5t130 257.5t204.5 165.5t270 58.5q166 0 258 -39v-264q-109 62 -238 62q-80 0 -145 -31t-111.5 -88t-73 -137.5t-28.5 -179.5h6
q102 141 301 141q89 0 161 -32t123 -90.5t79 -140.5t28 -182zM801 457q0 231 -189 231q-43 0 -78 -16t-60 -45t-38.5 -68.5t-13.5 -87.5q0 -53 14 -99t39.5 -80.5t60.5 -54.5t78 -20t77.5 17.5t59 49t37.5 76t13 97.5z" />
    <glyph glyph-name="seven" unicode="7" horiz-adv-x="1178" 
d="M1094 1252q-96 -173 -172 -324.5t-134 -299t-99 -300t-67 -328.5h-330q28 167 74 322t106.5 300.5t134 283.5t155.5 270h-666v258h998v-182z" />
    <glyph glyph-name="eight" unicode="8" horiz-adv-x="1178" 
d="M80 386q0 60 17.5 115.5t52.5 103t87.5 85t123.5 61.5q-109 54 -169 138.5t-60 187.5q0 82 34.5 152t95.5 121t145.5 79.5t184.5 28.5q102 0 187 -28.5t146.5 -79t95.5 -119.5t34 -150q0 -102 -64 -185.5t-177 -137.5q70 -24 123 -61.5t89 -85.5t54 -104.5t18 -117.5
q0 -92 -37 -167.5t-104.5 -130t-161 -84.5t-206.5 -30q-111 0 -204.5 29.5t-161 83.5t-105.5 129.5t-38 166.5zM379 413q0 -49 15 -88t43 -66t66.5 -41.5t86.5 -14.5q46 0 84.5 15t66.5 42t44 66t16 87q0 43 -15 82t-43 67.5t-66.5 45.5t-86.5 17q-45 0 -84 -15.5t-67 -44
t-44 -67.5t-16 -85zM423 1048q0 -38 13.5 -71.5t36.5 -58t54.5 -38.5t66.5 -14q36 0 67 14t54.5 39t37 58t13.5 71q0 39 -13 72.5t-36.5 58t-55 38.5t-67.5 14q-38 0 -69.5 -14.5t-54 -39t-35 -58t-12.5 -71.5z" />
    <glyph glyph-name="nine" unicode="9" horiz-adv-x="1178" 
d="M1087 786q0 -191 -42 -341.5t-122.5 -254.5t-196.5 -159.5t-263 -55.5q-176 0 -303 56v260q113 -74 272 -74q163 0 255 111t93 321l-6 2q-95 -141 -289 -141q-88 0 -162.5 33t-129 91.5t-85 139.5t-30.5 178q0 113 37 206t103.5 160t159.5 103.5t206 36.5
q117 0 210 -45.5t158.5 -131.5t100 -211t34.5 -284zM768 954q0 55 -14 103.5t-39 83.5t-61 55.5t-79 20.5q-41 0 -75.5 -18t-59.5 -49.5t-39 -75.5t-14 -95q0 -56 14 -99.5t39.5 -73.5t61.5 -45.5t80 -15.5q42 0 76 16.5t58.5 44.5t38 66t13.5 82z" />
    <glyph glyph-name="colon" unicode=":" horiz-adv-x="555" 
d="M274 707q-78 0 -130 47.5t-52 117.5q0 72 53.5 118t133.5 46q81 0 132.5 -46.5t51.5 -117.5q0 -73 -52.5 -119t-136.5 -46zM274 -25q-78 0 -130 48t-52 118q0 72 53.5 118t133.5 46q81 0 132.5 -46.5t51.5 -117.5q0 -73 -52.5 -119.5t-136.5 -46.5z" />
    <glyph glyph-name="semicolon" unicode=";" horiz-adv-x="555" 
d="M281 707q-79 0 -131 48t-52 117q0 73 52.5 118.5t132.5 45.5q81 0 132.5 -46.5t51.5 -117.5q0 -73 -51 -119t-135 -46zM432 252l-147 -506h-246l102 506h291z" />
    <glyph glyph-name="less" unicode="&#x3c;" horiz-adv-x="1448" 
d="M1192 63l-934 426v162l934 447v-238l-666 -285v-6l666 -268v-238z" />
    <glyph glyph-name="equal" unicode="=" horiz-adv-x="1448" 
d="M1212 700h-974v205h974v-205zM1212 266h-974v203h974v-203z" />
    <glyph glyph-name="greater" unicode="&#x3e;" horiz-adv-x="1448" 
d="M1192 502l-934 -426v237l668 267v4l-668 286v238l934 -444v-162z" />
    <glyph glyph-name="question" unicode="?" horiz-adv-x="897" 
d="M263 415q-10 26 -15.5 58.5t-5.5 61.5q0 46 9 84t27 71.5t45 64t63 60.5q38 32 66.5 59.5t48.5 55t30 57t10 65.5q0 31 -11 57.5t-31.5 45.5t-50 30t-65.5 11q-78 0 -162 -32.5t-159 -98.5v301q77 46 168 69t188 23q93 0 173 -20.5t139.5 -64.5t93 -112.5t33.5 -164.5
q0 -61 -14 -110.5t-41 -93.5t-67 -84.5t-92 -83.5q-35 -29 -61.5 -54t-44 -49.5t-26.5 -52t-9 -62.5q0 -24 6.5 -49t17.5 -42h-263zM409 -23q-80 0 -133 48q-53 50 -53 118q0 70 53 117t133 47q79 0 131 -47q52 -46 52 -117q0 -72 -51 -119q-52 -47 -132 -47z" />
    <glyph glyph-name="at" unicode="@" horiz-adv-x="1954" 
d="M1122 371h-6q-70 -191 -254 -191q-138 0 -222.5 100t-84.5 277q0 229 117 372.5t282 143.5q149 0 187 -117h4l10 99h225q-45 -426 -45 -557q0 -140 76 -140q80 0 132 106t52 277q0 234 -149 383.5t-416 149.5q-286 0 -475.5 -199.5t-189.5 -486.5q0 -278 167.5 -438
t462.5 -160q225 0 412 86v-191q-171 -73 -440 -73q-369 0 -600.5 211.5t-231.5 568.5q0 364 247 612t636 248q360 0 582.5 -192.5t222.5 -507.5q0 -259 -136 -415.5t-337 -156.5q-99 0 -161 53t-67 138zM989 899q-90 0 -146.5 -102.5t-56.5 -237.5q0 -96 38.5 -149.5
t99.5 -53.5q94 0 148 101t54 270q0 80 -37.5 126t-99.5 46z" />
    <glyph glyph-name="A" unicode="A" horiz-adv-x="1440" 
d="M1425 0h-352l-102 319h-510l-101 -319h-350l522 1434h383zM897 567l-154 482q-17 54 -24 129h-8q-5 -63 -25 -125l-156 -486h367z" />
    <glyph glyph-name="B" unicode="B" horiz-adv-x="1313" 
d="M164 0v1434h522q240 0 369 -88t129 -248q0 -116 -78.5 -203t-200.5 -121v-4q153 -19 244.5 -113t91.5 -229q0 -197 -141 -312.5t-385 -115.5h-551zM487 1196v-340h142q100 0 157.5 48.5t57.5 133.5q0 158 -236 158h-121zM487 616v-378h175q112 0 175.5 52t63.5 142
q0 86 -62.5 135t-174.5 49h-177z" />
    <glyph glyph-name="C" unicode="C" horiz-adv-x="1278" 
d="M1192 51q-157 -76 -410 -76q-330 0 -519 194t-189 517q0 344 212.5 558t551.5 214q210 0 354 -53v-311q-144 86 -328 86q-202 0 -326 -127t-124 -344q0 -208 117 -331.5t315 -123.5q189 0 346 92v-295z" />
    <glyph glyph-name="D" unicode="D" horiz-adv-x="1510" 
d="M164 0v1434h508q764 0 764 -699q0 -335 -208.5 -535t-555.5 -200h-508zM487 1171v-909h160q210 0 329.5 126t119.5 343q0 205 -118.5 322.5t-332.5 117.5h-158z" />
    <glyph glyph-name="E" unicode="E" horiz-adv-x="1090" 
d="M1024 0h-860v1434h827v-263h-504v-319h469v-262h-469v-328h537v-262z" />
    <glyph glyph-name="F" unicode="F" horiz-adv-x="1065" 
d="M993 1171h-506v-352h465v-262h-465v-557h-323v1434h829v-263z" />
    <glyph glyph-name="G" unicode="G" horiz-adv-x="1456" 
d="M1341 96q-210 -121 -522 -121q-346 0 -545.5 191.5t-199.5 527.5q0 338 218 551t580 213q228 0 402 -63v-303q-166 96 -406 96q-201 0 -327.5 -130.5t-126.5 -348.5q0 -221 113.5 -342t306.5 -121q116 0 184 33v280h-287v258h610v-721z" />
    <glyph glyph-name="H" unicode="H" horiz-adv-x="1569" 
d="M1405 0h-324v584h-594v-584h-323v1434h323v-572h594v572h324v-1434z" />
    <glyph glyph-name="I" unicode="I" horiz-adv-x="649" 
d="M607 1434v-250h-120v-934h120v-250h-563v250h120v934h-120v250h563z" />
    <glyph glyph-name="J" unicode="J" horiz-adv-x="912" 
d="M762 569q0 -288 -133.5 -441t-386.5 -153q-113 0 -209 39v303q83 -63 186 -63q221 0 221 328v852h322v-865z" />
    <glyph glyph-name="K" unicode="K" horiz-adv-x="1329" 
d="M1356 0h-408l-418 623q-12 18 -38 79h-5v-702h-323v1434h323v-678h5q12 28 40 80l396 598h385l-500 -684z" />
    <glyph glyph-name="L" unicode="L" horiz-adv-x="1047" 
d="M1018 0h-854v1434h323v-1172h531v-262z" />
    <glyph glyph-name="M" unicode="M" horiz-adv-x="1960" 
d="M1798 0h-319v858q0 139 12 307h-8q-25 -132 -45 -190l-336 -975h-264l-342 965q-14 39 -45 200h-9q13 -212 13 -372v-793h-291v1434h473l293 -850q35 -102 51 -205h6q27 119 57 207l293 848h461v-1434z" />
    <glyph glyph-name="N" unicode="N" horiz-adv-x="1618" 
d="M1454 0h-326l-591 901q-52 79 -72 119h-4q8 -76 8 -232v-788h-305v1434h348l569 -873q39 -59 72 -117h4q-8 50 -8 197v793h305v-1434z" />
    <glyph glyph-name="O" unicode="O" horiz-adv-x="1553" 
d="M770 -25q-308 0 -502 200.5t-194 522.5q0 340 197 550t522 210q307 0 496.5 -201t189.5 -530q0 -338 -196.5 -545t-512.5 -207zM784 1180q-170 0 -270 -127.5t-100 -337.5q0 -213 100 -337t262 -124q167 0 265 120.5t98 334.5q0 223 -95 347t-260 124z" />
    <glyph glyph-name="P" unicode="P" horiz-adv-x="1258" 
d="M487 494v-494h-323v1434h506q542 0 542 -457q0 -216 -155.5 -349.5t-415.5 -133.5h-154zM487 1186v-447h127q258 0 258 226q0 221 -258 221h-127z" />
    <glyph glyph-name="Q" unicode="Q" horiz-adv-x="1553" 
d="M784 1180q-169 0 -270 -128q-100 -127 -100 -337q0 -212 99 -337q100 -124 263 -124q168 0 265 120q98 122 98 335q0 221 -94 345q-94 126 -261 126zM1040 27q52 -56 99 -92t94.5 -57t97.5 -29t109 -8q16 0 35 1.5t38.5 5t37.5 8t33 10.5v-272q-32 -9 -88.5 -18
t-137.5 -9q-98 0 -180.5 32t-158 87.5t-147 130.5t-148.5 161q-147 4 -267 61t-205 153.5t-131.5 226.5t-46.5 279q0 341 196 550q197 210 525 210q305 0 494 -202q190 -200 190 -529q0 -257 -116 -442q-116 -183 -323 -258z" />
    <glyph glyph-name="R" unicode="R" horiz-adv-x="1337" 
d="M1367 0h-371l-223 369q-25 42 -48 75t-46.5 56.5t-49 36t-55.5 12.5h-87v-549h-323v1434h512q522 0 522 -390q0 -75 -23 -138.5t-65 -114.5t-101.5 -88t-132.5 -58v-4q32 -10 62 -32.5t58 -52.5t53.5 -64.5t46.5 -67.5zM487 1192v-399h140q104 0 167 60q64 61 64 151
q0 188 -225 188h-146z" />
    <glyph glyph-name="S" unicode="S" horiz-adv-x="1148" 
d="M98 55v320q87 -73 189 -109.5t206 -36.5q61 0 106.5 11t76 30.5t45.5 46t15 57.5q0 42 -24 75t-65.5 61t-98.5 54t-123 53q-168 70 -250.5 171t-82.5 244q0 112 45 192.5t122.5 132.5t179.5 76.5t216 24.5q112 0 198.5 -13.5t159.5 -41.5v-299q-36 25 -78.5 44
t-87.5 31.5t-89.5 18.5t-84.5 6q-55 0 -100 -10.5t-76 -29.5t-48 -45.5t-17 -59.5q0 -36 19 -64.5t54 -54t85 -50t113 -50.5q86 -36 154.5 -76.5t117.5 -91.5t75 -116.5t26 -152.5q0 -120 -45.5 -201.5t-123.5 -132t-181.5 -72.5t-218.5 -22q-118 0 -224.5 20t-184.5 60z
" />
    <glyph glyph-name="T" unicode="T" horiz-adv-x="1200" 
d="M1171 1171h-409v-1171h-324v1171h-407v263h1140v-263z" />
    <glyph glyph-name="U" unicode="U" horiz-adv-x="1481" 
d="M1333 621q0 -646 -602 -646q-584 0 -584 631v828h324v-832q0 -348 272 -348q267 0 267 336v844h323v-813z" />
    <glyph glyph-name="V" unicode="V" horiz-adv-x="1366" 
d="M1358 1434l-494 -1434h-366l-488 1434h348l299 -998q24 -81 29 -143h6q7 67 31 147l297 994h338z" />
    <glyph glyph-name="W" unicode="W" horiz-adv-x="2058" 
d="M2040 1434l-379 -1434h-358l-238 920q-19 72 -23 161h-4q-9 -98 -26 -161l-244 -920h-373l-377 1434h353l202 -955q13 -61 19 -164h6q4 77 29 168l260 951h346l235 -963q13 -53 23 -154h4q4 79 21 160l198 957h326z" />
    <glyph glyph-name="X" unicode="X" horiz-adv-x="1342" 
d="M1335 0h-383l-247 467q-14 26 -29 96h-4q-7 -33 -33 -100l-248 -463h-385l457 717l-418 717h393l205 -430q24 -51 43 -121h4q12 42 45 125l228 426h360l-430 -711z" />
    <glyph glyph-name="Y" unicode="Y" horiz-adv-x="1243" 
d="M1245 1434l-467 -924v-510h-323v504l-455 930h369l231 -535q6 -15 33 -117h4q13 72 31 113l235 539h342z" />
    <glyph glyph-name="Z" unicode="Z" horiz-adv-x="1243" 
d="M1196 0h-1155v186l735 985h-682v263h1100v-181l-719 -991h721v-262z" />
    <glyph glyph-name="bracketleft" unicode="[" horiz-adv-x="756" 
d="M686 -326h-469v1760h469v-201h-209v-1358h209v-201z" />
    <glyph glyph-name="backslash" unicode="\" horiz-adv-x="893" 
d="M961 -238h-279l-682 1672h281z" />
    <glyph glyph-name="bracketright" unicode="]" horiz-adv-x="756" 
d="M541 -326h-471v201h211v1358h-211v201h471v-1760z" />
    <glyph glyph-name="asciicircum" unicode="^" horiz-adv-x="1448" 
d="M1249 610h-243l-287 586h-4l-271 -586h-241l430 848h162z" />
    <glyph glyph-name="underscore" unicode="_" horiz-adv-x="850" 
d="M850 -297h-850v119h850v-119z" />
    <glyph glyph-name="grave" unicode="`" horiz-adv-x="643" 
d="M596 1186h-227l-314 323h281z" />
    <glyph glyph-name="a" unicode="a" horiz-adv-x="1102" 
d="M985 0h-299v147h-4q-103 -172 -305 -172q-149 0 -234.5 84.5t-85.5 225.5q0 298 353 344l278 37q0 168 -182 168q-183 0 -348 -109v238q66 34 180.5 60t208.5 26q438 0 438 -437v-612zM688 416v69l-186 -24q-154 -20 -154 -139q0 -54 37.5 -88.5t101.5 -34.5
q89 0 145 61.5t56 155.5z" />
    <glyph glyph-name="b" unicode="b" horiz-adv-x="1270" 
d="M453 119h-4v-119h-316v1516h316v-646h4q117 179 333 179q198 0 305 -136t107 -372q0 -256 -125 -411t-334 -155q-189 0 -286 144zM444 551v-105q0 -99 57 -164t146 -65q108 0 167.5 83.5t59.5 236.5q0 127 -54.5 198.5t-155.5 71.5q-95 0 -157.5 -71t-62.5 -185z" />
    <glyph glyph-name="c" unicode="c" horiz-adv-x="983" 
d="M909 37q-107 -62 -309 -62q-236 0 -382 143t-146 369q0 261 156.5 411.5t418.5 150.5q181 0 262 -48v-268q-99 74 -221 74q-136 0 -215.5 -79.5t-79.5 -219.5q0 -136 76 -213.5t209 -77.5q118 0 231 74v-254z" />
    <glyph glyph-name="d" unicode="d" horiz-adv-x="1268" 
d="M1135 0h-316v141h-4q-108 -166 -317 -166q-192 0 -309 135.5t-117 378.5q0 254 129 407t338 153q198 0 276 -142h4v609h316v-1516zM825 498v77q0 100 -58 166t-151 66q-105 0 -164 -82.5t-59 -226.5q0 -135 57 -208t158 -73q96 0 156.5 77t60.5 204z" />
    <glyph glyph-name="e" unicode="e" horiz-adv-x="1108" 
d="M1053 422h-668q16 -223 281 -223q169 0 297 80v-228q-142 -76 -369 -76q-248 0 -385 137.5t-137 383.5q0 255 148 404t364 149q224 0 346.5 -133t122.5 -361v-133zM760 616q0 220 -178 220q-76 0 -131.5 -63t-67.5 -157h377z" />
    <glyph glyph-name="f" unicode="f" horiz-adv-x="785" 
d="M801 1274q-61 24 -117 24q-152 0 -152 -165v-109h234v-233h-234v-791h-315v791h-172v233h172v127q0 175 114 282t310 107q96 0 160 -20v-246z" />
    <glyph glyph-name="g" unicode="g" horiz-adv-x="1268" 
d="M1137 117q0 -285 -165 -441.5t-478 -156.5q-207 0 -328 59v266q158 -92 319 -92q160 0 248 84.5t88 229.5v81h-4q-108 -172 -319 -172q-196 0 -311 138t-115 370q0 260 128 413t337 153q187 0 280 -144h4v119h316v-907zM825 492v81q0 97 -57.5 165.5t-149.5 68.5
q-105 0 -165 -82t-60 -231q0 -128 57 -202.5t156 -74.5q98 0 158.5 75.5t60.5 199.5z" />
    <glyph glyph-name="h" unicode="h" horiz-adv-x="1233" 
d="M1116 0h-315v582q0 225 -164 225q-84 0 -136 -63t-52 -160v-584h-316v1516h316v-644h4q116 177 315 177q348 0 348 -420v-629z" />
    <glyph glyph-name="i" unicode="i" horiz-adv-x="582" 
d="M293 1186q-80 0 -131 47.5t-51 116.5q0 71 51 116t131 45q81 0 131.5 -45t50.5 -116q0 -72 -50.5 -118t-131.5 -46zM449 0h-316v1024h316v-1024z" />
    <glyph glyph-name="j" unicode="j" horiz-adv-x="582" 
d="M293 1186q-80 0 -131 47.5t-51 116.5q0 71 51 116t131 45q81 0 131.5 -45t50.5 -116q0 -72 -50.5 -118t-131.5 -46zM449 18q0 -227 -111 -363t-320 -136q-69 0 -151 30v248q66 -37 117 -37q149 0 149 234v1030h316v-1006z" />
    <glyph glyph-name="k" unicode="k" horiz-adv-x="1145" 
d="M1159 0h-379l-327 508h-4v-508h-316v1516h316v-965h4l305 473h375l-367 -481z" />
    <glyph glyph-name="l" unicode="l" horiz-adv-x="582" 
d="M449 0h-316v1516h316v-1516z" />
    <glyph glyph-name="m" unicode="m" horiz-adv-x="1876" 
d="M1759 0h-315v584q0 223 -164 223q-78 0 -127 -67t-49 -167v-573h-316v590q0 217 -161 217q-81 0 -129.5 -64t-48.5 -174v-569h-316v1024h316v-160h4q49 82 137.5 133.5t193.5 51.5q217 0 297 -191q117 191 344 191q334 0 334 -412v-637z" />
    <glyph glyph-name="n" unicode="n" horiz-adv-x="1239" 
d="M1122 0h-315v569q0 238 -170 238q-82 0 -135 -63t-53 -160v-584h-316v1024h316v-162h4q113 187 329 187q340 0 340 -422v-627z" />
    <glyph glyph-name="o" unicode="o" horiz-adv-x="1252" 
d="M621 -25q-256 0 -402.5 143.5t-146.5 389.5q0 254 152 397.5t411 143.5q255 0 400 -143.5t145 -379.5q0 -255 -149.5 -403t-409.5 -148zM629 807q-112 0 -174 -77t-62 -218q0 -295 238 -295q227 0 227 303q0 287 -229 287z" />
    <glyph glyph-name="p" unicode="p" horiz-adv-x="1270" 
d="M453 119h-4v-590h-316v1495h316v-154h4q117 179 329 179q199 0 307.5 -136.5t108.5 -371.5q0 -256 -126.5 -411t-336.5 -155q-185 0 -282 144zM444 539v-82q0 -106 56 -173t147 -67q108 0 167.5 83.5t59.5 236.5q0 270 -210 270q-97 0 -158.5 -73.5t-61.5 -194.5z" />
    <glyph glyph-name="q" unicode="q" horiz-adv-x="1268" 
d="M1135 -471h-316v612h-4q-107 -166 -315 -166q-193 0 -310.5 134.5t-117.5 377.5q0 256 129 409t336 153q188 0 278 -144h4v119h316v-1495zM825 489v82q0 100 -58 168t-149 68q-105 0 -165 -82.5t-60 -228.5q0 -131 58.5 -205t152.5 -74q100 0 160.5 75t60.5 197z" />
    <glyph glyph-name="r" unicode="r" horiz-adv-x="815" 
d="M801 739q-57 31 -133 31q-103 0 -161 -75.5t-58 -205.5v-489h-316v1024h316v-190h4q75 208 270 208q50 0 78 -12v-291z" />
    <glyph glyph-name="s" unicode="s" horiz-adv-x="901" 
d="M66 27v256q78 -47 155.5 -70t146.5 -23q84 0 132.5 23t48.5 70q0 30 -22 50t-56.5 35t-75.5 27t-79 27q-61 23 -107.5 49.5t-78 61.5t-48 81t-16.5 109q0 86 37.5 148t100 101.5t143 58t167.5 18.5q68 0 138 -10.5t138 -30.5v-244q-60 35 -128.5 52.5t-134.5 17.5
q-31 0 -58.5 -5.5t-48.5 -16t-33 -27t-12 -37.5q0 -28 18 -48t47 -34.5t64.5 -26t70.5 -23.5q63 -22 114 -48t87.5 -61t56 -82t19.5 -112q0 -91 -39.5 -155.5t-105 -105t-151 -59t-177.5 -18.5q-169 0 -313 52z" />
    <glyph glyph-name="t" unicode="t" horiz-adv-x="797" 
d="M752 12q-70 -37 -211 -37q-334 0 -334 347v469h-166v233h166v221l315 90v-311h230v-233h-230v-414q0 -160 127 -160q50 0 103 29v-234z" />
    <glyph glyph-name="u" unicode="u" horiz-adv-x="1239" 
d="M1106 0h-315v156h-5q-117 -181 -313 -181q-356 0 -356 431v618h315v-590q0 -217 172 -217q85 0 136 59.5t51 161.5v586h315v-1024z" />
    <glyph glyph-name="v" unicode="v" horiz-adv-x="1110" 
d="M1108 1024l-381 -1024h-360l-363 1024h338l178 -631q30 -107 35 -182h4q7 71 37 176l182 637h330z" />
    <glyph glyph-name="w" unicode="w" horiz-adv-x="1633" 
d="M1616 1024l-295 -1024h-332l-151 600q-15 60 -17 131h-6q-7 -78 -20 -127l-162 -604h-328l-289 1024h322l141 -668q10 -47 15 -114h6q5 70 18 118l176 664h301l158 -668q6 -25 14 -116h7q5 58 16 116l133 668h293z" />
    <glyph glyph-name="x" unicode="x" horiz-adv-x="1131" 
d="M1122 1024l-338 -496l336 -528h-364l-148 276q-18 33 -43 93h-4q-15 -42 -41 -90l-149 -279h-363l346 510l-325 514h366l146 -287q29 -57 41 -96h4q16 47 43 98l149 285h344z" />
    <glyph glyph-name="y" unicode="y" horiz-adv-x="1102" 
d="M1108 1024l-416 -1106q-150 -399 -452 -399q-115 0 -189 26v252q63 -37 137 -37q122 0 170 115l54 127l-416 1022h350l191 -623q18 -58 28 -137h4q9 58 33 135l193 625h313z" />
    <glyph glyph-name="z" unicode="z" horiz-adv-x="981" 
d="M944 0h-919v131l514 660h-463v233h864v-156l-487 -635h491v-233z" />
    <glyph glyph-name="braceleft" unicode="{" horiz-adv-x="756" 
d="M674 -326q-218 0 -317 80t-99 285v240q0 184 -152 184v184q152 0 152 191v223q0 206 98 289.5t318 83.5v-187q-160 0 -160 -174v-213q0 -240 -154 -303v-4q154 -62 154 -307v-205q0 -98 37.5 -139t122.5 -41v-187z" />
    <glyph glyph-name="bar" unicode="|" horiz-adv-x="668" 
d="M461 -481h-252v2048h252v-2048z" />
    <glyph glyph-name="braceright" unicode="}" horiz-adv-x="756" 
d="M651 463q-153 0 -153 -187v-231q0 -211 -97.5 -291t-316.5 -80v187q84 0 122 40.5t38 137.5v213q0 239 153 299v4q-153 63 -153 313v205q0 174 -160 174v187q218 0 316 -83.5t98 -285.5v-229q0 -189 153 -189v-184z" />
    <glyph glyph-name="asciitilde" unicode="~" horiz-adv-x="1448" 
d="M1255 772q-6 -168 -89.5 -266t-223.5 -98q-106 0 -258 88q-109 63 -156 63q-123 0 -129 -160h-204q6 169 89.5 267t227.5 98q112 0 238 -76q130 -78 180 -78q52 0 85.5 44.5t35.5 117.5h204z" />
    <glyph glyph-name="uni00A0" unicode="&#xa0;" horiz-adv-x="565" 
 />
    <glyph glyph-name="exclamdown" unicode="&#xa1;" horiz-adv-x="670" 
d="M336 721q-81 0 -132.5 46t-51.5 116q0 72 51.5 119t132.5 47q79 0 130.5 -48t51.5 -118q0 -72 -51.5 -117t-130.5 -45zM504 -408h-332l37 990h256z" />
    <glyph glyph-name="cent" unicode="&#xa2;" horiz-adv-x="1178" 
d="M1004 207q-73 -42 -181 -55v-189h-161v184q-216 12 -354 151.5t-138 358.5q0 234 134 381.5t358 171.5v211h161v-207q110 -6 181 -45v-272q-76 58 -181 70v-574q108 17 181 68v-254zM662 399v559q-195 -59 -195 -280q0 -222 195 -279z" />
    <glyph glyph-name="sterling" unicode="&#xa3;" horiz-adv-x="1178" 
d="M1114 0h-971v227q193 52 193 269v116h-172v217h172v187q0 198 122 320t330 122q127 0 234 -49v-258q-98 66 -209 66q-184 0 -184 -230v-158h268v-217h-268v-86q0 -184 -152 -284h637v-242z" />
    <glyph glyph-name="currency" unicode="&#xa4;" horiz-adv-x="1139" 
d="M1087 358l-141 -145l-143 141q-105 -65 -234 -65q-127 0 -233 65l-143 -141l-142 145l142 138q-66 110 -66 229q0 121 66 229l-142 140l142 145l143 -141q106 65 233 65q129 0 234 -65l143 141l141 -145l-141 -140q68 -111 68 -229q0 -115 -68 -229zM569 965
q-100 0 -169.5 -69.5t-69.5 -168.5t69.5 -168.5t169.5 -69.5t171 69.5t71 168.5q0 98 -73 168t-169 70z" />
    <glyph glyph-name="yen" unicode="&#xa5;" horiz-adv-x="1178" 
d="M1157 1434l-354 -641h252v-189h-305v-153h305v-189h-305v-262h-308v262h-315v189h315v153h-315v189h256l-342 641h321l246 -570h4q4 11 37 90l203 480h305z" />
    <glyph glyph-name="brokenbar" unicode="&#xa6;" horiz-adv-x="668" 
d="M461 684h-252v883h252v-883zM461 -481h-252v895h252v-895z" />
    <glyph glyph-name="section" unicode="&#xa7;" horiz-adv-x="994" 
d="M752 434q82 -75 82 -174q0 -149 -108.5 -237.5t-285.5 -88.5q-163 0 -290 68v248q180 -105 311 -105q127 0 127 99q0 61 -96 108q-141 65 -210 112.5t-110 116.5t-41 150q0 143 125 234q-88 88 -88 215q0 140 102.5 225.5t274.5 85.5q139 0 260 -55v-250q-139 96 -260 96
q-123 0 -123 -94q0 -45 40.5 -77.5t184.5 -96.5q254 -112 254 -309q0 -167 -149 -271zM432 864q-65 -38 -65 -110q0 -57 51 -102t178 -99q66 44 66 123q0 62 -53.5 100.5t-176.5 87.5z" />
    <glyph glyph-name="dieresis" unicode="&#xa8;" horiz-adv-x="946" 
d="M698 1186q-67 0 -110 39t-43 98q0 61 43 99t110 38t110.5 -38.5t43.5 -98.5t-43 -98.5t-111 -38.5zM240 1186q-68 0 -111 39.5t-43 97.5q0 60 44 98.5t110 38.5q68 0 110.5 -38.5t42.5 -98.5q0 -61 -42.5 -99t-110.5 -38z" />
    <glyph glyph-name="copyright" unicode="&#xa9;" horiz-adv-x="1790" 
d="M893 -25q-333 0 -547.5 207t-214.5 531q0 317 220.5 531t549.5 214q328 0 544 -208.5t216 -532.5q0 -317 -221.5 -529.5t-546.5 -212.5zM897 1346q-275 0 -454 -180t-179 -449q0 -272 181.5 -450.5t451.5 -178.5q265 0 448 179.5t183 447.5q0 272 -180 451.5t-451 179.5z
M1204 295q-125 -68 -274 -68q-209 0 -346.5 134t-137.5 335q0 231 143.5 370.5t373.5 139.5q125 0 239 -55v-236q-98 76 -244 76q-115 0 -192.5 -76.5t-77.5 -205.5q0 -122 78.5 -197.5t198.5 -75.5q141 0 239 76v-217z" />
    <glyph glyph-name="ordfeminine" unicode="&#xaa;" horiz-adv-x="840" 
d="M739 717h-213v86h-4q-87 -107 -219 -107q-101 0 -166 61t-65 158q0 211 262 244l192 25q0 114 -139 114q-118 0 -246 -77v176q124 57 287 57q311 0 311 -299v-438zM526 985v70l-123 -17q-116 -16 -116 -96q0 -88 104 -88q54 0 94.5 38.5t40.5 92.5z" />
    <glyph glyph-name="guillemotleft" unicode="&#xab;" horiz-adv-x="1190" 
d="M1137 201h-269l-327 336l327 344h269l-334 -344zM651 201h-268l-330 336l330 344h266l-334 -344z" />
    <glyph glyph-name="logicalnot" unicode="&#xac;" horiz-adv-x="1448" 
d="M1212 266h-202v389h-772v203h974v-592z" />
    <glyph glyph-name="uni00AD" unicode="&#xad;" horiz-adv-x="828" 
d="M690 436h-547v221h547v-221z" />
    <glyph glyph-name="registered" unicode="&#xae;" horiz-adv-x="1790" 
d="M893 -25q-333 0 -547.5 207t-214.5 531q0 317 220.5 531t549.5 214q328 0 544 -208.5t216 -532.5q0 -317 -221.5 -529.5t-546.5 -212.5zM897 1346q-275 0 -454 -180t-179 -449q0 -272 181.5 -450.5t451.5 -178.5q265 0 448 179.5t183 447.5q0 272 -180 451.5t-451 179.5z
M1288 264h-254l-76 232q-40 122 -110 122h-74v-354h-211v922h320q370 0 370 -262q0 -189 -217 -244v-4q90 -20 142 -146zM774 1010v-230h111q139 0 139 119q0 111 -160 111h-90z" />
    <glyph glyph-name="uni02C9" unicode="&#x2c9;" horiz-adv-x="690" 
d="M637 1186h-586v172h586v-172z" />
    <glyph glyph-name="uni02C9" unicode="&#xaf;" horiz-adv-x="690" 
d="M637 1186h-586v172h586v-172z" />
    <glyph glyph-name="degree" unicode="&#xb0;" horiz-adv-x="778" 
d="M399 895q-119 0 -201.5 82.5t-82.5 200.5t82.5 199t201.5 81q118 0 201.5 -81t83.5 -199t-83.5 -200.5t-201.5 -82.5zM399 1307q-54 0 -91.5 -37.5t-37.5 -91.5t37.5 -92.5t91.5 -38.5q53 0 91 38.5t38 92.5t-37.5 91.5t-91.5 37.5z" />
    <glyph glyph-name="plusminus" unicode="&#xb1;" horiz-adv-x="1448" 
d="M1212 694h-385v-387h-202v387h-383v203h383v391h202v-391h385v-203zM1210 0h-972v203h972v-203z" />
    <glyph glyph-name="uni00B2" unicode="&#xb2;" horiz-adv-x="828" 
d="M721 584h-604v157l248 234q77 73 95.5 110t18.5 82q0 42 -28.5 69.5t-75.5 27.5q-98 0 -211 -103v215q118 78 250 78q136 0 215.5 -68.5t79.5 -189.5q0 -70 -37.5 -141t-179.5 -197l-105 -92v-4h334v-178z" />
    <glyph glyph-name="uni00B3" unicode="&#xb3;" horiz-adv-x="828" 
d="M131 616v181q107 -68 221 -68q150 0 150 102q0 103 -172 103h-117v166h113q149 0 149 96q0 90 -119 90q-107 0 -198 -65v176q99 57 239 57q134 0 211.5 -60.5t77.5 -160.5q0 -147 -143 -195v-4q172 -41 172 -198q0 -123 -98 -198t-257 -75q-133 0 -229 53z" />
    <glyph glyph-name="acute" unicode="&#xb4;" horiz-adv-x="621" 
d="M596 1509l-313 -323h-228l260 323h281z" />
    <glyph glyph-name="mu" unicode="&#xb5;" horiz-adv-x="1255" 
d="M1161 0h-324q-25 70 -25 154h-4q-57 -177 -216 -177q-97 0 -140 64h-3v-436h-316v1419h316v-589q0 -207 170 -207q184 0 184 254v542h319v-710q0 -236 39 -314z" />
    <glyph glyph-name="paragraph" unicode="&#xb6;" horiz-adv-x="1043" 
d="M946 1272h-117v-1272h-174v1272h-118v-1272h-177v836q-115 7 -191.5 92t-76.5 211q0 129 85.5 212t211.5 83h557v-162z" />
    <glyph glyph-name="uni2219" unicode="&#x2219;" horiz-adv-x="555" 
d="M274 487q-78 0 -130 48t-52 118q0 72 53.5 118t133.5 46q81 0 132.5 -46.5t51.5 -117.5q0 -73 -52.5 -119.5t-136.5 -46.5z" />
    <glyph glyph-name="uni2219" unicode="&#xb7;" horiz-adv-x="555" 
d="M274 487q-78 0 -130 48t-52 118q0 72 53.5 118t133.5 46q81 0 132.5 -46.5t51.5 -117.5q0 -73 -52.5 -119.5t-136.5 -46.5z" />
    <glyph glyph-name="cedilla" unicode="&#xb8;" horiz-adv-x="441" 
d="M51 -451v138q35 -6 72 -6q123 0 123 73q0 66 -111 66q-13 0 -37 -2v182h172v-82q187 -8 187 -166q0 -207 -318 -207q-46 0 -88 4z" />
    <glyph glyph-name="uni00B9" unicode="&#xb9;" horiz-adv-x="807" 
d="M721 584h-563v172h176v477l-191 -41v180l406 82v-698h172v-172z" />
    <glyph glyph-name="ordmasculine" unicode="&#xba;" horiz-adv-x="934" 
d="M459 696q-185 0 -287 99.5t-102 277.5q0 179 108.5 280t292.5 101q181 0 284 -101.5t103 -265.5q0 -184 -106.5 -287.5t-292.5 -103.5zM465 1280q-164 0 -164 -203q0 -207 164 -207q160 0 160 209q0 201 -160 201z" />
    <glyph glyph-name="guillemotright" unicode="&#xbb;" horiz-adv-x="1190" 
d="M1137 537l-328 -336h-268l333 336l-331 344h266zM651 537l-329 -336h-269l336 336l-334 344h267z" />
    <glyph glyph-name="onequarter" unicode="&#xbc;" horiz-adv-x="1950" 
d="M676 584h-563v172h176v477l-191 -41v180l406 82v-698h172v-172zM1505 1434l-891 -1434h-244l891 1434h244zM1845 176h-110v-176h-213v176h-395v141l350 533h258v-519h110v-155zM1526 678h-8q-14 -36 -39 -76l-168 -271h211v263q0 47 4 84z" />
    <glyph glyph-name="onehalf" unicode="&#xbd;" horiz-adv-x="1977" 
d="M676 584h-563v172h176v477l-191 -41v180l406 82v-698h172v-172zM1506 1434l-891 -1434h-244l891 1434h244zM1843 0h-604v157l248 234q77 73 95.5 110t18.5 82q0 42 -28.5 69.5t-75.5 27.5q-98 0 -211 -103v215q118 78 250 78q136 0 215.5 -68.5t79.5 -189.5
q0 -70 -37.5 -141t-179.5 -197l-105 -92v-4h334v-178z" />
    <glyph glyph-name="threequarters" unicode="&#xbe;" horiz-adv-x="2005" 
d="M131 616v181q107 -68 221 -68q150 0 150 102q0 103 -172 103h-117v166h113q149 0 149 96q0 90 -119 90q-107 0 -198 -65v176q99 57 239 57q134 0 211.5 -60.5t77.5 -160.5q0 -147 -143 -195v-4q172 -41 172 -198q0 -123 -98 -198t-257 -75q-133 0 -229 53zM1565 1434
l-891 -1434h-244l891 1434h244zM1892 176h-110v-176h-213v176h-395v141l350 533h258v-519h110v-155zM1573 678h-8q-14 -36 -39 -76l-168 -271h211v263q0 47 4 84z" />
    <glyph glyph-name="questiondown" unicode="&#xbf;" horiz-adv-x="897" 
d="M647 611q10 -26 15.5 -58.5t5.5 -61.5q0 -46 -9 -84t-27 -71.5t-45 -64t-63 -60.5q-37 -32 -66 -59.5t-49 -55t-30 -57t-10 -65.5q0 -31 11 -57.5t31.5 -45.5t50 -30t65.5 -11q78 0 162 32.5t159 98.5v-301q-77 -46 -168 -69t-188 -23q-93 0 -173 20.5t-139.5 64.5
t-93 112.5t-33.5 164.5q0 61 14 110.5t41 93.5t67 84.5t92 83.5q35 29 61.5 54t44 49.5t26.5 52t9 62.5q0 24 -6.5 49t-17.5 42h263zM501 1049q81 0 133 -48q53 -50 53 -118q0 -70 -53 -117t-133 -47q-79 0 -131 47q-52 46 -52 117q0 73 51 119q52 47 132 47z" />
    <glyph glyph-name="Agrave" unicode="&#xc0;" horiz-adv-x="1440" 
d="M1425 0h-352l-102 319h-510l-101 -319h-350l522 1434h383zM897 567l-154 482q-17 54 -24 129h-8q-5 -63 -25 -125l-156 -486h367zM916 1567h-227l-314 323h281z" />
    <glyph glyph-name="Aacute" unicode="&#xc1;" horiz-adv-x="1440" 
d="M1425 0h-352l-102 319h-510l-101 -319h-350l522 1434h383zM897 567l-154 482q-17 54 -24 129h-8q-5 -63 -25 -125l-156 -486h367zM1036 1890l-313 -323h-228l260 323h281z" />
    <glyph glyph-name="Acircumflex" unicode="&#xc2;" horiz-adv-x="1440" 
d="M1425 0h-352l-102 319h-510l-101 -319h-350l522 1434h383zM897 567l-154 482q-17 54 -24 129h-8q-5 -63 -25 -125l-156 -486h367zM1078 1567h-207l-158 188l-147 -188h-207l235 325h248z" />
    <glyph glyph-name="Atilde" unicode="&#xc3;" horiz-adv-x="1440" 
d="M1425 0h-352l-102 319h-510l-101 -319h-350l522 1434h383zM897 567l-154 482q-17 54 -24 129h-8q-5 -63 -25 -125l-156 -486h367zM1077 1878q0 -140 -55.5 -216.5t-151.5 -76.5q-86 0 -168 43q-89 47 -123 47q-80 0 -80 -108h-141q0 139 55 216t154 77q81 0 168 -49
q79 -44 120 -44q78 0 78 111h144z" />
    <glyph glyph-name="Adieresis" unicode="&#xc4;" horiz-adv-x="1440" 
d="M1425 0h-352l-102 319h-510l-101 -319h-350l522 1434h383zM897 567l-154 482q-17 54 -24 129h-8q-5 -63 -25 -125l-156 -486h367zM945 1567q-67 0 -110 39t-43 98q0 61 43 99t110 38t110.5 -38.5t43.5 -98.5t-43 -98.5t-111 -38.5zM487 1567q-68 0 -111 39.5t-43 97.5
q0 60 44 98.5t110 38.5q68 0 110.5 -38.5t42.5 -98.5q0 -61 -42.5 -99t-110.5 -38z" />
    <glyph glyph-name="Aring" unicode="&#xc5;" horiz-adv-x="1440" 
d="M1425 0h-352l-102 319h-510l-101 -319h-350l512 1407q-53 54 -53 137q0 106 73.5 169t180.5 63q114 0 184 -63.5t70 -164.5q0 -80 -53 -137zM719 1645q-47 0 -75 -28.5t-28 -70.5q0 -98 103 -98q48 0 77 28.5t29 69.5q0 43 -29.5 71t-76.5 28zM893 584l-152 465
q-13 40 -22 120h-8q-7 -68 -23 -116l-153 -469h358z" />
    <glyph glyph-name="AE" unicode="&#xc6;" horiz-adv-x="1915" 
d="M1849 0h-858v319h-471l-147 -319h-375l725 1434h1094v-263h-504v-319h469v-262h-469v-328h536v-262zM991 567v604h-78l-282 -604h360z" />
    <glyph glyph-name="Ccedilla" unicode="&#xc7;" horiz-adv-x="1278" 
d="M1192 51q-157 -76 -410 -76q-330 0 -519 194t-189 517q0 344 212.5 558t551.5 214q210 0 354 -53v-311q-144 86 -328 86q-202 0 -326 -127t-124 -344q0 -208 117 -331.5t315 -123.5q189 0 346 92v-295zM610 -451v138q35 -6 72 -6q123 0 123 73q0 66 -111 66q-13 0 -37 -2
v182h172v-82q187 -8 187 -166q0 -207 -318 -207q-46 0 -88 4z" />
    <glyph glyph-name="Egrave" unicode="&#xc8;" horiz-adv-x="1090" 
d="M1024 0h-860v1434h827v-263h-504v-319h469v-262h-469v-328h537v-262zM766 1567h-227l-314 323h281z" />
    <glyph glyph-name="Eacute" unicode="&#xc9;" horiz-adv-x="1090" 
d="M1024 0h-860v1434h827v-263h-504v-319h469v-262h-469v-328h537v-262zM934 1890l-313 -323h-228l260 323h281z" />
    <glyph glyph-name="Ecircumflex" unicode="&#xca;" horiz-adv-x="1090" 
d="M1024 0h-860v1434h827v-263h-504v-319h469v-262h-469v-328h537v-262zM932 1567h-207l-158 188l-147 -188h-207l235 325h248z" />
    <glyph glyph-name="Edieresis" unicode="&#xcb;" horiz-adv-x="1090" 
d="M1024 0h-860v1434h827v-263h-504v-319h469v-262h-469v-328h537v-262zM812 1567q-67 0 -110 39t-43 98q0 61 43 99t110 38t110.5 -38.5t43.5 -98.5t-43 -98.5t-111 -38.5zM354 1567q-68 0 -111 39.5t-43 97.5q0 60 44 98.5t110 38.5q68 0 110.5 -38.5t42.5 -98.5
q0 -61 -42.5 -99t-110.5 -38z" />
    <glyph glyph-name="Igrave" unicode="&#xcc;" horiz-adv-x="649" 
d="M607 1434v-250h-120v-934h120v-250h-563v250h120v934h-120v250h563zM532 1567h-227l-314 323h281z" />
    <glyph glyph-name="Iacute" unicode="&#xcd;" horiz-adv-x="649" 
d="M607 1434v-250h-120v-934h120v-250h-563v250h120v934h-120v250h563zM651 1890l-313 -323h-228l260 323h281z" />
    <glyph glyph-name="Icircumflex" unicode="&#xce;" horiz-adv-x="649" 
d="M607 1434v-250h-120v-934h120v-250h-563v250h120v934h-120v250h563zM691 1567h-207l-158 188l-147 -188h-207l235 325h248z" />
    <glyph glyph-name="Idieresis" unicode="&#xcf;" horiz-adv-x="649" 
d="M607 1434v-250h-120v-934h120v-250h-563v250h120v934h-120v250h563zM559 1567q-67 0 -110 39t-43 98q0 61 43 99t110 38t110.5 -38.5t43.5 -98.5t-43 -98.5t-111 -38.5zM101 1567q-68 0 -111 39.5t-43 97.5q0 60 44 98.5t110 38.5q68 0 110.5 -38.5t42.5 -98.5
q0 -61 -42.5 -99t-110.5 -38z" />
    <glyph glyph-name="Eth" unicode="&#xd0;" horiz-adv-x="1510" 
d="M164 0v586h-164v266h164v582h508q764 0 764 -699q0 -335 -208.5 -535t-555.5 -200h-508zM487 1171v-319h271v-266h-271v-324h160q210 0 329.5 126t119.5 343q0 205 -118.5 322.5t-332.5 117.5h-158z" />
    <glyph glyph-name="Ntilde" unicode="&#xd1;" horiz-adv-x="1618" 
d="M1454 0h-326l-591 901q-52 79 -72 119h-4q8 -76 8 -232v-788h-305v1434h348l569 -873q39 -59 72 -117h4q-8 50 -8 197v793h305v-1434zM1206 1878q0 -140 -55.5 -216.5t-151.5 -76.5q-86 0 -168 43q-89 47 -123 47q-80 0 -80 -108h-141q0 139 55 216t154 77q81 0 168 -49
q79 -44 120 -44q78 0 78 111h144z" />
    <glyph glyph-name="Ograve" unicode="&#xd2;" horiz-adv-x="1552" 
d="M770 -25q-308 0 -502 200.5t-194 522.5q0 340 197 550t522 210q307 0 496.5 -201t189.5 -530q0 -338 -196.5 -545t-512.5 -207zM784 1180q-170 0 -270 -127.5t-100 -337.5q0 -213 100 -337t262 -124q167 0 265 120.5t98 334.5q0 223 -95 347t-260 124zM971 1567h-227
l-314 323h281z" />
    <glyph glyph-name="Oacute" unicode="&#xd3;" horiz-adv-x="1552" 
d="M770 -25q-308 0 -502 200.5t-194 522.5q0 340 197 550t522 210q307 0 496.5 -201t189.5 -530q0 -338 -196.5 -545t-512.5 -207zM784 1180q-170 0 -270 -127.5t-100 -337.5q0 -213 100 -337t262 -124q167 0 265 120.5t98 334.5q0 223 -95 347t-260 124zM1110 1890
l-313 -323h-228l260 323h281z" />
    <glyph glyph-name="Ocircumflex" unicode="&#xd4;" horiz-adv-x="1552" 
d="M770 -25q-308 0 -502 200.5t-194 522.5q0 340 197 550t522 210q307 0 496.5 -201t189.5 -530q0 -338 -196.5 -545t-512.5 -207zM784 1180q-170 0 -270 -127.5t-100 -337.5q0 -213 100 -337t262 -124q167 0 265 120.5t98 334.5q0 223 -95 347t-260 124zM1149 1567h-207
l-158 188l-147 -188h-207l235 325h248z" />
    <glyph glyph-name="Otilde" unicode="&#xd5;" horiz-adv-x="1552" 
d="M770 -25q-308 0 -502 200.5t-194 522.5q0 340 197 550t522 210q307 0 496.5 -201t189.5 -530q0 -338 -196.5 -545t-512.5 -207zM784 1180q-170 0 -270 -127.5t-100 -337.5q0 -213 100 -337t262 -124q167 0 265 120.5t98 334.5q0 223 -95 347t-260 124zM1147 1878
q0 -140 -55.5 -216.5t-151.5 -76.5q-86 0 -168 43q-89 47 -123 47q-80 0 -80 -108h-141q0 139 55 216t154 77q81 0 168 -49q79 -44 120 -44q78 0 78 111h144z" />
    <glyph glyph-name="Odieresis" unicode="&#xd6;" horiz-adv-x="1552" 
d="M770 -25q-308 0 -502 200.5t-194 522.5q0 340 197 550t522 210q307 0 496.5 -201t189.5 -530q0 -338 -196.5 -545t-512.5 -207zM784 1180q-170 0 -270 -127.5t-100 -337.5q0 -213 100 -337t262 -124q167 0 265 120.5t98 334.5q0 223 -95 347t-260 124zM1004 1567
q-67 0 -110 39t-43 98q0 61 43 99t110 38t110.5 -38.5t43.5 -98.5t-43 -98.5t-111 -38.5zM546 1567q-68 0 -111 39.5t-43 97.5q0 60 44 98.5t110 38.5q68 0 110.5 -38.5t42.5 -98.5q0 -61 -42.5 -99t-110.5 -38z" />
    <glyph glyph-name="multiply" unicode="&#xd7;" horiz-adv-x="1448" 
d="M1210 248l-145 -144l-338 340l-340 -340l-145 146l340 336l-340 340l141 145l344 -340l342 340l139 -151l-338 -334z" />
    <glyph glyph-name="Oslash" unicode="&#xd8;" horiz-adv-x="1553" 
d="M348 109l-143 -170l-125 104l149 176q-155 192 -155 479q0 340 196.5 550t522.5 210q234 0 401 -119l129 150l125 -103l-135 -157q166 -196 166 -502q0 -338 -196.5 -545t-512.5 -207q-240 0 -422 134zM1016 1130q-97 76 -232 76q-181 0 -287 -136.5t-106 -360.5
q0 -146 47 -252zM1110 995l-578 -676q101 -92 244 -92q175 0 281 128.5t106 351.5q0 164 -53 288z" />
    <glyph glyph-name="Ugrave" unicode="&#xd9;" horiz-adv-x="1481" 
d="M1333 621q0 -646 -602 -646q-584 0 -584 631v828h324v-832q0 -348 272 -348q267 0 267 336v844h323v-813zM920 1567h-227l-314 323h281z" />
    <glyph glyph-name="Uacute" unicode="&#xda;" horiz-adv-x="1481" 
d="M1333 621q0 -646 -602 -646q-584 0 -584 631v828h324v-832q0 -348 272 -348q267 0 267 336v844h323v-813zM1088 1890l-313 -323h-228l260 323h281z" />
    <glyph glyph-name="Ucircumflex" unicode="&#xdb;" horiz-adv-x="1481" 
d="M1333 621q0 -646 -602 -646q-584 0 -584 631v828h324v-832q0 -348 272 -348q267 0 267 336v844h323v-813zM1099 1567h-207l-158 188l-147 -188h-207l235 325h248z" />
    <glyph glyph-name="Udieresis" unicode="&#xdc;" horiz-adv-x="1481" 
d="M1333 621q0 -646 -602 -646q-584 0 -584 631v828h324v-832q0 -348 272 -348q267 0 267 336v844h323v-813zM969 1567q-67 0 -110 39t-43 98q0 61 43 99t110 38t110.5 -38.5t43.5 -98.5t-43 -98.5t-111 -38.5zM511 1567q-68 0 -111 39.5t-43 97.5q0 60 44 98.5t110 38.5
q68 0 110.5 -38.5t42.5 -98.5q0 -61 -42.5 -99t-110.5 -38z" />
    <glyph glyph-name="Yacute" unicode="&#xdd;" horiz-adv-x="1243" 
d="M1245 1434l-467 -924v-510h-323v504l-455 930h369l231 -535q6 -15 33 -117h4q13 72 31 113l235 539h342zM903 1857l-313 -323h-228l260 323h281z" />
    <glyph glyph-name="Thorn" unicode="&#xde;" horiz-adv-x="1258" 
d="M487 281v-281h-323v1434h323v-211h183q542 0 542 -457q0 -216 -155.5 -350.5t-415.5 -134.5h-154zM487 975v-447h127q258 0 258 226q0 221 -258 221h-127z" />
    <glyph glyph-name="germandbls" unicode="&#xdf;" horiz-adv-x="1286" 
d="M545 8v262q83 -53 176 -53q83 0 132.5 52.5t49.5 144.5q0 116 -89 183.5t-251 72.5v221q111 8 172.5 68t61.5 159q0 84 -44.5 132t-119.5 48q-184 0 -184 -245v-1053h-316v1049q0 223 137 357t381 134q217 0 343 -109.5t126 -281.5q0 -122 -71.5 -214t-184.5 -126v-4
q363 -69 363 -399q0 -180 -126.5 -305.5t-342.5 -125.5q-105 0 -213 33z" />
    <glyph glyph-name="agrave" unicode="&#xe0;" horiz-adv-x="1102" 
d="M985 0h-299v147h-4q-103 -172 -305 -172q-149 0 -234.5 84.5t-85.5 225.5q0 298 353 344l278 37q0 168 -182 168q-183 0 -348 -109v238q66 34 180.5 60t208.5 26q438 0 438 -437v-612zM688 416v69l-186 -24q-154 -20 -154 -139q0 -54 37.5 -88.5t101.5 -34.5
q89 0 145 61.5t56 155.5zM775 1186h-227l-314 323h281z" />
    <glyph glyph-name="aacute" unicode="&#xe1;" horiz-adv-x="1102" 
d="M985 0h-299v147h-4q-103 -172 -305 -172q-149 0 -234.5 84.5t-85.5 225.5q0 298 353 344l278 37q0 168 -182 168q-183 0 -348 -109v238q66 34 180.5 60t208.5 26q438 0 438 -437v-612zM688 416v69l-186 -24q-154 -20 -154 -139q0 -54 37.5 -88.5t101.5 -34.5
q89 0 145 61.5t56 155.5zM891 1509l-313 -323h-228l260 323h281z" />
    <glyph glyph-name="acircumflex" unicode="&#xe2;" horiz-adv-x="1102" 
d="M985 0h-299v147h-4q-103 -172 -305 -172q-149 0 -234.5 84.5t-85.5 225.5q0 298 353 344l278 37q0 168 -182 168q-183 0 -348 -109v238q66 34 180.5 60t208.5 26q438 0 438 -437v-612zM688 416v69l-186 -24q-154 -20 -154 -139q0 -54 37.5 -88.5t101.5 -34.5
q89 0 145 61.5t56 155.5zM914 1186h-207l-158 188l-147 -188h-207l235 325h248z" />
    <glyph glyph-name="atilde" unicode="&#xe3;" horiz-adv-x="1102" 
d="M985 0h-299v147h-4q-103 -172 -305 -172q-149 0 -234.5 84.5t-85.5 225.5q0 298 353 344l278 37q0 168 -182 168q-183 0 -348 -109v238q66 34 180.5 60t208.5 26q438 0 438 -437v-612zM688 416v69l-186 -24q-154 -20 -154 -139q0 -54 37.5 -88.5t101.5 -34.5
q89 0 145 61.5t56 155.5zM907 1497q0 -140 -55.5 -216.5t-151.5 -76.5q-86 0 -168 43q-89 47 -123 47q-80 0 -80 -108h-141q0 139 55 216t154 77q81 0 168 -49q79 -44 120 -44q78 0 78 111h144z" />
    <glyph glyph-name="adieresis" unicode="&#xe4;" horiz-adv-x="1102" 
d="M985 0h-299v147h-4q-103 -172 -305 -172q-149 0 -234.5 84.5t-85.5 225.5q0 298 353 344l278 37q0 168 -182 168q-183 0 -348 -109v238q66 34 180.5 60t208.5 26q438 0 438 -437v-612zM688 416v69l-186 -24q-154 -20 -154 -139q0 -54 37.5 -88.5t101.5 -34.5
q89 0 145 61.5t56 155.5zM787 1186q-67 0 -110 39t-43 98q0 61 43 99t110 38t110.5 -38.5t43.5 -98.5t-43 -98.5t-111 -38.5zM329 1186q-68 0 -111 39.5t-43 97.5q0 60 44 98.5t110 38.5q68 0 110.5 -38.5t42.5 -98.5q0 -61 -42.5 -99t-110.5 -38z" />
    <glyph glyph-name="aring" unicode="&#xe5;" horiz-adv-x="1102" 
d="M985 0h-299v147h-4q-103 -172 -305 -172q-149 0 -234.5 84.5t-85.5 225.5q0 298 353 344l278 37q0 168 -182 168q-183 0 -348 -109v238q66 34 180.5 60t208.5 26q438 0 438 -437v-612zM688 416v69l-186 -24q-154 -20 -154 -139q0 -54 37.5 -88.5t101.5 -34.5
q89 0 145 61.5t56 155.5zM573 1186q-102 0 -168.5 59.5t-66.5 155.5q0 101 69.5 161t170.5 60q107 0 173 -59.5t66 -155.5q0 -98 -71.5 -159.5t-172.5 -61.5zM573 1499q-96 0 -96 -94t96 -94q45 0 74 27.5t29 66.5q0 41 -28.5 67.5t-74.5 26.5z" />
    <glyph glyph-name="ae" unicode="&#xe6;" horiz-adv-x="1696" 
d="M1640 422h-667q20 -223 282 -223q160 0 297 80v-226q-156 -78 -378 -78q-269 0 -398 179h-4q-141 -179 -362 -179q-166 0 -259.5 82.5t-93.5 229.5q0 146 96.5 234t276.5 102l256 20q0 191 -184 191q-174 0 -344 -107v236q187 86 370 86q234 0 324 -134h4
q132 134 326 134q214 0 336 -133t122 -365v-129zM1348 616q0 220 -177 220q-75 0 -131.5 -62t-66.5 -158h375zM686 414v45l-156 -13q-184 -15 -184 -131q0 -50 39 -83t102 -33q86 0 142.5 59.5t56.5 155.5z" />
    <glyph glyph-name="ccedilla" unicode="&#xe7;" horiz-adv-x="983" 
d="M909 37q-107 -62 -309 -62q-236 0 -382 143t-146 369q0 261 156.5 411.5t418.5 150.5q181 0 262 -48v-268q-99 74 -221 74q-136 0 -215.5 -79.5t-79.5 -219.5q0 -136 76 -213.5t209 -77.5q118 0 231 74v-254zM426 -451v138q35 -6 72 -6q123 0 123 73q0 66 -111 66
q-13 0 -37 -2v182h172v-82q187 -8 187 -166q0 -207 -318 -207q-46 0 -88 4z" />
    <glyph glyph-name="egrave" unicode="&#xe8;" horiz-adv-x="1108" 
d="M1053 422h-668q16 -223 281 -223q169 0 297 80v-228q-142 -76 -369 -76q-248 0 -385 137.5t-137 383.5q0 255 148 404t364 149q224 0 346.5 -133t122.5 -361v-133zM760 616q0 220 -178 220q-76 0 -131.5 -63t-67.5 -157h377zM795 1186h-227l-314 323h281z" />
    <glyph glyph-name="eacute" unicode="&#xe9;" horiz-adv-x="1108" 
d="M1053 422h-668q16 -223 281 -223q169 0 297 80v-228q-142 -76 -369 -76q-248 0 -385 137.5t-137 383.5q0 255 148 404t364 149q224 0 346.5 -133t122.5 -361v-133zM760 616q0 220 -178 220q-76 0 -131.5 -63t-67.5 -157h377zM921 1509l-313 -323h-228l260 323h281z" />
    <glyph glyph-name="ecircumflex" unicode="&#xea;" horiz-adv-x="1108" 
d="M1053 422h-668q16 -223 281 -223q169 0 297 80v-228q-142 -76 -369 -76q-248 0 -385 137.5t-137 383.5q0 255 148 404t364 149q224 0 346.5 -133t122.5 -361v-133zM760 616q0 220 -178 220q-76 0 -131.5 -63t-67.5 -157h377zM949 1186h-207l-158 188l-147 -188h-207
l235 325h248z" />
    <glyph glyph-name="edieresis" unicode="&#xeb;" horiz-adv-x="1108" 
d="M1053 422h-668q16 -223 281 -223q169 0 297 80v-228q-142 -76 -369 -76q-248 0 -385 137.5t-137 383.5q0 255 148 404t364 149q224 0 346.5 -133t122.5 -361v-133zM760 616q0 220 -178 220q-76 0 -131.5 -63t-67.5 -157h377zM808 1186q-67 0 -110 39t-43 98q0 61 43 99
t110 38t110.5 -38.5t43.5 -98.5t-43 -98.5t-111 -38.5zM350 1186q-68 0 -111 39.5t-43 97.5q0 60 44 98.5t110 38.5q68 0 110.5 -38.5t42.5 -98.5q0 -61 -42.5 -99t-110.5 -38z" />
    <glyph glyph-name="igrave" unicode="&#xec;" horiz-adv-x="582" 
d="M449 0h-316v1024h316v-1024zM514 1186h-227l-314 323h281z" />
    <glyph glyph-name="iacute" unicode="&#xed;" horiz-adv-x="582" 
d="M449 0h-316v1024h316v-1024zM612 1509l-313 -323h-228l260 323h281z" />
    <glyph glyph-name="icircumflex" unicode="&#xee;" horiz-adv-x="582" 
d="M449 0h-316v1024h316v-1024zM657 1186h-207l-158 188l-147 -188h-207l235 325h248z" />
    <glyph glyph-name="idieresis" unicode="&#xef;" horiz-adv-x="582" 
d="M449 0h-316v1024h316v-1024zM526 1186q-67 0 -110 39t-43 98q0 61 43 99t110 38t110.5 -38.5t43.5 -98.5t-43 -98.5t-111 -38.5zM68 1186q-68 0 -111 39.5t-43 97.5q0 60 44 98.5t110 38.5q68 0 110.5 -38.5t42.5 -98.5q0 -61 -42.5 -99t-110.5 -38z" />
    <glyph glyph-name="eth" unicode="&#xf0;" horiz-adv-x="1215" 
d="M756 965l4 2q-84 147 -195 237l-291 -143l-81 141l241 115q-157 125 -270 199h352q11 -6 131 -97l273 133l77 -137l-215 -104q361 -291 361 -748q0 -260 -150 -424t-395 -164q-248 0 -387 144.5t-139 394.5q0 231 132.5 378.5t346.5 147.5q117 0 205 -75zM612 807
q-103 0 -161 -78.5t-58 -214.5q0 -140 57 -218.5t158 -78.5q98 0 155.5 81.5t57.5 221.5q0 287 -209 287z" />
    <glyph glyph-name="ntilde" unicode="&#xf1;" horiz-adv-x="1239" 
d="M1122 0h-315v569q0 238 -170 238q-82 0 -135 -63t-53 -160v-584h-316v1024h316v-162h4q113 187 329 187q340 0 340 -422v-627zM982 1497q0 -140 -55.5 -216.5t-151.5 -76.5q-86 0 -168 43q-89 47 -123 47q-80 0 -80 -108h-141q0 139 55 216t154 77q81 0 168 -49
q79 -44 120 -44q78 0 78 111h144z" />
    <glyph glyph-name="ograve" unicode="&#xf2;" horiz-adv-x="1251" 
d="M621 -25q-256 0 -402.5 143.5t-146.5 389.5q0 254 152 397.5t411 143.5q255 0 400 -143.5t145 -379.5q0 -255 -149.5 -403t-409.5 -148zM629 807q-112 0 -174 -77t-62 -218q0 -295 238 -295q227 0 227 303q0 287 -229 287zM852 1186h-227l-314 323h281z" />
    <glyph glyph-name="oacute" unicode="&#xf3;" horiz-adv-x="1251" 
d="M621 -25q-256 0 -402.5 143.5t-146.5 389.5q0 254 152 397.5t411 143.5q255 0 400 -143.5t145 -379.5q0 -255 -149.5 -403t-409.5 -148zM629 807q-112 0 -174 -77t-62 -218q0 -295 238 -295q227 0 227 303q0 287 -229 287zM968 1509l-313 -323h-228l260 323h281z" />
    <glyph glyph-name="ocircumflex" unicode="&#xf4;" horiz-adv-x="1251" 
d="M621 -25q-256 0 -402.5 143.5t-146.5 389.5q0 254 152 397.5t411 143.5q255 0 400 -143.5t145 -379.5q0 -255 -149.5 -403t-409.5 -148zM629 807q-112 0 -174 -77t-62 -218q0 -295 238 -295q227 0 227 303q0 287 -229 287zM988 1186h-207l-158 188l-147 -188h-207
l235 325h248z" />
    <glyph glyph-name="otilde" unicode="&#xf5;" horiz-adv-x="1251" 
d="M621 -25q-256 0 -402.5 143.5t-146.5 389.5q0 254 152 397.5t411 143.5q255 0 400 -143.5t145 -379.5q0 -255 -149.5 -403t-409.5 -148zM629 807q-112 0 -174 -77t-62 -218q0 -295 238 -295q227 0 227 303q0 287 -229 287zM985 1497q0 -140 -55.5 -216.5t-151.5 -76.5
q-86 0 -168 43q-89 47 -123 47q-80 0 -80 -108h-141q0 139 55 216t154 77q81 0 168 -49q79 -44 120 -44q78 0 78 111h144z" />
    <glyph glyph-name="odieresis" unicode="&#xf6;" horiz-adv-x="1251" 
d="M621 -25q-256 0 -402.5 143.5t-146.5 389.5q0 254 152 397.5t411 143.5q255 0 400 -143.5t145 -379.5q0 -255 -149.5 -403t-409.5 -148zM629 807q-112 0 -174 -77t-62 -218q0 -295 238 -295q227 0 227 303q0 287 -229 287zM859 1186q-67 0 -110 39t-43 98q0 61 43 99
t110 38t110.5 -38.5t43.5 -98.5t-43 -98.5t-111 -38.5zM401 1186q-68 0 -111 39.5t-43 97.5q0 60 44 98.5t110 38.5q68 0 110.5 -38.5t42.5 -98.5q0 -61 -42.5 -99t-110.5 -38z" />
    <glyph glyph-name="divide" unicode="&#xf7;" horiz-adv-x="1448" 
d="M731 846q-59 0 -100 40t-41 97q0 62 39.5 103.5t101.5 41.5t99.5 -40t37.5 -103q0 -61 -40.5 -100t-96.5 -39zM1212 485h-974v203h974v-203zM727 47q-59 0 -100 39t-41 96q0 62 39.5 104t101.5 42t99.5 -40.5t37.5 -103.5q0 -61 -40 -99t-97 -38z" />
    <glyph glyph-name="oslash" unicode="&#xf8;" horiz-adv-x="1252" 
d="M1206 1010l-139 -146q113 -143 113 -338q0 -259 -148 -404t-411 -145q-198 0 -328 86l-135 -141l-119 107l137 143q-104 141 -104 338q0 253 152.5 397t412.5 144q179 0 311 -82l139 147zM772 791q-56 40 -141 40q-258 0 -258 -317q0 -73 18 -121zM862 651l-393 -409
q61 -45 160 -45q252 0 252 323q0 74 -19 131z" />
    <glyph glyph-name="ugrave" unicode="&#xf9;" horiz-adv-x="1239" 
d="M1106 0h-315v156h-5q-117 -181 -313 -181q-356 0 -356 431v618h315v-590q0 -217 172 -217q85 0 136 59.5t51 161.5v586h315v-1024zM784 1186h-227l-314 323h281z" />
    <glyph glyph-name="uacute" unicode="&#xfa;" horiz-adv-x="1239" 
d="M1106 0h-315v156h-5q-117 -181 -313 -181q-356 0 -356 431v618h315v-590q0 -217 172 -217q85 0 136 59.5t51 161.5v586h315v-1024zM977 1509l-313 -323h-228l260 323h281z" />
    <glyph glyph-name="ucircumflex" unicode="&#xfb;" horiz-adv-x="1239" 
d="M1106 0h-315v156h-5q-117 -181 -313 -181q-356 0 -356 431v618h315v-590q0 -217 172 -217q85 0 136 59.5t51 161.5v586h315v-1024zM970 1186h-207l-158 188l-147 -188h-207l235 325h248z" />
    <glyph glyph-name="udieresis" unicode="&#xfc;" horiz-adv-x="1239" 
d="M1106 0h-315v156h-5q-117 -181 -313 -181q-356 0 -356 431v618h315v-590q0 -217 172 -217q85 0 136 59.5t51 161.5v586h315v-1024zM844 1186q-67 0 -110 39t-43 98q0 61 43 99t110 38t110.5 -38.5t43.5 -98.5t-43 -98.5t-111 -38.5zM386 1186q-68 0 -111 39.5t-43 97.5
q0 60 44 98.5t110 38.5q68 0 110.5 -38.5t42.5 -98.5q0 -61 -42.5 -99t-110.5 -38z" />
    <glyph glyph-name="yacute" unicode="&#xfd;" horiz-adv-x="1102" 
d="M1108 1024l-416 -1106q-150 -399 -452 -399q-115 0 -189 26v252q63 -37 137 -37q122 0 170 115l54 127l-416 1022h350l191 -623q18 -58 28 -137h4q9 58 33 135l193 625h313zM834 1509l-313 -323h-228l260 323h281z" />
    <glyph glyph-name="thorn" unicode="&#xfe;" horiz-adv-x="1270" 
d="M453 119h-4v-590h-316v1987h316v-646h4q117 179 329 179q199 0 307.5 -136.5t108.5 -371.5q0 -256 -126.5 -411t-336.5 -155q-185 0 -282 144zM444 539v-82q0 -106 56 -173t147 -67q108 0 167.5 83.5t59.5 236.5q0 270 -210 270q-97 0 -158.5 -73.5t-61.5 -194.5z" />
    <glyph glyph-name="ydieresis" unicode="&#xff;" horiz-adv-x="1102" 
d="M1108 1024l-416 -1106q-150 -399 -452 -399q-115 0 -189 26v252q63 -37 137 -37q122 0 170 115l54 127l-416 1022h350l191 -623q18 -58 28 -137h4q9 58 33 135l193 625h313zM793 1186q-67 0 -110 39t-43 98q0 61 43 99t110 38t110.5 -38.5t43.5 -98.5t-43 -98.5
t-111 -38.5zM335 1186q-68 0 -111 39.5t-43 97.5q0 60 44 98.5t110 38.5q68 0 110.5 -38.5t42.5 -98.5q0 -61 -42.5 -99t-110.5 -38z" />
    <glyph glyph-name="Aogonek" unicode="&#x104;" horiz-adv-x="1440" 
d="M1425 0h-352l-102 319h-510l-101 -319h-350l522 1434h383zM897 567l-154 482q-17 54 -24 129h-8q-5 -63 -25 -125l-156 -486h367zM1221 -400q-24 -8 -57.5 -13.5t-68.5 -5.5q-85 0 -136 44.5t-51 129.5q0 31 11 64.5t32 66t52 61.5t71 53h155q-78 -57 -115.5 -111.5
t-37.5 -96.5q0 -33 17 -49.5t46 -16.5q19 0 40 3t41 9z" />
    <glyph glyph-name="aogonek" unicode="&#x105;" horiz-adv-x="1102" 
d="M985 0h-299v147h-4q-103 -172 -305 -172q-149 0 -234.5 84.5t-85.5 225.5q0 298 353 344l278 37q0 168 -182 168q-183 0 -348 -109v238q66 34 180.5 60t208.5 26q438 0 438 -437v-612zM688 416v69l-186 -24q-154 -20 -154 -139q0 -54 37.5 -88.5t101.5 -34.5
q89 0 145 61.5t56 155.5zM834 -400q-24 -8 -57.5 -13.5t-68.5 -5.5q-85 0 -136 44.5t-51 129.5q0 31 11 64.5t32 66t52 61.5t71 53h155q-78 -57 -115.5 -111.5t-37.5 -96.5q0 -33 17 -49.5t46 -16.5q19 0 40 3t41 9z" />
    <glyph glyph-name="Eogonek" unicode="&#x118;" horiz-adv-x="1090" 
d="M1024 0h-860v1434h827v-263h-504v-319h469v-262h-469v-328h537v-262zM920 -400q-24 -8 -57.5 -13.5t-68.5 -5.5q-85 0 -136 44.5t-51 129.5q0 31 11 64.5t32 66t52 61.5t71 53h155q-78 -57 -115.5 -111.5t-37.5 -96.5q0 -33 17 -49.5t46 -16.5q19 0 40 3t41 9z" />
    <glyph glyph-name="eogonek" unicode="&#x119;" horiz-adv-x="1108" 
d="M1053 422h-668q16 -223 281 -223q169 0 297 80v-228q-142 -76 -369 -76q-248 0 -385 137.5t-137 383.5q0 255 148 404t364 149q224 0 346.5 -133t122.5 -361v-133zM760 616q0 220 -178 220q-76 0 -131.5 -63t-67.5 -157h377zM808 -400q-24 -8 -57.5 -13.5t-68.5 -5.5
q-85 0 -136 44.5t-51 129.5q0 31 11 64.5t32 66t52 61.5t71 53h155q-78 -57 -115.5 -111.5t-37.5 -96.5q0 -33 17 -49.5t46 -16.5q19 0 40 3t41 9z" />
    <glyph glyph-name="Iogonek" unicode="&#x12e;" horiz-adv-x="649" 
d="M607 1434v-250h-120v-934h120v-250h-563v250h120v934h-120v250h563zM478 -400q-24 -8 -57.5 -13.5t-68.5 -5.5q-85 0 -136 44.5t-51 129.5q0 31 11 64.5t32 66t52 61.5t71 53h155q-78 -57 -115.5 -111.5t-37.5 -96.5q0 -33 17 -49.5t46 -16.5q19 0 40 3t41 9z" />
    <glyph glyph-name="iogonek" unicode="&#x12f;" horiz-adv-x="582" 
d="M293 1186q-80 0 -131 47.5t-51 116.5q0 71 51 116t131 45q81 0 131.5 -45t50.5 -116q0 -72 -50.5 -118t-131.5 -46zM449 0h-316v1024h316v-1024zM441 -400q-24 -8 -57.5 -13.5t-68.5 -5.5q-85 0 -136 44.5t-51 129.5q0 31 11 64.5t32 66t52 61.5t71 53h155
q-78 -57 -115.5 -111.5t-37.5 -96.5q0 -33 17 -49.5t46 -16.5q19 0 40 3t41 9z" />
    <glyph glyph-name="dotlessi" unicode="&#x131;" horiz-adv-x="582" 
d="M449 0h-316v1024h316v-1024z" />
    <glyph glyph-name="Lslash" unicode="&#x141;" horiz-adv-x="1047" 
d="M1018 0h-854v467l-162 -86v264l162 84v705h323v-549l283 149v-262l-283 -149v-361h531v-262z" />
    <glyph glyph-name="lslash" unicode="&#x142;" horiz-adv-x="643" 
d="M610 754l-135 -86v-668h-315v473l-131 -84v258l131 82v787h315v-592l135 86v-256z" />
    <glyph glyph-name="OE" unicode="&#x152;" horiz-adv-x="1925" 
d="M1860 0h-828q-26 0 -117 -12q-90 -13 -157 -13q-307 0 -495.5 203t-188.5 520q0 342 194 551t516 209q63 0 151 -12q89 -12 109 -12h783v-263h-504v-323h469v-264h-469v-322h537v-262zM991 305v823q-86 52 -209 52q-168 0 -267 -129.5t-99 -339.5q0 -208 101 -332.5
t261 -124.5q116 0 213 51z" />
    <glyph glyph-name="oe" unicode="&#x153;" horiz-adv-x="1893" 
d="M1837 422h-670q14 -223 283 -223q167 0 295 80v-228q-142 -76 -346 -76q-252 0 -391 189h-4q-137 -187 -408 -187q-234 0 -379 143t-145 388q0 251 147 397t389 146q134 0 238.5 -49.5t154.5 -127.5h5q118 175 376 175q213 0 334 -134t121 -358v-135zM1542 616
q0 220 -174 220q-80 0 -135 -63.5t-66 -156.5h375zM631 807q-113 0 -175.5 -77.5t-62.5 -217.5q0 -293 236 -293q229 0 229 297q0 138 -59.5 214.5t-167.5 76.5z" />
    <glyph glyph-name="Scaron" unicode="&#x160;" horiz-adv-x="1148" 
d="M98 55v320q87 -73 189 -109.5t206 -36.5q61 0 106.5 11t76 30.5t45.5 46t15 57.5q0 42 -24 75t-65.5 61t-98.5 54t-123 53q-168 70 -250.5 171t-82.5 244q0 112 45 192.5t122.5 132.5t179.5 76.5t216 24.5q112 0 198.5 -13.5t159.5 -41.5v-299q-36 25 -78.5 44
t-87.5 31.5t-89.5 18.5t-84.5 6q-55 0 -100 -10.5t-76 -29.5t-48 -45.5t-17 -59.5q0 -36 19 -64.5t54 -54t85 -50t113 -50.5q86 -36 154.5 -76.5t117.5 -91.5t75 -116.5t26 -152.5q0 -120 -45.5 -201.5t-123.5 -132t-181.5 -72.5t-218.5 -22q-118 0 -224.5 20t-184.5 60z
M973 1861l-238 -325h-248l-235 325h205l155 -188l156 188h205z" />
    <glyph glyph-name="scaron" unicode="&#x161;" horiz-adv-x="901" 
d="M66 27v256q78 -47 155.5 -70t146.5 -23q84 0 132.5 23t48.5 70q0 30 -22 50t-56.5 35t-75.5 27t-79 27q-61 23 -107.5 49.5t-78 61.5t-48 81t-16.5 109q0 86 37.5 148t100 101.5t143 58t167.5 18.5q68 0 138 -10.5t138 -30.5v-244q-60 35 -128.5 52.5t-134.5 17.5
q-31 0 -58.5 -5.5t-48.5 -16t-33 -27t-12 -37.5q0 -28 18 -48t47 -34.5t64.5 -26t70.5 -23.5q63 -22 114 -48t87.5 -61t56 -82t19.5 -112q0 -91 -39.5 -155.5t-105 -105t-151 -59t-177.5 -18.5q-169 0 -313 52zM811 1511l-238 -325h-248l-235 325h205l155 -188l156 188h205z
" />
    <glyph glyph-name="Uogonek" unicode="&#x172;" horiz-adv-x="1481" 
d="M1333 621q0 -646 -602 -646q-584 0 -584 631v828h324v-832q0 -348 272 -348q267 0 267 336v844h323v-813zM924 -400q-24 -8 -57.5 -13.5t-68.5 -5.5q-85 0 -136 44.5t-51 129.5q0 31 11 64.5t32 66t52 61.5t71 53h155q-78 -57 -115.5 -111.5t-37.5 -96.5q0 -33 17 -49.5
t46 -16.5q19 0 40 3t41 9z" />
    <glyph glyph-name="uogonek" unicode="&#x173;" horiz-adv-x="1239" 
d="M1106 0h-315v156h-5q-117 -181 -313 -181q-356 0 -356 431v618h315v-590q0 -217 172 -217q85 0 136 59.5t51 161.5v586h315v-1024zM940 -400q-24 -8 -57.5 -13.5t-68.5 -5.5q-85 0 -136 44.5t-51 129.5q0 31 11 64.5t32 66t52 61.5t71 53h155q-78 -57 -115.5 -111.5
t-37.5 -96.5q0 -33 17 -49.5t46 -16.5q19 0 40 3t41 9z" />
    <glyph glyph-name="Ydieresis" unicode="&#x178;" horiz-adv-x="1243" 
d="M1245 1434l-467 -924v-510h-323v504l-455 930h369l231 -535q6 -15 33 -117h4q13 72 31 113l235 539h342zM858 1567q-67 0 -110 39t-43 98q0 61 43 99t110 38t110.5 -38.5t43.5 -98.5t-43 -98.5t-111 -38.5zM400 1567q-68 0 -111 39.5t-43 97.5q0 60 44 98.5t110 38.5
q68 0 110.5 -38.5t42.5 -98.5q0 -61 -42.5 -99t-110.5 -38z" />
    <glyph glyph-name="Zcaron" unicode="&#x17d;" horiz-adv-x="1243" 
d="M1196 0h-1155v186l735 985h-682v263h1100v-181l-719 -991h721v-262zM990 1858l-238 -325h-248l-235 325h205l155 -188l156 188h205z" />
    <glyph glyph-name="zcaron" unicode="&#x17e;" horiz-adv-x="981" 
d="M944 0h-919v131l514 660h-463v233h864v-156l-487 -635h491v-233zM872 1511l-238 -325h-248l-235 325h205l155 -188l156 188h205z" />
    <glyph glyph-name="uni018F" unicode="&#x18f;" horiz-adv-x="1557" 
d="M78 850h1055q-60 344 -447 344q-214 0 -444 -152v287q207 129 491 129q361 0 555.5 -190t194.5 -533q0 -339 -198.5 -549.5t-524.5 -210.5q-306 0 -494 201t-188 531v143zM1133 594h-705q17 -165 106.5 -259.5t227.5 -94.5q146 0 244 95t127 259z" />
    <glyph glyph-name="florin" unicode="&#x192;" horiz-adv-x="1178" 
d="M1044 1174q-64 30 -133 30q-124 0 -147 -137l-23 -137h158v-215h-192l-91 -594q-30 -196 -140 -311t-277 -115q-50 0 -121 20v242q39 -20 92 -20q123 0 154 202l88 576h-105v215h142l22 149q25 167 135 267t279 100q82 0 159 -23v-249z" />
    <glyph glyph-name="uni01EA" unicode="&#x1ea;" horiz-adv-x="1553" 
d="M770 -25q-308 0 -502 200.5t-194 522.5q0 340 197 550t522 210q307 0 496.5 -201t189.5 -530q0 -338 -196.5 -545t-512.5 -207zM784 1180q-170 0 -270 -127.5t-100 -337.5q0 -213 100 -337t262 -124q167 0 265 120.5t98 334.5q0 223 -95 347t-260 124zM955 -400
q-24 -8 -57.5 -13.5t-68.5 -5.5q-85 0 -136 44.5t-51 129.5q0 31 11 64.5t32 66t52 61.5t71 53h155q-78 -57 -115.5 -111.5t-37.5 -96.5q0 -33 17 -49.5t46 -16.5q19 0 40 3t41 9z" />
    <glyph glyph-name="uni01EB" unicode="&#x1eb;" horiz-adv-x="1252" 
d="M621 -25q-256 0 -402.5 143.5t-146.5 389.5q0 254 152 397.5t411 143.5q255 0 400 -143.5t145 -379.5q0 -255 -149.5 -403t-409.5 -148zM629 807q-112 0 -174 -77t-62 -218q0 -295 238 -295q227 0 227 303q0 287 -229 287zM801 -400q-24 -8 -57.5 -13.5t-68.5 -5.5
q-85 0 -136 44.5t-51 129.5q0 31 11 64.5t32 66t52 61.5t71 53h155q-78 -57 -115.5 -111.5t-37.5 -96.5q0 -33 17 -49.5t46 -16.5q19 0 40 3t41 9z" />
    <glyph glyph-name="uni01EC" unicode="&#x1ec;" horiz-adv-x="1553" 
d="M770 -25q-308 0 -502 200.5t-194 522.5q0 340 197 550t522 210q307 0 496.5 -201t189.5 -530q0 -338 -196.5 -545t-512.5 -207zM784 1180q-170 0 -270 -127.5t-100 -337.5q0 -213 100 -337t262 -124q167 0 265 120.5t98 334.5q0 223 -95 347t-260 124zM955 -400
q-24 -8 -57.5 -13.5t-68.5 -5.5q-85 0 -136 44.5t-51 129.5q0 31 11 64.5t32 66t52 61.5t71 53h155q-78 -57 -115.5 -111.5t-37.5 -96.5q0 -33 17 -49.5t46 -16.5q19 0 40 3t41 9zM1069 1567h-586v172h586v-172z" />
    <glyph glyph-name="uni01ED" unicode="&#x1ed;" horiz-adv-x="1252" 
d="M621 -25q-256 0 -402.5 143.5t-146.5 389.5q0 254 152 397.5t411 143.5q255 0 400 -143.5t145 -379.5q0 -255 -149.5 -403t-409.5 -148zM629 807q-112 0 -174 -77t-62 -218q0 -295 238 -295q227 0 227 303q0 287 -229 287zM801 -400q-24 -8 -57.5 -13.5t-68.5 -5.5
q-85 0 -136 44.5t-51 129.5q0 31 11 64.5t32 66t52 61.5t71 53h155q-78 -57 -115.5 -111.5t-37.5 -96.5q0 -33 17 -49.5t46 -16.5q19 0 40 3t41 9zM919 1186h-586v172h586v-172z" />
    <glyph glyph-name="uni0259" unicode="&#x259;" horiz-adv-x="1108" 
d="M55 602h668q-15 223 -281 223q-168 0 -297 -80v228q143 76 369 76q248 0 385 -137.5t137 -383.5q0 -255 -148 -404t-364 -149q-224 0 -346.5 133t-122.5 361v133zM725 408h-377q0 -220 178 -220q76 0 131.5 63t67.5 157z" />
    <glyph glyph-name="circumflex" unicode="&#x2c6;" horiz-adv-x="785" 
d="M750 1186h-207l-158 188l-147 -188h-207l235 325h248z" />
    <glyph glyph-name="caron" unicode="&#x2c7;" horiz-adv-x="785" 
d="M754 1511l-238 -325h-248l-235 325h205l155 -188l156 188h205z" />
    <glyph glyph-name="breve" unicode="&#x2d8;" horiz-adv-x="709" 
d="M692 1493q-12 -141 -102.5 -224t-237.5 -83q-146 0 -238 85.5t-96 221.5h179q17 -135 159 -135q137 0 156 135h180z" />
    <glyph glyph-name="dotaccent" unicode="&#x2d9;" horiz-adv-x="518" 
d="M260 1186q-67 0 -110.5 40t-43.5 97q0 60 44 97.5t110 37.5q67 0 109.5 -38t42.5 -97t-42.5 -98t-109.5 -39z" />
    <glyph glyph-name="ring" unicode="&#x2da;" horiz-adv-x="555" 
d="M274 1186q-102 0 -168.5 59.5t-66.5 155.5q0 101 69.5 161t170.5 60q107 0 173 -59.5t66 -155.5q0 -98 -71.5 -159.5t-172.5 -61.5zM274 1499q-96 0 -96 -94t96 -94q45 0 74 27.5t29 66.5q0 41 -28.5 67.5t-74.5 26.5z" />
    <glyph glyph-name="ogonek" unicode="&#x2db;" horiz-adv-x="545" 
d="M411 -400q-24 -8 -57.5 -13.5t-68.5 -5.5q-85 0 -136 44.5t-51 129.5q0 31 11 64.5t32 66t52 61.5t71 53h155q-78 -57 -115.5 -111.5t-37.5 -96.5q0 -33 17 -49.5t46 -16.5q19 0 40 3t41 9z" />
    <glyph glyph-name="tilde" unicode="&#x2dc;" horiz-adv-x="785" 
d="M754 1497q0 -140 -55.5 -216.5t-151.5 -76.5q-86 0 -168 43q-89 47 -123 47q-80 0 -80 -108h-141q0 139 55 216t154 77q81 0 168 -49q79 -44 120 -44q78 0 78 111h144z" />
    <glyph glyph-name="hungarumlaut" unicode="&#x2dd;" horiz-adv-x="832" 
d="M870 1505l-252 -319h-210l213 319h249zM492 1505l-248 -319h-211l211 319h248z" />
    <glyph glyph-name="acutecomb" unicode="&#x301;" horiz-adv-x="0" 
d="M301 1464l-264 -245h-197l180 245h281z" />
    <glyph glyph-name="uni0304" unicode="&#x304;" horiz-adv-x="0" 
d="M293 1186h-586v172h586v-172z" />
    <glyph glyph-name="uni030B" unicode="&#x30b;" horiz-adv-x="0" 
d="M418 1505l-252 -319h-210l213 319h249zM40 1505l-248 -319h-211l211 319h248z" />
    <glyph glyph-name="uni0328" unicode="&#x328;" horiz-adv-x="0" 
d="M41 -400q-24 -8 -57.5 -13.5t-68.5 -5.5q-85 0 -136 44.5t-51 129.5q0 31 11 64.5t32 66t52 61.5t71 53h155q-78 -57 -115.5 -111.5t-37.5 -96.5q0 -33 17 -49.5t46 -16.5q19 0 40 3t41 9z" />
    <glyph glyph-name="uni0358" unicode="&#x358;" horiz-adv-x="0" 
d="M1 1186q-67 0 -110.5 40t-43.5 97q0 60 44 97.5t110 37.5q67 0 109.5 -38t42.5 -97t-42.5 -98t-109.5 -39z" />
    <glyph glyph-name="uni13A0" unicode="&#x13a0;" horiz-adv-x="1510" 
d="M164 0v1434h508q764 0 764 -699q0 -335 -208.5 -535t-555.5 -200h-508zM487 1171v-909h160q210 0 329.5 126t119.5 343q0 205 -118.5 322.5t-332.5 117.5h-158z" />
    <glyph glyph-name="uni13A1" unicode="&#x13a1;" horiz-adv-x="1511" 
d="M776 389q0 52 -20.5 83.5t-50.5 48.5t-65.5 22.5t-65.5 5.5h-87v-549h-323v1434h512q522 0 522 -390q0 -75 -22 -136t-64 -108.5t-101.5 -80t-134.5 -49.5v-4q38 -6 77.5 -20.5t72 -44.5t53 -80t20.5 -127v-72q0 -5 2.5 -21t11.5 -33t26.5 -30.5t47.5 -13.5t48 15t27 33
q11 21 14 48h235q-10 -97 -53 -173q-19 -32 -47 -63t-67.5 -55t-93 -39t-123.5 -15q-74 0 -128.5 18.5t-93.5 48t-64 67t-39.5 76t-20 74t-5.5 61.5v69zM487 1192v-399h140q48 0 90 15t73.5 42.5t49.5 66.5t18 87q0 188 -225 188h-146z" />
    <glyph glyph-name="uni13A2" unicode="&#x13a2;" horiz-adv-x="1200" 
d="M1171 1171h-409v-1171h-324v1171h-407v263h1140v-263z" />
    <glyph glyph-name="uni13A3" unicode="&#x13a3;" horiz-adv-x="1575" 
d="M1150 1434v-250h-120v-118q115 -19 203.5 -65.5t147.5 -117.5t89.5 -165.5t30.5 -209.5q0 -131 -43.5 -230.5t-120.5 -166.5t-183 -101.5t-231 -34.5v279q62 0 107 23.5t74.5 61.5t44 86t14.5 97q0 46 -12.5 95t-45.5 89.5t-90 67t-146 26.5q-52 0 -93 -13t-71 -32.5
t-50.5 -44t-31.5 -46.5q41 -22 76 -53t60.5 -71.5t40 -89t14.5 -105.5q0 -87 -30.5 -155.5t-83 -116t-123 -73t-150.5 -25.5t-150.5 25.5t-123 73t-83 116t-30.5 155.5q0 66 19 121t52 98.5t78 74.5t97 49q50 149 158.5 244.5t262.5 128.5v123h-120v250h563zM427 182
q30 0 51 15t34 38t18.5 52t5.5 58q0 27 -5 55t-18 51.5t-34 38.5t-52 15q-32 0 -52.5 -15t-33.5 -38.5t-18 -51.5t-5 -55q0 -29 5.5 -58t18.5 -52t34 -38t51 -15z" />
    <glyph glyph-name="uni13A4" unicode="&#x13a4;" horiz-adv-x="1933" 
d="M750 -25q-158 0 -283 54.5t-212.5 151t-134 229t-46.5 288.5q0 164 46.5 303.5t136 241t219.5 158.5t297 57q154 0 275 -52t205.5 -144.5t131.5 -219.5t53 -276q54 4 100 14.5t80 30.5t53.5 53t19.5 82q0 23 -7 45t-20.5 39.5t-34 28t-47.5 10.5q-24 0 -44.5 -4t-35.5 -9
q-18 -5 -33 -12v219q20 7 40.5 11.5t48.5 8.5t58 4q76 0 135 -25t99.5 -68.5t61.5 -101t21 -123.5q0 -113 -39.5 -190.5t-108.5 -127.5t-162.5 -75t-200.5 -33q-23 -126 -79 -230.5t-141.5 -179.5t-199 -116.5t-252.5 -41.5zM764 1180q-96 0 -162.5 -38.5t-108 -103
t-60.5 -148.5t-19 -175q0 -90 18.5 -173.5t59 -147t105.5 -102t159 -38.5q96 0 161.5 36.5t106 99t58 145t17.5 174.5q0 93 -16 178t-54.5 150t-103 104t-161.5 39z" />
    <glyph glyph-name="uni13A5" unicode="&#x13a5;" horiz-adv-x="649" 
d="M486 1024v-774h120v-250h-563v250h120v774h323zM327 1186q-37 0 -70 11.5t-58 33t-39.5 52t-14.5 67.5q0 38 14.5 68t39.5 50.5t58 31.5t70 11t70 -11t58 -31.5t39.5 -50.5t14.5 -68t-14.5 -68.5t-39 -51.5t-58 -32.5t-70.5 -11.5z" />
    <glyph glyph-name="uni13A6" unicode="&#x13a6;" horiz-adv-x="1148" 
d="M1138 594h-123q22 -40 33.5 -87t11.5 -104q0 -120 -44 -201.5t-120 -132t-178 -72.5t-217 -22q-118 0 -219.5 20t-179.5 60v320q175 -146 385 -146q61 0 105 11t72.5 30.5t42 46t13.5 57.5q0 70 -49 122t-146 98h-515v258h146q-29 42 -44.5 87.5t-15.5 92.5
q0 112 43.5 192.5t119 132.5t176 76.5t214.5 24.5q56 0 103.5 -3.5t90 -10t80.5 -17t74 -24.5v-299q-36 25 -77.5 44t-84 31.5t-85.5 18.5t-83 6q-112 0 -171.5 -39.5t-59.5 -105.5q0 -33 14 -60.5t42 -51.5t69.5 -47t97.5 -48h479v-258z" />
    <glyph glyph-name="uni13A7" unicode="&#x13a7;" horiz-adv-x="1650" 
d="M60 630q0 93 25.5 175.5t76 144.5t126.5 98t178 36q83 0 151 -28t116 -80.5t74.5 -126.5t26.5 -165q0 -73 -17.5 -134t-46.5 -111.5t-65.5 -91t-75.5 -71.5q72 -22 160 -22q78 0 157.5 24.5t144 78.5t105 141.5t40.5 213.5t-37 215t-97 145t-135 82t-151 26
q-63 0 -110 -5.5t-79 -11.5q-38 -8 -64 -17v290q40 6 84 11q38 4 85 7.5t96 3.5q156 0 292 -52t237.5 -148.5t160 -234t58.5 -308.5q0 -203 -60.5 -344t-166.5 -229t-250 -127.5t-310 -39.5q-176 0 -312 51.5t-228.5 140.5t-140.5 208.5t-48 254.5zM343 650q0 -78 24 -142.5
t68 -113.5q27 20 53.5 47t47 62.5t33 80t12.5 98.5q0 36 -8.5 68.5t-23 57t-35 39t-44.5 14.5q-27 0 -50 -15t-40.5 -42.5t-27 -66.5t-9.5 -87z" />
    <glyph glyph-name="uni13A8" unicode="&#x13a8;" horiz-adv-x="1178" 
d="M607 1434v-250h-120v-176q34 20 70 30t71 10q60 0 97.5 -15t59 -40.5t29 -58.5t7.5 -70q0 -52 -8 -104.5t-8 -94.5q0 -36 12 -58.5t48 -22.5q25 0 46.5 13.5t37.5 35.5t24.5 51t8.5 60q0 50 -13.5 85t-29.5 58q-18 26 -42 44l82 154q55 -25 99 -70q19 -19 37 -44t32 -57
t22.5 -71.5t8.5 -86.5q0 -100 -31 -169.5t-79 -112.5t-106.5 -62.5t-113.5 -19.5q-77 0 -125 17.5t-75 47t-36.5 67.5t-9.5 79q0 27 3 54t6 52.5t6 48.5t3 42q0 28 -9 44t-33 16q-26 0 -43.5 -23.5t-28 -63.5t-15 -93.5t-4.5 -113.5v-316h120v-250h-563v250h120v934h-120
v250h563z" />
    <glyph glyph-name="uni13A9" unicode="&#x13a9;" horiz-adv-x="1259" 
d="M1268 1434l-449 -983q-126 -276 -238 -376t-284 -100q-114 0 -186 33v295q82 -53 170 -53q121 0 213 196l-471 988h368l238 -574q21 -52 33 -117h2q11 54 34 113l230 578h340z" />
    <glyph glyph-name="uni13AA" unicode="&#x13aa;" horiz-adv-x="1440" 
d="M1425 0h-352l-102 319h-510l-101 -319h-350l522 1434h383zM897 567l-154 482q-17 54 -24 129h-8q-5 -63 -25 -125l-156 -486h367z" />
    <glyph glyph-name="uni13AB" unicode="&#x13ab;" horiz-adv-x="1328" 
d="M378 508q0 -254 240 -254q236 0 236 258v922h324v-925q0 -128 -41 -227t-115 -167.5t-177 -104t-227 -35.5t-228 35.5t-179.5 104t-118 167.5t-42.5 227z" />
    <glyph glyph-name="uni13AC" unicode="&#x13ac;" horiz-adv-x="1090" 
d="M1024 0h-860v1434h827v-263h-504v-319h469v-262h-469v-328h537v-262z" />
    <glyph glyph-name="uni13AD" unicode="&#x13ad;" horiz-adv-x="1758" 
d="M1231 1434v-250h-137v-242h625v-221l-602 -721h-311v697h-106q-15 -60 -44.5 -106.5t-72 -78.5t-97 -49t-119.5 -17q-80 0 -144 25.5t-109 73t-69.5 116t-24.5 155.5t26.5 155.5t73 115.5t110 71.5t137.5 24.5q59 0 112 -16t96 -47t74 -75.5t48 -102.5h109v242h-138v250
h563zM367 633q30 0 51 18t34 45t18.5 59t5.5 61q0 27 -5 58.5t-18 58.5t-34 45t-52 18q-32 0 -52.5 -18t-33.5 -45t-18 -58.5t-5 -58.5q0 -29 5.5 -61t18.5 -59t34 -45t51 -18zM1094 326l303 371h-303v-371z" />
    <glyph glyph-name="uni13AE" unicode="&#x13ae;" horiz-adv-x="1291" 
d="M703 938v-250h-120v-101q12 -1 25 -1h27q66 0 117.5 23t86.5 64.5t53 98.5t18 125q0 75 -26.5 134t-74.5 100.5t-114 63t-145 21.5q-88 0 -162.5 -18.5t-129.5 -41.5q-64 -26 -118 -59v285q48 21 115 38q57 14 139.5 26t191.5 12q142 0 260.5 -35.5t204 -108t133 -182
t47.5 -256.5q0 -115 -36 -212.5t-104.5 -168.5t-166.5 -111t-221 -40q-37 0 -66 1t-54 3v-98h120v-250h-563v250h120v438h-120v250h563z" />
    <glyph glyph-name="uni13AF" unicode="&#x13af;" horiz-adv-x="1515" 
d="M1441 723q0 -69 -7.5 -151.5t-27 -165.5t-54 -161t-88.5 -138t-129.5 -96t-177.5 -36q-79 0 -137 21v287q52 -29 113 -29q48 0 80.5 28t53 72.5t31 100t14.5 109.5h-483q-21 -126 -53 -234t-86 -187t-136.5 -123.5t-206.5 -44.5q-79 0 -137 21v287q26 -14 49 -21.5
t54 -7.5q44 0 75.5 27t55 76t39.5 116.5t29 149t24 174t24 190.5q16 128 65.5 217.5t120 146t156 82t173.5 25.5q124 0 228 -43.5t179 -133.5t117 -229t42 -329zM891 1179q-22 0 -52.5 -6t-60.5 -26.5t-54.5 -60.5t-34.5 -107q-6 -40 -12 -79.5t-11 -77.5h446
q-9 103 -32 172t-53.5 110t-66 58t-69.5 17z" />
    <glyph glyph-name="uni13B0" unicode="&#x13b0;" horiz-adv-x="1048" 
d="M164 0v1434h323v-582h531v-262h-531v-590h-323z" />
    <glyph glyph-name="uni13B1" unicode="&#x13b1;" horiz-adv-x="1048" 
d="M1018 1167h-531v-1167h-323v1434h854v-267z" />
    <glyph glyph-name="uni13B2" unicode="&#x13b2;" horiz-adv-x="2026" 
d="M2006 736v-250h-95q0 -94 -37 -185.5t-110.5 -164t-182.5 -117t-252 -44.5q-194 0 -364 82q-170 -82 -363 -82q-143 0 -252 44.5t-182.5 117t-110.5 164t-37 185.5h318q0 -52 20.5 -94.5t56.5 -73t86 -47.5t109 -17q46 0 90 9q-104 121 -164.5 288.5t-60.5 378.5
q0 112 30 208.5t91 167.5t153 111.5t216 40.5t216.5 -40.5t153.5 -111.5t91 -167.5t30 -208.5q0 -211 -60.5 -378.5t-164.5 -288.5q43 -9 90 -9q59 0 109 17t86 47.5t56.5 73t20.5 94.5h-100v250h513zM1120 940q0 52 -10 96t-29.5 76t-48.5 50t-67 18t-66.5 -18t-48 -50
t-29.5 -76t-10 -96q0 -154 40 -283.5t114 -223.5q74 94 114.5 223.5t40.5 283.5z" />
    <glyph glyph-name="uni13B3" unicode="&#x13b3;" horiz-adv-x="2058" 
d="M2040 1434l-379 -1434h-358l-238 920q-19 72 -23 161h-4q-9 -98 -26 -161l-244 -920h-373l-377 1434h353l202 -955q13 -61 19 -164h6q4 77 29 168l260 951h346l235 -963q13 -53 23 -154h4q4 79 21 160l198 957h326z" />
    <glyph glyph-name="uni13B4" unicode="&#x13b4;" horiz-adv-x="1255" 
d="M1065 457q0 -107 -37 -196t-103.5 -152.5t-157.5 -98.5t-199 -35t-199 35t-157 98.5t-103 152.5t-37 196t37 196t103 152.5t157 98.5t199 35q43 0 85 -6q-27 85 -44 157.5t-17 117.5q0 91 35 153.5t95 101t139 55t166 16.5q42 0 81 -4t70 -9q36 -6 67 -13v-264
q-27 15 -60 27q-29 10 -67 18.5t-83 8.5q-52 0 -87 -31t-35 -95q0 -61 11.5 -117t28 -111.5t36.5 -111t36.5 -114.5t28 -123.5t11.5 -137.5zM381 457q0 -45 11 -88.5t34 -77t58.5 -54t84.5 -20.5t84 20.5t58 54t34 77t11 88.5t-11 88.5t-34 77t-58 54t-84 20.5t-84.5 -20.5
t-58.5 -54t-34 -77t-11 -88.5z" />
    <glyph glyph-name="uni13B5" unicode="&#x13b5;" horiz-adv-x="1311" 
d="M471 0h-324v925q0 127 41 226.5t115 167.5t177 103.5t227 35.5q119 0 221 -35.5t177 -102t117.5 -163.5t42.5 -220q0 -59 -9.5 -107t-25.5 -88t-36 -72.5t-41 -58.5l-263 167q21 25 34 65.5t13 91.5q0 55 -14.5 100.5t-43.5 77.5t-72 49.5t-100 17.5q-236 0 -236 -258
v-922z" />
    <glyph glyph-name="uni13B6" unicode="&#x13b6;" horiz-adv-x="1474" 
d="M1015 827q66 0 136.5 -20.5t129 -68t96 -124.5t37.5 -189q0 -92 -35 -173.5t-106.5 -143t-179.5 -97.5t-253 -36q-185 0 -328 54.5t-241 150t-148.5 225.5t-50.5 281q0 170 54 312t153 244t238 159t309 57q97 0 173.5 -11.5t130.5 -25.5q62 -16 110 -36v-311
q-49 29 -110 53q-52 20 -122.5 36.5t-155.5 16.5q-105 0 -186.5 -34.5t-138 -97t-86 -149t-29.5 -190.5q0 -88 27.5 -170t81.5 -145.5t132.5 -101.5t180.5 -38q76 0 131 12.5t91 36t53 55.5t17 71q0 29 -9.5 51t-25 37t-35.5 23t-41 8v-110h-250v503h250v-114z" />
    <glyph glyph-name="uni13B7" unicode="&#x13b7;" horiz-adv-x="1960" 
d="M1798 0h-319v858q0 139 12 307h-8q-25 -132 -45 -190l-336 -975h-264l-342 965q-14 39 -45 200h-9q13 -212 13 -372v-793h-291v1434h473l293 -850q35 -102 51 -205h6q27 119 57 207l293 848h461v-1434z" />
    <glyph glyph-name="uni13B8" unicode="&#x13b8;" horiz-adv-x="1230" 
d="M84 971h250v-147q26 15 57 28t63 13q29 0 50 -16.5t40 -36t38 -36t45 -16.5q18 0 37 7t37 17t33.5 21.5t26.5 21.5v25q0 165 -91 246.5t-260 81.5q-61 0 -119.5 -10t-104.5 -22q-54 -14 -102 -31v303q50 10 107 19q49 8 111.5 14t130.5 6q177 0 300.5 -39t201 -114
t113 -186t35.5 -255v-865h-322v592q-12 -9 -29 -20t-36 -20.5t-39 -16t-38 -6.5q-32 0 -57.5 16.5t-46.5 36t-38 36t-32 16.5q-23 0 -53.5 -15t-57.5 -33v-158h-250v543z" />
    <glyph glyph-name="uni13B9" unicode="&#x13b9;" horiz-adv-x="1925" 
d="M1260 1434v-250h-121v-80q0 -42 4 -78.5t15.5 -63.5t32.5 -42.5t56 -15.5q38 0 73.5 13.5t70.5 33.5t70.5 43.5t73 43.5t78.5 33.5t88 13.5q39 0 79 -13t72 -28q38 -18 73 -40v-288q-33 25 -69 44q-31 17 -69.5 30.5t-77.5 13.5q-35 0 -68 -13.5t-68 -33.5t-72 -43.5
t-79 -43.5t-90.5 -33.5t-104.5 -13.5q-55 0 -99.5 9.5t-80.5 24.5t-64 34.5t-49 40.5q-49 48 -75 110q-42 -4 -88.5 -19t-91.5 -43q66 -24 124 -63.5t100.5 -91t67.5 -115.5t25 -137q0 -83 -23.5 -155.5t-72.5 -126.5t-125 -85t-180 -31q-113 0 -191.5 37.5t-128 97.5
t-71.5 135.5t-22 150.5q0 20 1 39.5t3 39.5q-47 -31 -76 -55q-16 -13 -28 -25l-82 216q40 34 88 67q41 28 96 58t119 52q44 64 101 116t123 91t139.5 64.5t150.5 34.5v90h-120v250h563zM490 416q0 -48 9.5 -82.5t25.5 -56.5t35 -32.5t39 -10.5q18 0 35.5 10t31 27.5t22 41
t8.5 51.5q0 76 -49 127.5t-137 66.5q-20 -65 -20 -142z" />
    <glyph glyph-name="uni13BA" unicode="&#x13ba;" horiz-adv-x="2022" 
d="M720 1458q135 0 244 -44.5t190 -124.5t132 -191.5t69 -245.5h180v582h323v-1434h-323v590h-176q-16 -135 -70 -248t-138 -194.5t-194 -127t-237 -45.5q-140 0 -258.5 54.5t-204.5 151t-134.5 229t-48.5 288.5q0 164 43.5 303.5t126 241t203 158.5t273.5 57zM720 254
q78 0 135.5 38.5t95.5 102t56.5 147t18.5 173.5q0 91 -18.5 175t-56 148.5t-95 103t-136.5 38.5t-136.5 -38.5t-95 -103t-56 -148.5t-18.5 -175q0 -90 18.5 -173.5t56.5 -147t95.5 -102t135.5 -38.5z" />
    <glyph glyph-name="uni13BB" unicode="&#x13bb;" horiz-adv-x="1569" 
d="M1405 0h-324v584h-594v-584h-323v1434h323v-572h594v572h324v-1434z" />
    <glyph glyph-name="uni13BC" unicode="&#x13bc;" horiz-adv-x="1059" 
d="M120 291q57 -37 124 -55.5t127 -18.5q66 0 120.5 20t93.5 57.5t60 91.5t21 122t-22 123.5t-62 94.5t-96.5 60t-124.5 21q-61 0 -126 -18.5t-115 -55.5v268q28 17 72.5 27.5t100.5 15.5v140h-120v250h563v-250h-120v-161q177 -48 274 -183.5t97 -352.5q0 -115 -38 -209.5
t-108.5 -161.5t-170 -104t-221.5 -37q-102 0 -188.5 15.5t-140.5 46.5v254z" />
    <glyph glyph-name="uni13BD" unicode="&#x13bd;" horiz-adv-x="1714" 
d="M1704 1434v-250h-127l-332 -733q-49 -108 -103.5 -196t-123 -150.5t-155 -96t-199.5 -33.5q-134 0 -229 39t-157.5 103t-94.5 146.5t-39 170.5h-124v250h563v-250h-120q5 -41 19 -74t39 -56.5t62.5 -36.5t88.5 -13q72 0 135.5 46.5t109.5 145.5l-471 988h368l273 -671
l165 421h-111v250h563z" />
    <glyph glyph-name="uni13BE" unicode="&#x13be;" horiz-adv-x="1553" 
d="M770 -25q-308 0 -502 200.5t-194 522.5q0 340 197 550t522 210q307 0 496.5 -201t189.5 -530q0 -338 -196.5 -545t-512.5 -207zM1135 840q-51 354 -351 354q-149 0 -244.5 -92.5t-121.5 -261.5h717zM1135 584h-715q27 -166 121 -255t235 -89q310 0 359 344z" />
    <glyph glyph-name="uni13BF" unicode="&#x13bf;" horiz-adv-x="1292" 
d="M1252 614v-250h-102v-346q0 -93 -22 -163.5t-58.5 -122.5t-83 -88t-94.5 -60q-114 -55 -257 -65v241q55 5 99 31q19 11 37 28t32 41.5t22.5 57.5t8.5 76q-34 -8 -71.5 -13.5t-79.5 -5.5q-120 0 -209.5 28t-148.5 79t-88.5 122t-29.5 158v429h-166v233h166v221l315 90
v-311h230v-233h-230v-394q0 -48 12.5 -82.5t34 -56t50 -31.5t60.5 -10q77 0 111.5 39t41.5 108h-103v250h523z" />
    <glyph glyph-name="uni13C0" unicode="&#x13c0;" horiz-adv-x="1456" 
d="M1341 96q-210 -121 -522 -121q-346 0 -545.5 191.5t-199.5 527.5q0 338 218 551t580 213q228 0 402 -63v-303q-166 96 -406 96q-201 0 -327.5 -130.5t-126.5 -348.5q0 -221 113.5 -342t306.5 -121q116 0 184 33v280h-287v258h610v-721z" />
    <glyph glyph-name="uni13C1" unicode="&#x13c1;" horiz-adv-x="1639" 
d="M935 1458q148 0 254 -40t173 -120.5t98.5 -201.5t31.5 -283v-813h-323v844q0 169 -56 252.5t-178 83.5q-29 0 -62.5 -9t-64 -32t-55 -64.5t-34.5 -105.5q-21 -130 -39.5 -254t-42.5 -234.5t-59.5 -203t-90.5 -160t-135.5 -105t-194.5 -37.5q-79 0 -137 21v287
q26 -14 49 -21.5t54 -7.5q44 0 77 26.5t58.5 74t44.5 114t34 147t27.5 172t25.5 189.5q16 128 71 219t131 149.5t166 85.5t177 27z" />
    <glyph glyph-name="uni13C2" unicode="&#x13c2;" horiz-adv-x="1479" 
d="M1339 0h-321v518q0 187 -205 187q-161 0 -326 -99v-606h-323v1434h323v-570q203 111 408 111q444 0 444 -428v-547z" />
    <glyph glyph-name="uni13C3" unicode="&#x13c3;" horiz-adv-x="1243" 
d="M1196 0h-1155v186l735 985h-682v263h1100v-181l-719 -991h721v-262z" />
    <glyph glyph-name="uni13C4" unicode="&#x13c4;" horiz-adv-x="1401" 
d="M583 833v-180h-104q0 -27 7.5 -42.5t24.5 -23t46 -9.5t73 -2h301v308q0 145 -61.5 225.5t-185.5 80.5q-40 0 -70 -8t-50 -17q-24 -11 -40 -24h59v-180h-523v180h99q23 66 64 124t103.5 101t148 68t197.5 25q150 0 260 -37.5t181.5 -114t106 -192.5t34.5 -272v-843h-323
v333h-354q-219 0 -320.5 78.5t-101.5 241.5h-95v180h523z" />
    <glyph glyph-name="uni13C5" unicode="&#x13c5;" horiz-adv-x="2052" 
d="M720 1458q118 0 217 -34.5t176 -98t131.5 -152.5t84.5 -197q41 36 85 54t88 18q60 0 97.5 -15t59 -40.5t29 -58.5t7.5 -70q0 -52 -8 -104.5t-8 -94.5q0 -36 12 -58.5t48 -22.5q25 0 46.5 13.5t37.5 35.5t24.5 51t8.5 60q0 50 -13.5 85t-29.5 58q-18 26 -42 44l82 154
q55 -25 99 -70q19 -19 37 -44t32 -57t22.5 -71.5t8.5 -86.5q0 -100 -31 -169.5t-79 -112.5t-106.5 -62.5t-113.5 -19.5q-77 0 -125 17.5t-75 47t-36.5 67.5t-9.5 79q0 27 3 54t6 52.5t6 48.5t3 42q0 28 -9 44t-33 16q-20 0 -35.5 -16.5t-26.5 -45t-17.5 -65.5t-7.5 -79
q-5 -143 -55.5 -267t-136 -215.5t-201.5 -144t-252 -52.5q-140 0 -258.5 54.5t-204.5 151t-134.5 229t-48.5 288.5q0 164 43.5 303.5t126 241t203 158.5t273.5 57zM720 254q78 0 135.5 38.5t95.5 102t56.5 147t18.5 173.5q0 91 -18.5 175t-56 148.5t-95 103t-136.5 38.5
t-136.5 -38.5t-95 -103t-56 -148.5t-18.5 -175q0 -90 18.5 -173.5t56.5 -147t95.5 -102t135.5 -38.5z" />
    <glyph glyph-name="uni13C6" unicode="&#x13c6;" horiz-adv-x="1200" 
d="M1171 0h-1140v263h407v908h-407v263h1140v-263h-409v-908h409v-263z" />
    <glyph glyph-name="uni13C7" unicode="&#x13c7;" horiz-adv-x="2199" 
d="M495 742q-32 -29 -58 -66q-22 -32 -39.5 -75t-17.5 -96q0 -45 12.5 -91.5t45 -83.5t87.5 -60.5t139 -23.5q77 0 133 16t91 33v394h323v-410q67 -33 184 -33q97 0 170 34t122 95t73.5 146t24.5 188q0 104 -32 192t-91 151.5t-143 99.5t-188 36q-97 0 -172 -22t-127 -48
q-61 -31 -107 -69l-199 218q56 53 141 95q36 18 83 35t104 30.5t125 22t148 8.5q174 0 320 -54t252.5 -153.5t166 -241t59.5 -315.5q0 -171 -50.5 -304.5t-144 -226t-225.5 -140.5t-295 -48q-99 0 -186.5 23.5t-165.5 58.5q-45 -22 -95.5 -37.5t-101.5 -25.5t-101 -14.5
t-96 -4.5q-113 0 -201.5 21.5t-156 59t-114 88.5t-76 110.5t-43 125t-13.5 130.5q0 55 9.5 104t25 91t35.5 77.5t41 64.5q48 67 111 116z" />
    <glyph glyph-name="uni13C8" unicode="&#x13c8;" horiz-adv-x="2091" 
d="M1550 799q75 0 122 40t47 129q0 60 -29.5 100t-74.5 64.5t-99.5 35t-104.5 10.5q-45 0 -87.5 -5.5t-81.5 -16.5q100 -121 157 -285t57 -369q0 -112 -30 -208.5t-91 -167.5t-153 -111.5t-216 -40.5t-216.5 40.5t-153.5 111.5t-91 167.5t-30 208.5q0 211 59.5 378
t168.5 288q-43 10 -93 10q-59 0 -109 -17t-86 -47.5t-56.5 -73t-20.5 -94.5h-318q0 94 35 185.5t106.5 164t181 117t259.5 44.5q100 0 194 -22.5t181 -66.5q96 44 204 66.5t229 22.5q144 0 260.5 -33t199 -96t127 -153.5t44.5 -205.5q0 -111 -39.5 -195t-106.5 -140.5
t-156 -85t-189 -28.5v279zM811 492q0 -52 10 -96t29.5 -76t48 -50t66.5 -18t67 18t48.5 50t29.5 76t10 96q0 149 -38 275t-108 219q-80 -93 -121.5 -219t-41.5 -275z" />
    <glyph glyph-name="uni13C9" unicode="&#x13c9;" horiz-adv-x="2529" 
d="M943 1434l341 -1141l174 503q-52 9 -105 33t-96 66t-70 103.5t-27 145.5q0 65 24 122.5t66.5 100t101 67.5t127.5 25q99 0 164.5 -26t106.5 -66.5t60.5 -89.5t25.5 -95q36 33 74 65t78.5 57t85 40.5t94.5 15.5q106 0 174 -30t107.5 -78t54.5 -108.5t15 -120.5
q0 -94 -33.5 -158t-85 -103t-112 -55.5t-114.5 -16.5q-39 0 -73 8t-59 18q-30 11 -54 27l46 202q15 -10 33 -17q16 -7 38 -12t48 -5q58 0 93 32t35 78q0 59 -31.5 83.5t-80.5 24.5q-41 0 -83 -26.5t-88 -65.5t-97.5 -84.5t-111.5 -82.5l-330 -870h-366l-379 1089
q-24 -42 -57.5 -80.5t-77 -68t-99 -47t-123.5 -17.5q-81 0 -145 21.5t-109 62t-69 98t-24 130.5q0 53 13.5 98t30 78t44.5 70l208 -69q-19 -17 -33 -38q-12 -18 -22 -42.5t-10 -53.5q0 -55 33 -86t92 -31q33 0 61 13.5t50.5 36t40 51.5t30.5 59q31 70 47 160h348zM1541 1034
q8 25 12.5 54t4.5 50q0 54 -24 80.5t-62 26.5q-20 0 -35 -9.5t-24.5 -24t-14.5 -32t-5 -33.5q0 -59 40.5 -91t102.5 -35z" />
    <glyph glyph-name="uni13CA" unicode="&#x13ca;" horiz-adv-x="2308" 
d="M1627 753q-24 15 -55 27q-26 10 -63 18.5t-83 8.5q-53 0 -101 -18.5t-84.5 -54t-58 -88t-21.5 -121.5q0 -68 26 -119t71 -84.5t105.5 -50.5t128.5 -17q96 0 170.5 33.5t126 93.5t78.5 143.5t27 184.5q0 104 -31 190.5t-89.5 149t-141.5 97t-188 34.5v278q190 0 337.5 -57
t248 -159.5t152.5 -244.5t52 -311q0 -162 -52 -293.5t-149 -224t-235.5 -143t-311.5 -50.5q-118 0 -215 23t-174 66q-86 -44 -187.5 -66.5t-218.5 -22.5q-154 0 -271.5 39.5t-197.5 110t-121 167.5t-41 212q0 131 47 232.5t126 171t183.5 105.5t218.5 36v-252
q-44 0 -89.5 -16t-82 -49t-59.5 -83.5t-23 -119.5q0 -68 24 -119.5t66 -86t100 -52t126 -17.5q52 0 98 10t88 29q-43 98 -43 211q0 131 47.5 232.5t124.5 171t174.5 105.5t198.5 36q56 0 100.5 -4.5t76.5 -9.5q37 -6 65 -14v-268z" />
    <glyph glyph-name="uni13CB" unicode="&#x13cb;" horiz-adv-x="1305" 
d="M1007 1382v-258q-137 93 -280 93q-54 0 -94 -11t-67 -29.5t-40.5 -43t-13.5 -51.5q0 -74 69.5 -115t210.5 -41h19v-242h-29q-73 0 -131 -18t-98.5 -49t-62 -73t-21.5 -90q0 -47 16 -89.5t49.5 -75.5t85.5 -52.5t125 -19.5q101 0 157.5 30t56.5 77q0 10 -3 24t-12 26
t-26.5 20.5t-47.5 8.5v229q88 0 157 -19.5t116.5 -58t72.5 -96.5t25 -135q0 -94 -44.5 -160t-117.5 -108t-167 -61t-192 -19q-125 0 -230.5 31t-181.5 91.5t-118.5 149t-42.5 203.5q0 70 25 133t69 112t104 80.5t130 39.5v5q-66 17 -118.5 43t-89.5 63.5t-57 88t-20 117.5
q0 81 38.5 142t103 102t148.5 61.5t175 20.5q201 0 352 -76z" />
    <glyph glyph-name="uni13CC" unicode="&#x13cc;" horiz-adv-x="1481" 
d="M1333 621q0 -646 -602 -646q-584 0 -584 631v828h324v-513h539v513h323v-813zM743 254q134 0 200.5 85t66.5 254v50h-539v-50q0 -175 67.5 -257t204.5 -82z" />
    <glyph glyph-name="uni13CD" unicode="&#x13cd;" horiz-adv-x="2305" 
d="M50 425q0 112 37.5 196t97 140t134 83.5t148.5 27.5q64 0 128.5 -20.5t120 -61.5t97.5 -103t60 -145h144v131h-100v200h523v-200h-100v-153q0 -45 6.5 -92.5t31 -86t72 -63t128.5 -24.5q61 0 117.5 28t100 84.5t69.5 142.5t26 203q0 80 -19.5 146t-53.5 118t-79.5 90.5
t-98 63.5t-108.5 37.5t-111 12.5q-97 0 -172.5 -20.5t-128.5 -45.5q-62 -29 -109 -65l-199 218q63 53 154 95q39 18 87 35t106.5 30.5t127 22t146.5 8.5q170 0 316 -53t253 -150t168 -234t61 -306q0 -132 -26.5 -238t-72.5 -188t-108.5 -141.5t-135 -98t-152 -56.5
t-158.5 -18q-124 0 -215.5 27.5t-156 75t-104.5 111t-61 135.5h-163q-15 -89 -54.5 -154.5t-95 -108.5t-123 -64.5t-138.5 -21.5q-80 0 -155 27.5t-133.5 83.5t-93.5 140.5t-35 198.5zM328 425q0 -50 10.5 -94t29 -77t44.5 -52.5t57 -19.5q30 0 55.5 19.5t44 52.5t29 77
t10.5 94q0 51 -10 95t-28.5 76t-44.5 50.5t-58 18.5t-57.5 -18.5t-43.5 -50.5t-28 -76t-10 -95z" />
    <glyph glyph-name="uni13CE" unicode="&#x13ce;" horiz-adv-x="1178" 
d="M1124 305h-172v-305h-288v305h-625v201l602 928h311v-904h172v-225zM664 1098l-363 -568h363v568z" />
    <glyph glyph-name="uni13CF" unicode="&#x13cf;" horiz-adv-x="1276" 
d="M164 0v1434h323v-537h211q519 0 519 -422q0 -225 -140 -350t-395 -125h-518zM487 653v-407h146q244 0 244 207q0 200 -238 200h-152z" />
    <glyph glyph-name="uni13D0" unicode="&#x13d0;" horiz-adv-x="1206" 
d="M825 698q-15 0 -30 -4t-31 -11v-433h120v-250h-563v250h120v282q-23 -5 -48.5 -7.5t-51.5 -2.5q-63 0 -119 16t-99 52.5t-68 95.5t-25 146q0 26 4.5 56t9.5 56q6 30 15 58h246q-14 -20 -25 -41q-10 -18 -17.5 -41.5t-7.5 -47.5q0 -56 31 -86t95 -30q29 0 60 11v417h-120
v250h563v-250h-120v-264q23 5 48 8.5t53 3.5q63 0 119 -17.5t99 -55t68 -96.5t25 -141q0 -27 -5 -56.5t-10 -55.5q-6 -30 -14 -58h-246q14 20 25 41q9 18 17 41t8 48q0 56 -31 86t-95 30z" />
    <glyph glyph-name="uni13D1" unicode="&#x13d1;" horiz-adv-x="1561" 
d="M1310 1056q-9 20 -27.5 36.5t-51.5 16.5q-41 0 -75.5 -20.5t-70.5 -52t-77.5 -68t-96 -69t-127 -55t-170.5 -25.5q-38 -46 -76.5 -89t-70 -87.5t-51 -92.5t-19.5 -102q0 -33 10 -67t35.5 -62.5t67.5 -46.5t107 -18q44 0 82 9t66 27t44 45.5t16 63.5q0 48 -37.5 73.5
t-91.5 25.5v259q92 0 174 -24.5t143.5 -71t97.5 -113t36 -150.5q0 -99 -34.5 -177t-101.5 -133t-166 -84t-229 -29q-149 0 -252.5 42.5t-168 109.5t-93 148t-28.5 158q0 74 21 137.5t55 118.5t77 102t87 89q-39 20 -72.5 47t-57.5 62.5t-38 78.5t-14 96q0 65 24 119t66.5 93
t101 61t127.5 22q72 0 125.5 -14.5t91.5 -38.5t62 -56t38 -66t19 -68.5t5 -64.5q0 -17 -2 -33t-6 -32q38 21 71 48t64 55t63 55.5t69 48.5t80.5 34t98.5 13q61 0 108 -14.5t81.5 -38.5t58.5 -54.5t40 -61.5q37 -74 43 -168h-238q-2 29 -13 53zM365 1166q0 -48 34.5 -75.5
t87.5 -39.5q20 25 31.5 48.5t11.5 48.5q0 43 -22 70t-64 27q-21 0 -36 -8t-24.5 -20t-14 -25.5t-4.5 -25.5z" />
    <glyph glyph-name="uni13D2" unicode="&#x13d2;" horiz-adv-x="1337" 
d="M487 1192v-1192h-323v1434h512q522 0 522 -390q0 -69 -19.5 -129t-56 -108.5t-88.5 -86t-116 -61.5l449 -659h-371l-369 605v188q48 0 90.5 15t73.5 42.5t49 66.5t18 87q0 188 -225 188h-146z" />
    <glyph glyph-name="uni13D3" unicode="&#x13d3;" horiz-adv-x="1328" 
d="M1278 509q0 -128 -42.5 -227t-118 -167.5t-179.5 -104t-228 -35.5t-227 35.5t-177 104t-115 167.5t-41 227v925h324v-922q0 -258 236 -258q240 0 240 254z" />
    <glyph glyph-name="uni13D4" unicode="&#x13d4;" horiz-adv-x="1966" 
d="M1958 1434l-524 -1434h-366l-87 239l-87 -239h-366l-518 1434h328l383 -1111l112 328l-283 783h328l111 -324l111 324h318l-278 -761l121 -350l379 1111h318z" />
    <glyph glyph-name="uni13D5" unicode="&#x13d5;" horiz-adv-x="1259" 
d="M1249 1275v-250h-513q-1 7 -6.5 35.5t-22.5 60.5t-49 57.5t-85 25.5q-37 0 -63.5 -12.5t-44 -32t-25.5 -43.5t-8 -47q0 -40 19 -70.5t54 -57t85.5 -50.5t112.5 -51q24 -11 47 -21.5t45 -21.5h454v-250h-197q24 -63 24 -144q0 -120 -45.5 -201.5t-123.5 -132t-181.5 -72.5
t-218.5 -22q-118 0 -224.5 20t-184.5 60v320q88 -73 189 -109.5t206 -36.5q61 0 106.5 11t76 30.5t45.5 46t15 57.5q0 42 -24 75t-65.5 61.5t-98.5 54t-123 52.5q-169 70 -251 170.5t-82 244.5q0 107 39 187t104.5 133t151 79.5t178.5 26.5q78 0 139.5 -15t108.5 -40.5
t81.5 -58.5t58.5 -69h296z" />
    <glyph glyph-name="uni13D6" unicode="&#x13d6;" horiz-adv-x="1762" 
d="M1122 1042q124 0 228 -35.5t179.5 -104t118 -167.5t42.5 -226q0 -128 -42.5 -227t-118 -167.5t-179.5 -104t-228 -35.5t-227 35.5t-177 104t-115 167.5t-41 227v658h-531v267h855v-922q0 -258 236 -258q240 0 240 254q0 255 -240 255v279z" />
    <glyph glyph-name="uni13D7" unicode="&#x13d7;" horiz-adv-x="1419" 
d="M932 1434h323v-1434h-323v260q-4 -16 -18.5 -43t-39.5 -58.5t-61 -64t-82.5 -59t-103 -43.5t-123.5 -17q-223 0 -338.5 111.5t-115.5 326.5h321q0 -47 13.5 -79t36.5 -52t55 -28.5t70 -8.5q70 0 126.5 38.5t99 103.5t73 151t50 182t28.5 196t9 192v326z" />
    <glyph glyph-name="uni13D8" unicode="&#x13d8;" horiz-adv-x="1419" 
d="M932 1167h-531v267h854v-1434h-323v260q-4 -16 -18.5 -43t-39.5 -58.5t-61 -64t-82.5 -59t-103 -43.5t-123.5 -17q-223 0 -338.5 111.5t-115.5 326.5h321q0 -47 13.5 -79t36.5 -52t55 -28.5t70 -8.5q70 0 126.5 38.5t99 103.5t73 151t50 182t28.5 196t9 192v59z" />
    <glyph glyph-name="uni13D9" unicode="&#x13d9;" horiz-adv-x="1366" 
d="M1358 1434l-494 -1434h-366l-488 1434h348l299 -998q24 -81 29 -143h6q7 67 31 147l297 994h338z" />
    <glyph glyph-name="uni13DA" unicode="&#x13da;" horiz-adv-x="1148" 
d="M98 55v320q87 -73 189 -109.5t206 -36.5q61 0 106.5 11t76 30.5t45.5 46t15 57.5q0 42 -24 75t-65.5 61t-98.5 54t-123 53q-168 70 -250.5 171t-82.5 244q0 112 45 192.5t122.5 132.5t179.5 76.5t216 24.5q112 0 198.5 -13.5t159.5 -41.5v-299q-36 25 -78.5 44
t-87.5 31.5t-89.5 18.5t-84.5 6q-55 0 -100 -10.5t-76 -29.5t-48 -45.5t-17 -59.5q0 -36 19 -64.5t54 -54t85 -50t113 -50.5q86 -36 154.5 -76.5t117.5 -91.5t75 -116.5t26 -152.5q0 -120 -45.5 -201.5t-123.5 -132t-181.5 -72.5t-218.5 -22q-118 0 -224.5 20t-184.5 60z
" />
    <glyph glyph-name="uni13DB" unicode="&#x13db;" horiz-adv-x="1939" 
d="M1089 1429q47 12 98 20t98 8q169 0 285 -45t186.5 -119t101.5 -168.5t31 -192.5q0 -55 -9.5 -104.5t-25.5 -92t-35.5 -79t-40.5 -66.5q-49 -70 -111 -121l-213 221q31 28 57 63q22 30 40 72.5t18 96.5q0 45 -12.5 91t-45 82.5t-87.5 59.5t-139 23q-52 0 -104 -16.5
t-94 -46.5q-48 32 -94 47.5t-103 15.5q-17 0 -32.5 -1.5t-30.5 -3.5q106 -121 167 -289.5t61 -381.5q0 -112 -30 -208.5t-91 -167.5t-153 -111.5t-216 -40.5t-216.5 40.5t-153.5 111.5t-91 167.5t-30 208.5q0 151 29.5 280t83.5 235.5t129 188.5t165.5 137.5t194 84.5
t213.5 29q31 0 56.5 -2t49 -5.5t46 -9t48.5 -11.5zM410 492q0 -52 10 -96t29.5 -76t48 -50t66.5 -18t67 18t48.5 50t29.5 76t10 96q0 158 -43.5 291t-121.5 227q-72 -94 -108 -227t-36 -291z" />
    <glyph glyph-name="uni13DC" unicode="&#x13dc;" horiz-adv-x="1791" 
d="M514 1126q0 92 35 155.5t89.5 102.5t122.5 56.5t134 17.5t134 -17.5t123 -56.5t90 -102.5t35 -155.5q0 -77 -31 -135t-84 -103q66 -24 135 -51t133.5 -60t121 -73.5t98.5 -91.5t66.5 -113.5t24.5 -140.5q0 -88 -25.5 -158.5t-75.5 -120.5t-124 -77t-171 -27
q-80 0 -149 25t-120 73.5t-80 119t-29 162.5q0 56 10 103t27.5 86t41 70t50.5 55q-50 19 -100.5 37t-100.5 38q-50 -20 -100.5 -38t-99.5 -37q27 -24 50.5 -55t41 -70t27.5 -86t10 -103q0 -92 -29 -162.5t-80 -119t-120 -73.5t-149 -25q-97 0 -171 27t-124 77t-75.5 120.5
t-25.5 158.5q0 78 24.5 140.5t66.5 113.5t98.5 91.5t121 73.5t133 60t135.5 51q-53 45 -84 103t-31 135zM1230 357q0 -30 8.5 -58.5t23.5 -51t37 -36t49 -13.5q45 0 77.5 40.5t32.5 114.5q0 68 -35.5 118t-94.5 89q-41 -35 -69.5 -84.5t-28.5 -118.5zM333 353
q0 -74 32.5 -114.5t77.5 -40.5q27 0 49 13.5t37 36t23.5 51t8.5 58.5q0 69 -28.5 118.5t-70.5 84.5q-59 -39 -94 -89t-35 -118zM999 1126q0 44 -26 75t-77 31q-52 0 -78 -31t-26 -75q0 -40 27.5 -71t75.5 -58q48 27 76 58t28 71z" />
    <glyph glyph-name="uni13DD" unicode="&#x13dd;" horiz-adv-x="1253" 
d="M1163 0h-1016v925q0 130 36 229.5t102 167t160.5 102t211.5 34.5q122 0 216 -35.5t158.5 -104t98 -167.5t33.5 -226h-328q0 128 -47 191.5t-131 63.5t-135 -64.5t-51 -193.5v-660h692v-262z" />
    <glyph glyph-name="uni13DE" unicode="&#x13de;" horiz-adv-x="1047" 
d="M1018 0h-854v1434h323v-1172h531v-262z" />
    <glyph glyph-name="uni13DF" unicode="&#x13df;" horiz-adv-x="1278" 
d="M1192 51q-157 -76 -410 -76q-330 0 -519 194t-189 517q0 344 212.5 558t551.5 214q210 0 354 -53v-311q-144 86 -328 86q-202 0 -326 -127t-124 -344q0 -208 117 -331.5t315 -123.5q189 0 346 92v-295z" />
    <glyph glyph-name="uni13E0" unicode="&#x13e0;" horiz-adv-x="1824" 
d="M1256 766v668h324v-668h234v-258h-234q0 -128 -36.5 -227t-104.5 -167t-166.5 -103.5t-222.5 -35.5t-222.5 35.5t-167.5 103.5t-106 167t-37 227h-112q-84 0 -156.5 20t-125.5 62t-83 106t-30 152q0 93 31 159.5t85 109t125.5 62t152.5 19.5q104 0 185 -28.5t137 -83.5
t85 -135.5t29 -184.5h416zM840 508q0 -122 48 -188t162 -66q110 0 158 62t48 192h-416zM404 957q-42 0 -71.5 -22t-29.5 -72q0 -21 8.5 -39t23 -30.5t34 -20t40.5 -7.5h108q0 54 -7.5 90.5t-22 59t-35.5 32t-48 9.5z" />
    <glyph glyph-name="uni13E1" unicode="&#x13e1;" horiz-adv-x="2026" 
d="M20 696v250h95q0 94 37 185.5t110.5 164t182.5 117t252 44.5q96 0 187 -21t176 -62q85 41 176 62t188 21q143 0 252 -44.5t182.5 -117t110.5 -164t37 -185.5h-318q0 52 -20.5 94.5t-56.5 73t-86 47.5t-109 17q-47 0 -90 -9q104 -122 164.5 -289t60.5 -378
q0 -112 -30 -208.5t-91 -167.5t-153 -111.5t-216 -40.5t-216 40.5t-153 111.5t-91.5 167.5t-30.5 208.5q0 211 60.5 378t164.5 289q-44 9 -90 9q-59 0 -109 -17t-86 -47.5t-56.5 -73t-20.5 -94.5h100v-250h-513zM906 492q0 -52 10 -96t29.5 -76t48.5 -50t67 -18q37 0 66 18
t48.5 50t29.5 76t10 96q0 153 -40.5 282.5t-114.5 223.5q-74 -94 -114 -223.5t-40 -282.5z" />
    <glyph glyph-name="uni13E2" unicode="&#x13e2;" horiz-adv-x="1258" 
d="M487 494v-494h-323v1434h506q542 0 542 -457q0 -216 -155.5 -349.5t-415.5 -133.5h-154zM487 1186v-447h127q258 0 258 226q0 221 -258 221h-127z" />
    <glyph glyph-name="uni13E3" unicode="&#x13e3;" horiz-adv-x="1529" 
d="M1013 1041q-35 68 -98 103.5t-150 35.5t-152.5 -31.5t-110 -90t-66.5 -142t-22 -187.5q0 -101 32.5 -187.5t96.5 -150.5t160 -100.5t223 -36.5q47 0 106.5 7.5t119.5 21t115.5 32t94.5 41.5v-295q-39 -19 -98.5 -35t-127.5 -27t-139.5 -17.5t-134.5 -6.5
q-185 0 -331 53.5t-247.5 150t-155.5 231t-54 296.5q0 170 49 309t139 237.5t217.5 152.5t285.5 54q103 0 198 -27t173 -79.5t134 -130.5t83 -181h166v-240h-683v240h177z" />
    <glyph glyph-name="uni13E4" unicode="&#x13e4;" horiz-adv-x="1824" 
d="M30 1434h854v-940l582 940h358l-940 -1434h-323v1167h-531v267z" />
    <glyph glyph-name="uni13E5" unicode="&#x13e5;" horiz-adv-x="1597" 
d="M905 1012q118 40 222 40q85 0 150 -18.5t113.5 -49.5t82 -70t55.5 -80q51 -96 59 -217h-288q-3 45 -19 80q-7 15 -17 29.5t-24 26t-32.5 18.5t-42.5 7v-778h-323v686l-354 -122v-564h-323v1434h323v-566z" />
    <glyph glyph-name="uni13E6" unicode="&#x13e6;" horiz-adv-x="1329" 
d="M1356 0h-408l-418 623q-12 18 -38 79h-5v-702h-323v1434h323v-678h5q12 28 40 80l396 598h385l-500 -684z" />
    <glyph glyph-name="uni13E7" unicode="&#x13e7;" horiz-adv-x="1226" 
d="M568 -25q-108 0 -199 35t-157 98.5t-103 152.5t-37 196t37 196t103 152.5t157 98.5t199 35q50 0 96.5 -8t90.5 -22v525h324v-977q0 -107 -39.5 -196t-108.5 -152.5t-162 -98.5t-201 -35zM567 217q49 0 84.5 20.5t58.5 54t34 77t11 88.5t-11 88.5t-33.5 77t-58 54
t-83.5 20.5q-49 0 -84.5 -20.5t-58.5 -54t-34 -77t-11 -88.5t11 -88t33.5 -77t57.5 -54.5t84 -20.5z" />
    <glyph glyph-name="uni13E8" unicode="&#x13e8;" horiz-adv-x="1971" 
d="M1030 1060q-27 40 -62 66.5t-80 40t-104 13.5q-96 0 -165.5 -38.5t-115 -102.5t-67.5 -147.5t-22 -172.5q0 -91 22 -175t67.5 -148.5t115 -103.5t165.5 -39q59 0 104 13.5t80 40t62 66.5t49 93h374l69 -178l70 178h233l146 -292h-197l-65 171l-64 -171h-240l-49 131
q-43 -73 -99 -134t-125.5 -104.5t-154 -67.5t-184.5 -24q-167 0 -300 54.5t-226 152.5t-143 234t-50 299q0 164 50 300.5t143 235t226 153t300 54.5q100 0 184.5 -24t154 -67.5t125.5 -104.5t99 -134l49 131h240l64 -171l65 171h197l-146 -292h-233l-70 178l-69 -178h-374
q-22 53 -49 93z" />
    <glyph glyph-name="uni13E9" unicode="&#x13e9;" horiz-adv-x="1745" 
d="M1455 681v-250h-114v-152q67 -33 184 -33q38 0 74 6.5t64 14.5q33 9 62 21v-291q-27 -7 -58 -11q-26 -5 -59 -8t-68 -3q-200 0 -361 50q-161 -50 -360 -50q-170 0 -307.5 48t-235 140.5t-150 226t-52.5 304.5q0 174 59.5 315.5t166 241t252.5 153.5t320 54q228 0 402 -63
v-303q-167 96 -406 96q-104 0 -188 -36t-143 -99.5t-91 -151.5t-32 -192q0 -103 27 -188t79.5 -146t131 -95t182.5 -34q116 0 184 33v152h-126v250h563z" />
    <glyph glyph-name="uni13EA" unicode="&#x13ea;" horiz-adv-x="2438" 
d="M338 486q0 -52 20.5 -94.5t56.5 -73t86 -47.5t109 -17q73 0 133 16q-61 60 -110.5 132t-84.5 155t-54 176t-19 197q0 112 30 208.5t91 167.5t153 111.5t216 40.5t216.5 -40.5t153.5 -111.5t91 -167.5t30 -208.5q0 -200 -58 -360.5t-156 -280.5q105 -35 229 -35
q114 0 201.5 23t153.5 62t112 91.5t76 111.5q-38 11 -84.5 30t-94.5 47.5t-94 68.5t-82 94t-57.5 122.5t-21.5 153.5q0 91 24.5 165t71 126.5t113 80.5t149.5 28q102 0 181 -44t133.5 -126t83 -199.5t28.5 -264.5q0 -90 -18.5 -188t-60 -192.5t-109 -179.5t-166 -149
t-230 -102t-301.5 -38q-123 0 -243 28t-231 82q-94 -54 -196.5 -82t-206.5 -28q-143 0 -252 44.5t-182.5 117t-110.5 164t-37 185.5h318zM1120 940q0 52 -10 96t-29.5 76t-48.5 50t-67 18t-66.5 -18t-48 -50t-29.5 -76t-10 -96q0 -148 46.5 -273.5t134.5 -219.5
q65 94 96.5 219.5t31.5 273.5zM2081 844q0 97 -13 167.5t-33.5 115.5t-47 66.5t-53.5 21.5q-24 0 -41 -13.5t-28.5 -35t-16.5 -48t-5 -52.5q0 -68 21.5 -118t55.5 -85t75.5 -57.5t81.5 -35.5q2 19 3 37.5t1 36.5z" />
    <glyph glyph-name="uni13EB" unicode="&#x13eb;" horiz-adv-x="1553" 
d="M770 -25q-158 0 -286 54.5t-219.5 151t-141 229t-49.5 288.5q0 164 50 303.5t143 241t226 158.5t300 57q159 0 286 -55.5t216 -153.5t136.5 -231.5t47.5 -290.5q0 -162 -49.5 -299.5t-141.5 -238t-223.5 -157.5t-294.5 -57zM784 1180q-94 0 -162.5 -36.5t-113.5 -98.5h31
q118 0 196 -69.5t131 -205.5q20 -51 38 -83t39.5 -50t50 -24.5t69.5 -6.5h69q3 25 5 51t2 52q0 93 -19 178t-61.5 150t-110 104t-164.5 39zM414 715q0 -90 21.5 -173.5t66 -147t112.5 -102t162 -38.5q88 0 151.5 30t108.5 84h-39q-62 0 -111.5 20.5t-90 58.5t-72.5 92
t-58 122q-20 51 -37 80t-38 44t-48 18.5t-67 3.5h-55q-6 -45 -6 -92z" />
    <glyph glyph-name="uni13EC" unicode="&#x13ec;" horiz-adv-x="1857" 
d="M858 1058q0 -84 -21.5 -152t-56.5 -121.5t-80 -93.5t-92.5 -69t-94 -48.5t-84.5 -30.5q31 -59 76 -111.5t106.5 -92t139.5 -62.5t176 -23q110 0 205 35.5t165 107t110 179.5t40 254q0 34 -4.5 73.5t-16 78.5t-31.5 75t-50.5 63t-73.5 43.5t-100 16.5q-49 0 -85.5 -5.5
t-62.5 -11.5q-30 -8 -52 -17v290q28 6 62 11q29 4 69 7.5t89 3.5q111 0 197.5 -26.5t152.5 -72.5t112 -108t75 -133t42 -147t13 -151q0 -142 -34 -259.5t-94 -211.5t-142 -164t-178 -116.5t-202 -70t-214 -23.5q-155 0 -278 38t-217 102t-160.5 149t-108.5 179.5
t-61.5 192.5t-19.5 188q0 147 28.5 264.5t83 199.5t133.5 126t181 44q83 0 149.5 -28t113 -80.5t71 -126.5t24.5 -165zM357 844q0 -18 1 -36.5t3 -37.5q40 13 81.5 35.5t75.5 57.5t55.5 85t21.5 118q0 26 -5 52.5t-16.5 48t-28.5 35t-41 13.5q-27 0 -53.5 -21.5t-47 -66.5
t-33.5 -115.5t-13 -167.5z" />
    <glyph glyph-name="uni13ED" unicode="&#x13ed;" horiz-adv-x="1530" 
d="M338 486q0 -52 20.5 -94.5t56.5 -73t86 -47.5t109 -17q46 0 90 9q-104 121 -164.5 288.5t-60.5 378.5q0 112 30 208.5t91 167.5t153 111.5t216 40.5t216.5 -40.5t153.5 -111.5t91 -167.5t30 -208.5q0 -147 -32.5 -275t-90.5 -234t-136.5 -189t-171.5 -140t-195.5 -87
t-207.5 -30q-143 0 -255 44.5t-189 117t-117.5 164t-40.5 185.5h318zM1120 940q0 52 -10 96t-29.5 76t-48.5 50t-67 18t-66.5 -18t-48 -50t-29.5 -76t-10 -96q0 -154 40 -283.5t114 -223.5q74 94 114.5 223.5t40.5 283.5z" />
    <glyph glyph-name="uni13EE" unicode="&#x13ee;" horiz-adv-x="1178" 
d="M1008 1419v-264q-109 62 -238 62q-159 0 -256.5 -121.5t-101.5 -325.5h6q103 152 301 152q180 0 285.5 -122t105.5 -323q0 -216 -140 -359t-356 -143q-242 0 -378 175t-136 491q0 372 175 594.5t475 222.5q166 0 258 -39zM612 688q-87 0 -138.5 -61t-51.5 -156
q0 -105 52.5 -179.5t139.5 -74.5q85 0 136 66.5t51 173.5q0 231 -189 231z" />
    <glyph glyph-name="uni13EF" unicode="&#x13ef;" horiz-adv-x="2199" 
d="M495 742q-32 -29 -58 -66q-22 -32 -39.5 -75t-17.5 -96q0 -45 12.5 -91.5t45 -83.5t87.5 -60.5t139 -23.5q77 0 133 16t91 33v283q-24 17 -48 32.5t-38 15.5q-16 0 -40 -15t-47 -33q-27 -21 -57 -48l-84 200q44 37 86 67q36 26 74.5 47t67.5 21q17 0 42 -14.5t50.5 -31.5
t48 -31.5t35.5 -14.5q15 0 38 14.5t48 31.5t49 31.5t41 14.5q16 0 40.5 -15t49.5 -33t48 -33t38 -15t39.5 15t47.5 33q27 21 57 48l84 -200q-44 -38 -85 -68q-18 -13 -37 -25t-38 -21.5t-36.5 -15t-31.5 -5.5q-11 0 -26.5 6.5t-32 16t-32.5 21t-28 20.5v-315q67 -33 184 -33
q97 0 170 34t122 95t73.5 146t24.5 188q0 104 -32 192t-91 151.5t-143 99.5t-188 36q-97 0 -172 -22t-127 -48q-61 -31 -107 -69l-199 218q56 53 141 95q36 18 83 35t104 30.5t125 22t148 8.5q174 0 320 -54t252.5 -153.5t166 -241t59.5 -315.5q0 -171 -50.5 -304.5
t-144 -226t-225.5 -140.5t-295 -48q-99 0 -186.5 23.5t-165.5 58.5q-45 -22 -95.5 -37.5t-101.5 -25.5t-101 -14.5t-96 -4.5q-113 0 -201.5 21.5t-156 59t-114 88.5t-76 110.5t-43 125t-13.5 130.5q0 55 9.5 104t25 91t35.5 77.5t41 64.5q48 67 111 116z" />
    <glyph glyph-name="uni13F0" unicode="&#x13f0;" horiz-adv-x="1500" 
d="M318 -279v353q-72 29 -128.5 58.5t-96.5 54.5q-47 29 -83 56l130 232q22 -15 49 -32q23 -15 56 -34t73 -40v578q0 90 22.5 163t62 130t92 98t112.5 67.5t124 39.5t126 13q91 0 178 -20.5t155 -64t109 -110.5t41 -161q0 -282 -285 -352v-5q70 -8 130 -34.5t104 -70
t69 -102t25 -128.5q0 -115 -48 -197.5t-128 -135t-183 -77.5t-214 -25q-45 0 -86.5 3.5t-82.5 8.5v-266h-323zM738 856q280 0 280 186q0 44 -13.5 77t-35 54.5t-49.5 32.5t-57 11q-38 0 -77.5 -19t-71.5 -54.5t-52.5 -87t-20.5 -117.5v-700q42 -11 83 -16.5t81 -5.5
q121 0 188.5 51.5t67.5 145.5q0 48 -21.5 85t-62 62.5t-98.5 39t-131 13.5h-21v242h11z" />
    <glyph glyph-name="uni13F1" unicode="&#x13f1;" horiz-adv-x="1599" 
d="M756 309q0 81 29.5 142t78 102.5t111 62t128.5 20.5q44 0 99 -11v29q0 32 -9 62t-32 53t-62.5 37t-100.5 14q-26 0 -60 -8.5t-67.5 -28.5t-63 -53.5t-47.5 -82.5l-234 -647h-351l-175 446h269l60 -179l165 468q24 69 59.5 123.5t79.5 96t94.5 70.5t104.5 46v113h-120v250
h563v-250h-120v-107q100 -18 170.5 -60.5t115 -100t64.5 -126t20 -137.5v-294q0 -82 -28.5 -151.5t-79 -120.5t-120.5 -79.5t-154 -28.5q-81 0 -151.5 21.5t-123 63t-82.5 103t-30 142.5zM1103 176q51 0 75 38t24 95q0 27 -6 50.5t-18.5 41t-31 28t-43.5 10.5
q-26 0 -44.5 -10.5t-30.5 -28t-18 -41t-6 -50.5q0 -57 23.5 -95t75.5 -38z" />
    <glyph glyph-name="uni13F2" unicode="&#x13f2;" horiz-adv-x="1479" 
d="M164 924q0 261 181 406q161 129 406 129t406 -129q182 -146 182 -405h-328q0 115 -62 182q-68 73 -198 73q-264 0 -264 -258v-234q203 111 408 111q444 0 444 -428v-371h-321v342q0 187 -205 187q-161 0 -326 -99v-430h-323v924z" />
    <glyph glyph-name="uni13F3" unicode="&#x13f3;" horiz-adv-x="1931" 
d="M1475 681v-250h-114v-335q-53 -30 -119 -53t-139.5 -38t-152.5 -22.5t-157 -7.5q-167 0 -300 54.5t-226 152.5t-143 234t-50 299q0 164 46.5 300.5t136 235t219.5 153t297 54.5q100 0 182 -23t148.5 -66t119 -104t93.5 -137l49 131h240l64 -171l65 171h197l-146 -292
h-233l-70 178l-69 -178h-374q-16 50 -39 89.5t-56 67t-77 42t-103 14.5q-96 0 -162.5 -38.5t-108 -102.5t-60.5 -147.5t-19 -172.5q0 -91 24.5 -175t72.5 -148.5t120 -103.5t168 -39q56 0 100 5t75 12q36 7 64 17v144h-126v250h563z" />
    <glyph glyph-name="uni13F4" unicode="&#x13f4;" horiz-adv-x="1313" 
d="M164 0v1434h522q240 0 369 -88t129 -248q0 -116 -78.5 -203t-200.5 -121v-4q153 -19 244.5 -113t91.5 -229q0 -197 -141 -312.5t-385 -115.5h-551zM487 1196v-340h142q100 0 157.5 48.5t57.5 133.5q0 158 -236 158h-121zM487 616v-378h175q112 0 175.5 52t63.5 142
q0 86 -62.5 135t-174.5 49h-177z" />
    <glyph glyph-name="uni13F5" unicode="&#x13f5;" horiz-adv-x="1330" 
d="M737 0q-183 0 -309.5 42.5t-205 116.5t-113.5 175.5t-35 219.5q0 136 39.5 246.5t104.5 199.5t148 157.5t170 119.5q203 119 462 181v-278q-36 -9 -93 -29.5t-122 -54.5t-130.5 -83t-118.5 -115.5t-86.5 -151.5t-33.5 -192q0 -84 31.5 -142t79 -94t104.5 -52t108 -16h110
v147h-120v250h563v-250h-120v-397h-433z" />
    <glyph glyph-name="uni13F8" unicode="&#x13f8;" horiz-adv-x="1342" 
d="M219 -188q8 11 14 28q5 14 10 37t5 55v134q-54 23 -95.5 45.5t-70.5 41.5q-33 22 -57 42l147 214q4 -5 9 -10l10 -10q10 -9 23.5 -20.5t33.5 -25.5v217q0 106 32 195.5t95 154.5t156 102t215 37q106 0 193.5 -19t150 -56t97 -91.5t34.5 -126.5q0 -162 -178 -213v-4
q49 -11 89 -32t68.5 -51t44 -69t15.5 -86q0 -97 -48.5 -160t-127.5 -100t-179 -51.5t-203 -14.5q-37 0 -71.5 2t-67.5 6v-75q0 -49 -8 -87t-18 -64q-11 -31 -26 -54zM698 205q114 0 181.5 25t67.5 75q0 30 -16.5 50.5t-45 32.5t-67.5 17t-85 5h-54v217h52q81 0 129 23t48 69
q0 25 -12.5 44t-33 31.5t-47.5 18.5t-55 6q-44 0 -80 -14t-62 -38.5t-40.5 -59.5t-14.5 -77v-414q32 -5 66 -8t69 -3z" />
    <glyph glyph-name="uni13F9" unicode="&#x13f9;" horiz-adv-x="1401" 
d="M971 -24q-83 0 -140.5 23t-94 60t-53 84.5t-16.5 97.5h194q0 -14 5.5 -28.5t16.5 -26.5t26 -20t35 -8q18 0 35.5 4t31.5 16.5t22.5 36t8.5 62.5q0 33 -16.5 60t-42.5 50.5t-57 44t-60.5 41t-53 41.5t-33.5 45q-13 -48 -28.5 -74.5t-28.5 -45.5l-299 -439h-242
q-12 73 -39 141t-54 120q-32 61 -68 114l220 60q15 -24 30 -50q13 -23 26.5 -52t24.5 -60l225 322q13 19 27.5 42t27 48.5t20.5 52t8 53.5v30h-172v203h658v-203h-171v-50q0 -35 28.5 -63t71.5 -56t92.5 -60t92.5 -75t71.5 -101t28.5 -137q0 -59 -16.5 -104.5t-44 -79
t-63.5 -56.5t-76 -37t-80.5 -20t-77.5 -6z" />
    <glyph glyph-name="uni13FA" unicode="&#x13fa;" horiz-adv-x="1205" 
d="M133 551q0 126 38.5 219.5t109.5 155.5t171 92.5t224 30.5q51 0 92.5 -3t71.5 -6q35 -4 63 -8v-252q-26 7 -59 13q-29 5 -69 9.5t-89 4.5q-119 0 -178 -62t-59 -178q40 22 79.5 35t78.5 19t77 7.5t76 1.5q87 0 152 -17.5t108.5 -56.5t65.5 -101t22 -150v-305h-303v255
q0 158 -141 158q-100 0 -215 -61v-352h-316v551z" />
    <glyph glyph-name="uni13FB" unicode="&#x13fb;" horiz-adv-x="1567" 
d="M1001 1024h240l64 -171l65 171h197l-146 -292h-233l-70 178l-69 -178h-227q-20 21 -44 37q-22 14 -54 26t-74 12q-62 0 -110 -21t-82 -60t-51.5 -95.5t-17.5 -126.5q0 -141 67.5 -214t188.5 -73q48 0 78 6v162h-184v233h500v-583q-53 -17 -117 -30q-55 -11 -129.5 -20.5
t-161.5 -9.5q-267 0 -413 137t-146 382q0 132 43.5 235t117.5 174t172 108.5t206 37.5q87 0 151.5 -20t109.5 -44q54 -29 90 -64z" />
    <glyph glyph-name="uni13FC" unicode="&#x13fc;" horiz-adv-x="1187" 
d="M133 0v1024h572q366 0 366 -250q0 -89 -57.5 -150.5t-149.5 -80.5q113 -14 177.5 -78.5t64.5 -157.5q0 -139 -99 -223t-272 -84h-602zM449 831v-215h155q144 0 144 113q0 102 -136 102h-163zM449 430v-233h182q151 0 151 122q0 111 -155 111h-178z" />
    <glyph glyph-name="uni13FD" unicode="&#x13fd;" horiz-adv-x="1205" 
d="M638 0q-115 0 -217.5 15t-180 56t-123 113.5t-45.5 187.5q0 96 32 176t85 145.5t120 117.5t138 91q165 92 376 147v-242q-121 -36 -215 -94q-41 -25 -79.5 -57t-68.5 -71.5t-48.5 -87.5t-18.5 -104q0 -40 14.5 -67.5t37 -45.5t50 -27.5t55 -14t51 -5t37.5 -0.5h68v115
h-112v233h539v-233h-112v-348h-383z" />
    <glyph glyph-name="uni1400" unicode="&#x1400;" horiz-adv-x="1401" 
d="M1172 744h-940v132h940v-132zM1172 318h-940v132h940v-132z" />
    <glyph glyph-name="uni1401" unicode="&#x1401;" horiz-adv-x="1514" 
d="M40 1434h1434l-687 -1434h-60zM757 571l260 600h-520z" />
    <glyph glyph-name="uni1402" unicode="&#x1402;" horiz-adv-x="1514" 
d="M727 1434h60l687 -1434h-1434zM497 263h520l-260 600zM666 1746q0 -38 26.5 -64.5t64.5 -26.5t64.5 26.5t26.5 64.5t-26.5 65t-64.5 27t-64.5 -27t-26.5 -65zM545 1749q0 43 17 81t45.5 66.5t67 45t81.5 16.5t81.5 -16.5t68 -45t46.5 -66.5t17 -81t-17 -82t-46.5 -68.5
t-68 -47t-81.5 -17.5t-81.5 17.5t-67 47t-45.5 68.5t-17 82z" />
    <glyph glyph-name="uni1403" unicode="&#x1403;" horiz-adv-x="1514" 
d="M727 1434h60l687 -1434h-1434zM497 263h520l-260 600z" />
    <glyph glyph-name="uni1404" unicode="&#x1404;" horiz-adv-x="1514" 
d="M727 1434h60l687 -1434h-1434zM497 263h520l-260 600zM630 1748q0 26 10 49t27 40.5t40.5 27.5t49.5 10t49 -10t40.5 -27.5t27.5 -40.5t10 -49t-10 -49t-27.5 -40.5t-40.5 -27.5t-49 -10t-49.5 10t-40.5 27.5t-27 40.5t-10 49z" />
    <glyph glyph-name="uni1405" unicode="&#x1405;" horiz-adv-x="1574" 
d="M100 0v1434l1434 -687v-60zM963 717l-600 260v-520z" />
    <glyph glyph-name="uni1406" unicode="&#x1406;" horiz-adv-x="1574" 
d="M100 0v1434l1434 -687v-60zM963 717l-600 260v-520zM100 1748q0 26 10 49t27 40.5t40.5 27.5t49.5 10t49 -10t40.5 -27.5t27.5 -40.5t10 -49t-10 -49t-27.5 -40.5t-40.5 -27.5t-49 -10t-49.5 10t-40.5 27.5t-27 40.5t-10 49z" />
    <glyph glyph-name="uni1407" unicode="&#x1407;" horiz-adv-x="1574" 
d="M100 0v1434l1434 -687v-60zM963 717l-600 260v-520zM100 1748q0 26 10 49t27 40.5t40.5 27.5t49.5 10t49 -10t40.5 -27.5t27.5 -40.5t10 -49t-10 -49t-27.5 -40.5t-40.5 -27.5t-49 -10t-49.5 10t-40.5 27.5t-27 40.5t-10 49zM705 1748q0 26 10 49t27 40.5t40.5 27.5
t49.5 10t49 -10t40.5 -27.5t27.5 -40.5t10 -49t-10 -49t-27.5 -40.5t-40.5 -27.5t-49 -10t-49.5 10t-40.5 27.5t-27 40.5t-10 49z" />
    <glyph glyph-name="uni1408" unicode="&#x1408;" horiz-adv-x="1574" 
d="M100 0v1434l1434 -687v-60zM963 717l-600 260v-520zM582 578h-154v277h154v-277z" />
    <glyph glyph-name="uni1409" unicode="&#x1409;" horiz-adv-x="1574" 
d="M100 0v1434l1434 -687v-60zM963 717l-600 260v-520zM390 717q0 26 10 49t27 40.5t40.5 27.5t49.5 10t49 -10t40.5 -27.5t27.5 -40.5t10 -49t-10 -49t-27.5 -40.5t-40.5 -27.5t-49 -10t-49.5 10t-40.5 27.5t-27 40.5t-10 49z" />
    <glyph glyph-name="uni140A" unicode="&#x140a;" horiz-adv-x="1574" 
d="M40 687v60l1434 687v-1434zM1211 457v520l-600 -260z" />
    <glyph glyph-name="uni140B" unicode="&#x140b;" horiz-adv-x="1574" 
d="M40 687v60l1434 687v-1434zM1211 457v520l-600 -260zM1211 1748q0 26 10 49t27 40.5t40.5 27.5t49.5 10t49 -10t40.5 -27.5t27.5 -40.5t10 -49t-10 -49t-27.5 -40.5t-40.5 -27.5t-49 -10t-49.5 10t-40.5 27.5t-27 40.5t-10 49z" />
    <glyph glyph-name="uni140C" unicode="&#x140c;" horiz-adv-x="1514" 
d="M40 1434h1434l-687 -1434h-60zM757 571l260 600h-520zM10 717q0 26 10 49t27 40.5t40.5 27.5t49.5 10t49 -10t40.5 -27.5t27.5 -40.5t10 -49t-10 -49t-27.5 -40.5t-40.5 -27.5t-49 -10t-49.5 10t-40.5 27.5t-27 40.5t-10 49z" />
    <glyph glyph-name="uni140D" unicode="&#x140d;" horiz-adv-x="1514" 
d="M40 1434h1434l-687 -1434h-60zM757 571l260 600h-520zM1250 717q0 26 10 49t27 40.5t40.5 27.5t49.5 10t49 -10t40.5 -27.5t27.5 -40.5t10 -49t-10 -49t-27.5 -40.5t-40.5 -27.5t-49 -10t-49.5 10t-40.5 27.5t-27 40.5t-10 49z" />
    <glyph glyph-name="uni140E" unicode="&#x140e;" horiz-adv-x="1514" 
d="M727 1434h60l687 -1434h-1434zM497 263h520l-260 600zM10 717q0 26 10 49t27 40.5t40.5 27.5t49.5 10t49 -10t40.5 -27.5t27.5 -40.5t10 -49t-10 -49t-27.5 -40.5t-40.5 -27.5t-49 -10t-49.5 10t-40.5 27.5t-27 40.5t-10 49z" />
    <glyph glyph-name="uni140F" unicode="&#x140f;" horiz-adv-x="1514" 
d="M727 1434h60l687 -1434h-1434zM497 263h520l-260 600zM1250 717q0 26 10 49t27 40.5t40.5 27.5t49.5 10t49 -10t40.5 -27.5t27.5 -40.5t10 -49t-10 -49t-27.5 -40.5t-40.5 -27.5t-49 -10t-49.5 10t-40.5 27.5t-27 40.5t-10 49z" />
    <glyph glyph-name="uni1410" unicode="&#x1410;" horiz-adv-x="1514" 
d="M727 1434h60l687 -1434h-1434zM497 263h520l-260 600zM630 1748q0 26 10 49t27 40.5t40.5 27.5t49.5 10t49 -10t40.5 -27.5t27.5 -40.5t10 -49t-10 -49t-27.5 -40.5t-40.5 -27.5t-49 -10t-49.5 10t-40.5 27.5t-27 40.5t-10 49zM10 717q0 26 10 49t27 40.5t40.5 27.5
t49.5 10t49 -10t40.5 -27.5t27.5 -40.5t10 -49t-10 -49t-27.5 -40.5t-40.5 -27.5t-49 -10t-49.5 10t-40.5 27.5t-27 40.5t-10 49z" />
    <glyph glyph-name="uni1411" unicode="&#x1411;" horiz-adv-x="1514" 
d="M727 1434h60l687 -1434h-1434zM497 263h520l-260 600zM630 1748q0 26 10 49t27 40.5t40.5 27.5t49.5 10t49 -10t40.5 -27.5t27.5 -40.5t10 -49t-10 -49t-27.5 -40.5t-40.5 -27.5t-49 -10t-49.5 10t-40.5 27.5t-27 40.5t-10 49zM1250 717q0 26 10 49t27 40.5t40.5 27.5
t49.5 10t49 -10t40.5 -27.5t27.5 -40.5t10 -49t-10 -49t-27.5 -40.5t-40.5 -27.5t-49 -10t-49.5 10t-40.5 27.5t-27 40.5t-10 49z" />
    <glyph glyph-name="uni1412" unicode="&#x1412;" horiz-adv-x="1808" 
d="M334 0v1434l1434 -687v-60zM1197 717l-600 260v-520zM10 717q0 26 10 49t27 40.5t40.5 27.5t49.5 10t49 -10t40.5 -27.5t27.5 -40.5t10 -49t-10 -49t-27.5 -40.5t-40.5 -27.5t-49 -10t-49.5 10t-40.5 27.5t-27 40.5t-10 49z" />
    <glyph glyph-name="uni1413" unicode="&#x1413;" horiz-adv-x="1868" 
d="M100 0v1434l1434 -687v-60zM963 717l-600 260v-520zM1604 717q0 26 10 49t27 40.5t40.5 27.5t49.5 10t49 -10t40.5 -27.5t27.5 -40.5t10 -49t-10 -49t-27.5 -40.5t-40.5 -27.5t-49 -10t-49.5 10t-40.5 27.5t-27 40.5t-10 49z" />
    <glyph glyph-name="uni1414" unicode="&#x1414;" horiz-adv-x="1808" 
d="M334 0v1434l1434 -687v-60zM1197 717l-600 260v-520zM10 717q0 26 10 49t27 40.5t40.5 27.5t49.5 10t49 -10t40.5 -27.5t27.5 -40.5t10 -49t-10 -49t-27.5 -40.5t-40.5 -27.5t-49 -10t-49.5 10t-40.5 27.5t-27 40.5t-10 49zM334 1748q0 26 10 49t27 40.5t40.5 27.5
t49.5 10t49 -10t40.5 -27.5t27.5 -40.5t10 -49t-10 -49t-27.5 -40.5t-40.5 -27.5t-49 -10t-49.5 10t-40.5 27.5t-27 40.5t-10 49z" />
    <glyph glyph-name="uni1415" unicode="&#x1415;" horiz-adv-x="1868" 
d="M100 0v1434l1434 -687v-60zM963 717l-600 260v-520zM1604 717q0 26 10 49t27 40.5t40.5 27.5t49.5 10t49 -10t40.5 -27.5t27.5 -40.5t10 -49t-10 -49t-27.5 -40.5t-40.5 -27.5t-49 -10t-49.5 10t-40.5 27.5t-27 40.5t-10 49zM100 1748q0 26 10 49t27 40.5t40.5 27.5
t49.5 10t49 -10t40.5 -27.5t27.5 -40.5t10 -49t-10 -49t-27.5 -40.5t-40.5 -27.5t-49 -10t-49.5 10t-40.5 27.5t-27 40.5t-10 49z" />
    <glyph glyph-name="uni1416" unicode="&#x1416;" horiz-adv-x="1574" 
d="M100 0v1434l1434 -687v-60zM963 717l-600 260v-520zM100 1748q0 26 10 49t27 40.5t40.5 27.5t49.5 10t49 -10t40.5 -27.5t27.5 -40.5t10 -49t-10 -49t-27.5 -40.5t-40.5 -27.5t-49 -10t-49.5 10t-40.5 27.5t-27 40.5t-10 49zM705 1454q0 26 10 49t27 40.5t40.5 27.5
t49.5 10t49 -10t40.5 -27.5t27.5 -40.5t10 -49t-10 -49t-27.5 -40.5t-40.5 -27.5t-49 -10t-49.5 10t-40.5 27.5t-27 40.5t-10 49z" />
    <glyph glyph-name="uni1417" unicode="&#x1417;" horiz-adv-x="1868" 
d="M334 687v60l1434 687v-1434zM1505 457v520l-600 -260zM10 717q0 26 10 49t27 40.5t40.5 27.5t49.5 10t49 -10t40.5 -27.5t27.5 -40.5t10 -49t-10 -49t-27.5 -40.5t-40.5 -27.5t-49 -10t-49.5 10t-40.5 27.5t-27 40.5t-10 49z" />
    <glyph glyph-name="uni1418" unicode="&#x1418;" horiz-adv-x="1808" 
d="M40 687v60l1434 687v-1434zM1211 457v520l-600 -260zM1544 717q0 26 10 49t27 40.5t40.5 27.5t49.5 10t49 -10t40.5 -27.5t27.5 -40.5t10 -49t-10 -49t-27.5 -40.5t-40.5 -27.5t-49 -10t-49.5 10t-40.5 27.5t-27 40.5t-10 49z" />
    <glyph glyph-name="uni1419" unicode="&#x1419;" horiz-adv-x="1868" 
d="M334 687v60l1434 687v-1434zM1505 457v520l-600 -260zM10 717q0 26 10 49t27 40.5t40.5 27.5t49.5 10t49 -10t40.5 -27.5t27.5 -40.5t10 -49t-10 -49t-27.5 -40.5t-40.5 -27.5t-49 -10t-49.5 10t-40.5 27.5t-27 40.5t-10 49zM1514 1748q0 26 10 49t27 40.5t40.5 27.5
t49.5 10t49 -10t40.5 -27.5t27.5 -40.5t10 -49t-10 -49t-27.5 -40.5t-40.5 -27.5t-49 -10t-49.5 10t-40.5 27.5t-27 40.5t-10 49z" />
    <glyph glyph-name="uni141A" unicode="&#x141a;" horiz-adv-x="1808" 
d="M40 687v60l1434 687v-1434zM1211 457v520l-600 -260zM1544 717q0 26 10 49t27 40.5t40.5 27.5t49.5 10t49 -10t40.5 -27.5t27.5 -40.5t10 -49t-10 -49t-27.5 -40.5t-40.5 -27.5t-49 -10t-49.5 10t-40.5 27.5t-27 40.5t-10 49zM1220 1748q0 26 10 49t27 40.5t40.5 27.5
t49.5 10t49 -10t40.5 -27.5t27.5 -40.5t10 -49t-10 -49t-27.5 -40.5t-40.5 -27.5t-49 -10t-49.5 10t-40.5 27.5t-27 40.5t-10 49z" />
    <glyph glyph-name="uni141B" unicode="&#x141b;" horiz-adv-x="1574" 
d="M40 687v60l1434 687v-1434zM1211 457v520l-600 -260zM1220 1748q0 26 10 49t27 40.5t40.5 27.5t49.5 10t49 -10t40.5 -27.5t27.5 -40.5t10 -49t-10 -49t-27.5 -40.5t-40.5 -27.5t-49 -10t-49.5 10t-40.5 27.5t-27 40.5t-10 49zM645 1454q0 26 10 49t27 40.5t40.5 27.5
t49.5 10t49 -10t40.5 -27.5t27.5 -40.5t10 -49t-10 -49t-27.5 -40.5t-40.5 -27.5t-49 -10t-49.5 10t-40.5 27.5t-27 40.5t-10 49z" />
    <glyph glyph-name="uni141C" unicode="&#x141c;" horiz-adv-x="1200" 
d="M264 1434v-377q0 -36 7 -69t22.5 -59t39.5 -41.5t58 -15.5q57 0 92 45.5t35 139.5v377h164v-377q0 -47 10 -81.5t27 -57.5t40 -34.5t50 -11.5q35 0 59.5 15.5t39.5 41.5t21.5 59t6.5 69v377h164v-397q0 -72 -19.5 -131t-56 -101t-88.5 -65t-117 -23q-72 0 -127.5 27
t-91.5 77q-37 -50 -92 -77t-127 -27q-65 0 -117 23t-88.5 65t-56 101t-19.5 131v397h164z" />
    <glyph glyph-name="uni141D" unicode="&#x141d;" horiz-adv-x="1048" 
d="M221 929q0 -38 26.5 -64.5t64.5 -26.5t64.5 26.5t26.5 64.5t-26.5 65t-64.5 27t-64.5 -27t-26.5 -65zM100 932q0 43 17 81t45.5 66.5t67 45t81.5 16.5t81.5 -16.5t68 -45t46.5 -66.5t17 -81t-17 -82t-46.5 -68.5t-68 -47t-81.5 -17.5t-81.5 17.5t-67 47t-45.5 68.5
t-17 82zM645 1222q0 -38 26.5 -64.5t64.5 -26.5t64.5 26.5t26.5 64.5t-26.5 65t-64.5 27t-64.5 -27t-26.5 -65zM524 1225q0 43 17 81t45.5 66.5t67 45t81.5 16.5t81.5 -16.5t68 -45t46.5 -66.5t17 -81t-17 -82t-46.5 -68.5t-68 -47t-81.5 -17.5t-81.5 17.5t-67 47
t-45.5 68.5t-17 82z" />
    <glyph glyph-name="uni141E" unicode="&#x141e;" horiz-adv-x="917" 
d="M443 1434h30l344 -717h-717zM349 871h218l-109 242z" />
    <glyph glyph-name="uni141F" unicode="&#x141f;" horiz-adv-x="691" 
d="M100 717l316 717h175l-316 -717h-175z" />
    <glyph glyph-name="uni1420" unicode="&#x1420;" horiz-adv-x="691" 
d="M416 717l-316 717h175l316 -717h-175z" />
    <glyph glyph-name="uni1421" unicode="&#x1421;" horiz-adv-x="917" 
d="M817 1075q0 -74 -28 -139.5t-77 -114t-114 -76.5t-140 -28q-74 0 -139.5 28t-114 76.5t-76.5 114t-28 139.5v359h164v-359q0 -34 11.5 -68.5t35.5 -62.5t60 -45.5t87 -17.5t87.5 17.5t60.5 45.5t35.5 62.5t11.5 68.5v359h164v-359z" />
    <glyph glyph-name="uni1422" unicode="&#x1422;" horiz-adv-x="917" 
d="M817 717h-164v359q0 34 -11.5 68.5t-35.5 62.5t-60.5 45.5t-87.5 17.5t-87 -17.5t-60 -45.5t-35.5 -62.5t-11.5 -68.5v-359h-164v359q0 74 28 139.5t76.5 114t114 76.5t139.5 28q75 0 140 -28t114 -76.5t77 -114t28 -139.5v-359z" />
    <glyph glyph-name="uni1423" unicode="&#x1423;" horiz-adv-x="917" 
d="M100 717v164h359q34 0 68.5 11.5t62.5 35.5t45.5 60.5t17.5 87.5t-17.5 87t-45.5 60t-62.5 35.5t-68.5 11.5h-359v164h359q74 0 139.5 -28t114 -76.5t76.5 -114t28 -139.5q0 -75 -28 -140t-76.5 -114t-114 -77t-139.5 -28h-359z" />
    <glyph glyph-name="uni1424" unicode="&#x1424;" horiz-adv-x="917" 
d="M100 1075q0 74 28 139.5t76.5 114t114 77t139.5 28.5t139.5 -28.5t114 -77t77 -114t28.5 -139.5t-28.5 -139.5t-77 -114t-114 -76.5t-139.5 -28t-139.5 28t-114 76.5t-76.5 114t-28 139.5zM264 1075q0 -37 15.5 -73.5t42 -63t62.5 -42t73 -15.5t74 15.5t64 42t42.5 63
t15.5 73.5t-15.5 73.5t-42.5 63.5t-64 42.5t-74 15.5t-73 -15.5t-62.5 -42.5t-42 -63.5t-15.5 -73.5z" />
    <glyph glyph-name="uni1425" unicode="&#x1425;" horiz-adv-x="961" 
d="M100 717l316 717h175l-316 -717h-175zM370 717l316 717h175l-316 -717h-175z" />
    <glyph glyph-name="uni1426" unicode="&#x1426;" horiz-adv-x="612" 
d="M100 717v717h164v-717h-164zM348 717v717h164v-717h-164z" />
    <glyph glyph-name="uni1427" unicode="&#x1427;" horiz-adv-x="526" 
d="M136 717q0 26 10 49t27 40.5t40.5 27.5t49.5 10t49 -10t40.5 -27.5t27.5 -40.5t10 -49t-10 -49t-27.5 -40.5t-40.5 -27.5t-49 -10t-49.5 10t-40.5 27.5t-27 40.5t-10 49z" />
    <glyph glyph-name="uni1428" unicode="&#x1428;" horiz-adv-x="917" 
d="M100 1157h717v-164h-717v164z" />
    <glyph glyph-name="uni1429" unicode="&#x1429;" horiz-adv-x="917" 
d="M100 1157h276v277h164v-277h277v-164h-277v-276h-164v276h-276v164z" />
    <glyph glyph-name="uni142A" unicode="&#x142a;" horiz-adv-x="917" 
d="M376 717v553h-276v164h717v-164h-277v-553h-164z" />
    <glyph glyph-name="uni142B" unicode="&#x142b;" horiz-adv-x="2075" 
d="M40 1434h1434l-687 -1434h-60zM757 571l260 600h-520zM1890 717l-316 717h175l316 -717h-175z" />
    <glyph glyph-name="uni142C" unicode="&#x142c;" horiz-adv-x="1619" 
d="M727 1434h60l687 -1434h-1434zM497 263h520l-260 600zM1434 717l-316 717h175l316 -717h-175z" />
    <glyph glyph-name="uni142D" unicode="&#x142d;" horiz-adv-x="1900" 
d="M100 0v1434l1434 -687v-60zM963 717l-600 260v-520zM1715 717l-316 717h175l316 -717h-175z" />
    <glyph glyph-name="uni142E" unicode="&#x142e;" horiz-adv-x="2075" 
d="M40 687v60l1434 687v-1434zM1211 457v520l-600 -260zM1890 717l-316 717h175l316 -717h-175z" />
    <glyph glyph-name="uni142F" unicode="&#x142f;" horiz-adv-x="1514" 
d="M40 1434h338l379 -863l379 863h338l-687 -1434h-60z" />
    <glyph glyph-name="uni1430" unicode="&#x1430;" horiz-adv-x="1514" 
d="M727 1434h60l687 -1434h-338l-379 863l-379 -863h-338zM666 1746q0 -38 26.5 -64.5t64.5 -26.5t64.5 26.5t26.5 64.5t-26.5 65t-64.5 27t-64.5 -27t-26.5 -65zM545 1749q0 43 17 81t45.5 66.5t67 45t81.5 16.5t81.5 -16.5t68 -45t46.5 -66.5t17 -81t-17 -82t-46.5 -68.5
t-68 -47t-81.5 -17.5t-81.5 17.5t-67 47t-45.5 68.5t-17 82z" />
    <glyph glyph-name="uni1431" unicode="&#x1431;" horiz-adv-x="1514" 
d="M727 1434h60l687 -1434h-338l-379 863l-379 -863h-338z" />
    <glyph glyph-name="uni1432" unicode="&#x1432;" horiz-adv-x="1514" 
d="M727 1434h60l687 -1434h-338l-379 863l-379 -863h-338zM630 1748q0 26 10 49t27 40.5t40.5 27.5t49.5 10t49 -10t40.5 -27.5t27.5 -40.5t10 -49t-10 -49t-27.5 -40.5t-40.5 -27.5t-49 -10t-49.5 10t-40.5 27.5t-27 40.5t-10 49z" />
    <glyph glyph-name="uni1433" unicode="&#x1433;" horiz-adv-x="1574" 
d="M1534 747v-60l-1434 -687v338l863 379l-863 379v338z" />
    <glyph glyph-name="uni1434" unicode="&#x1434;" horiz-adv-x="1574" 
d="M1534 747v-60l-1434 -687v338l863 379l-863 379v338zM100 1748q0 26 10 49t27 40.5t40.5 27.5t49.5 10t49 -10t40.5 -27.5t27.5 -40.5t10 -49t-10 -49t-27.5 -40.5t-40.5 -27.5t-49 -10t-49.5 10t-40.5 27.5t-27 40.5t-10 49z" />
    <glyph glyph-name="uni1435" unicode="&#x1435;" horiz-adv-x="1574" 
d="M1534 747v-60l-1434 -687v338l863 379l-863 379v338zM100 1748q0 26 10 49t27 40.5t40.5 27.5t49.5 10t49 -10t40.5 -27.5t27.5 -40.5t10 -49t-10 -49t-27.5 -40.5t-40.5 -27.5t-49 -10t-49.5 10t-40.5 27.5t-27 40.5t-10 49zM705 1748q0 26 10 49t27 40.5t40.5 27.5
t49.5 10t49 -10t40.5 -27.5t27.5 -40.5t10 -49t-10 -49t-27.5 -40.5t-40.5 -27.5t-49 -10t-49.5 10t-40.5 27.5t-27 40.5t-10 49z" />
    <glyph glyph-name="uni1436" unicode="&#x1436;" horiz-adv-x="1574" 
d="M1534 747v-60l-1434 -687v338l863 379l-863 379v338zM464 578h-154v277h154v-277z" />
    <glyph glyph-name="uni1437" unicode="&#x1437;" horiz-adv-x="1574" 
d="M1534 747v-60l-1434 -687v338l863 379l-863 379v338zM330 717q0 26 10 49t27 40.5t40.5 27.5t49.5 10t49 -10t40.5 -27.5t27.5 -40.5t10 -49t-10 -49t-27.5 -40.5t-40.5 -27.5t-49 -10t-49.5 10t-40.5 27.5t-27 40.5t-10 49z" />
    <glyph glyph-name="uni1438" unicode="&#x1438;" horiz-adv-x="1574" 
d="M1474 1434v-338l-863 -379l863 -379v-338l-1434 687v60z" />
    <glyph glyph-name="uni1439" unicode="&#x1439;" horiz-adv-x="1574" 
d="M1474 1434v-338l-863 -379l863 -379v-338l-1434 687v60zM1220 1748q0 26 10 49t27 40.5t40.5 27.5t49.5 10t49 -10t40.5 -27.5t27.5 -40.5t10 -49t-10 -49t-27.5 -40.5t-40.5 -27.5t-49 -10t-49.5 10t-40.5 27.5t-27 40.5t-10 49z" />
    <glyph glyph-name="uni143A" unicode="&#x143a;" horiz-adv-x="1514" 
d="M40 1434h338l379 -863l379 863h338l-687 -1434h-60zM10 717q0 26 10 49t27 40.5t40.5 27.5t49.5 10t49 -10t40.5 -27.5t27.5 -40.5t10 -49t-10 -49t-27.5 -40.5t-40.5 -27.5t-49 -10t-49.5 10t-40.5 27.5t-27 40.5t-10 49z" />
    <glyph glyph-name="uni143B" unicode="&#x143b;" horiz-adv-x="1514" 
d="M40 1434h338l379 -863l379 863h338l-687 -1434h-60zM1250 717q0 26 10 49t27 40.5t40.5 27.5t49.5 10t49 -10t40.5 -27.5t27.5 -40.5t10 -49t-10 -49t-27.5 -40.5t-40.5 -27.5t-49 -10t-49.5 10t-40.5 27.5t-27 40.5t-10 49z" />
    <glyph glyph-name="uni143C" unicode="&#x143c;" horiz-adv-x="1514" 
d="M727 1434h60l687 -1434h-338l-379 863l-379 -863h-338zM10 717q0 26 10 49t27 40.5t40.5 27.5t49.5 10t49 -10t40.5 -27.5t27.5 -40.5t10 -49t-10 -49t-27.5 -40.5t-40.5 -27.5t-49 -10t-49.5 10t-40.5 27.5t-27 40.5t-10 49z" />
    <glyph glyph-name="uni143D" unicode="&#x143d;" horiz-adv-x="1514" 
d="M727 1434h60l687 -1434h-338l-379 863l-379 -863h-338zM1250 717q0 26 10 49t27 40.5t40.5 27.5t49.5 10t49 -10t40.5 -27.5t27.5 -40.5t10 -49t-10 -49t-27.5 -40.5t-40.5 -27.5t-49 -10t-49.5 10t-40.5 27.5t-27 40.5t-10 49z" />
    <glyph glyph-name="uni143E" unicode="&#x143e;" horiz-adv-x="1514" 
d="M727 1434h60l687 -1434h-338l-379 863l-379 -863h-338zM635 1748q0 26 10 49t27 40.5t40.5 27.5t49.5 10t49 -10t40.5 -27.5t27.5 -40.5t10 -49t-10 -49t-27.5 -40.5t-40.5 -27.5t-49 -10t-49.5 10t-40.5 27.5t-27 40.5t-10 49zM10 717q0 26 10 49t27 40.5t40.5 27.5
t49.5 10t49 -10t40.5 -27.5t27.5 -40.5t10 -49t-10 -49t-27.5 -40.5t-40.5 -27.5t-49 -10t-49.5 10t-40.5 27.5t-27 40.5t-10 49z" />
    <glyph glyph-name="uni143F" unicode="&#x143f;" horiz-adv-x="1514" 
d="M727 1434h60l687 -1434h-338l-379 863l-379 -863h-338zM635 1748q0 26 10 49t27 40.5t40.5 27.5t49.5 10t49 -10t40.5 -27.5t27.5 -40.5t10 -49t-10 -49t-27.5 -40.5t-40.5 -27.5t-49 -10t-49.5 10t-40.5 27.5t-27 40.5t-10 49zM1250 717q0 26 10 49t27 40.5t40.5 27.5
t49.5 10t49 -10t40.5 -27.5t27.5 -40.5t10 -49t-10 -49t-27.5 -40.5t-40.5 -27.5t-49 -10t-49.5 10t-40.5 27.5t-27 40.5t-10 49z" />
    <glyph glyph-name="uni1440" unicode="&#x1440;" horiz-adv-x="1808" 
d="M1768 747v-60l-1434 -687v338l863 379l-863 379v338zM10 717q0 26 10 49t27 40.5t40.5 27.5t49.5 10t49 -10t40.5 -27.5t27.5 -40.5t10 -49t-10 -49t-27.5 -40.5t-40.5 -27.5t-49 -10t-49.5 10t-40.5 27.5t-27 40.5t-10 49z" />
    <glyph glyph-name="uni1441" unicode="&#x1441;" horiz-adv-x="1868" 
d="M1534 747v-60l-1434 -687v338l863 379l-863 379v338zM1604 717q0 26 10 49t27 40.5t40.5 27.5t49.5 10t49 -10t40.5 -27.5t27.5 -40.5t10 -49t-10 -49t-27.5 -40.5t-40.5 -27.5t-49 -10t-49.5 10t-40.5 27.5t-27 40.5t-10 49z" />
    <glyph glyph-name="uni1442" unicode="&#x1442;" horiz-adv-x="1808" 
d="M1768 747v-60l-1434 -687v338l863 379l-863 379v338zM10 717q0 26 10 49t27 40.5t40.5 27.5t49.5 10t49 -10t40.5 -27.5t27.5 -40.5t10 -49t-10 -49t-27.5 -40.5t-40.5 -27.5t-49 -10t-49.5 10t-40.5 27.5t-27 40.5t-10 49zM334 1748q0 26 10 49t27 40.5t40.5 27.5
t49.5 10t49 -10t40.5 -27.5t27.5 -40.5t10 -49t-10 -49t-27.5 -40.5t-40.5 -27.5t-49 -10t-49.5 10t-40.5 27.5t-27 40.5t-10 49z" />
    <glyph glyph-name="uni1443" unicode="&#x1443;" horiz-adv-x="1868" 
d="M1534 747v-60l-1434 -687v338l863 379l-863 379v338zM1604 717q0 26 10 49t27 40.5t40.5 27.5t49.5 10t49 -10t40.5 -27.5t27.5 -40.5t10 -49t-10 -49t-27.5 -40.5t-40.5 -27.5t-49 -10t-49.5 10t-40.5 27.5t-27 40.5t-10 49zM100 1748q0 26 10 49t27 40.5t40.5 27.5
t49.5 10t49 -10t40.5 -27.5t27.5 -40.5t10 -49t-10 -49t-27.5 -40.5t-40.5 -27.5t-49 -10t-49.5 10t-40.5 27.5t-27 40.5t-10 49z" />
    <glyph glyph-name="uni1444" unicode="&#x1444;" horiz-adv-x="1868" 
d="M1768 1434v-338l-863 -379l863 -379v-338l-1434 687v60zM10 717q0 26 10 49t27 40.5t40.5 27.5t49.5 10t49 -10t40.5 -27.5t27.5 -40.5t10 -49t-10 -49t-27.5 -40.5t-40.5 -27.5t-49 -10t-49.5 10t-40.5 27.5t-27 40.5t-10 49z" />
    <glyph glyph-name="uni1445" unicode="&#x1445;" horiz-adv-x="1808" 
d="M1474 1434v-338l-863 -379l863 -379v-338l-1434 687v60zM1544 717q0 26 10 49t27 40.5t40.5 27.5t49.5 10t49 -10t40.5 -27.5t27.5 -40.5t10 -49t-10 -49t-27.5 -40.5t-40.5 -27.5t-49 -10t-49.5 10t-40.5 27.5t-27 40.5t-10 49z" />
    <glyph glyph-name="uni1446" unicode="&#x1446;" horiz-adv-x="1868" 
d="M1768 1434v-338l-863 -379l863 -379v-338l-1434 687v60zM10 717q0 26 10 49t27 40.5t40.5 27.5t49.5 10t49 -10t40.5 -27.5t27.5 -40.5t10 -49t-10 -49t-27.5 -40.5t-40.5 -27.5t-49 -10t-49.5 10t-40.5 27.5t-27 40.5t-10 49zM1514 1748q0 26 10 49t27 40.5t40.5 27.5
t49.5 10t49 -10t40.5 -27.5t27.5 -40.5t10 -49t-10 -49t-27.5 -40.5t-40.5 -27.5t-49 -10t-49.5 10t-40.5 27.5t-27 40.5t-10 49z" />
    <glyph glyph-name="uni1447" unicode="&#x1447;" horiz-adv-x="1808" 
d="M1474 1434v-338l-863 -379l863 -379v-338l-1434 687v60zM1544 717q0 26 10 49t27 40.5t40.5 27.5t49.5 10t49 -10t40.5 -27.5t27.5 -40.5t10 -49t-10 -49t-27.5 -40.5t-40.5 -27.5t-49 -10t-49.5 10t-40.5 27.5t-27 40.5t-10 49zM1220 1748q0 26 10 49t27 40.5t40.5 27.5
t49.5 10t49 -10t40.5 -27.5t27.5 -40.5t10 -49t-10 -49t-27.5 -40.5t-40.5 -27.5t-49 -10t-49.5 10t-40.5 27.5t-27 40.5t-10 49z" />
    <glyph glyph-name="uni1448" unicode="&#x1448;" horiz-adv-x="1574" 
d="M1474 1434v-338l-863 -379l863 -379v-338l-1434 687v60zM1220 1748q0 26 10 49t27 40.5t40.5 27.5t49.5 10t49 -10t40.5 -27.5t27.5 -40.5t10 -49t-10 -49t-27.5 -40.5t-40.5 -27.5t-49 -10t-49.5 10t-40.5 27.5t-27 40.5t-10 49zM645 1454q0 26 10 49t27 40.5t40.5 27.5
t49.5 10t49 -10t40.5 -27.5t27.5 -40.5t10 -49t-10 -49t-27.5 -40.5t-40.5 -27.5t-49 -10t-49.5 10t-40.5 27.5t-27 40.5t-10 49z" />
    <glyph glyph-name="uni1449" unicode="&#x1449;" horiz-adv-x="917" 
d="M817 717l-717 343v30l717 344v-180l-397 -179l397 -178v-180z" />
    <glyph glyph-name="uni144A" unicode="&#x144a;" horiz-adv-x="364" 
d="M100 717v717h164v-717h-164z" />
    <glyph glyph-name="uni144B" unicode="&#x144b;" horiz-adv-x="682" 
d="M582 717h-164v218q0 63 -18 91.5t-59 28.5q-37 0 -57 -29.5t-20 -90.5v-218h-164v717h164v-256q12 9 29 16q14 6 33.5 11t44.5 5q49 0 88 -17.5t66.5 -48.5t42 -74.5t14.5 -94.5v-258z" />
    <glyph glyph-name="uni144C" unicode="&#x144c;" 
d="M412 711q0 -38 5.5 -85t21.5 -96t44 -95t73 -82t109 -58t152 -22q89 0 153.5 22t109.5 58t72.5 82t43 95t21 96t5.5 85v723h312v-723q0 -145 -43 -274.5t-131 -226.5t-223.5 -153.5t-319.5 -56.5q-186 0 -321.5 56.5t-223.5 153.5t-130 226.5t-42 274.5v723h312v-723z
" />
    <glyph glyph-name="uni144D" unicode="&#x144d;" 
d="M412 0h-312v723q0 145 42 274.5t130 226.5t223.5 153.5t321.5 56.5q184 0 319.5 -56.5t223.5 -153.5t131 -226.5t43 -274.5v-723h-312v723q0 38 -5.5 85t-21 96t-43 95t-72.5 82t-109.5 58t-153.5 22q-88 0 -152 -22t-109 -58t-73 -82t-44 -95t-21.5 -96t-5.5 -85v-723z
M727 1746q0 -38 26.5 -64.5t64.5 -26.5t64.5 26.5t26.5 64.5t-26.5 65t-64.5 27t-64.5 -27t-26.5 -65zM606 1749q0 43 17 81t45.5 66.5t67 45t81.5 16.5t81.5 -16.5t68 -45t46.5 -66.5t17 -81t-17 -82t-46.5 -68.5t-68 -47t-81.5 -17.5t-81.5 17.5t-67 47t-45.5 68.5t-17 82
z" />
    <glyph glyph-name="uni144E" unicode="&#x144e;" 
d="M412 0h-312v723q0 145 42 274.5t130 226.5t223.5 153.5t321.5 56.5q184 0 319.5 -56.5t223.5 -153.5t131 -226.5t43 -274.5v-723h-312v723q0 38 -5.5 85t-21 96t-43 95t-72.5 82t-109.5 58t-153.5 22q-88 0 -152 -22t-109 -58t-73 -82t-44 -95t-21.5 -96t-5.5 -85v-723z
" />
    <glyph glyph-name="uni144F" unicode="&#x144f;" 
d="M412 0h-312v723q0 145 42 274.5t130 226.5t223.5 153.5t321.5 56.5q184 0 319.5 -56.5t223.5 -153.5t131 -226.5t43 -274.5v-723h-312v723q0 38 -5.5 85t-21 96t-43 95t-72.5 82t-109.5 58t-153.5 22q-88 0 -152 -22t-109 -58t-73 -82t-44 -95t-21.5 -96t-5.5 -85v-723z
M690 1748q0 26 10 49t27 40.5t40.5 27.5t49.5 10t49 -10t40.5 -27.5t27.5 -40.5t10 -49t-10 -49t-27.5 -40.5t-40.5 -27.5t-49 -10t-49.5 10t-40.5 27.5t-27 40.5t-10 49z" />
    <glyph glyph-name="uni1450" unicode="&#x1450;" 
d="M100 1122v312h723q145 0 274.5 -42t226.5 -130t153.5 -223.5t56.5 -321.5q0 -185 -56.5 -320t-153.5 -223t-226.5 -131t-274.5 -43h-723v312h683q38 0 85 5.5t96 21t95 43t82 72.5t58 109.5t22 153.5q0 88 -22 152t-58 109t-82 73t-95 44t-96 21.5t-85 5.5h-683z" />
    <glyph glyph-name="uni1451" unicode="&#x1451;" 
d="M100 1122v312h723q145 0 274.5 -42t226.5 -130t153.5 -223.5t56.5 -321.5q0 -185 -56.5 -320t-153.5 -223t-226.5 -131t-274.5 -43h-723v312h683q38 0 85 5.5t96 21t95 43t82 72.5t58 109.5t22 153.5q0 88 -22 152t-58 109t-82 73t-95 44t-96 21.5t-85 5.5h-683z
M346 1748q0 26 10 49t27 40.5t40.5 27.5t49.5 10t49 -10t40.5 -27.5t27.5 -40.5t10 -49t-10 -49t-27.5 -40.5t-40.5 -27.5t-49 -10t-49.5 10t-40.5 27.5t-27 40.5t-10 49z" />
    <glyph glyph-name="uni1452" unicode="&#x1452;" 
d="M100 1122v312h723q145 0 274.5 -42t226.5 -130t153.5 -223.5t56.5 -321.5q0 -185 -56.5 -320t-153.5 -223t-226.5 -131t-274.5 -43h-723v312h683q38 0 85 5.5t96 21t95 43t82 72.5t58 109.5t22 153.5q0 88 -22 152t-58 109t-82 73t-95 44t-96 21.5t-85 5.5h-683z
M346 1748q0 26 10 49t27 40.5t40.5 27.5t49.5 10t49 -10t40.5 -27.5t27.5 -40.5t10 -49t-10 -49t-27.5 -40.5t-40.5 -27.5t-49 -10t-49.5 10t-40.5 27.5t-27 40.5t-10 49zM705 1748q0 26 10 49t27 40.5t40.5 27.5t49.5 10t49 -10t40.5 -27.5t27.5 -40.5t10 -49t-10 -49
t-27.5 -40.5t-40.5 -27.5t-49 -10t-49.5 10t-40.5 27.5t-27 40.5t-10 49z" />
    <glyph glyph-name="uni1453" unicode="&#x1453;" 
d="M100 1122v312h723q145 0 274.5 -42t226.5 -130t153.5 -223.5t56.5 -321.5q0 -185 -56.5 -320t-153.5 -223t-226.5 -131t-274.5 -43h-723v312h683q38 0 85 5.5t96 21t95 43t82 72.5t58 109.5t22 153.5q0 88 -22 152t-58 109t-82 73t-95 44t-96 21.5t-85 5.5h-683zM542 578
h-154v277h154v-277z" />
    <glyph glyph-name="uni1454" unicode="&#x1454;" 
d="M100 1122v312h723q145 0 274.5 -42t226.5 -130t153.5 -223.5t56.5 -321.5q0 -185 -56.5 -320t-153.5 -223t-226.5 -131t-274.5 -43h-723v312h683q38 0 85 5.5t96 21t95 43t82 72.5t58 109.5t22 153.5q0 88 -22 152t-58 109t-82 73t-95 44t-96 21.5t-85 5.5h-683zM368 717
q0 26 10 49t27 40.5t40.5 27.5t49.5 10t49 -10t40.5 -27.5t27.5 -40.5t10 -49t-10 -49t-27.5 -40.5t-40.5 -27.5t-49 -10t-49.5 10t-40.5 27.5t-27 40.5t-10 49z" />
    <glyph glyph-name="uni1455" unicode="&#x1455;" 
d="M851 1122q-38 0 -85 -5.5t-96 -21.5t-95 -44t-82 -73t-58 -109t-22 -152q0 -89 22 -153.5t58 -109.5t82 -72.5t95 -43t96 -21t85 -5.5h683v-312h-723q-145 0 -274.5 43t-226.5 131t-153.5 223t-56.5 320q0 186 56.5 321.5t153.5 223.5t226.5 130t274.5 42h723v-312h-683z
" />
    <glyph glyph-name="uni1456" unicode="&#x1456;" 
d="M851 1122q-38 0 -85 -5.5t-96 -21.5t-95 -44t-82 -73t-58 -109t-22 -152q0 -89 22 -153.5t58 -109.5t82 -72.5t95 -43t96 -21t85 -5.5h683v-312h-723q-145 0 -274.5 43t-226.5 131t-153.5 223t-56.5 320q0 186 56.5 321.5t153.5 223.5t226.5 130t274.5 42h723v-312h-683z
M1034 1748q0 26 10 49t27 40.5t40.5 27.5t49.5 10t49 -10t40.5 -27.5t27.5 -40.5t10 -49t-10 -49t-27.5 -40.5t-40.5 -27.5t-49 -10t-49.5 10t-40.5 27.5t-27 40.5t-10 49z" />
    <glyph glyph-name="uni1457" unicode="&#x1457;" horiz-adv-x="1868" 
d="M646 711q0 -38 5.5 -85t21.5 -96t44 -95t73 -82t109 -58t152 -22q89 0 153.5 22t109.5 58t72.5 82t43 95t21 96t5.5 85v723h312v-723q0 -145 -43 -274.5t-131 -226.5t-223.5 -153.5t-319.5 -56.5q-186 0 -321.5 56.5t-223.5 153.5t-130 226.5t-42 274.5v723h312v-723z
M10 717q0 26 10 49t27 40.5t40.5 27.5t49.5 10t49 -10t40.5 -27.5t27.5 -40.5t10 -49t-10 -49t-27.5 -40.5t-40.5 -27.5t-49 -10t-49.5 10t-40.5 27.5t-27 40.5t-10 49z" />
    <glyph glyph-name="uni1458" unicode="&#x1458;" horiz-adv-x="1868" 
d="M412 711q0 -38 5.5 -85t21.5 -96t44 -95t73 -82t109 -58t152 -22q89 0 153.5 22t109.5 58t72.5 82t43 95t21 96t5.5 85v723h312v-723q0 -145 -43 -274.5t-131 -226.5t-223.5 -153.5t-319.5 -56.5q-186 0 -321.5 56.5t-223.5 153.5t-130 226.5t-42 274.5v723h312v-723z
M1604 717q0 26 10 49t27 40.5t40.5 27.5t49.5 10t49 -10t40.5 -27.5t27.5 -40.5t10 -49t-10 -49t-27.5 -40.5t-40.5 -27.5t-49 -10t-49.5 10t-40.5 27.5t-27 40.5t-10 49z" />
    <glyph glyph-name="uni1459" unicode="&#x1459;" horiz-adv-x="1868" 
d="M646 0h-312v723q0 145 42 274.5t130 226.5t223.5 153.5t321.5 56.5q184 0 319.5 -56.5t223.5 -153.5t131 -226.5t43 -274.5v-723h-312v723q0 38 -5.5 85t-21 96t-43 95t-72.5 82t-109.5 58t-153.5 22q-88 0 -152 -22t-109 -58t-73 -82t-44 -95t-21.5 -96t-5.5 -85v-723z
M10 717q0 26 10 49t27 40.5t40.5 27.5t49.5 10t49 -10t40.5 -27.5t27.5 -40.5t10 -49t-10 -49t-27.5 -40.5t-40.5 -27.5t-49 -10t-49.5 10t-40.5 27.5t-27 40.5t-10 49z" />
    <glyph glyph-name="uni145A" unicode="&#x145a;" horiz-adv-x="1868" 
d="M412 0h-312v723q0 145 42 274.5t130 226.5t223.5 153.5t321.5 56.5q184 0 319.5 -56.5t223.5 -153.5t131 -226.5t43 -274.5v-723h-312v723q0 38 -5.5 85t-21 96t-43 95t-72.5 82t-109.5 58t-153.5 22q-88 0 -152 -22t-109 -58t-73 -82t-44 -95t-21.5 -96t-5.5 -85v-723z
M1604 717q0 26 10 49t27 40.5t40.5 27.5t49.5 10t49 -10t40.5 -27.5t27.5 -40.5t10 -49t-10 -49t-27.5 -40.5t-40.5 -27.5t-49 -10t-49.5 10t-40.5 27.5t-27 40.5t-10 49z" />
    <glyph glyph-name="uni145B" unicode="&#x145b;" horiz-adv-x="1868" 
d="M646 0h-312v723q0 145 42 274.5t130 226.5t223.5 153.5t321.5 56.5q184 0 319.5 -56.5t223.5 -153.5t131 -226.5t43 -274.5v-723h-312v723q0 38 -5.5 85t-21 96t-43 95t-72.5 82t-109.5 58t-153.5 22q-88 0 -152 -22t-109 -58t-73 -82t-44 -95t-21.5 -96t-5.5 -85v-723z
M10 717q0 26 10 49t27 40.5t40.5 27.5t49.5 10t49 -10t40.5 -27.5t27.5 -40.5t10 -49t-10 -49t-27.5 -40.5t-40.5 -27.5t-49 -10t-49.5 10t-40.5 27.5t-27 40.5t-10 49zM924 1748q0 26 10 49t27 40.5t40.5 27.5t49.5 10t49 -10t40.5 -27.5t27.5 -40.5t10 -49t-10 -49
t-27.5 -40.5t-40.5 -27.5t-49 -10t-49.5 10t-40.5 27.5t-27 40.5t-10 49z" />
    <glyph glyph-name="uni145C" unicode="&#x145c;" horiz-adv-x="1868" 
d="M412 0h-312v723q0 145 42 274.5t130 226.5t223.5 153.5t321.5 56.5q184 0 319.5 -56.5t223.5 -153.5t131 -226.5t43 -274.5v-723h-312v723q0 38 -5.5 85t-21 96t-43 95t-72.5 82t-109.5 58t-153.5 22q-88 0 -152 -22t-109 -58t-73 -82t-44 -95t-21.5 -96t-5.5 -85v-723z
M1604 717q0 26 10 49t27 40.5t40.5 27.5t49.5 10t49 -10t40.5 -27.5t27.5 -40.5t10 -49t-10 -49t-27.5 -40.5t-40.5 -27.5t-49 -10t-49.5 10t-40.5 27.5t-27 40.5t-10 49zM690 1748q0 26 10 49t27 40.5t40.5 27.5t49.5 10t49 -10t40.5 -27.5t27.5 -40.5t10 -49t-10 -49
t-27.5 -40.5t-40.5 -27.5t-49 -10t-49.5 10t-40.5 27.5t-27 40.5t-10 49z" />
    <glyph glyph-name="uni145D" unicode="&#x145d;" horiz-adv-x="1868" 
d="M334 1122v312h723q145 0 274.5 -42t226.5 -130t153.5 -223.5t56.5 -321.5q0 -185 -56.5 -320t-153.5 -223t-226.5 -131t-274.5 -43h-723v312h683q38 0 85 5.5t96 21t95 43t82 72.5t58 109.5t22 153.5q0 88 -22 152t-58 109t-82 73t-95 44t-96 21.5t-85 5.5h-683zM10 717
q0 26 10 49t27 40.5t40.5 27.5t49.5 10t49 -10t40.5 -27.5t27.5 -40.5t10 -49t-10 -49t-27.5 -40.5t-40.5 -27.5t-49 -10t-49.5 10t-40.5 27.5t-27 40.5t-10 49z" />
    <glyph glyph-name="uni145E" unicode="&#x145e;" horiz-adv-x="1868" 
d="M100 1122v312h723q145 0 274.5 -42t226.5 -130t153.5 -223.5t56.5 -321.5q0 -185 -56.5 -320t-153.5 -223t-226.5 -131t-274.5 -43h-723v312h683q38 0 85 5.5t96 21t95 43t82 72.5t58 109.5t22 153.5q0 88 -22 152t-58 109t-82 73t-95 44t-96 21.5t-85 5.5h-683z
M1604 717q0 26 10 49t27 40.5t40.5 27.5t49.5 10t49 -10t40.5 -27.5t27.5 -40.5t10 -49t-10 -49t-27.5 -40.5t-40.5 -27.5t-49 -10t-49.5 10t-40.5 27.5t-27 40.5t-10 49z" />
    <glyph glyph-name="uni145F" unicode="&#x145f;" horiz-adv-x="1868" 
d="M334 1122v312h723q145 0 274.5 -42t226.5 -130t153.5 -223.5t56.5 -321.5q0 -185 -56.5 -320t-153.5 -223t-226.5 -131t-274.5 -43h-723v312h683q38 0 85 5.5t96 21t95 43t82 72.5t58 109.5t22 153.5q0 88 -22 152t-58 109t-82 73t-95 44t-96 21.5t-85 5.5h-683zM10 717
q0 26 10 49t27 40.5t40.5 27.5t49.5 10t49 -10t40.5 -27.5t27.5 -40.5t10 -49t-10 -49t-27.5 -40.5t-40.5 -27.5t-49 -10t-49.5 10t-40.5 27.5t-27 40.5t-10 49zM580 1748q0 26 10 49t27 40.5t40.5 27.5t49.5 10t49 -10t40.5 -27.5t27.5 -40.5t10 -49t-10 -49t-27.5 -40.5
t-40.5 -27.5t-49 -10t-49.5 10t-40.5 27.5t-27 40.5t-10 49z" />
    <glyph glyph-name="uni1460" unicode="&#x1460;" horiz-adv-x="1868" 
d="M100 1122v312h723q145 0 274.5 -42t226.5 -130t153.5 -223.5t56.5 -321.5q0 -185 -56.5 -320t-153.5 -223t-226.5 -131t-274.5 -43h-723v312h683q38 0 85 5.5t96 21t95 43t82 72.5t58 109.5t22 153.5q0 88 -22 152t-58 109t-82 73t-95 44t-96 21.5t-85 5.5h-683z
M1604 717q0 26 10 49t27 40.5t40.5 27.5t49.5 10t49 -10t40.5 -27.5t27.5 -40.5t10 -49t-10 -49t-27.5 -40.5t-40.5 -27.5t-49 -10t-49.5 10t-40.5 27.5t-27 40.5t-10 49zM346 1748q0 26 10 49t27 40.5t40.5 27.5t49.5 10t49 -10t40.5 -27.5t27.5 -40.5t10 -49t-10 -49
t-27.5 -40.5t-40.5 -27.5t-49 -10t-49.5 10t-40.5 27.5t-27 40.5t-10 49z" />
    <glyph glyph-name="uni1461" unicode="&#x1461;" horiz-adv-x="1868" 
d="M1085 1122q-38 0 -85 -5.5t-96 -21.5t-95 -44t-82 -73t-58 -109t-22 -152q0 -89 22 -153.5t58 -109.5t82 -72.5t95 -43t96 -21t85 -5.5h683v-312h-723q-145 0 -274.5 43t-226.5 131t-153.5 223t-56.5 320q0 186 56.5 321.5t153.5 223.5t226.5 130t274.5 42h723v-312h-683
zM10 717q0 26 10 49t27 40.5t40.5 27.5t49.5 10t49 -10t40.5 -27.5t27.5 -40.5t10 -49t-10 -49t-27.5 -40.5t-40.5 -27.5t-49 -10t-49.5 10t-40.5 27.5t-27 40.5t-10 49z" />
    <glyph glyph-name="uni1462" unicode="&#x1462;" horiz-adv-x="1868" 
d="M851 1122q-38 0 -85 -5.5t-96 -21.5t-95 -44t-82 -73t-58 -109t-22 -152q0 -89 22 -153.5t58 -109.5t82 -72.5t95 -43t96 -21t85 -5.5h683v-312h-723q-145 0 -274.5 43t-226.5 131t-153.5 223t-56.5 320q0 186 56.5 321.5t153.5 223.5t226.5 130t274.5 42h723v-312h-683z
M1604 717q0 26 10 49t27 40.5t40.5 27.5t49.5 10t49 -10t40.5 -27.5t27.5 -40.5t10 -49t-10 -49t-27.5 -40.5t-40.5 -27.5t-49 -10t-49.5 10t-40.5 27.5t-27 40.5t-10 49z" />
    <glyph glyph-name="uni1463" unicode="&#x1463;" horiz-adv-x="1868" 
d="M1085 1122q-38 0 -85 -5.5t-96 -21.5t-95 -44t-82 -73t-58 -109t-22 -152q0 -89 22 -153.5t58 -109.5t82 -72.5t95 -43t96 -21t85 -5.5h683v-312h-723q-145 0 -274.5 43t-226.5 131t-153.5 223t-56.5 320q0 186 56.5 321.5t153.5 223.5t226.5 130t274.5 42h723v-312h-683
zM10 717q0 26 10 49t27 40.5t40.5 27.5t49.5 10t49 -10t40.5 -27.5t27.5 -40.5t10 -49t-10 -49t-27.5 -40.5t-40.5 -27.5t-49 -10t-49.5 10t-40.5 27.5t-27 40.5t-10 49zM1298 1748q0 26 10 49t27 40.5t40.5 27.5t49.5 10t49 -10t40.5 -27.5t27.5 -40.5t10 -49t-10 -49
t-27.5 -40.5t-40.5 -27.5t-49 -10t-49.5 10t-40.5 27.5t-27 40.5t-10 49z" />
    <glyph glyph-name="uni1464" unicode="&#x1464;" horiz-adv-x="1868" 
d="M851 1122q-38 0 -85 -5.5t-96 -21.5t-95 -44t-82 -73t-58 -109t-22 -152q0 -89 22 -153.5t58 -109.5t82 -72.5t95 -43t96 -21t85 -5.5h683v-312h-723q-145 0 -274.5 43t-226.5 131t-153.5 223t-56.5 320q0 186 56.5 321.5t153.5 223.5t226.5 130t274.5 42h723v-312h-683z
M1604 717q0 26 10 49t27 40.5t40.5 27.5t49.5 10t49 -10t40.5 -27.5t27.5 -40.5t10 -49t-10 -49t-27.5 -40.5t-40.5 -27.5t-49 -10t-49.5 10t-40.5 27.5t-27 40.5t-10 49zM1064 1748q0 26 10 49t27 40.5t40.5 27.5t49.5 10t49 -10t40.5 -27.5t27.5 -40.5t10 -49t-10 -49
t-27.5 -40.5t-40.5 -27.5t-49 -10t-49.5 10t-40.5 27.5t-27 40.5t-10 49z" />
    <glyph glyph-name="uni1465" unicode="&#x1465;" horiz-adv-x="1868" 
d="M1085 1122q-38 0 -85 -5.5t-96 -21.5t-95 -44t-82 -73t-58 -109t-22 -152q0 -89 22 -153.5t58 -109.5t82 -72.5t95 -43t96 -21t85 -5.5h683v-312h-723q-145 0 -274.5 43t-226.5 131t-153.5 223t-56.5 320q0 186 56.5 321.5t153.5 223.5t226.5 130t274.5 42h723v-312h-683
zM10 1077q0 26 10 49t27 40.5t40.5 27.5t49.5 10t49 -10t40.5 -27.5t27.5 -40.5t10 -49t-10 -49t-27.5 -40.5t-40.5 -27.5t-49 -10t-49.5 10t-40.5 27.5t-27 40.5t-10 49zM10 360q0 26 10 49t27 40.5t40.5 27.5t49.5 10t49 -10t40.5 -27.5t27.5 -40.5t10 -49t-10 -49
t-27.5 -40.5t-40.5 -27.5t-49 -10t-49.5 10t-40.5 27.5t-27 40.5t-10 49z" />
    <glyph glyph-name="uni1466" unicode="&#x1466;" horiz-adv-x="917" 
d="M458 717q-74 0 -139.5 28t-114 77t-76.5 114t-28 140q0 74 28 139.5t76.5 114t114 76.5t139.5 28h359v-164h-359q-34 0 -68.5 -11.5t-62.5 -35.5t-45.5 -60t-17.5 -87t17.5 -87.5t45.5 -60.5t62.5 -35.5t68.5 -11.5h359v-164h-359z" />
    <glyph glyph-name="uni1467" unicode="&#x1467;" horiz-adv-x="1858" 
d="M412 711q0 -38 5.5 -85t21.5 -96t44 -95t73 -82t109 -58t152 -22q89 0 153.5 22t109.5 58t72.5 82t43 95t21 96t5.5 85v723h312v-723q0 -145 -43 -274.5t-131 -226.5t-223.5 -153.5t-319.5 -56.5q-186 0 -321.5 56.5t-223.5 153.5t-130 226.5t-42 274.5v723h312v-723z
M1634 717v717h124v-717h-124z" />
    <glyph glyph-name="uni1468" unicode="&#x1468;" horiz-adv-x="1858" 
d="M412 0h-312v723q0 145 42 274.5t130 226.5t223.5 153.5t321.5 56.5q184 0 319.5 -56.5t223.5 -153.5t131 -226.5t43 -274.5v-723h-312v723q0 38 -5.5 85t-21 96t-43 95t-72.5 82t-109.5 58t-153.5 22q-88 0 -152 -22t-109 -58t-73 -82t-44 -95t-21.5 -96t-5.5 -85v-723z
M1634 717v717h124v-717h-124z" />
    <glyph glyph-name="uni1469" unicode="&#x1469;" horiz-adv-x="1858" 
d="M100 1122v312h723q145 0 274.5 -42t226.5 -130t153.5 -223.5t56.5 -321.5q0 -185 -56.5 -320t-153.5 -223t-226.5 -131t-274.5 -43h-723v312h683q38 0 85 5.5t96 21t95 43t82 72.5t58 109.5t22 153.5q0 88 -22 152t-58 109t-82 73t-95 44t-96 21.5t-85 5.5h-683z
M1634 717v717h124v-717h-124z" />
    <glyph glyph-name="uni146A" unicode="&#x146a;" horiz-adv-x="1858" 
d="M851 1122q-38 0 -85 -5.5t-96 -21.5t-95 -44t-82 -73t-58 -109t-22 -152q0 -89 22 -153.5t58 -109.5t82 -72.5t95 -43t96 -21t85 -5.5h683v-312h-723q-145 0 -274.5 43t-226.5 131t-153.5 223t-56.5 320q0 186 56.5 321.5t153.5 223.5t226.5 130t274.5 42h723v-312h-683z
M1634 717v717h124v-717h-124z" />
    <glyph glyph-name="uni146B" unicode="&#x146b;" horiz-adv-x="1165" 
d="M753 549h-170q-110 0 -199 34.5t-152 94.5t-97.5 140.5t-34.5 172.5q0 91 35 172t98.5 141t152.5 95t197 35q103 0 191.5 -35t153 -95t101 -141t36.5 -172v-991h-312v549zM753 991q0 33 -12 64t-34 55t-54 38t-72 14q-32 0 -62.5 -11t-54 -33t-38 -53.5t-14.5 -73.5
q0 -39 14 -70t37.5 -53.5t54 -34.5t63.5 -12h172v170z" />
    <glyph glyph-name="uni146C" unicode="&#x146c;" horiz-adv-x="1165" 
d="M412 0h-312v991q0 91 36.5 172t101 141t152.5 95t192 35q108 0 197 -35t152.5 -95t98.5 -141t35 -172q0 -92 -34.5 -172.5t-97.5 -140.5t-152 -94.5t-199 -34.5h-170v-549zM412 821h172q33 0 63.5 12t54 34.5t37.5 53.5t14 70q0 42 -14.5 73.5t-38 53.5t-54 33t-62.5 11
q-41 0 -72.5 -14t-54 -38t-34 -55t-11.5 -64v-170zM492 1746q0 -38 26.5 -64.5t64.5 -26.5t64.5 26.5t26.5 64.5t-26.5 65t-64.5 27t-64.5 -27t-26.5 -65zM371 1749q0 43 17 81t45.5 66.5t67 45t81.5 16.5t81.5 -16.5t68 -45t46.5 -66.5t17 -81t-17 -82t-46.5 -68.5t-68 -47
t-81.5 -17.5t-81.5 17.5t-67 47t-45.5 68.5t-17 82z" />
    <glyph glyph-name="uni146D" unicode="&#x146d;" horiz-adv-x="1165" 
d="M412 0h-312v991q0 91 36.5 172t101 141t152.5 95t192 35q108 0 197 -35t152.5 -95t98.5 -141t35 -172q0 -92 -34.5 -172.5t-97.5 -140.5t-152 -94.5t-199 -34.5h-170v-549zM412 821h172q33 0 63.5 12t54 34.5t37.5 53.5t14 70q0 42 -14.5 73.5t-38 53.5t-54 33t-62.5 11
q-41 0 -72.5 -14t-54 -38t-34 -55t-11.5 -64v-170z" />
    <glyph glyph-name="uni146E" unicode="&#x146e;" horiz-adv-x="1165" 
d="M412 0h-312v991q0 91 36.5 172t101 141t152.5 95t192 35q108 0 197 -35t152.5 -95t98.5 -141t35 -172q0 -92 -34.5 -172.5t-97.5 -140.5t-152 -94.5t-199 -34.5h-170v-549zM412 821h172q33 0 63.5 12t54 34.5t37.5 53.5t14 70q0 42 -14.5 73.5t-38 53.5t-54 33t-62.5 11
q-41 0 -72.5 -14t-54 -38t-34 -55t-11.5 -64v-170zM455 1748q0 26 10 49t27 40.5t40.5 27.5t49.5 10t49 -10t40.5 -27.5t27.5 -40.5t10 -49t-10 -49t-27.5 -40.5t-40.5 -27.5t-49 -10t-49.5 10t-40.5 27.5t-27 40.5t-10 49z" />
    <glyph glyph-name="uni146F" unicode="&#x146f;" horiz-adv-x="1165" 
d="M753 1434h312v-991q0 -92 -36.5 -172.5t-101 -140.5t-153 -95t-191.5 -35q-108 0 -197 35t-152.5 95t-98.5 140.5t-35 172.5q0 91 34.5 171.5t97.5 140.5t152 95t199 35h170v549zM753 613h-172q-33 0 -63.5 -12t-54 -34.5t-37.5 -53.5t-14 -70q0 -42 14.5 -73.5t38 -53.5
t54 -33t62.5 -11q40 0 72 15.5t54.5 40.5t34 55.5t11.5 59.5v170z" />
    <glyph glyph-name="uni1470" unicode="&#x1470;" horiz-adv-x="1165" 
d="M753 1434h312v-991q0 -92 -36.5 -172.5t-101 -140.5t-153 -95t-191.5 -35q-108 0 -197 35t-152.5 95t-98.5 140.5t-35 172.5q0 91 34.5 171.5t97.5 140.5t152 95t199 35h170v549zM753 613h-172q-33 0 -63.5 -12t-54 -34.5t-37.5 -53.5t-14 -70q0 -42 14.5 -73.5t38 -53.5
t54 -33t62.5 -11q40 0 72 15.5t54.5 40.5t34 55.5t11.5 59.5v170zM782 1748q0 26 10 49t27 40.5t40.5 27.5t49.5 10t49 -10t40.5 -27.5t27.5 -40.5t10 -49t-10 -49t-27.5 -40.5t-40.5 -27.5t-49 -10t-49.5 10t-40.5 27.5t-27 40.5t-10 49z" />
    <glyph glyph-name="uni1471" unicode="&#x1471;" horiz-adv-x="1165" 
d="M753 1434h312v-991q0 -92 -36.5 -172.5t-101 -140.5t-153 -95t-191.5 -35q-108 0 -197 35t-152.5 95t-98.5 140.5t-35 172.5q0 91 34.5 171.5t97.5 140.5t152 95t199 35h170v549zM753 613h-172q-33 0 -63.5 -12t-54 -34.5t-37.5 -53.5t-14 -70q0 -42 14.5 -73.5t38 -53.5
t54 -33t62.5 -11q40 0 72 15.5t54.5 40.5t34 55.5t11.5 59.5v170zM782 1748q0 26 10 49t27 40.5t40.5 27.5t49.5 10t49 -10t40.5 -27.5t27.5 -40.5t10 -49t-10 -49t-27.5 -40.5t-40.5 -27.5t-49 -10t-49.5 10t-40.5 27.5t-27 40.5t-10 49zM428 1748q0 26 10 49t27 40.5
t40.5 27.5t49.5 10t49 -10t40.5 -27.5t27.5 -40.5t10 -49t-10 -49t-27.5 -40.5t-40.5 -27.5t-49 -10t-49.5 10t-40.5 27.5t-27 40.5t-10 49z" />
    <glyph glyph-name="uni1472" unicode="&#x1472;" horiz-adv-x="1165" 
d="M412 885h170q110 0 199 -35t152 -95t97.5 -140.5t34.5 -171.5q0 -92 -35 -172.5t-98.5 -140.5t-152.5 -95t-197 -35q-104 0 -192 35t-152.5 95t-101 140.5t-36.5 172.5v991h312v-549zM412 443q0 -33 11.5 -64t34 -55t54 -38t72.5 -14q32 0 62.5 11t54 33t38 53.5
t14.5 73.5q0 39 -14 70t-37.5 53.5t-54 34.5t-63.5 12h-172v-170z" />
    <glyph glyph-name="uni1473" unicode="&#x1473;" horiz-adv-x="1165" 
d="M412 885h170q110 0 199 -35t152 -95t97.5 -140.5t34.5 -171.5q0 -92 -35 -172.5t-98.5 -140.5t-152.5 -95t-197 -35q-104 0 -192 35t-152.5 95t-101 140.5t-36.5 172.5v991h312v-549zM412 443q0 -33 11.5 -64t34 -55t54 -38t72.5 -14q32 0 62.5 11t54 33t38 53.5
t14.5 73.5q0 39 -14 70t-37.5 53.5t-54 34.5t-63.5 12h-172v-170zM129 1748q0 26 10 49t27 40.5t40.5 27.5t49.5 10t49 -10t40.5 -27.5t27.5 -40.5t10 -49t-10 -49t-27.5 -40.5t-40.5 -27.5t-49 -10t-49.5 10t-40.5 27.5t-27 40.5t-10 49z" />
    <glyph glyph-name="uni1474" unicode="&#x1474;" horiz-adv-x="1399" 
d="M987 549h-170q-110 0 -199 34.5t-152 94.5t-97.5 140.5t-34.5 172.5q0 91 35 172t98.5 141t152.5 95t197 35q103 0 191.5 -35t153 -95t101 -141t36.5 -172v-991h-312v549zM987 991q0 33 -12 64t-34 55t-54 38t-72 14q-32 0 -62.5 -11t-54 -33t-38 -53.5t-14.5 -73.5
q0 -39 14 -70t37.5 -53.5t54 -34.5t63.5 -12h172v170zM10 717q0 26 10 49t27 40.5t40.5 27.5t49.5 10t49 -10t40.5 -27.5t27.5 -40.5t10 -49t-10 -49t-27.5 -40.5t-40.5 -27.5t-49 -10t-49.5 10t-40.5 27.5t-27 40.5t-10 49z" />
    <glyph glyph-name="uni1475" unicode="&#x1475;" horiz-adv-x="1399" 
d="M753 549h-170q-110 0 -199 34.5t-152 94.5t-97.5 140.5t-34.5 172.5q0 91 35 172t98.5 141t152.5 95t197 35q103 0 191.5 -35t153 -95t101 -141t36.5 -172v-991h-312v549zM753 991q0 33 -12 64t-34 55t-54 38t-72 14q-32 0 -62.5 -11t-54 -33t-38 -53.5t-14.5 -73.5
q0 -39 14 -70t37.5 -53.5t54 -34.5t63.5 -12h172v170zM1135 717q0 26 10 49t27 40.5t40.5 27.5t49.5 10t49 -10t40.5 -27.5t27.5 -40.5t10 -49t-10 -49t-27.5 -40.5t-40.5 -27.5t-49 -10t-49.5 10t-40.5 27.5t-27 40.5t-10 49z" />
    <glyph glyph-name="uni1476" unicode="&#x1476;" horiz-adv-x="1399" 
d="M646 0h-312v991q0 91 36.5 172t101 141t152.5 95t192 35q108 0 197 -35t152.5 -95t98.5 -141t35 -172q0 -92 -34.5 -172.5t-97.5 -140.5t-152 -94.5t-199 -34.5h-170v-549zM646 821h172q33 0 63.5 12t54 34.5t37.5 53.5t14 70q0 42 -14.5 73.5t-38 53.5t-54 33t-62.5 11
q-41 0 -72.5 -14t-54 -38t-34 -55t-11.5 -64v-170zM10 717q0 26 10 49t27 40.5t40.5 27.5t49.5 10t49 -10t40.5 -27.5t27.5 -40.5t10 -49t-10 -49t-27.5 -40.5t-40.5 -27.5t-49 -10t-49.5 10t-40.5 27.5t-27 40.5t-10 49z" />
    <glyph glyph-name="uni1477" unicode="&#x1477;" horiz-adv-x="1399" 
d="M412 0h-312v991q0 91 36.5 172t101 141t152.5 95t192 35q108 0 197 -35t152.5 -95t98.5 -141t35 -172q0 -92 -34.5 -172.5t-97.5 -140.5t-152 -94.5t-199 -34.5h-170v-549zM412 821h172q33 0 63.5 12t54 34.5t37.5 53.5t14 70q0 42 -14.5 73.5t-38 53.5t-54 33t-62.5 11
q-41 0 -72.5 -14t-54 -38t-34 -55t-11.5 -64v-170zM1135 717q0 26 10 49t27 40.5t40.5 27.5t49.5 10t49 -10t40.5 -27.5t27.5 -40.5t10 -49t-10 -49t-27.5 -40.5t-40.5 -27.5t-49 -10t-49.5 10t-40.5 27.5t-27 40.5t-10 49z" />
    <glyph glyph-name="uni1478" unicode="&#x1478;" horiz-adv-x="1399" 
d="M646 0h-312v991q0 91 36.5 172t101 141t152.5 95t192 35q108 0 197 -35t152.5 -95t98.5 -141t35 -172q0 -92 -34.5 -172.5t-97.5 -140.5t-152 -94.5t-199 -34.5h-170v-549zM646 821h172q33 0 63.5 12t54 34.5t37.5 53.5t14 70q0 42 -14.5 73.5t-38 53.5t-54 33t-62.5 11
q-41 0 -72.5 -14t-54 -38t-34 -55t-11.5 -64v-170zM10 717q0 26 10 49t27 40.5t40.5 27.5t49.5 10t49 -10t40.5 -27.5t27.5 -40.5t10 -49t-10 -49t-27.5 -40.5t-40.5 -27.5t-49 -10t-49.5 10t-40.5 27.5t-27 40.5t-10 49zM689 1748q0 26 10 49t27 40.5t40.5 27.5t49.5 10
t49 -10t40.5 -27.5t27.5 -40.5t10 -49t-10 -49t-27.5 -40.5t-40.5 -27.5t-49 -10t-49.5 10t-40.5 27.5t-27 40.5t-10 49z" />
    <glyph glyph-name="uni1479" unicode="&#x1479;" horiz-adv-x="1399" 
d="M412 0h-312v991q0 91 36.5 172t101 141t152.5 95t192 35q108 0 197 -35t152.5 -95t98.5 -141t35 -172q0 -92 -34.5 -172.5t-97.5 -140.5t-152 -94.5t-199 -34.5h-170v-549zM412 821h172q33 0 63.5 12t54 34.5t37.5 53.5t14 70q0 42 -14.5 73.5t-38 53.5t-54 33t-62.5 11
q-41 0 -72.5 -14t-54 -38t-34 -55t-11.5 -64v-170zM1135 717q0 26 10 49t27 40.5t40.5 27.5t49.5 10t49 -10t40.5 -27.5t27.5 -40.5t10 -49t-10 -49t-27.5 -40.5t-40.5 -27.5t-49 -10t-49.5 10t-40.5 27.5t-27 40.5t-10 49zM455 1748q0 26 10 49t27 40.5t40.5 27.5t49.5 10
t49 -10t40.5 -27.5t27.5 -40.5t10 -49t-10 -49t-27.5 -40.5t-40.5 -27.5t-49 -10t-49.5 10t-40.5 27.5t-27 40.5t-10 49z" />
    <glyph glyph-name="uni147A" unicode="&#x147a;" horiz-adv-x="1399" 
d="M987 1434h312v-991q0 -92 -36.5 -172.5t-101 -140.5t-153 -95t-191.5 -35q-108 0 -197 35t-152.5 95t-98.5 140.5t-35 172.5q0 91 34.5 171.5t97.5 140.5t152 95t199 35h170v549zM987 613h-172q-33 0 -63.5 -12t-54 -34.5t-37.5 -53.5t-14 -70q0 -42 14.5 -73.5t38 -53.5
t54 -33t62.5 -11q40 0 72 15.5t54.5 40.5t34 55.5t11.5 59.5v170zM10 717q0 26 10 49t27 40.5t40.5 27.5t49.5 10t49 -10t40.5 -27.5t27.5 -40.5t10 -49t-10 -49t-27.5 -40.5t-40.5 -27.5t-49 -10t-49.5 10t-40.5 27.5t-27 40.5t-10 49z" />
    <glyph glyph-name="uni147B" unicode="&#x147b;" horiz-adv-x="1399" 
d="M753 1434h312v-991q0 -92 -36.5 -172.5t-101 -140.5t-153 -95t-191.5 -35q-108 0 -197 35t-152.5 95t-98.5 140.5t-35 172.5q0 91 34.5 171.5t97.5 140.5t152 95t199 35h170v549zM753 613h-172q-33 0 -63.5 -12t-54 -34.5t-37.5 -53.5t-14 -70q0 -42 14.5 -73.5t38 -53.5
t54 -33t62.5 -11q40 0 72 15.5t54.5 40.5t34 55.5t11.5 59.5v170zM1135 717q0 26 10 49t27 40.5t40.5 27.5t49.5 10t49 -10t40.5 -27.5t27.5 -40.5t10 -49t-10 -49t-27.5 -40.5t-40.5 -27.5t-49 -10t-49.5 10t-40.5 27.5t-27 40.5t-10 49z" />
    <glyph glyph-name="uni147C" unicode="&#x147c;" horiz-adv-x="1399" 
d="M987 1434h312v-991q0 -92 -36.5 -172.5t-101 -140.5t-153 -95t-191.5 -35q-108 0 -197 35t-152.5 95t-98.5 140.5t-35 172.5q0 91 34.5 171.5t97.5 140.5t152 95t199 35h170v549zM987 613h-172q-33 0 -63.5 -12t-54 -34.5t-37.5 -53.5t-14 -70q0 -42 14.5 -73.5t38 -53.5
t54 -33t62.5 -11q40 0 72 15.5t54.5 40.5t34 55.5t11.5 59.5v170zM10 717q0 26 10 49t27 40.5t40.5 27.5t49.5 10t49 -10t40.5 -27.5t27.5 -40.5t10 -49t-10 -49t-27.5 -40.5t-40.5 -27.5t-49 -10t-49.5 10t-40.5 27.5t-27 40.5t-10 49zM1016 1748q0 26 10 49t27 40.5
t40.5 27.5t49.5 10t49 -10t40.5 -27.5t27.5 -40.5t10 -49t-10 -49t-27.5 -40.5t-40.5 -27.5t-49 -10t-49.5 10t-40.5 27.5t-27 40.5t-10 49z" />
    <glyph glyph-name="uni147D" unicode="&#x147d;" horiz-adv-x="1399" 
d="M753 1434h312v-991q0 -92 -36.5 -172.5t-101 -140.5t-153 -95t-191.5 -35q-108 0 -197 35t-152.5 95t-98.5 140.5t-35 172.5q0 91 34.5 171.5t97.5 140.5t152 95t199 35h170v549zM753 613h-172q-33 0 -63.5 -12t-54 -34.5t-37.5 -53.5t-14 -70q0 -42 14.5 -73.5t38 -53.5
t54 -33t62.5 -11q40 0 72 15.5t54.5 40.5t34 55.5t11.5 59.5v170zM1135 717q0 26 10 49t27 40.5t40.5 27.5t49.5 10t49 -10t40.5 -27.5t27.5 -40.5t10 -49t-10 -49t-27.5 -40.5t-40.5 -27.5t-49 -10t-49.5 10t-40.5 27.5t-27 40.5t-10 49zM782 1748q0 26 10 49t27 40.5
t40.5 27.5t49.5 10t49 -10t40.5 -27.5t27.5 -40.5t10 -49t-10 -49t-27.5 -40.5t-40.5 -27.5t-49 -10t-49.5 10t-40.5 27.5t-27 40.5t-10 49z" />
    <glyph glyph-name="uni147E" unicode="&#x147e;" horiz-adv-x="1399" 
d="M646 885h170q110 0 199 -35t152 -95t97.5 -140.5t34.5 -171.5q0 -92 -35 -172.5t-98.5 -140.5t-152.5 -95t-197 -35q-104 0 -192 35t-152.5 95t-101 140.5t-36.5 172.5v991h312v-549zM646 443q0 -33 11.5 -64t34 -55t54 -38t72.5 -14q32 0 62.5 11t54 33t38 53.5
t14.5 73.5q0 39 -14 70t-37.5 53.5t-54 34.5t-63.5 12h-172v-170zM10 717q0 26 10 49t27 40.5t40.5 27.5t49.5 10t49 -10t40.5 -27.5t27.5 -40.5t10 -49t-10 -49t-27.5 -40.5t-40.5 -27.5t-49 -10t-49.5 10t-40.5 27.5t-27 40.5t-10 49z" />
    <glyph glyph-name="uni147F" unicode="&#x147f;" horiz-adv-x="1399" 
d="M412 885h170q110 0 199 -35t152 -95t97.5 -140.5t34.5 -171.5q0 -92 -35 -172.5t-98.5 -140.5t-152.5 -95t-197 -35q-104 0 -192 35t-152.5 95t-101 140.5t-36.5 172.5v991h312v-549zM412 443q0 -33 11.5 -64t34 -55t54 -38t72.5 -14q32 0 62.5 11t54 33t38 53.5
t14.5 73.5q0 39 -14 70t-37.5 53.5t-54 34.5t-63.5 12h-172v-170zM1135 717q0 26 10 49t27 40.5t40.5 27.5t49.5 10t49 -10t40.5 -27.5t27.5 -40.5t10 -49t-10 -49t-27.5 -40.5t-40.5 -27.5t-49 -10t-49.5 10t-40.5 27.5t-27 40.5t-10 49z" />
    <glyph glyph-name="uni1480" unicode="&#x1480;" horiz-adv-x="1399" 
d="M646 885h170q110 0 199 -35t152 -95t97.5 -140.5t34.5 -171.5q0 -92 -35 -172.5t-98.5 -140.5t-152.5 -95t-197 -35q-104 0 -192 35t-152.5 95t-101 140.5t-36.5 172.5v991h312v-549zM646 443q0 -33 11.5 -64t34 -55t54 -38t72.5 -14q32 0 62.5 11t54 33t38 53.5
t14.5 73.5q0 39 -14 70t-37.5 53.5t-54 34.5t-63.5 12h-172v-170zM10 717q0 26 10 49t27 40.5t40.5 27.5t49.5 10t49 -10t40.5 -27.5t27.5 -40.5t10 -49t-10 -49t-27.5 -40.5t-40.5 -27.5t-49 -10t-49.5 10t-40.5 27.5t-27 40.5t-10 49zM363 1748q0 26 10 49t27 40.5
t40.5 27.5t49.5 10t49 -10t40.5 -27.5t27.5 -40.5t10 -49t-10 -49t-27.5 -40.5t-40.5 -27.5t-49 -10t-49.5 10t-40.5 27.5t-27 40.5t-10 49z" />
    <glyph glyph-name="uni1481" unicode="&#x1481;" horiz-adv-x="1399" 
d="M412 885h170q110 0 199 -35t152 -95t97.5 -140.5t34.5 -171.5q0 -92 -35 -172.5t-98.5 -140.5t-152.5 -95t-197 -35q-104 0 -192 35t-152.5 95t-101 140.5t-36.5 172.5v991h312v-549zM412 443q0 -33 11.5 -64t34 -55t54 -38t72.5 -14q32 0 62.5 11t54 33t38 53.5
t14.5 73.5q0 39 -14 70t-37.5 53.5t-54 34.5t-63.5 12h-172v-170zM1135 717q0 26 10 49t27 40.5t40.5 27.5t49.5 10t49 -10t40.5 -27.5t27.5 -40.5t10 -49t-10 -49t-27.5 -40.5t-40.5 -27.5t-49 -10t-49.5 10t-40.5 27.5t-27 40.5t-10 49zM129 1748q0 26 10 49t27 40.5
t40.5 27.5t49.5 10t49 -10t40.5 -27.5t27.5 -40.5t10 -49t-10 -49t-27.5 -40.5t-40.5 -27.5t-49 -10t-49.5 10t-40.5 27.5t-27 40.5t-10 49z" />
    <glyph glyph-name="uni1482" unicode="&#x1482;" horiz-adv-x="1399" 
d="M646 885h170q110 0 199 -35t152 -95t97.5 -140.5t34.5 -171.5q0 -92 -35 -172.5t-98.5 -140.5t-152.5 -95t-197 -35q-104 0 -192 35t-152.5 95t-101 140.5t-36.5 172.5v991h312v-549zM646 443q0 -33 11.5 -64t34 -55t54 -38t72.5 -14q32 0 62.5 11t54 33t38 53.5
t14.5 73.5q0 39 -14 70t-37.5 53.5t-54 34.5t-63.5 12h-172v-170zM10 1077q0 26 10 49t27 40.5t40.5 27.5t49.5 10t49 -10t40.5 -27.5t27.5 -40.5t10 -49t-10 -49t-27.5 -40.5t-40.5 -27.5t-49 -10t-49.5 10t-40.5 27.5t-27 40.5t-10 49zM10 360q0 26 10 49t27 40.5
t40.5 27.5t49.5 10t49 -10t40.5 -27.5t27.5 -40.5t10 -49t-10 -49t-27.5 -40.5t-40.5 -27.5t-49 -10t-49.5 10t-40.5 27.5t-27 40.5t-10 49z" />
    <glyph glyph-name="uni1483" unicode="&#x1483;" horiz-adv-x="682" 
d="M264 1179h77q58 0 103 -20.5t75.5 -54.5t46.5 -77t16 -89t-18.5 -86t-51 -70t-76.5 -47.5t-95 -17.5t-95 16.5t-76.5 46t-51 70t-18.5 88.5v496h164v-255zM264 938q0 -32 19.5 -54.5t58.5 -22.5q21 0 35.5 8t23.5 20t13 26.5t4 27.5q0 25 -4 39.5t-13 26.5t-23.5 19
t-35.5 7h-78v-97z" />
    <glyph glyph-name="uni1484" unicode="&#x1484;" horiz-adv-x="682" 
d="M418 1434h164v-496q0 -48 -18.5 -88.5t-51 -70t-76.5 -46t-95 -16.5t-95 17.5t-76.5 47.5t-51 70t-18.5 86t16 89t46.5 77t75.5 54.5t103 20.5h77v255zM418 1035h-78q-21 0 -35.5 -7t-23.5 -19t-13 -26.5t-4 -39.5q0 -13 4 -27.5t13 -26.5t23.5 -20t35.5 -8
q39 0 58.5 22.5t19.5 54.5v97z" />
    <glyph glyph-name="uni1485" unicode="&#x1485;" horiz-adv-x="1389" 
d="M753 549h-170q-110 0 -199 34.5t-152 94.5t-97.5 140.5t-34.5 172.5q0 91 35 172t98.5 141t152.5 95t197 35q103 0 191.5 -35t153 -95t101 -141t36.5 -172v-991h-312v549zM753 991q0 33 -12 64t-34 55t-54 38t-72 14q-32 0 -62.5 -11t-54 -33t-38 -53.5t-14.5 -73.5
q0 -39 14 -70t37.5 -53.5t54 -34.5t63.5 -12h172v170zM1165 717v717h124v-717h-124z" />
    <glyph glyph-name="uni1486" unicode="&#x1486;" horiz-adv-x="1389" 
d="M412 0h-312v991q0 91 36.5 172t101 141t152.5 95t192 35q108 0 197 -35t152.5 -95t98.5 -141t35 -172q0 -92 -34.5 -172.5t-97.5 -140.5t-152 -94.5t-199 -34.5h-170v-549zM412 821h172q33 0 63.5 12t54 34.5t37.5 53.5t14 70q0 42 -14.5 73.5t-38 53.5t-54 33t-62.5 11
q-41 0 -72.5 -14t-54 -38t-34 -55t-11.5 -64v-170zM1165 717v717h124v-717h-124z" />
    <glyph glyph-name="uni1487" unicode="&#x1487;" horiz-adv-x="1389" 
d="M753 1434h312v-991q0 -92 -36.5 -172.5t-101 -140.5t-153 -95t-191.5 -35q-108 0 -197 35t-152.5 95t-98.5 140.5t-35 172.5q0 91 34.5 171.5t97.5 140.5t152 95t199 35h170v549zM753 613h-172q-33 0 -63.5 -12t-54 -34.5t-37.5 -53.5t-14 -70q0 -42 14.5 -73.5t38 -53.5
t54 -33t62.5 -11q40 0 72 15.5t54.5 40.5t34 55.5t11.5 59.5v170zM1165 717v717h124v-717h-124z" />
    <glyph glyph-name="uni1488" unicode="&#x1488;" horiz-adv-x="1389" 
d="M412 885h170q110 0 199 -35t152 -95t97.5 -140.5t34.5 -171.5q0 -92 -35 -172.5t-98.5 -140.5t-152.5 -95t-197 -35q-104 0 -192 35t-152.5 95t-101 140.5t-36.5 172.5v991h312v-549zM412 443q0 -33 11.5 -64t34 -55t54 -38t72.5 -14q32 0 62.5 11t54 33t38 53.5
t14.5 73.5q0 39 -14 70t-37.5 53.5t-54 34.5t-63.5 12h-172v-170zM1165 717v717h124v-717h-124z" />
    <glyph glyph-name="uni1489" unicode="&#x1489;" horiz-adv-x="1245" 
d="M412 936v-70h-312v70q0 123 38.5 216t108 155.5t165.5 94.5t211 32q109 0 204.5 -32t166 -94.5t111 -155.5t40.5 -216v-936h-312v936q0 45 -14 85.5t-41 72t-66.5 50t-90.5 18.5q-50 0 -88.5 -18.5t-65.5 -50t-41 -72t-14 -85.5z" />
    <glyph glyph-name="uni148A" unicode="&#x148a;" horiz-adv-x="1245" 
d="M833 936q0 45 -14 85.5t-41 72t-66 50t-88 18.5q-51 0 -90.5 -18.5t-66.5 -50t-41 -72t-14 -85.5v-936h-312v936q0 123 40.5 216t111 155.5t166 94.5t204.5 32q115 0 211 -32t165.5 -94.5t108 -155.5t38.5 -216v-70h-312v70zM531 1746q0 -38 26.5 -64.5t64.5 -26.5
t64.5 26.5t26.5 64.5t-26.5 65t-64.5 27t-64.5 -27t-26.5 -65zM410 1749q0 43 17 81t45.5 66.5t67 45t81.5 16.5t81.5 -16.5t68 -45t46.5 -66.5t17 -81t-17 -82t-46.5 -68.5t-68 -47t-81.5 -17.5t-81.5 17.5t-67 47t-45.5 68.5t-17 82z" />
    <glyph glyph-name="uni148B" unicode="&#x148b;" horiz-adv-x="1245" 
d="M833 936q0 45 -14 85.5t-41 72t-66 50t-88 18.5q-51 0 -90.5 -18.5t-66.5 -50t-41 -72t-14 -85.5v-936h-312v936q0 123 40.5 216t111 155.5t166 94.5t204.5 32q115 0 211 -32t165.5 -94.5t108 -155.5t38.5 -216v-70h-312v70z" />
    <glyph glyph-name="uni148C" unicode="&#x148c;" horiz-adv-x="1245" 
d="M833 936q0 45 -14 85.5t-41 72t-66 50t-88 18.5q-51 0 -90.5 -18.5t-66.5 -50t-41 -72t-14 -85.5v-936h-312v936q0 123 40.5 216t111 155.5t166 94.5t204.5 32q115 0 211 -32t165.5 -94.5t108 -155.5t38.5 -216v-70h-312v70zM494 1748q0 26 10 49t27 40.5t40.5 27.5
t49.5 10t49 -10t40.5 -27.5t27.5 -40.5t10 -49t-10 -49t-27.5 -40.5t-40.5 -27.5t-49 -10t-49.5 10t-40.5 27.5t-27 40.5t-10 49z" />
    <glyph glyph-name="uni148D" unicode="&#x148d;" horiz-adv-x="1245" 
d="M412 498q0 -45 14 -85.5t41 -72t65.5 -50t88.5 -18.5q51 0 90.5 18.5t66.5 50t41 72t14 85.5v936h312v-936q0 -123 -40.5 -216t-111 -155.5t-166 -94.5t-204.5 -32q-115 0 -211 32t-165.5 94.5t-108 155.5t-38.5 216v70h312v-70z" />
    <glyph glyph-name="uni148E" unicode="&#x148e;" horiz-adv-x="1245" 
d="M412 498q0 -45 14 -85.5t41 -72t65.5 -50t88.5 -18.5q51 0 90.5 18.5t66.5 50t41 72t14 85.5v936h312v-936q0 -123 -40.5 -216t-111 -155.5t-166 -94.5t-204.5 -32q-115 0 -211 32t-165.5 94.5t-108 155.5t-38.5 216v70h312v-70zM862 1748q0 26 10 49t27 40.5t40.5 27.5
t49.5 10t49 -10t40.5 -27.5t27.5 -40.5t10 -49t-10 -49t-27.5 -40.5t-40.5 -27.5t-49 -10t-49.5 10t-40.5 27.5t-27 40.5t-10 49z" />
    <glyph glyph-name="uni148F" unicode="&#x148f;" horiz-adv-x="1245" 
d="M412 498q0 -45 14 -85.5t41 -72t65.5 -50t88.5 -18.5q51 0 90.5 18.5t66.5 50t41 72t14 85.5v936h312v-936q0 -123 -40.5 -216t-111 -155.5t-166 -94.5t-204.5 -32q-115 0 -211 32t-165.5 94.5t-108 155.5t-38.5 216v70h312v-70zM862 1748q0 26 10 49t27 40.5t40.5 27.5
t49.5 10t49 -10t40.5 -27.5t27.5 -40.5t10 -49t-10 -49t-27.5 -40.5t-40.5 -27.5t-49 -10t-49.5 10t-40.5 27.5t-27 40.5t-10 49zM429 1748q0 26 10 49t27 40.5t40.5 27.5t49.5 10t49 -10t40.5 -27.5t27.5 -40.5t10 -49t-10 -49t-27.5 -40.5t-40.5 -27.5t-49 -10t-49.5 10
t-40.5 27.5t-27 40.5t-10 49z" />
    <glyph glyph-name="uni1490" unicode="&#x1490;" horiz-adv-x="1245" 
d="M833 568h312v-70q0 -123 -38.5 -216t-108 -155.5t-165.5 -94.5t-211 -32q-109 0 -204.5 32t-166 94.5t-111 155.5t-40.5 216v936h312v-936q0 -45 14 -85.5t41 -72t66.5 -50t90.5 -18.5q49 0 88 18.5t66 50t41 72t14 85.5v70z" />
    <glyph glyph-name="uni1491" unicode="&#x1491;" horiz-adv-x="1245" 
d="M833 568h312v-70q0 -123 -38.5 -216t-108 -155.5t-165.5 -94.5t-211 -32q-109 0 -204.5 32t-166 94.5t-111 155.5t-40.5 216v936h312v-936q0 -45 14 -85.5t41 -72t66.5 -50t90.5 -18.5q49 0 88 18.5t66 50t41 72t14 85.5v70zM128 1748q0 26 10 49t27 40.5t40.5 27.5
t49.5 10t49 -10t40.5 -27.5t27.5 -40.5t10 -49t-10 -49t-27.5 -40.5t-40.5 -27.5t-49 -10t-49.5 10t-40.5 27.5t-27 40.5t-10 49z" />
    <glyph glyph-name="uni1492" unicode="&#x1492;" horiz-adv-x="1479" 
d="M646 936v-70h-312v70q0 123 38.5 216t108 155.5t165.5 94.5t211 32q109 0 204.5 -32t166 -94.5t111 -155.5t40.5 -216v-936h-312v936q0 45 -14 85.5t-41 72t-66.5 50t-90.5 18.5q-50 0 -88.5 -18.5t-65.5 -50t-41 -72t-14 -85.5zM10 717q0 26 10 49t27 40.5t40.5 27.5
t49.5 10t49 -10t40.5 -27.5t27.5 -40.5t10 -49t-10 -49t-27.5 -40.5t-40.5 -27.5t-49 -10t-49.5 10t-40.5 27.5t-27 40.5t-10 49z" />
    <glyph glyph-name="uni1493" unicode="&#x1493;" horiz-adv-x="1479" 
d="M412 936v-70h-312v70q0 123 38.5 216t108 155.5t165.5 94.5t211 32q109 0 204.5 -32t166 -94.5t111 -155.5t40.5 -216v-936h-312v936q0 45 -14 85.5t-41 72t-66.5 50t-90.5 18.5q-50 0 -88.5 -18.5t-65.5 -50t-41 -72t-14 -85.5zM1215 717q0 26 10 49t27 40.5t40.5 27.5
t49.5 10t49 -10t40.5 -27.5t27.5 -40.5t10 -49t-10 -49t-27.5 -40.5t-40.5 -27.5t-49 -10t-49.5 10t-40.5 27.5t-27 40.5t-10 49z" />
    <glyph glyph-name="uni1494" unicode="&#x1494;" horiz-adv-x="1479" 
d="M1067 936q0 45 -14 85.5t-41 72t-66 50t-88 18.5q-51 0 -90.5 -18.5t-66.5 -50t-41 -72t-14 -85.5v-936h-312v936q0 123 40.5 216t111 155.5t166 94.5t204.5 32q115 0 211 -32t165.5 -94.5t108 -155.5t38.5 -216v-70h-312v70zM10 717q0 26 10 49t27 40.5t40.5 27.5
t49.5 10t49 -10t40.5 -27.5t27.5 -40.5t10 -49t-10 -49t-27.5 -40.5t-40.5 -27.5t-49 -10t-49.5 10t-40.5 27.5t-27 40.5t-10 49z" />
    <glyph glyph-name="uni1495" unicode="&#x1495;" horiz-adv-x="1479" 
d="M833 936q0 45 -14 85.5t-41 72t-66 50t-88 18.5q-51 0 -90.5 -18.5t-66.5 -50t-41 -72t-14 -85.5v-936h-312v936q0 123 40.5 216t111 155.5t166 94.5t204.5 32q115 0 211 -32t165.5 -94.5t108 -155.5t38.5 -216v-70h-312v70zM1215 717q0 26 10 49t27 40.5t40.5 27.5
t49.5 10t49 -10t40.5 -27.5t27.5 -40.5t10 -49t-10 -49t-27.5 -40.5t-40.5 -27.5t-49 -10t-49.5 10t-40.5 27.5t-27 40.5t-10 49z" />
    <glyph glyph-name="uni1496" unicode="&#x1496;" horiz-adv-x="1479" 
d="M1067 936q0 45 -14 85.5t-41 72t-66 50t-88 18.5q-51 0 -90.5 -18.5t-66.5 -50t-41 -72t-14 -85.5v-936h-312v936q0 123 40.5 216t111 155.5t166 94.5t204.5 32q115 0 211 -32t165.5 -94.5t108 -155.5t38.5 -216v-70h-312v70zM10 717q0 26 10 49t27 40.5t40.5 27.5
t49.5 10t49 -10t40.5 -27.5t27.5 -40.5t10 -49t-10 -49t-27.5 -40.5t-40.5 -27.5t-49 -10t-49.5 10t-40.5 27.5t-27 40.5t-10 49zM728 1748q0 26 10 49t27 40.5t40.5 27.5t49.5 10t49 -10t40.5 -27.5t27.5 -40.5t10 -49t-10 -49t-27.5 -40.5t-40.5 -27.5t-49 -10t-49.5 10
t-40.5 27.5t-27 40.5t-10 49z" />
    <glyph glyph-name="uni1497" unicode="&#x1497;" horiz-adv-x="1479" 
d="M833 936q0 45 -14 85.5t-41 72t-66 50t-88 18.5q-51 0 -90.5 -18.5t-66.5 -50t-41 -72t-14 -85.5v-936h-312v936q0 123 40.5 216t111 155.5t166 94.5t204.5 32q115 0 211 -32t165.5 -94.5t108 -155.5t38.5 -216v-70h-312v70zM1215 717q0 26 10 49t27 40.5t40.5 27.5
t49.5 10t49 -10t40.5 -27.5t27.5 -40.5t10 -49t-10 -49t-27.5 -40.5t-40.5 -27.5t-49 -10t-49.5 10t-40.5 27.5t-27 40.5t-10 49zM494 1748q0 26 10 49t27 40.5t40.5 27.5t49.5 10t49 -10t40.5 -27.5t27.5 -40.5t10 -49t-10 -49t-27.5 -40.5t-40.5 -27.5t-49 -10t-49.5 10
t-40.5 27.5t-27 40.5t-10 49z" />
    <glyph glyph-name="uni1498" unicode="&#x1498;" horiz-adv-x="1479" 
d="M646 498q0 -45 14 -85.5t41 -72t65.5 -50t88.5 -18.5q51 0 90.5 18.5t66.5 50t41 72t14 85.5v936h312v-936q0 -123 -40.5 -216t-111 -155.5t-166 -94.5t-204.5 -32q-115 0 -211 32t-165.5 94.5t-108 155.5t-38.5 216v70h312v-70zM10 717q0 26 10 49t27 40.5t40.5 27.5
t49.5 10t49 -10t40.5 -27.5t27.5 -40.5t10 -49t-10 -49t-27.5 -40.5t-40.5 -27.5t-49 -10t-49.5 10t-40.5 27.5t-27 40.5t-10 49z" />
    <glyph glyph-name="uni1499" unicode="&#x1499;" horiz-adv-x="1479" 
d="M412 498q0 -45 14 -85.5t41 -72t65.5 -50t88.5 -18.5q51 0 90.5 18.5t66.5 50t41 72t14 85.5v936h312v-936q0 -123 -40.5 -216t-111 -155.5t-166 -94.5t-204.5 -32q-115 0 -211 32t-165.5 94.5t-108 155.5t-38.5 216v70h312v-70zM1215 717q0 26 10 49t27 40.5t40.5 27.5
t49.5 10t49 -10t40.5 -27.5t27.5 -40.5t10 -49t-10 -49t-27.5 -40.5t-40.5 -27.5t-49 -10t-49.5 10t-40.5 27.5t-27 40.5t-10 49z" />
    <glyph glyph-name="uni149A" unicode="&#x149a;" horiz-adv-x="1479" 
d="M646 498q0 -45 14 -85.5t41 -72t65.5 -50t88.5 -18.5q51 0 90.5 18.5t66.5 50t41 72t14 85.5v936h312v-936q0 -123 -40.5 -216t-111 -155.5t-166 -94.5t-204.5 -32q-115 0 -211 32t-165.5 94.5t-108 155.5t-38.5 216v70h312v-70zM10 717q0 26 10 49t27 40.5t40.5 27.5
t49.5 10t49 -10t40.5 -27.5t27.5 -40.5t10 -49t-10 -49t-27.5 -40.5t-40.5 -27.5t-49 -10t-49.5 10t-40.5 27.5t-27 40.5t-10 49zM1096 1748q0 26 10 49t27 40.5t40.5 27.5t49.5 10t49 -10t40.5 -27.5t27.5 -40.5t10 -49t-10 -49t-27.5 -40.5t-40.5 -27.5t-49 -10t-49.5 10
t-40.5 27.5t-27 40.5t-10 49z" />
    <glyph glyph-name="uni149B" unicode="&#x149b;" horiz-adv-x="1479" 
d="M412 498q0 -45 14 -85.5t41 -72t65.5 -50t88.5 -18.5q51 0 90.5 18.5t66.5 50t41 72t14 85.5v936h312v-936q0 -123 -40.5 -216t-111 -155.5t-166 -94.5t-204.5 -32q-115 0 -211 32t-165.5 94.5t-108 155.5t-38.5 216v70h312v-70zM1215 717q0 26 10 49t27 40.5t40.5 27.5
t49.5 10t49 -10t40.5 -27.5t27.5 -40.5t10 -49t-10 -49t-27.5 -40.5t-40.5 -27.5t-49 -10t-49.5 10t-40.5 27.5t-27 40.5t-10 49zM862 1748q0 26 10 49t27 40.5t40.5 27.5t49.5 10t49 -10t40.5 -27.5t27.5 -40.5t10 -49t-10 -49t-27.5 -40.5t-40.5 -27.5t-49 -10t-49.5 10
t-40.5 27.5t-27 40.5t-10 49z" />
    <glyph glyph-name="uni149C" unicode="&#x149c;" horiz-adv-x="1479" 
d="M1068 568h312v-70q0 -123 -38.5 -216t-108 -155.5t-165.5 -94.5t-211 -32q-109 0 -204.5 32t-166 94.5t-111 155.5t-40.5 216v936h312v-936q0 -45 14 -85.5t41 -72t66.5 -50t90.5 -18.5q49 0 88 18.5t66 50t41 72t14 85.5v70zM10 717q0 26 10 49t27 40.5t40.5 27.5
t49.5 10t49 -10t40.5 -27.5t27.5 -40.5t10 -49t-10 -49t-27.5 -40.5t-40.5 -27.5t-49 -10t-49.5 10t-40.5 27.5t-27 40.5t-10 49z" />
    <glyph glyph-name="uni149D" unicode="&#x149d;" horiz-adv-x="1479" 
d="M833 568h312v-70q0 -123 -38.5 -216t-108 -155.5t-165.5 -94.5t-211 -32q-109 0 -204.5 32t-166 94.5t-111 155.5t-40.5 216v936h312v-936q0 -45 14 -85.5t41 -72t66.5 -50t90.5 -18.5q49 0 88 18.5t66 50t41 72t14 85.5v70zM1215 717q0 26 10 49t27 40.5t40.5 27.5
t49.5 10t49 -10t40.5 -27.5t27.5 -40.5t10 -49t-10 -49t-27.5 -40.5t-40.5 -27.5t-49 -10t-49.5 10t-40.5 27.5t-27 40.5t-10 49z" />
    <glyph glyph-name="uni149E" unicode="&#x149e;" horiz-adv-x="1479" 
d="M1067 568h312v-70q0 -123 -38.5 -216t-108 -155.5t-165.5 -94.5t-211 -32q-109 0 -204.5 32t-166 94.5t-111 155.5t-40.5 216v936h312v-936q0 -45 14 -85.5t41 -72t66.5 -50t90.5 -18.5q49 0 88 18.5t66 50t41 72t14 85.5v70zM10 717q0 26 10 49t27 40.5t40.5 27.5
t49.5 10t49 -10t40.5 -27.5t27.5 -40.5t10 -49t-10 -49t-27.5 -40.5t-40.5 -27.5t-49 -10t-49.5 10t-40.5 27.5t-27 40.5t-10 49zM362 1748q0 26 10 49t27 40.5t40.5 27.5t49.5 10t49 -10t40.5 -27.5t27.5 -40.5t10 -49t-10 -49t-27.5 -40.5t-40.5 -27.5t-49 -10t-49.5 10
t-40.5 27.5t-27 40.5t-10 49z" />
    <glyph glyph-name="uni149F" unicode="&#x149f;" horiz-adv-x="1479" 
d="M833 568h312v-70q0 -123 -38.5 -216t-108 -155.5t-165.5 -94.5t-211 -32q-109 0 -204.5 32t-166 94.5t-111 155.5t-40.5 216v936h312v-936q0 -45 14 -85.5t41 -72t66.5 -50t90.5 -18.5q49 0 88 18.5t66 50t41 72t14 85.5v70zM1215 717q0 26 10 49t27 40.5t40.5 27.5
t49.5 10t49 -10t40.5 -27.5t27.5 -40.5t10 -49t-10 -49t-27.5 -40.5t-40.5 -27.5t-49 -10t-49.5 10t-40.5 27.5t-27 40.5t-10 49zM128 1748q0 26 10 49t27 40.5t40.5 27.5t49.5 10t49 -10t40.5 -27.5t27.5 -40.5t10 -49t-10 -49t-27.5 -40.5t-40.5 -27.5t-49 -10t-49.5 10
t-40.5 27.5t-27 40.5t-10 49z" />
    <glyph glyph-name="uni14A0" unicode="&#x14a0;" horiz-adv-x="1479" 
d="M1067 568h312v-70q0 -123 -38.5 -216t-108 -155.5t-165.5 -94.5t-211 -32q-109 0 -204.5 32t-166 94.5t-111 155.5t-40.5 216v936h312v-936q0 -45 14 -85.5t41 -72t66.5 -50t90.5 -18.5q49 0 88 18.5t66 50t41 72t14 85.5v70zM10 1077q0 26 10 49t27 40.5t40.5 27.5
t49.5 10t49 -10t40.5 -27.5t27.5 -40.5t10 -49t-10 -49t-27.5 -40.5t-40.5 -27.5t-49 -10t-49.5 10t-40.5 27.5t-27 40.5t-10 49zM10 360q0 26 10 49t27 40.5t40.5 27.5t49.5 10t49 -10t40.5 -27.5t27.5 -40.5t10 -49t-10 -49t-27.5 -40.5t-40.5 -27.5t-49 -10t-49.5 10
t-40.5 27.5t-27 40.5t-10 49z" />
    <glyph glyph-name="uni14A1" unicode="&#x14a1;" horiz-adv-x="682" 
d="M418 938v41h164v-41q0 -46 -18.5 -86t-51 -70t-76.5 -47.5t-95 -17.5t-95 16.5t-76.5 46t-51 70t-18.5 88.5v496h164v-496q0 -32 19.5 -54.5t58.5 -22.5q21 0 35.5 7t23.5 18.5t13 25t4 26.5z" />
    <glyph glyph-name="uni14A2" unicode="&#x14a2;" horiz-adv-x="682" 
d="M264 938q0 -13 4 -26.5t13 -25t23.5 -18.5t35.5 -7q39 0 58.5 22.5t19.5 54.5v496h164v-496q0 -48 -18.5 -88.5t-51 -70t-76.5 -46t-95 -16.5t-95 17.5t-76.5 47.5t-51 70t-18.5 86v41h164v-41z" />
    <glyph glyph-name="uni14A3" unicode="&#x14a3;" horiz-adv-x="1185" 
d="M1085 1434v-1434h-316v1162h-669v272h985z" />
    <glyph glyph-name="uni14A4" unicode="&#x14a4;" horiz-adv-x="1185" 
d="M1085 1434v-272h-669v-1162h-316v1434h985zM501 1746q0 -38 26.5 -64.5t64.5 -26.5t64.5 26.5t26.5 64.5t-26.5 65t-64.5 27t-64.5 -27t-26.5 -65zM380 1749q0 43 17 81t45.5 66.5t67 45t81.5 16.5t81.5 -16.5t68 -45t46.5 -66.5t17 -81t-17 -82t-46.5 -68.5t-68 -47
t-81.5 -17.5t-81.5 17.5t-67 47t-45.5 68.5t-17 82z" />
    <glyph glyph-name="uni14A5" unicode="&#x14a5;" horiz-adv-x="1185" 
d="M1085 1434v-272h-669v-1162h-316v1434h985z" />
    <glyph glyph-name="uni14A6" unicode="&#x14a6;" horiz-adv-x="1185" 
d="M1085 1434v-272h-669v-1162h-316v1434h985zM465 1748q0 26 10 49t27 40.5t40.5 27.5t49.5 10t49 -10t40.5 -27.5t27.5 -40.5t10 -49t-10 -49t-27.5 -40.5t-40.5 -27.5t-49 -10t-49.5 10t-40.5 27.5t-27 40.5t-10 49z" />
    <glyph glyph-name="uni14A7" unicode="&#x14a7;" horiz-adv-x="1185" 
d="M100 0v272h669v1162h316v-1434h-985z" />
    <glyph glyph-name="uni14A8" unicode="&#x14a8;" horiz-adv-x="1185" 
d="M100 0v272h669v1162h316v-1434h-985zM800 1748q0 26 10 49t27 40.5t40.5 27.5t49.5 10t49 -10t40.5 -27.5t27.5 -40.5t10 -49t-10 -49t-27.5 -40.5t-40.5 -27.5t-49 -10t-49.5 10t-40.5 27.5t-27 40.5t-10 49z" />
    <glyph glyph-name="uni14A9" unicode="&#x14a9;" horiz-adv-x="1185" 
d="M100 0v272h669v1162h316v-1434h-985zM800 1748q0 26 10 49t27 40.5t40.5 27.5t49.5 10t49 -10t40.5 -27.5t27.5 -40.5t10 -49t-10 -49t-27.5 -40.5t-40.5 -27.5t-49 -10t-49.5 10t-40.5 27.5t-27 40.5t-10 49zM429 1748q0 26 10 49t27 40.5t40.5 27.5t49.5 10t49 -10
t40.5 -27.5t27.5 -40.5t10 -49t-10 -49t-27.5 -40.5t-40.5 -27.5t-49 -10t-49.5 10t-40.5 27.5t-27 40.5t-10 49z" />
    <glyph glyph-name="uni14AA" unicode="&#x14aa;" horiz-adv-x="1185" 
d="M100 0v1434h316v-1162h669v-272h-985z" />
    <glyph glyph-name="uni14AB" unicode="&#x14ab;" horiz-adv-x="1185" 
d="M100 0v1434h316v-1162h669v-272h-985zM131 1748q0 26 10 49t27 40.5t40.5 27.5t49.5 10t49 -10t40.5 -27.5t27.5 -40.5t10 -49t-10 -49t-27.5 -40.5t-40.5 -27.5t-49 -10t-49.5 10t-40.5 27.5t-27 40.5t-10 49z" />
    <glyph glyph-name="uni14AC" unicode="&#x14ac;" horiz-adv-x="1419" 
d="M1319 1434v-1434h-316v1162h-669v272h985zM10 717q0 26 10 49t27 40.5t40.5 27.5t49.5 10t49 -10t40.5 -27.5t27.5 -40.5t10 -49t-10 -49t-27.5 -40.5t-40.5 -27.5t-49 -10t-49.5 10t-40.5 27.5t-27 40.5t-10 49z" />
    <glyph glyph-name="uni14AD" unicode="&#x14ad;" horiz-adv-x="1419" 
d="M1085 1434v-1434h-316v1162h-669v272h985zM1155 717q0 26 10 49t27 40.5t40.5 27.5t49.5 10t49 -10t40.5 -27.5t27.5 -40.5t10 -49t-10 -49t-27.5 -40.5t-40.5 -27.5t-49 -10t-49.5 10t-40.5 27.5t-27 40.5t-10 49z" />
    <glyph glyph-name="uni14AE" unicode="&#x14ae;" horiz-adv-x="1419" 
d="M1319 1434v-272h-669v-1162h-316v1434h985zM10 717q0 26 10 49t27 40.5t40.5 27.5t49.5 10t49 -10t40.5 -27.5t27.5 -40.5t10 -49t-10 -49t-27.5 -40.5t-40.5 -27.5t-49 -10t-49.5 10t-40.5 27.5t-27 40.5t-10 49z" />
    <glyph glyph-name="uni14AF" unicode="&#x14af;" horiz-adv-x="1419" 
d="M1085 1434v-272h-669v-1162h-316v1434h985zM1155 717q0 26 10 49t27 40.5t40.5 27.5t49.5 10t49 -10t40.5 -27.5t27.5 -40.5t10 -49t-10 -49t-27.5 -40.5t-40.5 -27.5t-49 -10t-49.5 10t-40.5 27.5t-27 40.5t-10 49z" />
    <glyph glyph-name="uni14B0" unicode="&#x14b0;" horiz-adv-x="1419" 
d="M1319 1434v-272h-669v-1162h-316v1434h985zM10 717q0 26 10 49t27 40.5t40.5 27.5t49.5 10t49 -10t40.5 -27.5t27.5 -40.5t10 -49t-10 -49t-27.5 -40.5t-40.5 -27.5t-49 -10t-49.5 10t-40.5 27.5t-27 40.5t-10 49zM700 1748q0 26 10 49t27 40.5t40.5 27.5t49.5 10t49 -10
t40.5 -27.5t27.5 -40.5t10 -49t-10 -49t-27.5 -40.5t-40.5 -27.5t-49 -10t-49.5 10t-40.5 27.5t-27 40.5t-10 49z" />
    <glyph glyph-name="uni14B1" unicode="&#x14b1;" horiz-adv-x="1419" 
d="M1085 1434v-272h-669v-1162h-316v1434h985zM1155 717q0 26 10 49t27 40.5t40.5 27.5t49.5 10t49 -10t40.5 -27.5t27.5 -40.5t10 -49t-10 -49t-27.5 -40.5t-40.5 -27.5t-49 -10t-49.5 10t-40.5 27.5t-27 40.5t-10 49zM465 1748q0 26 10 49t27 40.5t40.5 27.5t49.5 10
t49 -10t40.5 -27.5t27.5 -40.5t10 -49t-10 -49t-27.5 -40.5t-40.5 -27.5t-49 -10t-49.5 10t-40.5 27.5t-27 40.5t-10 49z" />
    <glyph glyph-name="uni14B2" unicode="&#x14b2;" horiz-adv-x="1419" 
d="M334 0v272h669v1162h316v-1434h-985zM10 717q0 26 10 49t27 40.5t40.5 27.5t49.5 10t49 -10t40.5 -27.5t27.5 -40.5t10 -49t-10 -49t-27.5 -40.5t-40.5 -27.5t-49 -10t-49.5 10t-40.5 27.5t-27 40.5t-10 49z" />
    <glyph glyph-name="uni14B3" unicode="&#x14b3;" horiz-adv-x="1419" 
d="M100 0v272h669v1162h316v-1434h-985zM1155 717q0 26 10 49t27 40.5t40.5 27.5t49.5 10t49 -10t40.5 -27.5t27.5 -40.5t10 -49t-10 -49t-27.5 -40.5t-40.5 -27.5t-49 -10t-49.5 10t-40.5 27.5t-27 40.5t-10 49z" />
    <glyph glyph-name="uni14B4" unicode="&#x14b4;" horiz-adv-x="1419" 
d="M334 0v272h669v1162h316v-1434h-985zM10 717q0 26 10 49t27 40.5t40.5 27.5t49.5 10t49 -10t40.5 -27.5t27.5 -40.5t10 -49t-10 -49t-27.5 -40.5t-40.5 -27.5t-49 -10t-49.5 10t-40.5 27.5t-27 40.5t-10 49zM1034 1748q0 26 10 49t27 40.5t40.5 27.5t49.5 10t49 -10
t40.5 -27.5t27.5 -40.5t10 -49t-10 -49t-27.5 -40.5t-40.5 -27.5t-49 -10t-49.5 10t-40.5 27.5t-27 40.5t-10 49z" />
    <glyph glyph-name="uni14B5" unicode="&#x14b5;" horiz-adv-x="1419" 
d="M100 0v272h669v1162h316v-1434h-985zM1155 717q0 26 10 49t27 40.5t40.5 27.5t49.5 10t49 -10t40.5 -27.5t27.5 -40.5t10 -49t-10 -49t-27.5 -40.5t-40.5 -27.5t-49 -10t-49.5 10t-40.5 27.5t-27 40.5t-10 49zM800 1748q0 26 10 49t27 40.5t40.5 27.5t49.5 10t49 -10
t40.5 -27.5t27.5 -40.5t10 -49t-10 -49t-27.5 -40.5t-40.5 -27.5t-49 -10t-49.5 10t-40.5 27.5t-27 40.5t-10 49z" />
    <glyph glyph-name="uni14B6" unicode="&#x14b6;" horiz-adv-x="1419" 
d="M334 0v1434h316v-1162h669v-272h-985zM10 717q0 26 10 49t27 40.5t40.5 27.5t49.5 10t49 -10t40.5 -27.5t27.5 -40.5t10 -49t-10 -49t-27.5 -40.5t-40.5 -27.5t-49 -10t-49.5 10t-40.5 27.5t-27 40.5t-10 49z" />
    <glyph glyph-name="uni14B7" unicode="&#x14b7;" horiz-adv-x="1419" 
d="M100 0v1434h316v-1162h669v-272h-985zM1155 717q0 26 10 49t27 40.5t40.5 27.5t49.5 10t49 -10t40.5 -27.5t27.5 -40.5t10 -49t-10 -49t-27.5 -40.5t-40.5 -27.5t-49 -10t-49.5 10t-40.5 27.5t-27 40.5t-10 49z" />
    <glyph glyph-name="uni14B8" unicode="&#x14b8;" horiz-adv-x="1419" 
d="M334 0v1434h316v-1162h669v-272h-985zM10 717q0 26 10 49t27 40.5t40.5 27.5t49.5 10t49 -10t40.5 -27.5t27.5 -40.5t10 -49t-10 -49t-27.5 -40.5t-40.5 -27.5t-49 -10t-49.5 10t-40.5 27.5t-27 40.5t-10 49zM365 1748q0 26 10 49t27 40.5t40.5 27.5t49.5 10t49 -10
t40.5 -27.5t27.5 -40.5t10 -49t-10 -49t-27.5 -40.5t-40.5 -27.5t-49 -10t-49.5 10t-40.5 27.5t-27 40.5t-10 49z" />
    <glyph glyph-name="uni14B9" unicode="&#x14b9;" horiz-adv-x="1419" 
d="M100 0v1434h316v-1162h669v-272h-985zM1155 717q0 26 10 49t27 40.5t40.5 27.5t49.5 10t49 -10t40.5 -27.5t27.5 -40.5t10 -49t-10 -49t-27.5 -40.5t-40.5 -27.5t-49 -10t-49.5 10t-40.5 27.5t-27 40.5t-10 49zM131 1748q0 26 10 49t27 40.5t40.5 27.5t49.5 10t49 -10
t40.5 -27.5t27.5 -40.5t10 -49t-10 -49t-27.5 -40.5t-40.5 -27.5t-49 -10t-49.5 10t-40.5 27.5t-27 40.5t-10 49z" />
    <glyph glyph-name="uni14BA" unicode="&#x14ba;" horiz-adv-x="1419" 
d="M334 0v1434h316v-1162h669v-272h-985zM10 1077q0 26 10 49t27 40.5t40.5 27.5t49.5 10t49 -10t40.5 -27.5t27.5 -40.5t10 -49t-10 -49t-27.5 -40.5t-40.5 -27.5t-49 -10t-49.5 10t-40.5 27.5t-27 40.5t-10 49zM10 360q0 26 10 49t27 40.5t40.5 27.5t49.5 10t49 -10
t40.5 -27.5t27.5 -40.5t10 -49t-10 -49t-27.5 -40.5t-40.5 -27.5t-49 -10t-49.5 10t-40.5 27.5t-27 40.5t-10 49z" />
    <glyph glyph-name="uni14BB" unicode="&#x14bb;" horiz-adv-x="642" 
d="M100 1434h164v-553h278v-164h-442v717z" />
    <glyph glyph-name="uni14BC" unicode="&#x14bc;" horiz-adv-x="642" 
d="M458 717q-74 0 -139.5 28t-114 77t-76.5 114t-28 140q0 74 28 139.5t76.5 114t114 76.5t139.5 28h84v-164h-84q-33 0 -67 -13t-62.5 -37.5t-46.5 -60t-18 -83.5q0 -47 18 -83t46.5 -60.5t62.5 -38t67 -13.5h84v-164h-84z" />
    <glyph glyph-name="uni14BD" unicode="&#x14bd;" horiz-adv-x="642" 
d="M542 717h-442v164h278v553h164v-717z" />
    <glyph glyph-name="uni14BE" unicode="&#x14be;" horiz-adv-x="682" 
d="M100 1212q0 46 17 86.5t48.5 70.5t76 47.5t98.5 17.5q53 0 97.5 -17.5t76.5 -47.5t50 -70.5t18 -86.5q0 -54 -15.5 -98t-46.5 -83.5t-78.5 -76t-111.5 -75.5h252v-162h-482v152q102 67 164 114.5t96.5 85t46 71t11.5 72.5q0 38 -21.5 58t-56.5 20q-29 0 -52.5 -21
t-23.5 -57h-164z" />
    <glyph glyph-name="uni14BF" unicode="&#x14bf;" horiz-adv-x="1185" 
d="M100 937q0 91 29.5 180.5t90 159.5t153.5 113.5t220 43.5q119 0 211 -37t154.5 -99.5t94.5 -145.5t32 -175q0 -114 -39.5 -209t-110 -179t-169 -161.5t-215.5 -155.5h534v-272h-945v272q140 89 241.5 162t172.5 134t114.5 112t67.5 97t32.5 90t8.5 90t-11 84t-33.5 65
t-55.5 42t-77 15q-40 0 -75 -15.5t-61 -44.5t-41 -71t-15 -95h-308z" />
    <glyph glyph-name="uni14C0" unicode="&#x14c0;" 
d="M100 653v312h991q91 0 172 -36.5t141 -101t95 -153t35 -191.5q0 -108 -35 -197t-95 -152.5t-141 -98.5t-172 -35q-92 0 -172.5 34.5t-140.5 97.5t-94.5 152t-34.5 199v170h-549zM921 653v-172q0 -33 12 -63.5t34.5 -54t53.5 -37.5t70 -14q42 0 73.5 14.5t53.5 38t33 54
t11 62.5q0 40 -14 72t-38 54.5t-55 34t-64 11.5h-170z" />
    <glyph glyph-name="uni14C1" unicode="&#x14c1;" 
d="M985 653v-170q0 -110 -35 -199t-95 -152t-140.5 -97.5t-171.5 -34.5q-92 0 -172.5 35t-140.5 98.5t-95 152.5t-35 197q0 103 35 191.5t95 153t140.5 101t172.5 36.5h991v-312h-549zM543 653q-33 0 -64 -11.5t-55 -34t-38 -54.5t-14 -72q0 -32 11 -62.5t33 -54t53.5 -38
t73.5 -14.5q39 0 70 14t53.5 37.5t34.5 54t12 63.5v172h-170zM453 1324q0 -38 26.5 -64.5t64.5 -26.5t64.5 26.5t26.5 64.5t-26.5 65t-64.5 27t-64.5 -27t-26.5 -65zM332 1327q0 43 17 81t45.5 66.5t67 45t81.5 16.5t81.5 -16.5t68 -45t46.5 -66.5t17 -81t-17 -82
t-46.5 -68.5t-68 -47t-81.5 -17.5t-81.5 17.5t-67 47t-45.5 68.5t-17 82z" />
    <glyph glyph-name="uni14C2" unicode="&#x14c2;" 
d="M985 653v-170q0 -110 -35 -199t-95 -152t-140.5 -97.5t-171.5 -34.5q-92 0 -172.5 35t-140.5 98.5t-95 152.5t-35 197q0 103 35 191.5t95 153t140.5 101t172.5 36.5h991v-312h-549zM543 653q-33 0 -64 -11.5t-55 -34t-38 -54.5t-14 -72q0 -32 11 -62.5t33 -54t53.5 -38
t73.5 -14.5q39 0 70 14t53.5 37.5t34.5 54t12 63.5v172h-170z" />
    <glyph glyph-name="uni14C3" unicode="&#x14c3;" 
d="M985 653v-170q0 -110 -35 -199t-95 -152t-140.5 -97.5t-171.5 -34.5q-92 0 -172.5 35t-140.5 98.5t-95 152.5t-35 197q0 103 35 191.5t95 153t140.5 101t172.5 36.5h991v-312h-549zM543 653q-33 0 -64 -11.5t-55 -34t-38 -54.5t-14 -72q0 -32 11 -62.5t33 -54t53.5 -38
t73.5 -14.5q39 0 70 14t53.5 37.5t34.5 54t12 63.5v172h-170zM416 1239q0 26 10 49t27 40.5t40.5 27.5t49.5 10t49 -10t40.5 -27.5t27.5 -40.5t10 -49t-10 -49t-27.5 -40.5t-40.5 -27.5t-49 -10t-49.5 10t-40.5 27.5t-27 40.5t-10 49z" />
    <glyph glyph-name="uni14C4" unicode="&#x14c4;" 
d="M649 312v170q0 110 34.5 199t94.5 152t140.5 97.5t172.5 34.5q91 0 172 -35t141 -98.5t95 -152.5t35 -197q0 -104 -35 -192t-95 -152.5t-141 -101t-172 -36.5h-991v312h549zM1091 312q33 0 64 11.5t55 34t38 54t14 72.5q0 32 -11 62.5t-33 54t-53.5 38t-73.5 14.5
q-39 0 -70 -14t-53.5 -37.5t-34.5 -54t-12 -63.5v-172h170z" />
    <glyph glyph-name="uni14C5" unicode="&#x14c5;" 
d="M649 312v170q0 110 34.5 199t94.5 152t140.5 97.5t172.5 34.5q91 0 172 -35t141 -98.5t95 -152.5t35 -197q0 -104 -35 -192t-95 -152.5t-141 -101t-172 -36.5h-991v312h549zM1091 312q33 0 64 11.5t55 34t38 54t14 72.5q0 32 -11 62.5t-33 54t-53.5 38t-73.5 14.5
q-39 0 -70 -14t-53.5 -37.5t-34.5 -54t-12 -63.5v-172h170zM964 1239q0 26 10 49t27 40.5t40.5 27.5t49.5 10t49 -10t40.5 -27.5t27.5 -40.5t10 -49t-10 -49t-27.5 -40.5t-40.5 -27.5t-49 -10t-49.5 10t-40.5 27.5t-27 40.5t-10 49z" />
    <glyph glyph-name="uni14C6" unicode="&#x14c6;" 
d="M649 312v170q0 110 34.5 199t94.5 152t140.5 97.5t172.5 34.5q91 0 172 -35t141 -98.5t95 -152.5t35 -197q0 -104 -35 -192t-95 -152.5t-141 -101t-172 -36.5h-991v312h549zM1091 312q33 0 64 11.5t55 34t38 54t14 72.5q0 32 -11 62.5t-33 54t-53.5 38t-73.5 14.5
q-39 0 -70 -14t-53.5 -37.5t-34.5 -54t-12 -63.5v-172h170zM784 1239q0 26 10 49t27 40.5t40.5 27.5t49.5 10t49 -10t40.5 -27.5t27.5 -40.5t10 -49t-10 -49t-27.5 -40.5t-40.5 -27.5t-49 -10t-49.5 10t-40.5 27.5t-27 40.5t-10 49zM1144 1239q0 26 10 49t27 40.5t40.5 27.5
t49.5 10t49 -10t40.5 -27.5t27.5 -40.5t10 -49t-10 -49t-27.5 -40.5t-40.5 -27.5t-49 -10t-49.5 10t-40.5 27.5t-27 40.5t-10 49z" />
    <glyph glyph-name="uni14C7" unicode="&#x14c7;" 
d="M1534 312v-312h-991q-92 0 -172.5 36.5t-140.5 101t-95 152.5t-35 192q0 108 35 197t95 152.5t140.5 98.5t172.5 35q91 0 171.5 -34.5t140.5 -97.5t95 -152t35 -199v-170h549zM713 312v172q0 33 -12 63.5t-34.5 54t-53.5 37.5t-70 14q-42 0 -73.5 -14.5t-53.5 -38
t-33 -54t-11 -62.5q0 -41 14 -72.5t38 -54t55 -34t64 -11.5h170z" />
    <glyph glyph-name="uni14C8" unicode="&#x14c8;" 
d="M1534 312v-312h-991q-92 0 -172.5 36.5t-140.5 101t-95 152.5t-35 192q0 108 35 197t95 152.5t140.5 98.5t172.5 35q91 0 171.5 -34.5t140.5 -97.5t95 -152t35 -199v-170h549zM713 312v172q0 33 -12 63.5t-34.5 54t-53.5 37.5t-70 14q-42 0 -73.5 -14.5t-53.5 -38
t-33 -54t-11 -62.5q0 -41 14 -72.5t38 -54t55 -34t64 -11.5h170zM416 1239q0 26 10 49t27 40.5t40.5 27.5t49.5 10t49 -10t40.5 -27.5t27.5 -40.5t10 -49t-10 -49t-27.5 -40.5t-40.5 -27.5t-49 -10t-49.5 10t-40.5 27.5t-27 40.5t-10 49z" />
    <glyph glyph-name="uni14C9" unicode="&#x14c9;" horiz-adv-x="1868" 
d="M334 653v312h991q91 0 172 -36.5t141 -101t95 -153t35 -191.5q0 -108 -35 -197t-95 -152.5t-141 -98.5t-172 -35q-92 0 -172.5 34.5t-140.5 97.5t-94.5 152t-34.5 199v170h-549zM1155 653v-172q0 -33 12 -63.5t34.5 -54t53.5 -37.5t70 -14q42 0 73.5 14.5t53.5 38t33 54
t11 62.5q0 40 -14 72t-38 54.5t-55 34t-64 11.5h-170zM10 717q0 26 10 49t27 40.5t40.5 27.5t49.5 10t49 -10t40.5 -27.5t27.5 -40.5t10 -49t-10 -49t-27.5 -40.5t-40.5 -27.5t-49 -10t-49.5 10t-40.5 27.5t-27 40.5t-10 49z" />
    <glyph glyph-name="uni14CA" unicode="&#x14ca;" horiz-adv-x="1868" 
d="M100 653v312h991q91 0 172 -36.5t141 -101t95 -153t35 -191.5q0 -108 -35 -197t-95 -152.5t-141 -98.5t-172 -35q-92 0 -172.5 34.5t-140.5 97.5t-94.5 152t-34.5 199v170h-549zM921 653v-172q0 -33 12 -63.5t34.5 -54t53.5 -37.5t70 -14q42 0 73.5 14.5t53.5 38t33 54
t11 62.5q0 40 -14 72t-38 54.5t-55 34t-64 11.5h-170zM1604 717q0 26 10 49t27 40.5t40.5 27.5t49.5 10t49 -10t40.5 -27.5t27.5 -40.5t10 -49t-10 -49t-27.5 -40.5t-40.5 -27.5t-49 -10t-49.5 10t-40.5 27.5t-27 40.5t-10 49z" />
    <glyph glyph-name="uni14CB" unicode="&#x14cb;" horiz-adv-x="1868" 
d="M1768 312v-312h-991q-92 0 -172.5 36.5t-140.5 101t-95 152.5t-35 192q0 108 35 197t95 152.5t140.5 98.5t172.5 35q91 0 171.5 -34.5t140.5 -97.5t95 -152t35 -199v-170h549zM947 312v172q0 33 -12 63.5t-34.5 54t-53.5 37.5t-70 14q-42 0 -73.5 -14.5t-53.5 -38
t-33 -54t-11 -62.5q0 -41 14 -72.5t38 -54t55 -34t64 -11.5h170zM10 717q0 26 10 49t27 40.5t40.5 27.5t49.5 10t49 -10t40.5 -27.5t27.5 -40.5t10 -49t-10 -49t-27.5 -40.5t-40.5 -27.5t-49 -10t-49.5 10t-40.5 27.5t-27 40.5t-10 49z" />
    <glyph glyph-name="uni14CC" unicode="&#x14cc;" 
d="M1534 312v-312h-991q-92 0 -172.5 36.5t-140.5 101t-95 152.5t-35 192q0 108 35 197t95 152.5t140.5 98.5t172.5 35q91 0 171.5 -34.5t140.5 -97.5t95 -152t35 -199v-170h549zM713 312v172q0 33 -12 63.5t-34.5 54t-53.5 37.5t-70 14q-42 0 -73.5 -14.5t-53.5 -38
t-33 -54t-11 -62.5q0 -41 14 -72.5t38 -54t55 -34t64 -11.5h170zM1175 717q0 26 10 49t27 40.5t40.5 27.5t49.5 10t49 -10t40.5 -27.5t27.5 -40.5t10 -49t-10 -49t-27.5 -40.5t-40.5 -27.5t-49 -10t-49.5 10t-40.5 27.5t-27 40.5t-10 49z" />
    <glyph glyph-name="uni14CD" unicode="&#x14cd;" horiz-adv-x="1868" 
d="M1768 312v-312h-991q-92 0 -172.5 36.5t-140.5 101t-95 152.5t-35 192q0 108 35 197t95 152.5t140.5 98.5t172.5 35q91 0 171.5 -34.5t140.5 -97.5t95 -152t35 -199v-170h549zM947 312v172q0 33 -12 63.5t-34.5 54t-53.5 37.5t-70 14q-42 0 -73.5 -14.5t-53.5 -38
t-33 -54t-11 -62.5q0 -41 14 -72.5t38 -54t55 -34t64 -11.5h170zM10 717q0 26 10 49t27 40.5t40.5 27.5t49.5 10t49 -10t40.5 -27.5t27.5 -40.5t10 -49t-10 -49t-27.5 -40.5t-40.5 -27.5t-49 -10t-49.5 10t-40.5 27.5t-27 40.5t-10 49zM650 1239q0 26 10 49t27 40.5
t40.5 27.5t49.5 10t49 -10t40.5 -27.5t27.5 -40.5t10 -49t-10 -49t-27.5 -40.5t-40.5 -27.5t-49 -10t-49.5 10t-40.5 27.5t-27 40.5t-10 49z" />
    <glyph glyph-name="uni14CE" unicode="&#x14ce;" 
d="M1534 312v-312h-991q-92 0 -172.5 36.5t-140.5 101t-95 152.5t-35 192q0 108 35 197t95 152.5t140.5 98.5t172.5 35q91 0 171.5 -34.5t140.5 -97.5t95 -152t35 -199v-170h549zM713 312v172q0 33 -12 63.5t-34.5 54t-53.5 37.5t-70 14q-42 0 -73.5 -14.5t-53.5 -38
t-33 -54t-11 -62.5q0 -41 14 -72.5t38 -54t55 -34t64 -11.5h170zM1175 717q0 26 10 49t27 40.5t40.5 27.5t49.5 10t49 -10t40.5 -27.5t27.5 -40.5t10 -49t-10 -49t-27.5 -40.5t-40.5 -27.5t-49 -10t-49.5 10t-40.5 27.5t-27 40.5t-10 49zM416 1239q0 26 10 49t27 40.5
t40.5 27.5t49.5 10t49 -10t40.5 -27.5t27.5 -40.5t10 -49t-10 -49t-27.5 -40.5t-40.5 -27.5t-49 -10t-49.5 10t-40.5 27.5t-27 40.5t-10 49z" />
    <glyph glyph-name="uni14CF" unicode="&#x14cf;" 
d="M1534 312v-312h-991q-92 0 -172.5 36.5t-140.5 101t-95 152.5t-35 192q0 108 35 197t95 152.5t140.5 98.5t172.5 35q91 0 171.5 -34.5t140.5 -97.5t95 -152t35 -199v-170h549zM713 312v172q0 33 -12 63.5t-34.5 54t-53.5 37.5t-70 14q-42 0 -73.5 -14.5t-53.5 -38
t-33 -54t-11 -62.5q0 -41 14 -72.5t38 -54t55 -34t64 -11.5h170zM236 1239q0 26 10 49t27 40.5t40.5 27.5t49.5 10t49 -10t40.5 -27.5t27.5 -40.5t10 -49t-10 -49t-27.5 -40.5t-40.5 -27.5t-49 -10t-49.5 10t-40.5 27.5t-27 40.5t-10 49zM596 1239q0 26 10 49t27 40.5
t40.5 27.5t49.5 10t49 -10t40.5 -27.5t27.5 -40.5t10 -49t-10 -49t-27.5 -40.5t-40.5 -27.5t-49 -10t-49.5 10t-40.5 27.5t-27 40.5t-10 49z" />
    <glyph glyph-name="uni14D0" unicode="&#x14d0;" horiz-adv-x="917" 
d="M817 881v-164h-496q-48 0 -88.5 18.5t-70 51t-46 76.5t-16.5 95t17.5 95t47.5 76.5t70 51t86 18.5t89 -16t77 -46.5t54.5 -75.5t20.5 -103v-77h255zM418 881v78q0 21 -7 35.5t-19 23.5t-26.5 13t-39.5 4q-13 0 -27.5 -4t-26.5 -13t-20 -23.5t-8 -35.5q0 -39 22.5 -58.5
t54.5 -19.5h97z" />
    <glyph glyph-name="uni14D1" unicode="&#x14d1;" horiz-adv-x="917" 
d="M817 1075q0 -74 -28 -139.5t-77 -114t-114 -76.5t-140 -28q-74 0 -139.5 28t-114 76.5t-76.5 114t-28 139.5v359h164v-359q0 -34 11.5 -68.5t35.5 -62.5t60 -45.5t87 -17.5t87.5 17.5t60.5 45.5t35.5 62.5t11.5 68.5v359h164v-359z" />
    <glyph glyph-name="uni14D2" unicode="&#x14d2;" horiz-adv-x="917" 
d="M355 881v77q0 58 20.5 103t54 75.5t77 46.5t89.5 16t86 -18.5t70 -51t47.5 -76.5t17.5 -95t-16.5 -95t-46 -76.5t-70 -51t-88.5 -18.5h-496v164h255zM596 881q32 0 54.5 19.5t22.5 58.5q0 21 -8 35.5t-20 23.5t-26.5 13t-27.5 4q-25 0 -39.5 -4t-26.5 -13t-19 -23.5
t-7 -35.5v-78h97z" />
    <glyph glyph-name="uni14D3" unicode="&#x14d3;" 
d="M1036 312q45 0 85.5 14t72 41t50 65.5t18.5 88.5q0 51 -18.5 90.5t-50 66.5t-72 41t-85.5 14h-936v312h936q123 0 216 -40.5t155.5 -111t94.5 -166t32 -204.5q0 -115 -32 -211t-94.5 -165.5t-155.5 -108t-216 -38.5h-70v312h70z" />
    <glyph glyph-name="uni14D4" unicode="&#x14d4;" 
d="M668 312v-312h-70q-123 0 -216 38.5t-155.5 108t-94.5 165.5t-32 211q0 109 32 204.5t94.5 166t155.5 111t216 40.5h936v-312h-936q-45 0 -85.5 -14t-72 -41t-50 -66.5t-18.5 -90.5q0 -50 18.5 -88.5t50 -65.5t72 -41t85.5 -14h70zM508 1404q0 -38 26.5 -64.5t64.5 -26.5
t64.5 26.5t26.5 64.5t-26.5 65t-64.5 27t-64.5 -27t-26.5 -65zM387 1407q0 43 17 81t45.5 66.5t67 45t81.5 16.5t81.5 -16.5t68 -45t46.5 -66.5t17 -81t-17 -82t-46.5 -68.5t-68 -47t-81.5 -17.5t-81.5 17.5t-67 47t-45.5 68.5t-17 82z" />
    <glyph glyph-name="uni14D5" unicode="&#x14d5;" 
d="M668 312v-312h-70q-123 0 -216 38.5t-155.5 108t-94.5 165.5t-32 211q0 109 32 204.5t94.5 166t155.5 111t216 40.5h936v-312h-936q-45 0 -85.5 -14t-72 -41t-50 -66.5t-18.5 -90.5q0 -50 18.5 -88.5t50 -65.5t72 -41t85.5 -14h70z" />
    <glyph glyph-name="uni14D6" unicode="&#x14d6;" 
d="M668 312v-312h-70q-123 0 -216 38.5t-155.5 108t-94.5 165.5t-32 211q0 109 32 204.5t94.5 166t155.5 111t216 40.5h936v-312h-936q-45 0 -85.5 -14t-72 -41t-50 -66.5t-18.5 -90.5q0 -50 18.5 -88.5t50 -65.5t72 -41t85.5 -14h70zM471 1339q0 26 10 49t27 40.5
t40.5 27.5t49.5 10t49 -10t40.5 -27.5t27.5 -40.5t10 -49t-10 -49t-27.5 -40.5t-40.5 -27.5t-49 -10t-49.5 10t-40.5 27.5t-27 40.5t-10 49z" />
    <glyph glyph-name="uni14D7" unicode="&#x14d7;" 
d="M966 732v312h70q123 0 216 -38.5t155.5 -108t94.5 -165.5t32 -211q0 -109 -32 -204.5t-94.5 -166t-155.5 -111t-216 -40.5h-936v312h936q45 0 85.5 14t72 41t50 66.5t18.5 90.5q0 49 -18.5 88t-50 66t-72 41t-85.5 14h-70z" />
    <glyph glyph-name="uni14D8" unicode="&#x14d8;" 
d="M966 732v312h70q123 0 216 -38.5t155.5 -108t94.5 -165.5t32 -211q0 -109 -32 -204.5t-94.5 -166t-155.5 -111t-216 -40.5h-936v312h936q45 0 85.5 14t72 41t50 66.5t18.5 90.5q0 49 -18.5 88t-50 66t-72 41t-85.5 14h-70zM909 1339q0 26 10 49t27 40.5t40.5 27.5
t49.5 10t49 -10t40.5 -27.5t27.5 -40.5t10 -49t-10 -49t-27.5 -40.5t-40.5 -27.5t-49 -10t-49.5 10t-40.5 27.5t-27 40.5t-10 49z" />
    <glyph glyph-name="uni14D9" unicode="&#x14d9;" 
d="M966 732v312h70q123 0 216 -38.5t155.5 -108t94.5 -165.5t32 -211q0 -109 -32 -204.5t-94.5 -166t-155.5 -111t-216 -40.5h-936v312h936q45 0 85.5 14t72 41t50 66.5t18.5 90.5q0 49 -18.5 88t-50 66t-72 41t-85.5 14h-70zM729 1339q0 26 10 49t27 40.5t40.5 27.5
t49.5 10t49 -10t40.5 -27.5t27.5 -40.5t10 -49t-10 -49t-27.5 -40.5t-40.5 -27.5t-49 -10t-49.5 10t-40.5 27.5t-27 40.5t-10 49zM1089 1339q0 26 10 49t27 40.5t40.5 27.5t49.5 10t49 -10t40.5 -27.5t27.5 -40.5t10 -49t-10 -49t-27.5 -40.5t-40.5 -27.5t-49 -10t-49.5 10
t-40.5 27.5t-27 40.5t-10 49z" />
    <glyph glyph-name="uni14DA" unicode="&#x14da;" 
d="M598 732q-45 0 -85.5 -14t-72 -41t-50 -66t-18.5 -88q0 -51 18.5 -90.5t50 -66.5t72 -41t85.5 -14h936v-312h-936q-123 0 -216 40.5t-155.5 111t-94.5 166t-32 204.5q0 115 32 211t94.5 165.5t155.5 108t216 38.5h70v-312h-70z" />
    <glyph glyph-name="uni14DB" unicode="&#x14db;" 
d="M598 732q-45 0 -85.5 -14t-72 -41t-50 -66t-18.5 -88q0 -51 18.5 -90.5t50 -66.5t72 -41t85.5 -14h936v-312h-936q-123 0 -216 40.5t-155.5 111t-94.5 166t-32 204.5q0 115 32 211t94.5 165.5t155.5 108t216 38.5h70v-312h-70zM471 1339q0 26 10 49t27 40.5t40.5 27.5
t49.5 10t49 -10t40.5 -27.5t27.5 -40.5t10 -49t-10 -49t-27.5 -40.5t-40.5 -27.5t-49 -10t-49.5 10t-40.5 27.5t-27 40.5t-10 49z" />
    <glyph glyph-name="uni14DC" unicode="&#x14dc;" horiz-adv-x="1868" 
d="M1270 312q45 0 85.5 14t72 41t50 65.5t18.5 88.5q0 51 -18.5 90.5t-50 66.5t-72 41t-85.5 14h-936v312h936q123 0 216 -40.5t155.5 -111t94.5 -166t32 -204.5q0 -115 -32 -211t-94.5 -165.5t-155.5 -108t-216 -38.5h-70v312h70zM10 717q0 26 10 49t27 40.5t40.5 27.5
t49.5 10t49 -10t40.5 -27.5t27.5 -40.5t10 -49t-10 -49t-27.5 -40.5t-40.5 -27.5t-49 -10t-49.5 10t-40.5 27.5t-27 40.5t-10 49z" />
    <glyph glyph-name="uni14DD" unicode="&#x14dd;" horiz-adv-x="1868" 
d="M1036 312q45 0 85.5 14t72 41t50 65.5t18.5 88.5q0 51 -18.5 90.5t-50 66.5t-72 41t-85.5 14h-936v312h936q123 0 216 -40.5t155.5 -111t94.5 -166t32 -204.5q0 -115 -32 -211t-94.5 -165.5t-155.5 -108t-216 -38.5h-70v312h70zM1604 717q0 26 10 49t27 40.5t40.5 27.5
t49.5 10t49 -10t40.5 -27.5t27.5 -40.5t10 -49t-10 -49t-27.5 -40.5t-40.5 -27.5t-49 -10t-49.5 10t-40.5 27.5t-27 40.5t-10 49z" />
    <glyph glyph-name="uni14DE" unicode="&#x14de;" horiz-adv-x="1868" 
d="M902 312v-312h-70q-123 0 -216 38.5t-155.5 108t-94.5 165.5t-32 211q0 109 32 204.5t94.5 166t155.5 111t216 40.5h936v-312h-936q-45 0 -85.5 -14t-72 -41t-50 -66.5t-18.5 -90.5q0 -50 18.5 -88.5t50 -65.5t72 -41t85.5 -14h70zM10 717q0 26 10 49t27 40.5t40.5 27.5
t49.5 10t49 -10t40.5 -27.5t27.5 -40.5t10 -49t-10 -49t-27.5 -40.5t-40.5 -27.5t-49 -10t-49.5 10t-40.5 27.5t-27 40.5t-10 49z" />
    <glyph glyph-name="uni14DF" unicode="&#x14df;" horiz-adv-x="1868" 
d="M668 312v-312h-70q-123 0 -216 38.5t-155.5 108t-94.5 165.5t-32 211q0 109 32 204.5t94.5 166t155.5 111t216 40.5h936v-312h-936q-45 0 -85.5 -14t-72 -41t-50 -66.5t-18.5 -90.5q0 -50 18.5 -88.5t50 -65.5t72 -41t85.5 -14h70zM1604 717q0 26 10 49t27 40.5
t40.5 27.5t49.5 10t49 -10t40.5 -27.5t27.5 -40.5t10 -49t-10 -49t-27.5 -40.5t-40.5 -27.5t-49 -10t-49.5 10t-40.5 27.5t-27 40.5t-10 49z" />
    <glyph glyph-name="uni14E0" unicode="&#x14e0;" horiz-adv-x="1868" 
d="M902 312v-312h-70q-123 0 -216 38.5t-155.5 108t-94.5 165.5t-32 211q0 109 32 204.5t94.5 166t155.5 111t216 40.5h936v-312h-936q-45 0 -85.5 -14t-72 -41t-50 -66.5t-18.5 -90.5q0 -50 18.5 -88.5t50 -65.5t72 -41t85.5 -14h70zM10 717q0 26 10 49t27 40.5t40.5 27.5
t49.5 10t49 -10t40.5 -27.5t27.5 -40.5t10 -49t-10 -49t-27.5 -40.5t-40.5 -27.5t-49 -10t-49.5 10t-40.5 27.5t-27 40.5t-10 49zM705 1339q0 26 10 49t27 40.5t40.5 27.5t49.5 10t49 -10t40.5 -27.5t27.5 -40.5t10 -49t-10 -49t-27.5 -40.5t-40.5 -27.5t-49 -10t-49.5 10
t-40.5 27.5t-27 40.5t-10 49z" />
    <glyph glyph-name="uni14E1" unicode="&#x14e1;" horiz-adv-x="1868" 
d="M668 312v-312h-70q-123 0 -216 38.5t-155.5 108t-94.5 165.5t-32 211q0 109 32 204.5t94.5 166t155.5 111t216 40.5h936v-312h-936q-45 0 -85.5 -14t-72 -41t-50 -66.5t-18.5 -90.5q0 -50 18.5 -88.5t50 -65.5t72 -41t85.5 -14h70zM1604 717q0 26 10 49t27 40.5
t40.5 27.5t49.5 10t49 -10t40.5 -27.5t27.5 -40.5t10 -49t-10 -49t-27.5 -40.5t-40.5 -27.5t-49 -10t-49.5 10t-40.5 27.5t-27 40.5t-10 49zM471 1339q0 26 10 49t27 40.5t40.5 27.5t49.5 10t49 -10t40.5 -27.5t27.5 -40.5t10 -49t-10 -49t-27.5 -40.5t-40.5 -27.5t-49 -10
t-49.5 10t-40.5 27.5t-27 40.5t-10 49z" />
    <glyph glyph-name="uni14E2" unicode="&#x14e2;" 
d="M966 732v312h70q123 0 216 -38.5t155.5 -108t94.5 -165.5t32 -211q0 -109 -32 -204.5t-94.5 -166t-155.5 -111t-216 -40.5h-936v312h936q45 0 85.5 14t72 41t50 66.5t18.5 90.5q0 49 -18.5 88t-50 66t-72 41t-85.5 14h-70zM235 717q0 26 10 49t27 40.5t40.5 27.5t49.5 10
t49 -10t40.5 -27.5t27.5 -40.5t10 -49t-10 -49t-27.5 -40.5t-40.5 -27.5t-49 -10t-49.5 10t-40.5 27.5t-27 40.5t-10 49z" />
    <glyph glyph-name="uni14E3" unicode="&#x14e3;" horiz-adv-x="1868" 
d="M966 732v312h70q123 0 216 -38.5t155.5 -108t94.5 -165.5t32 -211q0 -109 -32 -204.5t-94.5 -166t-155.5 -111t-216 -40.5h-936v312h936q45 0 85.5 14t72 41t50 66.5t18.5 90.5q0 49 -18.5 88t-50 66t-72 41t-85.5 14h-70zM1604 717q0 26 10 49t27 40.5t40.5 27.5
t49.5 10t49 -10t40.5 -27.5t27.5 -40.5t10 -49t-10 -49t-27.5 -40.5t-40.5 -27.5t-49 -10t-49.5 10t-40.5 27.5t-27 40.5t-10 49z" />
    <glyph glyph-name="uni14E4" unicode="&#x14e4;" 
d="M966 732v312h70q123 0 216 -38.5t155.5 -108t94.5 -165.5t32 -211q0 -109 -32 -204.5t-94.5 -166t-155.5 -111t-216 -40.5h-936v312h936q45 0 85.5 14t72 41t50 66.5t18.5 90.5q0 49 -18.5 88t-50 66t-72 41t-85.5 14h-70zM235 717q0 26 10 49t27 40.5t40.5 27.5t49.5 10
t49 -10t40.5 -27.5t27.5 -40.5t10 -49t-10 -49t-27.5 -40.5t-40.5 -27.5t-49 -10t-49.5 10t-40.5 27.5t-27 40.5t-10 49zM909 1339q0 26 10 49t27 40.5t40.5 27.5t49.5 10t49 -10t40.5 -27.5t27.5 -40.5t10 -49t-10 -49t-27.5 -40.5t-40.5 -27.5t-49 -10t-49.5 10
t-40.5 27.5t-27 40.5t-10 49z" />
    <glyph glyph-name="uni14E5" unicode="&#x14e5;" horiz-adv-x="1868" 
d="M966 732v312h70q123 0 216 -38.5t155.5 -108t94.5 -165.5t32 -211q0 -109 -32 -204.5t-94.5 -166t-155.5 -111t-216 -40.5h-936v312h936q45 0 85.5 14t72 41t50 66.5t18.5 90.5q0 49 -18.5 88t-50 66t-72 41t-85.5 14h-70zM1604 717q0 26 10 49t27 40.5t40.5 27.5
t49.5 10t49 -10t40.5 -27.5t27.5 -40.5t10 -49t-10 -49t-27.5 -40.5t-40.5 -27.5t-49 -10t-49.5 10t-40.5 27.5t-27 40.5t-10 49zM909 1339q0 26 10 49t27 40.5t40.5 27.5t49.5 10t49 -10t40.5 -27.5t27.5 -40.5t10 -49t-10 -49t-27.5 -40.5t-40.5 -27.5t-49 -10t-49.5 10
t-40.5 27.5t-27 40.5t-10 49z" />
    <glyph glyph-name="uni14E6" unicode="&#x14e6;" horiz-adv-x="1868" 
d="M832 732q-45 0 -85.5 -14t-72 -41t-50 -66t-18.5 -88q0 -51 18.5 -90.5t50 -66.5t72 -41t85.5 -14h936v-312h-936q-123 0 -216 40.5t-155.5 111t-94.5 166t-32 204.5q0 115 32 211t94.5 165.5t155.5 108t216 38.5h70v-312h-70zM10 717q0 26 10 49t27 40.5t40.5 27.5
t49.5 10t49 -10t40.5 -27.5t27.5 -40.5t10 -49t-10 -49t-27.5 -40.5t-40.5 -27.5t-49 -10t-49.5 10t-40.5 27.5t-27 40.5t-10 49z" />
    <glyph glyph-name="uni14E7" unicode="&#x14e7;" 
d="M598 732q-45 0 -85.5 -14t-72 -41t-50 -66t-18.5 -88q0 -51 18.5 -90.5t50 -66.5t72 -41t85.5 -14h936v-312h-936q-123 0 -216 40.5t-155.5 111t-94.5 166t-32 204.5q0 115 32 211t94.5 165.5t155.5 108t216 38.5h70v-312h-70zM1145 717q0 26 10 49t27 40.5t40.5 27.5
t49.5 10t49 -10t40.5 -27.5t27.5 -40.5t10 -49t-10 -49t-27.5 -40.5t-40.5 -27.5t-49 -10t-49.5 10t-40.5 27.5t-27 40.5t-10 49z" />
    </font>
</defs>
</svg>
