<!--
  - Copyright (c) TIKI Inc.
  - MIT license. See LICENSE file in root directory.
  -->

<svg viewBox="0 0 37 23" xmlns="http://www.w3.org/2000/svg">
  <path fill-rule="evenodd" clip-rule="evenodd"
        d="M30.9638 13.8461C32.029 12.4713 33.4347 11.1785 35.2864 10.224C35.7517 9.98959 36.0337 9.52078 36.0337 9.01061C36.0337 8.50044 35.7517 8.04542 35.2864 7.81102C33.5661 6.94234 30.6613 6.25292 26.5579 7.90753C25.3473 8.39672 24.2288 9.16893 23.2224 10.1987C22.4627 6.95797 21.2631 3.52184 19.3687 0.725791C19.0577 0.265192 18.5575 0 18.0167 0C17.4759 0 16.9756 0.265192 16.6647 0.725791C14.7699 3.52243 13.5701 6.95943 12.8105 10.2008C11.8043 9.17052 10.686 8.39792 9.47585 7.90844C5.37247 6.25234 2.46767 6.94238 0.747352 7.81183C0.28202 8.04645 0 8.50188 0 9.01251C0 9.52314 0.28202 9.99237 0.747352 10.227C2.57596 11.1725 3.96893 12.4495 5.02825 13.8095C4.45235 13.7886 3.92292 13.8071 3.45803 13.845C2.95461 13.8842 2.54393 14.1976 2.3717 14.6548C2.21273 15.1119 2.31871 15.6213 2.6764 15.9609C6.17383 19.3567 7.79006 22.6743 7.80331 22.7134C7.8563 22.831 7.96229 22.9355 8.09476 22.9747C8.14775 22.9877 8.21399 23.0008 8.26699 23.0008C8.34647 23.0008 8.42596 22.9877 8.50545 22.9355C9.44003 22.473 10.3258 22.117 11.123 21.8436C15.2212 21.1694 16.8836 21.351 16.9993 21.3636L17.0058 21.3643C17.175 21.3919 17.3442 21.3367 17.4711 21.2125C17.5582 21.1272 17.6121 21.0224 17.6282 20.9116C17.762 20.9095 17.8961 20.9084 18.0302 20.9084C18.156 20.9084 18.2819 20.9094 18.4075 20.9113C18.4257 21.0175 18.4787 21.1176 18.5626 21.1996C18.6895 21.3237 18.8587 21.3788 19.028 21.3513L19.0407 21.3501C19.2066 21.3342 20.9764 21.1638 25.3231 21.9029C26.1249 22.1698 27.0066 22.5116 27.9336 22.9485C28.0038 22.9877 28.088 23.0008 28.1722 23.0008C28.2284 23.0008 28.2845 23.0008 28.3547 22.9877C28.481 22.9485 28.6073 22.8438 28.6634 22.7261C28.665 22.7239 28.672 22.7112 28.6843 22.6886C28.8902 22.3118 30.5995 19.1845 34.095 15.9639C34.474 15.6108 34.6003 15.1138 34.4178 14.656C34.2494 14.1982 33.8003 13.8843 33.281 13.845C32.616 13.7941 31.8281 13.7781 30.9638 13.8461ZM24.5298 20.5999C24.7617 20.6649 25.0033 20.7363 25.2536 20.8148C25.7071 20.8912 26.1885 20.9776 26.6989 21.0755C26.8258 20.262 27.1642 18.7039 27.9257 16.9114C28.1731 16.3344 28.4458 15.7799 28.7427 15.2491C27.307 15.6405 25.7873 16.3451 24.3649 17.5576C24.4864 18.9985 24.5204 20.0814 24.5298 20.5999ZM22.7076 20.1706C23.0117 20.2106 23.2764 20.2484 23.4923 20.2803C23.4792 19.8586 23.452 19.2432 23.3976 18.481C22.9562 18.9513 22.5294 19.4791 22.1231 20.0709C22.295 20.097 22.4905 20.1297 22.7076 20.1706ZM24.2472 16.3266C24.0962 14.913 23.8654 13.2683 23.513 11.5301C24.4511 10.4322 25.594 9.50424 26.9809 8.94167C30.6895 7.43873 33.2699 8.03163 34.7787 8.80378C34.9197 8.87272 34.9338 8.98303 34.9338 9.05198C34.9338 9.10713 34.9197 9.23123 34.7646 9.31396C32.6571 10.3925 30.8728 12.0025 29.4886 14.0404C27.8161 14.3527 25.98 15.0206 24.2472 16.3266ZM30.1889 14.9483C28.1171 18.1991 27.7313 21.5273 27.7147 21.7284C27.7873 21.7596 27.8603 21.7913 27.9336 21.8236C28.5371 20.7642 30.2634 18.0436 33.3231 15.2315C33.4213 15.1399 33.4073 15.0484 33.3792 14.9961C33.3652 14.9568 33.3091 14.8522 33.1687 14.8522C32.3468 14.7883 31.3187 14.7829 30.1889 14.9483ZM20.9345 19.9734C20.5439 19.9383 20.1315 19.9071 19.7058 19.8831C20.054 18.3033 20.906 15.2237 22.6632 12.6457C22.9651 14.2969 23.1595 15.8378 23.2842 17.1314C22.4529 17.8991 21.6589 18.8351 20.9345 19.9734ZM18.0302 19.8336C18.2114 19.8336 18.3923 19.8356 18.5721 19.8391C18.7752 18.8596 19.1898 17.1948 19.9445 15.3809C20.6237 13.7475 21.4383 12.3347 22.3687 11.1675C21.6445 7.81643 20.4612 4.19376 18.5304 1.33992C18.4223 1.17243 18.233 1.07473 18.0302 1.07473C17.8274 1.07473 17.6516 1.17243 17.5299 1.33992C15.5935 4.20211 14.409 7.83763 13.6853 11.1969C14.6073 12.3602 15.415 13.7655 16.0892 15.3885C16.8335 17.2008 17.2506 18.8587 17.4571 19.8395C17.6472 19.8357 17.8385 19.8336 18.0302 19.8336ZM5.7851 14.8773C5.34342 14.8305 4.92278 14.8115 4.5311 14.8115C4.17341 14.8115 3.84221 14.8246 3.53751 14.8507C3.40503 14.8637 3.35204 14.9552 3.3388 14.9944L3.33772 14.9986C3.32423 15.0514 3.30151 15.1405 3.39179 15.2295C6.00457 17.7584 7.57517 20.2131 8.27774 21.449C8.1366 20.5306 7.58245 17.666 5.7851 14.8773ZM11.3371 20.6956C10.7221 20.7921 10.0511 20.9081 9.32074 21.0469C9.19383 20.2464 8.85541 18.6731 8.09396 16.879C7.83213 16.2679 7.54197 15.6823 7.22479 15.1238C8.66602 15.4686 10.2242 16.1502 11.6811 17.4095C11.5455 18.9674 11.5113 20.1283 11.5028 20.6442C11.4481 20.6609 11.3928 20.6781 11.3371 20.6956ZM15.1145 19.9697C15.5032 19.9355 15.9134 19.9052 16.3371 19.882C15.9963 18.3238 15.1484 15.2382 13.3974 12.6445C13.1033 14.2528 12.9112 15.7564 12.7861 17.0288C13.6103 17.8145 14.398 18.7819 15.1145 19.9697ZM12.6704 18.376C13.1195 18.87 13.5529 19.4294 13.9635 20.062C13.8144 20.0856 13.6472 20.1148 13.4633 20.1505C13.1126 20.1965 12.8097 20.2414 12.5681 20.2803C12.5818 19.8394 12.6109 19.1867 12.6704 18.376ZM11.8013 16.1858C11.9536 14.7945 12.1828 13.1882 12.5276 11.4943C11.5876 10.3888 10.4423 9.45398 9.05282 8.8883C7.36071 8.22586 5.92241 7.97744 4.69562 7.97744C3.21502 7.97744 2.05874 8.35007 1.24089 8.76409C1.09988 8.8331 1.08578 8.9573 1.08578 9.01251C1.08578 9.06771 1.09988 9.20572 1.25499 9.27472C3.34101 10.3528 5.11032 11.9386 6.48839 13.9457C8.14872 14.1978 10.0256 14.8261 11.8013 16.1858Z"/>
</svg>
