<svg width="1440" height="1151" viewBox="0 0 1440 1151" fill="none" xmlns="http://www.w3.org/2000/svg">
<g clip-path="url(#clip0_187_1537)">
<path d="M986.703 1215.59C919.618 1214.43 882.247 1243.24 830.142 1212.98C729.742 1154.67 741.174 1063.11 773.904 1017.05C804.344 974.213 893.838 939.258 997.76 969.796C1084.2 995.195 1194.45 1018.06 1247.08 1172.5C1299.7 1326.94 1191.06 1309.13 1137.84 1283.57C1084.62 1258.01 1053.79 1216.75 986.703 1215.59Z" fill="#FFE68F" fill-opacity="0.3"/>
<path d="M900.918 500.803C761.464 569.565 640.545 685.139 657.554 759.299C675.044 852.554 865.82 923.054 1094.37 833.98C1380.06 722.636 1307.9 602.591 1252.68 520.935C1207.37 453.929 1075.23 414.851 900.918 500.803Z" fill="#FFE68F" fill-opacity="0.3"/>
<path d="M303.367 1016.97C211.698 1013.44 132.438 1063.44 121.167 1130.37C114.289 1171.22 134.334 1190.39 214.875 1187.42C275.038 1185.21 306.746 1158.47 399.951 1251.24C493.156 1344 612.63 1265.92 660.717 1215.29C695.972 1179.2 748.483 1079.73 676.493 970.573C604.502 861.414 518.694 912.908 484.789 952.3C462.511 975.331 395.036 1020.51 303.367 1016.97Z" fill="#FFE68F" fill-opacity="0.3"/>
</g>
<defs>
<clipPath id="clip0_187_1537">
<rect width="1440" height="1151" fill="white"/>
</clipPath>
</defs>
</svg>
