<svg width="360" height="2058" viewBox="0 0 360 2058" fill="none" xmlns="http://www.w3.org/2000/svg">
<g clip-path="url(#clip0_202_1974)">
<path d="M124.958 1113.06C87.5033 1112.41 66.6388 1128.49 37.5478 1111.6C-18.5062 1079.04 -12.1238 1027.92 6.14955 1002.21C23.1445 978.292 73.1101 958.777 131.131 975.826C179.39 990.007 240.944 1002.77 270.327 1089C299.71 1175.22 239.055 1165.28 209.339 1151.01C179.623 1136.74 162.413 1113.71 124.958 1113.06Z" fill="#FFE68F" fill-opacity="0.3"/>
<path d="M192.214 736.103C119.967 771.727 57.3212 831.604 66.1332 870.024C75.1941 918.337 174.031 954.862 292.438 908.714C440.446 851.03 403.061 788.837 374.455 746.533C350.98 711.819 282.524 691.573 192.214 736.103Z" fill="#FFE68F" fill-opacity="0.3"/>
<path d="M163.629 1219.23C120.142 1217.55 82.5428 1241.27 77.1963 1273.03C73.9334 1292.4 83.4424 1301.49 121.65 1300.09C150.19 1299.04 165.232 1286.36 209.447 1330.36C253.662 1374.37 310.339 1337.33 333.151 1313.31C349.875 1296.19 374.786 1249 340.635 1197.22C306.483 1145.43 265.777 1169.86 249.693 1188.55C239.125 1199.48 207.116 1220.91 163.629 1219.23Z" fill="#FFE68F" fill-opacity="0.3"/>
</g>
<defs>
<clipPath id="clip0_202_1974">
<rect width="360" height="2058" fill="white"/>
</clipPath>
</defs>
</svg>
