<svg viewBox="0 0 1440 1210" fill="none" xmlns="http://www.w3.org/2000/svg">
<path d="M722.526 -575.843C733.381 -551.886 734.026 -553.782 746.061 -525.91L749.394 -517.569C758.665 -491.607 765.673 -475.395 781.411 -446.679C796.552 -411.956 800.429 -385.875 802.012 -352.125L802.139 -349.413C805.693 -273.682 809.157 -199.869 790.099 -128.011C774.16 -67.9146 741.359 -10.7636 714.946 44.4671C686.697 103.535 639.49 171.409 586.22 210.242C474.23 291.881 297.633 261.446 168.183 196.761C74.7885 150.092 -5.71494 79.0891 -83.0832 9.20742C-141.272 -43.3505 -197.593 -100.001 -244.472 -162.431C-345.711 -297.251 -358.722 -464.376 -344.772 -614.425C-332.447 -746.987 -291.253 -865.301 -197.165 -954.737C-115.127 -1032.72 -4.26695 -1061.32 115.608 -1059.26C184.644 -1058.07 254.913 -1051.79 324.19 -1039.61C347.996 -1035.42 372.704 -1032.2 393.58 -1017.32C506.821 -936.609 594.837 -798.258 667.652 -685.655C691.298 -649.088 705.191 -614.098 722.526 -575.843Z" fill="#FFD225"/>
<path d="M989.021 -393.639C1015.75 -385.592 1014.94 -386.904 1045.52 -377.275L1054.44 -374.272C1081.24 -364.432 1099.04 -358.834 1133.44 -350.413C1171.67 -338.483 1193.88 -326.154 1219.64 -308.657L1221.71 -307.251C1279.51 -267.99 1335.85 -229.724 1371.24 -182.393C1400.84 -142.808 1413.68 -97.2366 1430.67 -55.5707C1448.84 -11.0103 1456.93 46.8201 1438.77 91.7065C1400.6 186.072 1225.39 249.002 1066.34 272.27C951.592 289.057 830.442 286.923 712.823 283.985C624.361 281.776 534.562 276.519 448.779 263.902C263.526 236.655 131.477 152.336 35.1569 65.1147C-49.9374 -11.941 -99.6879 -94.282 -82.6834 -184.81C-67.8564 -263.745 7.66113 -328.987 113.154 -381.738C173.908 -412.117 239.41 -440.304 308.317 -464.86C331.996 -473.298 355.762 -482.661 384.626 -484.013C541.194 -491.352 717.526 -456.259 862.064 -428.227C909.002 -419.123 946.339 -406.489 989.021 -393.639Z" fill="#B5002B"/>
<path d="M939.423 -467.522C946.911 -458.75 948.892 -446.73 948.151 -433.996C968.967 -425.263 1004.07 -435.931 1021.6 -445.575C1062.87 -468.295 1077.51 -502.769 1097.66 -542.078C1117.26 -580.309 1110.72 -627.347 1136.7 -663.254C1203.06 -755 1365.41 -719.854 1449.82 -686C1580.83 -633.457 1679.7 -516.113 1693.3 -373.797C1706.97 -230.853 1611.96 -114.519 1503.28 -35.3087C1369.93 61.8818 1205.14 87.3488 1045.63 47.1308C954.672 24.1985 856.118 -13.1437 795.293 -88.1598C709.559 -193.895 790.833 -319.739 865.886 -406.325C872.935 -414.457 926.296 -482.902 939.423 -467.522Z" fill="#FF521C"/>
</svg>
