<svg viewBox="0 0 139 138" xmlns="http://www.w3.org/2000/svg">
<path d="M83.027 5.64625C89.0236 9.03275 94.2669 12.9525 98.8867 18.0857C99.1712 18.4974 99.4059 19.0414 99.4877 19.262C100.444 20.4698 100.642 20.3752 101.283 21.3468C101.854 22.2112 102.378 23.1013 102.847 24.0028C103.473 25.2024 103.5 26.1512 103.846 27.4488C104.649 30.4607 106.03 32.7993 107.574 35.484C108.823 37.6573 110.694 39.1707 112.799 40.4598C114.752 41.6552 117.264 41.8768 119.023 43.3343C129.352 51.8895 133.057 65.454 136.63 77.7948C139.573 87.9557 139.915 98.618 136.863 108.86C134.806 115.764 128.641 121.252 123.317 125.67C116.65 131.202 108.998 134.438 100.601 136.31C93.9322 137.797 87.2954 138.16 80.4808 137.941C72.0317 137.669 63.4097 137.061 55.1186 135.319C39.8969 132.121 26.2907 124.636 14.7622 114.222C5.31805 105.691 -1.8559 96.1393 -1.99619 82.8546C-2.16184 67.1678 3.07762 49.8782 12.4323 37.3163C20.3991 26.6181 31.7518 17.7891 42.7537 10.4707C49.0665 6.27155 56.7569 0.594042 64.5879 0.0485192C71.2 -0.4121 77.3888 2.4621 83.027 5.64625Z" class="bkg"/>
<path d="M90.1569 55.3435C88.4777 56.0802 86.6883 56.5684 84.8228 56.8055C86.7419 55.6596 88.2067 53.859 88.8954 51.6886C87.106 52.7555 85.1304 53.509 83.025 53.9296C81.3259 52.1205 78.9044 51 76.2627 51C71.1374 51 67.0112 55.1601 67.0112 60.26C67.0112 60.9938 67.0733 61.6994 67.2257 62.3711C59.5292 61.9957 52.719 58.307 48.1441 52.6877C47.3453 54.0735 46.8768 55.6596 46.8768 57.3671C46.8768 60.5733 48.5279 63.4153 50.9889 65.0607C49.5016 65.0325 48.0424 64.6007 46.8063 63.9205C46.8063 63.9487 46.8063 63.9854 46.8063 64.0221C46.8063 68.5209 50.0152 72.2576 54.2233 73.1184C53.4697 73.3245 52.6485 73.4232 51.7961 73.4232C51.2034 73.4232 50.6051 73.3894 50.0435 73.2652C51.2429 76.9314 54.6466 79.6267 58.6938 79.7142C55.5441 82.178 51.5449 83.6626 47.2155 83.6626C46.4563 83.6626 45.7282 83.6287 45 83.5356C49.1008 86.1801 53.9608 87.69 59.2019 87.69C76.2373 87.69 85.5509 73.5785 85.5509 61.3466C85.5509 60.9373 85.5368 60.5422 85.5171 60.1499C87.3544 58.846 88.8982 57.2175 90.1569 55.3435Z" class="ico"/>
</svg>
