<svg viewBox="0 0 134 123" xmlns="http://www.w3.org/2000/svg">
<path d="M93.8455 14.5749C96.1789 15.8587 96.108 15.6493 98.7777 17.1855L99.5563 17.6645C101.896 19.2344 103.45 20.1274 106.453 21.4709C109.79 23.3741 111.729 25.341 113.977 28.1323L114.158 28.3566C119.204 34.6199 124.123 40.7247 127.212 48.2756C129.796 54.5906 130.916 61.8608 132.4 68.5079C133.986 75.6168 134.692 84.8426 133.107 92.0035C129.775 107.058 114.48 117.097 100.595 120.809C90.5781 123.487 80.0021 123.147 69.7344 122.678C62.012 122.326 54.1728 121.487 46.6843 119.474C30.5124 115.128 18.985 101.676 10.5766 87.7613C3.14814 75.4683 -1.1949 62.3322 0.289535 47.89C1.58387 35.2972 8.17629 24.889 17.3855 16.4735C22.6891 11.627 28.4071 7.13019 34.4224 3.21276C36.4896 1.86656 38.5643 0.372974 41.084 0.157149C54.7518 -1.01358 70.1449 4.58495 82.7626 9.05699C86.8601 10.5092 90.1195 12.5249 93.8455 14.5749Z" class="bkg"/>
<path d="M77.125 34H56.875C47.5566 34 40 41.5566 40 50.875V71.125C40 80.4434 47.5566 88 56.875 88H77.125C86.4434 88 94 80.4434 94 71.125V50.875C94 41.5566 86.4434 34 77.125 34ZM88.9375 71.125C88.9375 77.6387 83.6387 82.9375 77.125 82.9375H56.875C50.3613 82.9375 45.0625 77.6387 45.0625 71.125V50.875C45.0625 44.3613 50.3613 39.0625 56.875 39.0625H77.125C83.6387 39.0625 88.9375 44.3613 88.9375 50.875V71.125Z" class="ico"/>
<path d="M81.5123 48.2863C82.5057 48.2863 83.3111 47.481 83.3111 46.4875C83.3111 45.494 82.5057 44.6886 81.5123 44.6886C80.5188 44.6886 79.7134 45.494 79.7134 46.4875C79.7134 47.481 80.5188 48.2863 81.5123 48.2863Z" class="ico"/>
<path d="M67 47.5C59.5446 47.5 53.5 53.5446 53.5 61C53.5 68.4554 59.5446 74.5 67 74.5C74.4554 74.5 80.5 68.4554 80.5 61C80.5 53.5446 74.4554 47.5 67 47.5ZM67 69.4375C62.3492 69.4375 58.5625 65.6508 58.5625 61C58.5625 56.3459 62.3492 52.5625 67 52.5625C71.6508 52.5625 75.4375 56.3459 75.4375 61C75.4375 65.6508 71.6508 69.4375 67 69.4375Z" class="ico"/>
</svg>
