<svg viewBox="0 0 134 123" xmlns="http://www.w3.org/2000/svg">
<path d="M93.8455 14.5749C96.1789 15.8587 96.108 15.6493 98.7777 17.1855L99.5563 17.6645C101.896 19.2344 103.45 20.1274 106.453 21.4709C109.79 23.3741 111.729 25.341 113.977 28.1323L114.158 28.3566C119.204 34.6199 124.123 40.7247 127.212 48.2756C129.796 54.5906 130.916 61.8608 132.4 68.5079C133.986 75.6168 134.692 84.8426 133.107 92.0035C129.775 107.058 114.48 117.097 100.595 120.809C90.5781 123.487 80.0021 123.147 69.7344 122.678C62.012 122.326 54.1728 121.487 46.6843 119.474C30.5124 115.128 18.985 101.676 10.5766 87.7613C3.14814 75.4683 -1.1949 62.3322 0.289535 47.89C1.58387 35.2972 8.17629 24.889 17.3855 16.4735C22.6891 11.627 28.4071 7.13019 34.4224 3.21276C36.4896 1.86656 38.5643 0.372974 41.084 0.157149C54.7518 -1.01358 70.1449 4.58495 82.7626 9.05699C86.8601 10.5092 90.1195 12.5249 93.8455 14.5749Z" class="bkg"/>
<path d="M70.5281 87V63.2821H78.486L79.6799 54.0361H70.5281V48.1338C70.5281 45.4577 71.2682 43.634 75.11 43.634L80.002 43.632V35.362C79.156 35.2521 76.252 35 72.872 35C65.8141 35 60.9821 39.3081 60.9821 47.2181V54.0361H53V63.2821H60.9821V87H70.5281Z" class="ico"/>
</svg>
