<svg viewBox="0 0 295 56" xmlns="http://www.w3.org/2000/svg">
<path d="M294.748 41.2295C293.925 40.5087 292.908 40.5087 291.94 40.4606C289.277 40.3164 286.663 40.4125 284 40.5567C282.935 40.797 281.821 41.1333 280.708 40.845C280.175 40.845 279.691 40.9892 279.255 41.2295C279.062 41.3256 278.868 41.3736 278.674 41.4217C278.287 41.2775 277.851 41.1814 277.464 41.3736C277.173 41.3256 276.883 41.2775 276.592 41.2295V41.1814C276.544 41.1814 276.447 41.1814 276.399 41.1814C276.011 41.1333 275.673 41.1333 275.285 41.1333C275.285 41.1333 275.285 41.1333 275.285 41.0853C275.382 41.0372 275.43 41.0372 275.527 40.9892C276.592 41.0853 276.883 40.7489 277.9 40.5087C277.803 40.3645 277.706 40.2684 277.561 40.1242C277.803 40.0762 278.481 39.932 278.142 39.884C278.093 39.8359 277.27 39.6437 277.415 39.3554C277.9 38.5865 278.868 38.4424 278.626 38.1541C278.868 38.1541 279.11 38.2021 279.304 38.2502C279.546 38.2502 279.788 38.2502 280.03 38.1541C280.32 37.9618 280.514 37.7216 280.514 37.3852H280.562C280.756 37.4813 280.95 37.4813 281.143 37.4333C281.821 37.7696 282.741 37.6735 283.177 38.4904C283.177 38.6346 283.177 38.7788 283.177 38.971C283.516 39.1632 283.855 39.3073 284.194 39.4995C285.646 40.6528 286.711 39.1632 287.97 38.971C288.067 39.1151 288.212 39.2112 288.357 39.2593C289.422 39.4995 290.439 39.1632 291.504 39.0671C292.085 40.8931 293.731 39.019 294.7 39.4515C294.216 38.9229 293.78 38.3463 293.296 37.8177C292.424 36.9047 291.02 36.5683 290.488 35.0306C292.085 35.7514 293.199 34.6942 294.555 34.3579C293.489 33.1085 292.037 34.2137 290.923 33.541C290.584 33.4929 290.197 33.4449 289.858 33.3968C289.035 32.5799 287.97 33.1085 287.05 32.8682C286.324 32.0513 285.598 30.9942 284.823 32.8682C284.387 32.9163 283.903 32.9163 283.467 32.9643C281.579 33.2527 279.981 33.6371 282.257 35.7034C282.305 35.7514 282.112 36.0397 282.063 36.1839C280.853 36.7125 279.885 35.415 278.723 35.7995C278.723 35.8956 278.723 35.9917 278.674 36.0878C278.481 36.0878 278.239 36.0878 278.045 36.0878C278.045 36.1358 277.996 36.1839 277.948 36.1839C278.19 36.1839 278.432 36.2319 278.626 36.2319V36.28C277.464 36.5683 276.447 36.5203 275.866 35.2228C275.673 35.2228 275.479 35.2228 275.285 35.1748C274.946 36.0397 275.624 36.3761 276.108 36.8086C276.011 36.8566 275.963 36.9047 275.866 36.9527C275.769 36.9527 275.721 36.9527 275.624 36.9047C275.673 36.7125 275.818 36.8086 275.527 36.6644C275.237 36.5683 274.995 36.4722 274.704 36.3281C274.656 36.4242 274.656 36.4722 274.607 36.5683C274.559 36.5683 274.559 36.5683 274.511 36.5203C274.462 36.5203 274.462 36.4722 274.414 36.4722C274.414 36.4242 274.414 36.3761 274.414 36.3281C274.268 36.3761 274.075 36.3761 273.93 36.4242C273.881 36.4242 273.833 36.3761 273.833 36.3761C273.784 35.8475 273.688 35.415 272.864 35.5111C272.526 35.5592 272.38 35.7514 272.38 35.9917C272.332 35.9917 272.283 35.9917 272.235 36.0397C272.283 36.0397 272.332 36.0397 272.332 36.0397C272.332 36.1839 272.332 36.28 272.332 36.4242C272.187 36.4242 272.09 36.3761 271.945 36.3761C272.041 36.328 272.138 36.28 272.283 36.2319C272.041 36.1839 271.799 36.1839 271.557 36.1358C271.509 36.2319 271.46 36.28 271.412 36.3761C271.364 36.1839 271.412 36.1358 271.17 36.1358C270.976 36.0878 270.783 36.0878 270.589 36.0397C270.637 35.9436 270.734 35.7995 270.783 35.7034C269.863 35.1748 268.894 34.6462 267.975 34.1176C267.878 34.1176 267.781 34.1176 267.684 34.0215C267.781 33.9735 267.926 33.9254 268.168 33.8293C267.829 33.7332 267.829 33.6851 267.829 33.6371C267.732 33.4929 267.926 33.541 268.168 33.4449C267.2 33.3007 267.151 33.4449 266.958 33.1085C266.716 33.2046 266.716 33.2046 266.474 33.2046C266.57 33.1566 266.619 33.1565 266.716 33.1085C266.667 33.1085 266.667 33.1085 266.619 33.0604C266.038 33.1085 266.086 33.1085 265.893 33.0124C266.038 32.9163 266.232 32.8682 266.377 32.7721C265.893 32.676 264.924 32.628 264.731 32.5799C264.973 32.5319 264.924 32.628 265.215 32.4838C265.118 32.4838 265.021 32.4838 264.876 32.4358C264.731 32.3877 264.537 32.3396 264.392 32.2916C264.537 32.2435 264.682 32.1955 264.779 32.1474C265.312 32.1955 265.796 32.1955 266.328 32.2435C266.328 32.2916 266.28 32.2916 266.28 32.3397C266.813 32.5319 267.394 32.5799 268.459 32.2916C267.829 32.2435 267.345 32.2435 266.909 32.1955C267.297 32.0033 267.636 32.0513 268.459 31.9552C268.41 31.6669 267.926 31.5228 267.732 31.2825C267.878 31.2344 268.023 31.2344 268.168 31.1864C268.168 31.2344 268.168 31.2344 268.168 31.2825C268.313 31.3305 268.507 31.3305 268.652 31.3786C268.604 31.3305 268.556 31.3305 268.507 31.2825C268.41 31.2344 268.265 31.2344 268.168 31.1864C268.362 31.1383 268.556 31.0903 268.798 31.0903H268.846C268.846 31.0903 268.894 31.0903 268.894 31.0422C268.943 31.0422 268.943 31.0422 268.991 31.0422C268.991 31.0903 268.943 31.1383 268.943 31.1864C269.282 31.1864 268.991 31.1383 269.233 31.2825C268.894 31.2825 268.894 31.2825 268.894 31.4747C269.04 31.3786 269.233 31.3305 269.379 31.2344C269.379 31.2825 269.427 31.3305 269.427 31.3786C269.379 31.4266 269.282 31.4266 269.233 31.4747C269.427 31.5708 269.524 31.4747 269.814 31.5228C269.766 31.4266 269.717 31.3305 269.669 31.2825C269.814 31.2344 269.96 31.2344 270.105 31.1864C270.105 31.0903 270.056 30.9942 270.056 30.9461C270.056 30.9942 270.105 30.9942 270.105 31.0422C270.202 31.0422 270.589 30.9942 270.734 31.0903C271.17 31.0422 270.831 31.0903 271.025 30.9461C271.121 30.9942 271.218 31.0903 271.315 31.1383C271.364 31.0903 271.218 31.0903 271.364 31.0903C271.46 31.0422 271.412 31.0903 271.412 31.1383C271.509 31.1383 271.654 31.0903 271.751 31.0903C271.751 31.0422 271.799 30.9461 271.799 30.8981C271.654 30.8981 271.509 30.8981 271.364 30.9461C271.412 30.85 271.509 30.802 271.557 30.7058C271.46 30.7539 271.364 30.7539 271.267 30.802C271.17 30.7539 271.218 30.802 271.315 30.8981L271.267 30.9461C271.17 30.9461 271.073 30.9461 270.976 30.9942C270.928 30.9461 270.831 30.85 270.783 30.802C270.831 30.802 270.879 30.7539 270.928 30.7539C270.879 30.7059 270.831 30.7059 270.783 30.6578C271.364 30.5617 271.799 30.6097 272.283 30.6097C272.477 30.6097 272.283 30.6097 272.574 30.6578C272.574 30.6097 272.622 30.5617 272.622 30.5136C272.671 30.5617 272.719 30.6097 272.768 30.6578C272.913 30.6578 273.058 30.6578 273.203 30.6097C273.155 30.5617 273.058 30.5136 273.01 30.4656C273.058 30.4656 273.107 30.5136 273.155 30.5136C273.107 30.4175 273.01 30.3214 272.961 30.2253C272.719 30.2734 272.671 30.1773 272.477 30.3214C272.38 30.2734 272.235 30.2253 272.138 30.1773C272.138 30.2253 272.187 30.2734 272.187 30.3214C272.041 30.2734 271.896 30.2734 271.751 30.2253C271.654 30.2734 271.557 30.3214 271.46 30.4175C271.46 30.3214 271.509 30.2734 271.509 30.1773C271.557 30.1773 271.557 30.2253 271.606 30.2253C271.848 30.1292 271.751 30.1292 271.702 30.0331C271.702 30.0331 271.702 30.0331 271.751 30.0331C271.799 30.0812 271.799 30.0812 271.848 30.1292C271.945 30.1292 272.041 30.1292 272.138 30.1292L272.187 30.0812C272.283 30.0812 272.38 30.0812 272.526 30.1292L272.574 30.1773C272.671 30.1773 272.671 30.1292 272.719 30.1292C273.833 30.2253 274.946 30.3214 276.06 30.4175C276.011 30.3695 276.011 30.3695 275.963 30.3214C275.237 30.2253 274.511 30.1292 273.736 30.0812C273.736 30.0812 273.736 30.0812 273.784 30.0812C273.736 30.0812 273.688 30.0812 273.688 30.0812C273.591 30.0812 273.542 30.0812 273.445 30.0331C273.591 29.937 273.542 29.937 273.591 29.8409C273.784 29.9851 273.688 29.8409 273.784 29.9851C274.22 29.8409 274.22 29.8889 274.268 29.7448C274.268 29.7928 274.317 29.889 274.317 29.937C274.317 29.8409 274.365 29.7448 274.365 29.6487C273.978 29.6967 273.736 29.7448 273.494 29.6006C273.494 29.6967 273.445 29.7448 273.445 29.8409C273.397 29.7448 273.349 29.6487 273.3 29.6006C273.252 29.6487 273.203 29.6967 273.155 29.7928C273.107 29.6967 273.058 29.6006 273.01 29.5045C272.961 29.5045 272.913 29.5045 272.864 29.5045C272.864 29.4565 272.913 29.4565 272.913 29.4084C273.252 29.4565 274.026 29.5526 274.753 29.6006C275.092 29.6487 275.382 29.6487 275.721 29.6487C275.818 29.6487 275.915 29.6487 275.963 29.6487C275.963 29.6967 275.963 29.6967 275.963 29.7448C276.157 29.7448 276.399 29.6967 276.592 29.6967C276.544 29.6487 276.496 29.6006 276.447 29.6006C276.641 29.6006 276.835 29.5526 277.028 29.5045C277.125 29.5045 277.173 29.5526 277.27 29.5526C277.27 29.5526 277.27 29.5526 277.319 29.5526C277.319 29.5526 277.319 29.5526 277.319 29.6006C277.367 29.6006 277.415 29.5526 277.464 29.5526L277.512 29.5045C277.222 29.2162 276.98 29.2643 276.496 29.024C276.641 29.024 276.931 29.024 277.028 28.9759C277.077 28.9759 277.173 28.9759 277.222 28.9759C277.125 28.9279 277.028 28.9279 276.931 28.8798C276.592 28.7357 276.496 28.8798 276.399 28.9759C276.35 28.9759 276.35 28.9759 276.302 28.9279L276.35 28.8798C276.35 28.8798 276.302 28.8798 276.302 28.8318C276.06 28.8798 275.963 28.8798 275.915 28.9279C275.866 28.9279 275.769 28.9279 275.721 28.9279C275.769 28.8798 275.818 28.8318 275.915 28.7837C275.527 28.8318 275.527 28.8318 275.188 28.8318C274.946 28.7837 274.656 28.7357 274.414 28.6876C274.511 28.6876 274.559 28.6876 274.656 28.6396C274.365 28.5435 274.026 28.4474 273.736 28.3513C273.93 28.3513 274.075 28.3993 274.268 28.3993C274.607 28.4474 274.946 28.4954 275.237 28.5435C275.188 28.4954 275.14 28.4474 275.092 28.3993C275.576 28.3032 275.963 28.3032 276.157 28.2071H276.108C276.205 28.2071 276.254 28.159 276.254 28.159C276.399 28.2071 276.544 28.2551 276.689 28.3032C276.738 28.2551 276.835 28.2551 276.883 28.2071C277.125 28.2551 277.028 28.2552 277.367 28.2552C277.367 28.2071 277.319 28.159 277.319 28.0629C277.415 28.0629 277.512 28.0629 277.609 28.0629L277.658 28.111C277.658 28.0629 277.609 28.0629 277.609 28.0149C277.9 28.0629 278.19 28.111 278.481 28.2071C278.674 28.159 278.868 28.111 279.062 28.0629C278.868 28.0149 278.674 28.0149 278.481 27.9668C278.674 27.9188 278.868 27.9188 279.062 27.8707C279.062 27.8707 279.062 27.8707 279.062 27.8227C278.868 27.7266 278.771 27.6305 278.626 27.5344C278.674 27.5344 278.771 27.5344 278.82 27.5344C278.771 27.4383 278.723 27.5344 278.868 27.4383C278.771 27.3902 278.674 27.3421 278.577 27.246C278.384 27.2941 278.432 27.246 278.384 27.3421C278.335 27.3421 278.335 27.2941 278.287 27.2941C278.287 27.2941 278.287 27.2941 278.287 27.246C278.335 27.246 278.335 27.198 278.384 27.198C278.626 27.198 278.481 27.198 278.626 27.0538C278.626 27.1019 278.674 27.1499 278.674 27.198C278.82 27.0538 279.013 26.9097 279.158 26.7655C279.401 26.9097 279.643 27.0058 279.885 27.1499C280.272 27.1019 280.369 27.1499 280.611 27.0058C279.739 27.0058 279.449 26.7175 279.158 26.4772C279.497 26.5252 279.885 26.6213 280.224 26.6694C280.175 26.6694 280.175 26.6213 280.127 26.6213C280.127 26.5733 280.127 26.4772 280.127 26.4291C279.594 26.3811 279.11 26.285 278.577 26.2369C279.739 25.9967 278.916 25.7564 278.577 25.372C278.82 25.42 279.11 25.4681 279.401 25.42C279.449 25.42 279.497 25.42 279.546 25.4681C279.546 25.42 279.546 25.372 279.546 25.3239C279.255 25.3239 278.965 25.2759 278.674 25.2759C278.674 25.2759 278.723 25.2759 278.723 25.2278C278.868 25.2278 279.013 25.2278 279.158 25.2278C279.449 25.2759 279.885 25.2759 279.885 25.3239C280.272 25.372 280.03 25.2759 280.32 25.2759C280.369 25.2759 280.417 25.2759 280.466 25.2278C280.611 25.2278 280.756 25.2278 280.901 25.2278C280.901 25.2278 280.901 25.1798 280.853 25.1798C280.805 25.1317 280.805 25.1317 280.756 25.1317C280.805 25.1798 280.901 25.1798 280.95 25.2278C280.998 25.1798 281.047 25.1798 281.095 25.1317C281.095 25.1317 281.047 25.1317 281.047 25.0837C280.901 25.0837 280.805 25.0356 280.708 25.0356C280.659 24.9876 280.562 24.9395 280.466 24.9395C280.708 24.9395 280.95 24.9875 281.192 24.9875L281.24 24.9395C281.289 24.9395 281.386 24.9395 281.434 24.9395H281.482C281.482 24.9395 281.482 24.9395 281.531 24.9395C281.773 25.0356 282.209 24.9395 282.548 24.8914C282.451 24.8914 282.354 24.8914 282.257 24.8434C282.257 24.8434 281.676 24.7473 281.192 24.7473C281.192 24.7473 281.192 24.7473 281.143 24.7473C280.95 24.7473 280.805 24.7473 280.659 24.7953C280.32 24.7953 280.562 24.8434 280.466 24.8914C280.32 24.8434 280.514 24.7953 280.272 24.8434C280.32 24.7473 280.369 24.6031 280.417 24.507C280.417 24.5551 280.466 24.6031 280.466 24.6512C280.514 24.6512 280.611 24.6512 280.659 24.6512C280.611 24.5551 280.514 24.4109 280.466 24.3148C280.514 24.3148 280.611 24.3148 280.659 24.3148C280.708 24.4109 280.756 24.5551 280.805 24.6512C280.998 24.5551 280.95 24.6031 281.289 24.6992C281.531 24.6512 281.24 24.6031 281.482 24.6512C281.579 24.507 281.482 24.459 281.289 24.459C281.531 24.4109 281.531 24.459 281.773 24.3148C282.015 24.4109 282.112 24.4109 281.967 24.507C282.499 24.4109 282.16 24.3148 282.354 24.2668C282.402 24.2668 282.499 24.2668 282.548 24.3148L282.596 24.3629L282.548 24.4109C282.596 24.459 282.693 24.459 282.741 24.507C282.935 24.459 283.177 24.4109 283.371 24.3148C283.371 24.2668 283.371 24.2667 283.371 24.2187C283.419 24.3148 283.516 24.3629 283.564 24.459C283.564 24.3629 283.613 24.2187 283.613 24.1226C283.661 24.0745 283.709 24.0745 283.758 24.0265C283.806 24.0745 283.903 24.1226 283.952 24.1706C283.952 24.1226 284 24.0745 284 24.0265C284 24.0745 284 24.0745 284 24.1226C284.097 24.0265 284.242 23.9784 284.339 23.8823C284.339 23.9304 284.387 23.9304 284.387 23.9784C284.436 23.9304 284.533 23.8823 284.581 23.7862C284.533 23.8343 284.484 23.8343 284.436 23.8823C284.436 23.8343 284.484 23.7862 284.484 23.7382C284.678 23.7382 284.871 23.7382 285.065 23.7382C284.92 23.7382 284.775 23.7862 284.629 23.7862C284.726 23.8343 284.871 23.8343 284.968 23.8823C285.114 23.8343 285.307 23.7382 285.695 23.7862C285.646 23.7382 285.646 23.6901 285.598 23.6421C285.501 23.594 285.404 23.594 285.356 23.546C285.501 23.546 285.598 23.4979 285.743 23.4979C285.162 23.4498 284.726 23.4499 284.242 23.4499C284.194 23.4018 284.194 23.3537 284.145 23.3537C284.29 23.3537 284.436 23.3057 284.581 23.3057C284.484 23.3537 284.387 23.3537 284.29 23.4018C284.484 23.4018 284.726 23.4499 284.92 23.4499C284.775 23.3537 284.968 23.3537 284.726 23.4018C285.21 23.2096 285.743 23.0654 286.227 22.8732C285.598 22.8252 284.387 23.2096 283.806 23.4018C283.806 23.4018 283.855 23.4018 283.952 23.4018C284.097 23.3537 284.097 23.4018 284.194 23.4499C284.048 23.4499 283.952 23.4499 283.806 23.4499H283.758C283.613 23.4499 283.419 23.4499 283.225 23.4499C283.225 23.4499 283.225 23.4499 283.274 23.4499C283.225 23.4499 283.177 23.4499 283.128 23.4499C282.983 23.4979 282.886 23.4979 282.79 23.4979C282.79 23.4498 282.79 23.4018 282.741 23.3537C282.451 23.4499 282.499 23.4499 282.16 23.3057C282.209 23.3537 282.257 23.3537 282.305 23.4018C282.209 23.4018 282.16 23.4499 282.063 23.4499C282.063 23.4499 282.063 23.4499 282.063 23.4018C282.015 23.3537 281.967 23.3537 281.918 23.3057C281.967 23.3057 282.015 23.2576 282.063 23.2576C282.015 23.2576 281.967 23.2096 281.918 23.2096C282.112 23.2096 282.305 23.2096 282.499 23.1615C282.451 23.0654 282.402 22.9693 282.305 22.9213C282.257 22.9693 282.209 23.0174 282.16 23.0174C282.112 22.9693 282.063 22.9693 281.967 22.9213C281.918 22.8732 281.87 22.8732 281.821 22.8252C281.628 22.8252 281.434 22.8732 281.24 22.8732C281.192 22.8732 281.143 22.8252 281.095 22.8252C281.143 22.7771 281.143 22.681 281.192 22.633C281.386 22.7291 281.192 22.7291 281.531 22.7291C281.289 22.633 281.482 22.681 281.87 22.633C281.967 22.681 282.063 22.7291 282.209 22.7771C282.257 22.7291 282.305 22.681 282.354 22.633C282.063 22.633 282.257 22.681 282.112 22.5849C282.209 22.5849 282.305 22.633 282.402 22.633C282.451 22.633 282.499 22.633 282.596 22.5849C282.644 22.633 282.693 22.681 282.741 22.7291C282.305 22.7291 282.548 22.681 282.354 22.7771C282.451 22.8252 282.499 22.8732 282.596 22.9213C282.644 22.9213 282.644 22.9213 282.693 22.8732C283.032 22.633 282.983 22.7291 283.032 22.4888C283.08 22.4888 283.128 22.4888 283.177 22.4888L283.128 22.5368C283.322 22.5368 283.516 22.5368 283.709 22.5849C283.661 22.633 283.613 22.7291 283.564 22.7771C283.032 22.8732 282.596 22.9693 282.548 23.0174C283.032 22.9213 283.661 23.0654 283.758 22.8732C283.806 22.9213 283.855 22.9213 283.903 22.9693C284.387 22.8252 284.871 22.7291 285.356 22.5849C285.743 22.5849 286.663 22.5368 286.953 22.4407C288.551 21.9602 287.389 21.5277 288.357 21.1914C288.212 21.1433 288.018 21.0472 287.873 20.9991C288.018 21.0472 288.212 21.0953 288.357 21.1433C288.406 21.1433 288.406 21.1433 288.454 21.1433C288.406 20.9992 288.406 20.8069 288.357 20.6628C288.164 20.6628 287.922 20.7108 287.728 20.7108C287.728 20.6628 287.728 20.6628 287.728 20.6147C287.68 20.6147 287.68 20.6147 287.631 20.5667C287.825 20.5667 288.018 20.5667 288.212 20.6147C288.212 20.6147 288.212 20.6147 288.212 20.5667C287.68 20.4706 287.825 20.3745 287.97 20.1822C287.534 20.2303 287.97 20.2784 287.583 20.2303C287.631 20.2303 287.68 20.2303 287.728 20.1822C287.825 20.1342 287.873 20.0381 287.97 19.99C287.728 19.99 287.534 19.7017 287.486 19.5576C287.244 19.6537 287.341 19.5576 287.341 19.7017C286.566 19.4134 287.341 19.4134 286.421 19.2692C286.518 19.2692 286.566 19.2212 286.663 19.2212C286.033 19.029 285.307 18.6446 284.29 18.6926C284.194 18.5965 284.145 18.5004 284.048 18.4043C284.145 18.3562 284.29 18.3082 284.387 18.2601C284.436 18.2121 284.29 18.2121 284.242 18.164C284.145 18.2121 284 18.2121 283.903 18.2601C283.903 18.2601 283.903 18.2601 283.903 18.2121C283.855 18.2121 283.855 18.2121 283.806 18.2121C283.564 18.2121 283.322 18.2121 283.08 18.2121C283.177 18.164 283.274 18.116 283.419 18.0679C283.128 18.0199 282.886 18.0199 282.596 17.9718C282.548 18.0199 282.499 18.0199 282.451 18.0679C282.402 18.0199 282.402 18.0199 282.354 17.9718C282.354 17.8757 282.305 17.9718 282.499 17.8277C282.015 17.8277 282.112 17.6835 281.87 17.5874C281.773 17.5393 281.676 17.5393 281.531 17.4913C281.531 17.4913 281.531 17.4913 281.482 17.4913C281.482 17.4432 281.531 17.4432 281.531 17.3952C280.901 17.251 280.272 17.1549 279.643 17.0107C279.546 17.0588 279.497 17.0588 279.401 17.1069C279.352 17.0588 279.352 16.9627 279.304 16.9146C278.965 16.9627 279.207 16.9627 278.965 16.8666C278.771 16.9146 278.82 16.9627 278.723 16.9146C278.093 16.9627 276.931 16.7224 276.157 16.6263C274.898 16.0016 273.058 15.2328 271.945 15.5211C271.751 15.3289 271.557 15.1367 271.364 14.9445C271.412 14.8484 271.509 14.8003 271.557 14.7042C271.557 14.7523 271.557 14.7523 271.557 14.8003C271.848 14.512 271.412 14.2717 271.364 14.2237C271.315 14.2717 271.218 14.2717 271.17 14.3198C271.122 14.2237 271.025 14.1756 270.976 14.0795C270.976 14.1276 270.976 14.1756 270.976 14.2237C270.831 14.1756 270.686 14.1276 270.54 14.0795C270.492 14.0795 270.444 14.1276 270.395 14.1276C270.492 14.0315 270.347 14.0795 270.589 14.0795C270.541 13.9834 270.492 13.8393 270.444 13.7432C270.444 13.7912 270.444 13.7912 270.444 13.8393C270.347 13.6951 270.056 13.4548 269.669 13.1665C269.669 13.1665 269.621 13.1185 269.572 13.1185C268.41 12.2535 266.474 11.0041 265.118 11.3405C265.118 11.2444 265.07 11.1483 265.07 11.0522L265.021 11.1002C264.779 11.1963 264.876 11.1002 264.973 11.2444C264.876 11.2444 264.779 11.2444 264.682 11.1963C264.682 11.1002 264.731 11.0041 264.731 10.908C264.537 10.9561 264.537 11.1002 264.295 11.2444C264.15 11.1963 264.053 11.1002 264.004 11.0522C264.053 11.0522 264.101 11.0522 264.15 11.0522C264.053 10.9561 264.15 11.0041 264.004 10.9561L263.956 11.0041C263.859 10.908 263.811 10.8119 263.714 10.7639L263.762 10.7158C263.811 10.7158 263.859 10.7639 263.908 10.7639C263.956 10.8119 264.053 10.86 264.101 10.908C264.247 10.86 264.101 10.908 264.295 10.86C264.295 10.6197 263.666 10.6197 263.375 10.5236C263.278 10.5717 263.181 10.5717 263.085 10.6197C263.133 10.5717 263.181 10.4755 263.23 10.4275C263.181 10.4275 263.133 10.3794 263.085 10.3794C262.842 10.4275 263.133 10.4275 262.794 10.4275C263.036 10.5236 262.794 10.4275 263.085 10.4756C262.988 10.5236 262.891 10.5717 262.794 10.6197C262.794 10.5717 262.794 10.5236 262.794 10.4275C262.697 10.4755 262.6 10.4755 262.504 10.5236C262.504 10.4755 262.504 10.4755 262.504 10.4275C262.552 10.3794 262.6 10.2833 262.649 10.2353C262.697 10.2353 262.746 10.2353 262.794 10.2353C262.988 10.2353 263.085 10.1392 263.23 10.0431C263.278 10.1392 263.181 10.1392 263.036 10.2833C263.085 10.2833 263.181 10.2353 263.23 10.2353C263.23 10.2833 263.278 10.2833 263.375 10.2353C263.52 10.3314 263.423 10.2833 263.714 10.2833C263.762 10.3794 263.811 10.4755 263.859 10.5236C263.956 10.3314 263.811 10.4275 264.15 10.2353C263.908 10.2353 263.908 10.3314 263.859 10.2833C263.762 10.2353 263.666 10.1872 263.569 10.1392C263.666 10.1872 263.762 10.1872 263.859 10.2353C263.908 10.1872 263.956 10.1392 264.004 10.0911C263.859 10.0911 263.666 10.0911 263.52 10.1392C263.617 10.0911 263.762 10.0911 263.859 10.0431C263.859 9.99502 263.859 9.94697 263.859 9.89891C263.859 9.94697 263.811 9.94697 263.811 9.99502C263.423 9.89891 263.908 9.75476 263.859 9.56254C264.247 9.56254 264.004 9.56254 263.908 9.41838C264.004 9.41838 264.101 9.41838 264.198 9.41838C264.15 9.37033 264.101 9.37033 264.053 9.32228L264.004 9.37033C263.714 9.41838 263.859 9.37033 263.859 9.51449C263.811 9.46644 263.714 9.41838 263.666 9.37033C263.666 9.32228 263.666 9.27422 263.666 9.22617C263.52 9.27422 263.278 9.22617 263.472 9.27423C263.423 9.27423 263.327 9.27422 263.278 9.22617C263.327 9.17812 263.375 9.13007 263.423 9.08201C263.472 9.08201 263.52 9.08201 263.569 9.03396C263.714 9.13007 263.859 9.17812 264.004 9.27423C264.004 9.27423 264.053 9.27422 264.053 9.22617C264.004 9.17812 263.908 9.08201 263.859 9.03396C263.956 9.08201 264.101 9.17812 264.198 9.22617C264.247 9.17812 264.295 9.17812 264.343 9.13006C264.44 9.22617 264.585 9.41838 264.634 9.65865C264.585 9.65865 264.489 9.65865 264.44 9.65865C264.44 9.7067 264.392 9.7067 264.392 9.75476C264.489 9.75476 264.585 9.7067 264.682 9.7067C264.682 9.75475 264.682 9.75475 264.682 9.80281C264.779 9.75475 264.876 9.75475 264.973 9.7067C265.021 9.75475 264.876 9.75475 265.118 9.89891H265.166C265.215 9.75475 265.07 9.7067 264.731 9.61059V9.56254C264.876 9.51449 265.021 9.51449 265.166 9.46643C265.166 9.51449 265.215 9.56254 265.215 9.65865C265.263 9.46644 265.554 9.37033 265.166 9.32228C265.215 9.27423 265.312 9.17812 265.36 9.13006C265.409 9.17812 265.457 9.22617 265.505 9.27423C265.505 9.32228 265.554 9.27423 265.457 9.32228C265.602 9.37033 265.747 9.41838 265.893 9.46643C265.844 9.41838 265.747 9.37033 265.699 9.32228C265.99 9.27423 266.135 9.32228 266.038 9.13006C265.989 9.17812 265.941 9.22617 265.893 9.27423C265.893 9.22617 265.844 9.22617 265.844 9.17812C265.844 9.17812 265.747 9.08201 265.602 8.9859C265.796 8.93785 265.747 8.98591 265.651 8.8898C265.651 8.93785 265.602 8.9859 265.602 8.9859C265.505 8.93785 265.36 8.8898 265.215 8.8898C265.312 8.74564 265.457 8.60148 265.554 8.45732C265.505 8.55343 265.457 8.60148 265.409 8.69759C265.844 8.60148 265.602 8.64953 265.602 8.50537C265.747 8.45732 265.941 8.45732 266.086 8.40927C266.086 8.45732 266.038 8.45732 266.038 8.50537C265.893 8.55343 265.699 8.64953 265.554 8.69759C265.602 8.69759 265.651 8.74564 265.699 8.74564C265.796 8.69759 265.893 8.64954 265.99 8.60148C266.038 8.64954 266.086 8.69759 266.135 8.7937C266.135 8.74564 266.183 8.69759 266.183 8.64954C266.232 8.74564 266.328 8.8898 266.377 8.9859C266.425 8.9859 266.522 8.98591 266.57 8.93785C266.522 8.84175 266.425 8.69759 266.377 8.60148C266.813 8.50538 267.248 8.50538 267.151 8.21706C267.297 8.26511 267.49 8.31316 267.636 8.36122C267.539 8.40927 267.442 8.40927 267.345 8.45732C267.345 8.45732 267.394 8.45732 267.394 8.50537C267.394 8.50537 267.442 8.50538 267.442 8.55343C267.539 8.55343 267.636 8.50537 267.732 8.50537C267.587 8.40927 267.394 8.31316 267.248 8.21706C267.345 8.21706 267.442 8.21706 267.539 8.26511C267.442 8.169 267.297 8.12095 267.2 8.02485H267.151C267.055 8.0729 266.958 8.169 266.861 8.21706C266.861 8.169 266.813 8.16901 266.813 8.12095C266.764 8.16901 266.716 8.21706 266.667 8.26511C266.764 8.169 266.861 8.02485 266.958 7.92874C266.861 7.97679 266.764 7.97679 266.667 8.02485C266.522 7.83263 266.328 7.68848 266.183 7.49626H266.232C266.377 7.78458 266.57 7.88069 267.006 7.92874C266.958 7.88069 266.958 7.92874 267.055 7.88069C267.055 7.68848 267.006 7.49626 267.006 7.30405C267.055 7.30405 267.103 7.30405 267.151 7.30405C267.151 7.30405 267.2 7.30405 267.2 7.35211C267.345 7.49627 267.248 7.3521 267.151 7.49626C267.2 7.49626 267.297 7.49626 267.345 7.54432C267.49 7.49626 267.684 7.44821 267.878 7.44821C267.975 7.44821 267.975 7.44821 267.975 7.44821C268.313 7.40016 268.556 7.35211 268.556 7.35211C268.604 7.30405 268.652 7.256 268.701 7.20795C268.41 7.11184 268.41 7.11184 268.265 6.87158C268.168 6.91963 268.071 6.96768 267.975 7.01573L267.926 6.96768C267.878 6.91963 267.781 6.82352 267.732 6.77547C267.781 6.82352 267.878 6.87158 267.926 6.91963C267.975 6.91963 268.071 6.91963 268.12 6.87158C268.12 6.82352 268.071 6.72742 268.071 6.67936C267.684 6.67936 267.926 6.58326 267.732 6.72742C267.732 6.63131 267.781 6.5352 267.781 6.48715C267.781 6.5352 267.781 6.58326 267.781 6.63131C268.071 6.48715 268.071 6.5352 268.362 6.58326C268.41 6.48715 268.459 6.39104 268.507 6.34299C268.507 6.39104 268.459 6.4391 268.459 6.48715C268.555 6.4391 268.701 6.39104 268.798 6.34299C268.41 6.19883 268.507 6.24689 268.362 6.05467C268.313 6.05467 268.265 6.10273 268.217 6.10273C267.926 5.81441 268.265 5.57415 267.345 5.18972C266.909 5.42999 260.615 4.56503 258.776 4.8053C257.13 4.75724 255.483 4.70919 253.789 4.66114C252.433 4.94945 241.733 4.18061 239.167 4.32477C239.119 4.32477 239.071 4.32477 239.022 4.32477C239.022 4.27671 238.974 4.22866 238.974 4.18061C238.974 4.22866 238.974 4.22866 238.974 4.27672H239.022C238.732 4.27672 238.393 4.32477 238.102 4.32477C238.199 4.18061 238.102 4.18061 238.248 4.03645C237.909 4.03645 238.005 4.03645 237.618 3.9884C237.667 4.03645 237.667 4.0845 237.715 4.13256C237.618 4.13256 237.57 4.0845 237.473 4.0845C237.425 4.13256 237.376 4.22866 237.328 4.27672C237.376 4.27672 237.425 4.22866 237.473 4.22866C237.667 4.27672 237.86 4.27671 238.054 4.32477C236.698 4.37282 235.439 4.27672 234.278 4.22866C234.132 4.18061 233.987 4.13256 233.793 4.0845C233.745 4.13256 233.697 4.13255 233.6 4.18061C232.438 4.13255 231.469 4.0845 230.743 4.18061C230.598 4.18061 230.453 4.13256 230.259 4.13256C230.259 4.13256 230.259 4.13256 230.211 4.0845C229.969 4.03645 230.114 4.0845 230.065 4.13256C230.065 4.13256 230.065 4.13256 230.017 4.13256C229.969 4.0845 229.92 4.0845 229.92 4.03645C229.92 4.0845 229.872 4.13255 229.872 4.18061C229.63 4.18061 229.436 4.13256 229.339 4.13256L229.291 4.0845C229.242 4.0845 229.146 4.0845 229.097 4.0845C229.049 4.0845 228.952 4.0845 228.903 4.03645C228.807 4.03645 228.661 4.03645 228.565 3.9884C228.565 3.9884 228.565 3.9884 228.565 4.03645C228.71 4.03645 228.855 4.0845 229 4.0845C228.419 4.18061 227.403 4.18061 226.144 4.18061C226.095 4.18061 226.095 4.13256 226.047 4.13256C225.999 4.13256 225.999 4.18061 225.95 4.18061C225.902 4.18061 225.853 4.18061 225.805 4.18061L225.853 4.13256C225.805 4.13256 225.708 4.18061 225.66 4.18061C223.868 4.18061 221.69 4.0845 219.559 4.03645H219.511C219.414 4.03645 219.317 4.03645 219.269 4.03645L219.317 3.9884C219.172 3.9884 219.027 4.03645 218.93 4.03645C215.589 3.94034 212.588 3.84424 211.91 4.03645C210.845 3.9884 209.828 3.9884 208.763 3.94034C208.036 3.89229 207.407 3.79619 206.826 3.74813C206.826 3.70008 206.826 3.70008 206.826 3.65203C206.826 3.65203 206.778 3.65203 206.778 3.60397C206.681 3.65203 206.584 3.65202 206.487 3.70008C206.39 3.70008 206.342 3.70008 206.245 3.65203C206.197 3.60397 206.197 3.50787 206.197 3.45981C206.245 3.45981 206.294 3.45981 206.342 3.45981C206.39 3.50787 206.439 3.50787 206.439 3.55592C206.439 3.50787 206.487 3.45981 206.487 3.41176C206.487 3.45981 206.487 3.50787 206.487 3.50787C206.584 3.50787 206.681 3.45981 206.729 3.45981C206.632 3.45981 206.584 3.41176 206.487 3.41176H206.536C206.778 3.41176 207.02 3.45981 207.262 3.45981C207.213 3.45981 207.117 3.50787 207.068 3.50787C207.165 3.50787 207.31 3.50787 207.407 3.50787C207.407 3.50787 207.455 3.50787 207.455 3.45981C207.455 3.41176 207.455 3.36371 207.455 3.36371C207.504 3.36371 207.504 3.36371 207.504 3.41176C207.504 3.45981 207.504 3.45982 207.504 3.50787C207.552 3.50787 207.601 3.50787 207.649 3.50787L207.698 3.55592C207.843 3.50787 207.94 3.50787 208.085 3.45981C208.133 3.45981 208.182 3.50787 208.23 3.50787C208.279 3.55592 208.327 3.50787 208.521 3.60397C208.569 3.60397 208.569 3.60397 208.617 3.60397C208.666 3.55592 208.714 3.50787 208.763 3.45981C208.763 3.50787 208.763 3.55592 208.763 3.60397C210.796 3.45981 215.638 4.13256 216.606 3.89229C216.17 3.79618 216.461 3.84424 216.122 3.70008C215.299 3.74813 214.669 3.45982 213.943 3.74813C213.943 3.70008 213.943 3.65203 213.943 3.60397C213.217 3.79619 212.878 3.45981 212.249 3.65203C212.152 3.55592 212.103 3.45981 212.007 3.36371C211.668 3.36371 211.377 3.31566 211.038 3.31566C211.038 3.31566 211.038 3.31566 211.038 3.2676C211.571 3.1715 211.232 3.21955 211.28 3.07539C211.571 3.02734 211.861 2.97928 212.2 2.93123C211.426 2.83512 207.601 2.93123 207.068 2.78707C206.439 2.64292 205.47 2.54681 204.405 2.49875C204.26 2.4507 204.115 2.4507 204.018 2.4507C203.921 2.40265 203.824 2.30654 203.728 2.25849C203.873 2.25849 204.018 2.25849 204.163 2.25849C204.26 2.21044 204.357 2.21044 204.405 2.16238C204.454 2.16238 204.502 2.21044 204.551 2.21044V2.25849C204.599 2.25849 204.599 2.25849 204.647 2.25849C204.696 2.21044 204.744 2.16238 204.793 2.11433C204.841 2.11433 204.889 2.11433 204.938 2.11433C204.938 2.11433 204.938 2.11433 204.938 2.16238C204.841 2.21044 204.793 2.21044 204.696 2.25849C205.325 2.30654 206.39 2.3546 206.826 2.40265C206.826 2.4507 206.826 2.4507 206.826 2.49875C206.923 2.49875 207.02 2.4507 207.165 2.4507C207.213 2.4507 207.262 2.4507 207.31 2.49875C207.31 2.4507 207.262 2.40265 207.407 2.4507C207.02 2.21044 206.1 2.30654 205.47 2.30654C205.277 2.25849 205.083 2.16238 204.889 2.11433C204.744 2.11433 204.599 2.16238 204.454 2.16238C204.502 2.16238 204.599 2.11433 204.647 2.11433C204.599 2.11433 204.551 2.06628 204.502 2.06628C204.018 2.06628 204.405 2.11433 203.921 2.01822C203.824 2.06628 203.728 2.11433 203.582 2.16238C203.534 2.11433 203.631 2.01823 203.437 2.06628C203.389 2.06628 203.292 2.01822 203.147 2.01822C202.711 1.82601 202.178 1.68185 201.597 1.48964L201.646 1.44159C201.597 1.44159 201.597 1.44159 201.549 1.39354C201.549 1.44159 201.549 1.44159 201.549 1.48964C201.452 1.44159 201.355 1.44159 201.21 1.39354C197.772 0.624689 192.253 0.528581 186.782 0.576634C186.734 0.576634 186.685 0.576634 186.637 0.576634C186.637 0.576634 186.637 0.576634 186.685 0.576634C186.54 0.576634 186.395 0.576634 186.25 0.576634C186.298 0.576634 186.346 0.528582 186.395 0.528582C186.056 0.528582 185.814 0.624689 186.008 0.48053C185.959 0.48053 185.959 0.48053 185.911 0.432477C185.911 0.48053 185.911 0.480529 185.911 0.528582C185.814 0.528582 185.717 0.528582 185.62 0.528582C185.572 0.480529 185.523 0.432478 185.475 0.384425C185.136 0.480531 185.523 0.432477 185.088 0.48053L185.136 0.528582C183.587 0.528582 182.038 0.576634 180.585 0.576634C178.455 0.240263 172.645 0.240266 168.239 0.192213C165.722 0.14416 163.64 0.144159 162.962 0C162.575 0.048053 162.139 0.0961074 161.752 0.14416C161.8 0.0961074 161.848 0.0961052 161.897 0.0480522C161.8 0.0961052 161.703 0.0961074 161.558 0.14416C161.461 0.14416 161.413 0.14416 161.316 0.192213C161.413 0.192213 161.461 0.240265 161.558 0.240265C159.718 0.528583 154.973 -0.0961074 152.843 0.336369C152.649 0.144157 149.067 0.144159 148.098 0.240265C142.773 0.336371 137.399 0.432477 132.073 0.48053C131.395 0.528583 130.766 0.624689 130.088 0.672742C129.846 0.672742 129.652 0.62469 129.459 0.62469C129.555 0.62469 129.604 0.576634 129.701 0.576634C129.604 0.576634 129.555 0.576635 129.459 0.528582C129.362 0.480529 129.265 0.48053 129.12 0.432477C129.168 0.48053 129.216 0.480529 129.265 0.528582C128.878 0.480529 128.442 0.432478 128.055 0.384425C127.377 0.480531 125.295 0.528581 122.777 0.576634C117.742 0.624687 110.964 0.62469 109.754 1.10522C109.463 0.864955 105.832 1.10522 105.251 1.24938C105.057 1.20132 104.864 1.15327 104.67 1.10522C104.622 1.29743 103.605 1.34548 103.121 1.53769C103.024 1.44159 102.975 1.34548 102.879 1.29743C102.782 1.29743 102.733 1.29743 102.637 1.34548C102.491 1.39354 102.298 1.39354 102.152 1.44159C101.862 1.44159 101.62 1.44159 101.329 1.44159C101.426 1.39354 101.523 1.39354 101.668 1.34548C101.62 1.29743 101.62 1.29743 101.571 1.24938C101.523 1.24938 101.475 1.24938 101.426 1.29743C101.281 1.34548 101.136 1.39354 101.039 1.44159C100.894 1.44159 100.7 1.39354 100.555 1.39354C100.845 1.44159 101.087 1.48964 101.378 1.53769V1.58575C99.0054 1.87407 88.6445 1.97017 87.6278 2.3546C87.3857 2.30654 87.4826 2.4507 87.4826 2.4507C87.3858 2.40265 87.2889 2.3546 87.1437 2.30654C86.6595 2.40265 87.0953 2.3546 86.5627 2.3546C86.5143 2.3546 86.4659 2.40265 86.4174 2.40265C86.4659 2.40265 86.5627 2.4507 86.6111 2.4507C86.4659 2.4507 86.3206 2.40265 86.1754 2.40265C85.9817 2.4507 85.7881 2.54681 85.5944 2.59486C84.965 2.59486 83.9967 2.49875 83.6578 2.73902C83.7546 2.69097 83.7062 2.73902 83.7546 2.78707C83.803 2.78707 83.8515 2.78707 83.8999 2.73902C83.9967 2.73902 84.0935 2.78707 84.2388 2.78707C84.2388 2.73902 84.2388 2.73902 84.2388 2.69097C84.6745 2.64291 85.7396 2.59486 86.369 2.54681C86.2722 2.49876 86.2238 2.49875 86.127 2.4507C86.127 2.4507 86.127 2.4507 86.127 2.40265C86.1754 2.40265 86.2238 2.40265 86.2722 2.40265C86.3206 2.4507 86.369 2.49876 86.4174 2.54681C86.4659 2.54681 86.4659 2.54681 86.5143 2.54681V2.49875C86.5627 2.49875 86.6111 2.4507 86.6595 2.4507C86.7564 2.49875 86.8532 2.49876 86.9016 2.54681C87.9183 2.49876 88.9835 2.4507 90.0002 2.40265C90.0486 2.40265 90.097 2.4507 90.1454 2.4507C90.1938 2.49875 90.2423 2.59486 90.2907 2.64291C89.8065 2.73902 90.0002 2.64291 89.6613 2.83513C87.9667 2.69097 85.2071 2.73902 83.9483 3.07539C83.4157 3.21955 79.5909 3.12344 78.8163 3.21955C79.1068 3.2676 79.3972 3.31566 79.7362 3.36371C79.7846 3.50787 79.4457 3.45982 79.9782 3.55592C79.9782 3.55592 79.9782 3.55592 79.9782 3.60397C79.6393 3.60397 79.3488 3.65203 79.0099 3.65203C78.9131 3.74813 78.8647 3.84424 78.7679 3.94034C78.1385 3.74813 77.7996 4.0845 77.0733 3.89229C77.0733 3.94034 77.0733 3.9884 77.0733 4.03645C76.3471 3.74813 75.7177 4.0845 74.8946 3.9884C74.5557 4.13256 74.8462 4.0845 74.4105 4.18061C74.8462 4.27671 76.0566 4.18061 77.509 4.0845H77.6543H77.5575C77.7511 4.0845 77.9448 4.03645 78.1385 4.03645C77.9932 4.0845 77.848 4.13255 77.7511 4.18061C77.4122 4.22866 77.3154 4.51698 77.509 4.70919C73.0064 5.09362 68.3102 5.38193 67.1482 5.38193C67.1966 5.42998 67.1966 5.47804 67.245 5.52609C65.3568 5.91052 63.3234 5.86246 60.951 6.10273C60.9995 6.05467 61.0479 6.00662 61.0963 5.95857C60.1764 5.95857 59.1113 6.19883 57.8525 6.34299C57.7556 6.29494 57.6588 6.24689 57.5136 6.19883C57.3199 6.24689 57.1262 6.29494 57.0778 6.34299C57.0778 6.34299 57.1747 6.39105 57.2231 6.4391C57.1747 6.4391 57.0778 6.4391 57.0294 6.4391C56.4 6.4391 55.7706 6.39105 55.1412 6.39105C55.0444 6.39105 54.9476 6.39105 54.8023 6.39105C54.4634 6.53521 54.0761 6.67936 53.7372 6.82352C53.1562 6.77547 52.5752 6.72742 52.0427 6.67936C51.8974 6.72742 51.9942 6.67936 51.9458 6.63131C51.8006 6.67936 51.6553 6.67936 51.5585 6.72742C51.4133 6.63131 51.268 6.58326 51.1712 6.48715C50.8807 6.48715 50.6386 6.5352 50.3481 6.5352C50.2997 6.63131 50.2997 6.67936 50.2513 6.77547C50.445 6.77547 50.6386 6.72742 50.8323 6.72742C50.8323 6.77547 50.8323 6.77547 50.8323 6.82352C50.6386 6.87157 50.445 6.87158 50.2513 6.91963C50.2029 6.91963 50.2029 6.96768 50.1545 6.96768C50.7839 7.01573 51.4617 7.01573 51.5585 7.06379C51.5585 7.01573 51.5585 6.96768 51.5585 6.91963C52.1395 6.96768 52.0911 6.91963 52.2847 6.87158C52.5752 6.82352 52.3331 6.87158 52.6721 6.91963C52.6721 6.96768 52.6721 6.96768 52.6721 7.01573C52.1395 6.91963 46.2812 7.92874 44.9256 8.02485C44.9256 7.97679 44.9256 7.92874 44.9256 7.88069C45.7971 7.83264 46.0876 7.78458 46.2328 7.54432C45.4582 7.64042 44.6351 7.73653 43.8605 7.88069C44.0057 7.97679 44.0057 7.88069 43.8605 8.02485C44.0541 7.97679 44.2962 7.97679 44.4899 7.92874C44.5867 7.97679 44.6835 8.0729 44.8288 8.12095C44.2962 8.12095 43.6668 8.21706 43.2795 8.36122C43.2311 8.31316 43.2311 8.26511 43.1827 8.21706C43.2311 8.26511 43.2795 8.26511 43.3279 8.31317C43.3763 8.26511 43.4247 8.26511 43.4732 8.21706C43.4247 8.21706 43.3763 8.16901 43.3279 8.16901C43.5216 8.16901 43.7152 8.12095 43.8605 8.12095C43.7636 8.0729 43.6668 8.0729 43.5216 8.02485V8.0729C43.4247 8.12095 43.3763 8.12095 43.2795 8.16901C43.1827 8.12095 43.0858 8.12095 43.0374 8.0729C42.8438 8.02485 42.5049 8.0729 42.2144 7.97679C42.1659 7.97679 42.1175 7.9768 42.1175 7.83264C42.1659 7.83264 42.1659 7.83264 42.2144 7.83264C42.2628 7.88069 42.3112 7.92874 42.3596 7.97679C42.6017 7.83263 42.3596 7.83263 42.9406 7.78458C42.8922 7.78458 42.8922 7.73653 42.8438 7.73653C42.8438 7.68848 42.8438 7.68848 42.8438 7.64042C41.9239 7.73653 42.0207 7.83264 41.1976 7.83264C41.1492 7.88069 41.1492 7.92874 41.1008 7.97679C40.4714 7.92874 39.9388 7.97679 39.3094 8.0729C39.5999 7.83264 39.842 7.64042 40.1325 7.40016C40.1325 7.35211 40.1325 7.3521 40.1325 7.30405C39.6484 7.40016 38.4864 7.64042 38.438 7.68848C38.1475 7.59237 38.2443 7.68848 38.1959 7.49626C38.2443 7.49626 38.2927 7.54432 38.3411 7.54432C39.0674 7.40016 39.3579 7.15989 39.7452 7.01573C39.7936 7.01573 39.842 7.06379 39.8904 7.06379C41.4397 7.01573 44.2478 6.53521 45.0224 6.39105C45.2161 6.39105 45.4098 6.34299 45.6034 6.34299C45.7003 6.29494 45.7487 6.29494 45.8455 6.24689C45.8939 6.24689 45.9423 6.29494 45.9907 6.29494C45.6518 6.10273 44.7804 6.15078 44.1994 6.24689C44.151 6.19883 44.1026 6.10273 44.0541 6.05467C43.1343 6.39105 38.8253 7.20795 38.5832 7.11184C38.6316 7.06379 38.68 7.06379 38.7285 7.01573C38.5348 7.01573 38.3411 7.01573 38.1475 6.96768C38.0507 7.06379 37.9538 7.15989 37.8086 7.20795C37.5181 7.15989 37.2276 7.11184 36.6466 7.15989C36.5982 7.11184 36.5498 7.01573 36.5014 6.96768C36.5014 6.96768 36.7434 6.91963 36.9855 6.72742C36.4045 6.82352 36.5498 6.87158 35.7751 6.87158C35.7267 6.87158 35.7267 6.91963 35.6783 6.91963C35.7751 6.87158 35.8236 6.77547 35.9204 6.72742C35.9688 6.67936 35.9688 6.67936 36.0172 6.63131C35.8236 6.67936 35.6299 6.72742 35.4362 6.77547C35.4362 6.72742 35.4362 6.72742 35.4362 6.67936C35.0005 6.77547 34.9521 6.91963 34.8068 6.91963C34.7584 6.87158 34.71 6.87157 34.6616 6.82352C34.0322 7.01573 33.4028 7.20795 32.7734 7.44821C32.8702 7.49626 32.9186 7.49626 33.0155 7.54432C32.144 7.49626 32.4829 7.73653 31.7083 7.78458C31.7083 7.83263 31.7567 7.92874 31.7567 7.97679C31.7083 7.97679 31.6598 7.97679 31.6114 7.97679C31.0304 8.45732 33.6933 9.51449 34.6132 9.46643C34.7584 9.65865 34.71 9.7067 34.9521 9.75476C34.71 9.80281 35.0005 9.80281 34.71 9.80281C34.2743 9.85086 34.4679 9.80281 34.129 9.7067C34.1774 9.85086 34.2259 9.99502 34.2743 10.1392C34.1774 10.1392 34.129 10.0911 34.0322 10.0911C33.9838 10.0911 33.9838 10.0911 33.9354 10.0911C33.8869 10.1872 34.0806 10.2353 33.7901 10.3314C34.129 10.3794 34.4195 10.4275 34.7584 10.4756C34.71 10.5717 34.71 10.6197 34.7584 10.6678H34.71H34.7584C34.8068 10.908 35.1457 11.1002 35.1942 11.2924C35.4846 11.3405 35.7267 11.3405 36.0172 11.3886C36.1625 11.2924 36.0172 11.2924 36.5014 11.2924C36.5982 11.3405 36.6466 11.3405 36.7434 11.3886C36.5982 11.4847 36.5982 11.3886 36.7434 11.4847C36.6466 11.4847 36.5498 11.4366 36.4045 11.4366C36.2593 11.5808 36.5982 11.5327 36.1625 11.6769C36.2109 11.6288 36.2593 11.5808 36.3077 11.5327C36.1625 11.5327 36.0172 11.5327 35.9204 11.5327C35.872 11.5808 35.8236 11.5808 35.7751 11.6288C35.9204 11.6769 36.114 11.773 36.2593 11.821C36.3561 11.8691 36.3077 11.821 36.4045 11.821C36.4529 11.821 36.4529 11.821 36.5014 11.8691C36.4529 11.9171 36.4045 11.9171 36.3561 11.9652V12.0132C36.2109 11.9652 36.0656 11.8691 35.9688 11.821C35.9688 11.8691 35.9688 11.9171 35.9688 11.9652C36.114 12.1574 36.1625 12.0613 36.453 12.1093C36.3561 12.2055 36.2593 12.3496 36.114 12.4457C36.1625 12.4938 36.2109 12.5418 36.2593 12.5899C36.5498 12.5418 36.3561 12.5899 36.4045 12.4938C37.5665 12.6379 39.4547 12.8782 39.9873 12.734C40.0357 12.7821 40.0357 12.8301 40.0841 12.8782C39.842 12.8782 39.9873 12.8301 39.842 12.9263C39.6968 13.0224 39.7452 12.9262 39.9389 13.0704C39.261 13.1665 39.4063 13.2146 38.4864 13.2146C38.5832 13.3107 38.2927 13.4068 38.1475 13.4068C38.2443 13.5029 38.3411 13.5509 38.4864 13.647C38.0991 13.599 37.9054 13.6951 37.857 13.7432C37.8086 13.7432 37.7602 13.7431 37.7117 13.7912C37.8086 13.8393 37.9054 13.8393 38.0506 13.8873C38.0991 13.8393 38.1475 13.7912 38.1959 13.7432C38.2927 13.7912 38.3896 13.7912 38.5348 13.8393C38.5832 13.8393 38.6316 13.8873 38.68 13.8873C38.68 13.8873 38.68 13.8873 38.68 13.9354C38.5348 13.8873 38.3896 13.8873 38.2927 13.8393C38.2927 13.8873 38.2927 13.9354 38.2927 13.9834H37.7117C37.7117 13.9354 37.7117 13.9354 37.7117 13.8873C37.6633 13.8393 37.6633 13.8393 37.6149 13.7912C37.5665 13.8393 37.5665 13.8873 37.5181 13.9354C37.857 14.0795 38.2443 14.1756 38.5832 14.3198C34.0806 15.2328 27.4961 15.4731 21.88 16.1939C19.8949 16.4822 17.5226 16.9627 15.586 16.9627C15.3439 17.0108 15.586 16.9627 15.1987 16.9146C14.5209 16.9146 12.9716 17.251 12.2453 17.203C12.1485 17.2991 12.1969 17.203 12.0033 17.1549C11.7612 17.251 12.0033 17.251 11.6644 17.203C11.6159 17.251 11.6159 17.3471 11.5675 17.3952C11.4707 17.3471 11.4223 17.3471 11.3254 17.2991C10.6961 17.4432 10.0667 17.5393 9.43726 17.6835C9.48567 17.7316 9.48567 17.7796 9.53409 17.8277C9.48567 17.7796 9.48567 17.7796 9.43726 17.7315C8.75945 17.8277 9.09835 18.0199 8.46895 18.0679C8.66261 18.2121 8.6142 18.116 8.6142 18.2121C8.56578 18.2601 8.56578 18.2601 8.51737 18.3082C8.46895 18.2601 8.42054 18.2601 8.37212 18.2121C8.08163 18.2601 7.83955 18.2601 7.54906 18.3082C7.64589 18.3562 7.74272 18.4043 7.88797 18.4523C7.64589 18.4523 7.40382 18.4523 7.16174 18.4523C7.11332 18.4523 7.11333 18.4523 7.06491 18.4523C6.91967 18.5965 6.77442 18.7887 6.67759 18.9329C5.66087 18.8848 4.93464 19.2692 4.30524 19.4615C4.40207 19.4615 4.45049 19.5095 4.54732 19.5095C3.67584 19.7017 4.40208 19.6537 3.62743 19.942C3.57902 19.7978 3.72426 19.8939 3.48218 19.7978C3.43377 19.942 3.24011 20.1823 2.99803 20.2303C3.09486 20.2784 3.14328 20.3745 3.24011 20.4225C3.28852 20.4225 3.33694 20.4225 3.38536 20.4706C2.94962 20.5186 3.38535 20.4706 2.99803 20.4225C3.09486 20.6147 3.28852 20.7108 2.75596 20.8069C2.75596 20.8069 2.75596 20.8069 2.75596 20.855C2.94962 20.855 3.14328 20.855 3.33694 20.8069C3.28852 20.8069 3.28852 20.8069 3.24011 20.855C3.24011 20.903 3.24011 20.903 3.24011 20.9511C3.04645 20.9511 2.80437 20.903 2.61071 20.903C2.56229 21.0472 2.5623 21.2394 2.51388 21.3836C2.5623 21.3836 2.56229 21.3836 2.61071 21.3836C2.75595 21.3355 2.94962 21.2875 3.09486 21.2394C2.94962 21.2875 2.75595 21.3836 2.61071 21.4316C3.57901 21.768 2.36863 22.2005 4.01475 22.681C4.35366 22.7771 5.80612 22.8252 5.80612 22.8252C6.48393 22.8732 6.53234 23.0174 7.25857 23.0174C7.30699 23.0174 7.3554 23.0174 7.40382 23.0654C7.3554 22.9693 7.30699 22.9213 7.25857 22.8252C7.45223 22.8252 7.64589 22.8252 7.83955 22.7771C7.64589 22.5849 7.6459 22.6329 7.25857 22.5368C7.40382 22.5368 7.59748 22.4888 7.74272 22.4888C7.88797 22.5849 8.08163 22.681 8.22688 22.7291C8.32371 22.681 8.42054 22.681 8.56578 22.633C8.51737 22.681 8.51737 22.7771 8.46895 22.8252C8.56578 22.8252 8.66261 22.7771 8.80786 22.7771C8.66261 22.8732 8.85627 22.8252 8.56578 22.8252C8.6142 22.8732 8.66261 22.9213 8.71103 22.9693C8.80786 22.9213 8.90469 22.8732 9.04994 22.8252C9.38884 22.8732 9.63092 22.8252 9.38884 22.9213C9.67933 22.9213 9.53409 22.9213 9.72775 22.8252C9.77616 22.8732 9.77616 22.9693 9.82458 23.0174C9.77616 23.0174 9.72775 23.0654 9.67933 23.0654C9.48567 23.0654 9.29201 23.0174 9.09835 23.0174C9.04993 23.0654 9.00152 23.0654 8.95311 23.1135C8.95311 23.1135 8.9531 23.1135 8.90469 23.1135C8.80786 23.1135 8.75944 23.1135 8.66261 23.1135C8.6142 23.1135 8.51737 23.1135 8.46895 23.1135C8.51737 23.0654 8.56578 23.0654 8.6142 23.0174C8.37212 22.9213 8.66261 22.9693 8.22688 22.9693C8.27529 22.9213 8.32371 22.8732 8.37212 22.8252C8.08163 22.8252 8.32371 22.8252 7.9848 22.7771C7.9848 23.0174 7.93639 22.9213 8.27529 23.1615C8.03322 23.1615 7.79114 23.2576 7.40382 23.3537C7.79114 23.3537 8.17846 23.3537 8.51737 23.3537L8.46895 23.4018C8.66261 23.4018 8.85627 23.4018 9.04994 23.4499C9.00152 23.4499 8.9531 23.4979 8.90469 23.4979C8.9531 23.4979 9.00152 23.546 9.04994 23.546C9.00152 23.594 8.9531 23.594 8.90469 23.6421C8.90469 23.6421 8.90469 23.6421 8.90469 23.6901C8.80786 23.6901 8.75944 23.6421 8.66261 23.6421C8.71103 23.594 8.75944 23.594 8.80786 23.546C8.46895 23.6421 8.51737 23.6421 8.22688 23.594C8.17846 23.7382 8.13004 23.8823 8.13004 24.0265C7.93638 24.0745 7.83955 24.1226 7.69431 24.1226C7.83955 24.1706 7.93639 24.2187 8.08163 24.2187C8.85627 24.3629 9.29201 24.3629 10.0182 24.507C10.5024 24.459 10.3571 24.507 10.5024 24.3629C10.6961 24.3629 10.8897 24.3629 11.0834 24.3629C10.9865 24.507 10.9381 24.6031 10.8413 24.7473C10.8897 24.7473 10.9381 24.7473 10.9865 24.7473C10.8897 24.7473 10.7929 24.7473 10.6476 24.7953C11.035 24.8914 11.3254 24.8434 11.4707 24.8434C11.3254 25.0837 10.6961 25.1798 10.3087 25.4681C10.3087 25.4681 10.3087 25.5161 10.2603 25.5161C10.3087 25.5161 10.3087 25.5161 10.3571 25.5161C10.5992 25.5161 10.8413 25.5642 11.0834 25.5642C11.0834 25.5642 11.0834 25.5161 11.1318 25.5161C11.5191 25.5161 11.9548 25.4681 12.4874 25.5161C12.5358 25.5161 12.5842 25.5642 12.6327 25.5642C12.3422 25.9486 11.3254 26.285 12.5358 26.5252C12.0033 26.5733 11.5191 26.6694 10.9865 26.7175C10.9865 26.7655 10.9865 26.8136 10.9865 26.8616C10.9381 26.9097 10.8413 26.9097 10.7929 26.9577C9.72775 27.5344 10.5992 27.7746 11.1802 27.9668C11.8096 27.8227 12.5358 28.111 12.9232 27.3421C12.8263 27.198 12.6811 27.1019 12.5358 27.0058C12.6327 27.0058 12.6811 27.0538 12.7779 27.0538C12.8263 27.0058 12.8263 26.9577 12.8747 26.9097C12.8263 26.9097 12.7779 26.9097 12.7295 26.9097C12.6327 26.9097 12.5842 26.9097 12.4874 26.9577C12.4874 26.9577 12.4874 26.9577 12.4874 27.0058C12.439 26.9577 12.3906 26.9577 12.3422 26.9097C12.3906 26.8616 12.439 26.8616 12.4874 26.8136C12.6327 26.7655 12.9716 26.7175 13.4073 26.6694C13.5526 26.7175 13.6978 26.7175 13.7946 26.7655V26.8136C13.5041 26.8136 13.2621 26.8136 12.9716 26.8136C12.9716 26.8616 12.9232 26.9097 12.9232 26.9577C13.1652 27.0058 13.3589 27.0538 13.601 27.0538C13.5041 27.1499 13.4557 27.198 13.6494 27.2941C12.6327 27.5824 12.6811 27.9668 12.1969 28.159C12.1969 28.159 12.1969 28.159 12.1969 28.2071C12.3906 28.2551 12.5842 28.2551 12.7779 28.3032C12.5842 28.3513 12.3906 28.3513 12.1969 28.3993C12.3906 28.4474 12.5842 28.4954 12.7779 28.5435C13.5041 28.3993 14.1819 28.2071 14.9566 28.3032C15.3923 28.111 15.8281 27.9188 16.2638 27.7266C16.3606 27.7266 16.4575 27.7266 16.6027 27.6785C16.5059 27.8707 16.409 27.8707 16.8448 28.0149C16.6995 27.9668 16.5059 27.9668 16.3606 27.9188C15.7797 28.111 15.6344 28.4474 15.1503 28.5435C15.3439 28.6396 15.7312 28.6396 16.2154 28.7357C16.167 28.7837 16.1186 28.8318 16.0701 28.8798C16.5059 28.8318 16.9416 28.7357 17.3773 28.6876C17.4742 28.6876 17.5226 28.6876 17.6194 28.6876C17.2805 28.7837 16.99 28.8798 16.6511 28.9759C16.748 28.9759 16.7964 28.9759 16.8932 29.024C16.5543 29.072 16.2638 29.1201 15.9249 29.1682C15.9733 29.1682 15.9733 29.1682 16.0217 29.2162C16.0701 29.2162 16.1186 29.2162 16.167 29.2162C16.3122 29.2162 16.5059 29.2162 16.6511 29.2162C16.5543 29.2643 16.5059 29.3123 16.167 29.3604C16.167 29.4084 16.2154 29.4084 16.2154 29.4565C15.9733 29.5045 15.2955 29.6006 15.005 29.7928C14.9566 29.8409 14.9082 29.8409 14.8598 29.889C15.005 29.937 15.1503 29.937 15.2471 29.9851C15.7797 29.937 16.9416 29.889 17.7163 29.7928C17.7647 30.0331 17.9583 30.2253 18.3941 30.2253C18.6846 30.2253 19.0719 29.9851 19.2171 29.7448C19.4592 29.7448 19.7497 29.7448 19.9918 29.7448C19.9918 29.7448 19.9918 29.7448 19.9918 29.6967C20.2339 29.6967 20.4275 29.7448 20.6696 29.7448C20.6696 29.8409 20.718 29.937 20.7664 29.9851C19.0235 30.1773 17.2321 30.4175 15.4892 30.6097C15.1018 30.4656 14.6661 30.6097 14.1819 31.3305C13.7946 31.3305 13.4073 31.3305 13.0684 31.3305C13.0684 31.3305 13.0684 31.3305 13.0684 31.3786C12.2453 31.2344 11.4223 31.0422 10.7445 31.9072C14.3756 32.1474 17.9583 33.1565 21.6863 33.1085C22.6546 33.541 23.6229 33.6371 24.6881 33.4929C24.8817 33.4929 25.027 33.541 25.2206 33.589C25.1238 33.589 25.027 33.589 24.7849 33.541C24.7365 33.541 24.7365 33.541 24.6881 33.589C24.7849 33.6371 24.8333 33.6371 24.9301 33.6851C24.6881 33.7332 24.6881 33.6851 24.446 33.589C24.2523 33.8773 24.2039 33.7812 23.2356 33.9254C23.4777 34.0215 23.6713 33.9735 23.5745 34.1176C23.5745 34.1657 23.6229 34.1657 23.2356 34.3098C23.7197 34.454 23.8166 34.502 23.9618 34.7423C23.6713 34.7423 23.8166 34.6942 23.5745 34.8384C23.6229 34.8384 23.6713 34.8384 23.7197 34.7903C24.0587 34.8384 24.3491 34.8865 24.6881 34.9345C25.3174 34.9345 25.2206 34.9826 25.3174 35.1267C25.85 35.1267 26.0437 35.1267 26.4794 35.0787C26.5278 35.1267 26.5278 35.1748 26.5762 35.2228C26.6731 35.1748 26.7699 35.1267 26.9151 35.0787C28.0287 35.0787 29.1423 35.0306 30.2558 35.0306C30.2074 35.0787 30.159 35.0787 30.159 35.1267C30.159 35.1267 30.4495 35.1748 30.5463 35.1748C30.6915 35.1748 30.8368 35.1267 31.0789 35.0787C30.982 35.0787 30.8852 35.0787 30.7884 35.0306C31.1757 35.0306 31.6114 35.0306 31.9987 34.9826C32.0956 35.0306 32.144 35.0306 32.2408 35.0787C32.1924 35.1748 32.144 35.2709 32.0956 35.367C33.0155 35.367 33.8869 35.367 34.8068 35.3189C34.71 35.415 34.4195 35.4631 34.0806 35.5111C33.5965 35.5111 33.1607 35.5112 32.5313 35.4631C32.6766 35.5112 32.7734 35.5592 32.9186 35.5592C31.9988 35.5592 31.0304 35.5111 30.6915 35.415C30.74 35.4631 30.7884 35.5112 30.8368 35.5592C30.7884 35.5592 30.7884 35.5592 30.74 35.6073C30.6431 35.5592 30.5947 35.5112 30.4979 35.4631C30.4979 35.5112 30.4979 35.5112 30.4979 35.5592C30.3526 35.5112 30.2074 35.5112 30.1106 35.4631V35.415C30.0621 35.4631 30.0621 35.5592 30.0137 35.6073C30.0621 35.6073 30.0621 35.6073 30.1106 35.6073C30.159 35.6073 30.159 35.5592 30.2074 35.5592C30.3042 35.6073 30.401 35.6073 30.5463 35.6553C30.4495 35.6553 30.3526 35.7034 30.2074 35.7034C30.1106 35.7514 30.0621 35.7514 29.9653 35.7995C29.7716 35.7514 29.5296 35.7034 29.3359 35.6553C29.5296 35.8475 29.7232 35.7995 29.6748 35.8956C29.4812 35.8475 29.0454 35.8475 28.3676 35.7995C28.0771 35.8956 27.835 35.9917 27.5445 36.1358C27.3993 36.0878 27.2541 36.0878 27.1572 36.0397C27.3509 35.9436 27.5446 35.7995 27.7382 35.7034C27.835 35.7514 27.7382 35.7514 27.8834 35.7034C27.9803 35.7034 28.0287 35.7034 28.1255 35.7034C28.1255 35.7034 28.1255 35.7034 28.1739 35.6553C28.2708 35.6553 28.3676 35.6553 28.416 35.6553C28.4644 35.6553 28.4644 35.6553 28.5128 35.6553C28.8518 35.6553 29.1907 35.6553 29.5296 35.6553C29.5296 35.6073 29.4812 35.5592 29.4812 35.5111C29.3359 35.5111 29.1423 35.4631 28.997 35.4631C29.0938 35.4631 29.1423 35.415 29.2391 35.415C29.1907 35.415 29.1422 35.367 29.0938 35.367C29.0454 35.415 29.0454 35.415 28.997 35.4631C28.5129 35.415 27.9803 35.367 27.4961 35.6073C27.3993 35.6073 27.3509 35.5592 27.2056 35.5592C27.1572 35.5592 27.1572 35.5592 27.1088 35.6073C27.2056 35.7034 27.3025 35.7995 27.4477 35.8475C27.3509 35.7995 27.3025 35.7995 27.2056 35.7514C27.0604 35.7995 26.9151 35.7995 26.8183 35.8475C26.6731 35.8475 26.5278 35.8475 26.431 35.8475C26.3826 35.7995 26.3826 35.7995 26.3342 35.7514C26.8183 35.6073 26.431 35.6553 26.8183 35.415C26.3826 35.5111 25.9468 35.6073 25.5111 35.6553C25.5595 35.7034 25.6079 35.7034 25.6564 35.7514C25.4143 35.7995 25.1722 35.8475 24.9785 35.8475C24.7849 35.8475 24.6396 35.7995 24.446 35.7995C24.3976 35.8475 24.3491 35.8956 24.3007 35.9436C22.9935 36.1839 21.6863 36.3761 20.3791 36.6164C20.137 36.6644 20.137 36.7125 20.137 36.8566C20.0886 36.7605 20.0402 36.7125 19.9918 36.6164C19.7497 36.6644 19.5076 36.6644 19.2655 36.7125C19.3624 36.7605 19.4592 36.8086 19.6045 36.8566C19.2655 36.9047 18.8782 37.0008 18.5393 37.0488C18.4425 37.0488 18.3941 37.0488 18.2972 37.0488C18.152 37.0488 18.0068 37.0488 17.9099 37.0488C18.2004 36.9527 17.8615 36.9527 18.2972 37.0008C18.2972 36.9527 18.2972 36.9047 18.2972 36.8566C18.152 36.8566 18.0068 36.8566 17.9099 36.8086C17.8131 36.8566 17.7647 36.9047 17.6678 36.9527C17.5226 36.9047 17.3289 36.9047 17.1837 36.8566C17.1837 36.9047 17.1837 36.9527 17.1837 37.0008C17.1353 37.0008 17.1353 37.0488 17.0869 37.0488C17.0384 37.0488 17.0384 37.0488 16.99 37.0969C16.9416 37.0008 16.9416 36.9527 16.8932 36.8566C16.6995 36.9047 16.5543 37.0008 16.3606 37.0488C16.3122 37.0488 16.2638 37.0488 16.2154 37.0488C16.167 37.0969 16.1186 37.145 16.0701 37.145H16.0217C15.7312 37.2411 15.8765 37.193 15.9249 37.3852C15.8281 37.3852 15.7796 37.3852 15.6828 37.4333C15.586 37.3852 15.5376 37.2891 15.4407 37.2411C15.3923 37.3852 15.3439 37.5774 15.2955 37.7216C15.1503 37.7216 15.005 37.7216 14.9566 37.7696C15.1503 37.5774 15.3923 37.3372 15.6344 37.0488C14.3272 37.2411 13.5041 37.3852 12.6327 37.4813C12.4874 37.2891 12.2938 37.0969 12.1485 36.9047C11.9064 36.4242 11.4223 36.3281 10.9381 36.3281C10.3087 37.4813 8.80786 36.3761 8.17846 37.4333C7.21016 37.6255 7.0165 36.7605 6.58076 36.28C7.83955 34.8865 5.56404 34.7423 5.70928 33.7332C7.11333 33.4449 5.7577 32.4358 6.24185 31.9072C5.37038 30.7058 4.25683 29.8409 2.85279 28.9279C2.46546 31.1864 3.96634 32.2435 4.98306 33.541C4.4989 33.6371 3.86951 33.589 3.62743 33.8773C3.33694 34.2137 3.86951 34.6462 4.20841 34.8865C4.64415 35.2709 5.1283 35.6553 5.61245 35.9917C4.93464 36.8566 2.61071 37.0488 4.4989 38.8749C4.93464 39.3073 4.69256 39.7398 4.30524 39.9801C3.5306 40.5567 3.28852 39.5956 2.75596 39.4034C2.36863 39.2112 1.98131 39.019 1.6424 38.8268C1.40033 39.0671 1.35191 39.3073 1.54558 39.5956C1.3035 41.0372 -1.02043 42.0464 0.528857 43.9204L0.625686 43.8724C0.577271 43.8724 0.577272 43.9204 0.528857 43.9204C1.3035 45.8906 2.46546 47.5244 4.78939 47.7647C11.035 48.3413 17.0869 49.7348 23.0903 51.5128C35.6783 55.2609 48.702 55.5492 61.6773 55.8376C66.2767 55.9337 70.8762 56.27 75.4756 55.5492C79.7362 55.5012 83.9967 55.8376 88.2572 55.0207C93.0503 55.9337 97.8434 55.5012 102.637 54.8284C104.137 54.8284 105.638 55.0207 107.091 54.396C107.817 54.3479 108.543 54.3479 109.269 54.2999C111.012 54.2999 112.755 54.444 114.45 53.8193C118.178 53.9154 121.809 53.2427 125.489 52.7622C126.36 52.7141 127.231 52.6661 128.151 52.618C129.943 53.483 130.911 51.0323 132.557 51.5608C134.155 51.657 135.51 50.8881 136.963 50.5037C137.35 50.5037 137.689 50.4556 138.076 50.4556C138.27 50.4556 138.464 50.4076 138.657 50.4076C139.481 50.7439 140.4 50.6959 141.078 50.3115C145.048 47.9088 149.551 48.8218 153.763 48.4854C156.474 48.2452 159.234 48.1491 161.945 48.101C161.945 48.101 161.945 48.101 161.897 48.101C161.897 48.101 161.897 48.101 161.897 48.1491C162.139 48.1491 162.381 48.1491 162.623 48.101C162.575 48.101 162.575 48.101 162.526 48.101C163.349 48.101 164.124 48.101 164.947 48.101C164.85 48.101 164.802 48.101 164.705 48.101C164.802 48.1491 164.899 48.1491 164.995 48.1971C165.092 48.1971 165.189 48.1971 165.286 48.1491C165.286 48.101 165.286 48.101 165.286 48.053C165.383 48.053 165.528 48.053 165.625 48.053H165.576C165.673 48.053 165.77 48.053 165.867 48.053H165.818C166.06 48.053 166.303 48.053 166.545 48.053C166.641 48.053 166.787 48.053 166.884 48.053C166.932 48.053 166.98 48.053 167.029 48.053C167.561 48.053 168.094 48.053 168.578 48.101H168.626C169.401 48.101 170.176 48.1491 170.95 48.1491C170.757 48.1491 170.563 48.1971 170.369 48.1971C170.418 48.2452 170.466 48.2452 170.515 48.2932C170.515 48.2932 170.563 48.2932 170.563 48.3413C170.902 48.1971 170.708 48.1971 171.144 48.2452C171.192 48.1971 171.192 48.1971 171.241 48.1491C171.241 48.1491 171.241 48.1491 171.289 48.1491L171.241 48.1971C171.289 48.1971 171.338 48.1971 171.386 48.1971L171.338 48.1491C171.386 48.1491 171.386 48.1491 171.435 48.1491C171.483 48.1491 171.483 48.1971 171.531 48.1971C171.725 48.1971 171.919 48.1971 172.112 48.1971C178.503 48.4374 184.894 48.8218 191.285 49.014C201.888 49.3023 212.539 49.1101 223.142 48.4854C229.823 48.101 236.456 48.0049 243.089 48.1971C243.041 48.1971 242.992 48.1971 242.944 48.2452C242.992 48.2452 243.041 48.2932 243.089 48.2932C243.138 48.2932 243.186 48.2932 243.234 48.2452C243.186 48.2452 243.138 48.2452 243.138 48.1971C248.899 48.3893 254.612 48.8699 260.373 49.5907C262.068 49.8309 264.004 50.2634 265.36 48.4374C265.699 47.9569 266.716 47.8608 267.151 48.8218C267.151 49.927 267.151 50.0231 268.313 50.2154C274.559 51.0323 280.611 50.6478 286.13 47.2361C287.776 47.9569 289.374 46.9958 291.02 47.14C291.214 47.14 291.746 47.3802 291.553 46.6594C291.165 45.362 292.569 44.8815 292.86 44.1607C293.635 43.1516 295.716 42.8633 294.748 41.2295ZM286.033 37.5774C286.082 37.5774 286.082 37.5774 286.13 37.5774C286.082 37.5774 286.082 37.6255 286.033 37.5774ZM282.209 36.4242C282.112 36.4722 282.015 36.5203 281.967 36.5683C282.015 36.4722 282.015 36.3761 282.063 36.2319C282.063 36.28 282.16 36.3281 282.209 36.4242ZM273.107 41.71C273.155 41.71 273.203 41.758 273.203 41.758C273.203 41.758 273.155 41.758 273.155 41.8061C273.107 41.758 273.107 41.758 273.107 41.71ZM14.4724 40.6048C14.424 40.6048 14.424 40.5567 14.424 40.5087C14.424 40.5567 14.4724 40.5567 14.4724 40.6048ZM113.433 51.2245C113.433 51.1764 113.433 51.1284 113.433 51.0803C113.482 51.1284 113.482 51.1764 113.53 51.2245C113.482 51.1764 113.433 51.1764 113.433 51.2245ZM251.997 40.3645C252.772 40.5567 252.917 40.2684 253.208 40.6048C253.256 40.5567 253.305 40.5087 253.353 40.4606C253.45 40.5087 253.547 40.6048 253.692 40.6528C253.789 40.6048 253.837 40.5087 253.934 40.4606C253.934 40.5567 253.934 40.7009 253.934 40.797C253.983 40.845 254.031 40.845 254.079 40.8931C254.079 40.845 254.079 40.845 254.079 40.797C254.128 40.845 254.128 40.8931 254.176 40.9411C254.515 40.8931 254.273 40.8931 254.757 40.9411C254.612 40.9411 254.418 40.9411 254.273 40.9411C254.37 40.9892 254.418 40.9892 254.515 41.0372C254.66 41.0853 254.806 41.1333 254.902 41.1814C255.144 41.0853 254.902 41.1333 255.241 41.0853C255.241 41.0853 255.241 41.0853 255.241 41.1333C255.096 41.1814 254.902 41.2775 254.757 41.3256C254.225 41.2775 253.934 41.2775 253.595 41.2775C253.498 41.2295 253.45 41.1814 253.353 41.1333C253.256 41.1333 253.208 41.1333 253.111 41.1814C253.111 41.1814 253.111 41.1814 253.111 41.2295C253.402 41.3736 253.74 41.5658 254.031 41.71C253.256 41.3736 252.336 41.2775 251.368 41.5178C251.029 41.4217 250.69 41.3256 250.351 41.1814C250.158 41.0853 250.012 41.0372 249.819 40.9411C250.206 40.7489 251.32 40.6528 251.997 40.3645ZM240.91 41.3256C240.668 41.2775 240.62 41.1814 240.572 41.1333C240.814 41.1333 242.46 41.2295 243.089 41.1333C242.363 40.9892 242.169 40.9892 241.83 40.8931C241.879 40.8931 241.976 40.8931 242.024 40.8931C242.121 40.8931 242.121 40.8931 242.411 40.9411C242.314 40.8931 242.266 40.8931 242.169 40.845C242.024 40.8931 241.927 40.8931 241.782 40.9411C241.733 40.9411 241.685 40.8931 241.588 40.845C240.717 40.9892 239.313 40.6528 238.586 40.797C238.732 40.797 238.877 40.845 238.974 40.845C238.635 40.8931 238.102 40.8931 237.473 40.845C237.086 40.5087 236.601 40.3645 236.069 40.5087C236.02 40.5567 235.972 40.6528 235.924 40.7009C235.633 40.6528 235.391 40.6048 235.343 40.6048V40.5567C235.536 40.5567 235.778 40.5567 235.972 40.5567C236.02 40.5087 236.02 40.5087 236.069 40.4606C235.972 40.4606 235.875 40.4606 235.73 40.4126C235.488 40.3645 235.246 40.3645 235.004 40.3164C235.004 40.2684 235.004 40.2684 235.004 40.2203C235.391 40.2203 235.778 40.2203 236.166 40.1723C236.117 40.1242 236.069 40.0762 236.02 40.0281C236.214 40.0762 236.456 40.1242 236.65 40.1723C237.473 40.1723 238.296 40.1242 239.071 40.1242C239.071 40.1242 239.071 40.1242 239.071 40.1723C238.974 40.3164 238.829 40.2203 239.216 40.3164C239.022 40.3645 238.829 40.3645 238.635 40.4126C239.361 40.4126 240.039 40.4126 240.765 40.4126C240.91 40.3645 240.475 40.4126 240.184 40.3645C240.233 40.3645 240.281 40.3645 240.329 40.3645C240.281 40.3164 240.281 40.3164 240.233 40.2684C241.201 40.3164 241.637 40.3645 241.879 40.4606C241.976 40.4125 242.072 40.4126 242.218 40.3645C242.169 40.3164 242.121 40.3164 242.072 40.2684C242.702 40.3645 245.413 40.5087 245.897 40.3645C245.994 40.4606 246.091 40.5087 246.236 40.6048C246.333 40.5567 246.381 40.5567 246.478 40.5087C246.478 40.5567 246.478 40.6048 246.478 40.6528C246.575 40.6048 246.623 40.6048 246.72 40.5567C246.672 40.6048 246.672 40.6528 246.623 40.7009C246.478 40.7489 246.333 40.797 246.188 40.845L246.139 40.797C246.091 40.845 246.091 40.845 246.139 40.8931C244.493 41.2775 242.702 41.2295 240.91 41.3256ZM14.1819 40.2203C14.1819 40.2203 14.1819 40.1723 14.1819 40.2203V40.2203ZM9.14676 38.5385C9.09835 38.4904 9.09835 38.4904 9.14676 38.5385V38.5385ZM276.496 37.2891C276.447 37.2891 276.399 37.2891 276.35 37.2891C276.302 37.145 276.254 37.0008 276.205 36.8566C276.302 37.0008 276.447 37.145 276.496 37.2891ZM274.704 41.1814C274.753 41.1814 274.753 41.1814 274.801 41.1814C274.462 41.2295 274.123 41.2775 273.833 41.4217C273.688 41.4697 273.542 41.5658 273.397 41.6619C273.3 41.6139 273.252 41.71 273.3 41.6139C273.3 41.6139 273.349 41.4697 273.639 41.5178C273.591 41.4697 273.542 41.3736 273.494 41.3256C273.542 41.3736 273.542 41.3736 273.591 41.4217C273.881 41.3256 274.317 41.2295 274.704 41.1814ZM13.8915 31.4266C14.1819 31.4266 14.4724 31.4266 14.7629 31.4266L14.7145 31.4747C14.424 31.4747 14.1819 31.4747 13.8915 31.4266ZM17.571 31.8111C17.1353 31.4747 16.6995 30.9461 16.2638 30.7058C17.8615 30.5617 19.5076 30.4656 21.1053 30.3214C21.0085 30.4175 20.9601 30.5136 20.8632 30.6097C21.0569 30.7059 21.2506 30.802 21.4442 30.85C21.299 30.9461 21.1053 31.0422 20.9601 31.0903C21.8316 31.2825 22.9451 31.5708 24.2039 31.8111C24.0102 32.0513 23.6229 32.1955 23.4777 32.4358C21.4926 32.2435 19.556 32.0033 17.571 31.8111ZM13.8915 38.3463C13.0684 38.6826 13.4557 38.7787 13.9883 39.1151C13.8915 39.1151 13.7946 39.1632 13.843 39.1632C13.8915 39.2112 13.9399 39.2593 14.0851 39.2593C14.1335 39.2593 14.1819 39.2593 14.2304 39.2593C14.424 39.4034 14.5693 39.5476 14.7145 39.7879C14.7629 39.884 14.7145 39.932 14.6177 40.0281C14.4724 40.0281 14.2788 40.0281 14.1335 40.0281C13.9399 39.6918 13.7462 39.4515 13.2621 39.6437C13.1652 39.5476 13.0684 39.4515 12.8747 39.3554C12.7295 39.3554 12.6327 39.3073 12.4874 39.3073C12.4874 39.2112 12.4874 39.1632 12.4874 39.0671C12.6811 38.6826 12.8747 38.2982 13.0684 37.8657C13.3105 38.1541 13.601 38.2982 13.8915 38.3463ZM9.14676 38.4904C9.09835 38.4904 9.09835 38.4904 9.14676 38.4904C9.09835 38.4904 9.09835 38.4904 9.14676 38.4904C9.09835 38.4904 9.09835 38.4904 9.14676 38.4904ZM2.85279 41.3256C2.75595 41.3736 2.65913 41.4217 2.56229 41.4697C2.56229 41.4217 2.61071 41.3736 2.61071 41.2775C2.70754 41.2775 2.80437 41.2775 2.85279 41.3256Z" />
</svg>
