<svg viewBox="0 0 24 24" xmlns="http://www.w3.org/2000/svg">
<path d="M22.597 12.2742C22.5829 12.2923 22.5677 12.3088 22.5537 12.3255C22.085 12.8759 21.5646 13.2535 21.4878 14.1163C21.4248 14.8179 21.0628 15.4829 20.8591 16.1728C20.7265 16.6209 20.6315 17.0831 20.5353 17.5438C20.4328 18.0346 20.2937 18.3683 19.7356 18.4567C18.9767 18.5758 18.3672 19.1299 17.7472 19.631C16.7873 20.4094 15.3969 21.8325 14.3751 22.5C13.5818 23.0179 12.9961 22.4471 12.0616 21.8544C12.7623 21.0537 13.0001 21 13.5001 20C14.1917 19.2754 14.0002 19.5 14.3752 18.9324C14.3303 18.7982 14.5088 18.5756 14.5775 18.3897C14.9174 17.4711 15.2557 16.5873 15.9322 15.8526C16.433 15.3086 16.6743 14.4728 17.063 13.7898C17.2492 13.4629 17.5107 13.1921 17.7877 12.8305C17.7808 12.8087 17.7661 12.6737 17.7026 12.5809C17.0859 11.6761 16.4923 10.7501 15.8318 9.88668C15.0193 8.82362 14.1507 7.81456 13.3054 6.78288C12.8288 6.20129 12.3876 5.57319 11.7032 5.26421C11.4981 5.17084 11.3073 5.01313 11.0956 4.96673C10.0681 4.73963 9.01412 4.63024 8.01226 4.30921C6.89942 3.95177 5.83657 4.25116 4.7527 4.34328C4.60116 4.35561 4.45767 4.47832 4.17108 4.61711C4.7512 5.2048 5.00944 5.91887 5.56182 6.45008C6.24394 7.10544 6.79601 7.93133 7.40458 8.68363C7.53034 8.83959 7.63311 9.07296 7.78937 9.13694C8.59871 9.46567 9.3366 10.9146 10.0919 11.4337C9.84897 11.7501 9.64456 12.0848 9.45948 12.3263C9.30233 12.2145 8.76838 11.5422 8.69561 11.4554C6.93764 9.34374 5.19614 7.21567 3.41603 5.12815C3.19511 4.86879 2.77795 4.8202 2.39778 4.64809C2.42472 4.33537 2.41826 4.01747 2.48984 3.72524C2.53445 3.54223 2.66978 3.31054 2.80953 3.26039C2.91556 3.22326 3.09513 3.43865 3.22154 3.52873C3.5332 3.11349 3.86264 2.66659 4.19781 2.22594C4.43394 1.91584 4.69472 1.62536 4.91443 1.30217C5.21619 0.856342 5.60815 0.673328 6.09357 0.715605C6.8528 0.781838 7.61044 0.895605 8.36989 0.915551C9.43836 0.943788 10.5093 0.782849 11.5534 1.24056C11.7817 1.34078 12.0546 1.05588 12.3905 1.08685C12.8732 1.13163 13.6806 1.36611 13.6916 1.23824C14.8913 1.37394 14.3436 1.31199 15.5371 1.44699C15.6827 1.96869 16.5243 2.1565 16.8511 2.78711C17.3516 3.97907 18.7147 4.38588 18.8427 5.68025C19.3694 6.18892 19.8314 6.63413 20.292 7.08058L22.597 12.2742ZM20.2687 7.04567C20.6359 7.84924 21.1613 8.53318 21.7291 9.14754C22.2211 9.68035 22.5355 10.2955 22.7442 10.9885C22.8222 11.2472 22.8222 11.2472 22.9919 11.7225L22.5537 12.3255L20.2687 7.04567ZM17.1403 6.06728C17.0975 6.25891 15.9464 7.69772 15.9148 7.89061C15.8668 8.18551 15.7095 8.35156 15.8184 8.54351C16.2323 9.26958 16.7357 9.93279 17.2024 10.6143C17.4086 10.5211 17.5575 10.5099 17.6063 10.4242C18.1182 9.53342 18.6327 8.64152 19.1008 7.72051C19.1943 7.53742 19.1899 7.15238 19.0789 6.99949C18.6621 6.42326 18.1827 5.90311 17.6571 5.27949C17.302 5.82033 17.0248 6.24367 16.7477 6.66562C16.4657 5.92081 16.8978 5.34517 17.1462 4.71789C16.5438 3.98172 15.9608 3.26741 15.356 2.52958C14.485 3.32362 13.6422 4.03804 12.9451 5.08471C13.8048 5.76016 14.1094 6.96926 14.9433 7.40601C15.4357 7.29471 16.5135 5.61326 16.8563 5.53555C16.8374 5.50815 17.1739 6.06969 17.1403 6.06728ZM20.3119 8.07223C20.2585 8.16863 20.2405 8.29009 20.2083 8.40153C19.9713 8.21193 19.7443 8.15398 19.5562 8.47512C19.4475 8.6593 19.3608 8.86561 19.2335 9.03226C18.7074 9.72496 18.4701 10.6889 17.5962 11.0939C17.9438 11.5276 18.2557 11.8955 18.5445 12.2846C18.8569 12.7045 18.8157 12.9496 18.3413 13.0994C17.8992 13.2389 17.7086 13.5148 17.5812 13.9902C17.454 14.4614 17.199 14.8887 17.006 15.3384C16.7678 15.891 16.6155 15.7377 16.1393 16.6072C15.7745 17.1147 15.6603 17.0288 15.6111 17.5565C15.9808 17.5436 15.9875 17.3353 16.2717 17.0502C16.7441 16.5592 16.9087 16.4683 17.1731 16.1502C17.8151 15.3794 18.4975 14.5036 19.5071 14.4144C18.5639 15.45 17.5711 16.6246 16.6416 17.6759C16.1901 18.1862 15.6716 18.644 15.4837 19.3988C15.4435 19.5599 14.6609 20.4634 15.0002 20C14.5519 20.6233 14.432 20.7251 14.1918 21.2792C14.27 21.288 14.3664 21.334 14.432 21.3007C15.8836 20.564 17.1575 19.5039 18.4836 18.5354C18.6884 18.386 18.9249 18.2892 19.1343 18.1445C19.2956 18.0336 19.5239 17.9163 19.5721 17.7492C19.8067 16.9182 20.1495 16.1416 20.4437 15.3469C20.7822 14.4309 20.9007 13.4198 21.5125 12.6217C21.7923 12.2562 21.1424 12.0845 21.1405 12.3102C20.9522 12.2117 20.5697 13.2589 20.3717 13.1565C20.1795 14.1494 18.1736 15.4676 17.6024 16.203C16.8353 16.0685 20.0268 12.6038 20.6399 11.775C20.8188 11.5328 20.971 11.2651 21.1254 11.0019C21.577 10.2278 21.5718 10.23 21.0515 9.54525C20.7598 9.1614 20.479 8.76756 20.1941 8.37747L20.3119 8.07223ZM14.4886 2.30657C13.6012 1.61816 12.7346 1.75029 11.9209 1.80701C11.362 1.84623 11.3264 2.579 11.0754 3.01793C10.9691 3.20379 10.8418 3.38587 10.7841 3.58985C10.7484 3.71351 10.8009 3.99171 10.8572 4.00791C11.2707 4.12766 11.5897 4.53002 12.1168 4.33564C13.1217 3.96654 13.5417 2.87589 14.4886 2.30657ZM10.64 1.78422C10.1633 1.77239 9.73815 1.80149 9.32195 1.74178C8.49465 1.62154 8.00222 2.11176 7.60645 2.81921C7.3235 3.3233 7.42466 3.51719 7.95848 3.59441C8.38822 3.65706 8.81032 3.77918 9.38241 3.90705C10.1613 3.48291 10.4838 3.00013 10.64 1.78422ZM7.15544 1.95563C5.83596 1.69691 5.00173 2.13724 4.55928 3.35727C4.93575 3.45599 5.3111 3.55318 5.68644 3.65037C6.2237 3.16382 7.06719 3.02345 7.15544 1.95563Z" />
<path d="M5.96038 21.4495C6.14678 21.5487 6.28503 21.6925 6.40088 21.6702C7.26209 21.5039 8.23589 21.8233 9.73989 21.6162C11.6789 21.4584 13.4197 21.9411 13.8481 21.9351C13.9647 21.9335 14.2424 22.3686 14.4055 22.4593C14.1899 22.8459 13.887 22.85 13.6307 22.8858C12.2696 23.0796 7.17987 22.4287 5.81543 22.5734C5.45259 22.6119 5.0696 22.5465 4.71395 22.4429C4.39654 22.3511 4.33367 22.0375 4.54249 21.7444C5.58706 20.2875 6.23164 18.5512 7.04933 16.9361C7.39866 16.2464 7.77067 15.5724 8.11273 14.8789C8.49756 14.1003 8.86208 13.3076 9.23374 12.5202C9.35768 12.2572 9.44162 11.9588 9.60503 11.7371C9.68404 11.6282 9.93417 11.5755 10.0462 11.6412C10.1463 11.6996 10.2004 11.9533 10.2012 12.1199C10.2007 12.273 10.1156 12.4373 10.0427 12.5778C9.16436 14.2509 8.26079 15.9078 7.40873 17.5985C6.92456 18.5604 6.50959 19.5713 6.09374 20.5776C5.98811 20.8338 6.00245 21.1522 5.96038 21.4495Z" />
</svg>
