<svg viewBox="0 0 26 45" xmlns="http://www.w3.org/2000/svg">
<path d="M8.84788 43.8808C8.48256 43.4094 7.99973 43.3208 7.49347 43.2842C7.40775 43.2782 7.32494 43.2354 7.24084 43.2084C6.85102 43.0844 6.46611 42.9413 6.07066 42.8399C5.54847 42.7063 5.48797 42.6302 5.38961 42.1051C5.33143 41.7944 5.19956 41.4956 5.08453 41.1973C4.75144 40.3326 4.4042 39.4734 4.07668 38.6066C3.96387 38.3083 3.89882 37.9928 3.80067 37.6889C3.75847 37.5584 3.69018 37.4366 3.62969 37.3127C3.56798 37.1864 3.47914 37.069 3.44186 36.9361C3.36679 36.6705 3.43401 36.5908 3.70031 36.5283C4.49468 36.3427 5.28737 36.1509 6.08021 35.9596C6.18435 35.9344 6.2923 35.9111 6.38815 35.8654C7.58047 35.3018 8.83996 34.9121 10.0642 34.4323C10.5784 34.2306 11.078 33.9906 11.5872 33.7763C11.8832 33.652 12.1856 33.5437 12.5402 33.407C12.5563 33.3632 12.5719 33.2511 12.6327 33.1765C12.7012 33.0931 12.8498 32.9677 12.8957 32.9915C13.1746 33.1341 13.4985 33.1118 13.7682 33.3387C14.3105 33.7948 14.9118 34.1819 15.4957 34.5874C15.5745 34.6425 15.7111 34.6865 15.7894 34.6561C15.9866 34.5793 16.1958 34.5177 16.3416 34.6771C16.5272 34.8814 16.7633 35.1239 16.7925 35.3723C16.9099 36.3677 17.2616 37.2707 17.7238 38.1431C17.7573 38.2058 17.7896 38.27 17.8152 38.3365C18.0735 38.9989 17.9855 39.1781 17.3715 39.5417C16.3516 40.1457 15.2783 40.6295 14.1751 41.0536C13.7431 41.2193 13.3139 41.3933 12.8817 41.558C11.5903 42.0513 10.4846 42.884 9.27385 43.5242C9.13813 43.5978 9.03225 43.7246 8.84788 43.8808ZM9.04276 42.7034C9.19887 42.6393 9.33242 42.593 9.45789 42.531C10.1605 42.1859 10.8599 41.8329 11.5638 41.4908C11.868 41.3432 12.1836 41.2192 12.4893 41.075C13.116 40.7792 13.733 40.4621 14.3674 40.1826C14.9226 39.9382 15.4984 39.7395 16.0602 39.5094C16.611 39.284 16.6756 39.1322 16.4436 38.6262C16.1989 38.0914 15.9388 37.5635 15.6941 37.0286C15.5854 36.7915 15.4986 36.5446 15.3866 36.2638C15.161 36.3243 14.9726 36.3697 14.7874 36.4249C13.88 36.6959 12.9798 36.996 12.0641 37.2364C10.6768 37.6003 9.33579 38.0892 8.02052 38.6534C7.58034 38.8425 7.57233 38.8958 7.72561 39.3389C7.89945 39.8421 8.06279 40.3498 8.20727 40.862C8.38785 41.4985 8.5913 42.1206 9.04276 42.7034ZM14.8924 35.6002C14.4642 34.8194 13.824 34.2849 13.0805 33.8203C12.6215 34.1991 11.9723 34.1262 11.5098 34.577C12.4233 35.0982 13.2896 35.5782 14.2372 35.8936C14.4905 35.9781 14.6864 35.8733 14.8924 35.6002ZM5.47564 36.8265C5.67454 36.9533 5.77762 37.0552 5.89944 37.0898C6.47656 37.2537 6.97701 37.5349 7.40307 37.9605C7.47698 38.0347 7.63649 38.0914 7.73097 38.0655C8.26972 37.9179 8.80163 37.7425 9.34205 37.4326C9.19091 37.353 9.1018 37.2991 9.00687 37.2567C8.42411 36.9948 7.80621 36.8035 7.3093 36.3713C7.22999 36.3019 7.06047 36.2723 6.95761 36.3043C6.48998 36.4513 6.03079 36.6277 5.47564 36.8265ZM13.2878 36.2097C13.1323 36.089 13.0487 36.0014 12.9469 35.9503C12.318 35.6324 11.6872 35.3183 11.0525 35.0119C10.5931 34.7904 10.1512 34.9254 9.74948 35.4328C10.3006 35.7221 10.7916 36.0825 11.3578 36.3449C12.0117 36.6478 12.5921 36.5306 13.2878 36.2097ZM6.83678 38.9661C7.12699 38.4086 7.12228 38.3598 6.6561 38.1151C6.4103 37.9858 6.10417 37.9433 5.89637 37.775C5.46249 37.422 4.94511 37.375 4.44737 37.2121C4.49935 37.4705 4.57095 37.6754 4.57392 37.8819C4.57733 38.115 4.66369 38.2481 4.87743 38.3243C5.43197 38.5203 5.98301 38.7262 6.53817 38.9205C6.63518 38.954 6.7435 38.9528 6.83678 38.9661ZM7.88735 35.9918C8.54451 36.5417 9.294 36.8062 10.0858 36.9665C10.1988 36.8645 10.2984 36.7744 10.3805 36.7002C10.5986 36.7596 10.6432 37.109 11.0179 36.9019C10.8415 36.774 10.7172 36.6656 10.5765 36.5854C10.2387 36.3913 9.87817 36.2333 9.55398 36.0194C8.77949 35.5098 8.61847 35.5452 7.88735 35.9918ZM7.38464 40.5782C7.40691 40.0063 7.25909 39.7063 6.94059 39.6093C6.44972 39.4595 5.95937 39.3096 5.46628 39.1682C5.30813 39.1228 5.14229 39.1027 4.89834 39.0552C4.97684 39.2505 4.99122 39.4039 5.05585 39.4289C5.85683 39.7379 6.55163 40.2744 7.38464 40.5782ZM7.74868 41.9722C7.81482 41.5453 7.82055 41.5127 7.54066 41.3581C6.99538 41.0572 6.43867 40.7761 5.88082 40.497C5.78817 40.4507 5.66832 40.4566 5.49502 40.4275C5.64212 40.7955 5.75887 41.0878 5.8506 41.3178C6.5123 41.5458 7.10969 41.7521 7.74868 41.9722ZM6.26228 42.1909C6.8622 42.5688 7.77439 42.8209 8.30223 42.7801C8.10983 42.5236 6.93359 42.1678 6.26228 42.1909Z" />
<path d="M3.81834 26.5924C3.73764 26.0015 3.36377 25.6834 2.94368 25.3985C2.87241 25.3505 2.82213 25.272 2.76276 25.2066C2.48719 24.9043 2.22542 24.5879 1.93364 24.3023C1.5482 23.9256 1.53385 23.8294 1.71122 23.3255C1.81619 23.0273 1.85137 22.7026 1.9009 22.3868C2.04478 21.4714 2.17368 20.5537 2.32342 19.6393C2.37488 19.3245 2.47632 19.0187 2.54328 18.7064C2.57196 18.5724 2.57371 18.4327 2.58326 18.2952C2.59299 18.1549 2.57475 18.0089 2.60891 17.8751C2.6767 17.6076 2.77478 17.5721 3.03664 17.6512C3.81738 17.8876 4.59979 18.1179 5.38206 18.3486C5.48482 18.3789 5.58999 18.4126 5.69584 18.421C7.01018 18.5291 8.29581 18.8213 9.59592 19.0179C10.1421 19.1004 10.6948 19.1423 11.2429 19.2113C11.5614 19.2516 11.8775 19.3091 12.2528 19.368C12.2887 19.3381 12.3583 19.2489 12.4482 19.2146C12.5492 19.1767 12.7406 19.1423 12.7685 19.1859C12.9387 19.4489 13.2304 19.5915 13.3505 19.9228C13.5921 20.5891 13.9193 21.2248 14.2222 21.868C14.2629 21.9551 14.3592 22.0615 14.4422 22.0743C14.6514 22.1065 14.8633 22.1577 14.9099 22.3686C14.9685 22.6384 15.0517 22.9664 14.9528 23.1962C14.5568 24.1169 14.4099 25.0748 14.3739 26.0614C14.3716 26.1325 14.3674 26.2042 14.3564 26.2746C14.2489 26.9774 14.0831 27.0886 13.3695 27.0964C12.1843 27.1096 11.0129 26.992 9.84543 26.8076C9.38846 26.7351 8.92979 26.6712 8.4731 26.5977C7.10809 26.3793 5.73416 26.5476 4.3655 26.4966C4.21116 26.4925 4.05608 26.5494 3.81834 26.5924ZM4.5758 25.6702C4.74303 25.6928 4.88187 25.7194 5.02151 25.7285C5.80251 25.781 6.5847 25.8249 7.36539 25.8806C7.70266 25.9049 8.03795 25.9552 8.37477 25.9832C9.06537 26.0404 9.75831 26.0743 10.4474 26.1494C11.0504 26.2154 11.6485 26.3312 12.25 26.4129C12.8398 26.493 12.9716 26.3939 13.0237 25.8397C13.0792 25.2542 13.1179 24.6669 13.1734 24.0814C13.1979 23.8217 13.2462 23.5644 13.2895 23.2653C13.0639 23.2049 12.878 23.15 12.69 23.1052C11.7687 22.8861 10.839 22.696 9.92589 22.4463C8.54247 22.0678 7.13668 21.8207 5.71551 21.6517C5.23975 21.5953 5.20617 21.6375 5.11735 22.0979C5.01629 22.6206 4.90389 23.142 4.77292 23.6578C4.61106 24.2993 4.47623 24.9397 4.5758 25.6702ZM13.1933 22.4434C13.2129 21.5531 12.9257 20.7702 12.5141 19.9961C11.9272 20.0946 11.4015 19.7069 10.7755 19.866C11.306 20.7742 11.8163 21.6231 12.4792 22.37C12.6563 22.5697 12.8784 22.577 13.1933 22.4434ZM4.42504 18.7971C4.53388 19.0063 4.57221 19.1461 4.6604 19.237C5.07825 19.6675 5.37106 20.1613 5.52722 20.7429C5.55416 20.8441 5.66392 20.973 5.75867 20.9978C6.29909 21.1393 6.84741 21.2534 7.47038 21.2552C7.37928 21.1107 7.32908 21.0195 7.26806 20.9353C6.89432 20.4171 6.45487 19.9424 6.24064 19.3197C6.20663 19.22 6.07463 19.1095 5.96956 19.0858C5.49108 18.9793 5.00521 18.9025 4.42504 18.7971ZM11.499 22.169C11.4247 21.9868 11.396 21.869 11.3335 21.7739C10.9477 21.1841 10.5585 20.5967 10.162 20.0141C9.87489 19.5925 9.4247 19.4885 8.82313 19.727C9.15576 20.2531 9.4008 20.8107 9.75992 21.3211C10.1748 21.9104 10.736 22.0991 11.499 22.169ZM4.534 21.3306C5.06409 20.9929 5.08439 20.9483 4.80305 20.5033C4.65481 20.2684 4.41095 20.0785 4.31516 19.8289C4.11588 19.3063 3.69133 19.0068 3.34173 18.6169C3.25752 18.8667 3.2171 19.0799 3.1164 19.2603C3.00279 19.4639 3.01104 19.6223 3.15807 19.7951C3.54028 20.2422 3.91454 20.696 4.29821 21.1418C4.36547 21.2193 4.45989 21.2724 4.534 21.3306ZM6.93099 19.2801C7.22513 20.0849 7.74197 20.6887 8.34752 21.2234C8.49645 21.1916 8.62769 21.1634 8.73589 21.1401C8.89512 21.3007 8.75904 21.6255 9.18704 21.6335C9.09826 21.4346 9.04481 21.2785 8.96303 21.1387C8.76751 20.8017 8.53433 20.4846 8.36052 20.1373C7.94459 19.3087 7.78746 19.2588 6.93099 19.2801ZM4.2024 23.0007C4.50763 22.5166 4.52964 22.1828 4.30231 21.9395C3.95208 21.5644 3.60238 21.1894 3.24605 20.8204C3.13181 20.702 2.99822 20.6017 2.8107 20.4386C2.78107 20.6469 2.71679 20.787 2.76029 20.8409C3.29944 21.5091 3.63289 22.3211 4.2024 23.0007ZM3.82068 24.3899C4.0914 24.0533 4.11269 24.0279 3.9476 23.7541C3.62579 23.2209 3.28422 22.6991 2.94067 22.1784C2.88361 22.092 2.77682 22.0372 2.64133 21.9253C2.58468 22.3176 2.53966 22.6291 2.50408 22.8742C2.96315 23.4024 3.37737 23.8798 3.82068 24.3899ZM2.42406 23.8361C2.75465 24.4634 3.41861 25.1378 3.89614 25.3663C3.85773 25.0481 3.01699 24.1518 2.42406 23.8361Z" />
<path d="M12.9798 8.09945C13.3701 7.64856 13.3619 7.15775 13.2983 6.65416C13.2873 6.56894 13.313 6.47933 13.3229 6.39157C13.3679 5.98497 13.4325 5.57943 13.4541 5.17176C13.4824 4.63349 13.5451 4.55922 14.0406 4.35951C14.3338 4.24135 14.6008 4.0533 14.8707 3.88186C15.653 3.38522 16.4271 2.87578 17.2126 2.3842C17.4829 2.21493 17.7795 2.08909 18.0581 1.93309C18.1777 1.86606 18.2837 1.77515 18.3933 1.69147C18.505 1.60612 18.6027 1.49593 18.7256 1.43325C18.9713 1.3074 19.0627 1.35763 19.1763 1.60645C19.5145 2.3488 19.8585 3.08828 20.202 3.82801C20.2471 3.92518 20.2912 4.02643 20.3549 4.11142C21.1419 5.16963 21.7717 6.32788 22.4829 7.43384C22.7818 7.89838 23.1154 8.34095 23.4256 8.79808C23.6057 9.06382 23.7714 9.3391 23.9751 9.6598C24.0212 9.667 24.1342 9.66033 24.2193 9.70524C24.3146 9.75598 24.4668 9.87699 24.4524 9.92672C24.3674 10.2282 24.453 10.5414 24.2836 10.8504C23.943 11.4719 23.6818 12.1375 23.399 12.7898C23.3605 12.8779 23.3442 13.0205 23.3894 13.0912C23.5035 13.2695 23.605 13.4625 23.4774 13.6368C23.3136 13.859 23.1223 14.1381 22.8844 14.2156C21.9316 14.5265 21.1154 15.0489 20.351 15.6736C20.296 15.7188 20.2395 15.7631 20.1793 15.8013C19.5806 16.1848 19.3876 16.1338 18.9104 15.6032C18.1176 14.7221 17.4321 13.7649 16.7994 12.7666C16.5519 12.3757 16.297 11.9891 16.0505 11.5977C15.3128 10.4286 14.2789 9.50822 13.4131 8.44699C13.3142 8.32839 13.1691 8.24951 12.9798 8.09945ZM14.1725 8.05897C14.266 8.19943 14.3377 8.32127 14.4231 8.4321C14.8996 9.05314 15.3833 9.66941 15.8571 10.2924C16.0617 10.5616 16.2454 10.8466 16.4469 11.1179C16.8601 11.6742 17.2924 12.2169 17.6912 12.7839C18.04 13.2802 18.3481 13.8056 18.6841 14.3112C19.0135 14.8069 19.175 14.8404 19.6255 14.5135C20.1018 14.1684 20.5682 13.8095 21.0445 13.4644C21.2556 13.3112 21.4806 13.1776 21.7339 13.0125C21.6302 12.8032 21.5486 12.6275 21.4581 12.4567C21.0139 11.6203 20.5426 10.7967 20.1269 9.94618C19.4972 8.65753 18.7542 7.43883 17.9423 6.26022C17.6704 5.86582 17.6165 5.86844 17.2122 6.10588C16.753 6.37529 16.2873 6.63528 15.8136 6.87768C15.225 7.17991 14.6551 7.50171 14.1725 8.05897ZM22.2873 12.3974C22.9687 11.824 23.3669 11.0912 23.6761 10.2709C23.2145 9.89529 23.1583 9.24451 22.6253 8.87965C22.2939 9.87789 21.9937 10.8217 21.8708 11.8127C21.8378 12.0777 21.9791 12.2492 22.2873 12.3974ZM19.2331 3.40574C19.1479 3.62569 19.0682 3.7468 19.0582 3.87305C19.011 4.47114 18.8338 5.01711 18.5003 5.51855C18.4421 5.6056 18.4178 5.77317 18.4617 5.86071C18.7125 6.3599 18.989 6.84694 19.3992 7.31586C19.4475 7.15202 19.4828 7.05404 19.5057 6.95263C19.6479 6.32974 19.714 5.68628 20.04 5.11407C20.0924 5.02266 20.0881 4.85063 20.0365 4.75608C19.8004 4.32648 19.5372 3.91096 19.2331 3.40574ZM21.3742 10.944C21.4619 10.7679 21.5314 10.6686 21.5615 10.5588C21.7495 9.87962 21.9334 9.19943 22.1089 8.5168C22.2358 8.02279 22.0165 7.61613 21.4401 7.32203C21.2648 7.91926 21.008 8.47159 20.862 9.07834C20.6937 9.77905 20.9227 10.325 21.3742 10.944ZM17.4029 5.16109C18.0066 5.336 18.0535 5.32179 18.2018 4.81657C18.2802 4.55015 18.2617 4.24164 18.3859 4.00479C18.6466 3.50998 18.5909 2.99345 18.6528 2.47338C18.4096 2.57518 18.2229 2.68567 18.0209 2.7292C17.793 2.77839 17.6795 2.88924 17.6469 3.11378C17.5637 3.69605 17.4702 4.27682 17.3889 4.85935C17.3752 4.96104 17.3977 5.067 17.4029 5.16109ZM20.5258 5.60621C20.1158 6.35868 20.0039 7.14555 20.0024 7.95339C20.1247 8.04419 20.2326 8.12409 20.3215 8.18995C20.3062 8.41554 19.9724 8.52797 20.2491 8.85455C20.3398 8.65651 20.4217 8.51329 20.4726 8.35957C20.5965 7.99016 20.6805 7.60564 20.8265 7.24572C21.1738 6.38613 21.1075 6.23521 20.5258 5.60621ZM15.93 6.0153C16.4951 5.92466 16.7602 5.72072 16.7927 5.38936C16.843 4.87863 16.8936 4.36837 16.9352 3.85711C16.9487 3.6931 16.9357 3.52656 16.9343 3.27804C16.7583 3.3934 16.6107 3.43768 16.599 3.50594C16.4535 4.35207 16.0641 5.13881 15.93 6.0153ZM14.6349 6.64637C15.0664 6.62727 15.0996 6.62647 15.1961 6.32164C15.3838 5.72784 15.55 5.12672 15.7139 4.52487C15.7411 4.42492 15.7117 4.30858 15.7062 4.13293C15.3743 4.34954 15.1107 4.52149 14.9032 4.65666C14.8098 5.35027 14.7251 5.97656 14.6349 6.64637ZM14.1281 5.23201C13.8755 5.89455 13.8078 6.83848 13.9517 7.34798C14.1652 7.10891 14.2828 5.88567 14.1281 5.23201Z" />
</svg>
