<?xml version="1.0" encoding="utf-8"?>
<svg version="1.1" id="Layer_1" xmlns="http://www.w3.org/2000/svg" viewBox="0 0 52.5 52.5" >
<g>
	<path style="fill:#2867B2" d="M12.7,50.1V17.9H2v32.1H12.7z M7.3,13.5c3.7,0,6.1-2.5,6.1-5.5c-0.1-3.1-2.3-5.5-6-5.5C3.8,2.4,1.3,4.8,1.3,8
		C1.3,11,3.7,13.5,7.3,13.5L7.3,13.5L7.3,13.5z"/>
	<path style="fill:#2867B2" d="M18.6,50.1h10.6v-18c0-1,0.1-1.9,0.4-2.6c0.8-1.9,2.6-3.9,5.5-3.9c3.9,0,5.4,2.9,5.4,7.2v17.2h10.6V31.6
		c0-9.9-5.2-14.5-12.3-14.5c-5.8,0-8.3,3.2-9.7,5.4h0.1v-4.7H18.6C18.7,20.9,18.6,50.1,18.6,50.1L18.6,50.1z"/>
</g>
</svg>
