<svg viewBox="0 0 14 14" xmlns="http://www.w3.org/2000/svg">
<path d="M9.45067 5.16279V5.00279C9.45067 4.98145 9.44 4.97079 9.44 4.94945C9.44 4.91745 9.44 4.88545 9.42933 4.85345C9.42933 4.92812 9.39733 4.90679 9.38667 4.85345C9.376 4.81079 9.36533 4.77879 9.36533 4.74679C9.35467 4.72545 9.344 4.70412 9.344 4.69345C9.33333 4.67212 9.32267 4.67212 9.32267 4.67212L9.29067 4.64012L9.22667 4.49079C9.216 4.48012 9.20533 4.46945 9.20533 4.45879L9.17333 4.41612C9.16267 4.38412 9.14133 4.35212 9.12 4.32012C9.07733 4.25612 9.03467 4.18145 8.97067 4.10679C8.91733 4.02145 8.88533 3.94679 8.81067 3.87212L8.576 3.65879C8.416 3.53079 8.288 3.47745 8.13867 3.40279L7.776 3.24279C7.69067 3.25345 7.60533 3.23212 7.50933 3.22145C7.424 3.20012 7.328 3.18945 7.24267 3.21079L7.264 3.18945C7.22133 3.20012 7.12533 3.18945 7.008 3.18945L6.80533 3.21079C6.76267 3.21079 6.73067 3.21079 6.69867 3.22145H6.66667L6.64533 3.23212H6.592L6.54933 3.24279C6.528 3.24279 6.51733 3.25345 6.496 3.25345L6.4 3.27479L6.31467 3.29612C6.29333 3.30679 6.28267 3.30679 6.272 3.30679C6.25067 3.31745 6.24 3.31745 6.22933 3.31745L6.15467 3.34945C6.13333 3.34945 6.112 3.36012 6.09067 3.37079C6.048 3.38145 6.016 3.40279 6.00533 3.41345H6.02667L5.952 3.45612C5.93067 3.46679 5.90933 3.46679 5.89867 3.46679C5.86667 3.46679 5.824 3.45612 5.77067 3.46679C5.792 3.49879 5.78133 3.53079 5.74933 3.57345C5.73867 3.58412 5.728 3.60545 5.70667 3.61612L5.67467 3.64812L5.664 3.63745C5.65333 3.64812 5.55733 3.60545 5.536 3.62679L5.472 3.70145L5.39733 3.77612L5.32267 3.84012L5.312 3.80812L5.248 3.87212C5.22667 3.90412 5.19467 3.92545 5.17333 3.94679L5.09867 4.00012C5.07733 4.02145 5.056 4.03212 5.04533 4.05345C4.97067 4.09612 4.88533 4.14945 4.78933 4.22412C4.704 4.28812 4.61867 4.37345 4.56533 4.48012C4.512 4.49079 4.49067 4.55479 4.43733 4.57612L4.42667 4.59745C4.42667 4.59745 4.43733 4.61879 4.53333 4.70412C4.55467 4.72545 4.576 4.75745 4.608 4.77879L4.69333 4.85345C4.75733 4.90679 4.82133 4.97079 4.896 5.02412C5.03467 5.13079 5.19467 5.23745 5.33333 5.31212C5.472 5.39745 5.568 5.40812 5.65333 5.41879L5.67467 5.45079L5.696 5.41879C5.728 5.39745 5.728 5.42945 5.73867 5.46145C5.74933 5.45079 5.74933 5.45079 5.76 5.45079C5.76 5.44012 5.77067 5.44012 5.78133 5.44012C5.77067 5.41879 5.77067 5.42945 5.76 5.42945C5.76 5.40812 5.74933 5.36545 5.78133 5.35479C5.81333 5.32279 5.824 5.38679 5.86667 5.35479C5.96267 5.28012 6.06933 5.20545 6.176 5.15212C6.22933 5.12012 6.272 5.08812 6.32533 5.06679C6.37867 5.03479 6.432 5.00279 6.48533 4.98145C6.496 4.99212 6.48533 4.99212 6.48533 5.00279C6.53867 4.96012 6.60267 4.93879 6.64533 4.90679L6.688 4.94945C6.688 4.92812 6.76267 4.87479 6.83733 4.85345C6.85867 4.85345 6.88 4.85345 6.90133 4.84279H6.96533V4.76812C6.976 4.76812 6.98667 4.77879 6.98667 4.77879C6.98667 4.78945 6.98667 4.80012 6.99733 4.81079C6.99733 4.82145 6.99733 4.84279 7.01867 4.83212C7.02933 4.78945 7.04 4.78945 7.06133 4.80012C7.072 4.80012 7.08267 4.81079 7.08267 4.81079C7.09333 4.81079 7.104 4.81079 7.104 4.80012C7.104 4.80012 7.104 4.81079 7.11467 4.81079C7.11467 4.82145 7.12533 4.83212 7.11467 4.84279C7.12533 4.82145 7.136 4.81079 7.136 4.82145C7.14667 4.82145 7.14667 4.83212 7.15733 4.82145C7.168 4.81079 7.15733 4.81079 7.15733 4.78945C7.168 4.78945 7.17867 4.78945 7.18933 4.77879C7.2 4.80012 7.2 4.83212 7.17867 4.83212C7.2 4.84279 7.28533 4.82145 7.328 4.83212C7.40267 4.84279 7.488 4.90679 7.53067 4.93879C7.57333 4.97079 7.59467 5.04545 7.616 5.06679L7.65867 5.12012C7.65867 5.13079 7.648 5.13079 7.63733 5.13079V5.14145V5.15212C7.62667 5.16279 7.62667 5.17345 7.62667 5.17345C7.616 5.17345 7.616 5.18412 7.616 5.18412C7.616 5.18412 7.616 5.19479 7.60533 5.19479H7.616C7.60533 5.19479 7.59467 5.20545 7.584 5.20545H7.60533L7.59467 5.21612H7.63733C7.648 5.21612 7.65867 5.21612 7.65867 5.22679H7.68C7.68 5.22679 7.68 5.23745 7.69067 5.23745C7.70133 5.23745 7.70133 5.24812 7.68 5.23745L7.69067 5.24812C7.70133 5.25879 7.712 5.25879 7.744 5.26945H7.70133L7.69067 5.25879C7.68 5.25879 7.68 5.25879 7.66933 5.24812V5.25879C7.68 5.25879 7.68 5.26945 7.69067 5.26945H7.68V5.28012C7.69067 5.28012 7.70133 5.29079 7.70133 5.29079H7.69067C7.70133 5.29079 7.70133 5.30145 7.70133 5.30145C7.70133 5.31212 7.70133 5.31212 7.712 5.32279H7.73333V5.33345C7.73333 5.34412 7.72267 5.34412 7.72267 5.34412C7.712 5.34412 7.69067 5.34412 7.66933 5.33345C7.66933 5.32279 7.66933 5.31212 7.65867 5.30145C7.65867 5.31212 7.65867 5.31212 7.648 5.32279V5.34412H7.63733L7.60533 5.42945L7.62667 5.41879C7.62667 5.44012 7.68 5.48279 7.65867 5.53612L7.552 5.70679C7.47733 5.82412 7.328 5.92012 7.31733 5.97345L7.34933 6.01612C7.33867 6.04812 7.31733 5.99479 7.30667 6.01612C7.30667 6.01612 7.25333 6.03745 7.27467 6.03745L7.08267 6.21879C7.008 6.29345 6.92267 6.35745 6.816 6.45345L6.592 6.65612C6.50667 6.73079 6.45333 6.81612 6.42133 6.84812L6.336 6.90145C6.34667 6.91212 6.26133 6.92279 6.29333 6.93345L6.18667 7.02945L6.15467 6.99745C6.144 7.00812 6.15467 7.04012 6.144 7.08279C6.144 7.12545 6.13333 7.16812 6.08 7.22145C6.00533 7.30679 5.97333 7.41345 5.93067 7.53079L5.90933 7.61612C5.90933 7.63745 5.89867 7.64812 5.89867 7.65879V7.69079L5.888 7.71212C5.888 7.73345 5.87733 7.76545 5.87733 7.79745C5.86667 7.82945 5.86667 7.86145 5.86667 7.88279C5.84533 7.88279 5.83467 7.82945 5.824 7.77612C5.824 7.80812 5.824 7.85079 5.80267 7.88279C5.824 7.86145 5.824 7.88279 5.83467 7.91479C5.83467 7.93612 5.83467 7.96812 5.84533 7.94679C5.84533 7.96812 5.856 7.98945 5.86667 8.01079C5.86667 8.04279 5.86667 8.06412 5.87733 8.08545V8.29879C5.87733 8.33079 5.888 8.36279 5.90933 8.38412C5.93067 8.38412 5.99467 8.39479 6.13333 8.41612C6.272 8.42679 6.42133 8.40545 6.60267 8.41612C6.784 8.42679 6.89067 8.38412 7.02933 8.39479C7.168 8.39479 7.27467 8.39479 7.296 8.38412V8.42679C7.296 8.42679 7.30667 8.42679 7.30667 8.41612L7.31733 8.40545C7.31733 8.39479 7.31733 8.37345 7.30667 8.36279H7.264C7.27467 8.35212 7.264 8.34145 7.264 8.34145C7.264 8.34145 7.27467 8.33079 7.28533 8.29879C7.31733 8.29879 7.328 8.34145 7.33867 8.38412C7.33867 8.34145 7.37067 8.30945 7.31733 8.29879C7.33867 8.25612 7.37067 8.29879 7.392 8.25612L7.36 8.20279C7.34933 8.20279 7.34933 8.19212 7.34933 8.18145C7.34933 8.17079 7.34933 8.16012 7.36 8.16012C7.37067 8.13879 7.38133 8.11745 7.37067 8.10679C7.37067 8.08545 7.36 8.07479 7.36 8.06412V8.05345H7.37067C7.37067 8.04279 7.37067 8.03212 7.38133 8.03212C7.38133 8.01079 7.392 8.00012 7.392 8.00012C7.41333 7.98945 7.424 7.98945 7.424 7.98945C7.49867 7.90412 7.616 7.88279 7.73333 7.77612L8.07467 7.45612C8.18133 7.34945 8.26667 7.26412 8.32 7.22145V7.23212C8.39467 7.14679 8.49067 7.05079 8.608 6.93345C8.71467 6.82679 8.832 6.68812 8.94933 6.54945C8.97067 6.52812 8.98133 6.50679 8.992 6.48545L9.01333 6.46412L9.04533 6.42145C9.056 6.41079 9.06667 6.40012 9.06667 6.38945L9.09867 6.34679L9.12 6.30412L9.152 6.27212C9.152 6.26145 9.16267 6.24012 9.17333 6.22945L9.19467 6.18679L9.216 6.14412L9.23733 6.10145L9.25867 6.05879L9.28 6.01612C9.28 6.00545 9.29067 5.98412 9.30133 5.97345C9.30133 5.95212 9.312 5.94145 9.312 5.93079C9.36533 5.80279 9.38667 5.68545 9.408 5.56812C9.42933 5.45079 9.42933 5.34412 9.41867 5.25879L9.45067 5.16279ZM7.37067 9.12012V9.10945H7.36V9.09879C7.36 9.08812 7.36 9.07745 7.34933 9.05612V9.04545L7.328 9.01345L7.28533 9.02412H7.264V9.01345C7.25333 9.01345 7.25333 9.01345 7.24267 9.00279C7.232 8.99212 7.21067 8.99212 7.18933 8.98145C7.17867 8.98145 7.168 8.97079 7.15733 8.97079L7.136 8.94945C7.12533 8.92812 7.11467 8.92812 7.104 8.91745C7.09333 8.91745 7.09333 8.91745 7.08267 8.90679H7.072L7.02933 8.88545L6.99733 8.91745V8.88545L6.976 8.87479C6.96533 8.87479 6.95467 8.86412 6.944 8.86412C6.93333 8.86412 6.93333 8.86412 6.93333 8.85345H6.912L6.90133 8.84279C6.89067 8.84279 6.89067 8.83212 6.88 8.83212H6.80533C6.784 8.82145 6.76267 8.82145 6.74133 8.82145H6.72L6.70933 8.81079H6.61333C6.53867 8.81079 6.464 8.82145 6.38933 8.84279H6.35733C6.368 8.84279 6.26133 8.87479 6.176 8.91745C6.12267 8.93879 6.08 8.97079 6.048 8.99212C6.016 9.01345 5.99467 9.03479 5.99467 9.03479H5.984C5.984 9.04545 5.984 9.04545 5.97333 9.04545V9.05612H5.96267L5.952 9.06679C5.952 9.06679 5.94133 9.06679 5.92 9.08812L5.86667 9.12012L5.824 9.15212C5.81333 9.15212 5.80267 9.16279 5.792 9.17345L5.76 9.22679L5.792 9.24812C5.78133 9.25879 5.77067 9.26945 5.77067 9.28012C5.76 9.29079 5.76 9.30145 5.76 9.30145H5.74933V9.31212C5.73867 9.32279 5.728 9.33345 5.728 9.34412L5.696 9.39745C5.696 9.40812 5.68533 9.42945 5.67467 9.45079C5.65333 9.49345 5.65333 9.53612 5.64267 9.58945C5.64267 9.63212 5.632 9.68545 5.632 9.72812C5.62133 9.81345 5.6 9.87745 5.61067 9.97345C5.61067 9.99479 5.61067 10.0161 5.62133 10.0375C5.62133 10.0588 5.632 10.0695 5.632 10.0908L5.64267 10.1335V10.1441V10.0801L5.664 10.1548L5.68533 10.1975C5.68533 10.2081 5.696 10.2188 5.696 10.2295C5.70667 10.2401 5.70667 10.2508 5.70667 10.2508V10.2615L5.71733 10.2721V10.3041C5.728 10.3041 5.728 10.3148 5.728 10.3148L5.74933 10.3468C5.74933 10.3575 5.76 10.3681 5.76 10.3681C5.76 10.3788 5.76 10.3788 5.77067 10.4001L5.824 10.3681C5.824 10.3788 5.824 10.3788 5.81333 10.3895C5.81333 10.4001 5.81333 10.4001 5.80267 10.4108L5.824 10.4321C5.824 10.4428 5.83467 10.4428 5.83467 10.4428V10.4535H5.84533L5.856 10.4641H5.86667C5.86667 10.4748 5.888 10.4855 5.888 10.4855C5.89867 10.4855 5.89867 10.4855 5.90933 10.4961L5.92 10.5068C5.93067 10.5175 5.94133 10.5175 5.94133 10.5281C5.94133 10.5281 5.99467 10.5601 5.99467 10.5708C6.00533 10.5708 6.02667 10.5921 6.03733 10.6028C6.048 10.6135 6.05867 10.6135 6.05867 10.6135C6.08 10.6241 6.10133 10.6455 6.08 10.6348C6.10133 10.6455 6.112 10.6561 6.12267 10.6561L6.22933 10.7095L6.32533 10.7415H6.31467L6.44267 10.7735C6.45333 10.7735 6.464 10.7735 6.48533 10.7841H6.56C6.57067 10.7841 6.58133 10.7948 6.592 10.7948H6.63467C6.64533 10.8055 6.656 10.8055 6.66667 10.8055H6.67733L6.688 10.8161H6.74133L6.752 10.8055C6.76267 10.8055 6.77333 10.7841 6.784 10.7841L6.80533 10.7628H6.816L6.90133 10.7308C6.912 10.7308 6.92267 10.7201 6.93333 10.7201H6.92267C6.92267 10.7201 6.93333 10.7095 6.944 10.7095L6.93333 10.7201C6.93333 10.7201 6.944 10.7201 6.944 10.7095L6.96533 10.7415L6.99733 10.7201C7.01867 10.7095 7.01867 10.6988 7.02933 10.6881C7.02933 10.6881 7.06133 10.6881 7.072 10.6775C7.072 10.6775 7.08267 10.6668 7.09333 10.6668L7.11467 10.6455C7.15733 10.6241 7.22133 10.6028 7.264 10.5708C7.30667 10.5388 7.33867 10.4855 7.37067 10.4428C7.392 10.4215 7.424 10.4001 7.43467 10.3788C7.44533 10.3681 7.424 10.3575 7.43467 10.3468L7.44533 10.3361C7.44533 10.3255 7.456 10.3255 7.456 10.3255L7.44533 10.3148L7.456 10.3041L7.47733 10.2615V10.2508C7.488 10.2508 7.488 10.2401 7.49867 10.2295V10.1975L7.552 10.1015L7.52 10.1335H7.50933L7.52 10.1015V10.0908H7.50933L7.52 10.0588V9.96279H7.54133L7.53067 9.90945C7.53067 9.88812 7.52 9.86679 7.52 9.84545V9.78145H7.53067V9.77079C7.54133 9.77079 7.54133 9.77079 7.54133 9.76012H7.552V9.74945H7.56267V9.72812V9.69612V9.68545C7.56267 9.67479 7.552 9.66412 7.552 9.65345L7.56267 9.66412C7.56267 9.66412 7.552 9.61079 7.552 9.62145C7.552 9.61079 7.552 9.62145 7.54133 9.60012C7.552 9.60012 7.552 9.60012 7.552 9.58945V9.54679C7.552 9.51479 7.54133 9.49345 7.53067 9.47212L7.49867 9.42945C7.49867 9.41879 7.488 9.41879 7.46667 9.39745C7.46667 9.39745 7.456 9.39745 7.456 9.38679V9.34412H7.43467C7.43467 9.32279 7.424 9.30145 7.41333 9.26945C7.424 9.26945 7.424 9.26945 7.424 9.25879H7.43467V9.24812C7.43467 9.22679 7.424 9.20545 7.41333 9.17345C7.41333 9.16279 7.40267 9.16279 7.392 9.15212V9.14145C7.38133 9.14145 7.38133 9.13079 7.38133 9.13079C7.38133 9.12012 7.37067 9.12012 7.37067 9.12012ZM5.73867 5.38679C5.728 5.39745 5.71733 5.40812 5.70667 5.40812C5.71733 5.38679 5.70667 5.36545 5.73867 5.38679ZM7.60533 5.15212C7.616 5.15212 7.616 5.14145 7.616 5.14145C7.59467 5.15212 7.59467 5.16279 7.59467 5.17345C7.59467 5.17345 7.60533 5.16279 7.60533 5.15212ZM7.38133 9.12012L7.40267 9.15212C7.392 9.13079 7.38133 9.12012 7.38133 9.12012ZM6.272 10.7308L6.31467 10.7415C6.29333 10.7308 6.28267 10.7308 6.272 10.7308ZM7.616 5.14145L7.62667 5.13079H7.616V5.14145ZM5.65333 10.1548C5.65333 10.1548 5.664 10.1548 5.664 10.1655L5.65333 10.1548Z" />
<path fill-rule="evenodd" clip-rule="evenodd" d="M7 12.6667C10.1296 12.6667 12.6667 10.1296 12.6667 7C12.6667 3.87039 10.1296 1.33333 7 1.33333C3.87039 1.33333 1.33333 3.87039 1.33333 7C1.33333 10.1296 3.87039 12.6667 7 12.6667ZM7 14C10.866 14 14 10.866 14 7C14 3.13401 10.866 0 7 0C3.13401 0 0 3.13401 0 7C0 10.866 3.13401 14 7 14Z" />
</svg>
