<svg viewBox="0 0 60 57" xmlns="http://www.w3.org/2000/svg">
<path d="M44.2667 46.5096C44.1372 45.8085 44.4041 45.1033 44.8394 44.4439C43.9931 43.3334 41.7769 42.8212 40.5366 42.797C37.6146 42.74 35.758 44.1353 33.4552 45.6194C31.2155 47.0628 30.1051 49.7848 27.5953 50.9069C21.1825 53.7739 13.558 46.8792 10.0773 42.4594C4.67526 35.5997 3.01185 26.2604 6.70217 18.2153C10.4088 10.1347 19.1229 6.83434 27.4184 5.94532C37.5969 4.8545 38.735 0.592867 46.0501 7.67204C50.2212 11.7086 52.9075 17.6851 53.8431 23.5821C55.1618 31.894 56.8348 43.1785 50.1157 45.5008C49.4847 45.7189 44.4937 47.7389 44.2667 46.5096Z" />
</svg>
