<svg viewBox="0 0 56 52" xmlns="http://www.w3.org/2000/svg">
<path d="M39.219 6.16185C40.1942 6.70459 40.1646 6.61607 41.2802 7.26552L41.6056 7.46801C42.5835 8.13173 43.2326 8.50926 44.4878 9.07722C45.8824 9.88183 46.6926 10.7134 47.6324 11.8934L47.7079 11.9883C49.8167 14.6362 51.8722 17.217 53.1632 20.4093C54.243 23.0791 54.7113 26.1527 55.3313 28.9628C55.9942 31.9682 56.2893 35.8685 55.6269 38.8959C54.2343 45.2604 47.8424 49.5047 42.0399 51.074C37.8535 52.2062 33.4337 52.0622 29.1427 51.8641C25.9154 51.7151 22.6394 51.3605 19.5099 50.5096C12.7515 48.6719 7.93401 42.985 4.42006 37.1024C1.31564 31.9054 -0.499362 26.3519 0.121 20.2463C0.661918 14.9225 3.41696 10.5223 7.26557 6.96452C9.482 4.91559 11.8716 3.01449 14.3855 1.35834C15.2494 0.789219 16.1164 0.157783 17.1694 0.0665402C22.8813 -0.428404 29.3143 1.93846 34.5874 3.82907C36.2998 4.44304 37.6619 5.29516 39.219 6.16185Z" />
</svg>
