<svg viewBox="0 0 1280 501" xmlns="http://www.w3.org/2000/svg">
<path d="M906.297 -271.197C931.79 -262.053 931.016 -263.545 960.183 -252.604L968.69 -249.193C994.253 -238.012 1011.22 -231.652 1044.04 -222.084C1080.5 -208.529 1101.68 -194.521 1126.25 -174.641L1128.22 -173.044C1183.35 -128.437 1237.09 -84.9591 1270.84 -31.1816C1299.07 13.7937 1311.31 65.5716 1327.52 112.912C1344.85 163.541 1352.56 229.247 1335.25 280.246C1298.84 387.463 1131.74 458.964 980.043 485.4C870.599 504.473 755.053 502.048 642.874 498.711C558.504 496.2 472.858 490.227 391.044 475.892C214.359 444.935 88.4177 349.133 -3.44707 250.033C-84.6054 162.483 -132.055 68.9287 -115.837 -33.9283C-101.696 -123.613 -29.671 -197.74 70.9426 -257.675C128.886 -292.191 191.358 -324.217 257.078 -352.117C279.662 -361.705 302.329 -372.342 329.857 -373.879C479.184 -382.217 647.359 -342.344 785.213 -310.495C829.979 -300.152 865.589 -285.797 906.297 -271.197Z" />
</svg>
