<svg viewBox="0 0 375 332" xmlns="http://www.w3.org/2000/svg">
<path d="M276.931 -119.33C288.79 -113.986 288.43 -114.857 301.997 -108.463L305.954 -106.469C317.845 -99.9338 325.74 -96.2165 341.003 -90.6243C357.962 -82.702 367.815 -74.5146 379.244 -62.8953L380.162 -61.9621C405.807 -35.8901 430.803 -10.4784 446.503 20.9532C459.633 47.2401 465.329 77.5031 472.868 105.172C480.93 134.764 484.518 173.167 476.463 202.975C459.528 265.64 381.798 307.431 311.235 322.882C260.326 334.03 206.578 332.613 154.396 330.662C115.15 329.195 75.3112 325.704 37.254 317.325C-44.9332 299.231 -103.517 243.237 -146.249 185.316C-184.001 134.146 -206.073 79.4652 -198.529 19.3479C-191.951 -33.0708 -158.447 -76.396 -111.646 -111.426C-84.6921 -131.6 -55.6326 -150.319 -25.0621 -166.626C-14.5567 -172.229 -4.01285 -178.446 8.79231 -179.345C78.2534 -184.218 156.483 -160.914 220.607 -142.298C241.431 -136.253 257.995 -127.863 276.931 -119.33Z" />
</svg>
