<svg viewBox="0 0 1280 1564" xmlns="http://www.w3.org/2000/svg">
<path d="M950.164 371.575C991.259 376.308 989.365 374.058 1036.64 380.306L1050.54 382.51C1092.83 390.748 1120.33 394.372 1172.05 396.647C1231.08 404.246 1268.64 419.3 1314.15 443.062L1317.8 444.971C1419.91 498.287 1519.44 550.253 1596.05 628.81C1660.13 694.51 1705.12 778.986 1753.38 854.035C1804.99 934.298 1850.97 1044.91 1853.54 1140.94C1858.95 1342.83 1659.62 1539.81 1458.17 1651.89C1312.82 1732.75 1147.35 1778.98 986.178 1822.16C864.959 1854.63 740.082 1881.66 616.192 1892.5C348.643 1915.92 118.637 1804.71 -64.7076 1672.9C-226.684 1556.45 -343.963 1414.87 -375.735 1229.36C-403.439 1067.6 -340.604 907.571 -229.584 759.68C-165.647 674.509 -93.9489 591.681 -15.4365 514.594C11.5439 488.104 38.0824 459.756 76.3781 445.073C284.112 365.426 544.322 361.182 757.171 356.258C826.292 354.659 884.541 364.017 950.164 371.575Z" />
</svg>
