<svg viewBox="0 0 375 337" xmlns="http://www.w3.org/2000/svg">
<path d="M281.127 115.75C293.797 117.343 293.208 116.629 307.785 118.715L312.074 119.444C325.118 122.145 333.599 123.355 349.536 124.199C367.737 126.74 379.344 131.578 393.419 139.181L394.55 139.792C426.133 156.852 456.917 173.48 480.71 198.434C500.608 219.304 514.675 246.048 529.723 269.827C545.817 295.258 560.251 330.244 561.28 360.526C563.443 424.187 502.528 485.798 440.75 520.638C396.18 545.773 345.324 559.942 295.784 573.159C258.525 583.099 220.127 591.312 181.992 594.427C99.6378 601.154 28.5167 565.526 -28.2817 523.52C-78.4606 486.41 -114.933 441.486 -125.176 382.922C-134.106 331.859 -115.145 281.561 -81.3112 235.208C-61.8261 208.514 -39.9449 182.577 -15.9505 158.467C-7.7049 150.182 0.4 141.31 12.16 136.775C75.9514 112.175 156.092 111.476 221.643 110.447C242.93 110.112 260.895 113.206 281.127 115.75Z" />
</svg>
