<svg viewBox="0 0 12 18" xmlns="http://www.w3.org/2000/svg">
  <path
    d="M11.1669 8.29764L3.07739 0.287559C2.89029 0.102146 2.64052 0 2.37421 0C2.10789 0 1.85813 0.102146 1.67103 0.287559L1.07529 0.87731C0.687636 1.2616 0.687636 1.88618 1.07529 2.26988L7.86827 8.99627L1.06775 15.7301C0.880648 15.9155 0.777344 16.1627 0.777344 16.4263C0.777344 16.6901 0.880648 16.9373 1.06775 17.1228L1.66349 17.7124C1.85074 17.8979 2.10035 18 2.36667 18C2.63298 18 2.88275 17.8979 3.06985 17.7124L11.1669 9.69504C11.3545 9.50904 11.4575 9.26071 11.4569 8.99671C11.4575 8.73169 11.3545 8.48349 11.1669 8.29764Z"/>
</svg>
