<svg viewBox="0 0 118 132" xmlns="http://www.w3.org/2000/svg">
<path d="M131.394 22.6059C136.387 25.394 140.753 28.6212 144.599 32.8474C144.836 33.1863 145.032 33.6343 145.1 33.8159C145.896 34.8103 146.061 34.7324 146.595 35.5323C147.07 36.2439 147.506 36.9768 147.897 37.719C148.418 38.7067 148.441 39.4878 148.729 40.5562C149.397 43.0359 150.548 44.9613 151.833 47.1716C152.873 48.961 154.43 50.2069 156.184 51.2682C157.81 52.2524 159.901 52.4349 161.366 53.6349C169.967 60.6785 173.051 71.8463 176.027 82.0066C178.477 90.3722 178.762 99.1506 176.221 107.583C174.508 113.267 169.375 117.786 164.941 121.423C159.39 125.977 153.019 128.642 146.027 130.183C140.474 131.407 134.948 131.706 129.274 131.526C122.238 131.302 115.059 130.801 108.156 129.367C95.4813 126.734 84.1521 120.571 74.5528 111.998C66.6891 104.974 60.7157 97.1098 60.5989 86.1724C60.4609 73.2573 64.8236 59.0225 72.6128 48.6802C79.2464 39.8722 88.6993 32.6032 97.8601 26.5779C103.116 23.1207 109.52 18.4463 116.04 17.9972C121.546 17.6179 126.699 19.9843 131.394 22.6059Z" class="layer1"/>
<path d="M35.8625 26.3371C33.7785 27.4755 33.8418 27.2899 31.4575 28.6521L30.7621 29.0768C28.6724 30.469 27.285 31.2609 24.6027 32.4522C21.6224 34.1399 19.8908 35.8841 17.8825 38.3594L17.7211 38.5582C13.2143 44.1124 8.82158 49.5259 6.06254 56.2218C3.75509 61.8218 2.75413 68.2687 1.42934 74.1631C0.0125122 80.467 -0.618042 88.6482 0.797539 94.9982C3.77353 108.348 17.4336 117.251 29.8341 120.542C38.7806 122.917 48.2261 122.615 57.3964 122.2C64.2933 121.887 71.2945 121.143 77.9826 119.358C92.4259 115.504 102.721 103.575 110.231 91.2364C116.865 80.3354 120.744 68.6867 119.418 55.8798C118.262 44.713 112.374 35.4833 104.15 28.0207C99.413 23.723 94.3061 19.7354 88.9338 16.2615C87.0876 15.0678 85.2346 13.7433 82.9843 13.5519C70.7775 12.5138 57.0297 17.4784 45.7607 21.444C42.1012 22.7318 39.1902 24.5192 35.8625 26.3371Z" class="layer2"/>
<path d="M45.2546 48.2071L45.3021 48.2319C45.2955 48.2036 45.2985 48.1909 45.2889 48.1753L45.2546 48.2071Z" class="pineapple"/>
<path d="M41.3763 56.5244C40.5167 57.1588 39.8357 58.0497 39.2997 58.9486C38.9246 59.5659 38.5067 60.3064 38.3466 61.0287C38.2775 61.3724 38.0664 63.6973 38.9155 62.6065C39.3975 61.9882 39.3329 60.1444 39.7999 59.2555C40.3193 58.2592 41.0285 57.3617 41.884 56.6329C41.7069 56.2034 41.5484 55.7516 41.4434 55.2994C41.8245 55.3241 42.9188 55.2131 42.8779 55.2166C41.4732 55.1197 40.6474 54.6679 41.3763 56.5244Z" class="pineapple"/>
<path d="M37.1231 63.7913C37.1923 63.7812 37.2585 63.7837 37.3247 63.7863C37.3146 63.717 37.3045 63.6478 37.2817 63.5755L37.1231 63.7913Z" class="pineapple"/>
<path d="M38.3155 63.9974C38.5921 63.957 37.7159 63.8268 37.5741 63.8061C37.5574 63.7087 37.5504 63.6269 37.5463 63.5325L37.3505 63.7924L37.1607 64.0271C37.2268 64.0297 37.2929 64.0322 37.3621 64.0221C37.3424 64.6046 37.7658 65.1199 37.6891 65.662C37.63 66.0749 37.2121 66.4817 37.0965 66.9077C37.2378 66.8749 37.4362 66.8825 37.6381 66.931C38.1338 65.4218 37.8506 65.4339 37.6074 64.0009C37.837 63.9893 38.0793 63.9807 38.3155 63.9974Z" class="pineapple"/>
<path d="M37.2189 70.2333C37.1719 69.9284 37.1346 69.6392 37.1104 69.4065C37.1098 69.6866 37.129 70.0516 37.2189 70.2333Z" class="pineapple"/>
<path d="M37.6226 72.7728C37.822 72.8874 37.9239 72.685 37.8765 72.6602C37.7281 72.6113 37.5827 72.5497 37.4343 72.5007C37.3642 72.4038 37.2748 72.2756 37.236 72.1595C37.4581 72.0126 37.3233 71.0728 37.2052 70.2304C37.1154 70.0487 37.1058 69.6994 37.0967 69.4036C37.076 69.2118 37.0715 69.0639 37.0927 68.9756C37.0962 69.0165 37.0917 69.2022 37.0967 69.4036C37.121 69.6363 37.1583 69.9255 37.2052 70.2304C37.2502 70.3212 37.3072 70.3616 37.392 70.3419C37.712 70.2319 37.5142 69.2769 37.4395 69.0321C37.9291 69.55 37.9911 70.1254 38.1986 70.7624C37.9846 70.0971 37.9841 69.3764 37.4259 68.5884C37.4218 68.494 37.3895 68.4062 37.3825 68.3244L37.2759 68.379C37.2568 68.3477 37.2376 68.3164 37.2184 68.2851C37.2326 68.115 37.2876 67.9413 37.3269 67.7773C37.1372 67.6784 36.9878 67.5224 36.9141 67.3846C36.8833 67.4573 36.8525 67.53 36.8343 67.6057C36.6294 68.2371 35.7329 71.9722 36.922 72.2443L36.8286 72.3553C36.8948 72.3579 36.9609 72.3604 37.024 72.3755L36.8342 72.6102C36.9508 72.6249 37.0674 72.6395 37.1966 72.6572C37.6473 73.7263 36.6772 74.3208 36.558 75.3732C36.5737 75.3636 36.5863 75.3667 36.6019 75.3571C36.7725 75.4247 36.9209 75.4737 37.0724 75.51C37.1653 74.6782 38.1334 73.536 37.6226 72.7728Z" class="pineapple"/>
<path d="M36.4808 75.8083C36.3051 76.5402 37.0192 81.516 37.6365 80.5565C37.5068 80.4853 37.3771 80.4141 37.2317 80.3526C37.3644 80.4111 37.4942 80.4823 37.6365 80.5565C38.1266 79.7933 36.7003 77.0621 37.0193 75.8442C36.83 75.7987 36.6473 75.7816 36.4808 75.8083Z" class="pineapple"/>
<path d="M38.6774 85.8375C38.5007 85.4614 38.3488 85.038 38.2473 84.6266C38.7652 84.8043 38.5451 85.4988 38.8757 85.8451C39.4017 85.8779 39.119 85.2762 38.953 85.0228C38.9489 84.9285 38.8974 84.8093 38.8182 84.7503C38.7662 84.5776 38.5845 84.3338 38.4573 84.1965L38.3362 84.3677C38.2857 84.3555 38.2352 84.3434 38.1878 84.3187C38.2196 84.353 38.264 84.3904 38.2928 84.4373L38.212 84.5514C38.0116 83.6625 38.3337 81.7647 37.5357 81.2528C37.7154 81.2826 37.8063 81.2377 37.7891 81.0868C37.671 80.9116 37.4949 80.9227 37.2733 81.1231C37.2132 81.0954 37.1501 81.0802 37.0931 81.0398C37.1027 81.0555 37.1062 81.0964 37.1097 81.1372C37.0406 81.1473 36.9588 81.1544 36.8927 81.1519C36.9467 81.2049 37.0007 81.2579 37.0577 81.2983C36.977 81.4123 36.98 81.3997 37.1148 81.3386C37.9289 81.8944 37.5094 83.1416 37.5962 84.0032C37.6593 84.6856 37.8289 85.3135 38.055 85.9283C38.2428 85.8133 38.4532 85.7704 38.6774 85.8375Z" class="pineapple"/>
<path d="M38.8023 86.0948C38.5383 86.1382 38.2985 86.0806 38.0769 85.9474C38.2899 86.5056 38.5499 87.0351 38.8603 87.5767C39.1783 87.5863 39.5023 87.5707 39.8198 87.5267C39.4534 87.0518 39.0718 86.6399 38.8023 86.0948Z" class="pineapple"/>
<path d="M36.883 81.1362C36.8608 81.1717 36.8737 81.1748 36.9025 81.1681C36.8958 81.1393 36.8958 81.1393 36.883 81.1362Z" class="pineapple"/>
<path d="M37.0713 81.0212C37.0713 81.0212 37.0943 81.0406 37.1074 81.0437C37.1105 81.0307 37.0975 81.0275 37.0713 81.0212Z" class="pineapple"/>
<path d="M43.2288 92.1749C42.4035 91.443 41.8912 90.5193 41.4037 89.5482C42.1022 90.1963 42.3435 90.748 43.2702 90.5567C44.307 90.3518 45.6264 88.0795 43.9506 88.9451C43.3868 89.2368 43.3126 90.0464 42.6605 89.9833C41.8383 89.9061 41.0373 88.4059 40.5164 87.9072C40.5396 88.0329 40.5502 88.1556 40.5355 88.2722C40.7142 88.5286 40.8303 88.8233 40.9933 89.0894C40.7531 88.9783 40.3695 89.0197 40.2004 88.7789C40.1126 88.8112 40.0595 88.8652 40.0257 88.9505C40.964 89.9898 41.602 91.2239 42.5943 92.3162C42.8265 92.5722 45.7731 94.9743 45.1978 93.3682C45.0781 93.0325 43.4923 92.4117 43.2288 92.1749Z" class="pineapple"/>
<path d="M72.0876 82.8068C71.0094 83.629 69.7269 82.1334 69.3781 81.1956C69.1975 80.7252 69.4493 80.065 69.2409 79.6546C68.9683 79.1221 68.6019 78.6471 68.4202 79.7379C66.4304 81.3555 64.2559 84.7439 61.6716 82.055C60.9564 81.3095 60.5431 78.1942 60.0066 78.0387C60.1686 77.8641 60.0157 77.6672 59.9566 77.7464C59.8789 77.8479 59.8042 77.9367 59.7264 78.0382C59.6386 78.0705 59.5669 78.1467 59.5427 78.2476C58.0653 79.7881 56.4727 82.4753 54.3932 80.5749C53.2661 79.5437 52.8276 77.7569 52.336 76.3577C52.2158 76.3022 52.1775 76.2396 52.2557 76.1916C51.9221 75.858 51.6152 76.3582 51.6616 76.6095C50.3609 77.5251 48.6548 79.5178 46.9392 78.4921C46.0402 77.9561 45.2191 74.3158 44.5195 74.5616C43.3682 74.9659 46.2315 78.8828 46.9265 79.1564C49.1444 80.0357 50.0827 77.7386 51.7111 76.8483C52.0215 78.3908 53.0844 80.6344 54.4775 81.5026C56.5449 82.7863 57.3808 80.9717 58.5488 79.6639C58.514 79.6422 58.4792 79.6205 58.457 79.6019C58.4948 79.6109 58.5483 79.6104 58.5862 79.6195C58.8946 79.2798 59.2282 78.9462 59.5271 78.5909C59.5089 79.0002 59.5386 79.4878 59.6714 79.88C59.8203 79.9825 59.9066 80.1233 60.0444 80.3832C59.9909 80.3837 59.9278 80.3686 59.8743 80.3691C60.4219 81.7017 61.3259 83.1064 62.8123 83.5299C65.3971 84.2704 66.8544 81.5908 68.401 80.0402C68.3283 81.6776 70.6202 84.7501 72.3712 83.1819C72.3082 83.1667 72.2451 83.1516 72.1946 83.1395C72.2092 83.0229 72.1704 82.9068 72.0876 82.8068Z" class="pineapple"/>
<path d="M68.3886 76.3137C67.838 75.661 66.6827 72.6345 65.9886 72.4679C64.585 72.1444 67.5518 76.353 67.9207 76.7619C69.5015 78.5159 70.5731 77.6654 71.7588 75.8948C71.7462 75.8918 71.5569 75.8463 71.4903 75.7903C70.503 76.9012 69.6394 77.7749 68.3886 76.3137Z" class="pineapple"/>
<path d="M77.7048 72.5847C77.618 72.724 78.5871 73.3569 78.8213 73.4932C78.3923 74.0575 77.6048 74.3356 77.2454 74.9433C76.883 75.5636 77.0677 76.4621 76.8254 77.138C75.3001 78.2665 74.2023 77.0021 73.9616 75.503C73.9081 75.1699 74.1069 74.5637 74.01 74.3002C73.845 73.8202 73.3948 72.8046 73.1611 74.0564C72.9713 74.2911 72.7466 74.5041 72.5028 74.6858C72.1596 75.0038 71.8295 75.3783 71.5181 75.7306C71.622 75.7422 71.726 75.7538 71.833 75.7528C72.203 75.2678 72.6992 74.813 73.1262 74.3683C73.3316 76.1258 74.2315 79.1044 76.5877 77.6281C76.1395 78.8283 75.2788 79.6894 74.4379 80.6353C74.3117 80.605 73.6959 80.3905 73.6949 80.6171C73.7 80.8185 74.2345 80.76 74.3576 80.8029C74.3551 80.869 74.3905 80.9442 74.4414 81.0098C73.9059 81.295 73.3067 81.8451 72.7939 82.2025C72.8514 82.2964 72.9499 82.3867 73.0609 82.4801C73.3254 82.1566 74.5631 81.5595 74.6034 81.1688C74.7362 81.2274 74.8493 81.2011 74.9366 81.1153C75.0315 81.1648 75.1138 81.2112 75.2086 81.2607C74.0038 82.3327 74.1527 82.1016 73.7741 83.6789C73.4682 84.9534 72.7504 85.9422 71.7671 86.8138C71.8358 86.4166 71.8308 85.2143 71.4633 85.2996C70.4235 85.5171 71.3204 86.5064 71.5047 87.0177C71.2952 87.1676 70.2761 87.9106 70.3069 88.1716C70.324 88.3225 70.4144 88.8913 70.7551 88.6395C71.9972 89.8585 69.7597 89.228 69.5023 90.3006C69.2973 90.2647 67.5297 90.401 67.5686 90.5171C67.3924 90.5282 66.6686 90.5413 66.7504 90.8678C66.816 91.1505 68.8521 90.7851 69.2145 90.8321C68.1818 92.4659 66.8891 92.5693 65.3113 93.4718C65.3208 93.4874 65.3178 93.5001 65.3274 93.5157L65.34 93.5187L65.3496 93.5344C65.337 93.5314 65.337 93.5314 65.3244 93.5283C65.3244 93.5283 65.3244 93.5283 65.3274 93.5157C65.3022 93.5096 65.2769 93.5036 65.2487 93.5102C64.9544 93.6797 64.2876 93.7332 64.6167 94.2526C63.7031 94.1668 62.7992 92.4284 62.4983 92.5697C61.3949 93.0523 63.795 95.2298 65.1649 94.6378C65.0629 95.5074 63.592 95.0743 63.0994 95.2363C62.3463 95.4826 61.7664 96.0641 60.934 96.2513C60.4661 96.3659 56.6295 96.0589 58.0231 96.9806C58.9574 97.5919 61.3146 96.8898 62.1383 96.4603C62.6269 96.2039 63.0868 95.5669 63.5476 95.3706C64.1432 95.1132 65.2925 95.8295 65.3622 94.5383C67.1874 93.4951 68.6588 92.6471 69.7748 90.8331C69.7874 90.8361 69.7874 90.8361 69.8031 90.8265L69.8026 90.773C70.3154 89.7484 72.027 89.6788 70.9146 88.531C72.39 87.4438 73.9164 85.7549 74.2546 83.901C74.3147 83.5951 74.1441 82.5266 74.2895 82.2545C74.5247 81.8305 75.2662 81.6882 75.5892 81.2319L75.1587 80.9684C76.361 79.9625 77.0329 78.4422 77.466 76.9714C77.5695 76.9295 77.5816 76.879 77.5054 76.8074C77.7709 74.9226 77.8254 75.0291 79.2054 73.5054C78.9581 73.3125 77.8073 72.4358 77.7048 72.5847ZM63.4846 94.3546C63.9242 94.2466 64.1539 94.2349 64.494 94.5969C64.1629 94.5307 63.8253 94.4363 63.4846 94.3546ZM65.5979 94.1679C65.4112 94.0563 65.1038 93.8357 65.3441 93.6131C65.6166 93.812 65.7317 93.9998 65.5979 94.1679Z" class="pineapple"/>
<path d="M71.4747 75.8009C71.4935 75.7786 71.5123 75.7562 71.5311 75.7338C71.5057 75.7277 71.4899 75.7374 71.4645 75.7313C71.433 75.7506 71.4523 75.7821 71.4747 75.8009Z" class="pineapple"/>
<path d="M64.8711 32.5898C65.0447 33.6458 65.29 34.6255 65.2465 35.6961C65.5393 35.6996 65.8194 35.7001 66.1152 35.691C65.9623 34.8269 65.6317 33.1461 64.8711 32.5898Z" class="pineapple"/>
<path d="M62.3194 51.8359C60.7728 52.7191 60.2943 53.3783 59.1743 51.7616C58.5808 50.8985 58.2689 49.8627 57.8161 48.9133C58.2502 48.884 59.5989 48.3803 59.9336 48.1537C60.1244 48.026 58.5677 48.1728 58.4637 48.1612C57.3427 48.1057 58.0221 48.3888 57.4144 47.6958C57.1726 47.4242 56.7992 45.533 56.4841 47.1789C56.4362 47.4343 56.9949 48.6094 57.2008 48.7522C56.6254 49.1479 58.3334 51.7065 58.7125 52.1846C60.0313 53.8624 60.9732 53.608 62.5425 52.1296C62.3653 52.0337 62.2826 51.9338 62.3194 51.8359Z" class="pineapple"/>
<path d="M64.9249 36.0863C64.8033 36.2039 64.7099 36.315 64.7493 36.4846C64.7745 36.4906 64.7997 36.4967 64.825 36.5028C64.8396 36.3862 64.8699 36.26 64.9224 36.1525C64.9254 36.1398 64.9189 36.1116 64.9249 36.0863Z" class="pineapple"/>
<path d="M62.6963 32.6421C62.7644 32.8586 62.8295 33.0878 62.882 33.3139C62.8977 33.3043 62.9163 33.2821 62.932 33.2725C63.1909 33.0277 63.0032 32.8092 62.6963 32.6421Z" class="pineapple"/>
<path d="M77.9884 28.145L77.9853 28.1576C78.1297 28.1122 78.2645 28.0512 78.3866 27.9871C78.2549 28.0355 78.1231 28.084 77.9884 28.145Z" class="pineapple"/>
<path d="M61.1057 29.5375C61.1829 29.7161 61.2571 29.9074 61.3343 30.0861C56.8568 25.8885 48.0136 27.7029 48.0136 27.7029C53.7793 27.6455 57.6507 29.6424 60.2314 32.2903C60.4641 32.2661 60.6397 32.2015 60.7109 32.0718C60.8275 32.0864 60.9537 32.1167 61.0703 32.1314C61.0784 32.3201 61.415 32.6412 61.5942 32.2838C61.6573 32.299 62.2943 32.4252 62.7087 32.6447C62.3842 31.606 61.9531 30.6217 61.1057 29.5375Z" class="pineapple"/>
<path d="M67.1034 48.3661L67.0908 48.363C67.2266 48.409 67.3563 48.4801 67.4734 48.5483C67.372 48.4706 67.2392 48.412 67.1034 48.3661Z" class="pineapple"/>
<path d="M75.7942 35.8393C75.8099 35.8297 75.8381 35.8231 75.8507 35.8262C75.2339 35.8383 74.605 35.9008 73.961 36.0265C74.599 35.9261 75.2122 35.8731 75.7942 35.8393Z" class="pineapple"/>
<path d="M91.7302 29.1079C91.6474 29.008 91.5646 28.9081 91.4944 28.8111C91.5535 28.7319 91.6539 28.7026 91.7801 28.7329C87.9755 22.7884 79.3352 23.7573 74.4608 27.5519C77.7473 23.9233 81.435 21.1251 85.0162 21.0505C85.0162 21.0505 79.507 16.2583 72.3666 25.7681C74.4139 22.5761 76.7156 20.6596 80.2459 19.1848C82.2932 18.3283 86.8475 16.6456 88.0281 19.6782C89.3451 14.8028 84.8468 14.7508 81.1782 15.2448C81.3549 15.6208 80.5963 15.9459 80.7633 15.3054C76.9732 15.917 72.0453 18.3775 70.4976 22.1566C70.2584 22.8198 68.8363 29.2447 68.7985 29.2356C68.1872 29.1689 69.7289 23.747 69.8904 23.1852C70.7198 20.3415 71.0197 17.4241 70.6548 14.4405C70.3005 11.5796 69.2613 8.18058 66.7896 6.41289C64.8929 3.86236 58.6108 4.23622 58.6108 4.23622C60.2058 4.48561 61.4732 5.37702 62.4983 6.61065C62.6522 6.58087 62.9248 6.77975 62.7658 6.94177C63.113 7.38545 63.4229 7.87355 63.7142 8.38386C63.8671 8.24707 64.1432 7.81956 64.4213 7.9397C64.5389 8.06134 64.5177 8.14967 64.3451 8.20166C64.4193 8.39296 64.4809 8.58123 64.5581 8.75991C64.4687 8.96534 64.2931 9.02995 64.0311 8.95372C64.5984 10.0374 65.0628 11.2165 65.464 12.3805C65.518 12.4335 65.5342 12.4774 65.5125 12.5122C65.6775 12.9922 65.8395 13.4849 65.9824 13.9462C66.2322 14.0729 66.426 14.2662 66.5668 14.5136C66.4346 14.5085 66.2897 14.5004 66.1575 14.4954C67.3849 18.5001 66.7226 22.3715 66.0875 26.4629C65.9498 24.5348 65.6692 22.8126 65.2927 21.2676C65.056 21.1974 65.0706 21.0808 65.2145 20.9819C65.2145 20.9819 65.2145 20.9819 65.2271 20.9849C63.7826 15.3267 60.9894 12.1739 58.6883 10.4739C58.3608 10.4486 57.85 10.3527 57.8868 9.92117C57.4593 9.64507 57.0702 9.43155 56.7128 9.25235C56.6447 9.36945 56.5513 9.4805 56.4483 9.57589C57.2039 10.2644 57.272 10.8146 57.329 11.5222C57.485 11.7065 57.4926 11.8417 57.3613 11.9437C57.6358 14.692 59.9152 16.4269 60.8858 18.8886C60.958 18.8659 61.065 18.8649 61.1372 18.8422C61.6046 19.0077 62.0619 19.1041 62.5116 19.0653C63.2263 19.4237 61.2033 19.1783 60.9762 19.1238C61.4571 20.4003 61.8493 21.9358 62.1925 23.6196C62.3757 23.6903 62.5589 23.7609 62.7391 23.8442C62.7038 24.1027 63.1762 24.4696 62.6553 24.6382C62.566 24.51 62.4484 24.3883 62.3151 24.2763C62.4645 25.0995 62.6078 25.948 62.7325 26.8187C63.0929 27.3189 65.0134 30.0486 64.4808 30.6548C64.3905 30.7533 63.1302 27.6081 62.7794 27.1236C62.7925 27.1801 62.793 27.2336 62.8062 27.2901C60.4642 23.5918 55.6884 20.4703 51.3435 19.6677C47.9572 19.0417 45.3067 22.0222 43.8181 24.721C47.6558 20.7977 55.5152 23.1379 59.1059 26.4153C60.3854 27.5899 61.9188 29.9865 62.8025 31.5866C63.4365 32.7263 63.7206 34.1557 63.9215 35.4317C64.2899 35.4535 64.6185 35.5857 64.9779 35.6453C65.1394 34.7499 65.032 33.3628 64.7594 32.4967C64.6867 32.4659 64.7392 32.3584 64.7867 32.3831C64.8276 32.3796 64.8528 32.3856 64.8437 32.4235C65.8577 33.1473 66.1388 34.5894 66.4861 35.7003C66.6436 35.7114 66.795 35.7478 66.9217 35.8316C66.9126 35.8694 66.9161 35.9103 66.907 35.9482C66.7813 35.9714 66.6557 35.9946 66.533 36.0052C66.6274 37.0021 66.1781 37.0944 66.162 36.0496C65.8758 36.0743 65.58 36.0834 65.2429 36.0425C65.2414 36.2156 65.1989 36.3923 65.1596 36.5564C65.2479 36.5776 65.3362 36.5988 65.4246 36.62C65.4276 36.941 65.2974 37.1499 65.0213 37.2438C64.9693 37.4048 64.9117 38.3119 64.574 38.2175C64.2742 38.1321 64.5634 37.4275 64.6185 37.2539C64.5932 37.2478 64.565 37.2544 64.5397 37.2483C64.4741 36.9657 64.3959 36.68 64.3303 36.3973C64.244 36.2565 64.1829 36.1217 64.1531 35.9678C64.087 35.9653 64.0239 35.9501 63.9704 35.9506C64.0077 36.2398 63.6802 36.2146 63.6151 35.9854C62.7484 36.2045 62.5975 35.5544 63.4652 35.4423C63.2249 34.664 63.0579 33.97 62.8848 33.3012C62.3568 33.7216 61.3619 33.0291 60.7971 32.8802C61.844 34.079 62.6919 35.2167 62.8988 36.8011C62.6051 36.3569 62.2573 35.8597 61.8464 35.3474C60.9127 35.1233 60.0273 34.6972 59.1067 34.5296C59.777 35.1843 60.1787 35.7345 59.9476 35.9192C59.9289 35.9414 55.6704 31.6096 55.1803 31.3718C55.5251 31.548 57.8009 33.242 59.1067 34.5296C59.2919 34.4807 59.4686 34.5231 59.6301 34.6286C60.2156 34.6357 60.6154 34.6382 61.2054 34.7932C61.3039 34.8835 61.4209 34.9517 61.5693 35.0006C58.4496 31.2624 52.47 26.6509 46.635 29.7211C46.635 29.7211 57.1054 33.2485 60.6056 41.6289C57.1664 38.3879 50.9484 37.5493 50.9484 37.5493C51.595 38.0248 52.2163 38.4943 52.8094 38.9703C52.9083 38.7805 53.1147 38.6432 53.5619 38.6704C53.4852 38.8789 53.2788 39.0162 52.8412 39.0046C55.2891 40.9267 57.2924 42.7555 58.8364 44.2738L57.8421 43.9684C57.8421 43.9684 53.9874 40.4007 51.8512 43.8516C51.8512 43.8516 52.8577 42.772 54.3301 43.6993L54.5566 45.3685C54.0287 45.4553 53.0404 45.1246 52.5361 45.3906C52.9354 44.6724 51.9996 44.2342 51.8174 44.9379C51.3081 43.3343 46.5801 47.2974 46.2368 48.2827C46.2848 48.3609 46.3448 48.3887 46.4296 48.369C47.4664 46.1623 49.81 46.0175 51.7714 45.4073C51.7442 45.5208 51.7487 45.6687 51.7341 45.7853C51.5019 45.863 51.5175 46.5207 51.5034 46.6908C50.7463 47.1764 49.4016 48.1081 48.5728 48.3362C47.8883 48.5189 46.0369 48.1146 46.9404 49.1322C46.5992 48.9969 46.1283 48.7904 45.8305 48.5855C45.7755 48.4255 45.7205 48.2655 45.6528 48.1025L45.4156 48.3124L45.3207 48.263C45.3242 48.3038 45.3404 48.3478 45.3439 48.3886L45.138 48.5794C45.2389 48.6037 45.3399 48.6279 45.4348 48.6774C45.8613 49.8474 44.3233 49.972 43.6111 50.8821C43.126 51.513 42.4859 52.4003 42.3552 53.223C42.2992 53.6233 42.3536 55.7316 43.135 54.8115C43.3374 54.5798 43.1502 53.0802 43.294 52.6477C43.4899 52.0541 43.9613 51.3131 44.4071 50.8462C44.9618 50.2587 46.3049 49.8338 45.9501 48.9212C46.1429 49.0075 47.3417 49.6289 47.377 49.3704C48.8781 49.6774 50.3571 47.6301 51.5407 46.9801C51.8728 48.4877 51.3736 50.6233 53.6863 50.2176C54.5661 50.055 56.0032 49.2389 56.7164 48.7695C56.7376 48.6812 56.7022 48.606 56.6169 48.5721C54.6974 49.6195 51.7395 50.7111 52.3221 47.3945C51.9405 47.3162 51.6937 47.1769 51.5735 46.7877C51.6674 46.3966 51.7583 46.018 51.8492 45.6395C51.9749 45.6162 52.0909 45.5774 52.2166 45.5542C52.6583 45.6602 53.0873 45.7631 53.532 45.8565C53.8237 45.7531 54.2947 45.6259 54.594 45.6577L54.8039 47.2295C57.0653 44.0355 61.1895 48.1483 62.7784 50.0911C62.7784 50.0911 63.064 49.6792 63.4406 49.2224C63.6147 49.6646 63.9095 50.5494 64.4829 50.607C64.3511 50.6554 64.2133 50.7291 64.1921 50.8175C64.1053 50.6231 62.9282 51.6351 62.6521 51.729C62.8 51.7244 62.9545 51.7482 63.0963 51.7689C63.434 51.5296 63.9155 51.1915 64.18 50.8679C64.3688 51.8608 65.7199 53.96 66.8642 54.1413C68.0589 54.3346 69.0745 52.8835 69.975 52.2455C70.3212 53.2495 70.303 54.3261 69.7806 55.3351C69.7806 55.3351 70.7795 55.1211 71.4084 54.3912C71.2979 54.3514 71.1873 54.3115 71.0864 54.2872C71.1126 54.0667 71.101 53.837 70.9572 53.6023C71.2408 53.6437 71.5028 53.7199 71.7744 53.8118C72.2938 52.4818 71.2863 51.119 70.6469 50.058C70.4808 50.1382 70.3294 50.1019 70.2022 49.9646C70.3112 49.8439 70.4243 49.8177 70.5288 49.8828C69.6076 48.3272 69.3406 47.7159 69.3406 47.7159C69.3406 47.7159 73.1242 47.7433 74.0342 50.1237C73.6945 50.4825 73.9479 50.6501 74.2149 50.9277C74.2401 51.2674 74.228 51.6515 74.1407 52.071C74.1407 52.071 74.2911 51.6667 74.3673 51.0711C75.5075 51.8252 76.5932 54.141 76.4548 55.4957C76.2297 55.3216 76.0818 55.3261 75.9986 55.5063C76.0349 55.6885 76.1676 55.7471 76.4155 55.6598C76.3948 55.8016 76.6184 55.8153 76.6174 55.7083C77.1948 55.8602 77.7626 55.9965 78.3305 56.1328C78.0624 56.4154 77.7974 56.6855 77.539 56.9838C77.0206 56.4189 75.8708 55.9828 75.0991 56.2513C75.5039 56.1216 76.7864 56.6163 77.1615 56.9999C76.8187 57.0378 74.5469 57.44 75.358 57.6747C75.8314 57.815 76.9818 57.3038 77.491 57.2392C78.1376 58.3819 78.4556 59.3924 78.138 60.7709C78.0744 61.0359 76.5632 63.9962 77.6721 63.1013C79.205 63.7762 79.1656 64.2739 77.9704 65.3616C78.6457 67.5522 78.2307 68.9473 77.4948 71.0127C77.3484 70.8441 74.8261 72.4007 74.3718 72.2917C73.2584 72.0377 72.7401 70.1384 72.4327 69.2505C72.1152 68.2935 71.4495 66.4522 71.3894 68.4262C71.3616 69.4872 72.4942 71.4406 73.2528 72.1165C73.8 72.061 74.2608 72.1983 74.6353 72.5284C74.7378 72.7131 74.1139 72.6435 73.9595 72.6197C75.032 73.2108 76.5286 71.7017 77.4337 71.2116C77.1934 72.1014 77.3504 72.3927 78.0237 71.7002C78.479 71.2489 78.7127 69.9972 78.8107 69.3668C79.0464 67.9954 78.9182 66.7502 78.4716 65.4418C79.7017 64.0422 79.1919 63.7197 77.8124 62.9615C79.0168 61.8359 79.4232 58.1967 77.9933 57.0928C78.3638 56.6613 78.7025 56.1954 79.0159 55.7235C78.1796 55.8163 77.4255 55.622 76.5967 55.5164C76.6931 53.7246 76.0486 51.1277 74.3709 50.1111C74.277 48.5004 73.3009 46.4511 69.0464 46.2173C69.2685 46.0704 69.535 45.9609 69.849 45.8761C69.745 45.8645 67.9996 45.3521 68.3155 45.1477C68.7224 44.8984 70.6172 45.5667 70.3739 45.8019C71.239 45.756 72.4156 46.0251 74.0393 46.9887C74.0393 46.9887 72.8199 45.1746 71.0457 44.2816C72.4535 44.366 74.0364 44.6658 75.7828 45.2852C75.9206 45.2115 76.2931 45.3276 76.3228 45.4816C76.6166 45.5921 76.92 45.7183 77.2329 45.8601C77.2329 45.8601 75.6905 41.4996 70.3947 41.9901C72.2552 41.3557 74.255 41.4753 76.0277 41.8741C75.9928 41.8524 75.958 41.8307 75.9201 41.8216C76.2275 41.3749 77.126 41.5239 77.1194 42.1629C79.733 42.9503 81.6586 44.2133 81.6586 44.2133C78.5161 40.7365 75.9404 38.9572 73.8382 38.3191C77.9746 36.0423 83.4006 37.0111 87.6425 38.5764C84.0967 35.7235 79.1669 33.2991 74.6282 34.9722C80.2859 32.4733 85.7841 33.0857 85.7841 33.0857C82.9036 32.0206 80.3925 31.4179 78.2185 31.1897C78.2983 31.3023 78.3215 31.4279 78.3134 31.5728C78.2609 31.6803 78.221 31.7908 78.1685 31.8984C77.1661 32.4051 76.0395 32.4283 74.9609 32.1961L74.9326 32.2026L74.9482 32.193C75.0245 31.9311 75.0881 31.6661 75.1643 31.4041C75.6372 31.491 76.0274 31.4779 76.2712 31.2961C76.2641 31.2144 76.2636 31.1609 76.2505 31.1043C76.1435 31.1053 76.0239 31.1033 75.9169 31.1043C76.6569 30.4679 77.3322 29.9894 77.9091 29.7542C77.8965 29.7512 77.2015 29.4776 77.3958 29.3908C77.6341 29.2878 78.3019 29.3413 78.5022 29.5629C82.727 28.3082 91.8463 27.7345 93.0888 32.677C93.0888 32.677 93.0349 30.9559 91.9346 29.0903C91.8902 29.0529 91.8054 29.0726 91.7302 29.1079ZM75.1378 21.2284C75.8157 21.6847 74.6623 21.2077 74.6936 21.1885C74.7406 21.1598 74.9803 21.2173 75.1378 21.2284ZM65.4409 6.58296C65.3839 6.54258 65.3299 6.48958 65.2729 6.4492C65.4364 6.43507 65.7196 6.42296 65.4409 6.58296ZM65.6745 11.3367C65.9143 11.3942 66.1414 11.4487 66.3812 11.5063C65.9829 11.6643 65.9577 11.6582 65.6745 11.3367ZM66.4437 14.137C66.7763 13.6964 67.3982 13.8857 67.6738 13.4047C67.4653 13.3279 67.2508 13.2765 67.0111 13.2189C67.2382 13.2734 67.4653 13.3279 67.6925 13.3825C67.6894 13.3951 67.6894 13.3951 67.6738 13.4047C67.8822 13.4814 68.1003 13.5738 68.3093 13.704C68.2305 14.0321 68.1518 14.3602 68.076 14.6756C67.5238 14.5297 67.0676 14.2067 66.4437 14.137ZM59.8901 13.0845C60.2207 12.7635 59.9335 12.0139 60.7557 12.7584C60.6371 13.197 60.6371 13.197 59.8901 13.0845ZM54.1539 22.6377C54.3644 22.5948 52.5634 22.5362 52.8416 21.989C53.3963 21.4015 55.0271 22.4469 54.1539 22.6377ZM51.0036 31.3702C51.3009 31.188 51.5219 31.2678 51.6542 31.6065C51.369 31.7382 51.1479 31.6584 51.0036 31.3702ZM52.0106 30.3441C51.9515 30.4233 51.2878 30.1306 51.9015 30.1311C52.0721 30.1987 52.054 30.2745 52.0106 30.3441ZM54.4865 43.937C54.4229 43.8684 54.4542 43.8492 54.5678 43.8764C54.6314 43.9451 54.6001 43.9643 54.4865 43.937ZM57.0753 45.1056L57.8663 45.202C57.6114 45.2075 57.3403 45.1692 57.0753 45.1056ZM69.3698 50.4855C69.4072 50.441 69.492 50.4214 69.5515 50.3956C69.8367 50.5975 69.7898 50.9599 69.3996 50.973C69.2108 50.9811 69.3481 50.5203 69.3698 50.4855ZM68.1766 52.7881C68.3118 52.7805 68.4471 52.7729 68.5728 52.7497C69.2708 53.0107 68.0372 53.3685 68.1766 52.7881ZM68.7753 49.1817C68.9767 49.1766 69.1316 49.2539 69.2528 49.4164C69.3022 49.6551 68.3952 49.2639 68.7753 49.1817ZM70.8045 42.729C70.9781 42.7841 71.1548 42.8265 71.3411 42.8845C71.4617 42.9935 71.5949 43.1056 71.7156 43.2146C71.5258 43.4493 71.1639 43.4559 70.6586 43.2812C70.5653 43.0586 70.5602 42.8572 70.8045 42.729ZM72.8326 20.7686C73.2304 20.8907 72.6802 20.9588 72.4773 20.8034C72.5363 20.7241 72.6842 20.7196 72.8326 20.7686ZM71.1684 22.5311C72.2057 22.7133 71.4501 23.3594 71.4566 23.3877C71.4758 23.4189 70.2195 22.3701 71.1684 22.5311ZM68.4307 20.5928C68.5468 20.5539 68.6447 20.5908 68.7245 20.7033C68.6553 20.7134 68.5736 20.7205 68.5044 20.7306C68.3813 20.6877 68.3525 20.6407 68.4307 20.5928ZM66.0951 26.9319C66.3919 27.0298 66.3833 27.1211 66.082 27.209C65.6812 27.0994 65.6928 26.9954 66.0951 26.9319ZM65.602 26.0395C65.9462 26.1621 65.9785 26.2499 65.7085 26.3186C65.6166 26.2565 65.5121 26.1914 65.4233 26.1167C65.4798 26.1035 65.5359 26.0369 65.602 26.0395ZM64.522 19.6412C64.1298 19.774 63.9496 19.6907 63.9753 19.4166C64.1636 19.355 64.365 19.35 64.5543 19.3954C64.58 19.455 64.6027 19.5272 64.6159 19.5837C64.5846 19.6029 64.5533 19.6221 64.522 19.6412ZM63.4568 27.1927C63.3528 27.1811 63.2392 27.1539 63.1226 27.1392C63.1413 27.117 63.1474 27.0918 63.1438 27.0509C63.269 26.9742 63.8051 26.7425 63.855 27.0348C63.7844 27.218 63.6526 27.2664 63.4568 27.1927ZM64.699 26.4099C64.7616 26.3716 63.5941 26.7319 63.846 26.4053C64.0842 26.3024 64.3421 26.2842 64.6197 26.3509L64.7646 26.3589L64.699 26.4099ZM67.6259 32.0637C67.4195 30.5328 66.83 28.4295 65.3375 27.6975C65.4157 27.9832 66.3348 31.3267 65.8537 31.3847C65.5771 31.4251 64.9619 27.5941 64.8534 27.1009C64.9609 27.1534 65.0811 27.2089 65.1886 27.2614L65.2199 27.2423C65.2295 27.2579 65.2264 27.2705 65.236 27.2862C66.6372 28.0095 67.2635 29.3476 67.586 30.8396C68.4638 30.7968 68.5809 30.8649 68.9761 31.3868C68.6556 31.4433 68.3381 31.4873 68.0176 31.5438C67.9161 31.466 67.8021 31.3853 67.7006 31.3075C67.9242 32.3221 67.7414 33.6395 67.8469 34.4789C67.7293 33.69 67.7404 32.8652 67.6259 32.0637ZM67.0968 36.7144C67.0635 36.8532 66.9857 36.9546 66.69 36.9637C66.7233 36.8249 66.8389 36.7325 67.0968 36.7144ZM59.9667 39.6205C58.6286 36.9105 57.1993 33.5246 54.9714 31.5753C56.32 32.7397 57.5279 34.3242 58.4611 35.8294C58.8381 36.427 59.1935 37.0594 59.5079 37.6954C59.7391 38.178 60.1176 39.937 59.9667 39.6205ZM61.3172 46.6709C61.1819 46.6784 60.3805 43.123 60.2129 42.7091C60.1084 42.644 60.0166 42.5819 59.909 42.5294L60.065 42.38C60.0362 42.3331 60.0075 42.2861 59.9787 42.2392C60.0262 42.2639 60.0736 42.2886 60.121 42.3134L60.2614 42.1736C60.3381 42.2987 60.4022 42.4209 60.4506 42.5526C61.5096 43.3673 61.7685 44.4571 62.1147 45.461C61.7751 44.4853 61.4662 43.7706 60.6727 43.073C60.8241 43.443 61.877 46.6184 61.3172 46.6709ZM61.2579 36.3539C61.6899 37.1115 63.3025 41.9026 62.6897 42.0091C62.7589 41.999 61.063 36.7208 60.6976 36.0192C60.6058 35.9571 60.5013 35.892 60.3968 35.8269L60.5089 35.6936C60.4609 35.6154 60.413 35.5371 60.362 35.4715C60.4316 35.5149 60.5139 35.5614 60.5836 35.6048L60.6956 35.4715C60.7754 35.5841 60.8521 35.7093 60.9444 35.8249C63.4964 37.425 63.6276 39.6585 64.5144 41.9132C63.676 39.7902 63.3944 37.6274 61.2579 36.3539ZM66.0906 48.1903C66.0532 48.2347 66.0285 48.2821 65.9911 48.3266C65.8806 48.2867 65.3471 48.1186 65.449 47.9162C65.5666 47.7042 66.0492 48.1403 66.0906 48.1903C66.4398 48.1807 66.774 48.2342 67.0773 48.3604L67.0899 48.3634C67.2257 48.4094 67.3458 48.4649 67.4599 48.5457C67.3302 48.4745 67.2131 48.4063 67.0773 48.3604C66.7932 48.2655 66.456 48.2246 66.0906 48.1903ZM68.9445 43.0833C68.0708 43.8879 66.0795 47.0132 65.8357 46.8613C65.2502 46.5206 68.0481 43.8157 68.9445 43.0833C69.0475 42.9879 69.1287 42.9274 69.1883 42.9016C69.1444 42.9178 69.0631 42.9783 68.9445 43.0833ZM66.1825 43.9151C65.8135 44.1735 63.6789 46.4504 63.6567 46.4317C62.9768 46.095 65.7944 43.8086 66.1699 43.5784C67.237 42.9137 68.3161 42.8658 69.2832 42.6175C68.1152 42.9243 67.1799 43.2069 66.1825 43.9151ZM75.8416 35.8106C75.8259 35.8202 75.8133 35.8172 75.785 35.8237C75.9203 35.8161 76.0556 35.8086 76.1908 35.801C76.1237 36.0251 72.8943 37.3586 72.4506 37.7058C72.0413 38.0213 68.564 41.4439 68.4433 41.3349C67.4596 40.4849 74.7594 36.2048 75.785 35.8237C75.203 35.8575 74.5898 35.9105 73.9548 35.9983C72.6162 36.2375 71.264 36.7004 70.1111 37.2778C69.9713 37.4711 69.9183 37.5251 69.7477 37.4574C69.359 37.6311 66.5829 39.6338 66.5576 39.6278C65.8525 39.285 69.0734 37.3756 69.3934 37.2656C69.3712 37.2469 69.3585 37.2439 69.3363 37.2252C69.4302 37.1677 69.5403 37.1541 69.6599 37.1561C71.0545 36.5166 72.5622 36.1845 73.9705 35.9887C74.5928 35.8979 75.2374 35.8257 75.8416 35.8106ZM71.4907 32.3641C71.8052 32.6664 71.9717 32.9733 72.0257 33.36C71.7234 33.3408 71.4332 33.2711 71.1677 33.154C71.0703 32.837 71.4619 32.6508 71.4907 32.3641ZM74.4692 34.1333C74.3324 34.314 74.3884 34.581 73.8786 34.5921C72.7581 33.9228 72.7581 33.9228 72.48 33.469C73.1336 33.6926 73.8029 33.9066 74.4692 34.1333ZM73.9322 31.9225C74.3017 31.7176 74.3648 31.7327 74.6292 32.0764C74.4021 32.0219 74.1719 31.98 73.9322 31.9225ZM77.7159 28.2798C76.9794 28.6235 72.4845 33.2832 72.7344 33.4099C71.8425 32.9556 76.459 28.8456 77.2697 28.3596C77.0875 28.3959 76.9052 28.4322 76.72 28.4812C75.5237 28.7946 74.4239 29.318 73.3922 30.0579C73.0202 30.329 72.6264 30.6348 72.2958 30.9559C71.9152 31.3182 71.624 31.8089 71.2495 32.146C71.2651 32.1364 70.0804 33.3468 70.4206 32.7078C71.2434 31.1703 72.7587 29.9726 74.2967 29.1807C75.0296 28.7961 75.9063 28.6462 76.7326 28.4842C76.9305 28.4383 77.1314 28.3797 77.3262 28.3464C77.3106 28.356 77.2949 28.3656 77.2793 28.3752C77.5336 28.3162 77.7754 28.2541 78.0076 28.1764L78.0106 28.1637C78.1328 28.0996 78.2772 28.0542 78.4089 28.0058C78.2867 28.0699 78.155 28.1183 78.0076 28.1764C78.0026 28.3086 77.9117 28.3535 77.7159 28.2798ZM87.6635 25.4227C87.8089 25.4843 87.9416 25.5428 88.09 25.5918C87.8992 25.7195 87.6943 25.6836 87.4974 25.5029C87.4651 25.4151 87.5277 25.3768 87.6635 25.4227ZM86.0856 25.6579C86.176 25.5594 86.3774 25.5544 86.5919 25.6059C87.4187 25.831 85.9827 26.0869 86.0856 25.6579ZM86.8725 28.329C86.9371 28.171 87.0683 28.0691 87.2632 28.0358C87.4928 28.3578 87.4772 28.3674 86.8725 28.329ZM86.4813 26.9006C86.8983 26.7204 87.3081 26.7921 87.717 27.0904C88.0501 27.3705 86.343 27.2544 86.4813 26.9006Z" class="pineapple"/>
<path d="M76.7195 28.481C76.9017 28.4446 77.0966 28.4113 77.2692 28.3593C77.2848 28.3498 77.3005 28.3402 77.3161 28.3306C77.1056 28.3735 76.9047 28.432 76.7195 28.481Z" class="pineapple"/>
<path d="M68.9435 43.0836C69.0592 42.9911 69.1562 42.9209 69.1875 42.9017C69.1279 42.9275 69.0339 42.9851 68.9435 43.0836Z" class="pineapple"/>
<path d="M67.0107 13.219C67.2505 13.2765 67.465 13.328 67.6735 13.4048C67.6765 13.3921 67.6765 13.3921 67.6921 13.3825C67.465 13.328 67.2379 13.2735 67.0107 13.219Z" class="pineapple"/>
<path d="M46.6269 53.6076C46.0515 53.336 45.3666 50.1288 44.8296 51.2544C44.2678 52.4274 46.1645 54.3107 47.1337 54.2764C48.6408 54.2244 50.4025 52.1116 51.0289 51.4479C50.3994 52.1242 47.6228 54.0735 46.6269 53.6076Z" class="pineapple"/>
<path d="M73.7999 53.3773C73.7211 53.3717 72.3689 51.8327 72.4154 52.7514C72.5132 54.4564 74.9956 54.0113 75.3671 52.6858C75.4004 52.547 74.0139 53.3753 73.7999 53.3773Z" class="pineapple"/>
<path d="M52.9895 54.0671C52.88 52.7997 52.0432 51.5045 52.0719 53.5532C52.0805 54.1292 52.4494 54.8716 52.7341 55.3537C54.384 58.0985 57.3717 56.1599 58.9839 54.2247C57.7917 55.6334 53.2277 57.6342 52.9895 54.0671Z" class="pineapple"/>
<path d="M66.241 55.179C65.0533 56.0684 61.6385 60.4535 61.2081 56.52C61.1465 55.9981 61.1239 53.5905 60.3248 54.9735C59.9624 55.5938 60.6811 57.7148 61.1798 58.1948C63.2411 60.1709 65.08 56.5686 66.3687 55.3698C66.3676 55.2628 66.3293 55.2002 66.241 55.179Z" class="pineapple"/>
<path d="M74.4392 59.6695C73.5377 59.1995 73.4005 56.324 72.6716 56.4693C71.8499 57.4465 69.7617 59.6411 69.1792 59.2878C69.1888 59.3034 69.1828 59.3287 69.1924 59.3443C68.9087 59.3029 68.3343 59.1383 68.4499 58.7123C68.307 58.5846 68.2238 58.4312 68.1905 58.2364C67.877 57.7074 67.5379 55.117 66.7359 55.5117C66.0686 55.8453 67.3884 58.2974 67.6372 58.6507C69.799 61.5985 71.1675 58.5105 72.5071 56.7101C72.2784 57.8296 73.6301 60.9833 75.2392 60.3953C74.9348 60.1621 75.1701 60.0718 75.4083 59.9688C75.5567 60.0178 75.6894 60.0763 75.8378 60.1253C75.9443 60.0708 76.0413 60.0006 76.1412 59.9179C76.0514 59.7362 76.0594 59.5913 76.1341 59.5025C75.5547 59.8038 74.9359 59.9355 74.4392 59.6695Z" class="pineapple"/>
<path d="M72.6691 56.4817C72.8558 56.2596 72.9836 56.1168 73.0113 56.0567C72.8866 56.1869 72.7716 56.3328 72.6691 56.4817Z" class="pineapple"/>
<path d="M76.1206 59.5004C76.1836 59.4617 76.2467 59.4231 76.3097 59.3845C76.237 59.4074 76.174 59.446 76.1206 59.5004Z" class="pineapple"/>
<path d="M77.5065 58.177C77.2839 58.604 76.8382 59.0709 76.3218 59.3873C76.4223 59.358 76.5545 59.3631 76.6933 59.3964C77.0527 59.1223 77.5368 58.7181 77.7089 58.2789C77.664 58.1881 77.6039 58.1603 77.5065 58.177Z" class="pineapple"/>
<path d="M46.7326 55.5017C47.1501 54.3741 46.0482 55.3508 45.7953 55.5704C45.3708 55.9489 45.1068 56.6596 44.6323 57.0795C44.2795 57.3819 42.6709 58.6906 42.3176 57.9385C42.1666 57.6221 42.1656 57.1814 41.9804 56.8967C42.0122 56.9311 41.7931 58.7335 42.7077 58.5927C42.6708 60.3588 42.1716 62.1608 42.7545 63.9021C43.2986 65.5274 43.609 65.0681 44.8901 64.0678C45.4337 63.6377 49.1341 60.8425 47.5825 60.8571C46.8082 60.8581 44.182 63.7376 43.5177 64.3923C42.6687 62.4803 42.9939 60.5698 42.9308 58.5528C44.4016 58.3187 45.5687 57.2375 46.4742 56.1337C46.2672 57.552 46.7759 61.1039 48.9751 60.6709C48.9675 60.5356 48.9095 60.3882 48.8767 60.2469C48.8918 60.1838 48.9322 60.1268 48.9792 60.098C48.8913 60.1303 48.8222 60.1404 48.7561 60.1379C46.781 59.9708 47.4453 55.3125 46.7326 55.5017Z" class="pineapple"/>
<path d="M49.1611 60.0077C49.4721 59.9356 49.9354 60.0067 50.0646 60.0244C50.5023 59.7024 53.4288 57.2953 53.3844 57.258C53.1391 56.9455 50.3705 59.4172 49.1611 60.0077Z" class="pineapple"/>
<path d="M48.9813 60.0858C49.0413 60.0599 49.1013 60.0339 49.1739 60.0111C49.0886 60.0309 49.0286 60.0568 48.9813 60.0858Z" class="pineapple"/>
<path d="M68.493 61.0315C68.4456 61.0068 67.008 62.7704 66.8147 62.9642C66.9499 62.9566 67.0857 63.0025 67.1998 63.0833C67.3517 62.8395 68.7302 61.1552 68.493 61.0315Z" class="pineapple"/>
<path d="M66.5564 63.2624C65.4746 64.711 64.1477 64.5126 63.2805 63.0099C63.0181 62.5465 62.5306 59.2399 61.9335 59.6705C61.9097 59.8249 58.2558 62.5378 57.6738 62.9053C55.8496 64.0556 54.6297 61.187 54.2896 59.8242C54.175 59.3563 54.3264 58.3917 54.0549 57.9662C53.4063 56.9431 53.3205 57.8567 53.2872 58.6628C53.2286 60.1301 54.3208 62.4741 55.5842 63.2712C57.7626 64.6482 60.4146 61.1609 61.8618 59.7467C60.719 62.7287 64.6049 66.6108 67.0106 63.3714C66.8471 63.3855 66.6957 63.3492 66.5564 63.2624Z" class="pineapple"/>
<path d="M72.3648 65.6975C72.1997 65.8847 71.9751 66.0977 71.6884 66.069C71.7833 66.1184 72.4405 66.3829 71.9468 66.4379C71.9317 66.501 71.9166 66.5641 71.8888 66.6242C72.3007 66.5762 72.553 66.3032 72.7767 65.9832C72.7544 65.9645 72.7449 65.9488 72.7226 65.9302C72.5929 65.859 72.4506 65.7848 72.3648 65.6975Z" class="pineapple"/>
<path d="M70.1298 64.2264C70.0697 64.1986 69.994 64.1804 69.937 64.1401L70.1298 64.2264C69.9122 63.8539 69.2562 60.0264 68.7287 61.8348C68.3354 63.1951 69.9723 65.5498 70.9459 66.3307C70.958 66.2802 70.9701 66.2297 70.9979 66.1697C71.1009 66.0743 71.2165 65.9819 71.2816 65.8774C70.7233 65.4231 70.4816 64.8179 70.1298 64.2264Z" class="pineapple"/>
<path d="M72.9915 65.7547C73.9207 64.83 74.8546 63.0523 75.3295 62.3522C74.6032 63.4324 73.5684 64.5185 72.6296 65.4276C72.7906 65.4796 72.9082 65.6012 72.9915 65.7547Z" class="pineapple"/>
<path d="M51.2873 67.2176C49.8957 68.1781 49.023 68.4224 48.4734 66.5422C48.1468 65.2894 48.6123 63.9064 48.2958 62.7227C47.6826 60.4403 47.3847 63.9053 47.5169 64.9113C47.687 66.26 48.0938 68.6798 49.8311 68.6697C50.6998 68.6647 55.0523 64.598 55.0427 64.5824C54.9125 64.4577 51.6689 66.9622 51.2873 67.2176Z" class="pineapple"/>
<path d="M63.2263 65.9061C62.7403 65.4291 59.1256 71.648 57.1633 67.8139C56.9326 67.3848 55.9303 63.2206 55.5613 65.1473C55.2523 66.768 56.9502 69.2574 58.4862 69.5861C58.6588 69.5341 58.8289 69.5482 58.9899 69.6002C59.691 69.5149 63.779 66.4391 63.2263 65.9061Z" class="pineapple"/>
<path d="M67.0332 71.0636C65.8016 71.3018 65.3343 70.1353 64.9583 68.9774C64.764 68.397 63.643 64.3378 63.5607 66.6268C63.497 68.56 65.1934 72.5571 67.4931 71.4275C69.0189 70.6861 70.1208 68.3749 71.0925 67.6072C69.9583 68.496 68.5162 70.779 67.0332 71.0636Z" class="pineapple"/>
<path d="M42.383 65.2272C41.9731 65.1555 40.3539 67.0089 40.0147 67.4213C39.5337 66.4784 38.7316 64.8713 38.665 64.1479C38.7367 65.0726 38.7543 66.9453 39.4943 67.6433C40.2756 68.3914 40.1438 68.1062 41.1715 67.2719C41.5652 66.966 43.5686 65.4584 42.383 65.2272Z" class="pineapple"/>
<path d="M63.9098 74.7318C63.9385 74.7787 63.9673 74.8256 63.9552 74.8761C63.9234 74.8418 63.876 74.8171 63.8442 74.7827C63.5691 74.9836 63.3162 75.2032 63.0729 75.4384C63.1138 75.4349 63.1547 75.4313 63.1955 75.4278C63.135 75.6802 62.976 75.8422 62.6585 75.8861C58.8995 79.8149 58.8185 70.5337 57.9372 70.5356C58.5323 69.8911 56.9166 71.1181 57.4077 70.7956C56.8697 71.1469 56.3397 71.6869 55.8874 72.1255C55.0449 72.9109 54.3135 73.7897 53.3853 74.4877C53.5842 74.5488 53.7896 74.6381 53.9854 74.7118C54.1101 74.5816 54.2222 74.4484 54.3156 74.3373C55.3937 73.1815 56.4815 72.0413 57.5723 70.8885C57.44 72.8852 58.407 76.9742 60.9746 77.2302C62.2128 77.3539 65.6335 73.2771 65.4024 73.1282C65.2979 73.0631 64.141 74.547 63.9098 74.7318Z" class="pineapple"/>
<path d="M48.7545 70.5467C47.1221 72.0099 45.3282 74.0349 44.3213 71.0574C44.0008 70.113 44.0559 69.2721 44.0498 68.2964C44.0478 67.7488 44.0408 65.3315 43.3059 66.8367C42.6789 68.1142 43.4022 71.7176 44.4091 72.6933C46.153 74.3797 47.7364 71.7303 49.0003 70.579C48.9186 70.5861 48.8398 70.5805 48.7545 70.5467Z" class="pineapple"/>
<path d="M50.6911 72.4798C50.3696 71.7621 50.3545 70.8243 49.933 70.1893C49.6489 69.7607 48.9655 68.7159 49.13 70.1433C49.0957 70.1751 49.0583 70.2195 49.024 70.2513C49.0366 70.2544 49.0366 70.2544 49.0492 70.2574C49.0563 70.3392 49.0507 70.4179 49.0548 70.5123C49.0891 70.4805 49.1234 70.4487 49.1577 70.4169C49.408 71.9316 50.574 74.4135 52.123 75.1323C52.5571 75.1031 52.6025 74.9138 52.5722 74.7063C51.7768 74.462 51.0348 73.2163 50.6911 72.4798Z" class="pineapple"/>
<path d="M40.1766 69.6359C40.1019 69.7248 40.0494 69.8323 39.9969 69.9398C40.0631 69.9423 40.1292 69.9448 40.1893 69.9726C40.1893 69.9726 40.3387 69.4613 40.1766 69.6359Z" class="pineapple"/>
<path d="M44.2804 73.1695C43.6162 73.8241 42.852 74.8952 41.9989 74.557C41.367 74.2985 40.7563 72.6172 40.5085 72.0372C40.5393 71.9646 40.5105 71.9176 40.4282 71.8712C40.1744 71.3164 40.0628 70.8359 40.1264 70.2373C40.0573 70.2474 39.9942 70.2322 39.8867 70.1798C39.7736 70.5396 39.8281 71.3134 39.9104 71.6935C39.4536 71.9842 38.7393 73.0139 38.4037 73.4671C38.3103 73.2445 38.228 72.8645 38.069 72.6928C37.91 72.5212 38.1382 73.6837 38.1609 73.7558C38.1139 73.7846 38.0766 73.829 38.0392 73.8734L38.1937 73.8972C38.2356 74.0006 38.334 74.091 38.3759 74.1945C38.4854 74.1273 38.598 74.0476 38.6979 73.9648L38.8019 73.9764L38.7635 73.9138C39.2693 73.4747 39.7281 73.0644 40.24 72.6C40.5236 73.3087 41.1323 75.1096 41.953 75.36C42.597 75.568 43.2477 75.137 43.7822 74.7448C43.9447 74.6236 44.8977 73.8782 44.8321 73.5955C44.7958 73.4133 44.5611 72.8899 44.2804 73.1695Z" class="pineapple"/>
<path d="M38.3727 74.2079L38.3985 74.2141L38.3918 74.1852L38.3727 74.2079Z" class="pineapple"/>
<path d="M44.7775 81.1627C44.9027 81.086 45.1858 81.0739 45.3817 81.1476C45.5598 81.0168 45.735 80.8987 45.9258 80.771C46.1756 80.5641 46.4225 80.3698 46.6915 80.1941C46.6572 80.2259 45.1374 80.9421 44.7775 81.1627Z" class="pineapple"/>
<path d="M44.7598 81.1852C44.7126 81.2141 44.6653 81.2431 44.615 81.2848C44.6404 81.2909 44.6785 81.3 44.7039 81.3061C44.71 81.2807 44.7161 81.2553 44.7222 81.2299C44.741 81.2075 44.7441 81.1948 44.7598 81.1852Z" class="pineapple"/>
<path d="M43.1942 81.8103C43.3421 81.8057 43.4456 81.7639 43.4986 81.7099C43.2876 81.6992 43.1044 81.6286 42.9489 81.4978C42.961 81.4474 42.9984 81.403 43.0579 81.3772C42.3993 80.6186 42.1151 79.5227 41.9642 78.539C41.9037 78.1241 42.0566 77.6537 41.9521 77.2549C41.8734 76.9157 41.2551 75.4328 41.1113 76.5326C40.9598 76.4963 39.0998 78.8524 39.1583 79.0533C38.7005 79.237 38.2119 78.4925 37.8707 78.3572C37.7955 78.3925 37.7521 78.4622 37.7466 78.5409C38.538 79.0245 38.651 79.6655 39.6298 79.3132C40.1254 79.1386 40.713 78.0251 41.1375 77.6466C41.4282 78.7707 41.6164 79.71 42.0298 80.8235C42.0838 80.8765 42.1095 80.936 42.104 81.0148C42.4452 81.8173 43.4496 82.5255 44.2981 82.0486C43.9428 82.0834 43.5263 81.9834 43.1942 81.8103Z" class="pineapple"/>
<path d="M39.1586 79.054C39.1731 79.0575 39.1766 79.043 39.1586 79.054C39.1621 79.0396 39.1586 79.054 39.1586 79.054Z" class="pineapple"/>
<path d="M51.2714 85.2973C49.7193 85.9256 49.5235 85.5183 48.933 83.9753C48.6135 83.1379 48.659 81.6141 48.1083 80.9614C47.3573 80.0872 47.2629 80.7585 47.4673 81.7417C47.5778 81.7816 47.6101 81.8694 47.5702 81.98C47.5672 81.9926 47.5515 82.0022 47.5485 82.0148C47.7029 82.3722 47.7569 82.7588 47.8988 83.1132C47.9871 83.1344 48.0724 83.1682 48.1451 83.199C48.0598 83.1651 47.9841 83.147 47.8988 83.1132C48.3237 84.1227 48.7447 86.0387 49.9303 86.2699C50.7187 86.4324 54.8542 83.3813 54.6922 83.2223C54.5907 83.1446 51.6697 85.1393 51.2714 85.2973Z" class="pineapple"/>
<path d="M58.0731 87.2637C58.3093 87.2803 58.5455 87.297 58.7691 87.3106C58.8095 87.2536 58.8625 87.1996 58.9155 87.1456C59.8347 86.1517 60.9184 85.5844 61.9334 84.7471C61.1026 85.4285 59.0871 85.9857 58.0731 87.2637Z" class="pineapple"/>
<path d="M57.3837 86.5776C57.2908 86.7421 57.0748 86.5301 57.0304 86.4928C57.0551 86.4453 57.0672 86.3948 57.0889 86.36C57.1394 86.3721 57.2025 86.3873 57.253 86.3994C56.8815 86.0567 56.563 85.3263 56.3853 84.8432C56.2304 84.4324 56.0416 83.1059 55.6156 82.9903C54.5395 82.692 55.3794 84.3082 55.55 84.7095C56.0168 85.8224 56.6518 86.7355 57.4755 87.6406C57.528 87.5331 57.5805 87.4255 57.6552 87.3367C57.6552 87.3367 57.6552 87.3367 57.6426 87.3337C57.6577 87.2706 57.6699 87.2201 57.682 87.1696C57.682 87.1696 57.682 87.1696 57.6946 87.1727C57.7229 87.1661 57.7542 87.1469 57.7854 87.1278C57.6234 86.9688 57.4957 86.778 57.3837 86.5776Z" class="pineapple"/>
<path d="M65.3284 89.6187C64.2649 89.9907 63.3957 91.6104 62.0147 91.359C61.1445 91.2035 58.8469 89.2107 58.7622 88.2295C58.7026 88.2552 58.6461 88.2683 58.5769 88.2784L58.5739 88.291C58.7333 90.1843 61.3979 92.0383 63.0317 91.7365C64.2603 91.511 67.4837 88.8682 65.3284 89.6187Z" class="pineapple"/>
<path d="M56.5594 88.9554C56.7704 88.966 56.9814 88.9766 57.1924 88.9872C57.2323 88.8767 57.3292 88.8065 57.572 88.8514C57.6477 88.8696 57.7077 88.8974 57.7552 88.9221C58.1752 88.062 56.6564 88.8852 56.5594 88.9554Z" class="pineapple"/>
<path d="M56.5591 88.9553C54.7298 90.2378 53.9252 91.0323 52.6281 88.986C52.6094 89.0082 52.5812 89.0148 52.5625 89.037C52.5277 89.0153 52.4802 88.9905 52.4484 88.9562C52.4827 88.9244 52.5266 88.9083 52.561 88.8765C52.0244 88.0537 51.8589 87.1866 51.4385 86.325C51.8685 87.2022 51.7751 89.6487 53.0874 90.631C54.3553 91.5759 56.6772 90.1314 57.6367 89.0805C57.2864 88.9831 56.924 88.9361 56.5591 88.9553Z" class="pineapple"/>
<path d="M49.9699 86.7197C48.7731 86.9796 46.6466 88.1107 45.4635 87.4798C44.777 87.1148 43.5662 83.2075 43.7454 83.1838C42.9065 83.3428 44.6801 87.8522 45.6371 88.2021C46.4205 88.4969 47.915 88.1082 48.7282 87.8897C49.0704 87.7983 49.7437 87.7731 49.9613 87.4784C49.98 87.4561 50.7018 86.5618 49.9699 86.7197Z" class="pineapple"/>
<path d="M42.6501 83.3482C42.4199 83.3063 41.9323 83.6697 41.7284 83.7408C41.1293 83.9573 40.3757 84.4838 39.8694 84.8694C39.5469 84.3783 39.4495 83.7276 39.1209 83.2618C39.0295 83.2532 38.9669 83.2915 38.9235 83.3612C39.6029 84.6453 39.0179 85.359 40.4731 85.1344C41.262 85.0168 42.1529 84.3632 42.9403 84.0851C43.6399 83.8393 42.9842 83.4017 42.6501 83.3482Z" class="pineapple"/>
<path d="M52.8908 92.0651C52.6183 92.1998 52.3967 92.4002 52.1337 92.5506C52.2942 92.5491 52.4547 92.5476 52.6026 92.5431C52.6496 92.5143 52.6995 92.4729 52.7465 92.4441C52.8404 92.3866 52.9247 92.3134 53.0059 92.2528C52.9454 92.1716 52.904 92.1216 52.8908 92.0651Z" class="pineapple"/>
<path d="M51.6701 92.7596C50.0175 93.7509 48.9131 94.4601 47.6422 92.5269C47.2622 91.9418 46.5839 88.7629 45.9938 89.6089C45.4845 90.3407 46.7458 92.592 47.3247 93.238C49.3164 95.5044 50.7257 93.7474 52.6029 92.5431C52.455 92.5477 52.2945 92.5492 52.134 92.5507C51.9805 92.634 51.8109 92.6733 51.6701 92.7596Z" class="pineapple"/>
<path d="M59.0953 94.1279C57.4877 95.21 56.7442 95.472 55.4632 93.8032C55.1431 93.9133 54.8282 93.891 54.5026 93.7462C55.61 95.3599 56.782 96.1483 58.5603 95.1338C59.9973 94.3177 61.714 93.1149 62.9819 92.058C62.3293 92.6087 60.1775 93.4001 59.0953 94.1279ZM57.5311 95.1404C57.5038 95.2539 57.4796 95.3549 57.4649 95.4715C57.0092 95.2019 57.0122 95.1893 57.5311 95.1404Z" class="pineapple"/>
<path d="M53.5857 91.7245C53.4206 91.5782 53.2732 91.6362 53.1279 91.9083C53.2662 91.8881 53.4549 91.88 53.7255 91.8649C53.8093 92.0718 53.732 92.2268 53.516 92.3484C53.6573 92.6492 53.8335 92.9718 54.0278 93.2186C54.2272 92.9996 54.4553 92.8274 54.7279 92.6927C54.5649 92.4267 54.0334 91.4717 53.5857 91.7245Z" class="pineapple"/>
<path d="M44.719 58.5546C44.7028 58.5107 44.671 58.4764 44.6549 58.4324L44.6054 58.5273C44.5393 58.5248 44.4605 58.5193 44.3944 58.5167C44.4297 58.5919 44.4555 58.6515 44.5065 58.7171L44.46 58.7994C44.4883 58.7928 44.5135 58.7989 44.5418 58.7923C44.6897 59.1214 44.7961 61.0687 45.0425 61.1546C45.6391 61.3378 44.9289 59.1255 44.8507 58.8398C44.939 58.861 45.0274 58.8822 45.1127 58.916C45.4034 59.0392 45.8208 59.5798 45.8632 59.7367C45.6558 59.0997 45.3817 58.7404 44.719 58.5546Z" class="pineapple"/>
<path d="M49.9095 55.5566C49.7046 54.8535 49.5476 54.2286 49.0636 53.6319C48.9758 53.6643 48.9071 53.7278 48.8859 53.8162L48.8733 53.8132C48.8733 53.8132 48.8859 53.8162 48.8829 53.8288C48.7794 54.2043 48.7026 56.7483 48.9868 56.5095C49.3583 56.185 49.0323 54.652 49.103 54.1352C49.1953 54.2508 49.2751 54.3633 49.3644 54.4915C49.5431 54.748 49.8545 55.3966 49.9095 55.5566Z" class="pineapple"/>
<path d="M46.8051 68.5441C46.6653 68.4037 46.4135 67.7294 46.1086 67.4427C45.9976 67.3493 45.9052 67.2337 45.7911 67.153C45.3212 67.7208 45.4777 68.2922 45.6977 68.9322C45.7103 68.9352 45.726 68.9256 45.7386 68.9286C45.6518 69.068 45.9481 69.1124 46.0642 68.7399C46.1586 68.4022 45.5372 67.9328 45.8512 67.5144C46.2131 67.8414 46.4619 68.1948 46.8051 68.5441Z" class="pineapple"/>
<path d="M41.2172 62.6386C40.9735 61.8194 40.7226 61.2521 40.1906 60.5772C40.1639 60.4106 40.1089 60.2506 40.0226 60.1098L39.86 60.2309C39.8156 60.1936 39.7742 60.1436 39.7172 60.1032C39.7429 60.1628 39.7687 60.2224 39.7944 60.2819L39.6319 60.4031L39.6541 60.4217C39.746 60.4838 39.8378 60.5459 39.9236 60.6332C39.9993 60.985 40.0184 63.6854 40.1477 63.7031C40.6585 63.799 40.4284 61.4216 40.334 61.092C40.6903 61.4979 41.1007 62.2903 41.2172 62.6386Z" class="pineapple"/>
<path d="M50.2282 62.0657C50.2151 62.0092 50.2019 61.9527 50.1762 61.8931L50.0702 62.0011C50.0071 61.986 49.944 61.9708 49.8935 61.9587C49.9193 62.0183 49.9324 62.0748 49.9455 62.1313L49.8426 62.2267C49.8804 62.2358 49.9309 62.2479 49.9687 62.257C50.0253 62.5775 50.1363 65.0064 50.4038 65.0039C50.7531 64.9943 50.5885 64.2341 50.5522 64.0519C50.476 63.9802 50.428 63.902 50.4523 63.801C50.4704 63.7253 50.4886 63.6496 50.5164 63.5896C50.4402 63.1842 50.4018 62.788 50.2973 62.3893C51.0181 62.7224 51.1872 63.2968 51.6924 63.8051C51.5027 63.0389 50.952 62.3862 50.2282 62.0657Z" class="pineapple"/>
<path d="M59.5158 57.5691C59.4592 57.5822 59.4027 57.5953 59.3462 57.6084L59.2533 57.4393C59.1912 57.5312 59.1291 57.6231 59.0575 57.6993C58.0212 57.9577 56.8714 58.5225 56.2884 59.4502C56.4519 59.436 56.6124 59.4345 56.7699 59.4456C57.3403 58.8485 58 58.3796 58.7682 58.0703C58.4149 58.6527 58.1913 59.3064 57.9833 59.9504C58.0181 59.9721 58.0403 59.9908 58.0752 60.0125C58.2105 59.3377 58.6839 58.4771 59.1417 57.9597C59.2578 57.9209 59.3739 57.882 59.49 57.8431L59.3972 57.674C59.4411 57.6579 59.4784 57.6135 59.5158 57.5691Z" class="pineapple"/>
<path d="M66.6044 59.3907C66.5256 59.3851 66.4595 59.3826 66.3904 59.3927L66.3298 59.3114C66.3237 59.3367 66.3146 59.3745 66.296 59.3967C66.0032 59.3932 65.7357 59.3957 65.4434 59.4457C64.9816 59.535 63.6591 60.1518 64.6353 60.1992C65.0573 60.2205 65.6312 59.6642 66.1632 59.6718C65.9598 60.1301 65.6635 60.4193 65.403 60.8373C65.5176 60.6379 66.1824 60.0367 66.4433 59.6723C66.4842 59.6688 66.5251 59.6653 66.566 59.6617L66.5054 59.5805C66.5458 59.5234 66.5766 59.4507 66.6044 59.3907Z" class="pineapple"/>
<path d="M71.0708 56.2449L71.0925 56.2101C71.039 56.2106 70.9699 56.2207 70.9134 56.2338L70.8336 56.1212C70.8215 56.1717 70.7968 56.2192 70.7594 56.2636C70.3884 56.308 69.0221 56.2736 68.9539 56.7244C68.8913 57.0964 70.3127 56.6234 70.5797 56.5674C70.4338 56.786 70.1996 56.9833 69.9518 57.0706C70.0023 57.0828 70.0401 57.0918 70.0906 57.104C70.4227 56.9435 70.6544 56.8122 70.872 56.5175C70.9568 56.4978 71.0289 56.4751 71.1137 56.4554L71.0244 56.3272C71.0274 56.3146 71.0491 56.2797 71.0708 56.2449Z" class="pineapple"/>
<path d="M64.7401 53.4307C64.6866 53.4312 64.6331 53.4317 64.567 53.4291L64.518 53.2439C64.4524 53.2949 64.3868 53.3458 64.3307 53.4125C63.9527 53.3751 61.4511 54.1226 62.0725 54.592C62.1739 54.6697 63.6291 53.7779 64.0158 53.7239C63.6609 54.1459 63.1673 54.8681 63.0875 55.4229C63.1531 55.0382 63.9905 54.0515 64.409 53.6982C64.5003 53.7067 64.5791 53.7123 64.6608 53.7052L64.6089 53.5326C64.6402 53.5134 64.6588 53.4912 64.6932 53.4594L64.7401 53.4307Z" class="pineapple"/>
<path d="M68.3513 65.2947C68.3044 65.3235 68.2731 65.3427 68.2292 65.3588L68.0924 65.2059C68.046 65.2881 68.0121 65.3734 67.9783 65.4587C67.5861 65.5915 66.3783 66.3425 66.3737 66.8619C66.3848 67.3717 67.5685 66.0543 67.7658 65.9549C67.6315 66.4031 67.421 67.1133 67.4665 67.5913C67.4412 67.2516 67.9374 66.1295 68.1631 65.6899C68.2539 65.645 68.3448 65.6001 68.4452 65.5708L68.3084 65.4179C68.3049 65.377 68.3266 65.3422 68.3513 65.2947Z" class="pineapple"/>
<path d="M59.2267 63.7186C59.2292 63.6525 59.2348 63.5737 59.209 63.5142L59.1308 63.5621C59.0546 63.4904 58.9249 63.4193 58.833 63.3572C58.8779 63.448 58.939 63.5828 58.9274 63.6868L58.8365 63.7317C58.8587 63.7504 58.8809 63.7691 58.9032 63.7877C58.6916 64.7245 59.0732 65.8037 59.2479 64.2975C59.6088 64.8512 59.4336 65.303 59.313 65.8612C59.3523 65.6972 59.7238 65.3727 59.6946 64.9386C59.6714 64.4793 59.4412 64.1037 59.2267 63.7186Z" class="pineapple"/>
<path d="M53.0961 71.1354C53.619 70.5136 53.3066 69.758 52.867 69.1987C52.8311 69.07 52.7983 68.9287 52.7781 68.7904L52.5904 68.9054C52.5616 68.8585 52.5172 68.8212 52.4884 68.7742C52.5015 68.8307 52.5146 68.8873 52.5121 68.9534L52.34 69.0589C52.4006 69.1402 52.4768 69.2118 52.553 69.2835C52.5747 69.5823 52.5832 71.4928 52.8634 71.4933C53.0456 71.457 53.1137 71.3399 53.0648 71.1546C53.0804 71.145 53.093 71.1481 53.0961 71.1354Z" class="pineapple"/>
<path d="M55.7208 52.3071C55.5441 52.2647 55.5184 52.2051 55.6531 52.144C55.4765 51.768 55.0914 51.3152 54.7835 51.0411C54.7638 50.9563 54.7472 50.8589 54.7431 50.7645L54.574 50.8574C54.5296 50.8201 54.4882 50.7701 54.4595 50.7231C54.4569 50.7893 54.467 50.8584 54.4801 50.9149L54.3393 51.0013C54.3585 51.0326 54.3903 51.0669 54.4125 51.0856C54.4347 51.1042 54.4569 51.1229 54.4791 51.1416C54.4726 51.447 54.4412 53.468 54.7653 53.4523C55.1681 53.4422 54.8758 51.824 54.8663 51.4747C55.2963 52.0183 55.6158 52.5221 55.9928 53.1197C56.009 53.1636 55.7758 52.4671 55.7208 52.3071Z" class="pineapple"/>
<path d="M61.8356 70.6438C61.8225 70.5872 61.819 70.5464 61.8059 70.4898L61.6933 70.5696C61.6332 70.5418 61.5762 70.5014 61.5131 70.4863C61.5232 70.5554 61.5363 70.612 61.5464 70.6811L61.4338 70.7609C61.4687 70.7826 61.5192 70.7947 61.554 70.8164C61.5605 71.1783 61.0583 73.6601 61.2289 73.7278C61.7846 73.9145 61.8195 71.2671 61.8291 70.9491C61.9558 71.0329 62.0951 71.1198 62.2248 71.1909C62.6079 71.4297 63.0419 72.0677 62.9793 72.4397C63.1384 71.6104 62.5216 70.9552 61.8356 70.6438Z" class="pineapple"/>
<path d="M71.5237 70.9809L71.5641 70.9238C71.5076 70.937 71.451 70.9501 71.3819 70.9602L71.2986 70.8067C71.2582 70.8638 71.2148 70.9334 71.1744 70.9905C70.6838 71.0328 68.1419 72.5046 68.8909 72.8312C68.9762 72.865 70.4708 71.4755 70.9478 71.3231C70.6621 71.735 70.1412 72.5708 70.0988 73.0811C70.0533 73.604 70.8402 73.6061 70.7615 73.2669C70.7549 73.2386 70.0599 73.6323 70.2366 73.0074C70.4072 72.4078 70.9518 71.7511 71.3122 71.2504C71.3814 71.2403 71.4536 71.2176 71.5353 71.2105L71.449 71.0697C71.4677 71.0475 71.502 71.0157 71.5237 70.9809Z" class="pineapple"/>
<path d="M74.5144 67.8016C74.9707 67.4573 76.7005 66.9784 77.4062 67.3746C76.8373 67.465 76.3199 67.6744 75.7935 67.9217C75.8288 67.9969 75.8485 68.0817 75.8399 68.1731C75.742 68.1362 75.6284 68.109 75.5305 68.0721C75.3897 68.1584 74.8269 68.5572 75.0429 68.7692C75.2079 68.9156 76.4426 67.9975 76.6778 67.9071C77.1795 67.7072 77.7262 67.5982 78.2642 67.5806C77.1659 66.5963 75.5926 66.9794 74.5144 67.8016Z" class="pineapple"/>
<path d="M71.3057 61.88C71.2869 61.9024 71.2681 61.9247 71.2493 61.9471C71.2681 61.9247 71.2869 61.9024 71.3057 61.88Z" class="pineapple"/>
<path d="M71.3057 61.88C71.8261 61.3243 73.46 61.0225 74.2282 61.3804C74.1187 61.4475 74.0248 61.505 73.9057 61.5565C73.6397 61.7196 71.7206 62.8204 71.9659 63.1328C72.1602 63.3796 74.4316 61.5893 74.8198 61.3622C73.7972 60.7297 72.1118 60.9124 71.3057 61.88Z" class="pineapple"/>
<path d="M76.9622 57.6593L77.2075 57.6381L76.9945 57.4135C76.9132 57.4741 76.9047 57.5654 76.9622 57.6593Z" class="pineapple"/>
<path d="M73.4699 78.4409C73.426 78.4571 73.3695 78.4702 73.3286 78.4737L73.2357 78.3046C73.1797 78.3713 73.1393 78.4283 73.0959 78.498C72.6906 78.5742 71.037 79.1248 71.2535 79.7239C71.3247 79.9279 72.5533 79.035 72.8289 78.8876C72.6063 79.3146 72.2953 80.0541 72.3094 80.5513C72.3155 80.1924 72.9414 79.1415 73.2367 78.7453C73.3185 78.7382 73.4002 78.7312 73.485 78.7115L73.3891 78.555C73.4108 78.5202 73.4325 78.4853 73.4699 78.4409Z" class="pineapple"/>
<path d="M65.5395 76.9511C65.483 76.9642 65.4295 76.9647 65.3729 76.9778L65.2866 76.837C65.2558 76.9097 65.2155 76.9667 65.1751 77.0237C64.9177 77.0954 62.1612 77.8484 62.6887 78.3754C62.7936 78.494 64.6219 77.4381 64.9641 77.3468C64.7041 77.8182 64.323 78.4607 64.1988 78.9781C64.2685 78.6879 64.9797 77.6708 65.2876 77.2776C65.3724 77.258 65.4572 77.2383 65.542 77.2186L65.4557 77.0778C65.4648 77.0399 65.5022 76.9955 65.5395 76.9511Z" class="pineapple"/>
<path d="M55.9466 74.2747C55.9461 74.2212 55.9612 74.1581 55.9734 74.1076L55.8229 74.1783C55.7785 74.1409 55.7341 74.1036 55.6927 74.0536C55.6776 74.1167 55.6751 74.1828 55.6569 74.2585L55.5378 74.31C55.5696 74.3443 55.5918 74.363 55.6266 74.3847C55.5443 74.6719 55.0466 76.6344 55.3651 76.6975C55.7088 76.7666 55.9092 74.9864 55.9092 74.6527C56.2722 75.0868 56.4069 76.0267 56.31 76.4305C56.3463 76.279 56.4109 76.1211 56.4377 75.954C56.5361 75.3771 56.3756 74.7113 55.9466 74.2747Z" class="pineapple"/>
<path d="M47.8566 75.6163C47.7516 75.1641 47.9091 74.5079 47.3186 73.9658C47.3211 73.8996 47.3206 73.8461 47.3105 73.777L47.1853 73.8537C47.1409 73.8164 47.0839 73.776 47.0238 73.7482C47.0339 73.8174 47.047 73.8739 47.0319 73.937L46.9097 74.0011L46.9794 74.0445C46.992 74.0475 47.0016 74.0632 47.0142 74.0662C46.9849 74.2994 46.7058 76.4077 47.048 76.3164C47.4215 76.2058 47.2847 74.7183 47.2873 74.3186C47.7097 74.7269 47.7319 75.0793 47.8566 75.6163Z" class="pineapple"/>
<path d="M41.296 69.3702C41.3112 69.3071 41.3137 69.241 41.3036 69.1719L41.1658 69.2456C41.1183 69.2208 41.0739 69.1835 41.0295 69.1461C41.03 69.1996 41.0275 69.2657 41.028 69.3192L40.8902 69.3929C40.9346 69.4303 40.9694 69.452 41.0139 69.4893C40.9699 69.8391 41.1456 71.1091 41.5877 71.2686C42.093 71.4432 41.3874 70.0461 41.3793 69.8573C41.6912 70.2258 41.6937 70.4933 41.8396 70.942C41.885 71.0864 41.8987 70.5291 41.8987 70.5291C41.8093 70.0673 41.5918 69.6948 41.296 69.3702Z" class="pineapple"/>
<path d="M38.9947 76.7317C38.8862 76.5722 38.7757 75.865 38.5334 75.5399C38.4844 75.3547 38.4072 75.176 38.3739 74.9812L38.1831 75.1089C38.1513 75.0746 38.1195 75.0402 38.0877 75.0059C38.1039 75.0498 38.12 75.0937 38.1205 75.1472L37.9454 75.2653C37.9868 75.3153 38.0438 75.3557 38.0882 75.3931C38.1478 75.3673 38.2043 75.3542 38.2639 75.3285C38.2553 75.4198 38.2437 75.5238 38.2225 75.6121C38.3168 75.9417 38.0215 76.6716 38.2507 76.9401C38.709 77.4772 38.5854 76.0462 38.5717 75.9362C38.7943 76.1764 38.8286 76.4783 38.9947 76.7317Z" class="pineapple"/>
<path d="M40.2097 82.402C40.0659 82.1672 40.0154 81.4879 39.6747 81.0724C39.6455 80.972 39.6288 80.8746 39.6278 80.7676L39.4587 80.8604C39.4173 80.8105 39.3886 80.7635 39.3472 80.7136C39.3446 80.7797 39.3547 80.8488 39.3522 80.915L39.2144 80.9886C39.2366 81.0073 39.2432 81.0356 39.2654 81.0543C39.3002 81.076 39.3194 81.1073 39.3542 81.129C39.6374 81.7841 39.9573 83.3423 39.7166 81.5096C39.9745 81.825 40.0179 82.089 40.2097 82.402Z" class="pineapple"/>
<path d="M43.9034 79.2447C43.7802 78.8681 43.6101 78.5204 43.3991 78.1761C43.3921 78.0943 43.3911 77.9873 43.4092 77.9116L43.2366 77.9636C43.2109 77.9041 43.1725 77.8415 43.1468 77.7819C43.1316 77.845 43.123 77.9364 43.0923 78.009L42.9635 78.0449C42.9863 78.1171 43.0246 78.1796 43.0786 78.2326C43.2977 79.0993 43.8084 80.1961 43.4198 78.7016C43.5798 78.9802 43.7504 79.3815 43.9291 79.6379C44.031 79.7691 43.8998 79.2038 43.9034 79.2447Z" class="pineapple"/>
<path d="M50.3899 80.0809C50.3768 80.0244 50.3667 79.9552 50.3536 79.8987L50.2567 79.9688C50.187 79.9254 50.133 79.8724 50.0664 79.8164C50.0704 79.9108 50.0714 80.0178 50.0755 80.1122L50.0255 80.1536C50.0507 80.1596 50.073 80.1783 50.0952 80.197C50.1795 80.4574 50.1779 82.2988 50.6145 82.2034C50.982 82.1181 50.5005 80.7881 50.4722 80.461C50.5419 80.5044 50.6115 80.5478 50.6812 80.5912C51.1501 80.9173 51.7209 81.7082 51.888 82.0686C51.4958 81.2005 51.1728 80.6558 50.3899 80.0809Z" class="pineapple"/>
<path d="M59.2884 81.9233C59.3293 81.9198 59.3575 81.9132 59.4014 81.8971L59.3283 81.8128C59.353 81.7653 59.3681 81.7022 59.3802 81.6518L59.3893 81.6139C59.3328 81.627 59.2606 81.6497 59.1915 81.6598L59.1087 81.5599L59.0688 81.6704C58.6004 81.7315 56.4143 83.222 57.1467 83.4511C57.232 83.485 58.5474 82.1191 58.9835 81.9703C58.8735 82.3175 58.2909 84.2996 59.1369 84.2224C58.5357 84.2249 59.1748 82.2297 59.2884 81.9233Z" class="pineapple"/>
<path d="M59.1652 84.2164C59.219 84.2159 59.276 84.2027 59.3517 84.1671C59.276 84.2027 59.219 84.2159 59.1652 84.2164Z" class="pineapple"/>
<path d="M67.7019 83.1819C68.0991 82.9169 68.932 83.1168 69.0324 83.7548C68.9693 83.7397 68.8906 83.7341 68.8275 83.719C68.5564 83.6806 65.0388 83.8239 65.5744 84.5396C65.5456 84.4927 68.7351 83.937 69.2141 83.9986C69.4322 83.0901 68.3995 82.7221 67.7019 83.1819Z" class="pineapple"/>
<path d="M68.3835 87.1223C67.2317 88.1403 66.8854 88.8046 65.5388 87.8541C64.6262 87.208 64.1795 85.8997 63.2357 85.2728C61.725 84.2829 61.9309 85.4267 63.0181 86.2348C62.9712 86.2636 62.9368 86.2954 62.8899 86.3241C62.8081 86.3312 62.7168 86.3226 62.6446 86.3453C62.4341 86.3882 60.0365 87.8146 60.9138 88.0518C60.9516 88.0609 62.2832 86.739 62.6663 86.6441C62.375 87.1348 62.3452 87.9817 62.7177 88.4315C62.4154 88.0786 62.6133 87.0318 62.9681 86.6098C63.0782 86.5962 63.2008 86.5856 63.3108 86.572L63.275 86.4433C64.4369 87.4962 65.4988 89.6328 67.2695 88.8167C68.0029 88.4856 70.9644 84.7657 71.0406 84.8374C70.9038 84.6844 68.6894 86.8487 68.3835 87.1223Z" class="pineapple"/>
<path d="M53.1442 87.0546C53.5197 88.4926 53.5576 86.4999 53.4042 85.9159C53.9307 86.3359 53.97 86.8391 54.023 87.4524C54.0164 87.4241 54.1749 86.8749 54.1255 86.6362C53.8398 85.0462 52.7849 85.6605 53.1442 87.0546Z" class="pineapple"/>
<path d="M45.8132 83.4662C45.8193 83.441 45.8253 83.4157 45.8314 83.3905L45.8001 83.4097C45.8036 83.4506 45.7945 83.4884 45.7728 83.5233C45.679 83.5808 45.5942 83.6005 45.5058 83.5793C45.4816 85.0148 45.6365 85.4256 45.7693 83.816C45.9026 83.9281 46.0202 84.0497 46.1034 84.2032C46.2392 84.2491 46.2584 84.2804 46.161 84.297C46.3109 84.5065 46.487 85.1627 46.488 85.2697C46.4709 84.4515 46.3604 84.078 45.8132 83.4662Z" class="pineapple"/>
<path d="M40.765 85.5913L40.6807 85.6644C40.5762 85.5993 40.4404 85.5534 40.3329 85.5009C40.3965 85.5695 40.4954 85.7134 40.4838 85.8174L40.3995 85.8906C40.4217 85.9092 40.4596 85.9183 40.4818 85.937C40.5736 86.6664 41.1036 87.4608 40.926 86.3105C41.0082 86.357 41.0749 86.413 41.1228 86.4912C41.4464 86.7557 41.6225 87.0783 41.9178 87.3493C41.6861 87.1469 41.1708 86.2358 40.7862 85.8366C40.8074 85.7482 40.8003 85.6665 40.765 85.5913Z" class="pineapple"/>
<path d="M49.2124 90.6488C49.2013 91.4735 49.7918 91.682 49.5935 90.6735C49.4552 90.6937 49.3229 90.6887 49.2124 90.6488Z" class="pineapple"/>
<path d="M50.1694 90.1706C49.9246 89.9116 49.7808 89.6769 49.4582 89.5194C49.4547 89.4786 49.4481 89.4503 49.4446 89.4094L49.376 89.473C49.3189 89.4326 49.2366 89.3862 49.164 89.3554C49.1554 89.4467 49.1281 89.5603 49.1448 89.6577L49.1574 89.6608C49.2119 89.7673 49.2099 89.8869 49.1826 90.0005C49.3053 89.9899 49.4062 90.0141 49.5168 90.054C49.5067 89.9848 49.5062 89.9313 49.5087 89.8652C49.9963 90.1691 50.39 90.8641 50.4192 91.2982C50.3874 90.9302 50.4177 90.4704 50.1694 90.1706Z" class="pineapple"/>
<path d="M58.8346 90.4888L58.8391 90.3031C58.7291 90.3167 58.6413 90.349 58.5474 90.4065C58.2733 90.3808 55.3316 90.8491 56.1236 91.3862C56.2724 91.4886 57.6767 90.5312 58.1971 90.6427C57.8786 90.9133 57.4515 91.3579 57.3738 91.793C57.4248 91.525 58.1521 90.8855 58.5029 90.7028C58.6069 90.7144 58.7235 90.7291 58.8214 90.7659L58.829 90.5675C58.8699 90.564 58.9138 90.5479 58.9421 90.5413C58.9073 90.5196 58.8694 90.5105 58.8346 90.4888Z" class="pineapple"/>
<path d="M46.2237 92.9869C45.7689 92.4907 45.5564 90.6514 44.5167 90.8689C44.502 91.3192 44.5873 92.0202 44.9209 92.3539C45.458 92.8965 44.873 91.2747 44.8462 91.1082C44.875 91.1551 44.9164 91.2051 44.9452 91.252C45.3878 91.7987 45.7593 92.4751 46.2237 92.9869Z" class="pineapple"/>
<path d="M51.7869 93.8819C51.2932 94.2706 51.3346 94.6542 51.9014 94.3498C52.1927 94.1929 52.3613 93.7129 52.7156 93.571C52.7373 93.5362 52.7595 93.5549 52.757 93.621C52.9392 93.9183 53.0114 94.8965 53.6004 94.6108C52.9109 94.9258 53.3738 92.608 51.7869 93.8819Z" class="pineapple"/>
<path d="M61.8786 94.9297C61.8124 94.9272 61.7307 94.9342 61.6676 94.9191L61.655 94.9161L61.6519 94.9287C61.2522 94.9261 58.4912 94.864 58.8491 95.4303C58.9162 95.5398 61.3365 95.1866 61.6353 95.1649C61.6075 95.225 61.5702 95.2694 61.5202 95.3108C61.4828 95.3552 61.0447 95.6237 61.1295 95.604C61.3905 95.5732 61.7256 95.4001 61.8397 95.1472L61.8932 95.1467L61.8614 95.1124C61.8765 95.0493 61.876 94.9958 61.8786 94.9297Z" class="pineapple"/>
<path d="M61.8774 94.9313L61.8917 94.9347L61.8809 94.917L61.8774 94.9313Z" class="pineapple"/>
<path d="M76.3003 49.1329C76.2529 49.1082 75.7456 48.7195 75.6805 48.824C75.6588 48.8588 78.8749 53.8079 78.4605 53.922C79.0193 53.7625 76.8793 49.4453 76.3003 49.1329Z" class="pineapple"/>
<path d="M79.4749 57.0347C79.3492 57.0579 79.4511 61.1928 79.2865 61.7672C79.2653 61.8555 79.1704 62.1397 79.3188 62.1886C79.9947 62.4309 80.122 56.8964 79.4749 57.0347Z" class="pineapple"/>
<path d="M80.0411 63.9635C79.9437 63.9801 80.0227 71.0456 79.7482 70.9663C80.1868 71.085 80.5306 66.8168 80.4973 66.2884C80.5049 66.09 80.3364 63.9009 80.0411 63.9635Z" class="pineapple"/>
<path d="M42.5395 50.0641C42.3093 50.3558 40.2902 53.2076 41.0529 53.3106C40.8197 53.2813 43.8821 48.5847 44.1032 48.9981C43.8821 48.5847 42.6919 49.8738 42.5395 50.0641Z" class="pineapple"/>
<path d="M49.0635 44.2362C48.6209 44.3568 43.3608 46.9779 44.1977 47.6058C43.9155 47.3913 50.2472 43.5861 50.5036 44.0747C50.4213 43.6946 49.2927 44.1711 49.0635 44.2362Z" class="pineapple"/>
<path d="M50.5029 44.0752C50.4998 44.0881 50.5127 44.0912 50.5096 44.1041C50.5127 44.0912 50.5158 44.0783 50.5029 44.0752Z" class="pineapple"/>
<path d="M40.0914 54.4276C39.5226 54.1843 35.8013 63.4604 35.4334 64.4932C35.5409 64.5457 35.6454 64.6108 35.7529 64.6633C35.8266 64.4674 35.9255 64.2776 35.9992 64.0818C36.3475 63.2979 40.3948 54.5538 40.0914 54.4276Z" class="pineapple"/>
<path d="M35.8068 72.7772C36.0355 71.3241 35.5515 70.0602 35.5 68.6065C35.4572 67.3951 35.6762 66.2599 35.6621 65.0955C35.5743 65.1278 35.4486 65.151 35.3103 65.1712C35.3204 65.2404 35.3209 65.2939 35.3467 65.3534C35.7217 66.7379 35.2658 68.8039 35.4536 70.357C35.5454 71.0863 34.724 77.7889 35.6028 77.5193C34.9814 77.7172 35.7326 73.2532 35.8068 72.7772Z" class="pineapple"/>
<path d="M34.5398 73.661C34.0139 73.6282 34.1794 75.1627 34.1743 75.2949C34.2334 75.8829 35.0651 81.9813 35.8822 81.5235C35.4502 81.7668 34.08 73.6307 34.5398 73.661Z" class="pineapple"/>
<path d="M36.3655 79.7309C35.7881 79.2454 36.3685 81.7201 36.6426 82.0795C36.7127 82.1764 36.7209 80.0298 36.3655 79.7309Z" class="pineapple"/>
<path d="M36.6836 88.4687C36.4096 87.7756 35.7248 82.5666 35.6839 82.5702C34.8879 82.606 35.8327 87.0099 36.0083 87.6126C36.3525 88.7362 36.9264 89.8481 37.684 90.7506C37.9005 91.0161 40.0068 93.0831 40.24 92.4451C40.1173 92.7894 36.932 89.1021 36.6836 88.4687Z" class="pineapple"/>
<path d="M39.2856 90.3612C39.22 90.4122 39.1811 90.6297 39.2008 90.7145C39.3562 91.1789 42.5022 94.3629 42.7142 94.1469C42.739 94.0994 39.3855 90.2784 39.2856 90.3612Z" class="pineapple"/>
<path d="M44.1068 95.0814C44.124 95.2323 44.185 95.3671 44.29 95.4857C44.5611 95.524 44.8225 95.5468 45.0774 95.5412C45.0522 95.5352 45.03 95.5165 45.0078 95.4978C44.9255 95.4514 44.1628 95.0147 44.1068 95.0814Z" class="pineapple"/>
<path d="M45.8765 95.9332C45.6262 96.0866 45.0679 95.966 44.7873 95.9119C47.3665 97.7321 51.1753 98.4328 54.2638 98.5202C54.2512 98.5172 54.6732 98.5384 54.9402 98.4824C53.585 98.6242 46.5408 96.2794 45.8765 95.9332Z" class="pineapple"/>
<path d="M54.9497 98.4984C55.1008 98.4812 55.1761 98.4459 55.1817 98.367C55.1792 98.4332 55.0756 98.4752 54.9497 98.4984Z" class="pineapple"/>
<path d="M79.6551 72.0781C79.856 72.0195 78.8999 76.114 78.7303 76.487C78.1442 77.761 77.5461 79.0854 76.9661 80.3342C76.2872 81.7727 75.1232 82.8412 74.5871 84.4074C74.0233 86.0337 73.8551 87.5681 72.776 88.9506C72.0668 89.848 71.4202 91.0407 70.606 91.8195C69.4768 92.9097 67.8672 93.7779 66.5947 94.6869C65.3035 95.6181 64.0835 96.7533 62.7156 97.5593C62.7908 97.524 59.2106 98.7065 59.5261 98.115C59.0461 98.9473 62.3951 98.2831 62.5425 98.2251C64.2319 97.4695 65.7563 95.9003 67.2221 94.7974C69.9039 92.7987 72.3009 90.9852 73.8087 87.984C74.5255 86.5546 74.4841 84.8364 75.264 83.4222C75.6633 82.7039 76.3987 82.2532 76.7889 81.5728C77.1851 80.8672 77.2225 80.1555 77.5178 79.4256C78.1053 77.9785 79.1674 76.7788 79.6378 75.2635C79.6318 75.2888 80.2799 71.9211 79.6551 72.0781Z" class="pineapple"/>
<path d="M82.9571 62.4865C80.84 60.9947 78.9076 59.9633 72.7664 58.7286C67.7403 57.7415 63.6837 58.5036 60.1022 57.4926C56.5686 56.4944 53.3492 54.7072 48.6688 53.1963C43.7968 51.634 40.0475 52.0162 37.8351 52.6048C35.5749 53.1806 36.7642 55.4512 37.2075 56.2891C37.6507 57.1269 37.5888 60.8087 39.2556 64.7481C41.0499 68.9786 45.5419 70.2336 49.7098 70.0149C53.8904 69.7482 57.0079 63.2896 57.7602 62.2071C58.5254 61.0766 58.938 60.879 59.5738 60.998C60.2704 61.0819 60.6598 61.5458 60.7829 62.8116C60.8804 64.1732 60.795 71.3928 64.4552 73.4522C68.1153 75.5116 72.6879 76.2746 76.1687 73.2521C79.3809 70.4659 80.9413 67.1343 81.709 66.5695C82.5024 65.9089 84.8604 63.8184 82.9571 62.4865Z" class="frame"/>
<path opacity="0.4" d="M79.8734 64.7936C79.3152 66.4932 76.755 72.0224 73.1134 73.1527C69.4718 74.2829 64.8335 72.4236 63.5783 69.0568C62.5875 66.4285 62.9019 62.763 63.0441 61.4656C63.2633 59.8807 63.8196 59.7215 65.3121 59.7105C68.0447 59.6723 74.3401 60.3318 77.6271 61.6748C80.4127 62.7808 80.268 63.5125 79.8734 64.7936Z" class="lens"/>
<path opacity="0.4" d="M39.6988 55.621C39.489 57.3625 39.3378 63.4859 42.1344 66.0844C44.931 68.6829 49.8716 69.0307 52.5368 66.5602C54.5909 64.6451 55.9246 61.2014 56.3064 59.9682C56.7652 58.4475 56.3981 58.0923 54.9895 57.4066C52.5428 56.186 47.7992 54.1445 43.0632 53.8001C40.0944 53.5696 39.8538 54.2756 39.6988 55.621Z" class="lens"/>
</svg>
