<svg viewBox="0 0 427 306" xmlns="http://www.w3.org/2000/svg">
<path d="M413.909 25.9477C426.667 33.1133 437.823 41.4073 447.653 52.2687C448.258 53.1398 448.757 54.2911 448.931 54.7578C450.966 57.3135 451.387 57.1133 452.751 59.1691C453.965 60.998 455.08 62.8814 456.08 64.789C457.41 67.3274 457.468 69.3349 458.204 72.0807C459.912 78.4536 462.852 83.4019 466.136 89.0827C468.794 93.6813 472.773 96.8834 477.254 99.6111C481.408 102.14 486.752 102.609 490.496 105.693C512.473 123.796 520.355 152.497 527.958 178.61C534.219 200.11 534.948 222.671 528.454 244.341C524.077 258.951 510.96 270.563 499.632 279.91C485.446 291.616 469.167 298.464 451.3 302.426C437.111 305.572 422.99 306.34 408.491 305.876C390.514 305.301 372.169 304.013 354.529 300.327C322.142 293.561 293.193 277.723 268.664 255.688C248.57 237.637 233.307 217.426 233.008 189.316C232.656 156.124 243.803 119.54 263.707 92.9597C280.658 70.3228 304.812 51.6412 328.221 36.156C341.652 27.2708 358.015 15.2575 374.676 14.1032C388.745 13.1285 401.912 19.2102 413.909 25.9477Z" class="layer1"/>
<path d="M170.194 54.5347C164.779 57.4885 164.943 57.0067 158.747 60.5412L156.94 61.6432C151.51 65.2553 147.904 67.31 140.934 70.401C133.189 74.78 128.689 79.3054 123.47 85.7278L123.051 86.2439C111.339 100.655 99.9239 114.701 92.7541 132.074C86.7578 146.603 84.1566 163.331 80.714 178.624C77.0321 194.981 75.3935 216.208 79.0721 232.683C86.8058 267.321 122.304 290.42 154.528 298.96C177.778 305.122 202.323 304.339 226.154 303.26C244.077 302.449 262.271 300.52 279.651 295.889C317.184 285.887 343.938 254.938 363.453 222.923C380.693 194.639 390.773 164.415 387.328 131.186C384.324 102.213 369.024 78.2655 347.65 58.9031C335.341 47.7521 322.07 37.4058 308.109 28.3925C303.312 25.2952 298.496 21.8587 292.648 21.3621C260.927 18.6685 225.201 31.5497 195.917 41.839C186.407 45.1804 178.842 49.8179 170.194 54.5347Z" class="layer2"/>
<path d="M57.9156 138.791L58.0528 138.862C58.0339 138.78 58.0426 138.744 58.0149 138.699L57.9156 138.791Z" class="pineapple"/>
<path d="M46.751 162.736C44.2761 164.563 42.3157 167.127 40.7724 169.716C39.6926 171.493 38.4893 173.625 38.0286 175.704C37.8295 176.694 37.2219 183.387 39.6662 180.247C41.0541 178.467 40.8682 173.158 42.2125 170.599C43.7079 167.731 45.7497 165.147 48.2129 163.049C47.7028 161.812 47.2466 160.511 46.9443 159.209C48.0415 159.28 51.192 158.961 51.0743 158.971C47.0301 158.692 44.6527 157.391 46.751 162.736Z" class="pineapple"/>
<path d="M34.5055 183.658C34.7048 183.629 34.8954 183.637 35.086 183.644C35.0569 183.444 35.0278 183.245 34.9624 183.037L34.5055 183.658Z" class="pineapple"/>
<path d="M37.9368 184.251C38.7332 184.135 36.2104 183.76 35.8021 183.701C35.7541 183.42 35.7338 183.185 35.7222 182.913L35.1583 183.661L34.6119 184.337C34.8023 184.344 34.9927 184.352 35.1917 184.323C35.135 185.999 36.3542 187.483 36.1333 189.044C35.9632 190.233 34.76 191.404 34.4272 192.63C34.8341 192.536 35.4052 192.558 35.9864 192.697C37.4136 188.352 36.5983 188.387 35.898 184.261C36.5592 184.228 37.2567 184.203 37.9368 184.251Z" class="pineapple"/>
<path d="M34.7806 202.205C34.6455 201.327 34.538 200.494 34.4683 199.824C34.4668 200.631 34.522 201.682 34.7806 202.205Z" class="pineapple"/>
<path d="M35.9441 209.517C36.5181 209.846 36.8117 209.264 36.6751 209.192C36.2479 209.052 35.8294 208.874 35.4021 208.733C35.2001 208.454 34.9429 208.085 34.831 207.751C35.4705 207.328 35.0825 204.622 34.7425 202.197C34.4839 201.674 34.4563 200.668 34.4302 199.816C34.3706 199.264 34.3575 198.838 34.4186 198.584C34.4287 198.702 34.4156 199.237 34.4302 199.816C34.4999 200.486 34.6074 201.319 34.7425 202.197C34.8719 202.458 35.0361 202.575 35.2802 202.518C36.2015 202.201 35.632 199.452 35.4169 198.747C36.8265 200.238 37.0052 201.895 37.6024 203.729C36.9863 201.813 36.9849 199.738 35.3777 197.47C35.3661 197.198 35.2731 196.945 35.2527 196.71L34.9461 196.866C34.8909 196.776 34.8357 196.686 34.7805 196.596C34.8212 196.106 34.9796 195.607 35.0929 195.134C34.5465 194.849 34.1164 194.4 33.9042 194.004C33.8156 194.213 33.7269 194.422 33.6746 194.64C33.0846 196.458 30.5035 207.212 33.9272 207.995L33.6583 208.315C33.8487 208.322 34.039 208.329 34.2207 208.373L33.6743 209.049C34.01 209.091 34.3456 209.133 34.7177 209.184C36.0153 212.262 33.2222 213.973 32.8792 217.003C32.9242 216.976 32.9606 216.984 33.0056 216.957C33.4968 217.152 33.924 217.292 34.36 217.397C34.6274 215.002 37.4147 211.714 35.9441 209.517Z" class="pineapple"/>
<path d="M32.6567 218.256C32.151 220.363 34.2069 234.689 35.9842 231.926C35.6107 231.721 35.2373 231.516 34.8188 231.339C35.2009 231.508 35.5744 231.713 35.9842 231.926C37.3953 229.729 33.2888 221.866 34.2073 218.359C33.6623 218.228 33.1363 218.179 32.6567 218.256Z" class="pineapple"/>
<path d="M38.9809 247.13C38.4723 246.048 38.0349 244.829 37.7428 243.644C39.2338 244.156 38.6002 246.155 39.552 247.152C41.0662 247.247 40.2525 245.514 39.7744 244.785C39.7628 244.513 39.6145 244.17 39.3864 244C39.2367 243.503 38.7136 242.801 38.3474 242.406L37.9986 242.899C37.8533 242.864 37.708 242.829 37.5714 242.758C37.6629 242.857 37.7908 242.964 37.8736 243.099L37.6411 243.428C37.0643 240.869 37.9915 235.405 35.6941 233.931C36.2114 234.017 36.473 233.887 36.4236 233.453C36.0836 232.949 35.5764 232.981 34.9384 233.558C34.7655 233.478 34.5839 233.434 34.4197 233.318C34.4473 233.363 34.4574 233.48 34.4676 233.598C34.2685 233.627 34.0331 233.648 33.8427 233.64C33.9982 233.793 34.1537 233.945 34.3179 234.062C34.0854 234.39 34.0941 234.354 34.4821 234.178C36.8261 235.778 35.6184 239.369 35.8683 241.849C36.0499 243.814 36.5381 245.622 37.1891 247.392C37.7297 247.061 38.3357 246.937 38.9809 247.13Z" class="pineapple"/>
<path d="M39.3418 247.871C38.5818 247.996 37.8915 247.83 37.2536 247.446C37.8668 249.054 38.6151 250.578 39.5088 252.137C40.4243 252.165 41.3572 252.12 42.2713 251.994C41.2163 250.626 40.1177 249.44 39.3418 247.871Z" class="pineapple"/>
<path d="M33.8158 233.595C33.752 233.698 33.7891 233.706 33.8723 233.687C33.853 233.604 33.853 233.604 33.8158 233.595Z" class="pineapple"/>
<path d="M34.3569 233.264C34.3569 233.264 34.4223 233.319 34.4594 233.328C34.4683 233.291 34.4312 233.282 34.3569 233.264Z" class="pineapple"/>
<path d="M52.0839 265.376C49.708 263.269 48.2331 260.609 46.8294 257.813C48.8405 259.679 49.5351 261.268 52.2032 260.717C55.1881 260.127 58.9869 253.585 54.1622 256.077C52.539 256.917 52.3253 259.248 50.4478 259.066C48.0806 258.844 45.7745 254.525 44.2748 253.089C44.3416 253.451 44.3721 253.804 44.33 254.14C44.8444 254.878 45.1786 255.727 45.648 256.492C44.9563 256.173 43.8518 256.292 43.365 255.599C43.1122 255.692 42.9596 255.847 42.8622 256.093C45.5636 259.085 47.4004 262.638 50.2573 265.783C50.9257 266.519 59.4093 273.435 57.7527 268.811C57.4084 267.845 52.8425 266.057 52.0839 265.376Z" class="pineapple"/>
<path d="M135.172 238.405C132.068 240.772 128.376 236.466 127.371 233.766C126.851 232.412 127.576 230.511 126.976 229.33C126.192 227.797 125.137 226.429 124.613 229.569C118.885 234.227 112.624 243.982 105.184 236.24C103.125 234.094 101.935 225.125 100.39 224.677C100.857 224.175 100.416 223.608 100.246 223.836C100.023 224.128 99.8075 224.384 99.5837 224.676C99.3309 224.769 99.1245 224.988 99.0548 225.279C94.8012 229.714 90.2162 237.451 84.2292 231.979C80.9843 229.01 79.7216 223.866 78.3062 219.838C77.9604 219.678 77.85 219.498 78.0752 219.36C77.1147 218.399 76.2311 219.839 76.3648 220.563C72.6198 223.199 67.7079 228.936 62.7686 225.983C60.1805 224.439 57.8164 213.959 55.8023 214.667C52.4875 215.831 60.7312 227.108 62.7322 227.895C69.1175 230.427 71.8191 223.813 76.5072 221.25C77.4008 225.691 80.461 232.151 84.4718 234.65C90.4239 238.346 92.8306 233.122 96.1933 229.356C96.0931 229.294 95.9928 229.232 95.9289 229.178C96.0378 229.204 96.1919 229.202 96.3009 229.229C97.1888 228.251 98.1494 227.29 99.0097 226.267C98.9573 227.446 99.043 228.849 99.4252 229.979C99.8539 230.274 100.102 230.679 100.499 231.427C100.345 231.429 100.163 231.385 100.009 231.387C101.586 235.223 104.189 239.267 108.468 240.487C115.91 242.619 120.105 234.904 124.558 230.44C124.349 235.154 130.947 244 135.989 239.485C135.807 239.441 135.625 239.398 135.48 239.363C135.522 239.027 135.41 238.693 135.172 238.405Z" class="pineapple"/>
<path d="M124.521 219.711C122.935 217.832 119.609 209.118 117.611 208.639C113.57 207.707 122.111 219.824 123.173 221.001C127.725 226.051 130.81 223.602 134.224 218.505C134.187 218.496 133.642 218.365 133.45 218.204C130.608 221.402 128.122 223.918 124.521 219.711Z" class="pineapple"/>
<path d="M151.344 208.975C151.094 209.376 153.884 211.198 154.558 211.591C153.323 213.215 151.056 214.016 150.021 215.765C148.978 217.551 149.509 220.138 148.812 222.084C144.42 225.333 141.26 221.693 140.567 217.377C140.413 216.418 140.985 214.672 140.706 213.914C140.231 212.532 138.935 209.608 138.262 213.212C137.716 213.888 137.069 214.501 136.367 215.024C135.379 215.939 134.428 217.018 133.532 218.032C133.831 218.065 134.13 218.099 134.438 218.096C135.504 216.699 136.932 215.39 138.162 214.11C138.753 219.17 141.344 227.745 148.127 223.495C146.837 226.951 144.359 229.43 141.938 232.153C141.575 232.066 139.802 231.448 139.799 232.1C139.813 232.68 141.352 232.512 141.707 232.635C141.7 232.826 141.801 233.042 141.948 233.231C140.406 234.052 138.681 235.636 137.205 236.665C137.371 236.935 137.654 237.195 137.974 237.464C138.735 236.533 142.298 234.814 142.415 233.689C142.797 233.857 143.122 233.782 143.374 233.535C143.647 233.677 143.884 233.811 144.157 233.953C140.688 237.04 141.117 236.374 140.027 240.916C139.146 244.585 137.08 247.432 134.249 249.941C134.446 248.797 134.432 245.336 133.374 245.582C130.38 246.208 132.963 249.056 133.493 250.528C132.89 250.96 129.956 253.099 130.045 253.85C130.094 254.285 130.354 255.922 131.335 255.197C134.911 258.707 128.469 256.892 127.728 259.98C127.138 259.876 122.049 260.269 122.161 260.603C121.654 260.635 119.57 260.673 119.805 261.613C119.994 262.427 125.856 261.375 126.9 261.51C123.926 266.214 120.205 266.512 115.662 269.11C115.69 269.155 115.681 269.191 115.709 269.236L115.745 269.245L115.772 269.29C115.736 269.281 115.736 269.281 115.7 269.272C115.7 269.272 115.7 269.272 115.709 269.236C115.636 269.219 115.563 269.201 115.482 269.22C114.635 269.708 112.715 269.862 113.662 271.358C111.032 271.111 108.43 266.106 107.563 266.513C104.387 267.902 111.297 274.171 115.241 272.467C114.947 274.97 110.712 273.723 109.294 274.19C107.126 274.899 105.456 276.573 103.06 277.112C101.713 277.442 90.667 276.558 94.6792 279.212C97.369 280.972 104.155 278.95 106.527 277.714C107.934 276.976 109.258 275.142 110.584 274.576C112.299 273.835 115.608 275.898 115.809 272.18C121.064 269.177 125.3 266.735 128.513 261.513C128.549 261.521 128.549 261.521 128.594 261.494L128.593 261.34C130.069 258.39 134.997 258.189 131.794 254.885C136.042 251.755 140.437 246.892 141.41 241.555C141.583 240.674 141.092 237.598 141.511 236.815C142.188 235.594 144.323 235.184 145.253 233.871L144.013 233.112C147.475 230.216 149.409 225.839 150.656 221.604C150.954 221.484 150.989 221.338 150.769 221.132C151.534 215.706 151.691 216.012 155.664 211.625C154.952 211.07 151.639 208.546 151.344 208.975ZM110.403 271.651C111.669 271.34 112.33 271.307 113.309 272.349C112.356 272.158 111.384 271.887 110.403 271.651ZM116.487 271.114C115.95 270.793 115.065 270.157 115.756 269.517C116.541 270.089 116.872 270.63 116.487 271.114Z" class="pineapple"/>
<path d="M133.406 218.234C133.46 218.169 133.514 218.105 133.568 218.041C133.495 218.023 133.45 218.051 133.377 218.034C133.286 218.089 133.342 218.18 133.406 218.234Z" class="pineapple"/>
<path d="M114.393 93.8284C114.892 96.8685 115.599 99.6891 115.474 102.771C116.316 102.782 117.123 102.783 117.974 102.757C117.534 100.269 116.582 95.4298 114.393 93.8284Z" class="pineapple"/>
<path d="M107.049 149.238C102.596 151.781 101.219 153.679 97.9941 149.024C96.2852 146.539 95.3872 143.557 94.0838 140.824C95.3335 140.74 99.2165 139.289 100.18 138.637C100.729 138.269 96.2476 138.692 95.9483 138.659C92.7207 138.499 94.6767 139.314 92.9271 137.319C92.2311 136.537 91.1558 131.092 90.2489 135.831C90.1109 136.566 91.7195 139.949 92.3123 140.36C90.6557 141.5 95.5731 148.866 96.6644 150.242C100.461 155.073 103.173 154.34 107.691 150.084C107.181 149.808 106.943 149.52 107.049 149.238Z" class="pineapple"/>
<path d="M114.551 103.895C114.201 104.233 113.932 104.553 114.045 105.041C114.118 105.059 114.191 105.076 114.263 105.094C114.305 104.758 114.393 104.395 114.544 104.085C114.553 104.049 114.534 103.967 114.551 103.895Z" class="pineapple"/>
<path d="M108.132 93.978C108.328 94.6015 108.516 95.2612 108.667 95.9122C108.712 95.8846 108.766 95.8207 108.811 95.7931C109.556 95.0883 109.016 94.4591 108.132 93.978Z" class="pineapple"/>
<path d="M152.16 81.0306L152.151 81.0669C152.567 80.9361 152.955 80.7603 153.307 80.5758C152.927 80.7153 152.548 80.8548 152.16 81.0306Z" class="pineapple"/>
<path d="M103.553 85.0403C103.775 85.5547 103.989 86.1055 104.211 86.6199C91.3204 74.5349 65.8604 79.7585 65.8604 79.7585C82.4602 79.5932 93.606 85.3423 101.036 92.9659C101.706 92.8962 102.212 92.7102 102.417 92.3367C102.752 92.3789 103.115 92.4661 103.451 92.5082C103.474 93.0517 104.444 93.976 104.96 92.9471C105.141 92.9907 106.975 93.3541 108.168 93.9862C107.234 90.9955 105.993 88.1618 103.553 85.0403Z" class="pineapple"/>
<path d="M120.82 139.249L120.783 139.24C121.174 139.372 121.548 139.577 121.885 139.774C121.593 139.55 121.21 139.381 120.82 139.249Z" class="pineapple"/>
<path d="M145.843 103.183C145.888 103.155 145.97 103.136 146.006 103.145C144.23 103.18 142.42 103.36 140.565 103.722C142.402 103.433 144.168 103.28 145.843 103.183Z" class="pineapple"/>
<path d="M191.722 83.803C191.484 83.5153 191.246 83.2275 191.044 82.9485C191.214 82.7204 191.503 82.6361 191.866 82.7233C180.913 65.6088 156.037 68.3983 142.003 79.323C151.465 68.8763 162.082 60.8201 172.393 60.6053C172.393 60.6053 156.531 46.8083 135.974 74.1873C141.868 64.9975 148.495 59.4799 158.659 55.2339C164.553 52.768 177.665 47.9234 181.064 56.6542C184.856 42.618 171.905 42.468 161.343 43.8904C161.852 44.973 159.667 45.9088 160.148 44.0647C149.236 45.8257 135.049 52.9097 130.593 63.7896C129.904 65.6991 125.81 84.1967 125.701 84.1705C123.941 83.9786 128.38 68.3686 128.845 66.7512C131.233 58.564 132.096 50.1646 131.045 41.5747C130.026 33.338 127.034 23.5522 119.918 18.4629C114.457 11.1198 96.3702 12.1962 96.3702 12.1962C100.962 12.9142 104.611 15.4806 107.562 19.0323C108.006 18.9465 108.79 19.5191 108.333 19.9856C109.332 21.263 110.225 22.6682 111.063 24.1374C111.503 23.7436 112.298 22.5128 113.099 22.8586C113.438 23.2089 113.377 23.4632 112.88 23.6129C113.093 24.1636 113.27 24.7057 113.493 25.2201C113.236 25.8115 112.73 25.9975 111.976 25.7781C113.609 28.8981 114.946 32.2928 116.101 35.6439C116.256 35.7965 116.303 35.9229 116.24 36.0232C116.716 37.4052 117.182 38.8235 117.593 40.1517C118.313 40.5165 118.871 41.0731 119.276 41.7851C118.895 41.7706 118.478 41.7473 118.098 41.7328C121.631 53.2625 119.725 64.4084 117.896 76.1879C117.5 70.6367 116.692 65.6784 115.608 61.2302C114.926 61.0282 114.968 60.6925 115.383 60.4077C115.383 60.4077 115.383 60.4077 115.419 60.4164C111.26 44.126 103.218 35.0492 96.5935 30.1547C95.6504 30.082 94.1798 29.8059 94.2859 28.5634C93.0551 27.7685 91.9347 27.1538 90.9058 26.6378C90.7096 26.975 90.4408 27.2947 90.1443 27.5693C92.3197 29.5515 92.5158 31.1355 92.68 33.1729C93.129 33.7033 93.1508 34.0928 92.773 34.3863C93.5633 42.2989 100.126 47.2937 102.92 54.381C103.128 54.3156 103.436 54.3127 103.644 54.2473C104.989 54.724 106.306 55.0016 107.601 54.8897C109.659 55.9215 103.834 55.2151 103.18 55.0582C104.565 58.7333 105.694 63.154 106.682 68.0018C107.21 68.2053 107.737 68.4088 108.256 68.6485C108.154 69.3926 109.514 70.4491 108.015 70.9344C107.757 70.5653 107.419 70.2151 107.035 69.8924C107.465 72.2626 107.878 74.7054 108.237 77.2122C109.274 78.6523 114.804 86.5113 113.27 88.2565C113.01 88.5399 109.382 79.485 108.372 78.0899C108.41 78.2527 108.411 78.4067 108.449 78.5695C101.706 67.9218 87.9565 58.9349 75.4475 56.624C65.6981 54.8218 58.0672 63.4027 53.7815 71.1728C64.8304 59.8775 87.4579 66.615 97.7956 76.0508C101.479 79.4325 105.894 86.3323 108.438 90.939C110.264 94.2204 111.082 98.3358 111.66 102.009C112.721 102.072 113.667 102.453 114.701 102.624C115.166 100.046 114.857 96.0529 114.072 93.5593C113.863 93.4706 114.014 93.1611 114.151 93.2323C114.269 93.2221 114.341 93.2396 114.315 93.3486C117.234 95.4325 118.044 99.5843 119.044 102.783C119.497 102.815 119.933 102.919 120.298 103.161C120.271 103.27 120.282 103.387 120.255 103.496C119.894 103.563 119.532 103.63 119.179 103.661C119.45 106.531 118.157 106.796 118.111 103.788C117.287 103.86 116.435 103.886 115.464 103.768C115.46 104.266 115.338 104.775 115.224 105.247C115.479 105.308 115.733 105.369 115.987 105.43C115.996 106.355 115.621 106.956 114.826 107.227C114.677 107.69 114.511 110.301 113.539 110.03C112.675 109.784 113.508 107.755 113.667 107.256C113.594 107.238 113.513 107.257 113.44 107.24C113.251 106.426 113.026 105.603 112.837 104.789C112.588 104.384 112.413 103.996 112.327 103.553C112.136 103.546 111.955 103.502 111.801 103.503C111.908 104.336 110.965 104.263 110.778 103.604C108.283 104.234 107.848 102.363 110.346 102.04C109.655 99.7991 109.174 97.801 108.675 95.8755C107.155 97.086 104.291 95.0921 102.665 94.6634C105.679 98.1148 108.12 101.39 108.716 105.952C107.87 104.673 106.869 103.242 105.686 101.767C102.997 101.121 100.449 99.8948 97.798 99.4123C99.7278 101.297 100.884 102.881 100.219 103.413C100.165 103.477 87.9049 91.0054 86.4938 90.3209C87.4863 90.8281 94.0387 95.7051 97.798 99.4123C98.3313 99.2714 98.8399 99.3934 99.3049 99.6972C100.991 99.7176 102.142 99.7249 103.84 100.171C104.124 100.431 104.461 100.627 104.888 100.768C95.9061 90.0058 78.6905 76.729 61.8914 85.5683C61.8914 85.5683 92.0362 95.724 102.113 119.852C92.2116 110.52 74.3098 108.106 74.3098 108.106C76.1713 109.475 77.9602 110.827 79.6677 112.197C79.9525 111.651 80.5469 111.255 81.8344 111.334C81.6135 111.934 81.0191 112.329 79.7592 112.296C86.807 117.83 92.5746 123.095 97.0198 127.466L94.1571 126.587C94.1571 126.587 83.0593 116.315 76.9092 126.251C76.9092 126.251 79.8069 123.142 84.0458 125.812L84.6981 130.618C83.1781 130.868 80.3328 129.916 78.881 130.682C80.0306 128.614 77.3364 127.352 76.8117 129.378C75.3456 124.761 61.7333 136.171 60.745 139.008C60.8831 139.233 61.056 139.313 61.3001 139.256C64.2851 132.903 71.0323 132.486 76.6794 130.729C76.601 131.056 76.614 131.482 76.5719 131.818C75.9034 132.042 75.9484 133.935 75.9077 134.425C73.7279 135.823 69.8565 138.505 67.4704 139.162C65.4998 139.688 60.1696 138.524 62.7707 141.454C61.7884 141.064 60.4325 140.47 59.5752 139.88C59.4168 139.419 59.2584 138.958 59.0637 138.489L58.3807 139.094L58.1075 138.951C58.1176 139.069 58.1641 139.195 58.1743 139.313L57.5814 139.862C57.872 139.932 58.1627 140.002 58.4359 140.144C59.6637 143.513 55.2358 143.872 53.1853 146.492C51.7888 148.308 49.9461 150.863 49.5696 153.231C49.4083 154.384 49.5651 160.454 51.8147 157.805C52.3974 157.138 51.8584 152.82 52.2726 151.575C52.8365 149.866 54.1938 147.733 55.477 146.389C57.0741 144.697 60.9411 143.474 59.9196 140.846C60.4747 141.095 63.926 142.884 64.0277 142.14C68.3495 143.023 72.6075 137.129 76.0152 135.258C76.9713 139.598 75.534 145.747 82.1925 144.579C84.7254 144.111 88.8627 141.761 90.9161 140.41C90.9772 140.155 90.8754 139.939 90.6299 139.841C85.1033 142.857 76.5875 146 78.2647 136.451C77.1661 136.225 76.4555 135.824 76.1097 134.704C76.38 133.578 76.6416 132.488 76.9032 131.398C77.2651 131.331 77.5993 131.219 77.9612 131.152C79.2327 131.458 80.4679 131.754 81.7481 132.023C82.5881 131.725 83.9439 131.359 84.8057 131.45L85.4101 135.976C91.9206 126.78 103.794 138.621 108.369 144.214C108.369 144.214 109.191 143.029 110.275 141.714C110.777 142.987 111.625 145.534 113.276 145.7C112.897 145.839 112.5 146.051 112.439 146.306C112.189 145.746 108.8 148.66 108.005 148.93C108.431 148.917 108.876 148.985 109.284 149.045C110.256 148.356 111.643 147.382 112.404 146.451C112.948 149.309 116.838 155.353 120.132 155.875C123.572 156.432 126.496 152.254 129.088 150.417C130.085 153.308 130.033 156.407 128.529 159.312C128.529 159.312 131.404 158.696 133.215 156.595C132.897 156.48 132.579 156.365 132.288 156.295C132.364 155.66 132.33 154.999 131.916 154.323C132.733 154.443 133.487 154.662 134.269 154.926C135.764 151.097 132.864 147.174 131.023 144.119C130.545 144.35 130.109 144.245 129.742 143.85C130.056 143.503 130.382 143.427 130.683 143.615C128.031 139.136 127.262 137.376 127.262 137.376C127.262 137.376 138.155 137.455 140.775 144.308C139.797 145.341 140.526 145.824 141.295 146.623C141.368 147.601 141.333 148.707 141.081 149.915C141.081 149.915 141.515 148.751 141.734 147.036C145.017 149.207 148.142 155.874 147.744 159.775C147.096 159.273 146.67 159.286 146.43 159.805C146.535 160.33 146.917 160.498 147.631 160.247C147.571 160.655 148.215 160.695 148.212 160.386C149.874 160.824 151.509 161.216 153.144 161.609C152.372 162.423 151.609 163.2 150.865 164.059C149.373 162.433 146.063 161.177 143.841 161.95C145.006 161.577 148.699 163.001 149.778 164.105C148.792 164.214 142.251 165.372 144.586 166.048C145.949 166.452 149.261 164.98 150.727 164.794C152.589 168.084 153.504 170.993 152.59 174.962C152.407 175.725 148.056 184.248 151.249 181.671C155.662 183.614 155.549 185.047 152.107 188.179C154.052 194.486 152.857 198.502 150.738 204.449C150.317 203.963 143.055 208.445 141.747 208.131C138.541 207.4 137.049 201.931 136.164 199.375C135.25 196.62 133.333 191.319 133.16 197.002C133.08 200.057 136.341 205.681 138.525 207.627C140.101 207.467 141.427 207.862 142.506 208.812C142.801 209.344 141.004 209.144 140.56 209.075C143.648 210.777 147.957 206.432 150.562 205.021C149.87 207.583 150.322 208.422 152.261 206.428C153.572 205.129 154.245 201.525 154.527 199.71C155.205 195.762 154.836 192.177 153.55 188.41C157.092 184.38 155.624 183.452 151.653 181.269C155.12 178.028 156.29 167.551 152.173 164.373C153.24 163.13 154.215 161.789 155.118 160.43C152.71 160.698 150.539 160.138 148.152 159.834C148.43 154.675 146.575 147.199 141.744 144.272C141.474 139.635 138.664 133.735 126.415 133.062C127.054 132.639 127.822 132.323 128.725 132.079C128.426 132.046 123.401 130.571 124.311 129.982C125.482 129.264 130.937 131.189 130.237 131.866C132.728 131.734 136.115 132.508 140.79 135.282C140.79 135.282 137.279 130.06 132.171 127.489C136.224 127.732 140.781 128.595 145.809 130.378C146.206 130.166 147.278 130.5 147.364 130.943C148.21 131.262 149.083 131.625 149.984 132.033C149.984 132.033 145.543 119.479 130.297 120.891C135.653 119.065 141.411 119.409 146.514 120.557C146.414 120.495 146.314 120.432 146.205 120.406C147.09 119.12 149.676 119.549 149.657 121.389C157.182 123.656 162.726 127.292 162.726 127.292C153.679 117.282 146.263 112.159 140.211 110.322C152.12 103.767 167.741 106.556 179.954 111.063C169.745 102.849 155.552 95.8694 142.485 100.686C158.774 93.4921 174.604 95.2552 174.604 95.2552C166.31 92.1887 159.081 90.4534 152.822 89.7964C153.051 90.1205 153.118 90.4824 153.095 90.8994C152.944 91.209 152.829 91.5272 152.678 91.8367C149.792 93.2956 146.548 93.3624 143.443 92.6939L143.361 92.7128L143.407 92.6852C143.626 91.931 143.809 91.168 144.029 90.4138C145.39 90.6638 146.513 90.6261 147.215 90.1029C147.195 89.8675 147.194 89.7135 147.156 89.5507C146.848 89.5536 146.503 89.5478 146.195 89.5507C148.326 87.7183 150.27 86.3407 151.931 85.6636C151.895 85.6548 149.894 84.8672 150.453 84.6172C151.139 84.3208 153.062 84.4749 153.639 85.1128C165.802 81.5005 192.057 79.8489 195.634 94.0786C195.634 94.0786 195.479 89.1232 192.311 83.7522C192.183 83.6446 191.939 83.7013 191.722 83.803ZM143.952 61.1175C145.904 62.4313 142.583 61.0579 142.673 61.0027C142.809 60.9199 143.499 61.0856 143.952 61.1175ZM116.035 18.9525C115.87 18.8363 115.715 18.6837 115.551 18.5674C116.022 18.5268 116.837 18.4919 116.035 18.9525ZM116.707 32.6387C117.397 32.8044 118.051 32.9613 118.742 33.127C117.595 33.5818 117.522 33.5644 116.707 32.6387ZM118.922 40.7011C119.879 39.4324 121.67 39.9774 122.463 38.5926C121.863 38.3717 121.245 38.2234 120.555 38.0577C121.209 38.2147 121.863 38.3717 122.517 38.5286C122.508 38.5649 122.508 38.565 122.463 38.5926C123.063 38.8135 123.691 39.0794 124.293 39.4543C124.066 40.3989 123.839 41.3435 123.621 42.2517C122.031 41.8317 120.718 40.9016 118.922 40.7011ZM100.053 37.6707C101.005 36.7465 100.178 34.5885 102.546 36.732C102.204 37.9948 102.204 37.9948 100.053 37.6707ZM83.5387 65.1748C84.1446 65.0513 78.9597 64.8826 79.7604 63.3074C81.3575 61.6159 86.0527 64.6256 83.5387 65.1748ZM74.4687 90.3162C75.3246 89.7916 75.9611 90.0212 76.3418 90.9964C75.5208 91.3756 74.8843 91.146 74.4687 90.3162ZM77.3679 87.362C77.1978 87.5901 75.2869 86.7472 77.054 86.7487C77.5452 86.9434 77.4928 87.1614 77.3679 87.362ZM84.4963 126.497C84.3132 126.299 84.4033 126.244 84.7302 126.322C84.9133 126.52 84.8232 126.575 84.4963 126.497ZM91.9496 129.861L94.2267 130.138C93.4929 130.154 92.7125 130.044 91.9496 129.861ZM127.346 145.35C127.454 145.222 127.698 145.165 127.869 145.091C128.69 145.672 128.555 146.716 127.432 146.754C126.888 146.777 127.284 145.45 127.346 145.35ZM123.911 151.979C124.3 151.957 124.689 151.936 125.051 151.869C127.061 152.62 123.509 153.65 123.911 151.979ZM125.634 141.596C126.214 141.582 126.66 141.804 127.009 142.272C127.151 142.959 124.54 141.833 125.634 141.596ZM131.477 123.019C131.976 123.177 132.485 123.299 133.021 123.466C133.369 123.78 133.752 124.103 134.099 124.417C133.553 125.092 132.511 125.111 131.057 124.609C130.788 123.968 130.773 123.388 131.477 123.019ZM137.316 59.7935C138.461 60.1452 136.877 60.3414 136.292 59.8938C136.463 59.6656 136.888 59.6525 137.316 59.7935ZM132.524 64.8679C135.511 65.3926 133.335 67.2526 133.354 67.334C133.409 67.4241 129.792 64.4043 132.524 64.8679ZM124.642 59.2875C124.977 59.1756 125.258 59.2817 125.488 59.6058C125.289 59.6348 125.054 59.6552 124.854 59.6842C124.5 59.5607 124.417 59.4255 124.642 59.2875ZM117.918 77.5379C118.772 77.8199 118.748 78.0829 117.88 78.3357C116.726 78.0204 116.76 77.721 117.918 77.5379ZM116.498 74.9687C117.489 75.3218 117.582 75.5747 116.805 75.7723C116.54 75.5935 116.24 75.4061 115.984 75.191C116.147 75.1532 116.308 74.9614 116.498 74.9687ZM113.389 56.548C112.26 56.9301 111.741 56.6903 111.815 55.9012C112.357 55.724 112.937 55.7095 113.482 55.8403C113.556 56.0117 113.621 56.2195 113.659 56.3823C113.569 56.4375 113.479 56.4927 113.389 56.548ZM110.322 78.289C110.023 78.2556 109.696 78.1771 109.36 78.135C109.414 78.0711 109.431 77.9984 109.421 77.8807C109.782 77.6598 111.325 76.9928 111.469 77.8342C111.265 78.3617 110.886 78.5012 110.322 78.289ZM113.898 76.0352C114.079 75.9248 110.717 76.9623 111.443 76.0221C112.128 75.7257 112.871 75.6734 113.67 75.8652L114.087 75.8885L113.898 76.0352ZM122.325 92.3126C121.731 87.9051 120.034 81.8496 115.737 79.7424C115.962 80.5649 118.608 90.1909 117.223 90.358C116.427 90.4742 114.655 79.4444 114.343 78.0247C114.653 78.1758 114.998 78.3357 115.308 78.4868L115.398 78.4316C115.426 78.4766 115.417 78.513 115.445 78.558C119.479 80.6405 121.282 84.493 122.21 88.7886C124.737 88.6652 125.075 88.8614 126.212 90.364C125.29 90.5267 124.376 90.6531 123.453 90.8159C123.161 90.5921 122.832 90.3596 122.54 90.1358C123.184 93.0567 122.658 96.8495 122.961 99.2662C122.623 96.9948 122.655 94.6203 122.325 92.3126ZM120.802 105.702C120.706 106.102 120.482 106.394 119.631 106.42C119.726 106.02 120.059 105.755 120.802 105.702ZM100.274 114.069C96.4216 106.267 92.3064 96.5189 85.8922 90.9065C89.775 94.2591 93.2524 98.8207 95.9392 103.154C97.0247 104.875 98.0477 106.696 98.953 108.527C99.6186 109.916 100.708 114.98 100.274 114.069ZM104.162 134.367C103.773 134.389 101.465 124.153 100.983 122.961C100.682 122.774 100.418 122.595 100.108 122.444L100.557 122.014C100.474 121.879 100.391 121.744 100.309 121.608C100.445 121.68 100.582 121.751 100.718 121.822L101.122 121.419C101.343 121.78 101.528 122.132 101.667 122.511C104.716 124.856 105.461 127.994 106.458 130.884C105.48 128.075 104.591 126.017 102.307 124.009C102.743 125.074 105.774 134.216 104.162 134.367ZM103.991 104.664C105.235 106.846 109.878 120.639 108.114 120.946C108.313 120.917 103.43 105.721 102.378 103.701C102.114 103.522 101.813 103.335 101.512 103.147L101.835 102.763C101.697 102.538 101.559 102.313 101.412 102.124C101.613 102.249 101.849 102.383 102.05 102.508L102.373 102.124C102.602 102.448 102.823 102.809 103.089 103.141C110.436 107.748 110.814 114.178 113.367 120.67C110.953 114.558 110.143 108.331 103.991 104.664ZM117.905 138.742C117.797 138.87 117.726 139.006 117.619 139.134C117.3 139.019 115.764 138.536 116.058 137.953C116.396 137.342 117.786 138.598 117.905 138.742C118.91 138.714 119.872 138.868 120.746 139.232L120.782 139.24C121.173 139.373 121.519 139.533 121.847 139.765C121.474 139.56 121.137 139.364 120.746 139.232C119.928 138.958 118.957 138.841 117.905 138.742ZM126.121 124.039C123.606 126.355 117.873 135.353 117.171 134.916C115.485 133.935 123.541 126.147 126.121 124.039C126.418 123.764 126.652 123.59 126.823 123.516C126.697 123.562 126.463 123.736 126.121 124.039ZM118.17 126.433C117.107 127.177 110.962 133.733 110.898 133.679C108.94 132.71 117.052 126.127 118.133 125.464C121.205 123.55 124.312 123.412 127.097 122.697C123.734 123.581 121.041 124.395 118.17 126.433ZM145.978 103.1C145.933 103.128 145.897 103.119 145.816 103.138C146.205 103.116 146.595 103.094 146.984 103.073C146.791 103.718 137.493 107.557 136.216 108.557C135.037 109.465 125.026 119.319 124.679 119.005C121.846 116.558 142.863 104.235 145.816 103.138C144.14 103.235 142.374 103.388 140.546 103.641C136.692 104.329 132.799 105.662 129.48 107.324C129.078 107.881 128.925 108.036 128.434 107.842C127.315 108.341 119.322 114.107 119.25 114.09C117.22 113.103 126.492 107.606 127.414 107.289C127.35 107.236 127.314 107.227 127.25 107.173C127.52 107.007 127.837 106.968 128.181 106.974C132.196 105.133 136.537 104.177 140.591 103.613C142.383 103.352 144.239 103.144 145.978 103.1ZM133.452 93.1775C134.357 94.048 134.837 94.9316 134.992 96.0447C134.122 95.9895 133.286 95.7889 132.522 95.4518C132.242 94.5392 133.369 94.003 133.452 93.1775ZM142.027 98.2712C141.633 98.7914 141.795 99.5602 140.327 99.5921C137.101 97.6651 137.101 97.6651 136.3 96.3586C138.182 97.0025 140.109 97.6187 142.027 98.2712ZM140.481 91.9062C141.545 91.3162 141.727 91.3598 142.488 92.3494C141.834 92.1925 141.172 92.0719 140.481 91.9062ZM151.375 81.4188C149.254 82.4083 136.313 95.8239 137.033 96.1886C134.465 94.8807 147.756 83.0477 150.09 81.6483C149.565 81.753 149.041 81.8576 148.507 81.9985C145.063 82.9009 141.897 84.4078 138.926 86.5381C137.855 87.3184 136.722 88.199 135.77 89.1232C134.674 90.1666 133.836 91.579 132.758 92.5498C132.803 92.5221 129.392 96.0068 130.371 94.1671C132.74 89.7407 137.103 86.2924 141.531 84.0125C143.641 82.9052 146.165 82.4737 148.544 82.0072C149.113 81.875 149.692 81.7065 150.253 81.6106C150.208 81.6382 150.163 81.6658 150.118 81.6934C150.85 81.5234 151.546 81.3447 152.215 81.1209L152.223 81.0846C152.575 80.9 152.991 80.7692 153.37 80.6297C153.018 80.8143 152.639 80.9538 152.215 81.1209C152.2 81.5016 151.938 81.631 151.375 81.4188ZM180.014 73.193C180.433 73.3703 180.815 73.5388 181.242 73.6798C180.693 74.0475 180.103 73.9443 179.536 73.424C179.443 73.1712 179.623 73.0607 180.014 73.193ZM175.472 73.87C175.732 73.5867 176.312 73.5722 176.929 73.7204C179.309 74.3686 175.175 75.1053 175.472 73.87ZM177.737 81.5604C177.923 81.1055 178.301 80.812 178.862 80.7161C179.523 81.6433 179.478 81.6709 177.737 81.5604ZM176.611 77.4478C177.811 76.9291 178.991 77.1355 180.168 77.9943C181.127 78.8009 176.213 78.4665 176.611 77.4478Z" class="pineapple"/>
<path d="M148.507 81.9985C149.032 81.8938 149.593 81.798 150.09 81.6483C150.135 81.6207 150.18 81.5931 150.225 81.5655C149.619 81.689 149.041 81.8575 148.507 81.9985Z" class="pineapple"/>
<path d="M126.122 124.04C126.455 123.773 126.734 123.571 126.824 123.516C126.653 123.59 126.382 123.756 126.122 124.04Z" class="pineapple"/>
<path d="M120.556 38.0579C121.246 38.2235 121.864 38.3718 122.464 38.5927C122.472 38.5564 122.472 38.5564 122.517 38.5287C121.864 38.3718 121.21 38.2148 120.556 38.0579Z" class="pineapple"/>
<path d="M61.8686 154.339C60.212 153.557 58.2402 144.323 56.694 147.564C55.0765 150.941 60.5374 156.363 63.3276 156.264C67.6668 156.115 72.7386 150.032 74.542 148.121C72.7299 150.068 64.7357 155.68 61.8686 154.339Z" class="pineapple"/>
<path d="M140.103 153.676C139.876 153.66 135.983 149.229 136.117 151.873C136.398 156.782 143.545 155.501 144.615 151.685C144.711 151.285 140.719 153.67 140.103 153.676Z" class="pineapple"/>
<path d="M80.1856 155.662C79.8703 152.013 77.4611 148.284 77.5437 154.183C77.5684 155.841 78.6306 157.978 79.4502 159.366C84.2005 167.269 92.802 161.687 97.4437 156.116C94.0111 160.172 80.8713 165.932 80.1856 155.662Z" class="pineapple"/>
<path d="M118.338 158.863C114.919 161.424 105.088 174.049 103.848 162.724C103.671 161.222 103.606 154.29 101.305 158.272C100.262 160.057 102.331 166.164 103.767 167.546C109.701 173.235 114.996 162.864 118.706 159.413C118.703 159.105 118.592 158.924 118.338 158.863Z" class="pineapple"/>
<path d="M141.94 171.791C139.344 170.438 138.949 162.159 136.851 162.578C134.485 165.391 128.473 171.709 126.796 170.692C126.824 170.737 126.806 170.81 126.834 170.855C126.017 170.736 124.364 170.262 124.696 169.035C124.285 168.668 124.045 168.226 123.949 167.665C123.047 166.142 122.071 158.684 119.762 159.82C117.84 160.781 121.64 167.841 122.357 168.858C128.581 177.345 132.52 168.454 136.377 163.271C135.719 166.494 139.61 175.574 144.243 173.881C143.367 173.209 144.044 172.949 144.73 172.653C145.157 172.794 145.539 172.962 145.967 173.103C146.273 172.946 146.552 172.744 146.84 172.506C146.581 171.983 146.605 171.566 146.82 171.31C145.151 172.178 143.37 172.557 141.94 171.791Z" class="pineapple"/>
<path d="M136.842 162.614C137.38 161.974 137.748 161.563 137.828 161.39C137.469 161.765 137.137 162.185 136.842 162.614Z" class="pineapple"/>
<path d="M146.784 171.301C146.964 171.191 147.145 171.08 147.325 170.97C147.117 171.035 146.937 171.146 146.784 171.301Z" class="pineapple"/>
<path d="M150.771 167.494C150.13 168.724 148.847 170.068 147.361 170.979C147.65 170.895 148.031 170.909 148.43 171.005C149.465 170.216 150.858 169.052 151.354 167.788C151.225 167.526 151.052 167.446 150.771 167.494Z" class="pineapple"/>
<path d="M62.1732 159.792C63.375 156.546 60.2026 159.357 59.4746 159.99C58.2524 161.079 57.4924 163.126 56.1263 164.335C55.1105 165.205 50.4791 168.973 49.4619 166.808C49.0274 165.897 49.0246 164.628 48.4913 163.808C48.5828 163.907 47.952 169.096 50.5852 168.691C50.479 173.776 49.0417 178.964 50.72 183.977C52.2864 188.656 53.1801 187.334 56.8684 184.454C58.4335 183.216 69.0871 175.168 64.62 175.21C62.3908 175.213 54.8296 183.504 52.9172 185.388C50.473 179.884 51.409 174.383 51.2275 168.576C55.4621 167.902 58.822 164.789 61.4291 161.611C60.8332 165.695 62.2977 175.921 68.6293 174.674C68.6075 174.285 68.4404 173.861 68.346 173.454C68.3896 173.272 68.5058 173.108 68.641 173.025C68.3881 173.118 68.189 173.147 67.9987 173.14C62.3124 172.659 64.2251 159.247 62.1732 159.792Z" class="pineapple"/>
<path d="M69.1643 172.765C70.0594 172.558 71.3935 172.763 71.7655 172.813C73.0254 171.886 81.4512 164.956 81.3233 164.849C80.6171 163.949 72.6462 171.065 69.1643 172.765Z" class="pineapple"/>
<path d="M68.6495 172.988C68.8211 172.914 68.9928 172.84 69.2009 172.774C68.9564 172.831 68.7848 172.905 68.6495 172.988Z" class="pineapple"/>
<path d="M124.822 175.713C124.685 175.642 120.547 180.719 119.99 181.277C120.38 181.255 120.77 181.387 121.099 181.62C121.536 180.918 125.505 176.069 124.822 175.713Z" class="pineapple"/>
<path d="M119.246 182.135C116.132 186.306 112.311 185.735 109.815 181.409C109.059 180.075 107.656 170.555 105.937 171.794C105.868 172.239 95.3485 180.05 93.6729 181.107C88.421 184.419 84.9089 176.161 83.9295 172.237C83.5997 170.89 84.0357 168.113 83.2539 166.888C81.3866 163.942 81.1395 166.572 81.0435 168.893C80.8749 173.117 84.0194 179.866 87.6567 182.161C93.9286 186.125 101.564 176.085 105.73 172.014C102.44 180.599 113.628 191.776 120.554 182.449C120.083 182.49 119.647 182.385 119.246 182.135Z" class="pineapple"/>
<path d="M135.968 189.146C135.493 189.685 134.846 190.298 134.021 190.216C134.294 190.358 136.186 191.12 134.765 191.278C134.721 191.46 134.678 191.641 134.598 191.814C135.784 191.676 136.51 190.89 137.154 189.969C137.09 189.915 137.062 189.87 136.998 189.816C136.625 189.611 136.215 189.398 135.968 189.146Z" class="pineapple"/>
<path d="M129.531 184.911C129.358 184.831 129.14 184.779 128.976 184.663L129.531 184.911C128.905 183.839 127.016 172.819 125.497 178.026C124.365 181.942 129.078 188.721 131.881 190.97C131.916 190.824 131.95 190.679 132.03 190.506C132.327 190.231 132.66 189.965 132.847 189.665C131.24 188.357 130.544 186.614 129.531 184.911Z" class="pineapple"/>
<path d="M137.774 189.311C140.449 186.648 143.138 181.53 144.505 179.515C142.414 182.625 139.435 185.752 136.732 188.369C137.196 188.519 137.534 188.869 137.774 189.311Z" class="pineapple"/>
<path d="M75.2855 193.523C71.279 196.288 68.7664 196.992 67.184 191.579C66.2439 187.972 67.5838 183.99 66.6727 180.582C64.9073 174.011 64.0496 183.987 64.4303 186.883C64.9199 190.766 66.091 197.733 71.0929 197.704C73.5939 197.689 86.125 185.981 86.0974 185.936C85.7225 185.577 76.3841 192.788 75.2855 193.523Z" class="pineapple"/>
<path d="M109.659 189.747C108.259 188.374 97.8524 206.278 92.2027 195.24C91.5386 194.004 88.6529 182.016 87.5905 187.562C86.701 192.229 91.5893 199.396 96.0114 200.342C96.5084 200.192 96.9981 200.233 97.4617 200.383C99.4802 200.137 111.25 191.282 109.659 189.747Z" class="pineapple"/>
<path d="M120.619 204.596C117.073 205.282 115.727 201.923 114.645 198.59C114.085 196.919 110.858 185.232 110.621 191.822C110.438 197.388 115.322 208.896 121.942 205.644C126.335 203.509 129.508 196.855 132.305 194.645C129.04 197.204 124.888 203.777 120.619 204.596Z" class="pineapple"/>
<path d="M49.6499 187.792C48.4699 187.586 43.808 192.922 42.8314 194.109C41.4466 191.394 39.1376 186.767 38.9458 184.685C39.1521 187.347 39.2028 192.739 41.3331 194.748C43.5826 196.902 43.2034 196.081 46.1621 193.679C47.2956 192.798 53.0634 188.458 49.6499 187.792Z" class="pineapple"/>
<path d="M111.628 215.156C111.711 215.292 111.794 215.427 111.759 215.572C111.667 215.473 111.531 215.402 111.439 215.303C110.647 215.882 109.919 216.514 109.219 217.191C109.336 217.181 109.454 217.171 109.572 217.16C109.397 217.887 108.94 218.353 108.026 218.48C97.2035 229.791 96.9702 203.07 94.4329 203.076C96.1463 201.22 91.4945 204.753 92.9085 203.824C91.3594 204.835 89.8335 206.39 88.5314 207.653C86.106 209.914 84.0002 212.444 81.3278 214.454C81.9003 214.63 82.4918 214.887 83.0556 215.099C83.4145 214.724 83.7372 214.341 84.006 214.021C87.1101 210.693 90.2418 207.41 93.3822 204.091C93.0014 209.84 95.7854 221.613 103.178 222.35C106.742 222.706 116.591 210.968 115.925 210.54C115.625 210.352 112.294 214.625 111.628 215.156Z" class="pineapple"/>
<path d="M67.9913 203.107C63.2916 207.32 58.1268 213.15 55.2279 204.578C54.3052 201.859 54.4637 199.438 54.4463 196.629C54.4405 195.052 54.4204 188.093 52.3044 192.426C50.4995 196.104 52.5816 206.478 55.4807 209.287C60.5013 214.143 65.0602 206.515 68.699 203.2C68.4636 203.221 68.2369 203.205 67.9913 203.107Z" class="pineapple"/>
<path d="M73.571 208.673C72.6454 206.606 72.6018 203.906 71.3885 202.078C70.5703 200.844 68.6028 197.836 69.0764 201.946C68.9776 202.037 68.8701 202.165 68.7713 202.257C68.8076 202.265 68.8076 202.265 68.8439 202.274C68.8643 202.51 68.8483 202.736 68.8599 203.008C68.9587 202.916 69.0575 202.825 69.1563 202.733C69.877 207.094 73.2337 214.24 77.6935 216.309C78.9433 216.225 79.074 215.68 78.9869 215.083C76.6967 214.379 74.5606 210.793 73.571 208.673Z" class="pineapple"/>
<path d="M43.2993 200.485C43.0843 200.741 42.9331 201.05 42.782 201.36C42.9724 201.367 43.1627 201.374 43.3356 201.454C43.3356 201.454 43.7658 199.982 43.2993 200.485Z" class="pineapple"/>
<path d="M55.1119 210.659C53.1995 212.543 50.9993 215.627 48.5434 214.653C46.724 213.909 44.9658 209.069 44.2523 207.399C44.341 207.19 44.2582 207.054 44.0213 206.921C43.2904 205.324 42.9693 203.94 43.1524 202.217C42.9533 202.246 42.7717 202.202 42.4621 202.051C42.1366 203.087 42.2935 205.315 42.5303 206.409C41.2152 207.246 39.1588 210.211 38.1924 211.516C37.9236 210.875 37.6868 209.78 37.229 209.286C36.7713 208.792 37.428 212.139 37.4934 212.347C37.3583 212.43 37.2507 212.557 37.1432 212.685L37.5879 212.754C37.7085 213.052 37.9918 213.312 38.1125 213.61C38.4278 213.416 38.7519 213.187 39.0396 212.948L39.339 212.982L39.2285 212.802C40.6847 211.537 42.0056 210.356 43.4792 209.019C44.2958 211.059 46.0483 216.244 48.4111 216.965C50.2654 217.564 52.1386 216.323 53.6775 215.194C54.1455 214.845 56.8891 212.699 56.7002 211.885C56.5956 211.361 55.9199 209.854 55.1119 210.659Z" class="pineapple"/>
<path d="M38.1045 213.647L38.1776 213.664L38.1586 213.582L38.1045 213.647Z" class="pineapple"/>
<path d="M56.543 233.671C56.9034 233.45 57.7187 233.415 58.2825 233.628C58.7955 233.251 59.2997 232.911 59.8491 232.543C60.5684 231.948 61.279 231.388 62.0536 230.883C61.9548 230.974 57.5792 233.036 56.543 233.671Z" class="pineapple"/>
<path d="M56.4899 233.736C56.3546 233.818 56.2193 233.901 56.0753 234.021C56.148 234.038 56.2572 234.064 56.3299 234.082C56.3474 234.009 56.3648 233.936 56.3823 233.864C56.4361 233.8 56.4448 233.763 56.4899 233.736Z" class="pineapple"/>
<path d="M51.9842 235.536C52.4099 235.523 52.7079 235.402 52.8604 235.247C52.253 235.216 51.7255 235.013 51.2779 234.636C51.3128 234.491 51.4204 234.363 51.5918 234.289C49.6955 232.105 48.8774 228.95 48.443 226.118C48.2686 224.923 48.709 223.569 48.4082 222.421C48.1815 221.444 46.4015 217.175 45.9872 220.341C45.5513 220.237 40.1961 227.02 40.3647 227.598C39.0466 228.127 37.64 225.984 36.6576 225.594C36.4411 225.696 36.3161 225.897 36.3001 226.123C38.5787 227.515 38.9042 229.361 41.7219 228.347C43.149 227.844 44.8406 224.638 46.0627 223.548C46.8997 226.785 47.4416 229.489 48.6317 232.695C48.7872 232.847 48.8613 233.019 48.8453 233.246C49.8276 235.556 52.7194 237.595 55.1623 236.222C54.1392 236.322 52.9404 236.034 51.9842 235.536Z" class="pineapple"/>
<path d="M40.3651 227.598C40.4028 227.607 40.4119 227.57 40.3651 227.598C40.3742 227.561 40.3651 227.598 40.3651 227.598Z" class="pineapple"/>
<path d="M75.2419 245.575C70.7733 247.384 70.2095 246.211 68.5094 241.769C67.5896 239.358 67.7204 234.971 66.1351 233.092C63.9728 230.575 63.701 232.508 64.2895 235.338C64.6077 235.453 64.7007 235.706 64.5859 236.024C64.5772 236.061 64.5321 236.088 64.5234 236.125C64.968 237.153 65.1235 238.267 65.5318 239.287C65.7861 239.348 66.0317 239.445 66.241 239.534C65.9954 239.436 65.7774 239.384 65.5318 239.287C66.7553 242.193 67.9672 247.71 71.3807 248.375C73.6506 248.843 85.5568 240.059 85.0903 239.601C84.7982 239.377 76.3885 245.12 75.2419 245.575Z" class="pineapple"/>
<path d="M94.823 251.236C95.5031 251.284 96.1832 251.332 96.8269 251.371C96.9432 251.207 97.0958 251.051 97.2484 250.896C99.8947 248.035 103.015 246.401 105.937 243.991C103.545 245.952 97.7425 247.557 94.823 251.236Z" class="pineapple"/>
<path d="M92.8382 249.261C92.5708 249.735 91.9488 249.124 91.8209 249.017C91.8921 248.88 91.927 248.735 91.9895 248.635C92.1348 248.669 92.3165 248.713 92.4618 248.748C91.3923 247.761 90.4754 245.658 89.9639 244.268C89.5178 243.085 88.9744 239.266 87.7479 238.933C84.6497 238.074 87.0677 242.727 87.5588 243.883C88.903 247.087 90.731 249.716 93.1026 252.321C93.2537 252.012 93.4048 251.702 93.6199 251.447C93.6199 251.447 93.6199 251.447 93.5836 251.438C93.6272 251.256 93.6621 251.111 93.6969 250.966C93.6969 250.966 93.6969 250.966 93.7333 250.974C93.8146 250.955 93.9048 250.9 93.9949 250.845C93.5284 250.387 93.1608 249.838 92.8382 249.261Z" class="pineapple"/>
<path d="M115.71 258.017C112.648 259.088 110.145 263.751 106.169 263.027C103.664 262.58 97.0494 256.842 96.8053 254.017C96.6339 254.091 96.4711 254.129 96.272 254.158L96.2633 254.195C96.7224 259.645 104.394 264.983 109.098 264.114C112.635 263.465 121.915 255.856 115.71 258.017Z" class="pineapple"/>
<path d="M90.464 256.107C91.0714 256.137 91.6788 256.168 92.2862 256.198C92.4011 255.88 92.6801 255.678 93.3791 255.807C93.597 255.86 93.77 255.94 93.9066 256.011C95.1157 253.535 90.743 255.905 90.464 256.107Z" class="pineapple"/>
<path d="M90.4641 256.107C85.1976 259.799 82.8812 262.086 79.1467 256.195C79.0929 256.259 79.0115 256.278 78.9577 256.342C78.8575 256.279 78.7209 256.208 78.6293 256.109C78.7281 256.018 78.8546 255.971 78.9534 255.88C77.4087 253.511 76.9321 251.014 75.7217 248.534C76.9597 251.059 76.6907 258.103 80.4689 260.931C84.1193 263.651 90.8041 259.493 93.5666 256.467C92.5581 256.187 91.5148 256.051 90.4641 256.107Z" class="pineapple"/>
<path d="M71.4918 249.67C68.0463 250.418 61.9239 253.675 58.5177 251.858C56.5414 250.807 53.0555 239.558 53.5714 239.49C51.1561 239.948 56.2623 252.93 59.0176 253.938C61.2729 254.786 65.5758 253.667 67.9169 253.038C68.9022 252.775 70.8407 252.703 71.4671 251.854C71.5209 251.79 73.599 249.215 71.4918 249.67Z" class="pineapple"/>
<path d="M50.4219 239.963C49.7592 239.843 48.3554 240.889 47.7683 241.094C46.0434 241.717 43.8737 243.233 42.4162 244.343C41.4876 242.929 41.2072 241.056 40.2612 239.715C39.9982 239.69 39.818 239.8 39.693 240.001C41.6489 243.698 39.9646 245.753 44.1542 245.106C46.4255 244.768 48.9904 242.886 51.2574 242.085C53.2716 241.377 51.3839 240.117 50.4219 239.963Z" class="pineapple"/>
<path d="M79.901 265.06C79.1163 265.448 78.4783 266.024 77.7212 266.457C78.1833 266.453 78.6455 266.449 79.0712 266.436C79.2064 266.353 79.3503 266.234 79.4854 266.151C79.7557 265.985 79.9984 265.775 80.2324 265.6C80.058 265.366 79.9388 265.222 79.901 265.06Z" class="pineapple"/>
<path d="M76.386 267.059C71.6282 269.913 68.4485 271.955 64.7895 266.389C63.6953 264.705 61.7425 255.553 60.0436 257.988C58.5773 260.095 62.2087 266.577 63.8754 268.437C69.6096 274.962 73.667 269.903 79.0715 266.436C78.6457 266.449 78.1836 266.453 77.7215 266.458C77.2797 266.698 76.7914 266.811 76.386 267.059Z" class="pineapple"/>
<path d="M97.7633 270.999C93.1348 274.115 90.9942 274.869 87.3062 270.064C86.3848 270.381 85.478 270.317 84.5407 269.9C87.7289 274.546 91.1032 276.816 96.2228 273.895C100.36 271.545 105.303 268.083 108.953 265.04C107.074 266.625 100.879 268.904 97.7633 270.999ZM93.2598 273.914C93.1813 274.241 93.1115 274.532 93.0694 274.867C91.7572 274.091 91.7659 274.055 93.2598 273.914Z" class="pineapple"/>
<path d="M81.9031 264.08C81.4279 263.658 81.0036 263.825 80.585 264.609C80.9832 264.551 81.5267 264.527 82.3056 264.484C82.5468 265.08 82.3245 265.526 81.7025 265.876C82.1094 266.742 82.6165 267.671 83.176 268.381C83.75 267.751 84.4069 267.255 85.1916 266.867C84.7222 266.101 83.1921 263.352 81.9031 264.08Z" class="pineapple"/>
<path d="M56.3751 168.582C56.3286 168.455 56.2371 168.356 56.1906 168.23L56.0481 168.503C55.8578 168.496 55.6311 168.48 55.4407 168.473C55.5424 168.689 55.6165 168.861 55.7633 169.05L55.6296 169.286C55.711 169.268 55.7836 169.285 55.865 169.266C56.2908 170.214 56.5973 175.82 57.3064 176.067C59.0241 176.595 56.9796 170.225 56.7544 169.403C57.0087 169.464 57.263 169.525 57.5086 169.622C58.3456 169.977 59.5473 171.533 59.6694 171.985C59.0722 170.151 58.2831 169.116 56.3751 168.582Z" class="pineapple"/>
<path d="M71.3184 159.95C70.7285 157.926 70.2766 156.127 68.883 154.409C68.6302 154.502 68.4325 154.685 68.3715 154.94L68.3352 154.931C68.3352 154.931 68.3715 154.94 68.3628 154.976C68.0648 156.057 67.8438 163.381 68.6619 162.694C69.7315 161.759 68.7928 157.346 68.9963 155.858C69.2623 156.191 69.4919 156.515 69.7491 156.884C70.2635 157.622 71.16 159.49 71.3184 159.95Z" class="pineapple"/>
<path d="M62.3811 197.342C61.9786 196.938 61.2535 194.996 60.3758 194.171C60.0561 193.902 59.7902 193.569 59.4617 193.337C58.1088 194.972 58.5592 196.617 59.1928 198.459C59.2291 198.468 59.2742 198.44 59.3105 198.449C59.0605 198.85 59.9135 198.978 60.2478 197.906C60.5196 196.933 58.7307 195.582 59.6346 194.377C60.6766 195.319 61.393 196.336 62.3811 197.342Z" class="pineapple"/>
<path d="M46.2914 180.339C45.5896 177.981 44.8674 176.347 43.3358 174.404C43.2588 173.925 43.1004 173.464 42.8519 173.059L42.384 173.407C42.2561 173.3 42.1369 173.156 41.9727 173.04C42.0468 173.211 42.1209 173.383 42.195 173.554L41.7271 173.903L41.791 173.957C42.0555 174.135 42.32 174.314 42.567 174.566C42.785 175.578 42.84 183.353 43.212 183.404C44.6826 183.68 44.0202 176.836 43.7484 175.887C44.7744 177.055 45.9557 179.336 46.2914 180.339Z" class="pineapple"/>
<path d="M72.2376 178.69C72.1998 178.528 72.162 178.365 72.0879 178.193L71.7828 178.504C71.6011 178.461 71.4194 178.417 71.2741 178.382C71.3482 178.554 71.386 178.717 71.4238 178.879L71.1273 179.154C71.2363 179.18 71.3816 179.215 71.4906 179.241C71.6534 180.164 71.9729 187.157 72.7431 187.149C73.7487 187.122 73.275 184.933 73.1704 184.409C72.951 184.202 72.8129 183.977 72.8827 183.687C72.935 183.469 72.9873 183.251 73.0673 183.078C72.8479 181.911 72.7374 180.77 72.4367 179.622C74.5118 180.581 74.9986 182.235 76.4532 183.698C75.9068 181.492 74.3214 179.613 72.2376 178.69Z" class="pineapple"/>
<path d="M98.9753 165.744C98.8126 165.782 98.6498 165.819 98.4871 165.857L98.2197 165.37C98.0409 165.635 97.8622 165.899 97.6558 166.119C94.6724 166.863 91.362 168.489 89.6835 171.16C90.1544 171.119 90.6165 171.115 91.0699 171.147C92.712 169.428 94.6114 168.078 96.8231 167.187C95.8059 168.864 95.162 170.746 94.5633 172.6C94.6636 172.662 94.7275 172.716 94.8278 172.779C95.2173 170.836 96.5804 168.358 97.8985 166.869C98.2327 166.757 98.567 166.645 98.9012 166.533L98.6338 166.046C98.7603 166 98.8678 165.872 98.9753 165.744Z" class="pineapple"/>
<path d="M119.386 170.988C119.16 170.972 118.969 170.965 118.77 170.994L118.596 170.76C118.578 170.833 118.552 170.942 118.498 171.006C117.656 170.996 116.885 171.003 116.044 171.147C114.714 171.404 110.907 173.18 113.717 173.316C114.932 173.377 116.585 171.776 118.116 171.798C117.531 173.117 116.677 173.95 115.928 175.153C116.258 174.579 118.171 172.848 118.923 171.799C119.04 171.789 119.158 171.779 119.276 171.769L119.101 171.535C119.218 171.371 119.306 171.161 119.386 170.988Z" class="pineapple"/>
<path d="M132.242 161.932L132.305 161.832C132.151 161.833 131.952 161.862 131.789 161.9L131.559 161.576C131.524 161.721 131.453 161.858 131.346 161.986C130.277 162.114 126.344 162.015 126.147 163.312C125.967 164.383 130.059 163.022 130.828 162.861C130.408 163.49 129.734 164.058 129.02 164.309C129.166 164.344 129.275 164.37 129.42 164.405C130.376 163.943 131.043 163.565 131.67 162.717C131.914 162.66 132.122 162.595 132.366 162.538L132.108 162.169C132.117 162.133 132.18 162.032 132.242 161.932Z" class="pineapple"/>
<path d="M114.015 153.83C113.86 153.831 113.706 153.833 113.516 153.825L113.375 153.292C113.186 153.439 112.997 153.586 112.836 153.777C111.748 153.67 104.545 155.822 106.334 157.173C106.626 157.397 110.816 154.829 111.929 154.674C110.908 155.889 109.486 157.968 109.257 159.565C109.446 158.458 111.857 155.617 113.061 154.6C113.324 154.625 113.551 154.641 113.786 154.62L113.637 154.123C113.727 154.068 113.781 154.004 113.879 153.913L114.015 153.83Z" class="pineapple"/>
<path d="M124.413 187.986C124.278 188.069 124.188 188.125 124.062 188.171L123.668 187.731C123.534 187.968 123.437 188.213 123.34 188.459C122.21 188.841 118.733 191.003 118.72 192.499C118.752 193.966 122.16 190.173 122.728 189.887C122.341 191.178 121.735 193.222 121.866 194.598C121.793 193.62 123.222 190.39 123.871 189.124C124.133 188.995 124.395 188.866 124.684 188.781L124.29 188.341C124.28 188.223 124.342 188.123 124.413 187.986Z" class="pineapple"/>
<path d="M98.1447 183.449C98.152 183.258 98.168 183.032 98.0938 182.86L97.8686 182.998C97.6492 182.792 97.2757 182.587 97.0112 182.408C97.1406 182.67 97.3164 183.058 97.283 183.357L97.0214 183.486C97.0853 183.54 97.1493 183.594 97.2132 183.648C96.6042 186.345 97.7028 189.452 98.2057 185.116C99.2447 186.71 98.7404 188.01 98.393 189.618C98.5064 189.145 99.576 188.211 99.4917 186.961C99.4249 185.639 98.7623 184.558 98.1447 183.449Z" class="pineapple"/>
<path d="M80.4941 204.802C81.9996 203.012 81.1002 200.836 79.8345 199.226C79.7313 198.856 79.6369 198.449 79.5788 198.051L79.0382 198.382C78.9553 198.247 78.8275 198.139 78.7446 198.004C78.7824 198.167 78.8202 198.33 78.8129 198.52L78.3174 198.824C78.4917 199.058 78.7112 199.264 78.9306 199.47C78.9931 200.331 79.0176 205.831 79.8242 205.832C80.3488 205.728 80.545 205.391 80.404 204.857C80.4491 204.83 80.4854 204.838 80.4941 204.802Z" class="pineapple"/>
<path d="M88.0498 150.595C87.5412 150.473 87.4671 150.301 87.8551 150.125C87.3465 149.043 86.2378 147.739 85.3513 146.95C85.2947 146.706 85.2467 146.425 85.2351 146.154L84.7483 146.421C84.6204 146.314 84.5012 146.17 84.4184 146.035C84.4111 146.225 84.4402 146.424 84.478 146.587L84.0725 146.835C84.1277 146.925 84.2193 147.024 84.2832 147.078C84.3472 147.132 84.4111 147.185 84.4751 147.239C84.4561 148.118 84.3659 153.937 85.2988 153.892C86.4585 153.863 85.6172 149.204 85.5896 148.198C86.8277 149.763 87.7475 151.214 88.833 152.934C88.8795 153.061 88.2082 151.055 88.0498 150.595Z" class="pineapple"/>
<path d="M105.654 203.386C105.616 203.224 105.606 203.106 105.568 202.943L105.244 203.173C105.071 203.093 104.907 202.977 104.725 202.933C104.754 203.132 104.792 203.295 104.821 203.494L104.497 203.724C104.597 203.786 104.743 203.821 104.843 203.883C104.862 204.925 103.416 212.071 103.907 212.265C105.507 212.803 105.607 205.181 105.635 204.266C106 204.507 106.401 204.757 106.774 204.962C107.877 205.649 109.127 207.486 108.947 208.557C109.404 206.169 107.629 204.283 105.654 203.386Z" class="pineapple"/>
<path d="M133.547 204.357L133.663 204.193C133.501 204.23 133.338 204.268 133.139 204.297L132.899 203.856C132.783 204.02 132.658 204.22 132.542 204.384C131.129 204.507 123.811 208.744 125.967 209.684C126.213 209.781 130.516 205.781 131.889 205.342C131.067 206.528 129.567 208.934 129.445 210.404C129.314 211.909 131.579 211.915 131.353 210.938C131.334 210.857 129.333 211.99 129.841 210.191C130.333 208.465 131.901 206.574 132.938 205.133C133.137 205.104 133.345 205.038 133.581 205.018L133.332 204.613C133.386 204.549 133.485 204.457 133.547 204.357Z" class="pineapple"/>
<path d="M142.16 195.204C143.474 194.213 148.454 192.834 150.486 193.975C148.848 194.235 147.359 194.838 145.843 195.55C145.945 195.767 146.001 196.011 145.977 196.274C145.695 196.168 145.368 196.089 145.086 195.983C144.68 196.232 143.06 197.38 143.682 197.99C144.157 198.412 147.712 195.768 148.389 195.508C149.833 194.933 151.407 194.619 152.956 194.568C149.794 191.734 145.265 192.837 142.16 195.204Z" class="pineapple"/>
<path d="M132.921 178.155C132.867 178.22 132.812 178.284 132.758 178.348C132.812 178.284 132.867 178.22 132.921 178.155Z" class="pineapple"/>
<path d="M132.92 178.155C134.418 176.555 139.122 175.686 141.334 176.717C141.018 176.91 140.748 177.076 140.405 177.224C139.639 177.693 134.114 180.862 134.82 181.762C135.38 182.473 141.919 177.318 143.037 176.664C140.093 174.843 135.241 175.369 132.92 178.155Z" class="pineapple"/>
<path d="M149.206 166.004L149.913 165.943L149.299 165.296C149.065 165.471 149.041 165.734 149.206 166.004Z" class="pineapple"/>
<path d="M139.15 225.835C139.023 225.882 138.861 225.92 138.743 225.93L138.476 225.443C138.314 225.635 138.198 225.799 138.073 225.999C136.906 226.219 132.145 227.804 132.769 229.529C132.974 230.116 136.511 227.546 137.304 227.121C136.663 228.351 135.768 230.48 135.809 231.911C135.826 230.878 137.628 227.852 138.478 226.712C138.714 226.691 138.949 226.671 139.193 226.614L138.917 226.164C138.98 226.063 139.042 225.963 139.15 225.835Z" class="pineapple"/>
<path d="M116.318 221.545C116.156 221.583 116.002 221.585 115.839 221.622L115.59 221.217C115.502 221.426 115.386 221.59 115.269 221.755C114.528 221.961 106.592 224.129 108.111 225.646C108.413 225.988 113.677 222.948 114.662 222.685C113.913 224.042 112.816 225.892 112.459 227.381C112.659 226.546 114.707 223.618 115.593 222.486C115.837 222.429 116.082 222.372 116.326 222.316L116.077 221.91C116.103 221.801 116.211 221.673 116.318 221.545Z" class="pineapple"/>
<path d="M88.6982 213.841C88.6968 213.687 88.7404 213.505 88.7752 213.36L88.3422 213.563C88.2143 213.455 88.0864 213.348 87.9673 213.204C87.9237 213.386 87.9164 213.576 87.8641 213.794L87.5211 213.942C87.6127 214.041 87.6766 214.095 87.7769 214.157C87.54 214.984 86.107 220.634 87.024 220.816C88.0136 221.015 88.5906 215.89 88.5907 214.929C89.6355 216.179 90.0234 218.885 89.7444 220.047C89.849 219.611 90.035 219.156 90.112 218.675C90.3955 217.014 89.9334 215.098 88.6982 213.841Z" class="pineapple"/>
<path d="M65.4099 217.703C65.1076 216.401 65.5611 214.512 63.8609 212.951C63.8681 212.761 63.8667 212.607 63.8376 212.408L63.4772 212.628C63.3494 212.521 63.1851 212.405 63.0122 212.325C63.0413 212.524 63.0791 212.687 63.0355 212.868L62.6838 213.053L62.8843 213.178C62.9207 213.186 62.9483 213.231 62.9846 213.24C62.9003 213.912 62.0965 219.981 63.0818 219.718C64.1572 219.4 63.7634 215.118 63.7707 213.967C64.987 215.142 65.051 216.157 65.4099 217.703Z" class="pineapple"/>
<path d="M46.5196 199.72C46.5632 199.539 46.5705 199.348 46.5414 199.149L46.1447 199.361C46.0081 199.29 45.8802 199.183 45.7524 199.075C45.7538 199.229 45.7465 199.42 45.748 199.574L45.3513 199.786C45.4791 199.893 45.5794 199.956 45.7073 200.063C45.5808 201.07 46.0865 204.727 47.3594 205.186C48.8141 205.689 46.7826 201.666 46.7594 201.123C47.6574 202.184 47.6647 202.954 48.0846 204.246C48.2154 204.661 48.2547 203.057 48.2547 203.057C47.9975 201.727 47.3712 200.655 46.5196 199.72Z" class="pineapple"/>
<path d="M39.8942 220.915C39.5817 220.455 39.2636 218.419 38.566 217.484C38.4251 216.95 38.2028 216.436 38.1069 215.875L37.5576 216.242C37.466 216.144 37.3745 216.045 37.2829 215.946C37.3294 216.072 37.3759 216.199 37.3774 216.353L36.8731 216.693C36.9923 216.837 37.1565 216.953 37.2843 217.061C37.4558 216.987 37.6186 216.949 37.7901 216.875C37.7653 217.138 37.7319 217.437 37.6709 217.691C37.9426 218.64 37.0924 220.742 37.7522 221.515C39.0716 223.061 38.7157 218.941 38.6765 218.624C39.3173 219.316 39.4161 220.185 39.8942 220.915Z" class="pineapple"/>
<path d="M43.3912 237.239C42.977 236.563 42.8318 234.607 41.8509 233.411C41.7666 233.122 41.7187 232.842 41.7158 232.534L41.2289 232.801C41.1098 232.657 41.0269 232.522 40.9078 232.378C40.9005 232.569 40.9296 232.768 40.9223 232.958L40.5256 233.17C40.5895 233.224 40.6084 233.305 40.6724 233.359C40.7726 233.422 40.8278 233.512 40.9281 233.574C41.7433 235.46 42.6645 239.946 41.9715 234.67C42.714 235.578 42.839 236.338 43.3912 237.239Z" class="pineapple"/>
<path d="M54.0267 228.149C53.6721 227.065 53.1824 226.064 52.575 225.073C52.5547 224.837 52.5518 224.529 52.6041 224.311L52.1071 224.461C52.033 224.289 51.9226 224.109 51.8485 223.938C51.8049 224.119 51.7801 224.382 51.6915 224.592L51.3209 224.695C51.3863 224.903 51.4968 225.083 51.6522 225.235C52.2829 227.731 53.7534 230.888 52.6346 226.585C53.0952 227.388 53.5864 228.543 54.1008 229.281C54.3943 229.659 54.0165 228.031 54.0267 228.149Z" class="pineapple"/>
<path d="M72.6986 230.556C72.6608 230.394 72.6317 230.194 72.5939 230.032L72.3149 230.234C72.1144 230.109 71.9589 229.956 71.7671 229.795C71.7787 230.067 71.7816 230.375 71.7932 230.646L71.6494 230.766C71.722 230.783 71.786 230.837 71.8499 230.891C72.0926 231.64 72.0881 236.942 73.3451 236.667C74.403 236.421 73.0168 232.592 72.9354 231.651C73.1359 231.776 73.3365 231.9 73.537 232.025C74.887 232.964 76.5305 235.241 77.0115 236.279C75.8824 233.78 74.9524 232.212 72.6986 230.556Z" class="pineapple"/>
<path d="M98.3209 235.861C98.4386 235.851 98.52 235.832 98.6464 235.786L98.4357 235.543C98.5069 235.406 98.5505 235.225 98.5854 235.079L98.6116 234.97C98.4488 235.008 98.241 235.073 98.0419 235.103L97.8036 234.815L97.6888 235.133C96.3402 235.309 90.0464 239.6 92.1549 240.26C92.4005 240.357 96.1876 236.425 97.4432 235.996C97.1264 236.996 95.4492 242.703 97.8848 242.48C96.154 242.488 97.9939 236.743 98.3209 235.861Z" class="pineapple"/>
<path d="M97.9662 242.462C98.1204 242.46 98.2834 242.422 98.5002 242.32C98.2834 242.422 98.1204 242.46 97.9662 242.462Z" class="pineapple"/>
<path d="M122.541 239.485C123.685 238.722 126.083 239.297 126.372 241.134C126.19 241.09 125.963 241.074 125.782 241.031C125.001 240.92 114.874 241.333 116.416 243.393C116.333 243.258 125.516 241.659 126.895 241.836C127.523 239.22 124.549 238.161 122.541 239.485Z" class="pineapple"/>
<path d="M124.506 250.829C121.19 253.76 120.193 255.673 116.316 252.936C113.689 251.076 112.403 247.309 109.685 245.504C105.336 242.655 105.929 245.948 109.059 248.274C108.924 248.357 108.825 248.449 108.69 248.531C108.454 248.552 108.191 248.527 107.984 248.592C107.378 248.716 100.475 252.822 103 253.505C103.109 253.532 106.943 249.726 108.046 249.453C107.208 250.865 107.122 253.304 108.194 254.598C107.324 253.583 107.893 250.569 108.915 249.354C109.232 249.315 109.585 249.284 109.902 249.245L109.799 248.874C113.144 251.906 116.201 258.057 121.299 255.708C123.411 254.754 131.937 244.044 132.156 244.251C131.762 243.811 125.387 250.042 124.506 250.829Z" class="pineapple"/>
<path d="M80.6357 250.635C81.7168 254.775 81.826 249.038 81.3842 247.356C82.8999 248.566 83.0132 250.014 83.1657 251.78C83.1468 251.699 83.6032 250.118 83.4608 249.43C82.6384 244.853 79.6012 246.621 80.6357 250.635Z" class="pineapple"/>
<path d="M59.5236 240.304C59.541 240.231 59.5585 240.158 59.5759 240.086L59.4858 240.141C59.496 240.259 59.4698 240.368 59.4073 240.468C59.137 240.633 58.8929 240.69 58.6386 240.629C58.5687 244.762 59.0148 245.945 59.3971 241.311C59.7808 241.633 60.1194 241.983 60.3591 242.425C60.75 242.558 60.8052 242.648 60.5248 242.696C60.9564 243.299 61.4635 245.188 61.4664 245.496C61.417 243.14 61.0988 242.065 59.5236 240.304Z" class="pineapple"/>
<path d="M44.992 246.421L44.7494 246.632C44.4485 246.445 44.0576 246.312 43.7481 246.161C43.9312 246.359 44.216 246.773 44.1826 247.072L43.9399 247.283C44.0039 247.337 44.1128 247.363 44.1768 247.417C44.4412 249.517 45.967 251.804 45.4556 248.492C45.6924 248.626 45.8842 248.787 46.0223 249.012C46.9538 249.774 47.4609 250.703 48.311 251.483C47.644 250.9 46.1604 248.277 45.0531 247.128C45.1141 246.873 45.0938 246.638 44.992 246.421Z" class="pineapple"/>
<path d="M69.3143 260.982C69.2823 263.356 70.9825 263.957 70.4115 261.053C70.0133 261.111 69.6326 261.097 69.3143 260.982Z" class="pineapple"/>
<path d="M72.0662 259.605C71.3614 258.86 70.9472 258.184 70.0187 257.731C70.0085 257.613 69.9896 257.532 69.9794 257.414L69.7818 257.597C69.6176 257.481 69.3807 257.347 69.1715 257.258C69.1467 257.522 69.0683 257.848 69.1162 258.129L69.1525 258.138C69.3095 258.444 69.3037 258.789 69.2252 259.116C69.5783 259.085 69.8689 259.155 70.1872 259.27C70.1581 259.071 70.1567 258.917 70.1639 258.726C71.5677 259.601 72.7011 261.602 72.7854 262.852C72.6939 261.793 72.7811 260.469 72.0662 259.605Z" class="pineapple"/>
<path d="M97.013 260.522L97.0261 259.987C96.7093 260.026 96.4564 260.119 96.1861 260.285C95.397 260.211 86.9278 261.559 89.2078 263.106C89.6365 263.401 93.6793 260.644 95.1776 260.965C94.2606 261.744 93.0312 263.024 92.8073 264.277C92.9541 263.505 95.0482 261.664 96.0582 261.138C96.3576 261.172 96.6933 261.214 96.9752 261.32L96.997 260.749C97.1147 260.739 97.2411 260.692 97.3225 260.673C97.2222 260.611 97.1132 260.584 97.013 260.522Z" class="pineapple"/>
<path d="M60.7059 267.714C59.3966 266.285 58.7849 260.99 55.7913 261.616C55.7492 262.912 55.9947 264.931 56.9552 265.892C58.5014 267.454 56.8173 262.785 56.7402 262.305C56.8231 262.44 56.9422 262.584 57.0251 262.719C58.2995 264.293 59.369 266.24 60.7059 267.714Z" class="pineapple"/>
<path d="M76.7243 270.291C75.303 271.41 75.4222 272.514 77.0541 271.638C77.8926 271.186 78.378 269.804 79.3982 269.396C79.4607 269.295 79.5246 269.349 79.5174 269.539C80.0419 270.395 80.2497 273.212 81.9456 272.389C79.9605 273.296 81.2932 266.623 76.7243 270.291Z" class="pineapple"/>
<path d="M105.778 273.307C105.587 273.3 105.352 273.32 105.17 273.277L105.134 273.268L105.125 273.304C103.974 273.297 96.0253 273.118 97.0556 274.748C97.2489 275.064 104.217 274.047 105.077 273.984C104.997 274.157 104.89 274.285 104.746 274.404C104.638 274.532 103.377 275.305 103.621 275.248C104.372 275.16 105.337 274.661 105.666 273.933L105.82 273.932L105.728 273.833C105.772 273.651 105.77 273.497 105.778 273.307Z" class="pineapple"/>
<path d="M105.777 273.31L105.816 273.319L105.787 273.271L105.777 273.31Z" class="pineapple"/>
<path d="M147.3 141.456C147.163 141.385 145.703 140.266 145.515 140.567C145.453 140.667 154.712 154.916 153.519 155.244C155.128 154.785 148.967 142.356 147.3 141.456Z" class="pineapple"/>
<path d="M156.44 164.206C156.078 164.272 156.372 176.177 155.898 177.831C155.837 178.085 155.563 178.903 155.991 179.044C157.937 179.742 158.303 163.807 156.44 164.206Z" class="pineapple"/>
<path d="M158.069 184.154C157.788 184.202 158.016 204.543 157.225 204.315C158.488 204.657 159.478 192.368 159.382 190.847C159.404 190.276 158.919 183.973 158.069 184.154Z" class="pineapple"/>
<path d="M50.1006 144.137C49.4379 144.977 43.6249 153.187 45.8207 153.484C45.1493 153.4 53.9662 139.878 54.6026 141.068C53.9662 139.878 50.5394 143.589 50.1006 144.137Z" class="pineapple"/>
<path d="M68.8827 127.359C67.6082 127.706 52.4644 135.252 54.8737 137.06C54.0614 136.442 72.2905 125.487 73.0287 126.894C72.7918 125.8 69.5425 127.171 68.8827 127.359Z" class="pineapple"/>
<path d="M73.0273 126.895C73.0186 126.931 73.0551 126.94 73.0463 126.976C73.0551 126.94 73.0639 126.903 73.0273 126.895Z" class="pineapple"/>
<path d="M43.0511 156.7C41.4133 156 30.6998 182.706 29.6403 185.679C29.9498 185.83 30.2506 186.018 30.5602 186.169C30.7724 185.605 31.0572 185.059 31.2694 184.495C32.2721 182.238 43.9244 157.063 43.0511 156.7Z" class="pineapple"/>
<path d="M30.7164 209.529C31.3748 205.345 29.9812 201.707 29.8331 197.521C29.7097 194.034 30.3404 190.766 30.2998 187.413C30.047 187.506 29.6851 187.573 29.287 187.631C29.316 187.83 29.3175 187.984 29.3916 188.156C30.4712 192.142 29.1588 198.09 29.6993 202.561C29.9637 204.661 27.5989 223.958 30.1289 223.182C28.3401 223.751 30.5027 210.9 30.7164 209.529Z" class="pineapple"/>
<path d="M27.0704 212.074C25.5562 211.979 26.0328 216.397 26.0182 216.778C26.1882 218.47 28.5826 236.028 30.9354 234.71C29.6914 235.41 25.7466 211.986 27.0704 212.074Z" class="pineapple"/>
<path d="M32.3273 229.549C30.6649 228.151 32.3359 235.276 33.125 236.311C33.327 236.59 33.3504 230.41 32.3273 229.549Z" class="pineapple"/>
<path d="M33.2436 254.706C32.4546 252.71 30.483 237.713 30.3653 237.724C28.0736 237.827 30.7936 250.506 31.2993 252.241C32.2903 255.476 33.9425 258.677 36.1237 261.276C36.7471 262.04 42.8111 267.991 43.4825 266.154C43.1294 267.145 33.9585 256.529 33.2436 254.706Z" class="pineapple"/>
<path d="M40.7347 260.154C40.5457 260.301 40.4338 260.927 40.4905 261.171C40.9381 262.508 49.9956 271.675 50.6059 271.053C50.6771 270.917 41.0224 259.916 40.7347 260.154Z" class="pineapple"/>
<path d="M54.6099 273.744C54.6593 274.178 54.8352 274.566 55.1374 274.908C55.9178 275.018 56.6705 275.084 57.4044 275.068C57.3317 275.05 57.2678 274.997 57.2039 274.943C56.967 274.809 54.7713 273.552 54.6099 273.744Z" class="pineapple"/>
<path d="M59.708 276.196C58.9872 276.638 57.38 276.291 56.572 276.135C63.9977 281.376 74.9634 283.393 83.8555 283.645C83.8192 283.636 85.034 283.697 85.8028 283.536C81.9009 283.944 61.6204 277.193 59.708 276.196Z" class="pineapple"/>
<path d="M85.8294 283.581C86.2645 283.532 86.4812 283.43 86.4972 283.203C86.49 283.393 86.1917 283.514 85.8294 283.581Z" class="pineapple"/>
<path d="M156.956 207.516C157.535 207.348 154.782 219.136 154.294 220.21C152.607 223.878 150.885 227.691 149.215 231.286C147.26 235.428 143.909 238.504 142.366 243.013C140.742 247.695 140.258 252.113 137.151 256.093C135.109 258.677 133.248 262.111 130.904 264.353C127.653 267.492 123.019 269.991 119.355 272.608C115.638 275.289 112.125 278.557 108.187 280.878C108.404 280.776 98.096 284.181 99.0043 282.478C97.6223 284.874 107.264 282.962 107.689 282.795C112.552 280.619 116.941 276.102 121.161 272.926C128.882 267.172 135.784 261.951 140.124 253.31C142.188 249.195 142.069 244.248 144.314 240.176C145.464 238.109 147.581 236.811 148.705 234.852C149.845 232.821 149.953 230.772 150.803 228.67C152.495 224.504 155.552 221.05 156.907 216.687C156.889 216.76 158.756 207.064 156.956 207.516Z" class="pineapple"/>
<path d="M166.468 179.902C160.372 175.607 154.809 172.637 137.128 169.083C122.658 166.241 110.979 168.435 100.667 165.524C90.494 162.651 81.2251 157.505 67.7503 153.155C53.7235 148.657 42.9289 149.758 36.5595 151.452C30.0521 153.11 33.4764 159.647 34.7525 162.059C36.0286 164.472 35.8503 175.071 40.6491 186.413C45.8149 198.593 58.7477 202.206 70.7471 201.576C82.7835 200.809 91.7587 182.214 93.9248 179.098C96.1278 175.843 97.3155 175.274 99.1462 175.616C101.152 175.858 102.273 177.194 102.627 180.838C102.908 184.758 102.662 205.544 113.2 211.473C123.738 217.402 136.902 219.598 146.924 210.897C156.172 202.875 160.664 193.283 162.874 191.657C165.159 189.755 171.947 183.736 166.468 179.902Z" class="frames"/>
<path opacity="0.4" d="M157.591 186.544C155.984 191.437 148.613 207.356 138.129 210.61C127.644 213.864 114.29 208.511 110.677 198.818C107.824 191.251 108.729 180.698 109.139 176.963C109.77 172.399 111.371 171.941 115.668 171.91C123.536 171.799 141.66 173.698 151.124 177.565C159.144 180.749 158.727 182.856 157.591 186.544Z" class="lens"/>
<path opacity="0.4" d="M41.9235 160.136C41.3194 165.15 40.8842 182.78 48.9357 190.261C56.9872 197.742 71.2114 198.743 78.8847 191.631C84.7986 186.117 88.6382 176.202 89.7374 172.652C91.0585 168.274 90.0015 167.251 85.9461 165.277C78.902 161.763 65.2449 155.885 51.6096 154.894C43.0623 154.23 42.3698 156.263 41.9235 160.136Z" class="lens"/>
</svg>
