<svg viewBox="0 0 190 175" xmlns="http://www.w3.org/2000/svg">
<path d="M135.43 53.5864C140.981 56.693 145.834 60.2888 150.111 64.9976C150.374 65.3753 150.592 65.8744 150.667 66.0768C151.553 67.1847 151.736 67.0979 152.329 67.9892C152.858 68.7821 153.343 69.5987 153.778 70.4257C154.356 71.5262 154.382 72.3965 154.702 73.5869C155.445 76.3498 156.724 78.4951 158.153 80.9579C159.309 82.9516 161.041 84.3398 162.99 85.5224C164.798 86.6189 167.123 86.8222 168.752 88.1593C178.313 96.0073 181.742 108.451 185.051 119.771C187.775 129.092 188.092 138.873 185.266 148.269C183.362 154.602 177.655 159.637 172.726 163.689C166.554 168.764 159.472 171.733 151.698 173.45C145.525 174.814 139.381 175.147 133.073 174.946C125.251 174.697 117.27 174.138 109.595 172.54C95.5037 169.607 82.9084 162.741 72.2363 153.188C63.4939 145.362 56.8529 136.6 56.723 124.413C56.5697 110.023 61.4199 94.1623 70.0796 82.6387C77.4545 72.8248 87.9638 64.7256 98.1484 58.0121C103.992 54.1601 111.111 48.9518 118.36 48.4514C124.481 48.0289 130.21 50.6655 135.43 53.5864Z" class="layer1"/>
<path d="M113.846 17.1439C111.08 18.654 111.164 18.4077 108 20.2146L107.077 20.778C104.304 22.6246 102.462 23.6751 98.9025 25.2553C94.9471 27.4939 92.649 29.8075 89.9836 33.0908L89.7693 33.3547C83.7881 40.7219 77.9582 47.9025 74.2965 56.7842C71.2342 64.2122 69.9057 72.7637 68.1475 80.5823C66.2671 88.9441 65.4303 99.7959 67.309 108.219C71.2586 125.926 89.3879 137.735 105.845 142.102C117.719 145.252 130.255 144.851 142.425 144.3C151.579 143.885 160.871 142.899 169.747 140.531C188.915 135.418 202.579 119.596 212.546 103.229C221.351 88.7694 226.498 73.3182 224.739 56.3306C223.205 41.5184 215.391 29.2758 204.475 19.3772C198.188 13.6765 191.411 8.38713 184.281 3.77928C181.831 2.19582 179.371 0.438995 176.385 0.185133C160.184 -1.19193 141.939 5.39331 126.983 10.6535C122.126 12.3617 118.263 14.7326 113.846 17.1439Z" class="layer2"/>
<path d="M82.3674 105.84C84.9984 105.031 87.5679 104.041 89.9328 102.62C90.8462 102.072 91.6901 101.46 92.529 100.799C94.0452 99.6064 96.9446 98.3105 98.0613 100.613C99.7326 104.061 94.4624 106.545 91.9565 107.493C90.4712 108.054 88.6871 108.652 87.0754 108.576C85.0422 108.486 83.7794 107.185 82.6488 105.645C82.3736 105.275 81.2807 105.896 81.5242 106.223C83.9744 109.559 86.801 109.785 90.5926 108.642C93.4475 107.785 98.1668 105.85 99.3473 102.795C100.431 99.989 97.7474 97.6628 95.0968 98.4588C93.2947 98.9988 91.9428 100.513 90.4252 101.543C87.972 103.2 85.2016 104.268 82.3875 105.132C81.8151 105.323 81.5575 106.093 82.3674 105.84Z" class="blub"/>
<path d="M81.6648 106.666C82.8796 107.564 82.5985 110.135 83.2558 111.499C83.9973 113.046 85.2379 114.579 86.9023 115.157C88.3978 115.676 89.9971 115.436 91.5118 115.114C93.3302 114.727 95.4761 114.564 97.1482 113.707C99.4218 112.535 100.79 109.623 100.869 107.152C100.913 105.703 101.056 101.717 98.9393 101.578C98.5379 101.553 97.6368 102.339 98.3497 102.386C99.9394 102.488 99.7581 106.89 99.6941 107.935C99.6289 108.976 99.3246 109.839 98.8354 110.776C97.6596 113.027 95.8386 113.454 93.531 113.953C90.1855 114.681 87.1583 115.258 84.9828 111.979C84.1562 110.735 83.8825 109.495 83.6538 108.049C83.5226 107.235 83.3815 106.479 82.6837 105.961C82.3333 105.707 81.285 106.38 81.6648 106.666Z" class="blub"/>
<path d="M82.2928 107.998C82.7765 110.236 83.2294 112.487 83.7451 114.718C84.0774 116.152 84.5558 117.979 85.6912 119C86.6119 119.827 88.5317 120.115 89.6857 120.474C91.3587 120.988 92.6666 120.638 94.3571 120.279C97.2531 119.664 100.058 118.55 101.433 115.67C102.082 114.314 101.922 112.876 101.702 111.445C101.513 110.237 101.533 108.726 100.497 107.907C100.168 107.649 99.113 108.318 99.4897 108.616C100.822 109.672 101.041 113.831 100.524 115.365C99.3635 118.795 93.8296 120.677 90.51 119.693C89.5807 119.42 88.5604 119.138 87.6611 118.797C86.3789 118.31 85.7074 116.932 85.2719 115.665C84.364 113.039 84.0037 110.133 83.4175 107.42C83.3433 107.051 82.1926 107.534 82.2928 107.998Z" class="blub"/>
<path d="M86.7781 119.797C87.965 124.566 91.9896 126.669 96.6865 125.225C98.2926 124.733 100.133 123.052 100.945 121.621C101.857 120.008 101.221 118.098 100.842 116.423C100.757 116.056 99.6119 116.538 99.7174 117C100.006 118.282 100.56 119.92 100.104 121.24C99.4198 123.212 96.7792 124.647 94.9189 124.815C91.0829 125.158 88.7725 122.701 87.9081 119.218C87.8103 118.843 86.6673 119.335 86.7781 119.797Z" class="blub"/>
<path d="M84.052 104.962C83.5878 102.815 83.0858 100.776 81.1112 99.5623C78.4153 97.9025 75.3046 97.2918 72.6575 95.4709C70.4817 93.972 68.3005 92.4743 66.1539 90.9301C63.4525 88.987 60.5364 87.4697 58.1253 85.1403C49.9575 77.261 43.859 62.8766 50.3539 52.1743C53.9069 46.3137 59.1986 41.3491 65.6634 38.9479C68.7459 37.802 71.995 36.7819 75.3123 36.8515C78.5686 36.9232 81.6817 37.829 84.6489 39.1178C90.1149 41.4898 94.7916 44.83 98.1362 49.8526C101.135 54.3588 102.733 59.8703 102.641 65.2786C102.577 68.9573 102.034 72.7171 101.19 76.2966C100.819 77.8829 100.555 79.2953 99.7391 80.7324C99.1727 81.725 98.6771 82.7357 98.185 83.7625C97.0403 86.1574 94.9179 88.468 94.5579 91.1898C94.2083 93.8313 94.8491 96.4093 95.4297 98.9669C95.5157 99.3388 96.6599 98.8517 96.5544 98.3892C95.9086 95.5556 95.065 92.246 96.1332 89.3935C97.0739 86.8809 98.7841 84.4697 100.005 82.064C100.572 80.9484 101.43 79.9096 101.776 78.6969C102.152 77.3939 102.366 75.9811 102.64 74.6444C103.295 71.4518 103.738 68.132 103.797 64.8726C103.897 59.3177 102.214 53.5957 99.0695 49.0094C97.5203 46.7449 95.4996 44.6993 93.4599 42.8754C91.0202 40.6973 87.9013 39.352 84.9133 38.0956C79.6434 35.8821 74.4677 35.5503 69.0034 37.1607C62.8939 38.9607 57.8534 41.9131 53.5354 46.6338C49.4697 51.0768 46.9218 55.8836 46.5481 61.9496C46.1948 67.671 48.5166 74.259 51.4572 79.09C53.2391 82.0183 55.6404 84.6119 58.2086 86.8683C61.0111 89.3306 64.4934 91.222 67.5519 93.3724C70.1163 95.1722 72.6887 97.2156 75.632 98.3423C77.45 99.0371 80.0612 99.7111 81.3659 101.309C82.3284 102.484 82.6046 104.098 82.9155 105.537C83.0015 105.909 84.1522 105.426 84.052 104.962Z" class="blub"/>
<path d="M65.3453 30.9453C64.9276 28.135 64.9113 25.3495 64.3109 22.5452C63.6198 19.3476 62.9235 16.1513 62.2336 12.9591C62.1542 12.5914 61.0088 13.0732 61.109 13.5368C61.747 16.4892 62.3851 19.4416 63.0231 22.3939C63.6768 25.3931 63.7342 28.3427 64.1838 31.3525C64.2566 31.8444 65.4062 31.3561 65.3453 30.9453Z" class="blub"/>
<path d="M86.7133 27.7889C86.1993 25.8751 87.9034 22.5839 88.4458 20.7319C88.9618 18.9637 89.4724 17.1967 89.9476 15.4205C90.3176 14.0353 90.4495 12.1939 91.0585 10.9076C90.6852 11.0385 90.3118 11.1694 89.9396 11.3056C89.9847 11.3851 90.0286 11.4593 90.079 11.5377C90.3074 11.9234 91.4233 11.3308 91.2037 10.9599C91.1586 10.8804 91.1147 10.8063 91.0643 10.7279C90.8282 10.3327 90.0676 10.8652 89.9454 11.1259C89.2629 12.5619 89.158 14.4254 88.7414 15.9824C88.1538 18.1677 87.5308 20.3439 86.8831 22.5088C86.3572 24.2568 85.095 26.521 85.5951 28.3708C85.6917 28.7404 86.839 28.2414 86.7133 27.7889Z" class="blub"/>
<path d="M108.416 44.5075C109.342 44.3017 110.027 43.78 110.707 43.1311C112.128 41.7809 113.388 40.3873 114.918 39.1307C116.714 37.655 118.605 36.2869 120.558 35.028C121.983 34.112 123.768 33.4642 124.973 32.25C125.554 31.6614 124.485 31.7249 124.156 32.0583C123.081 33.1497 121.287 33.8051 119.984 34.6444C118.443 35.6413 116.937 36.703 115.491 37.83C114.234 38.8044 112.962 39.81 111.825 40.9205C110.978 41.7506 109.947 43.4626 108.74 43.7346C108.287 43.8325 107.614 44.692 108.416 44.5075Z" class="blub"/>
<path d="M117.795 76.9363C117.758 77.0503 117.722 77.1642 117.685 77.2781C117.622 77.4759 117.76 77.5742 117.949 77.5724C120.674 77.5581 123.51 76.3316 126.056 75.4635C127.78 74.8733 129.533 74.4163 131.279 73.8996C132.889 73.4234 134.454 72.5886 136.071 72.1947C136.511 72.0885 137.188 71.2225 136.388 71.4177C135.133 71.728 134.013 72.327 132.786 72.7427C131.185 73.284 129.538 73.6623 127.926 74.1556C126.436 74.6171 124.98 75.1828 123.486 75.6507C123.381 75.6844 118.898 76.776 118.915 76.7223C119.087 76.1774 117.919 76.5527 117.795 76.9363Z" class="blub"/>
<path d="M58.9972 100.454C59.3329 100.381 59.6686 100.308 59.9967 100.226C60.055 99.9795 60.1078 99.7338 60.1661 99.487C56.346 100.653 53.2273 103.541 49.4651 104.923C47.5426 105.629 45.5764 106.21 43.6392 106.874C42.8393 107.147 42.3427 107.327 41.7889 107.966C41.3382 108.487 42.5312 108.251 42.7908 107.955C43.3434 107.312 46.1722 106.773 46.9242 106.51C48.4815 105.973 50.0712 105.456 51.5772 104.785C54.5223 103.468 57.041 101.133 60.1437 100.183C60.5471 100.063 61.0621 99.271 60.313 99.4441C59.9795 99.5273 59.6438 99.5998 59.3134 99.6712C58.8669 99.7733 58.1924 100.627 58.9972 100.454Z" class="blub"/>
<path d="M36.0467 79.7432C35.4561 78.6883 34.213 78.5888 33.1037 78.5663C31.1311 78.5241 29.2011 78.679 27.2168 78.5054C21.8498 78.0364 16.8619 76.6377 12.1716 74.0088C11.8986 73.8558 10.8453 74.2731 11.1057 74.652C11.179 74.7588 11.2523 74.8657 11.3256 74.9726C11.5859 75.3514 12.6854 74.7345 12.4502 74.3949C12.3769 74.288 12.3036 74.1811 12.2303 74.0742C11.8754 74.2904 11.5193 74.5012 11.1644 74.7173C15.0166 76.8747 19.141 78.382 23.5581 78.9725C25.6778 79.2563 27.8385 79.4978 29.9842 79.4636C31.4244 79.4424 34.0763 78.8079 34.9274 80.3198C35.1345 80.7101 36.2579 80.127 36.0467 79.7432Z" class="blub"/>
<path d="M43.2512 42.0734C40.8268 41.7216 38.8262 40.2853 36.9531 38.7935C34.7186 37.0229 32.5759 35.1097 30.4937 33.1666C28.6698 31.4635 26.2669 28.4239 23.4422 29.291C22.8663 29.4656 22.6087 30.2353 23.4198 29.9875C24.9791 29.5111 26.8811 31.4205 27.9116 32.3692C29.2763 33.625 30.6125 34.9037 31.9951 36.1388C34.9402 38.7711 38.3339 42.2659 42.4281 42.8593C42.814 42.9154 43.7818 42.154 43.2512 42.0734Z" class="blub"/>
<path d="M27.5401 54.9125C28.53 55.8533 30.2929 55.7512 31.5526 55.7467C33.2966 55.738 35.2538 56.0959 36.9416 55.6977C37.3881 55.5956 38.0602 54.7308 37.259 54.9207C35.8418 55.2549 34.0442 54.9126 32.5538 54.9335C31.3082 54.9517 29.5176 55.1322 28.5419 54.2052C28.2532 53.9273 27.1767 54.5727 27.5401 54.9125Z" class="blub"/>
<path d="M49.5694 29.9591C50.5728 31.9177 51.8095 33.6139 53.0647 35.3954C53.3304 35.7731 54.4287 35.1508 54.1894 34.8177C52.93 33.0427 51.6974 31.34 50.694 29.3814C50.4923 28.9899 49.3677 29.5676 49.5694 29.9591Z" class="blub"/>
<path d="M76.133 22.1935C76.2281 23.2272 76.3468 24.267 76.4035 25.3034C76.4538 26.2074 76.3788 27.0993 76.6138 27.9801C76.7115 28.355 77.8588 27.8561 77.7384 27.4024C77.4919 26.4683 77.6086 25.4335 77.5414 24.4774C77.4804 23.5758 77.3822 22.6822 77.2987 21.7799C77.2518 21.3047 76.0935 21.7781 76.133 22.1935Z" class="blub"/>
<path d="M97.5778 35.2917C98.2384 33.9608 98.9769 32.6801 99.766 31.4274C100.451 30.3367 101.058 28.9895 101.957 28.0645C101.63 28.1294 101.309 28.1932 100.983 28.2581C101.018 28.3399 101.057 28.4206 101.091 28.4971C101.27 28.8879 102.404 28.3303 102.215 27.9194C102.181 27.8375 102.141 27.7569 102.108 27.6804C101.957 27.3448 101.281 27.7253 101.134 27.874C100.149 28.8902 99.5115 30.2496 98.7641 31.4375C97.9344 32.7603 97.1553 34.1112 96.4594 35.5111C96.2218 35.9864 97.3983 35.6485 97.5778 35.2917Z" class="blub"/>
<path d="M106.373 63.0835C107.592 63.4614 108.944 62.6673 110.032 62.2035C111.13 61.7374 112.259 61.3874 113.38 60.9723C114.832 60.4355 116.263 59.4456 117.761 59.1219C118.208 59.0252 118.883 58.171 118.078 58.3449C115.977 58.7934 114.098 60.0362 112.062 60.7328C110.821 61.1572 108.434 62.6827 107.196 62.2976C106.82 62.1836 105.828 62.9111 106.373 63.0835Z" class="blub"/>
<path d="M49.1789 88.6024C49.1605 86.7879 46.7411 88.2144 45.9985 88.6761C44.326 89.7125 40.6654 93.4488 38.7048 92.2493C38.3389 92.0271 37.3112 92.7178 37.6977 92.9578C39.3884 93.9925 41.7325 92.3982 43.1375 91.4921C43.9455 90.9717 48.0035 87.8356 48.0185 89.0149C48.0235 89.4768 49.1823 89.0311 49.1789 88.6024Z" class="blub"/>
<path d="M59.5393 61.3287C53.17 62.8558 57.0297 70.6231 58.8593 74.4949C60.2666 77.4707 62.0837 80.252 64.3221 82.6856C65.5098 83.974 67.5159 86.1845 69.4663 85.9694C74.4401 85.4188 66.1729 76.6406 65.2535 75.2774C64.3922 74.0021 63.3941 72.6615 62.8721 71.2013C62.3123 69.6432 62.107 67.8413 61.7515 66.2223C61.4774 64.954 61.4787 61.0881 59.3908 61.5449C58.9431 61.6416 58.2699 62.5011 59.0734 62.3219C60.0848 62.0978 61.6833 71.8431 62.3224 72.9935C63.306 74.7835 64.5533 76.3993 65.7751 78.0262C67.0022 79.652 68.8465 81.4233 69.59 83.3154C69.9094 84.1221 70.2014 84.5443 69.3145 84.7248C68.5661 84.8754 68.2807 84.5355 67.7114 84.0951C66.9125 83.4701 66.1257 82.7978 65.4352 82.0546C63.9877 80.4931 62.4871 78.6085 61.4002 76.7795C60.2869 74.906 59.3567 72.7698 58.6596 70.7059C57.8876 68.424 55.2157 63.0552 59.2196 62.0951C59.662 61.9995 60.3341 61.1347 59.5393 61.3287Z" class="blub"/>
</svg>
