<svg viewBox="0 0 572 426" xmlns="http://www.w3.org/2000/svg">
<path d="M558.909 78.9477C571.667 86.1133 582.823 94.4073 592.653 105.269C593.258 106.14 593.757 107.291 593.931 107.758C595.966 110.314 596.387 110.113 597.751 112.169C598.965 113.998 600.08 115.881 601.08 117.789C602.41 120.327 602.468 122.335 603.204 125.081C604.912 131.454 607.852 136.402 611.136 142.083C613.794 146.681 617.773 149.883 622.254 152.611C626.408 155.14 631.752 155.609 635.496 158.693C657.473 176.796 665.355 205.497 672.958 231.61C679.219 253.11 679.948 275.671 673.454 297.341C669.077 311.951 655.96 323.563 644.632 332.91C630.446 344.616 614.167 351.464 596.3 355.426C582.111 358.572 567.99 359.34 553.491 358.876C535.514 358.301 517.169 357.013 499.529 353.327C467.142 346.561 438.193 330.723 413.664 308.688C393.57 290.637 378.307 270.426 378.008 242.316C377.656 209.124 388.803 172.54 408.707 145.96C425.658 123.323 449.812 104.641 473.221 89.156C486.652 80.2708 503.015 68.2575 519.676 67.1032C533.745 66.1285 546.912 72.2102 558.909 78.9477Z" class="layer1"/>
<path d="M201.376 100.46C195.02 103.935 195.213 103.368 187.941 107.527L185.82 108.824C179.447 113.074 175.216 115.492 167.035 119.129C157.945 124.282 152.664 129.607 146.539 137.164L146.047 137.771C132.302 154.728 118.904 171.255 110.49 191.698C103.452 208.795 100.399 228.478 96.3588 246.473C92.0377 265.719 90.1145 290.697 94.4319 310.083C103.508 350.84 145.17 378.021 182.99 388.07C210.276 395.32 239.084 394.399 267.052 393.13C288.087 392.175 309.44 389.905 329.837 384.456C373.888 372.687 405.287 336.27 428.191 298.598C448.425 265.317 460.255 229.754 456.211 190.654C452.686 156.561 434.729 128.383 409.644 105.6C395.198 92.4787 379.622 80.3043 363.237 69.6986C357.607 66.054 351.955 62.0104 345.092 61.4261C307.863 58.2566 265.934 73.4136 231.564 85.5208C220.403 89.4525 211.525 94.9094 201.376 100.46Z" class="layer2"/>
<path d="M81.1562 194.484L81.3478 194.584C81.3213 194.469 81.3335 194.418 81.2948 194.355L81.1562 194.484Z" class="pineapple"/>
<path d="M65.5108 228.038C62.0429 230.598 59.2958 234.192 57.1332 237.819C55.6201 240.309 53.934 243.296 53.2884 246.21C53.0094 247.597 52.158 256.976 55.5832 252.576C57.5279 250.081 57.2675 242.643 59.1511 239.057C61.2466 235.037 64.1077 231.417 67.5594 228.476C66.8447 226.743 66.2053 224.921 65.7818 223.096C67.3192 223.196 71.734 222.748 71.569 222.762C65.902 222.371 62.5706 220.549 65.5108 228.038Z" class="pineapple"/>
<path d="M48.352 257.356C48.6313 257.315 48.8984 257.326 49.1655 257.336C49.1247 257.057 49.084 256.777 48.9922 256.486L48.352 257.356Z" class="pineapple"/>
<path d="M53.16 258.187C54.2759 258.024 50.7409 257.499 50.1687 257.415C50.1015 257.022 50.073 256.692 50.0567 256.312L49.2666 257.36L48.5009 258.307C48.7677 258.317 49.0344 258.328 49.3134 258.287C49.2339 260.637 50.9424 262.716 50.6328 264.903C50.3945 266.569 48.7084 268.21 48.242 269.928C48.8122 269.796 49.6125 269.827 50.427 270.022C52.4268 263.934 51.2844 263.982 50.3031 258.201C51.2296 258.155 52.207 258.12 53.16 258.187Z" class="pineapple"/>
<path d="M48.7371 283.345C48.5477 282.115 48.397 280.948 48.2993 280.01C48.2973 281.14 48.3746 282.612 48.7371 283.345Z" class="pineapple"/>
<path d="M50.3682 293.591C51.1725 294.053 51.5839 293.236 51.3925 293.137C50.7938 292.939 50.2074 292.691 49.6087 292.493C49.3256 292.102 48.9652 291.585 48.8084 291.117C49.7044 290.524 49.1608 286.732 48.6844 283.334C48.322 282.601 48.2833 281.192 48.2467 279.998C48.1632 279.224 48.1449 278.628 48.2304 278.271C48.2447 278.436 48.2263 279.186 48.2467 279.998C48.3444 280.937 48.4951 282.104 48.6844 283.334C48.8656 283.7 49.0957 283.863 49.4379 283.784C50.7289 283.34 49.9307 279.487 49.6294 278.5C51.6046 280.589 51.855 282.91 52.6918 285.48C51.8285 282.796 51.8265 279.888 49.5744 276.71C49.5582 276.329 49.4279 275.974 49.3994 275.645L48.9697 275.865C48.8923 275.738 48.8149 275.612 48.7376 275.486C48.7946 274.8 49.0166 274.099 49.1754 273.437C48.4098 273.038 47.807 272.409 47.5097 271.853C47.3855 272.146 47.2613 272.439 47.188 272.745C46.3612 275.292 42.7443 290.361 47.5418 291.459L47.1651 291.907C47.4319 291.917 47.6986 291.927 47.9532 291.988L47.1875 292.935C47.6579 292.994 48.1283 293.053 48.6496 293.124C50.4679 297.437 46.554 299.836 46.0733 304.082C46.1365 304.043 46.1874 304.055 46.2505 304.017C46.9388 304.289 47.5375 304.487 48.1483 304.634C48.5231 301.278 52.4289 296.67 50.3682 293.591Z" class="pineapple"/>
<path d="M45.7611 305.837C45.0524 308.79 47.9333 328.864 50.4238 324.993C49.9005 324.706 49.3772 324.418 48.7907 324.17C49.3263 324.406 49.8496 324.693 50.4238 324.993C52.4012 321.914 46.6468 310.895 47.9339 305.982C47.1703 305.798 46.4331 305.729 45.7611 305.837Z" class="pineapple"/>
<path d="M54.6229 346.298C53.9102 344.781 53.2973 343.073 52.888 341.413C54.9773 342.13 54.0894 344.932 55.4231 346.329C57.545 346.461 56.4047 344.034 55.7348 343.012C55.7185 342.631 55.5108 342.15 55.1911 341.912C54.9814 341.215 54.2483 340.232 53.7352 339.678L53.2465 340.368C53.0428 340.319 52.8392 340.271 52.6478 340.171C52.7761 340.309 52.9552 340.46 53.0713 340.649L52.7455 341.11C51.9372 337.524 53.2365 329.867 50.0172 327.802C50.7421 327.922 51.1086 327.741 51.0394 327.132C50.5629 326.426 49.8523 326.47 48.9583 327.279C48.716 327.167 48.4614 327.106 48.2313 326.943C48.27 327.006 48.2843 327.171 48.2985 327.336C48.0195 327.376 47.6897 327.405 47.4229 327.395C47.6408 327.609 47.8586 327.822 48.0887 327.985C47.7629 328.446 47.7752 328.395 48.3189 328.148C51.6034 330.39 49.9111 335.422 50.2612 338.898C50.5157 341.651 51.1999 344.184 52.1121 346.665C52.8696 346.2 53.7187 346.027 54.6229 346.298Z" class="pineapple"/>
<path d="M55.1288 347.336C54.0638 347.511 53.0965 347.278 52.2026 346.741C53.0619 348.993 54.1105 351.129 55.3628 353.314C56.6457 353.353 57.953 353.29 59.2339 353.113C57.7556 351.196 56.2161 349.535 55.1288 347.336Z" class="pineapple"/>
<path d="M47.3855 327.331C47.2967 327.474 47.3483 327.486 47.464 327.459C47.4371 327.344 47.4371 327.344 47.3855 327.331Z" class="pineapple"/>
<path d="M48.1436 326.867C48.1436 326.867 48.2344 326.944 48.286 326.956C48.2984 326.905 48.2468 326.892 48.1436 326.867Z" class="pineapple"/>
<path d="M72.9843 371.865C69.6549 368.912 67.5882 365.186 65.6212 361.268C68.4394 363.883 69.4127 366.108 73.1514 365.337C77.334 364.51 82.6572 355.343 75.8965 358.835C73.6219 360.012 73.3225 363.278 70.6916 363.023C67.3744 362.712 64.1429 356.66 62.0415 354.648C62.1351 355.155 62.1779 355.65 62.1188 356.12C62.8397 357.154 63.308 358.344 63.9657 359.417C62.9964 358.969 61.4488 359.136 60.7667 358.164C60.4123 358.295 60.1985 358.513 60.0621 358.857C63.8475 363.05 66.4213 368.029 70.4246 372.435C71.3613 373.468 83.2491 383.159 80.9278 376.679C80.4452 375.325 74.0472 372.82 72.9843 371.865Z" class="pineapple"/>
<path d="M189.413 334.071C185.064 337.389 179.89 331.355 178.483 327.571C177.754 325.673 178.77 323.01 177.929 321.354C176.829 319.206 175.351 317.29 174.618 321.69C166.59 328.216 157.818 341.886 147.392 331.038C144.507 328.031 142.839 315.462 140.675 314.835C141.328 314.131 140.711 313.336 140.473 313.656C140.159 314.065 139.858 314.424 139.544 314.833C139.19 314.963 138.901 315.271 138.803 315.678C132.843 321.893 126.418 332.734 118.028 325.067C113.481 320.907 111.712 313.698 109.729 308.053C109.244 307.829 109.089 307.577 109.405 307.384C108.059 306.037 106.821 308.055 107.008 309.07C101.76 312.763 94.8775 320.803 87.9561 316.665C84.3295 314.502 81.0168 299.816 78.1944 300.807C73.5495 302.438 85.1012 318.241 87.9052 319.344C96.8527 322.892 100.638 313.625 107.208 310.033C108.46 316.256 112.748 325.307 118.368 328.81C126.709 333.988 130.081 326.668 134.793 321.392C134.653 321.304 134.512 321.217 134.423 321.142C134.576 321.178 134.791 321.176 134.944 321.213C136.188 319.842 137.534 318.496 138.74 317.063C138.667 318.714 138.787 320.681 139.322 322.264C139.923 322.677 140.271 323.245 140.827 324.294C140.611 324.296 140.357 324.235 140.141 324.237C142.35 329.613 145.997 335.28 151.994 336.989C162.422 339.976 168.301 329.165 174.54 322.91C174.247 329.516 183.494 341.911 190.558 335.584C190.303 335.523 190.049 335.462 189.845 335.413C189.904 334.943 189.747 334.475 189.413 334.071Z" class="pineapple"/>
<path d="M174.488 307.876C172.267 305.243 167.606 293.033 164.806 292.361C159.143 291.055 171.112 308.034 172.601 309.684C178.978 316.76 183.301 313.329 188.085 306.186C188.034 306.174 187.27 305.99 187.002 305.764C183.018 310.246 179.534 313.771 174.488 307.876Z" class="pineapple"/>
<path d="M212.074 292.831C211.724 293.393 215.633 295.947 216.578 296.497C214.847 298.773 211.671 299.895 210.221 302.347C208.759 304.85 209.504 308.474 208.526 311.201C202.372 315.754 197.944 310.653 196.972 304.605C196.757 303.261 197.559 300.815 197.168 299.752C196.502 297.816 194.686 293.719 193.743 298.769C192.977 299.716 192.071 300.575 191.088 301.308C189.703 302.591 188.371 304.102 187.115 305.523C187.534 305.57 187.954 305.617 188.385 305.613C189.878 303.656 191.88 301.821 193.602 300.027C194.431 307.118 198.061 319.134 207.567 313.178C205.759 318.02 202.287 321.494 198.894 325.31C198.385 325.188 195.901 324.323 195.897 325.237C195.917 326.049 198.074 325.813 198.57 325.986C198.56 326.253 198.703 326.556 198.908 326.821C196.748 327.972 194.331 330.191 192.262 331.633C192.494 332.012 192.891 332.376 193.339 332.753C194.406 331.448 199.399 329.039 199.562 327.463C200.098 327.699 200.554 327.593 200.906 327.247C201.289 327.446 201.621 327.634 202.004 327.833C197.143 332.158 197.744 331.226 196.216 337.589C194.982 342.731 192.086 346.72 188.119 350.237C188.396 348.634 188.376 343.783 186.894 344.128C182.699 345.005 186.317 348.996 187.06 351.059C186.215 351.664 182.104 354.661 182.228 355.714C182.297 356.323 182.662 358.618 184.036 357.602C189.048 362.52 180.021 359.976 178.982 364.303C178.155 364.159 171.024 364.708 171.181 365.177C170.47 365.221 167.55 365.274 167.88 366.592C168.145 367.732 176.359 366.258 177.821 366.447C173.655 373.039 168.44 373.456 162.074 377.097C162.113 377.16 162.101 377.211 162.139 377.274L162.19 377.286L162.229 377.35C162.178 377.337 162.178 377.337 162.127 377.325C162.127 377.325 162.127 377.325 162.139 377.274C162.038 377.25 161.936 377.225 161.822 377.252C160.634 377.936 157.945 378.152 159.272 380.247C155.586 379.901 151.94 372.888 150.726 373.458C146.274 375.404 155.957 384.189 161.484 381.801C161.072 385.309 155.138 383.562 153.151 384.216C150.113 385.209 147.773 387.555 144.415 388.311C142.527 388.773 127.049 387.534 132.671 391.253C136.441 393.719 145.95 390.887 149.274 389.154C151.245 388.119 153.1 385.55 154.959 384.758C157.362 383.719 161.999 386.609 162.28 381.4C169.643 377.191 175.579 373.77 180.082 366.452C180.133 366.464 180.133 366.464 180.196 366.425L180.194 366.209C182.263 362.076 189.168 361.795 184.68 357.164C190.632 352.778 196.79 345.965 198.155 338.485C198.397 337.251 197.709 332.94 198.295 331.843C199.244 330.132 202.236 329.558 203.539 327.717L201.802 326.654C206.653 322.596 209.363 316.463 211.11 310.529C211.528 310.36 211.577 310.156 211.269 309.867C212.341 302.264 212.56 302.693 218.128 296.546C217.13 295.768 212.487 292.231 212.074 292.831ZM154.705 380.658C156.478 380.223 157.405 380.176 158.777 381.636C157.441 381.369 156.079 380.988 154.705 380.658ZM163.231 379.905C162.477 379.455 161.237 378.565 162.207 377.667C163.306 378.47 163.77 379.227 163.231 379.905Z" class="pineapple"/>
<path d="M186.939 305.805C187.014 305.715 187.09 305.625 187.165 305.535C187.063 305.511 187 305.55 186.898 305.525C186.772 305.603 186.849 305.729 186.939 305.805Z" class="pineapple"/>
<path d="M160.296 131.479C160.996 135.739 161.986 139.692 161.811 144.011C162.992 144.025 164.122 144.027 165.315 143.991C164.698 140.505 163.365 133.724 160.296 131.479Z" class="pineapple"/>
<path d="M150.005 209.124C143.766 212.687 141.835 215.347 137.317 208.824C134.922 205.342 133.664 201.164 131.837 197.333C133.589 197.215 139.03 195.183 140.38 194.269C141.15 193.754 134.87 194.346 134.45 194.299C129.927 194.075 132.668 195.218 130.217 192.422C129.241 191.326 127.735 183.696 126.464 190.336C126.27 191.367 128.524 196.107 129.355 196.684C127.034 198.28 133.924 208.602 135.454 210.531C140.774 217.3 144.574 216.273 150.905 210.309C150.19 209.922 149.857 209.519 150.005 209.124Z" class="pineapple"/>
<path d="M160.518 145.585C160.027 146.06 159.65 146.508 159.809 147.192C159.911 147.216 160.013 147.241 160.115 147.265C160.174 146.795 160.296 146.286 160.508 145.852C160.52 145.801 160.493 145.687 160.518 145.585Z" class="pineapple"/>
<path d="M151.523 131.689C151.798 132.563 152.061 133.487 152.273 134.4C152.336 134.361 152.411 134.271 152.474 134.233C153.519 133.245 152.762 132.363 151.523 131.689Z" class="pineapple"/>
<path d="M213.218 113.547L213.206 113.597C213.788 113.414 214.332 113.168 214.825 112.909C214.293 113.105 213.762 113.3 213.218 113.547Z" class="pineapple"/>
<path d="M145.107 119.165C145.419 119.886 145.718 120.658 146.029 121.378C127.966 104.444 92.2892 111.764 92.2892 111.764C115.55 111.532 131.168 119.588 141.58 130.271C142.519 130.173 143.227 129.913 143.514 129.389C143.985 129.448 144.494 129.57 144.964 129.63C144.997 130.391 146.355 131.686 147.078 130.245C147.332 130.306 149.902 130.815 151.574 131.701C150.265 127.51 148.526 123.539 145.107 119.165Z" class="pineapple"/>
<path d="M169.302 195.126L169.251 195.114C169.799 195.299 170.322 195.586 170.794 195.861C170.385 195.548 169.85 195.312 169.302 195.126Z" class="pineapple"/>
<path d="M204.367 144.588C204.43 144.549 204.544 144.522 204.595 144.535C202.107 144.583 199.569 144.836 196.971 145.343C199.545 144.938 202.019 144.724 204.367 144.588Z" class="pineapple"/>
<path d="M268.657 117.431C268.323 117.028 267.989 116.625 267.706 116.234C267.944 115.914 268.349 115.796 268.858 115.918C253.509 91.9361 218.651 95.845 198.986 111.154C212.245 96.5148 227.123 85.2258 241.57 84.9248C241.57 84.9248 219.344 65.5914 190.538 103.957C198.797 91.0795 208.083 83.3478 222.325 77.398C230.585 73.9426 248.958 67.154 253.721 79.3883C259.034 59.7196 240.887 59.5094 226.087 61.5026C226.799 63.0197 223.739 64.331 224.413 61.7469C209.122 64.2146 189.241 74.1412 182.997 89.3869C182.032 92.0626 176.295 117.983 176.142 117.946C173.677 117.677 179.896 95.8033 180.548 93.5369C183.894 82.0643 185.103 70.2944 183.632 58.2577C182.202 46.7158 178.01 33.0031 168.038 25.8717C160.386 15.582 135.042 17.0903 135.042 17.0903C141.477 18.0964 146.59 21.6926 150.725 26.6695C151.346 26.5494 152.446 27.3517 151.805 28.0054C153.205 29.7953 154.456 31.7645 155.631 33.8232C156.248 33.2714 157.362 31.5467 158.484 32.0313C158.958 32.5221 158.873 32.8785 158.176 33.0882C158.475 33.86 158.724 34.6195 159.035 35.3404C158.675 36.1691 157.966 36.4298 156.909 36.1223C159.198 40.4943 161.071 45.2512 162.69 49.947C162.908 50.1608 162.973 50.338 162.886 50.4785C163.551 52.415 164.205 54.4025 164.781 56.2637C165.789 56.7748 166.571 57.5548 167.139 58.5526C166.606 58.5322 166.021 58.4996 165.488 58.4792C170.44 74.6355 167.768 90.254 165.206 106.76C164.65 98.9816 163.518 92.0337 161.999 85.8005C161.044 85.5174 161.103 85.047 161.683 84.6479C161.683 84.6479 161.683 84.6479 161.734 84.6601C155.907 61.8328 144.638 49.1137 135.355 42.2551C134.033 42.1533 131.972 41.7663 132.121 40.0253C130.396 38.9114 128.826 38.05 127.385 37.327C127.11 37.7995 126.733 38.2474 126.318 38.6323C129.366 41.4099 129.641 43.6295 129.871 46.4844C130.5 47.2277 130.531 47.7734 130.001 48.1848C131.109 59.2726 140.305 66.2716 144.22 76.2028C144.511 76.1112 144.943 76.1072 145.234 76.0155C147.12 76.6835 148.965 77.0725 150.779 76.9157C153.662 78.3616 145.501 77.3717 144.585 77.1518C146.525 82.3017 148.107 88.4962 149.492 95.2894C150.231 95.5745 150.97 95.8596 151.697 96.1956C151.554 97.2382 153.46 98.7187 151.359 99.3987C150.998 98.8815 150.524 98.3908 149.986 97.9387C150.589 101.26 151.167 104.683 151.67 108.196C153.124 110.214 160.872 121.226 158.724 123.672C158.359 124.069 153.275 111.381 151.86 109.426C151.913 109.654 151.915 109.87 151.967 110.098C142.519 95.1772 123.252 82.5842 105.723 79.346C92.0618 76.8206 81.3688 88.8448 75.3634 99.7329C90.8459 83.9049 122.553 93.3461 137.039 106.568C142.201 111.307 148.387 120.976 151.953 127.431C154.51 132.029 155.657 137.796 156.467 142.944C157.953 143.031 159.279 143.565 160.729 143.805C161.381 140.193 160.947 134.597 159.848 131.102C159.554 130.978 159.766 130.544 159.958 130.644C160.122 130.63 160.224 130.654 160.188 130.807C164.279 133.727 165.413 139.545 166.813 144.027C167.449 144.072 168.06 144.219 168.571 144.557C168.534 144.709 168.548 144.874 168.512 145.027C168.005 145.121 167.498 145.214 167.003 145.257C167.384 149.279 165.571 149.651 165.506 145.436C164.352 145.536 163.158 145.573 161.798 145.408C161.792 146.106 161.621 146.819 161.462 147.481C161.818 147.566 162.175 147.652 162.531 147.737C162.543 149.032 162.018 149.875 160.904 150.254C160.694 150.904 160.462 154.563 159.1 154.182C157.89 153.838 159.057 150.995 159.279 150.295C159.177 150.27 159.063 150.297 158.961 150.272C158.697 149.132 158.381 147.979 158.116 146.839C157.768 146.271 157.522 145.727 157.402 145.106C157.135 145.096 156.88 145.035 156.664 145.037C156.815 146.204 155.494 146.102 155.231 145.177C151.734 146.061 151.126 143.438 154.626 142.986C153.657 139.846 152.983 137.046 152.285 134.348C150.155 136.044 146.141 133.25 143.862 132.65C148.086 137.486 151.506 142.076 152.341 148.468C151.156 146.676 149.753 144.67 148.096 142.603C144.328 141.699 140.757 139.98 137.043 139.304C139.747 141.945 141.368 144.165 140.435 144.91C140.36 145 123.18 127.524 121.202 126.565C122.593 127.275 131.775 134.109 137.043 139.304C137.79 139.107 138.503 139.278 139.154 139.703C141.516 139.732 143.129 139.742 145.51 140.367C145.907 140.732 146.379 141.007 146.978 141.204C134.392 126.123 110.268 107.519 86.7276 119.905C86.7276 119.905 128.969 134.136 143.09 167.945C129.215 154.87 104.129 151.487 104.129 151.487C106.738 153.405 109.244 155.299 111.637 157.219C112.036 156.453 112.869 155.9 114.673 156.01C114.364 156.851 113.531 157.404 111.765 157.358C121.641 165.112 129.723 172.49 135.952 178.615L131.941 177.383C131.941 177.383 116.39 162.99 107.772 176.912C107.772 176.912 111.832 172.557 117.772 176.298L118.686 183.032C116.556 183.382 112.569 182.048 110.535 183.121C112.146 180.223 108.37 178.456 107.635 181.294C105.581 174.825 86.5059 190.814 85.1212 194.789C85.3146 195.104 85.5569 195.216 85.899 195.137C90.0818 186.234 99.5365 185.65 107.45 183.188C107.34 183.646 107.358 184.243 107.299 184.713C106.362 185.027 106.425 187.68 106.368 188.367C103.314 190.325 97.8889 194.084 94.5452 195.005C91.784 195.742 84.3148 194.11 87.9597 198.216C86.5832 197.67 84.6833 196.837 83.4819 196.01C83.2599 195.365 83.038 194.719 82.7652 194.062L81.8081 194.909L81.4252 194.709C81.4395 194.874 81.5046 195.051 81.5189 195.216L80.6881 195.986C81.0953 196.084 81.5026 196.181 81.8854 196.381C83.606 201.101 77.4013 201.604 74.528 205.275C72.571 207.821 69.9889 211.4 69.4614 214.72C69.2353 216.334 69.455 224.84 72.6073 221.128C73.4239 220.193 72.6686 214.143 73.249 212.398C74.0391 210.004 75.9411 207.014 77.7392 205.131C79.9772 202.761 85.3959 201.046 83.9645 197.364C84.7423 197.713 89.5785 200.22 89.7211 199.177C95.7771 200.415 101.744 192.156 106.519 189.533C107.859 195.616 105.845 204.231 115.175 202.595C118.724 201.939 124.522 198.646 127.399 196.753C127.485 196.396 127.342 196.093 126.998 195.956C119.254 200.182 107.321 204.586 109.671 191.205C108.132 190.89 107.136 190.328 106.651 188.757C107.03 187.179 107.397 185.652 107.763 184.125C108.27 184.031 108.739 183.874 109.246 183.781C111.027 184.208 112.758 184.624 114.552 185.001C115.729 184.583 117.629 184.07 118.837 184.198L119.684 190.54C128.807 177.654 145.445 194.246 151.855 202.084C151.855 202.084 153.008 200.423 154.527 198.58C155.229 200.364 156.419 203.933 158.732 204.166C158.2 204.361 157.644 204.658 157.559 205.015C157.209 204.231 152.46 208.313 151.346 208.692C151.943 208.674 152.566 208.77 153.138 208.853C154.5 207.888 156.443 206.524 157.51 205.218C158.272 209.224 163.723 217.693 168.339 218.424C173.159 219.204 177.256 213.35 180.889 210.776C182.286 214.826 182.212 219.17 180.105 223.24C180.105 223.24 184.135 222.377 186.672 219.433C186.226 219.272 185.78 219.111 185.373 219.013C185.479 218.123 185.432 217.197 184.851 216.25C185.996 216.417 187.053 216.724 188.148 217.095C190.244 211.729 186.179 206.231 183.599 201.951C182.93 202.274 182.319 202.128 181.806 201.574C182.245 201.087 182.701 200.981 183.123 201.244C179.407 194.968 178.33 192.502 178.33 192.502C178.33 192.502 193.594 192.612 197.265 202.216C195.895 203.664 196.917 204.34 197.994 205.46C198.096 206.83 198.047 208.38 197.695 210.072C197.695 210.072 198.302 208.441 198.609 206.038C203.209 209.08 207.589 218.423 207.031 223.889C206.123 223.186 205.526 223.204 205.19 223.931C205.337 224.666 205.872 224.903 206.872 224.55C206.789 225.123 207.691 225.178 207.687 224.746C210.016 225.359 212.307 225.909 214.598 226.459C213.516 227.599 212.447 228.688 211.405 229.892C209.314 227.613 204.675 225.854 201.561 226.937C203.194 226.413 208.369 228.409 209.882 229.957C208.499 230.11 199.333 231.732 202.606 232.679C204.516 233.245 209.157 231.183 211.211 230.922C213.82 235.532 215.102 239.609 213.821 245.17C213.565 246.239 207.468 258.182 211.942 254.572C218.126 257.295 217.967 259.302 213.145 263.691C215.869 272.528 214.195 278.157 211.226 286.489C210.636 285.809 200.46 292.089 198.627 291.649C194.135 290.625 192.044 282.962 190.804 279.38C189.523 275.519 186.838 268.09 186.595 276.054C186.483 280.335 191.052 288.215 194.113 290.942C196.32 290.718 198.179 291.272 199.69 292.604C200.104 293.349 197.587 293.068 196.964 292.972C201.291 295.357 207.329 289.269 210.98 287.291C210.01 290.882 210.644 292.056 213.36 289.263C215.197 287.442 216.14 282.392 216.535 279.849C217.486 274.316 216.969 269.293 215.167 264.014C220.13 258.368 218.073 257.067 212.508 254.008C217.367 249.467 219.006 234.785 213.237 230.332C214.732 228.591 216.099 226.711 217.363 224.807C213.989 225.182 210.947 224.398 207.603 223.972C207.992 216.743 205.392 206.266 198.623 202.165C198.245 195.667 194.307 187.399 177.143 186.456C178.039 185.864 179.114 185.422 180.38 185.08C179.961 185.033 172.919 182.966 174.194 182.141C175.835 181.135 183.48 183.831 182.498 184.78C185.989 184.595 190.735 185.681 197.286 189.568C197.286 189.568 192.366 182.249 185.209 178.647C190.888 178.987 197.274 180.197 204.32 182.696C204.875 182.398 206.378 182.867 206.498 183.488C207.683 183.934 208.907 184.443 210.17 185.015C210.17 185.015 203.947 167.423 182.582 169.402C190.088 166.843 198.156 167.325 205.307 168.934C205.167 168.847 205.026 168.759 204.874 168.723C206.114 166.92 209.739 167.521 209.712 170.099C220.256 173.276 228.024 178.371 228.024 178.371C215.347 164.345 204.955 157.166 196.474 154.592C213.162 145.407 235.052 149.315 252.166 155.63C237.861 144.12 217.972 134.34 199.661 141.09C222.487 131.008 244.668 133.479 244.668 133.479C233.047 129.182 222.917 126.75 214.146 125.83C214.468 126.284 214.562 126.791 214.529 127.375C214.317 127.809 214.156 128.255 213.944 128.689C209.9 130.733 205.355 130.827 201.004 129.89L200.89 129.916L200.953 129.878C201.26 128.821 201.517 127.752 201.824 126.695C203.732 127.045 205.306 126.992 206.29 126.259C206.262 125.929 206.259 125.713 206.207 125.485C205.775 125.489 205.292 125.481 204.861 125.485C207.846 122.918 210.57 120.987 212.898 120.038C212.847 120.026 210.043 118.922 210.827 118.572C211.788 118.157 214.482 118.373 215.291 119.267C232.335 114.205 269.125 111.89 274.138 131.83C274.138 131.83 273.92 124.886 269.481 117.36C269.302 117.209 268.96 117.289 268.657 117.431ZM201.717 85.6426C204.452 87.4835 199.799 85.5591 199.925 85.4817C200.115 85.3656 201.082 85.5978 201.717 85.6426ZM162.597 26.5578C162.367 26.3949 162.149 26.1811 161.919 26.0182C162.579 25.9612 163.721 25.9123 162.597 26.5578ZM163.539 45.7359C164.507 45.9681 165.423 46.188 166.39 46.4202C164.784 47.0575 164.682 47.0331 163.539 45.7359ZM166.643 57.0335C167.984 55.2558 170.493 56.0195 171.605 54.0789C170.764 53.7694 169.899 53.5616 168.931 53.3295C169.848 53.5494 170.764 53.7694 171.68 53.9893C171.668 54.0402 171.668 54.0402 171.605 54.0789C172.446 54.3884 173.326 54.7611 174.169 55.2865C173.851 56.6101 173.533 57.9337 173.228 59.2064C171 58.6178 169.159 57.3146 166.643 57.0335ZM140.203 52.7871C141.537 51.492 140.378 48.4681 143.695 51.4717C143.217 53.2413 143.217 53.2413 140.203 52.7871ZM117.061 91.328C117.91 91.1549 110.645 90.9185 111.767 88.7112C114.005 86.3409 120.584 90.5583 117.061 91.328ZM104.352 126.558C105.551 125.823 106.443 126.145 106.977 127.511C105.826 128.043 104.934 127.721 104.352 126.558ZM108.414 122.418C108.176 122.738 105.498 121.557 107.975 121.559C108.663 121.832 108.589 122.137 108.414 122.418ZM118.403 177.257C118.147 176.98 118.273 176.902 118.731 177.012C118.988 177.289 118.861 177.367 118.403 177.257ZM128.847 181.971L132.038 182.36C131.01 182.382 129.916 182.228 128.847 181.971ZM178.448 203.675C178.598 203.496 178.94 203.417 179.181 203.313C180.331 204.127 180.142 205.589 178.568 205.642C177.806 205.675 178.36 203.816 178.448 203.675ZM173.633 212.965C174.179 212.934 174.725 212.904 175.232 212.81C178.048 213.863 173.071 215.307 173.633 212.965ZM176.049 198.415C176.861 198.395 177.487 198.707 177.975 199.362C178.175 200.326 174.516 198.747 176.049 198.415ZM184.236 172.383C184.936 172.605 185.649 172.776 186.4 173.011C186.887 173.45 187.424 173.902 187.911 174.342C187.145 175.289 185.685 175.316 183.647 174.611C183.27 173.713 183.25 172.901 184.236 172.383ZM192.418 83.7873C194.022 84.2801 191.803 84.555 190.984 83.9278C191.222 83.6081 191.819 83.5897 192.418 83.7873ZM185.704 90.898C189.888 91.6332 186.84 94.2396 186.866 94.3536C186.944 94.4799 181.875 90.2483 185.704 90.898ZM174.659 83.0782C175.127 82.9214 175.522 83.0701 175.844 83.5242C175.565 83.5649 175.235 83.5934 174.956 83.6341C174.459 83.461 174.343 83.2717 174.659 83.0782ZM165.236 108.652C166.434 109.047 166.399 109.416 165.183 109.77C163.566 109.328 163.613 108.909 165.236 108.652ZM163.247 105.052C164.636 105.547 164.766 105.901 163.676 106.178C163.306 105.927 162.884 105.665 162.526 105.363C162.754 105.31 162.98 105.042 163.247 105.052ZM158.89 79.2394C157.307 79.7749 156.58 79.4389 156.684 78.3331C157.444 78.0847 158.256 78.0644 159.02 78.2477C159.124 78.488 159.216 78.7792 159.268 79.0072C159.142 79.0846 159.016 79.162 158.89 79.2394ZM154.592 109.705C154.173 109.658 153.715 109.548 153.244 109.489C153.32 109.399 153.344 109.297 153.33 109.132C153.835 108.823 155.997 107.888 156.199 109.067C155.914 109.806 155.382 110.002 154.592 109.705ZM159.604 106.546C159.856 106.392 155.146 107.845 156.162 106.528C157.124 106.113 158.164 106.039 159.284 106.308L159.869 106.341L159.604 106.546ZM171.412 129.356C170.579 123.179 168.201 114.694 162.18 111.741C162.495 112.894 166.203 126.382 164.262 126.617C163.146 126.779 160.665 111.324 160.227 109.334C160.661 109.546 161.145 109.77 161.579 109.982L161.705 109.904C161.744 109.968 161.732 110.018 161.77 110.082C167.423 113 169.95 118.398 171.251 124.417C174.792 124.244 175.265 124.519 176.859 126.625C175.566 126.853 174.285 127.03 172.992 127.258C172.583 126.945 172.123 126.619 171.713 126.305C172.615 130.398 171.878 135.713 172.304 139.099C171.829 135.917 171.874 132.589 171.412 129.356ZM169.277 148.118C169.143 148.678 168.829 149.087 167.636 149.124C167.77 148.564 168.237 148.191 169.277 148.118ZM140.512 159.843C135.114 148.909 129.347 135.25 120.359 127.385C125.8 132.083 130.673 138.475 134.438 144.548C135.959 146.959 137.393 149.51 138.661 152.076C139.594 154.023 141.121 161.119 140.512 159.843ZM145.96 188.286C145.415 188.317 142.181 173.973 141.505 172.303C141.084 172.04 140.713 171.79 140.28 171.578L140.909 170.975C140.793 170.786 140.677 170.596 140.561 170.407C140.752 170.507 140.943 170.607 141.135 170.706L141.701 170.142C142.01 170.647 142.269 171.14 142.465 171.672C146.737 174.958 147.781 179.355 149.178 183.405C147.808 179.469 146.561 176.585 143.36 173.771C143.971 175.264 148.219 188.074 145.96 188.286ZM145.721 146.664C147.464 149.72 153.97 169.049 151.498 169.479C151.777 169.438 144.935 148.144 143.461 145.314C143.09 145.063 142.669 144.8 142.247 144.538L142.699 144C142.506 143.684 142.312 143.369 142.107 143.104C142.388 143.279 142.72 143.467 143.001 143.642L143.453 143.104C143.775 143.558 144.084 144.063 144.457 144.53C154.752 150.985 155.281 159.996 158.859 169.092C155.477 160.527 154.341 151.801 145.721 146.664ZM165.218 194.416C165.067 194.595 164.967 194.786 164.817 194.966C164.371 194.805 162.218 194.127 162.63 193.31C163.104 192.455 165.051 194.214 165.218 194.416C166.627 194.377 167.975 194.593 169.199 195.102L169.25 195.114C169.797 195.3 170.282 195.524 170.742 195.85C170.219 195.562 169.747 195.287 169.199 195.102C168.052 194.719 166.692 194.554 165.218 194.416ZM176.732 173.813C173.207 177.058 165.173 189.667 164.19 189.054C161.827 187.68 173.115 176.767 176.732 173.813C177.147 173.428 177.475 173.183 177.715 173.08C177.538 173.145 177.21 173.389 176.732 173.813ZM165.589 177.168C164.1 178.211 155.488 187.396 155.399 187.321C152.656 185.963 164.023 176.739 165.538 175.81C169.843 173.128 174.196 172.935 178.098 171.933C173.386 173.171 169.613 174.311 165.589 177.168ZM204.557 144.472C204.494 144.511 204.443 144.498 204.329 144.525C204.874 144.494 205.42 144.464 205.966 144.433C205.695 145.337 192.666 150.717 190.876 152.118C189.225 153.391 175.196 167.199 174.71 166.759C170.741 163.33 200.191 146.062 204.329 144.525C201.981 144.661 199.507 144.875 196.945 145.229C191.545 146.194 186.089 148.062 181.438 150.391C180.874 151.171 180.66 151.389 179.972 151.116C178.404 151.816 167.204 159.896 167.102 159.872C164.258 158.489 177.251 150.786 178.543 150.342C178.453 150.267 178.402 150.254 178.312 150.179C178.691 149.947 179.135 149.892 179.618 149.9C185.244 147.32 191.327 145.981 197.008 145.191C199.519 144.824 202.119 144.533 204.557 144.472ZM187.004 130.568C188.273 131.787 188.944 133.025 189.162 134.585C187.943 134.508 186.772 134.227 185.701 133.754C185.308 132.476 186.888 131.724 187.004 130.568ZM199.02 137.705C198.468 138.434 198.694 139.511 196.638 139.556C192.117 136.856 192.117 136.856 190.995 135.025C193.632 135.927 196.332 136.791 199.02 137.705ZM196.854 128.786C198.344 127.959 198.599 128.02 199.666 129.407C198.749 129.187 197.821 129.018 196.854 128.786ZM212.118 114.09C209.147 115.477 191.013 134.276 192.021 134.787C188.423 132.954 207.048 116.373 210.318 114.412C209.583 114.559 208.848 114.705 208.101 114.903C203.274 116.167 198.837 118.279 194.675 121.264C193.174 122.357 191.586 123.591 190.252 124.886C188.717 126.348 187.542 128.328 186.031 129.688C186.094 129.649 181.314 134.532 182.687 131.954C186.006 125.752 192.119 120.92 198.324 117.725C201.281 116.173 204.818 115.568 208.152 114.915C208.95 114.73 209.76 114.493 210.546 114.359C210.483 114.398 210.42 114.436 210.357 114.475C211.383 114.237 212.359 113.986 213.295 113.673L213.307 113.622C213.8 113.363 214.383 113.18 214.914 112.985C214.421 113.243 213.89 113.439 213.295 113.673C213.275 114.206 212.908 114.388 212.118 114.09ZM252.25 102.564C252.837 102.812 253.372 103.048 253.971 103.246C253.201 103.761 252.375 103.616 251.58 102.887C251.45 102.533 251.703 102.378 252.25 102.564ZM245.885 103.512C246.249 103.115 247.062 103.095 247.927 103.303C251.263 104.211 245.469 105.243 245.885 103.512ZM249.059 114.289C249.32 113.651 249.849 113.24 250.635 113.106C251.562 114.405 251.499 114.444 249.059 114.289ZM247.481 108.526C249.163 107.799 250.817 108.088 252.466 109.292C253.81 110.422 246.923 109.953 247.481 108.526Z" class="pineapple"/>
<path d="M208.1 114.903C208.835 114.756 209.621 114.622 210.318 114.412C210.381 114.373 210.444 114.335 210.507 114.296C209.658 114.469 208.848 114.705 208.1 114.903Z" class="pineapple"/>
<path d="M176.731 173.814C177.198 173.441 177.59 173.157 177.716 173.08C177.476 173.184 177.096 173.416 176.731 173.814Z" class="pineapple"/>
<path d="M168.932 53.3296C169.899 53.5618 170.765 53.7695 171.606 54.079C171.618 54.0281 171.618 54.0281 171.681 53.9894C170.765 53.7695 169.848 53.5495 168.932 53.3296Z" class="pineapple"/>
<path d="M86.6953 216.271C84.3739 215.176 81.6109 202.237 79.4442 206.778C77.1777 211.51 84.8299 219.108 88.7397 218.969C94.8201 218.76 101.927 210.236 104.454 207.558C101.915 210.287 90.7129 218.151 86.6953 216.271Z" class="pineapple"/>
<path d="M196.323 215.342C196.005 215.32 190.55 209.111 190.737 212.817C191.132 219.696 201.147 217.9 202.646 212.552C202.78 211.992 197.186 215.334 196.323 215.342Z" class="pineapple"/>
<path d="M112.363 218.126C111.921 213.013 108.545 207.787 108.661 216.053C108.696 218.376 110.184 221.372 111.333 223.316C117.989 234.39 130.042 226.569 136.546 218.762C131.736 224.445 113.324 232.516 112.363 218.126Z" class="pineapple"/>
<path d="M165.824 222.612C161.033 226.2 147.257 243.891 145.52 228.022C145.272 225.916 145.18 216.203 141.957 221.783C140.495 224.285 143.394 232.842 145.406 234.778C153.722 242.751 161.141 228.218 166.34 223.382C166.335 222.95 166.181 222.697 165.824 222.612Z" class="pineapple"/>
<path d="M198.897 240.727C195.26 238.831 194.707 227.23 191.766 227.816C188.451 231.759 180.026 240.612 177.677 239.187C177.715 239.25 177.691 239.352 177.73 239.415C176.585 239.248 174.268 238.584 174.734 236.865C174.158 236.35 173.822 235.731 173.688 234.945C172.423 232.811 171.055 222.36 167.819 223.953C165.127 225.299 170.452 235.191 171.456 236.617C180.177 248.509 185.698 236.051 191.102 228.788C190.18 233.304 195.633 246.027 202.125 243.655C200.897 242.714 201.846 242.35 202.807 241.934C203.405 242.132 203.941 242.368 204.54 242.566C204.969 242.346 205.36 242.063 205.763 241.729C205.401 240.996 205.434 240.411 205.735 240.053C203.397 241.269 200.901 241.8 198.897 240.727Z" class="pineapple"/>
<path d="M191.754 227.867C192.508 226.971 193.023 226.395 193.135 226.153C192.632 226.678 192.168 227.266 191.754 227.867Z" class="pineapple"/>
<path d="M205.685 240.041C205.938 239.886 206.19 239.731 206.443 239.576C206.152 239.668 205.899 239.823 205.685 240.041Z" class="pineapple"/>
<path d="M211.273 234.706C210.375 236.429 208.576 238.312 206.493 239.589C206.899 239.471 207.432 239.491 207.992 239.626C209.442 238.52 211.395 236.889 212.089 235.117C211.908 234.751 211.666 234.639 211.273 234.706Z" class="pineapple"/>
<path d="M87.1221 223.913C88.8062 219.364 84.3608 223.304 83.3406 224.19C81.628 225.717 80.563 228.584 78.6488 230.278C77.2254 231.498 70.7355 236.778 69.3101 233.744C68.7013 232.467 68.6973 230.689 67.95 229.541C68.0783 229.679 67.1943 236.951 70.8841 236.383C70.7353 243.508 68.7212 250.778 71.073 257.803C73.268 264.36 74.5204 262.507 79.6887 258.471C81.8818 256.736 96.8104 245.459 90.5507 245.518C87.427 245.522 76.8317 257.139 74.1519 259.78C70.727 252.067 72.0385 244.359 71.7842 236.222C77.7181 235.277 82.4262 230.916 86.0794 226.462C85.2444 232.184 87.2966 246.514 96.1689 244.767C96.1384 244.221 95.9042 243.627 95.7719 243.057C95.833 242.802 95.9959 242.572 96.1853 242.456C95.831 242.586 95.552 242.627 95.2852 242.617C87.3171 241.942 89.9974 223.149 87.1221 223.913Z" class="pineapple"/>
<path d="M96.9183 242.092C98.1727 241.801 100.042 242.088 100.563 242.16C102.329 240.86 114.136 231.15 113.956 230.999C112.967 229.738 101.797 239.71 96.9183 242.092Z" class="pineapple"/>
<path d="M96.197 242.405C96.4376 242.301 96.6782 242.197 96.9697 242.105C96.6272 242.184 96.3866 242.288 96.197 242.405Z" class="pineapple"/>
<path d="M174.91 246.223C174.719 246.123 168.919 253.238 168.139 254.019C168.685 253.989 169.233 254.174 169.693 254.5C170.306 253.517 175.867 246.721 174.91 246.223Z" class="pineapple"/>
<path d="M167.097 255.222C162.733 261.066 157.38 260.266 153.881 254.204C152.823 252.334 150.856 238.994 148.447 240.731C148.351 241.354 133.61 252.299 131.262 253.782C123.903 258.422 118.981 246.85 117.609 241.352C117.147 239.464 117.758 235.573 116.662 233.856C114.045 229.728 113.699 233.414 113.565 236.666C113.328 242.586 117.735 252.042 122.832 255.258C131.62 260.813 142.319 246.744 148.158 241.039C143.547 253.069 159.224 268.731 168.93 255.662C168.27 255.719 167.659 255.573 167.097 255.222Z" class="pineapple"/>
<path d="M190.53 265.046C189.864 265.802 188.957 266.661 187.801 266.545C188.184 266.744 190.835 267.811 188.843 268.033C188.782 268.288 188.721 268.542 188.609 268.785C190.271 268.591 191.289 267.49 192.191 266.199C192.101 266.123 192.063 266.06 191.973 265.985C191.45 265.698 190.876 265.398 190.53 265.046Z" class="pineapple"/>
<path d="M181.509 259.112C181.266 259 180.961 258.926 180.731 258.763L181.509 259.112C180.631 257.609 177.984 242.167 175.856 249.463C174.27 254.951 180.873 264.451 184.801 267.601C184.85 267.397 184.899 267.194 185.011 266.951C185.426 266.567 185.893 266.194 186.155 265.772C183.903 263.94 182.928 261.498 181.509 259.112Z" class="pineapple"/>
<path d="M193.06 265.276C196.809 261.546 200.576 254.374 202.492 251.55C199.562 255.908 195.387 260.29 191.6 263.957C192.249 264.167 192.724 264.657 193.06 265.276Z" class="pineapple"/>
<path d="M105.496 271.179C99.8816 275.054 96.3608 276.04 94.1434 268.455C92.8261 263.4 94.7037 257.821 93.427 253.046C90.9531 243.837 89.7513 257.817 90.2848 261.875C90.9709 267.316 92.6119 277.078 99.6209 277.038C103.125 277.018 120.685 260.611 120.646 260.548C120.121 260.045 107.035 270.149 105.496 271.179Z" class="pineapple"/>
<path d="M153.662 265.888C151.701 263.964 137.118 289.053 129.202 273.585C128.271 271.854 124.227 255.054 122.739 262.827C121.492 269.365 128.342 279.409 134.539 280.735C135.235 280.525 135.921 280.582 136.571 280.792C139.399 280.448 155.892 268.039 153.662 265.888Z" class="pineapple"/>
<path d="M169.02 286.696C164.051 287.657 162.166 282.951 160.649 278.279C159.865 275.937 155.343 259.561 155.01 268.796C154.754 276.595 161.597 292.721 170.875 288.164C177.031 285.173 181.476 275.848 185.396 272.751C180.821 276.337 175.003 285.547 169.02 286.696Z" class="pineapple"/>
<path d="M69.5736 263.149C67.9202 262.86 61.3875 270.337 60.019 272.001C58.0785 268.197 54.8429 261.713 54.5742 258.795C54.8633 262.526 54.9344 270.08 57.9195 272.897C61.0717 275.915 60.5402 274.764 64.6863 271.398C66.2746 270.164 74.3569 264.082 69.5736 263.149Z" class="pineapple"/>
<path d="M156.422 301.494C156.538 301.683 156.654 301.873 156.605 302.076C156.477 301.938 156.285 301.838 156.157 301.699C155.047 302.51 154.027 303.396 153.046 304.345C153.211 304.33 153.375 304.316 153.54 304.302C153.296 305.32 152.655 305.974 151.374 306.151C136.209 322.001 135.882 284.557 132.327 284.565C134.727 281.965 128.209 286.915 130.19 285.614C128.02 287.031 125.881 289.21 124.057 290.979C120.658 294.148 117.707 297.693 113.963 300.509C114.765 300.756 115.594 301.116 116.384 301.413C116.887 300.888 117.339 300.35 117.716 299.902C122.065 295.239 126.454 290.639 130.854 285.989C130.321 294.044 134.222 310.541 144.58 311.573C149.576 312.072 163.376 295.625 162.443 295.025C162.022 294.762 157.355 300.749 156.422 301.494Z" class="pineapple"/>
<path d="M95.2747 284.61C88.6891 290.513 81.4518 298.682 77.3897 286.67C76.0967 282.86 76.3187 279.467 76.2944 275.531C76.2863 273.322 76.258 263.57 73.293 269.642C70.7638 274.796 73.6815 289.333 77.7438 293.27C84.7791 300.073 91.1673 289.385 96.2664 284.74C95.9365 284.768 95.6189 284.746 95.2747 284.61Z" class="pineapple"/>
<path d="M103.094 292.408C101.797 289.512 101.736 285.729 100.035 283.167C98.889 281.438 96.132 277.223 96.7957 282.982C96.6572 283.11 96.5065 283.289 96.368 283.418C96.4189 283.43 96.4189 283.43 96.4698 283.442C96.4983 283.772 96.4759 284.09 96.4922 284.47C96.6307 284.342 96.7692 284.214 96.9076 284.086C97.9175 290.197 102.621 300.209 108.871 303.109C110.622 302.991 110.805 302.227 110.683 301.391C107.474 300.405 104.48 295.379 103.094 292.408Z" class="pineapple"/>
<path d="M60.6745 280.935C60.3731 281.293 60.1613 281.727 59.9495 282.161C60.2163 282.171 60.483 282.181 60.7254 282.293C60.7254 282.293 61.3282 280.23 60.6745 280.935Z" class="pineapple"/>
<path d="M77.2276 295.191C74.5478 297.832 71.4647 302.153 68.0233 300.789C65.4739 299.746 63.0101 292.963 62.0103 290.623C62.1346 290.33 62.0185 290.141 61.6866 289.953C60.6624 287.715 60.2124 285.777 60.469 283.362C60.19 283.402 59.9355 283.341 59.5018 283.129C59.0456 284.581 59.2654 287.703 59.5973 289.236C57.7544 290.409 54.8729 294.563 53.5187 296.392C53.142 295.494 52.8102 293.96 52.1687 293.268C51.5273 292.576 52.4476 297.265 52.5392 297.557C52.3498 297.673 52.1992 297.852 52.0485 298.031L52.6716 298.127C52.8406 298.544 53.2377 298.909 53.4067 299.326C53.8485 299.055 54.3027 298.734 54.7059 298.4L55.1253 298.447L54.9706 298.194C57.011 296.423 58.8621 294.767 60.927 292.894C62.0713 295.753 64.5269 303.018 67.8379 304.028C70.4363 304.867 73.0611 303.129 75.2176 301.546C75.8733 301.058 79.718 298.05 79.4533 296.91C79.3067 296.175 78.3599 294.063 77.2276 295.191Z" class="pineapple"/>
<path d="M53.3951 299.377L53.4963 299.401L53.47 299.288L53.3951 299.377Z" class="pineapple"/>
<path d="M79.2326 327.438C79.7376 327.128 80.88 327.079 81.6701 327.377C82.3889 326.849 83.0955 326.373 83.8653 325.858C84.8733 325.023 85.869 324.239 86.9544 323.53C86.8159 323.659 80.6845 326.548 79.2326 327.438Z" class="pineapple"/>
<path d="M79.1584 327.528C78.9688 327.644 78.7792 327.761 78.5774 327.928C78.6793 327.952 78.8322 327.989 78.9341 328.013C78.9586 327.911 78.9831 327.81 79.0076 327.708C79.083 327.618 79.0952 327.567 79.1584 327.528Z" class="pineapple"/>
<path d="M72.8448 330.051C73.4415 330.033 73.8589 329.864 74.0728 329.646C73.2216 329.603 72.4824 329.318 71.8552 328.791C71.9041 328.587 72.0548 328.408 72.2951 328.304C69.6378 325.243 68.4914 320.822 67.8827 316.854C67.6383 315.18 68.2554 313.282 67.8339 311.673C67.5163 310.305 65.0219 304.322 64.4415 308.759C63.8306 308.613 56.3265 318.118 56.5627 318.928C54.7157 319.67 52.7447 316.666 51.3681 316.12C51.0647 316.263 50.8896 316.544 50.8672 316.861C54.0601 318.812 54.5161 321.398 58.4646 319.977C60.4643 319.273 62.8347 314.781 64.5473 313.253C65.7201 317.788 66.4795 321.578 68.1471 326.07C68.365 326.284 68.4689 326.524 68.4465 326.842C69.823 330.08 73.8752 332.937 77.2983 331.012C75.8647 331.153 74.1847 330.75 72.8448 330.051Z" class="pineapple"/>
<path d="M56.5634 318.928C56.6145 318.94 56.6268 318.889 56.5634 318.928C56.5757 318.876 56.5634 318.928 56.5634 318.928Z" class="pineapple"/>
<path d="M105.435 344.119C99.173 346.654 98.3829 345.01 96.0006 338.785C94.7117 335.407 94.8951 329.259 92.6735 326.626C89.6436 323.099 89.2627 325.808 90.0873 329.774C90.5333 329.935 90.6636 330.29 90.5027 330.735C90.4905 330.786 90.4274 330.825 90.4151 330.876C91.0382 332.318 91.2561 333.878 91.8282 335.307C92.1846 335.393 92.5287 335.529 92.822 335.653C92.4778 335.517 92.1724 335.444 91.8282 335.307C93.5427 339.38 95.2408 347.11 100.024 348.042C103.205 348.698 119.889 336.389 119.235 335.748C118.826 335.434 107.041 343.481 105.435 344.119Z" class="pineapple"/>
<path d="M132.873 352.051C133.826 352.118 134.779 352.186 135.681 352.241C135.844 352.011 136.058 351.793 136.272 351.575C139.98 347.565 144.352 345.277 148.447 341.898C145.096 344.647 136.964 346.895 132.873 352.051Z" class="pineapple"/>
<path d="M130.092 349.284C129.717 349.948 128.846 349.092 128.667 348.942C128.766 348.75 128.815 348.546 128.903 348.406C129.106 348.455 129.361 348.516 129.565 348.565C128.066 347.182 126.781 344.236 126.064 342.287C125.439 340.629 124.678 335.278 122.959 334.811C118.618 333.608 122.006 340.128 122.694 341.747C124.578 346.237 127.139 349.921 130.463 353.572C130.674 353.138 130.886 352.705 131.187 352.346C131.187 352.346 131.188 352.346 131.137 352.334C131.198 352.08 131.247 351.876 131.295 351.672C131.295 351.672 131.295 351.672 131.346 351.685C131.46 351.658 131.587 351.581 131.713 351.503C131.059 350.862 130.544 350.092 130.092 349.284Z" class="pineapple"/>
<path d="M162.142 361.553C157.852 363.054 154.345 369.588 148.773 368.574C145.263 367.947 135.994 359.907 135.652 355.949C135.411 356.052 135.183 356.105 134.904 356.146L134.892 356.197C135.535 363.835 146.285 371.315 152.877 370.097C157.833 369.187 170.837 358.525 162.142 361.553Z" class="pineapple"/>
<path d="M126.766 358.876C127.617 358.919 128.468 358.962 129.319 359.005C129.48 358.559 129.871 358.276 130.85 358.457C131.156 358.53 131.398 358.642 131.59 358.742C133.284 355.272 127.157 358.593 126.766 358.876Z" class="pineapple"/>
<path d="M126.766 358.876C119.386 364.05 116.14 367.255 110.907 359C110.831 359.09 110.717 359.116 110.642 359.206C110.502 359.118 110.31 359.018 110.182 358.88C110.32 358.752 110.497 358.687 110.636 358.558C108.471 355.239 107.804 351.741 106.107 348.265C107.842 351.804 107.465 361.674 112.76 365.637C117.875 369.449 127.242 363.621 131.113 359.381C129.7 358.988 128.238 358.799 126.766 358.876Z" class="pineapple"/>
<path d="M100.18 349.857C95.3517 350.905 86.7725 355.469 81.9995 352.923C79.2301 351.451 74.3454 335.687 75.0682 335.592C71.6839 336.233 78.8391 354.426 82.6999 355.837C85.8602 357.026 91.8898 355.458 95.1703 354.577C96.551 354.208 99.2674 354.107 100.145 352.917C100.22 352.828 103.132 349.219 100.18 349.857Z" class="pineapple"/>
<path d="M70.6557 336.255C69.7272 336.086 67.7601 337.552 66.9374 337.839C64.5202 338.713 61.48 340.837 59.4375 342.392C58.1363 340.411 57.7434 337.786 56.4178 335.907C56.0492 335.872 55.7967 336.027 55.6216 336.308C58.3624 341.488 56.0022 344.368 61.8729 343.462C65.0557 342.987 68.6499 340.35 71.8266 339.228C74.6489 338.237 72.0038 336.471 70.6557 336.255Z" class="pineapple"/>
<path d="M111.964 371.422C110.864 371.966 109.97 372.774 108.909 373.381C109.557 373.375 110.204 373.369 110.801 373.35C110.99 373.234 111.192 373.067 111.381 372.951C111.76 372.719 112.1 372.424 112.428 372.179C112.184 371.852 112.017 371.65 111.964 371.422Z" class="pineapple"/>
<path d="M107.038 374.224C100.371 378.223 95.9156 381.084 90.7883 373.285C89.2551 370.925 86.5186 358.1 84.138 361.513C82.0833 364.465 87.1718 373.548 89.5074 376.154C97.5425 385.297 103.228 378.209 110.801 373.351C110.205 373.369 109.557 373.375 108.91 373.381C108.291 373.717 107.606 373.876 107.038 374.224Z" class="pineapple"/>
<path d="M136.993 379.745C130.508 384.11 127.508 385.167 122.34 378.435C121.049 378.879 119.778 378.789 118.465 378.205C122.932 384.715 127.661 387.896 134.835 383.803C140.632 380.51 147.558 375.658 152.673 371.394C150.04 373.616 141.359 376.808 136.993 379.745ZM130.683 383.829C130.573 384.288 130.475 384.695 130.416 385.165C128.577 384.078 128.589 384.027 130.683 383.829Z" class="pineapple"/>
<path d="M114.769 370.049C114.103 369.458 113.509 369.693 112.922 370.79C113.48 370.709 114.242 370.676 115.333 370.615C115.671 371.45 115.36 372.075 114.488 372.566C115.058 373.779 115.769 375.081 116.553 376.077C117.357 375.193 118.277 374.498 119.377 373.955C118.719 372.882 116.575 369.029 114.769 370.049Z" class="pineapple"/>
<path d="M78.9972 236.23C78.932 236.052 78.8038 235.914 78.7386 235.737L78.539 236.12C78.2723 236.109 77.9546 236.087 77.6879 236.077C77.8304 236.38 77.9342 236.621 78.1399 236.885L77.9526 237.217C78.0666 237.191 78.1684 237.215 78.2824 237.189C78.8791 238.516 79.3085 246.372 80.3022 246.719C82.7092 247.458 79.8443 238.533 79.5287 237.38C79.885 237.466 80.2414 237.551 80.5855 237.688C81.7584 238.185 83.4424 240.365 83.6134 240.999C82.7766 238.429 81.6709 236.979 78.9972 236.23Z" class="pineapple"/>
<path d="M99.9375 224.135C99.1108 221.298 98.4776 218.777 96.5248 216.37C96.1705 216.501 95.8936 216.757 95.808 217.113L95.7571 217.101C95.7571 217.101 95.808 217.113 95.7958 217.164C95.3783 218.679 95.0686 228.942 96.215 227.979C97.7138 226.67 96.3985 220.486 96.6836 218.4C97.0562 218.867 97.378 219.321 97.7384 219.838C98.4592 220.873 99.7156 223.489 99.9375 224.135Z" class="pineapple"/>
<path d="M87.414 276.531C86.8499 275.965 85.8338 273.244 84.6039 272.087C84.1559 271.711 83.7833 271.244 83.3231 270.918C81.4272 273.209 82.0584 275.514 82.9462 278.097C82.9971 278.109 83.0603 278.07 83.1112 278.082C82.7609 278.644 83.9562 278.823 84.4246 277.321C84.8054 275.958 82.2988 274.065 83.5654 272.376C85.0254 273.696 86.0293 275.122 87.414 276.531Z" class="pineapple"/>
<path d="M64.8672 252.705C63.8837 249.4 62.8717 247.111 60.7255 244.389C60.6176 243.717 60.3957 243.071 60.0475 242.503L59.3918 242.992C59.2126 242.841 59.0456 242.64 58.8155 242.477C58.9193 242.717 59.0232 242.957 59.127 243.198L58.4713 243.686L58.5609 243.762C58.9315 244.012 59.3021 244.263 59.6483 244.615C59.9537 246.034 60.0308 256.929 60.5521 257C62.6129 257.387 61.6845 247.796 61.3038 246.466C62.7414 248.103 64.3968 251.3 64.8672 252.705Z" class="pineapple"/>
<path d="M101.225 250.395C101.172 250.167 101.119 249.939 101.015 249.698L100.588 250.134C100.333 250.073 100.079 250.012 99.8749 249.963C99.9787 250.203 100.032 250.431 100.085 250.659L99.6692 251.044C99.8219 251.081 100.026 251.13 100.178 251.166C100.406 252.459 100.854 262.258 101.933 262.248C103.342 262.209 102.679 259.143 102.532 258.408C102.225 258.118 102.031 257.803 102.129 257.396C102.202 257.09 102.276 256.785 102.388 256.542C102.08 254.907 101.925 253.309 101.504 251.7C104.412 253.044 105.094 255.361 107.132 257.412C106.367 254.321 104.145 251.688 101.225 250.395Z" class="pineapple"/>
<path d="M138.692 232.253C138.464 232.306 138.236 232.359 138.008 232.412L137.633 231.73C137.382 232.1 137.132 232.471 136.843 232.778C132.662 233.821 128.023 236.099 125.671 239.842C126.331 239.785 126.979 239.779 127.614 239.824C129.915 237.415 132.577 235.523 135.676 234.275C134.25 236.625 133.348 239.262 132.509 241.86C132.65 241.948 132.739 242.023 132.88 242.111C133.426 239.388 135.336 235.916 137.183 233.829C137.651 233.672 138.12 233.516 138.588 233.359L138.213 232.677C138.39 232.612 138.541 232.432 138.692 232.253Z" class="pineapple"/>
<path d="M167.294 239.602C166.976 239.58 166.709 239.57 166.43 239.61L166.186 239.282C166.161 239.384 166.125 239.537 166.049 239.627C164.868 239.612 163.789 239.622 162.61 239.824C160.747 240.184 155.412 242.673 159.35 242.864C161.052 242.95 163.368 240.706 165.514 240.736C164.693 242.585 163.498 243.752 162.447 245.438C162.909 244.634 165.591 242.209 166.644 240.738C166.809 240.724 166.974 240.71 167.139 240.696L166.895 240.368C167.057 240.138 167.182 239.845 167.294 239.602Z" class="pineapple"/>
<path d="M185.308 226.912L185.395 226.771C185.18 226.773 184.901 226.814 184.672 226.867L184.351 226.413C184.302 226.617 184.202 226.808 184.051 226.987C182.555 227.166 177.042 227.028 176.767 228.846C176.515 230.347 182.249 228.439 183.326 228.213C182.738 229.095 181.793 229.891 180.793 230.243C180.997 230.292 181.15 230.329 181.353 230.378C182.693 229.73 183.628 229.201 184.505 228.012C184.848 227.932 185.139 227.84 185.481 227.761L185.12 227.244C185.133 227.193 185.22 227.052 185.308 226.912Z" class="pineapple"/>
<path d="M159.766 215.558C159.55 215.56 159.334 215.562 159.068 215.552L158.87 214.805C158.605 215.01 158.341 215.216 158.115 215.485C156.589 215.334 146.497 218.35 149.004 220.243C149.413 220.557 155.284 216.959 156.844 216.741C155.412 218.444 153.421 221.357 153.099 223.595C153.364 222.044 156.742 218.063 158.43 216.637C158.799 216.672 159.117 216.694 159.446 216.666L159.237 215.97C159.363 215.892 159.438 215.803 159.577 215.674L159.766 215.558Z" class="pineapple"/>
<path d="M174.338 263.421C174.148 263.537 174.022 263.615 173.845 263.68L173.293 263.063C173.106 263.395 172.969 263.739 172.833 264.083C171.251 264.619 166.378 267.648 166.359 269.744C166.404 271.801 171.179 266.486 171.976 266.085C171.434 267.893 170.585 270.758 170.768 272.686C170.666 271.316 172.668 266.789 173.578 265.016C173.945 264.834 174.311 264.653 174.717 264.535L174.165 263.918C174.15 263.753 174.238 263.613 174.338 263.421Z" class="pineapple"/>
<path d="M137.528 257.063C137.538 256.796 137.561 256.478 137.457 256.238L137.141 256.431C136.834 256.142 136.311 255.855 135.94 255.604C136.121 255.971 136.368 256.515 136.321 256.934L135.954 257.115C136.044 257.191 136.133 257.266 136.223 257.342C135.37 261.121 136.909 265.475 137.614 259.398C139.07 261.632 138.363 263.455 137.876 265.707C138.035 265.045 139.534 263.736 139.416 261.984C139.322 260.131 138.394 258.616 137.528 257.063Z" class="pineapple"/>
<path d="M112.795 286.984C114.905 284.476 113.644 281.427 111.871 279.171C111.726 278.652 111.594 278.081 111.512 277.524L110.755 277.988C110.639 277.798 110.46 277.648 110.343 277.458C110.396 277.686 110.449 277.914 110.439 278.181L109.745 278.607C109.989 278.935 110.297 279.224 110.604 279.513C110.692 280.718 110.726 288.426 111.856 288.428C112.591 288.281 112.866 287.809 112.669 287.062C112.732 287.023 112.783 287.035 112.795 286.984Z" class="pineapple"/>
<path d="M123.382 211.025C122.669 210.854 122.565 210.614 123.109 210.367C122.397 208.85 120.843 207.023 119.601 205.918C119.521 205.576 119.454 205.183 119.438 204.802L118.756 205.176C118.576 205.026 118.41 204.824 118.293 204.635C118.283 204.902 118.324 205.181 118.377 205.409L117.809 205.757C117.886 205.883 118.014 206.022 118.104 206.097C118.194 206.172 118.283 206.248 118.373 206.323C118.346 207.555 118.22 215.708 119.527 215.645C121.152 215.605 119.973 209.076 119.935 207.667C121.67 209.86 122.958 211.892 124.48 214.303C124.545 214.481 123.604 211.67 123.382 211.025Z" class="pineapple"/>
<path d="M148.051 285.001C147.998 284.773 147.984 284.608 147.931 284.38L147.477 284.701C147.234 284.589 147.004 284.426 146.75 284.365C146.79 284.644 146.843 284.872 146.884 285.151L146.43 285.473C146.57 285.561 146.774 285.61 146.914 285.697C146.941 287.157 144.915 297.17 145.603 297.443C147.845 298.196 147.986 287.516 148.024 286.233C148.535 286.571 149.097 286.921 149.621 287.208C151.166 288.171 152.917 290.745 152.665 292.246C153.306 288.9 150.818 286.257 148.051 285.001Z" class="pineapple"/>
<path d="M187.136 286.361L187.299 286.13C187.071 286.183 186.843 286.236 186.564 286.277L186.228 285.658C186.065 285.888 185.89 286.169 185.727 286.399C183.748 286.57 173.493 292.508 176.515 293.825C176.859 293.962 182.889 288.356 184.813 287.741C183.66 289.403 181.559 292.775 181.388 294.834C181.204 296.943 184.379 296.951 184.061 295.583C184.035 295.469 181.231 297.057 181.944 294.536C182.632 292.117 184.829 289.468 186.283 287.448C186.562 287.407 186.853 287.316 187.183 287.287L186.835 286.719C186.91 286.629 187.049 286.501 187.136 286.361Z" class="pineapple"/>
<path d="M199.207 273.535C201.047 272.147 208.026 270.214 210.873 271.813C208.578 272.177 206.49 273.022 204.367 274.02C204.509 274.324 204.588 274.666 204.554 275.034C204.159 274.886 203.701 274.776 203.306 274.627C202.737 274.975 200.467 276.584 201.338 277.439C202.004 278.03 206.985 274.326 207.934 273.961C209.958 273.155 212.164 272.715 214.334 272.644C209.903 268.673 203.556 270.218 199.207 273.535Z" class="pineapple"/>
<path d="M186.258 249.645C186.182 249.735 186.107 249.825 186.032 249.914C186.107 249.825 186.182 249.735 186.258 249.645Z" class="pineapple"/>
<path d="M186.258 249.645C188.357 247.403 194.949 246.185 198.048 247.629C197.606 247.9 197.227 248.132 196.747 248.34C195.674 248.997 187.932 253.438 188.921 254.699C189.705 255.695 198.869 248.472 200.435 247.556C196.309 245.004 189.51 245.741 186.258 249.645Z" class="pineapple"/>
<path d="M209.08 232.618L210.069 232.532L209.21 231.626C208.882 231.871 208.847 232.239 209.08 232.618Z" class="pineapple"/>
<path d="M194.988 316.458C194.81 316.523 194.582 316.576 194.417 316.59L194.043 315.908C193.817 316.177 193.654 316.407 193.479 316.688C191.844 316.995 185.173 319.217 186.046 321.634C186.333 322.457 191.29 318.855 192.401 318.26C191.503 319.983 190.249 322.966 190.306 324.972C190.33 323.524 192.856 319.284 194.047 317.686C194.377 317.657 194.707 317.629 195.049 317.549L194.662 316.918C194.749 316.778 194.837 316.637 194.988 316.458Z" class="pineapple"/>
<path d="M162.994 310.447C162.766 310.5 162.551 310.502 162.322 310.555L161.974 309.986C161.85 310.28 161.687 310.51 161.524 310.74C160.486 311.029 149.365 314.067 151.493 316.193C151.917 316.671 159.292 312.412 160.673 312.043C159.624 313.945 158.087 316.537 157.586 318.624C157.867 317.453 160.736 313.35 161.978 311.764C162.32 311.685 162.663 311.605 163.005 311.526L162.656 310.958C162.693 310.805 162.844 310.626 162.994 310.447Z" class="pineapple"/>
<path d="M124.291 299.65C124.289 299.434 124.35 299.18 124.399 298.976L123.792 299.261C123.613 299.11 123.434 298.96 123.267 298.758C123.206 299.013 123.196 299.279 123.122 299.585L122.642 299.792C122.77 299.931 122.86 300.006 123 300.094C122.668 301.253 120.66 309.17 121.945 309.424C123.332 309.703 124.14 302.521 124.141 301.175C125.605 302.926 126.148 306.718 125.757 308.347C125.904 307.736 126.164 307.099 126.272 306.425C126.67 304.097 126.022 301.411 124.291 299.65Z" class="pineapple"/>
<path d="M91.6576 305.062C91.2341 303.238 91.8695 300.59 89.487 298.403C89.4972 298.137 89.4952 297.921 89.4545 297.642L88.9494 297.951C88.7702 297.801 88.5401 297.638 88.2978 297.526C88.3385 297.805 88.3915 298.033 88.3304 298.287L87.8376 298.546L88.1186 298.721C88.1695 298.733 88.2082 298.796 88.2591 298.809C88.141 299.749 87.0147 308.255 88.3953 307.886C89.9022 307.441 89.3505 301.44 89.3607 299.827C91.0651 301.474 91.1547 302.896 91.6576 305.062Z" class="pineapple"/>
<path d="M65.1867 279.863C65.2478 279.609 65.258 279.342 65.2173 279.063L64.6614 279.36C64.4699 279.261 64.2907 279.11 64.1116 278.959C64.1136 279.175 64.1034 279.442 64.1054 279.658L63.5495 279.955C63.7287 280.106 63.8692 280.193 64.0484 280.344C63.8712 281.755 64.5797 286.879 66.3635 287.522C68.4019 288.227 65.5552 282.59 65.5227 281.829C66.7811 283.315 66.7912 284.394 67.3797 286.205C67.5629 286.787 67.618 284.539 67.618 284.539C67.2576 282.676 66.38 281.173 65.1867 279.863Z" class="pineapple"/>
<path d="M55.9034 309.563C55.4656 308.919 55.0197 306.066 54.0423 304.755C53.8448 304.007 53.5333 303.287 53.3989 302.501L52.6292 303.016C52.5009 302.877 52.3726 302.739 52.2443 302.6C52.3095 302.777 52.3746 302.955 52.3767 303.17L51.6701 303.647C51.837 303.849 52.0671 304.011 52.2463 304.162C52.4866 304.058 52.7147 304.005 52.955 303.902C52.9203 304.27 52.8735 304.69 52.788 305.046C53.1687 306.376 51.9774 309.32 52.9019 310.403C54.7508 312.57 54.252 306.797 54.1971 306.353C55.0951 307.323 55.2335 308.54 55.9034 309.563Z" class="pineapple"/>
<path d="M60.8033 332.438C60.2229 331.491 60.0194 328.75 58.6449 327.074C58.5268 326.669 58.4596 326.276 58.4556 325.844L57.7734 326.219C57.6064 326.017 57.4903 325.828 57.3234 325.626C57.3132 325.893 57.3539 326.172 57.3437 326.439L56.7878 326.736C56.8774 326.811 56.9039 326.925 56.9935 327.001C57.134 327.088 57.2113 327.214 57.3518 327.302C58.4941 329.945 59.785 336.231 58.8139 328.837C59.8544 330.11 60.0295 331.175 60.8033 332.438Z" class="pineapple"/>
<path d="M75.7068 319.7C75.2099 318.181 74.5237 316.778 73.6726 315.389C73.6441 315.059 73.64 314.628 73.7133 314.322L73.0169 314.532C72.9131 314.292 72.7583 314.039 72.6545 313.799C72.5934 314.053 72.5587 314.422 72.4345 314.715L71.9152 314.86C72.0069 315.151 72.1616 315.403 72.3795 315.617C73.2632 319.114 75.3238 323.539 73.756 317.509C74.4015 318.633 75.0897 320.252 75.8106 321.286C76.2219 321.816 75.6925 319.535 75.7068 319.7Z" class="pineapple"/>
<path d="M101.871 323.073C101.818 322.845 101.777 322.566 101.724 322.338L101.333 322.621C101.052 322.446 100.834 322.232 100.565 322.006C100.582 322.387 100.586 322.819 100.602 323.199L100.4 323.366C100.502 323.391 100.592 323.466 100.681 323.541C101.022 324.592 101.015 332.021 102.777 331.636C104.259 331.292 102.317 325.926 102.203 324.607C102.484 324.782 102.765 324.957 103.046 325.132C104.937 326.447 107.24 329.638 107.914 331.092C106.332 327.59 105.029 325.393 101.871 323.073Z" class="pineapple"/>
<path d="M137.775 330.507C137.94 330.493 138.054 330.466 138.231 330.401L137.936 330.061C138.036 329.869 138.097 329.615 138.146 329.411L138.182 329.259C137.954 329.311 137.663 329.403 137.384 329.444L137.05 329.041L136.889 329.487C134.999 329.733 126.18 335.746 129.135 336.671C129.479 336.807 134.786 331.297 136.545 330.696C136.101 332.097 133.751 340.094 137.164 339.782C134.739 339.792 137.317 331.743 137.775 330.507Z" class="pineapple"/>
<path d="M137.278 339.756C137.494 339.754 137.722 339.701 138.026 339.558C137.722 339.701 137.494 339.754 137.278 339.756Z" class="pineapple"/>
<path d="M171.714 335.584C173.317 334.515 176.677 335.322 177.082 337.896C176.827 337.834 176.51 337.812 176.255 337.751C175.162 337.596 160.971 338.174 163.131 341.062C163.015 340.872 175.883 338.631 177.815 338.879C178.695 335.214 174.529 333.729 171.714 335.584Z" class="pineapple"/>
<path d="M174.468 351.481C169.821 355.588 168.424 358.268 162.991 354.434C159.309 351.827 157.507 346.549 153.7 344.02C147.605 340.026 148.436 344.641 152.822 347.901C152.632 348.017 152.494 348.145 152.305 348.261C151.975 348.29 151.606 348.255 151.315 348.347C150.466 348.52 140.793 354.274 144.332 355.231C144.485 355.268 149.857 349.935 151.403 349.552C150.228 351.532 150.107 354.949 151.61 356.763C150.39 355.339 151.189 351.116 152.62 349.414C153.064 349.359 153.559 349.316 154.003 349.261L153.858 348.742C158.546 352.99 162.83 361.61 169.974 358.317C172.932 356.981 184.88 341.974 185.187 342.263C184.635 341.646 175.702 350.378 174.468 351.481Z" class="pineapple"/>
<path d="M112.993 351.209C114.508 357.01 114.661 348.971 114.042 346.615C116.166 348.309 116.325 350.339 116.538 352.814C116.512 352.7 117.151 350.484 116.952 349.521C115.799 343.106 111.543 345.584 112.993 351.209Z" class="pineapple"/>
<path d="M83.4088 336.732C83.4333 336.63 83.4577 336.528 83.4822 336.426L83.3559 336.504C83.3702 336.669 83.3335 336.821 83.2459 336.962C82.8672 337.194 82.5251 337.273 82.1687 337.188C82.0708 342.979 82.6959 344.637 83.2317 338.143C83.7692 338.595 84.2437 339.086 84.5796 339.705C85.1274 339.89 85.2048 340.016 84.8118 340.084C85.4165 340.929 86.1272 343.576 86.1312 344.008C86.0621 340.707 85.6161 339.2 83.4088 336.732Z" class="pineapple"/>
<path d="M63.0468 345.305L62.7067 345.6C62.2852 345.337 61.7374 345.152 61.3037 344.94C61.5603 345.217 61.9594 345.797 61.9125 346.217L61.5725 346.512C61.6621 346.587 61.8148 346.624 61.9044 346.699C62.2749 349.642 64.413 352.847 63.6963 348.206C64.0282 348.394 64.297 348.62 64.4905 348.935C65.7957 350.002 66.5064 351.304 67.6976 352.397C66.7629 351.581 64.6839 347.905 63.1323 346.294C63.2178 345.938 63.1893 345.608 63.0468 345.305Z" class="pineapple"/>
<path d="M97.1288 365.708C97.084 369.035 99.4665 369.876 98.6663 365.808C98.1083 365.889 97.5748 365.869 97.1288 365.708Z" class="pineapple"/>
<path d="M100.984 363.779C99.9969 362.734 99.4166 361.788 98.1154 361.152C98.1011 360.987 98.0746 360.873 98.0604 360.708L97.7835 360.965C97.5534 360.802 97.2214 360.615 96.9282 360.49C96.8936 360.859 96.7836 361.317 96.8508 361.71L96.9017 361.722C97.1216 362.152 97.1135 362.635 97.0035 363.093C97.4983 363.05 97.9056 363.148 98.3515 363.309C98.3108 363.03 98.3088 362.814 98.319 362.547C100.286 363.773 101.874 366.577 101.992 368.328C101.864 366.844 101.986 364.989 100.984 363.779Z" class="pineapple"/>
<path d="M135.942 365.063L135.961 364.314C135.517 364.369 135.162 364.499 134.784 364.731C133.678 364.628 121.81 366.517 125.005 368.684C125.606 369.097 131.271 365.234 133.37 365.684C132.086 366.776 130.363 368.57 130.049 370.325C130.255 369.244 133.189 366.664 134.604 365.927C135.024 365.974 135.494 366.033 135.889 366.181L135.92 365.381C136.085 365.367 136.262 365.302 136.376 365.275C136.236 365.188 136.083 365.151 135.942 365.063Z" class="pineapple"/>
<path d="M85.0659 375.141C83.2312 373.14 82.3741 365.719 78.1793 366.597C78.1202 368.413 78.4643 371.242 79.8102 372.588C81.9768 374.777 79.6169 368.234 79.509 367.562C79.625 367.751 79.792 367.953 79.9081 368.142C81.6939 370.348 83.1926 373.077 85.0659 375.141Z" class="pineapple"/>
<path d="M107.512 378.752C105.521 380.32 105.688 381.868 107.975 380.64C109.15 380.006 109.83 378.07 111.259 377.498C111.347 377.357 111.436 377.433 111.426 377.699C112.161 378.899 112.452 382.845 114.829 381.693C112.047 382.963 113.915 373.613 107.512 378.752Z" class="pineapple"/>
<path d="M148.224 382.979C147.957 382.969 147.627 382.997 147.373 382.936L147.322 382.924L147.31 382.975C145.697 382.964 134.558 382.714 136.002 384.999C136.273 385.44 146.037 384.015 147.242 383.928C147.13 384.17 146.98 384.349 146.778 384.516C146.627 384.695 144.86 385.779 145.202 385.699C146.255 385.575 147.607 384.877 148.067 383.856L148.283 383.854L148.155 383.716C148.216 383.461 148.214 383.246 148.224 382.979Z" class="pineapple"/>
<path d="M148.224 382.981L148.276 382.993L148.236 382.928L148.224 382.981Z" class="pineapple"/>
<path d="M206.408 198.219C206.216 198.12 204.17 196.552 203.907 196.973C203.82 197.114 216.795 217.08 215.123 217.54C217.377 216.897 208.743 199.48 206.408 198.219Z" class="pineapple"/>
<path d="M219.216 230.097C218.709 230.191 219.12 246.873 218.456 249.19C218.37 249.546 217.987 250.693 218.586 250.89C221.313 251.868 221.826 229.54 219.216 230.097Z" class="pineapple"/>
<path d="M221.498 258.05C221.105 258.118 221.424 286.622 220.317 286.302C222.086 286.781 223.473 269.562 223.339 267.43C223.37 266.629 222.69 257.798 221.498 258.05Z" class="pineapple"/>
<path d="M70.2045 201.976C69.2759 203.153 61.1303 214.658 64.2072 215.074C63.2664 214.956 75.6213 196.008 76.5131 197.676C75.6213 196.008 70.8195 201.209 70.2045 201.976Z" class="pineapple"/>
<path d="M96.5238 178.465C94.7379 178.952 73.5171 189.526 76.8933 192.059C75.755 191.193 101.299 175.842 102.333 177.813C102.002 176.28 97.4483 178.202 96.5238 178.465Z" class="pineapple"/>
<path d="M102.332 177.814C102.32 177.865 102.37 177.877 102.358 177.928C102.37 177.877 102.383 177.827 102.332 177.814Z" class="pineapple"/>
<path d="M60.3266 219.58C58.0317 218.599 43.019 256.022 41.5345 260.188C41.9682 260.4 42.3897 260.662 42.8235 260.874C43.1208 260.084 43.5199 259.319 43.8172 258.528C45.2224 255.366 61.5504 220.089 60.3266 219.58Z" class="pineapple"/>
<path d="M43.0424 293.608C43.965 287.746 42.0123 282.647 41.8047 276.782C41.6318 271.895 42.5156 267.315 42.4587 262.618C42.1044 262.748 41.5974 262.842 41.0394 262.923C41.0801 263.202 41.0822 263.418 41.186 263.658C42.6989 269.244 40.8599 277.578 41.6172 283.844C41.9878 286.787 38.674 313.827 42.2193 312.74C39.7125 313.538 42.743 295.529 43.0424 293.608Z" class="pineapple"/>
<path d="M37.9335 297.174C35.8117 297.041 36.4795 303.232 36.4591 303.765C36.6973 306.138 40.0525 330.741 43.3494 328.894C41.6063 329.875 36.0784 297.052 37.9335 297.174Z" class="pineapple"/>
<path d="M45.2994 321.662C42.9699 319.703 45.3114 329.687 46.4171 331.137C46.7002 331.528 46.733 322.868 45.2994 321.662Z" class="pineapple"/>
<path d="M46.5839 356.913C45.4782 354.117 42.7154 333.102 42.5505 333.117C39.3392 333.261 43.1508 351.028 43.8593 353.459C45.248 357.992 47.5632 362.478 50.6196 366.119C51.4932 367.19 59.9905 375.529 60.9314 372.956C60.4365 374.344 47.5857 359.469 46.5839 356.913Z" class="pineapple"/>
<path d="M57.081 364.548C56.8163 364.753 56.6594 365.631 56.7389 365.973C57.366 367.847 70.0581 380.692 70.9133 379.821C71.0131 379.629 57.4842 364.214 57.081 364.548Z" class="pineapple"/>
<path d="M76.5238 383.591C76.5931 384.2 76.8394 384.743 77.263 385.222C78.3565 385.377 79.4113 385.468 80.4396 385.446C80.3378 385.422 80.2482 385.346 80.1586 385.271C79.8267 385.084 76.7499 383.322 76.5238 383.591Z" class="pineapple"/>
<path d="M83.6676 387.028C82.6576 387.647 80.4054 387.16 79.2732 386.942C89.6786 394.285 105.045 397.112 117.505 397.465C117.454 397.452 119.156 397.538 120.234 397.312C114.766 397.884 86.3473 388.425 83.6676 387.028Z" class="pineapple"/>
<path d="M120.271 397.376C120.881 397.306 121.184 397.164 121.207 396.846C121.197 397.113 120.779 397.282 120.271 397.376Z" class="pineapple"/>
<path d="M219.94 290.788C220.75 290.552 216.893 307.07 216.209 308.575C213.845 313.715 211.432 319.058 209.092 324.096C206.353 329.899 201.657 334.21 199.494 340.528C197.219 347.089 196.541 353.28 192.187 358.857C189.326 362.478 186.718 367.289 183.433 370.431C178.878 374.83 172.384 378.332 167.25 381.999C162.041 385.756 157.119 390.336 151.601 393.588C151.904 393.445 137.46 398.216 138.733 395.829C136.796 399.187 150.307 396.508 150.902 396.274C157.718 393.225 163.868 386.895 169.781 382.445C180.6 374.382 190.271 367.066 196.354 354.958C199.245 349.191 199.079 342.259 202.225 336.554C203.836 333.656 206.803 331.838 208.377 329.093C209.975 326.246 210.126 323.375 211.317 320.43C213.688 314.592 217.972 309.752 219.87 303.639C219.846 303.741 222.461 290.155 219.94 290.788Z" class="pineapple"/>
<path d="M233.268 252.092C224.727 246.074 216.931 241.913 192.155 236.932C171.878 232.949 155.512 236.024 141.063 231.945C126.808 227.918 113.819 220.708 94.9373 214.612C75.282 208.31 60.1558 209.852 51.2305 212.226C42.1118 214.549 46.9102 223.709 48.6984 227.09C50.4866 230.47 50.2367 245.323 56.9611 261.216C64.1999 278.284 82.3223 283.347 99.1368 282.464C116.003 281.388 128.58 255.332 131.615 250.965C134.702 246.404 136.366 245.607 138.932 246.087C141.742 246.426 143.313 248.297 143.81 253.404C144.203 258.897 143.858 288.023 158.625 296.332C173.391 304.64 191.838 307.718 205.881 295.524C218.84 284.284 225.135 270.843 228.233 268.565C231.433 265.899 240.946 257.465 233.268 252.092Z" class="frames"/>
<path opacity="0.4" d="M220.829 261.4C218.577 268.256 208.248 290.563 193.557 295.123C178.865 299.682 160.153 292.182 155.089 278.599C151.091 267.995 152.36 253.208 152.933 247.973C153.818 241.579 156.062 240.937 162.084 240.893C173.108 240.738 198.505 243.399 211.766 248.817C223.004 253.279 222.421 256.231 220.829 261.4Z" class="lens"/>
<path opacity="0.4" d="M58.7464 224.395C57.8999 231.421 57.2902 256.124 68.5725 266.607C79.8549 277.091 99.7869 278.494 110.539 268.527C118.826 260.801 124.207 246.908 125.747 241.933C127.598 235.798 126.117 234.365 120.434 231.599C110.564 226.674 91.4263 218.438 72.3194 217.048C60.3423 216.119 59.3718 218.967 58.7464 224.395Z" class="lens"/>
</svg>
