<svg viewBox="0 0 182 190" xmlns="http://www.w3.org/2000/svg">
<path d="M204.469 30.1377C211.061 33.8187 216.825 38.0793 221.904 43.6588C222.217 44.1063 222.475 44.6977 222.564 44.9375C223.616 46.2503 223.833 46.1475 224.538 47.2036C225.165 48.1431 225.741 49.1106 226.258 50.0905C226.945 51.3945 226.975 52.4257 227.356 53.8362C228.238 57.11 229.757 59.6519 231.453 62.5701C232.827 64.9324 234.883 66.5773 237.198 67.9785C239.344 69.2779 242.105 69.5187 244.04 71.103C255.394 80.4021 259.467 95.1462 263.395 108.56C266.63 119.605 267.006 131.194 263.651 142.326C261.39 149.831 254.613 155.796 248.76 160.598C241.431 166.611 233.02 170.129 223.788 172.164C216.457 173.78 209.162 174.175 201.67 173.936C192.382 173.641 182.904 172.979 173.79 171.086C157.057 167.61 142.1 159.474 129.426 148.155C119.045 138.882 111.158 128.5 111.004 114.06C110.822 97.009 116.582 78.2159 126.865 64.5617C135.623 52.9332 148.103 43.3365 160.197 35.3817C167.137 30.8174 175.591 24.6462 184.199 24.0532C191.468 23.5526 198.271 26.6767 204.469 30.1377Z" class="layer1"/>
<path d="M56.6358 38.3817C53.3447 40.177 53.4446 39.8842 49.6793 42.0324L48.581 42.7021C45.2808 44.8975 43.0898 46.1463 38.8538 48.0249C34.147 50.6863 31.4125 53.4368 28.2408 57.3401L27.986 57.6536C20.8685 66.4121 13.9313 74.9489 9.57405 85.508C5.93001 94.3387 4.34923 104.505 2.25703 113.8C0.019516 123.741 -0.976288 136.642 1.25928 146.656C5.95914 167.708 27.5319 181.747 47.1154 186.937C61.2443 190.682 76.1612 190.206 90.6433 189.551C101.535 189.058 112.592 187.885 123.154 185.07C145.964 178.992 162.223 160.182 174.082 140.724C184.56 123.534 190.685 105.164 188.592 84.9687C186.766 67.3593 177.468 52.8047 164.479 41.0367C156.998 34.2595 148.933 27.9713 140.449 22.4932C137.533 20.6107 134.607 18.5221 131.053 18.2203C111.775 16.5832 90.0642 24.4121 72.2676 30.6656C66.4883 32.6964 61.8911 35.515 56.6358 38.3817Z" class="layer2"/>
<path d="M90.7448 63.937L90.8075 63.9697C90.7989 63.9323 90.8029 63.9157 90.7902 63.895L90.7448 63.937Z" class="pineapple"/>
<path d="M85.6244 74.9177C84.4895 75.7553 83.5906 76.9314 82.8828 78.1182C82.3877 78.9332 81.8359 79.9108 81.6246 80.8644C81.5333 81.3182 81.2547 84.3875 82.3756 82.9475C83.012 82.1312 82.9268 79.6969 83.5432 78.5234C84.2289 77.208 85.1652 76.0232 86.2948 75.061C86.0609 74.4939 85.8517 73.8975 85.7131 73.3004C86.2162 73.333 87.6609 73.1865 87.6069 73.1911C85.7524 73.0632 84.6622 72.4667 85.6244 74.9177Z" class="pineapple"/>
<path d="M80.0089 84.5117C80.1003 84.4984 80.1877 84.5017 80.2751 84.5051C80.2618 84.4137 80.2484 84.3223 80.2184 84.2269L80.0089 84.5117Z" class="pineapple"/>
<path d="M81.5831 84.7838C81.9483 84.7305 80.7915 84.5586 80.6042 84.5312C80.5822 84.4026 80.5729 84.2947 80.5676 84.1701L80.309 84.5132L80.0584 84.8231C80.1457 84.8264 80.233 84.8298 80.3243 84.8164C80.2983 85.5854 80.8574 86.2658 80.7561 86.9815C80.6781 87.5266 80.1263 88.0637 79.9737 88.6261C80.1603 88.5828 80.4222 88.5928 80.6887 88.6568C81.3432 86.6643 80.9693 86.6803 80.6482 84.7885C80.9514 84.7731 81.2712 84.7618 81.5831 84.7838Z" class="pineapple"/>
<path d="M80.1354 93.0166C80.0735 92.6141 80.0242 92.2323 79.9922 91.925C79.9915 92.2949 80.0168 92.7767 80.1354 93.0166Z" class="pineapple"/>
<path d="M80.6693 96.3694C80.9325 96.5207 81.0671 96.2535 81.0045 96.2208C80.8085 96.1562 80.6166 96.0749 80.4207 96.0102C80.3281 95.8823 80.2102 95.713 80.1588 95.5598C80.4521 95.3658 80.2742 94.125 80.1183 93.0129C79.9996 92.773 79.987 92.3118 79.975 91.9213C79.9477 91.6681 79.9417 91.4728 79.9697 91.3562C79.9744 91.4102 79.9684 91.6554 79.975 91.9213C80.007 92.2285 80.0563 92.6104 80.1183 93.0129C80.1776 93.1328 80.2529 93.1861 80.3648 93.1601C80.7873 93.0149 80.5261 91.7541 80.4275 91.4309C81.0739 92.1146 81.1558 92.8743 81.4297 93.7153C81.1472 92.837 81.1465 91.8854 80.4095 90.8451C80.4042 90.7205 80.3615 90.6046 80.3522 90.4966L80.2116 90.5686C80.1863 90.5273 80.161 90.4859 80.1356 90.4446C80.1543 90.2201 80.227 89.9908 80.2789 89.7742C80.0284 89.6436 79.8311 89.4377 79.7338 89.2558C79.6932 89.3518 79.6525 89.4477 79.6286 89.5477C79.358 90.3813 78.1744 95.3125 79.7444 95.6717L79.6211 95.8183C79.7084 95.8216 79.7957 95.825 79.879 95.845L79.6284 96.1548C79.7823 96.1742 79.9363 96.1935 80.1068 96.2168C80.7019 97.6282 79.4211 98.4132 79.2638 99.8026C79.2844 99.7899 79.3011 99.7939 79.3218 99.7813C79.547 99.8706 79.7429 99.9352 79.9428 99.9832C80.0655 98.885 81.3436 97.377 80.6693 96.3694Z" class="pineapple"/>
<path d="M79.1615 100.377C78.9295 101.343 79.8723 107.912 80.6873 106.646C80.5161 106.552 80.3448 106.458 80.1529 106.376C80.3281 106.454 80.4994 106.548 80.6873 106.646C81.3344 105.638 79.4513 102.032 79.8725 100.424C79.6226 100.364 79.3814 100.342 79.1615 100.377Z" class="pineapple"/>
<path d="M82.0615 113.618C81.8283 113.121 81.6277 112.562 81.4938 112.019C82.1775 112.254 81.8869 113.171 82.3234 113.628C83.0177 113.671 82.6446 112.877 82.4253 112.542C82.42 112.418 82.3521 112.26 82.2474 112.182C82.1788 111.954 81.9389 111.633 81.771 111.451L81.6111 111.677C81.5444 111.661 81.4778 111.645 81.4151 111.613C81.4571 111.658 81.5158 111.707 81.5537 111.769L81.4471 111.92C81.1826 110.746 81.6078 108.241 80.5543 107.565C80.7915 107.604 80.9115 107.545 80.8888 107.346C80.7329 107.115 80.5003 107.129 80.2078 107.394C80.1285 107.357 80.0452 107.337 79.9699 107.284C79.9825 107.304 79.9872 107.358 79.9919 107.412C79.9006 107.426 79.7926 107.435 79.7053 107.432C79.7766 107.502 79.8479 107.572 79.9232 107.625C79.8166 107.776 79.8206 107.759 79.9985 107.678C81.0734 108.412 80.5196 110.059 80.6342 111.196C80.7174 112.097 80.9413 112.926 81.2398 113.738C81.4877 113.586 81.7656 113.529 82.0615 113.618Z" class="pineapple"/>
<path d="M82.2269 113.957C81.8784 114.014 81.5619 113.939 81.2693 113.763C81.5505 114.5 81.8937 115.199 82.3035 115.914C82.7233 115.926 83.1512 115.906 83.5703 115.848C83.0865 115.221 82.5828 114.677 82.2269 113.957Z" class="pineapple"/>
<path d="M79.6932 107.411C79.6641 107.458 79.681 107.462 79.7188 107.453C79.71 107.415 79.71 107.415 79.6932 107.411Z" class="pineapple"/>
<path d="M79.9414 107.259C79.9414 107.259 79.9711 107.284 79.988 107.288C79.9921 107.271 79.9752 107.267 79.9414 107.259Z" class="pineapple"/>
<path d="M88.0706 121.985C86.9811 121.018 86.3048 119.799 85.6611 118.517C86.5833 119.372 86.9018 120.101 88.1253 119.848C89.4941 119.578 91.236 116.578 89.0236 117.72C88.2793 118.106 88.1813 119.174 87.3203 119.091C86.2348 118.989 85.1773 117.009 84.4896 116.35C84.5203 116.516 84.5343 116.678 84.5149 116.832C84.7508 117.171 84.9041 117.56 85.1193 117.911C84.8021 117.764 84.2957 117.819 84.0724 117.501C83.9565 117.544 83.8865 117.615 83.8419 117.728C85.0806 119.1 85.9229 120.729 87.233 122.171C87.5395 122.509 91.4297 125.68 90.6701 123.56C90.5122 123.117 88.4185 122.297 88.0706 121.985Z" class="pineapple"/>
<path d="M126.171 109.617C124.748 110.702 123.055 108.728 122.594 107.489C122.356 106.868 122.688 105.997 122.413 105.455C122.053 104.752 121.569 104.125 121.33 105.565C118.703 107.701 115.832 112.174 112.42 108.624C111.476 107.64 110.93 103.527 110.222 103.322C110.436 103.091 110.234 102.831 110.156 102.936C110.053 103.07 109.955 103.187 109.852 103.321C109.736 103.364 109.641 103.464 109.609 103.597C107.659 105.631 105.556 109.179 102.811 106.67C101.323 105.309 100.744 102.95 100.095 101.102C99.9362 101.029 99.8856 100.946 99.9889 100.883C99.5484 100.443 99.1432 101.103 99.2045 101.435C97.4872 102.644 95.2348 105.274 92.9698 103.92C91.783 103.213 90.6989 98.4066 89.7753 98.7311C88.2553 99.2648 92.0355 104.436 92.9531 104.797C95.8812 105.958 97.1201 102.925 99.2698 101.75C99.6796 103.786 101.083 106.749 102.922 107.895C105.652 109.589 106.755 107.194 108.297 105.467C108.251 105.439 108.205 105.41 108.176 105.385C108.226 105.397 108.297 105.397 108.346 105.409C108.754 104.96 109.194 104.52 109.589 104.051C109.565 104.591 109.604 105.235 109.779 105.753C109.976 105.888 110.09 106.074 110.272 106.417C110.201 106.418 110.118 106.398 110.047 106.398C110.77 108.158 111.963 110.012 113.926 110.571C117.338 111.549 119.262 108.011 121.304 105.964C121.208 108.126 124.234 112.182 126.546 110.112C126.463 110.092 126.379 110.072 126.313 110.056C126.332 109.902 126.281 109.749 126.171 109.617Z" class="pineapple"/>
<path d="M121.287 101.044C120.56 100.183 119.035 96.1869 118.118 95.9669C116.265 95.5397 120.182 101.096 120.669 101.636C122.756 103.952 124.171 102.829 125.736 100.491C125.72 100.487 125.47 100.427 125.382 100.353C124.078 101.82 122.938 102.973 121.287 101.044Z" class="pineapple"/>
<path d="M133.587 96.1209C133.472 96.3049 134.751 97.1405 135.061 97.3205C134.494 98.0655 133.455 98.4326 132.98 99.2349C132.502 100.054 132.745 101.24 132.426 102.132C130.412 103.622 128.962 101.953 128.645 99.9738C128.574 99.534 128.837 98.7337 128.709 98.3858C128.491 97.7521 127.896 96.4113 127.588 98.064C127.337 98.3738 127.041 98.655 126.719 98.8949C126.266 99.3147 125.83 99.8092 125.419 100.274C125.556 100.29 125.693 100.305 125.834 100.304C126.323 99.6632 126.978 99.0628 127.542 98.4758C127.813 100.796 129.001 104.728 132.112 102.779C131.52 104.364 130.384 105.501 129.274 106.75C129.107 106.71 128.294 106.426 128.293 106.726C128.299 106.991 129.005 106.914 129.168 106.971C129.164 107.058 129.211 107.157 129.278 107.244C128.571 107.621 127.78 108.347 127.103 108.819C127.179 108.943 127.309 109.062 127.456 109.185C127.805 108.758 129.439 107.97 129.492 107.454C129.667 107.531 129.817 107.497 129.932 107.383C130.057 107.449 130.166 107.51 130.291 107.575C128.7 108.991 128.897 108.685 128.397 110.768C127.993 112.45 127.046 113.756 125.748 114.907C125.838 114.382 125.832 112.795 125.346 112.908C123.974 113.195 125.158 114.501 125.401 115.176C125.124 115.374 123.779 116.355 123.82 116.699C123.842 116.898 123.962 117.649 124.411 117.317C126.051 118.926 123.097 118.094 122.757 119.51C122.487 119.463 120.153 119.642 120.204 119.796C119.972 119.81 119.016 119.828 119.124 120.259C119.211 120.632 121.899 120.15 122.377 120.212C121.014 122.369 119.307 122.505 117.224 123.697C117.237 123.717 117.233 123.734 117.246 123.755L117.262 123.759L117.275 123.779C117.258 123.775 117.258 123.775 117.242 123.771C117.242 123.771 117.242 123.771 117.246 123.755C117.212 123.747 117.179 123.739 117.142 123.747C116.753 123.971 115.873 124.042 116.307 124.728C115.101 124.614 113.908 122.319 113.511 122.506C112.054 123.143 115.222 126.018 117.031 125.236C116.896 126.384 114.955 125.812 114.304 126.026C113.31 126.351 112.544 127.119 111.445 127.366C110.828 127.518 105.762 127.112 107.602 128.329C108.836 129.136 111.948 128.209 113.035 127.642C113.68 127.304 114.287 126.463 114.896 126.204C115.682 125.864 117.2 126.809 117.292 125.105C119.701 123.727 121.644 122.608 123.117 120.213C123.134 120.217 123.134 120.217 123.154 120.204L123.154 120.134C123.831 118.781 126.091 118.689 124.622 117.174C126.57 115.738 128.585 113.509 129.032 111.061C129.111 110.657 128.886 109.246 129.078 108.887C129.388 108.328 130.367 108.14 130.794 107.537L130.225 107.189C131.812 105.861 132.699 103.854 133.271 101.912C133.408 101.857 133.424 101.79 133.323 101.696C133.674 99.2076 133.746 99.3482 135.568 97.3365C135.241 97.0819 133.722 95.9244 133.587 96.1209ZM114.813 124.862C115.393 124.72 115.696 124.704 116.145 125.182C115.708 125.095 115.262 124.97 114.813 124.862ZM117.603 124.616C117.356 124.468 116.95 124.177 117.268 123.883C117.627 124.146 117.779 124.394 117.603 124.616Z" class="pineapple"/>
<path d="M125.362 100.366C125.387 100.337 125.411 100.308 125.436 100.278C125.403 100.27 125.382 100.283 125.349 100.275C125.307 100.3 125.333 100.342 125.362 100.366Z" class="pineapple"/>
<path d="M116.643 43.3191C116.872 44.7132 117.196 46.0066 117.138 47.42C117.525 47.4247 117.895 47.4254 118.285 47.4134C118.083 46.2725 117.647 44.0535 116.643 43.3191Z" class="pineapple"/>
<path d="M113.275 68.728C111.233 69.8941 110.601 70.7643 109.122 68.6299C108.339 67.4904 107.927 66.1229 107.329 64.8695C107.902 64.8308 109.683 64.1658 110.125 63.8666C110.377 63.698 108.322 63.8919 108.184 63.8766C106.704 63.8032 107.601 64.1771 106.799 63.2621C106.48 62.9036 105.987 60.4067 105.571 62.5797C105.508 62.9169 106.245 64.4683 106.517 64.6569C105.757 65.1793 108.012 68.5572 108.513 69.1883C110.254 71.4034 111.497 71.0676 113.569 69.1158C113.335 68.9892 113.226 68.8572 113.275 68.728Z" class="pineapple"/>
<path d="M116.715 47.9351C116.554 48.0903 116.431 48.2369 116.483 48.4609C116.516 48.4689 116.55 48.4768 116.583 48.4848C116.602 48.3309 116.642 48.1643 116.712 48.0224C116.716 48.0057 116.707 47.9684 116.715 47.9351Z" class="pineapple"/>
<path d="M113.772 43.3877C113.862 43.6736 113.948 43.9761 114.018 44.2746C114.038 44.262 114.063 44.2327 114.084 44.22C114.425 43.8968 114.178 43.6083 113.772 43.3877Z" class="pineapple"/>
<path d="M133.961 37.4506L133.957 37.4672C134.148 37.4073 134.326 37.3266 134.487 37.242C134.313 37.306 134.139 37.3699 133.961 37.4506Z" class="pineapple"/>
<path d="M111.672 39.2891C111.774 39.525 111.872 39.7775 111.974 40.0134C106.062 34.4717 94.3874 36.867 94.3874 36.867C101.999 36.7912 107.111 39.4276 110.518 42.9235C110.825 42.8915 111.057 42.8062 111.151 42.6349C111.305 42.6543 111.471 42.6942 111.625 42.7136C111.636 42.9628 112.08 43.3866 112.317 42.9148C112.4 42.9348 113.241 43.1015 113.788 43.3913C113.36 42.0199 112.791 40.7205 111.672 39.2891Z" class="pineapple"/>
<path d="M119.59 64.1472L119.573 64.1432C119.752 64.2038 119.924 64.2978 120.078 64.3878C119.944 64.2851 119.769 64.2078 119.59 64.1472Z" class="pineapple"/>
<path d="M131.064 47.6086C131.085 47.5959 131.122 47.5872 131.139 47.5912C130.325 47.6072 129.494 47.6898 128.644 47.8557C129.486 47.7231 130.296 47.6532 131.064 47.6086Z" class="pineapple"/>
<path d="M152.104 38.7218C151.994 38.5899 151.885 38.458 151.792 38.33C151.87 38.2254 152.003 38.1867 152.17 38.2267C147.147 30.3786 135.739 31.6578 129.304 36.6675C133.643 31.877 138.512 28.1827 143.24 28.0842C143.24 28.0842 135.966 21.7574 126.539 34.3124C129.242 30.0983 132.281 27.5682 136.942 25.6211C139.645 24.4903 145.657 22.2688 147.216 26.2724C148.955 19.8359 143.016 19.7671 138.173 20.4194C138.406 20.9158 137.404 21.345 137.625 20.4993C132.621 21.3069 126.115 24.5553 124.072 29.5444C123.756 30.4201 121.879 38.9024 121.829 38.8904C121.022 38.8024 123.057 31.6442 123.27 30.9025C124.365 27.1481 124.761 23.2965 124.279 19.3575C123.812 15.5804 122.44 11.093 119.176 8.75927C116.672 5.392 108.379 5.88558 108.379 5.88558C110.484 6.21482 112.158 7.39169 113.511 9.02036C113.714 8.98104 114.074 9.24361 113.864 9.45751C114.323 10.0433 114.732 10.6877 115.116 11.3614C115.318 11.1808 115.683 10.6164 116.05 10.775C116.205 10.9356 116.177 11.0522 115.949 11.1208C116.047 11.3734 116.128 11.622 116.23 11.8579C116.112 12.1291 115.88 12.2144 115.535 12.1137C116.284 13.5445 116.897 15.1012 117.426 16.6378C117.498 16.7078 117.519 16.7658 117.49 16.8118C117.708 17.4455 117.922 18.0959 118.111 18.705C118.441 18.8722 118.696 19.1275 118.882 19.454C118.708 19.4473 118.516 19.4367 118.342 19.43C119.962 24.7171 119.088 29.8282 118.25 35.2298C118.068 32.6843 117.697 30.4106 117.2 28.3708C116.888 28.2781 116.907 28.1242 117.097 27.9936C117.097 27.9936 117.097 27.9936 117.114 27.9976C115.207 20.5274 111.519 16.3651 108.481 14.1207C108.048 14.0874 107.374 13.9607 107.423 13.391C106.858 13.0265 106.345 12.7446 105.873 12.508C105.783 12.6626 105.66 12.8092 105.524 12.9351C106.521 13.8441 106.611 14.5705 106.686 15.5047C106.892 15.748 106.902 15.9266 106.729 16.0612C107.091 19.6896 110.101 21.98 111.382 25.23C111.477 25.2 111.619 25.1987 111.714 25.1687C112.331 25.3873 112.935 25.5146 113.528 25.4633C114.472 25.9364 111.801 25.6125 111.501 25.5405C112.136 27.2258 112.654 29.253 113.107 31.476C113.349 31.5693 113.591 31.6626 113.829 31.7726C113.782 32.1138 114.406 32.5982 113.718 32.8208C113.6 32.6515 113.445 32.4909 113.269 32.343C113.466 33.4298 113.656 34.55 113.82 35.6995C114.296 36.3599 116.831 39.9638 116.128 40.7641C116.009 40.894 114.345 36.7418 113.882 36.102C113.899 36.1767 113.9 36.2473 113.917 36.3219C110.825 31.4393 104.52 27.3183 98.7841 26.2586C94.3134 25.4321 90.8142 29.367 88.8489 32.9301C93.9155 27.7505 104.292 30.8401 109.032 35.167C110.721 36.7177 112.746 39.8817 113.913 41.9942C114.75 43.4989 115.125 45.3861 115.39 47.0707C115.876 47.0993 116.31 47.2739 116.785 47.3526C116.998 46.1704 116.856 44.3392 116.496 43.1957C116.4 43.1551 116.469 43.0131 116.532 43.0458C116.586 43.0411 116.619 43.0491 116.607 43.0991C117.946 44.0547 118.317 45.9586 118.776 47.4253C118.984 47.4399 119.183 47.4879 119.351 47.5985C119.339 47.6485 119.343 47.7025 119.331 47.7525C119.165 47.7831 119 47.8138 118.838 47.8278C118.962 49.1439 118.369 49.2658 118.348 47.8864C117.97 47.919 117.58 47.931 117.134 47.877C117.132 48.1056 117.076 48.3388 117.024 48.5554C117.141 48.5834 117.258 48.6114 117.374 48.6394C117.378 49.0632 117.206 49.3391 116.842 49.463C116.773 49.6756 116.697 50.8731 116.251 50.7485C115.856 50.6358 116.237 49.7056 116.31 49.4763C116.277 49.4683 116.239 49.477 116.206 49.469C116.119 49.0958 116.016 48.7186 115.93 48.3455C115.816 48.1596 115.735 47.9816 115.696 47.7784C115.608 47.775 115.525 47.7551 115.454 47.7557C115.504 48.1376 115.071 48.1042 114.985 47.8017C113.841 48.0909 113.642 47.2326 114.787 47.0847C114.47 46.0571 114.25 45.1408 114.021 44.2579C113.324 44.8129 112.011 43.8986 111.265 43.702C112.647 45.2847 113.767 46.7868 114.04 48.8785C113.652 48.2921 113.193 47.6357 112.65 46.9593C111.418 46.6634 110.249 46.101 109.033 45.8797C109.918 46.744 110.449 47.4704 110.143 47.7143C110.119 47.7436 104.497 42.0246 103.85 41.7107C104.305 41.9433 107.309 44.1797 109.033 45.8797C109.278 45.8151 109.511 45.8711 109.724 46.0103C110.497 46.0197 111.025 46.023 111.804 46.2276C111.934 46.3469 112.089 46.4369 112.284 46.5015C108.166 41.5662 100.271 35.478 92.5678 39.5314C92.5678 39.5314 106.391 44.1884 111.012 55.2524C106.472 50.9734 98.2624 49.8664 98.2624 49.8664C99.1161 50.4941 99.9364 51.1139 100.719 51.7423C100.85 51.4917 101.123 51.3105 101.713 51.3465C101.612 51.6217 101.339 51.803 100.761 51.7876C103.993 54.3253 106.638 56.7396 108.676 58.7442L107.364 58.341C107.364 58.341 102.275 53.6309 99.4544 58.1868C99.4544 58.1868 100.783 56.7615 102.727 57.9857L103.026 60.1894C102.329 60.304 101.024 59.8675 100.359 60.2186C100.886 59.2704 99.6503 58.692 99.4097 59.6209C98.7374 57.5038 92.4953 62.736 92.0421 64.0368C92.1054 64.1401 92.1847 64.1767 92.2967 64.1508C93.6655 61.2374 96.7595 61.0462 99.3491 60.2406C99.3131 60.3905 99.3191 60.5858 99.2997 60.7397C98.9932 60.8423 99.0138 61.7106 98.9952 61.9352C97.9956 62.5762 96.2203 63.8063 95.1261 64.1075C94.2225 64.3487 91.7782 63.8149 92.971 65.1583C92.5206 64.9797 91.8988 64.7072 91.5057 64.4366C91.433 64.2254 91.3604 64.0141 91.2711 63.7989L90.9579 64.0761L90.8326 64.0108C90.8373 64.0648 90.8586 64.1227 90.8633 64.1767L90.5914 64.4286C90.7247 64.4606 90.8579 64.4926 90.9832 64.5579C91.5463 66.1026 89.5158 66.2671 88.5755 67.4686C87.9351 68.3015 87.0901 69.473 86.9175 70.5592C86.8435 71.0876 86.9154 73.8711 87.947 72.6563C88.2142 72.3505 87.967 70.3706 88.157 69.7996C88.4156 69.0159 89.038 68.0377 89.6264 67.4213C90.3588 66.6456 92.132 66.0846 91.6636 64.8798C91.9181 64.9937 93.5008 65.8141 93.5474 65.4729C95.5292 65.8781 97.4818 63.1753 99.0445 62.317C99.4829 64.3075 98.8238 67.127 101.877 66.5913C103.039 66.3767 104.936 65.2992 105.877 64.6795C105.905 64.5629 105.859 64.4636 105.746 64.419C103.212 65.8016 99.3069 67.2429 100.076 62.8642C99.5722 62.7609 99.2464 62.5769 99.0878 62.0632C99.2118 61.5467 99.3317 61.0469 99.4517 60.5472C99.6176 60.5165 99.7709 60.4652 99.9368 60.4345C100.52 60.5745 101.086 60.7105 101.673 60.8337C102.059 60.6972 102.68 60.5292 103.075 60.5712L103.353 62.6463C106.338 58.4296 111.783 63.8594 113.881 66.4243C113.881 66.4243 114.258 65.8805 114.755 65.2775C114.985 65.8612 115.374 67.0294 116.131 67.1054C115.957 67.1694 115.775 67.2667 115.747 67.3833C115.633 67.1267 114.079 68.4628 113.714 68.5867C113.909 68.5807 114.113 68.612 114.3 68.6394C114.746 68.3235 115.382 67.8771 115.731 67.4499C115.98 68.7607 117.764 71.5322 119.275 71.7715C120.852 72.0267 122.193 70.1109 123.382 69.2686C123.839 70.5941 123.815 72.0155 123.125 73.3476C123.125 73.3476 124.444 73.065 125.274 72.1015C125.128 72.0488 124.982 71.9962 124.849 71.9642C124.884 71.673 124.868 71.3698 124.679 71.0599C125.053 71.1146 125.399 71.2152 125.757 71.3365C126.443 69.5806 125.113 67.7813 124.269 66.3806C124.05 66.4865 123.85 66.4385 123.682 66.2573C123.826 66.098 123.975 66.0634 124.113 66.1493C122.897 64.0955 122.544 63.2885 122.544 63.2885C122.544 63.2885 127.54 63.3246 128.741 66.4673C128.292 66.9411 128.627 67.1623 128.979 67.5289C129.013 67.9773 128.997 68.4845 128.881 69.0382C128.881 69.0382 129.08 68.5044 129.181 67.7181C130.686 68.7137 132.119 71.7711 131.937 73.5597C131.64 73.3298 131.444 73.3358 131.334 73.5737C131.382 73.8142 131.558 73.8915 131.885 73.7762C131.857 73.9635 132.153 73.9815 132.151 73.8402C132.914 74.0408 133.663 74.2208 134.413 74.4007C134.059 74.7739 133.709 75.1304 133.368 75.5242C132.684 74.7785 131.166 74.2027 130.147 74.5572C130.681 74.386 132.374 75.0391 132.87 75.5455C132.417 75.5955 129.418 76.1265 130.489 76.4364C131.114 76.6217 132.632 75.9467 133.305 75.8614C134.158 77.3701 134.578 78.7042 134.159 80.5241C134.075 80.8739 132.08 84.7822 133.544 83.6007C135.568 84.4917 135.516 85.1488 133.938 86.5848C134.829 89.4769 134.281 91.3187 133.31 94.0455C133.116 93.823 129.786 95.878 129.187 95.7341C127.717 95.3988 127.032 92.8912 126.627 91.7191C126.207 90.4556 125.329 88.0246 125.249 90.6308C125.212 92.0316 126.708 94.6105 127.709 95.5028C128.432 95.4295 129.04 95.6108 129.535 96.0466C129.67 96.2905 128.846 96.1985 128.642 96.1672C130.058 96.9476 132.034 94.9551 133.229 94.3081C132.912 95.4829 133.119 95.8674 134.008 94.9532C134.609 94.3574 134.918 92.7048 135.047 91.8725C135.358 90.062 135.189 88.418 134.599 86.6907C136.223 84.8429 135.55 84.4171 133.729 83.4161C135.319 81.9302 135.856 77.1256 133.968 75.6681C134.457 75.0984 134.904 74.4833 135.318 73.8603C134.214 73.9829 133.218 73.7263 132.124 73.587C132.251 71.2214 131.4 67.7928 129.185 66.4507C129.062 64.3243 127.773 61.6187 122.156 61.31C122.449 61.1161 122.801 60.9715 123.215 60.8596C123.078 60.8443 120.774 60.1678 121.191 59.898C121.728 59.5688 124.23 60.4511 123.908 60.7617C125.051 60.701 126.604 61.0563 128.748 62.3284C128.748 62.3284 127.138 59.9334 124.795 58.7545C126.654 58.8659 128.744 59.2618 131.049 60.0795C131.231 59.9822 131.723 60.1355 131.762 60.3387C132.15 60.4846 132.551 60.6513 132.964 60.8385C132.964 60.8385 130.928 55.0816 123.936 55.7292C126.392 54.8916 129.032 55.0496 131.373 55.5761C131.327 55.5474 131.281 55.5188 131.231 55.5068C131.637 54.917 132.823 55.1136 132.814 55.9573C136.265 56.9969 138.807 58.6643 138.807 58.6643C134.658 54.0741 131.258 51.7251 128.482 50.8827C133.943 47.8768 141.107 49.1557 146.707 51.2223C142.026 47.4558 135.517 44.2551 129.525 46.464C136.995 43.1649 144.253 43.9734 144.253 43.9734C140.45 42.5672 137.135 41.7715 134.265 41.4702C134.37 41.6188 134.401 41.7848 134.39 41.976C134.321 42.1179 134.268 42.2639 134.199 42.4058C132.876 43.0748 131.388 43.1054 129.964 42.7989L129.927 42.8075L129.948 42.7949C130.048 42.449 130.132 42.0992 130.233 41.7533C130.857 41.868 131.372 41.8507 131.694 41.6108C131.685 41.5028 131.684 41.4322 131.667 41.3575C131.526 41.3589 131.368 41.3562 131.226 41.3575C132.203 40.5172 133.095 39.8855 133.857 39.575C133.84 39.571 132.922 39.2098 133.179 39.0952C133.494 38.9593 134.375 39.0299 134.64 39.3225C140.217 37.666 152.257 36.9086 153.897 43.4339C153.897 43.4339 153.826 41.1615 152.373 38.6985C152.315 38.6492 152.203 38.6752 152.104 38.7218ZM130.198 28.3191C131.093 28.9215 129.57 28.2918 129.611 28.2665C129.673 28.2285 129.99 28.3045 130.198 28.3191ZM117.396 8.9838C117.321 8.93049 117.249 8.86052 117.174 8.8072C117.39 8.78855 117.764 8.77257 117.396 8.9838ZM117.704 15.2598C118.021 15.3357 118.321 15.4077 118.637 15.4837C118.111 15.6923 118.078 15.6843 117.704 15.2598ZM118.72 18.9569C119.159 18.3751 119.98 18.625 120.344 17.99C120.069 17.8887 119.785 17.8207 119.469 17.7447C119.769 17.8167 120.069 17.8887 120.368 17.9607C120.364 17.9773 120.364 17.9773 120.344 17.99C120.619 18.0913 120.907 18.2132 121.183 18.3852C121.079 18.8183 120.975 19.2515 120.875 19.6679C120.146 19.4753 119.543 19.0489 118.72 18.9569ZM110.067 17.5673C110.504 17.1434 110.125 16.1539 111.21 17.1368C111.054 17.7159 111.054 17.7159 110.067 17.5673ZM102.494 30.1796C102.772 30.123 100.395 30.0456 100.762 29.3233C101.494 28.5477 103.647 29.9278 102.494 30.1796ZM98.3353 41.7086C98.7278 41.468 99.0197 41.5733 99.1942 42.0205C98.8177 42.1944 98.5259 42.0891 98.3353 41.7086ZM99.6647 40.3539C99.5868 40.4585 98.7105 40.0719 99.5208 40.0726C99.7461 40.1619 99.7221 40.2619 99.6647 40.3539ZM102.934 58.2995C102.85 58.2089 102.891 58.1836 103.041 58.2196C103.125 58.3102 103.083 58.3355 102.934 58.2995ZM106.351 59.8423L107.396 59.9696C107.059 59.9769 106.701 59.9263 106.351 59.8423ZM122.583 66.945C122.632 66.8863 122.744 66.8603 122.823 66.8264C123.199 67.0929 123.137 67.5714 122.622 67.5887C122.373 67.5993 122.554 66.9909 122.583 66.945ZM121.007 69.9849C121.186 69.975 121.365 69.965 121.531 69.9343C122.452 70.2789 120.824 70.7513 121.007 69.9849ZM121.798 65.2237C122.064 65.217 122.268 65.319 122.428 65.5336C122.494 65.8488 121.296 65.3323 121.798 65.2237ZM124.477 56.7048C124.706 56.7774 124.939 56.8334 125.185 56.91C125.345 57.054 125.521 57.2019 125.68 57.3458C125.429 57.6557 124.951 57.6644 124.284 57.4338C124.161 57.1399 124.154 56.874 124.477 56.7048ZM127.155 27.712C127.68 27.8732 126.953 27.9632 126.685 27.7579C126.763 27.6533 126.959 27.6473 127.155 27.712ZM124.957 30.0389C126.327 30.2795 125.329 31.1325 125.338 31.1698C125.363 31.2111 123.705 29.8263 124.957 30.0389ZM121.343 27.4799C121.496 27.4286 121.626 27.4773 121.731 27.6259C121.64 27.6392 121.532 27.6485 121.44 27.6619C121.278 27.6052 121.24 27.5432 121.343 27.4799ZM118.26 35.8489C118.651 35.9782 118.64 36.0988 118.242 36.2148C117.713 36.0701 117.728 35.9329 118.26 35.8489ZM117.608 34.6707C118.063 34.8327 118.106 34.9486 117.749 35.0393C117.628 34.9573 117.49 34.8713 117.373 34.7727C117.447 34.7554 117.521 34.6674 117.608 34.6707ZM116.183 26.2237C115.665 26.3989 115.427 26.289 115.461 25.9271C115.71 25.8458 115.975 25.8392 116.225 25.8992C116.259 25.9778 116.289 26.0731 116.307 26.1477C116.265 26.173 116.224 26.1984 116.183 26.2237ZM114.776 36.1933C114.639 36.178 114.489 36.142 114.335 36.1227C114.36 36.0934 114.368 36.0601 114.363 36.0061C114.528 35.9048 115.236 35.599 115.302 35.9848C115.209 36.2267 115.035 36.2906 114.776 36.1933ZM116.416 35.1598C116.499 35.1092 114.958 35.5849 115.29 35.1538C115.605 35.0179 115.945 34.9939 116.312 35.0819L116.503 35.0925L116.416 35.1598ZM120.28 42.624C120.008 40.6029 119.23 37.8261 117.259 36.8598C117.363 37.237 118.576 41.6511 117.941 41.7277C117.576 41.781 116.763 36.7232 116.62 36.0721C116.762 36.1414 116.921 36.2147 117.063 36.284L117.104 36.2587C117.117 36.2794 117.113 36.296 117.125 36.3167C118.975 37.2717 119.802 39.0382 120.228 41.0081C121.387 40.9515 121.541 41.0414 122.063 41.7305C121.64 41.8051 121.221 41.8631 120.798 41.9377C120.664 41.8351 120.513 41.7284 120.379 41.6258C120.674 42.9652 120.433 44.7045 120.572 45.8127C120.417 44.7711 120.432 43.6823 120.28 42.624ZM119.582 48.764C119.538 48.9473 119.435 49.0812 119.045 49.0932C119.089 48.91 119.241 48.788 119.582 48.764ZM110.169 52.6008C108.402 49.023 106.515 44.5529 103.574 41.9792C105.354 43.5166 106.949 45.6084 108.181 47.5956C108.679 48.3846 109.148 49.2196 109.563 50.0592C109.868 50.6963 110.368 53.0187 110.169 52.6008ZM111.952 61.9089C111.773 61.9189 110.715 57.2249 110.494 56.6784C110.356 56.5925 110.234 56.5105 110.093 56.4412L110.298 56.2439C110.26 56.182 110.222 56.12 110.184 56.058C110.247 56.0907 110.31 56.1233 110.372 56.156L110.558 55.9714C110.659 56.1367 110.744 56.2979 110.808 56.4718C112.206 57.5474 112.547 58.9861 113.005 60.3116C112.556 59.0235 112.148 58.0799 111.101 57.1589C111.301 57.6474 112.691 61.8396 111.952 61.9089ZM111.873 48.2881C112.444 49.2883 114.573 55.6136 113.764 55.7542C113.855 55.7409 111.616 48.7725 111.134 47.8462C111.012 47.7643 110.874 47.6783 110.736 47.5923L110.884 47.4164C110.821 47.3131 110.758 47.2098 110.69 47.1232C110.782 47.1805 110.891 47.2418 110.983 47.2991L111.131 47.1232C111.236 47.2718 111.338 47.4371 111.459 47.5897C114.829 49.7022 115.002 52.6509 116.173 55.6277C115.066 52.8249 114.694 49.9694 111.873 48.2881ZM118.254 63.9148C118.204 63.9735 118.172 64.0361 118.122 64.0947C117.976 64.0421 117.272 63.8202 117.407 63.553C117.562 63.2731 118.199 63.8489 118.254 63.9148C118.715 63.9022 119.156 63.9728 119.556 64.1394L119.573 64.1434C119.752 64.2041 119.911 64.2774 120.061 64.384C119.89 64.29 119.736 64.2001 119.556 64.1394C119.181 64.0141 118.736 63.9602 118.254 63.9148ZM122.021 57.1725C120.868 58.2347 118.239 62.3608 117.917 62.1602C117.144 61.7104 120.838 58.1394 122.021 57.1725C122.157 57.0465 122.265 56.9666 122.343 56.9326C122.285 56.9539 122.178 57.0339 122.021 57.1725ZM118.375 58.2706C117.888 58.6118 115.07 61.6177 115.04 61.5931C114.143 61.1486 117.862 58.13 118.358 57.8261C119.767 56.9485 121.192 56.8853 122.469 56.5574C120.927 56.9626 119.692 57.3357 118.375 58.2706ZM131.127 47.5708C131.106 47.5835 131.09 47.5795 131.052 47.5882C131.231 47.5782 131.41 47.5682 131.588 47.5582C131.5 47.8541 127.236 49.6145 126.65 50.073C126.11 50.4895 121.519 55.0081 121.36 54.8641C120.061 53.7419 129.698 48.0913 131.052 47.5882C130.284 47.6328 129.474 47.7028 128.636 47.8187C126.869 48.1345 125.084 48.7455 123.562 49.5078C123.377 49.7631 123.307 49.8344 123.082 49.745C122.569 49.9743 118.903 52.6184 118.87 52.6104C117.939 52.1579 122.191 49.6371 122.614 49.4918C122.585 49.4672 122.568 49.4632 122.539 49.4385C122.663 49.3625 122.808 49.3445 122.966 49.3472C124.807 48.503 126.798 48.0645 128.657 47.806C129.478 47.6861 130.329 47.5908 131.127 47.5708ZM125.383 43.0207C125.798 43.4198 126.018 43.825 126.089 44.3355C125.69 44.3101 125.307 44.2181 124.956 44.0635C124.828 43.6451 125.345 43.3992 125.383 43.0207ZM129.315 45.3564C129.135 45.595 129.209 45.9475 128.536 45.9621C127.056 45.0785 127.056 45.0785 126.689 44.4794C127.552 44.7746 128.436 45.0572 129.315 45.3564ZM128.606 42.4377C129.094 42.1671 129.177 42.1871 129.527 42.6409C129.227 42.569 128.923 42.5136 128.606 42.4377ZM133.602 37.6285C132.629 38.0823 126.695 44.2342 127.025 44.4014C125.847 43.8017 131.942 38.3755 133.012 37.7338C132.772 37.7818 132.531 37.8297 132.287 37.8944C130.707 38.3082 129.255 38.9992 127.893 39.976C127.402 40.3339 126.882 40.7377 126.446 41.1615C125.943 41.6399 125.559 42.2877 125.064 42.7328C125.085 42.7201 123.521 44.3181 123.97 43.4744C125.056 41.4447 127.057 39.8634 129.087 38.8179C130.055 38.3101 131.213 38.1123 132.303 37.8984C132.565 37.8377 132.83 37.7605 133.087 37.7165C133.066 37.7291 133.046 37.7418 133.025 37.7545C133.361 37.6765 133.68 37.5945 133.987 37.4919L133.991 37.4753C134.152 37.3906 134.343 37.3307 134.516 37.2667C134.355 37.3513 134.181 37.4153 133.987 37.4919C133.98 37.6665 133.86 37.7258 133.602 37.6285ZM146.735 33.8565C146.927 33.9378 147.102 34.0151 147.298 34.0797C147.046 34.2483 146.775 34.201 146.515 33.9624C146.473 33.8465 146.555 33.7958 146.735 33.8565ZM144.652 34.167C144.771 34.037 145.037 34.0304 145.32 34.0983C146.411 34.3956 144.516 34.7334 144.652 34.167ZM145.69 37.6935C145.776 37.4849 145.949 37.3503 146.206 37.3063C146.509 37.7315 146.489 37.7441 145.69 37.6935ZM145.174 35.8076C145.724 35.5697 146.265 35.6644 146.805 36.0582C147.245 36.428 144.991 36.2747 145.174 35.8076Z" class="pineapple"/>
<path d="M132.286 37.8943C132.527 37.8464 132.784 37.8024 133.012 37.7338C133.032 37.7211 133.053 37.7084 133.074 37.6958C132.796 37.7524 132.531 37.8297 132.286 37.8943Z" class="pineapple"/>
<path d="M122.021 57.1729C122.173 57.0508 122.302 56.9581 122.343 56.9327C122.264 56.9668 122.14 57.0428 122.021 57.1729Z" class="pineapple"/>
<path d="M119.469 17.7449C119.785 17.8208 120.068 17.8888 120.344 17.9901C120.348 17.9735 120.348 17.9735 120.368 17.9608C120.068 17.8888 119.769 17.8168 119.469 17.7449Z" class="pineapple"/>
<path d="M92.5578 71.0669C91.7981 70.7083 90.8939 66.4741 90.1849 67.9601C89.4431 69.5088 91.9473 71.9951 93.2268 71.9498C95.2166 71.8812 97.5423 69.0918 98.3693 68.2156C97.5383 69.1085 93.8725 71.682 92.5578 71.0669Z" class="pineapple"/>
<path d="M128.432 70.7628C128.328 70.7555 126.543 68.7237 126.604 69.9365C126.733 72.1875 130.01 71.5998 130.501 69.8499C130.545 69.6667 128.714 70.7602 128.432 70.7628Z" class="pineapple"/>
<path d="M100.957 71.6737C100.812 70.0004 99.7075 68.2905 99.7454 70.9953C99.7567 71.7556 100.244 72.7359 100.62 73.3723C102.798 76.9961 106.742 74.4367 108.871 71.8818C107.297 73.7416 101.271 76.383 100.957 71.6737Z" class="pineapple"/>
<path d="M118.451 73.1418C116.883 74.316 112.375 80.1054 111.807 74.9122C111.725 74.2232 111.695 71.0446 110.641 72.8704C110.162 73.6894 111.111 76.4896 111.769 77.1233C114.491 79.7322 116.918 74.9763 118.62 73.3937C118.618 73.2525 118.568 73.1698 118.451 73.1418Z" class="pineapple"/>
<path d="M129.275 79.0699C128.085 78.4495 127.904 74.6531 126.941 74.845C125.857 76.1351 123.1 79.0325 122.331 78.566C122.343 78.5866 122.335 78.6199 122.348 78.6406C121.974 78.5859 121.215 78.3687 121.368 77.8063C121.179 77.6377 121.069 77.4351 121.025 77.1779C120.612 76.4795 120.164 73.0596 119.105 73.5807C118.224 74.0212 119.966 77.2585 120.295 77.7249C123.149 81.6167 124.956 77.5398 126.724 75.1629C126.422 76.6409 128.207 80.8045 130.331 80.0282C129.929 79.7203 130.24 79.601 130.555 79.4651C130.75 79.5298 130.926 79.6071 131.122 79.6717C131.262 79.5997 131.39 79.5071 131.522 79.3978C131.403 79.1579 131.414 78.9667 131.513 78.8494C130.748 79.2472 129.931 79.4211 129.275 79.0699Z" class="pineapple"/>
<path d="M126.938 74.8616C127.184 74.5684 127.353 74.3798 127.39 74.3005C127.225 74.4724 127.073 74.665 126.938 74.8616Z" class="pineapple"/>
<path d="M131.496 78.8455C131.579 78.7948 131.661 78.7441 131.744 78.6934C131.649 78.7234 131.566 78.7741 131.496 78.8455Z" class="pineapple"/>
<path d="M133.324 77.0996C133.031 77.6634 132.442 78.2798 131.76 78.6976C131.893 78.6589 132.068 78.6656 132.251 78.7096C132.725 78.3478 133.364 77.814 133.592 77.2343C133.532 77.1143 133.453 77.0777 133.324 77.0996Z" class="pineapple"/>
<path d="M92.6965 73.5677C93.2476 72.079 91.7929 73.3684 91.459 73.6583C90.8986 74.158 90.55 75.0963 89.9236 75.6507C89.4578 76.0498 87.334 77.7777 86.8676 76.7848C86.6683 76.367 86.667 75.7852 86.4225 75.4094C86.4644 75.4547 86.1752 77.8343 87.3827 77.6484C87.334 79.9801 86.6748 82.359 87.4445 84.6581C88.1628 86.8038 88.5726 86.1974 90.2639 84.8767C90.9816 84.309 95.8669 80.6187 93.8185 80.638C92.7963 80.6393 89.329 84.4409 88.452 85.3052C87.3312 82.7809 87.7604 80.2587 87.6772 77.5958C89.619 77.2866 91.1597 75.8593 92.3553 74.402C92.082 76.2745 92.7536 80.9638 95.657 80.3921C95.647 80.2135 95.5704 80.0189 95.5271 79.8324C95.5471 79.7491 95.6004 79.6738 95.6624 79.6358C95.5464 79.6784 95.4551 79.6917 95.3678 79.6884C92.7603 79.4678 93.6374 73.3178 92.6965 73.5677Z" class="pineapple"/>
<path d="M95.9022 79.5167C96.3127 79.4215 96.9244 79.5154 97.095 79.5388C97.6728 79.1136 101.537 75.9358 101.478 75.8865C101.154 75.474 97.4989 78.7371 95.9022 79.5167Z" class="pineapple"/>
<path d="M95.6661 79.6189C95.7448 79.5848 95.8236 79.5508 95.919 79.5208C95.8069 79.5468 95.7282 79.5808 95.6661 79.6189Z" class="pineapple"/>
<path d="M121.425 80.8684C121.363 80.8357 119.465 83.164 119.209 83.4199C119.388 83.4099 119.567 83.4705 119.718 83.5771C119.918 83.2553 121.738 81.0316 121.425 80.8684Z" class="pineapple"/>
<path d="M118.869 83.8135C117.44 85.726 115.689 85.464 114.544 83.4802C114.197 82.8685 113.554 78.503 112.765 79.0714C112.734 79.2753 107.91 82.857 107.142 83.3421C104.733 84.8607 103.123 81.0736 102.674 79.2744C102.522 78.6566 102.722 77.3832 102.364 76.8214C101.508 75.4707 101.394 76.6768 101.35 77.741C101.273 79.6782 102.715 82.7729 104.383 83.8251C107.259 85.6431 110.76 81.0392 112.671 79.172C111.162 83.1089 116.292 88.2342 119.468 83.9574C119.252 83.9761 119.052 83.9281 118.869 83.8135Z" class="pineapple"/>
<path d="M126.537 87.0284C126.319 87.2756 126.022 87.5568 125.644 87.5188C125.769 87.5841 126.637 87.9333 125.985 88.0059C125.965 88.0892 125.945 88.1725 125.908 88.2518C126.452 88.1885 126.785 87.828 127.08 87.4055C127.051 87.3809 127.039 87.3602 127.009 87.3356C126.838 87.2416 126.65 87.1436 126.537 87.0284Z" class="pineapple"/>
<path d="M123.585 85.0862C123.506 85.0496 123.406 85.0256 123.33 84.9723L123.585 85.0862C123.298 84.5945 122.432 79.5413 121.735 81.9289C121.216 83.7248 123.377 86.8335 124.663 87.8644C124.679 87.7978 124.694 87.7311 124.731 87.6518C124.867 87.5259 125.02 87.4039 125.106 87.266C124.369 86.6662 124.049 85.8673 123.585 85.0862Z" class="pineapple"/>
<path d="M127.364 87.1037C128.591 85.8829 129.824 83.536 130.451 82.6117C129.492 84.0378 128.126 85.4718 126.886 86.6719C127.099 86.7405 127.254 86.9011 127.364 87.1037Z" class="pineapple"/>
<path d="M98.7092 89.0354C96.872 90.3034 95.7198 90.6259 94.9942 88.1436C94.5631 86.4897 95.1775 84.6638 94.7597 83.1011C93.9502 80.0878 93.5569 84.6624 93.7314 85.9905C93.956 87.7711 94.493 90.9657 96.7867 90.9525C97.9335 90.9458 103.68 85.577 103.667 85.5563C103.495 85.3917 99.213 88.6982 98.7092 89.0354Z" class="pineapple"/>
<path d="M114.471 87.3039C113.83 86.6741 109.058 94.8845 106.467 89.8226C106.162 89.2562 104.839 83.7585 104.352 86.3021C103.944 88.4418 106.186 91.7284 108.213 92.1623C108.441 92.0937 108.666 92.1123 108.878 92.181C109.804 92.0684 115.201 88.0076 114.471 87.3039Z" class="pineapple"/>
<path d="M119.497 94.113C117.871 94.4275 117.254 92.8875 116.758 91.3588C116.501 90.5924 115.021 85.2334 114.913 88.2554C114.829 90.8076 117.068 96.0848 120.104 94.5935C122.119 93.6146 123.574 90.5633 124.856 89.5498C123.359 90.7232 121.455 93.7372 119.497 94.113Z" class="pineapple"/>
<path d="M86.9544 86.4075C86.4133 86.3129 84.2755 88.7598 83.8277 89.3042C83.1927 88.0594 82.1338 85.9376 82.0459 84.9827C82.1405 86.2035 82.1638 88.6757 83.1406 89.5974C84.1722 90.585 83.9983 90.2085 85.355 89.107C85.8748 88.7032 88.5197 86.7128 86.9544 86.4075Z" class="pineapple"/>
<path d="M115.375 98.9558C115.413 99.0177 115.451 99.0797 115.435 99.1464C115.393 99.101 115.33 99.0684 115.288 99.0231C114.925 99.2883 114.591 99.5782 114.27 99.8887C114.324 99.884 114.378 99.8794 114.432 99.8747C114.352 100.208 114.142 100.422 113.723 100.48C108.76 105.667 108.653 93.4133 107.49 93.416C108.275 92.565 106.142 94.1849 106.791 93.7591C106.08 94.2229 105.381 94.9359 104.784 95.515C103.671 96.5518 102.706 97.712 101.48 98.6336C101.743 98.7142 102.014 98.8322 102.273 98.9295C102.437 98.7575 102.585 98.5816 102.708 98.435C104.132 96.909 105.568 95.4037 107.008 93.8817C106.833 96.5179 108.11 101.916 111.5 102.254C113.134 102.418 117.651 97.0353 117.345 96.8387C117.208 96.7528 115.68 98.7119 115.375 98.9558Z" class="pineapple"/>
<path d="M95.3649 93.4304C93.2097 95.3622 90.8414 98.0356 89.512 94.1046C89.0889 92.8578 89.1616 91.7476 89.1536 90.4595C89.151 89.7365 89.1417 86.5452 88.1714 88.5323C87.3437 90.2189 88.2985 94.9762 89.6279 96.2644C91.9302 98.4908 94.0207 94.993 95.6894 93.473C95.5814 93.4824 95.4775 93.475 95.3649 93.4304Z" class="pineapple"/>
<path d="M97.9229 95.9824C97.4985 95.0348 97.4785 93.7967 96.9221 92.9584C96.5469 92.3926 95.6447 91.0132 95.8619 92.8977C95.8166 92.9397 95.7672 92.9983 95.7219 93.0403C95.7386 93.0443 95.7386 93.0443 95.7553 93.0483C95.7646 93.1563 95.7572 93.2602 95.7626 93.3848C95.8079 93.3429 95.8532 93.3009 95.8985 93.2589C96.229 95.2587 97.7683 98.5353 99.8133 99.4843C100.386 99.4457 100.446 99.1958 100.406 98.9219C99.3562 98.5994 98.3767 96.9547 97.9229 95.9824Z" class="pineapple"/>
<path d="M84.0413 92.2279C83.9427 92.3451 83.8734 92.4871 83.8041 92.629C83.8914 92.6324 83.9787 92.6357 84.058 92.6723C84.058 92.6723 84.2552 91.9973 84.0413 92.2279Z" class="pineapple"/>
<path d="M89.4589 96.8932C88.5819 97.7575 87.573 99.1715 86.4468 98.725C85.6125 98.3838 84.8063 96.1641 84.4791 95.3984C84.5197 95.3024 84.4817 95.2404 84.3731 95.1791C84.038 94.4468 83.8907 93.8124 83.9747 93.0221C83.8834 93.0354 83.8001 93.0154 83.6582 92.9461C83.5089 93.4212 83.5808 94.4428 83.6894 94.9446C83.0863 95.3284 82.1434 96.6878 81.7002 97.2862C81.577 96.9923 81.4683 96.4905 81.2584 96.2639C81.0485 96.0373 81.3497 97.572 81.3797 97.6673C81.3177 97.7053 81.2684 97.7639 81.2191 97.8226L81.423 97.8539C81.4783 97.9905 81.6082 98.1098 81.6636 98.2464C81.8082 98.1578 81.9568 98.0525 82.0887 97.9432L82.226 97.9586L82.1753 97.8759C82.8431 97.2962 83.4488 96.7544 84.1245 96.1414C84.499 97.077 85.3026 99.4546 86.3861 99.7852C87.2364 100.06 88.0954 99.4907 88.8011 98.9729C89.0157 98.813 90.2739 97.8288 90.1872 97.4556C90.1393 97.2151 89.8294 96.524 89.4589 96.8932Z" class="pineapple"/>
<path d="M81.6598 98.2637L81.6937 98.2719L81.6849 98.2339L81.6598 98.2637Z" class="pineapple"/>
<path d="M90.1151 107.446C90.2804 107.345 90.6542 107.329 90.9128 107.426C91.148 107.253 91.3792 107.097 91.6311 106.929C91.961 106.656 92.2869 106.399 92.6421 106.167C92.5967 106.209 90.5902 107.155 90.1151 107.446Z" class="pineapple"/>
<path d="M90.0905 107.475C90.0285 107.513 89.9664 107.551 89.9004 107.606C89.9338 107.614 89.9838 107.626 90.0172 107.634C90.0252 107.601 90.0332 107.567 90.0412 107.534C90.0659 107.505 90.0699 107.488 90.0905 107.475Z" class="pineapple"/>
<path d="M88.0247 108.301C88.2199 108.295 88.3565 108.24 88.4265 108.168C88.148 108.154 87.9061 108.061 87.7008 107.888C87.7168 107.822 87.7662 107.763 87.8448 107.729C86.9752 106.728 86.6 105.281 86.4008 103.982C86.3209 103.434 86.5228 102.813 86.3849 102.287C86.2809 101.839 85.4647 99.8812 85.2747 101.333C85.0748 101.285 82.6191 104.396 82.6964 104.661C82.092 104.904 81.447 103.921 80.9965 103.742C80.8972 103.789 80.8399 103.881 80.8326 103.985C81.8774 104.623 82.0267 105.469 83.3188 105.004C83.9732 104.774 84.7489 103.304 85.3093 102.804C85.6931 104.288 85.9417 105.528 86.4874 106.998C86.5587 107.068 86.5927 107.147 86.5853 107.251C87.0358 108.31 88.3619 109.245 89.4821 108.616C89.0129 108.661 88.4632 108.53 88.0247 108.301Z" class="pineapple"/>
<path d="M82.6963 104.661C82.7142 104.666 82.7185 104.648 82.6963 104.661C82.7006 104.643 82.6963 104.661 82.6963 104.661Z" class="pineapple"/>
<path d="M98.6891 112.905C96.64 113.734 96.3814 113.196 95.6018 111.159C95.18 110.054 95.2401 108.042 94.5131 107.18C93.5215 106.026 93.3969 106.912 93.6667 108.21C93.8127 108.263 93.8553 108.379 93.8027 108.525C93.7987 108.542 93.778 108.554 93.774 108.571C93.9779 109.043 94.0492 109.553 94.2364 110.021C94.3531 110.049 94.4657 110.094 94.5616 110.134C94.449 110.09 94.3491 110.066 94.2364 110.021C94.7975 111.354 95.3532 113.883 96.9185 114.189C97.9594 114.403 103.419 110.375 103.205 110.165C103.071 110.063 99.2149 112.696 98.6891 112.905Z" class="pineapple"/>
<path d="M107.669 115.501C107.98 115.523 108.292 115.545 108.587 115.563C108.641 115.487 108.711 115.416 108.781 115.345C109.994 114.033 111.425 113.284 112.765 112.178C111.668 113.078 109.007 113.813 107.669 115.501Z" class="pineapple"/>
<path d="M106.759 114.595C106.636 114.812 106.351 114.532 106.292 114.483C106.325 114.42 106.341 114.354 106.37 114.308C106.436 114.324 106.52 114.344 106.586 114.36C106.096 113.907 105.675 112.943 105.441 112.305C105.236 111.763 104.987 110.011 104.425 109.859C103.004 109.465 104.113 111.599 104.338 112.129C104.954 113.598 105.793 114.803 106.88 115.998C106.949 115.856 107.019 115.714 107.117 115.597C107.117 115.597 107.117 115.597 107.101 115.593C107.121 115.51 107.137 115.443 107.153 115.377C107.153 115.377 107.153 115.377 107.169 115.381C107.207 115.372 107.248 115.347 107.289 115.321C107.075 115.111 106.907 114.859 106.759 114.595Z" class="pineapple"/>
<path d="M117.247 118.61C115.842 119.101 114.695 121.239 112.872 120.907C111.723 120.702 108.69 118.071 108.578 116.776C108.499 116.81 108.424 116.827 108.333 116.84L108.329 116.857C108.54 119.357 112.057 121.804 114.214 121.406C115.836 121.108 120.092 117.619 117.247 118.61Z" class="pineapple"/>
<path d="M105.67 117.734C105.949 117.748 106.227 117.762 106.506 117.776C106.558 117.63 106.686 117.537 107.007 117.597C107.107 117.621 107.186 117.657 107.249 117.69C107.803 116.554 105.798 117.641 105.67 117.734Z" class="pineapple"/>
<path d="M105.67 117.734C103.255 119.427 102.192 120.476 100.48 117.774C100.455 117.804 100.418 117.812 100.393 117.842C100.347 117.813 100.285 117.78 100.243 117.735C100.288 117.693 100.346 117.672 100.391 117.63C99.6828 116.544 99.4642 115.399 98.9092 114.261C99.4769 115.419 99.3535 118.649 101.086 119.946C102.76 121.194 105.825 119.287 107.092 117.899C106.63 117.771 106.151 117.709 105.67 117.734Z" class="pineapple"/>
<path d="M96.9703 114.782C95.3903 115.125 92.5828 116.619 91.0208 115.786C90.1145 115.304 88.516 110.145 88.7526 110.114C87.645 110.324 89.9866 116.278 91.25 116.739C92.2842 117.129 94.2574 116.615 95.3309 116.327C95.7827 116.206 96.6717 116.173 96.9589 115.784C96.9836 115.755 97.9365 114.574 96.9703 114.782Z" class="pineapple"/>
<path d="M87.3076 110.331C87.0037 110.276 86.36 110.756 86.0908 110.85C85.2998 111.135 84.3049 111.83 83.6365 112.34C83.2107 111.691 83.0821 110.832 82.6483 110.217C82.5277 110.206 82.445 110.256 82.3877 110.348C83.2846 112.044 82.5123 112.986 84.4334 112.689C85.475 112.534 86.6512 111.671 87.6907 111.304C88.6144 110.98 87.7487 110.402 87.3076 110.331Z" class="pineapple"/>
<path d="M100.826 121.84C100.466 122.017 100.174 122.282 99.8264 122.481C100.038 122.479 100.25 122.477 100.445 122.471C100.507 122.433 100.573 122.378 100.635 122.34C100.759 122.264 100.871 122.167 100.978 122.087C100.898 121.98 100.843 121.914 100.826 121.84Z" class="pineapple"/>
<path d="M99.2143 122.756C97.0326 124.065 95.5745 125.001 93.8966 122.449C93.3948 121.677 92.4993 117.48 91.7203 118.597C91.0479 119.563 92.7131 122.535 93.4774 123.388C96.1069 126.38 97.9675 124.061 100.446 122.471C100.251 122.477 100.039 122.479 99.8267 122.481C99.6241 122.591 99.4002 122.643 99.2143 122.756Z" class="pineapple"/>
<path d="M109.017 124.563C106.895 125.992 105.913 126.338 104.222 124.134C103.799 124.28 103.384 124.25 102.954 124.059C104.416 126.19 105.963 127.23 108.311 125.891C110.208 124.814 112.474 123.226 114.148 121.83C113.287 122.557 110.446 123.602 109.017 124.563ZM106.952 125.9C106.916 126.05 106.884 126.183 106.865 126.337C106.263 125.981 106.267 125.964 106.952 125.9Z" class="pineapple"/>
<path d="M101.743 121.39C101.526 121.197 101.331 121.274 101.139 121.633C101.322 121.606 101.571 121.595 101.928 121.575C102.039 121.849 101.937 122.053 101.652 122.214C101.838 122.611 102.071 123.037 102.327 123.363C102.59 123.073 102.892 122.846 103.251 122.668C103.036 122.317 102.335 121.056 101.743 121.39Z" class="pineapple"/>
<path d="M90.0378 77.5982C90.0165 77.5403 89.9745 77.4949 89.9532 77.437L89.8879 77.5622C89.8006 77.5589 89.6966 77.5516 89.6093 77.5482C89.656 77.6475 89.69 77.7262 89.7573 77.8128L89.696 77.9214C89.7333 77.9128 89.7666 77.9207 89.8039 77.9121C89.9991 78.3466 90.1397 80.9175 90.4649 81.0308C91.2525 81.2727 90.315 78.3519 90.2117 77.9747C90.3283 78.0027 90.445 78.0307 90.5576 78.0754C90.9414 78.238 91.4925 78.9517 91.5485 79.1589C91.2746 78.3179 90.9128 77.8435 90.0378 77.5982Z" class="pineapple"/>
<path d="M96.8909 73.6402C96.6203 72.7119 96.4131 71.887 95.7741 71.0993C95.6581 71.1419 95.5675 71.2259 95.5395 71.3425L95.5228 71.3385C95.5228 71.3385 95.5395 71.3425 95.5355 71.3592C95.3989 71.8549 95.2975 75.2135 95.6727 74.8983C96.1632 74.4698 95.7327 72.446 95.826 71.7637C95.948 71.9163 96.0533 72.0649 96.1712 72.2341C96.4071 72.5727 96.8182 73.429 96.8909 73.6402Z" class="pineapple"/>
<path d="M92.7922 90.7865C92.6076 90.6012 92.2751 89.7109 91.8726 89.3324C91.726 89.2091 91.604 89.0565 91.4534 88.9499C90.833 89.6996 91.0396 90.4539 91.3301 91.2989C91.3468 91.3029 91.3674 91.2902 91.3841 91.2942C91.2695 91.4782 91.6606 91.5368 91.8139 91.045C91.9385 90.5992 91.1182 89.9795 91.5327 89.4271C92.0105 89.8589 92.339 90.3253 92.7922 90.7865Z" class="pineapple"/>
<path d="M85.4146 82.9899C85.0927 81.9083 84.7616 81.1593 84.0592 80.2683C84.0239 80.0484 83.9513 79.8372 83.8373 79.6513L83.6227 79.8112C83.5641 79.7619 83.5095 79.6959 83.4342 79.6426C83.4682 79.7212 83.5021 79.7999 83.5361 79.8785L83.3215 80.0384L83.3509 80.0631C83.4721 80.145 83.5934 80.227 83.7067 80.3423C83.8066 80.8068 83.8319 84.3719 84.0025 84.3952C84.6768 84.5219 84.3731 81.3832 84.2485 80.948C84.7189 81.4838 85.2606 82.5301 85.4146 82.9899Z" class="pineapple"/>
<path d="M97.312 82.2337C97.2947 82.159 97.2773 82.0844 97.2433 82.0058L97.1034 82.1484C97.0201 82.1284 96.9368 82.1084 96.8702 82.0924C96.9042 82.171 96.9215 82.2456 96.9388 82.3203L96.8029 82.4462C96.8528 82.4582 96.9195 82.4742 96.9695 82.4862C97.0441 82.9094 97.1906 86.116 97.5438 86.1127C98.0049 86.1 97.7877 85.0964 97.7397 84.8559C97.6391 84.7612 97.5758 84.658 97.6078 84.5247C97.6318 84.4247 97.6558 84.3248 97.6924 84.2455C97.5918 83.7104 97.5412 83.1873 97.4033 82.6608C98.3548 83.1006 98.5781 83.859 99.2451 84.53C98.9946 83.5185 98.2676 82.6568 97.312 82.2337Z" class="pineapple"/>
<path d="M109.573 76.297C109.498 76.3143 109.424 76.3316 109.349 76.3489L109.227 76.1257C109.145 76.247 109.063 76.3683 108.968 76.4689C107.6 76.81 106.082 77.5557 105.312 78.7805C105.528 78.7618 105.74 78.7598 105.948 78.7745C106.701 77.9862 107.572 77.3671 108.586 76.9587C108.12 77.7277 107.824 78.5906 107.55 79.4409C107.596 79.4696 107.625 79.4942 107.671 79.5229C107.85 78.6319 108.475 77.4958 109.079 76.8127C109.233 76.7614 109.386 76.7101 109.539 76.6588L109.416 76.4356C109.474 76.4143 109.524 76.3556 109.573 76.297Z" class="pineapple"/>
<path d="M118.932 78.7018C118.828 78.6945 118.741 78.6912 118.65 78.7045L118.57 78.5972C118.562 78.6305 118.55 78.6805 118.525 78.7098C118.138 78.7051 117.785 78.7085 117.399 78.7744C116.79 78.8923 115.044 79.7066 116.333 79.7693C116.89 79.7973 117.647 79.063 118.35 79.073C118.081 79.678 117.69 80.0599 117.346 80.6116C117.497 80.3484 118.375 79.5548 118.72 79.0737C118.773 79.069 118.827 79.0643 118.881 79.0597L118.801 78.9524C118.855 78.8771 118.895 78.7811 118.932 78.7018Z" class="pineapple"/>
<path d="M124.828 74.549L124.856 74.503C124.786 74.5036 124.694 74.517 124.62 74.5343L124.514 74.3857C124.498 74.4523 124.466 74.515 124.416 74.5736C123.927 74.6322 122.123 74.5869 122.033 75.182C121.95 75.6731 123.827 75.0487 124.179 74.9748C123.987 75.2633 123.677 75.5238 123.35 75.6391C123.417 75.6551 123.467 75.6671 123.534 75.6831C123.972 75.4712 124.278 75.298 124.565 74.9088C124.677 74.8828 124.772 74.8528 124.884 74.8268L124.766 74.6576C124.77 74.6409 124.799 74.5949 124.828 74.549Z" class="pineapple"/>
<path d="M116.469 70.8335C116.399 70.8342 116.328 70.8348 116.241 70.8315L116.176 70.5869C116.09 70.6542 116.003 70.7215 115.929 70.8095C115.43 70.7602 112.127 71.747 112.948 72.3667C113.082 72.4694 115.003 71.2919 115.513 71.2206C115.045 71.7777 114.393 72.7313 114.288 73.4636C114.374 72.9559 115.48 71.6531 116.032 71.1867C116.153 71.198 116.257 71.2053 116.365 71.196L116.296 70.9681C116.338 70.9428 116.362 70.9135 116.408 70.8715L116.469 70.8335Z" class="pineapple"/>
<path d="M121.238 86.4965C121.176 86.5345 121.134 86.5598 121.076 86.5812L120.896 86.3792C120.834 86.4879 120.79 86.6005 120.745 86.7131C120.227 86.8883 118.633 87.8799 118.627 88.5656C118.641 89.2386 120.204 87.4994 120.465 87.3681C120.287 87.9599 120.009 88.8975 120.069 89.5285C120.036 89.0801 120.691 87.5987 120.989 87.0183C121.109 86.959 121.229 86.8997 121.362 86.861L121.181 86.6591C121.176 86.6052 121.205 86.5592 121.238 86.4965Z" class="pineapple"/>
<path d="M109.192 84.4157C109.195 84.3284 109.202 84.2245 109.168 84.1459L109.065 84.2092C108.964 84.1145 108.793 84.0206 108.672 83.9386C108.731 84.0585 108.812 84.2365 108.796 84.3737L108.677 84.4331C108.706 84.4577 108.735 84.4824 108.764 84.507C108.485 85.7438 108.989 87.1685 109.22 85.1801C109.696 85.9111 109.465 86.5075 109.306 87.2445C109.358 87.028 109.848 86.5995 109.809 86.0264C109.779 85.42 109.475 84.9242 109.192 84.4157Z" class="pineapple"/>
<path d="M101.098 94.2075C101.789 93.3865 101.376 92.3889 100.796 91.6506C100.748 91.4806 100.705 91.2941 100.678 91.1115L100.43 91.2634C100.393 91.2014 100.334 91.1521 100.296 91.0901C100.313 91.1648 100.331 91.2394 100.327 91.3267L100.1 91.466C100.18 91.5733 100.281 91.6679 100.381 91.7625C100.41 92.157 100.421 94.6793 100.791 94.6799C101.031 94.632 101.121 94.4774 101.057 94.2328C101.077 94.2201 101.094 94.2241 101.098 94.2075Z" class="pineapple"/>
<path d="M104.563 69.3501C104.33 69.2941 104.296 69.2154 104.473 69.1348C104.24 68.6383 103.732 68.0406 103.325 67.6787C103.299 67.5668 103.277 67.4382 103.272 67.3136L103.049 67.4362C102.99 67.3869 102.935 67.3209 102.898 67.2589C102.894 67.3462 102.907 67.4375 102.925 67.5121L102.739 67.6261C102.764 67.6674 102.806 67.7127 102.836 67.7374C102.865 67.762 102.894 67.7867 102.923 67.8113C102.915 68.2145 102.873 70.8827 103.301 70.862C103.833 70.8487 103.447 68.7123 103.435 68.2512C104.002 68.9689 104.424 69.6339 104.922 70.4229C104.943 70.4809 104.635 69.5613 104.563 69.3501Z" class="pineapple"/>
<path d="M112.635 93.5584C112.618 93.4838 112.613 93.4298 112.596 93.3552L112.447 93.4604C112.368 93.4238 112.293 93.3705 112.21 93.3505C112.223 93.4418 112.24 93.5164 112.254 93.6077L112.105 93.713C112.151 93.7416 112.218 93.7576 112.264 93.7863C112.272 94.2641 111.609 97.5407 111.834 97.63C112.568 97.8765 112.614 94.3814 112.627 93.9616C112.794 94.0722 112.978 94.1868 113.149 94.2808C113.655 94.596 114.228 95.4383 114.145 95.9294C114.355 94.8346 113.541 93.9696 112.635 93.5584Z" class="pineapple"/>
<path d="M125.426 94.0035L125.479 93.9282C125.405 93.9455 125.33 93.9628 125.239 93.9761L125.129 93.7736C125.076 93.8489 125.018 93.9408 124.965 94.0161C124.317 94.0721 120.961 96.0152 121.95 96.4463C122.063 96.491 124.036 94.6565 124.666 94.4553C124.289 94.999 123.601 96.1025 123.545 96.7762C123.485 97.4666 124.524 97.4693 124.42 97.0215C124.411 96.9842 123.493 97.5039 123.727 96.6789C123.952 95.8873 124.671 95.0203 125.147 94.3593C125.238 94.346 125.333 94.316 125.441 94.3067L125.327 94.1208C125.352 94.0914 125.397 94.0494 125.426 94.0035Z" class="pineapple"/>
<path d="M129.375 89.8064C129.978 89.3519 132.261 88.7196 133.193 89.2427C132.442 89.362 131.759 89.6385 131.064 89.965C131.111 90.0643 131.137 90.1763 131.125 90.2969C130.996 90.2483 130.846 90.2123 130.717 90.1636C130.531 90.2776 129.788 90.804 130.073 91.0839C130.291 91.2771 131.921 90.065 132.231 89.9457C132.894 89.6819 133.616 89.538 134.326 89.5146C132.876 88.2152 130.799 88.7209 129.375 89.8064Z" class="pineapple"/>
<path d="M125.139 81.9885C125.114 82.0178 125.09 82.0472 125.065 82.0765C125.09 82.0472 125.114 82.0178 125.139 81.9885Z" class="pineapple"/>
<path d="M125.139 81.9883C125.826 81.2546 127.983 80.8561 128.997 81.3286C128.852 81.4173 128.728 81.4932 128.571 81.5612C128.22 81.7764 125.686 83.2297 126.01 83.6422C126.267 83.9681 129.266 81.6045 129.778 81.3047C128.428 80.4697 126.203 80.7108 125.139 81.9883Z" class="pineapple"/>
<path d="M132.606 76.4163L132.93 76.3883L132.649 76.0918C132.542 76.1717 132.53 76.2924 132.606 76.4163Z" class="pineapple"/>
<path d="M127.996 103.853C127.938 103.874 127.863 103.891 127.809 103.896L127.687 103.673C127.613 103.761 127.56 103.836 127.502 103.928C126.967 104.029 124.784 104.756 125.07 105.547C125.164 105.816 126.786 104.637 127.15 104.442C126.856 105.006 126.445 105.982 126.464 106.639C126.472 106.165 127.298 104.778 127.688 104.255C127.796 104.245 127.904 104.236 128.016 104.21L127.889 104.003C127.918 103.957 127.947 103.911 127.996 103.853Z" class="pineapple"/>
<path d="M117.526 101.886C117.451 101.903 117.38 101.904 117.306 101.921L117.192 101.735C117.151 101.831 117.098 101.906 117.045 101.981C116.705 102.076 113.066 103.07 113.762 103.766C113.9 103.923 116.314 102.529 116.766 102.408C116.423 103.03 115.92 103.879 115.756 104.562C115.848 104.179 116.787 102.836 117.193 102.317C117.305 102.291 117.417 102.265 117.529 102.239L117.415 102.053C117.427 102.003 117.476 101.944 117.526 101.886Z" class="pineapple"/>
<path d="M104.861 98.3523C104.86 98.2816 104.88 98.1983 104.896 98.1317L104.698 98.225C104.639 98.1757 104.58 98.1264 104.526 98.0604C104.506 98.1437 104.502 98.231 104.478 98.3309L104.321 98.3989C104.363 98.4442 104.392 98.4689 104.438 98.4975C104.33 98.8767 103.673 101.468 104.093 101.551C104.547 101.642 104.812 99.2919 104.812 98.8514C105.291 99.4245 105.469 100.665 105.341 101.198C105.389 100.998 105.474 100.79 105.509 100.569C105.639 99.8077 105.427 98.9287 104.861 98.3523Z" class="pineapple"/>
<path d="M94.1814 100.123C94.0429 99.5264 94.2508 98.6601 93.4711 97.9444C93.4745 97.8571 93.4738 97.7864 93.4605 97.6952L93.2952 97.7964C93.2366 97.7471 93.1613 97.6938 93.082 97.6572C93.0953 97.7485 93.1126 97.8231 93.0926 97.9064L92.9314 97.991L93.0233 98.0483C93.04 98.0523 93.0527 98.073 93.0693 98.077C93.0307 98.3848 92.6621 101.168 93.1139 101.048C93.607 100.902 93.4265 98.938 93.4298 98.4102C93.9876 98.9493 94.0169 99.4144 94.1814 100.123Z" class="pineapple"/>
<path d="M85.5189 91.8773C85.5389 91.794 85.5422 91.7067 85.5289 91.6154L85.347 91.7127C85.2843 91.68 85.2257 91.6307 85.1671 91.5814C85.1677 91.652 85.1644 91.7393 85.1651 91.81L84.9831 91.9073C85.0418 91.9566 85.0878 91.9852 85.1464 92.0345C85.0884 92.4963 85.3203 94.173 85.904 94.3836C86.571 94.6141 85.6395 92.7696 85.6288 92.5204C86.0407 93.0068 86.044 93.36 86.2365 93.9524C86.2965 94.143 86.3145 93.4073 86.3145 93.4073C86.1966 92.7976 85.9094 92.3058 85.5189 91.8773Z" class="pineapple"/>
<path d="M82.4803 101.596C82.3371 101.386 82.1912 100.452 81.8713 100.023C81.8067 99.7782 81.7047 99.5423 81.6607 99.2851L81.4088 99.4537C81.3669 99.4084 81.3249 99.363 81.2829 99.3177C81.3042 99.3757 81.3255 99.4337 81.3262 99.5043L81.095 99.6602C81.1496 99.7262 81.2249 99.7795 81.2836 99.8288C81.3622 99.7949 81.4368 99.7775 81.5155 99.7436C81.5041 99.8642 81.4888 100.001 81.4608 100.118C81.5854 100.553 81.1956 101.517 81.4981 101.871C82.1031 102.58 81.9399 100.691 81.9219 100.546C82.2158 100.863 82.2611 101.262 82.4803 101.596Z" class="pineapple"/>
<path d="M84.0843 109.082C83.8944 108.772 83.8278 107.875 83.378 107.327C83.3393 107.194 83.3173 107.066 83.316 106.924L83.0928 107.047C83.0381 106.981 83.0001 106.919 82.9455 106.853C82.9422 106.94 82.9555 107.032 82.9522 107.119L82.7702 107.216C82.7996 107.241 82.8082 107.278 82.8375 107.303C82.8835 107.331 82.9088 107.373 82.9548 107.401C83.3286 108.266 83.7511 110.323 83.4333 107.904C83.7738 108.32 83.8311 108.669 84.0843 109.082Z" class="pineapple"/>
<path d="M88.9613 104.914C88.7987 104.417 88.5741 103.957 88.2956 103.503C88.2863 103.395 88.285 103.254 88.3089 103.154L88.081 103.222C88.0471 103.144 87.9964 103.061 87.9624 102.983C87.9424 103.066 87.9311 103.186 87.8905 103.282L87.7205 103.33C87.7505 103.425 87.8012 103.508 87.8725 103.578C88.1616 104.722 88.836 106.17 88.3229 104.197C88.5341 104.565 88.7594 105.094 88.9953 105.433C89.1299 105.606 88.9566 104.86 88.9613 104.914Z" class="pineapple"/>
<path d="M97.5238 106.018C97.5065 105.943 97.4932 105.852 97.4758 105.777L97.3479 105.87C97.2559 105.812 97.1846 105.742 97.0967 105.668C97.102 105.793 97.1033 105.934 97.1087 106.059L97.0427 106.113C97.076 106.121 97.1053 106.146 97.1347 106.171C97.2459 106.515 97.2439 108.946 97.8203 108.82C98.3054 108.707 97.6697 106.951 97.6324 106.519C97.7244 106.577 97.8163 106.634 97.9083 106.691C98.5274 107.122 99.281 108.166 99.5016 108.642C98.9838 107.496 98.5574 106.777 97.5238 106.018Z" class="pineapple"/>
<path d="M109.273 108.45C109.327 108.445 109.364 108.437 109.422 108.415L109.325 108.304C109.358 108.241 109.378 108.158 109.394 108.092L109.406 108.042C109.331 108.059 109.236 108.089 109.145 108.102L109.035 107.97L108.983 108.116C108.364 108.197 105.478 110.165 106.445 110.467C106.558 110.512 108.294 108.709 108.87 108.512C108.725 108.97 107.956 111.587 109.073 111.485C108.279 111.489 109.123 108.855 109.273 108.45Z" class="pineapple"/>
<path d="M109.11 111.477C109.18 111.476 109.255 111.459 109.355 111.412C109.255 111.459 109.18 111.476 109.11 111.477Z" class="pineapple"/>
<path d="M120.38 110.112C120.904 109.762 122.004 110.026 122.136 110.868C122.053 110.848 121.949 110.841 121.866 110.821C121.508 110.77 116.864 110.959 117.571 111.904C117.533 111.842 121.744 111.109 122.376 111.19C122.664 109.99 121.301 109.505 120.38 110.112Z" class="pineapple"/>
<path d="M121.28 115.314C119.759 116.658 119.302 117.535 117.524 116.28C116.32 115.427 115.73 113.7 114.484 112.872C112.489 111.565 112.761 113.075 114.197 114.142C114.135 114.18 114.089 114.222 114.027 114.26C113.919 114.27 113.799 114.258 113.703 114.288C113.426 114.345 110.26 116.228 111.418 116.541C111.468 116.553 113.226 114.808 113.732 114.683C113.348 115.33 113.308 116.449 113.8 117.042C113.401 116.577 113.662 115.195 114.131 114.637C114.276 114.619 114.438 114.605 114.583 114.587L114.536 114.418C116.07 115.808 117.472 118.628 119.809 117.551C120.778 117.114 124.687 112.203 124.788 112.297C124.607 112.095 121.684 114.953 121.28 115.314Z" class="pineapple"/>
<path d="M101.162 115.225C101.658 117.123 101.708 114.492 101.506 113.721C102.201 114.276 102.253 114.94 102.322 115.75C102.314 115.713 102.523 114.988 102.458 114.672C102.081 112.573 100.688 113.384 101.162 115.225Z" class="pineapple"/>
<path d="M91.4821 110.487C91.4901 110.454 91.4981 110.421 91.5061 110.387L91.4648 110.413C91.4694 110.466 91.4575 110.516 91.4288 110.562C91.3048 110.638 91.1929 110.664 91.0763 110.636C91.0442 112.532 91.2488 113.074 91.4241 110.949C91.6 111.097 91.7553 111.257 91.8652 111.46C92.0445 111.521 92.0698 111.562 91.9412 111.584C92.1391 111.861 92.3717 112.727 92.373 112.868C92.3504 111.788 92.2044 111.295 91.4821 110.487Z" class="pineapple"/>
<path d="M84.8174 113.293L84.7061 113.389C84.5682 113.303 84.3889 113.243 84.247 113.173C84.3309 113.264 84.4615 113.454 84.4462 113.591L84.3349 113.688C84.3643 113.712 84.4142 113.724 84.4435 113.749C84.5648 114.712 85.2645 115.761 85.0299 114.242C85.1386 114.304 85.2265 114.378 85.2898 114.481C85.717 114.83 85.9495 115.256 86.3394 115.614C86.0335 115.347 85.3531 114.144 84.8454 113.617C84.8734 113.5 84.864 113.392 84.8174 113.293Z" class="pineapple"/>
<path d="M95.9712 119.97C95.9565 121.059 96.7362 121.334 96.4743 120.002C96.2917 120.029 96.1172 120.022 95.9712 119.97Z" class="pineapple"/>
<path d="M97.2336 119.338C96.9104 118.997 96.7205 118.687 96.2947 118.479C96.29 118.425 96.2813 118.387 96.2767 118.333L96.186 118.417C96.1107 118.364 96.0021 118.303 95.9062 118.262C95.8948 118.383 95.8588 118.533 95.8808 118.661L95.8975 118.665C95.9695 118.806 95.9668 118.964 95.9308 119.114C96.0927 119.1 96.226 119.132 96.3719 119.184C96.3586 119.093 96.3579 119.022 96.3613 118.935C97.005 119.336 97.5247 120.254 97.5634 120.827C97.5214 120.341 97.5614 119.734 97.2336 119.338Z" class="pineapple"/>
<path d="M108.673 119.759L108.679 119.513C108.534 119.531 108.418 119.574 108.294 119.65C107.932 119.616 104.049 120.234 105.094 120.943C105.291 121.079 107.145 119.815 107.832 119.962C107.411 120.319 106.847 120.906 106.745 121.481C106.812 121.127 107.772 120.282 108.235 120.041C108.373 120.056 108.527 120.076 108.656 120.124L108.666 119.863C108.72 119.858 108.778 119.837 108.815 119.828C108.769 119.799 108.719 119.787 108.673 119.759Z" class="pineapple"/>
<path d="M92.0244 123.057C91.424 122.402 91.1436 119.973 89.7708 120.26C89.7515 120.855 89.8641 121.78 90.3045 122.221C91.0135 122.937 90.2413 120.796 90.2059 120.576C90.2439 120.638 90.2986 120.704 90.3365 120.766C90.9209 121.488 91.4114 122.381 92.0244 123.057Z" class="pineapple"/>
<path d="M99.3693 124.238C98.7175 124.751 98.7722 125.258 99.5205 124.856C99.905 124.649 100.128 124.015 100.595 123.828C100.624 123.782 100.653 123.807 100.65 123.894C100.891 124.286 100.986 125.578 101.764 125.201C100.853 125.616 101.464 122.556 99.3693 124.238Z" class="pineapple"/>
<path d="M112.692 125.621C112.605 125.618 112.497 125.627 112.414 125.607L112.397 125.603L112.393 125.62C111.865 125.617 108.22 125.535 108.693 126.282C108.781 126.427 111.977 125.961 112.371 125.932C112.334 126.011 112.285 126.07 112.219 126.125C112.17 126.183 111.591 126.538 111.703 126.512C112.048 126.471 112.49 126.243 112.641 125.909L112.712 125.908L112.67 125.863C112.69 125.779 112.689 125.709 112.692 125.621Z" class="pineapple"/>
<path d="M112.692 125.622L112.709 125.626L112.696 125.605L112.692 125.622Z" class="pineapple"/>
<path d="M131.733 65.1595C131.67 65.1269 131.001 64.6138 130.915 64.7517C130.886 64.7977 135.132 71.3316 134.585 71.4822C135.323 71.2717 132.497 65.572 131.733 65.1595Z" class="pineapple"/>
<path d="M135.924 75.5915C135.758 75.6221 135.893 81.0811 135.675 81.8394C135.647 81.9561 135.522 82.3312 135.718 82.3959C136.61 82.7158 136.778 75.4089 135.924 75.5915Z" class="pineapple"/>
<path d="M136.671 84.739C136.542 84.761 136.646 94.089 136.284 93.9843C136.863 94.1409 137.317 88.506 137.273 87.8083C137.283 87.5465 137.06 84.6564 136.671 84.739Z" class="pineapple"/>
<path d="M87.1601 66.3889C86.8563 66.774 84.1906 70.539 85.1975 70.675C84.8897 70.6363 88.9328 64.4357 89.2246 64.9815C88.9328 64.4357 87.3614 66.1376 87.1601 66.3889Z" class="pineapple"/>
<path d="M95.7731 58.6949C95.1887 58.8542 88.2443 62.3145 89.3491 63.1435C88.9766 62.8603 97.3358 57.8367 97.6743 58.4817C97.5657 57.9799 96.0757 58.609 95.7731 58.6949Z" class="pineapple"/>
<path d="M97.6738 58.4821C97.6698 58.499 97.6867 58.5031 97.6826 58.52C97.6867 58.5031 97.6908 58.4861 97.6738 58.4821Z" class="pineapple"/>
<path d="M83.9284 72.1497C83.1774 71.8285 78.2646 84.0751 77.7787 85.4386C77.9207 85.5079 78.0586 85.5938 78.2005 85.6631C78.2978 85.4046 78.4285 85.154 78.5258 84.8955C78.9856 83.8606 84.3289 72.3164 83.9284 72.1497Z" class="pineapple"/>
<path d="M78.2716 96.3751C78.5735 94.4566 77.9345 92.788 77.8665 90.8688C77.8099 89.2695 78.0992 87.7709 78.0805 86.2335C77.9646 86.2762 77.7987 86.3068 77.6161 86.3335C77.6294 86.4248 77.6301 86.4954 77.6641 86.574C78.1591 88.4019 77.5573 91.1294 77.8052 93.1798C77.9264 94.1428 76.842 102.992 78.0022 102.636C77.1819 102.897 78.1736 97.0035 78.2716 96.3751Z" class="pineapple"/>
<path d="M76.5996 97.542C75.9053 97.4987 76.1238 99.5244 76.1171 99.699C76.1951 100.475 77.2931 108.527 78.372 107.922C77.8015 108.243 75.9926 97.502 76.5996 97.542Z" class="pineapple"/>
<path d="M79.0102 105.556C78.2479 104.915 79.0141 108.182 79.376 108.656C79.4686 108.784 79.4793 105.95 79.0102 105.556Z" class="pineapple"/>
<path d="M79.43 117.091C79.0682 116.176 78.1641 109.299 78.1101 109.304C77.0592 109.351 78.3065 115.166 78.5384 115.961C78.9928 117.445 79.7505 118.913 80.7507 120.104C81.0366 120.455 83.8173 123.184 84.1252 122.341C83.9632 122.796 79.7578 117.928 79.43 117.091Z" class="pineapple"/>
<path d="M82.8654 119.59C82.7788 119.657 82.7274 119.944 82.7534 120.056C82.9587 120.669 87.1121 124.873 87.392 124.588C87.4246 124.525 82.9973 119.481 82.8654 119.59Z" class="pineapple"/>
<path d="M89.2287 125.822C89.2514 126.021 89.332 126.199 89.4706 126.356C89.8285 126.406 90.1736 126.436 90.5102 126.429C90.4768 126.421 90.4475 126.396 90.4182 126.372C90.3096 126.31 89.3027 125.734 89.2287 125.822Z" class="pineapple"/>
<path d="M91.5663 126.946C91.2357 127.149 90.4987 126.99 90.1282 126.918C93.5334 129.321 98.5618 130.247 102.639 130.362C102.623 130.358 103.18 130.386 103.532 130.312C101.743 130.499 92.4432 127.404 91.5663 126.946Z" class="pineapple"/>
<path d="M103.545 130.333C103.744 130.31 103.843 130.263 103.851 130.159C103.847 130.247 103.711 130.302 103.545 130.333Z" class="pineapple"/>
<path d="M136.161 95.4522C136.426 95.3749 135.164 100.781 134.94 101.273C134.167 102.955 133.377 104.703 132.611 106.352C131.715 108.251 130.178 109.662 129.47 111.73C128.726 113.877 128.504 115.903 127.079 117.728C126.143 118.912 125.289 120.487 124.214 121.515C122.724 122.955 120.599 124.101 118.919 125.301C117.214 126.53 115.603 128.029 113.797 129.093C113.897 129.046 109.17 130.608 109.586 129.827C108.953 130.926 113.374 130.049 113.569 129.972C115.799 128.975 117.812 126.903 119.747 125.447C123.287 122.808 126.452 120.414 128.443 116.452C129.389 114.564 129.334 112.296 130.364 110.429C130.891 109.481 131.862 108.886 132.377 107.987C132.9 107.056 132.95 106.116 133.34 105.153C134.115 103.242 135.517 101.658 136.138 99.6577C136.13 99.691 136.986 95.2449 136.161 95.4522Z" class="pineapple"/>
<path d="M140.522 82.7892C137.727 80.8196 135.176 79.4579 127.068 77.8279C120.433 76.5246 115.077 77.5308 110.348 76.1961C105.683 74.8782 101.433 72.5187 95.2539 70.524C88.8217 68.4614 83.8718 68.966 80.951 69.7431C77.9669 70.5033 79.5372 73.5009 80.1224 74.6071C80.7075 75.7133 80.6258 80.574 82.8263 85.775C85.1952 91.3601 91.1257 93.017 96.6282 92.7282C102.148 92.3762 106.263 83.8494 107.257 82.4202C108.267 80.9278 108.811 80.6668 109.651 80.8239C110.571 80.9347 111.085 81.5472 111.247 83.2183C111.376 85.0159 111.263 94.5475 116.095 97.2663C120.928 99.9852 126.964 100.992 131.56 97.0022C135.801 93.3237 137.861 88.9253 138.874 88.1796C139.922 87.3075 143.035 84.5475 140.522 82.7892Z" class="frames"/>
<path opacity="0.4" d="M136.452 85.8349C135.715 88.0788 132.335 95.3786 127.527 96.8707C122.719 98.3629 116.596 95.9083 114.938 91.4632C113.63 87.9933 114.045 83.1541 114.233 81.4412C114.523 79.3487 115.257 79.1387 117.227 79.1241C120.835 79.0736 129.146 79.9443 133.486 81.7175C137.164 83.1776 136.973 84.1436 136.452 85.8349Z" class="lens"/>
<path opacity="0.4" d="M83.4109 73.7251C83.1339 76.0243 82.9344 84.1085 86.6265 87.5391C90.3186 90.9697 96.8413 91.429 100.36 88.1674C103.072 85.639 104.833 81.0925 105.337 79.4644C105.942 77.4567 105.458 76.9878 103.598 76.0826C100.368 74.4711 94.1053 71.7758 87.8526 71.3211C83.9332 71.0168 83.6156 71.9489 83.4109 73.7251Z" class="lens"/>
</svg>
