<svg viewBox="0 0 375 315" xmlns="http://www.w3.org/2000/svg">
<path d="M404.397 -267.896C412.796 -254.912 412.999 -256.015 422.428 -240.88L425.096 -236.337C432.76 -222.142 438.249 -213.339 449.89 -197.912C461.722 -179.064 466.286 -164.533 470.21 -145.558L470.525 -144.034C479.332 -101.456 487.916 -59.9564 483.333 -18.4371C479.5 16.2863 465.678 50.188 455.368 82.687C444.343 117.444 423.166 158.118 395.901 182.699C338.582 234.377 233.993 226.004 153.547 195.943C95.5067 174.255 42.732 138.185 -8.1341 102.592C-46.3905 75.8229 -83.9347 46.6495 -116.548 13.7429C-186.977 -57.3212 -209.394 -151.025 -214.734 -236.433C-219.452 -311.888 -206.244 -380.738 -159.948 -435.925C-119.58 -484.044 -58.1803 -505.72 11.1554 -510.536C51.0861 -513.309 92.1822 -513.271 133.232 -509.849C147.339 -508.673 161.88 -508.086 175.25 -500.727C247.776 -460.81 310.893 -387.093 362.944 -327.154C379.847 -307.689 390.984 -288.628 404.397 -267.896Z" class="layer1"/>
<path d="M316.712 -222.173C327.595 -217.08 327.265 -217.911 339.717 -211.816L343.349 -209.916C354.262 -203.687 361.507 -200.144 375.515 -194.814C391.08 -187.263 400.123 -179.459 410.611 -168.385L411.454 -167.495C434.99 -142.645 457.931 -118.425 472.34 -88.4665C484.39 -63.4117 489.618 -34.5674 496.536 -8.19519C503.935 20.0091 507.229 56.6125 499.836 85.0231C484.294 144.751 412.955 184.583 348.195 199.31C301.472 209.935 252.144 208.584 204.254 206.725C168.235 205.326 131.672 201.999 96.7441 194.013C21.3153 176.767 -32.4508 123.398 -71.669 68.192C-106.317 19.42 -126.573 -32.6972 -119.65 -89.9966C-113.613 -139.958 -82.8643 -181.252 -39.9111 -214.641C-15.1742 -233.869 11.4958 -251.71 39.5524 -267.252C49.1939 -272.593 58.8707 -278.519 70.6229 -279.376C134.372 -284.02 206.169 -261.808 265.02 -244.066C284.131 -238.304 299.334 -230.307 316.712 -222.173Z" class="layer2"/>
<path d="M89.9044 -309.814C94.5913 -304.323 95.832 -296.799 95.3677 -288.828C108.398 -283.361 130.374 -290.039 141.342 -296.076C167.182 -310.298 176.343 -331.878 188.957 -356.484C201.224 -380.416 197.135 -409.861 213.393 -432.338C254.936 -489.769 356.559 -467.768 409.401 -446.576C491.412 -413.686 553.302 -340.231 561.816 -251.145C570.368 -161.665 510.899 -88.843 442.867 -39.259C359.392 21.5799 256.239 37.5216 156.386 12.3462C99.45 -2.00891 37.7575 -25.3842 -0.317805 -72.3426C-53.9852 -138.531 -3.10965 -217.306 43.8721 -271.507C48.2846 -276.597 81.6874 -319.442 89.9044 -309.814Z" class="layer3"/>
</svg>
