<svg xmlns="http://www.w3.org/2000/svg" viewBox="0 0 375 474" xmlns:v="https://vecta.io/nano">
  <path class="bkg"
    d="M99.5 397.8c-10.4-1.9-10-1.4-22-3.8l-3.5-.8c-10.6-2.8-17.6-4.2-30.9-5.7-15-3-24.2-7.2-35.1-13.7l-.9-.5c-24.6-14.5-48.5-28.7-65.7-48.6-14.4-16.7-23.3-37.4-33.3-55.9-10.7-19.8-19-46.6-16.5-69.2C-103.3 152.2-45.5 110 10 87.8c40.1-16 84.2-23.6 127.1-30.5 32.3-5.2 65.3-9 97.6-9.1 69.7-.2 125.4 30.4 168.3 65 38 30.5 63.6 66 65.8 110.1 1.9 38.4-19.5 74.7-52.9 107.1-19.2 18.7-40.4 36.6-63.1 53.1-7.8 5.7-15.6 11.8-25.9 14.5-56.1 14.5-123.3 10.4-178.3 7.3-17.8-1.1-32.5-4.5-49.1-7.5z"/>
  <path class="blob1"
    d="M370.3 131.6c5.2 2.9 9.8 6.3 13.9 10.8.2.4.5.8.5 1 .8 1 1 1 1.6 1.8a17.61 17.61 0 0 1 1.4 2.3c.5 1 .6 1.9.9 3 .7 2.6 1.9 4.6 3.3 7 1.1 1.9 2.7 3.2 4.6 4.3 1.7 1 3.9 1.2 5.4 2.5 9 7.4 12.3 19.2 15.4 29.9 2.6 8.8 2.9 18 .2 26.9-1.8 6-7.2 10.7-11.8 14.6-5.8 4.8-12.5 7.6-19.9 9.2-5.8 1.3-11.6 1.6-17.6 1.4-7.4-.2-14.9-.8-22.2-2.3-13.3-2.8-25.2-9.3-35.3-18.3-8.3-7.4-14.5-15.7-14.6-27.2-.1-13.6 4.4-28.6 12.6-39.4 7-9.3 16.9-16.9 26.5-23.3 5.5-3.6 12.2-8.6 19.1-9 5.7-.4 11.1 2 16 4.8z"/>
  <path class="blob2"
    d="M349.9 97.2l-5.5 2.9-.9.5c-2.6 1.7-4.4 2.7-7.7 4.2-3.7 2.1-5.9 4.3-8.4 7.4l-.2.2c-5.6 7-11.2 13.7-14.6 22.1-2.9 7-4.1 15.1-5.8 22.5-1.8 7.9-2.6 18.1-.8 26.1 3.7 16.7 20.8 27.9 36.4 32 11.2 3 23 2.6 34.5 2.1 8.6-.4 17.4-1.3 25.8-3.6 18.1-4.8 31-19.8 40.4-35.2 8.3-13.7 13.2-28.2 11.5-44.3-1.4-14-8.8-25.5-19.1-34.9-5.9-5.4-12.3-10.4-19.1-14.7-2.3-1.5-4.6-3.2-7.5-3.4-15.3-1.3-32.5 4.9-46.6 9.9-4.5 1.7-8.2 3.9-12.4 6.2z"/>
  <path class="bulb"
    d="M320.2 180.9c2.5-.8 4.9-1.7 7.1-3 .9-.5 1.7-1.1 2.5-1.7 1.4-1.1 4.2-2.3 5.2-.2 1.6 3.3-3.4 5.6-5.8 6.5-1.4.5-3.1 1.1-4.6 1-1.9-.1-3.1-1.3-4.2-2.8-.3-.3-1.3.2-1.1.5 2.3 3.2 5 3.4 8.6 2.3 2.7-.8 7.2-2.6 8.3-5.5 1-2.6-1.5-4.8-4-4.1-1.7.5-3 1.9-4.4 2.9-2.3 1.6-4.9 2.6-7.6 3.4-.5.3-.7 1 0 .7z"/>
  <path class="bulb"
    d="M319.6 181.7c1.1.8.9 3.3 1.5 4.6.7 1.5 1.9 2.9 3.4 3.5 1.4.5 2.9.3 4.4 0 1.7-.4 3.7-.5 5.3-1.3 2.1-1.1 3.4-3.9 3.5-6.2 0-1.4.2-5.1-1.8-5.3-.4 0-1.2.7-.6.8 1.5.1 1.3 4.3 1.3 5.2-.1 1-.3 1.8-.8 2.7-1.1 2.1-2.8 2.5-5 3-3.2.7-6 1.2-8.1-1.9-.8-1.2-1-2.3-1.3-3.7-.1-.8-.3-1.5-.9-2-.3-.3-1.3.4-.9.6z"/>
  <path class="bulb"
    d="M320.1 183l1.4 6.3c.3 1.4.8 3.1 1.8 4 .9.8 2.7 1.1 3.8 1.4 1.6.5 2.8.2 4.4-.2 2.7-.6 5.4-1.6 6.7-4.4.6-1.3.5-2.6.3-4-.2-1.1-.2-2.6-1.1-3.3-.3-.2-1.3.4-1 .7 1.3 1 1.5 4.9 1 6.4-1.1 3.2-6.3 5-9.5 4.1-.9-.3-1.8-.5-2.7-.8-1.2-.5-1.8-1.8-2.3-3-.9-2.5-1.2-5.2-1.8-7.8 0-.3-1 .1-1 .6z"/>
  <path class="bulb"
    d="M324.4 194.1c1.1 4.5 4.9 6.5 9.4 5.1 1.5-.5 3.3-2.1 4-3.4.9-1.5.3-3.3-.1-4.9-.1-.3-1.2.1-1.1.5.3 1.2.8 2.8.4 4-.6 1.9-3.1 3.2-4.9 3.4-3.6.3-5.8-2-6.6-5.3-.1-.3-1.2.2-1.1.6zm-2.6-14c-.4-2-.9-4-2.8-5.1-2.5-1.6-5.5-2.1-8-3.9l-6.1-4.3c-2.6-1.8-5.3-3.3-7.6-5.5-7.7-7.4-13.5-21-7.3-31.1 3.4-5.5 8.4-10.2 14.5-12.5 2.9-1.1 6-2 9.1-2 3.1.1 6 .9 8.8 2.1 5.2 2.2 9.6 5.4 12.7 10.1 2.8 4.3 4.3 9.5 4.3 14.6-.1 3.5-.6 7-1.4 10.4-.4 1.5-.6 2.8-1.4 4.2-.5.9-1 1.9-1.5 2.9-1.1 2.3-3.1 4.4-3.4 7-.3 2.5.3 4.9.8 7.3.1.4 1.2-.1 1.1-.5-.6-2.7-1.4-5.8-.4-8.5.9-2.4 2.5-4.7 3.7-6.9.5-1.1 1.3-2 1.7-3.2s.6-2.6.8-3.8c.6-3 1-6.1 1.1-9.2.1-5.2-1.5-10.6-4.5-15-1.5-2.1-3.4-4.1-5.3-5.8-2.3-2.1-5.2-3.3-8.1-4.5-5-2.1-9.9-2.4-15-.9-5.8 1.7-10.5 4.5-14.6 8.9-3.8 4.2-6.2 8.7-6.6 14.5-.3 5.4 1.9 11.6 4.6 16.2 1.7 2.8 3.9 5.2 6.4 7.3 2.6 2.3 5.9 4.1 8.8 6.1 2.4 1.7 4.9 3.6 7.6 4.7 1.7.7 4.2 1.3 5.4 2.8.9 1.1 1.2 2.6 1.5 4 .1.5 1.2.1 1.1-.4zm-17.7-69.9c-.4-2.7-.4-5.3-1-7.9l-2-9.1c-.1-.3-1.2.1-1.1.5l1.8 8.4c.6 2.8.7 5.6 1.1 8.5.2.5 1.3 0 1.2-.4zm20.2-3c-.5-1.8 1.1-4.9 1.6-6.7l1.4-5c.4-1.3.5-3 1-4.3-.4.1-.7.2-1.1.4 0 .1.1.1.1.2.2.4 1.3-.2 1.1-.5 0-.1-.1-.1-.1-.2-.2-.4-.9.1-1.1.4-.6 1.4-.7 3.1-1.1 4.6l-1.8 6.2c-.5 1.7-1.7 3.8-1.2 5.5.3.3 1.3-.1 1.2-.6zm20.5 15.8c.9-.2 1.5-.7 2.2-1.3l4-3.8c1.7-1.4 3.5-2.7 5.3-3.9 1.3-.9 3-1.5 4.2-2.6.5-.6-.5-.5-.8-.2-1 1-2.7 1.6-3.9 2.4a31.88 31.88 0 0 0-4.2 3l-3.5 2.9c-.8.8-1.8 2.4-2.9 2.7-.5.2-1.1 1-.4.8zm8.9 30.6c0 .1-.1.2-.1.3-.1.2.1.3.2.3 2.6 0 5.3-1.2 7.7-2 1.6-.6 3.3-1 4.9-1.5 1.5-.4 3-1.2 4.5-1.6.4-.1 1.1-.9.3-.7-1.2.3-2.2.9-3.4 1.3l-4.6 1.3-4.2 1.4c-.1 0-4.3 1.1-4.3 1 .2-.5-.9-.1-1 .2zm-55.5 22.3c.3-.1.6-.1.9-.2.1-.2.1-.5.2-.7-3.6 1.1-6.6 3.8-10.1 5.1-1.8.7-3.7 1.2-5.5 1.8-.8.3-1.2.4-1.7 1-.4.5.7.3.9 0 .5-.6 3.2-1.1 3.9-1.4 1.5-.5 3-1 4.4-1.6 2.8-1.2 5.2-3.4 8.1-4.3.4-.1.9-.9.2-.7-.3.1-.6.1-.9.2-.6.1-1.2.9-.4.8zm-21.7-19.6c-.6-1-1.7-1.1-2.8-1.1-1.9 0-3.7.1-5.6-.1a34.93 34.93 0 0 1-14.2-4.2c-.3-.1-1.3.2-1 .6.1.1.1.2.2.3.2.4 1.3-.2 1.1-.5-.1-.1-.1-.2-.2-.3l-1 .6c3.6 2 7.5 3.5 11.7 4 2 .3 4 .5 6.1.5 1.4 0 3.9-.6 4.7.8.1.3 1.2-.2 1-.6zm6.8-35.6c-2.3-.3-4.2-1.7-5.9-3.1l-6.1-5.3c-1.7-1.6-4-4.5-6.7-3.7-.5.2-.8.9 0 .7 1.5-.5 3.3 1.4 4.2 2.2l3.9 3.6c2.8 2.5 6 5.8 9.9 6.3.3.1 1.2-.6.7-.7zm-14.9 12.2c.9.9 2.6.8 3.8.8 1.6 0 3.5.3 5.1 0 .4-.1 1.1-.9.3-.7-1.3.3-3 0-4.4 0-1.2 0-2.9.2-3.8-.7-.3-.4-1.3.2-1 .6zm20.8-23.6c.9 1.8 2.1 3.5 3.3 5.1.3.4 1.3-.2 1.1-.5-1.2-1.7-2.4-3.3-3.3-5.1-.2-.4-1.2.1-1.1.5zm25.1-7.3l.3 2.9c0 .9 0 1.7.2 2.5.1.4 1.2-.1 1.1-.5-.2-.9-.1-1.9-.2-2.8l-.2-2.5c-.1-.5-1.2 0-1.2.4zm20.3 12.3c.6-1.3 1.3-2.5 2.1-3.6.6-1 1.2-2.3 2.1-3.2-.3.1-.6.1-.9.2 0 .1.1.2.1.2.2.4 1.2-.2 1.1-.5 0-.1-.1-.2-.1-.2-.1-.3-.8 0-.9.2-.9 1-1.5 2.2-2.2 3.4-.8 1.2-1.5 2.5-2.2 3.8-.4.4.7.1.9-.3zm8.3 26.3c1.2.4 2.4-.4 3.5-.8l3.2-1.2c1.4-.5 2.7-1.4 4.1-1.7.4-.1 1.1-.9.3-.7-2 .4-3.8 1.6-5.7 2.3-1.2.4-3.4 1.8-4.6 1.5-.4-.3-1.3.4-.8.6zm-54 24.1c0-1.7-2.3-.4-3 .1-1.6 1-5 4.5-6.9 3.4-.3-.2-1.3.4-1 .7 1.6 1 3.8-.5 5.1-1.4.8-.5 4.6-3.5 4.6-2.3.1.3 1.2-.1 1.2-.5zm9.8-25.8c-6 1.4-2.4 8.8-.6 12.4 1.3 2.8 3 5.4 5.2 7.7 1.1 1.2 3 3.3 4.9 3.1 4.7-.5-3.1-8.8-4-10.1-.8-1.2-1.8-2.5-2.2-3.8-.5-1.5-.7-3.2-1.1-4.7-.3-1.2-.3-4.8-2.2-4.4-.4.1-1.1.9-.3.7 1-.2 2.5 9 3.1 10.1.9 1.7 2.1 3.2 3.3 4.8 1.2 1.5 2.9 3.2 3.6 5 .3.8.6 1.2-.3 1.3-.7.1-1-.2-1.5-.6-.8-.6-1.5-1.2-2.1-1.9-1.4-1.5-2.8-3.3-3.8-5-1.1-1.8-1.9-3.8-2.6-5.7-.7-2.2-3.3-7.2.5-8.1.2-.2.8-1 .1-.8z"/>
  <path class="paint"
    d="M54.6 112.6c-.6-.5-1.4-.7-2.1-.1-.7-.8-1.8-.8-2.7-.7-.3.1-.6-.1-.8-.2-.7-.3-1.4-.2-2.1-.1-1 .2-2.1.3-3.2 0l-.2-.1c-1.1.1-2.3-.2-3.7 0-.9 0-1.8 0-2.5-.1-.8-.2-1.7-.1-2.5.1-1.5.4-3 .3-4.4-.4-.4-.2-.8-.2-1.1-.1-.4 0-.8-.2-1.3-.4.1-.2.1-.6.2-.8.7-.5 1.8 0 2.6-.9-.2-.1-.3-.3-.3-.3-.4-.2-.8-.2-1.1-.1-.8.3-1.6.1-2.4-.1-.2-.5.1-.6.3-.5 1.1.1 2.2-.5 3.3-.1s2.5.3 3.6.2c1.1.1 2.3.2 3.4.1.2.1.4.2.6.1-.9.5-2 .6-3.3.1-.3.1-.5.2-.9.5.1.3 0 .4.1.7s.3.3.4.4c.4.2.8.2 1.3 0 .3-.3.7-.1 1.1.1s.8.2 1.3 0c.8-.3 1.5-.4 2.3-.2.9 0 1-.2 1.1-1l.1-.2c.5-.2 1.1-.1 1.7-.3.3-.1.5.3.9.4-.3.1-.3.3-.6.4-.3.3-.3.3-.2.8.4 0 .8-.3 1.2-.3s.9.4 1.3 0c-.2-.5-.5-.9-.5-1.3.3-.1.4-.4.7-.5.3-.3.7-.5 1.3-.5.4 0 .9 0 1.3.4.9.4 1.3.4 1.9-.4.1-.2.2-.4.5-.2.4.2.6.1.9 0 .5-.2 1-.2 1.2.2.7.3 1.3.4 2 .3 1-.2 2-.1 2.9-.1.4 0 1-.2 1.7-.3.4 0 1.1.1 1.5.1.8.2 1.6-.1 2.4.1.2.1.4 0 .7-.1 1-.4 1.8-.6 3-.3.2.1.2.1.4 0 .9-.5 1.8 0 2.7-.2 1-.2 1.8-.2 2.6-.5.4 0 1-.2 1.6-.1h2.6c.3-.1.6.1.7-.1 1.1-.5 2.4-.6 3.8-.6 1-.2 1.9-.4 2.9-.1 1-.4 2.1-.3 3.1-.5l4-.7c.7-.1 1.3 0 1.9.1h1.3c.7-.1 1.2-.3 1.9.1.4.2.9 0 1.2.2.5-.2.9-.5 1.2-.7.5-.2.9 0 1.4-.2 1-.4 2.1-.3 3.1-.5 1.2-.3 2.3-.2 3.4-.3.2-.4.5-.6.7-1 .3.3.4.6.8.6.3-.1.4 0 .5-.2.3-.1.4-.4.5-.6.7-.1 1.3 0 2.2 0 .2.1.3.3.4.6.3-.1.6-.4.9-.5.7-.5 1.6-.6 2.4-.4-.1.2 0 .4-.1.6l-.2-.1c.1-.2 0-.4.1-.6s.2-.4.1-.6c.7-.1 1.6-.1 2.3-.2 1.1-.1 2.3-.2 3.5-.5 1-.2 2-.1 3.1-.5.7-.1 1.6-.1 2.3-.2s1.4-.2 2.2-.5 1.4-.2 2.1-.3 1.5.1 2.1-.3l.3-.1c.7.3 1.1-.1 1.6-.6.3-.3.8-.3 1.1-.1.5.3 1 .2 1.5.1.3-.1.4 0 .7-.1.6.1 1.2.2 1.8 0 1.8-.6 3.8-.6 5.5-1 .3-.1.7-.1 1.1-.1 1.1.1 1.9.1 2.7-.2 1-.4 2.3-.2 3.2-.8.1-.2.3-.1.4 0 1.2.2 2.4-.4 3.5-.9.1-.2-.1-.3-.3-.3-.6-.1-1.1-.3-1.8-.4.1-.2 0-.4 0-.4.3-.3.7-.1 1-.4s.6-.4 1-.6c.1-.2-.1-.3 0-.4.4 0 .9 0 1.2.2.4 0 .8.2 1.2.2l-.2.4c-.3.1-.5.2-.6.4-.3.3-.6.4-.9.9l.2.1c.7-.1 1.3 0 1.8.2.2.1.6.1.7-.1.6-.4 1.2-.3 1.9-.4.4 0 .7-.1 1-.6-.4-.6-1.2-.6-1.9-.9.6-.4 1-.8 1.7-.9.4 0 1-.4 1.6-.6.3-.1.3-.3.3-.5-.1-.3-.3-.3-.4-.4-.4-.2-.6-.1-.9 0h-1.3c.1-.2.2-.4 0-.4.4 0 .7-.1 1.1.1 1 .2 1.7-.3 2.4-.4.3-.1.7-.5 1-.6.2.5.5.7 1.1.9-.1.2-.2.4-.3.3-.5.2-1 .2-1.2.3-.3.1-.3.3-.6.4.2.5.5.7 1.1.5.4 0 1.1-.1 1.7-.3.7-.1 1.1-.1 1.9.1.1.3-.2.4-.3.3-1.1.1-2.2.5-3.3 1 .1.3.2.5.2.5 1 .2 1.8.2 2.7.2 1.6-.1 3.1-.5 4.7-.8.3-.1.5-.2.7-.1.9.4 1.3 0 1.9-.4.1-.2.3-.1.3-.3.4-.4.9-.5 1.3-.5s.8-.3.9-.9l3.8-1c0-.4-.2-.5-.4-.4-.2-.1-.4 0-.7.1-.5.2-1.1-.1-1.4-.2.3-.1.4-.4.9-.5l3.1-.5c.3-.1.4 0 .4 0 .2.5-.3.7-.3 1.1.1.3.4.6.5.9.7.3 1.3 0 2-.1 0 0 .2.1.3.3.4.2.5.3.9 0 .5-.6 1.1-.5 1.9-.4 1.2.2 2.5-.3 3.7-.4l.2.1c.8-.7 2.1-.7 3.1-1.1.3-.1.3-.3.5-1.1-.7.1-1.2-.2-2 .1s-1.5.4-2.2 0c-.2-.1-.6-.1-.9 0-.7.1-1.2.3-1.7.5-.4 0-.4 0-1.1-.3.3-.1.3-.3.6-.4.9 0 1.7-.3 2.4-.4.3-.1.4 0 .7-.1.8.2 1.5.1 2.2-.5.3-.3.8-.3 1.1-.1.3-.1.6.1.9 0 .7-.1 1.3 0 1.8.2.2.5-.2.8-.2 1.4.4.2.8.6 1.3.9l1.2.6c0 .4-.3.5-.5.6-.3.1-.3.3-.3.5 0 .4.3.3.7.3l.2.1c-.3.3-.7.5-.9.9.2.5.4.6.9.4.7-.1 1.2.2 1.8.4.4.2.5.7 0 .9s-.4.4-.2 1c.1.3.2.5.4.6-.2 1-1.1 1-1.9 1.3-.1.2-.2.4-.1.6.4.2.5.3.8.6.2.1.2.1.4 0l.6 1.6c.9 0 .9 0 1.1-.5.4 0 .8-.3 1.2-.3.5-.2 1-.2 1.4.2.4.2.8.2 1 .2.6.1 1.1.1 1.7.1.1.3.4.6.6 1 .3.8.3.8.8.6.9 0 1.8-.2 2.7.2.2.1.2.1.5.3-.7.1-1.1.1-1.6.1-.7.1-1.3 0-2 .6-.3.3-.5.6-.2 1 .3.3.4 1 .9 1.3l.2.1c.3.8.7 1.2 1.4 1.1.6.1 1.1.3 1.9.1.5-.2 1-.2 1.5.1.2.5.2 1.4.6 1.8.2.1-.1.6-.1 1.1.7.3.8 1 1.2 1.6.1.3.3.3.7.3.2-.4-.5-.9-.2-1.4s.4-.9.7-1.4c.8.2 1.5-.4 2.4.1.2.1.6.1.7.3.4.4.8.6 1.4.7.4.2.6.1.9 0 .7-.5 1.4-.6 2.2-.5 1 .2 1.8 0 2.4-.6l2.6.6c.4.2.8.2 1-.2.7-.5 1.4-.6 2.1-.7-.3.3-.5.6-.9.9-.1 1.1-.1 1.1-1 1.7-.7-.3-1.5-.1-2.3.2-.5.2-1 .2-1.6.1-.7-.3-1.3 0-2 .1-.3.1-.4.4-.3.7s.4.6.5.9c-.1.2-.2.4-.3.3-.4-.4-.8-.6-1.2-1H225c-.6-.1-1.1.1-1.2.7l-.2.4c-.4 0-.7.1-1.1.1s-.6-.1-1.1-.1c-.4.4-.8.7-1.4 1.1.5.9 1.2 1 1.8 1.7.6.5 1.4.7 2.2.8.3-.3.6-.4 1-.4-.2.4-.3.5-.4.9-.2.4 0 .9.5.9.2.1.4 0 .6.1.3-.1.5-.6.4-.9s-.3-.3-.5-.7c.3-.3.6-.8 1-1.2.4 0 .8.2 1.2.6.6 1 1.5 1.4 2.6 1.3.4 0 .8.2.8.6-.6.4-1.2.7-1.4 1.5l-.2.4c-.3.1-.7.1-.7-.3-.2-.5-.6-1-1.2-.6 0 .4-.2.8-.2 1.2-.2.4-.4.4-.6.8l-.1.2c.3.3 1.2.6 1.5.5.5-.2 1-.4 1.6-.5.2.1.4.2.7.3.4.2.9.4 1.3 0 .1-.2.4 0 .6.1s.5.3.7.3c1.1.5 2.1.6 3.2.2.5-.2 1.4-.2 2.1-.3 1.9-.4 3.9-.5 6-.6.4 0 .9 0 1.2.2.8.2 1.5.1 2.4.1.4 0 1.1.1 1.7.1.5.3 1 .2 1.4.2s.9 0 1.2.2c.2.1.2.1.4 0 .4 0 .8-.3 1.1-.1.6.5 1.4.7 1.9 1.5-.1.2-.3.5-.3.7l-.3.1c-.4-.2-.7-.3-1.2-.8-.5-.7-1.5-.9-2.3-1.1-1.3-.4-2.5-.3-3.7.4-.1.2-.2.4-.3.5-.6-.1-1.2.3-2 .1-.2-.1-.3.1-.5.2-.8.3-1.7.3-2.6 0-.2-.1-.4-.2-.4 0-.8.3-1.7.5-2.6.5-1.3 0-2.5.3-3.8.6-.8.3-1.7.3-2.5.3-.9 0-1.8-.2-2.6 0-.4-.4-1.1-.1-1.7-.1-.9 0-2.6.9-3.5 1.4-.3.3-.3.5-.3.7-.8.7-.7 1.9-1.2 2.9-.2.4.1.7.5.7s.7-.1 1.1-.1l.6 1.6c-.1.6-.8.7-1.2 1.2.2.5.6.5 1 .7-.3.5-1 .2-1.4.6-.1.6.8 1 .5 1.7-.4-.4-1.1-.1-1.6.1a.63.63 0 0 0-.4.9l.3.8c-.2.4-.3.7-.3 1.1-.2.4.1.7.5.7.6.1 1.1-.1 1.8 0 .7-.1 1-.2 1.6-1.2.8.6 1.5.1 2.4.1.4.2.6.1 1 .2l.1.3-.1.2c-.2-.1-.6-.1-.8-.2-.1.2-.3.3-.5.6-.2.4-.3.5-.4.9-.3.7-1 1.2-1.8 1.1.2-.4.2-.8 0-1.3-.1-.3-.5-.3-.6-.1s-.2.4-.1.6c0 .4.4.4.8.6-.1.2-.3.3-.4.4-.3.1-.3.3-.7.5-.3.3-.3.7.2 1s1 .2 1.6-.1c.3-.1.3-.3.7-.5.4.4 1 .7 1.7.1.6.1 1.1-.1 1.8 0 .6.1 1.1-.1 1.7-.3.9-.5 2-.6 3.1-.9.5-.2 1-.2 1.5-.4 1.3-.5 2.5-.7 3.8-1.2l.8-.3c.3-.3.6-.4 1-.2.8.2 1.8 0 2.5-.3.8-.3 1.5-.4 2.3-.6.4.4 1 .7 1.4 1.1 0 .9-.2 1.4-1.2 1.6-.5.2-1 .4-1.5.4-2 .1-3.9.9-5.8 1.6-.9.5-1.7.7-2.6.9-.7.1-1.3.5-1.8.6-.3.1-.8.3-1.2.3-1.8.2-3.4.8-5 1.3-.5.2-1 .4-1.7.3-.9 0-1.7.3-2.1 1.2.2.5.5.3.9.4-.1.2-.1.6-.2.8l1.1.5c.5.3 1.2.2 1.5-.4.3-.5 1-.6 1.4-.6.9 0 1.6-.1 2.3-.2 1-.2 1.8-.2 2.7-.2.3-.1.6.1.9 0 .5-.2 1.2-.3 1.7-.5.7-.1 1.3-.5 1.8-.6 1.1-.5 2.4-.8 3.4-.8.2.1.4 0 .4 0 1.7-.5 3.6-.7 5.2-1.4.5-.2 1.2-.3 1.8 0 .4.2 1.1.1 1.6-.1.3.3-.3.5-.3.7.1.3-.1.6-.2.8l-4.4 1.4c-.3.1-.4 0-.5.2-.3.3-.8.3-1 .4-.7.1-1.2.3-1.8.6-.3.3-.6.4-1 .4-.3.1-.6-.1-1 .2-.6.4-1.5-.1-2.3.6-.5.6-1.3.5-2.1.7-.5.2-1.2.3-1.9.4s-1.5.4-2.3.6c-.3.1-.7.1-1.1-.1-.3-.3-.5-.3-1-.2l-3.4.8c-.4 0-.8.3-1.3.5-.8.3-1.5.4-2.1 1.2-.1.2-.3.3-.7.5-.1.2-.2.4-.3.5.2.1.1.3.3.3.5.3 1.2.2 1.8.2.6.1 1.2.2 1.8 0 .2.1.3-.1.4 0 .7.3 1.3 0 1.9-.4l.4.2c.8.6 1.5.9 2.6 1 .6.1 1.1.1 1.8 0 .5-.2 1-.2 1.4-.2.4-.4.2-1 .5-1.5 1.6-.1 2.8-.8 4.4-.9l.8-.3c.3-.3.8-.3 1.2-.3.7-.1 1.2-.3 1.8-.6.5-.2.8-.3 1.5.1-.3.1-.3.3-.5.2-.8.3-1.7.5-2.5.7-.3.1-.7.1-1 .4-.7.5-1.2.7-2 .6-.2-.1-.3.1-.3.1-.1.2-.3.3-.3.5-.1.2.3.3.6.5 0 0 .2.1.3-.1.6-.4 1.2-.3 2-.1.3-.1.7-.1 1-.2s.3-.3.5-.2c.4 0 1-.2 1.2-.3a3.86 3.86 0 0 1 2-.6c1.2.2 2.1-.3 3.2-.4-.3.7-.9 1.1-1.7 1.3-.4 0-.8.3-1.1.5-.3.3-.9.5-1.2.3-.6-.1-1.1.1-1.8 0-.8.3-1.6.6-2.5.3l-.2-.1c-1 .4-2.3.6-3.1 1.5l-.2.4c-.1.2.1.3 0 .4-.5.6-.3 1.1 0 1.8.4.4 1 .7 1.6.3.6.5 1.4 1.1 2.4.9-.2.4-.3.5-.3.7-.3.5-.1.6.4 1-.4.4-.7 1-.2 1.7.3.3-.1.6 0 .9s.2.5.4.6.4 0 .7-.1c.3-.3.5-.6.9-.9.6.1.7.3.9.9-.3.5-.4.9-1 .8-.3.1-.7.1-1 .2-.6.4-.8.7-.4 1.3l.3.8c.1.3 0 .4-.1.6s-.3.1-.5.2c0 .4-.1.6-.1 1.1-.1.2-.1.2-.3.3-.3.1-.5.2-.7.1-.6-.1-1.1.1-1.5.4l-.2-.1-.3.1.4.2c-.2.4-.1.6.2 1 .6.1 1.2-.7 2-.1-.2.4-.3.3-.6.4s-.4 0-.7.1c-.7.1-1.5.4-2.2.5s-1.3.5-1.6 1.2c-1.1-.1-1.8.2-2.8.4-.5.2-1.1.5-1.4 1.1-.1.2 0 .4 0 .4.1.3.3.3.5.3.3-.1.5-.2 1-.2.1.3.1.7.4 1-.3.1-.4.4-.7.5-.8.3-1 .2-1-.7 0 0-.1-.3-.3-.3-.3.3-.7.5-1 .8-.1.2-.2.4-.3.3-.7.1-1 .8-1.3 1.3 0 .4.2.5.6.5.2.1.2.1.4 0 1-.4 2.1-.3 3-.7 0 0 .2.1.3-.1 0 .4-.2 1-.8 1.2-.4 0-.9 0-1.1.1-.4 0-1 .2-1.4.6-.1.2-.3.3-.4.4-1.2.3-2.3 1.1-3.5 1.4-.3.5-.4.9-.3 1.6.6.5 1.1.1 1.6-.1.8.2 1.4.2 2.1.6-.2.4-.5.6-.6.8-.2.4-.1.6.3.8.7.3 1.8.2 1.9-.8 0-.4.3-.7.9-.9-.2.4-.3.5-.2 1 .4.4.8.6 1.2 1-.1.2-.2.4-.4.4-.3.3-.6.4-1.1.5-.3.1-.3.3-.7.5-.3.3-.2.4-.1.6.1.3 0 .4-.1.6-.3.5-.1 1.1.2 1.4.6.1 1.1.3 1.7.1.5-.2 1-.2 1.5-.4.6.5.5.9.1 1.6-.6-.1-1.2-.2-1.8-.2-.2.4-.1.6-.3.7-.1.2-.3.3-.4.4-.3.1-.4 0-.6-.1-.6-.1-.7.1-1.3.9.5.9 1.2.2 1.8.4.1.7-.6.8-.7 1.4-.4-.2-.8-.2-1-.2-.8-.2-1.4.2-1.4 1.1-.1.2 0 .4.2.5.2.5.3 1.2.2 1.8.2.1.5.3.8.2.5-.2 1-.2 1.3-.5 1-.6 2.2-.9 3.2-.8.6-.4.4-.9.6-1.2.3-.1.6-.4 1-.4l.2.1c2 1.2 1.6.8 3.3.3.4-.4.9 0 1.4-.2s.9-.5 1.4-.6c.8-.3 1.6-.5 2.5-.3 0 .9.7 1.7.7 2.5-1.1.5-2.1 1.2-3.4.8-.4-.2-.6-.1-1 .2-.1.2-.3.1-.5.2-1.1 1-2.6 1.4-3.8 1.6-.3.1-.4 0-.7.1H237c-1 1.7-2.7 2-4.5 2.2-.1.2-.3.5-.6.8-.1.2-.4.4-.7.5l.3.8c.5.3.9.4 1.2.6-.4.4-1 .6-1.5.8l-1.3.5c-.3.1-.3.1-1-.2.1-.2.1-.6.2-.8-.4-.4-.8-.2-1.2-.2-.3.3-.6.4-1.1.1-.4-.2-.9 0-1.1.1-.3.3-.7.5-1 .8.4.4.8.6 1.3.4l.8-.3c.3-.1.7-.1 1.1.1.4.4.9.4 1.6.3.9.4 1.8 1.3 3.3 1.4-.9.5-1.5.4-2.2.5-.5.2-1.4-.2-1.9.4.4.4 1 .7 1.4.7.7-.1 1.3 0 1.5.9.1.7 0 1.3-.6 1.7 0 0-.1.2-.3.1.5.9.5 1.3-.1 1.9-.2.4-.5.6-.6.8s-.4.4-.5.6l-.2.4c.2.1.4.4.6.5s.5.3.7.3c0 .4-.1.6-.5.6s-.8.3-1.2.3c-.3.1-.6.4-1 .6-.2-.1-.4-.2-.5-.3-.5-.3-1.1-.3-1.6.1-.3.3-.9.5-1.3.5l-2.1.3c-.2-.1-.3.1-.6-.1.5-.6 1.3-.5 2-.6.1-.2 0-.4.1-.6-.5-.3-1-.2-1.5-.1-.7.1-1.6.1-2.3.2-.4 0-.7.1-1.2.3s-1.2.3-1.7.3c-.2-.1-.4-.2-.5-.3.3-.5.8-.7 1.1-.5.6.1 1.1-.1 1.7-.3.5-.2 1.2-.3 2-.6.2-.4.1-.6.1-1.1-.1-.3-.4-.6-.7-.3-.6.4-1.5.4-2.2.9-.1.2-.6.4-.8.3-.6-.1-1.4.2-1.9.4l-5.8 1.1c-1 .2-2 .6-3 .7-.3.1-.5.2-.9.5-.1.2-.6.4-.7.5-.3.1-.3.3-.7.5.1.3.4.4.4.6.1.3 0 .4 0 .9l1.6.3c-1.7.7-3.3 1-5 1.7-.1-.3-.4-.4-.5-.7-.3-.3-.4-.4-.8-.2l-2.4.8c-.3.1-.8.3-1 .4-1.2.3-2.4.6-3.8.6-.2-.1-.3.1-.4 0-1.6.6-3.2.4-4.8.5l-.2-.1c1-.6 1.9-.8 2.8-.8.4 0 .9 0 1.2-.3.3-.1.4 0 .7-.1s.6.1.9 0c.8-.3 1.7-.3 2.6-.5.2.1.3-.1.3-.1.3-.7 1-.8 1.6-1.4l.1-.2c-.6-.1-1.3-.4-1.9-.5s-1.2.3-1.7.5c-.3.3-.8.3-1.1.1-.4-.4-1-.2-1.4-.2-1.8.2-3.5.9-5.3 1.1-.5.2-1.1.1-1.8 0-.8-.2-1.6.1-2.5.3-.7.1-1.4.2-2 .1s-1.1-.1-1.6.1c-.3.1-.6.4-1 .2-.3.3-.7.1-1 .2-.4 0-.7.1-1.1.1-.3.1-.4 0-.6.4-.1.2-.5.2-.7.1l-.4-.2-.2.4c-.3.1-.7.1-1 .2s-.3.3-.6.4-.4 0-.6-.1c-.1-.3-.3-.3-.4-.2-1.2.3-2.5.3-3.8.6-.5.2-1.1.1-1.5-.1-.6-.1-1.3 0-2 .1-1.4.2-2.9.6-4.4.9-.4 0-1 .2-1.4.2-1.1-.1-1.8.2-2.8.4l-2.4.4-8.2 1.3c-1 .2-2 .1-3 .3-.9 0-1.6.1-2.4.4-.7.1-1.3 0-2 .1-.4-.4-1.1-.3-1.7-.6l-.4-.2c-.9 0-1.9-.1-2.8 0-.8-.2-1.8.2-2.7.2-1 .2-1.7.5-2.6.5-.4 0-1.1.1-1.7.3-.5.2-1 .2-1.5.4-.2-.1-.3.1-.4 0-.6-.5-1.5-.1-2.2 0l-3.2.2c-.7.1-1.4.2-1.9.4-.3.1-.5.2-.7.1-1-.2-2.1-.1-3.1 0-1.2.3-2.3.2-3.5.1-.7.1-1.4.2-1.9.4s-1.3.5-1.9.4c-1.2-.2-2.3.2-3.3.6-.4 0-.9 0-1.4.2-.9 0-1.8.2-2.7.2l-2.4.4c-.1.6-.1.6.5.7 1.7.1 3.2.2 4.6-.2.3-.1.4 0 .7-.1 1 .2 1.9.1 2.9-.1l.3-.1c1 .2 1.8 0 2.9-.1.2.1.4.2.5.3-.4.4-1 .6-1.6.5-.4 0-.6-.1-1.1-.1-.2-.1-.4-.2-.6-.1-.4 0-1 .4-1.4.2-.4 0-1-.2-1.4-.2l-3.6.2c-.3.1-.5.2-.9 0-.4 0-.9 0-1.2.3-1 .6-1.1.5-2-.3-.3.1-.5.2-1 .2.1-.2-.1-.3-.2-.5-.9 0-1.6-.3-2.3-.2-.3.1-.7.1-1.1-.1-.3.1-.4 0-.7.1s-.4.4-.8.3c-.8-.2-1.3 0-2.1-.1-1.1-.3-2.4-.5-3.5.1-.5-.3-1.3-.4-1.8-.2-.3.1-.7.1-.9 0-.5-.3-1-.2-1.6-.3s-1.1-.1-1.5.4c-.3.3-.7.1-1.1.1-.4-.2-.7-.3-1.1-.1-.6.4-.8.3-1.6-.3.3-.3 1-.6 1.3-.9s.3-.7-.1-.7c-.4-.2-1-.2-1.3-.4-.6-.1-1.2-.2-1.8 0-.6-.1-1.1.1-2 .1-.3-.3-.3-.8-.5-1.1-.6-.1-1.3 0-1.8.2s-.6.4-.2 1c0 0 .2.1.1.3-.2.4-.7.5-.1 1.1.4 0 1.1-.1 1.8.2.4.2.9 0 1.3 0 .3-.1.6.1.9.4-.8.3-1.8 0-2.5.3-.1.2-.3.5-.3.7-.6-.1-1.1.1-1.8 0-.8-.2-1.2-.2-1.7.5-.6-.1-.8-.6-1.1-.9-2.2.5-4.2.6-6.3-.4-.1-.3-.4-.6-.5-.9.1-.2.1-.6.2-.8 0-.4.3-.7.8-.7.5-.2 1-.2 1.5-.4.1.3.2.5.4.6s.5.3.7.3c.9.4 1.8.2 2.8.5.8.2 1.7-.3 2.4-.8l.1-.2c-.8-.2-1.4-.2-2.3-.2-.2-1-.9-1.3-1.9-1.1-.7.1-1.4.2-2.1-.1-.5-.3-1.1-.3-1.8.2.3-.5.3-.7.3-.7.1-.2.3-.1.5-.2-.1-.3 0-.4-.1-.7.1-.2-.1-.3-.1-.3-.4-.2-.4-.2-.5-.3-1.1-.3-2.5-.8-3.5-1.3-.5-.3-1.1-.3-1.7-.1-.2.4-.1.6.3.8.4.4.7.8 1.2 1l-1.5 1.7c-.2-.1-.4-.2-.5-.3-.5-.3-.8-.6-1.2-.6-.6-.1-1.1-.5-1.4-1.1-.1-.3-.3-.3-.4-.6.3-.3.5-.6.9-.9l-.1-.3c-.4-.2-.6-.5-1-.7-.2-.1-.5-.3-.6-.5-.5-.7-1.1-.9-1.9-.9-.3-1.2-1.2-2.1-.3-3.4-.5-.7-1.3-1.3-1.3-2.3 0-.4-.2-1-.5-1.1-.8-.6-.8-1.5-.8-2.4 0 0 .1-.2-.1-.3.3-.1.7-.1.9 0 .8.2 1.6-.1 2.2-.5.3-.7.5-1.5 0-2.2-.6-.1-1.1-.1-1.6-.3-.2-.1-.5-.3-.6-.5-.2-.1 0-.4-.1-.7-.4-.4-1.1-.5-1.6-.3-.4 0-1.1-.1-1.4-.2-.8-.6-1.7-.6-2.5-.8-1.3 0-2.7.2-4.1 0-.4 0-.9 0-1.1.1-1.9.4-3.9.3-6 .2-.6-.1-1.2.3-2 .1-.6-.1-1.2-.2-2 .1-.3.1-.4 0-.7.1-.6-.1-1.3 0-2.1-.1-.1-.3.3-.3.3-.3.5-.2 1.1-.1 1.6-.1.2.1.3-.1.5-.2.5-.6 1.5-.8 2.3-1.1.5-.2 1.1-.1 1.7-.3.3-.1.4 0 .4-.4-.1-.3-.2-.5-.4-.6s-.2-.1-.4 0c-.6-.1-1.2-.2-1.9-.1-.9 0-1.8-.2-2.7.2 0 0-.2-.1-.4 0-.2-.1-.4-.2-.7-.3.3-.1.3-.3.4-.4l.8-.3c1.4-.2 2.8-.4 4.3-.3 1.1.1 2.1-.3 3.2-.4l3.2-.4c.4 0 .8-.3 1.2-.3.3-.1.5-.6.4-.9s-.3-.8-.4-1c.3-.3.5-.6.2-1-.5-.7-.6-1.6-1.1-2.3l-.1-.3c0-.4.1-1.1.1-1.5.5-.2.6.1.7.3.4.6 1.1.9 1.9 1.1l.4.2c-.1.2-.1.6-.2 1 .2.1.4.2.5.3.2.1.3.3.5.3.8.2 1.7.1 2.5.3.4 0 .8.2 1.1.3.7.3 1.4.2 2-.1.9-.5 1.8-.6 2.4-1.4.1-.2.4 0 .6-.4-.9-.4-1.1-.5-1.9-.5l-3.9.1c-.3.1-.4 0-.8-.2 0-.4.4-.4.6-.4.9 0 1.9.1 2.9-.1 1.1-.1 2.1-.3 3.1-.7.5-.2 1-.4 1.7-.3.6.1 1-.4.9-1.1-.1-.3-.2-.5-.5-.9-.3-.3-.6-.5-1-.7-.2-.1-.4-.2-.6-.1-1.7.5-3.2.4-4.9.3-.6-.1-1.2-.2-1.9-.1-.1-.7.7-1.4.4-2.2-.2-.1-.4-.2-.7-.3-.5-.3-1.1-.3-1.2-1-.1-.3-.3-.3-.4-.4-.4-.2-.5-.3-.9-.4l-.3-.8c-.1-.7-.4-1-1.1-.9-.4 0-.7-.3-1.1.1-.2.4.1.7.2 1l.1.3c-.5.2-.9 0-1.5-.1-.4-.2-.9 0-1 .4-.3.3-.6.8-1 1.2-.1-.3-.3-.3-.4-.6l1.6-2c.4-.4.8-.7 1.5-.4 0 0 .2.1.4 0 .1-.2 0-.4.1-.6.7-.1 1.5-.4 2.3-.6.2-.4-.5-.9 0-1.3 1.1.1 2.4.1 3.4.1.4 0 .7-.1 1-.4-.1-.3-.4-.4-.6-.5l-2-.3c-.2-.1-.5-.3-.5-.3-.3-.8-1.2-.8-1.8-.8-.8-.2-1.5-.5-2.2-.8-.2-.1-.4-.2-.5-.3-.4-.6-1-.7-1.2-1 .8-.3 1.4-.6 2.1-.7s1.1-.5 1.5-1.2c-.7-.3-1.4-.7-1.9-1.1.2-.4.3-.3.6-.4 1.2.2 2.5.1 3.6 1.1.3-.1.6-.4 1-.4 0-.9-.6-1.4-1.1-1.8-.4-.4-1.1-.5-1.7-.6-1.1.1-2.4-.1-3.7 0-1.1-.1-2 .1-3.1 0-1.5-.1-2.8 0-4.1 0-.6-.1-1.1-.1-1.8-.4l.8-.3 3.6-.2c1.3 0 2.6 0 3.9-.3.4 0 .9 0 1-.8.1-.2.3-.3.6-.4 1.2.2 2.3-.2 3.2 0l.2.1c.9-.5 1.8-.2 2.6-.5.3-.1.6-.4 1-.4.3-.1.8-.3 1-.4.3-.1.5-.2.6-.4s0-.4.2-.8c-1-.2-2-.3-3-.1-.1.2 0 .4-.1.6-.2.4-.4.4-.6.4-.4-.2-.6-.5-1-.7-.1-.3.1-.6 0-.9s-.2-.5-.5-.9c1.3-.5 2.6-.5 3.8-.6l-.3-.8c-.5-.3-1.3 0-1.7-.6.9-.5 1.7-.9 2.6-.9s1.7-.3 2.5-.1c0 0 .2.1.3-.1.6-.4 1.5-.4 2.2-.5.3-.5.3-.5.3-1.6.7-.1 1.2-.3 1.9-.4.3-.3.3-.5.2-1-.9-.9-2-1.2-3.3-1.4-1.4-.2-2.8 0-4.3-.1-.4 0-.7.1-1.1-.1-.7.1-1.5-.1-2.2 0-.9 0-1.6.1-2.3-.2-.4-.2-.6-.1-1-.2-.2-.1-.6-.1-.8-.2-.4-.2-.6-.5-.4-.4.3-.1.5-.2.5-.2 1.2.2 1.5.1 2.6-.9.4.4.8.6 1.1.9.4 0 .8-.3 1-.6.2-.4.4-.4.9-.5.4 0 .9 0 1.4-.2s1-.4 1.7-.5c.5-.2 1.1-.1 1.8-.2.5-.2 1-.4 1.5-.4.3-.1.5-.2.7-.1.4 0 .5-.2.7-.5-.3-.8-1.2-.8-1.7-1 0-.4.3-.3.4-.4.1-.2.3-.5.5-.6-.4-.2-.6-.5-1.2-.8.3-.3.7-.5 1-.6 0 0 .1-.2 0-.4-.3-.3-.4-.4-.9-.4-.6-.1-1.1-.1-1.7-.1-.4-.4-.8-1-1.2-1.6 1.6-.6 3.2-.4 4.8-.9.7-1 .7-1 .1-1.9.3-.1.5-.2.7-.1.6.1 1.1-.1 1.6-.1.5-.2.5-.6.2-1-.1-.3-.3-.3-.4-.6.5-.6 1.2-1.2 1.6-1.6-.2-.5-.2-1-.2-1.4.2-.4.5-.2.9-.5.6-.4.6-.8.2-1.2-.2-.1-.5-.3-.9-.4.1-.2.2-.4.3-.5.1-.2.2-.4.3-.5-.2-.1-.1-.3-.3-.3-1-.2-1.9-.7-3-1-.2-.1-.4-.2-.6-.1-.7.1-1.5-.1-2-.3-1.1-.3-2-.8-3.3-.9-.6-.1-1.1-.1-1.4.2-.5.2-1 .4-1.6.5-.3.1-.4 0-.7.1-.2-.5-.2-1-.6-1.4-.4-.2-.7-.3-1.1-.1-.6.4-1.3.5-2.1.3-.2-.1-.4 0-.9 0-.2-.1-.6-.1-.8-.2-.1.2-.2.4-.3.7.2.1.1.3.3.3.6.5.6.5.4 1-.2.4-.3.5-.6.8.8.6 1.4.7 2.4.5s1-.2 1.9.5c-.1.2-.3.1-.3.3-.2-.1-.4-.2-.5-.3-.4-.2-.8-.2-1 .2-.1.2-.3.3-.6.4s-.5.2-1 .2c-.8-.2-1.7-.1-2.4-.1-1.3 0-2.5-.1-3.9-.6-.4-.2-.8-.2-1-.7.3-.3.8-.7 1.3-.9s1.1-.1 1.6-.6c-.1-.3 0-.4 0-.9l-.4-.2c-.4-.2-.8-.2-1-.2-.4-.2-.7-.3-.8-.6 0-.4.3-.3.6-.4l2.5-.1c.2.1.4 0 .5-.2 0-.4-.1-.7-.4-1s-.6-.5-.6-1c-.3-.8-.7-1.2-1.3-1.3l-.2-.1c0-.4.2-.8.4-.9.5-.2 1-.2 1.5-.4.3-.1.5-.2.6-.4.2-.8.8-.7 1.4-1.1.2.1.3.3.6.5.4.2 1 .2 1.2.2 1.2-.3 2.4-.4 3.4.1.2.1.3-.1.5-.2-.1-.3 0-.4 0-.9l-.4-.2c-.2-.1-.4-.2-.6-.1-.6-.1-1.2-.2-1.8-.4-1.2-.6-2.6-.4-3.9-.6-.9 0-1.8-.2-2.6-1 .3-.1.3-.3.5-.2.1-.2.3-.1.3-.3l-.3-.8c.3-.1.4 0 .7-.1 0 0 .3-.1.2-.4 0 0-.1-.3-.3-.3-.6-.1-1.2-.2-1.8-.4 0-.4.2-.8.6-.8.9 0 1.7-.3 2.2-.9.1-.2.3-.3.5-.2.4 0 .7-.1 1.1-.1.2-.8.2-.8 1.1-1 .3-.5.4-.9 1-1.2.5.3.7 1.2 1.6.8.2-.4.1-.6.2-1 .1-.2 0-.4-.2-.5-.6-.5-1.2-.8-1.9-1.1s-1.5-.5-2.2-.4c0-.4.2-.8.2-1.4-.3-.3-.4-.4-.7-.8l.1-.2c.8-.3 1.1-1.4 2-1 .1.3.4.6.7.8.2.1.4 0 .7-.1l.3-.1c-.1-.3-.3-.3-.4-.2-.2-.1-.4-.2-.5-.3.6-.4.6-.4.8-.3 1 .2 1.7.2 2.5-.3 1.7-.7 3.3-.6 4.9-.3.4.2.8.2 1.1.1l.3-.1c.9.4 1.8 0 2.5.1.4 0 .8.2 1-.4.4 0 1-.4 1.5.1.4.2.7.3 1 .2s.4 0 .4 0c.9.4 1.9.5 2.8 0 .6-.4 1.1-.5 1.6-1 .6.1.8.6 1.2 1-1.2-.7-.8-1.2-.5-1.7.9 0 1.9.1 2.6.8 1.2.2 2.4-.4 3.3-.6.5-.2.6-.4.4-.9-.4-.2-.4-.4-.9-.4-.6-.1-.8-.6-1.2-.8-.5-.9-1.3-.9-2.1-.6l-.8.3c-.3.1-.3.3-.4.4-.1.6-.4 1.2-.9 1.8zM216.5 205l.3-.1-.3.1c-.1.2-.1.2 0 0zm-2.3 2.1c.3-.3.7-.5.9-1.1-.4-.6-.9-.4-1.3-.4s-.8.3-1 .6c.4.7 1 .8 1.4.9zM192.8 88.8a5.71 5.71 0 0 0 2.6 0c.4 0 .8-.3 1.1-.1.4 0 .8.2 1.2.2-.1-.3 0-.4-.1-.7-.5-.3-1-.2-1.5-.5-.8-.2-1.4.2-2.2.5-.3.1-.8.3-1.1.6-.2.4-.4.4-.7.5 0 0-.1.2.1.3l.2.1c.3-.1.5-.2.6-.4-.2-.1-.1-.2-.2-.5zm-146 38.7c-.5.2-1 .2-1.4.2-.8-.2-1.6.1-2.5.1-.4 0-.6.4-.6 1.2.8.2 1.7.1 2.3.2.9 0 1.6.3 2.3 1.1l.4.2.5-1.1c.5-.2 1.1-.1 1.7-.5s1.3.4 1.8 0c.2-.8.2-.8-.9-1.3.1-.2.2-.4.4-.4.3-.1.4 0 .7-.1s.5-.6.2-1c-.3-.3-.6-.5-.9-.4-.4 0-.7.1-1 .2-.5.2-1 .4-1.7.3-.6-.1-1.1.1-1.6.1-.5.9 0 .9.3 1.2zM201 136c-.1.2-.3.3-.5.2-.8-.2-1.2.3-1.7.9.2.1.3.3.4.4.2.1.6.1.9 0 1.3-.5 2.4-.6 3.6-.7.2.1.4 0 .5-.2l2.6-.9c.6-.4 1.3-.5 2.1-.3.4.2.9 0 1.1-.1.6-.4 1.1-.5 1.8-.2.5.9.5.9 1.4 1.1.8.2 1.3 0 1.5-.8.1-.2-.1-.3 0-.4-.4-.4-1-.7-1.2-1-.4-.4-.9-.4-1.4-.2-.3.3-.9.5-1.4.2-.2-.1-.4 0-.7.1a12.88 12.88 0 0 1-5.1 1c-.5-.9-1-1.1-1.7-.6-.1.2-.3.1-.4 0-.6-.1-1.2.3-1.7.5-.3.1-.4.4-.7.5.1.1.4.4.6.5zm8.7 61.4c-.2.4-.3.5-.4.9-.2.4-.4.4-.6.8.9 0 1.4-.2 2.2-.5.4.2 1 .2 1.3.4.8-.7 1.5-1.2 2.6-.9.4 0 .7-.1 1-.4.1-.2.4-.4.5-.6h1.3c.6.1 1-.4 1.3-.9l.5-1.1c.2-.4-.1-.7-.2-1a2.79 2.79 0 0 1 1.7-.5c.4 0 .6-.4.9-.5.1-.2 0-.4.1-.6-.3.1-.6-.1-.8-.2-.3.1-.4 0-.7.1l-3.3 1c-.8.3-1.6.6-2.5.7-.7.1-1.4.2-1.8.6-.1.2-.3.1-.5.2-.3.1-.4 0-.7.1-1.3.5-2.8.8-4.1 1.3.1.3.2.5.2.5.6.1 1.2.2 1.7.1 0 .3.2.2.3.5zm-159 18.3l-.4.9c.5.9 1.1 1.4 2.1 1.5 1.1.1 2.1.1 3.2-.2 0 0 .1-.2.3-.3.1-.2 0-.4.1-.6-.3-.3-.4-.4-.6-.5.4-.4.9-.9 1.1-1.4.2-.4.3-.7-.2-1-.4 0-.7.1-1.2.3-.8.3-1 .2-1.4-.7.1-.2.3-.5.3-.7-1.4-.2-2.6-.6-4-.2 0-.4 0-.9-.3-1.2-.5-1.1-2.6-1.9-3.7-1.3-.5.2-.9.5-.9.9.3.3.5.7 1 1.1.5.3 1 .2 1.5.5-.5.6-1.5-.1-1.9.8.5.7.5.7 1.2.8.8.2 1.7.2 2.5.3-.1.6.1.7 1.3 1zm-12.9-80.1c.9 0 1.5.5 2.2 0l.3-.1 2.4.1c.4 0 .9 0 1.1-.1.3-.1.3-.3.7-.5l.3-.1c.2.1.5.3.8.6.3-.1.6-.4.7-.5.4.2.5.3.9.4.4.2.6.1 1 .2.3-.1.3-.3.6-.4.7-.1 1.5-.4 2.2 0 .5.3 1 .2 1.6.3.4-.4.8-.7 1.2-1.2.3-.3.1-1.1-.4-1-.6-.1-1.1-.3-1.8-.2-.5.2-1 .2-1.3 0-.6-.1-1.1.1-1.6.1-.4 0-1.1-.1-1.7-.2-.2-.1-.4 0-.7.1-.5.2-1.2.3-1.8.2-.4 0-1.1-.1-1.4.2-.6.4-1.4-.2-2 .1 0 0-.2-.1-.4 0-1.1-.1-2.1-.1-3.1 0-.4 0-.8.3-1 .6.4.6.8 1 1.2 1.4zm32-23.5c.1-.6.2-1.2.2-1.8-.7-.3-1.3-.4-2.2-.4s-1.7-.1-2.5-.3-1.8 0-2.4.4c-.3.3-.6.4-.9.5v1.3c.3.3.6.5.7.8.2.1.4.2.5.3.8.2 1.5.5 2.4.5 1.7-.1 3.2-.5 4.2-1.3zm114.4-22.6c-.8-.2-1.4-.2-2.2 0l-1.3.5c-.8.3-1.7.3-2.4.6-.3.1-.3.3-.4.4-.1.2.3.3.4.4s.6.1.8.2c.7.3 1.4.2 2.3.2 1-.2 2-.6 3-.7.7-.1.7-.5.4-.9s-.4-.7-.6-.7zm30.5 98.4c.3.3.7.3 1 .2l4.7-1.2 1.7-.7c.3-.1.3-.3.1-.6-.2-.1-.4-.2-.5-.3-.8.3-1.7.3-2.5.3-.4 0-.9 0-1.1.1-.4 0-.8.3-.9.9l-.2.4c-.9.2-1.5.6-2.3.9zM64.5 223c-.1-.3 0-.4-.2-.5s-.4-.4-.6-.5c-.5-.3-1-.2-1.6-.3l-1.6-.3c-.6-.1-1.3 0-1.8.2-.1.2-.2.4-.3.5-.1.2.1.3.3.3.2.1.4.2.6.1 1 .2 1.8.2 2.7.7.5.3 1.2.2 1.7.1.4.2.6-.2.8-.3zm-34-17.8c-.1-.3-.1-.3-.3-.3-1.1-.5-2.1-.1-3.2-.2-.7.1-1.4.2-2 .6.2.5.5.9.9.9 1.1.1 2.2 0 3.1-.5.3-.1.4 0 .7-.1.3-.3.5-.3.8-.4zm186.9-27.8c-.4-.2-.7-.3-1.1-.3-.5.2-1.1.1-1.6.6-.4.4-.9.9-1.5 1.2.4.4.8.6 1.4.2.3-.1.4-.4.7-.5 1.7.1 1.7.1 2.1-1.2zM42 123.3c-.9-.4-1.2-1-1.9-.9-.9 0-1.8.2-2.7.2 0 0-.2.4 0 .4s.4.2.5.3l2.4.5c.2.1.3-.1.4 0 .3-.1.6-.4 1.3-.5zm186 29.8c-.6-.1-1.1-.1-1.4-.2-.7-.3-1.4-.2-2 .1-.1.2-.3.5-.4.9.6.1 1.3.4 1.9.5s1.1-.1 1.6-.5c-.2-.3-.1-.5.3-.8zm-10.7-26.6c-.4 0-1-.2-1.4-.2-.2-.1-.4 0-.5.2-.5.2-.7.5-.9.9-.1.2.1.3 0 .4.4.2.8.2 1.1.3 1.7.1 1.7.1 1.7-1.6zm6.3 83.6c-1.1-.3-2.1.3-2.3 1.5-.1.2.1.3.1.3.2.1.4.2.4 0 .3-.3.9-.5 1.4-.2.2.1.4 0 .5-.2.3-.1.3-.5.2-.8-.1-.2-.1-.5-.3-.6zm-3.4-64c.1.3-.3.5 0 .9.3.3.7.3.9.4.4 0 .7-.1 1-.2.7-.1.9-.5.9-.9-.9-.5-1.7-.5-2.8-.2zm-10.5-20.7c.2.5.8.6 1.1.5.7-.1 1.4-.2 1.9-.4.3-.1.3-.3.4-.4.1-.2-.3-.3-.3-.3l-.4-.2-2.5.1c.3.3 0 .4-.2.7zM56.9 222.6l.8-.3c0-.4.1-.6 0-.9l-1.1-.5c-.5-.3-1.1-.1-1.5.4-.1.2-.2.4 0 .4l1.8.9zm159.4-74.2c1.1.5 1.5.1 2.7-.7.3-.1.3-.3.3-.5-.6-.1-1.4-.2-2 .1-.5 0-.8.3-1 1.1zm7.6 4.5c0-.4-.1-.7-.5-.9-.6-.1-1.1.1-1.6.5-.1.2 0 .4.2.5.6.4 1.4.5 1.9-.1zm-13.8-13.4c-.1-.3-.1-.3-.3-.3-.9-.4-1.8 0-2.4.4l-.2.4s.1.3.4.2c.7-.1 1.3 0 2-.1.2-.3.4-.4.5-.6zm15.8 53.5c.4.4.9.4 1.1.3.3-.3.9-.5 1.2-.7.3-.1 0-.4-.2-.5l-.4-.2c-.5.2-1 .2-1.3.5-.3 0-.2.3-.4.6zM41.8 119.7c.1.3.3.3.2.5 0 0-.1.2-.3.3l.2.1c.3-.1.8-.3 1-.4.5.3.5.3.7-.1.1-.2.2-.4.4-.4l-.9-.4c-.4 0-.8.2-1.3.4zm3.9-9.4c.7.3 1.5.5 2.1.1.2.1.3-.3.3-.3-.1-.3-.2-.5-.4-.6-.7-.1-1.5.1-2 .8zm174 93.9c-.3.1-.8.3-1 .4-.1.2-.1.2-.4.4.4.2.4.4.6.5s.4.2.5.3c.2.1.4 0 .7-.1s.4-.4.1-.6c0-.5-.3-.9-.5-.9zm-12-90.4c.4.2.7.3 1.1.3.2.1.5-.2.6-.4s0-.4-.2-.5c-.3-.3-.4-.4-.9-.4-.2.1-.5.4-.6 1zm-10.1 23.4c-.4-.2-.8-.2-.8-.2-.3.1-.6.4-1 .6-.1.2 0 .4.1.7s.4.2.4 0c.1-.2.3-.3.5-.2.5.1.8-.5.8-.9zM38.9 121.3c0-.4-.1-.7-.6-1-.2-.1-.4-.4-.8-.2-.3.3-.3.5-.2 1 0 0 .2.1.1.3.6-.1 1.1.2 1.5-.1zm174.7 6.4c-.4-.2-.5-.3-.9-.4s-.5.2-.7.5c-.1.2-.2.4 0 .4.1.3.7.3.8.2.3 0 .5-.4.8-.7zm-2.5 85.8c.9.4 1.6.3 2.2 0l.2-.4c-.1-.3-.3-.3-.4-.2-.7.1-1.2.3-2 .6zm-17.7-74.4c.2.1.1.3.3.3.2.1.6.1.8.2.3-.1.3-.3.3-.7-.1-.3-.3-.3-.4-.4a1 1 0 0 0-1 .6zm11.4-1.1c.1-.2 0-.4-.2-.5-.4 0-.8.3-1.1.5l.1.3c.2.4.9.3 1.2-.3zM46.9 215c.1.3 0 .4.2.5s.5.3.7.3c.4 0 .7-.1.8-.7-.6-.2-1.2-.3-1.7-.1zm-2 7.3c.2-.4-.1-.7-.3-.8s-.4-.2-.6-.1c-.1.2-.4-.2-.4 0-.3.1-.2.4-.1.6.4 0 .9 0 1.4.3zM212.5 212c.5.3 1 .2 1.5.1.3-.1.5-.2.5-.6-1.1-.1-1.1-.1-2 .5zm-3.7-23.5c.5.9.6 1 1.2.8.3-.1.3-.5.1-.6-.5-.5-.8-.4-1.3-.2zm.3-46c-.7-.3-1.1-.3-1.6.1-.1.2-.2.4 0 .4l.4.2c.5-.1.9-.4 1.2-.7zm18.1 66.4c.5.3 1-.2 1.1-.5.1-.2-.2-.5-.4-.4-.4 0-.8.3-.9.5.1.1.2.4.2.4zM60 227.8c.5-.2.6-.4.3-.7-.1-.3-.4-.4-.7-.3 0 0-.3.1-.3.3.4.1.7.5.7.7zm-23.1-98.3c-.4-.2-.4-.4-.6-.5s-.4 0-.5.2l-.2.4c.1.3.3.3.5.3s.4-.1.8-.4zm185.2-6.2c-.4-.2-.6-.1-.8.3l.1.3c.4.2.6.1.8-.3 0-.2-.1-.3-.1-.3zm-2.9 54.3c-.3-.3-.4-.4-.7-.3s-.3.3-.2.4c.2.1.3.3.3.3.3-.1.5-.2.6-.4zM32.3 134.5c-.1-.3-.3-.3-.4-.4-.2-.1-.4-.2-.5.2l-.1.2c.2.1.4.2.5.3 0 0 .2.1.3-.1.1 0 .1 0 .2-.2zm183.8 71.8c.4 0 .9 0 1-.4-.4-.4-.4-.4-1 .4zM185.9 90.9c.3-.3.4-.4.5-.6-.3-.3-.5-.3-.9 0 .2.1.1.3.4.6zm36.9 47.1s.2.1.1.3c.1-.2.3-.1.3-.3.3-.1.4 0 .4-.4l-.1-.3c-.2-.1-.4 0-.7.1.2.3.1.5 0 .6zm-71.1 85.6c.3.3.4.4.7.3s.5-.2.3-.5c-.4-.1-.9-.1-1 .2zM32.8 114.5c.4.4.8.2 1.2.2-.5-.3-.7-.4-1.2-.2zm176.4 94.4l.1.3c.2.1.4.2.6.1 0 0 .1-.2-.1-.3-.1-.3-.3-.4-.6-.1zM27.6 138.5c-.2-.1-.1-.3-.1-.3s-.2-.1-.3.1l-.1.2c.2.1.2.1.5 0zm7.6-3.7c.1-.2.3-.1.3-.3l-.1-.3c-.2-.1-.3.1-.3.1 0 .2 0 .2.1.5zm168.4-5.1c-.3.1-.5.2-.6.4 0 0 .1.3 0 .4.2.1.3-.1.3-.1.1-.4.2-.6.3-.7zM52 221.1l.1-.2-.3.1c0 0-.1.2.2.1zm163.4-89.4l-.1-.3-.3.1s-.1.2.1.3c.1 0 .1 0 .3-.1zm-6.6 71.8l.1-.2s-.2-.1-.3.1c0 0-.1.1.2.1zM51.4 220.4c.1-.1.1-.1 0 0l.1-.2c-.2 0-.2 0-.1.2.1-.1-.1-.2 0 0zm14.1-111.9s-.2-.1-.1-.3l-.1.2c-.1.2 0 0 .2.1zm-26.4 21.4c.1-.2.1-.2 0 0l-.2-.1.2.1zm-.6-.1c-.2 0-.2 0 0 0zm163.2.7c0-.2 0-.2 0 0zM64.8 109c-.3.1-.2-.1 0 0z"/>
  <path class="live"
    d="M138.9 203h0c-.1 0-.1.2-.2.1-.2.2-.3 0-.5 0-.1 0-.1 0-.2.2v-.1c-.1.1-.3-.1-.4-.1l.1.4c-.1 0-.3-.3-.2-.1-.1 0-.1-.2-.3-.1h0s-.1 0-.2.1h-.4c-.3 0-.5.1-.6.1h0c-.1.1-.3 0-.5.2h-1c-.4 0-.8.1-.9.2-.1 0-.1.1-.1.1h-.2v.1c-.1 0-.2 0-.3-.1-.1 0-.3.1-.5.1s-.4.1-.6.1h-3.1v.1l-.1-.1h-.1v.1c-.1-.1-.2 0-.2-.1h0-.2c-.1 0-.1.1-.2 0h0-.2v-.1h-.4c-.2 0-.1-.4-.2-.4-.2-.2 0-.5-.3-.7l-.2-1.3-.1-.4a27.84 27.84 0 0 0-.3-2.7v-.3c-.1-.4-.1-1.1-.2-1.2v.1c-.1-.2-.1-.3-.1-.5l.1.1c.2 0 .2-.2.1-.3v.1c-.2-.1 0-.3-.1-.4v.1-.2c.1.1.1 0 .2-.1-.1 0-.1-.2-.2-.2.1 0-.1-.2 0-.2h-.1c0-.1-.1-.2-.2-.5 0-.4.1-.1-.1-.6h0c.2-.1 0-.3.3-.3-.1 0 0-.1-.1-.2-.2.1-.1.2-.2.2-.1-.4-.3-2.2-.3-2.6 0 .1.1 0 .1 0l-.1-.1s0 .1-.1 0c0-.1.1-.1-.1-.2.1 0 .1-.1.1-.1-.1 0 .1-.4-.1-.4 0-.2.2 0 .1-.3h-.2s-.1-1.1-.2-1.2c0 0 .1 0 .1-.1l-.1-.6s0 .1.1 0c-.1-.8 0-1.5 0-2.3 0-.1.2 0 .2-.2 0-.1-.1-.2-.1-.2v.1-.1c.1 0 .1.1.1 0v-.1h.1c.7-.5 3.5-.5 3.8-.5h0v.1l.1.3c.2.4 0 .8 0 1.1 0 .1 0 .5.1.6h-.1c0 .1.1.2.1.3h.1v.1c0 .1.1.1.1.2h-.1c.1.2.1.5.2.7v-.1c.1.3 0 1.7.1 2h-.1c.1.2 0 .5.2.8-.1.5-.1 2.4.1 2.9.1.4.1 0 .2.5 0 .1-.2.4-.1.4 0 .1.3 0 .2.1.2.9.3 2.6.4 3.5 0 .3.2 1.1.3 1.7h.2v.4l.1-.1v-.1c.1-.1.3 0 .4-.1.2-.1.4 0 .5-.1h0c.1-.1.2-.1.3-.1h-.1c0 .2.1.2.2.2v-.1c0-.1 0-.1.1-.1 0 0 .1.1.1 0v-.1h.1v.2c0-.1.1-.1.1-.2 0 .1.1-.1.1 0v-.1s.1 0 .1-.1h.2c.2 0 0 .1.2-.1v.1-.1c.1.2.1.1.2.3 0-.1.1.1.1-.1s-.1-.1-.1-.2h.8c.1 0 .3-.2.4-.2h.3c-.1 0 0 .1 0 .1l.1-.1v-.1h.1l.1.1c0-.1.2.1.2-.1.1-.1 0 .2.2.1v-.2h.3c.1 0 .2-.1.3-.1 0 .1 0 .1.1.1s.2-.1.3-.1v.1c.4-.1.9-.1 1.3-.1.1 0 0 .2.1.2s.1-.1.1-.1v-.1h.1v.1h-.1c0 .1 0 0 .1 0h.1v.1c.1.1-.1.2 0 .3v.5c.1.2.1.1.1.3l.1.4c.1.5.3 1.3.3 1.7l-.2.1zm-13.7-17.2h0c.1.1.1.1 0 0zm13.1 13.5c0 .1 0 .1 0 0 .1 0 .1.1.2.1h-.1c-.1 0-.1 0-.1-.1z"/>
  <path class="live"
    d="M145.1 202.4c0 .1-.1 0-.2.1.1 0 .1.2.1.3 0-.1-.1-.2-.2-.2 0 .1-.1 0-.1.2h.1c.1 0 0 .2 0 .2v-.1c-.3 0-3.8.3-4 .3-.2-.2 0-.5-.2-.7 0 .1 0-.2-.1-.1v-.1c0 .1-.2-1.7-.3-2.5h0v.1-.4l-.1-.6s0-.3-.1-.3c0 0 0-.1-.1 0-.1 0 0-.1 0-.1v-.1h-.1v-.1c0-.1-.2-1-.3-2.2 0 .1 0 .2-.1.2v.1c-.1-.2-.1-.3-.1-.5v.1c.1 0 .1 0 .1-.1v-.2c-.1-.1 0-.1 0-.2l-.2-.9c-.1 0-.1 0-.2-.2 0-.5.1-.1-.1-.6l.1-.1h-.1c.1 0 .1-.2.2-.3 0-.1 0-.2-.1-.3-.1-.4-.3-2.3-.3-2.7 0 .1.1 0 .1 0v-.1c-.1 0 0 .1-.1 0 0-.1 0-.1-.1-.2.1 0 .1-.1.1-.1-.1-.1.1-.4-.1-.4-.1-.2.2-.1.1-.3h-.2s-.1-1.1-.2-1.2c.1 0 .1 0 .2-.1-.1-.2-.1-.4-.1-.6h.1c-.1-.8 0-1.5 0-2.3 0-.2.2 0 .1-.2 0-.1-.1-.2-.1-.2s0 .1-.1.1v-.1c.1 0 .1.1.1 0v.2c.1 0 0-.1 0-.2v-.1h.1c.7-.6 3.8-.5 3.8-.5h0v.2c.2.4 0 .8 0 1.2 0 .1 0 .4.1.6h-.1c0 .2.2.5.3.6h0c0 .1-.1.3.1.3 0 .2 0 .2.2.4h0c.1.3.1 1.8.2 2h-.1c.1.2 0 .6.2.8-.1.5.3 4.9.5 5.4.1.4.1 0 .2.5 0 .1.1.1.1 0 0 .2 0 .3-.1.5.2.9 0 .3.2 1.1h0l.5 3.2.1.1c-.1.1 0 .3 0 .4s.1 0 .1 0c-.1.1 0 .3 0 .4h0c-.1.2.2.3.1.6-.1-.2 0-.1.1 0zm-6.6-18c0-.1 0-.2.1-.3 0 .1 0 .2-.1.3zm.4 7.1c.1 0 .2 0 .3.1l-.1-.2-.2.1zm.2 1.6c0-.1 0-.1.1-.2-.1 0 0-.1-.1-.2l-.1.1c.1.1.1.2.1.3zm.5 1.8c-.1 0-.2-.2-.2-.2.1 0-.1-.2 0-.2 0-.1-.1 0-.1 0l.1.6v-.1c.1.1.1 0 .2-.1zm-.1.2h0v.2-.2zm0 .4v.2-.2z"/>
  <path class="live"
    d="M144.4 183.8l-.1-.1.1.1zm12.8 7.1c.1-.3.1-.6.2-.9.1-.6.3-1.2.2-1.2.1 0 .1 0 .2-.2.1-.5.2-.9.2-1.4v.1c.3-1.6.7-2.5 1.2-4.1.1-.3.2 0 .3-.3.1-.1 0-.4 0-.5-.1 0-.1.1-.1.1l.1-.3c0 .1 0 .3.1.1l-.1.3c.1 0 0-.1.1-.3v-.2h.1c.9-.9 3.9-.1 3.9-.1v.1l-.1.6c-.1.8-.4 1.7-.6 2.3a5.07 5.07 0 0 0-.2 1.3h-.1c-.1.5-.1 1.1-.1 1.4h-.1c0 .2 0 .7.2.7-.1.4-.3.3-.3.9v-.1c-.1.6-.9 3.6-1 4.1v-.1c0 .5-.3 1.1-.2 1.7l-.6 2-.2.7v.2c0 .1 0 .2-.1.3l-.1.6-.5 2.3-2.2.3c-.8.1-.8.1-.9.2h-.1l-.6.1c-.1 0-.2 0-.2.1h.1c-.3 0-.6.1-.9.1h-.9l-1.5.2-1.2-2.7c-.1-.1-.1-.3-.2-.4l-.1-.2v-.1l-.2-.4c-.1-.3-.2-.6-.4-.8l-1.3-2.9-2.9-6.5-.2-.2c0-.3-.2-.4-.2-.8-.1-.1-.1-.1-.1 0-.1-.3-.3-.5-.2-.7v.1c-.1-.5-.4-.6-.5-1.2h0c0-.2-.2-.4-.3-.6s.1-.1.1-.3c-.1 0-.1-.3-.2-.5.1.2.2.5.3.4-.1-.3.1-.1-.1-.4h-.1c-.1-.1-.2-.4-.1-.4 0 .1 0 .2.1.3.2-.1 3.8-.7 4.1-.7.3.3.4 1 .8 1.4 0-.1.1.2.2.2 0 .1 0 .1.1.2-.1-.1-.1-.2-.2-.2.2.6.6 1.3.8 1.9.1.4.4.4.4.5h-.1l.1.4c.1-.1.2-.1.2-.3.1 0 .1.1.1.2 0 0-.2-.1-.1 0 .1.3.1.1.3.4 0 0-.2-.2-.2.1.2.7 1.9 4.5 2.3 5.2 0-.1-.4 0-.4-.1l.2.3.1-.2c.3.3 1.4 2.5 1.8 2.9l-.1-.1c.2.3.3.6.5 1l-.1-.2c-.1.1-.1.2 0 .3v.1-.1h.1v.2l-.1.1.1-.1h.1v.1-.3h.3v.1l.1.1-.2-.2v-.1l.2-.7.6-2.2c0 .1.1.1.1 0v-.3c-.1 0-.1.1-.1.1 0-.1.1-.3 0-.4.1 0 .1-.2.1-.2-.1-.2.3-.7.1-.9.1-.5.2-.1.3-.5l-.2-.1c.2-.3.2-.5.3-.7zm-7.8-6.4h0zm5.9 12.5c0-.1 0-.1 0 0 .1-.1 0-.1 0 0h0zm.5-.2h0v-.1.1zm3.8-14.6c.1-.2.1-.4.3-.5-.1.3-.2.4-.3.5zm15.7 9.2h-.4c-.1 0-.1.1-.1.2v-.1h-.2c0 .1-.2-.1-.2-.1s.1.2.1.3v.1-.2c-.1 0-1.1.1-1.2.2v-.1c-.1.2-.5.3-.7.5l.1-.1c-.1 0-.1-.2-.2-.1v.3c0-.1-.1-.1-.2-.1v.1c0 .1-.1 0-.2 0v.1h-.1c0-.1 0-.1-.1-.2 0 .1 0 .1-.1.1 0-.1-.1.1-.1 0v.1c-.1 0-.1.1-.2.1-.2 0 0-.1-.2.1v-.1l-.1-.2c-.1-.2-.1.3-.1.1 0 .1 0 0-.1.1 0 .1.1.1.1.2-.1 0-.6.1-1 0l.3 2c0 .3.1.8.2 1.4h.2s-.1.3-.1.4l.1-.1v-.1c0-.1.2-.2.4-.3s.3-.1.4-.2h0c.1-.1.1-.1.2-.1h-.1c0 .2.1.2.2.2l-.1-.1c0-.1.1-.1.1-.1h.1c0 .1 0 .1.1.2 0-.2.1-.1.1-.2 0 .1.1-.1.1 0v-.1c.1 0 .1 0 .1-.1l.1-.1c.2 0 0 .1.3-.1v.1-.1c.1.2.1 0 .2.3 0-.1.1 0 .1-.1 0-.2-.1-.1-.1-.2.1 0 .1 0 .3-.1h1s0 .1.1.1l.1-.1c0-.1-.1 0 0-.1 0 0 .1.1.1 0 0 .1.1 0 .1.1 0-.1.2.1.2-.1.1-.1.1.1.2.1v-.2s.6-.1.6-.2c0 0 0 .1.1.1.1-.1.2-.1.3-.1.4-.1.8-.1 1.2-.1.1 0 0 .2.1.2s.1-.1.1-.1v-.1h.1v.1h-.1c0 .1 0 0 .1 0h0v.1c.1.1.1.2.2.3 0 .1.1.2.1.2l.3.9.2.7.3 1.2a1.75 1.75 0 0 1 .1.5h0l-.2-.2c-.2.2-.5.1-.7.1-.1 0-.3 0-.3.2v-.1l-.3.3s-.2-.1-.1 0c-.1 0-.2-.2-.3-.1h0c-.1 0-.1.1-.2.1h-.4c-.2 0-.5.1-.6.1v-.1c-.1.1-.3 0-.4.2h-1c-.4 0-.7.1-.9.1-.1 0-.1.1-.1.1h-.2v.1c-.1 0-.2 0-.3-.1l-.5.1-.6.1h-3.1l-.1.1c-.1-.1-.1 0-.2-.1-.1 0 0 .1 0 .1h-.2c-.1-.1-.2.1-.4 0h0c-.1 0-.1 0-.2.1-.1-.1 0-.1 0-.2 0 .1 0 .1-.1 0h-.1.1l.1-.1c-.1 0 0 .2-.1.2v-.2h-.1.2v.1h-.4c-.2-.2 0-.5-.3-.7v-.1c0-.3-.1-.6-.1-.9 0-.2-.2-.2-.3-.3h.1v-.2c-.1 0-.3 0-.3.1-.1 0 0-.1 0-.1s.1.1.1 0-.1 0-.1-.2c0 0 .2.1.2-.1l-.5-4.2v.1c-.1-.2-.1-.3-.2-.5l.1.1c.1 0 .1 0 .1-.1v-.1c-.1-.1-.1-.2-.1-.3v-.1.1-.2c-.1-.2-.1-.5-.1-.5v-.1c0-.1-.2-.2-.2-.3 0-.3.1-.2.1-.3v-.1s0-.1-.1-.1h.1v-.1h-.1.1v-.3c-.1-.2-.2-.9-.2-1.6 0-.1 0-.2-.1-.2l-.3-1.1s-.1-.5-.1-.8h-.1s-.1-1.2-.2-1.2l.1-.1-.1-.6h.1c-.1-.7-.1-1.5-.1-2.2 0-.1.2 0 .2-.2 0-.1-.1-.2-.1-.2v.1-.1c.1 0 .1.1.1 0v.2c.1 0 0-.1 0-.2v-.1h.1c.3-.2.9-.3 1.6-.4v-.2c.1-.2.3 0 .4-.2 0-.1.1 0 0-.1h.1v.1c.2 0 .4-.1.5 0 .1 0 .1-.2.1-.2v.1h.1l.2-.1c.2.1 1.3 0 1.5 0v.1c.1-.2.8-.1.9-.2h-.1c.1-.1.2-.1.3-.1h-.1c0 .2.1-.1.2-.1h0c.1 0 .1.1.2.1h.1v-.1c0-.2.1.1.1.1 0 .1.1-.1.1 0v-.1h.4c0-.1.1-.1.3-.1h1c.2 0 .3-.1.5-.1l.3.1v.1l.1-.1v-.1h.2c0-.1.2.1.3-.1.1 0 0 .2.2.1v-.2s.8 0 .7-.1c0 0 0 .1.1.1h.4v.2c.5 0 .9-.4 1.3-.3.1 0 0 .2.1.2s.1 0 .2-.1v-.1l.1.1s-.1.1 0 .1h-.1c0 .1.1 0 .1 0h.1v.1c0 .1.1.2 0 .4v1.1c0 .2-.1.5-.1.7l-.1 1.3v.5l-.4-.2-.3-.1c-.1 0-.2-.1-.3.1v-.1c-.1 0-.3.2-.3.2h0c-.1 0-.2.1-.2.3-.1-.1-.1-.2-.2-.1h0-1.1c-.1.1-.3 0-.4.2l-.3-.1h-.5c-.3 0-.6 0-.8.1h-.1s0 .1-.1.1c0 0-.4-.1-.3-.1-.1 0 0 .1 0 .1-.5.2-1.5.3-1.9.4-.1 0-.2 0-.3.1 0 .5.1 1.4.1 1.6h0c.1.2 0 .5.2.8v1.1c.2.1 1.1.1 1.3-.1.2-.1 0-.1.2-.1l4.2-.7c0-.1.1 0 .1 0-.1 0-.1.1-.1.1.1 0 0 .1.1 0v-.1c0 .2.3 3.3.3 3.5-.1.2-.2 0-.3.2 0-.1-.2-.3-.1-.2l-.4.1c.1 0 0 .1 0 .1v-.1zm-10.7-9.2c0-.1 0-.2.1-.3 0 .2 0 .2-.1.3zm1.2 8.3h0c0-.1-.1-.2-.1-.2-.1 0-.1.1-.1.1s.1 0 .2.1h0zm3.5-9.4v.1-.1zm2.1-.5c.1.1.1.1 0 0h0zm.1 4.2h0zm1.1 7.4h0zm2.1-.3s-.1-.1 0 0c-.1-.1-.1-.1 0 0h0zm1.9-7.6h0zm1.1 10.4h0c.1 0 .1.1.2.1h-.1l-.1-.1z"/>
  <path class="text"
    d="M116.4 136v2l-.1.3v.5l-.1.3v.2l-.1.1-.1.2c0 .1-.1.2-.2.3l-.2.2c-.2.3-.5.6-.8.9s-.6.5-.9.7l-.2.1-.2.2-.2.1c-.1 0-.1.1-.2.1l-.8.4c-.2.1-.4.1-.6.2h0c-.2.1-.7.2-1.2.3s-1.1.2-1.6.2c-.6.1-1.1.1-1.6.1h-1.1l-.2.1c-.2-.1-.4 0-.6-.1-.1 0-.1.1 0 .1-.2-.1-.5 0-.6-.1h0c-.1-.1-.3-.1-.5 0h-.5c-.2-.1-.3 0-.5 0-.1-.1 0-.1-.1-.2h-1.3c-.2-.2 0-.5-.3-.7 0 .1 0-.1-.1 0v-.1c.1 0 .1.1.2.1 0-.3-.1-.6-.1-.9 0-.2-.2-.2-.3-.3h.1v-.2c-.1 0-.2 0-.3.1-.1 0 0-.1-.1-.1h.1c0-.1-.1 0-.2-.2 0 0 .2.1.2-.1 0-.3-.2-2.2-.3-2.6h.4l-.1-.2-.1.1c-.2-.2-.5-1.3-.7-1.4v.1c-.1-.2-.1-.3-.2-.5l.1.1c.2-.1.1-.2.1-.3v.1c-.2-.1-.1-.2-.1-.4v.1c-.1 0 0-.1 0-.2.1.1.1 0 .2-.1-.1 0-.1-.2-.2-.2.1 0-.1-.2 0-.2 0-.1-.1 0-.1 0 0-.1-.1-.2-.2-.5 0-.4.1-.1-.1-.5l.1-.1h-.1c.2-.1 0-.3.3-.3-.1 0 0-.1-.1-.2-.1.1-.1.2-.2.2-.1-.4-.1-2.2-.2-2.6 0 .1.1 0 .1 0v-.1c-.1 0 0 .1-.1 0-.1 0 0-.1-.1-.2.1 0 .1-.1.1-.1-.1-.1.1-.3-.2-.4 0-.2.2 0 .1-.3h-.2s-.1-1.1-.2-1.1c.1 0 .1 0 .1-.1l-.1-.6h.1c-.1-.7 0-1.2 0-1.9 0-.1.2 0 .2-.2 0-.1-.1-.2-.1-.2s0 .1-.1 0v-.1c0 .1.1.1.1 0v.1c.1 0 0-.1 0-.2v-.1h.1c.2-.2.5-.4 1-.4-.1-.2-.1-.4-.1-.4h0l.4.1c.2-.2.5-.3.8-.3.2-.1.5-.1.7-.2l.4-.1c.2 0 .3-.1.4-.2v.1l.4-.2c.1 0 .1-.1.2-.1h.2c.1 0 .5-.1.4-.3.2 0 .2 0 .3.1.1 0 .1 0 .3-.1h-.1c.2-.1.8-.2 1.5-.2h3.1c.2.1.6.2 1 .4h.2c.1 0 .1 0 .2.1l.2.1h.2c.1 0 .1.1.2.1l.2.1.2.2.2.1.5.5s0 .1.1.1l.1.2c.1.1.1 0 .2.1.1 0 .1.1.1.2s0 .1.1.2.1.2.1.3c.1.1.1.2.1.3 0 0 0 .1.1.1v.7l.1.1s.1 0 .1.4c0 .1.1.1.1 0v.6l-.1.2c0 .1-.1.1-.1.3v1.1c-.4 1.2-1.1 1.7-1.2 1.7h.1c.2 0 1.1.3 1.8.7.6.4 1 .8 1.2 1.1l.1.1v.1l.4.8.1.4.2.5c0 .1.1.2.1.3v.1l.1.1v.5c0-.3.1-.2.1-.4zm-17-10.5c0-.1 0-.2.1-.3 0 .2 0 .2-.1.3zm5.9 6.1c.2 0 .2-.1.3-.1v.1h.2c0-.1 0-.3-.1-.3 0-.1.1 0 .1 0v.1c.2 0 0-.1.2-.2 0 0-.1.2.1.2.1 0 .3 0 .6-.1.2-.1.5 0 .8-.1s.5-.2.7-.3l.4-.2s0 .1.1.2v.1-.1l-.1-.1v-.1c0-.1.2-.1.2-.1v-.4c0-.1.1-.5.1-.6v-.4h.2v-.1h-.1v-.4h-.1v-.1h.1s-.2 0-.2-.1v-.1c.1 0 0 0 0-.1v-.1h-.1v-.2s-.1 0-.1-.1v-.4l.1-.1h-.1c.1 0 .1-.1.1-.1l.1-.1h-.1c-.1 0-.1.1-.1.1v.1-.3l-.3-.1c.1 0 0-.1 0-.1h-.1v.1c-.1 0-.1-.1-.1.1v-.1h-.2c-.1 0-.1 0-.2.1-.2 0 0-.2-.2-.2v.2l-.6.1c-.3 0-.6.1-.5.1l-.1-.1-.6.2v-.1l-1.2.3c-.1 0-.2 0-.2.1 0 .5.1 1.6.1 1.8h0c.1.2 0 .5.2.7v1.2c.1.2.4.2.7.2zm6.5 5.4s-.1-.1 0 0c-.1-.1 0-.1 0-.1h0s0-.1 0 0c0-.1-.1 0-.1 0v-.8s.1 0 .1-.1h-.1s.1 0 .1-.1v-.2l.1-.1h-.1v-.1l-.1.1s0 .1-.1.1l-.1-.2v-.1s0-.1-.1-.1h0-.2s-.1 0-.1-.1l-.4-.4c.1 0 .1-.1 0-.1h-.1v.1c-.1 0-.1-.1-.2 0v-.1h-.4s-.1 0-.1.1h-.1v-.1c0-.1 0-.1-.2-.1v.2h-.7c-.3 0-.6.1-.7.1 0-.1 0-.1-.1-.1-.3.1-.5.1-.8.2 0 0 .1 0 0-.1l-1.4.2c-.3 0-.5.1-.8.1l.3 2.1.2 1.2.8.1c.2.1.3-.2.4-.2v.1h.3c0-.1 0-.3-.1-.3 0-.1.1 0 .1 0s-.1.1 0 .1c.2 0 0-.1.3-.1 0 0-.2.2.1.2h.6c.3 0 .7 0 1-.1.3 0 .7-.1 1-.2h.3c.1 0 .2 0 .2-.1v.4c.1 0 .1-.1.2-.2 0 0-.1 0-.1-.1s.1-.1.3-.2c0 0 .1 0 .1-.1l.1-.1h.2l.4-.4v-.6c.2.1.2.1.2 0h-.1v-.1l-.1.4h-.1v-.1c0 .1 0 .1.1.1h0zm-6.3-9.4h0zm21.6 5h-.4c-.1 0-.1.1-.1.2v-.1h-.2c0 .1-.2-.1-.2-.1s.1.2.1.3v.1-.2c-.1 0-1.1.1-1.2.2v-.1c-.1.2-.5.3-.7.5l.1-.1c-.1 0-.1-.2-.2-.1v.3c0-.1-.1-.1-.2-.1v.1c0 .1-.1 0-.2 0v.1h-.1c0-.1 0-.1-.1-.2 0 .1 0 .1-.1.1 0-.1-.1.1-.1 0v.1c-.1 0-.1.1-.2.1-.2 0 0-.1-.2.1v-.1l-.1-.2c-.1-.2-.1.3-.1.1 0 .1 0 0-.1.1 0 .1.1.1.1.2-.1 0-.6.1-1 0l.3 2c0 .3.1.8.2 1.4h.2s-.1.3-.1.4l.1-.1v-.1c0-.1.2-.2.4-.3s.3-.1.4-.2h0c.1-.1.1-.1.2-.1h-.1c0 .2.1.2.2.2l-.1-.1c0-.1.1-.1.1-.1h.1c0 .1 0 .1.1.2 0-.2.1-.1.1-.2 0 .1.1-.1.1 0v-.1c.1 0 .1 0 .1-.1l.1-.1c.2 0 0 .1.3-.1v.1-.1c.1.2.1 0 .2.3 0-.1.1 0 .1-.1 0-.2-.1-.1-.1-.2.1 0 .1 0 .3-.1h1s0 .1.1.1l.1-.1c0-.1-.1 0 0-.1h.1c0 .1.1 0 .1.1 0-.1.2.1.2-.1.1-.1.1.1.2.1v-.2s.6-.1.6-.2c0 0 0 .1.1.1.1-.1.2-.1.3-.1.4-.1.8-.1 1.2-.1.1 0 0 .2.1.2s.1-.1.1-.1v-.1h.1v.1h-.1c0 .1 0 0 .1 0h0v.1c.1.1.1.2.2.3 0 .1.1.2.1.2l.3.9.2.7.3 1.2a1.75 1.75 0 0 1 .1.5h0l-.2-.2c-.2.2-.5.1-.7.1-.1 0-.3 0-.3.2v-.1l-.3.3s-.2-.1-.1 0c-.1 0-.2-.2-.3-.1h0c-.1 0-.1.1-.2.1h-.4c-.2 0-.5.1-.6.1v-.1c-.1.1-.3 0-.4.2h-1c-.4 0-.7.1-.9.1-.1 0-.1.1-.1.1h-.2v.1c-.1 0-.2 0-.3-.1l-.5.1-.6.1h-3.1l-.1.1c-.1-.1-.1 0-.2-.1-.1 0 0 .1 0 .1h-.2c-.1-.1-.2.1-.4 0h0c-.1 0-.1 0-.2.1-.1-.1 0-.1 0-.2 0 .1 0 .1-.1 0h-.1.1l.1-.1c-.1 0 0 .2-.1.2v-.2h-.1.2v.1h-.4c-.2-.2 0-.5-.3-.7v-.1c0-.3-.1-.6-.1-.9 0-.2-.2-.2-.3-.3h.1v-.2c-.1 0-.2 0-.3.1-.1 0 0-.1 0-.1s.1.1.1 0-.1 0-.1-.2c0 0 .2.1.2-.1l-.5-4.2v.1c-.1-.2-.1-.3-.2-.5l.1.1c.1 0 .1 0 .1-.1v-.1c-.1-.1-.1-.2-.1-.3v-.1.1-.2c-.1-.2-.1-.5-.1-.5v-.1c0-.1-.2-.2-.2-.3 0-.3.1-.2.1-.3v-.1s0-.1-.1-.1h.1v-.1h-.1.1v-.3c-.1-.2-.2-.9-.2-1.6 0-.1 0-.2-.1-.2l-.3-1.1s-.1-.5-.1-.8h-.1s-.1-1.2-.2-1.2l.1-.1-.1-.6h.1c-.1-.7-.1-1.5-.1-2.2 0-.1.2 0 .2-.2 0-.1-.1-.2-.1-.2v.1-.1c.1 0 .1.1.1 0v.2c.1 0 0-.1 0-.2v-.1h.1c.3-.2.9-.3 1.6-.4v-.2c.1-.2.3 0 .4-.2 0-.1.1 0 0-.1h.1v.1c.2 0 .4-.1.5 0 .1 0 .1-.2.1-.2v.1h.1l.2-.1c.2.1 1.3 0 1.5 0v.1c.1-.2.8-.1.9-.2h-.1c.1-.1.2-.1.3-.1h-.1c0 .2.1-.1.2-.1h0c.1 0 .1.1.2.1h.1v-.1c0-.2.1.1.1.1 0 .1.1-.1.1 0v-.1h.4c0-.1.1-.1.3-.1h1c.2 0 .3-.1.5-.1l.3.1v.1l.1-.1v-.1h.2c0-.1.2.1.3-.1.1 0 0 .2.2.1v-.2s.8 0 .7-.1c0 0 0 .1.1.1h.4v.2c.5 0 .9-.4 1.3-.3.1 0 0 .2.1.2s.1 0 .2-.1v-.1l.1.1s-.1.1 0 .1h-.1c0 .1.1 0 .1 0h.1v.1c0 .1.1.2 0 .4v1.1c0 .2-.1.5-.1.7l-.1 1.3v.5l-.4-.2-.3-.1c-.1 0-.2-.1-.3.1v-.1c-.1 0-.3.2-.3.2h0c-.1 0-.2.1-.2.3-.1-.1-.1-.2-.2-.1h0-1.1c-.1.1-.3 0-.4.2l-.3-.1h-.5c-.3 0-.6 0-.8.1h-.1s0 .1-.1.1c0 0-.4-.1-.3-.1-.1 0 0 .1 0 .1-.5.2-1.5.3-1.9.4-.1 0-.2 0-.3.1 0 .5.1 1.4.1 1.6h0c.1.2 0 .5.2.8v1.1c.2.1 1.1.1 1.3-.1.2-.1 0-.1.2-.1l4.2-.7c0-.1.1 0 .1 0-.1 0-.1.1-.1.1.1 0 0 .1.1 0v-.1c0 .3.3 3.3.3 3.5-.1.2-.2 0-.3.2 0-.1-.2-.3-.1-.2l-.4.1c.1 0 0 .1 0 .1v-.1zm-10.8-9.2c0-.1 0-.2.1-.3.1.1 0 .2-.1.3zm1.2 8.2h0c0-.1-.1-.2-.1-.2-.1 0-.1.1-.1.1.1 0 .2.1.2.1h0zm3.5-9.3v.1-.1zm2.2-.5h0zm.1 4.1s0 .1 0 0h0zm1.1 7.4h0c0 .1 0 .1 0 0zm2-.3c0-.1 0-.1 0 0h0zm1.9-7.5c.1 0 .1-.1 0 0 .1-.1 0 0 0 0zm1.2 10.3c.1 0 .1.1.2.1h-.1l-.1-.1z"/>
  <path class="text"
    d="M142.6 120.2c.4.7.3 3.8.3 3.8h0l-.2-.2c-.3.1-.6 0-.8-.1-.1 0-.3 0-.4.1v-.1c-.1 0-.3.2-.4.2h0c-.1 0-.2.1-.2.3-.1 0-.1-.2-.3-.1h0c-.2.1-1.2 0-1.4.1v-.1c-.2.1-.4 0-.5.2h-.1c0 .5.1 1.1.1 1.3h0c.1.2 0 .5.2.8-.1.5 0 2.4.2 2.9.1.4.1 0 .2.5 0 .1.1.1.1 0 0 .1 0 .3-.1.5l.6 3.5.5 3.3.1.1c-.1.1 0 .2-.1.4 0 .1.1.1.1 0 0 .1.1.3 0 .4h0c-.1.2.2.3.1.6h0c-.1.1 0 .2.1.3 0 .1-.1 0-.2.1.1 0 0 .1.1.2 0-.1-.1-.2-.2-.2 0 .1-.1 0-.1.2h.1v.1c-.2 0-3.7.5-4 .4-.2-.2 0-.5-.3-.7 0 .1 0-.1-.1 0v-.1c0 .1.1.1.2.1v-.6c-.1.1 0-.3 0-.2h0c-.1 0 0-.1 0-.1s-.1.4-.1.3 0-.1.1-.2h0c0-.1.1-.2 0-.3v.2c0-.6-.5-3.6-.6-3.9h.3l-.1-.2-.1.1c-.2-.2-.5-1.3-.7-1.5v.1c-.1-.2 0-.3 0-.5l.1.1c.2-.1.1-.2.1-.3v.1c-.2-.1-.1-.3-.1-.5v.1-.2c.1.1.1 0 .2-.1-.1 0-.2-.2-.2-.2.1-.1-.1-.2 0-.2h-.1c0-.1-.2-.2-.2-.5 0-.4.1-.1-.1-.6l.1-.1h-.1c.2-.1 0-.3.2-.4-.1 0 0-.1-.1-.2-.2 0-.1.2-.2.2-.1-.4-.4-2.3-.3-2.7 0 .1.1 0 .1 0l-.1-.2s0 .1-.1.1c0-.1.1-.1-.1-.2.1 0 .1-.1.1-.1-.1-.1.1-.3-.2-.4-.1-.2.2-.1.1-.3h-.2s0-.5-.1-.9h-.2c-.4 0-1.6.3-2 .2l-.1.1c-.1-.1-.2 0-.3-.1-.1 0 0 .1 0 .1-.1-.1-.2 0-.3-.1h0c-.2-.1-.2.2-.4.1-.1-.1-.1 0-.2.1-.1 0 0-.1-.1-.2 0 .1-.1.1-.2 0 .1 0 .2 0 .2-.2-.1 0 0-.1-.1 0v.1h-.1.1c0-.2-.2-3.5-.2-3.7.1-.2.3 0 .5-.2-.1 0 .1 0 0-.1h.1c-.1 0-.1.1-.1.1h.6c.1 0 .2-.2.2-.2v.1h.1c0-.1 0-.3-.1-.3 0-.1.1 0 .1 0v.1c.1 0 0-.1.1-.1 0 0-.1.1 0 .2.3.1 1.6-.1 1.8-.1v.4l.1-.1-.1-.1c0-.1.2-.2.4-.2h0c.3-.1.6 0 .7-.1h-.1c.1-.1.2-.1.4-.1l-.1.1c0 .1.1.1.2.1l-.1-.1c.1-.1.2 0 .3 0h-.1.1c-.1.1.1.1.1.2 0-.1.1-.2.2-.2 0 .1.1-.1.1 0v-.1c.1 0 .2-.1.3-.2.3 0 .1.1.4 0v.1-.1c.1.2.2.1.3.3 0-.1.1 0 .1-.1 0-.2-.1-.1-.2-.2.3-.1 1.6 0 1.9 0-.1 0 0 .1 0 .1l.1-.1s-.1 0 0-.1c0-.1.1 0 .1-.1 0 .1.1.1.1.1 0-.1.2.1.3-.1.2 0 0 .2.2.1v-.2s.8 0 .8-.1c0 .1 0 .1.1.1s.2 0 .4-.1v.1c.6-.1 1.1-.1 1.6-.1.1 0 0 .2.1.2s.1 0 .2-.1c0 0-.1 0 0-.1h.1c0 .1-.1.1 0 .1h-.1c.3.3.4.1.5.3v-.1.1zm-6.5 17.7v.1-.1zm.1.5h0v-.4.4zm6.3-18.5c.1 0 .1 0 .2.1 0 .1-.1 0-.2-.1zm20.3 16.5c.1.1.2.3.1.4 0 0 0-.2-.1-.3-.2.1-3.8.9-4 .9-.3-.3-.4-.9-.8-1.3 0 .1-.1-.2-.2-.1 0-.1 0-.2-.1-.3l.2.2-1-2.1c-.1-.4-.4-.3-.5-.4h.1c-.1.1-.2.1-.4.2-.1.1-.2.1-.3.1l-.3.1c-.2 0-.3.1-.4.1v-.3l-.1.2.1.1c0 .1-.3.3-.5.4h-.2l-.4.2h.1c-.1.1-.2.1-.4.2l.1-.1c-.1-.1-.2-.1-.2-.1h.1c-.1.1-.2 0-.4.1h0c0-.1 0-.1-.1-.1 0 .1-.1.1-.2.2 0-.1 0-.1-.1 0 0 0 0 .1-.1 0-.1 0 0 .1 0 .1-.1 0-.2.1-.3.2-.4 0-.1-.1-.4.1v-.1.1c-.1-.2-.3-.1-.3-.3 0 .1-.1 0-.2 0 0 .2.2.1.2.2h-1.7l-.4-.1c.1 0 0-.1 0-.1h-.1v.1c-.1 0-.1-.1-.1 0 0-.1-.1-.1-.1-.1 0 .1-.1 0-.2 0s-.1 0-.2.1c-.2 0 0-.2-.2-.2v.1h-.1l-1 2.9c-.1.3-.2 0-.3.3-.1.1 0 .3 0 .5 0 0 0-.1.1-.1l-.1.3c0-.1 0-.2-.1-.1l.1-.3c-.1 0 0 .1-.1.3v.2h-.1c-1 .8-4.1-.9-4.1-.9v-.1l.4-.4c.1-.8.5-1.7.7-2.2.1-.3.3-.9.3-1.3h.1c.1-.4.1-1 .1-1.3h0c0-.2 0-.6-.1-.6.2-.4.3-.3.3-.8v.1c.1-.6 1-3.4 1.1-4h0c0-.5.3-1 .3-1.6.1-.4.4-1.3.8-2.4.1-.2.1-.5.2-.8l.1-.2.1-.3.2-.7.6-2.3c.4 0 .7-.1.9-.1s.4 0 .5-.1h.4c.2 0 .3-.1.4-.1h.2s.1 0 .5-.1c.1 0 .2-.1 0-.1l1.2-.1h.9c.2 0 .4-.1.7-.1l1.3 2.6c.1.1.1.3.2.4v.2l.1.1.2.4.4.9 1.5 3 3.1 6.1.2.2c0 .3.2.4.3.8 0 .1.1.1.1 0 .1.3.3.5.3.7h-.1c.1.5.6.9.7 1.4 0 .2.2.4.3.5.1.2-.1.1-.1.3.1 0 .2.3.2.5-.1-.2-.2-.5-.3-.4.1.3-.1.1.1.4h.3zm-15.5 2.4c-.1.2-.1.4-.3.5.1-.2.2-.3.3-.5zm-.1 0h0c0-.1 0 0 0 0zm7.7-8.7l-1.2-2.4h.4l-.2-.3v.2c-.4-.3-1.5-2.4-1.9-2.8l.1.1c-.2-.2-.3-.4-.4-.6l-.1.3a29.19 29.19 0 0 0-.8 2.6c0-.1-.1-.1-.1 0l-.1.3c.1 0 .1-.1.1-.1 0 .1-.1.3-.1.4-.1 0-.1.2-.1.2.1.2-.3.7-.1.9-.1.4-.2 0-.3.5l.2.1s-.1.2-.1.4l-.2.8v.2c.1 0 .2 0 .2-.1h.9c.4 0 .7 0 .9-.1s0-.1.3-.1v-.1c.1 0 .2 0 .3.1.1 0 .1-.1.2-.1l.3-.1.5-.1 1-.3.3.1zm-3.2-5.9v.1-.1zm1.2 10.7h0z"/>
  <path class="text"
    d="M72.1 161.6c0 .2-.1.4-.2.6s-.1.5-.2.7l-.5 1.2-.2.4c0 .1-.1.1-.1.1h-.1l-.3-.4c-.3 0-.7-.1-1-.2l-.8-.3c-.1 0-.3 0-.5-.1h-.5v-.1c-.2 0-.4 0-.6.1l-.2.1h-.2v-.1c-.1 0-.2 0-.3.1-.1 0-.2.1-.1.2-.2 0-.2-.1-.3-.1h-.1c-.1 0-.1 0-.2.1h.1c-.1 0-.1 0-.2.1h-.3c-.2 0-.5.1-.8.2-.2.1-.5.2-.7.3l-.3.3v.1l-.4.4v.3c-.1.1-.3.3-.4.5 0 .1-.1.1-.1.2v.4l-.1.1v.3c-.1.4-.1.9-.1 1.3v.9l.2.8c0 .1.1.2.1 0v.8l.1.6.2.6c.1.4.3.8.5 1.2v.4l.1.1v.2l.1.1s0 .1.1.1h.1l.1.1c.2.2.4.3.6.4h0c.1 0 .3.1.6.2h1.2l.5-.1h.2c.3 0 .5-.1.7-.1h.4l.2-.1.4-.1.1-.2c.1 0 .2 0 .3-.1.1 0 .2-.1.3-.1s0-.1 0-.1c.1 0 .2-.1.3-.1.1-.1.2-.1.2-.1v.1c.2 0 .3-.1.4-.2s.2-.2.4-.2h0c.2 0 .3-.2.4-.3.2 0 .1.1.2.1 0-.1.2-.2.3-.2-.2.1-.3.2-.2.3.2-.1.1.1.3-.1l-.1-.1.2-.1s-.1 0-.1.1.2.3.3.7.5.7.6 1.1c.2.4.5.8.6 1.2l.2.7c-.1.2-.4.3-.6.4s-.9.4-1.1.6c.1 0-.2.1-.1.2-.1 0-.2 0-.3.1l.2-.2c-.3.1-.6.3-.9.4l-1 .3c-.2 0-.3.1-.3.2-.1.1-.1.2-.1.2v-.1c-.1 0-.3.1-.4.1l-.5.3c-.2 0-.6.1-1.1.1-.5.1-1.2.1-1.9.1-.2 0-.3 0-.5-.1h-.5l-.5-.1c-.1 0-.3-.1-.5-.1l-.2-.1c-.1 0-.1-.1-.2-.1l-.4-.2-.2-.2c-.1 0-.1-.1-.2-.1 0 0 .1 0 .2-.1l.2-.1-.2-.1-.4-.3c0 .1.1.2.1.3l-.3-.1s-.1 0-.1-.1h-.1l-.2-.1-.3-.3-.2-.1c-.1-.1-.2-.2-.3-.2l-.5-.5H60s0-.1-.1 0c-.1-.1-.1-.2-.2-.2l-.1-.1v-.1l-.3-.3-.1-.2-.2-.2s0 .1.1.1l-.4-.4v-.2c0-.1 0-.1-.1-.2 0-.1 0-.1-.1-.2v-.1c0 .1 0 .1.1.1l.1.1c.1-.1.1-.2 0-.3 0-.1-.1-.2-.1-.4v.2a.76.76 0 0 1-.2-.4l-.1-.6v.2c-.1-.1-.1-.2-.1-.4 0 .1.1 0 .1 0v-.2c-.1.2-.2-.3-.3-.4.1 0 0-.1 0-.3 0-.1-.1-.2 0-.2-.1-.1-.1 0-.1 0 0-.1 0-.1-.1-.2 0-.1 0-.2-.1-.2l-.1-.3V170l.1-.1-.1-.1c.1 0 .1-.1.1-.2v-.2c0-.1 0-.3.2-.3-.1 0 0-.1 0-.2v-.3c-.1.1-.1.2-.1.3v.1l-.1.1v-2.2l.1-.5.1-.3v-.2l.1-.2v-.2c.1-.2.1-.4.2-.5l.1-.3v-.3l.1-.2v-.2l.1-.1.4-.8.3-.5c-.1.2 0 .1.1 0l.2-.3c-.1 0-.1.1-.1 0s.1-.2.2-.2c0-.1.1-.1.1-.2 0 .1.2-.1.2-.1 0-.1.2-.2.4-.4s.4-.3.4-.5l.2-.2h.5v-.2s.1 0 .1-.1l.8-.4.1-.1h.1l.3-.1c.1 0 .2-.1.3-.1h.5l.2-.1.3-.1h.1c.1 0 .1.1.2.1l1.5-.3c-.1 0-.1 0 0 .1.9-.1 1.7 0 2.5.1s1.6.3 2.4.5c.3.1 0 .2.2.2.2.1.4 0 .5 0 0 0-.1 0-.1-.1l.3.1c-.1 0-.3 0 0 .1h-.1.3v.1c.2.4.3.8.2 1.2zM62 178.4h0zm9.6-18c-.1 0-.1-.1-.2-.1 0 .1 0 .1.2.1zm0 12.6h0zm0-.1h0zm.2-12.6c.2.1.4.2.5.3-.1 0-.2-.1-.3-.1l-.2-.2zm20.4 7.7v2.4l-.1.4v.3l-.1.2v.4l-.2.8-.2.5c0 .1 0 .1-.1.2l-.3.6-.2.3-.3.4c0 .1-.1.1-.1.2l-.1.2v.1l-.3.3c-.1.1-.2.2-.3.2l-.1.1c0 .1-.1.1-.2.1l-.2.1h-.2s-.1 0-.1.1c-.2.2-.1.2 0 .1-.2.1-.4.3-.6.4s-.4.2-.5.3l.1-.1c-.2.1-.4 0-.5 0 0 .1-.1.1-.2.1l-.1.1h-.1l-.4.2c-.1 0-.2 0-.2.1-.1 0-.2 0-.3.1h0-.2l-.2.1-.5.2c-.2 0-.2 0-.2-.1 0 0 0-.1-.2-.1-.1.1-.4.1-.7.1h.5c.1 0 .1 0 .2-.1h-.5c-.1 0-.2.1-.4.1h-.3l-.5.1-1.4-.1c-.3 0-.3 0-.5-.1h-.1c-.1 0-.4 0-.5-.1l-.2-.1h-.2l-.4-.2-.4-.1-.4-.2c-.1 0-.2-.1-.4-.2-.1 0-.2-.1-.3-.1h-.1l-.1-.1-.3-.2-.2-.1-.2-.2-.2-.1.1-.1-.2-.1-.4-.4s-.1 0-.1-.1l-.3-.3c-.1 0 0-.1-.1-.2l-.2-.1-.1-.2c0-.1-.1-.1-.2-.2 0 0 0-.1-.1-.1v-.1l-.1-.1c-.1-.1-.1-.3-.2-.3h-.1c-.1-.2-.1-.3-.1-.4v-.3c0-.1 0-.2-.1-.3v-.2c0-.1-.1-.2-.1-.2v.1l-.1-.2v-.2s0-.1-.1-.1c0-.1-.1-.2-.1-.3l-.1-.4-.4-1.8-.2-1.5V165l.1-.3v-.9c0-.1 0-.2.1-.3v-.2l.1-.2v-.2l-.4.1.1-.1.2-.4.1-.3c0-.1 0-.1.1-.2l.1-.1.2-.3.2-.2 1-1.1.3-.3.3-.2c.2-.2.4-.3.6-.5.1 0 .1-.1.1-.1l.2-.1c.1-.1.2-.1.3-.2s.2-.1.3-.2l.3-.1h.2s.1 0 .1-.1h.2l.4-.2c.1 0 .1 0 .2-.1h.5l.7-.2h.5l.7-.1c.1 0 .1-.1.2-.1H84c.5.1.9.1 1.4.3.5.1 1 .3 1.6.6l1.4.9.2.1c0 .1.1.1.2.2l.2.1.5.5c.1 0 .1.1.1.2l.3.3c0 .1.1.1.1.2v.1l.1.1.2.3c.1.1.1.2.2.3l.1.1v.1l.2.5.2.3v.1l.1.2c.2.4.2.8.4 1.1v-.1c0 .1.1.2.1.4 0 .1 0 .1.1.2 0 .1 0 .2.1.2l.1.6c0 .1 0 .2.1.3v.3c0 .1.1.2.1.3l.1 1.1v.3zm-4.8-2.8h.2c.1 0 .2 0 .2.1l-.1-.2-.1-.1v-.1.2c-.1-.1-.2-.3-.3-.5l-.1-.2v-.2l-.1-.1-.2-.3-.1-.1c-.2-.3-.4-.5-.6-.6h-.1l-.1-.1h-.1l-.1-.1-.4-.2h-.2l.2.1c0-.1 0-.2-.1-.2l-.1-.1H85v.2h-.2s-.1 0-.1-.1l-.1-.1-.2-.1.1.1h-.2c.1 0 .1 0 0-.1h-.1v-.1h-.1c0 .1 0 .1-.1.1h-.2c0-.1-.1-.1-.2-.1h-.2c-.1 0-.1.1-.1.1h-2.1l-.1-.1v.1c-.1-.1-.1-.1-.2-.1h-.4l-.2-.1c0 .1 0 .1-.1.1h-.1l-.1.1h.4l-.2.1h-.3l-.1.1h-.2l-.1.1-.5.3-.6.6v.4l-.1.2v.2l-.1.1-.2.5v.4s-.1 0-.1.1v.3h.1v.5c.1.1 0 .3 0 .4v.2c0 .1 0 .1.1.2v.3c-.1 0-.1.1-.1.3h.2v.4l.1.5v.8c0 .1.1.3.1.4v.3c-.1 0-.1.1-.1.2l.1.2v.1l.1.1c.1.2.2.3.3.5h-.1c.1.3.3.5.5.7s.4.4.6.5l.1.1h.2l.2.1h.4c.3.1.6.3.9.3h.1v.1s0 .1.1.1h.5c-.1.1-.2.1-.1.1h-.1.3v.2c.8.1 1.2 0 1.8-.1l.1-.1.2-.1h.4c.2-.1.5-.2.6-.4h.2c.3-.1.5-.1.7-.3l.6-.6c.1-.1.1-.1.1-.2v-.4h.1l.1-.1v-.6l.1-.1c.1-.1.2-.5.2-1v-3.1c0-.1-.1-.3-.1-.4l-.1-.4v-.3zm-5.1 8.3h-.1c-.1 0 0 0 .1 0-.1 0-.1 0 0 0zm1-11.3c0 .1 0 .1 0 0h0z"/>
  <path class="text"
    d="M114.7 173.6c0 .1-.1 0-.2.1.1 0 .1.1.1.2 0-.1-.1-.2-.2-.2 0 .1-.1 0-.1.2h.1v.1c-.3 0-3.8.3-4 .3-.2-.2 0-.5-.3-.7 0 .1 0-.1-.1 0v-.2c.1.1.1.1.2.1 0-.3-.1-.6-.1-.9 0-.2-.2-.2-.3-.3h.1v-.2l-.1-.3a27.84 27.84 0 0 0-.3-2.7h.1c-.2-.2-.5-1.3-.7-1.5v.1c-.1-.2-.1-.3-.2-.5l.1.1c.2-.1.2-.2.1-.3v.1c-.2-.1-.1-.2-.1-.5v.1c-.1 0 0-.1 0-.2.1.1.1 0 .2-.1-.1 0-.1-.2-.2-.2.1-.1-.1-.2 0-.2 0-.1-.1 0-.1 0 0-.1-.1-.2-.2-.5 0-.4.1-.1-.1-.6l.1-.1h-.1c.2-.1.1-.2.1-.3 0 0 0 .1-.1.1 0 .1-.1.1-.1.2s-.1.1-.1.2l-.3.5.1-.1-.1.2-.2.2-.2.1c-.1 0-.1.1-.1.1l-.1.1.2-.2h-.2s-.1 0-.1.1v.1h-.1.2c0 .1-.1.1-.1.2l-.4.2h-.1l-.1.1h.2c-.1.1-.2.1-.3.1.1-.1 0-.1 0-.1h-.2c.2.1-.2.2-.3.3-.1 0-.1 0-.2.1s-.1.1-.2 0c-.1.1 0 .1 0 .1h-.2c-.1 0-.1 0-.2.1 0 .1-.1.1-.2.1s-.2.1-.3.1h-1.2v.1l-.1.1c0-.1-.1-.1-.1-.1h-.2c-.1 0-.2-.1-.3-.2h-.4c0 .1.1.1.2.1s.2 0 .2.1h-.5l-.3-.1h-.3c-.5-.1-1-.3-1.5-.6L99 166l-.4-.3s0-.1-.1-.1c0 .1 0 .3.1.4.1.4.1 0 .2.5 0 .1.1.1.1 0 0 .1 0 .3-.1.5.2.9.3 2.7.5 3.5h0l.4 3.1.1.1c-.1.1 0 .2 0 .4 0 .1.1.1.1 0 0 .1.1.3 0 .4h0c-.1.2.2.3.1.6h0c0 .1.1.2.1.3s-.1 0-.2.1c.1 0 .1.2.1.2 0-.1-.1-.2-.2-.2 0 .1-.1 0-.1.2h.1c.1.1 0 .2 0 .2v-.1c-.3 0-3.7.3-3.9.3-.2-.2 0-.5-.2-.7 0 .1-.1-.1-.1-.1v-.1c0 .1.1.1.1.1 0-.3-.1-.7-.1-1 0-.2-.2-.2-.3-.3h.1v-.2c-.1 0-.3 0-.3.1-.1 0 0-.1 0-.1h.1c0-.1-.1 0-.2-.2 0 0 .2.1.2 0 .1-.3-.2-1.7-.3-2.4h0v-.2c0-.3 0-1-.1-1.3 0-.2-.1-.3-.1-.4v.1c-.1-.2-.1-.3-.1-.5l.1.1.1-.1v-.1c-.2-.1-.1-.2-.1-.5v.1-.2c.1.1.1 0 .1-.1h0c-.1 0-.1-.2-.1-.2.1 0-.1-.2 0-.2 0-.1-.1 0-.1 0 .1-.1-.1-.2-.1-.5 0-.4.1-.1-.1-.6l.1-.1h-.1c.1 0 0-.1.1-.1v-.3l-.1.1c-.1-.4-.4-2.3-.4-2.7 0 .1.1 0 .1 0v-.2c-.1 0 0 .1-.1 0 0-.1.1-.1-.1-.2.1 0 .1-.1.1-.1-.1 0 0-.1 0-.3v-.1l-.1-.1c0-.1 0-.1.1-.2v-.1h-.1s-.1-1.1-.2-1.2c.1 0 .1 0 .1-.1-.1-.2 0-.4-.1-.6h.1l-.2-2.3c0-.2.2 0 .2-.2 0-.1-.1-.2-.1-.2v.1-.1c.1 0 .1.1.1 0v.2c.1 0 0-.1 0-.2v-.1h.1c.3-.3 1.5-.4 2.5-.4.1 0 .2-.1.4-.1.9-.2 1.6-.1 1.6-.1h.1c-.1.1 0 0 0 .1.1.2.2.4.2.6l.1.6c0 .1.2.5.3.6H99c.1.1.1.4.2.5l.2.2h-.1s.1.1.2.1.1.3.3.4h0c.1.1.3.5.6.9.1.2.2.4.4.5 0 .1.1.1.1.2l.1.1h-.1c.1 0 .2.1.3.2l.1.1c.1 0 .2.1.2.1a1.38 1.38 0 0 1 .3.4c.2.1.4.1.6.2s.4.2.6.2h.1l-.2-.1h.7v-.1h.4l.5-.3.5-.4.3-.3c0-.1.1-.1.1-.2 0 0 .1 0 .1-.1v-.1c.1-.2.3-.4.4-.6h0c.1-.1.2-.3.3-.6s.2-.6.4-.9l.3-1 .2-.7-.1-.1c.1-.1.1-.2.2-.4 0-.1-.1-.1-.1 0 .1-.2.1-.3.1-.4v.1c.1-.1.1-.2 0-.3 0-.1-.1-.2 0-.3h0c.1-.1 0-.2 0-.3.1-.1.1 0 .2-.1-.1 0 0-.1 0-.2 0 .1 0 .2.1.2 0-.1.1 0 .1-.2h-.1v-.1.1c.1 0 .3.1.7.1l.4.1c1.1-.3 3-.5 3.2-.5h0v.5c.2.4.1.8 0 1.1 0 .1 0 .4.1.6h-.1c0 .2.2.5.3.6h0c0 .1.1.3.3.2 0 .2-.2.2-.1.5v-.1c.1.3.1 1.8.2 2h0c.1.2 0 .6.2.8 0 .5.1 2.4.2 2.9.1.4.1 0 .2.5 0 .1.1.1.1 0 0 .1 0 .3-.1.5l.6 3.5.5 3.1.1.1c-.1.1 0 .3 0 .4s.1 0 .1 0c-.1.1.1.3 0 .4h0c-.1.2.2.3.1.6h0l.2.2zm-19.4 1.5h0zm13.3-10.6zm27.1 6.9c0 .1-.1 0-.2.1.1 0 .1.1.1.2 0-.1-.1-.2-.2-.2 0 .1-.1 0-.1.2h.1v.1c-.2 0-3.8.3-4 .3-.2-.2 0-.5-.3-.7 0 .1 0-.1-.1 0v-.2c.1.1.1.1.2.1 0-.3-.1-.6-.1-.9 0-.2-.2-.2-.3-.3h.1v-.2l-.1-.3a27.84 27.84 0 0 0-.3-2.7h.1c-.2-.2-.5-1.3-.7-1.5v.1c-.1-.2-.1-.3-.2-.5l.1.1c.2-.1.2-.2.1-.3v.1c-.2-.1-.1-.2-.1-.5v.1c-.1 0 0-.1 0-.2.1.1.1 0 .2-.1-.1 0-.1-.2-.2-.2.1-.1-.1-.2 0-.2 0-.1-.1 0-.1 0 0-.1-.1-.2-.2-.5 0-.4.1-.1-.1-.6l.1-.1h-.1c.2-.1.1-.2.1-.3 0 0 0 .1-.1.1 0 .1-.1.1-.1.2s-.1.1-.1.2l-.3.5.1-.1-.1.2-.2.2-.2.1c-.1 0-.1.1-.1.1l-.1.1.2-.2h-.2s-.1 0-.1.1v.1h-.1.2c0 .1-.1.1-.1.2l-.4.2h-.1l-.1.1h.2c-.1.1-.2.1-.3.1.1-.1 0-.1 0-.1h-.2c.2.1-.2.2-.3.3-.1 0-.1 0-.2.1s-.1.1-.2 0c-.1.1 0 .1 0 .1h-.2c-.1 0-.1 0-.2.1 0 .1-.1.1-.2.1s-.2.1-.3.1h-1.2v.1l-.1.1c0-.1-.1-.1-.1-.1h-.2c-.1 0-.2-.1-.3-.2h-.4c0 .1.1.1.2.1s.2 0 .2.1h-.5l-.3-.1h-.3c-.5-.1-1-.3-1.5-.6l-1.2-.8-.4-.3s0-.1-.1-.1c0 .1 0 .3.1.4.1.4.1 0 .2.5 0 .1.1.1.1 0 0 .1 0 .3-.1.5.2.9.3 2.7.5 3.5h0l.4 3.1.1.1c-.1.1 0 .2 0 .4 0 .1.1.1.1 0 0 .1.1.3 0 .4h0c-.1.2.2.3.1.6h0c0 .1.1.2.1.3s-.1 0-.2.1c.1 0 .1.2.1.2 0-.1-.1-.2-.2-.2 0 .1-.1 0-.1.2h.1c.1.1 0 .2 0 .2v-.1c-.3 0-3.7.3-3.9.3-.2-.2 0-.5-.2-.7 0 .1-.1-.1-.1-.1v-.1c0 .1.1.1.1.1 0-.3-.1-.7-.1-1 0-.2-.2-.2-.3-.3h.1v-.2c-.1 0-.3 0-.3.1-.1 0 0-.1 0-.1h.1c0-.1-.1 0-.2-.2 0 0 .2.1.2 0 .1-.3-.2-1.7-.3-2.4h0v-.2c0-.3 0-1-.1-1.3 0-.2-.1-.3-.1-.4v.1c-.1-.2-.1-.3-.1-.5l.1.1.1-.1v-.1c-.2-.1-.1-.2-.1-.5v.1-.2c.1.1.1 0 .1-.1h0c-.1 0-.1-.2-.1-.2.1 0-.1-.2 0-.2 0-.1-.1 0-.1 0 .1-.1-.1-.2-.1-.5 0-.4.1-.1-.1-.6l.1-.1h-.1c.1 0 0-.1.1-.1v-.3l-.1.1c-.1-.4-.4-2.3-.4-2.7 0 .1.1 0 .1 0v-.2c-.1 0 0 .1-.1 0 0-.1.1-.1-.1-.2.1 0 .1-.1.1-.1-.1 0 0-.1 0-.3v-.1l-.1-.1c0-.1 0-.1.1-.2v-.1h-.1s-.1-1.1-.2-1.2c.1 0 .1 0 .1-.1-.1-.2 0-.4-.1-.6h.1l-.2-2.3c0-.2.2 0 .2-.2 0-.1-.1-.2-.1-.2v.1-.1c.1 0 .1.1.1 0v.2c.1 0 0-.1 0-.2v-.1h.1c.3-.3 1.5-.4 2.5-.4.1 0 .2-.1.4-.1.9-.2 1.6-.1 1.6-.1h.1c-.1.1 0 0 0 .1.1.2.2.4.2.6l.1.6c0 .1.2.5.3.6h-.1c.1.1.1.4.2.5l.2.2h-.1s.1.1.2.1.1.3.3.4h0c.1.1.3.5.6.9.1.2.2.4.4.5 0 .1.1.1.1.2l.1.1h-.1c.1 0 .2.1.3.2l.1.1c.1 0 .2.1.2.1l.4.4c.2.1.4.1.6.2s.4.2.6.2h.1l-.2-.1h.7v-.1h.4l.5-.3.5-.4.3-.3c0-.1.1-.1.1-.2 0 0 .1 0 .1-.1v-.1c.1-.2.3-.4.4-.6h0c.1-.1.2-.3.3-.6s.2-.6.4-.9l.3-1 .2-.7-.1-.1c.1-.1.1-.2.2-.4 0-.1-.1-.1-.1 0 .1-.2.1-.3.1-.4v.1c.1-.1.1-.2 0-.3 0-.1-.1-.2 0-.3h0c.1-.1 0-.2 0-.3.1-.1.1 0 .2-.1-.1 0 0-.1 0-.2 0 .1 0 .2.1.2 0-.1.1 0 .1-.2h-.1v-.1.1c.1 0 .3.1.7.1l.4.1c1.1-.3 3-.5 3.2-.5h0v.5c.2.4.1.8 0 1.1 0 .1 0 .4.2.6h-.1c0 .2.2.5.3.6h0c0 .1.1.3.3.2 0 .2-.2.2-.1.5v-.1c.1.3.1 1.8.2 2h0c.1.2 0 .6.2.8 0 .5.1 2.4.2 2.9.1.4.1 0 .2.5 0 .1.1.1.1 0 0 .1 0 .3-.1.5l.6 3.5.5 3.1.1.1c-.1.1 0 .3 0 .4s.1 0 .1 0c-.1.1.1.3 0 .4h0c-.1.2.2.3.1.6h0c-.2 0-.1.2 0 .2zm-19.4 1.5h0zm13.2-10.6h0z"/>
  <path class="text"
    d="M152.6 158.4c.1.3.1 1.3.2 2.3 0 .5.1.9.1 1.3l.1.9v-.1c0 .1 0 .2.1.3v2.1l-.1.3c0 .1-.1.3-.1.4v.2l-.1.1v.1c0 .1-.1.2-.1.3v.2l-.1.1a4.44 4.44 0 0 1-.8 1.1c-.3.4-.7.7-1 1-.4.3-.8.6-1.2.7l-1.1.5-.3.1-.2.1c-.1 0-.2 0-.2.1-.1 0-.1 0-.2.1-.1 0-.2.1-.4.1l-.3.1c-.1 0-.2.1-.3.1h-.3l-.1.1h-.5c-.2 0-.2.1 0 .1h-1.2l-.1-.1h-1.2c-.4 0-.8-.1-1.3-.3-.5-.1-1-.3-1.4-.6-.5-.3-.9-.6-1.3-1.1-.4-.4-.7-.9-1-1.4s-.5-.9-.6-1.4l-.1-.3v-.3l-.5-.6v-.3c0-.1 0-.2-.1-.3v-.4l-.9-7.3-.1-.2c.1-.3 0-.5 0-.9 0-.2-.1-.1-.1 0 0-.3-.1-.6 0-.8v.1c.1-.5-.2-.3-.1-.8h0c0-.2-.1-.5-.2-.7 0-.3.1 0 .2-.3-.2-.1-.1-.3-.1-.5 0 .3.1.5.2.5 0-.3.1-.1 0-.4h-.1c-.1-.1 0-.4 0-.5v.3c.3 0 3.8-.4 4-.4.2.4.1 1.5.4 1.9 0-.1 0 .3.1.2v.3c0-.1-.1-.3-.1-.3l.2 2.3c0 .4.3.5.3.6h-.1v.3c.1 0 0 .1.1.3 0 0-.1-.1-.1 0 0 .3.1.1.2.5 0 0 .1-.3.1 0 0 .8.5 4.9.6 5.8a.76.76 0 0 1-.4-.2v.5l.1-.1v-.1.1l.1.1v.1c0 .1 0 .1.1.2.1.2.2.5.3.7s.2.4.4.5h0l.1.2h.1s0 .1.1 0h.1v-.1h.1l.1.1.2.1h-.2v.2l.1.1h.1v-.1h.1l.1.1h.2v-.1h.2v.1l.1.1c0-.1 0-.1.1-.1h.1l.1.2c0 .1.1 0 .2 0h.1c.1 0 0-.1 0-.1h.3c.1 0 .3-.1.5-.1h.9l.1.1v-.1c0 .1.1.1.1.1h.3c.1 0 .1 0 .1.1 0-.1 0-.1.1-.1h.1c.1 0 .1 0 .1-.1h-.4c.1-.1.4-.3.7-.4s.6-.5.7-.7l.3-.3v-.1l.1-.2v-.4l.1-.2c0 .1.1 0 .1 0v-.2s0 .1-.1 0v-.2h-.1c.1 0 .1-.2.1-.2v-.5c0-.1 0-.2-.1-.2-.1-.5.2-.1.1-.6h-.2l-.1-1.4-.2-1.3c0-.1.1-.1.1-.2l-.2-1.3s0 .1.1 0l-.5-5.3c0-.3.2-.1.1-.4 0-.2-.1-.4-.1-.5v.1-.3c.1.1.1.3.2.1v.3c.1 0 0-.1 0-.4v-.2h.1c.6-1.2 4.1-.6 4.1-.6v.1l-.1.7c.2.9.1 1.9.2 2.5 0 .3.1 1 .2 1.4h-.1c0 .5.3 1.1.3 1.4h0c0 .2 0 .7.2.6.1.7.1.5.3.9h0zm-16.9-2.7h0zm4.7 1.9h0zm7-5.7c0-.2 0-.4.1-.6 0 .3-.1.5-.1.6zm25.1 15.6c0 .1-.1 0-.2.1.1 0 .1.1.1.2 0-.1-.1-.2-.2-.2 0 .1-.1 0-.1.2h.1v.1c-.2 0-1.9.2-3.1.2-.2.2-.5 0-.5 0-.2 0-.3-.1-.4-.2h-.1c0-.1 0-.1-.1-.1h-.1c0 .1-.1-.1-.1 0 0-.1 0-.1-.1-.2.1 0 .1.1.2 0-.2-.3-.5-.5-.7-.9-.1-.2-.3 0-.4-.1h.1l-.1-.2c0 .1-.2.2-.2.3-.1 0-.1 0-.1-.1.1 0 .1 0 .1-.1-.1-.1-.1 0-.2-.1 0 0 .2 0 .2-.2-.2-.3-1.7-2-2-2.3.1 0 .3-.2.3-.2l-.2-.1v.2c-.3-.1-1.3-1-1.5-1v.1c-.2-.1-.3-.2-.5-.4l.1.1c.1-.1 0-.2-.1-.3v.1c-.2 0-.2-.2-.4-.4v.1c-.1 0-.1-.1-.1-.1.1 0 0-.1 0-.2-.1.1-.2 0-.3-.1.1-.1-.2-.1-.1-.2-.1 0-.1.1-.1.1-.1-.2-.3-.1-.5-.3-.3-.4 0-.1-.4-.5v-.1l-.1.1c.1-.2-.1-.3 0-.5-.1 0-.1-.1-.2-.1-.1.2.1.2 0 .3-.4-.3-1.6-2-1.9-2.4.1.1.1 0 .1-.1l-.1-.1v.1c0 .6.1 1.2.2 1.4.1.5.1 0 .2.5 0 .1.1.1.1 0 0 .1 0 .3-.1.5.2.9.4 2.7.5 3.5h0l.4 3.2.1.1c-.1.1 0 .2-.1.4 0 .1.1 0 .1 0-.1.1 0 .3 0 .4h-.1c-.1.2.2.3.1.6h0c0 .1.1.2.1.3s-.1 0-.2.1c.1 0 0 .1.1.2 0-.1-.1-.2-.2-.2 0 .1-.1 0-.1.2h.1v.1c-.2 0-3.8.3-4 .3-.2-.2-.1-1.2-.4-1.4 0 .1 0-.1-.1-.1v-.1c0 .1.1.1.1.1v-.4c0-.2-.3-1.1-.3-1.1h.1v-.3c-.1 0-.1-.1-.1-.3v-.5l-.3-1.8h.4l-.1-.2-.1.1c-.2-.2-.1-.7-.3-.9v.1c-.1-.2 0-.3 0-.5l.1.1c.1 0 0-.1 0-.2.1 0 0-.3-.1-.4h0v-.3c-.1.1 0-.2 0-.3.1 0-.2-.2-.1-.2h0c0-.1-.2-.3-.2-.5 0-.4.1-.1-.1-.6l.1-.1h-.1c.2-.1.1-.3.3-.4-.1 0 0-.1-.1-.2-.2.1-.1.2-.2.3-.1-.4-.3-2.3-.3-2.7 0 .1.1 0 .1 0v-.1c-.1 0 0 .1-.1 0-.1 0 0-.1-.1-.2.1 0 .1-.1.1-.1-.1 0 .1-.4-.1-.4-.1-.2.2-.1.1-.3h-.2s-.1-1.3-.2-1.2l.1-.1-.1-.7s0 .1.1 0c-.1-.8-.1-1.5-.1-2.3 0-.1.2 0 .2-.2 0-.1 0-.2-.1-.2 0 0 0 .1-.1.1v-.2c.1 0 .1.1.1 0v.2c.1 0 0-.1 0-.2v-.1h.1c.5-.4 2.2-.5 3.3-.5.4-.3.7 0 .7 0h.2v.1h-.1c.3.3.5.7.6.9.1.1.3.4.5.5l-.1.1c.2.2.5.3.6.4h0c.1.1.3.2.4 0 .1.2-.1.3.2.5h0c.2.2 1.2 1.6 1.4 1.7h0c.2.1.4.5.7.6.2.5 1.6 2.2 2 2.6.3.3.1-.1.4.3 0 .1.1 0 .1-.1.1.1.2.3.2.5.4.3.9.9 1.4 1.5h0c.1 0-.1-.2 0-.2 0-.1-.1 0-.1 0 0-.1-.1-.2-.2-.5 0-.5.1-.1-.1-.6l.1-.1h-.1c.2-.1 0-.3.2-.4-.1 0 0-.1 0-.2-.2 0-.1.2-.2.2-.1-.4-.1-2.3-.1-2.7 0 .1.1 0 .1 0l-.1-.1s0 .1-.1 0c0-.1.1-.1-.1-.2.1 0 .1-.1.1-.1-.1 0 .1-.3-.1-.4-.1-.2.2-.1.1-.3h-.2s-.1-1.1-.2-1.2c.1 0 .1-.1.2-.1-.1-.2-.1-.4-.1-.6h.1c-.1-.8 0-1.5 0-2.3 0-.1.1 0 .1-.2 0-.1-.1-.2-.1-.2s0 .1-.1 0v-.1c.1 0 .1.1.1 0v-.2h.1c.7-.6 4.1-.5 4.1-.5v.1l-.3.3c.2.3 0 .8 0 1.1 0 .1 0 .4.1.6h-.1c.1.2.2.5.3.6h0c0 .1.1.3.3.2 0 .2-.2.2-.1.5v-.1c.1.3 0 1.8.1 2h0c.1.2 0 .6.2.8l.1 2.9c.1.4.1 0 .2.5 0 .1.1.1.1 0 0 .1 0 .3-.1.5.2.9.4 2.6.5 3.5l.4 3.3.1.1c-.1.1 0 .2 0 .4 0 .1.1 0 .1 0 0 .1.1.3 0 .4h0c-.1.2.2.3.1.6.7.1.8.2.8.3zm-17.6-5.9h0c0 .1 0 0 0 0zm.1.5h0zm.4 3.2h0zm.1.1s-.1 0 0 0h0v.1-.1zm-.1.1h0v.1-.1zm.1.4c0-.2 0-.3-.1-.3h0c0 .2.1.5.1.3h0zm.2 2.2h0zm10.5-18.3h0c.1.1 0 0 0 0zm13.5 17c0 .1-.1 0-.2.1.1 0 .1.2.1.3 0-.1-.1-.2-.2-.2 0 .1-.1 0-.1.2h.1c.1 0 0 .2 0 .2v-.1c-.3 0-3.8.3-4 .3-.2-.2 0-.5-.2-.7 0 .1 0-.2-.1-.1v-.1c0 .1-.2-1.7-.3-2.5h0v.1-.4l-.1-.6s0-.3-.1-.3c0 0 0-.1-.1-.1s0-.1 0-.1v-.1h-.1v-.1c0-.1-.2-1-.3-2.2 0 .1 0 .2-.1.2v.1c-.1-.2-.1-.3-.1-.5v.1c.1 0 .1 0 .1-.1v-.2c-.1-.1 0-.1 0-.2l-.2-.9c-.1 0-.1 0-.2-.2 0-.5.1-.1-.1-.6l.1-.1h-.1c.1 0 .1-.2.2-.3 0-.1 0-.2-.1-.3-.1-.4-.3-2.3-.3-2.7 0 .1.1 0 .1 0v-.1c-.1 0 0 .1-.1 0 0-.1 0-.1-.1-.2.1 0 .1-.1.1-.1-.1-.1.1-.4-.1-.4-.1-.2.2-.1.1-.3h-.2s-.1-1.1-.2-1.2c.1 0 .1 0 .2-.1-.1-.2-.1-.4-.1-.6h.1c-.1-.8 0-1.5 0-2.3 0-.2.2 0 .1-.2 0-.1-.1-.2-.1-.2v.1-.1c.1 0 .1.1.1 0v.2c.1 0 0-.1 0-.2v-.1h.1c.7-.6 3.8-.5 3.8-.5h0v.2c.2.4 0 .8 0 1.2 0 .1 0 .4.1.6h-.1c0 .2.2.5.3.6h0c0 .1-.1.3.1.3 0 .2 0 .2.2.4h0c.1.3.1 1.8.2 2h-.1c.1.2 0 .6.2.8-.1.5.3 4.9.5 5.4.1.4.1 0 .2.5 0 .1.1.1.1 0 0 .2 0 .3-.1.5.2.9 0 .3.2 1.1h0l.5 3.2.1.1c-.1.1 0 .3 0 .4s.1 0 .1 0c-.1.1 0 .3 0 .4h0c-.1.2.2.3.1.6-.2-.1-.1 0 0 .1zm-6.6-18c0-.1 0-.2.1-.3 0 .1 0 .2-.1.3zm.4 7.1c.1 0 .2 0 .3.1l-.1-.2-.2.1zm.2 1.6c0-.1 0-.1.1-.2-.1 0 0-.1-.1-.2l-.1.1c.1.1.1.2.1.3zm.5 1.8c-.1 0-.2-.2-.2-.2.1 0-.1-.2 0-.2 0-.1-.1 0-.1 0l.1.6v-.1c.1.1.1 0 .2-.1zm-.1.2h0v.2-.2zm0 .4v.2-.2z"/>
  <path class="text"
    d="M191.5 147c.4.7.3 3.8.3 3.8h0l-.2-.2c-.3.1-.6 0-.8-.1-.1 0-.3 0-.4.1v-.1c-.1 0-.3.2-.4.2h0c-.1 0-.2.1-.2.3-.1 0-.1-.2-.3-.1h0c-.2.1-1.2 0-1.4.1v-.1c-.2.1-.4 0-.5.2h-.1c0 .5.1 1.1.1 1.3h0c.1.2 0 .5.2.8-.1.5 0 2.4.2 2.9.1.4.1 0 .2.5 0 .1.1.1.1 0 0 .1 0 .3-.1.5l.6 3.5.5 3.3.1.1c-.1.1 0 .2-.1.4 0 .1.1.1.1 0 0 .1.1.3 0 .4h0c-.1.2.2.3.1.6h0c-.1.1 0 .2.1.3 0 .1-.1 0-.2.1.1 0 0 .1.1.2 0-.1-.1-.2-.2-.2 0 .1-.1 0-.1.2h.1v.1c-.2 0-3.7.4-4 .4-.2-.2 0-.5-.3-.7 0 .1 0-.1-.1 0v-.1c0 .1.1.1.2.1v-.6c-.1.1 0-.3 0-.2h0c-.1 0 0-.1 0-.1s-.1.4-.1.3 0-.1.1-.2h0c0-.1.1-.2 0-.3v.2c0-.6-.5-3.6-.6-3.9h.3l-.1-.2-.1.1c-.2-.2-.5-1.3-.7-1.5v.1c-.1-.2 0-.3 0-.5l.1.1c.2-.1.1-.2.1-.3v.1c-.2-.1-.1-.3-.1-.5v.1-.2c.1.1.1 0 .2-.1-.1 0-.2-.2-.2-.2.1-.1-.1-.2 0-.2h-.1c0-.1-.2-.2-.2-.5 0-.4.1-.1-.1-.5l.1-.1h-.1c.2-.1 0-.3.2-.4-.1 0 0-.1-.1-.2-.2 0-.1.2-.2.2-.1-.4-.4-2.3-.3-2.7 0 .1.1 0 .1 0l-.1-.2s0 .1-.1.1c0-.1.1-.1-.1-.2.1 0 .1-.1.1-.1-.1-.1.1-.3-.2-.4-.1-.2.2-.1.1-.3h-.2s0-.5-.1-.9h-.3c-.4 0-1.6.3-2 .2l-.1.1c-.1-.1-.2 0-.3-.1-.1 0 0 .1 0 .1-.1-.1-.2 0-.3-.1h0c-.2-.1-.2.2-.4.1-.1-.1-.1 0-.2.1-.1 0 0-.1-.1-.2 0 .1-.1.1-.2 0 .1 0 .2 0 .2-.2-.1 0 0-.1-.1 0v.1h-.1.1c0-.2-.2-3.5-.2-3.7.1-.2.3 0 .5-.2-.1 0 .1 0 0-.1h.1c-.1 0-.1.1-.1.1h.6c.1 0 .2-.2.2-.2v.1h.1c0-.1 0-.2-.1-.3 0-.1.1 0 .1 0v.1c.1 0 0-.1.1-.1 0 0-.1.1 0 .2.3.1 1.6-.1 1.8-.1v.4l.1-.1-.1-.1c0-.1.2-.2.4-.2h0c.3-.1.6 0 .7-.1h-.1c.1-.1.2-.1.4-.1l-.1.1c0 .1.1.1.2.1l-.1-.1c.1-.1.2 0 .3 0h-.1.1c-.1.1.1.1.1.2 0-.1.1-.2.2-.2 0 .1.1-.1.1 0v-.1c.1 0 .2-.1.3-.2.3 0 .1.1.4 0v.1-.1c.1.2.2.1.3.3 0-.1.1 0 .1-.1 0-.2-.1-.1-.2-.2.3-.1 1.6 0 1.9 0-.1 0 0 .1 0 .1l.1-.1s-.1 0 0-.1c0-.1.1 0 .1-.1 0 .1.1.1.1.1 0-.1.2.1.3-.1.2 0 0 .2.2.1v-.2s.8 0 .8-.1c0 .1 0 .1.1.1s.2 0 .4-.1v.1c.6-.1 1.1-.1 1.6-.1.1 0 0 .2.1.2s.1 0 .2-.1c0 0-.1 0 0-.1 0 0 .1.1.1 0 0 .1-.1.1 0 .1h-.1c.5.2.5.1.6.2v-.1.1zm-6.5 17.7v.1s.1 0 0-.1h0zm.1.6h0v-.4.4zm6.4-18.6c.1 0 .1 0 .2.1-.1.1-.2 0-.2-.1zm18.7.3c-.1 0-.1.1-.1.1 0-.1 0-.1-.1-.2-.2.3-.2.7-.4 1-.1.2.1.4.1.4h-.1l-.1.2c.1 0 .2.1.3 0 .1 0 0 .1 0 .1l-.1-.1c0 .1.1.1.1.3 0 0-.1-.2-.2-.1-.2.3-.9 2.4-1 2.9 0-.1-.3-.2-.3-.2v.2l.2-.1c.1.3-.2 1.6-.1 1.9v-.1c0 .2 0 .4-.1.6v-.2c-.2 0-.2.1-.3.3l.1-.1c.1.2-.1.3-.1.5l.1-.1c0 .1 0 .1-.1.2 0-.1-.1 0-.2 0 .1 0 .1.2.1.3-.1 0 0 .2-.1.2 0 .1.1 0 .1 0-.1.1.1.3 0 .6-.2.4-.1 0-.2.6h-.1l.1.1c-.3 0-.2.3-.4.2.1.1-.1.1 0 .3.2 0 .1-.2.3-.2-.1.5-1 2.4-1.1 2.8 0-.1-.1-.1-.1 0v.2c.1 0 0-.1.1 0 0 .1-.1.1 0 .2-.1 0-.1.1-.1.1.1.1-.3.3-.1.5 0 .2-.2 0-.3.3l.1.1s-.5 1.3-.4 1.3h-.2c0 .3-.1.5-.2.7 0 0 0-.1-.1 0l-1 2.4c-.1.1-.1 0-.2.1s0 .2 0 .3h.1c-.1 0-.1.1-.1.1 0 .1-.1.2-.2.2 0-.1.1-.2.2-.2 0-.1 0-.2-.1 0l.1-.2c-.1 0 0 .1-.1.2v.1h-.1c-.9.3-3.9-1.3-3.9-1.3h0l.4-.2c0-.5.4-.9.5-1.2 0-.1.2-.5.2-.7h.1c.1-.2 0-.6 0-.7h0c0-.1 0-.4-.2-.4.1-.2.3-.1.3-.4h0c0-.3.8-1.8.8-2.1h0c0-.1.1-.3.1-.4h-.3l-.3-.1c-.2 0-.4-.1-.6-.1-.4-.1-.8-.3-1.1-.5l-.6-.4s.1 0 .2-.1l.2-.1-.2-.1v.2h-.2l-.2-.2c-.1 0-.1-.1-.1-.1l-.2-.2h-.1l-.1-.2-.1-.1s-.1 0-.1-.1v-.1l-.2-.1c-.1-.1-.2-.1-.2-.2v.1l-.2-.2c.1-.1.1-.2 0-.3v.1c-.2 0-.1-.2-.2-.3v.1s0-.1-.1-.1c.1 0 .1-.1.1-.2-.1.1-.2 0-.2-.1.1-.1-.2-.1 0-.2-.1 0-.1 0-.1.1 0-.1-.2-.1-.3-.3-.2-.3 0-.1-.3-.4l.1-.1h-.1c.2-.2-.1-.2.1-.4-.1 0 0-.1-.2-.1-.1.1 0 .2-.1.3-.2-.3-.9-1.7-1.1-2 .1 0 .1 0 .1-.1l-.1-.1v.1c-.1 0 0-.1-.1-.1v-.1c-.1 0 0-.3-.3-.3-.1-.1.1-.1 0-.3l-.2.1s-.5-.9-.6-.8c0-.1.1-.1.1-.1-.1-.1-.2-.3-.3-.4h.1c-.3-.5-.6-1.1-.8-1.7 0-.1.1-.1.1-.2s-.1-.1-.2-.1v.1-.1c0-.1-.1-.2 0-.3v.3c.1 0 .1 0 .1-.1l.1.1c.1 0 0 0 0-.1l-.1-.1h.1c.4-.7 3.4-1.9 3.4-1.9h.1l.1.2c.3.2.3.6.4.8.1.1.2.3.3.4l-.1.1c.1.1.4.2.5.3h-.1c.1 0 .2.1.4 0 0 .2-.1.2.1.4h0c.2.2.5 1.1.7 1.2h-.1c.2.1.2.4.4.5.1.4.9 1.8 1.2 2.1.2.3.1 0 .3.3h.1c0 .1.1.2.1.4.3.3.6.7.9 1.2l.2.3s.1 0 .1.1h.7l.1-.1c.1.1.2 0 .3.1v-.1h.4c.2-1 .9-2.9 1.2-3.8h0l1.2-3.4-.1-.2c.1-.1.1-.2.2-.4 0-.1-.1-.1-.1-.1.1-.1.1-.3.2-.4h0c.2-.2 0-.4.2-.6h0c.1-.1 0-.2 0-.3.1-.1.1 0 .2-.1-.1 0 0-.1.1-.2 0 .1 0 .3.1.3.1-.2.1 0 .1-.2h-.1c0-.1 0-.2.1-.2v.1l3.6 1.6c.1.3-.3.5-.1.9-.4-.1-.6.1-.4.1zm-7.2 6.8h0zm3.5-9.5s0 .1 0 0c0 .1 0 0 0 0z"/>
  <path class="text"
    d="M103.1 206.8c0 .1-.1 0-.2.1.1 0 .1.2.1.3 0-.1-.1-.2-.2-.2 0 .1-.1 0-.1.2h.1c.1 0 0 .2 0 .2v-.1c-.2 0-3.8.3-4 .3-.2-.2 0-.5-.2-.7 0 .1 0-.2-.1-.1v-.1c0 .1-.2-1.7-.3-2.5h0v.1-.4l-.1-.6s0-.3-.1-.3c0 0 0-.1-.1 0-.1 0 0-.1 0-.1v-.1h-.1v-.1c0-.1-.2-1-.3-2.2 0 .1 0 .2-.1.2v.1c-.1-.2-.1-.3-.1-.5v.1c.1 0 .1 0 .1-.1v-.2c-.1-.1 0-.1 0-.2l-.2-.9c-.1 0-.1 0-.2-.2 0-.5.1-.1-.1-.6l.1-.1h-.1c.1 0 .1-.2.2-.3 0-.1 0-.2-.1-.3-.1-.4-.3-2.3-.3-2.7 0 .1.1 0 .1 0v-.1c-.1 0 0 .1-.1 0 0-.1 0-.1-.1-.2.1 0 .1-.1.1-.1-.1-.1.1-.4-.1-.4-.1-.2.2-.1.1-.3h-.2s-.1-1.1-.2-1.2c.1 0 .1 0 .2-.1-.1-.2-.1-.4-.1-.6h.1c-.1-.8 0-1.5 0-2.3 0-.2.2 0 .1-.2 0-.1-.1-.2-.1-.2v.1-.1c.1 0 .1.1.1 0v.2c.1 0 0-.1 0-.2v-.1h.1c.7-.6 3.8-.5 3.8-.5h0v.3c.2.4 0 .8 0 1.2 0 .1 0 .4.1.6h-.1c0 .2.2.5.3.6h0c0 .1-.1.3.1.3 0 .2 0 .2.2.4h0c.1.3.1 1.8.2 2h-.1c.1.2 0 .6.2.8-.1.5.3 4.9.5 5.4.1.4.1 0 .2.5 0 .1.1.1.1 0 0 .2 0 .3-.1.5.2.9 0 .3.2 1.1h0l.5 3.2.1.1c-.1.1 0 .3 0 .4s.1 0 .1 0c-.1.1 0 .3 0 .4h0c-.1.2.2.3.1.6-.1-.3 0-.2 0-.1zm-6.6-18c0-.1 0-.2.1-.3.1.1 0 .2-.1.3zm.5 7.1c.1 0 .2 0 .3.1l-.1-.2-.2.1zm.2 1.6c0-.1 0-.1.1-.2-.1 0 0-.1-.1-.2l-.1.1c.1.2.1.2.1.3zm.5 1.8c-.1 0-.2-.2-.2-.2.1 0-.1-.2 0-.2 0-.1-.1 0-.1 0l.1.6v-.1c.1.1.1 0 .2-.1zm-.1.2h0v.2-.2zm0 .4v.2-.2zm20.4.4v1.3l-.3 1.3c-.1.4-.3.8-.5 1.1v-.1l-.1.2c0 .1-.1.1-.1.2l-.1.2-.2.2c-.2.3-.6.7-1 .9-.4.3-.8.5-1.3.7s-.9.3-1.4.4c-.4.1-.9.1-1.3.2h-1.1c-.7 0-1.2-.1-1.6-.1l-.3.1c-.2-.1-.5-.1-.8-.2-.2 0-.1.1 0 .1-.3-.1-.6-.1-.8-.2h.1c-.2-.1-.4-.1-.6-.1s-.4 0-.6-.1h0c-.2-.1-.5-.1-.6-.1-.2-.1 0-.1-.2-.3-.1.1-.3 0-.5-.1.2.1.5.1.5 0-.3-.1 0-.1-.4-.2l-.1.1c-.1 0-.2 0-.3-.1h-.1s-.1 0-.1-.1h.1l.2.1.4-.6c.2-.3.2-.8.5-1.2.5-.8.8-1.7.8-1.8.2 0 .8.1 1 .2s.4.1.7 0c-.1-.1.2.1.1 0l.2.1c-.1 0-.2 0-.2.1l1.6.3h.4c.1-.1.1-.1.2-.1v.1h.3c-.1-.1 0-.3-.1-.3 0-.1.1 0 .2 0-.1 0-.1.1 0 .1h.2s0-.1.2-.1l-.1.1s0 .1.1.1h.7c.3 0 .8-.1 1-.2l.4-.2c.1-.1.2-.1.2-.2h.1v-.3l.1.1c.1 0 .2.1.2.1v-.2h-.1v-.8c0-.2-.1-.4-.1-.5v-.2h-.1v.1l-.1-.1s.1 0 .1-.1h0v-.1.1h-.1v-.1l-.1-.1v.1s0-.1-.1 0c.1 0 .1 0 0-.1v-.1.1h-.3v-.1h-.2v-.1c-.1 0-.1.1-.1.1h0-.5l-.4-.2h-.1c0-.1-.1 0-.1 0h-.5c0-.1 0-.1-.1-.1l-.1.1c0-.1 0-.1-.1-.2l-.2-.1c-.1 0-.2-.1-.2-.2h-.2c-.1 0-.1-.1-.3-.1 0 .1.1.2.2.2s.2.1.2.1c-.2 0-.5-.1-1-.3l-1.7-.7-1-.6c-.3-.2-.6-.5-.9-.7l-.4-.4c0-.1-.1-.1-.2-.2 0 0-.1 0-.1-.1l-.1-.1-.1-.2c-.1 0-.1-.1-.1-.2s-.1-.1-.1-.1c0-.1-.1-.1-.1-.1.1.2.2.1.1-.1l-.1-.1c0-.1 0-.1-.1-.1l-.1-.2v.1-.2l-.1-.2c0-.1-.1-.2-.2-.2.1 0 0-.1 0-.2v-.3c-.1-.1-.1-.2-.1-.3s0-.1-.1-.2v-.7c0-.1-.1-.2-.1-.3v-.4l.1-.1s.1 0 .1-.1v-.1l.1-.3-.2-.1v-.2c0-.1 0-.1.1-.2 0-.1 0-.2.1-.3l.1-.3.1-.2c0-.1 0-.1.1-.2l.2-.4c0-.1.1-.1.1-.2.1 0 .1-.1.1-.2.3-.5.8-.8 1.1-1l.1-.1c.1 0 .1-.1.1-.1l.2-.1.1-.1h.3c.1 0 .2-.1.3-.1h.1c.1 0 .1 0 .1-.1.1 0 .2 0 .2-.1.1 0 .1 0 .2-.1.3-.1.5-.1.9-.2 0 0-.1 0 0 .1.2-.1.5-.1.7-.1h2.1l2.5.4c.3.1 0 .2.3.2.1.1.3 0 .5 0-.1 0-.1 0-.1-.1.1 0 .2.1.3.1-.1 0-.2.1-.1.1l-.3-.1c0 .1.1 0 .3.1h.2v.1c.2.2.3.6.3 1 0 .2 0 .4-.1.7-.1.2-.1.5-.2.7-.1.4-.3.9-.4 1.2l-.2.4c0 .1 0-.2 0-.2h-.1c-.1-.1-.3.1-.5 0-.3 0-.7-.1-1.1-.1-.3-.1-.6-.2-.9-.2h-.5c-.2 0-.4-.1-.5-.1v-.1c-.2 0-.5-.1-.7 0-.1 0-.2 0-.3.1h-.3s-.1 0-.1.1a.76.76 0 0 1-.4.2h-.1l-.1.1v.1h-.1c0 .1-.1.1-.1.1h-.1v.1c-.1 0 0 .2-.1.3 0 .1-.1.2-.1.2v.5c0 .1.1.1.2.1v.2c0 .1.1.1.2.2l.4.3.6.3c.4.2.9.4 1.4.5s.9.3 1.1.3l.5.1h.2l.3.1c.1.1.2 0 .1-.1h.1l.1.1h.1l.3.3.2.1.9.4c.3.2.7.4 1 .7.4.3.7.7 1 1.1v.1l.1.1.3.6c0 .1.1.1.1.2s.1.1.1.2c.1.1.1.3.2.4.5-.2.6.3.6.7zm-9.4-8.8h0zm5.8-3.8h0z"/>
</svg>
