<svg viewBox="0 0 154 209" xmlns="http://www.w3.org/2000/svg">
<path d="M114.842 6.84838C128.66 15.6181 135.952 34.431 143.922 49.6852L146.761 57.8587C148.207 62.7068 148.655 62.8985 149.443 67.9677C151.26 79.6608 148.434 87.7872 143.841 98.2564C137.917 111.759 125.95 125.457 114.436 131.536C107.49 135.203 99.6963 138.735 92.2604 140.456C79.4211 143.427 64.973 141.526 52.0924 139.623C40.9163 137.971 28.232 129.642 19.8037 120.949C11.7384 112.63 6.20852 102.62 2.54238 90.7085C-4.37846 68.2229 3.6984 40.0428 16.3108 23.0225C25.9083 10.0707 37.4354 1.76987 52.133 0.378767C60.487 -0.411929 69.1001 0.280743 77.4767 0.280743C90.2177 0.280743 103.175 -0.556447 114.842 6.84838Z" class="bkg"/>
<path d="M30.0255 57.5237C28.7278 57.8056 27.4317 57.9071 26.1375 57.828C24.8554 57.73 23.7858 57.4794 22.9287 57.0761L23.597 53.9346C24.4127 54.2977 25.3392 54.5303 26.3765 54.6324C27.4138 54.7345 28.4172 54.6803 29.3865 54.4697C30.4654 54.2353 31.2288 53.9057 31.6768 53.4809C32.1215 53.0405 32.286 52.5545 32.1705 52.0229C32.0856 51.632 31.8596 51.3454 31.4926 51.1632C31.1378 50.9619 30.701 50.8358 30.1824 50.7847C29.6793 50.7303 29.0009 50.6976 28.1471 50.6866C26.8318 50.6613 25.7431 50.5867 24.8812 50.4629C24.0192 50.339 23.2277 50.0116 22.5065 49.4806C21.801 48.9462 21.3293 48.1318 21.0915 47.0373C20.8843 46.0836 20.9555 45.1676 21.305 44.2894C21.6511 43.3955 22.2909 42.6098 23.2243 41.9322C24.1733 41.2511 25.3984 40.7476 26.8993 40.4215C27.9469 40.1939 28.9982 40.0965 30.0532 40.1292C31.1082 40.162 32.0619 40.3314 32.9143 40.6374L32.3684 43.7769C30.6649 43.2464 29.0549 43.146 27.5383 43.4755C26.4751 43.7064 25.7229 44.05 25.2816 44.506C24.856 44.9587 24.7044 45.4665 24.8267 46.0294C24.949 46.5922 25.3299 46.9515 25.9696 47.1073C26.6215 47.244 27.5782 47.3145 28.8399 47.3187C30.1553 47.344 31.2439 47.4186 32.1059 47.5425C32.9678 47.6663 33.7498 47.9876 34.452 48.5063C35.1697 49.0217 35.6475 49.8266 35.8853 50.9211C36.0891 51.8592 36.0101 52.7769 35.6484 53.6741C35.2989 54.5524 34.6496 55.332 33.7005 56.013C32.7515 56.694 31.5265 57.1976 30.0255 57.5237ZM36.5267 42.6033L40.1854 41.8084L42.9266 54.4261L39.268 55.2209L36.5267 42.6033ZM37.9739 40.4469C37.3016 40.593 36.7119 40.5164 36.2048 40.2172C35.6977 39.9181 35.3814 39.4792 35.2557 38.9007C35.13 38.3222 35.2358 37.7917 35.573 37.3091C35.9102 36.8265 36.415 36.5122 37.0873 36.3661C37.7596 36.22 38.3476 36.2888 38.8513 36.5723C39.355 36.8558 39.668 37.279 39.7902 37.8419C39.9227 38.4517 39.822 39.0057 39.4882 39.5039C39.151 39.9865 38.6462 40.3008 37.9739 40.4469ZM56.5973 38.2428L58.8799 48.7497C59.3827 51.0637 59.1544 52.9144 58.195 54.3017C57.2357 55.689 55.599 56.634 53.285 57.1367C52.0655 57.4017 50.8762 57.5045 49.7172 57.4452C48.5582 57.386 47.5579 57.153 46.7164 56.7464L47.5998 53.8038C48.2265 54.1261 48.9736 54.324 49.8409 54.3975C50.7117 54.4867 51.5536 54.4429 52.3667 54.2663C53.6331 53.9911 54.5006 53.4998 54.969 52.7922C55.4565 52.0968 55.5746 51.1707 55.3232 50.0136L55.206 49.4742C54.4799 50.729 53.2646 51.5415 51.5604 51.9118C50.4034 52.1631 49.2858 52.144 48.2078 51.8542C47.1419 51.5455 46.2274 50.991 45.4641 50.1908C44.7008 49.3906 44.1884 48.3886 43.9268 47.1847C43.6652 45.9807 43.7157 44.8564 44.0781 43.8116C44.4406 42.7669 45.0444 41.8907 45.8894 41.1832C46.7467 40.4566 47.7538 39.9676 48.9109 39.7163C50.7402 39.3188 52.2625 39.6185 53.4778 40.6152L53.1262 38.9969L56.5973 38.2428ZM51.6352 48.7519C52.6046 48.5412 53.3331 48.0883 53.8206 47.3929C54.3203 46.6785 54.4699 45.8601 54.2695 44.9376C54.0691 44.0152 53.5951 43.3404 52.8474 42.9134C52.1119 42.4674 51.2595 42.3497 50.2901 42.5603C49.3207 42.7709 48.5861 43.2334 48.0864 43.9478C47.5833 44.6465 47.4319 45.4571 47.6324 46.3796C47.8328 47.3021 48.3085 47.9846 49.0596 48.4273C49.8073 48.8543 50.6659 48.9625 51.6352 48.7519ZM67.6308 35.6492C69.1944 35.3095 70.5549 35.5052 71.7125 36.2361C72.8857 36.9636 73.6727 38.2498 74.0735 40.0948L75.6429 47.3183L71.9842 48.1131L70.5371 41.4525C70.3197 40.4518 69.9395 39.7567 69.3964 39.3671C68.8499 38.9619 68.1623 38.8493 67.3337 39.0294C66.4112 39.2298 65.7392 39.6787 65.3176 40.3761C64.8927 41.0578 64.8025 41.9616 65.0471 43.0873L66.4024 49.3258L62.7438 50.1207L60.0025 37.503L63.497 36.7438L63.818 38.2213C64.1872 37.5844 64.7008 37.0471 65.3589 36.6095C66.0136 36.1561 66.7709 35.8361 67.6308 35.6492ZM95.5714 29.7754L98.3126 42.3931L94.8416 43.1472L94.5155 41.6462C94.1497 42.2987 93.6629 42.8466 93.0551 43.2897C92.444 43.7172 91.7475 44.0159 90.9657 44.1857C89.3084 44.5458 87.8914 44.3543 86.7148 43.6111C85.5383 42.868 84.7461 41.5583 84.3385 39.6821L82.7895 32.5524L86.4482 31.7575L87.88 38.3478C88.3216 40.3804 89.3945 41.2115 91.0987 40.8413C91.9743 40.651 92.6167 40.2167 93.0261 39.5384C93.432 38.8444 93.5126 37.9345 93.2681 36.8088L91.9127 30.5703L95.5714 29.7754ZM106.378 27.2311C107.551 26.9763 108.673 27.019 109.746 27.359C110.831 27.68 111.754 28.2736 112.515 29.1397C113.273 29.9902 113.793 31.0643 114.075 32.362C114.357 33.6597 114.331 34.8606 113.998 35.9645C113.661 37.0528 113.068 37.9758 112.217 38.7337C111.379 39.4725 110.374 39.9692 109.201 40.224C107.59 40.5739 106.214 40.3409 105.07 39.525L106.349 45.4117L102.691 46.2066L98.9609 29.039L102.455 28.2798L102.771 29.7339C103.44 28.4424 104.643 27.6082 106.378 27.2311ZM107.915 37.3596C108.854 37.1558 109.552 36.6767 110.01 35.9222C110.481 35.1486 110.6 34.2303 110.369 33.1671C110.138 32.1039 109.65 31.3258 108.904 30.8329C108.171 30.3209 107.335 30.1668 106.397 30.3707C105.459 30.5745 104.755 31.0631 104.284 31.8367C103.826 32.5912 103.712 33.5 103.943 34.5632C104.174 35.6264 104.656 36.414 105.39 36.9259C106.135 37.4189 106.977 37.5634 107.915 37.3596Z" class="signup"/>
<path d="M53.8656 81.0875C53.5638 81.4314 53.1623 81.7315 52.6613 81.9877C52.1725 82.2248 51.6389 82.4063 51.0604 82.532C49.5594 82.8581 48.3113 82.7281 47.3162 82.142C46.3367 81.5525 45.6856 80.5151 45.3629 79.0297L44.2369 73.8466L42.2903 74.2695L41.6789 71.4552L43.6254 71.0323L42.958 67.9599L46.6166 67.1651L47.2841 70.2374L50.4268 69.5546L51.0382 72.369L47.8955 73.0518L49.0114 78.1879C49.1269 78.7195 49.3498 79.105 49.6802 79.3443C50.0227 79.5646 50.4442 79.6204 50.9445 79.5117C51.523 79.386 51.9816 79.1227 52.3201 78.7216L53.8656 81.0875ZM61.7072 80.2189C60.3782 80.5076 59.1227 80.4938 57.9406 80.1776C56.7708 79.8423 55.7818 79.2467 54.9736 78.3908C54.1655 77.5348 53.6255 76.4814 53.3538 75.2306C53.082 73.9798 53.1362 72.7973 53.5164 71.6832C53.8965 70.5691 54.5509 69.6247 55.4796 68.8498C56.4205 68.056 57.5554 67.5147 58.8844 67.226C60.2134 66.9372 61.4629 66.9605 62.6327 67.2958C63.7992 67.6154 64.7865 68.2032 65.5946 69.0592C66.4028 69.9151 66.9427 70.9685 67.2144 72.2193C67.4862 73.4701 67.432 74.6526 67.0519 75.7667C66.6717 76.8808 66.019 77.8331 65.0937 78.6235C64.1651 79.3983 63.0362 79.9301 61.7072 80.2189ZM61.055 77.2169C61.9932 77.0131 62.6913 76.5339 63.1496 75.7794C63.6201 75.0059 63.7399 74.0875 63.5089 73.0244C63.2779 71.9612 62.7896 71.1831 62.0439 70.6902C61.3105 70.1782 60.4748 70.0241 59.5366 70.2279C58.5985 70.4317 57.8942 70.9204 57.4237 71.6939C56.9498 72.4518 56.8284 73.3624 57.0593 74.4256C57.2903 75.4888 57.7803 76.2746 58.5294 76.7832C59.275 77.2761 60.1169 77.4207 61.055 77.2169ZM82.3485 62.1282C83.5212 61.8735 84.6438 61.9161 85.7164 62.2561C86.8013 62.5771 87.7244 63.1707 88.4856 64.0368C89.2435 64.8873 89.7633 65.9614 90.0453 67.2591C90.3272 68.5569 90.3016 69.7577 89.9683 70.8616C89.6317 71.9499 89.0382 72.8729 88.1877 73.6308C87.3494 74.3696 86.344 74.8664 85.1713 75.1211C83.4358 75.4982 81.9957 75.238 80.8511 74.3405L81.167 75.7946L77.6725 76.5538L73.8918 59.1518L77.5505 58.3569L78.8803 64.4781C79.582 63.2614 80.7381 62.4781 82.3485 62.1282ZM83.8859 72.2567C84.824 72.0529 85.5222 71.5738 85.9805 70.8193C86.451 70.0458 86.5707 69.1274 86.3397 68.0642C86.1087 67.001 85.6204 66.2229 84.8748 65.73C84.1414 65.218 83.3056 65.064 82.3675 65.2678C81.4294 65.4716 80.7251 65.9603 80.2546 66.7338C79.7963 67.4883 79.6826 68.3971 79.9136 69.4603C80.1446 70.5235 80.6268 71.3111 81.3602 71.8231C82.1059 72.316 82.9478 72.4605 83.8859 72.2567ZM104.864 64.0887C104.875 64.1356 104.922 64.4691 105.008 65.089L95.4626 67.1628C95.8045 67.9072 96.3452 68.4365 97.0847 68.7506C97.8243 69.0648 98.6709 69.1183 99.6247 68.911C100.281 68.7684 100.839 68.5489 101.299 68.2526C101.771 67.9372 102.18 67.5209 102.526 67.0036L104.931 68.6915C104.038 70.3099 102.451 71.3671 100.168 71.863C98.745 72.1722 97.4269 72.172 96.2135 71.8625C94.9968 71.5374 93.9843 70.9469 93.1762 70.091C92.368 69.2351 91.8281 68.1817 91.5563 66.9308C91.288 65.6957 91.3361 64.5227 91.7006 63.412C92.0773 62.2823 92.7144 61.3334 93.6118 60.5654C94.5214 59.7783 95.6095 59.2472 96.8759 58.972C98.1111 58.7037 99.2868 58.7266 100.403 59.0408C101.519 59.355 102.467 59.9513 103.248 60.8297C104.04 61.689 104.579 62.7754 104.864 64.0887ZM97.5006 61.7344C96.672 61.9144 96.0271 62.3001 95.5662 62.8915C95.1052 63.4828 94.9005 64.1986 94.9521 65.0388L101.167 63.6885C100.869 62.9183 100.387 62.3598 99.7224 62.013C99.0543 61.6506 98.3137 61.5578 97.5006 61.7344ZM39.3027 101.157C40.8663 100.817 42.2268 101.013 43.3844 101.744C44.5576 102.471 45.3446 103.757 45.7454 105.602L47.3148 112.826L43.6561 113.621L42.209 106.96C41.9916 105.959 41.6114 105.264 41.0683 104.875C40.5218 104.469 39.8342 104.357 39.0056 104.537C38.0831 104.737 37.4111 105.186 36.9895 105.884C36.5646 106.565 36.4744 107.469 36.719 108.595L38.0743 114.833L34.4157 115.628L31.6744 103.011L35.1689 102.251L35.4899 103.729C35.8591 103.092 36.3727 102.555 37.0308 102.117C37.6855 101.664 38.4428 101.344 39.3027 101.157ZM56.8133 110.959C55.4843 111.247 54.2287 111.234 53.0466 110.917C51.8768 110.582 50.8878 109.986 50.0796 109.131C49.2715 108.275 48.7316 107.221 48.4598 105.97C48.1881 104.72 48.2423 103.537 48.6224 102.423C49.0025 101.309 49.6569 100.364 50.5856 99.5896C51.5265 98.7958 52.6615 98.2545 53.9905 97.9657C55.3195 97.677 56.5689 97.7003 57.7387 98.0355C58.9052 98.3552 59.8925 98.943 60.7006 99.7989C61.5088 100.655 62.0487 101.708 62.3205 102.959C62.5922 104.21 62.538 105.392 62.1579 106.506C61.7778 107.621 61.125 108.573 60.1998 109.363C59.2711 110.138 58.1423 110.67 56.8133 110.959ZM56.1611 107.957C57.0992 107.753 57.7974 107.274 58.2556 106.519C58.7261 105.746 58.8459 104.827 58.6149 103.764C58.3839 102.701 57.8956 101.923 57.15 101.43C56.4165 100.918 55.5808 100.764 54.6427 100.968C53.7046 101.172 53.0002 101.66 52.5297 102.434C52.0558 103.192 51.9344 104.102 52.1654 105.165C52.3964 106.229 52.8864 107.014 53.6354 107.523C54.3811 108.016 55.223 108.16 56.1611 107.957ZM74.1423 106.359C73.8404 106.703 73.439 107.003 72.938 107.259C72.4492 107.496 71.9155 107.678 71.337 107.803C69.836 108.129 68.588 107.999 67.5929 107.413C66.6134 106.824 65.9623 105.786 65.6396 104.301L64.5135 99.1179L62.5669 99.5408L61.9555 96.7265L63.9021 96.3036L63.2346 93.2312L66.8933 92.4364L67.5607 95.5087L70.7034 94.8259L71.3149 97.6403L68.1722 98.323L69.2881 103.459C69.4035 103.991 69.6265 104.376 69.9568 104.616C70.2994 104.836 70.7208 104.892 71.2212 104.783C71.7997 104.657 72.2582 104.394 72.5968 103.993L74.1423 106.359ZM73.5873 93.9047L77.2459 93.1098L79.9872 105.727L76.3285 106.522L73.5873 93.9047ZM75.0345 91.7483C74.3621 91.8943 73.7724 91.8178 73.2654 91.5186C72.7583 91.2194 72.4419 90.7806 72.3162 90.2021C72.1905 89.6236 72.2963 89.093 72.6335 88.6105C72.9708 88.1279 73.4756 87.8135 74.1479 87.6675C74.8202 87.5214 75.4082 87.5901 75.9119 87.8737C76.4155 88.1572 76.7285 88.5804 76.8508 89.1433C76.9833 89.753 76.8826 90.307 76.5488 90.8053C76.2115 91.2879 75.7068 91.6022 75.0345 91.7483ZM84.713 91.7822L87.9495 91.0791L88.561 93.8934L85.4183 94.5762L87.487 104.098L83.8283 104.893L81.7596 95.3711L79.8131 95.794L79.2016 92.9796L81.1482 92.5567L81.0259 91.9938C80.7134 90.5554 80.8876 89.3223 81.5485 88.2946C82.225 87.2634 83.3372 86.5797 84.8851 86.2434C85.4323 86.1246 85.9618 86.075 86.4737 86.0948C86.9978 86.0955 87.4478 86.1697 87.8237 86.3172L87.4379 89.1763C86.9512 88.971 86.4264 88.9294 85.8636 89.0517C84.7535 89.2929 84.3309 90.0233 84.5959 91.2428L84.713 91.7822ZM91.594 89.9926L95.2526 89.1977L97.9939 101.815L94.3352 102.61L91.594 89.9926ZM93.0411 87.8362C92.3688 87.9823 91.7791 87.9057 91.2721 87.6065C90.765 87.3074 90.4486 86.8685 90.3229 86.29C90.1972 85.7115 90.303 85.181 90.6402 84.6984C90.9775 84.2158 91.4822 83.9014 92.1546 83.7554C92.8269 83.6093 93.4149 83.6781 93.9185 83.9616C94.4222 84.2451 94.7352 84.6683 94.8575 85.2312C94.99 85.841 94.8893 86.395 94.5555 86.8932C94.2182 87.3758 93.7135 87.6901 93.0411 87.8362ZM112.384 92.1316C112.394 92.1785 112.442 92.5119 112.528 93.1319L102.982 95.2057C103.324 95.9501 103.865 96.4793 104.604 96.7935C105.344 97.1076 106.19 97.1611 107.144 96.9539C107.801 96.8112 108.359 96.5917 108.819 96.2954C109.29 95.98 109.699 95.5637 110.045 95.0465L112.451 96.7343C111.558 98.3528 109.97 99.4099 107.687 99.9059C106.265 100.215 104.946 100.215 103.733 99.9054C102.516 99.5803 101.504 98.9898 100.696 98.1338C99.8876 97.2779 99.3477 96.2245 99.0759 94.9737C98.8076 93.7385 98.8556 92.5656 99.2201 91.4549C99.5969 90.3251 100.234 89.3762 101.131 88.6082C102.041 87.8211 103.129 87.29 104.395 87.0149C105.631 86.7465 106.806 86.7695 107.922 87.0837C109.039 87.3979 109.987 87.9941 110.767 88.8725C111.56 89.7318 112.099 90.8182 112.384 92.1316ZM105.02 89.7772C104.192 89.9573 103.547 90.343 103.086 90.9343C102.625 91.5256 102.42 92.2414 102.472 93.0816L108.687 91.7314C108.388 90.9612 107.907 90.4027 107.242 90.0559C106.574 89.6935 105.833 89.6006 105.02 89.7772ZM125.252 77.67L129.032 95.0721L125.538 95.8313L125.222 94.3772C124.553 95.6687 123.358 96.5012 121.639 96.8749C120.45 97.1331 119.314 97.1016 118.229 96.7806C117.16 96.4563 116.244 95.861 115.483 94.9949C114.722 94.1287 114.2 93.0468 113.918 91.7491C113.636 90.4514 113.662 89.2505 113.995 88.1466C114.328 87.0427 114.914 86.1214 115.752 85.3825C116.606 84.6403 117.627 84.1402 118.816 83.882C120.426 83.5321 121.795 83.7668 122.923 84.5861L121.593 78.4649L125.252 77.67ZM121.62 93.7354C122.542 93.5349 123.24 93.0558 123.714 92.2979C124.185 91.5244 124.304 90.606 124.073 89.5428C123.842 88.4796 123.354 87.7016 122.608 87.2086C121.859 86.7001 121.024 86.546 120.101 86.7464C119.163 86.9502 118.459 87.4389 117.988 88.2124C117.514 88.9703 117.393 89.8808 117.624 90.944C117.855 92.0072 118.345 92.7931 119.094 93.3017C119.84 93.7946 120.681 93.9392 121.62 93.7354Z" class="notified"/>
</svg>
