<svg viewBox="0 0 47 46" xmlns="http://www.w3.org/2000/svg">
<path d="M28.3423 1.88217C30.3412 3.011 32.089 4.31759 33.6289 6.02864C33.7237 6.16587 33.802 6.34723 33.8292 6.42075C34.1481 6.82336 34.214 6.79181 34.4277 7.11568C34.6179 7.4038 34.7926 7.7005 34.9492 8.00101C35.1575 8.40089 35.1667 8.71714 35.282 9.14969C35.5496 10.1537 36.0102 10.9332 36.5246 11.8281C36.941 12.5525 37.5645 13.057 38.2664 13.4867C38.9173 13.8851 39.7546 13.959 40.3411 14.4448C43.784 17.2966 45.0189 21.8181 46.2101 25.9317C47.191 29.3187 47.3051 32.8728 46.2878 36.2867C45.602 38.5881 43.547 40.4175 41.7723 41.89C39.5499 43.734 36.9995 44.8128 34.2003 45.4369C31.9774 45.9326 29.7651 46.0535 27.4936 45.9804C24.6772 45.8898 21.8032 45.6869 19.0395 45.1063C13.9656 44.0404 9.43025 41.5454 5.58739 38.0741C2.43935 35.2305 0.0480325 32.0465 0.00127076 27.6183C-0.0539468 22.3893 1.69254 16.6261 4.81077 12.4389C7.46638 8.87277 11.2506 5.92978 14.9179 3.49032C17.0222 2.0906 19.5856 0.198095 22.196 0.0162545C24.4 -0.137285 26.4629 0.820781 28.3423 1.88217Z" />
</svg>
