<svg xmlns="http://www.w3.org/2000/svg" viewBox="0 0 1440 532" >
  <path class="bkg"
    d="M1214.44 451.535c-98.9 23.337-423.665 16.301-518.587 19.257-55.484 1.728-270.682 15.259-316.791 27.601-83.807 13.059-385.976 56.521-439.677 15.645-22.949-17.469 24.503-71.184 9.361-91.328-16.194-21.542 66.406-163.085 73.305-189.308 14.504-55.128-74.659-34.645 119.584-71.922 193.939-37.217 391.815-50.703 535.413-60.49l.004-.001c56.544-9.791 368.457-1.022 424.377-4.923 120.75-8.425 343.14-43.58 413.51-8.947 62.16 30.597 64.87 51.719 63.45 102.173-1.25 43.993-5.66 85.685-67.34 126.939-35.52 23.758 33.19 57.673-8.13 79.332 292.18-26.896 36.14 17.331-288.48 55.972z"/>
  <path class="blob1"
    d="M1450.9 114.007c11.82 6.601 22.16 14.242 31.27 24.248.56.802 1.02 1.863 1.19 2.293 1.88 2.354 2.27 2.17 3.54 4.064a60.18 60.18 0 0 1 3.08 5.177c1.23 2.338 1.29 4.188 1.97 6.717 1.58 5.871 4.31 10.43 7.35 15.663 2.46 4.236 6.15 7.186 10.3 9.699 3.85 2.33 8.8 2.762 12.27 5.603 20.37 16.677 27.67 43.118 34.72 67.173 5.8 19.807 6.47 40.59.46 60.554-4.06 13.459-16.21 24.157-26.71 32.768-13.15 10.783-28.23 17.091-44.79 20.741-13.15 2.899-26.23 3.606-39.67 3.179-16.66-.53-33.66-1.717-50-5.112-30.02-6.233-56.84-20.824-79.57-41.123-18.62-16.629-32.77-35.248-33.04-61.144-.33-30.578 10-64.28 28.44-88.767 15.71-20.853 38.1-38.063 59.79-52.329 12.44-8.185 27.61-19.252 43.05-20.316 13.03-.898 25.23 4.705 36.35 10.912z"/>
  <path class="blob2"
    d="M1404.54 36.379c-5.88 3.204-5.7 2.681-12.44 6.516l-1.96 1.195c-5.9 3.919-9.82 6.148-17.4 9.501-8.41 4.75-13.3 9.659-18.98 16.626l-.45.56c-12.73 15.633-25.14 30.87-32.93 49.717-6.52 15.762-9.34 33.907-13.08 50.498-4.01 17.743-5.79 40.771-1.79 58.644 8.41 37.574 46.99 62.632 82.01 71.897 25.27 6.684 51.94 5.835 77.84 4.665 19.48-.88 39.25-2.973 58.14-7.997 40.8-10.849 69.87-44.424 91.08-79.154 18.74-30.682 29.69-63.469 25.95-99.516-3.27-31.431-19.89-57.409-43.12-78.413-13.38-12.097-27.8-23.321-42.98-33.098-5.21-3.36-10.44-7.088-16.8-7.627-34.48-2.922-73.3 11.052-105.13 22.214-10.34 3.624-18.56 8.655-27.96 13.772z"/>
  <path class="blub"
    d="M1387.48 203.057c2.48-.764 4.91-1.701 7.14-3.043.86-.519 1.66-1.098 2.45-1.723 1.44-1.127 4.17-2.352 5.23-.175 1.58 3.26-3.4 5.607-5.77 6.504-1.4.531-3.08 1.095-4.61 1.024-1.92-.086-3.11-1.315-4.18-2.771-.26-.35-1.29.237-1.06.546 2.32 3.154 4.98 3.367 8.57 2.287 2.69-.81 7.15-2.639 8.26-5.528 1.03-2.652-1.51-4.851-4.01-4.099-1.7.511-2.98 1.942-4.41 2.916-2.32 1.567-4.94 2.576-7.59 3.393-.54.181-.79.908-.02.669z"/>
  <path class="blub"
    d="M1386.81 203.838c1.15.849.89 3.279 1.51 4.569.7 1.462 1.87 2.912 3.44 3.458 1.41.49 2.92.264 4.35-.04 1.72-.367 3.75-.52 5.33-1.331 2.14-1.108 3.43-3.861 3.51-6.197.04-1.37.18-5.138-1.82-5.269-.38-.024-1.23.719-.56.763 1.5.097 1.33 4.258 1.27 5.247-.06.983-.35 1.8-.81 2.685-1.11 2.128-2.83 2.532-5.01 3.004-3.16.688-6.02 1.233-8.07-1.866-.78-1.176-1.04-2.349-1.26-3.715-.12-.77-.25-1.485-.91-1.975-.33-.239-1.32.397-.97.667z"/>
  <path class="blub"
    d="M1387.41 205.097l1.37 6.353c.31 1.356.76 3.083 1.84 4.048.87.782 2.68 1.054 3.77 1.393 1.58.486 2.81.156 4.41-.184 2.73-.581 5.38-1.634 6.68-4.357.61-1.282.46-2.641.26-3.994-.18-1.142-.16-2.57-1.14-3.345-.31-.244-1.31.389-.95.67 1.25.999 1.46 4.93.97 6.38-1.09 3.243-6.32 5.023-9.45 4.092-.88-.258-1.84-.524-2.69-.847-1.21-.46-1.85-1.763-2.26-2.96-.86-2.483-1.2-5.231-1.75-7.795-.07-.349-1.16.108-1.06.546z"/>
  <path class="blub"
    d="M1391.64 216.251c1.12 4.509 4.92 6.497 9.36 5.132 1.52-.466 3.25-2.054 4.02-3.407.86-1.526.26-3.331-.1-4.915-.08-.346-1.16.109-1.06.546.27 1.212.8 2.76.37 4.008-.65 1.864-3.14 3.221-4.9 3.38-3.62.325-5.8-1.998-6.62-5.291-.09-.355-1.17.111-1.07.547zm-2.57-14.024c-.44-2.03-.91-3.958-2.78-5.104-2.54-1.57-5.48-2.147-7.98-3.868l-6.14-4.293c-2.55-1.837-5.31-3.271-7.58-5.473-7.72-7.449-13.47-21.048-7.34-31.165 3.35-5.541 8.35-10.234 14.46-12.504 2.91-1.083 5.97-2.048 9.11-1.982 3.07.068 6.01.924 8.81 2.143 5.16 2.242 9.58 5.4 12.74 10.148 2.83 4.26 4.34 9.47 4.25 14.583-.06 3.478-.57 7.032-1.37 10.416-.35 1.5-.6 2.835-1.37 4.193-.53.939-1 1.894-1.47 2.865-1.08 2.264-3.08 4.448-3.42 7.022-.33 2.497.27 4.934.82 7.352.08.351 1.16-.109 1.06-.547-.61-2.678-1.4-5.807-.39-8.504.89-2.375 2.5-4.654 3.65-6.929.54-1.054 1.35-2.036 1.68-3.183.35-1.232.55-2.567.81-3.831.62-3.018 1.04-6.156 1.09-9.238.1-5.251-1.49-10.661-4.46-14.996-1.46-2.141-3.37-4.075-5.3-5.799-2.3-2.059-5.25-3.331-8.07-4.519-4.97-2.092-9.86-2.406-15.02-.883-5.77 1.701-10.53 4.492-14.61 8.955-3.84 4.2-6.24 8.744-6.59 14.479-.34 5.409 1.85 11.637 4.63 16.204 1.68 2.768 3.95 5.22 6.38 7.353 2.64 2.328 5.93 4.116 8.82 6.149 2.42 1.701 4.85 3.633 7.63 4.698 1.72.657 4.18 1.294 5.41 2.805.91 1.111 1.17 2.636 1.47 3.997.08.351 1.16-.105 1.07-.544zm-17.67-69.972l-.97-7.941-1.96-9.063c-.08-.347-1.16.108-1.07.546l1.81 8.374c.62 2.835.67 5.623 1.1 8.469.07.465 1.15.003 1.09-.385zm20.18-2.984c-.48-1.809 1.13-4.921 1.64-6.672l1.42-5.021c.35-1.309.47-3.05 1.05-4.266l-1.06.376.13.22c.22.364 1.27-.196 1.06-.547l-.13-.219c-.22-.374-.94.13-1.06.376-.64 1.358-.74 3.12-1.13 4.591l-1.76 6.17c-.49 1.653-1.69 3.793-1.21 5.542.09.349 1.17-.122 1.05-.55zm20.5 15.805c.87-.195 1.52-.688 2.16-1.301l3.98-3.782c1.69-1.395 3.48-2.689 5.32-3.879 1.35-.866 3.03-1.478 4.17-2.626.55-.556-.46-.496-.77-.181-1.02 1.032-2.71 1.651-3.94 2.445l-4.24 3.011-3.47 2.922c-.8.785-1.77 2.403-2.91 2.66-.43.093-1.06.905-.3.731zm8.85 30.657l-.1.323c-.06.187.07.28.25.278 2.57-.013 5.25-1.173 7.65-1.994l4.93-1.478c1.52-.45 3-1.239 4.53-1.612.41-.1 1.05-.919.3-.734-1.19.293-2.24.859-3.4 1.252l-4.59 1.336-4.19 1.413c-.1.032-4.34 1.064-4.32 1.013.16-.515-.94-.16-1.06.203zm-55.52 22.232l.94-.215.16-.699c-3.6 1.102-6.55 3.833-10.1 5.14-1.82.667-3.67 1.216-5.5 1.844-.76.258-1.23.428-1.75 1.032-.42.492.7.27.95-.01.52-.609 3.19-1.118 3.9-1.366 1.47-.508 2.97-.997 4.39-1.631 2.78-1.245 5.16-3.453 8.09-4.35.38-.114.87-.863.16-.699-.31.078-.63.147-.94.215-.42.096-1.06.904-.3.739zm-21.67-19.579c-.56-.997-1.73-1.091-2.78-1.112-1.86-.04-3.69.106-5.56-.058-5.07-.443-9.78-1.766-14.21-4.251-.25-.144-1.25.25-1 .608l.21.303c.24.358 1.28-.225 1.06-.546l-.21-.303-1.01.608c3.64 2.04 7.54 3.464 11.71 4.023 2 .268 4.04.496 6.06.464 1.36-.02 3.87-.62 4.67.809.2.369 1.26-.182 1.06-.545zm6.8-35.611c-2.29-.333-4.18-1.69-5.95-3.101l-6.09-5.319c-1.73-1.61-4-4.484-6.66-3.664-.55.165-.79.893-.02.658 1.47-.45 3.26 1.355 4.24 2.252l3.85 3.564c2.78 2.488 5.99 5.792 9.85 6.353.37.053 1.28-.667.78-.743zm-14.83 12.138c.93.889 2.6.792 3.79.788 1.64-.008 3.49.33 5.08-.046.43-.097 1.06-.914.3-.735-1.33.316-3.03-.007-4.44.012-1.18.018-2.87.188-3.79-.688-.27-.263-1.29.347-.94.669zm20.8-23.591c.95 1.852 2.11 3.455 3.3 5.14.25.357 1.29-.232 1.06-.547l-3.3-5.139c-.19-.37-1.25.176-1.06.546zm25.08-7.341l.26 2.94c.04.855-.03 1.698.2 2.531.09.354 1.17-.118 1.06-.547-.24-.883-.13-1.861-.19-2.765l-.23-2.55c-.04-.449-1.14-.002-1.1.391zm20.25 12.383c.62-1.259 1.32-2.469 2.07-3.654.64-1.031 1.22-2.304 2.07-3.179l-.92.183c.03.078.07.154.1.226.17.37 1.24-.158 1.06-.546l-.1-.226c-.14-.317-.78.043-.92.183-.93.961-1.53 2.246-2.24 3.369l-2.18 3.851c-.22.449.89.13 1.06-.207zm8.31 26.273c1.15.357 2.42-.393 3.45-.832l3.16-1.164c1.37-.507 2.73-1.443 4.14-1.749.42-.092 1.06-.899.3-.735-1.98.424-3.76 1.599-5.68 2.258-1.17.401-3.43 1.843-4.6 1.479-.35-.108-1.29.58-.77.743zm-54.01 24.124c-.02-1.715-2.3-.366-3 .07-1.58.98-5.04 4.512-6.89 3.378-.35-.21-1.32.443-.95.67 1.59.978 3.81-.529 5.13-1.386.77-.492 4.6-3.456 4.61-2.342.01.437 1.1.016 1.1-.39zm9.78-25.783c-6.01 1.444-2.37 8.787-.64 12.447 1.33 2.813 3.04 5.442 5.16 7.743 1.12 1.218 3.01 3.308 4.86 3.104 4.69-.52-3.11-8.819-3.98-10.107-.82-1.206-1.76-2.473-2.25-3.854-.53-1.473-.72-3.176-1.06-4.707-.26-1.199-.26-4.853-2.23-4.422-.42.092-1.06.904-.3.735.96-.212 2.47 9.001 3.07 10.088.93 1.693 2.11 3.22 3.26 4.758 1.16 1.537 2.9 3.212 3.6 5 .3.763.58 1.162-.26 1.333-.7.142-.97-.179-1.51-.596-.76-.59-1.5-1.226-2.15-1.929-1.37-1.476-2.78-3.257-3.81-4.986-1.05-1.772-1.93-3.791-2.59-5.742-.73-2.157-3.25-7.233.53-8.14.42-.091 1.05-.908.3-.725z"/>
  <path class="paint"
    d="M126.597 210.125c-1.297-1.078-2.948-1.417-4.394-.297-1.488-1.623-3.685-1.772-5.69-1.374-.546.192-1.283-.163-1.652-.34-1.474-.709-2.934-.503-4.394-.297-2.005.398-4.38.618-6.768-.076l-.368-.177c-2.374.22-4.763-.474-7.683-.062-1.828.029-3.657.057-5.308-.282s-3.48-.312-5.117.263c-3.097.781-6.208.647-9.156-.771a3.13 3.13 0 0 0-2.197-.148c-.914.015-1.651-.34-2.757-.871.177-.369.163-1.284.341-1.652 1.446-1.121 3.657-.058 5.458-1.916-.368-.177-.559-.723-.559-.723-.737-.355-1.651-.34-2.197-.149-1.637.575-3.288.235-4.94-.105-.382-1.092.163-1.283.532-1.106 2.197.148 4.557-.987 6.945-.292s5.131.651 7.505.43c2.197.149 4.762.474 7.137.254.369.177.737.354 1.283.163-1.815.943-4.189 1.164-6.945.292-.546.192-1.092.383-1.815.943.191.546.014.915.205 1.461s.56.723.928.9c.737.355 1.651.34 2.743-.043.723-.56 1.46-.206 2.197.148s1.651.34 2.743-.043c1.637-.574 3.097-.78 4.749-.44 1.828-.029 2.006-.398 2.346-2.05l.177-.369c1.092-.383 2.374-.22 3.466-.603.546-.192 1.105.531 1.842.885-.545.192-.723.561-1.269.752-.723.561-.723.561-.34 1.652.914-.014 1.637-.574 2.551-.589s1.843.886 2.743-.043c-.382-1.092-.942-1.815-.956-2.729.546-.192.901-.929 1.446-1.121.723-.56 1.446-1.121 2.729-.958.914-.014 1.829-.029 2.757.872 1.842.885 2.756.871 4.011-.796.178-.368.355-.737 1.092-.383s1.282.163 1.828-.028c1.092-.384 2.006-.398 2.566.325 1.473.709 2.756.872 4.216.666 2.006-.398 4.203-.25 6.031-.278.915-.015 2.006-.398 3.466-.604.914-.014 2.197.148 3.111.134 1.652.34 3.289-.235 4.94.105.368.177.914-.014 1.46-.206 2.183-.766 3.82-1.341 6.209-.646.368.177.368.177.914-.015 1.814-.943 3.657-.057 5.662-.455s3.835-.426 5.472-1.001c.914-.014 2.006-.398 3.289-.235l5.485-.086c.546-.192 1.283.163 1.46-.206 2.36-1.135 5.103-1.178 7.846-1.222 2.006-.397 4.011-.795 6.031-.278 2.183-.766 4.38-.618 6.386-1.015l8.391-1.413c1.46-.206 2.743-.043 4.026.12l2.743-.044c1.46-.206 2.551-.589 4.025.12.737.354 1.828-.029 2.565.325 1.092-.383 1.815-.943 2.538-1.503 1.092-.383 1.829-.029 2.92-.412 2.183-.767 4.38-.618 6.386-1.016 2.551-.589 4.748-.44 7.123-.661.354-.737 1.077-1.298 1.432-2.035.56.723.751 1.269 1.665 1.254.546-.191.914-.014 1.091-.383.546-.191.901-.929 1.078-1.297 1.46-.206 2.743-.044 4.571-.072.369.177.56.723.751 1.269.546-.192 1.269-.752 1.815-.944 1.446-1.121 3.274-1.149 4.925-.809-.177.368.014.914-.163 1.283l-.368-.177c.177-.369-.014-.915.163-1.284s.355-.737.163-1.283l4.749-.441 7.3-1.03c2.006-.397 4.203-.249 6.386-1.015l4.748-.441c1.46-.206 2.92-.412 4.558-.986s2.92-.412 4.38-.618 3.111.134 4.38-.618l.545-.192c1.474.709 2.375-.22 3.275-1.149.723-.56 1.637-.575 2.374-.221 1.106.532 2.02.518 3.111.134.546-.191.915-.014 1.46-.206 1.283.163 2.566.326 3.657-.057 3.821-1.341 7.846-1.222 11.489-2.194.546-.191 1.46-.206 2.375-.22 2.197.148 4.025.119 5.662-.455 2.183-.767 4.749-.441 6.741-1.753.177-.369.545-.192.914-.015 2.565.326 4.926-.809 7.286-1.944.177-.369-.191-.546-.56-.723-1.282-.163-2.388-.695-3.67-.857.177-.369-.014-.915-.014-.915.723-.56 1.46-.206 2.183-.766s1.269-.752 1.992-1.312c.177-.369-.192-.546-.014-.915.914-.014 1.828-.029 2.565.326.914-.015 1.651.339 2.566.325l-.355.738c-.546.191-1.091.383-1.269.751-.723.561-1.269.752-1.8 1.859l.368.177c1.46-.206 2.743-.044 3.848.488.369.177 1.283.163 1.46-.206 1.269-.752 2.552-.589 4.012-.795.914-.015 1.46-.206 1.992-1.312-.751-1.269-2.58-1.24-4.054-1.949 1.269-.752 2.17-1.681 3.63-1.887.914-.014 2.183-.766 3.274-1.149.546-.192.723-.561.532-1.107s-.56-.723-.928-.9c-.737-.354-1.283-.163-1.829.029l-2.742.043c.177-.369.354-.737-.014-.915.914-.014 1.46-.205 2.197.149 2.019.517 3.466-.604 4.926-.81.545-.191 1.446-1.12 1.992-1.312.382 1.092 1.119 1.446 2.224 1.978-.177.369-.354.737-.723.56-1.091.383-2.006.398-2.551.589s-.723.561-1.269.752c.382 1.092 1.119 1.446 2.211 1.063.914-.014 2.374-.22 3.465-.603 1.46-.206 2.375-.221 4.026.119.191.546-.355.738-.723.561-2.374.22-4.558.986-6.918 2.121l.382 1.092c2.02.517 3.849.488 5.677.459 3.288-.234 6.386-1.015 9.852-1.618.545-.192 1.091-.384 1.46-.206 1.842.885 2.742-.044 4.011-.796.177-.368.546-.191.723-.56.901-.929 1.815-.943 2.729-.958s1.637-.574 1.801-1.858c2.551-.589 5.28-1.547 7.832-2.136-.014-.914-.383-1.092-.928-.9-.369-.177-.915.014-1.46.206-1.092.383-2.197-.148-2.934-.503.545-.191.9-.929 1.814-.943 2.006-.398 4.38-.618 6.386-1.016.546-.191.914-.014.914-.014.383 1.092-.709 1.475-.695 2.389.191.546.751 1.27.942 1.815 1.474.709 2.743-.043 4.203-.249 0 0 .368.177.559.723.737.355 1.106.532 1.829-.028 1.078-1.298 2.36-1.136 4.011-.796 2.566.326 5.295-.632 7.669-.852l.368.177c1.624-1.489 4.367-1.533 6.55-2.299.545-.192.723-.56 1.063-2.212-1.46.206-2.565-.326-4.202.249s-3.098.78-4.572.072c-.368-.177-1.282-.163-1.828.029-1.46.206-2.552.589-3.643.972-.914.014-.914.014-2.388-.694.546-.192.723-.561 1.269-.752 1.828-.029 3.465-.604 4.925-.81.546-.191.915-.014 1.46-.206 1.652.34 3.112.134 4.558-.986.723-.561 1.637-.575 2.374-.221.546-.191 1.283.163 1.829-.029 1.46-.206 2.742-.043 3.848.489.382 1.092-.341 1.652-.504 2.935.736.355 1.665 1.255 2.77 1.786l2.579 1.241c.014.914-.532 1.106-1.077 1.297s-.723.561-.532 1.107c.014.914.559.723 1.474.708l.368.177c-.723.561-1.446 1.121-1.801 1.858.383 1.092.751 1.269 1.843.886 1.46-.206 2.565.326 3.671.857.736.355 1.119 1.446.027 1.83s-.9.929-.518 2.02c.192.546.383 1.092.751 1.269-.518 2.021-2.346 2.05-3.984 2.625-.177.368-.354.737-.163 1.283.737.354 1.105.532 1.665 1.255.368.177.369.177.914-.015l1.147 3.276c1.829-.029 1.829-.029 2.361-1.135.914-.015 1.637-.575 2.551-.589 1.092-.383 2.006-.398 2.934.502.737.355 1.651.34 2.02.517 1.282.163 2.197.149 3.479.312.192.545.751 1.269 1.311 1.992.573 1.637.573 1.637 1.665 1.254 1.828-.029 3.834-.426 5.677.46l1.105.531c-1.46.206-2.374.221-3.288.235-1.46.206-2.743.043-4.189 1.164-.723.56-1.078 1.298-.518 2.021s.764 2.183 1.87 2.715l.368.177c.574 1.638 1.502 2.538 2.962 2.332 1.283.163 2.388.694 4.025.119 1.092-.383 2.006-.397 3.112.134.382 1.092.41 2.922 1.338 3.822.368.177-.164 1.283-.15 2.198 1.474.708 1.679 2.169 2.43 3.438.191.546.56.723 1.474.709.354-.738-.942-1.815-.41-2.921l1.418-2.95c1.651.34 3.098-.781 4.94.105.368.177 1.283.163 1.474.709.928.9 1.665 1.254 2.948 1.417.737.354 1.282.163 1.828-.029 1.446-1.121 2.906-1.326 4.557-.987 2.02.518 3.657-.057 5.103-1.178 2.02.517 3.671.857 5.322 1.197.737.355 1.652.34 2.006-.397 1.446-1.121 2.906-1.327 4.366-1.533-.723.56-1.077 1.298-1.8 1.858-.15 2.198-.15 2.198-2.142 3.51-1.474-.708-3.111-.134-4.748.441-1.092.383-2.006.398-3.289.235-1.474-.709-2.742.043-4.202.249a1.25 1.25 0 0 0-.71 1.475c.191.546.751 1.269.942 1.815-.177.369-.354.737-.723.56-.928-.9-1.665-1.254-2.593-2.155l-2.743.044c-1.282-.163-2.374.22-2.537 1.503l-.355.738c-.914.014-1.46.206-2.374.22s-1.283-.163-2.197-.148c-.9.929-1.623 1.489-2.892 2.241.942 1.815 2.593 2.155 3.712 3.601 1.297 1.077 2.948 1.417 4.599 1.757.723-.56 1.269-.752 2.183-.766l-.886 1.844c-.355.737.027 1.829.942 1.815.368.177.914-.015 1.282.162.546-.191 1.078-1.297.887-1.843s-.56-.723-1.119-1.447c.723-.56 1.255-1.666 2.155-2.595.914-.014 1.651.34 2.579 1.24 1.311 1.992 3.153 2.878 5.527 2.658.915-.015 1.651.34 1.665 1.254-1.268.752-2.537 1.504-2.878 3.156l-.355.738c-.545.191-1.46.206-1.474-.709-.382-1.092-1.31-1.992-2.579-1.24.014.914-.341 1.652-.327 2.566-.354.738-.9.93-1.255 1.667l-.177.369c.56.723 2.579 1.24 3.125 1.048l3.275-1.149 1.474.709c.737.354 1.842.885 2.742-.044.178-.368.915-.014 1.283.163l1.474.709c2.211 1.063 4.408 1.211 6.591.445 1.091-.383 2.92-.412 4.38-.618 4.012-.795 8.214-1.044 12.417-1.293.914-.015 1.828-.029 2.565.325 1.651.34 3.112.134 4.94.105.914-.014 2.197.149 3.48.311 1.105.532 2.019.518 2.934.503s1.828-.029 2.565.326c.368.177.368.177.914-.015.914-.014 1.637-.574 2.374-.22 1.297 1.077 2.948 1.417 3.89 3.232l-.709 1.475-.546.192c-.737-.355-1.474-.709-2.402-1.609-1.119-1.446-3.139-1.964-4.79-2.303-2.757-.872-5.131-.652-7.668.852l-.532 1.106c-1.283-.162-2.552.59-4.203.25-.369-.178-.546.191-1.091.383-1.638.575-3.466.603-5.486.086-.368-.177-.737-.354-.914.015-1.638.574-3.643.972-5.472 1.001-2.742.043-5.294.632-7.846 1.221-1.637.575-3.465.604-5.294.632s-3.848-.488-5.485.087c-.928-.9-2.197-.149-3.48-.311-1.828.028-5.458 1.915-7.272 2.859-.723.56-.532 1.106-.709 1.475-1.624 1.489-1.405 3.864-2.469 6.077-.354.737.206 1.46 1.12 1.446s1.46-.206 2.374-.221l1.147 3.276c-.163 1.283-1.623 1.489-2.524 2.418.383 1.092 1.297 1.078 2.034 1.432-.532 1.106-2.006.398-2.906 1.327-.164 1.283 1.679 2.169.969 3.644-.928-.9-2.197-.149-3.288.235-.546.191-1.269.751-.887 1.843l.574 1.638c-.355.737-.709 1.475-.695 2.389-.355.738.205 1.461 1.119 1.447 1.283.162 2.374-.221 3.657-.058 1.46-.206 2.006-.398 3.438-2.433 1.665 1.255 3.111.134 4.94.105.737.355 1.282.163 2.019.518l.191.545-.177.369c-.368-.177-1.283-.163-1.651-.34-.177.369-.723.561-1.078 1.298l-.886 1.844c-.709 1.475-2.155 2.595-3.807 2.255.355-.737.341-1.652-.041-2.744-.192-.546-1.106-.531-1.283-.162s-.355.737-.163 1.283c.013.915.928.9 1.665 1.255-.178.368-.724.56-.901.929-.546.191-.723.56-1.446 1.12s-.709 1.475.396 2.007 2.02.517 3.289-.235c.546-.192.723-.56 1.446-1.121.928.901 2.033 1.432 3.48.311 1.282.163 2.374-.22 3.657-.057s2.374-.221 3.465-.604c1.815-.943 4.189-1.164 6.372-1.93 1.092-.383 2.006-.397 3.098-.78 2.729-.958 5.28-1.547 8.009-2.505l1.637-.575c.723-.56 1.269-.752 2.006-.398 1.651.34 3.657-.057 5.294-.632s3.097-.781 4.735-1.355c.928.9 2.033 1.432 2.961 2.332.028 1.829-.504 2.935-2.51 3.333-1.091.383-2.182.766-3.097.781-4.202.249-8.2 1.958-12.02 3.299-1.815.944-3.452 1.519-5.458 1.916-1.46.206-2.729.958-3.821 1.341-.545.192-1.637.575-2.551.589-3.834.427-7.109 1.576-10.384 2.725-1.091.384-2.183.767-3.465.604-1.829.029-3.466.603-4.353 2.447.383 1.092 1.106.532 1.843.886-.178.369-.164 1.283-.341 1.652l2.211 1.063c1.105.532 2.565.326 3.097-.781s1.992-1.312 2.906-1.326c1.829-.029 3.289-.235 4.749-.441 2.005-.398 3.834-.426 5.662-.455.546-.192 1.283.163 1.829-.029 1.092-.383 2.552-.589 3.643-.972 1.46-.206 2.729-.958 3.82-1.341 2.361-1.135 4.912-1.724 7.109-1.576.369.177.915-.014.915-.014 3.643-.973 7.477-1.399 10.929-2.917 1.091-.383 2.551-.589 3.657-.058.737.355 2.197.149 3.288-.234.56.723-.532 1.106-.709 1.475.191.545-.163 1.283-.341 1.652-3.097.78-6.003 2.107-9.1 2.888-.546.191-.915.014-1.092.383-.723.56-1.637.574-2.183.766-1.46.206-2.552.589-3.82 1.341-.723.56-1.269.752-2.183.766-.546.192-1.283-.163-2.006.398-1.269.752-3.111-.134-4.735 1.355-1.077 1.298-2.729.958-4.366 1.533-1.091.383-2.552.589-4.012.795s-3.097.781-4.734 1.355c-.546.192-1.46.206-2.197-.148-.56-.723-1.106-.532-2.02-.517l-7.109 1.575c-.914.015-1.637.575-2.729.958-1.637.575-3.097.781-4.352 2.447-.177.369-.723.561-1.446 1.121l-.532 1.106c.369.178.191.546.56.723 1.105.532 2.565.326 3.848.489s2.565.325 3.657-.058c.368.177.546-.191.914-.014 1.474.708 2.743-.044 4.012-.795l.737.354c1.665 1.255 3.139 1.963 5.336 2.112 1.282.162 2.197.148 3.657-.058 1.091-.383 2.005-.398 2.92-.412.9-.929.518-2.021 1.05-3.127 3.288-.235 5.826-1.739 9.114-1.973l1.637-.575c.723-.56 1.638-.575 2.552-.589 1.46-.206 2.552-.589 3.82-1.341 1.092-.383 1.638-.575 3.112.134-.546.191-.724.56-1.092.383-1.637.575-3.643.972-5.28 1.547-.546.191-1.46.206-2.184.766-1.446 1.121-2.537 1.504-4.188 1.164-.369-.177-.546.192-.546.192-.177.368-.723.56-.532 1.106-.177.369.56.723 1.297 1.077 0 0 .368.177.545-.191 1.269-.752 2.552-.59 4.203-.25.546-.191 1.46-.205 2.006-.397s.723-.56 1.091-.383c.915-.015 2.006-.398 2.552-.589 1.269-.752 2.906-1.327 4.189-1.164 2.565.325 4.38-.618 6.754-.838-.709 1.475-1.978 2.226-3.615 2.801-.914.015-1.638.575-2.361 1.135s-1.814.944-2.551.589c-1.283-.163-2.374.221-3.657.058-1.637.575-3.275 1.149-5.294.632l-.369-.177c-2.183.766-4.734 1.355-6.535 3.214l-.355.737c-.177.369.191.546.014.915-1.078 1.297-.695 2.389.056 3.658.928.9 2.033 1.432 3.302.68 1.297 1.077 2.962 2.332 4.968 1.934l-.71 1.475c-.532 1.107-.163 1.284.765 2.184-.9.929-1.432 2.035-.313 3.481.56.724-.163 1.284.028 1.83s.382 1.092.751 1.269.914-.015 1.46-.206c.723-.561 1.077-1.298 1.8-1.858 1.283.162 1.474.708 1.857 1.8-.532 1.106-.887 1.844-2.17 1.681-.545.192-1.46.206-2.005.398-1.269.751-1.624 1.489-.873 2.758l.574 1.638c.191.546.013.914-.164 1.283s-.546.192-1.091.383c.014.915-.164 1.283-.15 2.198-.177.369-.177.369-.723.56s-1.091.384-1.46.206c-1.283-.162-2.374.221-3.097.781l-.369-.177-.545.192s-.001 0 .368.177l.368.177c-.354.737-.163 1.283.397 2.006 1.282.163 2.537-1.503 4.202-.249-.354.738-.723.56-1.269.752s-.914.014-1.46.206c-1.46.206-3.097.781-4.557.987s-2.729.958-3.438 2.432c-2.197-.148-3.834.427-5.84.824-1.091.383-2.36 1.135-2.892 2.242-.177.368.014.914.014.914.191.546.56.723 1.105.532s1.092-.384 2.006-.398c.191.546.205 1.461.765 2.184-.546.191-.901.929-1.446 1.12-1.638.575-2.006.398-2.034-1.431 0 0-.191-.546-.56-.723l-2.169 1.68c-.177.369-.354.738-.723.561-1.46.206-2.169 1.681-2.701 2.787.014.915.382 1.092 1.297 1.077.368.178.368.178.914-.014 2.183-.766 4.38-.618 6.194-1.561 0 0 .369.177.546-.192.014.915-.518 2.021-1.609 2.404-.915.014-1.829.029-2.375.22-.914.015-2.005.398-2.906 1.327-.177.369-.723.56-.9.929-2.552.589-4.721 2.27-7.272 2.859-.532 1.106-.887 1.844-.682 3.304 1.297 1.078 2.197.149 3.289-.234 1.651.339 2.934.502 4.408 1.211-.355.737-1.078 1.298-1.255 1.666-.355.738-.164 1.284.573 1.638 1.474.709 3.848.488 3.998-1.71-.014-.914.709-1.475 1.801-1.858-.355.738-.532 1.107-.518 2.021.928.901 1.665 1.255 2.593 2.155-.177.369-.355.737-.901.929-.723.56-1.268.752-2.36 1.135-.546.192-.723.56-1.446 1.121s-.355.737-.164 1.283.014.915-.163 1.283c-.532 1.107-.15 2.198.41 2.922 1.283.162 2.388.694 3.48.311s2.006-.398 3.097-.781c1.297 1.077.942 1.815.233 3.29l-3.848-.488c-.355.737-.164 1.283-.709 1.474-.178.369-.723.561-.901.93-.545.191-.914.014-1.283-.163-1.282-.163-1.459.206-2.714 1.872.942 1.815 2.565.326 3.67.857.205 1.461-1.255 1.667-1.418 2.95-.737-.354-1.651-.34-2.02-.517-1.651-.34-2.92.412-2.892 2.241-.177.369.014.915.383 1.092.382 1.092.587 2.553.424 3.836.368.177 1.105.531 1.651.34 1.091-.383 2.005-.398 2.729-.958 1.991-1.312 4.543-1.901 6.74-1.753 1.269-.752.886-1.844 1.241-2.581.546-.192 1.269-.752 2.183-.766l.368.177c4.245 2.494 3.317 1.594 6.96.622.9-.929 1.828-.029 2.92-.412s1.814-.943 2.906-1.327c1.637-.574 3.275-1.149 5.294-.632.028 1.83 1.516 3.453 1.544 5.282-2.361 1.135-4.353 2.447-7.109 1.576-.737-.354-1.283-.163-2.006.397-.177.369-.546.192-1.092.383-2.346 2.05-5.443 2.831-7.995 3.42-.546.192-.914.014-1.46.206l-2.743.043c-2.141 3.51-5.607 4.114-9.441 4.54-.177.369-.532 1.106-1.255 1.667-.177.368-.9.929-1.446 1.12l.573 1.638 2.58 1.24c-.901.929-1.992 1.312-3.084 1.695l-2.729.958c-.545.192-.545.192-2.019-.517.177-.369.163-1.283.34-1.652-.928-.9-1.651-.34-2.565-.325-.723.56-1.269.752-2.374.22-.737-.354-1.829.029-2.374.22l-2.17 1.681c.928.9 1.665 1.255 2.757.872l1.637-.575c.546-.192 1.46-.206 2.197.148.928.901 1.843.886 3.303.68 1.842.886 3.698 2.687 6.809 2.821-1.814.943-3.097.78-4.557.986-1.092.383-2.934-.503-4.012.795.929.9 2.034 1.432 2.948 1.418 1.46-.206 2.743-.044 3.139 1.963.205 1.46.042 2.744-1.227 3.496 0 0-.177.368-.546.191.942 1.815.956 2.73-.122 4.027-.354.738-1.077 1.298-1.254 1.667s-.901.929-1.078 1.298l-.355.737c.369.177.928.901 1.297 1.078l1.474.708c.014.915-.164 1.284-1.078 1.298s-1.637.575-2.551.589c-.546.192-1.269.752-1.992 1.312l-1.106-.531c-1.105-.532-2.388-.694-3.288.235a4.94 4.94 0 0 1-2.729.958l-4.38.618c-.368-.178-.546.191-1.283-.163 1.078-1.298 2.729-.958 4.189-1.164.177-.369-.014-.915.163-1.284-1.105-.531-2.019-.517-3.111-.133-1.46.205-3.288.234-4.748.44-.915.015-1.46.206-2.552.589s-2.551.59-3.465.604l-1.106-.532c.532-1.106 1.623-1.489 2.36-1.135 1.283.163 2.375-.22 3.466-.603s2.552-.589 4.189-1.164c.355-.737.163-1.283.15-2.198-.192-.546-.751-1.269-1.474-.709-1.269.752-3.098.781-4.544 1.902-.177.368-1.269.752-1.637.574-1.283-.162-2.92.412-4.012.795l-12.034 2.386c-2.006.397-4.189 1.164-6.195 1.561-.546.192-1.091.383-1.815.943-.177.369-1.268.752-1.445 1.121-.546.192-.724.56-1.447 1.121.191.546.928.9.751 1.269.191.546.014.914.028 1.829 1.283.163 2.02.517 3.302.68-3.452 1.518-6.918 2.121-10.369 3.64-.192-.546-.928-.901-1.12-1.446-.559-.724-.928-.901-1.651-.34l-7.095 2.49c-2.551.589-5.103 1.178-7.846 1.221-.368-.177-.545.192-.914.015-3.274 1.149-6.754.838-10.043 1.073l-.368-.177c1.992-1.313 3.998-1.71 5.826-1.739.914-.014 1.828-.029 2.552-.589.545-.192.914-.014 1.46-.206s1.282.163 1.828-.029c1.637-.574 3.466-.603 5.472-1.001.368.177.545-.191.545-.191.71-1.475 2.17-1.681 3.247-2.979l.178-.369c-1.283-.163-2.757-.871-4.04-1.034s-2.551.589-3.643.972c-.723.561-1.637.575-2.374.221-.928-.901-2.02-.517-2.934-.503-3.834.426-7.286 1.944-11.12 2.371-1.092.383-2.375.22-3.657.057-1.652-.34-3.289.235-5.295.633-1.46.206-2.92.412-4.202.249s-2.197-.149-3.289.235c-.546.191-1.269.751-2.006.397-.723.56-1.46.206-2.005.398-.915.014-1.46.206-2.375.22-.545.192-.914.014-1.269.752-.177.369-1.091.383-1.459.206l-.737-.354-.355.737c-.546.192-1.46.206-2.006.398s-.723.56-1.269.751-.914.015-1.282-.162c-.192-.546-.56-.723-.737-.355-2.552.589-5.294.633-7.846 1.222-1.092.383-2.374.22-3.111-.134-1.283-.163-2.743.043-4.203.249-2.92.412-6.017 1.193-9.115 1.973-.914.015-2.005.398-2.92.412-2.197-.148-3.834.427-5.84.824-1.46.206-2.92.412-4.925.81l-17.152 2.648c-2.006.398-4.203.25-6.209.647-1.828.029-3.288.235-4.925.81-1.46.206-2.743.043-4.203.249-.928-.9-2.388-.695-3.494-1.226l-.737-.354c-1.828.028-4.025-.12-5.854-.091-1.651-.34-3.834.426-5.662.455-2.006.398-3.643.972-5.472 1.001-.914.014-2.374.22-3.466.604s-2.005.397-3.097.78c-.368-.177-.546.192-.914.015-1.297-1.078-3.111-.134-4.571.072-2.375.22-4.203.249-6.577.469-1.46.206-2.92.412-4.012.795-.546.192-1.091.383-1.46.206-2.019-.517-4.394-.296-6.399.101-2.552.589-4.749.441-7.314.115-1.46.206-2.92.412-4.012.795s-2.729.958-4.012.795c-2.565-.325-4.748.441-6.931 1.207-.914.015-1.829.029-2.92.412-1.829.029-3.834.427-5.663.456-1.46.206-3.466.603-4.926.809-.163 1.283-.163 1.283 1.12 1.446 3.479.311 6.591.445 9.688-.335.546-.192.914-.015 1.46-.206 2.019.517 4.025.119 6.031-.278l.546-.192c2.019.517 3.657-.058 6.031-.278l1.105.532a3.68 3.68 0 0 1-3.274 1.149c-.914.014-1.283-.163-2.197-.148-.369-.178-.737-.355-1.283-.163-.914.014-2.183.766-2.92.412-.914.014-2.02-.517-2.934-.503-2.374.22-5.117.264-7.491.484-.546.192-1.092.383-1.828.029-.915.014-1.829.029-2.552.589-1.992 1.312-2.36 1.135-4.217-.666-.545.192-1.091.384-2.005.398.177-.369-.192-.546-.383-1.092-1.828.029-3.302-.68-4.762-.474-.546.192-1.46.206-2.197-.148-.546.192-.914.014-1.46.206s-.9.929-1.637.575c-1.652-.34-2.743.043-4.394-.297-2.388-.694-4.954-1.02-7.314.115-1.106-.531-2.757-.871-3.848-.488-.546.191-1.46.206-1.829.029-1.105-.532-2.02-.518-3.302-.68s-2.197-.149-3.097.78c-.723.561-1.46.206-2.375.221-.737-.355-1.474-.709-2.197-.149-1.268.752-1.637.575-3.302-.679.723-.561 1.992-1.313 2.715-1.873s.709-1.475-.205-1.46c-.737-.355-2.02-.518-2.757-.872-1.282-.163-2.565-.325-3.657.058-1.282-.163-2.374.22-4.202.249-.56-.723-.574-1.638-1.134-2.361-1.282-.163-2.742.043-3.834.426s-1.269.752-.518 2.021c0 0 .369.177.191.546-.354.738-1.446 1.121-.149 2.198.914-.014 2.374-.22 3.848.489.737.354 1.828-.029 2.743-.044.545-.191 1.282.163 1.842.886-1.637.575-3.657.058-5.294.632l-.709 1.475c-1.283-.162-2.375.221-3.657.058-1.652-.34-2.566-.326-3.643.972-1.283-.163-1.666-1.254-2.225-1.977-4.558.986-8.76 1.235-13.182-.891-.191-.546-.751-1.269-.942-1.814.177-.369.163-1.284.341-1.653-.014-.914.709-1.475 1.623-1.489 1.092-.383 2.006-.398 3.097-.781.192.546.383 1.092.751 1.269l1.474.709c1.843.886 3.848.488 5.868 1.005 1.651.34 3.466-.603 4.912-1.724l.177-.368c-1.651-.34-2.934-.503-4.762-.474-.396-2.007-1.87-2.715-3.876-2.318-1.46.206-2.92.412-4.394-.297-1.105-.531-2.388-.694-3.834.427l.709-1.475c.177-.369.546-.192 1.092-.383-.192-.546-.014-.915-.206-1.461.178-.369-.191-.546-.191-.546l-1.105-.531c-2.388-.695-5.145-1.566-7.356-2.629-1.105-.532-2.388-.694-3.479-.311-.355.737-.164 1.283.573 1.638.928.9 1.488 1.623 2.593 2.154-1.077 1.298-1.978 2.227-3.055 3.525l-1.106-.532c-1.105-.531-1.665-1.254-2.579-1.24-1.283-.163-2.211-1.063-2.962-2.332-.191-.546-.559-.723-.75-1.269.723-.56 1.077-1.298 1.8-1.858l-.191-.546c-.737-.354-1.296-1.077-2.033-1.431-.369-.178-1.106-.532-1.297-1.078-1.119-1.446-2.225-1.978-4.053-1.949-.588-2.552-2.444-4.353-.657-7.125-1.119-1.446-2.784-2.701-2.635-4.899-.014-.915-.396-2.007-1.133-2.361-1.665-1.254-1.693-3.084-1.721-4.913 0 0 .177-.369-.191-.546.546-.191 1.46-.206 1.829-.029 1.651.34 3.288-.234 4.557-.986.709-1.475 1.05-3.127-.069-4.574-1.283-.162-2.197-.148-3.303-.679-.368-.178-1.105-.532-1.296-1.078-.369-.177-.014-.914-.205-1.46-.928-.901-2.211-1.063-3.303-.68-.914.014-2.197-.149-2.934-.503-1.665-1.254-3.494-1.226-5.145-1.566-2.743.044-5.663.456-8.597-.047-.914.014-1.828.029-2.374.22-4.011.795-8.037.676-12.431.379-1.283-.163-2.552.589-4.203.249-1.283-.163-2.565-.325-4.203.249-.546.192-.914.015-1.46.206-1.283-.162-2.743.043-4.394-.296-.191-.546.723-.561.723-.561 1.092-.383 2.374-.22 3.288-.235.369.178.546-.191 1.092-.383 1.078-1.297 3.083-1.695 4.721-2.27 1.092-.383 2.374-.22 3.466-.603.546-.192.914-.015.9-.929-.191-.546-.382-1.092-.751-1.269s-.368-.177-.914.014c-1.283-.163-2.565-.325-4.025-.119-1.829.028-3.848-.489-5.663.455 0 0-.369-.177-.914.014l-1.474-.709c.546-.191.723-.56.9-.929l1.637-.574c2.92-.412 5.84-.824 8.951-.69 2.197.148 4.38-.618 6.754-.839s4.38-.617 6.754-.838c.914-.014 1.637-.574 2.552-.589.546-.191 1.078-1.298.886-1.844l-.765-2.183c.723-.56 1.078-1.298.518-2.021-1.119-1.446-1.147-3.275-2.266-4.722l-.191-.546c-.014-.914.149-2.198.136-3.112 1.091-.383 1.283.163 1.474.709.751 1.268 2.225 1.977 3.876 2.317l.737.354c-.177.369-.163 1.284-.518 2.021l1.105.532c.368.177.56.723 1.106.531 1.651.34 3.48.311 5.131.651.914-.014 1.651.34 2.388.695 1.474.708 2.934.502 4.203-.25 1.814-.943 3.821-1.34 5.076-3.007.177-.369.914-.014 1.268-.752-1.842-.886-2.21-1.063-4.039-1.034l-8.228.129c-.546.192-.914.015-1.651-.339-.014-.915.9-.929 1.269-.752 1.828-.029 4.025.119 6.031-.278 2.374-.221 4.38-.618 6.563-1.384 1.091-.384 2.183-.767 3.466-.604s2.183-.766 1.978-2.227c-.192-.546-.383-1.092-.942-1.815s-1.297-1.077-2.034-1.431c-.368-.178-.737-.355-1.283-.163-3.643.972-6.754.838-10.234.527-1.283-.163-2.565-.326-4.025-.12-.205-1.46 1.418-2.95.845-4.587l-1.474-.709c-1.105-.531-2.388-.694-2.593-2.155-.191-.546-.56-.723-.928-.9l-1.842-.886-.574-1.638c-.205-1.46-.765-2.183-2.225-1.977-.914.014-1.474-.709-2.374.22-.355.738.205 1.461.396 2.007l.191.546c-1.092.383-1.829.028-3.111-.134-.737-.355-1.828.028-2.183.766-.723.56-1.255 1.666-2.155 2.595-.191-.546-.56-.723-.751-1.269 1.078-1.297 2.332-2.964 3.41-4.262.9-.929 1.623-1.489 3.097-.78 0 0 .368.177.914-.015.177-.368-.014-.914.163-1.283 1.46-.206 3.097-.781 4.735-1.356.355-.737-.942-1.814-.042-2.743 2.197.148 4.94.105 7.137.253.914-.014 1.46-.206 2.183-.766-.191-.546-.928-.9-1.297-1.078-1.283-.162-2.934-.502-4.217-.665l-1.106-.532c-.573-1.637-2.402-1.608-3.685-1.771-1.651-.34-3.125-1.049-4.599-1.757l-1.106-.532c-.751-1.269-2.033-1.432-2.593-2.155 1.637-.575 2.906-1.326 4.366-1.532s2.36-1.135 3.069-2.61c-1.474-.709-2.948-1.418-3.876-2.318.355-.737.723-.56 1.269-.752 2.566.326 5.308.282 7.533 2.26.546-.191 1.269-.752 2.183-.766-.028-1.829-1.325-2.907-2.253-3.807s-2.211-1.063-3.494-1.226c-2.374.221-4.94-.105-7.682-.062-2.197-.148-4.203.249-6.4.101-3.111-.134-5.854-.091-8.597-.048-1.283-.162-2.197-.148-3.671-.857l1.637-.574c2.374-.221 4.749-.441 7.491-.484s5.486-.087 8.037-.676c.914-.014 1.828-.029 2.169-1.681.177-.368.723-.56 1.269-.752 2.565.326 4.749-.44 6.768.077l.368.177c1.815-.943 3.834-.426 5.472-1.001.546-.192 1.269-.752 2.183-.766l2.183-.767c.546-.191 1.091-.383 1.269-.751s-.014-.915.341-1.653c-2.02-.517-4.217-.665-6.222-.268-.177.369.014.915-.163 1.284-.355.737-.9.929-1.269.752-.737-.355-1.297-1.078-2.034-1.432-.191-.546.163-1.283-.028-1.829s-.382-1.092-.942-1.815c2.729-.958 5.472-1.001 7.846-1.222l-.574-1.637c-1.105-.532-2.743.043-3.493-1.226 1.815-.944 3.629-1.887 5.458-1.916s3.466-.603 5.117-.263c0 0 .368.177.545-.192 1.269-.752 3.098-.781 4.558-.987.532-1.106.532-1.106.681-3.304 1.46-.206 2.552-.589 4.012-.795.723-.56.532-1.106.518-2.021-1.857-1.8-4.245-2.494-6.81-2.82-2.934-.503-5.854-.091-8.965-.225-.914.015-1.46.206-2.197-.148-1.46.206-3.111-.134-4.571.072-1.829.029-3.288.235-4.762-.474-.737-.354-1.283-.163-2.02-.517-.368-.177-1.283-.163-1.651-.34-.737-.354-1.297-1.077-.928-.9l1.092-.383c2.565.325 3.111.134 5.458-1.916.928.9 1.665 1.254 2.225 1.978.914-.015 1.637-.575 1.992-1.313s.9-.929 1.814-.943 1.829-.029 2.92-.412 2.183-.766 3.643-.972c1.092-.383 2.374-.221 3.834-.427 1.092-.383 2.183-.766 3.097-.78.546-.192 1.092-.383 1.46-.206.915-.015 1.092-.383 1.447-1.121-.574-1.638-2.403-1.609-3.508-2.14-.014-.915.723-.561.9-.929s.532-1.107 1.078-1.298c-.737-.354-1.296-1.078-2.402-1.609.723-.56 1.446-1.121 1.992-1.312 0 0 .177-.369-.014-.915-.56-.723-.928-.9-1.842-.886-1.283-.162-2.197-.148-3.48-.311-.928-.9-1.679-2.169-2.43-3.438 3.275-1.149 6.755-.838 10.029-1.988 1.432-2.035 1.432-2.035.122-4.027.546-.192 1.091-.383 1.46-.206 1.283.163 2.374-.22 3.288-.235 1.092-.383 1.078-1.298.518-2.021-.191-.546-.559-.723-.75-1.269 1.077-1.297 2.523-2.418 3.424-3.347-.383-1.092-.397-2.007-.41-2.921.354-.738 1.091-.383 1.814-.944 1.269-.751 1.255-1.666.327-2.566l-1.842-.886.532-1.106.531-1.107c-.368-.177-.191-.545-.559-.723-2.02-.517-3.862-1.403-6.25-2.097-.369-.177-.737-.354-1.283-.163-1.46.206-3.111-.134-4.217-.665-2.388-.694-4.23-1.58-6.796-1.906-1.283-.163-2.197-.148-2.92.412l-3.275 1.15c-.546.191-.914.014-1.46.206-.382-1.092-.396-2.007-1.324-2.907-.737-.354-1.474-.709-2.197-.148-1.269.751-2.729.957-4.38.617-.368-.177-.914.015-1.828.029-.368-.177-1.283-.163-1.651-.34l-.709 1.475c.368.177.191.546.56.723 1.297 1.078 1.297 1.078.765 2.184-.355.737-.532 1.106-1.255 1.666 1.665 1.255 2.948 1.418 4.954 1.02s2.006-.397 4.039 1.034c-.177.369-.546.192-.723.561l-1.105-.532c-.737-.354-1.651-.34-2.006.398-.177.369-.723.56-1.269.752s-1.092.383-2.006.397c-1.651-.34-3.48-.311-4.94-.105-2.743.043-5.308-.282-8.065-1.154-.737-.354-1.651-.34-2.034-1.431.723-.561 1.623-1.49 2.715-1.873s2.374-.22 3.275-1.149c-.191-.546-.014-.915-.028-1.83l-.737-.354c-.737-.354-1.651-.34-2.02-.517-.737-.354-1.474-.709-1.665-1.255-.014-.914.723-.56 1.269-.752 1.829-.028 3.289-.234 5.117-.263.368.177.914-.015 1.092-.383-.014-.915-.205-1.461-.765-2.184s-1.297-1.077-1.31-1.992c-.574-1.638-1.502-2.538-2.785-2.701l-.368-.177c-.014-.914.341-1.652.886-1.843 1.091-.384 2.006-.398 3.097-.781.546-.192 1.092-.383 1.269-.752.341-1.652 1.623-1.489 2.892-2.241.369.177.56.723 1.297 1.077s2.02.517 2.565.326c2.552-.589 4.926-.81 7.137.253.369.177.546-.191 1.092-.383-.191-.546-.014-.915-.028-1.829l-.737-.355c-.368-.177-.737-.354-1.283-.162-1.283-.163-2.565-.326-3.671-.857-2.579-1.241-5.499-.829-8.065-1.154-1.829.029-3.848-.488-5.336-2.112.546-.191.723-.56 1.092-.383.177-.369.546-.191.723-.56l-.574-1.638c.546-.192.914-.014 1.46-.206 0 0 .546-.191.355-.737 0 0-.191-.546-.56-.723-1.283-.163-2.565-.326-3.671-.857-.014-.915.341-1.653 1.255-1.667 1.828-.029 3.466-.604 4.543-1.901.177-.369.723-.561 1.091-.383.914-.015 1.46-.206 2.374-.221.341-1.652.341-1.652 2.346-2.049.532-1.107.887-1.844 2.155-2.596 1.105.531 1.502 2.538 3.316 1.594.355-.737.163-1.283.518-2.02.177-.369-.014-.915-.382-1.092-1.297-1.078-2.402-1.609-3.876-2.318s-3.125-1.048-4.585-.842c-.014-.915.341-1.653.504-2.936-.56-.723-.928-.9-1.488-1.623l.177-.369c1.637-.575 2.333-2.964 4.175-2.078.191.546.751 1.269 1.488 1.623.368.177.914-.014 1.46-.206l.546-.192c-.191-.546-.56-.723-.737-.354l-1.105-.531c1.269-.752 1.269-.752 1.637-.575 2.02.517 3.48.311 5.294-.633 3.452-1.518 6.932-1.206 10.234-.527.737.355 1.651.34 2.197.149l.546-.192c1.842.886 3.657-.057 5.308.282.914-.014 1.651.34 2.183-.766.914-.014 2.183-.766 3.111.134.737.355 1.474.709 2.02.517s.914-.014.914-.014c1.842.886 4.039 1.034 5.854.091 1.269-.752 2.36-1.135 3.26-2.064 1.283.162 1.666 1.254 2.594 2.154-2.388-.694-1.488-1.623-.956-2.729 1.828-.029 4.025.119 5.513 1.743 2.565.325 4.926-.81 6.932-1.207 1.091-.383 1.268-.752.886-1.844-.737-.354-.928-.9-1.842-.886-1.283-.163-1.665-1.254-2.402-1.609-.942-1.815-2.771-1.786-4.408-1.211l-1.637.575c-.546.191-.723.56-.901.929-.532 1.106-1.063 2.212-2.141 3.51zm337.801 192.838l.546-.192-.546.192c-.177.368-.177.368 0 0zm-4.87 4.468c.723-.56 1.446-1.121 1.978-2.227-.751-1.269-1.842-.886-2.757-.871s-1.637.574-1.992 1.312c.751 1.269 2.034 1.431 2.771 1.786zm-44.534-247.043c1.651.34 3.848.488 5.485-.086.914-.015 1.638-.575 2.374-.221.915-.014 1.652.34 2.566.326-.191-.546-.014-.915-.205-1.461-1.106-.531-2.02-.517-3.125-1.048-1.652-.34-2.92.412-4.558.986-.723.561-1.814.944-2.537 1.504-.355.737-.901.929-1.446 1.121 0 0-.178.368.191.545 0 0 0 .001.368.178.546-.192 1.092-.383 1.269-.752-.368-.177-.191-.546-.382-1.092zm-304.75 80.917c-1.091.383-2.006.397-2.92.412-1.651-.34-3.288.234-5.117.263-.914.015-1.269.752-1.241 2.581 1.651.34 3.48.312 4.762.474 1.829-.028 3.303.68 4.791 2.304l.737.354 1.063-2.213c1.092-.383 2.375-.22 3.643-.972s2.757.872 3.657-.057c.341-1.653.341-1.653-1.87-2.716.178-.368.355-.737.901-.929s.914-.014 1.46-.206 1.077-1.297.518-2.02-1.297-1.078-1.843-.886c-.914.014-1.46.206-2.006.397-1.091.383-2.183.767-3.465.604s-2.375.22-3.289.235c-1.255 1.666-.341 1.652.219 2.375zm321.791 17.62c-.177.368-.723.56-1.092.383-1.651-.34-2.551.589-3.629 1.887.369.177.56.723.928.9s1.283.163 1.829-.029c2.729-.958 5.103-1.178 7.477-1.399.369.178.914-.014 1.092-.383l5.457-1.915c1.269-.752 2.729-.958 4.38-.618.737.354 1.829-.029 2.375-.221 1.269-.752 2.36-1.135 3.834-.426.942 1.815.942 1.815 2.962 2.332 1.651.34 2.742-.043 3.083-1.695.177-.369-.191-.546-.014-.915-.928-.9-2.033-1.432-2.593-2.155-.928-.9-1.842-.886-2.934-.503-.723.561-1.815.944-2.92.412-.368-.177-.914.015-1.46.206-3.452 1.519-6.918 2.122-10.575 2.18-.942-1.815-2.047-2.347-3.493-1.226-.177.369-.546.191-.914.014-1.283-.162-2.552.589-3.643.973-.546.191-.901.929-1.447 1.12.369.177.929.9 1.297 1.078zm18.222 128.159l-.886 1.844c-.355.737-.9.929-1.255 1.666 1.828-.029 2.92-.412 4.557-.987.737.355 2.02.518 2.757.872 1.623-1.489 3.069-2.61 5.458-1.916.914-.014 1.46-.206 2.183-.766.177-.369.9-.929 1.077-1.298l2.743-.043c1.283.163 2.183-.766 2.715-1.873l1.064-2.212c.354-.737-.205-1.46-.396-2.006 1.268-.752 2.36-1.135 3.643-.973.914-.014 1.268-.752 1.814-.943.177-.369-.014-.915.164-1.283-.546.191-1.283-.163-1.652-.34-.545.191-.914.014-1.46.206-2.551.589-4.734 1.355-6.917 2.121-1.637.575-3.275 1.15-5.281 1.547-1.46.206-2.92.412-3.82 1.341-.177.369-.546.192-1.092.383s-.914.015-1.46.206c-2.728.958-5.826 1.739-8.555 2.697l.383 1.091c1.282.163 2.565.326 3.479.312 0 0 .546-.192.737.354zM118.343 425.43l-.887 1.844c.942 1.815 2.239 2.892 4.435 3.041s4.394.296 6.577-.47c0 0 .178-.369.723-.56.178-.369-.013-.915.164-1.284-.56-.723-.928-.9-1.297-1.077.901-.929 1.801-1.858 2.333-2.964.354-.738.709-1.475-.396-2.007-.915.015-1.46.206-2.552.589-1.637.575-2.006.398-2.948-1.417l.709-1.475c-2.933-.503-5.321-1.197-8.419-.416-.014-.915-.028-1.83-.587-2.553-1.133-2.361-5.364-3.941-7.724-2.806-1.092.384-1.815.944-1.801 1.859.56.723 1.119 1.446 2.047 2.346 1.106.531 2.02.517 3.126 1.049-1.078 1.297-3.112-.134-3.998 1.709 1.119 1.446 1.119 1.446 2.402 1.609 1.651.34 3.48.311 5.131.651.205 1.461.573 1.638 2.962 2.332zm-26.68-167.182c1.829-.029 3.125 1.049 4.571-.072l.546-.192c1.829-.028 3.48.311 4.94.106.914-.015 1.829-.029 2.374-.221s.723-.56 1.446-1.12l.546-.192c.369.177 1.106.531 1.665 1.255.546-.192 1.269-.752 1.446-1.121l1.843.886c.737.354 1.282.163 2.019.517.546-.192.723-.56 1.269-.752 1.46-.206 3.098-.781 4.571-.072 1.106.532 2.02.517 3.303.68.9-.929 1.623-1.489 2.523-2.418.724-.561.15-2.199-.764-2.184-1.283-.163-2.388-.694-3.848-.488-1.092.383-2.006.397-2.743.043-1.283-.163-2.374.22-3.288.235s-2.197-.149-3.48-.312c-.369-.177-.914.015-1.46.206-1.092.383-2.552.589-3.834.427-.915.014-2.197-.149-2.92.412-1.269.752-2.934-.503-4.203.249 0 0-.368-.177-.914.014-2.197-.148-4.394-.297-6.4.101-.914.014-1.637.575-1.992 1.312l2.784 2.701zm66.741-49.173l.49-3.85c-1.474-.709-2.756-.872-4.585-.843s-3.479-.311-5.131-.651-3.657.058-4.925.81c-.724.56-1.269.751-1.815.943l.042 2.744c.559.723 1.296 1.077 1.487 1.623l1.106.532c1.651.34 3.125 1.048 4.953 1.02 3.112.134 6.209-.647 8.378-2.328zm238.687-47.307c-1.651-.34-2.934-.503-4.571.072l-2.729.958c-1.637.574-3.466.603-5.103 1.178-.546.191-.723.56-.9.929s.559.723.928.9 1.283.163 1.651.34c1.474.709 2.934.503 4.762.474 2.006-.398 4.189-1.164 6.195-1.561 1.46-.206 1.446-1.121.887-1.844s-.751-1.269-1.12-1.446zm63.655 205.39c.559.723 1.473.708 2.019.517l9.838-2.534c1.092-.383 2.183-.766 3.452-1.518.546-.191.723-.56.163-1.283l-1.105-.532c-1.638.575-3.466.604-5.294.633-.915.014-1.829.028-2.375.22-.914.014-1.637.575-1.8 1.858l-.355.737c-1.637.575-2.906 1.327-4.543 1.902zM147.288 440.71c-.191-.546-.014-.915-.382-1.092s-.928-.9-1.297-1.077c-1.105-.532-2.019-.518-3.302-.68s-2.02-.517-3.302-.68-2.743.043-3.835.426l-.532 1.106c-.177.369.192.546.56.723s.737.355 1.283.163c2.019.517 3.848.489 5.69 1.374 1.106.532 2.566.326 3.48.312.737.354 1.091-.384 1.637-.575zm-70.979-37.306c-.191-.546-.191-.546-.56-.723-2.211-1.063-4.394-.297-6.591-.445-1.46.206-2.92.412-4.189 1.163.382 1.092.942 1.815 1.856 1.801 2.197.148 4.571-.072 6.386-1.016.546-.191.914-.014 1.46-.206l1.637-.574zm389.957-58.107c-.737-.354-1.474-.709-2.388-.694-1.091.383-2.374.22-3.274 1.149s-1.801 1.858-3.07 2.61c.928.9 1.665 1.255 2.934.503.546-.192.9-.929 1.446-1.121 3.48.311 3.48.311 4.352-2.447zM100.417 232.494c-1.842-.886-2.593-2.155-4.053-1.949-1.829.029-3.834.426-5.663.455 0 0-.355.738.014.915l1.105.531 4.954 1.02c.368.177.546-.191.914-.014.546-.192 1.269-.752 2.729-.958zm387.942 62.138c-1.283-.163-2.197-.149-2.934-.503-1.474-.709-2.934-.503-4.203.249l-.886 1.844c1.282.163 2.756.871 4.039 1.034s2.374-.22 3.275-1.149c-.191-.546-.014-.915.709-1.475zm-22.243-55.639c-.914.014-2.02-.517-2.934-.503-.368-.177-.914.014-1.091.383-1.092.383-1.446 1.121-1.801 1.858-.177.369.191.546.014.915.737.354 1.651.34 2.388.694 3.48.311 3.48.311 3.424-3.347zm13.077 174.715c-2.389-.694-4.381.618-4.707 3.185-.178.368.191.546.191.546.368.177.737.354.914-.015.723-.56 1.815-.943 2.92-.412.369.177.914-.014 1.092-.383.546-.191.532-1.106.34-1.652s-.382-1.092-.75-1.269zm-6.967-133.643c.191.546-.532 1.106.028 1.829s1.474.709 1.842.886c.915-.014 1.46-.206 2.006-.397 1.46-.206 1.815-.944 1.801-1.858-1.665-1.255-3.494-1.226-5.677-.46zm-21.871-43.203c.382 1.092 1.665 1.255 2.211 1.063 1.46-.206 2.92-.412 4.011-.795.546-.191.724-.56.901-.929s-.56-.723-.56-.723l-.737-.354c-1.828.029-3.288.234-5.117.263.191.546-.354.738-.709 1.475zM131.364 439.863l1.637-.575c-.014-.914.164-1.283-.028-1.829l-2.21-1.063c-1.106-.532-2.197-.148-3.098.781-.177.368-.354.737.014.914l3.685 1.772zm332.703-155.095c2.211 1.063 3.112.134 5.649-1.37.546-.191.723-.56.532-1.106-1.283-.163-2.934-.503-4.202.249-.915.015-1.638.575-1.979 2.227zm15.873 9.447c-.014-.914-.206-1.46-.943-1.814-1.282-.163-2.374.22-3.274 1.149-.177.369.014.915.382 1.092 1.106.531 2.757.871 3.835-.427zm-28.772-27.907c-.191-.546-.191-.546-.56-.723-1.842-.886-3.657.058-4.926.809l-.354.738s.191.546.737.354c1.46-.206 2.742-.043 4.202-.249.178-.369.724-.56.901-.929zm32.969 111.643c.928.9 1.842.885 2.388.694.723-.56 1.814-.944 2.537-1.504.546-.191-.014-.915-.382-1.092l-.737-.354c-1.091.383-2.006.398-2.729.958-.914.014-.723.56-1.077 1.298zM99.938 225c.191.546.559.723.382 1.091 0 0-.177.369-.723.561l.368.177 2.183-.766c1.106.531 1.106.531 1.46-.206.178-.369.355-.738.901-.929l-1.843-.886c-.914.014-1.637.574-2.728.958zm8.114-19.706c1.474.708 3.125 1.048 4.394.297.368.177.723-.561.723-.561-.192-.546-.383-1.092-.751-1.269-1.651-.34-3.289.235-4.366 1.533zM471.139 401.21l-2.184.766c-.177.369-.177.369-.9.929.737.355.928.9 1.297 1.078l1.105.531c.369.177.914-.014 1.46-.206s.9-.929.164-1.283c-.014-.915-.574-1.638-.942-1.815zm-24.993-188.617c.737.355 1.474.709 2.388.695.369.177 1.092-.384 1.269-.752s-.014-.915-.382-1.092c-.56-.723-.928-.9-1.843-.886-.545.192-1.269.752-1.432 2.035zm-21.206 48.822c-.737-.354-1.651-.34-1.651-.34-.546.192-1.269.752-1.992 1.312-.177.369.014.915.205 1.461s.737.354.914-.015.723-.56 1.092-.383c.914-.014 1.446-1.12 1.432-2.035zM93.771 228.39c-.014-.914-.205-1.46-1.311-1.992-.368-.177-.928-.9-1.651-.34s-.532 1.107-.518 2.021c0 0 .368.177.191.546 1.46-.206 2.565.326 3.288-.235zm364.704 13.285l-1.842-.886c-.737-.355-1.092.383-1.446 1.12-.177.369-.355.738.014.915.191.546 1.474.709 1.651.34.546-.192.9-.929 1.623-1.489zm-5.33 179.03c1.843.886 3.303.68 4.571-.072l.355-.737c-.191-.546-.56-.723-.737-.355-1.46.206-2.551.59-4.189 1.164zm-36.923-155.31c.368.177.191.546.559.723s1.283.163 1.651.34c.546-.192.724-.561.71-1.475-.192-.546-.56-.723-.928-.9-.915.014-1.638.574-1.992 1.312zm23.742-2.204c.177-.369-.014-.915-.382-1.092-.914.015-1.638.575-2.361 1.135l.192.546c.559.723 2.019.517 2.551-.589zM110.455 423.908c.191.546.014.914.382 1.091l1.474.709c.914-.014 1.46-.206 1.624-1.489-1.106-.532-2.389-.694-3.48-.311zm-4.158 15.252c.355-.738-.205-1.461-.573-1.638s-.737-.354-1.283-.163c-.177.369-.737-.354-.914.015-.546.191-.355.737-.164 1.283.914-.014 1.829-.029 2.934.503zm349.727-21.611c1.105.532 2.019.518 3.111.134.546-.191 1.091-.383 1.077-1.297-2.197-.149-2.197-.149-4.188 1.163zm-7.695-49.098c.942 1.815 1.31 1.992 2.402 1.609.545-.192.531-1.106.163-1.283-.928-.901-1.474-.709-2.565-.326zm.739-95.889c-1.474-.709-2.388-.694-3.288.235-.178.369-.355.737.013.914l.737.355c1.092-.383 1.815-.944 2.538-1.504zm37.765 138.464c1.106.532 2.006-.397 2.361-1.135.177-.369-.383-1.092-.928-.9-.915.014-1.638.575-1.815.943l.382 1.092zM137.93 450.738c1.092-.383 1.269-.752.709-1.475-.191-.546-.928-.9-1.474-.709 0 0-.545.192-.723.56.737.355 1.297 1.078 1.488 1.624zm-48.29-205.266c-.737-.355-.928-.901-1.297-1.078s-.914.015-1.091.383l-.355.738c.191.546.56.723 1.105.531.368.178.914-.014 1.637-.574zm386.436-13.04c-.737-.355-1.283-.163-1.638.574l.191.546c.737.355 1.283.163 1.638-.574.177-.369-.191-.546-.191-.546zm-5.962 113.353c-.559-.723-.928-.9-1.473-.708s-.723.56-.355.737.56.723.56.723c.545-.191 1.091-.383 1.268-.752zM80.105 255.868c-.191-.546-.56-.723-.928-.9s-.737-.354-1.092.383l-.177.369 1.105.532s.368.177.546-.192c.368.177.368.177.546-.192zm383.421 149.853c.914-.014 1.828-.029 2.183-.766-.929-.9-.928-.9-2.183.766zm-62.913-240.898c.723-.56.9-.929 1.077-1.298-.559-.723-1.105-.531-1.828.029.368.177.191.546.751 1.269zm77.026 98.323s.368.178.191.546c.177-.368.546-.191.723-.56.546-.192.915-.014.901-.929l-.191-.546c-.369-.177-.915.014-1.461.206.192.546.014.915-.163 1.283zM329.1 441.871c.56.723.928.901 1.474.709s1.092-.383.532-1.106c-.737-.355-1.651-.34-2.006.397zM81.118 214.135c.928.9 1.651.34 2.565.325-1.105-.531-1.474-.708-2.565-.325zm368.04 196.936l.192.546c.368.177.736.354 1.282.162 0 0 .178-.368-.191-.546-.191-.545-.56-.723-1.283-.162zM70.173 264.259c-.368-.178-.191-.546-.191-.546s-.369-.178-.546.191l-.177.369c.368.177.368.177.914-.014zm15.977-7.754c.177-.369.546-.192.723-.56l-.191-.546c-.368-.177-.546.191-.546.191-.177.369-.177.369.014.915zm351.353-10.841c-.545.192-1.091.384-1.268.752 0 0 .191.546.013.915.369.177.546-.192.546-.192l.709-1.475zM121.074 436.731l.178-.368-.546.191s-.177.369.368.177zm341.183-186.882l-.191-.546-.546.191s-.177.369.191.546l.546-.191zm-14.002 149.892l.177-.369s-.368-.177-.546.191c0 0-.177.369.369.178zm-328.3 35.544c.177-.368.177-.368 0 0l.177-.368c-.368-.178-.368-.178-.177.368.177-.368-.191-.546 0 0zm29.373-233.752s-.369-.177-.191-.546l-.178.369c-.177.369 0 0 .369.177zm-55.102 44.781c.177-.368.177-.368 0 0l-.368-.177.368.177zm-1.283-.162c-.368-.178-.368-.178 0 0h0zm340.563 1.222c.177-.369.177-.369 0 0h0zm-285.624-44.72c-.546.191-.369-.177 0 0h0z"/>
  <path class="live"
    d="M309.2 387.7h0c-.2-.1-.2.3-.3.1-.4.3-.6 0-.9 0-.1 0-.2.1-.4.3l-.1-.2c-.2.1-.5-.2-.7-.2l.1.7c-.1.1-.5-.5-.4-.2-.2-.1-.2-.4-.5-.1h.1c0 .1-.2.1-.4.1-.1 0-.2.1-.3.1h-.3c-.5.1-1 .1-1.1.2v-.1c-.2.2-.6.1-.8.4h-1.7c-.7.1-1.4.1-1.7.3-.2.1-.2.1-.2.2s0 .1-.3.1c-.1 0-.1.2 0 .2-.2 0-.4 0-.6-.1-.2.1-.5.2-.9.2-.3.1-.8.1-1.1.2-.4 0-.8 0-1.1.1h-.9v-.1l-.8.1h-1.2c-.7.1-1.3 0-1.7 0h-.3l-.1.2c-.1-.1-.2-.1-.3-.1h-.2v.2c-.2-.1-.4 0-.4-.1v-.1h-.4c-.1.1-.2.1-.3 0h0-.2c-.1 0-.1.1-.1.1-.1 0-.1 0-.1-.1h-.1v.1s-.1 0-.2-.1h-.4c0 .1 0 .1-.1 0-.4 0-.2-.7-.3-.7-.3-.4 0-.9-.5-1.3l-.4-2.3h-.1.1l-.1-.8c.1-.6-.4-4.3-.5-4.9v-.6c-.2-.8-.2-2-.4-2.2v.1c-.1-.3-.2-.5-.2-.9l.1.2c.3-.1.3-.3.2-.5l-.1.2c-.3-.2 0-.5-.1-.8l-.1.1c-.1 0 0-.2 0-.3.1.2.1-.1.3-.1-.2.1-.2-.3-.3-.4.2-.1-.1-.3.1-.4h-.2c.1-.3-.3-.4-.3-.9 0-.8.2-.1-.2-1l.2-.1-.3-.1c.4-.1 0-.5.5-.6-.2-.1 0-.2-.1-.4-.3.1-.2.4-.3.4-.2-.7-.6-4-.6-4.8 0 .1.2 0 .2-.1l-.1-.2c-.1 0 0 .1-.1.1-.1-.1.1-.3-.1-.3.2 0 .2-.2.2-.2-.2-.1.2-.6-.2-.7-.1-.3.3-.1.3-.5h-.3s-.1-2-.3-2.2c.1 0 .1-.1.2-.2l-.2-1.2c.1 0 .1.1.1 0-.1-1.4 0-2.8 0-4.2 0-.3.3-.1.3-.3s-.1-.3-.2-.4c0 .1 0 .2-.1.1l.1-.3c.1 0 .2.2.2 0 0 0 .1 0 0-.1v-.2h.2c1.2-1 6.5-.8 6.9-.8h.1v.1l.2.5c.3.7.1 1.5 0 2.1 0 .2 0 .8.2 1.1h-.2c0 .2.1.4.2.6 0-.1 0-.1.1-.1v.3c.1.1.1.2.1.3h-.1c.1 0 0 .1 0 .1.1.4.3.9.4 1.2v-.1c.2.5.1 3.2.2 3.6h-.1c.2.4 0 1 .4 1.4-.1.8-.1 4.4.1 5.3.1.8.3.1.3.8 0 .2-.3.8-.2.7-.1.3.5 0 .3.2.4 1.6.6 4.8.8 6.3 0 .5.4 2 .5 3.1h.5c0 .1-.1.6-.1.7l.1-.2-.1-.2c.1-.2.5 0 .8-.2s.8-.1.9-.2h-.1c.2-.1.3-.2.5-.2l-.1.1c0 .3.1.3.3.3l-.1-.1c0-.1.1-.1.2-.1s.1.1.2.1l-.1-.1c0-.1.1 0 .2 0-.1.1 0 .2.1.3 0-.2.1-.2.2-.3 0 .3.2-.2.2.1v-.2c.1 0 .1 0 .2-.1 0-.1.2-.1.3-.1.4.1.1.2.5-.1l.1.1v-.3c.1.5.3.1.3.5 0-.2.1.1.2-.1 0-.3-.2-.1-.2-.3l.5-.1c.2 0 .7.1.9.1.3 0 .5-.3.7-.3h.5c-.1 0 0 .2 0 .3l.1-.1-.1-.1c0-.1.1 0 .1-.1 0 .1.1 0 .1.1 0-.2.3.2.4-.2.2-.1.1.3.3.2v-.3l.6-.1c.2-.1.4-.1.5-.2 0 .1.1.1.1.2.2-.1.4-.1.6-.2v.1c.7-.2 1.7-.2 2.4-.2.2 0 .1.3.2.3.1.1.1-.1.2-.2 0 0-.1 0-.1-.1h.2c0 .1-.1.2 0 .3h-.2c0 .2 0-.1.2 0l.1-.1v.2c.1.1-.1.3 0 .6 0 .2-.1.3 0 .5v.3c.1.4.1.1.2.6l.1.7.6 3.1c.5.3.4.2.4.2zm-24.8-31.3v.2c.1-.1 0-.1 0-.2zm23.7 24.6h.2c0 .1.1.1.1.2h-.2c.1 0 0-.1-.1-.2z"/>
  <path class="live"
    d="M320.6 386.6c-.1.2-.3 0-.3.2.3.1.1.3.1.5 0-.2-.1-.5-.3-.4 0 .3-.2.1-.1.3h.3c.1.1 0 .3-.1.4v-.3c-.5 0-6.9.5-7.3.5-.3-.3.1-.9-.4-1.3-.1.1 0-.3-.2-.1v-.3c.1.1-.4-3-.6-4.5h0v.1-.1h-.1v-.6l-.2-1c0-.1-.1-.6-.1-.5-.1 0-.1-.2-.1-.1-.1 0 0-.2-.1-.2.1 0 0-.1.1-.2-.1 0-.1 0-.1-.1v-.1c0-.1-.3-1.9-.6-4 0 .3 0 .4-.1.3v.1c-.2-.3-.2-.5-.2-.9l.1.2c.1 0 .1-.1.2-.1v-.2c-.2-.1-.1-.2 0-.4l-.5-1.8c-.1 0-.3-.1-.3-.3 0-.8.2-.1-.2-1l.1-.1h-.3a.55.55 0 0 0 .3-.5c0-.2 0-.4-.1-.6v.1c-.2-.8-.5-4.2-.5-5 .1.1.2.1.3 0l-.1-.2c-.1 0-.1.1-.1.1-.1-.1.1-.3-.2-.3.2 0 .2-.2.2-.2-.2-.1.2-.6-.2-.7-.1-.4.3-.1.2-.6h-.4c0-.1-.2-2.1-.3-2.2.1 0 .2-.1.3-.2-.1-.4-.1-.8-.2-1.2 0 0 0 .1.1 0-.2-1.4-.1-2.8-.1-4.2 0-.3.3-.1.3-.3.1-.2-.1-.3-.2-.4 0 .1 0 .2-.1.1 0-.1.1-.2.1-.3.1 0 .2.2.3 0v.3c.2 0 0-.1.1-.3l-.1-.2h.2c1.2-1.1 7-.8 7-.8h.1v.5c.3.7.1 1.5 0 2.1 0 .2 0 .8.2 1.2h-.2c0 .4.4.9.5 1.1h-.1c0 .2-.2.6.1.6-.1.4.1.3.3.7v-.1c.2.5.1 3.2.3 3.7h-.1c.3.4.1 1 .4 1.4-.1.8.6 8.9.9 9.8.1.8.2 0 .3.8 0 .1.1.1.2 0 0 .3.1.6-.1.9.4 1.6.1.5.3 2.1h-.1l.8 5.9.2.2c-.1.2 0 .5-.1.7 0 .2.2.1.2 0-.1.3.1.5 0 .7h-.1c-.2.4.4.6.2 1.1 0-.2.2 0 .3.2zm-12.1-32.8c0-.2 0-.4.2-.5 0 .2 0 .4-.2.5zm.9 13c.2 0 .4.1.5.1l-.2-.3-.3.2c0-.1 0-.1 0 0zm.4 2.9c0-.2.1-.3.2-.3-.2-.1 0-.2-.1-.4l-.2.2a.9.9 0 0 0 .1.5zm.8 3.2c-.2.1-.3-.3-.3-.4.2-.1-.2-.3 0-.4-.1-.1-.2 0-.2 0l.1 1.1c.1 0 0-.1 0-.1.2.2.3-.1.4-.2zm-.2.4l-.1.2v.2c.1-.2.2-.3.1-.4zm0 .7v.4c.1-.2.1-.3 0-.4z"/>
  <path class="live"
    d="M319.3 352.6c-.1 0-.1-.1-.1-.2 0 .1 0 .2.1.2zm23.4 13l.3-1.6.4-2.2c.1-.1.2-.1.3-.3.1-.8.3-1.6.5-2.5 0 .1 0 .2.1.1.6-2.9 1.4-4.6 2.1-7.5.1-.5.3 0 .5-.5.1-.3 0-.7.1-.9-.1.1-.1.2-.1.1l.2-.5c0 .2.1.5.2.2l-.1.5c.2 0 0-.2.2-.6l.1-.4.2.1c1.7-1.6 7.1-.1 7.1-.1v.2l-.2 1.1c-.1 1.5-.8 3.1-1.1 4.2-.1.5-.4 1.7-.4 2.4l-.2-.1c-.2.8-.1 2-.1 2.5h-.1c0 .3 0 1.2.3 1.2-.2.7-.6.5-.6 1.6l.1-.1c-.1 1.1-1.7 6.5-1.8 7.5l-.1-.1c0 .9-.5 2.1-.4 3l-1 3.7-.3 1.3c0 .1 0 .2-.1.3 0 .2-.1.4-.1.6l-.2 1.1-1 4.3-4.1.5c-1.5.2-1.5.3-1.6.3s0 .1-.2.1l-1.1.1c-.2 0-.3.1-.4.1s.1 0 .2.1c-.5.1-1 .1-1.6.1-.6.1-1.1.1-1.6 0l-2.8.4-2.2-4.9c-.1-.2-.2-.5-.3-.7l-.1-.3c0-.1-.1-.1-.1-.2l-.4-.7c-.2-.5-.4-1-.7-1.5l-2.4-5.3h.1l-5.3-11.8-.4-.4c0-.5-.3-.8-.4-1.4-.2-.2-.3-.1-.3 0-.1-.6-.5-1-.4-1.3l.1.1c-.1-.9-.8-1.1-1-2.1h.1c0-.4-.4-.7-.6-1-.2-.4.2-.1.1-.5-.3-.1-.3-.5-.4-.9.2.4.5.9.6.8-.2-.5.2-.2-.1-.7l-.2.1c-.2-.2-.3-.7-.2-.8 0 .1.1.4.2.5.4-.2 7-1.2 7.4-1.3.6.6.7 1.8 1.4 2.5 0-.2.2.3.3.3 0 .1.1.2.1.4-.1-.2-.2-.4-.3-.4l1.4 3.4c.2.7.7.7.8.9h-.2l.2.7c.1-.2.4-.2.4-.5.1 0 .1.2.3.4-.1 0-.3-.2-.3 0 .2.5.2.1.5.7 0 0-.4-.3-.3.2.4 1.3 3.5 8.1 4.2 9.6-.1-.1-.8 0-.8-.1l.4.6.1-.4c.6.6 2.6 4.6 3.3 5.3l-.1-.2c.4.6.6 1 1 1.7l-.3-.4a.45.45 0 0 0 0 .5v.2h.1s0-.1.1-.1h.2v.3l-.1.2.2-.2h.1v.1s.1 0 0-.1h.1v-.2c0 .1.1 0 .1-.1s.1-.2.1-.2h.4s0-.1.1-.1h.1c0 .1.1.1.1.1.1 0 .1 0 .2.2h.1s.1 0 0-.1l-.3-.3v-.1h.1v-.4l.3-1.3 1.1-4c0 .3.1.2.3 0v-.6c-.1.1-.1.2-.1.1 0-.3.2-.5 0-.7.1 0 .2-.3.3-.3-.2-.3.5-1.2.1-1.7.1-.8.3-.1.6-1l-.3-.1c-1-.1-.9-.4-.8-.8zM328.5 354c.1 0 0-.1 0-.1.1 0 0 0 0 .1zm10.8 22.7v-.1c.1 0 0 0 0 .1h0zm.9-.4h0c0-.1-.1-.1-.1-.2 0 .2 0 .2.1.2zm6.8-26.5c.1-.3.2-.7.5-.9-.1.4-.3.7-.5.9zm28.8 16.8h-.7c-.2 0-.2.2-.2.3v-.1h-.4c0 .2-.4-.2-.3-.1 0 .1.2.3.3.5 0 .1 0 .1-.1.2 0 0 .1-.3-.1-.3-.3-.1-1.9.3-2.2.3v-.5l-.1.1.1.2c-.1.3-.9.6-1.2.8l.1-.2c-.1.1-.2-.3-.3-.3l-.1.6c-.1-.2-.2-.2-.3-.2l.1.1c-.1.3-.2.1-.3.1l.1.1c0 .1-.1 0-.2 0 .1-.1-.1-.1-.1-.3.1.2-.1.3-.1.3-.1-.2-.1.2-.2 0v.2c-.2-.1-.2.2-.4.3-.4 0-.1-.1-.4.1l-.1-.1-.1-.4c-.1-.4-.1.5-.2.2 0 .2-.1 0-.1.1.1.2.2.1.2.3-.2.1-1.1.1-1.7.1l.5 3.6h-.1c0 .5.3 1.5.4 2.5h.5c0 .1-.1.5-.1.7l.2-.2-.1-.2c.1-.2.4-.4.8-.5.3-.1.6-.3.7-.4h-.1c.1-.2.2-.2.4-.2l-.1.1c0 .3.1.3.3.3l-.1-.1c.1-.1.1-.2.2-.1h.3l-.1-.1c0-.1.1 0 .2 0-.1.2.1.2.1.3-.1-.3.1-.3.2-.3 0 .3.1-.2.2.1v-.2c.1 0 .2 0 .2-.1l.2-.2c.4.1.1.2.5-.1l.1.1v-.3c.1.4.3.1.4.5 0-.2.1 0 .2-.1-.1-.3-.2-.1-.2-.3.1-.1.2-.1.5-.1h.8c.3 0 .5-.1.8 0h.4c0 .1.1.2.1.2l.1-.1-.1-.1c0-.1.1.1.1-.1 0 .1.1 0 .1.1 0-.3.4.2.3-.2.2-.1.1.2.3.2v-.3s1.1-.2 1.1-.3c0 .1.1.1.1.2.2-.1.3-.1.5-.2 0 0 0 .1.1 0 .7-.2 1.4-.1 2.2-.2.1 0 .1.3.2.3s.1-.1.2-.2c0-.1-.1 0-.1-.1h.2c0 .2-.1.3 0 .3h-.2c.1.2.1 0 .2 0v-.1l.1.2c.1.1.2.3.3.6.1.1.1.3.1.4l.2.5.4 1.1.4 1.2.5 2.2c.2.6.2 1 .2 1v.1l-.5-.4c-.3.3-.9.2-1.2.2-.1.1-.5.1-.6.3v-.2c-.2.1-.5.5-.6.5v-.1c0 .1-.3-.3-.2 0-.3 0-.3-.3-.5-.1h.1c-.1.1-.2.1-.4.1l-.7.1c-.5 0-.9.1-1.1.2v-.1c-.2.2-.6.1-.8.4h-1.7c-.7.1-1.3.1-1.6.3-.2.1-.2.1-.2.2s0 .1-.3.1c-.1 0-.1.2 0 .2-.2 0-.4 0-.6-.1l-.9.2-1.1.1c-.4 0-.7 0-1.1.1h-1.7l-.5.1h-.6c-.8 0-1.5.1-1.8 0l-.1.2c-.1-.2-.3-.1-.4-.2-.1 0-.1.1-.1.2-.2-.1-.2.1-.4-.1v-.1c-.2-.2-.4.3-.7 0v-.1c-.1-.1-.2.1-.3.1-.1-.1 0-.3-.1-.4 0 .1-.1.1-.1.1h0l.1-.2c-.2 0 0 .4-.2.4l-.1-.3h-.2c0-.1 0 .4.1.2h-.8c-.3-.3 0-.9-.5-1.2l.1-.2c0-.6-.2-1.2-.1-1.7.1-.3-.4-.4-.5-.5h.2v-.4c-.1.1-.5 0-.5.2-.1 0 0-.1-.1-.2.1 0 .2.1.2 0 0-.3-.1 0-.2-.3.1 0 .3.2.4-.1l-1-7.6v.2c-.2-.3-.3-.5-.3-.9l.1.2c.1 0 .1-.1.1-.1v-.3c-.2-.1-.2-.3-.2-.5 0-.1-.1-.1-.1-.2v.1c-.1-.1 0-.2 0-.3h.1c-.2-.4-.2-.9-.2-.9v-.3c-.1-.1-.3-.3-.3-.6 0-.5.2-.4.2-.5v-.3c0-.1-.1-.1-.1-.2l.1-.1v-.1h-.2c.1 0 .1-.1.1-.1 0-.2 0-.3-.1-.4v-.1c-.1-.5-.3-1.7-.4-2.8-.1-.2-.1-.3-.1-.5-.1-.7-.5-2.1-.5-2.1s-.2-1-.2-1.4h-.2c0-.1-.2-2.2-.3-2.1 0-.1.2-.1.2-.2l-.2-1.1s0 .1.1 0c-.2-1.4-.1-2.7-.1-4.1 0-.3.3-.1.3-.3s-.1-.3-.2-.4c0 .1 0 .1-.1.1 0-.1 0-.2.1-.3.1 0 .2.2.2 0v.3c.2 0-.1-.1 0-.3v-.2h.2c.5-.4 1.6-.6 2.9-.8v-.3c.2-.3.5 0 .7-.4-.1-.1.2 0 0-.2h.2c0 .1-.1.2-.1.3.3 0 .7-.1 1-.1.2.1.2-.4.3-.4v.2h.2l.3-.2c.4.1 2.4 0 2.8-.1v.2c.2-.4 1.4-.1 1.6-.4h-.1c.2-.2.3-.2.5-.2l-.1.1c.1.3.1-.2.3-.2v.1c.1-.1.2.2.4.2h-.1c0-.1.1-.1.1-.1s.1-.2.1-.1c-.1-.3.2.2.3.1 0 .3.1-.1.2 0v-.2c.1.1.3 0 .5-.1h.1v-.1c-.1-.2.2-.2.5-.2v.1h.3v-.1l.6-.1h.9c.3 0 .6-.3.9-.2l.6.1c-.1 0 0 .2 0 .3l.1-.1c0-.1-.1 0 0-.2 0-.1.1.1.2 0 0 .1.1 0 .1.1.1-.2.4.3.5-.2.2-.1.1.3.3.3v-.3c.1 0 1.4 0 1.3-.1.1 0 .1.1.1.2.2-.1.5 0 .7-.1v.4c.9 0 1.6-.7 2.5-.5.2 0 0 .3.1.3s.2-.1.3-.1c-.1 0-.1-.1-.1-.1l.2.1c0 .1-.1.2 0 .2h-.2c0 .2.1 0 .2.1h.1v.2c0 .2.1.5.1.8v.8l-.1 1.2c-.1.4-.1.9-.1 1.3l-.3 2.3v.6l-.1.4-.8-.4v-.1l-.5-.2c-.1 0-.4-.1-.6.1v-.2c-.2 0-.5.3-.6.4v-.1c-.1 0-.3.2-.3.5-.2-.1-.1-.4-.4-.3v.1h-.7l-.3-.1c-.4 0-.8-.1-.9 0v-.1c-.2.2-.6 0-.8.3l-.5-.1-.8-.1c-.6 0-1.2 0-1.4.1-.1 0-.1.1-.1.1-.1 0-.1 0 0 .1-.1 0 0 .1 0 .1 0 .1 0 .1-.2.1-.1 0-.6-.2-.6-.2-.1 0 0 .2.1.2-.9.3-2.7.5-3.5.7-.1 0-.3 0-.6.1l.2 2.9h-.1c.2.4.1 1 .4 1.4-.1.3 0 1.1 0 2.1.4.1 2 .1 2.4-.1.4-.1 0-.2.4-.2l7.7-1.2c0-.2.1-.1.2-.1-.1.1-.1.1-.1.3.1-.1 0 .2.2.1v-.2c0-.1.2 0 .2 0h-.1c0 .5.5 6 .5 6.3-.2.3-.4-.1-.6.4-.1-.1-.3-.6-.3-.4h-.1c0 .1 0 .2-.1.2v-.2zm-19.6-16.8c0-.2 0-.4.1-.5.1.2 0 .4-.1.5zm2.1 15.1s0-.1 0 0h0c-.1-.2-.1-.3-.1-.4l-.2.2c.1 0 .2.1.3.2h0zm6.4-17.1v.2l.1-.2h-.1zm4-.9c.1 0 .1.1.2 0h-.2zm.2 7.6h0zm2 13.5h0c-.1.1 0 .1 0 0zm3.6-.6s0-.1 0 0c-.1-.1 0-.2 0-.2v.2zm3.5-13.8c.1 0 .2 0 .1-.1 0 .1 0 .1-.1.1zm2.1 18.9h.2c0 .1.1.1.1.2h-.1l-.2-.2z"/>
  <path class="text"
    d="M268.3 265.6v.9c0 .2 0 .4-.1.5l-.1.3v.9l-.1.4v.4l-.1.5v.1c-.1 0 0 .1 0 .1l-.1.2-.1.3-.1.2-.2.5s0 .1-.1.1v.1l-.1.3-.2.4c-.1.2-.2.3-.3.5l-.3.4c-.4.6-.9 1.1-1.4 1.6s-1.1.9-1.6 1.2l-.4.2c0 .1-.1.1-.2.1l-.6.3c-.1.1-.2.1-.4.1l-.3.2-.4.1-.6.2c-.4.2-.8.2-1.1.3h0l-2.2.5c-.9.2-2 .4-3 .4l-2.9.2c-.9 0-1.6 0-2-.1l-.3.2c-.3-.2-.7-.1-1.1-.2-.3 0-.1.2 0 .2-.4-.2-.9-.1-1-.2v-.1a1.1 1.1 0 0 0-.8 0c-.3 0-.5.1-.8-.1h0c-.3-.2-.6 0-.9 0-.3-.1-.1-.2-.1-.3H242c-.3-.3 0-.9-.5-1.2 0 .1 0-.2-.2-.1v-.3c.1.1.2.2.3.2 0-.6-.1-1.2-.1-1.7.1-.4-.5-.4-.5-.5h.2v-.3c-.1.1-.5 0-.5.2-.2 0-.1-.1-.1-.2.1 0 .2.1.3 0 0-.3-.2-.1-.3-.3.1 0 .3.2.4-.1.1-.6-.4-4-.5-4.7.1 0 .7 0 .7.1l-.2-.3-.2.2c-.4-.3-.9-2.3-1.2-2.6v.1c-.2-.3-.2-.5-.3-.9l.1.2c.3-.1.3-.3.2-.5l-.1.2c-.3-.2-.1-.5-.2-.8v.2c-.1-.1-.1-.2-.1-.3.1.2.2-.1.3-.2-.2.1-.2-.3-.3-.4.2-.1-.2-.3 0-.4-.1-.1-.2 0-.2 0 .1-.3-.3-.4-.3-.8 0-.8.2-.1-.2-1l.1-.1h-.3c.4-.2 0-.5.5-.6-.2-.1 0-.2-.2-.4-.2.1-.1.3-.3.4-.2-.7-.3-4-.3-4.7.1.1.2.1.3 0l-.1-.2-.1.1c-.1-.1.1-.3-.2-.3.2 0 .1-.2.2-.2-.3-.1.2-.6-.3-.7-.1-.3.3-.1.3-.5h-.3s-.2-1.9-.4-2.1c.1 0 .2-.1.2-.2l-.2-1.1s0 .1.1 0c-.2-1.3-.1-2.1-.1-3.5 0-.3.3-.1.3-.3.1-.2-.1-.3-.2-.4-.1 0 0 .1-.1.1 0-.1 0-.2.1-.3.1.1.2.2.2.1v.2c.2 0 0-.1 0-.3v-.2h.2c.4-.3 1-.7 1.8-.8l-.2-.7v-.1l.8.2c.4-.3.9-.5 1.4-.6l1.3-.3.7-.2c.3-.1.6-.2.8-.4v.2l.8-.4c.1-.1.2-.2.3-.2.1-.1.2 0 .3 0v.1c.2-.1.9-.2.7-.5.3 0 .4.1.6.1.1 0 .3 0 .6-.1h-.2c.4-.1 1.5-.3 2.7-.4.6-.1 1.2-.1 1.7-.1h1.1v.1c.1 0 .1-.1.3 0h2.3l1.9.7c.1 0 .1 0 .2.1.1 0 .1 0 .2.1.1 0 .2.1.3.2l.3.2h.2c.1 0 .2 0 .2.1.1.1.2.2.3.2l1.7 1.7c0 .1.1.1.1.2l.2.3c.2.2.3 0 .4.2.1.1.2.2.2.3s.1.2.1.3l.3.6c.1.2.1.4.2.6.1 0 .1.1.1.2s0 .2.1.2c0 .2.1.2.1.3s.1 0 .1.1v.2c0 .1.1.1.1.2s.1.1.1.2l.1.1c.1 0 .1 0 .2.7 0 .2.2.2.2 0v1.2l-.1.4c0 .2-.1.3-.1.5v.7l-.1.7c0 .2 0 .3-.1.4v.2c-.6 2.1-1.9 3-2.2 3.2h.2c.3 0 2.1.6 3.2 1.3a10.25 10.25 0 0 1 2.1 2l.2.2c0 .1.1 0 .1.1l.4.8.3.7.5 1.5c0 .3.1.4.1.5.1.1.1.2.1.2l.1.1s.1 0 .1.1l.1.7c-.4.2-.3.3-.2.1zm-31-19.2c0-.2 0-.4.2-.5 0 .2-.1.3-.2.5zm10.6 11c.4 0 .4-.2.5-.2v.2h.4c-.1-.1 0-.5-.3-.5 0-.1.2 0 .2-.1 0 .1-.1.2 0 .2.3 0 .1-.2.4-.3 0 .1-.2.3.1.4.2 0 .6-.1 1-.2.5-.1 1 0 1.5-.3.5-.2.9-.4 1.3-.6l.7-.4c0 .1.1.1.1.3.1.1.1.3.1.3v-.2l.1-.2-.3-.1c0-.1 0-.1.1-.2 0-.1.4-.2.4-.3s.1-.1.1-.2l.1-.1.2-.4c.1-.2.1-.9.1-1v-.2c0-.1-.1-.1-.1-.1v.1-.3h.3v-.1c.1 0 0-.1 0-.1h-.2c-.1 0-.1-.1-.1-.1v-.1l.1-.1v-.1l-.1.1c-.1 0 0-.1 0-.2h.2s0-.1.1-.1h-.1l-.4-.1v-.2c.1 0 0-.1 0-.1-.1 0-.1-.1 0-.1h-.2v-.1c0-.1-.1-.1-.1-.1-.1 0-.1-.1-.1-.1-.1 0-.1-.1-.1-.1v-.1h-.1v-.4h-.1c0-.1 0-.1-.1-.1 0-.1 0-.1-.1 0 0 0 0-.1-.1 0l.1-.1h-.3c.2-.1.2-.1.2-.2l.2-.2h-.1v-.1s0-.1-.1 0l-.3.3v-.1c-.1 0-.1 0-.1-.1 0 0-.1 0-.1-.1v-.2h-.1v-.1h-.1c0-.1 0-.1-.1 0v-.1h-.1l-.5-.2c.1 0 .1-.1.1-.2h-.2c0 .1.1.1 0 .2s-.2-.1-.2.1c0-.2-.1-.2-.1-.2-.1 0-.1 0 0 .1h-.3c-.1 0-.3-.1-.3.2-.3 0 0-.3-.4-.3v.3l-1 .1c-.6.1-1.1.2-1 .3l-.2-.2-1.1.4v-.1c-.7.2-1.4.4-2.2.5-.1.1-.3.1-.5.1l.2 3.2h-.1c.3.4 0 1 .4 1.3v2.3l2.8-.2zm11.9 9.8c-.1-.1-.1-.2-.1-.2h.1v-.1c-.1 0-.1-.1 0-.1-.1-.1-.2-.1-.2-.1v-.1c0-.1 0-.1-.1-.1 0-.1 0-.1-.1-.1 0 0 0-.1-.1 0v-.1c0-.1-.1 0-.1-.1v-.5s-.1 0-.1-.1h-.1v-.1h-.1l.1-.1h-.2c.1 0 .1-.1.1-.1v-.2l.2-.1h-.1c0-.1 0-.1-.1-.1l-.1.1v.1c0 .1 0 .1-.1.1l.3-.2v-.1c0-.1-.1 0-.1-.1s-.1-.1-.1-.1v-.1h-.1v-.1h-.1v-.1h-.3c0-.1-.1-.1-.2-.1-.2-.1-.5-.6-.7-.7.1 0 .1-.1.1-.3l-.2.1c0 .1.1.1 0 .2-.1 0-.2-.2-.3 0 0-.1 0-.1-.1-.1h-.1c0 .1-.1.1-.2 0h-.1c-.1 0-.1 0-.1-.1h-.3c-.1 0-.1.1-.2.2h-.2c-.1 0-.1 0-.1-.1s-.1-.2-.3-.2v.3h-.2c0-.1-.1 0-.1 0h-1.1c-.6.1-1.2.1-1.2.2 0-.1-.1-.2-.2-.2l-1.5.3c0-.1.1-.1 0-.1l-2 .2-1.5.3.6 3.9h-.1l.4 2.3 1.4.2c.4.1.6-.4.7-.4v.2l.5.1c-.1-.2 0-.5-.2-.6 0-.1.1 0 .3 0 0 .1-.1.2 0 .2.3 0 .1-.2.5-.2 0 0-.3.3.1.4h1.2c.6 0 1.2 0 1.9-.1l1.8-.3h.2c0-.1.1-.1.2-.1s.2-.1.2-.1c.2 0 .3-.1.4-.1v.7l.3-.3c-.1 0-.2-.1-.2-.2s.2-.2.5-.4l.1-.1.2-.1c.1 0 0-.1.1-.1 0-.1 0-.1.1-.1l.1-.2.6-.6v-.6h.1v.1c.3.2.3.1.4 0h-.2c0-.1-.1-.1-.1-.1v-.2h.1v-.1h-.1v-.1c.1-.1.1-.1.2-.1h0zm-11.3-17h0z"/>
  <path class="text"
    d="M287.8 259.3h-.7c-.2 0-.2.2-.2.3v-.1h-.4c0 .2-.4-.2-.3-.1 0 .1.2.3.3.5 0 .1 0 .1-.1.2 0 0 .1-.3-.1-.4-.3-.1-1.9.3-2.2.3v-.5l-.1.1.1.2c-.1.3-.9.6-1.2.8l.1-.2c-.1.1-.2-.3-.3-.3l-.1.6c-.1-.2-.2-.2-.3-.2l.1.1c-.1.3-.2.1-.3.1l.1.1c0 .1-.1 0-.2 0 .1-.1-.1-.1-.1-.3.1.2-.1.3-.1.3-.1-.2-.1.2-.2 0v.2c-.2-.1-.2.2-.4.3-.4 0-.1-.1-.4.1l-.1-.1-.1-.4c-.1-.4-.1.5-.2.2 0 .2-.1 0-.1.1.1.2.2.1.2.3-.2.1-1.1.1-1.7.1l.5 3.6h-.1c0 .5.3 1.5.4 2.5h.5c0 .1-.1.5-.1.7l.2-.2-.1-.2c.1-.2.4-.4.8-.5.3-.1.6-.3.7-.4h0c.1-.2.2-.2.4-.2l-.1.1c0 .3.1.3.3.3l-.1-.1c.1-.1.1-.2.2-.1h.3l-.1-.1c0-.1.1 0 .2 0-.1.2.1.2.1.3-.1-.3.1-.3.2-.3 0 .3.1-.2.2.1v-.2c.1 0 .2 0 .2-.1l.2-.2c.4.1.1.2.5-.1l.1.1v-.3c.1.4.3.1.4.5 0-.2.1 0 .2-.1-.1-.3-.2-.1-.2-.3.1-.1.2-.1.5-.1h.8c.3 0 .5-.1.8 0h.4c0 .1.1.2.1.2l.1-.1-.1-.1c0-.1.1.1.1-.1 0 .1.1 0 .1.1 0-.3.4.2.3-.2.2-.1.1.2.3.2v-.3s1.1-.2 1.1-.3c0 .1.1.1.1.2.2-.1.3-.1.5-.2h.1c.7-.2 1.4-.1 2.2-.2.1 0 .1.3.2.3s.1-.1.2-.2c0-.1-.1 0-.1-.1h.2c0 .2-.1.3 0 .3h-.2c.1.2.1 0 .2 0v-.1l.1.2c.1.1.2.3.3.6.1.1.1.3.1.4l.2.5.4 1.1.4 1.2.5 2.2c.2.6.2 1 .2 1v.1l-.5-.4c-.3.3-.9.2-1.2.2-.1.1-.5.1-.6.3v-.2c-.2.1-.5.5-.6.5h0c0 .1-.3-.3-.2 0-.3 0-.3-.3-.5-.1h.1c-.1.1-.2.1-.4.1l-.7.1c-.5 0-.9.1-1.1.2v-.1c-.2.2-.6.1-.8.4h-1.7c-.7.1-1.3.1-1.6.3-.2.1-.2.1-.2.2s0 .1-.3.1c-.1 0-.1.2 0 .2-.2 0-.4 0-.6-.1l-.9.2-1.1.1c-.4 0-.7 0-1.1.1H279l-.5.1h-.6c-.8 0-1.5.1-1.8 0l-.1.2c-.1-.2-.3-.1-.4-.2-.1 0-.1.1-.1.2-.2-.1-.2.1-.4-.1v-.1c-.2-.2-.4.3-.7 0v-.1c-.1-.1-.2.1-.3.1-.1-.1 0-.3-.1-.3 0 .1-.1.1-.1.1h0l.1-.2c-.2 0 0 .4-.2.4l-.1-.3h-.2v-.1h-.1.2c0-.1 0 .4.1.2h-.8c-.3-.3 0-.9-.5-1.2l.1-.2c0-.6-.2-1.2-.1-1.7.1-.3-.4-.4-.5-.5h.2v-.4c-.1.1-.5 0-.5.2-.1 0 0-.1-.1-.2.1 0 .2.1.2 0 0-.3-.1 0-.2-.3.1 0 .3.2.4-.1l-1-7.6v.2c-.2-.3-.3-.5-.3-.9l.1.2c.1 0 .1-.1.1-.1v-.3c-.2-.1-.2-.3-.2-.5 0-.1-.1-.1-.1-.2v.1c-.1-.1 0-.2 0-.3h.1l-.2-.9v-.3c-.1-.1-.3-.3-.3-.6 0-.5.2-.4.2-.5v-.3c0-.1-.1-.1-.1-.2l.1-.1v-.1h-.2l.1-.1c0-.2 0-.3-.1-.3v-.1c-.1-.5-.3-1.7-.4-2.8-.1-.2-.1-.3-.1-.5-.1-.7-.5-2.1-.5-2.1l-.3-1.4h-.2c0-.1-.2-2.2-.3-2.1 0-.1.2-.1.2-.2l-.2-1.1s0 .1.1 0c-.2-1.4-.1-2.7-.1-4.1 0-.3.3-.1.3-.3s-.1-.3-.2-.4c0 .1 0 .1-.1.1 0-.1 0-.2.1-.3.1 0 .2.2.2 0v.3c.2 0-.1-.1 0-.3v-.2h.2c.5-.4 1.6-.6 2.9-.8v-.3c.2-.3.5 0 .7-.4-.1-.1.2 0 0-.2h.2c0 .1-.1.2-.1.3.3 0 .7-.1 1-.1.2.1.2-.4.3-.4v.2h.2l.3-.2c.4.1 2.4 0 2.8-.1v.2c.2-.4 1.4-.1 1.6-.4h-.1c.2-.2.3-.2.5-.2l-.1.1c.1.3.1-.2.3-.2v.1c.1-.1.2.2.4.2h-.1c0-.1.1-.1.1-.1 0-.1.1-.2.1-.1-.1-.3.2.2.3.1 0 .3.1-.1.2 0v-.2c.1.1.3 0 .5-.1h.1v-.1c-.1-.2.2-.2.5-.2v.1h.3c.1 0 .1 0 0-.1l.6-.1h.9c.3 0 .6-.3.9-.2l.6.1c-.1 0 0 .2 0 .3l.1-.1c0-.1-.1 0 0-.2 0-.1.1.1.2 0 0 .1.1 0 .1.1.1-.2.4.3.5-.2.2-.1.1.3.3.3v-.3c.1 0 1.4 0 1.3-.1.1 0 .1.1.1.2.2-.1.5 0 .7-.1v.4c.9 0 1.6-.7 2.5-.5.2 0 0 .3.1.3s.2-.1.3-.1c-.1 0-.1-.1-.1-.1l.2.1c0 .1-.1.2 0 .2h-.2c0 .2.1 0 .2.1h.1v.2c0 .2.1.5.1.8v.8l-.1 1.2c-.1.4-.1.9-.1 1.3l-.3 2.3v.6l-.1.4-.8-.4v-.1l-.5-.2c-.1 0-.4-.1-.6.1v-.2c-.2 0-.5.3-.6.4v-.1c-.1 0-.3.2-.3.5-.2-.1-.1-.4-.4-.3v.1h-.7l-.3-.1c-.4 0-.8-.1-.9 0v-.1c-.2.2-.6 0-.8.3l-.5-.1-.8-.1c-.6 0-1.2 0-1.4.1-.1 0-.1.1-.1.1s-.1 0 0 .1c-.1 0 0 .1 0 .1 0 .1 0 .1-.2.1-.1 0-.6-.2-.6-.2-.1 0 0 .2.1.2-.9.3-2.7.5-3.5.7-.1 0-.3 0-.6.1l.2 2.9h-.1c.2.4.1 1 .4 1.4-.1.3 0 1.1 0 2 .4.1 2 .1 2.4-.1.4-.1 0-.2.4-.2l7.7-1.2c0-.2.1-.1.2-.1-.1.1-.1.1-.1.3.1-.1 0 .2.2.1v-.2c0-.1.2 0 .2 0h-.1c0 .5.5 5.9.5 6.3-.2.3-.4-.1-.6.4-.1-.1-.3-.6-.3-.4h-.2c0 .1 0 .2-.1.2v-.2zm-19.6-16.8c0-.2 0-.4.1-.5.1.1 0 .3-.1.5zm2.1 15h0c-.1-.2-.1-.3-.1-.4l-.2.2c.1 0 .2.1.3.2h0zm6.4-17.1v.2l.1-.2h-.1zm3.9-.8c.1 0 .1.1.2 0h-.2zm.3 7.5s0 .1 0 0h0zm1.9 13.5h0c0 .1 0 .1 0 0zm3.7-.6c-.1-.1 0-.2 0-.2v.2zm3.5-13.7c.1 0 .2 0 .1-.1 0 0-.1.1-.1.1zm2.1 18.9h.2c0 .1.1.1.1.2h-.1l-.2-.2z"/>
  <path class="text"
    d="M316.1 236.6c.7 1.2.5 7 .5 7v.1l-.4-.4c-.5.2-1 0-1.4-.1-.2.1-.6 0-.8.2v-.2c-.3 0-.6.3-.8.4v-.1c-.2 0-.4.2-.4.5-.3-.1-.2-.4-.5-.2h.1c-.4.1-2.2 0-2.5.1v-.1c-.3.2-.7 0-.9.3h-.3c0 .9.1 2 .2 2.3h-.1c.2.4.1 1 .4 1.4-.1.8.1 4.4.4 5.3.2.8.3 0 .3.8 0 .1.2.1.3 0 0 .3 0 .6-.1.9.4 1.6.8 4.8 1 6.4h-.1l.9 6.1.2.2c-.2.2 0 .4-.1.7.1.1.2.1.2 0-.1.3.1.5 0 .7h-.1c-.2.4.4.6.2 1.1h-.1c-.1.2.1.3.2.5-.1.3-.2.1-.3.2.2.1.1.2.1.4-.1-.2-.1-.3-.3-.3 0 .3-.2.1-.1.3h.3c.1.1 0 .4-.1.4v-.3c-.5 0-6.8.8-7.2.8-.3-.3 0-.9-.5-1.3 0 .2-.1-.2-.2-.1.1-.1 0-.2 0-.3.1.1.2.2.3.2l-.1-.7h.1v-.4c-.1.1 0-.5-.1-.3v.1-.1c-.1 0 0-.1-.1-.2l-.2.6c0-.1.1-.3.1-.4v-.1c0-.2.1-.3.1-.5l-.1.3c0-1.2-.9-6.5-1-7.2.1 0 .5 0 .6.1l-.2-.3-.2.2c-.4-.3-.9-2.4-1.2-2.8v.1c-.2-.3 0-.5 0-.9l.1.2c.3-.1.2-.3.2-.5l-.1.2c-.3-.2-.1-.5-.2-.9l-.1.2c-.1-.1 0-.2 0-.3.1.2.2-.1.3-.2-.3 0-.3-.3-.3-.4.2-.1-.2-.3 0-.4h-.2c0-.3-.3-.4-.4-.9 0-.8.2-.1-.2-1l.1-.1h-.2c.4-.2 0-.5.4-.7-.2 0 0-.2-.1-.3-.3.1-.1.3-.3.4-.2-.8-.6-4.2-.6-4.9.1.1.2.1.3 0l-.1-.3c0 .1 0 .2-.1.1s.1-.3-.1-.3c.2 0 .1-.2.2-.2-.3-.1.2-.6-.3-.7-.1-.4.3-.1.2-.5h-.4c.1 0 0-1-.2-1.6h-.5v-.1c-.7.1-3 .5-3.7.4l-.1.2c-.2-.1-.3 0-.5-.1-.2 0-.1.2 0 .2-.2-.1-.4 0-.5-.1v-.1c-.3-.2-.4.4-.8.1-.1-.1-.2.1-.3.1-.2-.1 0-.3-.2-.3 0 .3-.1.1-.3.1.2 0 .3-.1.3-.3-.1.1 0-.2-.2-.1v.2c0 .1-.2 0-.2 0h.2l-.3-6.8c.2-.3.6 0 .9-.3-.1-.1.1-.1.1-.2h.2c-.1.1-.1.1-.1.2h1.2c.2.1.3-.4.4-.3v.2h.3c-.1-.2 0-.5-.2-.5 0-.1.1 0 .2-.1 0 .1-.1.2 0 .2.2 0 0-.1.2-.2 0 .1-.1.3 0 .4.5.1 2.9-.2 3.4-.3 0 .1 0 .6-.1.7l.2-.2-.1-.2c.1-.2.3-.3.7-.4v-.1c.5-.2 1.1-.1 1.3-.2h-.1c.2-.2.4-.2.6-.2l-.1.1c0 .3.2.2.3.2l-.1-.1c.2-.2.4 0 .6-.1l-.1-.1c0-.1.2 0 .2 0-.1.1.1.1.1.3-.1-.2.2-.3.3-.3 0 .2.2-.2.3 0v-.2c.2.1.3-.2.6-.3.6 0 .1.2.7-.1l.1.1v-.3c.1.4.4.1.5.5 0-.2.1 0 .2-.1-.1-.3-.2-.2-.3-.3.5-.2 2.9 0 3.4 0-.1.1 0 .2 0 .3l.2-.1c-.1 0-.1 0-.1-.1.1-.1.2.1.2-.1 0 .1.2.1.2.1.1-.2.4.3.5-.2.3-.1.1.3.4.3v-.3c0 .1 1.4 0 1.5-.2 0 .1.1.1.1.2.2-.1.5 0 .8-.1v.1c1-.1 1.9-.3 2.9-.2.2 0 .1.3.2.3.1.1.2-.1.3-.1-.1 0-.1 0-.1-.1.1 0 .1.1.2.1 0 .1-.1.2 0 .3h-.2c0 .2 0 0 .2.1l.1-.1v.3zM304.2 269c0 .2-.1.3 0 .2 0 0 .1 0 0-.1v-.1zm.1.9h.2l-.1-.7c-.1.4-.1.8-.1.7zm11.7-33.8c.2 0 .3.1.4.2-.2.1-.3 0-.4-.2zm36.9 30.2c.2.2.3.6.2.7 0-.1-.1-.3-.2-.5-.4.2-6.9 1.6-7.3 1.7-.6-.6-.7-1.7-1.5-2.3 0 .3-.3-.4-.3-.2 0-.2-.1-.3-.2-.5.2.2.3.4.4.4l-1.8-3.9c-.2-.6-.8-.6-.9-.8l.2-.1v-.1c-.2.1-.4.2-.7.3-.2.1-.4.2-.5.3l-.5.2-.7.2c0-.1-.1-.6 0-.6l-.2.3.2.1c-.1.2-.5.5-1 .7-.1 0-.1.1-.1.1l-.1.1-.3.2-.4.2h.1c-.2.2-.4.3-.7.3l.1-.1c-.1-.2-.3-.2-.4-.2l.1.1c-.1.3-.3.1-.6.2l.2.1c0 .1-.2 0-.3 0 .1-.1-.1-.1-.2-.2.1.2-.2.2-.3.3 0-.1-.1-.1-.2 0 0 .1-.1.1-.1 0-.1.1-.1.1 0 .2-.2 0-.3.2-.6.3-.7 0-.1-.1-.8.1l-.1-.1v.3c-.2-.4-.5-.1-.5-.5-.1.2-.2 0-.3.1.1.3.3.2.4.3-.3.1-1.2.1-2 0h-.6c-.2 0-.4-.1-.6 0l-.8-.1c.1-.1.1-.2 0-.3l-.2.1c0 .1.1.1 0 .2-.1 0-.2-.1-.2.1 0-.2-.1-.1-.1-.2 0 .1-.2 0-.3 0s-.3-.1-.3.1c-.3 0 0-.3-.4-.3v.3h-.3l-1.8 5.3c-.1.5-.3 0-.5.5-.1.3-.1.6-.1.9 0-.1.1-.2.1-.1l-.3.5c0-.2 0-.5-.2-.2l.2-.5c-.2-.1 0 .2-.2.6l-.1.4-.2-.1c-1.8 1.5-7.4-1.6-7.4-1.6v-.2l.7-.7c.2-1.5.9-3 1.3-4 .1-.5.5-1.6.5-2.3l.2.1c.2-.8.2-1.9.3-2.4h.1c.1-.3.1-1.1-.2-1.2.3-.7.6-.5.6-1.4v.1c.2-1.1 1.9-6.3 2.1-7.2v.1c.1-.9.6-1.9.6-2.8l1.4-4.4c.2-.4.3-1 .4-1.4l.1-.3.1-.5.4-1.2 1.1-4.2 1.6-.2c.4 0 .7-.1.9-.1l.8-.1c.3 0 .5-.1.7-.1h.4v-.1c0-.1.1-.1.9-.1.2 0 .3-.2 0-.2l2.2-.2h.3c.6-.1 1.1-.1 1.5 0 .3-.1.8-.1 1.3-.2l2.4 4.8c.1.2.2.5.3.7.1 0 .1.1.1.1l.1.1 1.3 2.6 2.7 5.5h-.1l5.7 11.2.4.3c0 .5.3.8.5 1.4.1.2.2.1.2 0 .1.5.5.9.5 1.2l-.1-.1c.1.9 1.2 1.7 1.4 2.6 0 .4.4.7.6.9.1.5-.2.2-.2.5.3.1.3.5.5.9-.2-.4-.4-.8-.6-.7.3.5-.1.2.2.6v-.7zm-28.3 4.4c-.1.4-.2.7-.5.9.1-.4.3-.7.5-.9zm-.2-.1v-.1.1zm14.1-16l-2.1-4.3h.7l-.4-.5v.4c-.7-.5-2.8-4.4-3.5-5l.1.2-.8-1.1-.1.6-1.5 4.8c0-.2-.1-.1-.2 0l-.1.6c.1-.1.1-.2.2-.1 0 .3-.3.5-.1.7-.1 0-.2.3-.2.3.2.3-.6 1.2-.2 1.6-.1.8-.3.1-.6.9l.3.1-.2.7-.4 1.5-.1.3c.2 0 .3 0 .5-.1.1 0 .1 0 .2.1.1 0 .3 0 .4.1l1 .2c.7 0 1.3 0 1.6-.1.5-.1 0-.2.5-.2.1 0 .1-.2 0-.2.2 0 .4 0 .5.1.1-.1.2-.1.4-.1l.5-.2 1-.3c.7-.2 1.3-.3 1.7-.5v.1l.9-.6zm-5.9-10.6l-.1.2c.1 0 .1-.1.1-.2zm2.3 19.4h0zm-147.5 48.9c0 .4-.1.8-.3 1.2-.1.4-.3.8-.4 1.2l-1.2 2.8-.1.2h-.1l-.6-.7c-.6 0-1.2-.2-1.8-.4-.5-.1-1.1-.4-1.5-.5-.2 0-.5 0-.9-.1h-.3l-.7.1v-.2c-.4 0-.7.1-1.1.1l-.4.1c-.2 0-.2.1-.3.1v-.1c-.1 0-.3.1-.5.2-.1.1-.3.2-.2.4-.3 0-.4-.1-.6-.2h-.2c-.1 0-.3 0-.4.1h.1c-.1 0-.2 0-.4.1h-.5c-.1 0-.1.1-.1.1-.5 0-1 .2-1.5.4-.4.1-.9.4-1.2.6 0 .1-.1.1-.2.1l-.4.4v-.1c0 .1 0 .1-.1.1l-.1.2-.3.3-.1.2c0 .1-.1.1-.1.2s-.1.1-.1.2v.2c-.2.2-.5.5-.7 1 0 .2-.1.3-.2.4 0 .1 0 .2-.1.2v.2c0 .1-.1.2-.1.3l-.1.3c0 .1 0 .2-.1.3 0 .1 0 .2-.1.3l-.3 2.3v1.1l.1.7c.1.7.2.6.2.7.1 0 .1 0 .1.7 0 .2.2.3.2 0v1l-.1.4.3 1 .4 1.1c.2.8.6 1.5 1 2.2l.3.3c0 .1.1.1.1.1l.2.2s0 .1.1.1c0 0 .1 0 .1.1l.2.2c0 .1.1.1.1.2h.1l.2.2c.4.4.8.6 1.2.8h-.1c.2.1.6.2 1.1.4l1 .1c.4.1.8 0 1.2 0l.9-.1c.1 0 .2 0 .3-.1.5 0 .9-.1 1.3-.2.1 0 0-.1.1-.1h.2c.1-.1.2-.1.3-.1l.4-.2.8-.2.2-.3c.2 0 .3 0 .5-.1.1-.1.3-.1.6-.2.1-.1 0-.2-.1-.2.2 0 .4-.1.6-.2.1-.1.3-.2.4-.1v.1c.3 0 .5-.3.7-.4s.4-.4.8-.4v.1c.3 0 .5-.4.8-.5s.1.2.4.2c0-.2.3-.3.6-.4-.3.2-.6.4-.5.6.4-.2.2.1.5-.2l-.1-.2.3-.2h.2v.1h-.1c-.1 0-.1.1-.2.1.1.1.4.6.6 1.3.3.6.9 1.2 1.1 2 .3.8.9 1.5 1.1 2.2.2.6.3 1.1.3 1.2-.2.4-.7.5-1.1.7s-1.6.8-1.9 1.2c.3 0-.4.2-.2.3-.2 0-.3.1-.5.2.2-.2.4-.3.4-.5-.6.2-1.1.5-1.7.7s-1.1.4-1.7.5c-.3.1-.5.2-.6.4s-.2.3-.3.3v-.2c-.2.1-.5.2-.7.2l-.9.5c-.4 0-1.1.2-2.1.3-.9.1-2.2.2-3.4.1-.3 0-.6 0-.9-.1h-.9l-.9-.2-.8-.3-.4-.1c-.1-.1-.2-.1-.4-.2l-.6-.3-.3-.1-.2-.1c-.2 0-.3-.1-.3-.2 0 0 .2-.1.3-.2l.3-.2-.3-.1-.4-.2c.1.2.1.3.3.5l-.6-.2c-.1 0-.1 0-.2-.1l-.2-.1-.9-.5-.4-.3-.2-.1-.3-.2c-.1-.1-.3-.3-.5-.4l-1-.8-.2-.2c-.1 0-.1 0-.1-.1-.1 0-.1-.1-.1-.1a.78.78 0 0 0-.4-.4l-.1-.1s-.1 0-.1-.1l-.2-.2-.3-.4-.2-.3-.4-.4c0 .1.1.1.1.2l-.2-.2-.1-.2-.3-.4c0-.1-.1-.1-.1-.1 0-.1-.1-.1-.1-.1 0-.2-.1-.2-.1-.3s-.1-.2-.1-.3-.1-.1-.1-.2c0 .1.1.1.1.2l.1.2a.45.45 0 0 0 0-.5c0-.2-.1-.4-.2-.7v.4c-.2-.2-.3-.5-.4-.8l-.3-1.1v.4c-.1-.1-.1-.4-.2-.6.1.2.1.1.1-.1v-.3l.1-.2c-.2.3-.4-.5-.5-.7.1-.1 0-.3 0-.5-.1-.1-.1-.3 0-.4-.1-.1-.2 0-.2.1 0-.2 0-.3-.1-.4 0-.2-.1-.3-.1-.4l-.2-.5v-.2l-.1-.1v-.4c-.1-.9 0-.9-.1-1v-.3c0-.1-.1-.2-.1-.3s0-.2-.1-.2v-.3l.1-.2-.3-.1c.1-.1.2-.2.2-.3v-.4c0-.3.1-.5.3-.6-.1-.1-.1-.2-.1-.3 0-.2 0-.3-.1-.6-.1.1-.2.3-.2.5v.3l-.1.2v-1.6l.1-.7c0-.2 0-.5.1-.8 0-.2 0-.3.1-.4 0-.2 0-.3.1-.5l.2-.9.1-.5v-.2l.1-.3.1-.4c0-.1.1-.2.1-.3s.1-.2.1-.2l.3-1 .2-.5v-.2c0-.1.1-.1.1-.2l.2-.4v-.2l.1-.2.4-.7.4-.6.6-.8c-.2.3 0 .3.3.1l.4-.6c-.1 0-.2.2-.2 0a1.38 1.38 0 0 1 .3-.4c.1-.1.2-.2.2-.3.1.1.4-.2.4-.2.1-.2.4-.5.8-.7.3-.3.7-.6.7-.9l.4-.3h.4c.1 0 .2 0 .2-.1l.1-.1c.1 0 .1-.1.1-.1l-.1-.3s.1-.1.2-.1l.3-.1.3-.2 1-.5c.1 0 .1-.1.2-.1l.5-.2c.1-.1.3-.1.5-.2 0-.1 0-.1.1-.1s.1 0 .1-.1c.1 0 .2 0 .2-.1.1 0 .2 0 .2-.1h.3l.9-.3c.1-.1.2-.1.2-.1.1 0 .2.1.4.2l2.8-.5c-.1.1-.2.1-.1.1 1.6-.1 3.1 0 4.6.2s2.9.5 4.3.9c.5.1 0 .3.5.4.3.2.7.1.9.1-.1 0-.2-.1-.1-.1l.5.3c-.2 0-.5.1-.1.3h-.3c.1 0 .2 0 .3.1.1 0 .3.1.4.1l-.1.2c1 .1 1 .8.9 1.6zm-18.3 30.5h0zm17.4-32.8c-.2-.1-.2-.2-.3-.2-.1.2.1.1.3.2zm.1 22.9h0zm0 0h0zm.3-23.1c.3.2.7.3.9.6-.2 0-.4-.1-.5-.2a.78.78 0 0 1-.4-.4z"/>
  <path class="text"
    d="M224.2 323.8v.7c.1.5 0 1 0 1.5v1.6l-.2 1.4v.4l-.1.4c0 .1 0 .2-.1.4v.4l-.4 1.4-.4 1c0 .1-.1.2-.2.3l-.5 1.1-.3.5-.5.8c-.1.1-.2.2-.2.3l-.2.3c0 .1-.1.2-.1.2l-.1.2-.4.4c-.2.1-.3.3-.5.4l-.2.2c-.1.1-.2.2-.3.2l-.3.2c-.1 0 0 .1-.1.1s0 .1-.1.1l-.1.1c-.4.3-.3.3 0 .3-.4.2-.8.5-1.1.7-.4.2-.7.4-1 .5l.1-.2c-.3.1-.7-.1-1 .1-.1.1-.2.2-.4.2l-.1.1c-.1 0-.1.1-.2.1l-.8.4c-.1.1-.3.1-.4.1-.2 0-.3.1-.5.1h0c-.1 0-.2 0-.2.1h-.2l-.4.1-.8.3c-.4 0-.4-.1-.4-.1 0-.1 0-.1-.3-.1-.2.2-.8.2-1.4.2l.6-.1s0-.1.1-.1h.2c.1-.1.2-.1.3-.1h-1v.1c-.1.1-.5.1-.7.1h-.4l-1 .1-2.5-.1c-.6-.1-.5-.1-.9-.2-.1 0-.2 0-.3-.1-.3 0-.7 0-.9-.1l-.4-.1c-.2 0-.3-.1-.4-.1l-.7-.3-.7-.2-.6-.3c-.2 0-.4-.2-.7-.3-.2 0-.3-.1-.5-.2-.1 0-.2-.1-.2-.1l-.3-.1-.5-.3-.4-.3-.3-.1-.6-.3.1-.1-.8-.6-.4-.4c-.1 0-.2-.1-.2-.2l-.2-.1-.4-.4c-.2-.1-.1-.2-.1-.3l-.3-.3-.2-.3h.1c-.1-.1-.2-.2-.3-.4 0-.1-.1-.1-.1-.1 0-.1-.1-.1-.1-.1l-.2-.2c-.1-.1-.2-.5-.3-.5-.1-.1-.2-.1-.3 0-.1-.3-.2-.5-.2-.6s0-.1-.1-.1v-.4c0-.2-.1-.3-.2-.5 0-.1-.1-.1-.1-.1-.1 0-.1-.1-.1-.1-.1-.1-.1-.3-.3-.4l.1.2-.2-.3c0-.1 0-.1-.1-.1v-.2c-.1 0-.1-.1-.1-.2 0-.2-.1-.4-.2-.6l-.2-.7c-.3-.9-.5-2.1-.7-3.3l-.3-2.7v-2.6l.1.1c0-.3 0-.7-.1-1 0-.2.1-.4 0-.6v-.6l.1-.6v-.6c0-.2.1-.4 0-.5v-.6c0-.2.1-.4.1-.6l.1-.2v-.2l.2-.4v-.2c0-.1.1-.2.1-.2l.2-.5.2-.2.4-.8.2-.5c0-.1.1-.2.2-.3l.1-.3.4-.5.3-.3 1.8-1.9c.2-.1.4-.3.5-.5l.6-.4 1.1-.8c.1-.1.1-.1.2-.1l.3-.2.6-.3c.2-.1.4-.2.5-.3l.5-.2c0-.1.1-.1.1-.1.1 0 .1-.1.1-.1s.1-.1.2-.1c0 0 .1-.1.2-.1 0-.1.1-.1.2-.1l.4-.2.4-.1c.2 0 .2-.1.4-.1s.2-.1.3-.1c.1-.1.2-.1.3-.1.1-.1.2-.1.2-.1 1.2-.3 1.2-.4 1.3-.4 0 0 0-.1.2-.1 0-.1.1-.1.3-.1h.3c.1 0 .1-.1.2-.1l1.3-.1c.2 0 .2-.1.4-.2l.7.1.6.1h1c.2 0 .4.1.6 0h.7c.8.1 1.7.2 2.6.5s1.9.6 2.8 1.1 1.8 1 2.6 1.7l.6.6.4.2.5.5.1.2.1.1c.1.1.2.2.2.3l.5.6c.1.1.1.2.2.3 0 0 .1.1.1.2l.1.1.4.6.3.6.1.1v.1h.1l.4.9.4.6c0 .1.1.2.1.2l.1.3c.3.7.5 1.4.7 2l-.1-.1c0 .2.1.5.2.7 0 .1.1.2.1.4s.1.3.1.5l.2 1c0 .2 0 .4.1.6l.1.6c0 .2.1.4.1.6l.2 1.9c.1.2 0 .4.1.7zm-8.8-5h.3c.2 0 .4.1.4.1l-.2-.3-.1-.1c0-.1-.1-.1-.1-.1l-.1.2v.2c-.2-.1-.4-.5-.6-1l-.2-.3c-.1 0-.1 0-.1-.1-.1 0-.1 0-.1-.1l-.1-.1-.4-.6-.1-.1c-.4-.5-.8-.8-1-1.1-.1 0-.1 0-.2-.1 0 0 0-.1-.1 0h-.1l-.2-.1h-.4l.1.1-.3-.1-.6-.4h-.2c-.1 0-.1 0-.2-.1l.4.1c0-.2 0-.3-.1-.4l-.2-.1h-.2s.1 0 .1.1l.1.1h-.3c-.1 0-.2 0-.3-.1l-.3-.1-.4-.1.2.1c-.1 0-.2 0-.2-.1-.1 0-.2 0-.3-.1.2 0 .1-.1 0-.2h-.1c0-.1-.1 0-.1-.1l-.1-.1c.1.1-.1.2-.2.2h-.5c-.1-.1-.2-.1-.4-.1s-.3.1-.3-.1c-.1.1-.1.2-.1.2h-.2c-.1 0-.3 0-.3.1h-.3s-.1 0-.1.1h-.4c-.1 0-.2.1-.3 0h-.8c0 .1 0 .1-.1.1h-.1c-.1 0-.1 0-.1.1-.1 0-.2 0-.3.1h-.1s0 .1-.1.1c0 0-.1 0-.2.1l-.2-.1v.3c-.1-.1-.2-.1-.3-.1l-.7.1-.3-.2c0 .1-.1.2-.2.2h-.2l-.2.2c.1.1.3.1.4.1h.4l-.3.1c-.1 0-.1.1-.1.1-.1 0-.1.1-.2.1 0 .1-.1.1-.2.1l-.2.1s-.1 0-.1.1h-.1c0 .1-.1.1-.2.1l-.9.6-.8.7-.1.2-.3.3c0 .1 0 .1-.1.1v.1l-.1.1-.3.4-.1.2v.1l-.1.2-.3.9v.6h-.1c-.1 0-.1.1-.2.2v.4c0-.1 0-.1.1 0v.7h-.1v.1c-.1 0 0 .1 0 .1 0 .1 0 .2-.1.2.1.1 0 .5 0 .8v.5c0 .1.1.2.2.3v.4l-.1.1c-.1.1-.2.1-.1.6h.3v.8l.1 1c0 .1 0 .1.1.1l.1.5c0 .1 0 .2.1.2v.2c0 .1.1.2.1.3 0 .3.1.5.2.6 0 .1.1.2.1.2 0 .1.1.1.1.2s.1.1.1.1c-.1.1-.1.2-.1.4l.2.4c0 .1.1.2.1.2l.1.2c.1.3.3.6.5.9-.1 0-.1-.1-.1 0l.8 1.2c.3.4.6.7 1 .9l.2.1c.1 0 .1 0 .1.1h.2l.3.2h.2c.1 0 .1 0 .2.1h.2c.5.2 1.1.5 1.7.6h.3c.1 0 .1 0 .1.1s0 .2.2.2h.2c.1 0 .2 0 .2-.1.1 0 .2 0 .2-.1.1 0 .2 0 .2-.1-.1 0-.2 0-.2-.1l.3.1h.3c-.1.1-.4.2-.2.3h-.1.7v.2c0 .1.1 0 .1.1 1.5.3 2.2 0 3.3-.1l.2-.1.3-.1h.2c.1 0 .1-.1.1-.1.1 0 .2-.1.3-.1.4-.2.8-.3 1.1-.7h-.1.3c.5-.2.9-.3 1.3-.6s.7-.7 1-1c.1-.1.2-.2.2-.3v-.4c0-.2-.1-.3 0-.4l.2.1.2-.4v-.9c.1 0 0-.1.1-.1.1-.3.3-.9.4-1.7l.1-.3v-.4l.1-.4v-3l-.1-.7c0-.1 0-.1-.1-.2l-.1-.8c-.1-.2-.1-.5-.1-.8l-.2-.6c0-.1 0-.2-.1-.3v-.3c-.1-.1-.1-.1-.1-.2l-.1-.1v-.1l-.1-.9zm-9.4 15h-.3c.1.1.1.1.3 0-.1.1 0 .1 0 0zm1.8-20.4h0z"/>
  <path class="text"
    d="M265.2 334.2c-.1.2-.3 0-.3.2.3 0 .1.2.1.5 0-.2-.1-.5-.3-.4 0 .3-.2.1-.1.4h.3c.1.1 0 .3-.1.4v-.3c-.5 0-6.9.5-7.3.5-.3-.4 0-.9-.5-1.3 0 .1 0-.3-.2-.1.1-.1 0-.2 0-.3.1.1.2.2.3.2 0-.6-.1-1.2-.1-1.7.1-.4-.5-.4-.5-.5h.2v-.3l-.3-.5c.1-.6-.4-4.2-.6-4.9h.3c-.4-.3-.9-2.4-1.2-2.8v.1c-.2-.3-.2-.5-.3-.9l.1.2c.3-.1.3-.3.2-.5l-.1.2c-.3-.2-.1-.5-.2-.9v.2c-.1-.1-.1-.2-.1-.3.1.2.2-.1.3-.2-.2.1-.2-.3-.3-.4.2-.1-.2-.3 0-.4-.1-.1-.2 0-.2 0 .1-.3-.3-.4-.3-.9 0-.8.2-.1-.2-1l.1-.1h-.3c.3-.1.2-.3.3-.5 0 .1-.1.2-.2.2 0 .1-.1.2-.2.3 0 .1-.1.2-.2.3l-.6.8.1-.1-.6.6h-.2c-.1.1-.1.1-.2.1l-.2.2.3-.3h-.5c0 .1-.1.1-.2.1 0 .1 0 .1-.1.1s-.1 0-.1.1h.3c-.1.1-.1.2-.2.3l-.3.2-.4.1c-.1 0-.1.1-.2.1l-.2.1h.3c-.1.1-.3.2-.5.3.1-.2.1-.2-.1-.1-.1 0-.3 0-.4-.1.3.2-.3.4-.5.5-.1 0-.3 0-.4.1s-.2.2-.3.1c-.2.1-.1.2 0 .2-.1 0-.2 0-.3.1-.1 0-.2.1-.3.1-.1.1-.2.2-.4.2-.1.1-.3.1-.5.2-.8.1-.8 0-.9 0s-.1 0-.2.1c-.1 0-.2 0-.3.1l-.7.1c-.1 0 0 .2 0 .1l-.1.3c-.1-.1-.1-.2-.2-.2s-.3-.1-.4-.1c-.2-.1-.4-.1-.5-.4-.1.1-.1.1-.3 0-.1 0-.2-.1-.4 0 0 .2.2.2.3.3.2 0 .3.1.4.2l-.4-.1c-.2 0-.3 0-.5-.1l-.5-.1c-.1 0-.2 0-.3-.1-.1 0-.2 0-.3-.1-.8-.2-1.8-.6-2.7-1.1s-1.6-1-2.2-1.5l-.8-.6c0-.1-.1-.1-.1-.1 0 .3.1.5.1.7.1.8.2.1.3.9 0 .1.1.1.2 0-.1.3 0 .6-.2.9.4 1.6.6 4.9.8 6.5h-.1c.2 1.1.6 4.5.7 5.6l.2.2c-.1.2 0 .4-.1.7 0 .2.1.1.2 0-.1.3.2.5 0 .7h-.1c-.2.4.4.6.2 1.1h0c-.1.2.1.4.2.5-.1.3-.3 0-.3.2.3.1.1.3.1.5 0-.2-.1-.5-.3-.4 0 .3-.2.1-.1.3h.3c.1.1.1.3-.1.4v-.3c-.5 0-6.7.5-7.1.5-.3-.3 0-.9-.4-1.3-.1.1-.1-.2-.2-.1v-.3c.1.1.1.2.2.2 0-.6-.1-1.2-.1-1.8.1-.4-.5-.4-.5-.5h.2v-.4c-.2.1-.5.1-.5.2-.1 0-.1-.1-.1-.2 0 .1.2.1.2 0 0-.3-.2 0-.3-.4.1 0 .3.2.4 0 .1-.6-.3-3.2-.5-4.4h-.1v-.3c-.1-.1-.1-.2-.1-.2h.1c-.1-.6-.1-1.8-.1-2.4 0-.4-.1-.6-.2-.7v.1c-.2-.3-.2-.5-.2-.9l.1.2.2-.2v-.4l-.1.1c-.3-.2-.1-.5-.1-.9l-.1.2c-.1 0 0-.2 0-.3.1.1.2 0 .2-.1v-.1c-.2 0-.2-.3-.2-.4.2-.1-.2-.3.1-.4-.1-.1-.2 0-.3 0 .1-.2-.1-.5-.1-.9 0-.8.2-.1-.2-1l.1-.1h-.3c.2-.1.1-.2.1-.3-.1-.2.1-.4.1-.5l-.1.2c-.2-.8-.8-4.2-.7-5 .1.1.2.1.2 0v-.3c-.1 0-.1.1-.1.1-.1-.1.1-.3-.1-.3.1 0 .1-.1.1-.2-.1-.1 0-.3 0-.5v-.2l-.2-.1c0-.2.1-.2.2-.3v-.3h-.2c0-.1-.1-2.1-.3-2.2.1 0 .2-.1.2-.2-.1-.4-.1-.8-.2-1.2 0 0 0 .1.1 0l-.4-4.2c0-.3.3-.1.3-.3s-.1-.3-.2-.4c0 .1 0 .2-.1.1l.1-.3c.1 0 .2.2.3 0v.3c.2 0 0-.1 0-.3v-.2h.2c.6-.5 2.7-.7 4.5-.8.2-.1.5-.1.7-.1 1.7-.4 3-.2 3-.2h.1l-.1.2c.2.3.3.8.4 1.2l.2 1.1c.1.2.3.9.6 1.2l-.2.1c.1.2.1.7.3.8l.5.4-.1.1c.1 0 .2.2.3.3.1 0 .2.5.6.8v-.1c.2.2.6 1 1 1.7.2.3.4.7.7.9.1.1.2.2.2.3l.2.2h-.1c.2.1.4.3.6.5l.2.2c.1 0 .3.2.4.2.1.2.4.4.6.7.3.2.8.1 1.2.3s.8.3 1.1.4h.1c.1 0-.4-.2-.3-.2h.6c0-.1.1-.1.1-.1h.2s.1 0 0-.1c0 0 0-.1.1-.1v-.1s.1-.1.3 0c.1 0 .1-.2 0-.3h.8l.9-.5 1-.7.5-.5c.1-.1.2-.2.2-.3.1 0 .1-.1.1-.1l.1-.2c.3-.3.5-.7.7-1v.1c.1-.2.4-.5.6-1s.5-1.1.6-1.7l.6-1.8.3-1.3-.1-.2c.2-.2.1-.4.3-.8 0-.2-.2-.1-.2 0 .2-.3.1-.6.2-.7l.1.1c.1-.2.1-.4 0-.6 0-.2-.1-.4 0-.6h.1c.1-.2 0-.4-.1-.6.1-.2.3 0 .4-.1-.2-.1-.1-.2 0-.4 0 .2 0 .4.2.4 0-.3.3 0 .2-.3h-.3v-.4h.1v.1c-.1 0 0 .1 0 .1v.1c.1 0 .6.1 1.3.2l.8.2c2.1-.6 5.5-.9 5.9-.9h0v.9c.3.7.1 1.5.1 2.1.1.2 0 .8.3 1.2h-.2c0 .4.4.9.5 1.1h-.1c0 .2.3.5.6.5-.1.4-.4.4-.1.8v-.1c.2.5.1 3.3.3 3.7h-.1c.3.4.1 1 .4 1.4-.1.8.1 4.4.4 5.3.2.8.3.1.3.8 0 .2.1.2.2 0 0 .3.1.6-.1.9.4 1.6.8 4.8 1 6.5h-.1l.9 5.6.2.2c-.1.3 0 .5-.1.8 0 .2.2 0 .2 0-.1.3.1.6 0 .7h-.1c-.2.4.4.6.2 1.1h-.1c.2.1.4.3.5.5zm-35.4 2.6h0zm24.2-19.3c0-.1 0-.1.1-.1h-.1v.1z"/>
  <path class="text"
    d="M303.4 330.1c-.1.2-.3 0-.3.2.3 0 .1.2.1.5 0-.2-.1-.5-.3-.4 0 .3-.2.1-.1.4h.3c.1.1 0 .3-.1.4v-.3c-.5 0-6.9.5-7.3.5-.3-.4 0-.9-.5-1.3 0 .1 0-.3-.2-.1.1-.1 0-.2 0-.3.1.1.2.2.3.2 0-.6-.1-1.2-.1-1.7.1-.4-.5-.4-.5-.5h.2v-.3l-.3-.5c.1-.6-.4-4.2-.6-4.9h.3c-.4-.3-.9-2.4-1.2-2.8v.1c-.2-.3-.2-.5-.3-.9l.1.2c.3-.1.3-.3.2-.5l-.1.2c-.3-.2-.1-.5-.2-.9v.2c-.1-.1-.1-.2-.1-.3.1.2.2-.1.3-.2-.2.1-.2-.3-.3-.4.2-.1-.2-.3 0-.4-.1-.1-.2 0-.2 0 .1-.3-.3-.4-.3-.9 0-.8.2-.1-.2-1l.1-.1h-.3c.3-.1.2-.3.3-.5 0 .1-.1.2-.2.2 0 .1-.1.2-.2.3 0 .1-.1.2-.2.3l-.6.8.1-.1-.6.6-.3.2c-.1.1-.1.1-.2.1l-.2.2.3-.3h-.5c0 .1-.1.1-.2.1 0 .1 0 .1-.1.1s-.1 0-.1.1h.3c-.1.1-.1.2-.2.3l-.3.2-.4.1c-.1 0-.1.1-.2.1l-.2.1h.3c-.1.1-.3.2-.5.3.1-.2.1-.2-.1-.1-.1 0-.3 0-.4-.1.3.2-.3.4-.5.5-.1 0-.3 0-.4.1s-.2.2-.3.1c-.2.1-.1.2 0 .2-.1 0-.2 0-.3.1-.1 0-.2.1-.3.1-.1.1-.2.2-.4.2-.1.1-.3.1-.5.2-.8.1-.8 0-.9 0s-.1 0-.2.1c-.1 0-.2 0-.3.1l-.7.1c-.1 0 0 .2 0 .1l-.1.3c-.1-.1-.1-.2-.2-.2s-.3-.1-.4-.1c-.2-.1-.4-.1-.5-.4-.1.1-.1.1-.3 0-.1 0-.2-.1-.4 0 0 .2.2.2.3.3.2 0 .3.1.4.2l-.4-.3c-.2 0-.3 0-.5-.1l-.5-.1c-.1 0-.2 0-.3-.1-.1 0-.2 0-.3-.1-.8-.2-1.8-.6-2.7-1.1s-1.6-1-2.2-1.5l-.8-.6c0-.1-.1-.1-.1-.1 0 .3.1.5.1.7.1.8.2.1.3.9 0 .1.1.1.2 0-.1.3 0 .6-.2.9.4 1.6.6 4.9.8 6.5h-.1c.2 1.1.6 4.5.7 5.6l.2.2c-.1.2 0 .4-.1.7 0 .2.1.1.2 0-.1.3.2.5 0 .7h-.1c-.2.4.4.6.2 1.1h-.1c-.1.2.1.4.2.5-.1.3-.3 0-.3.2.3.1.1.3.1.5 0-.2-.1-.5-.3-.4 0 .3-.2.1-.1.3h.3c.1.1.1.3-.1.4v-.3c-.5 0-6.7.5-7.1.5-.3-.3 0-.9-.4-1.3-.1.1-.1-.2-.2-.1v-.3c.1.1.1.2.2.2 0-.6-.1-1.2-.1-1.8.1-.4-.5-.4-.5-.5h.2v-.4c-.2.1-.5.1-.5.2-.1 0-.1-.1-.1-.2 0 .1.2.1.2 0 0-.3-.2 0-.3-.4.1 0 .3.2.4 0 .1-.6-.3-3.1-.5-4.4h-.1v-.3c-.1-.1-.1-.2-.1-.2h.1c-.1-.6-.1-1.8-.1-2.4 0-.4-.1-.6-.2-.7v.1c-.2-.3-.2-.5-.2-.9l.1.2.2-.2v-.4l-.1.1c-.3-.2-.1-.5-.1-.9l-.1.2c-.1 0 0-.2 0-.3.1.1.2 0 .2-.1v-.1c-.2 0-.2-.3-.2-.4.2-.1-.2-.3.1-.4-.1-.1-.2 0-.3 0 .1-.2-.1-.5-.1-.9 0-.8.2-.1-.2-1l.1-.1h-.3c.2-.1.1-.2.1-.3-.1-.2.1-.4.1-.5l-.1.2c-.2-.8-.8-4.2-.7-5 .1.1.2.1.2 0v-.3c-.1 0-.1.1-.1.1-.1-.1.1-.3-.1-.3.1 0 .1-.1.1-.2-.1-.1 0-.3 0-.5v-.2l-.2-.1c0-.2.1-.2.2-.3v-.3h-.2c0-.1-.1-2.1-.3-2.2.1 0 .2-.1.2-.2-.1-.4-.1-.8-.2-1.2 0 0 0 .1.1 0l-.4-4.2c0-.3.3-.1.3-.3s-.1-.3-.2-.4c0 .1 0 .2-.1.1l.1-.3c.1 0 .2.2.3 0v.3c.2 0 0-.1 0-.3v-.2h.2c.6-.5 2.7-.7 4.5-.8.2-.1.5-.1.7-.1 1.7-.4 3-.2 3-.2h.1l-.1.2c.2.3.3.8.4 1.2l.2 1.1c.1.2.3.9.6 1.2l-.2.1c.1.2.1.7.3.8l.5.4-.1.1c.1 0 .2.2.3.3.1 0 .2.5.6.8v-.1c.2.2.6 1 1 1.7.2.3.4.7.7.9.1.1.2.2.2.3l.2.2h-.1c.2.1.4.3.6.5l.2.2c.1 0 .3.2.4.2.1.2.4.4.6.7.3.2.8.1 1.2.3s.8.3 1.1.4h.1s-.4-.2-.3-.2h.6c0-.1.1-.1.1-.1h.2s.1 0 0-.1c.1 0 0-.1.1-.1v-.1s.1-.1.3 0c.1 0 .1-.2 0-.3h.8l.9-.5 1-.7.5-.5c.1-.1.2-.2.2-.3l.1-.1.1-.2c.3-.3.5-.7.7-1v.1c.1-.2.4-.5.6-1s.5-1.1.6-1.7l.6-1.8.3-1.3-.1-.2c.2-.2.1-.4.3-.8 0-.2-.2-.1-.2 0 .2-.3.1-.6.2-.7l.1.1c.1-.2.1-.4 0-.6 0-.2-.1-.4 0-.6h0c.1-.2 0-.4-.1-.6.1-.2.3 0 .4-.1-.2-.1-.1-.2 0-.4 0 .2 0 .4.2.4 0-.3.3 0 .2-.3h-.3v-.4h.1v.3c.1 0 .6.1 1.3.2l.8.2c2.1-.6 5.5-.9 5.9-.9h.1v.9c.3.7.1 1.5.1 2.1.1.2 0 .8.3 1.2h-.2c0 .4.4.9.5 1.1h-.1c0 .2.3.5.6.5-.1.4-.4.4-.1.8v-.1c.2.5.1 3.3.3 3.7h-.1c.2.4.1 1 .4 1.4-.1.8.1 4.4.4 5.3.2.8.3.1.3.8 0 .2.1.2.2 0 0 .3.1.6-.1.9.4 1.6.8 4.8 1 6.5h-.1l.9 5.6.2.2c-.1.3 0 .5-.1.8 0 .2.2 0 .2 0-.1.3.1.6 0 .7h-.1c-.2.4.4.6.2 1.1h-.1c.4.2.6.4.7.5zm-35.4 2.7h0zm24.2-19.3c0-.1 0-.1.1-.1h-.1c.1.1.1.1 0 .1zm42.1-7.1c.1.6.2 2.4.4 4.2l.2 2.4.2 1.6-.1-.1c0 .2.1.3.1.5l.1.5v3.4l-.1.6c0 .2-.1.5-.2.7v.2c0 .1-.1.1-.1.2l-.1.2c0 .1 0 .2-.1.2 0 .2-.1.3-.2.5v.2c-.1 0 0 .1-.1.1l-.1.3c-.3.7-.8 1.4-1.4 2.1-.5.7-1.2 1.3-1.9 1.8s-1.4 1-2.2 1.4c-.7.4-1.4.7-2.1.9l-.5.2-.4.1c-.2 0-.3.1-.5.1-.1.1-.2.1-.4.1-.2.1-.4.2-.7.2l-.5.2c-.3 0-.5.1-.6.1-.2 0-.3.1-.3.1-.2 0-.2.1-.2.1l-.2.1-.6.1h-.4c-.3 0-.4.1 0 .2h-1.5l-.3-.1h-.3l-.3-.1h-.9c-.2 0-.3 0-.5-.1h-.6c-.7-.1-1.5-.2-2.4-.5-.8-.3-1.8-.6-2.6-1.2-.9-.5-1.7-1.2-2.5-1.9-.8-.8-1.4-1.7-1.8-2.5-.5-.9-.8-1.7-1.1-2.6l-.2-.6-.1-.1v-.2c0-.1-.1-.1-.1-.2l-.2-1.1-.1-.5c0-.2-.1-.3-.1-.5l-.1-.7h.1l-1.7-13.3-.3-.4c.1-.5 0-.9 0-1.6 0-.3-.1-.2-.2-.1 0-.6-.2-1.2-.1-1.5l.1.1c.1-.9-.4-.5-.3-1.5h0c.1-.4-.2-.9-.3-1.2 0-.5.2-.1.3-.5-.3-.2-.2-.5-.2-1 0 .5.1.9.3.9-.1-.6.2-.2.1-.8h-.3c-.1-.2-.1-.8 0-.8v.6c.5 0 7-.7 7.4-.7.4.8.2 2.6.7 3.5 0-.2.1.6.2.3-.1.2 0 .4 0 .6-.1-.2-.2-.5-.3-.5l.3 4.1c0 .8.5 1 .5 1.1h-.2l.1.5c.2 0 .1.2.2.5-.1 0-.2-.2-.3-.1.1.6.2.2.3.9-.1 0 .1-.6.1-.1 0 1.4.9 9 1.2 10.6-.1-.1-.6-.2-.7-.3l.1.3.1.1v.1l.1.1.1-.2v-.1h.1v.1l.1.2c0 .1 0 .2.1.2 0 .1.1.2.1.3.1.4.3.9.5 1.3s.4.7.7.9h.1s0 .1.1 0h.1c.1 0 .1.4.1.4h.1c0 .1.1.1.1.1h.1c0-.1-.1 0-.1-.1l.8.4h-.3v.2c0 .1 0 .1.1.1h0l.1.1.2.1-.1-.2h.3l.2.1h.1s0 .1.1 0h.1c.1 0 .2.1.3.1h-.1s-.1 0-.1-.1h.4v.1c0 .1 0 .1.1.1l.2.2c0-.2.1-.2.2-.2h.3c.1 0 .1.3.2.3 0 .1.2.1.3.1s.3 0 .3.1c.1 0 .1-.1 0-.2h.6c.2-.1.5-.2.9-.2h.8s.1 0 .1-.1h.3c0-.1.1-.1.2-.1s.1-.1.2-.1l.2.1.1-.3c.1.1.2.1.2.2h.6c.1 0 .2.1.2.2 0-.1.1-.1.2-.1s.1 0 .1-.1c.1 0 .2 0 .2-.1-.1 0-.1-.1-.2-.1h-.5c.2-.1.7-.5 1.3-.7.5-.2 1-.9 1.4-1.2.2-.1.4-.3.5-.5 0 0 .1 0 0-.1h.1v-.1c0-.1 0-.1.1-.1l.2-.3v-.2l.1-.2v-.3l.1-.4c0 .1.2.1.3 0v-.4c-.1 0-.1.1-.1.1v-.4h-.1c.2 0 .2-.3.2-.3-.1 0-.1-.1-.1-.2l.1-.4v-.3c0-.2-.1-.3-.2-.4-.1-.9.3-.2.2-1.1h-.3l-.3-2.5c-.2-1.2-.3-2.4-.4-2.3.1-.1.2-.2.2-.4l-.3-2.3c.1 0 0 .2.1.1-.4-3.2-.8-6.4-1-9.6-.1-.6.3-.1.2-.6.1-.4-.2-.7-.3-.9 0 .1 0 .3-.1.2v-.6c.1.2.3.5.3.2v.6c.2 0 0-.2 0-.7v-.4h.2c1.1-2.2 7.5-1.1 7.5-1.1l.1.1-.1 1.2c.4 1.6.3 3.4.3 4.6.1.5.1 1.9.4 2.6h-.2c.1.9.5 2 .6 2.5h-.1c0 .4.1 1.2.4 1.1 0 .8-.1.4.2 1.5h-.3zm-30.8-5h0zm8.5 3.5h0c.1-.1 0 0 0 0zm12.7-10.3c0-.4 0-.8.1-1.1.1.4.1.7-.1 1.1z"/>
  <path class="text"
    d="M370.6 323c-.1.2-.3 0-.3.2.3 0 .1.2.1.5 0-.2-.1-.5-.3-.4 0 .3-.2.1-.1.4h.3c.1.1 0 .3-.1.4v-.3c-.3 0-3.5.3-5.6.3-.4.3-.8-.1-.9 0-.3-.1-.5-.1-.7-.3h-.2c-.1-.1-.1-.2-.1-.2-.1 0-.2-.1-.3-.1 0 .2-.2-.2-.3 0 0-.1-.1-.2-.1-.3.2.1.3.1.4.1-.4-.5-.9-1-1.2-1.6-.1-.3-.6-.1-.7-.2l.1-.1-.2-.3c-.1.2-.3.3-.3.5-.1.1-.1 0-.2-.1.1 0 .3 0 .2-.1-.2-.2-.2 0-.4-.2 0 0 .4 0 .3-.3-.4-.6-3.1-3.6-3.6-4.2.1 0 .6-.3.6-.3l-.4-.1v.3c-.6-.1-2.3-1.8-2.8-1.9l.1.1c-.4-.2-.5-.4-.8-.7l.3.1c.1-.3 0-.4-.2-.6v.2c-.4 0-.3-.4-.7-.6l.1.1c-.1 0-.2-.1-.2-.2.2.1 0-.2.1-.4-.1.3-.4-.1-.5-.2.1-.2-.4-.2-.2-.4-.2 0-.2.1-.2.2-.1-.3-.5-.3-.8-.6-.5-.7 0-.2-.8-.8v-.2l-.2.1c.3-.4-.3-.5 0-.9-.2.1-.1-.2-.4-.3-.2.3.1.4.1.6-.7-.5-3-3.7-3.5-4.4.1.1.2 0 .2-.2l-.2-.2c0 .1 0 .1-.1.2.1 1.1.1 2.2.3 2.6.1.9.2.1.3.9 0 .1.1.1.2 0 0 .3 0 .6-.2.9.4 1.6.7 4.9.9 6.5h-.1l.8 5.8.2.2c-.1.2 0 .4-.1.7.1.1.2.1.3 0-.1.3.1.5 0 .7h-.1c-.2.4.4.6.2 1.1h0c-.1.2.1.3.2.5-.1.2-.3 0-.3.2.2 0 .1.2.1.5-.1-.2-.1-.5-.3-.4 0 .3-.2.1-.1.4h.3c.1.1 0 .4-.1.4v-.3c-.5 0-6.9.5-7.3.6-.3-.4-.2-2.1-.7-2.5 0 .1-.1-.2-.2-.1v-.3c.1.1.1.2.2.2 0-.6-.1-.2 0-.8.1-.4-.5-2-.5-2.1h.2v-.5c-.1.1-.2-.2-.3-.6v-.8c0-.1 0-.2-.1-.1l-.5-3.3c.1 0 .6 0 .7.1l-.2-.3-.2.2c-.4-.3-.2-1.4-.6-1.7v.1c-.2-.3 0-.5 0-.9l.1.2c.2-.1 0-.2-.1-.3.2 0-.1-.6-.1-.8h.1c-.1 0 0-.2 0-.3v.1c0-.1-.1-.1 0-.2-.2.1.1-.4 0-.5.2-.1-.3-.3-.1-.4h0c.1-.3-.3-.5-.4-.9 0-.8.2-.1-.2-1l.1-.1h-.3c.4-.2.1-.5.5-.7-.2-.1 0-.2-.1-.4-.3.1-.1.4-.3.5-.2-.8-.5-4.2-.5-5 .1.1.2.1.3 0l-.1-.2c-.1 0-.1.1-.1.1-.1-.1.1-.3-.2-.3.1 0 .1-.2.1-.2-.2-.1.2-.6-.2-.8-.1-.4.3-.1.3-.5h-.4c0-.1-.1-2.3-.3-2.2l.2-.2-.2-1.2c.1 0 .1.1.1 0l-.2-4.2c0-.3.3-.1.3-.3.1-.2-.1-.3-.1-.4 0 .1 0 .1-.1.1 0-.1.1-.2.1-.3.1.1.2.2.3 0v.3c.2 0-.1-.1 0-.3l-.1-.2h.2c.8-.7 4-.9 5.9-1 .7-.5 1.2-.1 1.2-.1l.1.1h.2l.1.1-.1.1c.5.5.8 1.2 1.1 1.7.2.2.6.7 1 .9l-.1.1c.3.3.9.6 1.1.7v.1c.1.1.5.4.8.1.2.4-.1.6.4.8v-.1c.4.4 2.2 2.8 2.6 3.2h-.1c.4.3.7.9 1.2 1.1.4.8 2.9 4.1 3.7 4.7.6.6.2-.1.8.6.1.1.2 0 .2-.1.1.2.4.5.5.9.7.6 1.7 1.7 2.6 2.7h0c.2-.1-.2-.3 0-.4-.1-.1-.2 0-.2 0 .1-.3-.3-.4-.3-.9 0-.8.2-.1-.1-1l.1-.1h-.3c.4-.2.1-.5.4-.7-.2 0 .1-.2-.1-.3-.3.1-.2.3-.4.4-.2-.8-.2-4.2-.2-5 0 .2.2.1.3 0l-.1-.2-.1.1c-.1-.1.1-.3-.1-.3.1 0 .1-.2.1-.2-.2-.1.2-.6-.2-.7-.1-.4.3-.1.3-.5h-.3c.1 0-.2-2-.3-2.1.1-.1.2-.1.3-.2-.1-.3-.1-.7-.2-1.1h.1c-.2-1.4-.1-2.8 0-4.2 0-.3.2-.1.3-.3a.76.76 0 0 0-.2-.4c0 .1 0 .1-.1.1 0-.1 0-.2.1-.3.1.1.2.2.2.1v-.3h.2c1.3-1.1 7.5-1 7.5-1l.1.1-.5.5c.3.6.1 1.5 0 2 .1.2 0 .8.3 1.1h-.2c.1.4.4.9.5 1.1h-.1c0 .2.3.5.6.5-.1.4-.4.4-.2.8v-.1c.2.5.1 3.2.2 3.7h-.1c.2.4.1 1 .4 1.4-.1.9 0 4.4.3 5.4.1.8.3 0 .3.8 0 .1.2.1.2 0 0 .3.1.6-.1.9.4 1.6.7 4.8.9 6.4l.7 6 .2.2c-.1.3 0 .4-.1.7 0 .2.2.1.2 0-.1.3.1.5 0 .7h-.1c-.2.4.4.6.2 1.1-.7-.7-.5-.5-.5-.3zm-32.1-10.8h0c0 .1 0 0 0 0zm.2.9v-.2.2c-.1.1 0 0 0 0zm.7 5.9v-.1.1zm.2.1c-.1 0-.1 0-.2-.1v.3h.2v-.2zm-.2.1h0v.3-.3zm.2.8c0-.3-.1-.6-.1-.6h-.1c0 .5.1.9.2.7v-.1zm.3 4h0zm19.2-33.4v.2c.2 0 .1-.1 0-.2zm24.6 31c-.1.2-.3 0-.3.2.3.1.1.3.1.5 0-.2-.1-.5-.3-.4 0 .3-.2.1-.1.3h.3c.1.1 0 .3-.1.4v-.3c-.5 0-6.9.5-7.3.5-.3-.3.1-.9-.4-1.3-.1.1 0-.3-.2-.1v-.3c.1.1-.4-3-.6-4.5h-.1v.1-.7l-.2-1c0-.1-.1-.6-.1-.5-.1 0-.1-.2-.1-.1-.1 0 0-.2-.1-.2.1 0 0-.1.1-.2-.1 0-.1 0-.1-.1v-.1c0-.1-.3-1.9-.6-4 0 .3 0 .4-.1.3v.1c-.2-.3-.2-.5-.2-.9l.1.2c.1 0 .1-.1.2-.1v-.2c-.2-.1-.1-.2 0-.4l-.3-1.7c-.1 0-.3-.1-.3-.3 0-.8.2-.1-.2-1l.1-.1h-.3a.55.55 0 0 0 .3-.5c0-.2 0-.4-.1-.6v.1c-.2-.8-.5-4.2-.5-5 .1.1.2.1.3 0l-.1-.2c-.1 0-.1.1-.1.1-.1-.1.1-.3-.2-.3.2 0 .2-.2.2-.2-.2-.1.2-.6-.2-.7-.1-.4.3-.1.2-.6h-.4c0-.1-.2-2.1-.3-2.2.1 0 .2-.1.3-.2-.1-.4-.1-.8-.2-1.2 0 0 0 .1.1 0-.2-1.4-.1-2.8-.1-4.2 0-.3.3-.1.3-.3.1-.2-.1-.3-.2-.4 0 .1 0 .2-.1.1 0-.1.1-.2.1-.3.1 0 .2.2.3 0v.3c.2 0 0-.1.1-.3l-.1-.2h.2c1.2-1.1 7-.8 7-.8h.1v.5c.3.7.1 1.5 0 2.1 0 .2 0 .8.2 1.2h-.2c0 .4.4.9.5 1.1h-.1c0 .2-.2.6.1.6-.1.4.1.3.3.7v-.1c.2.5.1 3.2.3 3.7h-.1c.3.4.1 1 .4 1.4-.1.8.6 8.9.9 9.8.1.8.2 0 .3.8 0 .1.1.1.2 0 0 .3.1.6-.1.9.4 1.6.1.5.3 2.1h-.1l.8 5.9.2.2c-.1.2 0 .5-.1.7 0 .2.2.1.2 0-.1.3.1.5 0 .7h-.1c-.2.4.4.6.2 1.1-.2-.2 0 0 .1.1zm-12.1-32.7c0-.2 0-.4.2-.5 0 .1 0 .3-.2.5zm.9 12.9c.2 0 .4.1.5.1l-.2-.3-.3.2c0-.1 0-.1 0 0zm.4 3c0-.2.1-.3.2-.3-.2-.1 0-.2-.1-.4l-.2.2c.1.1.1.3.1.5zm.8 3.2c-.2.1-.3-.3-.3-.4.2-.1-.2-.3 0-.4-.1-.1-.2 0-.2 0l.1 1.1c.1 0 0-.1 0-.1.2.2.3-.1.4-.2zm-.1.3l-.1.2v.2c0-.1.1-.2.1-.4zm-.1.7v.4c.1-.1.1-.2 0-.4z"/>
  <path class="text"
    d="M405.4 285.5c.7 1.2.5 7 .5 7v.1l-.4-.4c-.5.2-1 0-1.4-.1-.2.1-.6 0-.8.2v-.2c-.3 0-.6.3-.8.4v-.1c-.2 0-.4.2-.4.5-.3-.1-.2-.4-.5-.2h.1c-.4.1-2.2 0-2.5.1v-.1c-.3.2-.7 0-.9.3h-.3c0 .9.1 2 .2 2.3h-.1c.2.4.1 1 .4 1.4-.1.8.1 4.4.4 5.3.2.8.3 0 .3.8 0 .1.2.1.3 0 0 .3 0 .6-.1.9.4 1.6.8 4.8 1 6.4h-.1l.9 6.1.2.2c-.2.2 0 .4-.1.7.1.1.2.1.2 0-.1.3.1.5 0 .7h-.1c-.2.4.4.6.2 1.1h-.1c-.1.2.1.3.2.5-.1.3-.2.1-.3.2.2.1.1.2.1.4-.1-.2-.1-.3-.3-.3 0 .3-.2.1-.1.3h.3c.1.1 0 .4-.1.4v-.3c-.5 0-6.8.8-7.2.8-.3-.3 0-.9-.5-1.3 0 .2-.1-.2-.2-.1.1-.1 0-.2 0-.3.1.1.2.2.3.2l-.1-.7h.1v-.4c-.1.1 0-.5-.1-.3h0c-.1 0 0-.1-.1-.2.1 0-.2.6-.2.6 0-.1.1-.3.1-.4v-.1c0-.2.1-.3.1-.5l-.1.3c0-1.2-.9-6.5-1-7.2.1 0 .5 0 .6.1l-.2-.3-.2.2c-.4-.3-.9-2.4-1.2-2.8v.1c-.2-.3 0-.5 0-.9l.1.2c.3-.1.2-.3.2-.5l-.1.2c-.3-.2-.1-.5-.2-.9l-.1.2c-.1-.1 0-.2 0-.3.1.2.2-.1.3-.2-.3 0-.3-.3-.3-.4.2-.1-.2-.3 0-.4h-.2c0-.3-.3-.4-.3-.9 0-.8.2-.1-.2-1l.1-.1h-.2c.4-.2 0-.5.4-.7-.2 0 0-.2-.1-.3-.3.1-.1.3-.3.4-.2-.8-.6-4.2-.6-4.9.1.1.2.1.3 0l-.1-.3c0 .1 0 .2-.1.1s.1-.3-.1-.3c.2 0 .1-.2.2-.2-.3-.1.2-.6-.3-.7-.1-.4.3-.1.3-.5h-.4c.1 0 0-1-.2-1.6h-.5v-.1c-.7.1-3 .5-3.7.4l-.1.2c-.2-.1-.3 0-.5-.1-.2 0-.1.2 0 .2-.2-.1-.4 0-.5-.1v-.1c-.3-.2-.4.4-.8.1-.1-.1-.2.1-.3.1-.2-.1 0-.3-.2-.3 0 .3-.1.1-.3.1.2 0 .3-.1.3-.3-.1.1 0-.2-.2-.1v.2c0 .1-.2 0-.2 0h.2l-.3-6.8c.2-.3.6 0 .9-.3-.1-.1.1-.1.1-.2h.2c-.1.1-.1.1-.1.2h1.2c.2.1.3-.4.4-.3v.2h.3c-.1-.2 0-.5-.2-.5 0-.1.1 0 .2-.1 0 .1-.1.2 0 .2.2 0 0-.1.2-.2 0 .1-.1.3 0 .4.5.1 2.9-.2 3.4-.2 0 .1 0 .6-.1.7l.2-.2-.1-.2c.1-.2.3-.3.7-.4v-.1c.5-.2 1.1-.1 1.3-.2h-.1c.2-.2.4-.2.6-.2l-.1.1c0 .3.2.2.3.2l-.1-.1c.2-.2.4 0 .6-.1l-.1-.1c0-.1.2 0 .2 0-.1.1.1.1.1.3-.1-.2.2-.3.3-.3 0 .2.2-.2.3 0v-.2c.2.1.3-.2.6-.3.6 0 .1.2.7-.1l.1.1v-.3c.1.4.4.1.5.5 0-.2.1 0 .2-.1-.1-.3-.2-.2-.3-.3.5-.2 2.9 0 3.4 0-.1.1 0 .2 0 .3l.2-.1c-.1 0-.1 0-.1-.1.1-.1.2.1.2-.1 0 .1.2.1.2.1.1-.2.4.3.5-.2.3-.1.1.3.4.3v-.3s1.4 0 1.5-.2c0 .1.1.1.1.2.2-.1.5 0 .8-.1v.1c1-.1 1.9-.3 2.8-.2.2 0 .1.3.2.3.1.1.2-.1.3-.1-.1 0-.1 0-.1-.1.1 0 .1.1.2.1 0 .1-.1.2 0 .3h-.2c0 .2.1 0 .2.1l.1-.1-.1.2zm-11.9 32.4c0 .2-.1.3 0 .2 0 0 .1 0 0-.1v-.1zm.1 1h.2l-.1-.7c-.1.4-.1.7-.1.7zm11.6-33.8c.2 0 .3.1.4.2-.1.1-.3 0-.4-.2zm34.2.4c-.1.1-.1.2-.1.2 0-.1 0-.3-.1-.3-.3.6-.4 1.3-.7 1.8-.2.3.2.6.2.7l-.2-.1-.2.4c.2 0 .4.2.6 0 .1 0 0 .1 0 .3-.1 0-.2-.2-.2-.1-.1.3.1.1.1.5-.1 0-.2-.3-.4-.1-.4.6-1.6 4.4-1.9 5.2-.1-.1-.5-.4-.6-.4v.4l.3-.1c.2.5-.4 2.9-.3 3.4v-.2c0 .4 0 .7-.2 1.1v-.3c-.3 0-.4.2-.5.5l.2-.1c.1.4-.2.5-.3 1l.1-.1c0 .1 0 .2-.1.3 0-.2-.2.1-.3.1.3 0 .1.3.1.5-.2 0 0 .4-.2.4 0 .1.1.1.2.1-.1.2.1.6 0 1-.4.8-.3 0-.3 1.1h-.2l.2.2c-.5 0-.3.5-.7.4.1.1-.1.2-.1.5.3 0 .3-.3.5-.4-.2.9-1.7 4.4-2.1 5.1 0-.1-.1-.1-.3 0v.3c.1 0 .1-.1.2 0 0 .2-.2.2 0 .4-.1 0-.2.1-.2.1.2.2-.5.6-.1.9-.1.4-.3 0-.5.5l.3.1c-.1 0-.9 2.3-.7 2.3-.1 0-.2 0-.3.1l-.3 1.3c0-.1 0-.1-.1-.1-.5 1.5-1.2 2.9-1.9 4.4-.1.3-.3-.1-.4.1s0 .4 0 .5c.1 0 0-.1.1 0-.1.1-.1.2-.2.2-.1.2-.2.4-.4.5 0-.2.2-.4.4-.5-.1-.1-.1-.3-.2-.1l.1-.3c-.2-.1 0 .1-.2.3v.2h-.2c-1.6.5-7.2-2.4-7.2-2.4h-.1l.7-.3c.1-.8.7-1.6 1-2.1.1-.3.4-.9.3-1.3l.2.1c.1-.4 0-1.1.1-1.3h.1c0-.2 0-.7-.3-.7.2-.3.5-.2.5-.7v.1c.1-.6 1.4-3.3 1.4-3.8h.1c0-.2.1-.5.2-.7h-.6l-.5-.1c-.4-.1-.7-.1-1.1-.2-.7-.2-1.4-.5-1.9-.8s-.9-.6-1.1-.8c.1 0 .1-.1.3-.2l.3-.2-.4-.1v.3c-.1 0-.2 0-.3-.1l-.4-.2c-.1 0-.2-.1-.2-.2l-.3-.3s-.1 0-.1-.1l-.2-.3-.2-.2c-.1 0-.1-.1-.1-.1-.1 0-.1 0-.1-.1l-.3-.2c-.2-.1-.3-.3-.4-.3l.1.1c-.3-.1-.4-.3-.6-.6l.2.1c.2-.2.1-.4 0-.5v.2c-.3 0-.2-.3-.4-.6v.2c-.1 0-.1-.1-.1-.2.2.1.1-.2.2-.3-.2.2-.3-.1-.4-.2.1-.2-.3-.2-.1-.3-.1 0-.2.1-.2.1-.1-.2-.4-.2-.6-.5-.3-.6.1-.2-.5-.7l.1-.1-.2.1c.3-.3-.1-.4.2-.7-.2.1-.1-.1-.3-.2-.2.2 0 .3-.2.5-.4-.5-1.7-3.1-1.9-3.6.1 0 .2 0 .2-.1l-.2-.2c0 .1 0 .2-.1.2-.1-.1 0-.3-.2-.2v-.2c-.2 0-.1-.6-.5-.5-.2-.2.2-.2 0-.5l-.3.1s-.9-1.6-1-1.4c0-.1.1-.2.1-.3-.2-.2-.4-.5-.6-.8.1 0 .1 0 .1-.1-.6-1-1-2-1.5-3.1-.1-.2.2-.2.2-.4s-.2-.2-.3-.2v.1-.3c-.1-.1-.1-.3 0-.5.1.1.1.3 0 .5.1 0 .3.1.2-.1l.1.2c.1-.1-.1 0-.1-.2l-.1-.1.1-.1c.8-1.3 6.2-3.4 6.2-3.4h.1l.2.4c.5.4.6 1.1.7 1.5.1.2.3.6.6.8l-.1.1c.2.2.7.4.8.6l-.1.1c.1.1.4.3.7.1.1.3-.2.4.1.7v-.1c.3.3.9 2 1.3 2.2h-.1c.3.2.4.7.8.8.2.7 1.6 3.3 2.1 3.9.4.5.2-.1.6.5.1 0 .2 0 .2-.1.1.2.3.4.2.7.5.5 1.1 1.3 1.6 2.1l.4.6c.1 0 .1.1.1.1h.2c0 .1.1 0 .1 0h.2c.1 0 .1-.1.1-.1h.1v-.1h.2c0-.1.1-.1.1-.1l.6-.1.1-.2c.2.1.3 0 .5.1v-.2c.1 0 .1-.1.2-.1h.2v.1h.2c.1 0 0-.1.1-.1.4-1.8 1.6-5.2 2.1-6.9v.1l2.1-6.2-.1-.3c.2-.2.2-.4.4-.7 0-.2-.1-.2-.2-.1.2-.2.2-.6.3-.7h.1c.4-.3 0-.8.3-1.2h.1c.1-.1.1-.4 0-.6.2-.2.3.1.4-.1-.2-.1 0-.3.1-.4-.1.2-.1.5.1.5.1-.3.3 0 .3-.3l-.2-.1a.76.76 0 0 1 .2-.4c0 .1 0 .2-.1.3.4.2 6.2 2.7 6.6 2.9.1.5-.5 1-.2 1.6-.4 0-.6.4-.3.3zm-13.1 12.4h0zm6.4-17.2v.2-.2z"/>
  <path class="text"
    d="M244.1 394.6c-.1.2-.3 0-.3.2.3.1.1.3.1.5 0-.2-.1-.5-.3-.4 0 .3-.2.1-.1.3h.3c.1.1 0 .3-.1.4v-.3c-.5 0-6.9.5-7.3.5-.3-.3.1-.9-.4-1.3-.1.1 0-.3-.2-.1v-.3c.1.1-.4-3-.6-4.5h-.1v.1-.1h-.1v-.6l-.2-1c0-.1-.1-.6-.1-.5 0 0-.1-.2-.1-.1-.1 0 0-.2-.1-.2.1 0 0-.1.1-.2-.1 0-.1 0-.1-.1v-.1c0-.1-.3-1.9-.6-4 0 .3 0 .4-.1.3v.1c-.2-.3-.2-.5-.2-.9l.1.2c.1 0 .1-.1.2-.1v-.2c-.2-.1-.1-.2 0-.4l-.3-1.7c-.1 0-.3-.1-.3-.3 0-.8.2-.1-.2-1l.1-.1h-.3a.55.55 0 0 0 .3-.5c0-.2 0-.4-.1-.6v.1c-.2-.8-.5-4.2-.5-5 .1.1.2.1.3 0l-.1-.2c-.1 0-.1.1-.1.1-.1-.1.1-.3-.2-.3.2 0 .2-.2.2-.2-.2-.1.2-.6-.2-.7-.1-.4.3-.1.2-.6h-.4c0-.1-.2-2.1-.3-2.2.1 0 .2-.1.3-.2-.1-.4-.1-.8-.2-1.2h.1c-.2-1.4-.1-2.8-.1-4.2 0-.3.3-.1.3-.3.1-.2-.1-.3-.2-.4 0 .1 0 .2-.1.1 0-.1.1-.2.1-.3.1 0 .2.2.3 0v.3c.2 0 0-.1.1-.3l-.1-.2h.2c1.2-1.1 7-.8 7-.8h.1v.5c.3.7.1 1.5 0 2.1 0 .2 0 .8.2 1.2h-.2c0 .4.4.9.5 1.1h-.1c0 .2-.2.6.1.6-.1.4.1.3.3.7v-.1c.2.5.1 3.2.3 3.7h-.1c.3.4.1 1 .4 1.4-.1.8.6 8.9.9 9.8.1.8.2 0 .3.8 0 .1.1.1.2 0 0 .3.1.6-.1.9.4 1.6.1.5.3 2.1h-.1l.8 5.9.2.2c-.1.2 0 .5-.1.7 0 .2.2.1.2 0-.1.3.1.5 0 .7h-.1c-.2.4.4.6.2 1.1-.1-.2.1-.1.2.1zM232 361.9c0-.2 0-.4.2-.5 0 .1 0 .3-.2.5zm.9 12.9c.2 0 .4.1.5.1l-.2-.3-.3.2c0-.1 0-.1 0 0zm.4 3c0-.2.1-.3.2-.3-.2-.1 0-.2-.1-.4l-.2.2c0 .1.1.3.1.5zm.8 3.2c-.2.1-.3-.3-.3-.4.2-.1-.2-.3 0-.4-.1-.1-.2 0-.2 0l.1 1.1c.1 0 0-.1 0-.1.2.2.3-.1.4-.2zm-.1.3l-.1.2v.2c0-.1.1-.3.1-.4zm-.1.7v.4c.1-.1.1-.2 0-.4zm37.3.9v2.5c-.1.8-.3 1.6-.5 2.3s-.6 1.4-.9 2v-.1l-.2.3c0 .1-.1.2-.2.3l-.3.4-.1.2-.2.2c-.5.6-1.1 1.2-1.8 1.7s-1.5.9-2.4 1.3l-2.5.8c-.8.1-1.6.3-2.4.3-.7.1-1.4 0-2 .1l-2.8-.3-.5.2c-.4-.2-.9-.2-1.5-.4-.4-.1-.2.1-.1.2-.5-.3-1.2-.2-1.4-.4l.1-.1c-.4-.2-.7-.2-1.1-.2s-.7 0-1.2-.2v-.1c-.3-.2-.8-.2-1.1-.2-.4-.2 0-.3-.3-.5-.2.2-.6 0-.9-.2.4.1.9.2 1 0-.6-.1-.1-.2-.7-.3l-.1.2c-.2 0-.3-.1-.5-.2-.1 0-.2-.1-.2-.1 0-.1-.1-.1-.1-.1h.4l.3.1.6-1.1c.4-.5.4-1.5.8-2.2.9-1.5 1.4-3 1.5-3.2.4 0 1.5.3 1.9.4s.8.2 1.2.1c-.2-.1.4.1.2-.1l.4.1c-.2 0-.4 0-.5.1 1 .3 2 .4 3 .6h.4c.1 0 .2-.1.3-.1.1-.1.2-.2.3-.2v.2h.6c-.1-.2 0-.5-.2-.5 0-.1.2 0 .4 0-.1.1-.2.2-.1.2.2 0 .3 0 .3-.1s.1-.1.3-.1l-.1.2c0 .1 0 .2.2.2h1.6c.6 0 1.4-.1 1.9-.4l.7-.4a.78.78 0 0 0 .4-.4v-.1c.1 0 0-.1.1-.1v-.1l.1-.1v-.2c0 .1.1.1.2.2.2.1.3.2.3.2v-.4h-.3v-.1h-.1v-.5c0-.3 0-.6-.1-1 0-.4-.1-.8-.3-.9v-.1h-.1v-.1h-.1c0-.1-.1 0-.1-.1h-.1c0 .1.1 0 .1.1l-.2-.2c0-.1-.1 0-.1 0v-.1h-.1.2c.1 0 .1-.1.1-.1v-.1c0-.1 0-.1-.1-.1v-.1h-.1v.2h-.3v-.1c0-.1-.1 0-.1 0v-.1l-.2-.1v.2h-.1c-.1 0-.1-.1-.1-.1.1 0 .1-.1.1-.2v-.3c0 .1 0 .2-.1.2h-.2l-.2-.1h-.1s0-.1-.1-.1c0-.1-.1 0-.1-.1h-.2c-.1 0-.1-.1 0-.1-.2 0-.1.1-.1.2h-.1c-.1 0-.1 0-.1-.1h-.8l-.4-.1-.3-.2c-.1 0-.2-.1-.2-.1l-.1-.1-.2-.1c-.1 0-.3 0-.7-.1 0-.1-.1-.1-.1-.2l-.2.2c0-.2-.1-.2-.2-.3l-.3-.2c-.2-.1-.4-.2-.4-.4-.1.1-.2 0-.3 0s-.3-.1-.5-.1c0 .2.2.3.3.3.1.1.3.2.3.3-.4-.1-1-.3-1.9-.6s-2-.7-3.2-1.3l-1.8-1c-.6-.4-1.2-.9-1.7-1.3l-.4-.4-.3-.4c-.1-.1-.2-.2-.3-.4-.1 0-.1-.1-.1-.1l-.2-.2-.2-.3c-.1-.1-.2-.2-.2-.3s-.1-.1-.1-.2c-.1-.1-.1-.2-.1-.2.2.3.3.2.2-.2l-.2-.2c0-.1-.1-.1-.1-.2l-.2-.4c0 .1.1.3 0 .3s-.1-.1-.1-.1c-.1 0-.1-.1-.1-.1l-.1-.3c-.1-.2-.1-.3-.3-.4.1-.1.1-.2.1-.4v-.1c-.1 0-.1 0-.1-.1v-.1c-.1-.1-.2-.3-.2-.5s-.1-.2-.1-.4V369c-.1-.2-.1-.4-.3-.6v-.7l.1-.2c0-.1.1-.1.1-.2s0-.2.1-.3l.1-.5-.3-.1v-.2c0-.1 0-.2.1-.3 0-.1 0-.3.1-.4 0-.2.1-.3.2-.5l.3-.9c0-.1.1-.2.2-.3l.3-.7c.1-.1.2-.2.2-.3.1-.1.2-.2.2-.3.6-.8 1.4-1.5 2.1-1.9l.2-.2c.1-.1.1-.1.2-.1l.3-.2c.2-.1.2-.2.2-.2h.7c.2-.1.3-.2.5-.3.1 0 .2-.1.2-.1.1-.1.2-.1.2-.1.2 0 .3-.1.4-.1.2 0 .2-.1.4-.1.5-.2 1-.3 1.6-.4-.1 0-.1.1 0 .1.5-.1.9-.1 1.4-.2l.6-.1h1.9c.4.1.8.1 1.2.1 1.6.1 3 .4 4.5.7.6.1.1.3.6.4.3.1.6 0 .9 0-.1 0-.3-.1-.1-.1.1.1.3.2.5.2-.2.1-.4.2-.2.2l-.5-.1c0 .2.2 0 .6.2h.4l-.1.2c.4.4.5 1.1.5 1.9 0 .4-.1.8-.2 1.2s-.2.8-.4 1.3c-.2.8-.5 1.6-.8 2.1l-.3.7c-.1.2 0-.3 0-.3h-.1c-.2-.2-.6.2-.8-.1a6.28 6.28 0 0 1-1.9-.3c-.6-.1-1.2-.3-1.6-.4l-.9-.1c-.4 0-.7-.2-1-.2v-.2c-.3 0-.9-.2-1.2-.1-.2 0-.3.1-.5.2-.1 0-.2.1-.3.1h0s-.2 0-.2.1c-.1 0-.1.1-.2.1a2.12 2.12 0 0 1-.7.3h-.2c-.1 0-.1.1-.2.2-.1 0 0 .1-.1.1v-.1c0 .1 0 .1-.1.1 0 .1-.1.2-.1.2h-.1c0 .1 0 .2-.1.2-.1.1-.1.4-.2.5a.76.76 0 0 0-.2.4v.3h-.1s0 .1.1 0v.2c.1 0 .1 0 .1.1v.1c.1.1.1.2.3.3 0 .1 0 .1.1.1v.1s0 .1.1 0c.1.1.2.2.3.4l.7.5 1 .6c.8.4 1.7.7 2.6 1l2.1.6.9.2c.1 0 0-.1.2 0 .1 0 .2 0 .3.1l.5.2c.2.1.4 0 .1-.2l.4.2s.1 0 .2.1l.2.1.3.1.2.1.4.3 1.6.7c.6.4 1.2.7 1.8 1.2.7.5 1.3 1.2 1.9 2l.1.2.1.1.6.9c.1.1.1.2.1.3.1.1.1.2.1.3.1.2.2.5.3.7.6.9.8 1.8.8 2.7zm-17.1-16.2s-.1 0 0 0h0zm10.5-6.9h.2c-.1.1-.1.1-.2 0z"/>
</svg>
