<?xml version="1.0" encoding="UTF-8"?>
<svg version="1.1" viewBox="0 0 100 100" xmlns="http://www.w3.org/2000/svg">
 <path d="m50 2.7773c-26.078 0-47.223 21.145-47.223 47.223s21.145 47.223 47.223 47.223 47.223-21.145 47.223-47.223-21.145-47.223-47.223-47.223zm28.094 36.281l-29.742 29.742c-1.043 1.043-2.4531 1.6289-3.9297 1.6289-1.4727 0-2.8867-0.58594-3.9297-1.6289l-18.59-18.59c-2.1719-2.1719-2.1719-5.6875 0-7.8555s5.6875-2.168 7.8555 0l14.66 14.66 25.82-25.816c2.168-2.168 5.6875-2.168 7.8555 0 2.1719 2.168 2.1719 5.6875 0 7.8594z"/>
</svg>
