<?xml version="1.0" encoding="utf-8"?>
<svg version="1.1" xmlns="http://www.w3.org/2000/svg" viewBox="0 0 116.7 116.7" >
<path fill="#7289DA" d="M102.3,27.9c-14.3-10.7-28-10.4-28-10.4l-1.4,1.6c17,5.1,24.9,12.6,24.9,12.6c-10.4-5.6-20.6-8.4-30.1-9.5
	c-7.2-0.8-14.1-0.6-20.2,0.2c-0.6,0-1.1,0.1-1.7,0.2c-3.5,0.4-12,1.6-22.7,6.3c-3.7,1.6-5.9,2.8-5.9,2.8s8.2-7.9,26.2-13l-1-1.2
	c0,0-13.6-0.3-28,10.4c0,0-14.4,25.9-14.4,57.8c0,0,8.4,14.5,30.5,15.2c0,0,3.7-4.4,6.7-8.2C24.5,88.9,19.7,81,19.7,81
	s1,0.7,2.8,1.7c0.1,0,0.2,0.1,0.4,0.2c0.3,0.2,0.6,0.3,0.9,0.5c2.5,1.4,5,2.5,7.3,3.4c4.1,1.7,9,3.2,14.7,4.3
	c7.5,1.4,16.3,1.9,25.9,0.1c4.7-0.9,9.5-2.2,14.5-4.3c3.5-1.3,7.4-3.2,11.5-5.9c0,0-5,8.1-18.1,11.8c3,3.7,6.6,8,6.6,8
	c22.1-0.7,30.5-15.2,30.5-15.1C116.7,53.8,102.3,27.9,102.3,27.9z M39.7,76.5c-5.6,0-10.2-4.9-10.2-11c0-6.1,4.5-11,10.2-11
	s10.3,4.9,10.2,11C49.9,71.6,45.4,76.5,39.7,76.5z M76.2,76.5c-5.6,0-10.2-4.9-10.2-11c0-6.1,4.5-11,10.2-11c5.6,0,10.2,4.9,10.2,11
	C86.4,71.6,81.9,76.5,76.2,76.5z"/>
</svg>
