<svg viewBox="0 0 35 35" xmlns="http://www.w3.org/2000/svg">
    <path d="M34.9998 17.4998C34.9998 7.83485 27.1648 -0.00012207 17.4999 -0.00012207C7.83497 -0.00012207 0 7.83485 0 17.4998C0 26.2345 6.39946 33.4743 14.7655 34.7871V22.5584H10.3222V17.4998H14.7655V13.6443C14.7655 9.25842 17.3782 6.83578 21.3755 6.83578C23.2902 6.83578 25.2928 7.17758 25.2928 7.17758V11.4842H23.0861C20.9122 11.4842 20.2343 12.8332 20.2343 14.2171V17.4998H25.0878L24.3119 22.5584H20.2343V34.7871C28.6004 33.4743 34.9998 26.2345 34.9998 17.4998Z"
          fill="#1877F2"/>
    <path d="M24.3119 22.5587L25.0878 17.5001H20.2343V14.2174C20.2343 12.8335 20.9122 11.4845 23.0861 11.4845H25.2928V7.17788C25.2928 7.17788 23.2902 6.83608 21.3755 6.83608C17.3782 6.83608 14.7655 9.25873 14.7655 13.6446V17.5001H10.3222V22.5587H14.7655V34.7874C15.6565 34.9272 16.5697 35 17.4999 35C18.4301 35 19.3433 34.9272 20.2343 34.7874V22.5587H24.3119Z"
          fill="white"/>
</svg>
