<svg viewBox="0 0 55 52" fill="none" xmlns="http://www.w3.org/2000/svg">
<path d="M42.1088 2.50786C47.1754 5.71931 49.8489 12.6086 52.7716 18.1946L53.8123 21.1877C54.3426 22.963 54.507 23.0333 54.7958 24.8896C55.4619 29.1716 54.4258 32.1474 52.7418 35.9812C50.5697 40.926 46.1818 45.9419 41.9599 48.168C39.4129 49.511 36.5553 50.8044 33.8288 51.4346C29.1211 52.5227 23.8234 51.8264 19.1006 51.1295C15.0027 50.5247 10.3517 47.4746 7.26134 44.2912C4.30408 41.2449 2.27646 37.579 0.932205 33.2172C-1.60543 24.983 1.35608 14.6636 5.98062 8.43076C9.4997 3.68786 13.7263 0.64812 19.1154 0.138705C22.1786 -0.150842 25.3367 0.102813 28.4081 0.102812C33.0798 0.102812 37.8308 -0.203764 42.1088 2.50786Z" class="background"/>
<path d="M16.8824 28.5297C17.3699 28.5297 17.7648 28.1348 17.7648 27.6473C17.7648 27.1609 18.1609 26.7648 18.6473 26.7648C19.1348 26.7648 19.5297 26.3699 19.5297 25.8824C19.5297 25.3949 19.1348 25 18.6473 25C17.1871 25 16 26.1871 16 27.6473C16 28.1348 16.3949 28.5297 16.8824 28.5297Z" class="accent"/>
<path d="M35.6473 25C34.1871 25 33 26.1871 33 27.6473C33 28.1348 33.3949 28.5297 33.8824 28.5297C34.3699 28.5297 34.7648 28.1348 34.7648 27.6473C34.7648 27.1609 35.1609 26.7648 35.6473 26.7648C36.1348 26.7648 36.5297 26.3699 36.5297 25.8824C36.5297 25.3949 36.1348 25 35.6473 25Z" class="accent"/>
<path d="M40.365 23.3918L36.3034 18.4014C35.5284 17.4399 34.3502 16.8829 33.1101 16.8829C30.7233 16.8829 28.8935 18.8979 29.0184 21.2229C28.5219 20.9129 27.9334 20.7264 27.2819 20.7264C26.8169 20.7264 26.3519 20.8196 25.9487 21.0049C25.9487 18.7731 24.1504 16.8816 21.857 16.8816C20.617 16.8816 19.4387 17.4398 18.6637 18.4001L14.6349 23.3917C13.4882 24.5385 12.7749 26.12 12.7749 27.8551C12.7749 31.3268 15.5964 34.1484 19.0682 34.1484C21.92 34.1484 24.3066 32.2569 25.0816 29.6534C25.6701 30.1802 26.4451 30.5217 27.3133 30.5217C28.3366 30.5217 29.2351 30.0567 29.8551 29.3131C30.5066 32.0717 33.0168 34.1181 35.9618 34.1181C39.4335 34.1181 42.2551 31.2967 42.2551 27.8248C42.2248 26.0883 41.5116 24.5081 40.3648 23.3915L40.365 23.3918ZM19.0683 32.5368C16.4648 32.5368 14.3566 30.4285 14.3566 27.8251C14.3566 25.2216 16.4649 23.1134 19.0683 23.1134C21.6718 23.1134 23.78 25.2216 23.78 27.8251C23.78 30.4285 21.6415 32.5368 19.0683 32.5368ZM27.3137 28.9414C26.3522 28.9414 25.5772 28.1664 25.5772 27.2049C25.5772 26.2434 26.3522 25.4684 27.3137 25.4684C28.2752 25.4684 29.0502 26.2434 29.0502 27.2049C29.0187 28.1664 28.2437 28.9414 27.3137 28.9414ZM35.932 32.5368C33.3285 32.5368 31.2203 30.4285 31.2203 27.8251C31.2203 25.2216 33.3286 23.1134 35.932 23.1134C38.5355 23.1134 40.6437 25.2216 40.6437 27.8251C40.6437 30.4285 38.5367 32.5368 35.932 32.5368Z" class="primary"/>
</svg>
