<svg viewBox="0 0 55 52" xmlns="http://www.w3.org/2000/svg">
<path class="background" d="M42.1088 2.50786C47.1754 5.71931 49.8489 12.6086 52.7716 18.1946L53.8123 21.1877C54.3426 22.963 54.507 23.0333 54.7958 24.8896C55.4619 29.1716 54.4258 32.1474 52.7418 35.9812C50.5697 40.926 46.1818 45.9419 41.9599 48.168C39.4129 49.511 36.5553 50.8044 33.8288 51.4346C29.1211 52.5227 23.8234 51.8264 19.1006 51.1295C15.0027 50.5247 10.3517 47.4746 7.26134 44.2912C4.30408 41.2449 2.27646 37.579 0.932205 33.2172C-1.60543 24.983 1.35608 14.6636 5.98062 8.43076C9.4997 3.68786 13.7263 0.64812 19.1154 0.138705C22.1786 -0.150842 25.3367 0.102813 28.4081 0.102812C33.0798 0.102812 37.8308 -0.203764 42.1088 2.50786Z"/>
<path class="accent" d="M40.0295 35.3738L39.0549 34.3992L35.5897 37.8643L36.5644 38.839C36.668 38.9426 36.8025 38.9999 36.948 38.9999C38.7363 38.9999 40.1916 37.5457 40.1874 35.753C40.1918 35.6107 40.1378 35.4729 40.0298 35.3737L40.0295 35.3738Z"/>
<path class="accent" d="M33.7505 29.0937C33.325 28.6604 32.6645 28.5061 32.0846 28.6946L30.8718 29.1036L30.2017 29.9667L29.8941 30.8928C29.6913 31.4805 29.8478 32.1211 30.2855 32.5588L30.8269 33.1001L34.2966 29.6304L33.7505 29.0937Z"/>
<path class="primary" fill-rule="evenodd" clip-rule="evenodd" d="M30.2018 29.9668L30.8719 29.1037L29.1497 27.3816C32.1463 23.9847 32.0306 18.7806 28.7848 15.5347C27.1508 13.9008 24.9744 13 22.6625 13C20.3505 13 18.1742 13.9008 16.5402 15.5347C14.9008 17.1742 14 19.3451 14 21.6626C14 23.9747 14.9008 26.151 16.5402 27.7849C18.1742 29.4189 20.3506 30.3196 22.6625 30.3196C24.7926 30.3196 26.8014 29.5468 28.3837 28.1487L30.2018 29.9668ZM18.0703 26.2493C19.2975 27.4764 20.926 28.1489 22.6624 28.1489C24.3935 28.1489 26.0219 27.4764 27.249 26.2493C28.4761 25.022 29.1487 23.3937 29.1487 21.6627C29.1487 19.926 28.4761 18.2977 27.249 17.0705C26.0218 15.8434 24.3934 15.1709 22.6624 15.1709C20.9258 15.1709 19.2974 15.8434 18.0703 17.0705C16.8486 18.2978 16.1706 19.9262 16.1706 21.6627C16.1706 23.3938 16.8487 25.0221 18.0703 26.2493Z"/>
<path class="accent" d="M35.067 30.4038L31.5973 33.8724L34.8223 37.0973L38.2874 33.631L35.067 30.4038Z"/>
</svg>
