<svg viewBox="0 0 55 52" fill="none" xmlns="http://www.w3.org/2000/svg">
<path d="M42.1088 2.50786C47.1754 5.71931 49.8489 12.6086 52.7716 18.1946L53.8123 21.1877C54.3426 22.963 54.507 23.0333 54.7958 24.8896C55.4619 29.1716 54.4258 32.1474 52.7418 35.9812C50.5697 40.926 46.1818 45.9419 41.9599 48.168C39.4129 49.511 36.5553 50.8044 33.8288 51.4346C29.1211 52.5227 23.8234 51.8264 19.1006 51.1295C15.0027 50.5247 10.3517 47.4746 7.26134 44.2912C4.30408 41.2449 2.27646 37.579 0.932205 33.2172C-1.60543 24.983 1.35608 14.6636 5.98062 8.43076C9.4997 3.68786 13.7263 0.64812 19.1154 0.138705C22.1786 -0.150842 25.3367 0.102813 28.4081 0.102812C33.0798 0.102812 37.8308 -0.203764 42.1088 2.50786Z" class="background"/>
<path d="M23.3439 27.625H14.4065C14.1627 27.625 14.0002 27.7875 14.0002 28.0312V28.8437C14.0002 29.0875 14.1627 29.25 14.4065 29.25H23.3439C23.5877 29.25 23.7502 29.0875 23.7502 28.8437V28.0312C23.7502 27.7875 23.5877 27.625 23.3439 27.625Z" class="accent"/>
<path d="M23.3439 35.75H14.4065C14.1627 35.75 14.0002 35.9125 14.0002 36.1562V36.9687C14.0002 37.2125 14.1627 37.375 14.4065 37.375H23.3439C23.5877 37.375 23.7502 37.2125 23.7502 36.9687V36.1562C23.7502 35.9125 23.5877 35.75 23.3439 35.75Z" class="accent"/>
<path d="M23.3439 31.6875H14.4065C14.1627 31.6875 14.0002 31.85 14.0002 32.0937V32.9062C14.0002 33.15 14.1627 33.3125 14.4065 33.3125H23.3439C23.5877 33.3125 23.7502 33.15 23.7502 32.9062V32.0937C23.7502 31.85 23.5877 31.6875 23.3439 31.6875Z" class="accent"/>
<path d="M33.5 26C29.925 26 27 28.925 27 32.5C27 36.0749 29.925 38.9999 33.5 38.9999C37.0749 38.9999 39.9999 36.0749 39.9999 32.5C39.9999 28.925 37.0749 26 33.5 26ZM33.5 37.6188C30.6561 37.6188 28.3811 35.3032 28.3811 32.5C28.3811 29.9406 30.2905 27.7875 32.8091 27.4625V32.6625V32.7437C32.7685 32.9062 32.8498 33.1093 33.0123 33.2718L36.4248 36.6843C35.5716 37.2937 34.556 37.6187 33.4998 37.6187L33.5 37.6188ZM37.4405 35.7501L35.0436 33.3532H38.5375C38.375 34.2469 38.0094 35.0594 37.4406 35.7501H37.4405ZM34.1905 31.972V27.4626C36.5061 27.7876 38.3344 29.6564 38.578 31.972H34.1905Z" class="primary"/>
<path d="M28.625 19.9063C28.625 21.0438 29.5188 21.9375 30.6563 21.9375C31.7938 21.9375 32.6875 21.0438 32.6875 19.9063C32.6875 19.7844 32.6875 19.6625 32.6469 19.5407L36.5469 17.3063C36.9125 17.6313 37.4 17.8751 37.9281 17.8751C39.0656 17.8751 39.9593 16.9813 39.9593 15.8438C39.9593 14.7063 39.0656 13.8126 37.9281 13.8126C36.7906 13.8126 35.8969 14.7063 35.8969 15.8438C35.8969 16.0063 35.9375 16.1688 35.9375 16.3313L32.0781 18.525C31.7125 18.1188 31.1843 17.8751 30.575 17.8751C30.0875 17.8751 29.6406 18.0376 29.275 18.3625L25.2125 15.6406C25.3344 15.4375 25.375 15.2344 25.375 15.0312C25.375 13.8937 24.4812 13 23.3438 13C22.2063 13 21.3125 13.8937 21.3125 15.0312C21.3125 15.3562 21.3938 15.6812 21.5563 15.9656L17.0468 19.7845C16.7625 19.5814 16.3968 19.5001 16.0312 19.5001C14.8937 19.5001 14 20.3938 14 21.5313C14 22.6688 14.8937 23.5626 16.0312 23.5626C17.1687 23.5626 18.0625 22.6688 18.0625 21.5313C18.0625 21.2063 17.9812 20.8813 17.8187 20.597L22.3281 16.8189C22.6125 16.9814 22.9781 17.0627 23.3438 17.0627C23.8313 17.0627 24.2781 16.9002 24.6437 16.5752L28.7062 19.2971C28.6656 19.5002 28.625 19.7032 28.625 19.9063ZM37.9689 14.9502C38.4564 14.9502 38.8626 15.3564 38.8626 15.8439C38.8626 16.3314 38.4564 16.7377 37.9689 16.7377C37.4814 16.7377 37.0751 16.3314 37.0751 15.8439C37.0751 15.3564 37.4814 14.9502 37.9689 14.9502ZM30.6564 19.0127C31.1439 19.0127 31.5501 19.4189 31.5501 19.9064C31.5501 20.3939 31.1439 20.8002 30.6564 20.8002C30.1689 20.8002 29.7627 20.3939 29.7627 19.9064C29.7627 19.4189 30.1689 19.0127 30.6564 19.0127ZM16.0315 22.4252C15.544 22.4252 15.1377 22.0189 15.1377 21.5314C15.1377 21.0439 15.544 20.6377 16.0315 20.6377C16.519 20.6377 16.9252 21.0439 16.9252 21.5314C16.9252 22.0189 16.519 22.4252 16.0315 22.4252ZM23.3439 15.9252C22.8564 15.9252 22.4502 15.5189 22.4502 15.0314C22.4502 14.5439 22.8564 14.1377 23.3439 14.1377C23.8314 14.1377 24.2377 14.5439 24.2377 15.0314C24.2377 15.5189 23.8314 15.9252 23.3439 15.9252Z" class="primary"/>
</svg>
