<svg viewBox="0 0 55 52" fill="none" xmlns="http://www.w3.org/2000/svg">
<path d="M42.1088 2.50786C47.1754 5.71931 49.8489 12.6086 52.7716 18.1946L53.8123 21.1877C54.3426 22.963 54.507 23.0333 54.7958 24.8896C55.4619 29.1716 54.4258 32.1474 52.7418 35.9812C50.5697 40.926 46.1818 45.9419 41.9599 48.168C39.4129 49.511 36.5553 50.8044 33.8288 51.4346C29.1211 52.5227 23.8234 51.8264 19.1006 51.1295C15.0027 50.5247 10.3517 47.4746 7.26134 44.2912C4.30408 41.2449 2.27646 37.579 0.932205 33.2172C-1.60543 24.983 1.35608 14.6636 5.98062 8.43076C9.4997 3.68786 13.7263 0.64812 19.1154 0.138705C22.1786 -0.150842 25.3367 0.102813 28.4081 0.102812C33.0798 0.102812 37.8308 -0.203764 42.1088 2.50786Z" class="background"/>
<path d="M20.2746 25.6348C21.4311 25.6348 22.5007 25.2305 23.368 24.5359C24.293 25.0848 25.3626 25.4033 26.519 25.4033C27.7907 25.4033 28.9766 25.0272 29.9591 24.362C30.8265 25.1424 31.983 25.6337 33.2546 25.6337C36.0014 25.6337 38.1993 23.4076 38.1993 20.6889C38.2005 17.9727 35.9744 15.7173 33.2277 15.7173C32.7071 15.7173 32.2158 15.8043 31.7527 15.9489C30.6549 14.1858 28.7168 13 26.4908 13C24.3223 13 22.4134 14.1272 21.3159 15.8043C20.9692 15.7467 20.6224 15.6891 20.2746 15.6891C17.5278 15.6891 15.3298 17.9152 15.3298 20.6339C15.331 23.3513 17.5278 25.6348 20.2746 25.6348ZM33.228 16.5847C35.4835 16.5847 37.3053 18.4065 37.3053 20.6621C37.3053 22.9176 35.4836 24.7394 33.228 24.7394C32.2454 24.7394 31.3193 24.3927 30.6258 23.785C31.8975 22.6579 32.7073 21.0089 32.7073 19.1884C32.7073 18.2916 32.5052 17.4536 32.1867 16.7014C32.5052 16.6438 32.8813 16.5847 33.228 16.5847ZM20.2746 16.5847C20.4768 16.5847 20.6789 16.6141 20.8823 16.6423C20.5062 17.4227 20.304 18.2901 20.304 19.2151C20.304 21.1521 21.2008 22.8868 22.6171 24.0433C21.9518 24.5064 21.142 24.7662 20.2746 24.7662C18.0192 24.7662 16.1973 22.9444 16.1973 20.6888C16.1984 18.4356 18.019 16.5847 20.2746 16.5847Z" class="accent"/>
<path d="M37.4204 27.4862C36.379 26.4167 35.0497 25.8666 33.4876 25.8666C32.2735 25.8666 31.2039 26.1851 30.3072 26.8492C29.2952 26.271 28.1387 25.9524 26.8376 25.9524C25.6235 25.9524 24.5245 26.2122 23.5421 26.7329C22.6747 26.1546 21.6627 25.8655 20.5357 25.8655C18.9748 25.8655 17.6443 26.4144 16.6029 27.4851C13.8855 30.2612 14.0007 35.6383 14.0007 35.8699C14.0007 36.1014 14.2029 36.3036 14.4344 36.3036H18.7419C18.5973 37.5471 18.6267 38.4438 18.6267 38.5591C18.6267 38.7906 18.8289 38.9928 19.0604 38.9928H34.5865C34.818 38.9928 35.0202 38.8188 35.0202 38.5591C35.0202 38.4721 35.0495 37.5471 34.905 36.2754H39.5606C39.7921 36.2754 39.9943 36.1014 39.9943 35.8417C40.0225 35.6395 40.1377 30.2611 37.4203 27.4864L37.4204 27.4862ZM14.8681 35.4079C14.8975 34.1068 15.1866 30.174 17.2105 28.0925C18.0779 27.1958 19.2051 26.7339 20.5355 26.7339C21.3453 26.7339 22.0964 26.9078 22.7334 27.2545C22.4443 27.4567 22.1551 27.7176 21.8954 27.9774C19.9291 30.0013 19.1486 33.0947 18.83 35.4078L14.8681 35.4079ZM34.8182 35.4079C34.4997 33.0654 33.7193 29.9719 31.7528 27.9775C31.5506 27.7459 31.3191 27.5731 31.0876 27.3698C31.781 26.9361 32.5908 26.734 33.4876 26.734C34.8181 26.734 35.9158 27.197 36.8126 28.0927C38.8659 30.1742 39.1257 34.1349 39.155 35.408L34.8182 35.4079Z" class="accent"/>
<path d="M37.4204 27.4862C36.379 26.4167 35.0497 25.8666 33.4876 25.8666C32.2735 25.8666 31.2039 26.1851 30.3072 26.8492C29.2952 26.271 28.1387 25.9524 26.8376 25.9524C25.6235 25.9524 24.5245 26.2122 23.5421 26.7329C22.6747 26.1546 21.6627 25.8655 20.5357 25.8655C18.9748 25.8655 17.6443 26.4144 16.6029 27.4851C13.8855 30.2612 14.0007 35.6383 14.0007 35.8699C14.0007 36.1014 14.2029 36.3036 14.4344 36.3036H18.7419C18.5973 37.5471 18.6267 38.4438 18.6267 38.5591C18.6267 38.7906 18.8289 38.9928 19.0604 38.9928H34.5865C34.818 38.9928 35.0202 38.8188 35.0202 38.5591C35.0202 38.4721 35.0495 37.5471 34.905 36.2754H39.5606C39.7921 36.2754 39.9943 36.1014 39.9943 35.8417C40.0225 35.6395 40.1377 30.2611 37.4203 27.4864L37.4204 27.4862ZM14.8681 35.4079C14.8975 34.1068 15.1866 30.174 17.2105 28.0925C18.0779 27.1958 19.2051 26.7339 20.5355 26.7339C21.3453 26.7339 22.0964 26.9078 22.7334 27.2545C22.4443 27.4567 22.1551 27.7176 21.8954 27.9774C19.9291 30.0013 19.1486 33.0947 18.83 35.4078L14.8681 35.4079ZM34.8182 35.4079C34.4997 33.0654 33.7193 29.9719 31.7528 27.9775C31.5506 27.7459 31.3191 27.5731 31.0876 27.3698C31.781 26.9361 32.5908 26.734 33.4876 26.734C34.8181 26.734 35.9158 27.197 36.8126 28.0927C38.8659 30.1742 39.1257 34.1349 39.155 35.408L34.8182 35.4079Z" class="accent"/>
<path fill-rule="evenodd" clip-rule="evenodd" d="M35.0207 38.5202C35.0238 38.3156 35.0375 37.4412 34.905 36.2754L34.8182 35.4079C34.4997 33.0654 33.7193 29.9719 31.7528 27.9775C31.6048 27.8079 31.441 27.6699 31.273 27.5283C31.2115 27.4765 31.1496 27.4243 31.0876 27.3698L30.3072 26.8492C29.2952 26.271 28.1387 25.9524 26.8376 25.9524C25.6235 25.9524 24.5245 26.2122 23.5421 26.7329L22.7334 27.2545C22.4443 27.4567 22.1551 27.7176 21.8954 27.9774C19.9291 30.0013 19.1486 33.0947 18.83 35.4078L18.7419 36.3036C18.6106 37.4329 18.6228 38.2762 18.6261 38.5079C18.6264 38.5313 18.6267 38.5485 18.6267 38.5591C18.6267 38.7906 18.8289 38.9928 19.0604 38.9928H34.5865C34.818 38.9928 35.0202 38.8188 35.0202 38.5591C35.0202 38.5518 35.0204 38.5388 35.0207 38.5202Z" class="primary"/>
<circle cx="26.4948" cy="19.2113" r="6.21125" class="primary"/>
</svg>
