<svg xmlns="http://www.w3.org/2000/svg" viewBox="0 0 619.85 737.4">
  <g>
    <path style="fill: #231f20; opacity: 0.4;" d="M498.14,718.74c0,10.3-87.23,18.66-194.84,18.66S108.46,729,108.46,718.74s87.24-18.67,194.84-18.67S498.14,708.43,498.14,718.74Z"/><path
    style="fill: #33150e"
    d="M614.85,259.51a14.81,14.81,0,0,0-13.26-3.78,12,12,0,0,0-1.25.32c.6-3.28,1.06-5.86,1.29-7.2l.69-3.88L599.69,242c-5.48-6.11-11.81-9.2-18.82-9.2a27,27,0,0,0-16.42,6l-.53.46v-1L557.36,237a37,37,0,0,0-7.05-.7,31.58,31.58,0,0,0-20.1,6.8l-3.14,2.76.41,4.16c0,.12,1.21,12.06,1.37,24.85.21,16.37-1.4,22.06-2.06,23.68a7.39,7.39,0,0,1-1.16.08c-2.76,0-6.75-.93-10.6-1.83-4.66-1.09-9.47-2.21-14-2.21-5.42,0-9.72,1.65-12.78,4.9a20.09,20.09,0,0,0-3.25,4.55c13.6-28.59,14.93-61,14.48-78.13a197.65,197.65,0,0,0-1.81-22.45c15.63-4.43,33.09-17,37.41-27.56,2.15-5.26,1.31-10.55-2.25-14.14s-9.13-5.32-16.21-4.79c3.85-8.06,5.55-15.58,4.75-21.56-.92-6.79-5.17-11.67-11.38-13.07a15,15,0,0,0-3.31-.36,24.75,24.75,0,0,0-11.26,3.18,24.16,24.16,0,0,0,0-6.87,12.89,12.89,0,0,0-7.17-10,13.88,13.88,0,0,0-11.4-.07c2.67-17.8,4-27.16,4.46-32.15s.51-7.32-1.4-9.81S472,60.5,461.83,56c-7-3.08-16.25-6.75-20.73-6.75a9.16,9.16,0,0,0-.93,0c-4.94.49-9,4.32-12.11,11.39a96.33,96.33,0,0,0-13-1.79c-3.18-.26-6.35-.42-9.17-.52.45-3.71.78-7.07,1-10,.93-12.16,1-23.25-8.22-25.45a26.79,26.79,0,0,0-6.14-.58c-9.18,0-24.56,2.67-35,4.72.25-2.64.41-4.31.45-4.81l.42-4.52L355,15c-.77-.62-19.16-15-44.82-15-16.67,0-32.44,6-46.88,17.78L260,20.52l.32,3.23a83.42,83.42,0,0,0-11.33-1c-3.38,0-5.69.46-7.49,1.49-2.65,1.52-3.94,3.66-5.3,8.8-.43,1.62-.88,3.63-1.37,6.06l-.09-.57c-.9-5.6-1.68-10-2.31-13-1-4.8-2.13-10.25-8.07-11.24a7.74,7.74,0,0,0-1.29-.11c-4.13,0-15.19,4.33-22.28,7.29v0L198,22.63l-2.58,1.12-1,.42a9.23,9.23,0,0,0-1.21.62l-4.13,2,.4,1.68c-1.91,3.09-2.24,6.84-2.52,10-.55,6.09-1.1,8.14-3.52,9.12A4.52,4.52,0,0,1,182,48a7.07,7.07,0,0,1-1.43-2.8L179,31.35l-8.14,5c-12.93,7.91-20.23,15.42-22.3,23-.86,3.11-1.52,10.44.34,38.15a14.49,14.49,0,0,0-6.56-1.63,13.37,13.37,0,0,0-4.41.76,12.86,12.86,0,0,0-8.13,9.21,23.94,23.94,0,0,0-.72,6.85c-4.57-3-8.66-4.4-12.47-4.4a14.15,14.15,0,0,0-1.74.1c-6.33.77-11,5.2-12.64,11.86-1.4,5.85-.47,13.51,2.55,21.93-7-1.24-12.59-.18-16.61,3.13s-5.27,8.39-3.67,13.84c3.33,11.27,20.16,25.88,35.48,31.59a174.76,174.76,0,0,0-3.63,32.57c-.46,17.57,1,51.39,15.68,80.55l.86,1.71,1.55,1.15c.86.64,5.6,3.85,13.71,3.85a38.9,38.9,0,0,0,14.74-3.2c-.21.31-.43.62-.63.93-13.13,19.58-13,47.4.34,72.61a100.8,100.8,0,0,0,11.28,16.86,217.57,217.57,0,0,0-27.49,37.09c-15,25.12-33.47,66.63-36.72,122.09-5.48,8.32-15.86,26.27-13,39.11l.41,1.82,1.15,1.46c9.59,12.09,14.8,16.05,17.48,17.24.19.08.43.2.71.35l.21.1a49.35,49.35,0,0,0,22.8,6c10.59,0,20.79-3.88,30.34-11.54a22.06,22.06,0,0,0,2.19-.48c-1.69,5.8-2,10.38-.89,13.69a11.32,11.32,0,0,0,6.66,7.13,11.93,11.93,0,0,0,4.33.82,14.75,14.75,0,0,0,9.16-3.51c.17.53.36,1,.57,1.54a13.17,13.17,0,0,0,3.55,4.88,216.83,216.83,0,0,0,6,42,21.74,21.74,0,0,0-6,4h-.47A21.5,21.5,0,0,0,184.06,684c-7.71,4.35-11.78,18.25-10.61,28,.91,7.62,5,13,11.22,14.76a41.88,41.88,0,0,0,17.76,1,40.38,40.38,0,0,0,8.22.79,53.28,53.28,0,0,0,9.37-.86c.71,0,1.59.06,2.71.06,3.62,0,10.16-.21,20-.61,11.47-.48,22.81-1.07,24.91-1.25a14.49,14.49,0,0,0,10.71-6.53c2.32-3.46,4.49-9.54,1.61-18.81-1.57-5.07-2.45-27.16-2.69-48.94h0A17.29,17.29,0,0,0,291,658.43h.34a19.38,19.38,0,0,0,13.76-5.75,24.86,24.86,0,0,0,2.59-3A23.48,23.48,0,0,0,310,652.4a19.88,19.88,0,0,0,14.53,6.07q.79,0,1.62-.06a20,20,0,0,0,15.07-8.06,22.53,22.53,0,0,0,1.79-2.79q.93,1,1.89,1.8c-.23,27-1.28,47.16-2.71,51.78-2.88,9.27-.71,15.35,1.61,18.81a14.51,14.51,0,0,0,10.71,6.53c2.1.18,13.43.77,24.91,1.25,9.82.41,16.35.61,20,.61,1.13,0,2,0,2.71-.06a53,53,0,0,0,9.37.87,40.3,40.3,0,0,0,8.2-.8,43.28,43.28,0,0,0,6.55.5,41.2,41.2,0,0,0,11.23-1.54c6.22-1.76,10.31-7.14,11.22-14.75,1.17-9.75-2.9-23.66-10.61-28A21.7,21.7,0,0,0,426.83,682a21.74,21.74,0,0,0-6-4,217.13,217.13,0,0,0,6-43.83,15.73,15.73,0,0,0,1.57-2.32,19.16,19.16,0,0,0,1.9-4.93,20.58,20.58,0,0,0,9.85,1.49A13,13,0,0,0,451,621.3c5.23-10.4-4.17-30.25-11.1-42.43,1.3-5.23.76-9.86-1.59-13.81a17.05,17.05,0,0,0-8.91-7.14c.78-23.56-1.09-47.38-3.1-65A188.77,188.77,0,0,0,497,467a194.64,194.64,0,0,0,50.38-45.67c4.26-5.44,8.35-11.25,12.16-17.26A146.12,146.12,0,0,0,570,385.59a197.56,197.56,0,0,0,9.59-21.85c11.52-4,21.16-16.94,28.7-38.51,6.24-17.86,9.55-37.06,10.8-44.28l.09-.57C620.83,271,619.36,264,614.85,259.51Zm-438.54,298c1.27-9,6.35-36.63,22.64-56.89-2.17,17-4.53,38.82-5.12,57.21l-1.35,1.35a35.14,35.14,0,0,0-7.39,10.16A52.36,52.36,0,0,0,176.31,557.52ZM486.07,328.3l1.85,3.43,3.83.71c16,2.93,22.6,9.22,24.88,12.14-5,22.45-20.28,38.69-45.45,48.3A130.1,130.1,0,0,1,442,400.07l.09-1.07a101.09,101.09,0,0,0,12.36-18.15c12.64-23.88,13.43-50.1,2.32-69.44a36.57,36.57,0,0,0,10.91,1.8c8.12,0,12.86-3.21,13.72-3.85l1.54-1.15.87-1.71c.21-.41.41-.82.61-1.24C480.65,313.69,483.35,323.23,486.07,328.3Z"/><path
    style="fill: #af5b27"
    d="M406.54,693.44a8.08,8.08,0,0,0-6.3-4.35,12.62,12.62,0,0,0-1.77-.12c-6.7,0-14.7,4.63-18,7.08h0c-.05-.16-1.12-4,5-7.61,3.32-1.61,8.29-3.52,13.05-3.52h.23l.17,0c.27-.09.88-.31,1.32-.48a37.77,37.77,0,0,1,8.48-2.26l.44-.06.13-.43a200.52,200.52,0,0,0,7.44-47.62l0-.78-.78.09a12.51,12.51,0,0,1-1.39.09c-5.12,0-10.26-3.35-15.28-10l-1.38-1.82.17,2.27c.33,4.6-.22,8.34-1.66,11.12a11.51,11.51,0,0,1-8.69,6.19A14.92,14.92,0,0,1,376,638.57a25.3,25.3,0,0,1-6.82-8L368,628.65l-.14,2.22c-.36,5.46-1.52,9.6-3.45,12.3a9.53,9.53,0,0,1-6.89,4.17,12.44,12.44,0,0,1-1.83.06l-.71,0v.71c-.08,10.95-.56,47.35-3.18,55.8-1.32,4.25-1.2,7.86.34,10.16a4.53,4.53,0,0,0,3.19,2.09c4.41.38,35.53,1.82,44.41,1.82.68,0,1.22,0,1.61,0h.29l.19-.22C403,716.38,412.73,704.65,406.54,693.44Z"/><path style="fill: #33150e; opacity: 0.4;" d="M355.06,628.5c2.79,5.87,9.92,18.6,16.43-22.85,17.8,13.8,34.34,28.1,33.11-17.18,8.58,6.82,13.36,21.61,13.36,21.61l.69,29s-42.87,30.17-62.24,14.33C355.06,628.5,352.27,622.62,355.06,628.5Z"/><path
    style="fill: #ae5a26"
    d="M267.06,648.36v-1l-.95.43a11.83,11.83,0,0,1-8.34.54c-4.88-1.41-7.65-6.5-8.26-15.11l-.13-1.82-1.09,1.46c-4.18,5.61-9.67,8.45-16.32,8.45h-.35c-5-.07-8.72-1.91-11.12-5.47-1.77-2.64-2.74-6.29-2.87-10.86l-.06-2.06-1.18,1.7a19.94,19.94,0,0,1-6.7,6.5,10.68,10.68,0,0,1-3.77,1.22l-.6.08V633a200.18,200.18,0,0,0,7.46,48.16l.12.43.44.06a37,37,0,0,1,8.47,2.26l.08,0c.39.14,1,.36,1.31.46l.05,0h.28c5.49,0,11.19,2.45,15,4.49l0,0c5.51,4.36,4.53,7.69,4.49,7.83h0c-1.94-1.93-11.79-8.31-19.47-8.31a12.48,12.48,0,0,0-1.77.13,8.08,8.08,0,0,0-6.3,4.35c-6.19,11.21,3.57,22.94,4.71,24.24l.19.22h.28c.39,0,.94,0,1.64,0,8.86,0,40-1.44,44.38-1.83a4.48,4.48,0,0,0,3.19-2.08c1.54-2.3,1.66-5.91.34-10.16C267.72,695.24,267.17,662.19,267.06,648.36Z"/><path style="fill: #33150e; opacity: 0.4;" d="M268.89,644.24c-2.79,3.51-9.92,11.11-16.43-13.65-17.8,8.25-34.34,16.79-33.11-10.25-8.58,4.07-13.36,12.9-13.36,12.9l-.68,17.31s42.86,18,62.23,8.55C268.89,644.24,271.68,640.73,268.89,644.24Z"/><path
    style="fill: #ae5a26"
    d="M526,364.77a53.55,53.55,0,0,0-6.06.33l-.35,0-.17.31c-8.92,16.42-24,28.76-44.78,36.67a140.61,140.61,0,0,1-39.22,8.53l-.58,0-2.79,31.42-.41.49c-7,8.36-46.55,18.06-51,19.13l-1.44.35L372.51,451l-1,14.29-1.25.44c-22.92,8-45.83,12.11-68.1,12.11a167.52,167.52,0,0,1-20.79-1.26c-21.17-2.65-33.22-8.45-33.72-8.69l-.94-.46-.17-1c-1-6.53-3-12.35-4.23-14l-.5-.69-.56.66c-1,1.2-3.1,5.8-4.38,11.86l-.23,1.11-1.07.39a6.79,6.79,0,0,1-2.31.36c-7.54,0-21.65-8.75-40.52-21.89-2.94-2.05-5.07-3.53-5.58-3.77-1.44-.65-3.07-1.4-2.28-21.28.29-7.24.81-14.42,1-17.17l0-.31-1-1-.48.47c-4.69,4.65-16.95,17.74-29.48,38.77a257.08,257.08,0,0,0-33.24,96.86l-.07.54.52.19a75.4,75.4,0,0,0,24,4.26c9.28,0,17.41-2.14,24.16-6.36l.22-.14.07-.25c.71-2.47,1.48-4.91,2.28-7.24,5.28-15.39,15.63-36.44,35-49.31l.25-.17,0-.3c.13-.85.25-1.64.36-2.33s2.06-2.4,4.7-3.82c-.1.61-9.21,56.64-9.44,92.64v.46l.42.17c15.49,6.37,57.22,21.17,110,21.17A260.58,260.58,0,0,0,418.49,565l.39-.17,0-.41c2.77-47.51-6.86-99.71-7-100.25.11,0,3.64.66,6.13,12.59.27,1.84.55,3.86.84,6l.09.67.67-.09c60.84-8.07,98.63-41.71,119.62-68.51a210.53,210.53,0,0,0,21.6-33.9l.19-.37-.25-.33C551,366.79,534.8,364.77,526,364.77Z"/><path style="fill: #ef8138" d="M412,463.78s1.23,85.86,0,103c2.83,1.81,6.5-1.75,6.5-1.75A28.71,28.71,0,0,0,421,562.6C421.58,561.82,424.33,494.11,412,463.78Z"/><path style="fill: #ef8138" d="M217.42,460.16l-6,112-7.91-5.39s2.95-88,12.12-106.61"/><path style="fill: #ef8138" d="M186.37,408.16s-46.29,46.64-59.8,132.58c-5.47.67-6.89,0-6.89,0s4.25-86.23,66-143.31"/><path style="fill: #33150e; opacity: 0.4;" d="M546.39,368.78s-8,58.67-134.4,95c7,19.71,6.66,22.37,6.66,22.37S526.53,464.4,565.15,383.2"/><path
    style="fill: #754d29"
    d="M436.09,71.67c.62,1.56,1.92,4.81-6.49,42-3.5,15.45-7.26,30.4-8.33,34.62l-.11.43.35.27a74.8,74.8,0,0,1,13.37,13.1l.43.59,0,.73c-1.34,23.85-11.7,31.35-17.75,33.7l-.67.26.31.66a68.91,68.91,0,0,1,4.14,45.49c-3.67,14.21-14.59,26.91-28.49,33.15a44.51,44.51,0,0,1-18.28,4.08,38.41,38.41,0,0,1-12.59-2.1l-1.06-.37.18,1.12c.28,1.75.49,3.54.61,5.15a48.51,48.51,0,0,1,.05,7.11l-.07,1,.94-.29c1.11-.34,2.37-.71,3.77-1.08a124.6,124.6,0,0,1,21-3.75c3.36-.31,6.69-.46,9.9-.46,15.13,0,28,3.39,38.14,10.09l.87.58.17-1c1.17-7.1,2.37-14.49,3.61-22.08l0-.23c3.79-23.25,7.7-47.41,11.3-69.86l0-.2q1.43-8.82,2.8-17.49l.24-1.5c.55-3.49,1.11-7,1.65-10.39l0-.18c2.41-15.18,4.62-29.28,6.58-41.89l.07-.47-.19-.11.25-.47.05-.17c5.36-34.62,8.22-54.61,8.51-59.39l0-.38-.31-.22c-4.78-3.31-26.11-12.57-29.76-12.57h-.19c-1.47.15-4.11,5.12-5.77,10.86l-.1.31.19.27A4.91,4.91,0,0,1,436.09,71.67Zm6.06,87.5L448.72,128C449.54,146.36,444.7,155.62,442.15,159.17Z"/><polyline style="fill: #fff" points="457.38 64.84 465.43 74.65 431.18 297.16 438.29 299.13 473.85 73.65 473.85 71.69"/><path
    style="fill: #754d29"
    d="M386.41,132.28l-.14.67.67.14a81.2,81.2,0,0,1,29.9,12.54l.8.54.23-.94c9.54-37.6,15.76-68.58,14.44-72.09l-.06-.09c-.32-.5-2.69-3-18-4.3-6.14-.5-12.21-.61-15.28-.62h-.59l-.08.58c-.66,4.42-1.43,9.21-2.29,14.22C392.25,105.12,387.36,127.93,386.41,132.28Z"/><polyline style="opacity: 0.5; fill: #33150e;" points="407.63 66.03 393.53 134.94 383.74 132.49 397.15 66.94"/><path
    style="fill: #fcee1f"
    d="M321.45,209.34l-.8.27a23.92,23.92,0,0,1-7.57,1.18,36.59,36.59,0,0,1-6.53-.65l-.25,0c-.18,0-.34-.06-.55-.08H305a33.46,33.46,0,0,1-7.3-.76l-.74-.17-.08.76c-1.17,11.73-5,50.62-4.6,58.43l.18,3.68-3.21-1.83c-3.63-2.07-12.08-6-18-6a8.4,8.4,0,0,0-3.54.67c-2.78,1.31-6.13,9.17-6.94,20.06-.52,6.95.45,11.19,1.43,12.71l.2.3h19.91l.44,1.43c2.54,8.27,6.23,16.24,7.94,17.07l.12,0c3.72.81,16.83,2,18.31,2.17h.13c1.48-.14,14.59-1.36,18.39-2.19l.11,0c1.65-.82,5.33-8.79,7.87-17.05l.44-1.43H356l.2-.3c1-1.52,1.95-5.76,1.43-12.71-.81-10.89-4.16-18.75-6.94-20.06a8.45,8.45,0,0,0-3.55-.67c-5.93,0-14.37,3.93-18,6L325.93,272l.18-3.68c.37-7.78-3.41-46.44-4.57-58.11Z"/><path style="opacity: 0.5; fill: #33150e;" d="M293.07,230.78s15.27-11,32.26,0l-2.84-22.52a20.2,20.2,0,0,0-5.4-.44,36.55,36.55,0,0,1-8.63,0c-4-.46-7.81-1-8.48-1.08s-5.18,0-5.18,0"/><path
    style="opacity: 0.5; fill: #33150e;"
    d="M263.83,272.78s.5,17.46,20.68,19.93h4.73s-4.57,15.27,20,15.41c0,0,21.62,2.6,17.56-17,0,0,22.82,4.51,31-16.43l2.11,14.18-2.11,7.89-1.9,1.87s-4.51,1.05-8,1.73-3.87,1.57-6.32,1.57h-2.45s1.52-.44-1.23,2.26a44.1,44.1,0,0,0-6.35,8.34c-1.35,2.24-2.7,4.27-3.15,4.94s-.9.64-1.58,1.11-.22,0-4.5.92-4.73,1.31-8.56,1.56-6.15-.47-8.14,0a19.76,19.76,0,0,1-5.14.47,51.45,51.45,0,0,1-5.18-.47s-2-2.27-3.61-2.48-1.2,1.78-2.4,0-3.1-2.66-3.39-4.59-1.19-3.32-2.31-5.88-2-4.37-2-4.37l-2-2.48s-1.51-.45-3.57-.9-14.22-1.73-14.22-1.73h-2.25a19.38,19.38,0,0,0,0-3.67c-.22-1.13,0-14.64,0-14.64"/><path style="fill: #fff" d="M302.08,209.91l-6.16,66s-24.59-9.89-27.52-3.13,0,25.1,0,25.1l-10.81,1.25s1.22-34.05,13.69-35,17,.88,17,.88l7.19-55.92"/><path
    style="fill: #5cba47"
    d="M236.86,174.51a67.82,67.82,0,0,1,17.3-2.37c13.26,0,22.22,4.52,26.37,7.2l1.18.77-2.87-29.36,0-.18-.12-.16c-1.95-2.58-12.81-15.47-34.75-15.47a62.34,62.34,0,0,0-9.4.74A76.91,76.91,0,0,0,204,147.51l-5.69,4.07a75.85,75.85,0,0,0-11.84,11.36l-.17.21,0,.26c1.58,22.76,12,28.26,16.39,29.56l.51.15.27-.46C205.85,188.56,213.34,180.73,236.86,174.51Z"/><path style="opacity: 0.5; fill: #33150e;" d="M281.71,164s-55.06-25.31-89,21.17l9.08,10.45s40.09-37.16,81.52-11.26Z"/><path
    style="fill: #754d29"
    d="M241.25,130.34l.08.61.61,0c.69,0,1.37,0,2,0,16.1,0,26.77,6.39,32.89,11.75l1.28,1.13L267.56,35.49l-.05-.5-.5-.1c-7.54-1.41-15-2.36-18.46-2.36a12.84,12.84,0,0,0-1.4.07l-.4.06-.15.37c-2.14,5.43-6.66,35.8-10,61.76v.13C238.8,111.12,240.58,125.08,241.25,130.34Z"/><polygon style="opacity: 0.5; fill: #33150e;" points="246.75 32.66 234.01 91.16 237.28 131.24 241.91 130.52 254.49 32.53 246.75 32.66"/><polyline style="fill: #fff" points="239.44 116.2 249.91 29.71 246.09 29.91 234.99 86.66"/><path
    style="fill: #754d29"
    d="M160.93,123l0,.5c1.39,16.09,3.2,35.18,5.39,56.74l.18,1.49h0l.07.68c3.57,34.93,8.19,76.9,12.69,115.14l.13,1.12.92-.64c10.36-7.25,23.6-10.92,39.36-10.92,3.2,0,6.53.15,9.9.46a124.6,124.6,0,0,1,21,3.75c2.09.56,3.87,1.09,5.29,1.57l1,.33-.09-1a48.7,48.7,0,0,1,0-7.59c.05-.65.25-3,.76-6l.19-1.13-1.08.38A38.61,38.61,0,0,1,243.91,280a44.45,44.45,0,0,1-18.28-4.09c-13.9-6.24-24.82-18.94-28.5-33.15a69.14,69.14,0,0,1,4-45.19l.32-.69-.72-.24c-6.32-2.14-17.15-9.41-18.53-34l0-.73.43-.59a76.31,76.31,0,0,1,15.49-14.7l.33-.24-.06-.41c-2-12.35-6.41-39.55-7.69-48.57,1.56,4.28,5.05,15.67,11.82,45.15l.21.92.81-.49a80.64,80.64,0,0,1,30.42-11.28c.86-.14,1.76-.25,2.67-.36l.68-.08-.08-.67c-.95-7.52-1.94-15.18-2.93-22.76-.43-3.24-.86-6.52-1.29-9.81l-.44-3.26c-.74-5.58-1.5-11.15-2.25-16.66-2.8-20.31-6.51-46-8.33-53.18l-.17-.68-.67.19c-3,.88-9.48,3.18-17.05,6.35l-.55.23.16.57c5.89,21.62,5.71,37.77,5.11,45.35l-9.64-44.24-.84.59c-.62.44-.91,1.81-1.28,5.87-.53,6-1.26,14.13-9.78,17.61-3.85,1.56-7.4,1.52-10.28-.13-3.17-1.81-4.92-5.19-5.82-7.7l-.31-.83-.72.51c-6.81,4.84-10.8,9.25-11.86,13.11C157,66.45,157.85,87,160.94,123Z"/><path style="fill: #fff" d="M185.34,297.75,162.55,68.12s5.23-11.86,9.4-15.56l.11-6.44s-15.31,11.71-16.21,18.47S178.37,302,178.37,302"/><path
    style="fill: #eb2227"
    d="M286.68,189.73c0,.07-.42,6.57,3.75,11.13,2.71,3,6.82,4.66,12.21,5l.76.06,0-.77c-.41-7.6-.83-19.78-.46-23.85,1.24,3.63,3.58,14.49,5.5,24.53l.21.52.36.05a30.1,30.1,0,0,0,4.11.31h0c10.4,0,16.53-6.34,18.22-18.83.74-5.41,1.93-16.06,3.54-31.65v-.11q.3-2.88.61-5.91l.18-1.75c.31-3,.62-6.15.95-9.39,4.58-45.6,10.15-105.19,11.22-116.68l0-.39-.32-.22a69.12,69.12,0,0,0-11.77-6.47l-.84-.36-.1.92c-.37,3.56-2.31,15.22-3.6,22.82V13.57l-.46-.16A63.26,63.26,0,0,0,310.2,9.86a57.9,57.9,0,0,0-13.88,1.71l-.53.13,0,.55c.94,32.41,1.14,56.22.55,63-1.59-7.51-4.17-35.55-6.17-60.88l-.08-.9-.84.32a70.82,70.82,0,0,0-18.4,10.66l-.29.22,16.13,164.79ZM323.89,89.48c2.19,9.88-.15,39.27-1.94,48.49C321.77,130.49,322.75,108.94,323.89,89.48Z"/><path
    style="fill: #fff"
    d="M280.18,116.2s-5-88.54-3.18-89S288.72,20,290.74,20.9s2.46,54.42,5.62,54.35,3.84-58.18,5.42-58.18,21.68-2,25.22,2.71,3.54,23.61,3.54,23.61L333,22s9.53,3.38,10,4.95-4.57,87-4.57,87l4.6-12.87,5.82-80.62s-42.65-32.24-79.49,3.77V40"/><path style="fill: #a41e21" d="M283.31,176.21s23.08,29.12,52,3.68c-2.87,14-2.42,14-3.32,15.76s-5.4,10.82-14.18,12.17a54.38,54.38,0,0,1-18.7-.68c-2.47-.45-3.46,0-6-2.25s-2.63-5.25-3.83-5.56-3.68-3.68-3.68-3.68"/><path
    style="fill: #5cba47"
    d="M380.62,175.32c23.55,6.23,31,14.06,33.38,18.17l.27.46.51-.15c4.39-1.26,14.8-6.67,16.38-29.58l0-.26-.17-.21c-3.11-3.8-20-23-48.07-27.26a61.4,61.4,0,0,0-9.24-.72c-19.43,0-30.27,10.06-34,14.39l-.14.16,0,.22c-1.24,12.11-2.27,21.75-3.05,28.63l-.16,1.39,1.19-.74c5-3.13,13.59-6.87,25.84-6.87A67.82,67.82,0,0,1,380.62,175.32Z"/><path style="opacity: 0.5; fill: #33150e;" d="M337.89,164.65s55.07-25.32,89,21.16l-9.08,10.45S377.73,159.1,336.29,185Z"/><path
    style="fill: #29abe2"
    d="M123.05,155.64A77.23,77.23,0,0,0,143,176.17l.16.11h.19A111.72,111.72,0,0,1,161.29,179l.92.22-.09-.94q-.78-7.62-1.51-15.17l0-.17-.1-.15c-5.22-7.58-11.18-15.44-16.79-22.14l-.45-.51-.07-.1-.06-.07c-8.66-10.29-20.54-22.62-27.11-21.85-.76.1-3.09.38-4,4.16-1.75,7.32,2.73,21,10.91,33.18Z"/><path
    style="fill: #fcee1f"
    d="M162.69,184l0-.48-.47-.11c-3.53-.86-14.35-3.09-21.87-3.09-3,0-5.18.37-6.41,1.11-2.23,1.52-6.89,17.79-7.5,42.19-.4,16.33.91,47.76,14.25,74.69l.1.2.2.1a15.66,15.66,0,0,0,7.1,1.48c5.27,0,14-2,25.77-11.56l.29-.23,0-.37c-.43-3.68-.92-7.91-1.45-12.59l-.13-1.13-.93.65c-4,2.81-10.07,6.15-16.37,6.15a16.55,16.55,0,0,1-2.83-.24c-2.33-.4-4.24-2.54-5.82-6.54-2.75-7-4.92-21.52-5.79-38.91-.77-15.49-.21-28.22,1.33-30.26,1-1.33,2.8-1.93,5.79-1.93a49.55,49.55,0,0,1,9,1.09c2.21.43,4.61,1,7.14,1.61l.94.24-.1-1C164.15,198.09,163.42,191,162.69,184Z"/><path
    style="fill: #754d29"
    d="M340.19,143.79l1.27-1.06c6-5,16.5-11,32-11a66.53,66.53,0,0,1,8.15.53l.61.08.13-.61c.88-4,5.48-25.37,9.3-47.35,7.3-42,5.43-50.09,4.69-51.58l-.16-.3-.33-.06c-2.91-.52-8.86-.16-17.42,1.07l-.5.07-6.2,41.74a230.41,230.41,0,0,1,.37-40l.1-.88-.88.14c-9.46,1.59-18.09,3.41-20.51,3.94l-.48.1-.05.49c-2.21,23.5-6.44,68.13-10,103Z"/><path style="fill: #eb2227" d="M147.23,138.57c3.57,4.31,7.31,9.13,11.13,14.32l1.45,2-.24-2.44c-.95-10-1.81-19.46-2.54-28l-.05-.15c-3-7.17-9.65-18.55-14.7-18.55a3.21,3.21,0,0,0-1.07.18c-.48.17-1.19.58-1.65,2.13-2.25,7.47,5.22,27.38,6.81,29.55Z"/><path
    style="fill: #5cba47"
    d="M128.7,182.42l.22-.49c1-2.1,2-3.47,2.93-4.05a10.43,10.43,0,0,1,3.31-1.17l1.37-.29-1.07-.89a86.1,86.1,0,0,1-15-16.61l-.21-.2c-6.23-3.6-15.14-7.24-21-7.24a7.26,7.26,0,0,0-4.72,1.33q-1,.87-.39,3.15c2.32,7.85,19.18,23.43,34,26.36Z"/><path style="fill: #fff" d="M399.41,373.88l-.68-.19-.05.19c-3.64.41-17.31,5.53-23.74,10.07-3.12,2.2-2.15,12.78.08,21.68l.17.69.69-.21c15.62-5,28-12.2,36.8-21.51l.5-.52-.55-.46C408.23,380,401.09,374.36,399.41,373.88Z"/><path style="fill: #fff" d="M349.17,391.69c-.57-.9-2.46-2-8.21-2a93.08,93.08,0,0,0-20.68,2.84c-2.29.56-4,10.07-3.92,21.19v.68h.68a251,251,0,0,0,39.2-3.56l.78-.14-.25-.74C355,404.84,351.67,395.61,349.17,391.69Z"/><path style="fill: #fff" d="M370.77,338.81c.9,1.75,5.55,2,8.24,2,6.21,0,13.86-1.29,17.41-2.92,3-1.37,5.64-15.09,6.72-24l.08-.65-.65-.1a55.61,55.61,0,0,0-8.66-.64,87.89,87.89,0,0,0-27.45,4.81l-.54.19.09.56C366.62,322,368.76,334.89,370.77,338.81Z"/><path style="fill: #fff" d="M226.57,374c-3.19,0-10.42,7.69-15.8,14.83l-.38.52.49.41c8.38,7,19.25,12.64,32.3,16.68l.84.26,0-.88c.23-5.87.51-16.28-.11-20C243.22,381.47,232.18,374,226.57,374Z"/><path style="fill: #fff" d="M295.31,395.81c-.79-3.41-12.61-6.16-21.87-6.16a42.68,42.68,0,0,0-6.73.5c-7.37,1.2-8.89,15.07-9.18,19.29l0,.59.58.12a239.18,239.18,0,0,0,40.35,4.23l.86,0-.18-.83C298.08,408.68,296.24,399.87,295.31,395.81Z"/><path
    style="fill: #33150e"
    d="M145.72,207.3l-.37.11-.1.38c-.75,3-1,15.43-.18,30.37,1,17.76,3.23,31,6.09,36.4.82,1.54,1.47,2,1.92,2.17a12.21,12.21,0,0,0,2.12.18c6.84,0,13.79-5.09,16.46-7.28l.29-.23,0-.36c-2.29-20.15-4.44-39.74-6.41-58.25l-.05-.45-.45-.13c-6.77-1.85-13.75-3.1-17.36-3.1A7.61,7.61,0,0,0,145.72,207.3Z"/><path style="fill: #33150e" d="M249.91,257.76a34.46,34.46,0,1,0-34.6-34.45A34.56,34.56,0,0,0,249.91,257.76Z"/><path style="fill: #5cba47" d="M499.11,172.15A89,89,0,0,1,487,183.88l-.41.33.22.48a51,51,0,0,1,2.94,9.27l.14.6.61-.09c13.9-2,31.87-14.63,35.14-22.63.6-1.46.58-2.53-.07-3.18-1.24-1.26-3.34-1.89-6.24-1.89-8.24,0-19.5,5-20,5.2Z"/><path
    style="fill: #33150e"
    d="M464.55,277.26c2.85-5.37,5.07-18.64,6.08-36.4.85-14.94.57-27.39-.18-30.37l-.09-.37L470,210c-1.92-.57-8.21.2-15.26,1.88l-.44.1-.07.44c-3.07,19.09-6.33,39.22-9.69,59.85l-.07.4.32.24c3.2,2.5,9.51,6.69,15.72,6.69a12.68,12.68,0,0,0,2.16-.18l.71-.12-.07-.28A6.88,6.88,0,0,0,464.55,277.26Z"/><path
    style="fill: #29abe2"
    d="M478.36,151.18h0l-.46.46c-5.47,5.31-11.24,11.44-16.69,17.71l-.13.15-1.77,11.18.93-.17a88.29,88.29,0,0,1,14.71-1.58c4.08,0,7.08.56,8.91,1.66l.47.3.37-.3a81.3,81.3,0,0,0,12.23-12l.09-.1c10.48-12.67,15.1-25.68,14.25-32-.51-3.85-2.8-4.37-3.56-4.54a5.51,5.51,0,0,0-1.19-.12c-7.12,0-20.64,12-28.07,19.22Z"/><path style="fill: #ae5a26" d="M193.54,711.79a24.74,24.74,0,0,1,1-19.47l.5-1-1.14.05a10.87,10.87,0,0,0-4.9,1.23c-2.71,1.53-6.4,10.81-5.54,18,.29,2.41,1.21,5.44,3.93,6.22a31.2,31.2,0,0,0,8.33,1.13h1.37l-.83-1.09A19.29,19.29,0,0,1,193.54,711.79Z"/><path
    style="fill: #fcee1f"
    d="M474.76,301.28l.19-.11.1-.19c13.34-26.93,14.66-58.37,14.25-74.71-.61-24.76-5.24-40.65-7.57-42.24-.81-.48-2.57-1.06-6.33-1.06a97.76,97.76,0,0,0-16.32,1.92l-.47.08-.38,2.38c-1,6.48-2.07,13-3.09,19.35l-.16,1,1-.22c1-.21,1.93-.41,2.85-.59a49.29,49.29,0,0,1,9-1.08c3,0,4.78.59,5.78,1.92,1.55,2,2.11,14.77,1.34,30.26-.88,17.39-3,31.94-5.8,38.92-1.58,4-3.48,6.13-5.82,6.54a17.4,17.4,0,0,1-2.82.23c-6.12,0-12-3.17-15.92-5.83l-.88-.6-2.23,13.64.31.24c11.86,9.67,20.6,11.7,25.83,11.7A15.27,15.27,0,0,0,474.76,301.28Z"/><path style="fill: #af5b27" d="M433,693.1a10.87,10.87,0,0,0-4.9-1.23l-1.13,0,.5,1a24.78,24.78,0,0,1,1,19.47,19.35,19.35,0,0,1-2.75,5l-.83,1.09h1.37a30.87,30.87,0,0,0,8.34-1.13c2.71-.77,3.63-3.81,3.92-6.22C439.41,703.91,435.72,694.63,433,693.1Z"/><path style="fill: #eb2227" d="M466.76,133.24q-1.89,12.19-4.17,26.67l-.35,2.21,1.51-1.65c3.75-4.09,7.4-7.89,10.84-11.28l1-1c1.78-2,11.21-21,9.72-28.68-.31-1.59-1-2.06-1.43-2.28a3.3,3.3,0,0,0-1.4-.31c-5.16,0-12.48,10.51-15.66,16.12Z"/><ellipse style="fill: #33150e" cx="369.42" cy="224.12" rx="34.15" ry="34.45"/><path
    style="fill: #eb2227"
    d="M335.61,186.25l0,.24c-.09.71-.17,1.36-.25,2-1.18,8.71-4.43,15-9.67,18.65l-.32.23,0,.4c1,9.71,4.23,42.49,4.75,56.27l0,1,.93-.44c3.54-1.67,10.33-4.47,16.05-4.47a12.34,12.34,0,0,1,5.28,1c3.79,1.77,6.06,7.49,7.29,12l.09.31.28.13a34.35,34.35,0,0,0,14.46,3.15A40.44,40.44,0,0,0,391.15,273c12.81-5.75,22.86-17.42,26.23-30.47,5.49-21.21-2-39-4.45-43.89l-2-2.25c-.54-1.26-5.16-10.22-31.34-17.15A63.87,63.87,0,0,0,363.32,177c-14.3,0-24,5.7-27.54,9.07Zm-4.39,37.87a38.21,38.21,0,1,1,38.2,38.5A38.4,38.4,0,0,1,331.22,224.12Z"/><path
    style="fill: #eb2227"
    d="M201.06,241.72c3.37,13,13.42,24.72,26.23,30.47a40.59,40.59,0,0,0,16.61,3.72,34.27,34.27,0,0,0,14.7-3.27l.27-.13.09-.29c1.74-6,4.11-9.69,7.05-11.07a12.41,12.41,0,0,1,5.29-1c5.72,0,12.51,2.81,16.05,4.48l.93.44,0-1c.5-13.62,3.72-46.18,4.7-55.83l.05-.47-.42-.2a17.92,17.92,0,0,1-5.25-3.94c-5-5.47-4.84-12.63-4.77-14.06l-.36-3.63-.15-.17c-2.4-2.64-12.1-9.49-28-9.49a63.5,63.5,0,0,0-16.27,2.22c-19.48,5.15-27,11.42-29.7,14.69a14.28,14.28,0,0,0-2.73,4.8C203.06,202.87,195.61,220.66,201.06,241.72Zm10.2-18.41a38.66,38.66,0,1,1,38.65,38.51A38.62,38.62,0,0,1,211.26,223.31Z"/><path
    style="fill: #fff"
    d="M322.82,352.29l.26.12a22.12,22.12,0,0,0,4.1.31c8.91,0,22.94-2.84,25.53-7.45,2.91-5.17,3.15-19.13,3.16-23.28v-.92l-.88.27a218.52,218.52,0,0,1-34.47,7.37l-.57.08,0,.57c-.1,2.67-.17,6.7.05,10.74C320.51,349.88,322.29,351.9,322.82,352.29Z"/><path
    style="fill: #29abe2"
    d="M357.06,643.31a5.56,5.56,0,0,0,4.06-2.49c4.49-6.32,2.6-21.77,1.57-28.14-.18-.88-.33-1.64-.43-2.23l-.12-.67-.66.12c-6.86,1.25-14,2.2-21.1,2.84l-.73.06.12.73c.07.39.14.82.22,1.32.55,2.92,5.62,28.51,16.3,28.51A6.78,6.78,0,0,0,357.06,643.31Z"/><path
    style="fill: #af5b27"
    d="M422.06,691.6c-3.43-4.86-8.24-6.53-14.82-5.12l-1.37.3,1.09.89a13,13,0,0,1,3.13,3.81c2.89,5.23,3.32,11.34,1.24,17.67a33.59,33.59,0,0,1-4.16,8.35l-.65,1,1.15.11c1.3.12,2.57.18,3.79.18a29.45,29.45,0,0,0,6.85-.75c2.53-.62,5-3.34,6.4-7.1A20.82,20.82,0,0,0,422.06,691.6Z"/><path style="fill: #eb2227" d="M388.28,603.21l-.59.19a208.67,208.67,0,0,1-20.89,5.47l-.65.13.12.65c.09.49.19,1.05.29,1.67,1.12,5.46,4.5,18.72,11.77,24a10.7,10.7,0,0,0,6.44,2.17,12.33,12.33,0,0,0,2.22-.21,7.6,7.6,0,0,0,5.82-4c4.26-8.27-2.83-26-4.29-29.42Z"/><path
    style="fill: #eb2227"
    d="M257.19,607.33l-.74-.15-.07.75A68,68,0,0,1,254,620.75c-.92,8-1.51,21.8,4.87,23.64a8.71,8.71,0,0,0,2.42.36,7.62,7.62,0,0,0,4.1-1.21c5.63-3.42,10.55-14.11,14.22-30.91.06-.3.11-.56.16-.77l.15-.71-.72-.1C272,610.08,264.58,608.83,257.19,607.33Z"/><path
    style="fill: #eb2227"
    d="M335.69,613.73l-.1-.61-.61,0c-5.61.37-11.31.57-17,.57-1.95,0-4,0-6.27-.08l-.64,0-.09,1.09c0,.22-1.9,22.06,6.18,30.33a9.7,9.7,0,0,0,7.29,3c.3,0,.61,0,.92,0a9.87,9.87,0,0,0,7.66-4c5.57-7.43,3.86-22.67,2.87-28.88C335.81,614.48,335.73,614,335.69,613.73Z"/><path style="fill: #fcee1f" d="M284.58,611.72l-.61-.07-.15.73c-.1.44-.19.87-.28,1.31-.48,2.39-4.51,23.58,1.67,31.48a7.23,7.23,0,0,0,5.92,2.86h.1a9.26,9.26,0,0,0,6.75-2.85c7.14-7,8.61-24,8.91-31l0-.68-.67,0C299.15,613.16,291.86,612.57,284.58,611.72Z"/><path style="fill: #29abe2" d="M231.67,637.22h.27c8.37,0,14.61-5.94,18.05-17.25a118,118,0,0,1,2.31-13l.16-.67-.67-.15c-8-1.75-16.24-3.84-24.5-6.23l-.6-.17-.22.58c-3.08,8.25-7.58,25.78-2.61,33.16C225.49,636,228.05,637.16,231.67,637.22Z"/><path
    style="fill: #ae5a26"
    d="M607.73,266.47a4.3,4.3,0,0,0-3.08-1.17,6.16,6.16,0,0,0-1.15.12l-.14.05c-.92.45-2.14,2.78-5.13,12.65-1.89,6.27-3.68,12.2-6.26,15-2.17,2.37-4.27,3.33-6.21,2.82-2.69-.71-3.48-3.83-3.56-4.18l-.16-.68.29-.63c1.95-4.23,6.62-28.58,9.07-42.3l.06-.35-.25-.25c-3.23-3.22-6.77-4.86-10.54-4.86a15.69,15.69,0,0,0-8.72,2.9l-.26.18,0,.31c-.26,2.6-1.2,11.78-2.54,20.77-3.21,21.57-5.8,23.82-8,24.24a2.93,2.93,0,0,1-2.42-.65c-1-.83-3.32-2.75-4.42-24.85-.37-7.47-.48-14.84-.52-18.56v-.6l-.6-.07a25.93,25.93,0,0,0-2.91-.16A22.49,22.49,0,0,0,538,249.68l-.34.22,0,.41c.34,3.81,1.14,13.81,1.27,24.2.32,24.27-3,29.82-5.83,31.94a12.36,12.36,0,0,1-7.53,2.07c-4,0-8.51-1.06-12.89-2.08-4.12-1-8.38-2-11.74-2-2.54,0-4.31.57-5.4,1.73-4.86,5.15-2.41,12.8-1.13,15.85l.14.33.35.07c20.8,4.15,28.61,13.62,31,17.5l.26.42.48-.13a37.35,37.35,0,0,1,9.43-1.14c8.62,0,22.14,2.64,37.61,15.18l.24.2.31-.06c8.44-1.66,24.18-13.67,34.83-75.47l.1-.58C610.18,272.7,609.64,268.36,607.73,266.47Z"/><path
    style="fill: #fcee1f"
    d="M536,343.22a32.73,32.73,0,0,0-8.66,1.07l-.4.11-.09.41a74.67,74.67,0,0,1-4.66,15l-.44,1,1.1-.07c1.18-.07,2.37-.1,3.54-.1,8.74,0,25,2,36,15.08l.68.81.45-.95a169.25,169.25,0,0,0,7.34-17.84l.15-.44-.37-.3C556.36,345.62,543.92,343.22,536,343.22Z"/><path style="fill: #fcee1f" d="M414.58,629.4a7.3,7.3,0,0,0,1.4-.13,4.81,4.81,0,0,0,3.59-2.59c3.78-6.76-.9-24.46-4.26-33.86l-.26-.72-.69.35c-3.44,1.78-7.05,3.47-10.73,5-3.4,1.45-7,2.84-10.64,4.13l-.65.23.24.65C393.63,605.25,403.15,629.4,414.58,629.4Z"/><path
    style="fill: #fff"
    d="M286.77,355.78c1.09,0,2.17,0,3.2-.12,5.19-.38,8.66-1.66,9.53-3.51,2.65-5.63,3.52-17.33,3.77-22.1l0-.64-.63-.07a241.71,241.71,0,0,1-32.31-5.94l-.76-.2-.08.78c-1.22,11.59-1.74,25.28,0,27.91C270.85,353.85,279.38,355.78,286.77,355.78Z"/><path
    style="fill: #fcee1f"
    d="M429.34,578.33l.07-.18c1.27-3.46,1.32-6.2.15-8.16a7.66,7.66,0,0,0-4.78-3.17l-.23-.05-.21.09c-34.18,15.55-71.23,23.43-110.12,23.43-59.91,0-106.42-19.16-115.14-23l-.44-.19-.32.36c-3.82,4.19-5.48,8.06-4.95,11.5.69,4.44,4.83,7,5.7,7.47C241,601.85,281,609.67,318,609.67c69.56,0,107.13-28,111.18-31.22Z"/><path style="fill: #eb2227" d="M430.47,582.59l-.61.45a109.62,109.62,0,0,1-10.71,6.83l-.5.28.19.54a124.11,124.11,0,0,1,4.8,16.58l.07.18c4.63,7.09,9.51,10.69,14.49,10.69.33,0,.66,0,1,0a2.94,2.94,0,0,0,2.72-1.62c2.54-5-3.95-20.75-11-33.22Z"/><path style="fill: #754d29" d="M371.91,434.67l-.66.19,3.82,12.49,6.05,10.09.48-.12c14.37-3.57,40.3-11.11,46.36-16.71l.19-.17,3.5-39.4-1.3,1.26A124.5,124.5,0,0,1,401,423.12,162.13,162.13,0,0,1,371.91,434.67Z"/><path style="fill: #fcee1f" d="M119.68,558l.46.18a63.23,63.23,0,0,0,23,4.45,55,55,0,0,0,22.48-4.6l.34-.16.05-.38a140.61,140.61,0,0,1,2.75-15.36l.32-1.36-1.26.59a51,51,0,0,1-21.75,4.53,77.5,77.5,0,0,1-24.19-4.18l-.8-.27-.09.84c-.57,5-1,10.14-1.3,15.23Z"/><path
    style="fill: #33150e"
    d="M206.82,386l.55.54.47-.61c3.64-4.83,12.76-16,18.73-16,7.16,0,20.25,8.49,21.36,15.2.76,4.52.34,17,.12,22.15l0,.54.53.14c1.52.4,2.89.75,4.16,1.05l.76.18.07-.78c.51-6.16,2.74-20.65,12.51-22.24a46.67,46.67,0,0,1,7.3-.52c11.44,0,24.42,2.9,25.89,9.27,1,4.33,3,13.79,4.07,19.05l.12.52H304l3.65,0h4.69v-.68c-.12-8.73.63-23.62,7-25.18,2.85-.7,12.81-3,21.21-3,6.37,0,10.42,1.3,12.06,3.86,3,4.63,6.76,15.44,8.27,19.88l.19.56.59-.12c3-.63,6-1.37,9-2.19l.64-.17-.17-.65c-1.64-6.4-4.79-21.76,1.47-26.18,5-3.56,20.59-10.79,26.74-10.79a4.55,4.55,0,0,1,1.19.13c2.06.59,7.3,4.35,14.77,10.58l.53.45.43-.55C430.57,362.24,428.5,341.93,427,334a23.6,23.6,0,0,0-12.09-16.85,33.74,33.74,0,0,0-6.88-2.83l-.77-.22-.09.79c-1.08,8.89-3.67,24.18-9,26.65-3.47,1.6-11.61,3.33-18.71,3.33-4.59,0-10.44-.74-12.24-4.25-2.08-4-4-14.82-5-20.89L362,319l-2.14.76v.49c0,4.72-.06,20.63-3.67,27-3.91,7-19.44,9.5-28.92,9.5a26.51,26.51,0,0,1-5.18-.4c-3.69-.8-5.66-5.9-6.21-16.06-.21-3.92-.16-7.72-.08-10.21l0-.78-.77.09c-2.9.32-4.87.48-5.58.54l-.6,0-1.57-.15,0,.7c-.26,4.93-1.19,17.09-4.14,23.36-2,4.17-8.1,5.47-12.9,5.82-1,.08-2.14.12-3.31.12-8.2,0-18.19-1.78-20.79-5.68-3.14-4.71-1.46-23.59-.59-31.48l.06-.57-.54-.16c-2.47-.73-4.92-1.52-7.3-2.36l-.76-.27-.13.81c-.81,5.2-3,17.76-5.2,22.13-1.8,3.5-7.65,4.24-12.24,4.24-7.09,0-15.23-1.73-18.7-3.33-5.58-2.57-8.15-18.87-9.2-28.36l-.08-.79-.77.21a34.16,34.16,0,0,0-7.46,3A23.59,23.59,0,0,0,191.18,334c-1.61,8.14-3.68,29.06,11.56,47.52C204,383,205.33,384.54,206.82,386Z"/><path
    style="fill: #754d29"
    d="M190.74,406.13l-1-.9-.1,1.36c-1,14.84-1.19,27.23-.38,30.14l.08.26.22.13c1,.59,2.65,1.76,5.54,3.76,7.34,5.12,29.7,20.68,37.54,21.19l.57,0,.13-.55c1.5-6.2,4.17-13.62,8.47-13.73h.66V433.89l-.48-.14a160.7,160.7,0,0,1-26.07-10.63A127.22,127.22,0,0,1,190.74,406.13Z"/><path
    style="fill: #ae5a26"
    d="M166.72,562l-.42.18a58.36,58.36,0,0,1-23,4.57A67.63,67.63,0,0,1,118.83,562l-.51-.2-.3.46c-1.36,2.07-13.24,20.57-11.65,30.67l0,.18.11.14c4.72,5.88,10.88,12.7,13.23,13.75.35.15.8.37,1.36.66a39.75,39.75,0,0,0,18.19,4.83c7.59,0,15-2.6,22.11-7.75l.59-.67-.69-.48c-4.26-3-5.94-9.57-6.61-14.52-.66-3.7,3.46-6.2,3.64-6.31-.06,3.52.79,14.3,5.33,17.53a5.21,5.21,0,0,0,3.16,1h0a8.17,8.17,0,0,0,2-.28l.33-.08.13-.32c1.59-4,6.87-17.22,8-22.35.68-3.17-4.77-10.58-10.25-15.94Z"/><path
    style="fill: #754d29"
    d="M309.83,443.3l-.23,0-1.14,0-1,0-.35,0c-21.49-.3-41.39-2.93-59.16-7.82l-.85-.23v17.39l.06.28a49.49,49.49,0,0,1,3.18,11.39l.06.36.34.14c3.05,1.29,14.34,5.66,31.38,7.78a164.22,164.22,0,0,0,20.1,1.2,184.65,184.65,0,0,0,20.84-1.2l.6-.07V452.81c.95,2.44,2.28,7.62,3.4,18.58l.07.69.7-.09a212.94,212.94,0,0,0,39.44-9.5l.43-.15,1.52-21.74v-.07l-.68-4.89-.74.19C350.34,440.49,330.86,443,309.83,443.3Z"/><path style="fill: #fff" d="M222.47,339.47c3.54,1.64,11.19,2.92,17.4,2.92,2.7,0,7.34-.26,8.24-2,2.19-4.26,4.52-19,5-22l.09-.55-.53-.19a89.13,89.13,0,0,0-28.41-5.14,57.62,57.62,0,0,0-8.09.56l-.65.09.07.65C216.8,325.3,219.65,338.17,222.47,339.47Z"/><path
    style="fill: #ae5a26"
    d="M210.71,708.63c-2.07-6.33-1.64-12.44,1.25-17.67a12.79,12.79,0,0,1,3.12-3.81l1.09-.89-1.37-.3a19.63,19.63,0,0,0-4.15-.47A12.32,12.32,0,0,0,200,691.08a20.82,20.82,0,0,0-2.65,19.29c1.42,3.76,3.87,6.48,6.41,7.1a29,29,0,0,0,6.86.75c1.21,0,2.48-.06,3.78-.18l1.14-.11-.65-.95A33.59,33.59,0,0,1,210.71,708.63Z"/><path
    style="fill: #5cba47"
    d="M446.32,313.61c-12.45-18.58-33.63-22.48-49.21-22.48-.69,0-1.36,0-2,0a115.52,115.52,0,0,0-34.07,6l-.29.11-.11.3a7.76,7.76,0,0,1-2.75,4l-.52.34H339.08l-.15.46c-3.53,10.88-7.21,17.26-10.36,18-3.35.74-13.39,1.74-17.55,2.14l-1.71.15-.1,0h-.08l-1.72-.18c-4.16-.4-14.21-1.4-17.55-2.14-3.15-.7-6.83-7.08-10.36-18l-.15-.46H261.08l-.51-.34a7,7,0,0,1-2.36-3l-.1-.22L255.37,297a115.83,115.83,0,0,0-33.52-5.84c-.67,0-1.35,0-2,0-11.18,0-27.12,2.08-39.57,12l-.27.21a46.61,46.61,0,0,0-9.38,10.27c-11,16.48-10.7,40.32.89,62.23,9.93,18.78,43.17,62.54,137,63.42h0c93.8-.88,127-44.64,137-63.42C457,353.93,457.37,330.09,446.32,313.61ZM187.2,333.26a27.51,27.51,0,0,1,14.1-19.62c6.13-3.4,13.85-5.12,22.93-5.12a93,93,0,0,1,31.89,6.13c23.72,9.05,52.66,11.22,53,11.24,1.2-.09,29.45-2.29,52.9-11.24a93,93,0,0,1,31.89-6.13,56.8,56.8,0,0,1,14,1.63l.28.08a38,38,0,0,1,8.65,3.41,27.51,27.51,0,0,1,14.1,19.62c1.71,8.7,3.93,31.09-12.41,50.88-18.86,22.84-55.21,34.41-108,34.41h-2.81c-52.84,0-89.19-11.57-108-34.41C183.27,364.35,185.49,342,187.2,333.26Z"/><path style="fill: #fcee1f" d="M203.13,593l.33-.68-.71-.25-5.23-1.89-.23-.1a16.17,16.17,0,0,1-2.82-2l-.62-.52-.4.7c-7.52,13-14.4,28.15-12.84,32.87a1.25,1.25,0,0,0,.75.89,1.85,1.85,0,0,0,.67.12C186.13,622.18,194.81,610.18,203.13,593Z"/><path style="fill: #eb2227" d="M221.77,598.34c-4.44-1.35-9-2.82-13.5-4.35l-.61-.21-.24.6c-3.58,9.07-9,26-6.4,31.94a2.53,2.53,0,0,0,1.47,1.57,6,6,0,0,0,5.28-.39c5.45-2.91,10.58-13,14.46-28.35l.16-.63Z"/><path style="fill: #33150e" d="M249.91,262.76a39.19,39.19,0,1,0-39.33-39.18A39.31,39.31,0,0,0,249.91,262.76Zm0-73A33.78,33.78,0,1,1,216,223.58,33.89,33.89,0,0,1,249.91,189.8Z"/><path style="fill: #33150e" d="M408.3,224.39a38.88,38.88,0,1,0-38.88,39.18A39.08,39.08,0,0,0,408.3,224.39Zm-38.88,33.77a33.78,33.78,0,1,1,33.47-33.77A33.67,33.67,0,0,1,369.42,258.16Z"/><path
    style="fill: #33150e"
    d="M307.65,419.5h2.82c53,0,89.57-11.66,108.56-34.66,16.53-20,14.29-42.64,12.56-51.44a28.15,28.15,0,0,0-14.44-20.08,38.26,38.26,0,0,0-8.8-3.47v0h-.1a56.65,56.65,0,0,0-14.35-1.7,93.91,93.91,0,0,0-32.14,6.16c-23.2,8.86-50.94,11.07-52.7,11.21-1.76-.14-29.5-2.35-52.71-11.21a93.81,93.81,0,0,0-32.13-6.16c-9.19,0-17,1.75-23.25,5.2a28.15,28.15,0,0,0-14.44,20.08c-1.73,8.8-4,31.42,12.55,51.44C218.07,407.84,254.6,419.5,307.65,419.5ZM247.5,340.34c-.4.8-2.62,1.64-7.63,1.64-6.13,0-13.65-1.25-17.13-2.86-2.22-1-5.14-12.44-6.52-25.08a56.23,56.23,0,0,1,8-.56,87.75,87.75,0,0,1,28.18,5.11C251.44,324.9,249.37,336.71,247.5,340.34Zm-36.6-25.21c1,9.62,3.7,26.19,9.58,28.9,3.53,1.63,11.8,3.39,19,3.39,4.77,0,10.88-.8,12.84-4.6,2.25-4.38,4.34-16.45,5.26-22.34,2.43.85,4.88,1.65,7.33,2.37-.92,8.43-2.54,27.08.7,31.94,2.74,4.1,13,6,21.35,6,1.19,0,2.32,0,3.37-.11,5-.37,11.35-1.75,13.45-6.21,3-6.34,3.93-18.4,4.21-23.62l.58.05v.07l.68-.05h.32c.74-.06,2.72-.22,5.61-.54-.09,2.57-.13,6.35.08,10.27.57,10.5,2.71,15.81,6.74,16.68a27.26,27.26,0,0,0,5.32.41c9.64,0,25.46-2.62,29.52-9.83,3.64-6.47,3.81-21.86,3.75-27.39l.92-.32c1,6.26,2.95,17,5.06,21.09,2,3.81,8.07,4.61,12.85,4.61,7.19,0,15.45-1.76,19-3.39,5.53-2.56,8.21-17.43,9.38-27.18a32.92,32.92,0,0,1,6.75,2.77,23,23,0,0,1,11.75,16.39c1.55,7.89,3.55,27.91-10.55,45.87-4.65-3.88-12.16-9.89-15-10.7a5.05,5.05,0,0,0-1.38-.17c-6.26,0-22,7.32-27.12,10.91-6.48,4.58-3.63,19.55-1.74,26.91q-4.34,1.19-9,2.18c-1.61-4.77-5.38-15.37-8.34-20-1.76-2.77-6-4.18-12.63-4.18-8.49,0-18.5,2.3-21.37,3-6.83,1.68-7.65,16.95-7.52,25.85h-4l-3.64,0c-.93-4.47-3-14.56-4.07-19.05-1.55-6.73-14.86-9.8-26.56-9.8a47.94,47.94,0,0,0-7.4.53c-10.08,1.64-12.5,15.8-13.08,22.85-1.41-.33-2.79-.68-4.15-1,.22-5.17.64-17.71-.12-22.29-1.16-7-14.66-15.77-22-15.77-6.11,0-14.89,10.5-19.28,16.31-1.42-1.42-2.78-2.89-4-4.41-15.05-18.23-13-38.91-11.42-47a23,23,0,0,1,11.75-16.39A33.49,33.49,0,0,1,210.9,315.13Zm88,37c-.58,1.23-3.23,2.69-9,3.12-1,.07-2.08.11-3.16.11-8.14,0-15.72-2.17-16.66-3.58-1.56-2.34-1.18-15.48.08-27.47a240,240,0,0,0,32.41,6C302.34,335,301.48,346.61,298.88,352.14Zm97.25-14.59c-3.47,1.6-11,2.86-17.13,2.86-5,0-7.22-.85-7.63-1.64-1.75-3.4-3.68-14-4.7-20.51a87.55,87.55,0,0,1,27.23-4.78,56.68,56.68,0,0,1,8.57.63C401,325.93,398.22,336.59,396.13,337.55Zm-44,7.66c-2.48,4.4-16.2,7.1-24.95,7.1a20.61,20.61,0,0,1-4-.3c-.22-.16-2-1.77-2.56-11.67-.23-4.12-.14-8.25,0-10.69a218.63,218.63,0,0,0,34.59-7.39C355.18,329.22,354.63,340.75,352.12,345.21Zm-31.68,48.28A92.68,92.68,0,0,1,341,390.68c5.95,0,7.33,1.14,7.64,1.64,2.49,3.91,5.9,13.37,7.54,18.15A249.22,249.22,0,0,1,317,414C316.9,402.11,318.89,393.87,320.44,393.49Zm55.23,12.24c-2.29-9.13-3-19.11-.34-21,6.58-4.65,21-10,23.76-10h.13c1.23.35,7,4.64,13,9.6Q399.05,398.31,375.67,405.73Zm-149.1-30.82c5.12,0,16.05,7.36,16.69,11.25.62,3.71.32,14.37.11,19.86q-19.51-6-32.06-16.55C216.84,382.11,223.87,374.91,226.57,374.91Zm40.25,16.18a41.13,41.13,0,0,1,6.61-.5c10.54,0,20.64,3.16,21.21,5.64.93,4,2.76,12.75,3.79,17.74a236.79,236.79,0,0,1-40.23-4.21C258.64,403.31,260.67,392.09,266.82,391.09Z"/><path style="fill: #33150e" d="M289.24,11.26s4.88,63.77,7.13,66.47,0-68.75,0-68.75"/><path style="fill: #33150e" d="M323.4,86.66s-3.16,52.24-1.81,54.5S328.35,93,323.4,86.66Z"/><path style="fill: #33150e" d="M198.68,152.41S189.63,97,189.63,94.77s3.48,3.47,14.8,53.53"/><path style="fill: #33150e" d="M198.7,34.08,209,81.33s3.67-20.34-5.14-51.42"/><path style="fill: #33150e" d="M378.56,34.41l-7,46.92s-2.7-23.95,0-46.92"/><path style="fill: #33150e" d="M449.05,123.39,441,161.88S451.76,152.9,449.05,123.39Z"/><path style="fill: #33150e" d="M302.68,205.49s-1.34-25.15,0-25.6S309.06,206,309.06,206v1.79"/><path style="fill: #33150e" d="M330.54,12.51V46.92s4.36-25,4.95-30.69"/><polyline style="fill: #33150e" points="241.76 453.07 241.76 431.21 247.73 433.46 247.73 458.69"/><polyline style="fill: #33150e" points="369.42 447.43 367.53 433.91 371.58 433.91 375.71 447.43 371.62 450.58"/><path style="fill: #33150e" d="M322.94,475.35V450.58s2.75,1.49,4.75,21"/><path
    style="fill: #33150e"
    d="M611,263.37a9.3,9.3,0,0,0-8.46-2.33c-4.09.78-6,6.58-8.88,16-1.58,5.23-3.37,11.16-5.22,13.18a7.64,7.64,0,0,1-1.35,1.21c2.94-8.53,8.52-39.9,9.16-43.51l.22-1.29-.87-1c-4.41-4.92-9.39-7.41-14.8-7.41A21.57,21.57,0,0,0,568,243l-.82.71-.09,1.07c-1.37,14.63-3.91,32.38-6.22,39.51-1.53-7.28-2.35-24.87-2.36-39.26v-2.22l-2.18-.43a31.91,31.91,0,0,0-6-.59,26.39,26.39,0,0,0-16.54,5.46l-1,.92.14,1.39c0,.12,1.22,12.35,1.39,25.32.3,23.16-2.92,27.34-3.91,28.07a7.84,7.84,0,0,1-4.71,1.16c-3.39,0-7.68-1-11.84-2-4.35-1-8.86-2.07-12.81-2.07s-6.81,1.05-8.84,3.2c-8.44,9-1.61,22-1.31,22.51l.61,1.14,1.28.24c21.78,4,28.34,13.92,29.65,16.37-4.87,25.5-21.45,43.82-49.27,54.44A138.21,138.21,0,0,1,436,406.12l.83-9.33a96.22,96.22,0,0,0,12.81-18.47c12.41-23.45,12.65-49.15.64-67.07a51.67,51.67,0,0,0-9.61-10.74c.14-.85.33-2.05.58-3.56C453,305.83,462,307.8,467.62,307.8c6.55,0,10.11-2.5,10.5-2.78l.51-.38.29-.58c14.18-28.09,15.54-60.91,15.1-78a185.89,185.89,0,0,0-2.54-26.75c15.27-2.48,34.63-15.9,38.53-25.46,1.81-4.43.1-7.09-1.08-8.29-2.17-2.18-5.46-3.29-9.79-3.29a46.45,46.45,0,0,0-13.28,2.4c7-10.3,11.1-21,10.09-28.54-.62-4.59-3.18-7.61-7.21-8.52-5.23-1.18-12.65,2.22-22.61,10.39,2.61-6.47,4.7-13.8,3.86-18.82-.6-3.63-2.57-5.25-4.12-6a7.88,7.88,0,0,0-3.36-.75c-4.75,0-9.44,4.14-13.17,8.68q1-6.72,1.9-12.54c5.6-37.31,5.24-37.78,4.29-39-2.39-3.12-28.53-14.93-34.46-14.93l-.39,0c-4.63.47-7.7,7.48-9.34,12.6-3.23-1.24-8.38-2.31-16.7-3-5.76-.47-11.47-.6-14.86-.64.82-6,1.41-11.3,1.75-15.71,1.17-15.38-.7-19-4.09-19.79a22.34,22.34,0,0,0-4.88-.43c-11.2,0-32.51,4.26-41,6.07.7-7.43,1.12-12,1.14-12.21l.14-1.45-1.15-.91C350.94,18.67,334,5.4,310.2,5.4c-15.4,0-30,5.57-43.46,16.56l-1.12.92.72,7.35c-5.36-1-12.54-2.09-17.4-2.09a10.41,10.41,0,0,0-4.8.77c-1.53.88-3.11,1.78-8.14,36-.5,3.39-1,6.77-1.43,10-2-14.84-3.8-26.78-5.21-35.51-.89-5.52-1.65-9.82-2.26-12.76-1-4.92-1.57-6.67-3.69-7a2.21,2.21,0,0,0-.39,0c-3.11,0-15.58,4.76-25.75,9.25l-.1.05h0l-.63.26a6.94,6.94,0,0,0-.75.41l-.48.24,0,.09c-2.37,1.9-2.7,5.57-3,9.12-.5,5.54-1,11.26-6.86,13.65-2.52,1-4.51,1.08-6.14.15-2.43-1.38-3.65-4.71-4.14-6.48h0l-.67-5.91-.9.55C162.06,48,155.37,54.66,153.7,60.72c-1.37,5-.49,24.47,1.54,50.43-3.43-5.15-8-9.93-13-9.93a7.83,7.83,0,0,0-2.61.45c-1.62.57-3.75,2-4.71,5.53-1.34,4.91,0,12.42,1.95,19.13-9.09-9.14-16.16-13.28-21.45-12.63-4.1.5-7,3.25-8,7.75-1.71,7.14,1.13,18.24,7.15,29.41-4.58-2-10.24-3.84-15.22-3.84a11.93,11.93,0,0,0-7.81,2.41c-1.3,1.06-3.27,3.54-1.92,8.13,3,10.14,21.68,25.93,36.82,29.48-2.54,8.52-4.36,21.75-4.75,36.35-.45,17.06.92,49.87,15.1,78l.29.57.51.38c.38.29,3.95,2.79,10.5,2.79,5.61,0,14.49-1.93,26-10.59.36,3.07.64,5.48.84,7.16a51.55,51.55,0,0,0-8.29,9.58c-12,17.92-11.77,43.62.64,67.07a96.21,96.21,0,0,0,13.83,19.61C176.4,402.59,164,415.78,151,437.56c-14.83,24.84-33.1,66-36.06,121.1-2.89,4.28-15.71,24.12-13,36.17l.14.61.39.48c2.52,3.19,11.1,13.74,15.43,15.66.27.12.61.29,1,.5l.13.06c3.5,1.76,10.8,5.41,20.38,5.41,9.75,0,19.22-3.81,28.13-11.31a14.56,14.56,0,0,0,4.15-.9l1.13-.41.45-1.1c.3-.73,7.31-17.83,8.7-24.33s-7.25-16-11.31-20.07c.73-6.64,6.63-50.95,35.82-73.85-2.63,18.4-6.91,51.75-7.32,76.79l-1.47-.7L196.27,563c-5.86,5.84-8.41,11.54-7.58,16.94a13.2,13.2,0,0,0,1.64,4.57c-5.47,9.25-17,30.15-14.21,38.4a6,6,0,0,0,3.5,3.8,6.37,6.37,0,0,0,2.35.45h0c4.15,0,8.81-4,14.48-12.46-1,5.37-1.21,10.43.22,13.75a7.25,7.25,0,0,0,3.9,4,207.13,207.13,0,0,0,7.23,48.77A16.41,16.41,0,0,0,197.38,687c-.9-.09-1.78-.14-2.63-.14a16.31,16.31,0,0,0-8.06,1.86c-5,2.84-8.93,14.06-7.9,22.66.65,5.43,3.26,9.05,7.33,10.2a35.49,35.49,0,0,0,9.76,1.33,36.88,36.88,0,0,0,6.68-.6h.05a33.93,33.93,0,0,0,8,.89,47.08,47.08,0,0,0,9-.9c.59.06,1.51.09,3,.09,3.55,0,10-.2,19.74-.6,11.21-.47,22.66-1.06,24.66-1.24a9.13,9.13,0,0,0,6.7-4.15c1.67-2.49,3.18-7,.93-14.2-2.65-8.55-2.95-50.47-3-57.68a36.27,36.27,0,0,0,5.56-8.8c.47,4.85,1.67,9.43,4.16,12.61A11.86,11.86,0,0,0,291,653h.29a13.88,13.88,0,0,0,10-4.21c3-2.93,5.11-7.18,6.63-11.76,1.15,4.42,3,8.6,5.88,11.56a14.39,14.39,0,0,0,10.67,4.45c.41,0,.83,0,1.25-.05a14.57,14.57,0,0,0,11.12-5.91c2.44-3.26,3.74-7.55,4.36-12,2.27,4.84,5.24,9.24,9.06,11.56-.06,10.36-.47,48.05-3,56.1-2.25,7.23-.73,11.71.93,14.2a9.15,9.15,0,0,0,6.7,4.16c2,.17,13.45.76,24.66,1.23,9.74.4,16.19.6,19.74.6,1.53,0,2.45,0,3.05-.09a46.74,46.74,0,0,0,9,.9,33.93,33.93,0,0,0,8-.89h0a37.54,37.54,0,0,0,6.7.6,35.55,35.55,0,0,0,9.76-1.34c4.08-1.15,6.68-4.77,7.33-10.2,1-8.6-2.89-19.82-7.9-22.66a16.31,16.31,0,0,0-8.06-1.86c-.85,0-1.73.05-2.63.14a16.41,16.41,0,0,0-10.42-5.76A207.71,207.71,0,0,0,421.48,632a10.24,10.24,0,0,0,2.21-2.75c1.71-3.06,2.19-7.27,2-11.83,4,3.78,8.19,5.71,12.55,5.71.47,0,.95,0,1.43-.07a7.65,7.65,0,0,0,6.49-4.2c4.73-9.41-8.59-33.29-12.11-39.31,1.6-4.65,1.47-8.6-.4-11.73-2.88-4.83-8.78-5.56-9-5.58l-.75-.09-.07,0c1.3-26.91-1.15-54.8-3.5-73.84,27-3.58,51.85-12.3,73.85-26a189,189,0,0,0,49-44.41,209.72,209.72,0,0,0,32.33-58.65c10.89-2.24,20.23-14.3,27.76-35.86,6.1-17.43,9.35-36.3,10.57-43.41l.1-.57C615.16,271.9,614.21,266.49,611,263.37ZM187.6,716.4c-2.37-.67-3.18-3.45-3.44-5.65-.83-6.94,2.63-15.87,5.2-17.32a10.42,10.42,0,0,1,4.6-1.14,25.3,25.3,0,0,0-1.06,20,20.6,20.6,0,0,0,2.84,5.21A30.3,30.3,0,0,1,187.6,716.4Zm241.53-3.58a25.32,25.32,0,0,0-1.05-20,10.18,10.18,0,0,1,4.6,1.14c2.56,1.44,6,10.37,5.19,17.31-.26,2.21-1.07,5-3.43,5.65a30.37,30.37,0,0,1-8.15,1.11A20.43,20.43,0,0,0,429.13,712.82ZM474.43,301a14.6,14.6,0,0,1-6.81,1.46c-5.17,0-13.72-2-25.4-11.55.56-3.41,1.23-7.52,2-12.2,3.93,2.69,10,5.95,16.3,5.95a17.76,17.76,0,0,0,2.94-.25c2.59-.44,4.66-2.72,6.34-7,2.78-7,5-21.67,5.83-39.13.68-13.43.48-28.13-1.46-30.7-1.15-1.52-3.1-2.19-6.33-2.19a50.11,50.11,0,0,0-9.17,1.1c-.92.18-1.88.37-2.86.59,1-6.39,2.06-12.87,3.1-19.35l.3-1.9a95.13,95.13,0,0,1,16.19-1.91c3.61,0,5.27.54,6,1,1.89,1.29,6.63,17,7.24,41.68C489,242.85,487.71,274.15,474.43,301Zm-29.24-28.29c2.62-16.06,6.05-37.26,9.69-59.85a66.75,66.75,0,0,1,13.18-2.05,6.86,6.86,0,0,1,1.73.16c.74,2.94,1,15.63.16,30.17-1,17.67-3.19,30.84-6,36.12-.85,1.61-1.41,1.82-1.4,1.82a11.39,11.39,0,0,1-2,.17C454.42,279.2,448.14,275,445.19,272.66Zm74.14-105c2.7,0,4.64.57,5.76,1.7.43.43.4,1.25-.08,2.44-3.07,7.51-20.44,20.21-34.61,22.22a50.18,50.18,0,0,0-3-9.39,89.18,89.18,0,0,0,12.21-11.83C503.15,171.28,512.55,167.71,519.33,167.71Zm-12.82-34.9a4.88,4.88,0,0,1,1,.11c1.2.27,2.64,1,3,4,.88,6.52-4.18,19.46-14.11,31.46l-.1.05,0,0a81.32,81.32,0,0,1-12.13,11.87s0,0-.07,0c-1.95-1.17-5.07-1.76-9.26-1.76a88,88,0,0,0-14.83,1.6c.54-3.43,1.08-6.78,1.59-10.06,5.28-6.06,11-12.19,16.65-17.67h0l.48-.47.07-.07C490.12,141,500.82,132.81,506.51,132.81ZM482.46,117.9a2.62,2.62,0,0,1,1.12.24c.21.1.77.36,1.05,1.79,1.45,7.47-7.78,26.13-9.55,28.1l-1,.95c-4,3.9-7.71,7.86-10.86,11.3q2.28-14.44,4.17-26.66C471.33,126.72,478.13,117.9,482.46,117.9ZM441.22,60.07h.13c3.61,0,24.74,9.24,29.37,12.45-.31,5.19-3.68,28.17-8.5,59.33-.08.15-.17.3-.23.43l-.32.59.36.2c-2,12.83-4.21,27-6.57,41.88h0l0,.18q-.82,5.15-1.66,10.4h0l-.24,1.49h0c-.92,5.76-1.86,11.6-2.8,17.48l0,.2c-3.76,23.45-7.65,47.5-11.3,69.86l-.14.14.1.09-3.61,22.08c-10.22-6.72-23.22-10.21-38.52-10.21-3.23,0-6.58.16-10,.46a126.37,126.37,0,0,0-21.1,3.77c-1.41.39-2.68.75-3.79,1.09a50.1,50.1,0,0,0-.05-7.2c-.11-1.53-.32-3.32-.62-5.21a39.07,39.07,0,0,0,12.8,2.14h0a45.11,45.11,0,0,0,18.56-4.14c14.09-6.33,25.15-19.2,28.87-33.6A69.43,69.43,0,0,0,417.76,198c6.29-2.44,16.82-10.12,18.18-34.3l.05-1-.57-.78a74.69,74.69,0,0,0-13.5-13.24c1.07-4.21,4.82-19.1,8.33-34.63,8.46-37.42,7.11-40.79,6.46-42.42a5.86,5.86,0,0,0-.68-1.24C437.84,64.2,440.38,60.15,441.22,60.07ZM206.07,198.49a14.33,14.33,0,0,1,2.61-4.64c2.78-3.32,10.21-9.43,29.39-14.5a63,63,0,0,1,16.09-2.2c16.22,0,25.55,7.18,27.46,9.28l.33,3.41c-.09,1.54-.2,8.78,4.95,14.44a18.28,18.28,0,0,0,5.44,4.09c-.89,8.85-4.19,42.06-4.71,55.87-4-1.88-10.62-4.54-16.34-4.54a13.08,13.08,0,0,0-5.57,1.1c-3.68,1.73-6,6.59-7.42,11.5a33.63,33.63,0,0,1-14.4,3.2,39.77,39.77,0,0,1-16.34-3.66c-12.62-5.67-22.53-17.17-25.85-30C196.33,221,203.61,203.54,206.07,198.49Zm-3.17-5.9c-3.93-1.16-14.35-6.38-15.91-29,3.45-4.23,20-22.79,47.65-27a62.42,62.42,0,0,1,9.3-.73c21.53,0,32.13,12.45,34.22,15.2l2.74,28c-4.63-3-13.58-7.31-26.74-7.31a68.63,68.63,0,0,0-17.48,2.38C213.18,180.35,205.44,188.18,202.9,192.59Zm58.57,92.6c.75-10.17,4-18.29,6.55-19.5a7.75,7.75,0,0,1,3.26-.6c5.78,0,14.09,3.87,17.67,5.91l4.28,2.44-.24-4.92c-.37-7.75,3.42-46.51,4.6-58.32A33.8,33.8,0,0,0,305,211h.73l.46.07.21,0a37.79,37.79,0,0,0,6.65.65,24.57,24.57,0,0,0,7.78-1.21c1.22,12.18,4.93,50.32,4.57,58l-.24,4.91,4.28-2.44c3.58-2.05,11.87-5.91,17.66-5.91a7.8,7.8,0,0,1,3.27.6c2.55,1.21,5.8,9.33,6.55,19.5.47,6.41-.32,10.75-1.32,12.29h-20l-.59,1.91c-2.85,9.25-6.38,16.06-7.52,16.63-3.68.8-16.51,2-18.27,2.17-1.76-.17-14.6-1.37-18.24-2.16-1.15-.57-4.7-7.39-7.55-16.64l-.59-1.91h-20C261.79,295.94,261,291.6,261.47,285.19ZM352.7,260.8a13.12,13.12,0,0,0-5.57-1.1c-5.73,0-12.37,2.66-16.34,4.54-.53-14.05-3.94-48.19-4.76-56.31,4.57-3.21,8.57-9,10-19.12.08-.6.17-1.26.26-2,2.58-2.48,11.75-8.88,27.07-8.88a62.94,62.94,0,0,1,16.09,2.2c27.72,7.33,30.92,16.82,30.93,16.85l2,2.19c2.41,4.9,9.83,22.42,4.4,43.42-3.32,12.86-13.23,24.36-25.85,30a39.77,39.77,0,0,1-16.34,3.66,33.55,33.55,0,0,1-14.18-3.1C358.83,267.71,356.39,262.54,352.7,260.8Zm-15.58-81.29c.84-7.38,1.89-17.32,3.05-28.64,3.44-4,14.18-14.16,33.53-14.16a60.08,60.08,0,0,1,9.13.72c27.59,4.22,44.19,22.79,47.65,27-1.57,22.72-12,27.85-15.9,29-2.53-4.42-10.26-12.26-33.79-18.49a68.63,68.63,0,0,0-17.48-2.38C350.64,172.55,341.88,176.54,337.12,179.51ZM399,69.07c3.15,0,9.15.13,15.23.62,15.9,1.3,17.45,4,17.45,4,1.24,3.31-5.19,35.11-14.47,71.66a82.28,82.28,0,0,0-30.14-12.65c1.1-5.08,5.87-27.35,9.64-49.39Q398,75.66,399,69.07Zm-6.5-35.95a20.35,20.35,0,0,1,3.27.22c.61,1.23,2.62,8.81-4.75,51.16-3.8,21.86-8.37,43.06-9.29,47.33a66.76,66.76,0,0,0-8.24-.54c-15.72,0-26.32,6.07-32.47,11.19,3.51-34.78,7.7-78.87,10-103C360.68,37.35,382.37,33.12,392.5,33.12ZM310.2,10.81c18.36,0,32.55,8.76,36.94,11.82-1,10.85-6.64,71-11.23,116.67v0c-.32,3.19-.64,6.32-1,9.35h0l-.17,1.73h0c-.2,2-.41,4-.61,5.9v.12c-1.48,14.28-2.74,25.75-3.53,31.61-1.65,12.11-7.55,18.25-17.55,18.25a32.07,32.07,0,0,1-5.73-.58,9,9,0,0,0-1.55-.19H305c-6.39,0-11.13-1.65-14.11-4.89-4-4.4-3.57-10.57-3.57-10.63l0-.26L271.28,25.25C283.42,15.67,296.51,10.81,310.2,10.81Zm-63,22.73a12.13,12.13,0,0,1,1.31-.06c3.52,0,10.86,1,18.34,2.35l10.43,106.58c-6-5.26-16.84-11.93-33.33-11.93-.68,0-1.37,0-2.07,0-.69-5.5-2.47-19.45-4.6-35.41C240.73,68.2,245.18,38.71,247.23,33.54Zm-107,74.91c.42-1.4,1-1.6,1.23-1.68a2.39,2.39,0,0,1,.84-.14c4.46,0,11,10.7,14.09,18.13.76,8.9,1.62,18.32,2.54,28-3.19-4.34-7-9.37-11.16-14.35-.29-.35-.58-.69-.86-1C145.32,135.24,138,115.73,140.2,108.45ZM112.67,122.7c.7-2.94,2.2-3.49,3.42-3.64a4.41,4.41,0,0,1,.52,0c5.79,0,16,9.81,26,21.64l.14.18.43.51h0c6.06,7.25,12,15.19,16.75,22.09.49,5,1,10.09,1.51,15.17a109.58,109.58,0,0,0-18.07-2.73,76.86,76.86,0,0,1-19.77-20.36l0-.05-.1-.06C115.09,142.83,111,129.54,112.67,122.7ZM94.8,156c-.36-1.22-.31-2,.16-2.43a6.7,6.7,0,0,1,4.3-1.18c5.74,0,14.64,3.67,20.66,7.15A85.93,85.93,0,0,0,135,176.31a11.51,11.51,0,0,0-3.53,1.26c-1.11.67-2.18,2.17-3.18,4.35C114.12,179.12,97.16,164.06,94.8,156Zm53.25,143.6a15.06,15.06,0,0,1-6.8-1.4c-13.27-26.79-14.58-58.08-14.17-74.38.61-24.65,5.34-40.38,7.19-41.64.76-.46,2.42-1,6-1,7.11,0,17.5,2.06,21.71,3.08.72,7.08,1.46,14.14,2.19,21.11-2-.51-4.53-1.11-7.18-1.63a50.65,50.65,0,0,0-9.17-1.09c-3.22,0-5.17.67-6.32,2.19-1.95,2.57-2.14,17.27-1.47,30.7.88,17.46,3.06,32.08,5.84,39.13,1.67,4.24,3.74,6.51,6.33,7a17.76,17.76,0,0,0,2.94.24c6.57,0,12.86-3.52,16.76-6.27.54,4.69,1,8.92,1.45,12.6C161.82,297.62,153.25,299.63,148.05,299.63Zm16.77-88.5c2.31,21.7,4.58,42.1,6.41,58.25-2.52,2.07-9.38,7.12-16,7.12a13,13,0,0,1-2-.16s-.56-.2-1.43-1.83c-2.81-5.29-5-18.45-6-36.12-.83-14.54-.58-27.23.16-30.17a6.55,6.55,0,0,1,1.74-.16C151.25,208.06,158.13,209.3,164.82,211.13Zm2.43-28.55h0l-.23-2.15h0c-2.05-20.12-3.91-39.57-5.39-56.73l.1,0-.13-.33c-2.75-32-4.12-56-2.7-61.16,1-3.71,4.92-8,11.59-12.74,1,2.8,2.86,6.18,6.13,8.05,3.09,1.77,6.79,1.83,10.87.17,8.9-3.63,9.65-12,10.2-18.17.14-1.62.44-5,1-5.38a208.89,208.89,0,0,1,22.6-8.75c1.63,6.41,4.91,28.39,8.31,53.11h0v.06c.75,5.45,1.5,11,2.25,16.6a.28.28,0,0,0,0,.09l.42,3.17h0q.66,4.94,1.29,9.81h0c1,7.95,2,15.67,2.92,22.74q-1.34.15-2.7.36c-33.14,5.06-51,28.88-51.77,29.89l-.57.78.05,1c1.42,25.27,12.87,32.52,19,34.59a69.54,69.54,0,0,0-4,45.65c3.72,14.4,14.78,27.27,28.86,33.6a45.18,45.18,0,0,0,18.56,4.14,38.92,38.92,0,0,0,13-2.19c-.52,3-.72,5.4-.77,6.07a49.2,49.2,0,0,0,0,7.7c-1.33-.45-3.06-1-5.33-1.59a126.77,126.77,0,0,0-21.1-3.77c-3.39-.3-6.74-.46-10-.46-15.92,0-29.36,3.78-39.75,11C176.16,265.64,171.36,222.9,167.25,182.58Zm4.83,193.21c-11.47-21.68-11.83-45.26-.92-61.53a45.66,45.66,0,0,1,9.24-10.13l.29,0,0-.17c12-9.54,27.22-11.85,39.14-11.85l2,0a114.57,114.57,0,0,1,33.31,5.81l2.45,1.22a7.6,7.6,0,0,0,2.6,3.3l.68.45h18c2.59,8,6.53,17.44,10.86,18.41,3.37.75,13.46,1.75,17.64,2.15l1.42.13v.08l.43,0,.43,0v-.08l1.43-.13c4.18-.4,14.26-1.4,17.64-2.15,4.33-1,8.27-10.43,10.86-18.41h18l.69-.45a8.42,8.42,0,0,0,3-4.34,114.38,114.38,0,0,1,33.84-6l2,0c15.41,0,36.36,3.85,48.64,22.18,10.91,16.27,10.56,39.85-.91,61.53-9.9,18.7-43,62.19-136.38,63.06C215.05,438,182,394.49,172.08,375.79Zm258.73,27.26-3.32,37.34c-6,5.52-32.37,13.14-46.05,16.55l-12.33-20.5A164.71,164.71,0,0,0,401.34,424,125.15,125.15,0,0,0,430.81,403.05ZM307.73,444.27h2.14v0c21.51-.3,41.21-2.88,58.93-7.71L367,462.12a200.27,200.27,0,0,1-64.84,11.27,163,163,0,0,1-20-1.21c-16.73-2.07-27.75-6.27-31.2-7.72-1.39-7.86-4.09-17-9.08-17-4.76,0-7.63,7.62-9.22,14.25-7.66-.5-29.85-15.95-37.22-21.08-2.91-2-4.57-3.18-5.55-3.77-.81-2.88-.62-15.32.4-29.91A127.63,127.63,0,0,0,215.58,424c24.95,12.95,55.72,19.76,91.47,20.25v0Zm-186,98.32a78,78,0,0,0,24.4,4.21,51.48,51.48,0,0,0,22-4.59,140.27,140.27,0,0,0-2.77,15.44,54.13,54.13,0,0,1-22.2,4.54,62.45,62.45,0,0,1-22.77-4.4Q120.83,550,121.68,542.59Zm54.95,35.77c-1.08,5-6.2,17.92-7.95,22.24A5.28,5.28,0,0,1,164,600c-4.29-3.06-5.1-13.54-5-17l0-1.21-1,.62c-.19.11-4.7,2.85-4,7,.68,5.06,2.42,11.77,6.88,14.95l.09.06c-7,5.06-14.25,7.62-21.7,7.62a39.08,39.08,0,0,1-17.9-4.77l-1.38-.67c-2.14-.95-8.26-7.67-13-13.56-1.32-8.39,7-23.25,11.55-30.19a68.2,68.2,0,0,0,24.74,4.78,59.09,59.09,0,0,0,23.24-4.62C172,568.38,177.22,575.6,176.63,578.36ZM182,621.77h0a1.16,1.16,0,0,1-.42-.07c-.11,0-.23-.09-.35-.48-1.46-4.39,5.08-19,12.78-32.31a17.23,17.23,0,0,0,2.95,2l.26.12c1.77.65,3.52,1.28,5.28,1.9C194.6,609.31,185.79,621.77,182,621.77Zm20.7,5.76a1.92,1.92,0,0,1-1.09-1.2c-2.33-5.42,2.38-21.22,6.42-31.43q6.8,2.31,13.52,4.35c-3.79,15-8.88,25.13-14.12,27.93A5.41,5.41,0,0,1,202.72,627.53Zm7.88,90.28a28.27,28.27,0,0,1-6.71-.73c-2.32-.56-4.59-3.12-5.93-6.68a20.14,20.14,0,0,1,2.57-18.66,11.66,11.66,0,0,1,10.11-5.3,19.47,19.47,0,0,1,4,.45,13.61,13.61,0,0,0-3.29,4c-3,5.4-3.43,11.7-1.3,18.21a34.25,34.25,0,0,0,4.25,8.52C213.19,717.74,211.93,717.81,210.6,717.81Zm58.72-4.41a3.8,3.8,0,0,1-2.68,1.79c-4.41.39-35.47,1.83-44.32,1.83-.69,0-1.23,0-1.61,0-1.33-1.53-10.53-12.78-4.62-23.47a7.46,7.46,0,0,1,5.8-4,11.26,11.26,0,0,1,1.68-.12c7.48,0,17.09,6.22,19,8.11l.79.79.34-1.07c0-.15,1.15-3.92-4.72-8.56l-.09-.07c-3.9-2.1-9.72-4.6-15.35-4.6h-.18l-1.3-.46a37.35,37.35,0,0,0-8.62-2.3,200.53,200.53,0,0,1-7.43-48,11.29,11.29,0,0,0,4-1.3,20.58,20.58,0,0,0,6.93-6.71c.13,4.23,1,8.2,3,11.22,2.53,3.74,6.45,5.69,11.67,5.77H232c6.88,0,12.59-3,16.87-8.72.53,7.46,2.8,14,8.74,15.7a13.29,13.29,0,0,0,3.74.55,12,12,0,0,0,5.08-1.12c.11,13.1.64,46.93,3.2,55.19C270.84,707.87,270.75,711.28,269.32,713.4ZM227.1,600.89q12.39,3.58,24.54,6.24a120.67,120.67,0,0,0-2.33,13c-2.5,8.2-7.49,16.65-17.37,16.65h-.27c-3.38,0-5.76-1.16-7.26-3.38C219.39,626,224.45,608,227.1,600.89ZM279,612.77c-3.63,16.62-8.41,27.13-13.9,30.47a7.07,7.07,0,0,1-6,.77c-5.27-1.52-5.58-12.56-4.39-22.91a68.76,68.76,0,0,0,2.37-12.84q11.15,2.26,22.06,3.73C279.07,612.2,279,612.46,279,612.77ZM297.5,645a8.63,8.63,0,0,1-6.27,2.65h-.1a6.59,6.59,0,0,1-5.4-2.6c-5.1-6.53-3.07-23.3-1.54-30.93.11-.47.21-1,.31-1.43q11,1.29,21.71,1.75C305.94,620.81,304.54,638.06,297.5,645Zm35-1.11a10.06,10.06,0,0,1-14.84,1c-7.86-8-6-29.58-6-29.8l0-.46q3.17.07,6.3.08c5.9,0,11.57-.2,17-.57.05.29.13.77.25,1.41C336.27,621.83,337.91,636.67,332.51,643.86ZM340.65,615c-.07-.49-.15-.92-.21-1.32C348,613,355,612,361.59,610.84c.1.59.25,1.35.44,2.25,1.36,8.46,2.49,22-1.47,27.61a4.91,4.91,0,0,1-3.58,2.21C347.91,644,342.37,624.2,340.65,615Zm80.85,77.26a20.14,20.14,0,0,1,2.57,18.66c-1.34,3.56-3.61,6.12-5.93,6.69a28.58,28.58,0,0,1-6.69.72c-1.34,0-2.6-.07-3.72-.18a34.51,34.51,0,0,0,4.24-8.51c2.13-6.52,1.68-12.82-1.3-18.22a13.46,13.46,0,0,0-3.29-4,19.55,19.55,0,0,1,4-.45A11.65,11.65,0,0,1,421.5,692.26Zm-12.89-10.5a38,38,0,0,0-8.63,2.3l-1.29.46h-.18c-4.9,0-9.94,1.94-13.36,3.59-6.58,3.93-5.38,8.23-5.33,8.41l.28.93.77-.58c3.24-2.4,11.08-7,17.59-7a11.35,11.35,0,0,1,1.68.12,7.42,7.42,0,0,1,5.8,4c5.91,10.69-3.29,21.94-4.62,23.47-.37,0-.9,0-1.57,0-8.87,0-39.95-1.43-44.35-1.82a3.82,3.82,0,0,1-2.69-1.78c-1.42-2.13-1.52-5.54-.26-9.59,2.62-8.44,3.12-43.55,3.21-56l.57,0a12.73,12.73,0,0,0,1.37-.08,10.23,10.23,0,0,0,7.37-4.45c2.23-3.14,3.24-7.75,3.57-12.65a26,26,0,0,0,7,8.21,15.46,15.46,0,0,0,9.23,3.07,17.66,17.66,0,0,0,3.05-.28,12.23,12.23,0,0,0,9.18-6.55c1.64-3.2,2-7.26,1.72-11.47,4.31,5.67,9.69,10.24,15.83,10.24a12.24,12.24,0,0,0,1.47-.1A199.49,199.49,0,0,1,408.61,681.76Zm-41.68-72a209.38,209.38,0,0,0,21-5.49c3.06,7.25,7.9,21.88,4.31,28.84a7,7,0,0,1-5.33,3.71,10.11,10.11,0,0,1-8.15-1.85c-7-5.08-10.35-17.92-11.5-23.55C367.12,610.85,367,610.29,366.93,609.8ZM419,626.62a4.18,4.18,0,0,1-3.12,2.26,7.93,7.93,0,0,1-1.29.11c-9.35,0-18-17.75-21.36-26.46,3.94-1.39,7.5-2.79,10.68-4.14,4-1.72,7.6-3.43,10.78-5.07C418.43,603.84,422.43,620.44,419,626.62Zm22.31-10.18c-.29.57-.75,1.11-2.18,1.25-.3,0-.61,0-.91,0h0c-5.61,0-10.37-4.94-13.93-10.38a123.67,123.67,0,0,0-4.8-16.62,111.72,111.72,0,0,0,10.78-6.87C436.75,595.26,443.8,611.45,441.29,616.44Zm-16.68-48.69A7.06,7.06,0,0,1,429,570.6c1.06,1.78,1,4.33-.2,7.59-4.7,3.7-41.79,31.07-110.76,31.07-37,0-76.91-7.8-118.71-23.19-.65-.37-4.63-2.81-5.26-6.94-.51-3.24,1.1-6.92,4.77-11,9.75,4.3,55.76,23.06,115.41,23.06C353.2,591.24,390.34,583.33,424.61,567.75Zm114.13-153c-21,26.88-58.69,60.23-119.17,68.26-.29-2.18-.58-4.21-.84-6.05-2.59-12.4-6.32-13.12-6.74-13.17l-.89-.08.16.88c.1.53,9.74,52.53,7,100.09a259.89,259.89,0,0,1-104,21.16c-53.25,0-95.55-15.28-109.74-21.11.23-36.24,9.34-92,9.43-92.54l.23-1.36-1.22.65c-1.12.61-4.8,2.71-5,4.31-.1.7-.22,1.48-.35,2.34-19.43,12.93-29.88,34-35.26,49.66-.86,2.5-1.61,4.93-2.28,7.28-6.64,4.15-14.64,6.26-23.81,6.26a74.23,74.23,0,0,1-23.81-4.23,255.4,255.4,0,0,1,33.15-96.61c12.54-21.05,24.82-34.11,29.37-38.63l.34.35c-.22,2.88-.73,10-1,17.19-.81,20.34.89,21.11,2.68,21.93.48.23,3.11,2.06,5.47,3.7,19,13.21,33.19,22,40.9,22a7.46,7.46,0,0,0,2.55-.4l1.42-.51.31-1.48c1.25-5.9,3.26-10.41,4.23-11.57,1.08,1.45,3,6.92,4.11,13.7l.22,1.38,1.26.62c.5.24,12.6,6.08,33.93,8.75a168.92,168.92,0,0,0,20.87,1.27h0c22.34,0,45.32-4.09,68.31-12.15l1.67-.59.88-12.6,5.82,9.67,1.93-.46c4.5-1.08,44.24-10.82,51.39-19.36l.55-.65,2.76-31.06A141.93,141.93,0,0,0,474.9,403c20.94-8,36.21-20.56,45.13-37a53.74,53.74,0,0,1,6-.32c8.77,0,24.64,2,34.26,15.23A209.74,209.74,0,0,1,538.74,414.74Zm24.18-39.17c-11.06-13.22-27.35-15.32-36.53-15.32-1.32,0-2.52.05-3.58.11a75.86,75.86,0,0,0,4.7-15.15,32.53,32.53,0,0,1,8.49-1c7.89,0,20.13,2.4,34.22,13.65A166.58,166.58,0,0,1,562.92,375.57Zm45.61-97-.1.58C598,339.77,582.88,352.32,574.14,354c-15.58-12.64-29.24-15.33-38-15.33a38,38,0,0,0-9.61,1.16c-2.69-4.37-10.69-13.67-31.44-17.8-1.12-2.67-3.64-10.21,1-15.13.95-1,2.56-1.51,4.9-1.51,3.29,0,7.51,1,11.59,1.94,4.42,1,9,2.1,13,2.1a13,13,0,0,0,7.93-2.21c3-2.21,6.43-7.91,6.11-32.49-.13-10.53-1-20.79-1.27-24.26a21.9,21.9,0,0,1,11.91-3.36,27.15,27.15,0,0,1,2.83.16c0,3.42.14,11,.52,18.59,1.11,22.4,3.42,24.31,4.66,25.34a3.57,3.57,0,0,0,3,.79c2.63-.5,5.26-2.78,8.53-24.8,1.32-8.89,2.25-17.83,2.55-20.81a15.15,15.15,0,0,1,8.33-2.77c3.59,0,7,1.57,10.07,4.66-2.31,12.95-7.09,38-9,42.14l-.39.84.21.9c.09.39,1,3.87,4.05,4.68,2.19.57,4.53-.44,6.89-3,2.68-2.93,4.49-8.93,6.41-15.27,1-3.19,3.51-11.62,4.77-12.25a3.94,3.94,0,0,1,3.6.88C609,269,609.47,273.07,608.53,278.53Z"/><path style="fill: #fcee1f" d="M343.1,231.89s23.64-36,44.68,2.58c0,0,5.35,1.54,5.74-4.12s-5-22.15-28.31-23.18S339,230.35,343.1,231.89Z"/><path style="fill: #fcee1f" d="M274.34,235.38s-23.64-36-44.68,2.57c0,0-5.35,1.55-5.74-4.12s5-22.14,28.31-23.17S278.47,233.83,274.34,235.38Z"/><polygon style="opacity: 0.5; fill: #33150e;" points="347.85 38.61 338.26 149.26 357.77 138.3 365.28 36.17 347.85 38.61"/><path
    style="opacity: 0.5; fill: #33150e;"
    d="M162.15,169.53a26.4,26.4,0,0,1,2.2-10.53,330.73,330.73,0,0,1-6.1-37.66c-1.2,6.3-14.55,19.31-12,22.45-.12,25.14-31,29.79-35.82,30.24l13.41,8.61s4.31-.32,4.44-.72,3.67-2,5.61-4.91c1.78-2.63,24.34,5,31.69,5.58A26.58,26.58,0,0,1,162.15,169.53Z"/><path style="opacity: 0.5; fill: #33150e;" d="M499.11,172.15c-36.86,4.86-32.49-41.8-33.68-43.7l-7.62,51.85s12,.49,21,1.28,10.58,15.69,10.58,15.69,4.83,1.54,5.63-.72,5.26.39,7.62-6.3C493.79,189,493.19,176.74,499.11,172.15Z"/><path style="fill: #33150e; opacity: 0.4;" d="M155.85,543.35h15.31c12.61-52.69,41.44-66.65,41.44-66.65l3-16.54C167.8,470.53,155.85,543.35,155.85,543.35Z"/><path
    style="fill: #33150e"
    d="M316.05,577.08a5.17,5.17,0,0,1-3.68-1.53,4.36,4.36,0,0,1,0-6.18,3.71,3.71,0,0,1,5.23,0,3.16,3.16,0,0,1,0,4.48,2.75,2.75,0,0,1-3.87,0,2.3,2.3,0,0,1-.57-.93,2.27,2.27,0,0,0,.64,1.21,3.2,3.2,0,0,0,4.51,0,4.24,4.24,0,0,0,0-6,5.56,5.56,0,0,0-7.85,0L309,566.7a7.57,7.57,0,0,1,10.71,0,6.26,6.26,0,0,1,0,8.85A5.19,5.19,0,0,1,316.05,577.08Zm-.82-5.2s-.05,0-.06,0a.36.36,0,0,0,0,.51.7.7,0,0,0,.9.08l-.78-.78a.14.14,0,0,0,0,.19S315.25,571.88,315.23,571.88Z"/><path style="fill: #33150e" d="M549.3,291.55s29.5-1.56,43.43,11.26c0,0-.79-10.3-20.88-14.67C571.85,288.14,554.22,285.4,549.3,291.55Z"/></g>
</svg>
