<svg viewBox="0 0 20 19" xmlns="http://www.w3.org/2000/svg">
<path d="M14.024 0H6.89905C3.62036 0 0.961548 2.65881 0.961548 5.9375V13.0625C0.961548 16.3412 3.62036 19 6.89905 19H14.024C17.3027 19 19.9615 16.3412 19.9615 13.0625V5.9375C19.9615 2.65881 17.3027 0 14.024 0ZM18.1803 13.0625C18.1803 15.3544 16.3159 17.2188 14.024 17.2188H6.89905C4.60717 17.2188 2.7428 15.3544 2.7428 13.0625V5.9375C2.7428 3.64563 4.60717 1.78125 6.89905 1.78125H14.024C16.3159 1.78125 18.1803 3.64563 18.1803 5.9375V13.0625Z" />
<path d="M15.5678 5.02674C15.9173 5.02674 16.2007 4.74336 16.2007 4.3938C16.2007 4.04424 15.9173 3.76086 15.5678 3.76086C15.2182 3.76086 14.9348 4.04424 14.9348 4.3938C14.9348 4.74336 15.2182 5.02674 15.5678 5.02674Z" />
<path d="M10.4615 4.75C7.83836 4.75 5.71155 6.87681 5.71155 9.5C5.71155 12.1232 7.83836 14.25 10.4615 14.25C13.0847 14.25 15.2115 12.1232 15.2115 9.5C15.2115 6.87681 13.0847 4.75 10.4615 4.75ZM10.4615 12.4688C8.82517 12.4688 7.4928 11.1364 7.4928 9.5C7.4928 7.86244 8.82517 6.53125 10.4615 6.53125C12.0979 6.53125 13.4303 7.86244 13.4303 9.5C13.4303 11.1364 12.0979 12.4688 10.4615 12.4688Z" />
</svg>
