<?xml version="1.0" encoding="utf-8"?>
<svg xmlns="http://www.w3.org/2000/svg" viewBox="0 0 76.7 76.7">
  <g>
    <path d="M21.8,75.8c5.5,0,10.9-2.2,14.8-6.1l11-11c1.6-1.6,1.6-4.1,0-5.7s-4.1-1.6-5.7,0L31,64c-2.4,2.5-5.7,4-9.2,4
		c-3.5,0.1-6.8-1.3-9.3-3.8c-2.5-2.5-3.8-5.8-3.8-9.3c0-3.5,1.5-6.8,4-9.2l11-11c1.6-1.6,1.6-4.1,0-5.7s-4.1-1.6-5.7,0l-11,11
		C3.1,44,0.9,49.3,0.9,54.9c0,5.5,2.2,10.9,6.1,14.8S16.3,75.8,21.8,75.8L21.8,75.8z"/>
    <path d="M69.6,7c-3.9-3.9-9.2-6.1-14.8-6.1S44,3.1,40.1,7l-11,11c-1.6,1.6-1.6,4.1,0,5.7s4.1,1.6,5.7,0l11-11
		c5.1-4.8,13.1-4.7,18,0.3c4.9,4.9,5.1,12.9,0.3,18L53,42c-1.6,1.6-1.6,4.1,0,5.7s4.1,1.6,5.7,0l11-11c3.9-3.9,6.1-9.2,6.1-14.8
		S73.6,11,69.6,7L69.6,7z"/>
    <path d="M52.2,24.5c-0.8-0.8-1.8-1.2-2.8-1.2c-1.1,0-2.1,0.4-2.8,1.2L24.5,46.6c-1.6,1.6-1.6,4.1,0,5.7s4.1,1.6,5.7,0l22.1-22.1
		c0.8-0.8,1.2-1.8,1.2-2.8C53.4,26.2,53,25.2,52.2,24.5L52.2,24.5z"/>
  </g>
</svg>
