<svg viewBox="0 0 34 33" xmlns="http://www.w3.org/2000/svg">
    <path d="M28.3982 28.1192H23.4598V20.4617C23.4598 18.6357 23.4269 16.285 20.8914 16.285C18.3193 16.285 17.9258 18.2745 17.9258 20.3287V28.1187H12.9874V12.3717H17.7282V14.5237H17.7946C18.269 13.7205 18.9546 13.0597 19.7783 12.6118C20.6021 12.1638 21.5331 11.9455 22.4722 11.98C27.4774 11.98 28.4003 15.2398 28.4003 19.4807L28.3982 28.1192ZM7.41527 10.2192C6.84846 10.2193 6.29435 10.053 5.82301 9.74127C5.35168 9.42956 4.98431 8.98645 4.76731 8.46799C4.55031 7.94953 4.49344 7.379 4.60392 6.82855C4.71439 6.27809 4.98725 5.77244 5.38797 5.37552C5.78869 4.97861 6.29928 4.70827 6.85517 4.59868C7.41106 4.48909 7.98727 4.54518 8.51097 4.75986C9.03466 4.97454 9.4823 5.33815 9.79729 5.80473C10.1123 6.27132 10.2805 6.8199 10.2806 7.38112C10.2806 7.75376 10.2066 8.12276 10.0626 8.46705C9.91864 8.81135 9.70762 9.1242 9.44156 9.38774C9.17549 9.65128 8.85958 9.86035 8.51191 10.003C8.16424 10.1457 7.79161 10.2191 7.41527 10.2192ZM9.88445 28.1192H4.94094V12.3717H9.88445V28.1192ZM30.8602 0.00322491H2.45942C1.8148 -0.00397796 1.19363 0.242514 0.732468 0.688535C0.271304 1.13456 0.0078672 1.74361 0 2.38188V30.6196C0.00759794 31.2582 0.27088 31.8676 0.732029 32.3141C1.19318 32.7606 1.81448 33.0076 2.45942 33.0008H30.8602C31.5064 33.0088 32.1294 32.7625 32.5924 32.3161C33.0554 31.8696 33.3204 31.2594 33.3294 30.6196V2.37984C33.3202 1.74031 33.0549 1.13056 32.5919 0.68455C32.129 0.23854 31.5061 -0.0072479 30.8602 0.00118669"
          fill="#0A66C2"/>
</svg>
