<?xml version="1.0" encoding="utf-8"?>
<svg version="1.1" id="Layer_1" xmlns="http://www.w3.org/2000/svg" xmlns:xlink="http://www.w3.org/1999/xlink" viewBox="0 0 132.5 132.5">
<path style="fill:#12100E" d="M16.2,35.5c0.2-1.6-0.5-3.2-1.7-4.3L2.4,16.5v-2.2h38l29.4,64.4l25.7-64.4h36.2v2.2l-10.5,10
	c-0.9,0.7-1.3,1.8-1.2,2.9v73.7c-0.2,1.1,0.3,2.2,1.2,2.9l10.2,10v2.2H80V116l10.6-10.3c1-1,1-1.3,1-2.9V43.3L62.2,118h-4L24.1,43.3
	v50.1c-0.3,2.1,0.4,4.2,1.9,5.7l13.7,16.8v2.2h-39v-2.2l13.8-16.7c1.5-1.5,2.1-3.7,1.8-5.7L16.2,35.5L16.2,35.5z"/>
</svg>
