<?xml version="1.0" encoding="utf-8"?>
<svg xmlns="http://www.w3.org/2000/svg" viewBox="0 0 72.4 72.4">
<path d="M58.1,50.8c-2.3,0-4.4,0.8-6.2,2.1L24.5,37.2c0-0.4,0.2-0.8,0.2-1c0-0.2,0-0.8-0.2-1l27.3-15.6c1.7,1.2,4,2.1,6.2,2.1
	c5.8,0,10.4-4.6,10.4-10.4c0-5.8-4.6-10.4-10.4-10.4c-5.8,0-10.4,4.6-10.4,10.4c0,0.4,0,0.6,0.2,1L20.6,27.9
	c-1.7-1.2-3.8-2.1-6.3-2.1c-5.8,0-10.4,4.6-10.4,10.4c0,5.8,4.6,10.4,10.4,10.4c2.3,0,4.4-0.8,6.3-2.1l27.3,15.6
	c0,0.4-0.2,0.6-0.2,1c0,5.8,4.6,10.4,10.4,10.4c5.8,0,10.4-4.6,10.4-10.4C68.5,55.4,63.9,50.8,58.1,50.8z"/>
</svg>
