<svg viewBox="0 0 271 270" xmlns="http://www.w3.org/2000/svg">
    <g>
        <path d="M109.072 106.332V95.8055C105.418 95.2276 101.729 94.9118 98.0304 94.8605C62.2274 94.7887 30.5394 117.984 19.7853 152.124C9.03124 186.264 21.7232 223.443 51.1025 243.886C20.2758 210.894 22.0342 159.158 55.0261 128.331C69.727 114.608 88.9657 106.777 109.072 106.332V106.332Z"
              fill="#25F4EE"/>
        <path d="M111.057 225.524C131.07 225.5 147.518 209.734 148.404 189.733V11.2924H181.001C180.334 7.56599 180.018 3.78537 180.056 0H135.472V178.262C134.731 198.358 118.235 214.28 98.1262 214.316C92.1211 214.268 86.1998 212.785 80.8766 210.009C84.3284 214.791 88.8617 218.689 94.1067 221.386C99.3518 224.082 105.16 225.5 111.057 225.524V225.524ZM241.877 71.8334V61.9166C229.878 61.9166 218.143 58.3758 208.155 51.7368C216.911 61.9247 228.75 68.9801 241.877 71.8334V71.8334Z"
              fill="#25F4EE"/>
        <path d="M208.167 51.7471C198.32 40.5385 192.894 26.1266 192.903 11.207H181.001C182.533 19.4569 185.733 27.3073 190.404 34.2779C195.075 41.2486 201.119 47.1929 208.167 51.7471V51.7471ZM98.0304 139.454C77.3596 139.562 60.6842 156.405 60.7919 177.076C60.8261 183.861 62.704 190.51 66.2248 196.31C69.7457 202.111 74.7771 206.846 80.7808 210.008C68.687 193.308 72.4192 169.958 89.1185 157.852C95.4991 153.231 103.179 150.748 111.057 150.759C114.801 150.807 118.522 151.393 122.098 152.493V107.12C118.45 106.57 114.754 106.283 111.057 106.259H109.072V140.758C105.471 139.777 101.751 139.347 98.0304 139.454V139.454Z"
              fill="#FE2C55"/>
        <path d="M241.877 71.833V106.332C219.667 106.29 198.034 99.2585 180.044 86.2356V176.874C179.948 222.103 143.26 258.719 98.0305 258.719C81.2333 258.751 64.8403 253.568 51.1145 243.886C81.8934 276.986 133.678 278.876 166.79 248.097C175.026 240.44 181.597 231.168 186.09 220.858C190.583 210.549 192.902 199.424 192.903 188.178V97.7911C210.956 110.722 232.613 117.66 254.82 117.625V73.2206C250.466 73.1967 246.135 72.7421 241.877 71.833V71.833Z"
              fill="#FE2C55"/>
        <path d="M180.044 176.884V86.2463C198.091 99.1878 219.752 106.126 241.96 106.08V71.5805C228.841 68.8069 216.977 61.8465 208.155 51.7471C201.111 47.1892 195.069 41.2438 190.398 34.2738C185.728 27.3038 182.526 19.4552 180.989 11.207H148.392V189.732C147.542 210.391 130.125 226.444 109.466 225.607C103.815 225.377 98.2884 223.87 93.3033 221.197C88.3182 218.524 84.004 214.756 80.6852 210.175C62.3949 200.546 55.373 177.913 65.0026 159.623C68.1628 153.617 72.8969 148.585 78.698 145.064C84.4991 141.542 91.1487 139.666 97.9347 139.634C101.679 139.67 105.399 140.244 108.976 141.356V106.343C63.8303 107.108 27.8479 144.849 28.6135 189.995C28.9598 210.439 36.9537 230.012 51.0188 244.854C64.8795 254.217 81.2949 259.067 98.0185 258.742C143.26 258.73 179.948 222.114 180.044 176.884Z"
              fill="black"/>
    </g>
</svg>
