<svg viewBox="0 0 18 20" xmlns="http://www.w3.org/2000/svg">
<path d="M17.9524 5.00773C16.8464 5.00773 15.826 4.62902 15.0065 3.99014C14.0667 3.25776 13.3915 2.18345 13.153 0.945208C13.094 0.639268 13.0622 0.323546 13.0591 0H9.89978V8.92314L9.896 13.8108C9.896 15.1175 9.07275 16.2254 7.93157 16.6151C7.60038 16.7282 7.24269 16.7818 6.87025 16.7606C6.39485 16.7336 5.94935 16.5854 5.56214 16.3459C4.73814 15.8365 4.17947 14.9125 4.16433 13.8554C4.14049 12.2032 5.43269 10.8562 7.02998 10.8562C7.34527 10.8562 7.64807 10.9094 7.93157 11.006V8.56713V7.69038C7.63255 7.64461 7.32824 7.62074 7.02051 7.62074C5.27221 7.62074 3.63708 8.3719 2.46826 9.72516C1.58484 10.7478 1.05494 12.0526 0.973179 13.4207C0.866063 15.218 1.50233 16.9265 2.73624 18.187C2.91755 18.3721 3.10793 18.5438 3.30702 18.7023C4.36494 19.5438 5.65828 20 7.02051 20C7.32824 20 7.63255 19.9765 7.93157 19.9308C9.20409 19.7359 10.3782 19.1338 11.3048 18.187C12.4433 17.0239 13.0724 15.4797 13.0792 13.8362L13.0629 6.53743C13.6061 6.97052 14.1999 7.32889 14.8373 7.60705C15.8286 8.03936 16.8797 8.25845 17.9615 8.25805V5.88682V5.00694C17.9623 5.00773 17.9532 5.00773 17.9524 5.00773Z" />
</svg>
