<?xml version="1.0" standalone="no"?>
<!DOCTYPE svg PUBLIC "-//W3C//DTD SVG 1.1//EN" "http://www.w3.org/Graphics/SVG/1.1/DTD/svg11.dtd" >
<svg xmlns="http://www.w3.org/2000/svg" xmlns:xlink="http://www.w3.org/1999/xlink" version="1.1">
<metadata>
Created by FontForge 20170731 at Wed Sep 19 15:13:43 2018
 By Aleksey,,,
Copyright (c) 2018 by Vlad Cristea. All rights reserved.
</metadata>
<defs>
<font id="MarkerMark-Regular" horiz-adv-x="301" >
  <font-face 
    font-family="Marker Mark"
    font-weight="400"
    font-stretch="normal"
    units-per-em="1000"
    panose-1="0 0 5 0 0 0 0 0 0 0"
    ascent="800"
    descent="-200"
    x-height="418"
    cap-height="711"
    bbox="-61 -270 616.333 800"
    underline-thickness="50"
    underline-position="-150"
    unicode-range="U+0020-20AC"
  />
<missing-glyph horiz-adv-x="500" 
d="M410 -200h-317v1000h317v-1000zM168 733v-33h65v-37h-66v-33h166v33h-66v37h66v33h-165zM167 604v-104h166v34h-66v70h-100zM233 534h-33v36h33v-36zM167 473v-33h66v-37h-66v-33h100v70h66v33h-166zM300 413v-66h-133v-34h166v100h-33zM233 291v-56h34v23h33v-47h-100
v80h-33v-113h166v113h-100zM167 118v-113h166v113h-166zM300 38h-100v47h100v-47zM167 -18v-33h70l-70 -47v-33h166v33h-102l70 47h32v33h-166z" />
    <glyph glyph-name=".notdef" horiz-adv-x="500" 
d="M410 -200h-317v1000h317v-1000zM168 733v-33h65v-37h-66v-33h166v33h-66v37h66v33h-165zM167 604v-104h166v34h-66v70h-100zM233 534h-33v36h33v-36zM167 473v-33h66v-37h-66v-33h100v70h66v33h-166zM300 413v-66h-133v-34h166v100h-33zM233 291v-56h34v23h33v-47h-100
v80h-33v-113h166v113h-100zM167 118v-113h166v113h-166zM300 38h-100v47h100v-47zM167 -18v-33h70l-70 -47v-33h166v33h-102l70 47h32v33h-166z" />
    <glyph glyph-name=".null" horiz-adv-x="0" 
 />
    <glyph glyph-name="nonmarkingreturn" horiz-adv-x="333" 
 />
    <glyph glyph-name="space" unicode=" " horiz-adv-x="250" 
 />
    <glyph glyph-name="exclam" unicode="!" horiz-adv-x="257" 
d="M235 588q0 -8 -2 -13q-11 -29 -25 -70l-6 -19q0 -1 -0.5 -3.5t-2.5 -5.5q-7 -13 -11 -30t-6 -24q-2 -9 -6 -20.5t-6 -16.5q-7 -22 -8 -29q-1 -3 -6 -14q-6 -9 -6 -20q0 -4 -4 -14q-3 -8 -7 -21.5t-10 -21.5q-1 -14 -12 -28q-3 -3 -3 -8q1 -8 0 -19.5t-1 -19.5
q0 -13 2 -19v-1q0 -4 -2.5 -7t-6.5 -2q-7 3 -17 13q-1 2 -1 6q0 3 4 13q-8 4 -12 13t-6 13q-2 3 2 9v0h5q1 3 1 7t-9 1q-3 12 -3 23q0 7 4.5 10t5.5 3q1 1 1.5 3t-1.5 3q-8 5 -8 15l1 8q1 5 2 12t1 11q2 20 4 29q6 20 9 43q5 28 12 53q2 6 4 12.5t4 13.5q10 34 16 51
q10 25 23 67q13 39 16 47q4 13 16 39q2 4 5 2q1 0 3 -2l2 -5v-3q0 -5 2 -10.5t3 -7.5q3 -14 13 -15q6 -1 8 -8t10 -19q9 -10 9 -24zM73 237v0v0h-1h1zM95 197q-1 0 -2 -1t-1 -2l3 1v2zM84.5 42q1.5 -4 0.5 -8q-3 -12 -17 -30q-1 -2 -7 -4h-1q-5 0 -12.5 4t-9.5 7q-1 2 1 4
t7 3.5t7 5.5q-10 3 -10 12q0 4 4.5 8t9.5 5q3 1 7 1q7 0 15 -3q4 -1 5.5 -5zM54 26v-1v0v1z" />
    <glyph glyph-name="quotedbl" unicode="&#x22;" horiz-adv-x="327" 
d="M272 624q7 -20 7 -44q0 -22 -4 -39q-8 -45 -46 -73l-12 -11q-10 -8 -14 -9q-2 0 -3.5 -1.5t-3.5 -1.5q-4 0 -4 3t5 10q11 10 16.5 19t12.5 27q-11 -5 -13 -6q-2 -2 -4 0q-1 1 -1 3l12 30q8 20 10 31q1 5 1 16q0 9 -3 18q-2 8 -5 20.5t-6 20.5q-1 2 -1 5q0 5 3.5 8t9.5 3
q32 0 43 -29zM155 618q7 -20 7 -44q0 -22 -4 -39q-8 -45 -46 -73l-12 -11q-10 -8 -14 -9q-2 0 -3.5 -1.5t-3.5 -1.5q-4 0 -4 3t5 10q11 10 16.5 19t12.5 27q-11 -5 -13 -6q-2 -2 -4 0q-1 1 -1 3l12 30q8 20 10 31q1 5 1 16q0 9 -3 18q-2 8 -5 20.5t-6 20.5q-1 2 -1 5
q0 5 3.5 8t9.5 3q32 0 43 -29z" />
    <glyph glyph-name="numbersign" unicode="#" horiz-adv-x="487" 
d="M393 190.5v0.5q6 2 16.5 7.5t19.5 5.5q-1 -5 -4 -6.5t-4 -2.5q-8 -3 -8 -12q1 -6 -4 -6.5t-7 -0.5v0q-3 -3 -8 -3h-4.5t-5.5 -2t-6.5 -5.5t-9.5 -5.5q-11 -5 -22.5 -11t-25.5 -12q-17 -6 -20 -23l-13 -50l-3 -7q0 -2 -3 -2q-3 -1 -3 3q0 13 2 39l1 4q1 2 1 5q0 11 -14 8
q-9 -3 -22 -5.5t-21 -6.5q-6 -3 -14.5 -6t-14.5 -5q-19 -8 -23 -27q-1 -4 -5 -18.5t-2 -27.5v-1q0 -8 -9 -8h-1q-7 0 -9 7q-1 2 -1 5q0 7 8 17l-1 -1v1v0q3 3 0 8l1 -1l-1 1v-8q-4 3 -4.5 4.5t0.5 6.5v1v0v0q1 2 1 6q0 12 -10 12q-33 0 -70 -8q-7 -2 -15.5 -1.5t-11.5 0.5
q-14 0 -18 12l-2 10q-1 6 -6 9q-2 1 -4.5 2t-2.5 3q0 5 3.5 6.5t7.5 2.5l37 4q44 6 63 12q7 1 15.5 4.5t12.5 4.5q17 6 20 23q3 10 5 24t4 22q2 6 -5 8q-4 1 -13 3.5t-16 2.5q-3 0 -13 -2q-1 -1 -3.5 -1.5t-3.5 -1.5q-4 -10 -14 -5q-6 3 -17 5t-15 4q-10 3 -15 12t-8 21
t-5 18l-1 2q0 6 7 8l14 1q45 1 112 21q22 6 26 28l7 29q8 28 9 42l3 18q10 30 16 67q0 3 2 11q3 6 11 8h1q10 0 14 -7q3 -2 4 -7q11 -31 11 -51q0 -6 -2 -18q-4 -25 -18 -78q-2 -10 -2 -11q0 -7 6 -7l12 2q18 5 33 13q9 4 12 16l12 64q6 20 8 30q5 19 6 35q0 11 3 23.5
t4 17.5q2 10 4 14q2 3 6.5 2.5t6.5 0.5q6 2 7 2q6 0 9 -7q8 -22 8 -32q0 -34 -14 -80l-15 -60l-1 -2q0 -2 2 -4t5 -2q6 0 16 2q10 3 23 3q-5 -7 -5 -11t4 -8q2 -2 2 -6.5v-5.5q1 0 3 -0.5t2 -2.5q0 -6 -11 -12l-49 -28q-14 -9 -18 -20q-12 -34 -25 -77q-1 -4 1 -6t5 -1
q6 2 16.5 3t17.5 5l8 2q5 0 11 -3l6 -2q1 0 7 7q1 0 1 0.5zM473 364.5q2 -2.5 2 -5.5t-2.5 -5t-5.5 -2q-6 2 -6 8q0 7 7 7q3 0 5 -2.5zM417 357v0v0v-1v1zM433 343q-2 -4 -5 -4q-2 0 -2 3q0 6 3 6q4 0 4 -5zM396 335q0 -6 6 -10q3 -5 6 -5q2 0 10 5l-17 12l-2 1q-3 0 -3 -3z
M303 238q0 11 -10 11h-4t-5 2q-4 4 -9 2t-11 -4q-26 -9 -37 -35l-21 -55q-2 -8 -2 -12q-1 -1 0 -2.5t3 -1.5q5 0 8 1q22 5 62 23q10 4 14 11.5t8 23.5q-2 8 -2 11q0 9 5 19q1 2 1 6zM458 209q0 -3 -1 -4q0 -1 -2 -3l-2 3v4q2 2 3 2zM394 192q0 -1 -0.5 -1h-0.5v0zM400 177
l1 -1v0zM339 157l-2 3q-2 1 -3.5 0.5t-2.5 -2.5q0 -3 2 -3q3 -3 6 2zM281 42v-2h-1l-1 1zM267.5 -27l0.5 -1l-2 -2q-1 0 -1.5 1l-0.5 1l2 2q1 0 1.5 -1z" />
    <glyph glyph-name="dollar" unicode="$" horiz-adv-x="450" 
d="M338 159l-24 -24q-10 -10 -27 -22q-20 -15 -52 -31q-11 -6 -22 -9q-2 -1 -4.5 0t-3.5 3q-1 3 3 7l5 3q-9 0 -14 -1.5t-9 -6.5q1 0 1 -1q4 -6 3.5 -9t-5.5 -5q-8 -4 -22 -8q-3 0 -20 -6q-8 -1 -10 -11v-9q0 -12 2 -18q3 -14 2 -25q-1 -4 -4 -5.5t-7 0.5q-6 6 -14 11
q-3 3 -3 7q0 8 -6.5 19t-7.5 16q-15 13 -24 17q-4 -6 -6.5 -6t-6.5 5l-3 5q-6 -2 -9 -2q-6 0 -6 5v3t-2 3q-14 2 -14 22q-5 30 -7 37q-1 2 -1 7q0 10 6 17l10 12l10 12q4 4 10 6l21 5q2 -4 2 -7t-2 -11q-2 -4 -5 -13.5t-7 -15.5q-1 -2 -1 -5q0 -6 8 -8q5 0 8 -1h4
q8 0 12 3.5t5 12.5q2 10 3.5 24t2.5 22l3 14q10 30 17 74q1 10 4.5 23t4.5 20q1 6 2.5 12.5t2.5 14.5v4q0 18 -18 21q-16 3 -27.5 12t-23.5 24q-2 2 -12 17q-24 32 -24 79q0 19 3 37q2 10 10 10q7 1 15 6t12 6q3 1 6.5 2t6.5 2l2 1q3 0 6 -3t5 -3t5.5 4t7.5 2v1l3 8v0v0l4 4
v0h1l-5 -4l-3 -8l4 -2q2 0 4 2.5t3 3.5v0h5v0v0v0l8 -1q9 0 18 6q4 3 9 -1v0q8 6 10 6q22 4 31 32q10 35 14.5 60.5t3.5 50.5v9q1 3 3.5 4.5t4.5 0.5q40 -19 55 -48q2 -3 2 -10q0 -8 -1.5 -21t-2.5 -21q-2 -9 0 -14t7 -5q7 0 11 9q3 4 9 6q9 3 16 3q30 0 30 -45
q0 -20 -8 -35q-4 -9 -13 -9q-25 0 -38 -1q-9 0 -25 -2q-10 -1 -13 -10q-1 -2 -4 -11q-12 -38 -32 -114v-4l-2 -9q0 -5 3.5 -8t9.5 -6l14 -7q45 -21 74 -41q18 -12 31 -28q19 -22 19 -57q0 -54 -37 -87zM154 422q6 -2 8 3q0 3 2 5l20 82q1 2 1 6q-2 7 -7 6q-4 -1 -15 -2.5
t-19 -4.5q-22 -8 -45 -19q-12 -6 -17 -10q-2 -2 -2.5 -4.5t0.5 -4.5q15 -18 14 -17q23 -22 58 -40h2zM322 227q0 16 -8 30q-4 8 -3 13t-6 5h-5v-2q-12 0 -17 1q-6 1 -10 9l-1 4q0 2 4 6q3 3 2 5.5t-4 4.5q-8 4 -17.5 10t-22.5 12l-7 2l-9 1q-10 0 -16 -13q-4 -7 -6 -15
q-3 -12 -8 -29t-10 -39q-9 -39 -17 -61q-6 -25 -6 -29l-1 -3q0 -12 14 -10q5 0 6 1q12 8 40 14q2 0 3 1t3 1q10 5 20.5 11.5t20.5 11.5q15 8 31 22.5t24 21.5q6 6 6 14zM299 278v-2v1v1zM300 272v1v-1zM300 272v1v-6v0v1v4zM300 267zM229 92h-1v-1zM182 74.5q6 2.5 8 3.5
l-7 1q-5 0 -10 -3q-5 -4 1 -9q2 5 8 7.5zM75 52l-1 2q0 1 -1 0.5l-1 -0.5q0 -2 3 -2z" />
    <glyph glyph-name="percent" unicode="%" horiz-adv-x="460" 
d="M396 607q0 -22 -9 -43q-7 -19 -26 -46q-56 -84 -85 -126l-25 -34q-10 -14 -16 -21l-97 -135q-20 -26 -47 -75q-10 -17 -16.5 -30l-10.5 -21q-4 -5 -4 -14q0 -5 3 -11q3 -3 3 -7q0 -9 -10 -19q-7 -5 -10 -5q-5 0 -9 4q-7 6 -12.5 12.5t-7.5 13.5h3q6 0 6 8t3 17l4 12
q3 8 4 9q10 6 13 21q1 3 6 10t5 13q0 3 2.5 5.5l3.5 3.5t7 8t6 16q4 6 10 20q8 16 10 19l26 43q6 12 10 18l5 9l61 89q10 13 18.5 26.5t18.5 26.5l18 26l7 11q6 11 15.5 26t15.5 25l4 5q5 14 21 40q3 5 7 11.5t8 15.5l3 7q1 2 -1 4.5t-4 2.5l-27 -5l-6 -2t-8 -1
q-13 -2 -29 -5.5t-22 -5.5l-21 -6l-12 -3q-11 -3 -11 -14v-12q0 -27 -18 -50q-17 -22 -47 -39q-10 -5 -19 -5t-19 5q-10 6 -13 12q-2 4 -4 7.5t-4 7.5q-5 16 -8.5 32t-3.5 31q0 22 12 35l5 6q10 10 10 24q0 7 -1 10q-2 5 -2 16q0 7 1 10q2 8 9 7q18 -2 27 -2q12 0 18 1h1
q3 0 12 -3q9 -4 20 -4h9q6 1 18.5 2t21.5 5q9 5 18 3q6 -2 11 0q10 4 14 4q5 0 11 -3q1 -1 4 -0.5t5 0.5t5 1t5 0t6 -1q6 0 14 4l6 2v0q5 -2 7 0l13 8v0q3 -1 11 -1q6 0 10 5q2 2 5.5 1.5t5.5 -2.5q5 -5 8 -11q15 -27 15 -55zM341 670v0v0zM358 197q14 -14 14 -33
q0 -24 -10 -49q-4 -8 -7 -12q-38 -42 -72 -57q-9 -4 -21 -4q-13 0 -24 7q-6 4 -8 8q-14 24 -19.5 36.5t-5.5 28.5q0 52 31 89q10 13 30 13q6 0 10 -1q6 -1 17 -1q41 0 65 -25zM334 148q0 6 -8 9q-8 4 -19 4q-19 0 -45 -11q-13 -5 -18.5 -13.5t-5.5 -22.5q0 -24 16 -24
q3 0 11 2q38 11 66 49q3 5 3 7zM17 51v-1v1z" />
    <glyph glyph-name="ampersand" unicode="&#x26;" horiz-adv-x="490" 
d="M439 306q0 -8 -2 -24q-6 -35 -25 -72q-27 -51 -90 -110q-7 -6 -17 -13t-16 -11q-10 -7 -10 -12q0 -3 8 -11q6 -4 16 -12.5t19 -13.5q7 -4 15.5 -10.5t13.5 -9.5q6 -4 8 -12q1 -4 4.5 -6t4.5 -2v1v0h5v-5v0h-1q3 -3 9.5 -5t9.5 -4q4 -2 2 -7q-1 -3 -5 -3q-3 1 -7.5 2
t-10.5 4q-48 21 -80 41l-37 27q-7 5 -12 5q-4 0 -9 -3q-59 -25 -74 -30q-32 -13 -69 -13q-47 0 -67 34l-4 5q-17 17 -27 37q-5 3 -6 9t-1 12q4 33 15 53q3 4 6 7.5t8 4.5q14 3 15 15l3 6q6 1 10.5 9.5t7.5 11.5q4 3 8.5 10.5t7.5 11.5q3 3 5 3q6 -1 10 1.5t10 9t10 8.5
q7 5 5 13q-2 22 -5 33q-8 31 -18 95q-2 12 -2 20q0 10 5 50l1 2q3 42 25 76q4 7 5.5 12.5t3.5 9.5q6 14 16.5 28t18.5 23t13 14q14 18 37 39q25 25 46 31q4 2 17.5 7t25.5 5q4 1 13 1l26 -1q19 -2 28 -14q2 -3 4.5 -4.5t4.5 -3.5q12 -10 18 -20l12 -19q18 -22 18 -52
q0 -47 -27 -94q-4 -7 -10 -19.5t-13 -20.5q1 2 -13 -16q-4 -5 -11 -5v-3q0 -10 -7 -17q-12 -12 -34 -38q-5 -6 -13 -13.5t-12 -14.5q-1 -2 -4.5 -3.5t-5.5 -2.5q-2 -7 -3.5 -7.5t-5.5 1.5q-5 2 -6.5 1t-0.5 -7v-1q0 -5 -5 -8q-1 -4 -5.5 -6.5t-6.5 -3.5q-17 -12 -33 -31
q-3 -3 -3 -7q0 -5 -1 -6.5t-5 -1.5q-10 0 -13 -10q-12 -6 -12 -13q0 -2 3 -7q0 -2 -2 -6q-1 -2 -1 -7q0 -3 2 -9q11 -32 40 -76q5 -8 13 -8q7 0 12 4q3 1 7 5q83 66 123 156q16 37 17 66v4l-1 25q0 8 8 5q14 -4 27 -22q4 -6 6.5 -11l4.5 -9q12 -20 12 -47zM133 387
q0 -19 4 -55q2 -15 12 -24q4 -4 7 -1q8 6 19.5 14t17.5 14h-1q4 8 14 5q5 -3 7 1q0 1 -1 2t-1 3q-2 3 -2 7q0 8 10 9l4 -1q6 -1 6 6q0 1 -0.5 2t0.5 2q5 2 9 8.5t7 9.5q4 4 7 -1q0 -1 0.5 -3.5t4.5 -1.5l3.5 7t6.5 8q3 2 3 8t2 8q10 4 11 11q1 4 6 7l19 23q12 14 26 21
q4 2 7 7t5 7t2 4l-2 8q-1 2 -1 6q0 6 5 8q2 3 7 4q7 1 9 10q0 6 2 14v0l-1 8q0 4 4 6t12 5q-1 2 -2 5t-1 7q0 8 6 12q4 5 0 12q-1 1 -1 3q0 5 8 5l-21 31q-10 14 -19 16q-22 7 -39 5q-41 -6 -77 -34q-21 -18 -50 -50l-7 -10q-39 -69 -44 -132q-3 -22 -3 -46zM188 632z
M390 578l-1 1l-1 -2h2v1zM292 423q1 0 2 1v1q0 1 -5 6l2 -7q0 -1 1 -1zM272 414v0v0v0v1v-1zM310 402.5v0.5l-2 1v-2h1q1 0 1 0.5zM300 390h-2q-3 -2 -5 -8q6 2 7 6v2zM269 360h-1l1 -1v1zM267 344v0v2v-2zM246 323v1v1v-2zM180 256h1h-1zM180 256zM178 249l3 7q0 -1 1.5 -3
t-0.5 -4q0 -1 -3 -1zM184 117l-16 24l-26 43q-4 9 -12 1q-6 -7 -17.5 -20.5t-18.5 -24.5q-5 -8 -17 -24q-11 -15 -18 -39v-4q0 -9 11 -9q2 1 7 1q47 9 95 31l9 5q10 8 3 16zM368 -13q3 -1 4 -4v5zM408 -36l-1 -2q-3 0 -1 2h2zM430 -40l2 1v-1h-2z" />
    <glyph glyph-name="quotesingle" unicode="'" horiz-adv-x="210" 
d="M155 618q7 -20 7 -44q0 -22 -4 -39q-8 -45 -46 -73l-12 -11q-10 -8 -14 -9q-2 0 -3.5 -1.5t-3.5 -1.5q-4 0 -4 3t5 10q11 10 16.5 19t12.5 27q-11 -5 -13 -6q-2 -2 -4 0q-1 1 -1 3l12 30q8 20 10 31q1 5 1 16q0 9 -3 18q-2 8 -5 20.5t-6 20.5q-1 2 -1 5q0 5 3.5 8t9.5 3
q32 0 43 -29z" />
    <glyph glyph-name="parenleft" unicode="(" horiz-adv-x="270" 
d="M50 243v-12q-2 -58 15 -114q7 -26 24 -54q21 -34 53 -48q3 -1 12.5 -4.5t16.5 -9.5q3 -2 5 2q3 3 1 7q-3 5 -6 6q-8 5 -30 27q-32 34 -35 74q-1 5 -2 12.5t-1 17.5q0 12 4 21q1 1 1 3q0 34 2 50q4 59 17 123q18 94 62 172q31 54 62 83q16 14 29 14q7 0 10 -1q2 -1 6 -1h1
q7 0 10 7t2 14q-4 22 -24 46q-10 13 -26 13l-10 -1q-2 0 -10 -2t-13 -9q-2 -3 -10 -5q-7 -2 -16 -11q-14 -15 -29 -37q-6 -9 -17.5 -26.5t-18.5 -30.5q-8 -14 -17 -37q-10 -27 -19 -50q-17 -38 -29 -87q-12 -47 -19 -121l-2 -31h1z" />
    <glyph glyph-name="parenright" unicode=")" 
d="M249 412q0 -14 -2 -40q-8 -88 -41 -163l-23 -51q-8 -18 -14 -25q-17 -21 -24 -36q-1 -2 -8 -9q-22 -16 -32 -31q-9 -13 -28 -23l-14 -8l1 1q-7 -5 -12 -1v0q-18 -14 -27 -20q-6 -4 -9 3l-19 -7q-4 -2 -8 4l-1 -1l1 2q0 2 -1 3h1q-1 1 -1 4q0 6 6 10q29 20 56 49
q47 52 69 91q30 58 40 90l3 18v0v0v0v0v0q6 6 6 12t-2 9v0v1v0v-1q2 13 7.5 29.5t7.5 25.5q18 66 18 136q0 68 -47 104q-2 2 -12 10t-20 11q-8 3 -11 11q-7 13 -11 30t-6 24l-1 4q0 6 5 9.5t12 2.5l25 -11q14 -9 22 -18q30 -33 51 -67q9 -16 15.5 -36t8.5 -26
q19 -57 19 -120zM176 309h-1l1 -2v2zM166 293l-4 -21l-5 1q4 14 9 20zM157 273v0v0v0v-1v1zM156 269l1 3v-3q0 -2 -1 -2v2z" />
    <glyph glyph-name="asterisk" unicode="*" horiz-adv-x="350" 
d="M368 545q-21 -16 -29 -26q-3 -5 -10 -7q-22 -8 -40 -11l-11 -2q-6 -3 -10 -6.5t-4 -7.5t3 -10q3 -5 13 -28q5 -16 10 -30t9 -25q2 -10 2 -15l-1 -12q-2 -4 -4 -4q-3 -2 -7 2l-1 1q-3 11 -15 31q-11 17 -13 24q-5 12 -17 36q-4 9 -12 3q-28 -22 -26 -20q-10 -8 -23 -15
q-2 -1 -14 -8q-9 -9 -18 -9q-8 0 -13 1t-8 6v0v0v0q5 20 16 30q7 6 12.5 16t7.5 14q1 1 1 3q0 4 -2.5 6.5t-6.5 1.5l-50 -7l-18 -3h-4q-11 0 -19 8l-7 11q-9 14 -18 42q-1 1 -1 4t5 6q11 3 22 3l109 4q9 0 14 1t5 4t-5 16q-18 51 -23 80q-3 15 -1 33v5q1 4 4 6.5t7 0.5
q12 -5 16 -16q8 -16 12 -51q1 -13 8 -28l12 -28q1 -1 3 -4.5t4 -3.5q3 0 10 4l14 21q6 8 31 42q10 15 34 41q4 4 11 4q9 0 13 -7q4 -6 5 -9q6 -12 6 -31q0 -28 -15 -45q-7 -7 -17 -21l-6 -10q-1 -2 0 -4.5t4 -3.5zM117 413h12v-5q0 -10 -6 -11q-4 0 -7 3t-3 7q0 5 4 6z" />
    <glyph glyph-name="plus" unicode="+" horiz-adv-x="440" 
d="M354.5 269.5q3.5 -3.5 7.5 -3.5q-10 -7 -20 -11q-19 -6 -35 -15q-4 -2 -14.5 -7.5t-19.5 -6.5q-19 -4 -24 -26q-5 -28 -19 -84q-1 -5 -1.5 -13.5t-5.5 -14.5q-10 14 -10 39q0 14 1.5 34.5t2.5 34.5q1 5 -0.5 5t-3 -1t-2.5 -1h-4q-7 5 -19 5q-7 0 -23 -2l-18 -1
q-3 -1 -9 -1q-20 0 -42 10q-16 6 -23 20q-12 20 -20 38q-3 5 -3 9l-1 2q0 7 7 7q8 0 22 -4q28 -12 66 -12q39 0 58 2q9 1 12 4t5 12l6 62q1 10 5 35q2 7 4 21q2 6 7 6h10q16 -3 17 -18q3 -18 3 -37q0 -13 -1 -20q-2 -15 -4 -45v-2q0 -8 10 -8q8 0 12 1l10 1q3 0 9 -2
q5 -2 9 1q6 2 8 0q2 -3 -2 -9q-1 -1 -1 -3t1.5 -3t2.5 -1q4 0 10 6q4 4 13 1q3 -1 6.5 -4.5zM414.5 303q0.5 -1 1.5 -1q-2 -7 -6 -9q-1 -1 -2 -1t-1 1q-2 4 1 9l4 2q2 0 2.5 -1zM370 278q12 2 19 4q-2 -5 -6.5 -6.5t-6.5 -2.5q-8 -6 -13 -6q0 8 7 11zM363 267v-1h-1h1v0v1z
" />
    <glyph glyph-name="comma" unicode="," horiz-adv-x="225" 
d="M119 49q11 -26 11 -56q0 -66 -43 -101l-12 -10q-4 -6 -12 -9q-2 -1 -3.5 -2t-4.5 -1q-4 0 -4 3q0 5 5 9q10 11 15 20t10 27l-12 -7h-4q-2 2 -1 4q6 20 10 30q6 20 7 30l1 11q0 11 -5 24q-3 6 -7 20t-7 20q-2 4 -2 6q0 4 4 7t9 3q31 0 45 -28z" />
    <glyph glyph-name="hyphen" unicode="-" horiz-adv-x="320" 
d="M303.5 322q0.5 -1 -0.5 -2l-2 -2v3q0 1 2 3q0 -1 0.5 -2zM301 318v0v0v0v0h-1h1zM300 318v-3q-1 2 0 3zM289.5 300.5l-0.5 -0.5l-13 -12q-10 -7 -25.5 -19t-27.5 -18q-6 -3 -11 -8q-7 -5 -8 -5l-67 -28q-5 -2 -14.5 -3t-15.5 -2l-11 3l-5 2.5t-6 1.5h-1q-13 0 -20 14
q-10 22 -18 60v3q0 7 9 8q3 1 9 1q12 0 20 -7t20 -7q20 0 41.5 6t26.5 7q17 4 51 14q7 3 14 3q15 0 25 -11l3 -3q8 -6 14 -1q1 1 7 4q1 0 3 -2q1 0 0.5 -0.5z" />
    <glyph glyph-name="period" unicode="." horiz-adv-x="190" 
d="M104.5 42q1.5 -4 0.5 -8q-3 -12 -17 -30q-1 -2 -7 -4h-1q-5 0 -12.5 4t-9.5 7q-1 2 1 4t7 3.5t7 5.5q-10 3 -10 12q0 4 4.5 8t9.5 5q3 1 7 1q7 0 15 -3q4 -1 5.5 -5zM74 26v-1v0v1z" />
    <glyph glyph-name="slash" unicode="/" horiz-adv-x="330" 
d="M39 85q-2 -8 -2 -10q0 -9 12 -15q1 -1 1.5 -2t1.5 -2t0.5 -2t-0.5 -2q-1 -1 -4 -1l-10 9q-4 4 -7 2q-1 -1 -1 -4q0 -6 3 -13.5t4 -12.5q1 -6 8 -9t16 -3q13 0 19 7q2 2 0.5 4.5t-4.5 2.5q-10 2 -11 4t0 11l1 15q0 10 1 14q3 6 11.5 27.5t18.5 38.5l15 30q15 34 35 73.5
t26 50.5l23 43l34 64l14 28q10 18 28 56l9 18l16 38l18 40q9 18 9 36q0 22 -12 43q-9 16 -29 13q-9 -2 -12 -8q-10 -19 -21 -52q-13 -35 -20 -48q-4 -10 -7 -14q-7 -12 -8 -16q-4 -12 -16 -36q-9 -21 -45 -95q-5 -10 -9 -17.5t-7 -13.5q-14 -26 -20 -39l-23 -51
q-5 -13 -17 -39q-15 -37 -17 -60q0 -1 -0.5 -5.5t-3 -8t-6.5 -4.5q-3 -2 -6 -12q-1 -5 -5.5 -18.5t-2.5 -25.5q0 -3 -2 -7q-1 -2 -1 -6t4 -10q2 -4 1 -6z" />
    <glyph glyph-name="zero" unicode="0" horiz-adv-x="450" 
d="M426 444q0 -23 -2 -35q-1 -2 -1 -7q0 -15 -3 -29l-5 -29q-2 -5 -4 -15q-5 -15 -9 -29.5t-8 -26.5l-7 -14q-6 -8 -6 -10q-5 -16 -24 -49q-16 -29 -43 -69l-4 -5q-7 -8 -19 -24l-16 -20q-5 -7 -29 -28l-9 -8q-12 -10 -27 -15q-10 -4 -32 -10q-2 -1 -7 -1l-8 2l-12 2
q-4 2 -9.5 3t-8.5 3t-7.5 3.5l-7.5 2.5l-9 6l-9 8q-1 1 -2.5 2t-4.5 2l-15 11l-16 18q-12 12 -21 38q-7 25 -6 44v11q0 6 -1 8q-3 9 -3 19q0 7 2 23q0 4 3 5q2 4 1 5q-4 6 0 13q2 4 2 6q0 3 -1.5 7t-0.5 6q2 5 2.5 14t1.5 13q5 9 3 19v1q0 3 1 4.5t1 3.5l1 4q0 9 2 29
q0 10 3 17q4 8 4 13q0 3 1.5 7t2.5 6q0 2 0.5 6t2.5 7q2 5 4 19q0 4 -1 6q-3 8 -4 20t-2 18q0 3 2 7q2 5 0 9l-1 2q0 2 1.5 4.5t0.5 4.5q-1 1 0 2t1 2l5 4q6 4 4 10v6q-1 3 2 6q3 1 4 4.5t2 5.5q1 3 1 10q3 13 15 25q2 2 5 4t5 5q3 6 7 10q3 3 6.5 10t6.5 9q8 7 15 17
q1 1 11 14q10 10 18 14q3 1 5 3t5 3q2 2 7 2l2 3q2 4 7 2q2 -2 4 -2q1 -1 2 -1h1q3 2 8.5 3.5t9.5 3.5t12 4t10 6q2 2 3 0.5l1 -1.5l3 -2q5 3 15 1q28 -6 40 -12q3 -1 7.5 -5t7.5 -5q23 -12 45 -37q19 -22 26 -36q6 -10 16 -32q2 -5 3.5 -11.5t2.5 -10.5l5 -17q9 -46 7 -75z
M217 681h-1v1zM188 661q2 0 3 1q2 2 -2 5l-2 -4zM368 469.5q0 1.5 1 2.5q7 4 7 13q0 7 2 19q0 5 -2 8q-5 9 -2 14l-2 6t-1 7q0 12 -4 17q-3 10 -9 20t-13 20q-11 14 -29 23q-10 6 -23 6q-24 3 -45 -6q-4 -2 -6 -2q-11 -4 -9 -12v-6v-1q0 -6 -4 -10l-11 -9l-10 -11
q-18 -29 -23 -41q-2 -4 -5 -11t-6 -11q-4 -6 -6 -14t-2 -10l-3 -5q-9 -21 -10 -29q0 -4 -2 -8q-4 -8 -8 -22l-5 -16q-7 -22 -10 -34q-8 -22 -11 -40l-3 -19q-1 -4 -3 -10t-2 -11q1 -1 0.5 -2.5t-1.5 -2.5q-2 -5 -3.5 -16t-3.5 -16q0 -13 -4 -39q-3 -20 -1 -46v-28
q1 -7 1 -23q0 -3 1.5 -7.5l2.5 -7.5q0 -8 8 -13q14 -8 28 -8q26 0 52 22q26 20 47 44q4 5 10 11.5t9 11.5q5 8 13 19.5t12 17.5l8 9q3 3 3 5q1 4 8 16q5 5 5 6q1 4 4 9t4 9q3 7 10 10q3 2 2 4t-1 3q-1 3 3 3q2 0 2 -1q6 0 6 2q0 3 -2 3q-5 4 -4 10l9 18q1 3 6 5q3 0 7 4
q1 0 1 0.5v0.5q0 1 -2.5 2.5t-4.5 1.5q-3 0 -2 2q0 3 4 12t5 17l2 -14l2 -1h1l2 6q1 1 1 2.5t1 2.5q6 6 7 10q0 2 1.5 5.5t0.5 5.5t0 3l2 2q2 2 2 3l-5 9q-1 1 -1 3.5v3.5v0v0h1v0q4 1 5.5 2.5t1.5 4.5q2 4 0 7l-2 4q0 4 1 6.5t2 4.5q0 1 1 5.5t-1 7.5q-2 2 0 4t1 8t1 9
l-2 3l-7 5q-1 1 -1 2.5zM366 531h-1v2q1 1 1 -2zM68 467v0.5t-1 0.5l-1 -3l1 -1l1 1v2zM370 428l-1 1h1v-1zM366 410v-1h-1zM366 398v-1h0.5t0.5 -1q-2 0 -2 2h1z" />
    <glyph glyph-name="one" unicode="1" horiz-adv-x="302" 
d="M307 619q0 -3 -2 -11q-11 -42 -37 -126q-10 -32 -28 -96l-26 -93l-5 -19l-21 -98q-1 -4 -5 -17q-1 -2 -2.5 -6.5t-1.5 -6.5q0 -13 -3.5 -29t-5.5 -25q-6 -22 -10 -32q-2 -3 -2 -9q0 -5 3 -11q7 -11 11 -36q1 -1 -1 -3q-1 -2 -5 0l-27 23q-1 1 -2 2.5t-1 2.5q2 6 0 10.5
t-7.5 12.5t-4.5 14q-4 6 -5 19t-4 19q3 5 3 17v12q0 8 1 12q4 15 4 33q2 25 6 49l5 31q6 28 8 46q4 33 16 89l8 37q2 12 7.5 30.5t8.5 31.5q0 2 1.5 5.5t0.5 6.5q-1 2 -3 3t-3 0q-11 -7 -20 -16q-28 -32 -63 -53q-11 -7 -31 -11h-4q-10 0 -16 9q-4 4 -7 10q-7 12 -23 36
q-4 10 -4 11q0 6 11 12q26 14 38 22q12 6 26 20l63 59l23 23l14 15l36 33l15 14q5 5 12 1q23 -7 42 -37q4 -6 6.5 -11t5.5 -9q5 -8 5 -16zM148 46l-1 1v-2z" />
    <glyph glyph-name="two" unicode="2" horiz-adv-x="437" 
d="M417 490q0 -12 -3 -24q-7 -24 -23 -48q-13 -20 -38 -47l-20 -19q-37 -37 -45 -44q-21 -17 -60 -54l-24 -24q-46 -44 -70 -64q-13 -11 -51 -49q-8 -8 -10 -13v-3q0 -4 5 -6q5 -1 15 -1t14 1q39 5 65 15l70 26l4 1h4q11 0 20 10q2 2 6 1.5t6 -2.5q7 -4 13 2q3 3 8 5
q4 4 10 4t13 -6q1 -1 0.5 -3t-0.5 -3v0q-3 3 -6 3q-6 0 -8 -6q0 -3 -1 -6t-1 -5v-1q0 -4 2.5 -6.5t5.5 -2.5t8 2t7 2q0 -8 -8 -14l-21 -15q-27 -20 -48 -31q-20 -10 -36 -23l-4 -4l-30 -12q-35 -18 -63 -24l-6 -1l-42 9q-3 0 -4.5 1t-3.5 2h-2q-2 0 -6 -1t-6 2q-4 4 -10 12
q-12 15 -18 26.5t-8 25.5q-3 14 -8 34q-2 6 -2 17q0 25 19 47q22 24 32 37q4 4 12 7v-4l4 -1q4 0 7 5q2 2 3 4l2 4q6 2 7 3t1 8h5.5t7.5 -5q1 -3 6 -1q4 3 4 7l-3 16q0 1 -5 3l-4 -8v0v0l4 9v-1q6 8 12 8l11 16q5 5 8 4q3 0 9 -4q1 1 5 4t4 7q-1 10 4 16t15 13q9 6 11 10
q5 9 19 9l-1 5q0 7 7 12q24 20 34 30q50 46 73 72q28 29 43 55q4 6 5 9q2 3 2 9q0 7 -7 13q-19 15 -41 24l-31 12q-59 27 -129 24q-16 -2 -23 -4q-14 -2 -22 -11q-4 -7 -11 -7q-5 0 -10 3q-8 4 -10 6q-6 4 -7 11l-3 35v3q0 16 15 23q22 8 34 9q22 3 45 3q31 0 63 -3
q7 -1 21 -5q20 -6 32 -7q13 -2 23 -6l38 -16q16 -7 33 -22q20 -20 21 -43q1 -7 3.5 -17.5t3.5 -16.5q9 -31 9 -52zM149 283v-8q6 6 0 8zM149 275h-8q3 -3 8 0zM94 244q3 7 11 7q-2 -2 -11 -7zM94 244l-1 -1v1h1v0h-1h1zM93 240h-3l3 3v-3zM94 240v-1h-1v1h1zM85 235v1v0v0
q3 1 4 4v0h1v0v0v0l-4 -5v0h-1zM85 228h-11q4 5 11 7v-7zM73.5 227h-0.5v0.5t1 0.5q0 -1 -0.5 -1zM74 228v0v0zM86 228v0h-1v0v0h1zM70 221l3 6q0 -4 -3 -6zM70 220v0v0v0v0v1v-1zM97 218q-1 0 -1 -1q-1 0 -0.5 -0.5l0.5 -0.5h0.5t0.5 1v1zM368 173q-4 -15 -10 -20l-1 17
q0 2 2 6q0 3 4 3q7 0 5 -6zM357 153h1v0h-1zM358 153l-5 -4v0l4 4h1zM353 149v0v0zM347 136.5q-3 -4.5 -9 -6.5q6 15 15 19q-3 -8 -6 -12.5zM338 129l-4 -4h-1l5 5v0v-1v1v-1zM334 125h-1h1zM286 113h1h-1z" />
    <glyph glyph-name="three" unicode="3" horiz-adv-x="448" 
d="M403 287l-1 -12q-2 -20 -7 -34q-5 -17 -14.5 -32.5t-25.5 -37.5q-21 -28 -69 -61q-48 -34 -72 -50q-43 -30 -84 -39l-16 -6q-22 -8 -40 -11h-7q-7 0 -11 5q-4 4 -10 1q-3 -2 -5 0.5l-2 2.5q-2 3 -4 13q-2 5 -5 18t-10 21q-4 5 0 9q8 10 29 16q3 2 7 -2q6 -5 15 -5
q4 0 16 4q26 10 65 28l49 24q16 7 24 15q6 6 16 11q53 30 98 78q11 11 6 21l-1 3q0 2 1 4l2 4q2 8 2 13l1 2q0 6 -8 8l-55 13q-14 2 -21 1q-14 -3 -32 -1q-34 3 -79 -13q-19 -8 -37 -14.5t-34 -13.5q-12 -4 -15 -4q-6 0 -10 4.5t-8 14.5q-10 24 -13 53q-1 2 -1 5q0 23 16 27
q8 4 11 4q7 0 15 6q20 18 51 29q11 5 26 16q3 3 29 18q6 3 18 11q7 3 13 9l48 38l9 6q17 7 27 23q1 1 6 4v0q12 8 21 18.5t21 27.5q2 4 2 6q0 5 -8 7q-6 1 -15 2t-21 1q-11 0 -23 -3q-28 -6 -42 -8q-8 -2 -26 -5.5t-32 -7.5l-22 -6l-6 -2t-8 -1l-12 -2q-10 0 -13 5t-5 19
q-1 6 -2.5 14.5t-1.5 14.5t1 8q2 11 4.5 13.5t12.5 3.5q4 0 11 1t12 2q2 1 6 1q7 0 9 -6q4 -5 12 -3q7 1 19 2.5t20 3.5q13 4 37 8q8 2 12 6q2 2 3 6.5t4 3.5q3 0 7 -3t5 -4q4 -2 11 0q5 3 0 8q-3 5 1 6l6 1h13q10 0 16 2h3q6 0 10 -6q1 -2 2.5 -1.5t2.5 2.5q1 6 6 6
q16 0 33 -17q8 -9 15 -25q1 -1 10 -23q1 -5 -2 -10v1q3 -10 3 -20q0 -22 -18 -62q-8 -14 -10 -16q-21 -24 -36 -39t-32 -27q-14 -9 -40 -31l-5 -4q-2 -2 -1.5 -5t3.5 -5l13 -3q26 -9 43.5 -16.5t33.5 -18.5q34 -24 34 -67zM318 658l-2 -2q0 -2 2 -2l2 1q0 3 -2 3zM185 647.5
l-3 -1.5l-3 -2v3q2 7 6 6h0.5t0.5 -1q2 -3 -1 -4.5zM348 652q-1 2 -3 0v-2h3v2zM179 644v0v0v0zM305 529l1 2v2q-1 -1 -1 -4z" />
    <glyph glyph-name="four" unicode="4" horiz-adv-x="442" 
d="M383 409q0 -4 -2 -16q-3 -9 -27 -86l-10 -33q-2 -6 -2 -8q-2 -21 -14 -61l-10 -38q0 -5 -3 -10q-11 -18 -8 -33l-1 -6q-6 -12 -9 -28q-8 -30 -17 -43q-3 -6 -3 -7q0 -6 -1.5 -20.5t0.5 -22.5l2 -25v-1q0 -5 -5 -7q-4 -2 -7 1q-17 11 -13 25v4q0 8 -7 17q-6 6 -6 13
q0 6 4 11q4 4 -1 7q-7 6 -7 14q0 4 2 14t2 15q0 8 -2 12l2 24q2 30 6 45v0l8 50l1 15q0 4 -2.5 6.5t-6.5 2.5h-12t-19 -5q-25 -11 -58 -11q-4 0 -7 1t-5 2q-6 4 -10 1t-10 -3q-9 0 -21 10l-15 13q-13 13 -17 26q-4 12 -14 34q-10 19 -10 41q0 12 2 18q12 58 26 99q3 7 7 21
q2 6 5 13.5t6 15.5l9 23q26 62 42 126q1 4 3.5 14.5t7.5 20.5q3 -4 7 -11.5t9 -11.5q13 -11 16 -12q13 -6 13 -20q0 -12 -3 -23l-9 -38q-19 -70 -25 -89q-5 -14 -13 -44l-6 -21q0 -5 -2 -7q-6 -7 -8 -15t-3 -20q-2 -10 -6.5 -24t-6.5 -22h1l-1 -2q0 -10 11 -10h6q15 0 22 1
l67 9l16 3h2q6 0 9 -7q3 -8 -3 -11q-6 -4 -7 -7v0q3 -3 5 -9.5t4 -11.5q3 -8 11 -2q4 2 5 6q2 12 4 16q2 5 6 17.5t11 21.5q3 4 5 15l7 28l14 52q5 17 19 51q0 1 1 2t2 1l4 -4q4 -20 8 -27q2 -8 4 -9q7 -3 10.5 -8t7 -14t6.5 -13q7 -8 7 -21zM242 258q0 2 -1 2q-3 0 -4 -2.5
t-2 -3.5v-2q7 2 7 6z" />
    <glyph glyph-name="five" unicode="5" horiz-adv-x="360" 
d="M381 618q0 -4 -4 -7l-14 -6q-31 -12 -80 -21q-78 -12 -116 -19q-4 0 -12 -2q-15 -2 -19 -15q-4 -9 -9 -19.5t-10 -23.5q-4 -10 -7.5 -18.5t-6.5 -16.5q-1 -1 -1 -2.5t-1 -2.5v-3q0 -3 2 -5t5 -1q8 0 12 1l16 1q65 0 107 -53q2 -2 11.5 -13.5t15.5 -24.5q27 -61 27 -114
q1 -10 -2.5 -24t-4.5 -22q-4 -15 -5 -19q-4 -17 -11.5 -32.5t-20.5 -37.5q-19 -34 -47 -65l-11 -14q-25 -35 -77 -51q-9 -3 -17 -3q-16 0 -29 7q-24 10 -33 21q-9 10 -13 23q-4 15 -14 26q-4 6 -7 16t-7 18q15 -5 22 -12q14 -16 34 -16l10 1q17 3 27.5 6.5t18.5 12.5
q3 3 6 4.5t6 3.5q9 5 15 12q8 10 15.5 17t12.5 13q15 14 24 31l3 5q8 8 14.5 20t11.5 23q1 3 3 7.5t6 10.5q9 17 13 35.5t8 46.5v3l-1 13q-1 15 -16 23q-18 10 -27 11q-19 4 -25 5q-3 1 -8 1q-7 0 -11 -4l-4 -1q-13 0 -27.5 -6t-18.5 -8q-10 -2 -14 -2q-17 0 -33 18
q-6 7 -16 23l-9 17q-13 20 -13 41q0 17 8 38l24 51q12 24 14 29q7 12 7 22q0 3 -2 9v6v5q0 8 1.5 10.5t8.5 4.5q15 6 22 18q4 9 14 4l6 -4q9 -6 21 -3l24 6q16 3 33 9q25 9 59 16q12 3 36 11q16 6 24 8q5 2 15 4q1 1 4 1q5 0 9 -9q3 -8 4 -10q10 -11 15 -29t9 -27v-3zM47 35
h2v1zM59 12q0 8 -4.5 10.5t-9.5 -1.5q-3 -3 -5 -8l12 -4q5 -3 7 0v3z" />
    <glyph glyph-name="six" unicode="6" horiz-adv-x="430" 
d="M388 208q0 -20 -6 -41q-12 -39 -31 -60q-20 -23 -41 -44l-6 -8q-2 -2 -6 -4q-6 -2 -12 -9t-11.5 -11t-13.5 -4l-41 -19q-8 -4 -13 -2q-6 5 -12 -1q-1 -1 -4 -1l-27 1q-8 0 -12 -1q-1 2 -3 4t-4 1q-3 -2 -9 -2q-7 0 -21 6q-6 4 -10 4q-7 0 -9 7q-3 8 -9.5 15t-13.5 13
q-25 27 -26 51q0 3 -1 5q-7 9 -7 26l1 27q1 9 1 27q0 21 -6 39q-1 3 -3 9.5t-2 11.5q8 3 10 11q2 16 9 28l2 5q2 14 9 27t8 15t5 9.5t4 15.5q0 12 10 16q4 2 5 6.5t1 5.5v-1v0v0v0v0q1 3 4.5 11t-0.5 15q0 2 2 6q8 7 10 22q2 11 7 19q5 7 10 18.5t8 17.5l13 26q8 14 11 22
q2 5 4.5 10l4.5 9q5 8 11.5 19.5t11.5 19.5q25 39 43 60q24 28 49 29v0h2q20 -3 32 -15l9 -11q4 -8 4 -12q0 -10 -8 -16q-1 0 -5 -2.5t-8 0.5q-1 1 -5 1q-5 0 -8 -5q-14 -16 -20 -25q-36 -52 -66 -115q-1 -4 -5 -8q-9 -9 -15.5 -22.5t-11.5 -27.5q-1 -1 -1 -3q-1 -3 -5 -7.5
t-5 -7.5t-1 -7.5t-1 -7.5q-2 -4 -3.5 -8t-3.5 -8q-5 -9 -5 -23q0 -10 1 -15q0 -5 2 -5q8 -7 8 -15t-6 -16v-2q8 3 11 12q2 10 6.5 12.5t16.5 3.5v0v0l4 4h1q4 2 11 0h6q15 0 23 12q3 8 11 3q6 -4 8 0q3 6 8 2q1 -1 3.5 -3t6.5 -2h2q5 0 14.5 -2t13.5 -2q15 -1 22 -16v0v0
q3 -5 5 -5l14 -2q4 -1 5 -2.5t0 -8.5q0 -3 1 -5q10 -8 15 -13q1 -2 5 -8t0 -13q-1 -3 4 -3l3 -2q1 -1 1 -3q0 -1 -0.5 -4.5t1.5 -4.5q7 -4 7 -12q2 -24 2 -37zM282 689q1 -1 1 -3q2 -1 3 0l-1 2zM182 572q0 -1 0.5 -1h0.5l1 1l-2 1v-1zM172 449zM145.5 392q-0.5 -1 0.5 -2
l1 -3l3 2q0 4 -3 4q-1 0 -1.5 -1zM93 386h-2q-2 0 -3 1l1 3l3 -2q1 0 1 -2zM101 351q6 2 7 5q1 1 3 7t0 14q-9 -18 -10 -26zM142 368l2 -2l2 2q0 1 -2 3q-2 -2 -2 -3zM192 335q0 -1 2 -1q5 0 2 5zM176 317l2 -2q9 2 13 6q2 2 0 2q0 1 -0.5 1h-0.5q-9 0 -14 -6v-1zM151 320
l1 -1v1h-1zM153 306q-3 0 -1 -2h2l2 3q-2 0 -3 -1zM176 292q0 -1 3 -1q2 2 2 3q0 3 -3 3q-4 -2 -2 -5zM365 295v0v1v0v-1zM344 209q0 16 -7 30.5t-20 29.5q-12 14 -30 18q-16 3 -33 3q-23 0 -46 -6q-30 -10 -63 -26q-19 -10 -38 -31q-4 -4 -6 -12l-8 -22v0q4 -5 4 -13
q0 -29 -4 -52q-2 -8 0 -15.5t6.5 -17.5t5.5 -15q2 -7 15 -13q14 -4 21 -4q9 0 14 2q14 5 25 8q32 9 48 19q3 3 9 3q9 1 17 9q20 16 30 25q31 27 42 48q2 4 3.5 4t7.5 -3q0 12 4 20q3 4 3 11zM136 281q2 -2 3 -2q11 3 20 7q-8 2 -11 2q-6 0 -10 -4q-2 0 -2 -3zM153 277l-2 -1
v-0.5t1 -0.5h1v2zM141.5 268.5q-0.5 0.5 -1.5 -0.5l-3 -4q4 0 5 1q1 0 1 3q-1 0 -1.5 0.5zM133 261h0.5t0.5 1q2 0 2 2q-1 -1 -3 -1q-1 -1 0 -2zM30 248v0v0zM76 171l-1 1v-1h1zM152 4v0v0v0z" />
    <glyph glyph-name="seven" unicode="7" horiz-adv-x="387" 
d="M383 615q-10 -22 -16 -32q-7 -13 -13.5 -22.5t-10.5 -16.5l-28 -44l-20 -38l-10 -20q-8 -12 -11 -18v0l-17 -39l-16 -38q-2 -6 -2 -9q0 -7 5 -7q4 -1 7 -0.5t5 0.5q28 6 38 8q18 2 26 4q0 -7 -6 -17v0q-1 -2 -5.5 -9t-1.5 -15q1 0 1 -0.5v-0.5q0 -4 -6 -6q-3 -1 -20 -11
q-24 -12 -33 -15q-9 -2 -19.5 -8t-15.5 -8q-10 -5 -13 -14q-2 -4 -9 -17.5t-10 -25.5q-12 -39 -34 -86q-5 -8 -5 -16q-3 -19 -10 -34q-4 -9 -3 -19q0 -2 1 -5t1 -5q0 -9 -2 -19.5t-3 -14.5q-4 -1 -6 4q-5 16 -11 25q-1 2 -1.5 4.5t-2 3.5t-5.5 -1h-1q-3 0 -6 5l-10 20l1 -1
q-2 6 -1 8q3 6 3 14q0 5 -2 8q-1 2 2 10q4 9 8 29q5 19 7 25q1 1 1 3q0 3 -1.5 8t0.5 8q5 7 7 18l-1 -1v0v1v0q2 4 4 12v-1v0h-4v0v1h4q1 2 4 10q2 6 2 7q0 5 -3 10.5t-4 8.5q-3 6 -11 4q-2 -1 -5 -1q-6 0 -11 4q-3 2 -7 3.5t-7 3.5q-26 14 -42 53q-5 16 -7 20q-1 1 -1 3
q0 5 6 5q13 0 26 -5q28 -11 70 -11q27 0 35 19q2 4 6 13t5 17q0 5 2 10.5t3 7.5l7 20q2 6 8.5 23t13.5 30l8 19q10 21 13 27q9 15 14.5 26.5t9.5 18.5l16 30q2 3 1 5.5t-5 2.5l-18 1q-1 0 -3.5 -3t-5.5 -1q-4 3 -5.5 -1t-2.5 -4l-11 -4l-50 -9q-35 -7 -63 -4q-20 1 -40 9
q-21 7 -27 29q-3 7 -5.5 17t-3.5 15v2q0 12 7 12t19 -4q5 -1 16 -3t20 -2q8 0 13 1q7 2 25 4q26 4 56 12q16 5 35 12.5t26 10.5q13 6 39 16l50 18l7 1q7 0 9 -8q4 -13 13.5 -27t14.5 -22q7 -14 10 -30q0 -5 -1 -7zM243 515h-2l1 -2q0 1 0.5 1h0.5v1zM320 313q1 0 1.5 -1
t1.5 -1q0 -4 -3 -4t-3 2q0 3 3 4zM108 199v-11q-3 4 0 11z" />
    <glyph glyph-name="eight" unicode="8" horiz-adv-x="469" 
d="M386 261q10 -36 10 -55v-22t-4 -34q-4 -11 -11.5 -24t-10.5 -18q-4 -7 -9 -10q-7 -4 -13 -13q-2 -3 -5 -5l-19 -12q-26 -16 -41 -22q-17 -8 -38 -14.5t-27 -8.5q-10 -3 -32 -7l-24 -5q-7 -2 -20 -2l-35 1q-10 0 -23 3.5t-20 4.5q-5 1 -15 9q-19 17 -24 37q-5 15 -14 33
q-5 11 -9 35l-1 14q0 21 11 36q2 4 4.5 9.5t5.5 7.5q4 3 4 9q0 8 8 11t7 12q-1 3 4 6q12 4 13 11q2 8 8 14.5t12 11.5v0q-2 4 1 9q2 2 5 2h4t4 4q2 4 5.5 6.5t5.5 3.5q4 3 7 6.5t6 5.5q2 1 6.5 2t5.5 5q2 2 9 0v3q0 4 3 8t4 8q1 1 2 5t6 5h6q6 0 11 -5l4 -3q5 -2 8 3v0
q-4 7 -4 14q0 9 5 15q4 5 8 13t8 12q3 3 3 8t-3 9q-3 6 -9.5 17.5t-12.5 19.5q-20 24 -37 76q-5 13 -10 34q-3 11 -3 33q0 3 1 5l2 4q2 3 5 3q3 -1 10.5 -1.5t10.5 -2.5q11 -4 17 -15q12 -17 10 -41q-1 -20 13 -38q6 -7 11 -13.5t10 -12.5q5 -5 7.5 -6t7.5 3q6 4 9 7l13 -16
q1 2 3.5 4t3.5 4q2 7 6 8.5t11 -0.5q10 18 16 26q10 13 15 25l8 4q2 9 7 9l4 -1q3 0 4 2.5t1 6.5q0 5 6 7t11 -1l6 -6q3 0 3 1q3 3 3 8.5t-3 6.5q-5 2 -6.5 3.5t-0.5 5.5q0 1 3 20v2q0 7 -7 10q-6 3 -14 3q-14 0 -38 -8q-3 -1 -7 -2t-9 -1q-3 0 -11 2q-3 1 -9 1q-8 0 -14 -3
q-3 -1 -7.5 -2t-6.5 -1q-7 -3 -8 1q-1 2 2 3t4 1q4 2 5.5 7.5t2.5 7.5h2q5 0 7 5q6 6 10 7q0 5 -6 7l-13 1q5 6 10 9q8 2 22 8q5 7 12 11q4 2 7.5 3.5t7.5 0.5h3q2 0 7.5 1.5t9.5 -1.5l3 5q1 0 2.5 1.5t2.5 0.5l4 -1q3 0 9 2t10 0q2 -1 9.5 -4.5t9.5 -10.5q5 0 7.5 -2.5
t3.5 -6.5t2 -6q3 -6 6 -14.5t6 -13.5q6 -10 5.5 -24t-0.5 -21q0 -3 -4 -7q-7 -8 -12 -20q-3 -9 -10 -20.5t-11 -19.5q-1 -3 -3 -4.5t-3 -3.5q-6 -4 -7 -7q-4 -8 -12 -18.5t-13 -18.5q-7 -13 -13.5 -22.5t-10.5 -16.5q-3 -3 -5 -8q-4 -10 -4 -13q0 -6 8 -16q-1 1 28 -31
q39 -47 41 -50q15 -19 21 -43zM269 679q0 5 4 3v-0.5t1 -0.5l-2 -3q-3 -1 -3 1zM269 659q-2 -6 -2 -9v-0.5t1 -0.5q1 -1 3 1q1 4 -2 9zM237 644v-1v0v0v1zM237 624v-1v0v0v1zM321.5 535.5q-0.5 1.5 -5.5 4.5l4 -11q2 5 1.5 6.5zM334 526q-1 -3 -2 -5q8 2 11 8l1 4
q0 4 -3 3.5t-5 -5.5q-1 -2 -2 -5zM308 536v0v0v0v0v0v0zM306 512q0 -6 6 -11q6 8 4 19l4 8l-8 -4q-6 -7 -6 -12zM316 501q-3 0 -4 -1l-1 -9v-1q2 -2 4 0q4 4 5 7q1 4 -4 4zM244 486l-2 -1l3 2zM240 485v0v0v0v0h2h-2zM289 465l2 1l1 2q-3 0 -3 -3zM195 374l1 -10q0 -4 3 -3
q2 0 5 3q0 4 1 6v0q-3 5 -2 9q2 4 -1 5q-4 0 -6 -4q-1 -2 -1 -6zM215 380.5l-2 -2.5l7 -3l3 1q2 3 -2 5t-6 -0.5zM205 370q4 1 8 7zM353 239q0 12 -9 21l-12 13q-20 20 -25 28q-5 6 -11 11q-19 16 -37 41q-4 6 -10 10q-4 2 -10.5 3t-7.5 -2q-3 -5 -9.5 -9t-9.5 -8
q-4 -7 -5 -9q-10 -31 -46 -36q-2 -16 -8 -24h1q-1 0 -1 -0.5v-0.5q-2 -2 -6 -8t-5 -11q-1 -6 -5.5 -9.5t-9.5 -6.5q-1 -1 -2 -4t-1 -5q-4 -6 -7 -6h-2q-8 0 -6 -10q0 -7 -3 -9q-15 -11 -27 -42l-1 -2q-11 -16 -14 -40q-1 -5 -1 -13q0 -10 5.5 -13.5t19.5 -4.5l2 -1
q33 0 65 6q63 10 110 36l16 8t20.5 13t13.5 16l4 5q21 15 32 53q2 3 2 10zM182 344.5q0 -1.5 -1 -2.5l3 -2l4 -2q3 0 4 3t0 5q0 3 -3 4q-2 2 -6 -3q-1 -1 -1 -2.5zM154 334l5 -2q1 0 3 2q0 3 -1 3q0 1 -2 1q-3 0 -5 -4zM140.5 320q-2.5 -2 -3.5 -3q6 -3 7 -11.5t2 -11.5
l15 8l2 3l2 9q0 3 -5 3.5t-6 0.5q-3 0 -4.5 1t-3.5 2q-3 1 -5.5 -1zM78 251l5 -1q3 0 3 2q1 1 0.5 2l-0.5 1q-2 2 -4 0zM77 249v1v0v-1zM41 191q-1 4 -1.5 8t-2.5 8l-2 2q-2 -2 -2 -3q0 -8 8 -15z" />
    <glyph glyph-name="nine" unicode="9" horiz-adv-x="447" 
d="M425 604q-5 -49 -16 -91q-4 -14 -7 -21q-8 -26 -11 -39q-5 -22 -12.5 -48.5t-10.5 -36.5q-14 -48 -20 -73l-13 -37q-10 -29 -17 -52q-2 -4 -2 -6q-1 -14 -5 -31.5t-5 -22.5l-7 -34q-4 -30 -4 -43q0 -24 16 -37q5 -5 5 -8t-5 -8t-8 -5t-9 3q-22 10 -37 39q-6 13 -12 37
q0 2 -1 5.5t3 4.5q1 0 2.5 -3t4.5 -3q-2 13 -2.5 23t-0.5 16q0 20 -3 41q-1 3 1 7q5 5 5 13l-1 10q-1 2 -1 7t1 10t1 10q0 8 2 11q5 5 5.5 12.5t0.5 10.5q1 4 2 13t7 14q1 1 1 4q4 23 14 52q3 7 7 23q1 2 2 4.5t1 5.5q0 6 -5 10q-4 4 -1 11q4 9 0 15q-1 1 -2 5t-4 4
q-11 0 -13 -11q-1 -2 0 -3.5t3 -0.5q6 3 6 -1q0 -5 -3.5 -8t-8.5 -1q-5 3 -6 -1q-2 -9 -16 -19l-29 -24l-4 -6q-2 -9 -10 -15t-10 -8q-16 -11 -36 -19q-15 -6 -30 -6q-20 0 -36.5 10t-26.5 29t-18 41q-5 11 -5 27q0 12 2 17q11 50 30 79q1 1 3 4t6 3q4 1 10.5 5.5t10.5 4.5
q2 0 3.5 2.5t0.5 4.5q0 2 -2.5 3.5t-2.5 2.5q0 3 4.5 4.5t6.5 2.5l3 -9l3 -1q2 0 2 3v10q0 11 8 12q7 2 10.5 5.5t4.5 10.5q1 5 9 9q7 7 7 13q0 8 9 17q12 16 44 38q18 12 26 19q6 2 18 8q3 1 17.5 7t29.5 6q5 0 9 1.5t9 1.5q22 0 30 -17q2 -5 8 -10t8 -7q1 -2 4 -2t5 1
q3 2 6 2t9 -6l27 -32q7 -7 6 -19zM260 672l1 -1v1h-1zM197 627q1 0 1 0.5v0.5l-1 2l-1 -2zM367 610q0 7 -9 9q-6 2 -8 1l-10 -1q-7 0 -19 2q-22 2 -50 -10q-45 -21 -79 -48q0 2 -0.5 3l-0.5 1q0 6 -2 7q-3 3 -5.5 0l-2.5 -3q-14 -19 -32 -23q-10 -3 -12 -15q0 -13 -9 -15
q-5 -2 -3 -4v-2q0 -3 -2 -8.5t-2 -9.5l12 5q-8 -13 -15 -31l-12 -25q-9 -17 -14 -44q-1 -2 -1 -6q0 -12 14 -10q38 3 67 21l15 9q2 1 6 3.5t8 2.5q3 0 5.5 -3.5t4.5 -4.5q5 -2 8 2v0l-4 4q-4 5 0 9q3 3 8 -1q-4 -4 -4 -11q7 2 8 7l9 3l34 21q5 7 12 6q1 -1 3 -1q6 0 12 6
q2 2 4.5 3.5t4.5 4.5q6 5 6 8t-3 9q-3 5 0 7q4 2 6 7.5t5 7.5q5 2 6.5 7.5t2.5 6.5q17 44 26 60q5 9 11 29zM180 552.5q-1 -2.5 -4 -5.5l-4 -3l2 5q2 3 5 5q2 1 1 -1.5zM172 544v0v0zM172 544v-1l-4 -4zM113 543v0h-1v0h1zM168 539v0h-1h1zM164 538l3 1l-3 -2v1zM140 510
l-3 -2q0 2 1 3t1.5 1t0.5 -1v-1zM117 512zM137 508h-1v0h1v0h-1h1zM136 508l-3 -8q-2 6 3 8zM110 501l3 2q-2 0 -2 2q-2 -2 -2 -3zM133 499v0v1v0v0v-1zM287 463q0 -3 -3 -3q-1 0 -1.5 1l-0.5 1q0 2 2 2q3 2 3 -1zM95 449h2l-1 1zM235 402h1h-2v-1h1v1zM178 379q0 1 -0.5 1
h-0.5q-3 0 -1 -2h1zM335 20q0 -9 -8 -14l-5 12q-2 3 2 7q3 3 7 1q4 -3 4 -6z" />
    <glyph glyph-name="colon" unicode=":" horiz-adv-x="194" 
d="M124 271q0 -6 -6 -8q-6 -3 -10 2q-22 30 -30 47q-3 5 -3 12l1 15q0 8 12 10q13 4 25 -4t13 -22q1 -5 1 -16zM106.5 126q2.5 -5 1.5 -11q-4 -17 -24 -43q-3 -5 -12 -5q-7 0 -18 5.5t-13 9.5q-1 3 1 5q3 3 11 5.5t10 7.5q-15 5 -15 18q0 6 6 11.5t15 7.5l9 1q9 0 21 -5
q5 -2 7.5 -7zM64 104l-1 -2h0.5t0.5 1v1z" />
    <glyph glyph-name="semicolon" unicode=";" horiz-adv-x="170" 
d="M94 212q0 -6 -6 -8q-6 -3 -10 2q-22 30 -30 47q-3 5 -3 12l1 15q0 8 12 10q13 4 25 -4t13 -22q1 -5 1 -16zM80 59q11 -25 11 -56q0 -68 -43 -100l-11 -11q-6 -6 -13 -9q-6 -3 -7 -3q-5 0 -5 3q0 4 5 9q10 10 15 19t11 28l-13 -7q-3 0 -3 1q-2 0 -2 3l10 30q5 13 7 30
q1 4 1 12q0 12 -4 23q-3 6 -7 20t-8 21q-1 1 -1 5q0 10 13 10q31 0 44 -28z" />
    <glyph glyph-name="less" unicode="&#x3c;" horiz-adv-x="350" 
d="M318 376q-1 -5 -3.5 -15t-1.5 -19v-3q0 -6 -4 -20q-3 -13 -19 -14q-63 -9 -118 -28q-7 -2 -19 -8q-16 -7 -20 -8q-12 -4 -32 -16q-6 -4 -9 -7q-4 -4 -4 -8q0 -5 5 -9q7 -7 14 -11q51 -34 102 -51q24 -8 44 -16l10 -5q4 -3 1 -7l1 -1q-9 3 -10 -2q-2 -7 -7.5 -12t-12 -9
t-11.5 -9q-3 -3 -9 -3l-14 -1q-8 0 -16 3q-4 2 -6 2q-14 0 -25.5 4.5t-30.5 13.5l-22 11t-23 13q-20 13 -30 25q-14 19 -11 41q4 23 4 51q0 33 37 57q35 24 72 34l26 9l20 7q58 19 102 23q3 1 10 1q14 0 10 -13zM130 316zM287 121q-1 0 -1.5 -1t-1.5 0l-2 1q-1 1 0.5 2.5
t2.5 0.5zM256 89h1h-1z" />
    <glyph glyph-name="equal" unicode="=" horiz-adv-x="352" 
d="M358 364q0 -3 -3 -8l-2 -1l-1 1q-1 1 -1 3q0 6 4 8q0 1 1.5 0.5t1.5 -1.5v-2zM310 326.5q1 -4.5 -2 -9.5q-9 -11 -18 -14l-26 -9q-2 -1 -5.5 -2t-5.5 -3q-10 -7 -23 -9.5t-17 -3.5q-2 0 -5 -0.5t-7 -2.5q-11 -6 -21.5 -7t-31.5 -1q-13 0 -16 10q-2 7 -8 21q-1 4 -5 14.5
t-6 19.5l-1 6v1q0 11 11 13h12h38q20 0 43.5 2t32.5 3l29 3l10 1q2 0 4.5 -1.5t1.5 -4.5v-4q0 -12 11 -16q4 -2 5 -6.5zM305.5 345.5q-0.5 0.5 -1.5 0.5q0 1 2 3h3l0.5 -0.5t-0.5 -0.5q0 -2 -2 -2q-1 -1 -1.5 -0.5zM304 346v0v0v0zM335 340v-2l-4 -6q-5 -5 -9 -2q-1 1 0 3.5
t3 4.5l7 3q1 1 3 -1zM256 220v0v0zM256 220v0v0v0v0zM259.5 199.5q1.5 -2.5 10.5 -7.5q-1 -9 -13 -19q-10 -8 -30 -22q-12 -8 -40 -18q-40 -15 -68 -17l-7 -1l-8 1q-14 4 -21 5q-13 1 -19 12q-9 15 -14 37q-2 7 -4 23v3q0 10 12 11q6 0 8 -1q24 -2 36 -2q22 0 49 3t35 4
q16 2 24 4q30 4 46 5v-8q2 -10 3.5 -12.5z" />
    <glyph glyph-name="greater" unicode="&#x3e;" horiz-adv-x="343" 
d="M300.5 287q-7.5 15 -25.5 24q-7 4 -16 8.5l-21 10.5l-34 16l-34 16l-30 14q-28 12 -41 19q-6 3 -9 3q-6 0 -9 -10l-1 -8q-2 -10 -3.5 -20t-3.5 -20v-6q0 -15 16 -22l7 -3l22 -9q22 -10 52 -22l32 -13q25 -12 43 -17q9 -3 9 -11q0 -6 -7 -10l-13 -8q-7 -4 -20.5 -10.5
t-21.5 -13.5q-5 -4 -17 -8q-8 -2 -13 -4q-19 -10 -61 -22q-18 -5 -50 -21q-3 -1 -11 -9q-3 -3 -7 -9t-10 -9q-4 -1 -4 -8q0 -6 3 -14q2 -4 6 -4q4 -1 6 5l6 14q2 6 9 11q0 1 1 1t2 -1q2 0 2 -2q1 -1 0 -2q0 -2 -1 -7.5t2 -8.5q2 -3 6 -3q3 0 6 1t7 1q19 0 39 5q59 16 98 32
q43 19 67 43q21 21 25 43q2 8 3 17.5t1 13.5q1 22 -6.5 37z" />
    <glyph glyph-name="question" unicode="?" horiz-adv-x="380" 
d="M405 496q-16 -23 -35 -40q-7 -6 -24 -20.5t-32 -24.5q-5 -3 -9 -8q-9 -10 -21.5 -18.5t-16.5 -11.5l-19 -15l-21 -15l-43 -33q-19 -15 -41 -37q-14 -10 -25 -22q-1 -1 -5 -4t-6 -3q-8 -1 -11 -10q-1 -3 -1 -7q0 -5 7 -11q7 -4 17 -7.5t14 -5.5l12 -3q7 -1 7 -7
q0 -5 -4 -9q-2 -1 -4 -1t-3 1q-1 6 -6 6l-8 -2l1 -1h-1h-3v0h-1l-3 -3l3 -1q0 1 0.5 1h0.5v-1h-5v0v1q-1 -2 -2.5 -2.5t-2.5 -1.5q-5 -5 -10 -5t-9 3q0 1 -2 1q-4 2 -5.5 1t-2.5 -6q-2 -10 -8 -5q-2 1 -6 3.5t-6 6.5q-14 20 -18 32q-2 6 -6.5 21.5t-3.5 28.5q0 1 -0.5 3.5
t0.5 3.5q5 6 8 15.5t6 14.5q8 14 21 29q3 2 7.5 7t8.5 8q1 2 5 6t8 4q2 0 4 2q4 6 12 11t12 8q12 11 28 23t23 17q4 4 10.5 8.5t10.5 6.5l3 2q11 11 26 21q20 13 30 25q4 6 13 11q11 6 20 16q1 2 10 9q13 9 24.5 23t21.5 28l2 4q0 5 -5 7q-3 2 -9 4q-30 8 -57 8h-18
q-10 0 -15 1h-3q-6 0 -13.5 -2.5t-12.5 -3.5l-5 -2.5t-6 -1.5q-11 1 -24 -4.5t-18 -7.5q-4 -1 -12 -4.5t-14 -3.5q-22 -12 -35 -21t-22 -23l-12 -20q-4 -4 -5 -6q-4 -4 -8 -4t-9 5q-6 10 -6 15q-2 12 -6 24q-3 7 -2 12q2 3 2 9q0 8 -3 15q-3 6 -3 10q0 8 8 12q2 2 2 3
q1 6 3.5 6.5t7.5 -1.5h4q1 2 -1 5q-5 7 2 10q4 2 13 7t16 6q6 1 13.5 4.5t12.5 5.5q2 1 5.5 3t8.5 -1q3 -2 7 2l12 7q14 8 24 8q6 0 9 -2q3 -1 5 -0.5t4 0.5v0l7 -4l21 8q3 6 10 2l14 -6q4 -2 5 -1.5t2 6.5t7 5q1 0 5 -2v0q9 6 18 6q7 0 13 -3q8 -2 10 -2q3 0 9 2q6 5 15 5
q6 0 18 -4q10 -4 17 -5q34 -1 46 -35q14 -44 14 -87q0 -20 -12 -37zM186 648zM201.5 605.5q-0.5 0.5 -1.5 0.5l-3 -3l1 -1q3 0 3 2q1 1 0.5 1.5zM253 597v1l-1 -1h1zM124 187h3l-3 -3v3zM131 168q0 1 1 0h-1h1h-1v0zM123 159q-1 0 -1 0.5v0.5v3l3 -2q0 -2 -2 -2zM141 62.5
q2 -3.5 0 -8.5q-5 -13 -17 -29q-2 -3 -7 -4t-9 1l-13 8q-4 3 0 7q2 1 6.5 2t6.5 6h-2q-8 3 -8 11q0 11 11 14q4 1 11 1q8 0 14 -3q5 -2 7 -5.5zM109 47l-1 -1h1v1z" />
    <glyph glyph-name="at" unicode="@" horiz-adv-x="620" 
d="M365 569h-2l1 1zM351 564v-3l-2 2l-1 2q2 2 3 -1zM601 319q-13 -56 -45 -95q-18 -23 -38.5 -46t-40.5 -39q-26 -24 -51 -33q-14 -4 -21 -4q-10 0 -21 3t-17 12l-22 35l-6 8q-3 4 -8 1l-11 -9q-37 -30 -51 -39q-21 -13 -36 -17h1q-8 -3 -13 0l-11 4v0q-3 1 -10 1
q-19 0 -29 22q-1 2 -2.5 6.5t-4.5 7.5q-6 6 -10 19l-3 11q-7 14 -7 29q0 14 10 44q10 26 28.5 47t44.5 42q4 4 8 5q7 2 14 6.5t10 6.5q30 21 68 24h4q8 0 11 -1h6q10 0 18 7q5 5 10 5q3 0 11 -4q12 -9 17 -18q9 -19 9 -40l1 -22q0 -20 -7.5 -37t-20.5 -37l-12 -15
q-1 -3 -3 -5t-3 -5q-2 -4 -2 -12q0 -9 6.5 -15.5t17.5 -6.5q12 0 26 8q37 21 60 48q36 41 46 54q17 22 23 34q4 2 4 5q1 4 7 10q1 1 5 3.5t4.5 5.5t-1.5 7v0q4 6 3 9q-2 3 -2 7q0 5 7 14q6 9 6 20q0 7 -1 11q-10 42 -47 73q-65 53 -140 53q-17 0 -36 -3q-14 -2 -32 -7
t-25 -7q-10 -4 -18 -8l-14 -7q-5 -4 -9 0q-3 3 1 9q4 4 -2 7l-18 6q8 8 21.5 15t19.5 10q7 3 13 2q1 0 3.5 -0.5t3.5 0.5q4 2 8.5 5.5t8.5 4.5t9 -2l27 9v0h1l-1 -1h11q16 0 29 5v0h4v0v0l17.5 -2.5t17.5 -1.5q13 0 23 -5q9 -4 17 -5q31 -8 45 -21q1 -1 11 -6q2 -1 4.5 -2
t5.5 -4q5 -5 21 -21.5t26 -35.5q4 -8 8.5 -20t6.5 -18q10 -29 10 -62q0 -17 -7 -42zM288 517l-2 4q-3 3 -4 3q-2 -2 -2 -3q-2 -5 4 -5zM274 509.5v0.5q-1 0 -1 0.5v0.5q-1 0 -1 -2h1q1 0 1 0.5zM238 476.5q-7 -6.5 -16 -5.5q2 9 10 15q7 6 2 14q-3 3 2 4l2 1q4 0 8 -7t3 -11
q0 -2 -1 -2q-3 -2 -10 -8.5zM189 478h-3q2 6 3 7q4 4 8.5 7.5t9.5 2.5q1 0 1.5 -1.5t-0.5 -1.5q-7 -14 -19 -14zM186 478v1v-1v1v-1v0zM362 11.5q2 -1.5 2 -3.5q1 -2 0.5 -3.5t-1.5 -1.5q-7 -5 -14 -15q0 -2 -5 -2v0h-5v0h1q-7 -7 -15 -12q-5 -2 -13 -8v0q-7 2 -9 1
q-15 -5 -37 -5l-25 -1q-20 0 -54 8q-15 4 -19 5q-35 7 -49 26q-4 5 -14 11q-9 5 -15 13l-22 30q-16 20 -26 43.5t-18 55.5q-6 23 -6 44q0 25 7 47q2 8 4.5 18.5t5.5 17.5q5 14 9 18q3 2 2.5 5.5t-2.5 5.5v0q2 12 9 17t13 21q9 20 17 26q3 2 5.5 7.5t4.5 8.5q5 10 14 7
q6 20 18 26q4 3 7 7.5l5 7.5q3 3 6.5 5.5t8.5 0.5q4 -1 6 4q0 4 1 6q5 17 18 21l9 4q-1 -9 -4 -14.5t-11 -8.5q-3 0 -3 -4q0 -3 -2 -7t-1 -8q5 0 9 3.5t6 5.5l15 12q3 3 6 3t4 -2q2 -4 -3 -8l-3 -3q-54 -45 -88 -106q-14 -23 -22.5 -48.5t-16.5 -60.5q0 -2 -1 -6t-2 -7
q-5 -13 -5 -24l1 -15q2 -8 1.5 -19t-0.5 -15q0 -45 25 -74q24 -29 66 -44q32 -12 88 -19q26 -2 39 -2q21 0 63 4q4 1 11 1q2 1 4 -0.5zM222 470v1v0v-1zM218 466h-1l5 5v-1zM218 466h-1v0h1zM217 466l-2 -1l1 1h1zM134 413l2 -2q5 1 11.5 5t7.5 7v4q-1 2 -3 3t-3 0l-15 -16
v-1zM106 370l1 -2v1zM107 367l2 -3l0.5 -0.5t0.5 0.5q1 0 1 0.5t-1 1.5q0 1 -3 1zM556 328v-3q-2 0 -3 1t-1 3l2 2q2 -2 2 -3zM556 325v0v-1v1zM556 325v-1v1zM44 309zM545 309v0v0v0zM324 304q-28 -7 -43 -18q-35 -22 -59 -54q-11 -13 -23 -34l-6 -17v-2q0 -6 9 -6
q20 1 47 14q16 8 33.5 20.5t25.5 18.5q8 5 13 13q13 25 15 56q0 12 -12 9zM384 10q-3 -8 -4 -10q0 -1 -3 -1q0 -1 -0.5 -0.5t-0.5 1.5l-2 10q0 6 4 6q6 0 6 -6z" />
    <glyph glyph-name="A" unicode="A" horiz-adv-x="477" 
d="M48 0q-8 0 -15 4q-14 8 -20 16q-3 3 -6 3q-10 5 -15 13q-2 2 -2 5v8q0 3 1 6t1 6q0 16 7 37q1 2 1 6q1 9 4.5 21.5t5.5 20.5q2 7 8 21q4 8 4 13q0 6 3 7q6 6 1 13q0 4 3 5q4 0 6 1q2 2 0 3q-1 2 0 3.5t3 2.5q1 0 3 2q2 3 2.5 5t-2.5 3q-3 3 -3 4q0 5 5 7q4 -1 5 1t1 5v4
q0 4 1 6q2 4 -1 5q-4 6 -4 9q0 7 -5 15l-6 8q0 2 1 4t3 3q4 2 8.5 3t8.5 2q6 2 9 4q2 2 3.5 0.5l2.5 -2.5t2.5 -0.5t2.5 2.5l13 27q0 2 0.5 5.5t2.5 5.5q6 6 8 18q2 11 8 23l8 16t4 7.5t4 7.5q4 12 7 17q2 2 2 3q1 7 4.5 13t8.5 12l3 7q2 2 3.5 5t4.5 6q7 8 10 19q0 6 5 8
q7 5 8 9q1 6 5 11t5 6q4 8 9 11q2 0 2 5q0 1 0.5 3.5t2.5 5.5q5 5 13 15q2 3 4.5 8t5.5 7q0 7 7 7q2 0 2 2q-1 0 -1 2q0 5 9 9l2 1l2 2t1 3q1 8 8 13q5 3 12 13q4 5 7.5 10.5t8.5 10.5q1 0 1 1t1 2q2 3 4 3h8q2 0 3 1t1 3q0 4 0.5 5.5t4.5 2.5q1 1 4 1q2 1 3.5 0t2.5 -4
l2 -2q1 1 1 3q2 5 4 6q0 1 -2 5l1 5q0 1 -2 2.5t-3 2.5t0 2.5t2 1.5q2 1 6 1h2q10 0 17 -6l15 -12q3 -2 5 -9q1 -3 4 -4q8 -2 12 -6q4 -3 7.5 -4t5.5 -2l6 -6l13 -20q3 -5 4.5 -9.5t4.5 -9.5l7 -25q2 -9 4 -27l3 -21q1 -6 1 -18l-1 -73v-4q-3 -7 -3 -17.5v-16.5q0 -9 -2 -14
q-1 -4 0 -10l0.5 -1.5t-0.5 -2.5q-2 -16 -4 -24q-1 -13 -5 -32q-2 -8 -4 -28q-3 -21 -11 -63l-6 -33q-1 -7 -2.5 -14t-2.5 -14q0 -7 -2 -15.5t-3 -11.5q0 -6 -1 -8q-3 -7 -4 -12.5t-2 -8.5l-4 -21q-1 -6 -2.5 -14.5t-1.5 -13.5q-2 -4 -4 -12t-4 -12q-3 -7 0 -11q1 -4 0 -8
q-1 -1 -4 -7q-1 -2 -3 -2.5t-4 0.5q-3 0 -4 1q-3 3 -13 9q-3 2 -3 5t3 5l4 4q2 2 3.5 1.5t2.5 -0.5t1.5 1.5t-0.5 2.5q0 2 -1 2q-12 8 -7 18q-1 3 -0.5 5t0.5 4q-2 8 -2 11q0 12 6 22q1 4 -1 8q-1 1 -2 2.5t-2 4.5l-1 4q0 1 3 13q2 8 -1 12q0 1 -0.5 1.5t0.5 1.5q4 9 3 17
q3 14 1 22l3 3q2 2 1 5q-3 6 -3 11q0 11 3 18q1 7 2 18t3 18q0 4 -4 4q-2 0 -7 -2t-8 -2q-4 0 -7 -3l-9 -4q-7 -1 -14.5 -4t-10.5 -4l-13 -4q-16 -2 -34.5 -8t-23.5 -8q-3 -1 -9 -2.5t-10 -3.5q-4 -1 -10 -2t-9 -1q-5 -1 -13.5 -2.5t-14.5 -3.5q-5 -2 -19 -4q-4 0 -6 1
q-4 1 -10 0l-7 -3q-6 -2 -8 -8l-4 -9q-8 -28 -13 -42q-9 -26 -15 -51l-11 -51q0 -6 -1 -10q0 -7 -1 -10q-2 -5 -2.5 -12.5t-1.5 -12.5q0 -2 -1.5 -3.5t-3.5 -1.5q-3 -1 -7 -1zM311 695l-1 -2h-1q0 2 2 2zM302 689v2q3 3 7 2q-1 -1 -0.5 -2t-0.5 -1q0 -1 -5 -3zM309 693v0v0
v0zM292 686v1l1 1q2 -1 1 -2h-2zM325 680q0 -3 3 -1zM150 285l19 1l44 7l15 3q11 2 43 8l26 5q5 1 11.5 2.5t11.5 1.5q6 2 14.5 4t13.5 6q2 1 3.5 0.5t2.5 -0.5q5 2 5 3q4 4 6 12q0 6 1 8q2 8 2 11v10q0 8 3 12l2 7q0 6 2 18q0 14 1 22q0 2 -1 3t-0.5 2.5l0.5 1.5q4 9 0 16
q0 2 1 3q2 7 1.5 15t-0.5 11q0 5 -6 7q-3 1 -1 6q1 0 3 2l-2 4t-1 5q-2 5 2 7q6 3 4 9l-1 1l-1 -1l-3 -3q-2 0 -2 2q0 32 -1 48v5v1q0 10 -1 14q-2 12 -2 18q-2 12 -6 16q-10 -1 -18 -8q-7 -4 -17 -16q-7 -7 -9 -8l-9 -10l-9 -9q-8 -6 -11 -11q-4 -7 -14 -19l-11 -19
q-10 -12 -13 -20q-1 -2 -5 -6l-8 -9q-2 -3 -3 -6t-2 -5l-9 -15q-5 -12 -17 -34q-4 -4 -7.5 -11t-5.5 -10q-8 -16 -13 -22q-1 -1 -1 -2.5t-1 -2.5l-4.5 -9t-4.5 -11q-3 -5 -5 -11t-5 -11l-17 -42l-1 -4q0 -1 1 -2l1 -1h9zM373 493v-2h1q1 0 -1 2zM370 478q0 1 1 1l1 -2l-1 -2
q-1 1 -1 3zM358.5 383.5q-0.5 0.5 -0.5 1.5v0.5t1 0.5v0l1 -2q-1 -1 -1.5 -0.5zM347 95l-1 1v-1h1z" />
    <glyph glyph-name="B" unicode="B" horiz-adv-x="499" 
d="M506 530q0 -10 -2 -15q0 -2 -2 -8q-6 -19 -15 -27q-4 -4 -10 -12q-7 -8 -24 -22l-6 -5q-15 -13 -29 -21q-9 -6 -10 -7l-8 -8q-5 -5 -13 -10q-8 -4 -18.5 -11.5t-18.5 -12.5l-49 -30q-2 -1 -4 -3t-6 -4q-1 -1 -0.5 -2.5t1.5 -2.5l7 -3l33 -8q42 -13 55 -19q10 -4 13 -9
l5 -3q10 -5 17.5 -15.5t9.5 -13.5q2 -4 2 -7q0 -6 4 -18q2 -6 2 -25q-1 -3 -1 -8q-1 -14 -3.5 -19t-7 -11.5t-7.5 -10.5l-16 -18q-4 -2 -5 -2t-2.5 0.5t-3.5 -1.5q-8 -6 -12 -10l-9 -11q-3 -3 -7 -1q-3 0 -3 -1q-5 -9 -14 -15t-11 -7q-16 -12 -36 -22q-3 0 -6 -3l-49 -26
q-9 -5 -20.5 -10t-17.5 -8l-65 -25q-5 -2 -15 -4q-3 0 -7.5 -0.5t-10.5 -2.5l-15 -2h-3q-7 0 -13.5 3.5t-8.5 4.5q-6 4 -9 7q-5 3 -9 10q-1 3 -3.5 8t-5.5 7l-2 4l1 2q0 3 -3.5 5.5t-4.5 3.5t-2 1t-1 1q-1 4 -4 8.5t-4 7.5l1 2q1 1 3.5 1.5t3.5 1.5q1 0 0 1t0 2q0 2 1 4t1 4
q-1 6 0 12.5t0 13.5q-2 10 -2 15l2 36q0 20 1 30q0 1 2 3t3 -1q2 -2 1 -3q-2 -6 -1 -10q3 -6 0 -13q-1 -4 -1 -12v-4q0 -9 5 -14l2 5q0 10 -0.5 24.5t0.5 34.5q0 15 2 22q1 0 0.5 0.5t-1.5 0.5h-0.5t-0.5 -1q-4 -4 -4 -6l-1 -12q0 -2 -3 -2l-3 3q3 7 3 16.5v14.5q2 6 7 6
q3 0 6 5l1 4q2 17 1 25l-1 3l-2 -2q0 -7 -3 -13l1 -4q0 -4 -2 -10q0 -1 -2 -3l-0.5 -0.5t-1.5 0.5q-3 0 -3 2q3 12 3 13q0 8 3 14q1 2 0.5 4t-0.5 4q2 18 4 25q1 5 2 12t3 12q2 4 5 6l1 1l-1 4q0 2 1.5 4.5t1.5 4.5q0 4 3 5q4 2 2 3t-3 2t-1 5q2 3 3 7t1 6q0 3 1.5 6t1.5 6
q0 7 6 11q1 1 1 3t1 3q4 3 6 11q1 2 0.5 5t0.5 5t1 6t1 6q0 3 1 5l2 4l1 4q1 2 3.5 5t0.5 7q2 6 5 13q4 9 1 14v3q0 3 1.5 6t1.5 4l4 4v2q0 3 3 8t3 8q0 4 2 8.5t3 6.5l3 14l3 7q0 7 3.5 15.5t4.5 13.5l9 26q3 6 0 11q-3 7 -4 12.5t-2 8.5q-1 5 3 9q8 7 16 8q6 0 9 7
q4 10 5 15q3 8 10 34q0 2 3 2q2 2 4 -1q2 -2 6.5 -8.5t6.5 -13.5q1 -5 6.5 -11t7.5 -8q5 -5 11 -8q6 -2 10 -2q12 1 38 1q6 0 12.5 -1.5t13.5 -1.5q16 0 23 -3q19 -2 40.5 -6.5t28.5 -6.5q28 -7 50 -19q3 -2 7 -3.5t9 -5.5q26 -19 34 -45q1 -3 5 -9q2 -3 4 -11q0 -3 4 -13
q3 -9 3 -18zM441.5 556.5q-0.5 1.5 -1.5 2.5l-21 8l-3 1h-2q-11 1 -21 3t-20 3q-5 3 -16 3q-4 1 -10 1t-10 1t-10 1.5t-9 2.5q-8 3 -17 1q-5 -2 -10 0l-11 1q-12 0 -17 -1q-10 -2 -15 -2q-19 0 -28 -2q-12 -3 -14 -12l-10 -26l-7 -23q-6 -16 -8 -25q-2 -6 -4.5 -11.5
t-4.5 -10.5q-2 -4 -2 -7q-3 -8 -10 -34q-2 -8 -11 -35q-3 -6 -10 -28l-1 -6q0 -3 1 -4q1 0 2.5 -1.5t2.5 -0.5q5 1 13 5q2 2 6.5 2.5t6.5 1.5q8 4 12 7q2 1 4.5 2t5.5 4q1 2 5.5 2.5t5.5 3.5q10 4 14 7q2 1 5 1.5t5 1.5l3 2q4 4 13.5 9.5t13.5 10.5q2 4 7 4t8 3q1 1 2.5 2
t3.5 1q4 2 18 11q3 2 9.5 6t11.5 6q3 1 4.5 3t3.5 3q5 5 8 5q2 0 4 2t4 3q8 3 16 11q2 2 8.5 5.5t9.5 6.5q8 3 13 11t13 13l3 1q5 -1 5 3q1 4 7 10q13 11 22 23q1 0 3 5q1 1 0.5 2.5zM77 406h1q-2 0 -2 1h1v-1zM60 324h-1l1 -1v1zM286 270q-5 0 -9 1.5t-9 1.5q-5 1 -15 1
q-11 0 -33 -2q-26 -6 -41 -7q-6 -4 -14 -3.5t-11 0.5q-4 0 -7 4q-3 6 -5 7q-8 5 -12 16q0 4 -3 5q-4 5 -6 0l-6 -12q0 -6 -3 -13t-4 -10q-2 -4 -2 -7q-4 -23 -5 -32q-1 -6 -2.5 -17.5t-3.5 -19.5l-3 -14q-2 -10 -4 -13q-1 -2 0 -6.5t0 -7.5q-3 -5 -3 -17q0 -5 -1.5 -10
t-1.5 -10v-8q0 -6 1 -10q3 -6 3 -19v-4q0 -3 5 -6q11 0 16 2l13 4l4 -1q4 0 8.5 2t6.5 3q4 2 6 2q5 1 14.5 5t15.5 5q4 2 18 7q12 6 18 8l5 3q4 3 16 8q4 1 6.5 3t4.5 3q9 3 11 4t6 5q2 2 7 2l7 3q10 8 11 8q2 1 13 9q1 1 3 0.5t3 0.5t1.5 2t1.5 2q12 5 17 16q4 3 7 7
q2 3 5.5 3.5t5.5 0.5q3 0 1 3q0 2 1 3t10 7q1 2 4 5.5t6 4.5q3 5 9 12t10 13q6 6 10 19q1 2 0 4t-2 3q-2 1 -6 2.5t-6 1.5q-9 0 -27 4l-16 3q-4 1 -8.5 2t-8.5 2q-3 2 -8.5 2.5t-9.5 1.5q-4 2 -15 2zM45 117q0 3 -3 4v-15l1 -2q2 2 2 3v10zM22 74l1 2h1q2 -2 -2 -2zM20 73h2
q0 -2 -2 -2v2zM72 11l-1 2h-2q-2 -2 1 -3z" />
    <glyph glyph-name="C" unicode="C" horiz-adv-x="441" 
d="M415 518q0 -13 -6 -41q-1 -10 -5 -23q-1 -8 -11 -10h-6q-9 0 -13.5 4t-9.5 13q0 5 -4 14.5t-5 15.5l-9 20q-4 8 -4 18q0 8 3 15l2 6t2 5q8 21 6 57q0 4 -3 8q-8 11 -21 14q-6 2 -9 1q-15 -2 -34 -13q-24 -15 -43 -34q-29 -29 -56 -73q-18 -31 -28 -53q-14 -30 -20 -46
q-3 -10 -9.5 -26.5t-9.5 -28.5q-1 -4 -4.5 -12.5t-4.5 -15.5q-2 -9 -5.5 -23.5t-4.5 -25.5q0 -3 -1 -4q-4 -8 -6 -27q0 -10 -3 -21q1 -2 1 -6t-1 -8t-1 -8q-1 -6 -1 -20q1 -1 1 -3l-1 -9q-2 -9 0 -20q1 -5 0.5 -9t-0.5 -7q-1 -10 2 -21t4 -14q2 -7 8 -10q11 -7 31 -13
q10 -2 14 -2q2 -1 7 -1q23 0 63 16q4 2 10 6t10 7l29 22l17 13l7 7q9 10 17 14q2 0 6 5l19 20l14 2q8 2 8 9q0 2 3 2t7 -2l3 -3l2 -4q4 -3 5 -2q2 2 2 4v11q3 -2 6 -7t5 -7v-2q-1 -1 -1 -4q0 -2 2.5 -5t3.5 -5l1 -2q0 -2 1 -3q3 -8 10 -9q3 -1 3 -4q0 -12 -9 -20l-1 -2
q-3 -2 -6.5 -8t-6.5 -9q-2 -3 -6.5 -7t-6.5 -8l-23 -22q-2 -2 -6 -5.5t-6 -7.5t-4.5 -6.5l-4.5 -4.5t-2 -5q-2 -7 -7 -4q-12 -8 -19 -11q-2 -1 -6 -5q-3 -1 -6 -3.5t-5 -3.5l-5 -3q-4 -6 -15 -10q-12 -3 -13 -3q-3 0 -5 -3q-3 -4 -7 -4l-12 -1q-1 0 -2.5 0.5t-3.5 -0.5
q-4 -4 -12 -3.5t-13 -0.5h-2q-8 4 -25 4q-2 0 -6 2l-22 9q-10 3 -17 10q-3 2 -8.5 4.5t-6.5 7.5q0 1 -2 1q-3 3 -9 6t-8 7q-1 3 -6 8.5t-6 9.5l-6 8q-24 31 -34 56q-2 4 -4 12q-8 28 -8 45l-1 22q-1 6 -1 19q0 11 2 16q-1 5 0.5 12t1.5 10q2 12 2 20q0 3 2.5 10t1.5 11
q3 10 6.5 25t7.5 25q3 9 5.5 17t5.5 15q2 5 6.5 19.5t10.5 25.5l3 9q8 20 15 28l3 7q15 34 42 71q7 10 8 13q7 9 12.5 19t12.5 19q20 24 30 33l17 19l8 7q7 5 12.5 9.5t10.5 8.5q12 10 20 12q5 1 8.5 3t6.5 3t7 -1q6 -2 10 1q4 2 7 2q6 0 20 -4l4 -2q21 -18 22 -19
q6 -5 20 -23q19 -28 25 -40q14 -27 15 -58q0 -24 -1 -36zM415 186q0 -3 -1 -4h-3l-3 3l-5 3l-3 7q-3 5 -8 11t-6 11l-10 21q-1 1 -1 4l1 2q1 2 3 3t3 -1q4 -2 4 -4q8 -14 20 -30q5 -6 6 -13zM376 213l3 -4h-3.5t-3.5 1q0 3 1 4h1zM379 208v0v0v1v-1zM403 188v0v0h-1h1z
M400 187l2 1q0 -2 -2 -2q0 -1 -0.5 -1t-0.5 1q-2 1 1 1zM373 122h1l-1 1v-1z" />
    <glyph glyph-name="D" unicode="D" horiz-adv-x="458" 
d="M458 468q0 -6 -2.5 -14t-3.5 -13q-4 -9 -8.5 -22.5t-8.5 -22.5q-3 -6 -6.5 -14.5t-7.5 -13.5l-1.5 -3t-1.5 -2q-10 -24 -26 -48l-9 -15q-26 -42 -40 -62l-12 -16q-4 -5 -6.5 -9.5t-4.5 -7.5l-24 -29l-31 -36l-22 -24l-15 -15l-11 -10l-64 -53l-10 -7l-34 -21
q-7 -5 -14 -8q-4 -2 -7 -2q-8 0 -20 2q-6 0 -11 8q-2 5 -4 13q0 5 -4 6q-2 1 -6 5q-2 3 -5.5 9t-6.5 9q-1 1 -0.5 3.5t1.5 3.5q11 4 13 6q5 5 4 11q-1 4 -3 9t-3 12q-4 24 -4 35v19q0 19 2 29q1 4 0.5 7t-0.5 5q2 26 4 41l2 21l1 7l2 8q0 10 4 32q5 27 7 37l3 26q1 3 3.5 10
t2.5 13q2 6 3.5 15t3.5 16q3 10 10 40q2 13 4.5 22.5t4.5 16.5q1 5 3.5 14.5t5.5 15.5q2 10 10 33l9 30q2 4 2 6q1 4 -2 7q-4 4 -6 5q-6 5 -8 11l-5 17q-2 5 -2 14v2q0 6 3 9q2 3 6 3l9 -3q5 -3 11.5 -4t9.5 -2q2 -1 4 0t3 3q8 16 9 26q1 8 5 17l8 27q0 3 4 3q1 0 4.5 -1
t4.5 -3q2 -3 11 -13t12 -22q2 -7 5 -10q7 -8 10 -20q2 -6 5 -13q2 -3 7 -4h2q7 -1 15.5 -1t14.5 -2q7 -1 15.5 -1h11.5h8q2 0 2 -1q6 -2 18.5 -3.5t18.5 -3.5l14 -4q13 -5 37 -19l6 -6q16 -16 25 -35q13 -25 20 -32l7 -14q4 -15 5 -20q0 -2 2.5 -11t0.5 -17q1 -2 1 -7z
M401 524q0 6 -6 12q-11 7 -33 13q-7 2 -13.5 3.5t-13.5 3.5q-12 5 -17 2l-9 2l-12 4q-4 1 -12 1q-6 2 -11 2q-32 6 -34 6q-3 0 -8.5 0.5t-12.5 2.5q-2 1 -4.5 0.5t-3.5 -0.5h-3q-5 0 -8 -6q-5 -14 -6 -17q-11 -31 -21 -70l-17 -66l-1 -8q-1 -13 -6 -27q-6 -22 -7 -33l-5 -26
q-2 -7 -5.5 -23.5t-5.5 -30.5q-1 -8 -5 -24q-2 -5 -2.5 -11.5t-1.5 -11.5q-2 -18 -4 -26q-1 -3 -2 -7.5t-1 -10.5l-3 -9t-1 -10v-3q0 -4 -1.5 -7.5t-1.5 -7.5q0 -16 -4 -29q0 -2 2.5 -4t4.5 -1h2q9 2 11 7q18 14 24 21q4 2 7 2q2 7 5 10l18 17q1 1 5 1q0 3 2 7l8 9q3 4 10 4
q2 8 8 8q1 2 1 4t1 3q3 3 8 8.5t10 8.5q0 -3 -2 -7l-1 -5q4 0 7 1q2 0 2 4l-2 7h-4q1 3 4 4q0 9 8 12q0 6 8 8q0 6 4 9l4 3q3 8 4 9l9 10l3 1q2 5 4 7q1 2 2.5 3t2.5 3q1 4 5 10t6 11q1 4 5 9t6 8q12 16 32 50l18 31l12 21q18 33 31 71q2 6 7 25v2zM271.5 271h0.5l-1 1
q0 -1 0.5 -1zM262 256q-1 0 -3 -3zM258 253h-3v-7q5 2 3 7zM254 244q-3 0 -3 -3zM250 241h-3l1 -3zM242 232q-2 0 -3 1v-8l4 3q1 3 -1 4zM234 221h-3v-4q2 1 3 4zM223 198.5q1 1.5 0 3.5l-1 3q-1 -1 -4 -2.5t-3 -5.5h5q2 0 3 1.5zM214 197q-3 0 -3 -4q3 1 3 4zM210 193h-3
v-4q3 2 3 4zM206 189q-3 -1 -3 -4q3 0 3 4zM202 185h-3v-4q3 0 3 4zM198 181q-2 0 -5 -5q-2 -2 1 -2h2q3 3 2 7zM184 168q-2 -2 -1 -3q2 0 2 1q2 2 -1 2zM182 165h-3v-4q3 3 3 4zM178 160q-3 0 -3 -3q3 2 3 3zM174 157l-3 -4q3 3 3 4zM166 148q-2 0 -2 -1h0.5t0.5 -1
q0 2 1 2zM153 135l-2 2q0 -4 2 -2z" />
    <glyph glyph-name="E" unicode="E" horiz-adv-x="444" 
d="M440 684q0 -11 -3 -20q0 -1 -0.5 -3t0.5 -5l-1 -4q-1 -2 -3.5 -7.5t-7.5 -7.5q-3 -1 -11 -9q-3 -2 -9.5 -6t-11.5 -6q-9 -3 -25 -11q-4 -3 -7.5 -4t-5.5 -2q-40 -15 -57 -19l-7 -3q-11 -4 -19 -5l-41 -10l-5 -3q-6 -1 -9 -8l-10 -26l-9 -27q-4 -15 -11 -35
q-8 -26 -14 -38q0 -1 -3 -17q-1 -1 0.5 -2.5t3.5 -0.5l4 1q51 21 72 34q6 4 13 6.5t13 6.5q13 8 23 13l16 8q3 3 9 3q1 1 1.5 0t1.5 -1q0 -2 0.5 -5t2.5 -5h1l2 1l-2 6v2q0 5 6 9q3 0 4 -1q1 0 1 -0.5v-0.5q5 -7 5 -19l-1 -6q-6 -12 -7 -19q-3 -12 -13 -24q-5 -5 -11 -12
t-11 -11l-6.5 -6.5t-12.5 -8.5q-2 -1 -4.5 -4t-4.5 -4q-4 -3 -13 -9.5t-17 -9.5q-5 -2 -8 -6q-5 -4 -17 -10q-10 -5 -11 -6q-15 -11 -45 -19q-12 -4 -18 -5q-4 0 -6.5 -2.5t-3.5 -5.5q-1 -6 -3.5 -13t-2.5 -12q0 -4 -2 -10l-9 -41v-4q-1 -5 -1.5 -12t-2.5 -11
q-2 -8 -2.5 -14t-0.5 -10q-1 -6 -1 -18l-3 -36l-1 -12q0 -8 1 -11q1 -5 0 -10t0 -10q2 -7 7 -7h8q9 0 13 2q2 1 5 1.5t5 1.5q21 4 44 17l11 6q12 5 20 13q1 2 3 3t3 2l36 25l4 4q16 14 26 19l5 4l5 5q8 5 14.5 10.5t12.5 9.5q1 1 2 0.5t1 -1.5v-3t3 -3q1 0 1.5 -1t1.5 -1
q4 -3 6 2l1 4q11 0 15 3q2 1 6 -1l8 -9l3 -1q3 -3 7 -3h2l10 9l-1 2q-3 6 -9 4q0 3 2 5q1 2 3.5 2.5t3.5 -0.5q4 -1 6 -7v-20q-2 -7 -8 -8l-2 3h-2q-1 0 -1 -1q-2 -2 2 -2h3l-7 -15q-2 -5 -8 -5l2 -5q2 -3 0 -6l-21 -21q-7 -7 -9 -11q-5 -7 -10 -9l-6 -6q-17 -17 -26 -24
q-2 -3 -6.5 -6l-7.5 -5q-2 -1 -6 -3.5t-6 -6.5q-3 -3 -9 -5q-6 -3 -11 -8q-4 -4 -7 -4q-4 -1 -16 -8q-5 -5 -8 -6q-2 0 -4.5 -1t-4.5 -1q-9 -2 -13 -5q0 -1 -5 -3q-2 0 -17 -3q-3 -1 -7 -1t-7 -1q-7 -1 -14 0q-11 3 -19 6t-21 9l-8 3q-6 3 -7 4q-2 4 -8 8t-10 7l-15 16l-9 8
q-16 12 -26 35l-1 5q1 3 1 8q0 7 -2 10l-1 26v4q0 10 1 16q0 2 -0.5 6t0.5 7q1 5 1 11.5t1 10.5t1 9t1 9l9 34q6 16 6 23q1 7 2.5 13t2.5 13q2 9 6 16q3 7 7 21q1 3 1 8q0 8 -7 18q-1 1 -2 2.5t-2 4.5q0 1 -5 8q-1 2 -0.5 3.5t2.5 2.5q4 3 9 4q2 1 8 1q12 3 14 12q5 14 8 18
q0 5 2 10.5t3 7.5q3 10 8 22l3 9q3 13 9 25q2 6 8 18q2 2 4 8.5t5 9.5l2 3q2 12 10 29q6 16 8 24q2 7 -1 9q-6 9 -10.5 17t-7.5 14q-2 3 -3 6t-2 5q0 4 3 5q1 0 5 2l35 10q10 2 14 9q4 8 7.5 14t5.5 11q3 8 10 9q4 3 9 1q12 -6 17 -10q8 -6 12 -8q9 -8 14 -8q1 0 11 2l58 15
l10 3q8 4 13 4q7 1 29 8q8 2 19.5 4t19.5 4h1q7 0 9 -7q1 -4 1 -12zM427 692q0 3 -2 3q-1 1 -3 0t-2 -3l3 -3q3 0 4 3zM382 219q1 -1 1 -3q-1 0 -3 2zM383 215.5v0.5h0.5t0.5 -1v0h1h-1q-1 0 -1 0.5zM393 210l2 -4l-2 -1q-3 0 -3.5 1t0.5 2zM351 200q0 1 1 2l1 1q2 -3 -2 -3
zM348 193q-2 -2 -6 -1l-1 1v2q6 4 10 5q-1 -5 -3 -7zM373 194v1l1 -2zM385.5 177q-1.5 -1 -2.5 -1h-4v4q0 4 1.5 5.5t5.5 2.5h1v-9q0 -1 -1.5 -2zM345.5 185.5q-0.5 -0.5 -0.5 0.5l1 1q0 -1 -0.5 -1.5zM329 173l1 2h-1v-2zM308 155v-0.5t1 -0.5l1 1v2l-1 2q-2 -2 -1 -4z
M377 142l2 -2q0 1 -1 1q0 1 -1 1zM372 129q1 0 1 1zM368 125q2 0 3 3q-3 -1 -3 -3zM362 121h3q1 1 1 3l-2 -1h-2v-2z" />
    <glyph glyph-name="F" unicode="F" horiz-adv-x="432" 
d="M138 -18.5q-9 6.5 -15 11.5q-14 14 -22 25t-16 28q-3 6 -7 18q-1 2 -2 4.5t-1 5.5q-1 9 -3.5 20.5t-2.5 18.5l-1 8q-2 5 0 10q3 6 0 11v2q-1 3 0 9t0 9l-1 7q0 3 2 11q1 2 2.5 7t4.5 9q2 3 0 6q0 3 1 7t-1 6q1 7 0 14l2 4q2 4 -1 7q-4 3 -7 7q-2 2 -5 5.5t-7 7.5l-4 5
q-15 30 -19 56v2q0 5 5 8q6 4 14.5 6.5t11.5 3.5q7 2 13 4t13 4l8 4q7 3 10 11l5 13q4 20 7 29q4 18 7 27q1 3 2 8.5t3 8.5q1 4 2 8.5t3 8.5l7 17l2 6q5 16 22 59q1 3 1 8q2 5 -3 7q-4 0 -8 2q-2 0 -5 3q-1 2 -5 9.5t-4 14.5q-1 3 -2 8.5t-4 12.5q-2 4 -3.5 10.5t-2.5 10.5
v4q0 6 1 9q0 4 4 4l12 3q24 7 41 6h4q12 0 15.5 1.5t6.5 9.5l5 19q4 10 7 14t7 4h2q8 0 11 -7q3 -11 12 -17q7 -4 12 -11q2 -5 10 -5q5 0 10 1l10 2q4 1 7.5 0.5t7.5 0.5l30 5q20 2 30 4q7 1 13.5 2.5t13.5 2.5q18 2 34 6l23 4q5 1 13.5 2.5t14.5 1.5q2 0 6 1.5t7 -1.5
q2 -2 2.5 -5.5t1.5 -5.5q0 -3 1 -4q6 -4 6 -10v-7q0 -2 1.5 -5t0.5 -5l5 -6l3 -5q3 -3 1 -7q-2 -3 0 -6v-3q0 -4 -2 -8l-5 -7q-1 -3 -5 -3q-3 0 -7 -2.5t-7 -3.5l-14 -3q0 -1 -2 -1q-5 -4 -13.5 -6t-12.5 -3q-21 -4 -76 -13q-4 -1 -10 -1q-8 0 -24 -4q-4 -1 -11 -2t-17 -1
h-6.5t-7.5 -2q-1 -1 -4 -1q-5 1 -11 0q-22 -6 -33 -7q-2 0 -6 -2q-5 -2 -8 -6q-2 -4 -4.5 -10t-4.5 -14l-12 -37q-7 -21 -16 -52q-3 -7 -6 -18.5t-6 -19.5v-8q0 -2 1.5 -3t2.5 0l6 1q7 4 16 7.5t15 6.5l22 10q15 5 32 14q8 4 17.5 7.5t19.5 8.5q6 5 17 5q4 0 5 2
q2 3 7.5 4.5t7.5 3.5q5 1 11 3.5t10 3.5q3 0 3 -2q4 -5 4 -13q0 -4 -2 -10q0 -2 -1 -3t-1 -2q-3 -11 -10 -21.5t-15 -19.5q-2 -3 -4.5 -4.5t-4.5 -3.5q-5 -2 -6 -5q-6 -9 -21 -17l-4 -2q-9 -5 -16 -10t-13 -8q-10 -6 -26 -18l-21 -12q-9 -4 -15.5 -8t-11.5 -7q-11 -7 -13 -9
t-15 -10q-13 -5 -22 -10q-8 -3 -10 -11q-4 -12 -5 -18q-8 -30 -9 -35q0 -5 -3 -16t-4 -17q0 -3 -2 -8.5t-2 -8.5q0 -4 -1 -7.5t-1 -8.5l-2 -14q0 -17 -3 -25q0 -7 -1 -16t0 -16t1 -22q0 -5 2 -15q5 -14 14 -19q2 -1 3.5 -1h2.5q4 2 7 2t4 -1q4 -6 5 -9q2 -11 5 -17
q2 -5 0 -10q0 -3 -2 -5q-4 -3 -12 -7q-3 -2 -6 0q-4 4 -13 10.5z" />
    <glyph glyph-name="G" unicode="G" horiz-adv-x="528" 
d="M502.5 285q-0.5 -1 -0.5 -2q-1 -8 -3 -21t-6 -30q-3 -10 -5.5 -18.5t-4.5 -15.5t-4 -17t-4 -16q-4 -11 -10 -33q-7 -29 -11 -38q0 -9 -3 -17q-1 -3 -2 -8t-1 -8l-7 -29q-2 -10 -4 -32l-1 -9q0 -4 2 -14q3 -12 1 -20q0 -3 -2 -3q-3 -1 -10 -1l-5 3q-3 4 -7 7
q-2 1 -1.5 2.5t0.5 2.5q0 2 -1 3q-3 1 -4 0q-1 0 -1 -0.5v-0.5q-3 -3 -5 -2q-4 3 -8.5 6.5t-7.5 5.5q-1 0 -5 4l-11 11q-2 3 -4 9q0 11 -1 18.5t-2 13.5q0 5 1 8q0 5 5 5q1 1 2.5 0.5t2.5 0.5l3 3l0.5 0.5t-0.5 1.5q0 8 3 20t4 19q3 9 3 11v7q0 13 5 20v4q1 17 5 29l1 6
q0 4 -4 3h-2q-2 2 -2 3q1 6 6 11q5 -2 7 1q5 10 2 18l-3 2q0 2 -1 4.5t0 4.5q1 8 5 17l-1 4h-2q-7 -5 -25 -23q-35 -37 -45 -46l-6 -7q-5 -7 -12 -12q-4 -3 -10 -11q-3 -5 -8 -9.5t-7 -6.5l-31 -31l-27 -24q-10 -7 -28 -23q-3 -3 -9 -7q-4 -2 -15.5 -6.5t-19.5 -9.5l-3 -1
q-8 -1 -17.5 -3t-16.5 -2q-21 0 -40 14q-2 3 -7 5.5t-8 5.5q-2 2 -5.5 5t-7.5 7q-2 3 -6.5 9t-8.5 9q-4 6 -7.5 10.5t-6.5 8.5q-4 7 -4 16v21l-3 20q-1 5 -1.5 13t-2.5 13l-1 20q1 4 1 12t-1 12q0 14 3 29l5 30q1 4 1 10.5t1 11.5q1 6 3 10.5t3 7.5q4 12 4 18v2q0 3 2 8t3 9
q0 2 1 4t1 3q1 10 7 19q4 5 4 13q0 2 2 8q6 8 6 10q1 2 1 4.5t1 4.5l7 12q2 4 2.5 7t0.5 5q2 4 4 9t4 9q3 3 4.5 7t3.5 7q1 3 3.5 7t4.5 9l8 16l6 12q4 10 9 13q2 2 2 3q0 6 6 10q4 2 8 9l3 5q0 5 2 7q5 7 11 15.5t13 19.5l12 15q16 16 23 28q4 6 10 10q2 2 7 6.5t8 9.5
q7 11 18 11q3 0 7 4q6 6 11 7q4 1 7 4q12 6 38 12q4 1 12 1q11 0 16 -1l6 -2l23 -12q11 -4 18 -15q8 -10 15 -23q4 -7 6 -17q4 -13 5 -17q5 -25 5 -46q-2 -26 -13 -47q-4 -7 -6.5 -12.5t-5.5 -10.5l-10 -20q-3 -6 -11 -8q-1 -1 -5 -1t-8 3q-12 12 -16 20q-14 29 -20 52
q0 5 1 8t5 9q4 5 8.5 15t9.5 18q2 3 2 9q0 2 -1 3.5t-2 1.5h-7q-11 0 -21 -3q-34 -10 -62 -35l-10 -10q-16 -12 -36 -40l-18 -24q0 -1 -2 -3q-3 -10 -14 -24q-8 -12 -11 -19q-2 -5 -5 -11l-6 -12l-10 -20q-9 -16 -16 -36q-4 -13 -14 -37q-1 -2 -2 -6t-4 -6l-2 -4
q1 -8 -2 -18.5t-4 -16.5q0 -2 -3 -1q-2 0 -3 -1q0 -3 0.5 -6.5t-0.5 -5.5l-2 -10q-6 -20 -7 -31q0 -3 -2 -7q-5 -18 -5 -34q0 -4 -2 -16q0 -3 -1 -3q-5 -5 -2 -13v-4q0 -5 -1 -8q-3 -4 -3 -9v-26v-2q4 -14 7 -21q0 -4 6 -4q7 0 10 1q25 8 47 21l37 24q14 10 20 16l25 23
q4 4 6 5q7 3 18 16q4 4 11.5 10.5t10.5 12.5l14 10q7 12 16 16q1 1 1 2.5t1 2.5q2 4 5 2q1 0 1.5 -1t1.5 0q1 0 5.5 2t5.5 8q0 2 1 4t1 5q0 4 2.5 6t6.5 1l3 -1q4 -1 5 2v3v1l1 -1l4 3q7 4 7 11q0 2 1 3q0 3 2 3q6 2 3 6l6 6v1l1 -1q8 4 10 7t7 3q2 0 4 4q1 1 2.5 4.5
t4.5 4.5q9 4 6 14q0 3 2 3l5 1q5 0 6 3h1h-1q1 0 4 1t2 5v0.5t1 0.5q1 1 4 1q6 2 9 7q0 3 1 4l4 1q14 0 25 -4q7 -2 10 -6q1 -3 7 -7q8 -6 12 -16q6 -14 10 -21q6 -11 6 -13q2 -7 4 -23q1 -1 0.5 -2zM402 359l1 -1q-2 0 -2 1h1zM403 357v0v1v-1zM101 339h1l-1 1v-1z
M354 314.5v0.5l1 -1q-1 0 -1 0.5zM373 315l-1 -1h1v1zM329 284h1l1 -2l-2 1v1zM277 228q0 1 -1 1v-1h1zM410 217l-1 2l-1 -2q0 -1 0.5 -1.5t1.5 0.5v1zM400 208q1 1 3 1l1 -5q0 -6 -5 -8l-2 -1l-1 2q0 7 4 11zM389 159q-1 0 -1 3h0.5t0.5 1l1 -2zM383 130q0 -1 -2 -3l-1 1v5
l2 2zM372 78v15l1 2l1 -2q1 -5 0 -11q0 -4 -2 -4zM372 77q-1 0 -1 -1v1l1 1v-1v0zM371 76l4 -14q0 -3 -2 -5l-4 -2l-1 2l-1 8l1 8zM378 41l-2 3q-1 1 -3 -1t-1 -5q0 -2 2 -2h2z" />
    <glyph glyph-name="H" unicode="H" horiz-adv-x="543" 
d="M527 640q-4 -27 -7 -44q-1 -5 -1 -13.5t-1 -13.5q-1 -4 -2 -13t-3 -13v-6q0 -11 -6 -35q-4 -14 -6 -31l-3 -12q-11 -48 -16 -64q-2 -8 -1 -14q0 -1 1 -2.5t2 -1.5l14 -1h8q4 -1 7 -4t3 -7l1 -12q0 -4 -3 -7l-8 -7q-2 -2 -3 -2q-6 -1 -15.5 -5.5t-14.5 -4.5q-2 0 -6 -2
q-6 -2 -8 -8q-4 -9 -5 -17l-9 -40l-6 -22q-1 -3 -2.5 -9t-3.5 -10l-5 -15q-1 -3 -3 -7.5t-1 -7.5q-1 -7 -4 -16t-4 -15q-2 -5 -4 -14.5t-4 -14.5q-3 -9 -7 -29l-7 -29q0 -2 -1.5 -8t-0.5 -10q0 -4 -1 -5q-3 -5 -2 -10q0 -3 -2 -5q-2 -7 0 -10t0 -6l-0.5 -2t0.5 -3
q1 -4 -4 -7q-4 -2 -7 0l-15 10q-4 4 -4 6l-2 4q-4 8 -11 7q-3 0 -4 1q-2 0 -2 2q-2 6 -2 10q1 3 1 9t-1 9q0 4 2 2l2 -1l3 -3q0 1 2 3q5 18 8 25q1 3 3.5 9t3.5 11q1 7 1 22q0 7 3 13l8 27q-1 7 0 14q1 1 1 3.5t1 3.5q2 3 0 8q-2 3 2 5q6 6 4 13v6q-2 4 -2 5q0 4 2 8
q1 3 3 8t2 9q2 3 3 8.5t2 8.5q3 8 4 14.5t2 10.5q1 2 -0.5 4t-3.5 1q-6 -3 -14 -1q-7 0 -10 -1l-25 -5q-5 -1 -12 -2t-11 -3q-9 -1 -20 -3.5t-18 -2.5q-2 0 -3.5 -1t-3.5 -1q-5 -1 -12 -3.5t-13 -2.5q-6 -3 -14 -4t-11 -1q-19 -4 -26 -5q-6 -1 -17 -3t-20 -3q-7 0 -11 -4
t-5 -11q-1 -2 -1 -6q-2 -25 -7 -45q-1 -17 -6 -33q-4 -17 -5 -28l-0.5 -1.5t0.5 -2.5l1 -4q0 -5 -1 -8.5t-2 -6.5q-2 -5 0 -10q2 -7 0 -11q0 -1 -0.5 -3t0.5 -3q2 -4 4 -13t4 -14l3.5 -10.5t6.5 -13.5q3 -4 4 -7t2 -5q2 -2 2 -8q0 -5 -1 -8q0 -2 -1.5 -3t-2.5 0l-17 10
q-10 7 -15 13q-1 2 -3 3t-3 2q-3 3 -1 7q0 3 -1 4q-5 3 -8 11.5t-5 11.5q-1 5 -4 12t-3 11q-1 5 -5 22q0 4 -1 5q-4 6 -4 18v35q0 39 3 58q1 7 1.5 16.5t2.5 15.5q-1 2 -1 6q0 5 2 13q0 6 -2 8q-3 3 -7 10t-9 10q-1 4 -5 8l-6 6q-3 4 -5 8t-5 7v1q0 2 1 4t3 3q15 5 27 5
q7 0 11 -1q5 -1 6.5 -0.5t3.5 4.5q0 2 2 6l6 25q1 3 4 10t3 13q2 5 3.5 12.5t3.5 12.5q1 10 4.5 22t4.5 18q4 13 10 39q1 3 4 13.5t3 19.5l1 4l9 31q1 5 3.5 15t5.5 17q5 15 10 35q1 7 5 21l8 37l-1 8q0 2 2 3.5t4 2.5h7q5 0 6 -2l7 -7q2 -3 15 -19q8 -11 16 -25q2 -4 1 -8
q0 -6 -1 -9q-9 -34 -15 -64q-2 -7 -4.5 -16.5t-4.5 -20.5q0 -4 -2 -10q-4 -8 -4 -13q0 -4 -1 -6q-3 -8 -10 -37q-5 -17 -10 -46l-2 -6q-3 -7 -5 -17.5t-4 -16.5q-6 -22 -8 -33l-5 -16v-8q0 -1 1.5 -2t2.5 -1q2 0 4 -0.5t4 0.5q9 2 15.5 2.5t10.5 0.5q10 2 26 4l12.5 2.5
t12.5 1.5q7 2 23 4l24 5q26 6 39 7q6 3 14.5 4t13.5 2q4 2 8 2h2q8 0 17 4t11 5q5 3 5 8v4q0 4 4 8l3 3q1 2 0 4l-1 8q0 7 3 13q2 6 -1 10q-2 3 0 9l9 14q2 3 0 8q-3 4 -1 13l5 13q2 4 1 6q0 5 1 10.5t1 10.5q1 4 0.5 6.5t-0.5 3.5q2 4 2.5 9t1.5 9q2 6 2 9q0 10 4 30
q0 4 1 12.5t3 15.5q1 6 1.5 12.5t1.5 12.5q2 9 3.5 21t2.5 19q1 9 5 27l2 14q1 8 8 8q11 0 18 -8q12 -14 17 -21q4 -3 5 -8q2 -5 5 -10.5t4 -9.5q4 -11 2 -27zM420.5 399h-0.5v1h1q0 -1 -0.5 -1zM420 399v-3q-3 2 0 3zM420 396h1l-1 -1v1z" />
    <glyph glyph-name="I" unicode="I" horiz-adv-x="300" 
d="M87.5 2h-0.5q-3 -2 -7 -2t-12 4q-2 1 -4.5 1h-3.5q-8 0 -16 6q-7 5 -10 15q0 2 -3 5q-6 4 -9 13q-4 6 -7 14.5t-5 12.5q0 4 4 6q7 3 12 2q6 -1 17.5 -3.5t18.5 -5.5q8 -3 18 -1q6 0 8 5q1 3 3 9.5t2 11.5q1 5 3 11t1 11q4 12 4 29v4q3 6 3.5 15t0.5 13l1 8q3 8 3 18
q0 12 4 21q3 8 7 26q2 5 2.5 12.5t1.5 13.5q1 1 1 3v5t2 7l-1 3q0 3 2 7.5t3 8.5q0 2 2 10l2 21q1 4 1.5 10t3.5 10q1 1 1 4v5q0 9 2 14q1 4 2 9t2 9q1 2 1 6q0 3 -0.5 8t1.5 9q4 9 1 17q2 8 4 24q4 16 5 25l6 30l4 17q0 9 3 16q1 3 1 9q0 3 0.5 8.5t2.5 9.5q1 1 1 4v2
q0 8 -8 10q-12 2 -17 4q-10 3 -18 12q-3 2 -6 6l-3 5q-2 7 -6 17.5t-7 17.5q0 1 -1.5 5t0.5 8l1 2q0 2 -1.5 4.5t-1.5 5.5q0 4 3 7q4 2 6 2q14 -2 19 -4q12 -3 24 -3q5 -1 16 -1l27 1q22 0 52 7q5 1 13.5 3t19.5 6q1 1 4 1q5 0 8 -4q0 -1 1 -2l1 -1q2 1 2 5q2 2 2 3l2 -3
q4 -4 5 -1q2 0 2 3l-1 4q0 1 1 2t3 1t4 -1.5t3 -2.5q4 -4 4 -7l-2 -24q-3 -16 -15 -28q-5 -4 -10 -12q-2 -4 -6 -5q-3 -3 -7.5 -5.5t-6.5 -5.5q-7 -3 -19 -11l-13 -5l-11 -5q-1 0 -2 -1.5t0 -3.5q0 -2 1 -3.5t1 -3.5t0.5 -4t-0.5 -4q-2 -11 -7 -41q-2 -10 -3.5 -21t-3.5 -21
l-5 -33q-1 -15 -7 -45q0 -7 -1 -10q0 -3 -1 -9.5t-2 -10.5t-1 -12q0 -3 -1 -8t-2 -8l-1 -4q-1 -4 -1 -10t-2 -9q-1 -4 -2.5 -8.5t-2.5 -8.5q-4 -17 -5 -23q-1 -8 -3 -15t-3 -15l-6 -27q-11 -43 -12 -50q0 -3 -1 -4q-5 -8 -6.5 -19t-2.5 -15l-8 -37q-2 -4 -2 -6v-1
q0 -4 -2 -10t-3 -8q-2 -4 1 -9q2 -4 6 -4q1 1 4 1q20 4 31 8q15 5 29 5t25 7q5 3 14 1q2 0 2.5 -2t-0.5 -3q-5 -8 -10 -13q-16 -16 -30 -25q-10 -7 -19 -12t-15 -9q-10 -7 -25 -12q-12 -4 -17 -7q-11 -6 -35 -14q-9 -3 -16 -1q0 1 -0.5 1zM140 102v2h-0.5t-0.5 1l-1 -2v-2z
" />
    <glyph glyph-name="J" unicode="J" horiz-adv-x="432" 
d="M518 714q0 -1 -3 -1l-1 1q1 1 3 1zM484 707q-2 -2 -4 -2q1 1 1 2.5t1 2.5v0.5t1 0.5l2 -1q1 0 -1 -3zM484 696q1 0 1 -1q3 -5 -1 -6q-6 -2 -9 -7q-2 -4 -11 -8q-1 -1 -3 0q-3 2 -7 -2q-1 -2 0.5 -3t2.5 -2q3 -3 0 -6q-1 -3 -5 -3q-1 2 -3 0q-10 -9 -24 -18l-5 -2
q-32 -14 -47 -23q-3 -2 -5.5 -2.5t-3.5 -0.5q-6 -2 -4 -8q0 -6 2 -8q7 -11 9.5 -25.5t3.5 -17.5l3 -12t2 -14q-1 -8 -0.5 -14.5t0.5 -11.5t0.5 -15t-0.5 -17q-2 -14 -2 -21q0 -5 -1 -10t-1 -10q0 -2 -1 -3t-1 -2l1 -5q0 -4 -1.5 -9t-0.5 -8q0 -4 -2 -12q0 -1 -1 -3.5t0 -4.5
q0 -3 -1 -6.5t-1 -6.5q0 -10 -6 -32q-2 -6 -3 -13t-3 -14q0 -1 -0.5 -3.5t-2.5 -5.5q-8 -20 -10 -30q-1 -5 -3.5 -12t-3.5 -13q0 -4 -2.5 -11.5t-2.5 -11.5q-2 -4 -4 -14l-6 -12q-7 -10 -13 -27q0 -2 -2 -6q-3 -12 -11 -23q-24 -38 -28 -43q-8 -11 -16 -19q-6 -6 -8 -11
q-3 -5 -8 -8l-27 -24q-10 -10 -13 -11q-8 -8 -25 -14l-13 -5q-10 -5 -23 -5q-9 0 -14 1q-19 3 -32 15q-1 1 -3.5 1h-3.5q-3 0 -3 1l-4 4q-5 9 -12 11q-5 2 -7 6q-3 5 -8 9.5t-7 6.5q-12 11 -12 29q0 5 -2 7q-4 6 -4 9t-1 8t0 9q3 9 3 26q0 7 3 11l6 11q2 4 6.5 11t5.5 13
l3 3q4 1 6 5q2 9 5 13l3 12q2 10 9 14q3 2 5 7q0 6 6 12l-1 3q2 3 3 6t2 5q1 3 3 4.5t3 3.5q0 1 3.5 3t2.5 4t1 3.5t3 2.5q0 2 -1 3q-1 5 3 5h2l1 2l1 2q0 5 4 6q2 0 3.5 3.5t5.5 2.5q1 -1 1.5 0t0.5 2l-1 6l8 6q8 2 11 5q2 2 9 13q5 7 8 9.5t10 5.5l5 3q3 2 1 4q-1 3 1.5 4
t3.5 1q2 2 4 -1q2 -2 4 -2h3t3 0.5t2 3.5l1 6l2 3q3 1 9.5 3t11.5 2q3 0 4 -1q1 -6 7 -3h2q4 0 8 -6v-4l-14 -17q-1 -1 0 -2.5t2 -1.5q1 -1 4 -1q0 -5 -1 -7h-1q-3 4 -7 0h-1t-2 -1v-3v-1q-2 0 -4 -4l-3 -7q-2 -4 -5 1q-3 2 -3 -1q-2 -6 -5 -8q-4 -4 -5 -6q-3 -6 -13 -14
l-17 -17q-1 -3 -5 -3q-2 -2 -4 -6l-2 -8q0 -1 -1.5 -2t-3.5 0q-5 4 -2 10q1 2 -1 4l-2 -1l-1 -2q-3 -5 -1 -9q0 -2 3 -5q3 -7 0 -11l-18 -33q-5 -9 -6 -17q-4 -10 -7 -13q-2 -2 -2 -5q-1 -10 -6 -22t-7 -18q-1 -4 -1 -10.5t-1 -10.5q-3 -15 -3 -30q0 -9 3 -17q1 -2 3 -2l6 2
l18 9q16 9 21 15l8 6q9 7 19 18l5 5q3 3 8 8.5t8 9.5q14 18 26 35l3 5q2 6 7 13.5l7 10.5l5 9l13 29q4 8 5 13q6 20 11 30q1 1 1 4v2q0 3 2 6.5t3 5.5q0 2 1.5 6.5t0.5 7.5q-1 2 2 5q3 5 4 12.5t3 12.5q1 2 0.5 4t-0.5 4v4q1 3 3 7t2 8q0 9 1 14q4 19 5 26l5 25v4
q0 9 2.5 20.5t3.5 18.5q2 6 2 8v24q0 8 0.5 20t-0.5 28q0 2 -1 7.5t-3 9.5q-2 2 -3 2l-4 -1q-20 -8 -36 -11q-16 -4 -36 -4q-3 0 -6 -1t-5 0q-5 1 -16 1.5t-16 2.5q-3 0 -4 1q-4 3 -12 5l-13 6q-7 3 -19 11l-15 13l-2 4q-1 3 -2.5 7t-1.5 8q-2 5 -3 5q-4 4 -6.5 11t-3.5 10
l-6 26q-1 3 -1 11q0 9 9 9q2 1 8 1h3q10 0 26 -10q2 -1 7 -9q3 -4 9 -8q27 -15 51 -15q30 0 44 1q4 0 6 1q1 0 2.5 2t0.5 3q-8 18 -13 27q-4 6 -4 11q0 1 2 3q1 1 5 1t6 -1l10 -6t10 -7q6 -5 13 -9.5t13 -9.5t17 -3l8 3l15 4q5 1 32 9q3 1 5.5 2t4.5 2h2q3 0 5 1l4 2t5 2
t6 1q8 -2 9 3q6 4 9 5t10 1l4 -6q1 -1 3 1t3 2.5t3 -0.5l2 -2q2 -2 4 -2t4 3q6 6 16 3l5 -3l4 -8v0zM436 708.5v-0.5v1h1q-1 0 -1 -0.5zM480 705v-1l-1 1h1zM504.5 702.5q0.5 0.5 1.5 -0.5v-0.5t-1 -0.5h-1q0 1 0.5 1.5zM504 700q-1 -3 -4 -3q1 2 4 3zM500 696v1v-1h-1h1z
M483 696l-2 -1q-1 -1 -0.5 -1.5t1.5 0.5q1 0 1 2zM496 696h3q0 -4 -2 -10l-2 -1l-2 1q-2 6 0 9zM434 695l-1 -1l1 -1v2zM471 693l-2 1q-2 0 -1 -3l1 -1q2 0 2 3zM238 404q5 0 5 -7q-5 -2 -8 1q-1 1 -1 4l1 1q1 1 3 1zM248 396q2 5 6 4q11 -5 15 -9q3 -4 6.5 -7.5t5.5 -6.5
q2 -2 0 -4q0 -1 -3 -1h-2q-4 0 -8 4t-10 12q-2 2 -6 4v1v-1q-2 4 -4 4zM244 397v-1h-1v1h1zM248 393l-4 3h4v-3zM252 392v0h-1h1zM234.5 391.5q1.5 0.5 2.5 0.5l1 -1q0 -3 -3 -2q-1 0 -1 1q-1 1 0.5 1.5zM248 392h3q-1 -2 -3 0zM218 383q-1 0 -1 -1q0 -2 2 0l-1 1v0z
M277 367h2l-1 -1zM232 353q0 1 2 1q-1 0 -1 -1h-1zM219 346h-1v-0.5t1 -0.5v1zM231 344v1h1v-1h-1zM233 343l-1 1q1 0 1 -1zM221 335q-1 1 -1 2v3q2 0 3 -1v-3q-1 -2 -2 -1zM193 339l1 -1v1h-1zM133 309h2q3 1 2 2l-1 1l-2 -1zM130 306l1 2h-1v-2zM173 307l1 -1v1h-1z
M134 262q-1 0 -1 -1q0 -4 2 -2v2v0.5t-1 0.5v0zM98 186h1l-1 1v-1z" />
    <glyph glyph-name="K" unicode="K" horiz-adv-x="477" 
d="M512 631q0 -5 -2 -13q0 -4 -2 -10l-6 -8l-1 -3q1 -1 1 -3t-3 -8q-2 -3 -6 -8t-6 -8q-1 -2 -4.5 -3.5t-4.5 -3.5q0 -4 -5 -9q-16 -18 -30 -28l-4 -4q-3 -6 -9.5 -11.5t-9.5 -9.5l-5 -3q-12 -6 -15 -13q-4 -1 -11 -7.5t-11 -8.5q-2 0 -4 -2l-2 -4t-3 -4l-9 -5l-9 -8
l-36 -30l-16 -13q-12 -8 -16 -12l-6 -2q-3 -2 -9 -8t-13 -9q-13 -7 -23 -15q-5 -2 -12 -6.5t-12 -7.5q-1 -2 -5.5 -2.5t-6.5 -2.5q-2 -3 -6 -4t-6 -3q-2 -1 -4.5 -1.5t-4.5 -2.5q-4 -4 -14 -8l-4 -2t-4 -3q-12 -8 -13 -20q-2 -12 -4 -20q-4 -20 -5 -31l-3 -20q0 -7 4 -11
q-1 1 14 -17q16 -18 43 -32q23 -14 44 -14l9 1q36 -1 75 24q25 15 29 17l11 5q2 1 3.5 0.5t2.5 -0.5q3 -2 5 2q5 7 6 8q4 6 10 3q6 -1 8 -8q1 -5 1 -14q2 -10 1 -16q0 -3 -2 -6.5t-2 -6.5q-2 -13 -16 -25l-9 -10l-4 -4q-7 -2 -11 -6q-7 -7 -15 -8q-3 -1 -9 -5q-3 -1 -5.5 -3
t-4.5 -2q-5 -1 -10.5 -3.5t-9.5 -2.5q-17 -5 -33 -3q-20 2 -41 7l-8 1q-3 1 -7.5 2t-7.5 3t-9 5.5t-9 6.5l-3 3q-22 16 -31.5 26.5t-16.5 18.5q-1 2 -5 6q-1 1 -3 0.5t-2 -1.5q-3 -9 -3 -10q-1 -8 -3 -18t-2 -17q-2 -22 -4 -34q-1 -4 -1 -9t-1 -8q-1 -6 -1 -18q0 -3 -1.5 -9
t-0.5 -11q0 -13 1 -20v-11q0 -17 -1 -25q0 -2 -2.5 -3t-4.5 0q-6 2 -7 6q0 3 -1 4q0 1 -1 2l-1 1h-1q-4 0 -7 3t-6 4q-1 1 -2.5 1h-2.5q-2 -2 -4.5 -0.5t-3.5 1.5q-3 3 -1 7q2 6 1 9q-3 4 -3.5 9.5t-0.5 8.5q-1 2 -3 2l-3 -3q-1 -2 0 -4.5t1 -4.5l-1 -2h-1l-2 2q0 3 -1 8
t0 9q0 2 3 2q3 -1 4.5 -0.5t1.5 3.5q0 1 1.5 4t-1.5 5v2q2 5 2 16l1 62q0 9 5 15q1 1 1 2.5t-1 2.5q-1 3 -1 9t1 9t-1 10q0 3 1 5l3 12q2 4 0 7q-1 3 -1 9q0 8 2 11q2 4 2 14q0 5 -1 7q-6 13 -9 22q-6 14 -10 20q-6 12 -9 26l-3 12q-1 2 -1 6q0 6 6 16q1 1 2 0.5t2 -0.5h7
q8 0 14 2q1 0 1 0.5v0.5l-1 2l-4 -1q-3 0 -3 1q-2 3 -1 4q2 4 7.5 9.5t7.5 8.5q4 4 6.5 9t6.5 9l4 3q7 4 8 11.5t1 8.5q0 2 -1 3q-1 3 0 6q3 6 3 11t1 8l2 6q1 2 1 6.5t1 6.5q3 4 1 8q-3 4 0 8l5 15q2 5 -1 9q-2 4 -1 6q0 7 3 11q2 8 1 12q0 5 1 9t1 9t1 8.5t2 6.5q1 7 5 26
l4 23l2 6q4 7 5 17t2 14q4 18 5 27l5 26q1 4 1 14q0 6 -1 10q0 2 1 4t3 2q3 2 5 -2q2 -3 15 -13l15 -13q2 -1 9 -11q10 -14 14 -26q1 -7 0 -14q-1 -8 -3 -16.5t-3 -16.5q-3 -9 -4.5 -21.5t-4.5 -19.5q-1 -2 -1 -8q-2 -12 -4 -17q-2 -6 -2.5 -10.5t-0.5 -7.5q-5 -17 -6 -33
q-1 -7 -3.5 -23t-6.5 -28q-2 -10 -2 -16l2 -6q1 -2 3.5 -3t4.5 0t5 3t6 1q1 0 3 2q1 2 3.5 3.5t3.5 3.5q2 3 8 5q9 5 22 10q8 5 9 7q0 2 3 2q4 1 6 -3q1 -1 1 -4l-2 -2q-1 -3 1 -3l1 2v3h4h3q7 0 10 6t2 10q-3 6 3 9l6 6h2q2 -2 2 -3q0 -3 -2 -5q0 -2 2 -2h1q3 3 3 9
q1 6 6 8q1 0 3 2t4 5.5t5 5.5l11 7q7 6 9 8q6 10 18 16t15 15q8 8 9 10q4 4 10 7q2 0 2 3l12 13q19 19 41 46q4 5 27 35q9 12 10 13l8 13q4 2 6 2q5 0 10 -5q1 0 1 -0.5v-0.5q0 -8 7 -17l-1 -4q-1 -2 -1 -5t7 -7l2 -1q4 -2 4 -5q3 -9 3 -17zM322 508.5q0 0.5 -1 0.5h-2v-2h2
q1 1 1 1.5zM299 487v0.5t-1 0.5l-1 -1q0 -4 2 -2v2zM257 470q0 2 1 2v-1q-1 0 -1 -1zM253 468l3 2q0 -2 -1 -3q-3 0 -2 1zM214 433q-2 0 -3 -1h1q0 -1 0.5 -0.5l0.5 0.5q1 0 1 1zM50 80q0 -1 -1 -1h-2l-1 1l1 2q3 0 3 -2v0zM50 9q2 -2 2 -3v-3q0 -1 -2 -3l-1 2v3z" />
    <glyph glyph-name="L" unicode="L" horiz-adv-x="407" 
d="M387 169q0 -8 -1 -12q0 -3 -2 -5q-7 -7 -12 -21l-2.5 -2.5t-1.5 -3.5q0 -5 -4 -9t-11 -12t-14 -13q-3 -6 -10 -12t-11 -9q-9 -10 -22 -20l-12 -11q-2 -3 -6 -5t-6 -5q-1 -2 -7 -4q-3 -2 -9 -5.5t-9 -6.5q-3 -2 -7.5 -3t-6.5 -4q-2 -2 -5.5 -4t-5.5 -4l-6 -2
q-3 -2 -11 -3.5t-11 -4.5q-7 -1 -12 -3t-9 -3q-2 -1 -3.5 -0.5t-2.5 0.5t-2.5 0.5t-3.5 -0.5q-6 -2 -8 -2q-3 0 -9 2q-2 0 -6 1t-7 2q-6 3 -12 5t-12 5q-3 2 -9 4q-5 2 -7 5q-1 4 -5.5 7t-6.5 5l-28 34q-12 18 -17 27q-3 6 -3 7q-1 4 -4 18t-2 26q2 14 1 21l1 8l1 6
q-1 4 -1 11q0 8 2 12l2 28q0 4 3 5q1 -2 2 -2t2 2q4 1 2 6q0 2 -2 2q-4 10 -2 15q4 14 4 22q0 1 3 7t3 13q-1 2 1 6q1 1 3 2.5t-1 4.5v1q4 4 4 7q2 14 6 21q2 2 2 5v2q0 3 2 7.5t2 8.5q0 5 3 11q6 14 7 23q1 4 3 9t3 10l5 19q1 5 3 9.5t3 9.5l5 25q1 6 3.5 16.5t5.5 18.5
q1 3 3 9.5t2 11.5t4 15l4 16q0 3 2 9t7 20.5t6 25.5q0 3 1 4q3 7 5.5 16.5t3.5 14.5l6 27q4 14 3 22l1 5q1 4 5 6t8 0l4 -2l24 -23q1 -2 3 -3.5t3 -4.5q10 -18 14 -27t1 -15q-8 -24 -18 -72l-3 -11q-5 -14 -7.5 -24.5t-4.5 -17.5q-3 -16 -7 -25q-2 -5 -3.5 -13t-2.5 -12
l-2 -12q-3 -6 -5 -14.5t-4 -13.5q-10 -34 -12 -40q-3 -7 -4 -13t-2 -10l-9 -29l-7 -27q-2 -5 -4 -15q0 -6 -2 -14q-5 -17 -9.5 -38.5t-6.5 -29.5q0 -5 -1.5 -12t-1.5 -10q-1 -4 -2 -11t-1 -17q2 -3 0 -7q-3 -14 -3 -31v-21q-1 -9 -0.5 -15.5t0.5 -10.5q0 -5 7 -7q6 0 20 2
l11 3q10 2 28 10q6 3 16 8.5t17 7.5l5 3q4 3 8.5 7.5t8.5 6.5q4 1 16 11l15 11q9 6 11 8q12 12 21 15l4 4q3 4 8 7.5t7 5.5l16 12q3 3 8 3v-3q-1 -4 2 -7q5 -2 7 0q3 5 8 5q4 1 10 5h6l4 -8q2 -3 4 -3l2 7l3 1q3 0 3 -2q0 -4 1 -6q0 -5 5 -1l2 1q7 5 0 11l-3 3q-1 1 0 2.5
t2 1.5h2q5 0 7 -5q1 -4 1 -12zM38 227v-7h-4q0 3 1 4q0 3 3 3zM36 210l-1 -1h1v1zM366.5 207.5l0.5 0.5q0 3 4 -1l1 -1l-1 -2q-4 0 -4 3q-1 0 -0.5 0.5zM375 198l1 1h2q2 0 2 -2l-2 -1q-3 0 -3 2zM341 193l-2 -1v2zM338 191.5v-0.5q0 1 1 1q-1 0 -1 -0.5zM329 181q-2 2 -3 2
v2q5 6 12 6q-2 -3 -4 -9q-2 -2 -5 -1zM354 180q0 4 2 6h2q3 0 1 -3q-3 -3 -5 -3zM322 180q2 3 4 3q0 -3 -4 -3zM322 179h-1l1 1v-1zM364.5 164.5q0.5 0.5 -0.5 1.5l-2 1l2 -2q0 -1 0.5 -0.5zM316 166h-1v-1zM293 148v0.5t-1 0.5l-1 -3l1 -1q3 0 1 3zM347.5 110q0.5 0 1.5 1
l-1 2h-0.5t-0.5 -1l-0.5 -0.5t0.5 -0.5q0 -1 0.5 -1z" />
    <glyph glyph-name="M" unicode="M" horiz-adv-x="590" 
d="M615 625q-10 -18 -14 -27q-2 -3 -10 -19l-14 -32q-4 -11 -13 -28q-2 -5 -8 -17t-9 -22q-4 -11 -14 -33l-12 -29q-2 -7 -6 -16t-6 -14q-6 -20 -10 -30q-4 -9 -13 -40l-6 -18t-6 -22l-4 -19q-2 -12 -6 -28l-6 -24q-2 -12 -2 -16t-0.5 -11.5t-2.5 -12.5q-1 -3 -1 -10v-12
q-4 -13 -4.5 -30.5t-0.5 -24.5q0 -17 3 -32l1 -8q2 -20 4 -32q2 -6 2 -9q0 -4 -2 -14q0 -3 -3 -4.5t-6 0.5q-6 3 -7 4q-3 4 -11 8q-3 0 -3 4q-1 6 -7 7q-4 0 -6 4l-3 6q-1 3 -2 9t-4 9q-3 4 -4 10t-2 9q-2 8 -4 26q-1 2 -1 6q0 5 3 9q0 2 3 2q2 0 2 -3v-6l1 -5q0 -1 0.5 -1
h0.5l3 1q1 1 0.5 3t0.5 3q1 5 0.5 8.5t-0.5 5.5q0 7 -1 11q-1 3 -1 8q2 4 2 11t1 12q1 2 1 6q0 1 -1.5 3t-0.5 3q1 4 1 9t1 8q3 4 2.5 10t-0.5 10q2 8 2 11l-1 9q0 3 1.5 7t0.5 6v2q0 3 1 5t1 4q1 3 2 8t0 8q3 11 4 19.5t2 13.5q2 18 4 25q1 2 0.5 3.5t0.5 2.5q3 7 5.5 18
t4.5 19l7 20l4 20q1 3 1 8q0 6 -2 9q-1 3 -4 3q0 7 6 21q0 3 3 1h0.5t0.5 -1q2 -4 2 -6q1 -2 0 -3.5t-3 -2.5l-3 -3q0 -3 2 -5q0 -1 2 -3q1 2 3 6.5t2 8.5q0 2 2 6t1 7q3 2 4.5 6t2.5 6q2 6 8 18q3 4 1 9l1 12v0.5t-1 0.5q0 1 -0.5 0.5l-0.5 -0.5q-2 -1 -5 -6q-1 -3 -5 -1
q-4 1 -9 -3q0 -1 -2 -3q-2 -3 -6 -6.5t-6 -6.5q-1 -3 -4.5 -7t-5.5 -6q-20 -27 -39 -47q-4 -4 -8 -9.5t-7 -8.5q-22 -25 -40 -42q-5 -5 -10.5 -11.5t-13.5 -13.5l-36 -33q-4 -4 -10.5 -7.5t-9.5 -5.5q-5 -3 -12.5 -4.5t-10.5 -2.5q-1 -1 -3.5 0t-4.5 1h-5q-6 0 -8 2t-6 4
t-7 4l-19 18q-12 11 -30 37l-6 6q-1 2 -3 0q-4 -7 -6 -15l-10 -51q-5 -31 -12 -58l-5 -20l-3 -11l-1 -6v-2q0 -5 -1.5 -10t-1.5 -9q-1 -8 -5 -22q-2 -10 -4 -15l-2.5 -10t-1.5 -10q0 -3 -1 -5.5t-1 -5.5q-1 -5 -3 -10t-3 -9q0 -4 -1.5 -10l-2.5 -10q0 -6 5 -4q4 2 6 2t3 -1
q6 -11 5 -21q-2 -13 -8 -39q-1 -3 -6 -3q-2 0 -8 3q-10 9 -26 14q-11 4 -15 10l-3 3q-8 5 -10 18q-1 4 -2 9.5t-1 13.5q0 6 1 9q0 3 2 2l1 -2q2 -3 4 -3v-1l2 -1q0 2 -2 2q0 8 4 12q2 1 2 2t1 2q-3 3 -3 4v16q0 4 1 6q3 8 3 25q0 3 2 5q1 3 1.5 9t2.5 9l-1 5v4q0 6 1 10
q3 6 3 12v4q0 5 2 15q1 3 1 7.5t1 6.5q7 17 7 38q0 2 1.5 5t0.5 5t2 7l3 14q3 6 3 7l-2 8v3q0 6 3 7q4 3 3 7q-1 1 -1 4q-1 2 -1 6q0 3 2 9q2 3 3.5 7.5t2.5 6.5q3 1 5 5q1 2 1 3.5t-2 3.5q-4 4 -2 6q2 3 2.5 8t0.5 8q0 4 5 4l1 3q0 2 -1.5 5.5t-0.5 5.5q0 3 2 3q4 -1 5 3
q2 5 3.5 12.5t3.5 12.5v2q0 14 5 31v4q3 2 3 4q0 6 -3 8q1 1 1 11v3q0 4 4 7l2 3q-1 3 -1 7q0 7 4 19l2 10q0 8 3 15q3 6 5 19q0 6 2 16q8 38 10 57l4 19q1 2 4 2q11 -2 13 -7q4 -8 15 -13q6 -1 10 -9q2 -2 4 -5.5t5 -7.5q11 -12 13 -39q1 -6 0.5 -10.5t-0.5 -7.5
q1 -8 1 -21t1 -21q1 -2 0.5 -3.5t-0.5 -2.5q-2 -12 -2 -38l1 -25q0 -13 -2 -37q-4 -29 -2 -71q0 -6 3 -14q2 -4 6 -4q6 0 8 1l19 11q27 22 32 27q11 13 21 19q7 9 18 19q6 5 10.5 10.5t8.5 9.5l32 33q2 2 9 2v-3h1q1 0 1 0.5v0.5q0 2 -2 2v6q0 6 5 9q3 3 6 1l-1 4
q0 1 -0.5 2t0.5 1q5 8 12 11q1 1 2.5 0t2.5 -1q3 0 3 2q-3 4 -1 10q0 2 1 3q2 3 5 3q2 1 4 -3q3 -3 4 -3l3 3l1 2v4q0 3 2 4t5 0l3 2q4 9 18 23q8 8 12 16q6 6 10 6q4 2 2 5q0 7 3 9t6.5 7t5.5 7t4.5 6t4.5 6l12 11q3 2 4.5 4.5t3.5 4.5q1 1 1 5q0 3 1 4t2 0.5t2 0.5
q3 0 2 4q0 2 0.5 3.5t2.5 1.5q0 1 2 1q6 0 7 6q1 2 2 5t4 7q3 3 1.5 7t-1.5 5q7 7 11 14q5 5 10 6q6 2 10 -1l12 -10l4 -4l12 -16q5 -7 10 -16q5 -11 10 -28q1 -3 -1 -9zM104 490q1 -3 0.5 -6.5t-0.5 -4.5q-4 2 -4 4q0 6 4 7zM381.5 488h0.5q0 1 -0.5 1h-0.5q0 -1 0.5 -1z
M86 420l-1 1l1 3q1 0 1 -0.5v-0.5zM444 422l-1 -5v-0.5t-1 -0.5l-1 3q0 3 3 3zM438 401q-1 -1 -1 2l1 1l1 -1q0 -2 -1 -2zM430 385h1l-1 -2v2zM74 360h1q0 -1 0.5 -1h0.5q-2 0 -2 1zM397 214l1 2h0.5t0.5 -1v-1q-1 -2 -2 0zM397 198v0.5t1 0.5l1 -1l-1 -2zM396 164
q0 -4 -2 -7q-1 3 -1 7v6l1 1l1 -0.5t1 -1.5v-5zM391 134q0 3 1 5.5t1 5.5q0 2 2 2l1 -2v-7v-8q0 -1 -0.5 -1.5t-0.5 0.5q-3 0 -3 1zM394 120q2 -2 2 -3q0 -5 -2 -5t-2 5q2 2 2 3zM410 85q-1 0 -1 -1q0 -2 2 0l-1 1v0zM415 67q0 2 -4 5l-3 2l-2 3q-1 1 -1 -1q2 -2 3 -2
q0 -9 1 -13l1 -1l2 1q3 4 3 6z" />
    <glyph glyph-name="N" unicode="N" horiz-adv-x="511" 
d="M516 674q0 -19 -1 -28q-1 -10 -5 -28l-1 -4q-1 -10 -4 -23.5t-4 -19.5q-1 -4 -3 -13.5t-2 -17.5q0 -2 -2 -8q0 -3 -1 -8t-2 -8q-2 -5 -3 -13.5t-3 -15.5q-4 -11 -8 -31q-2 -7 -3.5 -14.5t-3.5 -14.5q-1 -4 -2 -11t-4 -16q-1 -3 -1 -10q0 -6 -1 -10q-1 -7 -3 -13.5
t-3 -13.5l-6 -27q-1 -4 -1.5 -11.5t-3.5 -11.5q0 -5 -2 -12t-3 -12l-5 -23q-1 -4 -2 -11.5t-3 -11.5q-2 -8 -2.5 -13t-0.5 -9q-2 -8 -3 -16.5t-3 -16.5q-1 -8 -1 -22q0 -15 -3 -30q-1 -6 -1 -17q0 -18 6 -38q2 -10 2 -14v-30q0 -9 -8 -9h-3q-6 0 -13 5q-4 4 -1 7l3 3
q1 3 -1 5l-1 4h-6q-4 0 -5 -1q-8 -5 -12 -10l-7 -8q-4 -6 -14 -6q-4 1 -9 -2q-3 -2 -7 3q-1 0 -6 -2.5t-9 1.5q-7 0 -14 7q-1 1 -4 1q-2 -1 -6 -1q-5 0 -8.5 1t-6.5 2q-5 2 -13 4q-1 0 -4 3l-13 20h4l1 1l1 2l-3 3l-1 -1q-1 -1 -1 -2.5t-1 -2.5q-3 0 -3 2q-1 4 -7 8
q-3 3 -2 7q0 3 2 7q0 3 -2 3q-2 2 -4 3l-4 2q-8 13 -10 23q-4 7 -7 9q-1 1 -0.5 3.5t-0.5 4.5q-6 6 -11 18q-2 8 -4 12l4 9q0 3 -3 4q-1 1 -4 1l-1 7q-1 3 -5 7q-4 5 -6 17q-4 32 -8 47l-1 9q0 6 -2 14q-3 9 -3 18q0 5 -2 15q-1 3 -2 8t-1 8q0 6 -1 10v8q-2 8 -4 28t-4 29
l-2 21l-3 3q0 1 -0.5 0.5l-0.5 -0.5q-2 -6 -4.5 -15t-4.5 -21q-3 -17 -7 -28l-11 -46q-2 -14 -6 -21l-2 -8q-5 -26 -7 -35q-1 -5 -3.5 -15t-6.5 -17v-2q0 -5 -2 -9l-5 -28q0 -5 -1 -8q-3 -8 -6 -21t-5 -21q0 -2 -2 -8q-2 -3 -2 -9q0 -4 -1 -6q-4 -6 -5.5 -19t-3.5 -18
q-1 -4 -1 -10.5t-1 -10.5q0 -2 -1.5 -4t-2.5 -3q-2 -1 -2 -2t1 -3q1 -1 2 -2.5t2 -4.5q2 -2 2 -5q-4 -19 -5 -26q-1 -2 -3 -3t-4 0q-3 2 -19 10l-1 2h1l1 2q-2 0 -2 -2l-4 4q-1 3 -3.5 7.5t-5.5 7.5q-2 2 0 6t0 7q-3 5 -3 9v26q2 12 2 16q0 5 1 9t1 9q0 10 3 17q1 2 1 6v5
q0 9 3 19q1 2 1 8v8l2.5 10t1.5 9q0 6 2 18l5 30q2 10 2 15l2 8q0 4 0.5 11.5t2.5 12.5l4 21q1 5 2 13.5t4 13.5q0 6 1.5 14.5t2.5 13.5q3 17 9 32q3 7 2 12q0 4 2 12q6 28 7 43l3 7q7 17 10 39q2 8 2 12q0 6 5 31l5 19l6 23q5 14 6.5 27.5t2.5 19.5q4 30 8 46q1 3 4.5 5
t8.5 1q9 -3 11 -4q4 -2 8 -5q6 -4 16 -14l15 -15l2 -3q9 -12 9.5 -13.5t1.5 -15.5q0 -6 1 -17.5t2 -19.5q1 -10 1 -28q0 -6 0.5 -17t2.5 -19v-8l-1 -9q0 -3 2 -9v-4q0 -9 1 -15.5t2 -11.5q1 -11 1 -32q0 -37 1 -56q0 -12 2 -18q1 -4 1 -14q0 -21 -1 -32q0 -13 3 -19l1 -4
l-1 -5q0 -5 1 -9t1 -9v-8q0 -19 3 -28q1 -4 1 -10q0 -3 0.5 -10.5t3.5 -13.5q1 -5 2 -11.5t1 -15.5q0 -12 4 -20q5 -18 7 -23q9 -25 29 -47q15 -14 38 -22l5 -1q4 0 8 4l13 13q2 2 2 3q6 12 10 17q3 3 5 8.5t5 8.5q2 3 3 8.5t2 8.5q2 2 0 4q-2 8 -2 24q0 8 -2 11v16l1 8
q0 3 -0.5 6.5t0.5 6.5q1 4 0.5 8t0.5 8q1 3 0.5 7.5t-0.5 6.5q1 4 2.5 9t1.5 9v4q0 3 2 11q1 2 1 6q0 9 3 18q1 2 1 6q1 7 2 14.5t2 14.5q1 3 1 8t1 8l3 16q0 4 1 8t1 9q0 7 4 17q1 2 1 6q1 5 1 12.5t2 11.5t2.5 10.5t1.5 10.5l2 16q1 5 2.5 10.5t2.5 11.5q0 7 4 21
q2 6 4 18q1 5 2 13.5t3 13.5q2 4 2 8t1.5 10.5t2.5 10.5q1 8 5 22l2 4t1 5q0 6 1.5 15l2.5 15q0 7 4 21q3 11 3 20q0 3 1 10.5t3 12.5q1 3 0.5 6t0.5 6q0 13 1 20q0 1 1.5 2t2.5 0l17 -7q9 -2 15 -8l17 -18q3 -3 4.5 -6t3.5 -5q2 -6 2 -9zM199.5 170h0.5l-1 -1q0 1 0.5 1z
M198 168q0 1 1 1v-0.5t-1 -0.5v0zM234 84q0 1 1 1v-0.5t-1 -0.5v0zM362 84h-1l1 -1v1zM402 43v0v0zM321 28q0 1 -2 1l-1 -1l1 -1h2v1z" />
    <glyph glyph-name="O" unicode="O" horiz-adv-x="442" 
d="M179 2l-11 2q-4 2 -9 3t-8 3t-7 3.5t-7 3.5q-3 1 -8 6l-9 7q-4 4 -7 5q1 -1 -14 11l-15 19q-11 13 -19 39q-7 21 -6 45v12q0 5 -1 8q-3 9 -3 20q0 7 2 23q0 3 2 5q2 4 1 6q-3 7 1 13q1 2 1 6q0 3 -1 7t0 7q1 6 1.5 14t2.5 13q3 11 2 20v1q0 2 1 4t1 4l1 4q0 10 2 30
q0 9 3 18q0 2 1.5 6t1.5 7q1 4 2 7l2 6q0 2 0.5 6.5t2.5 7.5l4 19q0 4 -1 6q-3 9 -4 21t-2 18q0 4 2 8q2 5 0 9l-1 2q0 2 1.5 5t0.5 5q-1 0 -0.5 1t1.5 2q1 2 5 4q4 4 4 11q-1 2 -1 6q-1 3 2 6q3 2 4 5.5t2 5.5q1 3 1 10q3 14 14 25q2 3 4.5 5.5l4.5 4.5q3 6 7 10
q3 3 6.5 10t6.5 10q5 5 13 17q4 7 11 14q6 9 16 15q4 1 10 7q2 1 7 1l1 4q4 3 7 1l3 -2l4 -1q3 2 8 4t8 4l6 2t5 2q8 2 10 6q1 2 2 0.5t2 -1.5q2 -2 3 -2q4 3 13 1q26 -6 38 -13q3 -1 7.5 -4.5t7.5 -4.5q20 -12 42 -39q18 -24 24 -37l15 -33q2 -5 3.5 -12t2.5 -11
q2 -5 4 -17q10 -41 7 -77q0 -24 -2 -36q-1 -2 -0.5 -4t-0.5 -4q0 -15 -3 -30q-1 -7 -2 -14.5t-2 -14.5q-2 -6 -4 -16q-10 -38 -16 -57q-1 -2 -2 -6t-4 -9q-4 -4 -6 -10q-4 -14 -12 -30t-11 -21q-15 -31 -41 -71l-3 -5l-18 -25l-15 -20q-5 -7 -27 -29l-9 -8q-9 -9 -25 -16
q-10 -4 -30 -10q-8 -2 -14 1zM228 681l1 1l1 -1h-2zM204 660q1 0 1 1q1 1 0.5 2.5t-2.5 3.5l-2 -5l1 -1q1 -1 2 -1zM211 82q24 22 42 46q3 3 8.5 10.5t8.5 13.5q6 11 12 20t11 17q3 6 7 10q3 3 3 5q0 5 3 10t4 6q4 4 4 7q1 4 4 9t4 9q4 7 9 10q2 1 1.5 3.5t-0.5 3.5
q-1 4 3 4l1 -1q5 -2 5 2q0 3 -1 3q-5 4 -4 10l8 19q1 4 6 4q2 1 6 5l1 1q0 2 -2.5 3.5t-3.5 0.5q-3 0 -3 2q1 5 4.5 13t4.5 16q2 -12 2 -13l1 -2q1 0 1 0.5v0.5l2 6q1 1 1 2.5t1 2.5q5 5 6 10q0 2 1.5 6t0.5 6q-1 1 2 4q1 1 1 4q-2 6 -4 9q-1 2 -1 7q5 1 6 2t1 5q1 4 0 8
q-1 1 -1 4q0 2 1 5t1 6q0 1 1 5.5t-1 8.5v4q2 3 1.5 8.5t0.5 8.5l-2 3q-1 2 -3 3t-3 2t-1 2.5t1 2.5q6 5 6 14l2 20q0 5 -1 7q-1 1 -3 6t0 9q0 4 -1 7t-1 7q0 12 -4 17q-3 17 -20 41q-11 16 -26 24q-9 6 -20 6q-22 3 -41 -6l-6 -3q-8 -3 -8 -12q1 -2 1 -6v-1q0 -4 -4 -10
l-10 -10q-8 -8 -9 -10q-5 -10 -10.5 -20.5t-10.5 -22.5q-7 -18 -9 -22q-4 -6 -5.5 -14t-2.5 -11q0 -2 -1 -3l-2 -2q-1 -4 -4.5 -13.5t-3.5 -17.5l-2 -7q-2 -5 -7 -23l-7 -25q-3 -9 -7 -27q-8 -25 -10 -41l-3 -19q-1 -4 -2.5 -10.5t-1.5 -11.5q0 -4 -1 -6q-2 -6 -3 -16
t-3 -17l-4 -39q-2 -32 -1 -48v-28q1 -8 1 -24q0 -4 1.5 -7.5t1.5 -8.5q0 -7 8 -13q13 -8 25 -8q23 0 47 22zM368 528q2 2 2 -1q0 -1 -0.5 -1h-0.5zM90 458v2q0 1 -0.5 1h-0.5l-1 -3l1 -1zM372 421l1 1v-2zM369 401v1l1 -1h-1zM369 389h1l1 -2q-2 1 -2 2zM371 387v0v0v0v0z
" />
    <glyph glyph-name="P" unicode="P" horiz-adv-x="483" 
d="M513 521q0 -6 -3 -14l-14 -28q-12 -20 -21 -29q-4 -4 -7 -8.5t-7 -8.5q-1 -1 -5.5 -6.5t-10.5 -8.5q-5 -7 -12 -11q-5 -9 -15 -15q-1 0 -3 -2q-2 -3 -15 -13l-15 -14l-10 -9q-20 -13 -35 -27q-15 -11 -29 -20q-7 -3 -13 -9q-18 -13 -34 -21q-2 0 -5 -3q-20 -16 -32 -20
q-3 0 -5 -2q-7 -6 -23 -12q-7 -1 -13 -6t-14.5 -7.5t-12.5 -3.5q-1 0 -14 -3l-7 3.5t-5 9.5q-2 -5 -10 -16q-4 -4 -6 -12q-1 -11 -3.5 -27t-3.5 -26q0 -4 -2 -8q-2 -6 -2 -8q0 -4 -1.5 -9.5t-2.5 -9.5q0 -7 -1 -11.5t-2 -8.5t-1 -14v-10q0 -14 -3 -21v-6l3 -12v-11
q0 -7 1 -11q1 -5 1.5 -9.5t1.5 -9.5q1 -4 -1 -10q-2 -2 -4.5 -2.5t-3.5 1.5q-9 14 -26 24l-3 3l2 10q0 4 -3 2q-1 -1 -3 -1q-4 0 -7 5l-5 10q-2 4 -2 6q0 3 -0.5 8.5t-2.5 8.5q-1 3 -1 8q0 6 -1 8l-1 4q0 2 5 7l1 2q4 -2 4 -6v-4q0 -3 -2 -11q0 -2 3 -2q3 -1 3 2v29
q0 2 -3 2q-1 1 -3 -1q-2 -3 -2 -9h-3l-3 3l3 13l4 4t4 9q-2 5 -3 4q-1 0 -1 -1t-1 -2q0 -1 -2 -3l-1 3l-0.5 1.5t0.5 2.5q0 5 4 5q6 2 6 7q0 9 1 22t0 22q0 5 -4 6q0 2 -1 3q-3 3 0 6q1 1 1 3h1h1q3 0 4 1q2 0 2 3l1 7q0 7 -3 13l-1 1q1 1 1 4q0 2 -1 4.5t-1 5.5l2 3l4 4v1
q0 2 1 5t0 5q-1 1 -1 4t4 7q3 3 3 7l-1 12q2 3 3 9.5t3 10.5q2 6 2 8v3q0 8 6 26q4 3 5.5 9.5t2.5 10.5q1 2 0.5 3.5t-0.5 2.5q0 2 3 8q1 3 1 10q0 4 2 5q3 3 4 8t1 7q3 2 3 5q0 6 -3 7q-1 2 -1 5q0 2 1 2.5t3 -0.5q4 -1 4 1v8q2 2 4 6v5v1q3 2 3 3q1 3 1 9q5 1 0 4
q0 1 -3 4v6q0 4 6 6q4 1 4 6q0 2 -1 3l-1 -1l-4 -2v2v5q0 8 4 22q9 30 15 60q1 5 3 13.5t6 19.5q3 7 5.5 17t3.5 16l1 5q0 4 -3 8l-3 11v3q0 4 4 7q8 4 10 14l3 14q0 1 3 7q1 2 3 1.5t3 -1.5q2 -3 6 -8t6 -10q5 -8 14 -10t10 -2q7 0 10 1q7 2 18 2h17q8 -2 14 -2.5t10 -0.5
q19 0 28 -3q3 -1 5.5 -0.5t4.5 0.5q14 -2 21 -4q5 -1 11.5 -2t10.5 -1l14 -3q3 -2 5.5 -2.5t3.5 -0.5q23 -1 44 -12q8 -4 13 -4q4 0 8 -3q17 -9 26 -20q19 -24 34 -56q2 -4 3 -10t1 -8q3 -10 1 -14q-1 -1 0 -3q1 -3 1 -8zM450 568q0 2 -1 2q-3 3 -5 3q-12 5 -38 9
q-6 2 -22 4q-4 1 -13 3.5t-16 1.5h-2l-10 1l-10 2q-8 1 -19 1t-18 2q-3 -1 -9.5 0t-10.5 -1q-2 -1 -8 -1q-11 1 -25.5 -1.5t-21.5 -3.5l-8 -3q-5 -1 -7 -8q-5 -27 -10 -43q-9 -40 -16 -68q-4 -11 -5 -19q-7 -28 -13 -46q-2 -8 -6.5 -24t-5.5 -28t-6 -26l-1 -3q0 -5 4 -9
q3 -2 10 0q1 0 7 3q4 2 9.5 5.5t12.5 7.5q5 1 20 10q8 4 13 4q2 0 2 3q2 4 8 8q28 18 32 21q6 6 17 8q3 5 4 6q28 20 39 31q1 1 7 4q4 1 6 5q6 6 10 7l4 3l20 20q8 8 11 9q8 4 13 14l6 8q6 2 10 8.5t5 8.5q10 17 20 28l2 3q6 8 15 30zM129 485l-1 1v-1h1zM110 462v1h1
q-1 0 -1 -1zM107 439l-1 -8q-4 2 -4 6q0 7 1 11l5 12q0 2 2 2q2 -3 4 -3v-4q-3 -3 -3 -4l-1 -8q-3 -3 -3 -4zM128 453h-1l1 -1v1zM98 414.5v0.5h1l-2 -1q1 0 1 0.5zM97 404.5v-0.5l-1 1q1 0 1 -0.5zM98 404h-1h1zM98 404q0 -1 1 -1q-1 0 -1 -1v2v0zM280 381l-1 2v-2h1z
M51 206.5q-1 1.5 0 3.5l1 3l2 -4l-1 -3q-1 -1 -2 0.5zM50 196v-1q-2 0 -2 2zM48.5 177h-0.5l-1 4q1 1 3 1v-3v-0.5t-1 -0.5q0 -1 -0.5 -1zM49 158q0 -1 -1 -1l-1 3l1 1q1 -1 1 -3v0zM58 42q0 2 -2 3l-1 -2q-1 -1 -0.5 -2t1.5 0z" />
    <glyph glyph-name="Q" unicode="Q" horiz-adv-x="455" 
d="M419 480q0 -11 -1 -16v-26q0 -8 -2 -28l-10 -50q-1 -4 -3 -10.5t-1 -11.5q-4 -12 -5 -19q0 -4 -4 -6q-1 -1 -1 -4q1 -2 1 -6q-2 -4 -3.5 -9.5t-5.5 -12.5q-6 -12 -7 -18q0 -5 -4 -11q-1 -2 -2 -3.5t-1 -4.5q0 -8 -8 -22q-5 -7 -11 -23q-3 -8 -7.5 -18t-7.5 -15
q-12 -26 -34 -63q-8 -15 -23 -30q-4 -4 -8 -14q-1 -1 -1 -2.5t1 -2.5q0 -3 1 -5l2 -4q6 -13 5 -26q0 -4 -1 -6q-1 -8 -3 -21t-6 -30q-2 -7 -10 -26l-1 -8l2 -2h2l4 1l51 27q8 5 13 1q4 -1 7 2q7 9 16 5q2 -1 4.5 0t3.5 3q3 4 10 4q4 0 5 -1t1 -5v-2l-5 -4q-1 -2 -1 -3.5
v-2.5q1 -3 0.5 -4.5t-1.5 -2.5q-5 -4 -11 -16q0 -1 -0.5 -2t0.5 -2q1 -2 1 -5t-2 -6t-3 -5l-12 -11q-22 -16 -33 -25q-12 -7 -16 -8l-4 -2q-8 -7 -25 -9q-12 0 -18 -3q-1 -1 -3 -0.5t-3 0.5l-20 8l-5 3q-8 8 -22 26q-6 12 -8 18q-1 0 -1 2q0 3 1 12t3 15q1 5 3.5 14t5.5 15
q6 12 11 34q0 2 -2 3.5t-4 1.5q-1 -1 -2.5 -1t-2.5 -1q-9 -8 -21 -6h-14q-6 -1 -10.5 -0.5t-7.5 0.5q-6 0 -11 3l-25 14q-4 2 -7 2q-2 0 -8 -2q-33 -16 -50 -29l-10 -6q-5 -3 -9 -3h-8q-11 0 -13.5 1.5t-9.5 10.5q-14 16 -19 26q-2 4 1 7l9 8q24 16 38 22q11 5 21 12
q1 0 1.5 1t-0.5 2q-3 9 -8 20q-7 12 -7 23l-2 8q-2 4 0 7q2 7 0 10q-4 8 -2 18q0 8 -1 12q-1 3 0 5q3 5 1 12v10q0 8 2 26l2 20v9q0 12 3 18l-1 6q0 5 1 9t1 9q0 12 5 19q2 4 0 7v2q2 7 3 13.5t3 13.5q4 11 8 35q2 9 4.5 21.5t4.5 29.5q2 6 3.5 16t3.5 17q1 4 0.5 7.5
t0.5 6.5v16q0 2 2 3.5t4 0.5l13 -3l14 -3q5 4 7 13q2 8 2 10v1q0 1 2 3.5t2 4.5q1 3 2 6.5t1 8.5t4 13q1 3 4 4q1 1 3.5 3t0.5 5q0 1 2 3l9 10q1 1 3 1q1 2 1 6q1 5 3.5 7t9.5 2q2 0 2 2t-2 8l-1 4q0 5 5 8q2 0 2 3q1 3 5 6.5t4 6.5q18 26 31 36q3 3 7 2q2 0 3 1t1 3l-1 6
q2 2 2 3l2 1q8 2 11 4l10 6l6 2v3q0 3 2 3q12 0 18 1h2q7 0 10 -7q2 1 3 2.5t2 2.5q1 2 3 1.5t4 -1.5l4 -4q1 -3 6 -5h2h3q9 0 21 -7q19 -12 30 -23l24 -32q9 -14 20 -39q6 -12 6 -20q4 -11 6.5 -25t3.5 -20q2 -6 2 -10zM246 688h1l-1 1v-1zM276 684l1 2v3l-1 -1q-3 -3 0 -4
zM374.5 475q0.5 2 -0.5 3q-2 3 -1 6.5t1 4.5v26q0 17 -3 25q-2 2 0 4q1 2 1 5t-1.5 6t-1.5 4q-1 2 -2 3.5t-1 4.5v2q0 3 -1 6.5t-1 6.5q2 5 -1 10q-1 2 -2.5 6.5t-4.5 6.5l-6 13q-2 7 -5 10l-8 10q-5 7 -21 13q-4 2 -7 2t-6 -1t-5 -2q-13 -5 -16 -7q-15 -7 -30 -20l-21 -21
q-8 -9 -34 -44q-9 -12 -10 -13q-3 -2 -4.5 -7.5t-3.5 -7.5l-3 -5q-3 -6 -8 -15t-10 -21l-12 -32q-4 -10 -4 -17q0 -6 -3 -11q-1 -2 -4 -11q-2 -9 -5.5 -24t-3.5 -25q0 -8 -3 -14q-3 -7 -4.5 -17t-3.5 -16l-2 -16q-3 -12 -3 -25q0 -6 -2 -16q-5 -19 -6 -39q0 -6 -0.5 -15
t-2.5 -21q-1 -3 -1 -8l-1 -32v-8l2 -40q0 -16 7 -16q3 0 13 4q22 11 36 13q23 6 39 6q10 0 16 -1q2 -1 7 2l4 5q17 20 35 46q3 7 9 13q7 8 8 16q2 6 4 9q2 5 5.5 10.5t8.5 7.5q3 2 3 5v10q0 3 1 4.5t2 3.5q2 4 3 4t4 -2l1 -2q2 -1 4 -0.5t3 2.5l4 17q0 5 3 6q6 3 6 10
q2 14 7 20q2 4 2 7q2 4 5 12t3 13t4.5 12.5t4.5 11.5q2 6 2 10q2 13 8 39q1 3 3.5 10t1.5 13v3q0 6 5 11q3 5 1 8q-3 7 -1 15l3 12q0 1 0.5 3zM159 575h2l-1 1zM146 573v-0.5t1 -0.5h1q0 1 -2 1zM138 526h5q3 1 1 3q-2 5 -4 3q-2 -1 -2 -5v-1zM130 509q2 -3 5 0q5 6 3 16
q-5 -1 -8 -6q-4 -4 0 -10zM123 500q0 -3 2 -1l-1 2zM116 479l1 -1q2 -1 4 -0.5t3 2.5l-1 4q1 1 1 3v4q-1 -1 -2 -1t-1 -1zM331 323l1 1v-1h-1zM328 302v1l1 -2l-1 -1q-1 0 -1 2h1zM308 253l1 -2l-1 -1q-3 2 0 3zM301 229l-1 2q-2 0 -2 -2l2 -8zM388 -25q1 -1 1 -3
q-1 -3 -3 -1l-2 1l1 1q2 2 3 2zM377 -39q1 0 1 0.5v0.5v-2q0 1 -1 1z" />
    <glyph glyph-name="R" unicode="R" horiz-adv-x="497" 
d="M506 509q-1 -4 -1 -12q0 -12 -8 -23l-21 -26l-1 -2q-7 -3 -13 -9t-9 -8q-11 -11 -18 -15q-6 -4 -9 -5q-4 -2 -14.5 -7.5t-17.5 -12.5l-9 -5l-14 -7q-12 -9 -21 -11q-3 -1 -9 -5q-13 -8 -41 -20q-21 -10 -23 -12l-9 -5q-5 -3 -9.5 -5t-9.5 -5q-3 -3 -9.5 -6t-9.5 -5
q-3 -3 -9 -6.5t-9 -5.5q-8 -7 -20 -12l-6 -3q-12 -8 -36 -26q-8 -5 -24 -17l-3 -3q-5 -5 -5 -7q0 -3 6 -6q8 -5 23.5 -13.5t27.5 -13.5q3 -2 9 -4q17 -8 28 -10q5 -2 12.5 -4.5t16.5 -4.5q12 -3 46 -10q6 -1 17 -2t19 -4q6 2 10 2q10 -2 24 -2.5t21 -0.5q16 0 24 3h2
q5 0 9 -3l-4 -4q-2 -2 -1 -3l14 -8q2 -1 2.5 -4t-1.5 -4q-4 -4 -6 -5q-6 0 -11 -7q0 -2 -4 -4q-7 -1 -19 -7q-4 -2 -8.5 -3t-8.5 -2q-5 0 -8 1q-5 1 -9 0l-2 -1q-3 2 -10 2q-5 0 -13 -2q-2 -1 -6 -1q-3 1 -10 1l-18 -1q-6 0 -8 1q-3 2 -5 0q-2 0 -4 -0.5t-4 0.5q-7 2 -20 2
q-9 0 -25 6q-6 2 -11.5 3.5t-11.5 3.5l-17.5 5t-16.5 6q-3 2 -6 3t-5 2q-3 0 -5 2q-7 5 -8 6q-2 2 -5 2h-5q-3 0 -7 2q-3 2 -9 4l-8 3q-1 1 -2.5 0.5t-2.5 -2.5q-3 -6 -3 -7q0 -5 -1.5 -13t-2.5 -13l-1 -4q-1 -4 -3 -9.5t-2 -9.5q0 -2 -3 -17q-3 -7 -3 -14q0 -10 -2 -22
t-3 -17q-2 -17 -14 -37q-2 -1 -4 -1.5t-3 1.5l-2 4q0 5 -5 7q-4 2 -4 4q0 3 -1.5 4.5t-4.5 1.5q-2 0 -4.5 1.5t-4.5 1.5q-1 -1 -2.5 0.5t-0.5 2.5q5 10 7 12q1 1 4 7q-2 0 -3 1q-3 0 -3 2q-3 7 -1 15l2 4l3 4q2 -2 2.5 -3.5t0.5 -2.5v-0.5t1 -0.5q1 -1 1 2v12q0 2 -4 2
l-4 -1h-1q-2 3 -1 4q2 4 4 6q2 3 5 3q3 -1 4.5 0t1.5 3v14q0 7 -5 6q-2 0 -2 3l3 7q3 1 5 6l2 2.5t-1 5.5t-5.5 1.5t-3.5 -1.5q-4 -1 -4 3q0 7 6 5l4 -1q4 0 4 3l1 4q0 3 -0.5 6.5t0.5 8.5v3q0 7 -5 14q-3 3 2 4h3l3 3l1 25q0 2 -2 6q-3 2 -6 0l-0.5 -0.5t-1.5 0.5l-1 1v8
q0 16 -8 28q-2 3 -7 16q-1 5 3 9q2 5 7 3q2 -1 3 0q1 3 2 4.5t2 2.5l2 8q2 4 5 11.5t6 11.5q4 5 4 13v14l3 12q1 6 9 12q-6 5 -2 9l4 5q2 2 1 5q-1 2 -2 3.5t-1 4.5q0 2 1 4.5t2 1.5t1 -2.5t1 -2.5l1 -2q3 0 3 2q2 2 2 5q1 5 1 16q0 8 4 13l3 5q2 6 -1 7q-5 3 -2.5 5.5
l3.5 3.5t1 5h4q1 0 3 2l-3 2h-4q0 8 2 12q2 2 2 5q0 7 6 5l9 8v2q-1 3 -3 1l-2 -1q-2 0 -3.5 2t-1.5 4q3 6 11 18l7 -3q2 -2 4 3q0 3 -2 3q-3 1 -8 1v16l1 4q8 18 9 28q4 6 6 21q3 10 4 11q2 3 2 10q0 5 -4 17q-3 6 -7 18v3q0 6 5 10t10 5q5 2 8.5 2t5.5 1q8 2 9 7
q2 9 7 18.5t7 12.5q1 2 5 6q5 3 7 -1q0 -1 2.5 -5t0.5 -8q-1 -1 0.5 -2t3.5 0q4 2 5 -1q3 -5 5 -6t9 -11q3 -5 11 -7l20 -1q10 1 21 -1t15 -3q2 -2 5 -2q12 -2 41 -10q45 -10 90 -32q12 -6 34 -20q2 0 4 -2q18 -18 23 -27l15 -26q8 -14 8 -30zM440.5 534.5
q-0.5 0.5 -0.5 1.5q-1 3 -3 3q-4 2 -12 5.5t-13 7.5l-2 1h-2q-4 0 -9.5 2.5t-10.5 3.5q-10 2 -14 4q-7 3 -15 3q-2 1 -4.5 1t-3.5 1q-6 4 -13.5 5t-9.5 1q-5 0 -11 3q-4 2 -8 2h-4q-7 0 -11 1q-4 0 -13.5 1.5t-16.5 0.5l-40 -1q-8 0 -13 -8q-6 -9 -7 -18l-7 -21
q-3 -9 -8 -20v-2q0 -7 -6 -19q-1 -3 -1.5 -8.5t-3.5 -8.5q-1 -2 -1 -6q-7 -27 -10 -34q-2 -3 -3 -7.5t-2 -7.5q-6 -24 -11 -36q-2 -4 -2.5 -10.5t-1.5 -11.5l2 -5q2 -4 5 -2q3 1 7.5 3t9.5 1h0.5t0.5 1q1 3 4.5 4t4.5 1q0 -1 2 -3q1 -1 1.5 -0.5t-0.5 1.5q0 1 -1 1t-2 1
q0 7 5 6q1 0 3 2q1 0 2 1t3 -1q5 -7 10 1q0 3 1 4q1 3 5 4.5t8 0.5q2 -2 3 1q2 4 5 5l5 3l4.5 4.5t8.5 4.5q2 1 6.5 4.5t6.5 3.5q5 1 20 8l1 -1q0 -1 1 -1q0 2 -2 2l4 4l2 1q6 0 14 6q2 1 5 3t6 3q3 0 11 4t11 7q2 2 5.5 2t6.5 1q0 1 0.5 1h0.5q4 4 23 16q5 2 5 3q4 5 13 9
q8 5 12 10q4 6 12 11q2 1 6 5q8 8 10 9q6 4 10 10.5t6 9.5q1 1 0.5 1.5zM133 535l-2 1l-1 -3l1 -1q2 1 2 3zM117 514v-3q-2 1 0 3zM118 510h-1v1q0 -1 1 -1zM122 501q-2 2 -4 0q0 -1 -0.5 -2t0.5 -2l2 -1l3 2q2 3 -1 3zM108 461q0 2 -1 3h-0.5t-0.5 -1l1 -3zM97 454v-3
q-2 1 0 3zM79 368l-1 -3v-2q3 3 1 5zM76 349h-1v-2zM72 324v1l-1 3l-1 -1q-1 -1 -0.5 -2t1.5 -1h1zM46 183q-1 0 -3 2q0 1 1 2t3 1h0.5t0.5 -1l1 -5q-2 0 -3 1zM50 181l-1 1q1 0 1 -1zM41.5 152q0.5 5 1.5 8q0 1 2 1h0.5t0.5 -1q1 0 1 -0.5v-0.5v-2q0 -2 1.5 -4.5t0.5 -4.5
v-4q0 -6 -5 -3q-2 0 -2 1l-3 3q2 2 2.5 7zM433.5 150.5q0.5 -4.5 -2.5 -6.5q0 -1 -1.5 -1t-1.5 1q-4 6 -14 6q2 3 12 8l4 -1q3 -2 3.5 -6.5zM402 129l1 -1l1 1v2l-1 2zM45 110q-2 0 -2 2q1 0 1 -1q1 0 1 -1zM44 35l-1 1l-2 -2q0 -2 1 -3l2 2v2z" />
    <glyph glyph-name="S" unicode="S" horiz-adv-x="471" 
d="M86 5q-8 2 -18 12q-3 4 -5 8q-3 11 -5 34q0 2 1 3q2 3 1.5 8.5t0.5 7.5q0 2 -2 8q-2 8 -2 11q0 6 3 12l3 5q0 4 5 6t5 7l-1 2q0 8 8 13q3 3 10.5 8.5t13.5 8.5q2 0 5 3q3 5 14 7q2 1 4.5 0t4.5 -1q3 0 4 4l-0.5 0.5t0.5 1.5q2 3 6 5.5t6 3.5q5 2 8 -1q2 -3 3.5 -8t0.5 -7
q-9 -24 -23 -39l-24 -27l-6 -8q0 -5 3 -5q4 -1 10.5 -1.5t10.5 -2.5h4q7 3 14.5 3h9.5q3 0 9.5 1.5t12.5 0.5q1 -1 2.5 -0.5t2.5 1.5q6 4 9 4q4 1 11 2t16 4h2q2 0 5.5 -0.5t6.5 1.5q2 2 6 2.5t7 1.5q6 3 22 8q22 8 32 13l12 6l7.5 2.5t7.5 3.5q7 4 19 11t20 13q4 4 5 8
q1 6 9 16q5 6 11 11q4 4 7 10v3q0 4 -3 8t-5 6q-1 2 -5 4q-11 6 -23 14q-10 6 -18 10q-6 2 -12 6q-14 8 -21 10l-2 1q-7 5 -17 9.5t-15 6.5q-7 2 -15 10q-1 0 -3 2t-6 0q-8 4 -10 6q-3 2 -9.5 5.5t-12.5 3.5q-3 3 -8.5 6.5t-8.5 6.5q-6 6 -10 6q-5 1 -9 5l-5 3
q-11 5 -17 8.5t-12 8.5q-2 2 -6.5 7t-10.5 6q-2 0 -4 4q-2 3 -7 8t-6 9l-1 2q-8 6 -14 14q-3 3 -5 7.5t-5 7.5q-4 2 -5 6l-1 2l-10 17q-1 3 -2.5 8.5t-3.5 8.5q-2 4 -3 12.5t-3 12.5v11q0 6 2 8q2 3 2 7.5t1 7.5q-1 10 2.5 22t4.5 17q4 12 7 18.5t11 16.5q3 5 8 9q2 1 13 9
q16 12 26 15q5 2 9 4t9 4q12 4 27 13q4 2 8 3.5t8 3.5q7 3 21.5 8.5t25.5 8.5q3 1 9 2.5t10 3.5q4 1 12 2.5t13 3.5q6 2 12.5 3.5t12.5 3.5q4 2 6 2q6 0 20 2q15 3 29 2l14 1h16q9 0 16 -4l12 -6q12 -5 17 -16q8 -16 8 -27v-6q2 -10 2 -15l-3 -20q-1 -6 -7 -16q-4 -9 -10 -9
q-1 0 -7 2q-4 2 -4 4l-5 17q0 3 -4 7q-5 6 -13 8q-26 8 -49 8q-9 0 -14 -1l-34 -4l-18 -3q-10 -4 -17 -4l-4 -1l-39 -14q-36 -15 -63 -31q-16 -10 -36 -28q-13 -12 -21 -29q-3 -4 -3 -8t3 -9q14 -24 33 -42q14 -12 32 -24q37 -22 70 -39q4 -4 12.5 -7t13.5 -6t10.5 -5.5
t10.5 -5.5q6 -2 24 -11q5 -2 15.5 -6.5t18.5 -9.5q7 -4 15 -8t17 -9q33 -19 52 -36q8 -8 12 -16l1 -4q7 -9 9 -21.5t2 -14.5q0 -12 -2 -18q-5 -23 -12 -43q-1 -2 -2 -3.5t-1 -4.5q-1 -3 -3.5 -11t-6.5 -13l-18 -24q-5 -6 -15 -13l-49 -33l-22 -11q-9 -4 -27.5 -11.5
t-33.5 -12.5q-5 -2 -11 -4l-33 -9q-16 -5 -48 -13q-4 -1 -20.5 -4t-31.5 -2q-5 1 -8.5 0.5t-6.5 -0.5q-11 0 -24 5zM248 304v1q-1 1 -1.5 0.5t-0.5 -1.5h2z" />
    <glyph glyph-name="T" unicode="T" horiz-adv-x="438" 
d="M533 690q0 -6 -2 -13t-3 -9l-3 -3l-6.5 -6.5t-12.5 -6.5q-3 -1 -4.5 -2t-2.5 -2t-2 -0.5t-2 0.5t-2.5 0.5t-3.5 -1.5q-10 -7 -26 -9q-1 0 -13 -3q-2 0 -4 -0.5t-4 0.5q-4 2 -6 1q-8 -4 -21 -7t-21 -6l-7 -1h-4q-7 0 -10 -1q-8 -2 -20 -4q-22 -3 -47 -9q-10 -3 -13 -14
l-8 -39l-3 -21q-2 -18 -4 -22q0 -4 -1 -6q0 -9 -2.5 -21.5t-3.5 -19.5q-4 -23 -5 -32q-2 -16 -8 -40l-4 -20l-8 -47q-2 -12 -11 -47q0 -3 -2 -11l-2 -8q-1 -4 -2.5 -7.5t-2.5 -7.5q0 -3 -1 -8t-2 -8q-1 -1 -1 -2.5t-1 -2.5q0 -11 -3 -22q-1 -4 -2 -10.5t-1 -9.5
q-2 -9 -4 -25t-5 -27q-7 -32 -12 -67q-1 -7 -1 -22q0 -11 5 -19l3 -5q1 -7 8 -29v-6q0 -2 -3 -2q-2 1 -4.5 2t-5.5 4q-19 19 -34 27q-4 4 -7.5 8t-7.5 8q-2 3 -2 9l7 -3q2 0 3 1v2q-3 3 -5 6t-5 6q0 5 -0.5 15t-2.5 17q-1 3 0 6l1 4q0 4 -1 7t-1 6v2q0 3 1 8t0 8l-1 2
q0 2 1.5 4.5t0.5 4.5v2l1 8q-1 3 1 10v10l3 9v1q0 2 -1 4t0 5q2 4 2 7q1 3 0.5 5t-0.5 3q0 2 1 4t1 4q0 5 0.5 16.5t4.5 20.5q0 13 1 19q-3 0 -4 1q-2 2 -2 5q0 1 -0.5 3.5t0.5 3.5q1 2 2 5.5t4 5.5v-1l2 -1q0 2 -2 2v4q0 7 4 8l2 2l1 3q-3 6 2 11q1 1 2 3t1 3v13q0 4 2 8
q7 7 5 17v6q-3 4 3 8q2 2 1 5q-5 6 1 10q2 0 2 3q-2 8 -2 11q0 5 2 11q2 3 4 11v4q-3 7 1 13q1 7 4.5 17t5.5 15q2 4 4 20l5 22q2 14 4 22l2 12q0 8 1 12q3 9 3 18l3 15q0 2 -1 3.5t-2 1.5q-20 2 -30 1l-9 -1l-9 1q-4 1 -12 1q-5 0 -8 -1h-4q-3 2 -7 1.5t-6 -0.5
q-4 0 -8.5 1t-9.5 1q-1 1 -4 1l-9 3l-6 3q-2 1 -6 5q-6 12 -8 18q-4 14 -8 21q-2 5 -3.5 10t-3.5 10q-1 2 -1 8q2 5 5 6q10 2 14 2q10 -1 23 -1.5t22 -2.5h2l40 1q27 0 62 5l8 2q1 0 2.5 0.5t2.5 -0.5l8 -1q7 0 12.5 1t9.5 2q6 0 20 2q5 2 13.5 3t13.5 2q21 2 26 4
q5 1 10 0.5t10 0.5q4 1 8.5 2.5t10.5 2.5q21 4 35 7q8 2 41 7q3 1 11.5 3t16.5 1q6 0 9 -1l2 -1v-4l-3 -2q-3 -1 -1 -3l5 -5t4 -5q0 -1 1.5 -2.5t0.5 -2.5q0 -1 -1 -1.5t-1 -1.5q-2 -2 -1 -3l3 -10q3 -5 8 -5q2 -1 4 1q0 4 -0.5 10t-1.5 9l-3 5q-3 3 -1 9q0 5 2 7q1 1 2 1
t1 -1q7 -9 11 -27q1 -2 1 -7zM160 270l-1 2q-2 0 -2 -2v-7q1 0 3 2v5zM153 254.5q-1 -3.5 0 -7.5l-1 -2q-2 0 -2 2q-1 4 -1 12q0 3 4 3q1 -4 0 -7.5zM142 52l3 -2q0 -2 0.5 -4.5t-0.5 -6.5q-5 1 -7 8q-1 4 -0.5 7t0.5 5v1q1 0 3 -2q0 -4 1 -6z" />
    <glyph glyph-name="U" unicode="U" horiz-adv-x="487" 
d="M377 -7q-4 2 -5 -1q-4 -4 -7 -3l-6 2q-2 0 -4 3q-3 6 -3 7q-1 6 -11 12l6 2q3 3 2 5q-3 9 -3 11q0 1 -1.5 3t-2.5 3q-3 3 0 6v0.5t1 0.5q5 4 3 11q-3 7 -9 7q-1 1 -4 1q-2 2 -2.5 5.5t1.5 5.5l6 3q-4 4 -5 6q-2 2 -2 8l2 8q1 3 -1 9q-5 13 -5 25q0 13 3 20q1 5 1.5 11.5
t-0.5 11.5v3q0 4 1 7.5t1 7.5q0 3 2 7q0 2 1.5 7t0.5 9q0 3 2 11l4 12q2 6 2 9v4l1 16q1 4 1 12q0 11 1 16q2 6 3.5 12t3.5 12t4 14q0 3 2 7q1 4 1 12l-1 2q-3 0 -4 -1q-7 -9 -17 -31q-1 -2 -1 -6l-2 -8l-9 -22q-7 -14 -23 -42q-1 -3 -6 -8l-9 -11q-1 -2 -2 -5.5t-1 -5.5
q-5 -12 -25 -45q-6 -5 -9.5 -12.5t-4.5 -9.5q-6 -12 -27 -42q-1 -1 -8 -11l-12 -16q-5 -5 -15 -13q-1 -1 -2 -1t-1 -1q-4 -7 -12 -9.5t-12 -4.5q-1 -1 -2.5 -0.5t-2.5 -0.5q-2 0 -6 0.5t-6 -0.5h-3q-5 0 -13 4l-5 3q-3 2 -5 -3q-1 -4 -2.5 -5t-4.5 1l-1 1q-13 5 -17 13
q-1 3 -6 5.5t-7 4.5q-1 3 -5 5.5t-6 4.5q-11 4 -20 19l-6 8q-1 2 -1 6v3q0 3 -2 11l-4 10q-2 3 -2 8q2 4 2 11q0 8 -2 11l-2 28v35q0 13 2 18q2 8 0 12v4q2 5 2.5 15t2.5 14q1 3 1 10q1 20 7 47q2 6 2 10v3q0 4 2 10t3.5 14.5t2.5 13.5q2 14 6 25l1 6q0 7 2 15.5t3 11.5
q1 6 3 13.5t3 11.5q4 20 8 31q1 2 0 5t0 5q6 22 8 33q4 10 8 28q2 12 4 20q1 2 1 6q0 9 6 27q2 8 1 12q-1 1 -0.5 2t1.5 1q3 5 5 15q1 2 3.5 3.5t3.5 0.5q6 -4 19 -6q10 -1 17 -10l8 -8q6 -7 9.5 -13t5.5 -15q2 -5 0 -10q-2 -4 -3.5 -10.5t-3.5 -9.5q-2 -2 -2.5 -3.5
t-0.5 -2.5q-6 -26 -8 -39q-2 -6 -5 -17t-4 -19q-2 -15 -8 -35q-4 -13 -6 -27q-1 -13 -5 -32q-4 -17 -6 -33q-5 -20 -7 -27q-3 -4 -3 -10v-4q0 -7 -2 -16t-3 -13q-1 -6 -3.5 -14.5t-3.5 -14.5q0 -10 -2 -28q0 -5 -1 -17t-3 -22q-1 -5 -1.5 -12t-2.5 -12q-2 -4 0 -8q1 -2 1 -6
q0 -5 -4 -15q-1 -4 0 -8q1 -2 1 -7v-28q1 -7 8 -14q3 -3 9 -2l8 6q20 18 33 34q18 22 28 31l3 3q2 4 8 10.5t8 9.5q3 5 8 9q2 3 5 3q1 1 3.5 1t3.5 1t0 3t-1 3q0 4 2 10q0 2 4 4l4 -1l17 27q2 3 3.5 6t3.5 6q0 1 -0.5 2.5t0.5 3.5q3 4 7 7q5 5 5 9l7 4v4q-2 3 0 5q1 1 3.5 6
t6.5 7q1 0 3 2l-3 2l-1 2q5 3 9.5 13t9.5 14q1 0 1 1t-1 2q-2 3 1 6t5.5 7.5t3.5 7.5q9 21 17 34q2 3 4 9q3 9 11 25q1 3 3.5 5.5t3.5 4.5t2 5l2 6q0 2 1 3t1 2q8 16 9 23q1 9 10 16q4 3 1 7v2q2 3 3.5 9.5t3.5 10.5l6 8q2 2 1.5 3.5t-0.5 2.5q-1 1 -1.5 2.5t0.5 2.5t4 7
t2 12q0 3 2 5q4 5 6 13q1 6 3 10t3 7q8 16 7 25l2 5q8 24 10 36q0 2 6 13q0 1 1.5 2t3.5 0q5 -2 7 -1l3.5 3.5t4.5 1.5q8 0 14 -3q8 -5 9 -7q4 -7 14 -17q6 -6 14 -22q1 -1 0.5 -3t0.5 -3q0 -2 1 -4.5t1 -4.5q0 -4 -1 -6q-12 -21 -21 -58q-1 -5 -5 -15q-1 -4 -3 -10t-3 -13
q0 -6 -3 -14q-2 -7 -3.5 -13.5t-3.5 -13.5l-6 -25l-5 -22q-3 -23 -10 -44q-12 -42 -16 -64q-1 -5 -3.5 -10.5t-2.5 -9.5q0 -5 -1.5 -11.5t-2.5 -10.5t-3 -10t-2 -9q-1 -8 -3 -16t-3 -15q-1 -8 -2.5 -15t-2.5 -15l-2 -7l-1 -18q-3 -5 -4.5 -15t-3.5 -14q-3 -9 -3 -18
q0 -4 -1.5 -10t-0.5 -9q-2 -4 -2.5 -10t-1.5 -10q-2 -10 -4 -13q0 -2 -2 -8q0 -16 -1 -24v-5v-8q0 -6 -1 -9l2 -5q3 -8 1 -14v-2l3 -2q2 -1 6.5 -3t6.5 -6q0 -3 1.5 -10.5t0.5 -13.5l-3 -2h-2q-9 11 -12 13zM194 180l-1 1l-1 -1h2zM333 52q0 1 2 1q3 0 3 -3l-2 -1zM121 50
v-1h-1zM359 9q4 4 4 7q0 1 -0.5 3t-1.5 2l-3 -2q-5 -3 -3 -8q0 -2 3 -2h1zM369 17h-1v-1zM367.5 3q1.5 2 2.5 3q0 2 -1 3h-2q-4 -4 -4 -7l2 -1q1 0 2.5 2z" />
    <glyph glyph-name="V" unicode="V" horiz-adv-x="423" 
d="M457 640q1 -2 0 -3q-1 -3 -1 -7t-1 -7q0 -2 -1 -6t-3 -7q-3 -5 0 -11q1 -1 0.5 -2t-1.5 -1q-3 -3 -3 -7q1 -3 1 -10q2 -5 -1 -9v-4q2 -2 1.5 -5t-0.5 -4q-1 -1 0 -2.5t1 -2.5q-2 -1 -7 -1q-4 -8 -1 -13q1 -1 -1 -5l-4 -11v-3q0 -3 -1.5 -7.5t-0.5 -7.5q0 -3 -2 -9
q0 -3 1 -4.5t1 -3.5l-1 -6l-5 -13q-2 -4 -2 -6v-2q0 -3 -1.5 -8t-2.5 -9q-3 0 -3 -4l1 -6q2 -8 0 -11q-3 -7 -3 -14q0 -1 -3 -7t-3 -7q0 -6 -4 -18t-4 -19l-3 -10q-1 -2 -3 -6.5t-3 -8.5q0 -2 -2 -7t-2 -8q0 -2 -2 -6t-2 -7l-4 -15l-5 -13l-5 -13l-6 -19q-1 -4 -4.5 -14
t-8.5 -18l-3 -7q0 -2 -1 -5.5t-2 -5.5q-8 -14 -14.5 -33t-10.5 -28q-3 -6 -12 -27t-20 -38q-1 -2 -3 -5t-3 -7q-1 -6 -5.5 -13.5t-6.5 -11.5q-3 -7 -9 -11q-2 -1 -7 -9q-7 -8 -18 -8q-1 0 -3.5 0.5t-6.5 -0.5q-3 -3 -8 -3q-4 0 -8 3q-3 1 -10 1h-5h-6.5t-8.5 1q-12 6 -17 10
q-7 5 -23 13l-13 8l-3 3q0 9 -7 10q-3 0 -3 2l-16 32l-2 4l-7 25q-1 4 -3 11.5t-3 13.5l-3 20q-4 19 -5 41l-1 10q-1 4 0 8q1 2 0.5 4t-0.5 4q-1 1 -1.5 2.5t0.5 2.5q1 3 1 10q0 8 -1 12l-1 8l1 8q1 1 0.5 3t0.5 3q1 3 0 6.5t0 6.5q1 5 1 16q0 9 1 14q0 5 0.5 14t2.5 16
q1 5 1 16q0 13 3 19q1 3 1 10q0 40 1 60q3 39 3 77q0 8 2 22q2 34 2 52q1 2 0.5 4t0.5 4q3 18 3 35l-1 35q0 5 -2 15q0 4 -1 6q0 2 1.5 4t3.5 2q8 2 12 -1q6 -4 11 -5.5t8 -3.5q5 -1 15 -7q7 -4 8.5 -6t1.5 -11q0 -11 1 -16v-8q-2 -13 -4 -43q-2 -24 -2 -72q0 -33 -1 -50
q-1 -5 -1 -13t-1 -13l1 -8v-10q-2 -22 -2 -66q-1 -11 -1 -33l1 -19q0 -5 -2 -13q2 -3 1 -9t0 -9q1 -5 1 -18v-54l1 -33q-1 -2 1 -6q1 -4 1 -12q-1 -4 -1 -12q0 -7 1 -10l1 -6v-8q0 -6 1 -9l3 -16l4 -13q4 -14 4 -20q0 -4 2 -9t3 -8q2 -4 6.5 -5.5t8.5 0.5l8 6q16 16 22 31
q3 6 8.5 14t9.5 14q3 6 8 4q4 0 4 4q0 5 5 5q1 0 1 -0.5v-0.5v1q4 5 5 11l7 14q4 5 5.5 9.5t3.5 13.5q3 6 4 7q4 4 6 14q0 3 1 5l2 4l4 8q0 1 1 3.5t3 4.5q1 1 2 4t3 4q1 0 1.5 1t-0.5 2q-2 4 -2 6q0 3 4 9q3 3 4 7q0 5 3 9q4 5 5 11q0 2 1 6t3 7q2 5 4 11.5t5 10.5
q6 8 5 17l2 2v-0.5t1 -0.5l1 -1q0 2 -2 2q0 3 1 4q1 5 3.5 11.5t3.5 11.5t2.5 11t2.5 12q0 3 2 5q6 3 7 10t1 8q2 14 5 21q3 3 3 9q1 10 4 21.5t4 15.5q1 3 3 9.5t2 11.5l3 7q1 3 3 8t2 9q0 6 4 9l4 6q3 2 3 5q0 1 1.5 3t0.5 4l-6 2q-2 1 -2 2.5t1 1.5q3 1 6 4l5 5q2 3 0 8
q-1 4 2 9q4 4 4 6l1 10q0 6 3 10q2 6 2 9v3q0 5 3 11l4 3q1 -3 4 -3q0 3 -4 3q0 6 1 9q0 3 3 4v7q0 3 2 3q1 0 5.5 1t7.5 -1q7 -5 17 -7q2 -1 3 -3zM460.5 651.5q-2.5 -2.5 -4.5 -2.5q-3 1 -7.5 1.5t-7.5 2.5q-6 3 -7 4q-2 1 -6 5q-1 1 0 2t0 3l-13 20l-3 5q0 3 2 3h4
q6 -4 9 -5q10 -3 24 -17q6 -6 11 -17q1 -2 -1.5 -4.5zM422 639q0 -3 1 -5q0 -1 0.5 -1t1.5 1v2q0 2 -3 3zM428 622h-1l-1 1h-4l2 -3l3 1zM441 553h-1q1 0 1 -1v1zM450 552h-1h1v-1v1zM451 549.5v0.5l-1 1q2 0 2 -2q-1 0 -1 0.5zM390 532l-3 2v2v0.5t1 0.5l2 -2v-3zM396 522
h-1l1 -1v1zM422 443l2 -1h-1q-1 0 -1 1zM376 348.5q-1 1.5 -2 1.5l-2 -2q0 -3 1 -3q1 -1 2 -0.5t1 1.5q1 1 0 2.5zM364 314l-1 -1l1 -3l1 1q2 3 -1 3z" />
    <glyph glyph-name="W" unicode="W" horiz-adv-x="574" 
d="M583 617q0 -5 -2 -11v-14l-3 -16q-1 -1 -2.5 -5.5t0.5 -9.5v-1q0 -5 -2 -11t-1 -11v-3q0 -5 -1 -8.5t-2 -6.5q-1 -4 -1 -12q0 -10 -2 -14q-2 -6 -2 -17t-3 -20q-1 -3 -1 -10q0 -15 -3 -30l-1 -6v-3q0 -6 -2 -13.5t-3 -10.5q-1 -4 -2.5 -10.5t-1.5 -10.5q0 -2 -3 -14
q-6 -13 -8.5 -28t-3.5 -18q-2 -12 -4 -18l-8 -28l-2 -10l-8 -27l-6 -19q-3 -7 -4 -12.5t-2 -8.5q-7 -16 -8 -20q-2 -8 -4 -12l-11 -25q-12 -28 -19 -42q-8 -17 -23 -34l-7 -8q-2 -2 -7 -5t-7 -6l-10.5 -3.5t-14.5 0.5q-3 1 -6 1.5t-6 1.5l-5 2.5t-5 1.5q-4 1 -8 3.5t-6 3.5
q-5 3 -9 8l-11 12q-9 7 -19 18q-8 10 -13 24q-4 9 -8 27q-4 35 -7 49q0 10 -1 14q0 11 -1 16q-2 11 -2 34q0 5 -0.5 12.5t-2.5 17.5q-2 5 -1.5 13t0.5 11l-2 17q0 2 -2 6t-5 3q-1 -1 -2 -1.5l-3 -1.5q-1 -1 -1 -2.5t-1 -2.5q-2 -7 -6 -10q-3 -4 -6 -9t-6 -7q0 -2 -0.5 -5.5
t-3.5 -4.5q0 -5 -3.5 -12t-3.5 -11q0 -3 -3.5 -9.5t-4.5 -10.5l-2 -4q-7 -6 -9.5 -16t-3.5 -12l-3 -7q-6 -9 -11.5 -23.5t-9.5 -22.5q-12 -28 -17 -42q-1 -2 -3.5 -6.5t-1.5 -8.5l-7 -12l-16 -36q-8 -16 -13 -23q-1 -2 -5 -6l-6 -8q-1 -5 -8 -7l-8 -4q-2 -1 -7 -1l-14 3
q-4 0 -6 2q-2 4 -7.5 6.5t-8.5 4.5l-5 3q-10 14 -17 20q-5 5 -8 11q-2 6 -2 8q0 20 1 30q2 12 2 20q0 2 1 6t2 7q2 12 2 18t1 8q2 6 3 15.5t2 15.5q1 5 3.5 14t2.5 16q3 4 3.5 11.5t1.5 11.5q3 11 3 22q0 2 2.5 7t1.5 8v2q0 2 1.5 5.5t2.5 5.5t2 3.5t1 4.5q0 8 3.5 17
t4.5 13t3.5 10.5t1.5 12.5q3 7 5 22q1 7 5 23l4 21q1 12 3 21t3 15q4 15 5 25t3 17.5t3 12.5l13 74l10 47q1 6 2 16t4 17q2 8 4 12q2 2 3 2l9 1q5 0 9 -3q8 -5 19 -10q5 -3 5 -8q-2 -22 -4 -34q0 -2 -0.5 -5t0.5 -5v-4q0 -4 -1 -6.5t-2 -4.5l-4 -5l-3 -7q-2 -17 -8 -51
q-2 -17 -4.5 -29.5t-4.5 -21.5l-7 -42l-3 -21q-4 -20 -5 -30q0 -4 -2 -13t-2 -14l-6 -27q-4 -24 -7 -36q-2 -6 -2 -10q0 -19 -7 -47q-5 -24 -4 -43q0 -3 2 -3l4 2v0.5t1 0.5q2 5 6.5 13t6.5 14l6 10q2 4 4 10q1 6 5 12l6 9q5 2 8 8t4 7q4 4 4 7q2 7 7.5 19t7.5 18
q7 15 15 26l6 8q1 2 1.5 8t4.5 8q6 10 8 16q1 2 4 5t4 6q1 4 4 7t4 5l9 10q1 2 3.5 2.5t3.5 0.5q0 2 1 3q5 7 12 3q2 -1 3.5 -3t4.5 -3q1 -2 2.5 -2.5t2.5 0.5h3q6 0 12 -4q18 -12 31 -28q12 -15 15 -34q2 -8 4 -21t4 -21v-4l5 -75q0 -6 2 -20q0 -6 2 -18q0 -25 3 -37
q1 -4 1 -10q-1 -9 1.5 -20.5t3.5 -19.5q0 -1 2 -3q1 -1 2.5 -1.5t2.5 0.5q6 5 12 15q29 51 33 58q2 6 4 8q9 11 14 29q3 9 9 26.5t9 30.5l2 2q1 0 1 0.5v0.5l4 3q4 3 4 9v4q2 2 2 3l2 8q2 2 2 3q0 4 -1 6q0 2 1 3t2.5 2t-1.5 3q-3 3 -1 5q7 9 8 12q0 3 2 7q3 16 9 35
q2 8 2 11q0 11 4 16l1 4q0 2 -0.5 6.5t0.5 7.5q3 5 3 11q4 20 4 30q3 10 4 13q2 4 1 6v2q0 3 1.5 8t0.5 9v4q3 5 4.5 13.5t3.5 13.5q1 1 -1 5q0 1 -0.5 2.5t0.5 3.5q1 3 1 8t1 8t0.5 6.5t0.5 7.5q0 3 2 9q1 2 1 6t1 6q2 8 1 12q-1 3 1 7q1 4 1 9.5t2 8.5q1 1 0.5 2.5
t-1.5 2.5q-2 10 1 14v4q-2 9 1 13q1 2 1 6v6q0 6 -2 10q-2 5 -4 13q-2 4 1 7q1 2 2.5 2t2.5 -1q7 -10 23 -22l11 -7q10 -6 12 -13q6 -9 7 -14l1 -12v-3l1 -12v-3zM250 412q1 0 1 1l-2 1l1 -2v0zM479 368l-1 1h1v-1zM470.5 342.5q-0.5 -0.5 -1.5 0.5q0 2 1 2q1 1 1.5 0.5
t-0.5 -1.5q0 -1 -0.5 -1.5zM469 342h-1v1h1v-1zM467 337l-1 2v1l2 2v-3zM464 296v-1q0 1 -0.5 1h-0.5h1zM465 295v-1h-1v1h1zM460 286v-3l-2 2v2v0.5t1 0.5zM460 283h1l-1 -1v1zM453 266v-1h1q1 1 -1 1z" />
    <glyph glyph-name="X" unicode="X" horiz-adv-x="489" 
d="M517.5 675.5q0.5 -1.5 -0.5 -2.5q-5 -9 -17 -25q-4 -4 -6 -5q-13 -8 -21 -19q-4 -5 -8.5 -10t-8.5 -10l-15 -19q-15 -18 -16 -19l-3 -5l-15 -19q-8 -9 -22 -27q-2 -2 -3.5 -5t-4.5 -6q-2 -2 -3.5 -6t-3.5 -7l-20 -28q-14 -18 -20 -28l-12 -18l-27 -41q-3 -3 -1 -8l6 -24
l20 -62l6 -17l16 -42q18 -48 36 -85q10 -21 32 -59l15 -23q3 -4 8 -6q5 -3 9 -2q4 2 6 2l3 1q4 0 8 -7q2 -4 2 -8q0 -6 -6 -9l-9 -3q-1 -1 -3 -1t-3 -1q-4 -5 -10.5 -7.5t-8.5 -3.5q-6 -4 -18 -10q-4 -1 -8.5 -0.5t-8.5 0.5l-5 1q-3 2 -9 4q-13 6 -16 8.5t-11 13.5
q-5 8 -6 10q-3 6 -5.5 10.5t-4.5 8.5q-8 14 -11 21q-1 4 -7 12q-3 5 -3 9q0 1 -0.5 2.5t-2.5 3.5q-5 7 -10 21l-8 19q-5 12 -10 26q-12 34 -19 50q-4 7 -6 17q0 4 -1 6q-2 4 -4 12t-4 12q-4 6 -8 0q-2 -2 -2 -3q-1 -1 -10 -13q-14 -20 -20 -30l-8 -12q-7 -12 -8 -14
q-3 -4 -6.5 -9.5t-8.5 -12.5q-4 -6 -11 -17.5t-14 -19.5q-6 -13 -13 -22q-4 -6 -11.5 -16.5t-12.5 -19.5q-11 -16 -12 -19l-11 -19q-2 -3 -5 -8t-7 -11q-8 -12 -25 -19h-2q-3 0 -13 5l-27 17q-2 2 -2 3l-2 5q0 3 2 6.5t3 5.5q3 5 20 35q3 5 6.5 12t6.5 11q5 11 28 47
q6 8 7 14q0 1 3 7q10 18 15 24q18 28 26 42l18 29q1 1 2 2.5t2 4.5q9 11 14.5 19.5t12.5 22.5q1 3 4 4t4 2q4 6 10 18q2 3 5.5 4t4.5 1q3 3 3 5q0 6 4 10q2 1 4 5l1 5q0 4 -1 7t-2 5q-5 11 -10 26.5t-8 23.5q-7 24 -15 43q-6 15 -16 45l-12 33q-3 8 -23 61l-12 23q-2 5 2 11
q17 14 16 13q5 3 7 4.5t7 4.5l29 15q2 1 6 1q3 1 7 -3q2 -2 2 -5q26 -63 34 -86q4 -11 7 -20t6 -17l22 -64q1 -2 2.5 -6.5t4.5 -7.5q2 -1 3 0q3 4 8 5l3 3q1 1 2.5 4t3.5 4q6 6 6 7q1 1 2.5 5t4.5 5q2 1 4 4.5t4 3.5q12 14 14 19l6 9q3 3 7 9q5 11 14 15q3 1 4 5q0 5 4 11
l11 13q0 6 7 9q3 3 8 5l10 8q5 3 2 8q-2 5 2 7q7 3 8 9q0 1 1 2.5t2 2.5q3 10 13 14q3 1 9 5q5 3 1 9q0 1 -2 3q-3 3 0 5q6 8 20 22q2 2 5.5 2.5t5.5 -1.5l6 -6l5 -5q6 -5 13 -2q2 1 2.5 1t0.5 -1l1 -2q2 -2 3 -2q2 0 5 1t5 0q12 -3 23 -14q1 -1 1.5 -2.5zM406 611q1 1 0 2
v2l-4 -2q-1 -1 1 -3h1q1 0 2 1zM374 576l-2 -2l-1 -1l1 -2l2 2v3zM212 569l-4 3l-1 -2q0 -4 2 -4q1 -1 1.5 -0.5l0.5 0.5q3 0 1 3zM217 548l-1 3q0 -1 -0.5 -1h-0.5q0 -3 1 -4zM302.5 516.5q-0.5 0.5 -1.5 0.5v-2h1q1 1 0.5 1.5zM228 509q2 0 3 2l-1 1q-2 -1 -2 -3zM228 509
q-3 -1 -4 -4h4v4zM224 505l-2 -1v-1q2 0 2 2zM234 504h-1q-3 0 -5 1q1 -2 1 -5q2 -1 3 0q2 2 2 3v1zM314.5 493.5q-0.5 0.5 -0.5 1.5q-2 -2 -2 -3v-2l2 2q1 1 0.5 1.5zM311 488h-1v-1zM242 481q0 1 -0.5 1t-0.5 -1v-2q0 1 0.5 1h0.5v1zM289 333q-6 -2 -7 -2t-3 2v2q2 4 4 4
q1 0 2 1t1 2v3q0 5 -4 8q-2 0 -3 -1q-5 -5 -7 -14q0 -4 1 -6q4 -4 6 -15q2 -2 3 -2v-4q2 -1 2 -2t-2 -2v-8q0 -2 2 -2q1 -1 1.5 -0.5l0.5 0.5l3 3q5 5 5 10q0 11 -5 23zM196 342l-1 1v-1h1zM283 315q0 1 0.5 1h0.5zM282 314v1v0h1zM282 307v3l-3 -1zM294 296v-2q0 -4 1 -5
l2 4v3q-1 0 -1 0.5v0.5zM299 283h-3q-1 0 -3.5 -1t-2.5 -2q1 -1 1 -2v-1q4 -4 2 -9v-4l7 -14q5 -10 5 -18q0 -3 4 -9q7 -12 10 -21q2 -3 -1 -11q2 -1 2 -2t-2 -2l-4 -8h7q2 2 2 3l1 1l4 2l1 -2q2 -4 0 -9q0 -2 -2 -3t-3 -2q-3 -3 -1 -5q1 -5 5 -5q3 0 5.5 0.5t3.5 -1.5
q1 -3 4 -5.5t4 -5.5q2 -1 -1 -4t-2 -3q1 -2 -0.5 -4.5t-1.5 -4.5t1 -3t2 -1l1 -4q1 -2 3 -2l8 1q2 -2 4 -8q3 -8 12 -11l1 7l1 4l-2 3l-2 1q-3 0 -3 -1v-1q-2 0 -2 4q4 7 -1 12q-6 6 -6 14q0 4 -3 5q-7 9 -9 21q0 2 -0.5 5.5t-2.5 4.5q-3 2 -4 6t-2 6l-2 9q-1 3 -4 4l-4 1
q-4 2 -4 5q0 4 1 8.5t0 8.5q-2 6 -7 9q-2 2 -2 3q0 9 -4 12l-2 1q-2 1 -3.5 5.5t-1.5 8.5l1 7q0 7 -5 7zM287 260v1h-1zM288 247h4q-1 1 -1 3l-1 3q-2 -2 -2 -3v-3zM271 241q0 5 -5 10q-3 -4 -1 -9q0 -1 2 -3q0 -1 0.5 -1h0.5zM294 245l-2 1v-3q2 0 2 2zM288 246l-3 -1
q0 -2 2 -2zM291 243h-3q0 -3 1 -3q2 0 2 3zM274 223h-1l-1 -2q1 -2 3 1zM286 198q0 10 -5 16h-1l-1 -2v-4q0 -7 4 -12l2 -2zM305 208v1h-1zM316 188q1 0 1 -1l1 4q-3 0 -3 -2q0 -1 1 -1zM291 184l1 -1v1h-1zM301 172v-1v1v1q0 6 -2 6q-5 0 -7 -2t1 -4q2 -2 2 -3.5v-2.5
q-1 -2 -0.5 -3.5t0.5 -2.5l3 -2q2 0 3 3v10zM322 177h1q0 1 -1 1v-1zM312 178v0v-0.5t-1 -0.5zM312 170l1 1q0 1 -1 1q-2 0 0 -2zM318 152q1 -1 2 -1l1 2q2 3 -2 3q-2 0 -2 -2q0 -1 1 -2zM329 147h3v3q-1 2 -2 2l-2 -1q-2 -2 1 -4zM313.5 133q1.5 2 0.5 3q0 5 3 6l2 1l-1 2
q-3 5 -8 3h-2.5t-2.5 1q0 1 -0.5 2t-1.5 0q-2 0 -2 -3v0q0 -4 3 -9l4 -6q2 -2 3 -2t2.5 2zM335 144v1l-2 1q0 -4 2 -2zM345 128q0 -1 -1 -1l1 2v-1zM344 126l-1 1v0h1v-1zM357 123h-1l1 1v-1zM315 122v1h-1q0 -1 1 -1zM356 122h-1v1v0h1v-1zM334 85v2q4 5 0 11q-1 2 -3 3
t-3 1q-4 1 -3 6v3q0 3 -4 9q-1 1 -5 1q0 -3 2 -6t1 -6q-1 -1 -1 -3q0 -5 7 -10q2 -1 2 -4q0 -2 -2 -6q0 -3 1 -4l4 1zM332 107h1v1zM374 102q-2 0 -3 1v-5l1 -2q1 0 3 1.5t1 2.5q0 2 -2 2zM360 96l1 1h-1v-1zM384 91.5l-1 0.5q-4 -1 -10.5 -1t-11.5 -2l7 -8l2 2.5t6 0.5t7 1
q1 0 2 1.5t0 3.5q0 1 -1 1.5zM342 80q4 -1 6 2q0 3 -4 3h-9q-1 -1 -1 -3q0 -1 1.5 -2t2.5 0h4zM385 71v1q0 1 -0.5 1h-0.5q0 -2 1 -2zM373 71v1q-1 0 -1 1q0 -2 1 -2zM341 66v4l-1 2l-1 -3q0 -3 2 -3zM390 70h-4l2 -4q0 -1 0.5 -1h0.5q3 -3 3 0l1 2q0 3 -3 3zM374.5 69h0.5
l-1 1v0q0 -1 0.5 -1zM399 64h1l-1 1v-1zM343.5 59.5q1.5 -1.5 5.5 -1.5q-2 6 -7 7q0 -4 1.5 -5.5zM356 60v1v2l-2 -2v-3zM353 50v7h-3l-1 -3q0 -4 4 -4zM364 30q0 15 -11 19q-2 -7 2 -12q1 -1 1.5 -3.5t1.5 -3.5q2 -2 3 -2h2l1 1v1zM411 49l1 -1v0zM413 46l1 -1zM383 27
l-1 1v-1h1zM371 28l-1 -1v0zM404 3l-5 -2q6 3 5 2zM398 0v0.5t1 0.5v0l-2 -1h1z" />
    <glyph glyph-name="Y" unicode="Y" horiz-adv-x="485" 
d="M525 639q-1 -5 -3.5 -16.5t-6.5 -19.5l-8 -26q-1 -6 -8 -26q-2 -6 -5 -13t-7 -16q-4 -7 -7 -19q-6 -14 -6 -17t-1 -6t-2 -5q-5 -10 -7.5 -17.5l-4.5 -13.5l-7 -19q-16 -40 -23 -60l-24 -63l-6 -19q-3 -6 -6.5 -17t-7.5 -18q-3 -4 -5 -13q-1 -6 -4 -16t-4 -17l-2 -6
q-5 -9 -8 -21t-5 -18q-9 -35 -16 -78q0 -6 -2 -18q0 -9 -2 -13l-1 -2q0 -2 2.5 -4.5t4.5 -2.5l10 1q2 0 5 0.5t5 -0.5q7 -3 10 -11q1 -2 4 -10t3 -15v-14l-2 -6q-1 -2 -3.5 -3t-4.5 0l-3 3q-1 1 -4 -1l-7 -3q-2 1 -6 2t-6 4q-2 4 -6 5l-9 3q-4 1 -4 6q0 2 -3 5q-7 2 -12 10
q-1 4 -5 6q-5 3 -12 15q-11 16 -13 20q-2 5 -4 13.5t-4 13.5v2q0 5 2 5q5 3 5 8v26v5q0 10 2 15q1 2 1 6q0 15 5 33q4 16 5 24q2 16 8 26q2 2 1.5 4t-0.5 3q0 4 1 6q3 5 5 11.5t4 10.5l1 2q-1 2 -1 5q0 9 7 19q5 7 5 13v2q0 5 2 8.5t6 8.5q-4 2 -2 4q2 10 6 12l4 8l3 3
q14 25 17 42l5 15q1 2 2 4.5t4 5.5q1 1 2 4t1 5q0 1 0.5 1h0.5q4 2 2 5q-4 6 -1 11l1 4q1 4 7 5q0 7 1 11q0 2 4 2q1 -1 4 -1l2 2v2l-4 4q-2 1 -1.5 3t2.5 4l2 -2l2 -1q2 0 4 2t3 5q1 4 3.5 10t3.5 10q1 3 -2 5q-3 1 -1 3q5 4 2 5q-5 6 -6 12l-1 2q-3 0 -4 -1q-4 -8 -8 -11
q-2 -1 -4 -4t-4 -4t-4 -5q-4 -6 -7 -9q-4 -5 -8.5 -13t-8.5 -12q-7 -7 -19 -23l-36 -42q-11 -11 -20 -23q-1 -2 -3 -3t-3 -2l-3 -2q-2 -2 -4 -6.5t-5 -6.5q-3 -3 -5 -5.5t-4 -4.5l-17 -18l-15 -15l-3 -3q-3 -2 -7.5 -5.5t-7.5 -6.5q-4 -3 -7.5 -6.5t-6.5 -5.5q-3 -4 -8 -5
l-17 -7q-13 -5 -26 -5q-8 0 -16 3q-2 1 -5 2t-7 1q-5 1 -10 6l-4 4q-4 2 -8 8q-2 4 -3.5 7.5t-3.5 7.5q-2 2 -7 12l-8 14q-4 7 -11 27q-1 3 -1 9t1 9l3 21l6 34q4 18 7 27q2 5 4.5 11.5t4.5 14.5q2 7 8 19q4 11 5 15l1 4q7 13 13.5 32.5t10.5 28.5q1 4 5 5.5t8 -0.5l5 -3
q5 -4 10.5 -11t10.5 -10q3 -5 7 -15q2 -2 0 -6q-3 -12 -9 -24q-14 -25 -17 -46q-1 -5 -5 -20q-1 -7 -3 -17.5t-6 -24.5l-2 -4q0 -10 -4 -28q-1 -4 -2 -10t-1 -15q0 -2 1.5 -3t2.5 0q32 13 47 26q9 7 25 23q28 30 43 44q3 5 12.5 14.5t13.5 15.5q1 2 9 7q6 2 6 -4l1 -2
q2 -1 3 0l6 9v0q0 3 -2 3t-3 -1t-3 -1l-2 2v1q4 4 7 5q7 0 18 7q3 2 9 2q0 1 0.5 2.5t2.5 3.5q1 6 7 2q2 -1 3.5 0.5t0.5 2.5q0 3 -2 7q0 5 6 6h2q0 4 1 7q3 5 4 6q3 2 12 13q4 4 7 5v-7h2q10 0 10 11q4 1 4 4l4 4l2 1q6 5 6 11q8 2 10 5q1 1 3.5 5.5t8.5 6.5l2 3q4 8 5 12
q3 0 6 3q4 6 7 9q1 2 -2 4q-3 3 -2 6q2 2 5 1q4 -2 5 -2q0 3 1 5l1 4q2 -2 3 -2q2 -2 3 -1q10 6 13 17l3 -1q0 -1 1 -1h1l1 3q0 3 -4 7q-2 2 0 5q2 4 5 2q3 0 3 2t-1 4t1 4l2 3q6 6 9 13q0 3 3 4t5 -1q5 -3 6 -8q0 -3 2 -5q0 -2 3 -5q4 -4 7 -4q9 -2 16 -15q6 -10 14 -32
q2 -3 0 -6zM446 671h1h-1q0 1 -1 1v0v0q1 0 1 -1zM448 671v-1h-1v0v0v1h1zM430 644l-3 2q1 -1 1 -3v-2h2v3zM406 630q1 -1 1 -3l-4 -3h-2q-1 1 -1 4l3 3q1 1 3 1v-2zM408 626h-1v1h1v-1zM382 602q0 -1 -3 -7q-3 2 -3 3.5t3 4.5q2 2 2 1q1 0 1 -2zM379 594v0v0v1v-1v0v0z
M379 594zM379 594zM363 575h-7q3 7 11 12q2 2 4 -1v-4q-2 0 -4 -3q-4 -2 -4 -4zM371 582v1v-1v0zM368 579l-1 -1v0v1h1zM356 574h-1v0v1h1v-1zM364 575q0 -1 -0.5 -1h-0.5v0v1h1zM351 571q0 3 4 3q0 -3 -4 -3zM332.5 569q-0.5 1 -0.5 2q1 0 1 1l1 -2v-0.5t-1 -0.5
q0 -1 -0.5 0zM351 570v0v1v0v-1zM351 562q-7 -1 -7 -11q7 4 7 11zM325 560v1h1zM342 550v-1h-1v0v0v0h1v1zM334.5 541.5q-0.5 0.5 -1.5 -0.5q-1 0 -1 -2l2 1q1 1 0.5 1.5zM331 538h-3q1 -2 3 0zM310 512l-2 2v-3l1 -2l1 1v2zM392 483v3l2 2q0 -1 0.5 -1.5t-0.5 -1.5z
M392 483v-0.5t-1 -0.5q0 1 1 1zM391 482v0v0zM385 454h-1v-1h1v1zM338 352q1 0 1 -0.5v-0.5q-2 0 -2 1h1zM339 350v0v0v1h1zM338 339q0 3 -2 3v-3q0 -1 0.5 -1.5t1.5 0.5v1zM333 328l-1 -1v0z" />
    <glyph glyph-name="Z" unicode="Z" horiz-adv-x="461" 
d="M37 11q-2 2 -4 3l-4 2q-4 4 -4 5q-1 4 -5 10.5t-5 10.5q-4 14 -14 42q-1 4 -1 14q0 7 4 8q3 2 4 5t2 5t1.5 5.5t3.5 4.5t5 6q19 26 26 33q2 2 2 3q1 7 7 8q8 8 10 9t3 3.5t1 3.5q2 9 9 9l10 10q12 16 19 23q4 4 8 9.5t8 8.5l1 1q1 5 6 8l7 7q7 10 17.5 21t15.5 16l6 8
q2 4 9.5 11t9.5 12q6 4 14.5 14.5t12.5 14.5q18 20 26 31q6 8 20 24q4 4 4 7q1 4 6 6l2 1q2 2 22 28l2 4q0 5 5 8l3.5 3.5l3.5 3.5q1 2 2 5t4 5q5 5 8 11q1 1 6 11l9 13q1 1 11 14l4 5q1 6 5 12.5t6 10.5q7 12 11 23q2 6 4 14q0 3 -3 4q-6 4 -19 6q-30 6 -45 6h-34h-32
q-5 0 -13.5 -1t-14.5 -2q-5 -1 -14 -1l-20 -3q-14 0 -26 -12q-1 -1 -3.5 -3t-4.5 -2l-14 -3q-11 -3 -24 -1q-8 0 -10 8q-5 11 -9 35v8l-1 7q0 6 2.5 8.5t6.5 5t6 3.5q6 2 23 8.5t33 8.5q5 1 12.5 3t12.5 2q6 3 16 3.5t16 1.5q11 3 35 3q3 -1 9 -1q3 0 11 2q5 1 16 1
q6 0 10 -1l15 -2l28 -2q16 -4 23 -7q30 -12 43 -40q1 -2 6 -10q9 -16 10 -28q0 -2 2 -6q5 -4 5 -12q0 -13 1 -20v-4l-1 -20l-1 -6q-4 -7 -8.5 -17.5t-8.5 -16.5q-18 -30 -33 -47l-7 -10q-4 -8 -15 -21l-15 -18l-8 -9q-10 -16 -27 -35q-1 -1 -19 -22q-20 -24 -31 -35l-21 -23
q-5 -5 -9.5 -11.5t-9.5 -11.5q-22 -28 -34 -41l-31 -38q-10 -11 -28 -33l-19 -23q-6 -6 -10 -13q-2 -3 -19 -28v-2q0 -2 2 -2h14.5t21.5 3q7 0 16.5 2.5t14.5 3.5q11 1 31 7q18 4 28 7l65 18q17 5 51 17l72 24q10 2 14 2q8 0 17 -3q6 -3 7 -10v-11v-2q0 -8 -4 -13l-5 -7
q-3 -5 -8 -8q-23 -18 -47 -29q-6 -4 -9 -5q-11 -7 -20 -10q-7 -2 -15.5 -6.5t-13.5 -5.5q-3 0 -6 -2t-5 -3q-11 -4 -15 -5q-10 -1 -19 -6q-8 -4 -13 -5q-10 -1 -26 -9l-10 -2l-25 -7l-4 -2t-5 -1q-6 0 -11 -3q-15 -8 -31 -9q-10 -1 -25 -3t-24 -2h-29q-17 0 -33 11zM424 148
q0 4 -2 2q-1 0 -1 -2v-3h3v3zM420 145q-2 0 -2 -1q-1 -2 1 -2q3 0 1 3zM431 137q0 4 -2 5.5t-5 2.5q0 -7 2 -9q0 -1 1 -2t2 0q2 2 2 3z" />
    <glyph glyph-name="bracketleft" unicode="[" horiz-adv-x="280" 
d="M327 684q0 -2 -2.5 -4.5t-3.5 -4.5q-3 -10 -11.5 -19.5t-12.5 -13.5q-3 -3 -9.5 -6.5t-10.5 -6.5q-32 -25 -73 -36q-20 -6 -24 -26q-15 -59 -24 -85q-4 -12 -8 -36q-6 -27 -15 -51q-9 -28 -24 -91q-4 -14 -5.5 -25t-3.5 -18l-8 -36q-3 -11 -7 -40q-4 -28 -7 -42
q-3 -11 -3 -35v-1l1 -12q3 -12 15 -14h8q20 0 56 8q15 2 45 8l5 1q6 0 9 -10q4 -14 5 -21v0q3 -5 1 -10l-2 -6q0 -1 6 -6q4 -2 4 -3q1 -3 -1.5 -4t-3.5 -1q-8 -4 -12 -7t-9 1q-5 3 -8 -3q-11 -17 -35 -22q-15 -4 -25 -10q-8 -5 -16 -5q-3 0 -9 2q-2 1 -6 1t-8 -2l-8 -2
q-3 0 -9 2v0q-5 -2 -8 0q-16 6 -22 23q-12 27 -13 49q0 2 -3 17q-2 20 -2 31l1 24q9 77 37 202q4 17 17 68q6 17 8 29q18 68 28 102l9 32q6 17 6 31q0 10 -3 19q-2 5 -2 13q0 11 5 18q3 3 3 10q0 11 8 15h2q10 8 19 8q5 0 11 -3q4 -2 7 -2l9 1q9 1 22.5 2t31.5 4q6 1 22 3.5
t28 7.5q1 0 5 1.5t8 -2.5l-2 -2q-7 -2 -8 -4.5t3 -7.5t9 -1q2 1 5.5 5t6.5 1q1 0 1 -2zM268 88l3 -1q0 -3 -1 -3q-1 -1 -2 -0.5t-1 1.5zM258 67h1v0v0h-1zM212 60q6 2 7 7zM258 67l-7 -7q3 4 7 7zM251 60v-1v0v0v1zM209 55l2 4l-3 -2zM236 53v-2l-1 1z" />
    <glyph glyph-name="backslash" unicode="\" 
d="M214 38q2 -5 2 -9q0 -6 -5 -8q-7 -2 -7 4h-1q3 4 0 8q-26 13 -37 46q-2 2 -2 5q-8 3 -10 11t-6.5 20t-7.5 21q-12 35 -16 61l-6 28q-6 29 -7 41q-2 19 -8 57q-8 43 -10 68q-3 33 -9 66q-2 7 -2.5 19.5t-1.5 21.5q-14 104 -29 176l-1 8q0 3 2 5t4 1q3 -1 18 -3.5t27 -8.5
q29 -14 34 -43q21 -111 31 -190q1 -7 1 -22q1 -32 7 -92l3 -37q3 -31 3 -63q0 -11 1 -19t2 -14q1 -19 4 -41.5t4 -31.5q2 -9 4 -27q4 -22 16 -50q1 -3 3 -8z" />
    <glyph glyph-name="bracketright" unicode="]" 
d="M323 656q0 -21 -6 -42q-5 -14 -13 -24q-40 -48 -59 -104l-8 -21q-3 -11 -7.5 -22.5t-8.5 -25.5q-12 -42 -21 -89q-11 -52 -16 -131l-3 -39l-1 -30q-2 -18 -4 -27q-3 -10 -5.5 -25t-6.5 -24q-4 -12 -13 -19q-16 -13 -37 -19q-35 -8 -69 -12h-12q-6 0 -19 4t-21 2
q-15 6 -21 16q-3 7 -1 11q3 6 10 4q8 -2 13 -2q9 0 29 6v0q26 12 41 14q9 2 16 6l29 13q21 6 22 28q4 62 7 93q11 126 34 209q30 106 51 157l6 19v2q0 2 -2 4t-5 1q-4 0 -14 -2q-6 -1 -27.5 -5.5t-40.5 -2.5q-5 -2 -14 -2q-7 0 -23 2q-24 2 -29 26q-1 5 -2 9.5t-2 9.5
q-2 6 -2 9q0 8 5 16q5 10 15 10l22 -1q16 -2 24 -2q13 0 41 2q14 1 30.5 6t22.5 7q21 6 38 13q17 5 20 7q7 4 11 4q5 0 12 -7q14 -14 14 -32z" />
    <glyph glyph-name="asciicircum" unicode="^" horiz-adv-x="280" 
d="M278 594.5q-6 20.5 -7 25.5q-6 23 -34 40q-8 5 -18 5q-29 0 -49 -17q-4 -3 -11 -11t-12 -11q-24 -21 -41 -47q-34 -56 -45 -78q-7 -15 -13 -37q-1 -2 -1 -5q0 -8 7 -11q5 -2 10 -7t8 -7q5 -3 8 -3q5 0 9 6q25 36 33 50q32 50 78 91q11 9 18 11q2 1 5 1q7 0 8 -9
q2 -10 2 -17q0 -14 7 -20q5 -4 5 -12q-1 -9 0.5 -22t1.5 -22q0 -15 6 -19q5 -5 4 -12q-2 -5 3 -6q2 -1 3.5 1t2.5 3q3 2 5 10q11 52 12 95q1 14 -5 34.5zM235 537l-2 -2q0 -4 3 -4q1 0 1 1t1 2q0 4 -3 3zM260 434q1 1 0 1q0 1 -0.5 1.5t-1.5 -0.5l-1 -2q2 -1 3 0v0z" />
    <glyph glyph-name="underscore" unicode="_" horiz-adv-x="350" 
d="M293.5 77q2.5 0 2.5 -3q0 -2 -3 -4q-2 -2 -6.5 -3.5t-6.5 -4.5q-1 -2 -10 -9q1 -1 4 -2t4 -4q-6 -3 -13.5 -8t-17.5 -11q-6 -5 -13 -6q-41 -8 -76 -18q-14 -4 -32 -3.5t-24 0.5q-2 0 -4.5 0.5t-5.5 -0.5q-4 -1 -10 -1q-21 0 -40 23q-21 24 -21 58q0 14 10 14t28 -6
q33 -9 79 -9q53 0 120 12q5 1 13.5 1t13.5 1q-4 -2 -6 -4q-4 -2 -4 -5.5t4 -6.5q5 -2 11 -1h3.5zM286 95v-1h-1zM285 94h1h-1z" />
    <glyph glyph-name="a" unicode="a" horiz-adv-x="336" 
d="M323 340l-2 -8q-5 -9 -7 -24q-3 -17 -13 -42q-13 -34 -16 -47l-12 -46q-1 -3 -2 -6.5t-3 -7.5q-2 -5 -4 -13q-2 -12 -10 -28q-2 -3 -4 -9q-2 -4 -2 -7q0 -6 -1.5 -11.5t-1.5 -11.5l-1 -34v-15v-1q0 -5 -3 -8q-1 -3 -5 -1q-12 12 -17 19q-3 4 -5 8l-14 29l-3 10
q-2 22 -4 33v10q0 9 3 18q1 3 -2 6q-1 1 -2.5 0.5t-2.5 -1.5l-22 -23q-3 -4 -7 -7l-7 -8q-7 -11 -18 -22h-0.5t-0.5 -1q-10 -8 -15 -13q-6 -6 -16 -11q-1 -1 -6.5 -3t-10.5 0q-6 -2 -9 -2l-11 1q-1 1 -2.5 0.5t-2.5 0.5l-13 5q-2 2 -2 3q-1 5 -5 10t-6 9q-1 1 -4 1l-2 -2
q2 -2 2 -3q1 0 1 -2l-1 -1q0 -1 -1 -1v0h-0.5t-0.5 1l1 1l-1 1v1q0 1 -2 3q-2 0 -5 3l-8 16t-6 17q0 3 -1.5 6l-2.5 5q-7 13 -7 27v6q3 8 4.5 16.5t4.5 16.5q5 17 13 31l3 7q0 1 2 7t7 9q1 4 5 9t6 9q4 11 14 19l4 5q1 1 1 3q3 4 4.5 7l2.5 5q8 10 8 11q2 4 6.5 8t6.5 7
q10 15 12 17l8.5 8.5l8.5 8.5q10 8 30 22q3 2 8 0q2 0 3 1l4 5q4 4 7 2l6 -3q3 -1 5 0l5 3q1 0 2.5 0.5t3.5 -0.5l11 -6q2 2 5 0.5t4 -1.5q5 0 11 -4l7 -7q4 -3 6 -8q2 -7 10 -19q1 -2 5 -4q2 0 3 1l3 5l2 6t1 8q0 6 2.5 17t2.5 16q2 6 5 13q3 5 8 6h0.5t0.5 -1l3 -5l4 -11
q3 -2 6.5 -8.5t6.5 -8.5q14 -11 17 -27q1 -4 5 -12q4 -6 2 -14zM222 278q-1 6 -3.5 18.5t-2.5 21.5q0 1 -1.5 2t-2.5 1q-3 1 -8 1q-27 -6 -57 -31q-3 -4 -10.5 -11.5t-10.5 -12.5q-6 -10 -12 -18.5t-11 -15.5q-14 -22 -20 -33l-13 -29q-1 -1 -1 -4q-1 -1 -0.5 -2.5t1.5 -2.5
l3 -1q3 0 7 2.5t7 3.5q9 3 19 11l12 9t13 13l3 2q1 1 4 1q1 0 3 -2q3 -3 5 -2l20 9q3 2 5 5q2 4 6.5 7.5t6.5 5.5q2 3 8 3q2 -2 2 -3q2 -1 3.5 -1.5t3.5 1.5q4 4 6 4q4 0 6.5 2.5l3.5 3.5q1 3 -1 7q-4 4 -1 6q5 9 3 15q-1 4 2 7t2 7zM210 256h1v-1zM39 244h-1v-1zM193 230
q2 10 6 12q1 1 4 1q2 0 3.5 -1.5t1.5 -3.5l-1 -2h-4.5t-3.5 -2q-2 -2 -6 -4zM193 229h-1v1v0h1v-1zM158 220h1q-2 -2 -3 -1q-1 0 -1 1l3 1v-1zM143 192q-1 0 -1 0.5v0.5l-3 -1q0 -1 1 -1q2 0 3 1zM127 181v2l-1 -1v-1h1z" />
    <glyph glyph-name="b" unicode="b" horiz-adv-x="371" 
d="M69 17q-8 8 -15 20q-2 3 -2 5t-1 3t-3.5 2.5t-3.5 4.5l-4 6q-3 4 -8 6q-4 2 -3 4.5t4 4.5q3 3 7 3q9 0 11 -6q1 -3 7 -14l3 -3q5 -1 8 -6.5t5 -7.5q0 -1 1.5 -1t3.5 1q1 0 3 1t2 4l2 5q1 2 0.5 3.5t-1.5 1.5q-2 1 -4 -1q-6 -3 -7 3l-2 6q0 1 1 2t3 1q4 0 5 2q2 1 2 3
t-2 3q-2 2 -3 2h-1q-3 0 -6.5 1.5t-5.5 2.5q-1 4 -0.5 10.5t-0.5 11.5q-4 3 -6.5 8.5t-3.5 7.5q-3 9 -9 17q-12 15 -12 30v6q0 15 2 23q2 3 1.5 6.5t-0.5 5.5q1 6 1 18q0 4 1 8.5t1 9.5q0 3 1.5 8t2.5 9l4 21l6 22q4 24 7 37q3 8 5 27q1 15 10 34q2 5 0 10l-1 2v4q0 3 1 5
l2 4l3 10q0 11 5 26q4 15 5 20q3 9 6 22.5l5 22.5q2 12 5 17q6 11 6 23q0 7 4 19q4 15 5 20q2 12 5 17q2 3 2.5 7.5t1.5 7.5q3 9 6 23t5 23q1 5 6 8l8 2q7 0 12 -6q3 -3 8.5 -8t7.5 -10l11 -19q2 -3 3 -7.5t2 -7.5q-1 -8 -2 -19.5t-3 -19.5q-4 -15 -5 -20t-2.5 -10.5
t-2.5 -10.5q-5 -14 -10 -37q-2 -9 -11 -38q-1 -5 -3 -11.5t-4 -13.5l-10 -42l-4 -14q-2 -4 -6 -12.5t-3 -15.5q-2 -4 -4 -13.5t-4 -13.5q-1 -2 1 -7l7 -13l2 -1l1 3l1 4q0 6 -3 12q-2 6 5 7q2 1 6 1q6 0 6 4v4t1 5q1 1 1 5h8q0 4 1 5q1 2 2.5 2.5t2.5 -0.5q4 -2 5 -4
q3 -1 3 1q5 9 14 9l3 3q7 8 19 8q4 0 5 1q0 6 -3 8q-1 1 -1 2.5t1 1.5l10 2q2 0 2 -3l4 -4l2 -1v0h0.5t0.5 -1l-1 -1h-1q-1 0 -1 -0.5v-0.5l-2 -2q0 -1 3 -1h6q4 0 4 3q0 4 -2 5q0 1 -5 3v0.5t-1 0.5h-1q-1 0 -1 0.5v0.5q0 1 1 1h1v0.5t1 0.5l9 1q8 0 16 -3q19 -6 31 -21
l9 -11l5 -3q3 0 3 -3q0 -6 3 -6q1 0 3.5 0.5t4.5 -1.5q7 -5 11 -14l11 -27q3 -6 3.5 -13.5t0.5 -10.5q2 -6 0 -11q-1 -3 -2 -5l-2 -4l-5 -9l-1 -4q-2 -15 -12.5 -30.5t-14.5 -22.5q-3 -3 -6.5 -9.5t-6.5 -10.5q-1 -2 -2.5 -4t-2.5 -4l-18 -23q-4 -4 -5 -7l-7 -7
q-8 -3 -11 -11q-6 -9 -19 -18l-7 -6q-11 -13 -21 -19l-4 -5q-10 -12 -20 -18q-2 -1 -10.5 -6.5t-14.5 -13.5q-1 -2 -5 -4q-4 -1 -9.5 -4.5t-9.5 -4.5l-3 -3q-9 -8 -21 -3q-5 2 -9 -1q-2 -1 -6 1t-6 2q-3 0 -3 -1q-1 -1 -3 -4.5t0 -7.5q0 -2 -1 -2q0 -2 -3 -1zM186 386v2h0.5
t0.5 -1v-1h-1zM150 369q2 1 2 -1zM152 368l1 -1v0h-1v1zM97 78v6q0 5 3 5q4 -1 6.5 -0.5t3.5 0.5q1 1 3.5 1t3.5 1q5 7 16 11q6 1 9 8q7 14 20 17l5 4l5 7q-2 2 -2.5 3.5t0.5 1.5q0 3 2 3v0h3h1q8 2 12 8q1 3 7 7l7 6q3 3 0 7q0 1 -0.5 1h-0.5q0 5 5 10q2 2 5 5.5t4 6.5
q0 4 -1 6l-4 4l-1 -1v-0.5t-1 -0.5v-1l-1 -2q0 -1 -3 -4q0 -1 -1 -1q0 -2 -2 -4l-2 -1v0h-1v2l1 1l2 2q2 6 5 8v0v1l2 1q2 3 3 3h2l5 -1q6 -1 7 5v5q-1 -1 -2.5 -1t-2.5 -1v0l-1 -1q-1 0 -1 0.5v0.5v1v0l-1 2q0 1 2 3q1 3 4 4l3 3q2 4 6.5 11.5t8.5 12.5q1 1 1.5 3.5
t1.5 3.5l5 9q6 8 11 19.5t8 17.5q4 11 5 19q1 2 0.5 3.5t-0.5 2.5q0 2 -2.5 4t-3.5 1h-3q-7 0 -10 -1q-7 -5 -13 -5q-2 0 -6 -2t-7 -2q-6 0 -11 -6q-7 -9 -17 -13q-12 -6 -14 -13q0 -1 -2 -3q-10 -8 -15 -13q-4 -2 -4 -4q-1 -3 -3.5 -6t-4.5 -6q-1 -2 -5 -5.5t-5 -6.5
l-7 -14l-3 -3q-5 -4 -7.5 -10.5t-3.5 -8.5q-3 -5 -4.5 -10.5t-3.5 -9.5t-3.5 -9.5t-5.5 -12.5q-3 -5 -4 -12t-2 -11q-6 -18 -6 -38q0 -5 -2 -13q0 -5 -3 -7l-5 -4q-4 -4 -1 -11l2 -2q2 -2 3 -2q4 0 6 5zM124 319l-1 1q-1 0 -1 -1q-1 -2 1 -2zM231 223q2 4 -3 4h-2
q-1 0 -1 -0.5v-0.5v-7q2 0 6 4zM200 175h1v0h-1v0zM199 174l1 1q0 -2 -1 -2v1zM190 167v2l2 -1v-1l-1 -2zM178 155l1 2l1 -2v-0.5t-1 -0.5q-1 -1 -1 1zM175 141l-1 1l-1 -2q1 0 1 -0.5v-0.5zM65 79v0v0h-1h1zM65 79v0v0zM63 78l1 1q0 -2 -1 -2v1zM103 42l-1 -1l1 -1v2z" />
    <glyph glyph-name="c" unicode="c" horiz-adv-x="299" 
d="M116 32.5q-4 1.5 -7 0.5v0v0l-1 -2v0q-1 0 -1 0.5v0.5q-1 1 0 2h-1q-3 5 -14 7l-3 -1q-3 0 -5.5 2t-3.5 3q-3 5 -8 3q-4 2 -5 4q-2 7 -8 10q-10 4 -15 16q-2 6 -8 16q-4 6 -5 10q-2 8 -6 15q-6 10 -17 40q-2 6 -2 8v18q0 11 1 16q2 18 7 31l11 34q13 28 16 34q5 9 5 11
q4 10 8 13q4 4 5 7q4 9 12.5 18.5t12.5 14.5q12 16 29 27l9 8l5 3q9 2 14 7q10 1 16 10l2 1h2q3 0 7 1t6 0t5 2q4 4 7 1q6 -3 9 2q0 3 3 1q7 -7 8 -9t5 -5t4 -7l3 -3q3 -1 7 -7t2 -11v-1q0 -2 1.5 -4t2.5 -4q1 -4 1 -10.5t1 -11.5q1 -3 0.5 -7t-0.5 -6q0 -4 -1.5 -5.5
t-6.5 -3.5q-1 0 -2.5 -1.5t-2.5 -1.5t-2 1.5t-2 1.5q-11 0 -16 -2q-7 -1 -15 -6q-19 -9 -40 -28q-3 -3 -14 -13.5t-17 -21.5q-4 -3 -7 -10t-5 -10q-15 -24 -24 -48l-2 -7q-4 -14 -7 -21q-7 -14 -7 -25v-1q0 -5 4 -8q13 -9 25 -9h26h1q11 0 21 3l14 2q5 1 14.5 3.5t15.5 5.5
q7 4 16.5 5.5t12.5 2.5q1 0 3 -2t2.5 -5.5t0.5 -5.5q4 -2 6 1t6 6.5t7 6.5h3q2 -1 4 -5q0 -1 -1 -1.5t-1 -1.5q-1 -3 2 -5q1 -1 4 -1q1 0 3 2l0.5 0.5t0.5 -0.5q3 3 7 3t6.5 -1t4.5 -2q3 0 1 -2q-2 -3 -3.5 -7.5t-3.5 -6.5l-2 -1q-2 -2 -3 1l-1 2q0 6 -7 11l-3 -2v-1
q-1 -2 -1 -5q0 -5 5 -8q2 -2 2 -3q2 -1 2 -2.5t-2 -2.5q-3 -4 -7 -7q-1 -2 -6 -6t-6 -7q-8 -8 -10 -9q-10 -7 -11 -9q-2 -2 -5 -2q-7 -2 -9 -4q-3 -2 -8 -4.5t-7 -5.5q-1 -3 -2 -2l-2 2l-2 1q-3 0 -7 -2.5t-6 -2.5q-3 0 -5.5 -1.5t-5.5 -1.5q-4 0 -4 -2l-3 -5l-4 -2
q-6 1 -13 0q-1 -1 -2.5 0t-2.5 1q-2 0 -2 -3q2 -3 -1 -3t-7 1.5zM280 164.5q0 0.5 1 0.5q0 1 0.5 0.5l0.5 -0.5q1 0 1 -0.5v-0.5h-2q-1 0 -1 0.5zM267 143.5v0.5q0 1 1 1v0q0 1 1 1.5l1 0.5l1 1v0q0 1 1 1h0.5t0.5 -1q0 -5 -5 -5q-1 0 -1 0.5zM231 127q1 2 1.5 4t-0.5 1
l-2 -3v-2h1zM217 124v6q-2 -2 -2 -6q0 -2 0.5 -2.5t0.5 0.5q1 0 1 2zM229 119q1 2 1 7q-2 -1 -3 -3t-1 -3q0 -3 1 -3q2 -2 2 2z" />
    <glyph glyph-name="d" unicode="d" horiz-adv-x="336" 
d="M251 -16.5v0.5v2v0q-3 5 -8 5q-3 -2 -5 2q-3 7 -8 9q-3 3 -3 6q0 10 1 15v2q0 6 -5 10h-1h-1h-2v2h1v0v0q0 2 -1.5 7.5t-0.5 10.5q1 2 1 5q0 4 -3 8q-1 2 -0.5 3.5t0.5 2.5q3 5 1 12q-1 2 -1 6q0 3 2 9q1 2 1 4.5v3.5q-1 1 -1 2.5t1 2.5q3 11 3 20l-1 9h-1h-0.5t-0.5 1v1
h2q3 3 1 4q-4 2 -4 10q0 6 -4 4q-2 -4 -4 -4q-9 -4 -18 -13q-18 -21 -25 -26l-5 -6q-6 -9 -14 -17q-3 -3 -18 -16q-2 -2 -3 -2l-12 -7h-1q-2 0 -7 -3t-8 -2h-18q-7 0 -21 6q-2 0 -2 3l-3 5q-2 6 -7 6h-4v0h-3q-2 2 -2 3v0l-2 1q-7 10 -8 13q-8 13 -11 26q-3 7 -8 14
q-4 8 -4 25q2 6 3.5 14.5t3.5 14.5q1 3 4.5 14.5t9.5 20.5l2 4q0 2 0.5 6.5t4.5 5.5q2 2 4 5.5t4 5.5q6 5 5 10l2 4q2 2 4 6t6 8q4 2 6.5 6t3.5 6t2 5t3 6q1 2 4 4.5t4 4.5q2 3 7.5 8.5t7.5 9.5q3 4 8 9.5t8 8.5q4 6 10 10l29 21q4 1 8 0q2 -1 3.5 0t2.5 3l5 3q1 0 2.5 0.5
t2.5 -0.5q5 -3 10 -1q7 5 13 0q8 -6 17 -6q5 0 12 -5q10 -7 14 -16q1 -3 6 -11l7 -7q1 -1 2.5 -0.5t2.5 1.5q4 3 6 8q1 14 10 32q3 4 1 10q-1 2 -1 5q0 4 2 8q4 15 5 20q0 1 3 13q11 34 19 71q5 16 6 19q4 6 6 19q0 6 2 14l3 12q4 9 5 17q2 5 4.5 12.5t4.5 17.5q3 8 6 19.5
t5 19.5q0 1 0.5 3.5t2.5 5.5q0 2 3 5q5 3 10 3q6 0 11 -6q3 -4 8 -8t7 -7l9 -18q7 -11 7 -24q0 -5 -2 -15q0 -2 -1 -4.5t-1 -4.5q0 -4 -2 -12q-3 -5 -5 -19l-4 -16q-5 -12 -11 -38q-5 -20 -14 -46q-3 -7 -7 -21q-1 -8 -4.5 -20t-5.5 -20q-1 -5 -3 -10.5t-3 -8.5
q-3 -9 -7 -19.5t-8 -23.5q-1 -3 -2.5 -10t-4.5 -11q-1 -1 -1 -4q0 -6 -3 -14t-4 -13q-1 -4 -8 -25q-2 -6 -2 -9q-1 -10 -6 -21q-7 -14 -6 -25q-2 -5 -3 -12t-2 -11l-2 -4q-3 -6 -3 -7q0 -5 -2.5 -10.5t-3.5 -10.5q-3 -25 -10 -45q-1 -8 -4.5 -21t-5.5 -21q0 -3 -0.5 -7.5
t-2.5 -10.5l-1 -2q1 -8 0.5 -14t-0.5 -10q0 -6 2 -22q3 -5 1 -14v-1v0v-2l-1 -1q-1 0 -1 0.5zM164 392h1v-2zM165 390h1v0h-1v0zM97 167q11 4 17 10q4 3 12.5 9t13.5 13l2 1q1 0 1.5 0.5t1.5 -0.5q3 -1 8 -1t8 2l7 2q9 4 14 11q8 10 17 15l2 2l1 1q0 3 1 4q1 2 5 6l3 3h1
q1 0 1 -0.5v-0.5q-1 -3 -4 -3v-2h2v-1q1 0 5 -2l1 -1v-3l-1 -1h-1v1q-1 0 -1 1l-4 3l-1 2v0l-2 1l-1 -2q0 -4 -2 -6l-2 -1v-1q0 -4 1 -6t2.5 -2.5t2.5 0.5q5 6 10 6q3 1 7 7l-1 4q-2 2 -2 3q-2 2 -2 3t2 3q2 1 3 3t1 3v2q0 2 -1 4t-1 4t1.5 4.5t2.5 4.5q2 3 0 6q-6 22 -7 33
q0 2 -4 4h-8q-26 -5 -57 -30q-5 -5 -13.5 -14.5t-13.5 -18.5q-14 -22 -22 -33q-8 -12 -11 -19l-14 -33l-1 -2l2 -3q0 -1 1 -1.5t2 0.5zM215 251.5v0.5q0 1 1 1h1v1l2 1v1q0 1 1 1h0.5t0.5 -1v-3v0h-1v-1v0l-2 -1h-2q-1 0 -1 0.5zM45 240l-2 1v-1h2zM163 218v1h2v-1l-1 -2z
M150 189l2 3l-2 1q-1 1 -3 -1q-1 -1 -0.5 -2t1.5 -1h2zM136 181l-1 -1h1v1zM44 94q-1 -1 -1 -2q0 -2 2 0zM250 -40q-1 3 1 5l5 3q3 2 5 -2l1 -2q0 -2 -1.5 -4.5t-3.5 -3.5h-3z" />
    <glyph glyph-name="e" unicode="e" horiz-adv-x="325" 
d="M146 39h-1q-1 0 -1 0.5v0.5l-3 -1q-1 -1 -5 -1q-3 0 -8 3t-9 3q-10 0 -14 1q-12 5 -20 12q-3 2 -6.5 5.5t-7.5 6.5l-3 3q-2 0 -2 3q-2 4 -8.5 11t-8.5 12l-2 2l-1 2q-1 0 -1 0.5v0.5v0l-4 8q-5 13 -10 22q-4 7 -10 23q-2 4 -4 16l-1 18q0 8 -1 11q-1 1 -1 4q1 5 1.5 16
t3.5 17q1 5 3.5 13.5t3.5 13.5q0 2 1 4t1 4q3 10 11 18q4 4 6 11q1 6 6 12q13 11 18 21q7 3 9 7l4 2q4 -1 9 6q2 3 0 6q-2 2 1 5q2 3 6 3q4 1 7 4q-1 -1 11 14q5 6 11 6q5 1 8 6t9 7q4 1 9.5 3.5t9.5 3.5q6 1 10 3t7 3q2 2 5 1h3q4 0 11.5 2t10.5 2q15 0 30 -6l8 -6
q4 -2 8.5 -6t7.5 -5l4 -4l5 -7q6 -6 9 -13q6 -14 6 -23l1 -10q2 -10 2 -14q0 -21 -10 -44q-6 -14 -17 -27l-19 -21l-9 -10q-15 -12 -24 -22q-1 -2 -3 -3t-3 -2l-24 -14q-3 -2 -6.5 -3t-6.5 -2q-15 -5 -27 -5q-9 0 -18 3q-1 0 -3.5 0.5t-5.5 2.5q-8 5 -12 10l-12 11
q-3 0 -3 5q-1 3 -8 8q-5 0 -5 -2q-4 -6 -5 -9q-6 -27 -5 -52q2 -9 7 -16q16 -22 41 -25h11q13 0 19 2l43 10l2 1q4 3 14 6.5t14 7.5l8 3q5 2 8 -4q2 -4 4 -5l1 3q1 2 3.5 3t4.5 0l4 -4q3 -3 6 -1q2 0 3 1v0l2 4l-2 2q-2 2 0 2h1l3 -3q2 -2 2 -3h1q4 3 4 11h1v2q0 1 1 1h0.5
t0.5 -1v-2v-1q1 -1 1 -2.5t1 -2.5q0 -1 2 -1v0h0.5t0.5 1v6v0.5t1 0.5v1q0 1 1 1h0.5t0.5 -1v-1v-1v-6l-3 -3v0h-1l-1 -6v-2q0 -6 7 -7h1l1 1v0l-1 4v0v0q-1 0 -1 1q-1 0 -0.5 0.5l0.5 0.5l1.5 0.5t2.5 -0.5v-0.5t1 -0.5v-1q2 -2 -2 -6q-2 -2 -4 -2h-1v0h-4q-3 0 -3 1
q-1 2 -4 5t-4 7l-1 2v0h-3v-0.5t-1 -0.5q2 -11 6 -15q1 -3 -1 -5l-7 -8q-1 -1 -1 -2.5t1 -2.5t1.5 -0.5t1.5 0.5q2 0 2 -2t-5 -7q-3 -4 -8 -4q-5 -2 -6 -5q-2 -7 -9 -6l-5 -2l-6 -8q-1 -3 -5 -3q-11 0 -17 -1q-4 -2 -6 -1q-1 1 -4 1t-7 -2.5t-7 -3.5l-2 -7v-1l-1 -1h-1v1
q-1 0 -1 0.5v0.5q-3 4 -4 4t-4 -3v-1l-1 1h1q-6 -4 -14 -6v-1q-2 -2 -3 -2l-2 -1v1zM103 369q0 1 0.5 1t0.5 -1h-1zM104 369h0.5t0.5 -1h-1v1zM114 256q8 0 12 1q26 8 37 15q8 5 10 6q6 3 15 10t17 11l3 3q1 4 5.5 8.5l6.5 6.5l11 15q1 1 0.5 2.5t-2.5 2.5q-1 1 -3 1t-3 1
q-15 -1 -23.5 -3t-20.5 -8l-9 -4q-13 -7 -23 -15q-5 -4 -30 -29q-9 -9 -13 -17q-1 -2 -0.5 -4t2.5 -3h8zM144 182l-1 3q-2 -2 -2 -3l2 -4zM298 154q-1 2 0 3q1 4 1.5 8.5t-0.5 7.5h1h-1q-1 0 -1 1q-1 0 -0.5 0.5l0.5 0.5q2 2 5 -2l1 -2v-1l-1 -2l1 -1l-1 -2q0 -2 1 -3
q0 -2 -1 -3l-2 -4q0 -1 -2 -1v-1v0q-1 0 -1 1zM290 134q-1 0 -1 0.5t1 0.5v0v0v0.5t1 0.5l2 2v6v0v0.5t1 0.5v1q0 1 1 1h0.5t0.5 -1v-0.5t-1 -0.5q0 -2 1 -3v-1q0 -4 -5 -7v-1v0q-1 0 -1 1zM237 128v-1h0.5t0.5 -1q0 2 -1 2zM51 102h-0.5t-0.5 1l-1 -2v0zM165 47v0h1h-1z
M148 42l-2 1l-1 -2q3 0 3 1z" />
    <glyph glyph-name="f" unicode="f" horiz-adv-x="270" 
d="M154 -107l-19 6q-2 4 -6.5 6t-6.5 3l-6 4q-3 2 -6.5 3.5t-7.5 4.5q-2 1 -10 9q-6 4 -9 11l-2 4q-6 6 -12.5 16t-10.5 16l-9 15l-3 8q0 4 -1 5q-3 6 -5.5 15t-3.5 14q-1 3 -1 10l-2 16q-1 2 -5 6l-2 1q-3 2 -8 3.5t-11 5.5q-6 3 -13 9t-11 9q-14 9 -20 24q-3 5 -7 15l-2 8
q-5 8 -8 21.5t-6 21.5v1q0 2 1.5 4.5t2.5 2.5q8 2 12 2l6 -1q10 -2 13 -4q3 -1 4.5 -5t3.5 -6l4 -4q3 -3 3 -7v-2q0 -6 6 -12q16 -13 38 -10q5 0 7 6l4 19q2 14 4 22l1 4v1q0 6 4 18q0 8 4 21.5t4 19.5q3 6 4.5 14.5t2.5 12.5l1 4v0v0.5t-1 0.5q-2 2 -1 3l3 3l1 1v0
q2 4 4.5 7t4.5 7t2 6q0 9 1 13q1 2 3 6.5t2 8.5t2.5 9t3.5 9q1 6 9 16q1 1 -2 4q-2 0 -2 2q-1 3 0 3q0 1 0.5 1h0.5q1 0 1 -0.5v-0.5q0 -1 -0.5 -1h-0.5q2 0 3 -1q5 0 5 4q1 2 1 6v1q0 4 -1 7l-2 6v2q0 5 4 8l5 4q3 2 0 5q-5 3 -5 7t5 16q1 2 5 2h1q-4 8 -2 13l1 8
q6 16 7 27l3 9q8 15 16 47q2 11 8 31l15 48q9 31 10 56q0 3 1 4q0 2 3 3.5t4 0.5q4 -3 6 -6q8 -8 12 -9l4 -2q5 -6 14 -14t14 -15q4 -6 6 -14q2 -5 0 -8q-7 -19 -14.5 -45t-10.5 -37q-3 -5 -4 -12.5t-3 -12.5q-5 -21 -6 -23q-6 -16 -9 -35q-5 -21 -12 -42q-2 -7 -7 -28
l-6 -22q-5 -16 -10 -43q-1 -1 -1 -2.5t-1 -2.5q-4 -7 -6 -21q-2 -8 -2 -12l-6 -23q-1 -10 -5 -21q-2 -5 -7 -23q0 -2 -1 -9.5t-4 -13.5v-3q0 -4 -1.5 -9t-1.5 -10q0 -2 1.5 -3.5t3.5 -1.5h3l9 1q5 1 7 2t4 4q4 4 7 4q4 1 8.5 2.5t8.5 1.5q4 1 8 3t7 2q4 0 10 6q4 4 20 16
q6 3 11 -3l1 -3l2 -2q2 0 3.5 1.5t1.5 3.5l-2 4v0.5t-1 0.5q-1 7 4 11q3 1 8.5 4t8.5 6l3 -1l3 -3q3 0 3 2q-4 7 3 10q1 0 1.5 1t1.5 1q5 4 7 -2l2 -6q0 -1 1 -0.5t2 1.5q2 5 10 3q5 0 2 -6v0q0 -1 2 -1q0 -1 1 -1h1h2h0.5t0.5 -1l-1 -1h-2q-4 0 -6 3h-2v-2q0 -9 -8 -17
l-6 -7q-3 -6 -10 -4q-3 2 -3 -4v-6q3 -6 -2 -9l-3 -4l-2 -2h-1q-3 -3 -9 -7q-9 -7 -16 -6q-1 1 -2 1t-2 -1q-6 -2 -8 -8q0 -7 -5 -10q-5 -5 -26 -19q-4 -3 -8.5 -6.5t-10.5 -8.5q-19 -17 -41 -26q-8 -3 -13 -7q-6 -3 -8 -11q-1 -8 -1 -24q0 -2 0.5 -5t-0.5 -7q-3 -7 -3 -17
q0 -6 2 -16q-1 -2 -1 -5q0 -4 1.5 -8.5t2.5 -8.5q0 -3 5 -10q10 -10 15 -13q9 -4 16.5 -12t9.5 -10q3 -2 1 -7q-1 -4 4 -6q2 -1 6 -5l4 -17q-1 -1 -1 -4t4 -9v-1q-1 -3 -3 -1q-9 6 -19 6zM137 492l-1 -1h1v1zM137 479l-4 3q-1 0 -1 -0.5v-0.5q-1 -2 0.5 -3t2.5 0zM132 463
q2 1 2 5q0 2 -2 2h-0.5t-0.5 -1q-4 -3 -4 -8zM126 461v-0.5t-1 -0.5v-1q1 0 1 2zM125 446q1 1 0 1q0 2 -2 2q-1 -1 -0.5 -2t1.5 -1h1zM104 392q-1 1 -0.5 1.5t1.5 0.5q3 0 1 -3l-1 -1zM73 288h-0.5t-0.5 1l-2 -2v0q1 0 1 -0.5v-0.5v0q1 0 1 -0.5v-0.5q1 1 1 3zM327 274h-1
h-1l-1 2v1v2q0 1 1 1h0.5t0.5 -1v0q2 -2 2 -3h1h0.5t0.5 -1t-0.5 -1h-0.5h-2zM324 247v8q0 1 1 1h0.5t0.5 -1v-8q0 -1 -0.5 -1h-0.5q-1 0 -1 1zM291 252l1 2h1v-2v-0.5t-1 -0.5zM293 240l-1 -1q0 -2 3 -2q0 1 -2 3zM273 219q1 3 -1 4h-0.5t-0.5 -1l-2 -1v-2l1 -1q3 0 3 1z
M262 186v4v0.5t-1 0.5q-2 0 -2 -2l3 -4v1zM241 179h-1l1 -1v1zM235 169v0v0v0zM230 169h1v0v0h-1zM228 158v2v0q2 2 3 2q-2 4 0 7h4q0 -4 -1 -5l-4 -6h-1v0h-1z" />
    <glyph glyph-name="g" unicode="g" horiz-adv-x="330" 
d="M179 -235.5q-8 4.5 -12 7.5q-1 2 -1 6v12q0 9 -4 20l-3 9v2q0 6 11 15h-2q-14 0 -14 10q0 11 2 35v30l3 3q2 2 3 -1q1 -1 1 -3q-2 -6 -1 -9q3 -8 0 -14l-2 -11v-4q0 -8 4 -12v0.5t1 0.5q0 3 1 5q2 28 2 42q0 8 -1 12q0 2 -1 3q0 1 -2 1q-2 1 -1 4.5t1 5.5q0 3 2 11
q0 9 3 12v-7v-2q0 -2 1 -2l2 -5q2 12 2 18v5q-2 0 -6.5 -1.5t-6.5 -1.5v2q0 3 1 5l2 4v5.5t1 5.5l2 1q1 0 1 -0.5v-0.5l1 -5l5 5q1 2 1 7l-1 11q-1 1 -1 4q-2 2 -2 4q-1 4 2 9q5 9 2 14l3 11l5 15q4 9 8 27l8 31q10 43 20 69q2 4 -1 5q-3 0 -4 -1q-23 -23 -41 -45
q-19 -21 -47 -43q-21 -15 -46 -24q-15 -5 -27 -5q-11 0 -17 2q-15 3 -22 18q-3 7 -8 9q-6 3 -9.5 9t-4.5 7q-7 8 -9 16.5t-3 24.5q-1 3 3 7q0 1 1 0.5t2 -0.5l1 -2v-3v-5.5t5 -4.5q3 0 3.5 5t0.5 7q10 40 24 66q6 11 22 33l22 33q18 24 39 45l7 8q16 21 37 31q8 4 29 18
q20 12 40 12q18 0 34 -9q12 -4 15 -4q4 0 10 2q14 4 23 4q12 0 17.5 -3t7.5 -12q1 -6 1 -15q0 -15 -6 -43q-5 -24 -17 -74q-9 -39 -30 -106l-11 -38q-22 -74 -32 -148q-6 -33 -10 -101l-1 -26q-2 -14 -2 -20q0 -7 1 -10q1 -4 -4 -6q-3 0 -5 3q0 2 -2 6q0 1 -1 1.5t-2 -0.5
q-1 0 -2 -1.5t0 -2.5q0 -6 5 -10q7 -4 7.5 -6t-1.5 -9q0 -2 -2 -6q-3 -5 -11 -12.5t-9 -5.5q-2 4 -10 8.5zM73 145q21 10 44 32l43 40q4 4 7 -2q5 -10 9 -3q4 8 13 15q10 7 15 16q4 8 12 11q1 0 4.5 2t4.5 6q4 10 13 45q3 17 7 29q0 5 -5 5q-9 0 -21 -7q-17 -8 -39 -27
q-4 -3 -25 -24l-14 -15q-20 -19 -44 -52q-8 -11 -18.5 -27t-16.5 -26q-2 -3 -3.5 -6.5t-4.5 -7.5q-2 -5 1 -7q1 -2 4 -2q4 0 14 5zM159 199.5v0.5q-2 2 -2 -1h1q1 0 1 0.5zM197.5 -159h0.5l-1 2v-3q0 1 0.5 1zM202 -253q-1 0 -1 1q0 2 1 3q0 1 2 1q1 0 5.5 2.5t8.5 -0.5
l1 -2q-3 -6 -15 -6q-1 1 -2 1zM179 -244h1l-1 -2v2z" />
    <glyph glyph-name="h" unicode="h" horiz-adv-x="337" 
d="M41.5 1q-11.5 5 -18.5 14q0 2 -3 2q-4 4 -4 6v8q3 6 3 17q0 6 1 15t0 16q0 3 2 7q1 4 0 8l-3 10l1 3q0 1 0.5 1h0.5l3 3v0.5t1 0.5v0q1 2 1 6t-3 7q-2 2 -1.5 3.5t3.5 2.5q2 0 2 2l-2 4q-5 3 -4 8l10 69l2 9q6 12 6 31l2 10q2 5 4 15q1 4 2 9t2 9t1.5 8t1.5 8q1 5 2.5 11
t2.5 12q1 11 7 35q1 3 2.5 8t0.5 9q-2 3 1 6q4 8 4 20q3 8 6 21t6 23l8 31q2 12 4 17q5 12 14 46q1 6 3 14t3 19q2 6 4 15.5t4 15.5q4 17 4 40v6q0 1 2 2t3 1q3 0 4 -1q8 -3 11 -5q10 -6 15 -12q13 -10 21 -27q8 -18 6 -28q1 -3 1 -8q0 -8 -2.5 -18t-3.5 -15q-5 -7 -5 -19
q-1 -2 -2.5 -5.5t-0.5 -6.5q-3 -5 -4 -6t-2.5 -2t-0.5 -2q2 -8 2 -10q0 -8 -5 -20q-1 -3 -3 -9.5t-3 -11.5q0 -1 -3 -13l-5 -13q-6 -15 -9 -31q-6 -29 -15 -57q-2 -6 -3.5 -11.5t-3.5 -11.5q-1 -6 -4.5 -17t-4.5 -20q-1 -3 -0.5 -5t0.5 -4q0 -3 -5 -13q-4 -14 -4 -22
q-1 -4 2 -5.5t7 -0.5l2 2q-1 1 -3 1q-3 2 -4 5t1 5t4.5 4t5.5 5q1 2 2 6t3 6l3 4q2 1 6 1q6 2 6 7q-1 0 -6 5q-1 1 -0.5 2.5t2.5 2.5l13 3q2 0 2 2t-2 4.5t-3 3.5q-2 3 2 5q9 2 9 8q0 3 2 3q10 7 18 9q4 0 6 -1q5 -2 15 -4q2 0 8 -2q13 -8 22.5 -15t19.5 -17q1 -2 7 -8.5
t9 -14.5q1 0 1 -2q3 -3 7 -13q3 -10 9 -43q0 -12 2 -17q1 -3 1 -10v-23q0 -10 1 -15q-1 -5 -1 -15q0 -7 1 -11v-5q0 -8 -5 -16q-2 -2 1 -3h2h2l1 1q-1 1 -0.5 1h0.5q1 1 1 0.5v-0.5q2 -2 0 -2q3 -1 3 -4q1 -2 1 -8t-1 -9q0 -2 -2 -2q-3 0 -5.5 1.5t-4.5 2.5q-3 2 -8 0h-2
q-5 0 -7 8q0 5 -1 7l-9 18q-5 12 -5 22q-1 1 -0.5 2.5t-0.5 2.5q-4 10 -4 21.5v14.5v8q0 1 -0.5 3.5t-2.5 5.5q-3 6 -4 13.5t-1 9.5q0 13 -4 22v5q-1 6 -3 4t-2 -3t-1 -2.5t-3 0.5t-2 3v3.5t-1 3.5l-6 9q-3 3 -9 1q-1 -1 -3 -2t-3 -3q-3 -4 -9 -9.5t-8 -10.5q-7 -3 -8 -10
q-2 -3 -4.5 -9t-7.5 -9q-1 0 -1 -0.5v-0.5v-3q0 -4 -6 -12q-1 -2 -3 -4t-4 -5q-4 -4 -4 -7q-1 -7 -6 -17q-6 -18 -10 -27l-11 -28q-3 -7 -5 -13.5t-5 -12.5q-2 -8 -4 -11l-2 -7q1 1 1 0.5v-0.5q1 -1 0.5 -1h-0.5l-1 -1h-1l-2 -2q-2 -2 -2 -5q-6 -16 -7 -25q-3 -9 -9 -13
q-3 -3 -2 -7v-1v-1q1 -1 0.5 -1h-0.5l-1 -1h-1l-6 -3q-5 -3 -10 -1q-3 2 -14.5 7zM170 308h-1l1 -1v1zM141 282v1l-1 -1h1zM174 269q1 2 1 6q1 2 -2 5q-4 0 -5 -2q3 -1 3 -4l-1 -4q-1 -3 1 -3q3 0 3 2zM126 274q0 1 0.5 1t0.5 -1h-1zM127 274h1l-1 -1v0v1zM263 263l-1 2
q-1 0 -1 -1q-1 -1 -0.5 -1.5t1.5 0.5h1zM191 264q-1 0 -1 0.5v0.5l-2 -1q0 -1 0.5 -1.5t1.5 0.5zM158 262v2l-1 -2q-1 -1 -0.5 -1.5t1.5 -0.5v2zM222 252h-1l1 -1v1zM116 239v-1q1 1 0 1zM102 228q-4 1 -8 0v-0.5t1 -0.5q3 -3 8 -1zM106 223l-2 2v-3q0 -3 2 -1v2zM110 212
h-1v-1zM133 179l-1 1l-0.5 0.5t-0.5 -0.5q-1 0 -1 -0.5t1 -0.5h2zM127 171h-1q0 -1 1 -1v1zM128 169v-1h1zM28 108l-1 1h-3v0q0 -2 2 -2q2 -2 2 1z" />
    <glyph glyph-name="i" unicode="i" horiz-adv-x="152" 
d="M123 485q-5 3 -6 4q-3 3 -9 5q-3 1 -3.5 4t2.5 5l5 3q0 5 -1 8.5t-2 6.5l1 6q2 3 4 3q4 2 4 5q0 2 2 3q3 1 9 1t8 1t4.5 0t3.5 -1l10 -2q4 -2 6.5 -6.5t0.5 -8.5q-5 -14 -12 -22l-9 -11q-2 -3 -8 -5t-10 1zM113 505v-1h1q0 1 -1 1zM70 11q-1 0 -1 1v1v1v0q-1 2 -4.5 4
t-4.5 4q-1 1 -2.5 1h-2.5q-4 -2 -5 1q-3 5 -7.5 9.5t-7.5 9.5q-2 4 -4 5q-3 1 -5.5 5.5t-4.5 6.5q-1 2 -1.5 5.5t-2.5 4.5q-4 3 -6 12l-2 12l-1 13l1 11q1 2 5 2q2 0 2 -1q3 0 3 2v3q-1 1 -4 3.5t-3 5.5v6q0 5 3 11l3 1l1 -1l1 -4v-4l2 -2h0.5t0.5 1q2 10 4 15q0 2 -2 2
q-8 0 -8 5v5v1v1h1v0l3 11v0v0v2v1l1 1q1 0 1 -0.5v-0.5v-1l1 -1q0 -4 1 -6q2 -2 3 -1q1 0 1.5 0.5t-0.5 1.5q0 5 1 7q6 12 6 25q0 2 -2 2l-2 -1q0 -3 -1 -5v-1v-1l-3 -3q2 -3 0 -8h-1v0q0 -1 -1 -1v0h-1v1v1v0v4q0 5 3 6v11q2 6 4 11l4 9h0.5t0.5 1v1l0.5 0.5t1.5 -0.5v-1
h2q2 0 3 2t0 3q0 2 -1 3q-4 7 1 11q3 2 3 5q2 2 0 4q0 1 -2 1q-1 0 -2.5 0.5t-0.5 1.5q1 2 2 4.5t1 5.5t2 6.5t3 6.5v13l2 8l8 39q5 20 16 76l2 1h3l4 -5q2 -5 5 -6q9 -1 14 -10q13 -19 19 -33q2 -4 2 -7l3 -22v-8q0 -14 -3 -28q-10 -42 -14 -64l-4 -22q-2 -10 -4 -15
q-5 -10 -5 -13q0 -4 -1 -7t-1 -6q-1 -6 -2.5 -11.5t-2.5 -10.5q0 -1 -3 -7q-4 -7 -4 -15l-3 -10q-8 -20 -11 -30q-2 -2 0 -7l3 -5q8 -8 8 -20q0 -26 -10 -47v0v-2v-2v-1q0 -1 -1 -1v0zM26 167q0 1 -0.5 1h-0.5q-2 1 -2 -1h2h1zM68 28v2q0 7 -6 4q-4 -3 -2 -4l4 -5q2 0 2 -1z
" />
    <glyph glyph-name="j" unicode="j" horiz-adv-x="163" 
d="M144 522q-7 0 -10 3q-3 4 -12 6l-2 3q0 4 3 5q6 0 8 1l3 3q1 1 -2 3q-2 0 -4 3l-3 12q-1 2 2 5l5 3q2 2 2 4q0 4 2 4h1l8 -1q3 0 5.5 1t4.5 1q4 0 6 -1q3 0 9 -2q4 -1 6 -4t3 -7v-4l-6 -12q-3 -6 -7 -10q-5 -2 -7 -9q-3 -7 -14 -7h-1zM143 552l-1 1v-1h1zM28 -219
q-2 2 -3 2.5t-2 -0.5l-2 -1q-2 -1 -3.5 -1t-1.5 1l-5 10q-2 2 -3 2l-2 8q-1 2 0 5q3 5 -1 7q-4 4 -6 13q0 2 -2 2h-2.5t-1.5 2q-2 18 -1 27l-2 1q-2 1 -2.5 5.5t-1.5 6.5q-2 1 1 4l3 9q0 1 -2 2t-2 3t1 4.5t1 4.5v10l2 6q2 5 0 11q1 2 0.5 4t-0.5 3q-1 1 0.5 3t1.5 3v8v12
q0 9 3 13q-1 1 -1 3q0 3 1 6t1 6v2q0 8 4 26l3 13q0 8 1 12l6 32q0 3 1 9t2 10q3 11 3 20l2.5 12.5t1.5 12.5t5 15q2 6 0 12q-2 5 0 10q3 5 3 10q0 7 4 21q1 5 3.5 18t6.5 22q1 3 1 10t2 15.5t3 11.5l3 8q4 8 4 19q0 9 3 18q2 4 3 10.5t2 10.5q2 10 4 15q1 5 2 11t2 11
q5 10 5 21q0 2 2.5 7t1.5 8q1 1 2 3t3 3q6 4 10 4q3 0 9 -4q4 -5 9 -8q9 -3 14 -13q2 -4 8 -12q6 -10 6 -18v-5q0 -11 -2 -17q-1 -1 -1 -3t0.5 -6t-1.5 -6q-2 -6 -4 -18l-3 -15l-2 -8l-2 -8l-8 -39l-6 -21q-4 -11 -5 -19q-1 -4 -1.5 -10t-2.5 -10t-4 -19q-2 -10 -4 -15
l-13 -42l-2 -8q0 -6 -1 -8q-3 -3 -3.5 -8.5t-1.5 -8.5q-3 -9 -7 -27q-1 -6 -5 -23q-1 -1 -1 -4v-2q0 -6 -3 -13t-4 -10l-2 -7v-7.5t-2 -10.5q2 -6 -1 -11q-4 -8 -4 -11l-4 -14q-1 -3 -0.5 -5.5t-0.5 -5.5q0 -10 -2 -14l-1 -2l-1 -12q0 -3 -2 -6t-1 -5v-2q0 -6 -2.5 -14.5
t-3.5 -15.5q0 -2 -1 -3q-2 -10 -2 -17q0 -8 2 -22t2 -21q1 -3 2.5 -7t0.5 -7v-0.5t-1 -0.5zM-6 -140v0.5t-1 0.5v-2zM8 -206v0v0v0v0zM7 -206h1l-2 -2zM29 -246.5q0 1.5 1 2.5q7 5 8 5h2q3 0 3 -4l-2 -4q-5 -5 -10 -2q-2 1 -2 2.5z" />
    <glyph glyph-name="k" unicode="k" horiz-adv-x="329" 
d="M65 -26l-20 6q-7 2 -13 10q0 2 2 3q3 2 1 5q-2 6 -1 9q2 5 -1 7l-2 2q-5 5 -4 10l1 4q0 4 -5 9q-1 1 -1 5v9q0 14 -2 21q-1 3 -1 10q0 8 3 15q3 8 1 16q-2 7 -2 22q1 4 0.5 7.5t-0.5 6.5v3q0 15 3 28q5 30 7 37l1 4q-1 3 -1 7q0 5 5 20q4 18 4 26q0 7 3 16l9 37v1
q3 20 3 22q1 5 3 10.5t3 10.5q0 6 4 9l1 2q0 9 1 14q2 7 4 18t4 18q1 3 2 8.5t3 8.5v4q0 21 4 34q4 12 5 19q2 11 4.5 19t4.5 14q6 20 8 30q3 10 7 30q6 20 8 35l7 27q1 8 1 24q0 4 1 5q0 2 1.5 3t3.5 1q4 0 11 -7q4 -4 12 -10q11 -7 27 -27q5 -7 3 -18l-17 -74l-3.5 -17.5
t-6.5 -20.5q0 -3 -1 -10.5t-3 -13.5q-1 -11 -5 -26t-6 -22l-6 -25l-12 -49q-8 -40 -13 -60l-6 -24l-7 -22q-1 -6 -5 -18q-1 -4 0 -9q0 -1 2 -3h2l17 22q16 21 17 23q4 7 10.5 15t9.5 12q2 2 4 5.5t5 4.5q2 1 2.5 5t1.5 5q8 10 14 20l13 20q18 28 29 40l17 24q4 6 9.5 14.5
t12.5 19.5l18 34q4 9 5 17l3 14q2 2 5 1q10 -8 12 -14q4 -11 10 -14q2 -1 4 -5q1 -4 4.5 -9.5t5.5 -7.5q6 -7 9 -17q3 -5 1 -12q-6 -20 -12 -29l-15 -26q-1 -1 -4 -7q-10 -10 -24 -34l-17 -22q-9 -12 -25 -36l-18 -25q-5 -8 -17 -24l-27 -37l-16 -21q-13 -18 -26 -40
q-1 0 -1 -2q0 -3 2 -3q9 0 29 9q41 15 71 31q13 5 16 7q8 3 14 1q3 -1 7 1q1 1 4 3t5 1q3 -1 8.5 -2.5t8.5 -3.5l2 -2h2h0.5t0.5 -1l-1 -1h-2l-3 -1l-4 -1q-2 0 -2 -1l1 -2q4 -3 12 -1q1 1 2 0t0 -2q-1 -2 -2 -5t-4 -7q-4 -6 -4 -11q0 -2 -3 -5l-11 -5l-8 -6q-8 -12 -24 -17
q-3 -1 -7 -7q-2 -4 -5 -6q-3 0 -3 -2q0 -1 1 -1t2 -1l2 -1h2h0.5t0.5 -1l-1 -1h-2h-1q-4 -1 -8 -5q-3 -4 -8 -2t-7 -1q-3 -6 -15 -12q-5 -1 -8.5 -3t-6.5 -3q-6 -2 -9 -4q-6 -3 -14 -3q-10 -2 -11 -3l-14 -3q-3 -1 -5.5 -0.5t-4.5 0.5q-4 2 -9 0l-4 -1l-4 1q-2 0 -7 1t-9 3
q-18 8 -27 16q-4 2 -5 -3l-3 -11q0 -2 -2 -8l-3 -12v-9h1l-2 -14q-1 -9 0 -16q0 -4 2 -14q0 -5 4 -8q8 -3 8 -10l1 -8q1 -2 -0.5 -3.5t-2.5 -0.5h-6zM175 328l-1 -1l1 -1v2zM160 306q3 0 1 2h-2l-1 -2h2z" />
    <glyph glyph-name="l" unicode="l" horiz-adv-x="137" 
d="M40 -9v1v1q-1 0 -1.5 1t-1.5 1q-2 0 -5 1t-4 2l-11 12l-1 4q2 5 1.5 10.5t-0.5 7.5q0 4 -3 7q-7 7 -7 18v9q0 6 -2 9v2q3 7 1 17v4q0 7 2 10l1 2q0 11 4 35v7q0 11 3 20q1 1 1 4q-1 2 -1 5q0 4 1 7t2 5l3 12t2 14q2 9 3.5 17.5t3.5 17.5l15 62q1 7 4.5 20t4.5 23
q2 18 10 34q2 6 1 10l-1 5q0 5 3.5 14.5t3.5 14.5q0 4 1 7t2 5q9 27 20 73q2 12 5 17q6 11 6 21q1 10 5 23q2 5 7 23q1 5 3.5 11t2.5 10l9 31q1 7 5 21q2 4 6 6.5t8 2.5q5 0 8 -3q9 -8 17 -17q1 0 3 -5l8 -16q3 -6 4.5 -11.5t1.5 -13.5v-4q0 -6 -3 -11q0 -10 -5 -22
q-2 -7 -4 -21q-2 -8 -4 -12q-3 -10 -6.5 -23.5t-5.5 -20.5q-6 -22 -10 -32q-8 -25 -10 -35l-6 -23q-4 -18 -12 -36q-3 -6 -6 -16.5t-6 -19.5l-2 -7q0 -5 -1 -6q-5 -8 -7 -21q-3 -6 -6 -18t-5 -18q-4 -14 -5 -21q0 -5 -5 -15q-6 -16 -6 -25q-1 -4 -2.5 -10.5t-1.5 -11.5
q-1 -1 -1 -2t-1 -1q-3 -4 -4 -10.5t-3 -10.5q-1 -5 -2 -9.5t-2 -9.5q-1 -6 -3.5 -17t-5.5 -18l-1 -4q0 -6 -2.5 -14t-3.5 -13l-6 -29l-1 -4l1 -18v-3q0 -17 2 -25q1 -3 1 -10l-1 -2v-1v-1q0 -1 -0.5 -1h-0.5q-1 0 -1 1zM40 -36q-2 4 1 7q2 2 7 2q1 0 2 -1.5t0 -2.5
q0 -4 -3 -7q-3 -2 -7 2z" />
    <glyph glyph-name="m" unicode="m" horiz-adv-x="572" 
d="M541 -10q-10 -4 -14 -4h-3q-5 0 -8 -2q-1 -1 -3 -1q-6 0 -15.5 5.5t-14.5 5.5q-10 6 -13 9l-11 12q-11 10 -20 29q-4 10 -6 21q0 2 1 2h1l5 -6l4 -4h2l1 1q-1 2 -1 7q0 2 0.5 6.5t-1.5 8.5v5q0 8 -2 12v4q2 5 1.5 11t-0.5 9q0 12 3 24q4 16 4 25q2 20 5 32q2 7 0 13
q0 6 3 12q1 2 1 7q0 6 -4 11l-3 -4l-2 -1v0q0 -1 -1 -1h-1v2l-2 16q0 2 -2 2l-2 -1l-7 -7q-15 -20 -43 -60q-22 -30 -32 -45q-3 -4 -8 -9.5t-7 -9.5q-23 -31 -33 -43l-15 -21q-4 -7 -14 -10q-1 0 -4.5 -1t-6.5 2q-3 4 -8 6q-5 1 -9 -3l-7 -9q-3 -3 -8 -3.5t-9 2.5l-9 8
q-1 2 0 3l3 5q3 3 3 6v5q0 7 -2 10q-1 3 -2 8t-6 7l2 3q1 1 1 3q1 0 0.5 0.5t-1.5 0.5q-5 7 -5 13q0 8 2.5 19t3.5 16q7 37 12 59v10q-1 2 -3 2q-6 -2 -12 -10l-5 -9l-15 -18l-24 -27q-7 -7 -12.5 -14.5t-12.5 -14.5l-1 -2q-4 -7 -27 -34q-9 -9 -21 -25q-17 -22 -41 -34
q-1 0 -2 -0.5t-2 0.5l-21 15q-4 6 -9.5 12.5t-10.5 15.5l-6 14v4q0 7 4 19q2 2 0.5 4t-1.5 3q-1 2 -1 6v14v5q0 10 2 14q1 3 1 9q0 4 1 7.5t1 7.5q0 8 3 15q2 4 2 6q0 13 7 29l2 8v3q5 6 7.5 15.5t4.5 14.5q7 13 12 29q4 10 10 30q1 3 5 14l3 7l10 30q3 11 7 20t7 17
q5 12 5 19q0 3 1 4.5t2 3.5q4 2 6 2q3 0 7 -2l6 -3q4 -6 12 -8.5t10 -3.5q6 -4 7 -7q1 -8 10 -24q6 -10 2 -17q-2 -8 -1 -12q1 -1 0.5 -2.5t-0.5 -2.5q-2 -6 -4 -10q-4 -6 -10 -30q-18 -52 -22 -62q-24 -63 -38 -90v-4q0 -2 1 -3t2 -1q3 0 4 1q26 40 52 66q4 2 6 7
q6 12 19 15q2 0 4.5 -1.5t3.5 -1.5v3q0 5 3 8l3 3v0.5t1 0.5v0l3 4l22 26q6 6 15 12.5t15 10.5l5 1q5 0 12 -1.5t12 -2.5q5 -2 7 -5q8 -10 9 -13.5t3 -7.5l3 -14q2 -6 2 -10q1 -5 2.5 -8.5t2.5 -8.5v-22v-4v-7q0 -7 2 -9q-1 -1 -0.5 -2.5l0.5 -1.5l2 -2h1q6 3 10 10
q4 6 11 14.5t10 14.5l4 4q10 8 20 19v2l2 1v-2v0q1 0 2 -0.5t2 0.5q1 0 3 2q3 1 4 4q2 2 6 6.5t6 9.5q2 3 6 7.5t6 7.5q3 8 13 13q2 0 4 4q1 4 4 9t5 8v0v0h-7v-1l-10 -10h-1v0q-1 0 -1 0.5t1 0.5l10 10q0 1 1 1q-2 4 1 5q4 4 8 4l1 -1q1 -2 1 -5l4 4q0 1 0.5 3t2.5 3l5 -2
q3 12 12 16q5 4 0 8q-3 3 0 4q8 3 8 10q0 4 5 6q5 3 9 3l20 -1q3 1 7 -3q13 -12 19 -32q5 -18 5 -34v-5v-7q0 -4 2 -12l-1 -6l-9 -52q-2 -10 -4 -14q-6 -18 -9 -37l-7 -37l-6 -31l-6 -30q-1 -5 -1 -15q-1 -17 2.5 -28.5t14.5 -27.5q11 -17 22 -24q2 0 2 -2q3 -6 11 -4
q1 1 1.5 0.5t1.5 -0.5q4 0 4 -4q2 -2 -2 -5zM375 289l1 1v0l1 1l-1 -2v0h-1zM375 288h-1q1 0 1 0.5v0.5v-1zM460 253l-1 2h-0.5t-0.5 -1q-1 -1 -1 -4v-4q4 4 3 7zM450 231v-1l-1 -2q-1 -9 -2 -10v-2q0 -1 -1 -1h-0.5t-0.5 1v4v10l2 3h4v-2h-1zM430.5 120h-0.5l-1 1q0 4 2 2
v-2q0 -1 -0.5 -1zM227 115h-1l-1 -2l1 -2l1 2v2zM430 99l-1 2q-1 1 1 3l2 -2zM434 79h-2h-1h-1v1q-1 1 -1 4v2v2l1 1q1 0 1 -0.5v-0.5v-2v-1l2 -4h1v-2zM223 73h-2l1 2z" />
    <glyph glyph-name="n" unicode="n" horiz-adv-x="359" 
d="M360 76l-2 -6l-1 -1v1q-2 -2 -4.5 -8t-5.5 -8v1l-1 -1q0 -7 -2 -10t-8 -5l1 1l-3 3l-8 2q-4 0 -6 -6q-3 -9 -9 -12q-3 -2 -7 2l-1 1l1 -1h-2q-6 0 -10.5 -3.5t-5.5 -4.5t-3.5 -1t-3.5 2q-3 5 -9.5 8t-9.5 6h1l-1 1l-19 11q-16 11 -23 27q-1 4 1 10h-2l1 1l1 -1l-1 1l5 -4
q2 -2 4 0l1 3q-9 25 -9 50q0 8 1.5 21.5l2.5 22.5q0 3 -2 3q-3 1 -5 -3l-2 -4t-1 -5q0 -7 -3 -9t-11 -4l-8 -12q-3 -3 -5 -3q-4 2 -6 2q-5 0 -2 -9q1 -3 -4 -3q-9 -2 -6 -10q-20 -30 -23 -36q-1 -4 -7 -8.5t-7 -8.5q-2 -7 -14 -17l-2 -3q-2 -3 -9 -5.5t-9 -5.5
q-4 -6 -15 -14q-3 -5 -9 -1l-24 18q0 5 -4 6.5t-5 2.5q-12 8 -18 16q-5 5 -5 13q0 1 1 2.5t-1 2.5q-8 4 -8 11q0 4 2 8.5t3 6.5l1 2l-1 -4v-2q0 -1 0.5 -1h0.5q2 2 0 3v4q1 1 1 3q1 31 3.5 44.5t12.5 56.5q2 9 4 13t8 9q6 4 0 6q-4 3 -4 5q0 3 4 11.5t4 13.5q0 6 -5 10
q2 4 2 5q0 2 -1 4.5t-1 5.5q0 5 3 6t7 -2q3 -1 7 -5q0 1 1 1h-2v2q0 3 -2.5 6.5t-3.5 4.5q-3 5 -3 9t5 11l-1 5q2 6 6 17t9 18q0 2 1 13.5t7 20.5q3 4 4 10t2 9q2 11 11 7q1 0 2.5 1t2.5 2v0h-1v2l1 -2l4 3l-4 2q1 2 -1.5 7t1.5 7h2q6 0 13 -9q2 -2 2 -5q1 -10 11 -10
q5 0 7 -6q2 -7 8 -13l9 -9q6 -7 6 -14q0 -2 -2 -10q-14 -26 -24 -66l-10 -33q0 -8 -3.5 -18t-5.5 -15q-2 -8 -3.5 -16.5t-3.5 -16.5q-2 -9 -4.5 -16.5t-4.5 -12.5l-7 -25l2 -4q2 -2 5 -1q7 5 14 15l51 70q1 1 2.5 4t4 3.5t6.5 -1.5q1 -1 2 0t1 2q0 3 4.5 8.5t4.5 9.5
q3 -2 5 0l8 9h-1v0h1q24 29 29 37q1 1 3 4.5t4.5 4.5t6.5 1h1q3 0 5.5 2t3.5 3q6 6 10 -2l5 -9v-1q8 -9 13.5 -21.5t7.5 -16.5q7 -20 5 -34q0 -6 -2 -9q-6 -6 -3 -15q1 -1 1 -3t-2 -6t-2 -6v-3q0 -14 -6 -42q-4 -16 -6 -35q0 -3 -4 -3q-2 -10 -2 -14q0 -8 1 -14.5t2 -11.5
q1 -8 11 -14.5t18 -6.5q12 0 32 10q18 7 29 7v0v0zM99 440q0 -1 -0.5 -1h-0.5v1h1h-1h1zM98 439v-2v1v1zM108 433.5q0 -0.5 1 -1.5h0.5t0.5 1l-1 1q-1 0 -1 -0.5zM95.5 412.5l0.5 -0.5h2q2 0 4 2.5t4 1.5q1 -1 2 -2.5t3 1.5q2 4 2 6q1 3 1 4t-4 0q-3 -1 -6.5 0t-4.5 0
q-1 -2 -2 -5.5t-1 -5.5q-1 -1 -0.5 -1.5zM76 372q-1 1 -1 2t-1 1q-3 0 -5 -2q3 -3 5 -2zM57 326q0 3 -2 5v-5l1 -3zM267 314v1v-1zM267 314v0v0zM215 283h-1v-2q0 -2 2 0zM198 274q-1 -1 -3 -1q-1 1 1 1q1 -1 2 0zM186 266v-1v1v0h-1v0h1zM185 265l1 1q0 -1 -1 -1zM199 262
q0 -1 0.5 -1h0.5v1l-1 1v-1zM155 214h-3v-2h3v2zM202 165h-3q-5 0 -3 -5l3 -3q2 2 2 3q3 3 1 5zM183 151l-1 1v-1h1zM258.5 116.5q2.5 -0.5 4.5 0.5q4 2 6 2l-6 2q-5 3 -6 0l-1 -1q0 -3 2.5 -3.5zM168 122v0v0v0v0v-1v1zM359.5 77.5q0.5 0.5 1.5 -0.5l-1 -1q-1 1 -0.5 1.5z
M358 70h-1v0h1zM338 40q-1 1 -1 3v-3h1zM336 39v0v0v0v0h-1h1zM335 39l-2 -2q0 2 2 2zM260 36zM297 22v-1h-1z" />
    <glyph glyph-name="o" unicode="o" horiz-adv-x="298" 
d="M108 25q-1 0 -4 1.5t-6 1.5q-5 0 -11 3q-1 1 -2 1.5l-3 1.5q-3 6 -10 9q-9 5 -14 14q-1 2 -5.5 5.5t-6.5 6.5t-11 15q-12 15 -11 14q-8 9 -11 21q-4 13 -7 26t-2 25q0 11 2 24t3 18q2 6 4 9q3 6 3 12v1q0 13 4 19q5 13 12 23q2 6 8 4q2 -1 3 0.5t0 2.5q0 1 -2 5
q1 3 3.5 8t5.5 7q8 6 9 13q5 8 11 26q2 6 4.5 11l4.5 9q2 3 5 5l2 4q0 8 3 11q6 6 7 11q0 2 1 3l2 2t3 2t3 3q3 6 13 12l6 5q8 8 25 12q6 2 10 2t10 -3q4 -2 7 -2t7 -3t8 -1l5 -3q2 -2 6.5 -7t9.5 -8q2 -3 5 -7t7 -9q3 -3 4.5 -6t3.5 -5q3 -3 3 -5q1 -3 3.5 -7t3.5 -7
q8 -16 9 -24q2 -9 4.5 -16.5t4.5 -12.5q2 -8 3 -16.5t3 -16.5v-7v-13q0 -8 -1 -12q-2 -7 -3.5 -16.5t-2.5 -14.5q0 -4 -4 -16q-10 -35 -22 -53q-7 -15 -15 -26q-2 -5 -8 -15q-5 -7 -26 -36l-16 -15l-10 -9q-14 -12 -27 -11q-1 0 -2.5 -1.5t-1.5 -2.5l-16 -3q-2 0 -3 1z
M85 101q8 0 15 3q14 6 25 16q14 14 30 37q10 11 18 26q19 27 28 51v1q0 3 2 4h1q0 4 2 8q5 5 4 11v4q6 13 6 34v35q0 5 -2 7l-4 9q-4 6 -12 6q-12 0 -25 -5q-17 -6 -30 -20q-2 -3 -9 -10t-10 -15q-5 -6 -11 -11q-10 -12 -10 -23l1 -14q0 -4 -1 -6q-3 -7 -6.5 -17.5
t-6.5 -16.5q-10 -19 -15 -43q0 -4 -1 -6q-3 -9 -3 -19l-1 -20q0 -6 2 -18q0 -2 2.5 -4.5t5.5 -2.5l4 -1h1zM231 263l-1 1q-2 0 -2 -1q0 -2 2 -2zM204 237v0v0h0.5t0.5 -1z" />
    <glyph glyph-name="p" unicode="p" horiz-adv-x="375" 
d="M345.5 263q-0.5 -1 0.5 -2q2 -4 -2 -8q-3 -4 -1 -10q2 -1 0 -3l-4 -9q-2 -3 -2 -8q0 -4 -3 -7l-5 -3q-1 -4 -11 -19q-1 -2 -4.5 -8t-9.5 -8q-1 0 -1 -0.5v-0.5q-2 -5 -7.5 -9.5t-8.5 -7.5q-2 -3 -7 -5l-18 -15l-1 -3q-4 -5 -9 -4q-1 1 -3 -1q-1 -5 -10 -12q-1 -1 -3 -0.5
t-3 -0.5q-5 -11 -15 -12q-2 0 -5 -3l-1 -2q-2 -3 -7 -1q-1 2 -3 0l-3 -3q-3 -9 -13 -11q-3 0 -7 -2.5t-7 -3.5q-9 -4 -15 0q-3 3 -5 -1l-3 -4q-2 -2 -2 -3q-1 -1 -1.5 -3.5t-1.5 -3.5t-2.5 -1t-2.5 1q-2 2 -2 5q-1 4 -6 4t-5 -5l-1 -2q0 -3 -2 -3l-10 -1q-1 0 -4 3l-8 1
l-4 4q0 2 -1 3q0 2 -0.5 2.5t-2.5 -0.5q-9 -4 -16 0l-2 5l-2 -4v-3q2 -2 2 -5q0 -4 -5 -7q-1 -2 -3 -4t-3 -4t-3 -6.5t-2 -9.5q0 -3 -1.5 -7.5l-2.5 -7.5q-2 -6 -2 -8v-2q0 -9 -3 -17q-1 -3 -3.5 -9.5t-1.5 -11.5q-4 -8 -4 -19q0 -5 -1.5 -10t-1.5 -10l-2 -20q0 -1 -3 -4v0
q0 -8 -7 -9q-3 0 -3 -1t1 -1.5t1 -2.5l3 -11q0 -2 -1 -5t0 -5l-3 -2q-1 -1 0 -3q8 -6 1 -13q-4 -2 -4 -6v-5q0 -3 -2 -11q2 -2 2.5 -5.5t1.5 -5.5q2 -5 2.5 -9t0.5 -6q2 -10 4 -16l2 -8l2 -4t1 -5q0 -6 1 -9q2 -5 0 -8q-4 -8 0 -15v-2v-2q0 -7 -6 -7q-5 0 -7.5 3t-0.5 8
q2 2 2 3q1 1 1 4q0 7 -4 8q-2 2 -4.5 3t-2.5 3q-1 4 -3.5 8t-3.5 7v0.5t1 0.5q1 2 0 5.5t-1 4.5q0 2 -2 3t-3 2l-4 5l-1 6q0 3 -1.5 7t-0.5 6l-6 13q-4 10 -4 14q0 6 -2 9q-2 5 -2 16v1v4q0 15 -3 22q0 3 -0.5 7t0.5 7q4 4 1 7q-2 6 -2 8q0 5 0.5 13t-0.5 19v4q4 10 4 16
q0 13 1 19q0 2 0.5 4.5t-0.5 6.5q-1 1 -0.5 2t0.5 2q2 8 4 24q1 5 2.5 10.5t2.5 10.5q1 2 1 8q0 3 0.5 8t3.5 9q1 2 1 6q0 7 1 11.5t2 8.5t3.5 13t2.5 16q3 3 3.5 10.5t1.5 10.5q2 3 2 11q1 6 6 8q2 0 2 3q0 4 -1 6l-1 4q0 5 5 8q1 2 3 3t3 2q3 1 1 5q-3 7 -2 13l3 12
q-2 4 2 11q1 4 2 8.5t2 8.5q3 8 3 16q1 1 1.5 3.5t1.5 3.5q5 7 5 13q0 12 7 29q4 12 5 19q0 7 6 23q3 6 5 21q2 10 4.5 17.5t4.5 12.5q1 6 6 1l4 -4q2 -2 2 -3v-2q0 -2 2.5 -7t1.5 -8q6 0 9 -6l4 -11l4 -4q10 -5 15 -19v-4q0 -6 -2.5 -13.5t-3.5 -12.5q-1 -4 -2 -11t-3 -11
q-1 -2 -1 -8v-5q0 -8 -3 -12v-4v-3q0 -13 -4 -24l1 -4q1 -1 1 1t1 3q2 2 6 4.5t5 6.5q0 2 4 4l10 7q3 3 9 3h7q-1 2 -3 3.5t-3 3.5q-1 1 -1 2.5t2 1.5q5 2 13 4q5 0 4 5l-1 2q0 1 -0.5 2.5t0.5 2.5q12 17 29 26q3 1 5 -2q0 -1 2 -3q4 -4 6 0q3 1 4 4v0q6 0 8 3q2 4 0 6l-4 3
q1 4 7 8q1 -2 3 -2t2 2h8q1 2 6 4q3 0 5 -2q1 -6 7 -3q8 -1 13 1l1 4q5 0 8 -3q2 -1 3.5 -0.5t3.5 3.5q4 1 10 -1l7 -3l1 3q2 4 1 5q-1 2 -3 3.5t-3 3.5q4 0 12 -4t9 -6q2 -4 10 -12q3 -5 7 -6q2 -1 4 -5q4 -12 4 -17q1 -4 3 -8.5t2 -7.5v1v-11t1 -12q3 -5 -1 -12
q0 -1 -0.5 -2zM94 397.5v-0.5l1 -2l1 2q1 1 1 3q-2 0 -2 -2q-1 0 -1 -0.5zM271 366l-4 6q0 3 1 4h2l3 -3l1 -3q0 -2 -3 -4zM294 365q-1 0 -5 -2q-1 -1 -2.5 0.5t-2.5 1.5q-2 2 0 5q4 2 5 1q5 -4 5 -6zM258 367l-2 1l3 1l2 -1q-2 -2 -3 -1zM271 365l-1 1h1v-1zM295 366v-1h-1
v0zM266 354q-3 0 -5 1q-2 0 -2 3q0 1 2 3l1 1l9 3l1 -2q0 -1 0.5 -2t-0.5 -1q0 -2 -2 -2q-3 -1 -4 -4zM282 356v-1v-1q-1 0 -1 2h1zM77 351l-2 3l-1 -1q-2 -3 -4 -9q0 -2 3 -2q0 -1 0.5 -0.5l0.5 0.5q3 5 3 9zM283 354h-1v0v0h1zM267 354v0h-1v0h1zM226 350h-3q0 3 2 3z
M226 350v0h1v0h-1zM223 350h-1v0h1v0zM230.5 342.5q0.5 -0.5 0.5 -1.5q2 -3 3 0q3 1 4 4q0 3 -1 3l-2 2q-2 -2 -4 -6q-1 -1 -0.5 -1.5zM267 350q0 -2 1 -3q2 0 1 1zM307 341q-1 1 -2.5 2t-3.5 1q0 -4 -1.5 -5.5t-5.5 -2.5l-3 -1l1 -2q4 -2 5 -4q4 2 10 8q2 2 0 4zM214 342h1
v0h-1v0zM213 341h0.5t0.5 1q0 -2 -1 -2v1zM256 340h1l-1 1v-1zM209 333l1 -2h-2zM211 330v0h-1v1zM294 325l1 -2q1 0 2 2v3l-3 -1v-2zM301 281h-4q-2 2 -2 3q0 3 1.5 8t2.5 8q1 2 0 3.5t-2 1.5h-6q-1 0 -3 2q1 0 3 2q2 1 0 5q-1 0 -2 1t-2 0q-2 -1 -4.5 0t-4.5 0q-3 -1 -5 1
q-1 2 -2 2.5t-2 -0.5q-3 -3 -11 -7q-2 -1 -8.5 -3.5t-9.5 -7.5q-1 -1 -2.5 -1.5t-2.5 -1.5q-10 0 -12 -6h-2q-4 0 -4 -3.5v-5.5v-1q-7 0 -8 -4l-3 -1q-3 -3 -9 -3q-1 -2 -2.5 -3t-2.5 -2q-2 -2 -3 -4l-2 -4l-3 -3q-6 -5 -8 -14q0 -1 -1 -1t-2 -1q0 3 -4 3q-1 0 -3 -2l-1 -2
q-3 -8 -12 -8q-1 0 -3 -2l-1 -2q2 -2 3 -2h1q3 3 3 0q1 -1 1 -2t-1 -1q-3 -4 -11 -10q0 -3 -2 -5q-3 -2 -4.5 -5.5t-4.5 -5.5q-4 -2 -6.5 -6t-3.5 -6l-9 -10q-14 -17 -21 -34q-1 -1 -0.5 -2t1.5 -1q6 -4 7 -6l2 -1q2 1 5.5 1.5t5.5 2.5q7 7 20 12q8 2 12 6q7 4 17 10.5
t17 10.5q4 3 11.5 8t13.5 8q3 1 4.5 3t3.5 3q8 6 12 10q8 2 15 8.5t9 8.5q5 5 15 13t14 14q1 3 7 7q3 0 3 2q1 4 5 7.5t6 6.5q1 3 1 8zM184 315l2 1q-1 0 -1 0.5v0.5q-2 -1 -1 -2zM297 312.5v-0.5l2 -2q1 1 1 3l-1 2l-1 -2q-1 0 -1 -0.5zM275 307h1l-1 -1v1zM61 305l-1 2
l-2 -1v-2l1 -2q2 1 2 3zM60 290l-1 1q-1 1 -3 1q-2 -2 -2 -3t2 -3l1 1zM159 279l2 1v2v1q-2 0 -2 -2v-2zM303 283q-2 0 -2 -2l2 1v1zM217 280v1v0v-1v0zM219.5 274q-1.5 1 -1.5 2q-1 1 -1 4h4q3 0 3 -3q0 -1 -2 -3q-1 -1 -2.5 0zM156 276q2 0 2 2h-3q0 -3 1 -2zM209 277v0v0
v-1v1zM209 277zM209 276q6 -1 4 -7q-2 -4 -4 -4h-4q1 1 1 3q4 6 3 8zM194 274q2 0 2 -1v2zM53 269q0 3 -1 4q0 1 -1 1h-1q-9 -16 -9 -27q0 -2 -3 -8q-2 -3 0 -10v-0.5t1 -0.5q2 0 2 1q3 4 5 8.5t4 6.5q2 4 2 6q1 4 1 10v9zM205 265q0 -5 -5 -7q-1 0 -3 2q0 5 5 5h3zM205 265
v0v0v0zM173 241v0v0v-1v1zM170 239q1 1 3 1l-1 -2zM332 233l-1 1v-1h1zM40 219h-1v-1zM143.5 215q-0.5 0 0.5 -2h1v1q-1 1 -1.5 1zM256 150l-1 1q-1 0 -1 -0.5v-0.5q0 -3 2 -1v1zM233 120l-2 2v-1zM85 84l-2 2q-1 1 -1.5 0.5t0.5 -1.5t3 -1zM88 82l-2 1l1 -2zM149 75v1v0
l1 -1h-1zM152 72v1q-2 0 -2 2h3q2 0 2 -2l-2 -1h-1zM116 71q0 2 -1.5 3t-2.5 0q-2 -2 -2 -3q-1 -1 -0.5 -1.5t-0.5 -1.5q1 0 2.5 -0.5t2.5 0.5q2 0 2 3zM97 71v0v1v0v-1zM97 71v-3l-2 2q0 1 2 1zM83 70h1l-1 -1v1zM97 68l1 -1h-1v1v0zM101 68v0v-1v0v1zM98 67h3q0 -2 -2 -2z
M29 -83l-1 5l-1 2l-1 -4q0 -3 3 -3zM33 -87q-1 3 -3 3q0 -3 3 -3zM20 -89l-1 1v-2z" />
    <glyph glyph-name="q" unicode="q" horiz-adv-x="319" 
d="M191 -270q-5 0 -11 8q-3 3 -8 3t-6 2q-2 2 -9 13l-1 1q-14 5 -21 15.5t-11.5 22t-6.5 15.5l-1 4q0 5 9 8q2 1 3.5 2t2.5 2q3 3 1 5q-6 6 -6 12t6 14q1 1 2.5 2t-0.5 3q-6 5 -6 14q0 5 1 10t1 10q-1 3 -1 9t3 12t8 14q2 4 1.5 6t-4.5 4q-6 4 1 8q4 1 5.5 2.5t-0.5 5.5
q0 1 -1.5 3.5t-0.5 4.5q2 4 2 5q0 3 -4 9q0 1 -0.5 3.5t-3.5 2.5q-5 0 -8 -3l-3 -8q-2 -3 -3.5 -3t-3.5 4q-3 5 -8 4q-7 -3 -18 -4t-19 -3h-2q-5 0 -5 10v0v0v1l-1 2v0.5t1 0.5v0v0q-6 9 -7 10q-3 3 -1 6q3 3 3 6q0 5 -5 7t-6.5 7t-2.5 7q-4 4 1 9l5 3q8 10 19 4
q2 -1 5 -1.5t5 -1.5v0l12 8q0 7 5 8q14 8 22 8q6 1 14 5t12 5v2q0 9 3.5 18.5t7.5 17.5q1 1 4 8t1 9q2 -2 1.5 -5.5t-0.5 -4.5l-7 -21q4 -2 5 1l2 4l4 13q0 13 8 26q1 12 11 36l7 19q2 6 4.5 11l4.5 9l-1 1q0 1 -2 1q-4 -4 -5 -6q-8 -14 -18.5 -25.5t-21.5 -21.5t-16 -15
q-8 -8 -45 -40q-22 -19 -48 -19q-24 0 -32 21q0 2 -1 3.5t-1 3.5q1 5 -2 9t-7 7q-6 4 -8.5 9.5t-4.5 15.5v2q0 8 6 9q10 3 12 15q4 19 21 40q8 12 14 23q5 9 14 19.5t15 18.5q20 29 42 54q31 36 62 54l2 1q9 8 23 8q13 0 21.5 -3t12.5 -13q2 -5 6 -6.5t11 -1.5q21 0 36 -25
q4 -5 4 -15q0 -4 -2 -14q-1 -3 -4.5 -19t-11.5 -30q-5 -8 -7.5 -19t-3.5 -15l-23 -72q-9 -28 -20 -74l-6 -21v-4q0 -6 7 -7q23 -6 44 -16q31 -13 49 -50l5 -15q8 -16 8 -37q0 -11 -4 -33q0 -4 -1 -7t-2 -5q0 -14 -7 -30t-9 -21q-10 -21 -19 -37q-14 -27 -32 -43l-22 -23
q-7 -9 -15 -9q-4 1 -7.5 -1t-6.5 -5q-6 -6 -10 -6zM77 179q31 24 28 22q4 4 7.5 5t4.5 -1v-3q0 -4 -4 -8l-4 -5v-2h2h2q4 3 15 10t17 17q2 4 8.5 8t8.5 7q4 7 11.5 15.5t11.5 14.5q1 1 2 2.5t2 4.5l19 58l1 2q0 5 -3 5t-5 -2q-12 -8 -18 -13q-35 -34 -58 -60
q-35 -38 -62 -80q-2 -2 -2 -3v-2h2q7 1 14 8zM81 42q1 0 1 -0.5v-0.5h1zM203 -187q6 5 10 11q3 6 9 13t9 11q2 3 4 3q6 0 3 -5q-2 -7 4 -8q0 -1 2 -1t4.5 1.5t2.5 3.5q2 6 9 18.5t7 21.5q10 17 10 38q0 9 -4 27q-6 24 -22 37q-20 17 -44 17q-6 0 -9 -2t-4 -8q-4 -18 -5 -27
q-8 -65 -9 -68q-2 -22 -2 -36v-9q0 -18 7 -41q3 -8 9 -4q3 2 9 7zM111 -109v4q0 23 4 42v3l1 2q0 2 2 0q1 0 1 -0.5v-0.5q0 -2 1.5 -4t1.5 -4t-1 -3l-2 -2l-3 -6q-1 -6 0 -12l1 -5l-1 -5q0 -2 -0.5 -7.5t-3.5 -7.5v0zM112 -170v2l1 17q0 3 1 5q0 1 1 2t2 1h1v-1q1 -3 0.5 -5
t-0.5 -4v-6q-1 -3 -1 -10q0 -3 -3 -3l-1 -1z" />
    <glyph glyph-name="r" unicode="r" horiz-adv-x="302" 
d="M39 17q-4 3 -10 7t-8 8l-11 6q-7 4 -6 13q3 4 3.5 10.5t1.5 10.5q1 2 1 6v3q0 8 1 13q1 3 1 8.5t1 9.5v15q0 4 -0.5 10.5t0.5 11.5v3q0 4 1 7.5t1 7.5q0 12 3 17q1 8 3 19.5t2 18.5q0 10 2 16q1 1 1 2.5t1 2.5q1 15 5 33.5t6 25.5l15 62l15 60v0v3q1 1 1 5q0 1 3 1l2 -1
l1 -2v-4q1 -1 3.5 -1.5t3.5 -1.5l9 -4q1 0 5 -1t6 -3q1 -2 6.5 -8t6.5 -13l2 -6q3 -8 1 -18q-8 -30 -12 -56q-2 -6 -3 -12.5t-3 -12.5q-1 -4 -1.5 -11.5t-2.5 -11.5q-1 -7 -1 -20q0 -3 3 -5q0 -2 3 -2q3 1 9 5l12 13q0 3 4 7.5t4 7.5q1 4 7 6l5 4l6 8q0 3 4 7h1q1 3 2 4.5
t2 2.5q4 8 14 11q1 0 2 1l2 2l-1 1h1v0v-1q2 0 4 4v0.5t1 0.5v1q0 1 1 1h0.5t0.5 -1v-1v-0.5t1 -0.5q1 -3 3 -1q1 3 4 5.5t5 3.5h3l1 2q1 3 4 4q2 2 5 3.5t4 4.5q0 1 5 3q1 1 3.5 1.5t3.5 1.5q7 7 19 9q3 0 3 4q0 1 -2 7q-1 1 1 3q2 1 3.5 0t1.5 -2q1 -1 1 -2.5t1 -2.5
q1 -2 3 -2.5t3 1.5q2 4 4 4q4 0 4 2q0 1 0.5 2.5t2.5 2.5l5 -1h6l1 2v3l-2 2q-4 0 -14 5h-2h-2q-1 0 -1 0.5v0.5q0 1 1 1h2h1h1q9 2 13 -1l4 -1q4 4 10 -2q4 -4 5 -6q3 -5 10 -7q5 -2 2 -6q0 -1 -0.5 -2t0.5 -2q2 -4 2 -12q7 -3 7 -10q2 -11 1 -17q0 -3 -2 -3q0 -1 -1 -1
t-2 1q-1 0 -3 2q-4 6 -13 8q-1 1 -5 1l-3 -3l-1 -1v0h-0.5t-0.5 1l-2 2v0l-3 -4q-3 -3 -6 -2q-3 2 -7 0l-7 -4q-1 -1 -2 0t-2 3v2h-1l-3 4v1l-3 3q-2 2 -4 -1v-0.5t1 -0.5q0 -3 -1 -4q-4 -1 -5 -5q-4 -1 -7 -7l-1 -4q0 -3 4 -5q4 -1 1 -5q-7 -10 -9 -11q-8 -6 -12 -10
q-2 -1 -4.5 -2t-4.5 -3l-11 -13q-3 -3 -5 -5.5t-4 -4.5q-12 -7 -21 -24q-10 -15 -11 -17q-14 -19 -19 -23q-4 -2 -4 -4q-1 -7 -5.5 -14t-6.5 -11q-3 -9 -13 -25q-4 -6 -8.5 -15.5t-6.5 -14.5q-1 -2 -2 -3.5t-2 -3.5q-5 -9 -10 -22q-4 -11 -20 -41q-4 -6 -6 -12q-1 -5 -7 -7
l-2 -1q-1 0 -7 3zM257 376l2 1l1 -1l-1 -1zM273.5 368h-0.5l1 -1q0 1 -0.5 1zM282 359v3q0 3 -3 4h-4l3 -5l2 -2v0h2zM278 358v0l-1 -1zM286 357q-2 0 -3 1l1 -2zM261 353q0 3 -2 3l-15 -4v-0.5t-1 -0.5v0l2 -2q1 0 1 -1h-1l-2 -3v-2h2q5 0 13 -4zM243 347v2h-1q-1 -1 0 -2
h1zM292 332q2 6 -2 11q-2 2 -2 -2v-1l-1 -9v0l1 -1h1q2 2 3 2zM242 342v0l-1 -1zM278 335q0 2 -2 2q-8 3 -17 1l4 -4l11 -3q3 0 4 4zM192 332q1 0 1 1l1 -2zM194 331q1 0 1 -1v0v0zM204 326q1 3 -2 4h-2l-1 -1v-2q0 -1 2 -3zM260 327q1 0 1 0.5v0.5q-2 0 -2 -1v0h1v0z
M243 322v1v-1v0zM240 311v1v1l2 1l1 2v6h7v-0.5t1 -0.5h1h1h0.5t0.5 -1l-1 -1h-1v-0.5t-1 -0.5l-6 -2q0 -1 -2 -3l-2 -1v-1h-1zM209 317l-1 -1l1 -1v2zM153 292l-2 2v-1v-2v-0.5t1 -0.5q0 -1 0.5 -1h0.5q2 2 0 3zM145 232l-1 2q-2 0 -3 -1t-0.5 -1.5t1.5 -0.5zM140.5 216.5
q0.5 0.5 0.5 1.5q1 0 0.5 0.5l-0.5 0.5h-1l-0.5 -0.5t0.5 -1.5q0 -1 0.5 -0.5zM134 204q0 1 -0.5 1h-0.5q-1 0 -1 -0.5t1 -1.5z" />
    <glyph glyph-name="s" unicode="s" horiz-adv-x="321" 
d="M43 22l-9 -1q-2 0 -2 2t2 2h-0.5t-0.5 1l-8 1q-5 0 -8 5q-1 4 -7 2q-2 -1 -4 0t-2 2q-1 3 -2 7t-3 6v1t1 2q2 2 3 0h4l2 1q1 0 0.5 1t-1.5 2q-4 2 -7 2q-2 0 -3.5 -1t-1.5 -2l-2 -11q0 -3 -3 -3t-7 2q-5 0 -3 3q2 6 -1 9q-1 1 -3 3.5t0 5.5q0 1 -2 3l-6 8q-4 6 1 12
l10 10q1 1 3.5 2t3.5 3q2 2 6 5t5 6q1 2 4.5 6t4.5 7q0 2 6 2q7 0 8 -3q1 -1 1 -3v-5t-1 -5l-6 -12l-1 -3q0 -6 5 -9q5 1 8 -4l4 -1q3 1 7.5 2t7.5 1t7 -2q2 -1 6 -1.5t7 -0.5h4q1 -3 3 -1l1 1h7q2 0 4 2q2 6 7 3q5 -2 8 1q3 2 10 2q6 0 9 5q1 3 7 3q1 -1 2 -1t1 -1
t0.5 -3.5t2.5 -4.5l7 3q1 0 1 1t-1 1q-3 2 -3 3q0 2 1 3.5t3 1.5h4q4 0 7 -1t7 -1q2 0 2 1t-0.5 3t0.5 3q4 1 9 4.5t9 3.5q2 0 4 4q1 3 3 3t5 -1q2 -2 4 -2l3 1l2 2q5 6 9.5 9.5t7.5 5.5q2 2 -2 4l-3 4q-3 5 -7 2q-5 -3 -8 2q-2 2 -3 2q-4 1 -16 8q-12 6 -19 6q-7 -1 -12 8
q0 1 -0.5 1h-0.5q-1 0 -4.5 -0.5t-4.5 1.5q-2 3 -8.5 5.5t-8.5 4.5q1 -1 -14 11q-5 2 -5 3q-1 2 -4 4t-5 4l-3 4q-1 1 -3.5 4.5t-6.5 4.5q-3 5 -10 9q-3 1 -5 6q-3 5 -4 6q-4 4 -6 10q0 2 -7 18l-1 2q1 2 1 6q0 8 -2 16q-1 3 -3.5 6.5t-4.5 6.5l-2 10l-2 10l-1 11q0 10 4 17
q-1 2 1 5t2 6q0 4 2 5.5t7 -0.5q4 0 4 3q1 1 1 3h1l25 28q3 3 8 5q2 0 4 2q3 6 9 8.5t8 3.5q6 2 8 2q8 0 10 5q2 2 3 2l14 1q4 0 7 3q4 4 9 0q3 -3 5 2q1 1 4 0h0.5t0.5 -1l2 -1q1 0 1 -2.5t2 -2.5q1 1 1 2.5t1 2.5q0 3 2 3q6 -2 10 -1q2 0 4.5 -0.5t4.5 0.5h1q5 0 12 -3.5
t11 -3.5q1 -1 1 -3t2 -3q9 -4 11 -5q6 -1 11 -8q0 -1 2 -3q8 -8 8 -22q0 -4 -5 -22q-4 -4 -6 -5q-3 -3 -7 -2q-7 4 -15 4q-15 0 -22 -1q-4 0 -11 -2t-11 -2q-3 -1 -6.5 -2t-6.5 -2l-15 -5q-2 -1 -6 -2t-9 -4l-21 -11q-2 -2 -6.5 -5.5t-9.5 -5.5l-1 -1q-9 -11 -5 -20
q7 -14 11 -19q12 -16 24 -25q11 -11 24 -17q12 -6 18 -10l10 -6q6 -3 15.5 -7.5t15.5 -9.5l31 -14q8 -4 9 -9q1 -3 5 -5t6 -4q2 -3 9 -3q4 0 8 -6q3 -5 4.5 -10.5t3.5 -9.5v-2q0 -9 -7 -20l-12 -17q-4 -4 -7.5 -7t-5.5 -5q-1 -1 -4.5 -3.5t-3.5 -6.5q-3 -2 -6.5 -6.5
t-7.5 -5.5q-5 -1 -10 -6q-22 -15 -39 -17l-4 -2q-3 -3 -9 -4t-9 -2l-21 -5l-17 -6q-4 -1 -8 -0.5t-8 -0.5h-4q-5 -2 -11 -1l-4 -2t-5 -1q-4 0 -12 -2q-7 -2 -10 0q-4 1 -8 0q0 -1 -2 -1q-4 2 -8 2zM49 377v0.5t1 0.5l1 -2zM51 376h1v-1h-1v1zM219 132l-1 -1h1v1zM70 83
q0 2 2 2l2 -2h-4zM70 82q-1 0 -1 1h1v-1v0zM74 83v0v-1v1zM13 46l-1 -1h1v1z" />
    <glyph glyph-name="t" unicode="t" horiz-adv-x="203" 
d="M106 -24l-2 8q0 2 -3 2q-5 0 -7 -6l-4 3q-3 1 -2 5q2 5 1.5 6.5t-4.5 4.5l-2 1v-1l-1 -1v-2h-1v-2v0q0 -1 -1 -1h-0.5t-0.5 1v1v0q0 4 3 6h1v7q0 6 -3 9q-5 3 -2 9q0 3 -2 5q-3 7 -4.5 15.5t-2.5 11.5q0 9 -2 14q-1 2 -1 7q0 43 2 64v3q0 7 -1 11q-1 6 0 12q2 7 0 12
q-2 6 1 11q1 3 1.5 10.5t2.5 10.5q3 11 3 20q0 2 2 6q2 5 3 14t2 15q0 6 1 8q3 4 3.5 11.5t1.5 11.5q2 3 2 10v0q0 8 3 11q3 14 11 40q1 4 1.5 7t1.5 7v4q0 4 -6 12l-2 1h-2q-6 -3 -19 -3q-8 0 -16 -3q-2 -2 -7 2q-2 2 -2 3l-3 -3v-1q-1 0 -1 -1h-1v0v0h-1h-3l-14 -1h-16h-1
q-10 0 -15 2q-3 2 -11 2q-12 0 -25 8q-5 3 -9 10q-2 6 -2 10q-2 5 -4 7q-4 3 -4 8q0 7 -2 10t-2 10q0 5 2 15q2 4 7 4l22 -3q22 -3 23 -3q12 -3 28 -1h20l19 1q5 0 11.5 0.5t15.5 -0.5q2 -1 3.5 -0.5t3.5 -0.5q2 0 6 -1.5t8 0.5q4 -1 11 -1q6 0 8 5q10 17 14 31q1 7 3 12
t3 9q2 8 4 13q8 16 13 40q4 16 7 23l4 18q6 24 22 72l3 5q1 2 2.5 2.5t2.5 -0.5l12 -11q13 -12 16 -27q1 -4 2.5 -7.5t2.5 -7.5q2 -3 4 -13l1 -6q0 -2 -2 -8q-8 -20 -21 -69l-7 -29q-3 -7 -3 -15q0 -4 4 -6h2h1l6 3h6v0h3q1 0 1 -0.5v-0.5q0 -1 -1 -1h-2v-0.5t-1 -0.5h-8
l-3 -2l-1 -1h-1h-1q0 -1 -2 -3q-2 -4 -1 -6t4 -5l5 -6q2 -1 4 -0.5t3 1.5q5 6 12 6q6 0 4 -5l-1 -2v0q2 -2 2 -4l2 -1q1 -1 3 -1q3 0 9 4q3 1 10 1q3 0 3 -4q-3 -7 -8 -9q-1 0 -3 -1.5t-4 0.5q-4 2 -5 -1l-6 -5q-3 -3 0 -4v-4q0 -3 -2 -3q-7 -2 -17 -4q-1 -1 -3 -1
q-3 0 -5 1l-4 2q0 -5 -5 -8q-3 0 -3 -3q2 -1 4.5 -2.5t5.5 -2.5l2 3h1q0 1 0.5 1h0.5v-2v0q-4 -4 -7 -4q-1 -1 -3 -1q-1 0 -4 0.5t-5 -1.5q-2 0 -2 -3q1 -1 1 -3q0 -3 -4 -7t-7 -4q-7 -2 -10 -12l-7 -24q-3 -13 -6.5 -22.5t-5.5 -16.5q-2 -8 -5.5 -18t-6.5 -23
q-4 -12 -4 -16q0 -2 -2 -8q-4 -15 -5 -21q-4 -14 -5 -21q-1 -8 -5 -19q-6 -16 -8 -25q-1 -5 -3.5 -12.5t-2.5 -12.5q-1 -6 -3 -12t-3 -13l-2 -16q-1 -5 -1 -11.5t-1 -11.5q0 -2 0.5 -5t-0.5 -7q-1 -5 -1 -15q0 -16 5 -36l2 -12q1 -4 3.5 -13t6.5 -15l2 -5q0 -4 -4 -8
q-1 -1 -3 -1q-8 3 -9 10zM252 494h1l-1 -1v1zM253 474h3v-1h-2zM241 467v0v-1v1zM246 448v0h1v-1zM247 447q2 -1 0 -3v3zM246 444v0h1v-1zM56 109q-1 0 -1 1v5v2v5l1 1q1 0 1 -0.5v-0.5v-4l1 -1l-1 -4v0v-3q0 -1 -1 -1v0zM57 93h-1h-0.5t-0.5 1v4v2v1v1l1 1q1 0 1 -0.5v-0.5
v-1l1 -1q0 -3 -1 -5v-1v-1v-2v2zM57 77q-2 4 -2 5t0.5 1h0.5q-1 1 -1 3l2 1v-2v0l2 -1l3 -4l-3 -3h-2zM68 17q-1 0 -1 1v0v0.5t-1 0.5q-3 5 -3 9v0v2l1 1q1 0 1 -0.5v-0.5v-1h1l3 -9q1 0 1 -0.5t-1 -0.5v-1v0q0 -1 -1 -1v0zM94 -20v0v0q1 0 1 -0.5v-0.5zM96 -22q-1 0 -1 1
l1 -1v0z" />
    <glyph glyph-name="u" unicode="u" horiz-adv-x="353" 
d="M349 376q0 -10 -4 -26q-4 -18 -8 -29q-9 -22 -16 -53q-1 -5 -3.5 -10.5t-2.5 -10.5q-2 -3 -3 -8.5t-2 -8.5q-1 -7 -5 -19q-1 -3 -3 -7.5t-2 -8.5q0 -3 -4 -11q0 -2 -1 -3.5t-1 -3.5v-2q0 -6 -1 -10.5t-2 -7.5q-1 -10 -5 -25l-5 -23q-2 -12 -2 -18q0 -7 1 -10v-8
q-2 -8 -2 -12t2 -14v-2q0 -5 -5 -12q-1 -1 -3 -1t-3 1l-5 3l-12 18q-4 8 -6 15q-6 26 -4 39v2q0 4 -2 10q0 1 -0.5 3t0.5 5t1 9q0 8 -1 13q-1 6 0 11q1 4 2 11.5t4 12.5v0q0 4 -3 5h-3l-4 -2q-5 -5 -9 -8.5t-7 -6.5l-9 -8q-1 -2 -2.5 -4t-2.5 -4q-3 -3 -10 -12t-15 -14
q-5 -5 -32 -30q-3 -4 -9.5 -10.5t-10.5 -11.5q-3 -3 -7 -2l-7 3q-3 0 -3 -2l1 -2q3 -4 1 -6l-5 -4q-7 -3 -13 -1q-5 0 -7 -2q-1 -1 -6 -4q-2 -1 -6 -1q-10 4 -14 7l-4 1q-6 0 -7 2q-14 12 -19 26q-2 7 -10 21q-12 16 -12 41q0 28 7 50q16 48 27 70q8 16 11 24l10 22
q12 24 25 41q2 2 3 2q2 4 7 1l4 -4q2 -3 6 -3q9 0 12 -6l1 -2h1v-1l2 -1q2 -2 2 -5t-1 -4v-2q4 -2 6 -7t3 -8q2 -4 0 -12q-7 -15 -15 -26q-18 -21 -34 -61q-8 -24 -13 -35q-2 -4 -2 -8q-2 -10 -4 -13q-7 -15 -8 -29q-1 -1 0.5 -2t2.5 -1q12 2 22 8l33 24q18 14 35 26
q5 3 9 7.5t6 7.5q3 3 5 -1l2 -1l1 2q3 9 11 13q2 1 6 5q5 5 9 2q2 0 2 1q1 1 4.5 3.5t4.5 6.5q2 6 0 12q6 2 7 2h4.5t3.5 3q2 6 5 8l4 4q1 8 8 13q4 4 7 10l6 8q5 4 7 11l3 10q5 8 5 11q3 12 3 14q0 10 5 20q3 3 3 8q1 7 4 16t5 14l13 36q0 1 1.5 1.5t2.5 -0.5q9 -3 13 -12
q1 -4 3 -7t3 -5q3 -4 7 -12q4 -12 8 -18q4 -4 4 -11zM124 346l2 1h-1v1l-1 -1v-1zM213 254zM213 253v1v-1zM214 252v0v0l-1 1v0z" />
    <glyph glyph-name="v" unicode="v" horiz-adv-x="311" 
d="M107 25q-8 0 -14 9q-11 13 -22 28q-7 9 -12 21q-8 16 -11 25q-4 10 -4 15q0 3 -1 4q-4 12 -4 25.5v16.5l-2 22q-2 8 1 15q1 6 0 10q-2 8 -2 24v36q0 40 -1 60q0 13 -1 20q-3 17 -3 34q0 11 -1 18.5t-2 12.5q-1 4 2.5 6.5t6.5 0.5q7 -3 13 -6.5t10 -5.5l3 -3l21 -29
q11 -15 11 -29l3 -16l1 -33v-21v-6q0 -6 1 -12t1 -12q-1 -3 -0.5 -8.5t0.5 -8.5l-1 -2q0 -3 1.5 -8t0.5 -8q-1 -2 -1 -5l1 -11q0 -13 1 -20q0 -18 1 -28v-0.5t1 -0.5h0.5t0.5 1l11 19q1 2 2 6.5t3 6.5q3 3 5 11l3 5q4 5 10 17q6 10 16 30q4 8 4 13q2 8 4 11q4 8 5 13
q0 2 3 5q1 2 3 3.5t2 3.5q0 4 2 8t4 10q4 11 9 19q2 4 4 9.5t5 8.5q6 10 8 16l10 23q7 12 12 28l3 7q2 2 5.5 3.5t5.5 0.5q1 0 1 -1t1 -2q0 -3 2 -3t4.5 0.5t4.5 -0.5q4 -3 12 -7q2 0 5 -3q4 -9 9 -13q2 -2 2 -3l11 -28q1 -3 1 -8v-2q0 -3 -2 -8t-3 -9q-1 -8 -5.5 -17
t-6.5 -15q0 -3 -1 -4q-8 -12 -10 -19q-2 -3 -4.5 -7.5t-4.5 -10.5q-2 -5 -3 -5q-9 -13 -16 -32q0 -1 -3 -7l-9 -16l-8 -16q-2 -2 -4 -5.5t-5 -7.5q-3 -3 -6.5 -9t-5.5 -9l-13 -20l-5 -7l-10 -9q-2 -3 -2.5 -7.5t-0.5 -6.5q-3 -6 -4 -7q-2 -4 -6.5 -10t-5.5 -11l-12 -17
q-6 -7 -7 -17q0 -4 -1 -6.5t-2 -4.5q-3 -11 -13 -14q-7 -4 -12 -4z" />
    <glyph glyph-name="w" unicode="w" horiz-adv-x="432" 
d="M398 278q-2 -10 -2 -15l-1 -12q-1 -5 -3 -11t-1 -11q-4 -14 -4 -21q-2 -6 -5 -19.5t-8 -22.5q-1 -4 -3.5 -9.5t-3.5 -9.5q0 -2 -4 -6q-3 -3 -3 -7q-6 -20 -12 -30q-4 -7 -10 -23l-7 -15q-3 -4 -4.5 -7.5t-3.5 -6.5q-3 -8 -10 -19l-11 -9q-2 -1 -5 -2l-6 -2h-4
q-2 1 -4.5 2t-4.5 2q-5 2 -9 -2q-4 -3 -8 2l-2 3q-2 3 -4 1l-2 -1q-1 1 -6 2.5t-7 5.5q-1 3 -5 4q-7 2 -13.5 7t-8.5 6q-1 3 -4.5 7t-4.5 8l8 4q3 2 3 5q-1 2 -1 5q-3 6 -4 10q-4 6 -5 10q1 1 1 3q0 3 -1.5 6t-0.5 5v3q0 9 -4 16l-1 16q-3 5 -5 6h-1q-5 -5 -6 -10
q0 -2 -3 -11q-1 -3 -4 -3h-2t-2 -1l-8 -16t-10 -17q-1 -5 -4.5 -11t-5.5 -10q-3 -8 -7 -12q-1 -1 -5.5 -6.5t-5.5 -12.5l-8 -13l-4 -2q-2 -2 -6 -3.5t-6 -2.5q-3 -1 -1 -5q1 -1 3 -2t2 -3v-2q-3 0 -7 -0.5t-6 0.5q-1 1 -2 0.5t-2 -0.5l-2 4q0 3 -2 3q-4 0 -14 -2q-3 0 -5 2
t-12 11q-3 1 -3 7q-1 3 -4 4t-4 1l-7 11q-2 2 -4 2h-3t-7 3l-10 9q-4 4 -5 9v2q0 1 -1 2.5t0 2.5q0 1 1.5 2t1.5 2q1 2 0 4t-1 4t-1.5 6.5t0.5 8.5q1 1 1 5q0 2 -1 4t-1 4l1 10q1 15 0 28q0 6 3 10q2 2 2 4v27q3 6 3.5 17t2.5 16q-1 2 -1 5t1 6.5t1 6.5q0 4 1 8.5t2 6.5
q-1 2 -1 5t1 6t1 7v2q0 9 1 14q0 3 2 7l1 4q0 7 2 21q3 12 3 24q0 11 2 16q1 6 1 16q0 23 1 34l1 3q2 2 4 -1q9 -7 11 -11l2 -4t3 -4t4.5 -3.5t3.5 -2.5l4.5 -4.5t6.5 -4.5q2 -2 5 -3.5t5 -3.5t6 -10q4 -5 4 -13q0 -3 1.5 -6t1.5 -7q0 -16 1 -24v-1q0 -4 -1 -6.5t-2 -4.5
t-1 -7l2 -8q0 -8 -1.5 -16t-1.5 -16q0 -7 -1.5 -17.5l-2.5 -17.5q-1 -5 -1 -14q1 0 1 -2q0 -3 -1 -5l-2 -4q-3 -5 -5 -15q-2 -17 -5 -25q-2 -6 -2 -16q0 -1 2 -3l2 1l12 15q2 2 7 2l3 -4q4 -4 5 -1q1 4 4.5 10t4.5 11q1 3 6 6q6 4 6 9q0 3 2 8t2 7l1 2q3 6 4 7l4 4v2
q0 2 1 3.5t1 4.5q0 1 -0.5 3.5t3.5 4.5q3 1 7 9q7 5 7 13q0 5 4 9q2 2 1 5q0 1 1 4q2 2 2 5l2 6l-1 3q2 4 2 6q1 1 0 4v7q0 8 1 9q3 12 4 22.5t0 23.5q0 2 -0.5 6t0.5 10q1 2 3 3.5t3 0.5q4 -2 7 0q3 1 7 1q3 0 9 -2h3t4 -2q3 -4 9 -13.5t13 -16.5q2 -3 4.5 -7.5t4.5 -9.5
q2 -8 4 -22v-10q0 -6 -1 -9v-2v-22l1 -28l-2 -4q-1 -1 0 -3q2 -3 1 -8t0 -7q-2 -4 -2 -14l-1 -32q0 -7 -2 -21q-2 -6 -2 -10q0 -24 1 -36q0 -11 5 -23q0 -2 4 -4q2 -2 3 -1q2 2 6.5 7.5t5.5 10.5q7 7 13 25q4 7 8 12.5t7 10.5q3 3 3 6q0 1 -0.5 4t1.5 4q6 3 11 8q1 1 5 5.5
t4 10.5q0 1 1.5 2.5t2.5 1.5q3 3 4 7q1 2 0 3t-3 2h-1l1 7q6 5 8 14q4 7 6 17q1 4 5 10q3 2 0 3q-1 1 -2.5 2t1.5 3q4 1 4 6q0 1 0.5 4t-1.5 5q-3 5 1 11l2 1q2 4 1 8q-1 1 -1 3q3 6 3 18q0 2 4 6l2 4l-3 2q-3 0 -3 3t1.5 6.5t0.5 6.5q-1 2 3 4l1 2l-2 3l-2 4q0 1 3 4
q1 1 0.5 1.5t-1.5 0.5q-5 2 -2 4q2 4 1 6l-8 9q-3 6 -4 7l1 2q0 3 -4 8t-4 8l-8 9q-1 2 2 5t4 1q3 -2 10.5 -6.5t11.5 -10.5q4 -4 8 -6q1 0 3 -2q2 -8 8.5 -18.5t10.5 -18.5q2 -4 2 -8q0 -5 1 -7q0 -3 3 -7.5t3 -7.5q0 -6 2 -16l1 -6q2 -3 0 -7q-3 -4 -1 -8q3 -6 1 -14z
M166 296h-1l1 1v-1zM162 280l-1 1h1v-1zM125 215q2 6 6 7l2 -1l1 -1q-1 -3 -2 -4.5t-2 -2.5q-1 -3 -3 -1q-2 0 -2 3zM323 203h1v-1h-1v1zM323 202q1 -1 0.5 -1.5t-1.5 -0.5q-1 -1 -1.5 -0.5t0.5 1.5q0 1 2 1zM104 167q0 10 8 16l1 2q2 -2 2 -3q0 -3 -1.5 -5t-2.5 -5
q-4 -4 -7 -5zM312 170v-1h1q1 1 -1 1zM104 166h-1v1h1v-1zM187 117q0 -2 -0.5 -3.5t-1.5 -0.5l-1 4l1 3zM193 96v1h1zM194 89q1 -1 1 -4l-2 -1q-1 0 -1 2q0 3 2 3zM197 78l1 -2h-1v2zM203 68v-1q-1 0 -1.5 0.5t0.5 1.5zM204 67v0q0 -1 -0.5 -1h-0.5v1h1zM47 43v0l1 -1h-1v1z
M45.5 42.5q0.5 0.5 1.5 -0.5v-3q-2 0 -2 2q0 1 0.5 1.5zM47 38v1h1v-1h-1zM49 36l-1 2l2 -1z" />
    <glyph glyph-name="x" unicode="x" horiz-adv-x="263" 
d="M-13 3q-14 20 -21 27q-2 5 1 8l14 13q4 3 2 7q0 3 2 3q1 1 4 1h4q1 1 2 1t1 1q0 3 -1 4q0 1 -0.5 1h-0.5l-3 3q0 1 2 3t3 2q4 1 4 5v4.5t1 4.5l8 9l4 9q1 5 6 12q1 0 3 5q0 2 2 6q10 9 13 18l4 5q1 2 5 6t4 9q3 3 6.5 10t6.5 12q3 4 6.5 10t7.5 9q6 5 3 13q-1 2 -1.5 6
t-3.5 7q-2 0 -2 5v2q0 8 -3 17l-4 12q-7 18 -11 32q-1 5 -4.5 17t-8.5 22l-1 4v1q0 4 -2 11t-2 10q0 5 -4 15q-1 2 -3 9t-2 13q0 7 -3 13q0 4 3 5t9.5 3t11.5 2q8 0 12 -5q10 -13 12 -18q1 -3 4 -5.5t4 -5.5q1 -2 3 -7t1 -10q0 -3 4 -5q3 -3 3 -4q2 -6 7 -17.5t6 -17.5
q4 -12 5 -18q0 -5 5 -8q4 -3 5 -7t1 -5t1 -1.5l1 -0.5q2 0 4 2l1 2q1 5 4 10.5t4 7.5l12 21q1 2 1 7l3 2q3 2 2.5 3.5t-3.5 2.5l-3 2q-1 1 -0.5 2.5t1.5 2.5l3 3q7 4 10 14q0 3 7 8q1 3 4 4q2 1 2 5q-2 5 6 5q3 0 4 2q1 1 0.5 2t0.5 2l3 5q22 11 25 12q6 2 12 0l15 -5
q8 -4 8 -10q0 -8 3 -12q1 -1 1 -5q1 -5 0.5 -11t-0.5 -9q0 -5 -2 -8l-3 -7q0 -8 -8 -13q-1 -1 -1.5 -2t0.5 -1v-3q0 -2 -1.5 -4.5t-0.5 -4.5q-2 -2 -3.5 -5.5t-4.5 -5.5q-5 -5 -8 -12q0 -2 -3 -4q-1 -1 -6 -8q-2 -8 -5 -11q-5 -5 -10 -14t-8 -14l-11 -16q-4 -5 -5.5 -9
t-3.5 -7l-7 -9q-6 -6 -4 -17q2 -6 4 -9q2 -6 4 -11.5t4 -11.5l3 -5q7 -8 15 -28q1 -1 8 -11q2 -5 -1 -8q0 -2 -1 -3l-2 -2q-3 -2 -3 -9q-4 -2 -12 -4q-2 0 -2 -2l2 -1q3 -1 5 -7l3 -2q1 -3 4 -4q-1 -3 -4 -4h-1q-6 0 -9 5l-4 5l-3 -1q-3 0 -5.5 3.5t-3.5 4.5l-3 5l-8 9
q-13 14 -25 31l-4 5q-1 1 -2.5 1t-2.5 -1l-4 -5q-1 -1 -1.5 -3t-2.5 -3q-7 -5 -12.5 -12.5t-9.5 -15.5q-3 -5 -10 -9v-1h0.5t-0.5 -1q0 -2 1 -1.5t0 -0.5q-3 -3 -6 -5t-6 -5q-1 -1 -6 -1q-2 0 -2 -2q0 -3 0.5 -3.5t1 0t-0.5 -0.5l-4 -4q-6 -2 -8 -8q-2 -2 -3 -2h-4
q1 -3 -1 -7l-3 -5q-1 0 -4.5 -1t-4.5 3q-1 1 -4 1q-2 0 -2 -3q-1 -1 -0.5 -3t-0.5 -3l-1 -3q-1 -1 -3 2l-1 4q-1 1 -4 3h-1q-3 0 -6 -1.5t-5 -0.5q-3 0 -3 -3q0 -2 0.5 -5t-0.5 -7q0 -8 -1 -12q0 -3 -1.5 -5.5t-1.5 -5.5l-1 -2h-1zM172 381q0 3 -3 4q0 -3 1 -5q0 -1 1 -1z
M139 339q-1 -1 -1.5 -0.5l-0.5 0.5q0 7 8 9q1 1 2.5 0t1.5 -3q-3 -1 -9 -7zM149 345v0v0v0v0zM153 125q2 1 2 2l-2 1q-1 1 -3 0.5l-2 -0.5l-2 -1q2 -2 3 -2q2 -1 4 0zM186 110q1 0 1 1v0.5t1 0.5l-3 3q-2 2 -8 2l-1 -1q-2 -2 1 -2q2 -1 4 -3t5 -1v0zM198 99l1 1v-2zM189 97
v0v0v0v0zM189 97q4 -2 4 -4q-4 2 -4 4zM193 93v0h1h-1v0zM194 93q1 0 3.5 0.5t4.5 -1.5l1 -1l-2 -1q-5 -2 -7 3zM63 86.5v0.5l-1 -1q1 0 1 0.5zM60 84l-2 -1l2 -1v2zM187 83q1 0 1 -2h-3q1 2 2 2zM188 81h1v0h-1zM185 81v0v0v0zM189 81q2 -2 0 -3v3zM189 77v1v-1v0zM196 66
q-1 1 0 4q4 7 8 7t8 -4q1 -3 -1 -6l-3 -4q-1 -1 -3 -1q-3 0 -9 4zM36 58h1h-1zM33 45v0v0h0.5t0.5 -1zM34.5 44h-0.5v0h0.5t0.5 -1q0 1 -0.5 1z" />
    <glyph glyph-name="y" unicode="y" horiz-adv-x="366" 
d="M225 -189q-3 2 -2 4.5t1 3.5v0q-2 2 -2 3q-2 5 -6 11l-3 2q-5 7 -5 14v3q0 12 -3 18q-2 4 -2 7v9q0 6 -2 9l-1 22q0 5 -1 7q-3 9 -3 17l1 11q1 1 -1 3q-3 3 -1.5 5l1.5 2q4 6 1 9q-1 2 -1 8q2 4 1 8q-1 2 -1 5q0 5 4 11q2 2 -1 5q-2 2 1 3q2 1 3 2.5t0 3.5v6t1 8
q1 2 -1 6q-3 7 -1 13q1 4 2 11t4 12q2 8 2 14q-1 5 0 9q7 23 8 43q0 1 -2 3q-1 1 -4 0l-4 -5q-1 -1 -1 -2.5t-1 -2.5q-4 -4 -7 -3q-1 1 -2 0.5t-2 -0.5l-4 -4q-30 -30 -37 -36q-11 -11 -30 -14q-2 0 -4.5 -1t-5.5 -1q-1 -1 -4 -1q-4 0 -10 2l-9 3q-2 0 -10 6q-3 1 -5.5 4
t-5.5 4q-6 4 -9 11l-1 2q-3 3 -10.5 9t-11.5 13l-6 9l-7 9q-9 13 -9 35v31q0 2 3 11q2 7 4 13.5t4 13.5q3 9 13 40q4 14 8 20q8 16 11 32q2 10 5.5 18.5t5.5 18.5q1 3 7 9q1 1 3.5 3t4.5 1h5t7 -2q3 0 3 -2q9 -8 17 -17l1 -2q1 -5 3.5 -8t4.5 -9l3 -13l1 -11q0 -9 -4 -17
q-11 -27 -21 -59l-9 -27q-3 -9 -7 -27q-1 -5 -5.5 -20.5t-5.5 -18.5q0 -1 2 -3v-0.5t1 -0.5q3 0 15 6l10 5q17 11 29 23q27 24 40 39q1 1 19 22q26 34 32 42l3 5q1 2 5.5 6t5.5 7t8 17q0 1 5 8q16 20 19 34q4 7 10 23l11 22q1 4 7 1q3 -2 5 0q4 5 11 5h9q11 0 14 -10
q8 -15 16 -47q1 -4 1 -11l-1 -17l-1 -6l-11 -32q-3 -12 -9 -24q-4 -8 -10 -24l-18 -52l-9 -26l-2 -6t-2 -7q-4 -16 -14 -48q-3 -10 -8.5 -26.5t-7.5 -28.5q-4 -9 -8 -27q-5 -20 -10 -55l-7 -39q-4 -24 -4 -35q0 -15 2 -45q0 -3 2 -11q3 -10 2 -17v0q3 -2 3 -6v-1l-1 -1v0
q-1 0 -1 0.5v0.5v1v1v1v1l-2 1v1h-3q-3 -2 -3 -3q0 -7 4 -11q1 0 0.5 -1t-1.5 -2t-2 -1h-1z" />
    <glyph glyph-name="z" unicode="z" horiz-adv-x="348" 
d="M78 26q-4 0 -10 2q-2 1 -5.5 1t-5.5 1q-12 2 -13 12q0 1 -2 -1l-3 -1q-2 1 -4.5 3t-3.5 5q-3 7 -7 9q-3 3 -5.5 7.5t-3.5 7.5q-5 10 -5 14q0 9 -8 23q-3 5 1 9q3 3 -1 5v3q0 3 4 7q5 3 3 8q0 3 1 4q0 1 2 3t5 5.5t6 7.5q1 3 4.5 6t3.5 7q12 14 14 18l12 17q3 5 8 8l41 41
q5 5 13 12t13 11q4 2 9.5 7t9.5 8q6 4 18 14q6 5 9 10q3 3 1 7q0 2 -1.5 3t-3.5 1q-3 0 -6.5 0.5t-7.5 -0.5q-7 -2 -19 -3t-21 -3q-6 -2 -19 -2t-19 1q-7 1 -12 8q-5 8 -9.5 19.5t-6.5 15.5q-1 3 -1 9q0 7 -3 14v3q0 5 2.5 9t6.5 4q40 6 44 6q11 0 18.5 1t13.5 2q22 0 33 2
q4 1 13 1l54 2q1 0 2.5 -0.5t3.5 0.5t8 1l12 -1q11 0 35 -4q15 -1 18 -17q3 -10 4 -17.5t2 -12.5v-5l1 -16q0 -8 -7 -19q-11 -19 -29 -33l-52 -40q-16 -12 -24 -19l-15 -13q-34 -28 -49 -45q-2 -1 -6 -5q-20 -15 -42 -42l-15 -17l-1 -2q2 -2 3 -2q8 0 11 1q25 5 39 10
q2 1 9 3t13 2q4 0 6 1q9 5 22 9t20 6q5 2 13.5 4.5t19.5 7.5l16 5q3 2 5 0l5 -1q3 0 7 4l2 1q2 0 4.5 -2t3.5 -3q2 -1 6 -1q5 0 8 4q2 4 5 6.5t5 6.5q2 5 7 1l1 -1v-2q-2 -9 -5 -12q-10 -14 -14 -21q-2 -4 -6.5 -9t-7.5 -9q0 -1 -2 -3q-7 -5 -19.5 -16t-24.5 -15l-7 -3
q-7 -6 -23 -12q-1 0 -2.5 -0.5t-3.5 -2.5q-5 -4 -16.5 -9t-16.5 -8q-8 -3 -15.5 -6.5t-15.5 -6.5q-23 -8 -46 -12q-6 -2 -9 -2z" />
    <glyph glyph-name="braceleft" unicode="{" horiz-adv-x="263" 
d="M265 666q0 -6 -1 -9q-6 -32 -11 -48q-4 -12 -19 -47q-8 -20 -22 -41t-18 -28q-22 -34 -40 -49l-5 -6q-4 -7 0 -15l4 -5q32 -38 32 -91q0 -18 -1 -27q-4 -26 -16 -65q-16 -46 -25 -68q-8 -20 -15 -36.5t-13 -30.5l-9 -22l-2 -9q0 -9 15 -9q8 -1 13.5 -0.5t8.5 0.5v0
q4 0 10 0.5t14 -0.5q5 0 8 -3t3 -8q0 -20 -24 -31q-2 -2 -4 -1t-5.5 2t-6 0.5t-5.5 -3.5q-2 -2 -9 -2t-10 -2q-4 -2 -7 -2q-6 0 -12 7q-1 1 -23 26q-18 19 -14 41q3 36 14 61q6 13 16 41q4 9 10 27q21 51 33 109q6 28 6 41q0 14 -4.5 19t-16.5 6h-4q-6 0 -9 -1h-8
q-7 0 -17 1.5t-16 0.5q-4 0 -7 3q-11 15 -16.5 26t-6.5 24q0 6 3 6q2 1 7 2t8 7q3 4 16 8q8 2 20 12q78 65 122 166q12 28 16 49q2 11 6 21q1 3 4.5 3t4.5 -3l24 -33q4 -5 4 -14z" />
    <glyph glyph-name="bar" unicode="|" horiz-adv-x="240" 
d="M232 671q-11 -88 -29 -147q-10 -32 -21 -74.5t-16 -61.5l-16 -62l-6 -20q-3 -12 -12 -43t-14 -56q-3 -15 -8 -33.5t-7 -27.5q-10 -33 -16 -73l-5 -25t-4 -38q0 -22 3 -32q1 -5 1 -14q1 -1 1 -5q0 -5 -4 -8q-1 -1 -4 -1q-2 0 -4.5 2.5t-4.5 3.5l-8 6q-4 1 -4 6q1 2 1 5
q0 7 -5 14q-5 6 -7 13t-3 18v46q0 30 5 68q1 6 3.5 24t7.5 33q7 21 11 52q4 33 14 75l8 33q4 24 12 53l11 48q6 29 17 62q4 16 7 24q4 16 5 24q3 20 6.5 35t5.5 25q2 16 5.5 30t5.5 28q3 17 3 33q0 12 -1 18v1q0 5 3.5 7.5t7.5 -0.5q18 -10 29.5 -19.5t19.5 -22.5
q7 -14 6 -24z" />
    <glyph glyph-name="braceright" unicode="}" horiz-adv-x="287" 
d="M244 421q-5 -26 -16 -44l-12 -21q-15 -24 -27 -71l-36 -135l-12 -44q-7 -27 -29 -77q-3 -9 -9 -14t-17 -12q-4 -3 -10 -3q-7 0 -12 4q-18 11 -27.5 18t-15.5 20l-10 17q-3 5 0 9q3 3 6 3q9 0 16 -9q5 -7 11 -9t11 -2q10 0 15 8q8 11 14.5 23t9.5 24q5 23 14 39q3 -1 3 -4
t1 -4q2 -2 3 -1q9 14 6 24q-1 3 -6 5q0 1 -0.5 2t0.5 2l21 82l5 10q1 2 2 3.5t1 4.5q0 10 6 30q2 7 4 23q1 2 1 5q0 12 -13 13q-9 2 -14 1h-3q-12 0 -19 13q-4 5 -5 11q-17 36 -17 68q0 21 12 48q14 31 44 81q20 38 26 53q3 6 7 20v3q0 7 -6 10q-10 7 -25 7q-14 0 -26 -5
t-17 -14l-6 -8q-4 -4 -7 -3q-4 0 -4 5l-3 14q-2 10 -2 15q0 23 16.5 39t41.5 16q41 0 58 -38q11 -27 15 -51q2 -12 2 -17q0 -15 -4 -28q-8 -28 -36 -80q-8 -12 -18 -31.5t-17 -32.5q0 -1 -2.5 -6.5t1.5 -9.5q2 -2 5 -2q1 0 10 3q38 13 55 36l5 6q4 4 7 0l10 -6
q21 -12 18 -36zM115 165v0v0v1v0v-1zM105 105l-1 1l-1 -1h2zM93 78q0 1 -1 1.5t-2 -0.5h-0.5t-0.5 -1q0 -2 2 -3q2 2 2 3z" />
    <glyph glyph-name="sterling" unicode="&#xa3;" horiz-adv-x="390" 
d="M391 88q0 -5 -4 -5q-4 -1 -7 1q-5 4 -12 4q-3 0 -9 -2t-8 -2q-3 0 -9 2l-17 3q-3 1 -8.5 2t-8.5 4q-6 5 -17.5 8.5t-16.5 5.5q-12 5 -36 9q-2 0 -12 1t-18 6l-2 1q-8 -2 -24 -4q-25 -2 -37 -7q-26 -12 -34.5 -28t-6.5 -44l1 -14q0 -4 -2 -14q-1 -8 -10 -19q-6 -6 -13 -6
t-12 6q-7 7 -11 14l-23 46q-3 5 -3 11q0 3 2 9v0q4 9 4 22v19v1q0 3 -2 7t-3 7q-2 3 -2 11q0 6 1 9q4 12 4 27q0 23 7 53q1 3 1 7q0 9 -9 17q-13 9 -19 24q-7 14 -5 24q1 2 1 5q0 5 -4 15v2q0 5 5 5q7 0 15.5 -2t11.5 -3q3 0 11 -2h4q7 0 10.5 3t5.5 11q20 65 50 135
q20 49 57 114q18 31 40 53q14 15 44 28q5 3 10 3t11 -3q2 -2 3 -2q19 -3 28 -15t13 -31q2 -9 2 -27q0 -40 -17 -79q-2 -6 -20 -36l-7 -7q-5 -2 -7 0q-10 8 -12 13l-9 30v8q0 10 5 17q5 9 8 18l1 3q0 7 -10 5q-15 -4 -27 -18q-25 -31 -40 -57q-3 -6 -11 -18q-10 -18 -12 -22
q-9 -18 -25 -54q-8 -16 -22 -50l-3 -9q-1 -2 -1 -5q0 -7 9 -6q8 1 25.5 2t31.5 5q10 2 17 2h2q9 0 12 -10q17 0 24 3q6 2 8 2l10 -1h2q6 0 10 4v0h5v0v0l11 -4q-1 -1 -2.5 -3.5t-3.5 -3.5q-11 -5 -19 -10q-28 -14 -44 -19l-20 -8q-30 -15 -74 -24q-10 -1 -23 -5
q-10 -1 -15 -12l-3 -11q-10 -36 -14 -54q-2 -8 -2.5 -21.5t-1.5 -22.5q0 -5 4 -7q2 -1 7 4l6 10q1 1 1 2.5t1 2.5q6 4 13 12.5t13 13.5q8 7 19.5 9.5t14.5 3.5q13 4 29 4q21 0 45 -7q29 -7 47 -21l16 -10q5 -3 18.5 -11.5t22.5 -18.5q2 -2 6 -3t5 -1q9 0 14 -6
q13 -16 39 -20q3 0 4 -1q2 -1 2 -3zM286 329q2 9 12 19q1 1 4 1t4 -2t-1 -4q-5 -12 -19 -14zM286 329v0v0v0v0v0zM208 325v-7l7 7h-7zM38 77q-1 2 -4 -1q2 0 3 -1q1 0 1 2z" />
    <glyph glyph-name="Euro" unicode="&#x20ac;" horiz-adv-x="450" 
d="M389 68q3 0 5.5 -3t3.5 -4l9 3h1l-10 -3v0q-14 -13 -29 -14q-6 -1 -16 -7q-3 -2 -12 -6t-17 -5v0l-7 -5q-15 -5 -31 -8.5t-31 -3.5q-1 0 -3.5 0.5t-3.5 -0.5q-10 -2 -14 -2q-16 0 -38 13q-1 1 -6 4t-11 2q-4 0 -7 3q-17 15 -27 26t-16 26q-5 12 -17 36q-13 33 -13 64
l1 10q0 10 -2.5 12.5t-10.5 0.5l-52 -18q-22 -9 -39 -9q-19 0 -29 15q-3 6 -8 11q-1 1 -2 2.5t-1 2.5v1q0 5 -2 12.5t-3 13.5v2q0 8 8 9q20 5 39 6q11 1 33 5q5 1 12 2t17 1q9 0 14 -1l6 -1q7 0 21 4q7 2 10 9l9 28v3q0 6 -5 9l-10 5q-11 2 -20 15q-12 18 -16 27q-3 5 -3 15
v14q0 5 1 8t4 3l13 -2l46 -10l14 -1q12 0 15 7q4 9 10 11q3 1 1 5q-5 6 2 9q5 2 6 6.5t1 5.5q9 27 23 42v0q0 12 11 20q3 17 17 35q12 17 25 37q14 21 50 57q25 24 55 29v-1q7 0 14 -1t11 -3l14 -10.5t15 -18.5q3 -7 7.5 -17t6.5 -17q3 -12 3 -25q0 -10 -1 -16q0 -6 -4 -12
q-3 -4 -7.5 -4t-6.5 4q-4 7 -10 21q-4 8 -8 10t-12 0q-16 -3 -27 -10q-34 -24 -52 -48q-28 -35 -52 -78q-1 -3 -12 -19l-6 -12l-1 -4q0 -8 9 -8q7 -1 22 -1q16 0 31 3h7q10 0 15 -5q7 -7 7 -14q1 -6 2 -7.5t7 -1.5q1 0 3.5 0.5t3.5 -1.5q-18 -18 -53 -27q-8 -2 -19.5 -4.5
t-18.5 -5.5q-4 -2 -14 -2q-9 0 -27 -4q-10 -3 -14 -11t-1 -18q2 -8 2 -13v-2q0 -12 -9 -17l-1 -1q-12 -7 -18 -17.5t-12 -27.5q-3 -10 -7 -32q-1 -4 -1 -13q0 -31 22.5 -57.5t50.5 -31.5q22 -4 31 -4l16 1q6 1 22 3.5t28 6.5q9 2 20 3t15 1q1 1 2.5 -0.5l2.5 -2.5h-1
q6 1 16 1q7 0 7 -6q0 -2 -0.5 -4t0.5 -5q0 -2 1.5 -3t2.5 0q4 5 7 5zM342 379.5q2 2.5 4 1.5q3 0 5 -3t1 -7q0 -6 -6 -6q-2 -1 -4.5 2t-2.5 7q1 3 3 5.5zM436 85q6 0 9 -1q-2 -4 -6.5 -4t-6.5 -1q-1 -1 -3 -4t-5 -4q-1 -1 -4 -2t-4 -1v6v3q0 5 1 5.5t5 1.5t14 1zM388 81h1v0
h-1zM388 80v1l-1 -1h1zM415 67l-7 -3q1 7 7 3zM416 68v-1v0h-1zM407 64h1h-1zM343 45q0 4 -1 5q0 1 -1 1t-2 1v-3z" />
    </font>
</defs>
</svg>
